<?xml version="1.0" encoding="UTF-8"?>
<svg width="400px" height="127px" viewBox="0 0 400 127" version="1.1" xmlns="http://www.w3.org/2000/svg" xmlns:xlink="http://www.w3.org/1999/xlink">
    <defs>
        <filter color-interpolation-filters="auto" id="filter-1">
            <feColorMatrix in="SourceGraphic" type="matrix" values="0 0 0 0 0.101961 0 0 0 0 0.286275 0 0 0 0 0.960784 0 0 0 1.000000 0"></feColorMatrix>
        </filter>
    </defs>
    <g id="draft" stroke="none" stroke-width="1" fill="none" fill-rule="evenodd">
        <g id="logo/light/media_financiers" filter="url(#filter-1)">
            <g id="Combined-Shape-2" fill="#1A49F5">
                <path d="M114.786609,0 C121.338514,0.00288207675 126.645182,5.31166744 126.645182,11.8626279 C126.645182,17.5979606 122.566456,22.382208 117.153135,23.4802792 L117.153135,23.4802792 L117.13584,126.600985 L0,126.580811 L0.0288249232,9.46474003 L103.161518,9.48779665 C104.26263,4.07237444 109.047567,0 114.786609,0 Z M112.169306,23.4082273 L90.815803,70.6569935 C93.5858781,72.8300794 95.3960833,76.1675242 95.3960833,79.9603372 C95.3960833,86.5084156 90.0836499,91.817201 83.5317449,91.817201 C80.1592289,91.817201 77.1354944,90.3934551 74.9765077,88.136789 L74.9765077,88.136789 L11.8470434,121.839794 L112.391258,121.857087 L112.408553,23.4773972 C112.327843,23.4601047 112.250016,23.4284019 112.169306,23.4082273 L112.169306,23.4082273 Z M4.75611232,81.8769183 L4.74746485,120.25177 L72.4572094,84.1018815 C72.2611999,83.5773436 72.1199578,83.0268669 71.9931281,82.4763902 L71.9931281,82.4763902 L4.75611232,81.8769183 Z M238.544687,85.0535433 C242.27175,85.0535433 245.122535,85.944105 247.097042,87.7281105 C249.068667,89.5149981 250.057362,92.2068578 250.057362,95.8065716 L250.057362,110.62621 L244.468209,110.62621 L244.468209,107.548152 C243.741821,108.65487 242.707006,109.499318 241.36953,110.08438 C240.023406,110.663677 238.406328,110.960531 236.51253,110.960531 C234.618733,110.960531 232.955535,110.631974 231.543113,109.986389 C230.11628,109.343686 229.020933,108.438714 228.248425,107.285883 C227.473034,106.135935 227.089663,104.836118 227.089663,103.383551 C227.089663,101.112475 227.931351,99.2852382 229.626256,97.9076056 C231.309632,96.5415012 233.967289,95.8526848 237.602112,95.8526848 L244.136722,95.8526848 L244.136722,95.4751328 C244.136722,93.7026556 243.609226,92.3451974 242.551352,91.4027583 C241.493477,90.4487909 239.922519,89.9790124 237.832712,89.9790124 C236.42029,89.9790124 235.022282,90.2009323 233.64445,90.6447722 C232.275266,91.0828478 231.107857,91.7024943 230.165282,92.4893013 L227.844876,88.1777145 C229.16794,87.1747518 230.767723,86.3994731 232.632696,85.8605248 C234.486138,85.3244585 236.46641,85.0535433 238.544687,85.0535433 Z M342.50062,85.0532551 C344.968033,85.0532551 347.170257,85.5950855 349.110175,86.6873926 C351.052974,87.7768176 352.566283,89.3072003 353.655865,91.2871871 C354.74833,93.2556455 355.290238,95.5353682 355.290238,98.1263552 C355.290238,98.5356101 355.258531,99.1149075 355.195116,99.8728937 L335.352039,99.8728937 C335.697938,101.737597 336.608805,103.213221 338.078877,104.302646 C339.5403,105.392071 341.364918,105.942547 343.544082,105.942547 C346.319922,105.942547 348.617268,105.020283 350.410179,103.187282 L353.589568,106.838873 C352.450983,108.199213 351.01262,109.219469 349.274477,109.914049 C347.542099,110.611512 345.576239,110.960243 343.405722,110.960243 C340.624117,110.960243 338.179764,110.40112 336.061132,109.297285 C333.948265,108.199213 332.311009,106.65442 331.158012,104.680198 C330.007898,102.708857 329.434282,100.475248 329.434282,97.9793693 C329.434282,95.5209578 329.990603,93.3046408 331.111893,91.3304182 C332.236065,89.3619598 333.789728,87.8142846 335.775765,86.7104492 C337.767567,85.6123779 340.013029,85.0532551 342.50062,85.0532551 Z M389.723915,85.0544079 C391.46494,85.0544079 393.194436,85.2532712 394.935461,85.6481157 C396.664956,86.0458423 398.088908,86.5674982 399.192902,87.23614 L396.921498,91.7321797 C394.771159,90.466948 392.361395,89.8386553 389.674913,89.8386553 C387.939652,89.8386553 386.625236,90.0951601 385.717251,90.6196981 C384.823678,91.1384719 384.374009,91.8272882 384.374009,92.6775009 C384.374009,93.6285862 384.855385,94.3001101 385.82102,94.6949546 C386.78089,95.086917 388.271139,95.4587049 390.294648,95.8045542 C392.315275,96.1158184 393.969826,96.4789601 395.266948,96.888215 C396.558304,97.3061161 397.670946,97.9949325 398.607756,98.9777206 C399.533036,99.9576267 400,101.341024 400,103.142322 C400,105.508507 398.979598,107.402031 396.921498,108.825777 C394.872046,110.246641 392.076029,110.958514 388.542093,110.958514 C386.483994,110.958514 384.483544,110.690481 382.526332,110.154414 C380.569119,109.615466 379.001043,108.94106 377.833634,108.113904 L380.105038,103.6121 C381.243622,104.372968 382.609924,104.983969 384.203942,105.439337 C385.803725,105.894705 387.374684,106.128153 388.9197,106.128153 C392.450753,106.128153 394.223485,105.197242 394.223485,103.338303 C394.223485,102.447741 393.773817,101.836741 392.871596,101.488009 C391.972259,101.14216 390.52813,100.807839 388.542093,100.490811 C386.452286,100.173782 384.760263,99.8106408 383.445847,99.404268 C382.140078,98.992131 381.004376,98.2744939 380.038741,97.2455925 C379.078871,96.2253374 378.59173,94.7958273 378.59173,92.9628265 C378.59173,90.5649386 379.594837,88.6483576 381.598169,87.2102013 C383.607266,85.772045 386.313926,85.0544079 389.723915,85.0544079 Z M301.911381,85.0546961 C304.410501,85.0546961 306.595431,85.5590595 308.477698,86.5677864 C310.354201,87.5822774 311.769504,89.0348441 312.712079,90.9283685 L308.166389,93.5798791 C307.440001,92.4155201 306.534898,91.5336046 305.445316,90.9543072 C304.355734,90.3663635 303.165265,90.0695096 301.865261,90.0695096 C299.654389,90.0695096 297.821124,90.7900288 296.374113,92.2281851 C294.921337,93.6663414 294.197831,95.5829225 294.197831,97.9779282 C294.197831,100.38158 294.915572,102.301043 296.353935,103.736318 C297.783652,105.174474 299.622682,105.886347 301.865261,105.886347 C303.165265,105.886347 304.355734,105.601021 305.445316,105.01596 C306.534898,104.43378 307.440001,103.551865 308.166389,102.387506 L312.712079,105.036134 C311.732032,106.932541 310.308081,108.393754 308.428696,109.419773 C306.552193,110.445792 304.378794,110.958802 301.911381,110.958802 C299.291195,110.958802 296.941964,110.402561 294.860804,109.295844 C292.770998,108.197772 291.151037,106.652979 289.983627,104.678757 C288.813336,102.710298 288.225307,100.473807 288.225307,97.9779282 C288.225307,95.490696 288.813336,93.2657327 289.983627,91.3088026 C291.151037,89.3432263 292.765233,87.8157256 294.837745,86.7090081 C296.901609,85.6109369 299.259488,85.0546961 301.911381,85.0546961 Z M188.679876,85.3426156 L188.679876,110.627075 L182.756354,110.627075 L182.756354,85.3426156 L188.679876,85.3426156 Z M177.833634,77.4777163 L177.833634,82.6423979 L159.78635,82.6423979 L159.78635,92.7239023 L175.798594,92.7239023 L175.798594,97.9346971 L159.78635,97.9346971 L159.78635,110.627363 L153.632229,110.627363 L153.632229,77.4777163 L177.833634,77.4777163 Z M323.744819,85.3426156 L323.744819,110.627075 L317.829944,110.627075 L317.829944,85.3426156 L323.744819,85.3426156 Z M375.607197,85.0544079 L375.607197,90.6888679 C375.102761,90.5966415 374.63868,90.5505282 374.229366,90.5505282 C371.926254,90.5505282 370.124697,91.216288 368.83334,92.5593357 C367.533336,93.9052656 366.893423,95.836257 366.893423,98.3580741 L366.893423,110.627075 L360.972784,110.627075 L360.972784,85.3426156 L366.608056,85.3426156 L366.608056,89.0345559 C368.317374,86.3830453 371.315166,85.0544079 375.607197,85.0544079 Z M271.984192,85.0538315 C275.175111,85.0538315 277.729,85.9876243 279.660269,87.8436818 C281.585774,89.7055033 282.545644,92.4751791 282.545644,96.1325345 L282.545644,110.626498 L276.63077,110.626498 L276.63077,96.8905207 C276.63077,94.685732 276.106156,93.0170095 275.059812,91.8958817 C274.024997,90.7747538 272.540513,90.218513 270.615009,90.218513 C268.432962,90.218513 266.712114,90.8756265 265.449582,92.1812073 C264.184168,93.486788 263.555785,95.3745483 263.555785,97.841606 L263.555785,110.626498 L257.632263,110.626498 L257.632263,85.3420391 L263.270418,85.3420391 L263.270418,88.60455 C264.250466,87.4344269 265.48129,86.5553935 266.965773,85.9530394 C268.450257,85.3564495 270.11922,85.0538315 271.984192,85.0538315 Z M210.790322,85.0538315 C213.981241,85.0538315 216.535129,85.9876243 218.466399,87.8436818 C220.391904,89.7055033 221.351774,92.4751791 221.351774,96.1325345 L221.351774,110.626498 L215.436899,110.626498 L215.436899,96.8905207 C215.436899,94.685732 214.912286,93.0170095 213.865941,91.8958817 C212.831126,90.7747538 211.346643,90.218513 209.421138,90.218513 C207.239091,90.218513 205.518243,90.8756265 204.255712,92.1812073 C202.990298,93.486788 202.361914,95.3745483 202.361914,97.841606 L202.361914,110.626498 L196.441275,110.626498 L196.441275,85.3420391 L202.076547,85.3420391 L202.076547,88.60455 C203.059477,87.4344269 204.287419,86.5553935 205.774785,85.9530394 C207.256386,85.3564495 208.925349,85.0538315 210.790322,85.0538315 Z M244.136722,99.7809554 L238.028721,99.7809554 C234.618733,99.7809554 232.909415,100.899201 232.909415,103.144339 C232.909415,104.219354 233.336024,105.069566 234.195006,105.700741 C235.042459,106.334798 236.227163,106.646062 237.743354,106.646062 C239.227838,106.646062 240.550902,106.311741 241.701016,105.631571 C242.851131,104.954283 243.663994,103.980141 244.136722,102.717792 L244.136722,99.7809554 Z M342.50062,89.7942713 C340.606822,89.7942713 339.007039,90.34763 337.70127,91.47164 C336.386854,92.5927678 335.591286,94.0828015 335.303036,95.9475052 L349.652083,95.9475052 C349.407071,94.1145043 348.631681,92.6302348 347.334559,91.4946966 C346.043203,90.3562763 344.426125,89.7942713 342.50062,89.7942713 Z M185.739734,74.0679313 C186.814904,74.0679313 187.714241,74.3964881 188.440629,75.033427 C189.167017,75.6847764 189.530211,76.497522 189.530211,77.4774281 C189.530211,78.5207399 189.172782,79.3968912 188.460807,80.1058821 C187.748831,80.8177551 186.846611,81.1722505 185.739734,81.1722505 C184.667447,81.1722505 183.768109,80.8321655 183.044604,80.1548774 C182.318216,79.4718252 181.955022,78.6302588 181.955022,77.6186499 C181.955022,76.6128051 182.318216,75.7625925 183.044604,75.0910686 C183.768109,74.4108985 184.667447,74.0679313 185.739734,74.0679313 Z M320.813324,74.0679313 C321.882729,74.0679313 322.784949,74.3964881 323.514219,75.033427 C324.240607,75.6847764 324.603801,76.497522 324.603801,77.4774281 C324.603801,78.5207399 324.249255,79.3968912 323.537279,80.1058821 C322.825304,80.8177551 321.911554,81.1722505 320.813324,81.1722505 C319.738154,81.1722505 318.835934,80.8321655 318.109546,80.1548774 C317.383158,79.4718252 317.019964,78.6302588 317.019964,77.6186499 C317.019964,76.6128051 317.383158,75.7625925 318.109546,75.0910686 C318.835934,74.4108985 319.738154,74.0679313 320.813324,74.0679313 Z M4.77052479,14.2086384 L4.75611232,77.1272558 L71.8951234,77.7296098 C72.9385856,72.2478999 77.7465828,68.0977094 83.5346274,68.0977094 C84.5896196,68.0977094 85.5927269,68.2763981 86.5670093,68.535785 L86.5670093,68.535785 L107.84845,21.442651 C105.484806,19.7306974 103.763958,17.1944699 103.161518,14.2288129 L103.161518,14.2288129 L4.77052479,14.2086384 Z M209.275572,36.2746825 C211.740103,36.2746825 213.94521,36.8193951 215.885127,37.9088201 C217.825044,38.9982451 219.341235,40.5286278 220.430817,42.5086145 C221.520399,44.477073 222.06519,46.7596778 222.06519,49.3506647 C222.06519,49.7570376 222.033483,50.336335 221.970068,51.0943212 L202.124109,51.0943212 C202.47289,52.9590248 203.383758,54.4346481 204.853829,55.5240731 C206.315252,56.6134981 208.136988,57.1639748 210.319034,57.1639748 C213.094874,57.1639748 215.389338,56.2445923 217.182248,54.4115915 L220.361637,58.0603007 C219.225936,59.4206409 217.787572,60.4408961 216.049429,61.1354766 C214.317051,61.8329391 212.351191,62.1816704 210.177792,62.1816704 C207.396187,62.1816704 204.951834,61.6225475 202.836084,60.5187121 C200.723217,59.4206409 199.085962,57.8758478 197.932965,55.9045073 C196.779968,53.9302847 196.209234,51.6995573 196.209234,49.2036788 C196.209234,46.7423853 196.765555,44.5260683 197.886845,42.5547278 C199.008134,40.5833873 200.561798,39.0357121 202.547835,37.9318767 C204.54252,36.8338054 206.785099,36.2746825 209.275572,36.2746825 Z M283.634362,36.2746825 C287.361424,36.2746825 290.206444,37.1652443 292.178069,38.9521318 C294.158341,40.7361374 295.138388,43.427997 295.138388,47.030593 L295.138388,61.8473495 L289.549236,61.8473495 L289.549236,58.7721736 C288.822848,59.8788911 287.796681,60.7204575 286.450557,61.3084012 C285.11308,61.8876986 283.487355,62.1816704 281.593557,62.1816704 C279.69976,62.1816704 278.045209,61.8559957 276.62414,61.2075285 C275.197307,60.5648254 274.10196,59.6627353 273.329452,58.5070226 C272.554061,57.3570739 272.17069,56.0601394 272.17069,54.6046907 C272.17069,52.3336142 273.021025,50.5092596 274.707283,49.1316269 C276.390658,47.7655225 279.056964,47.0738241 282.683139,47.0738241 L289.226397,47.0738241 L289.226397,46.6991541 C289.226397,44.9266769 288.690253,43.5663367 287.632378,42.6238976 C286.580269,41.6699302 285.003545,41.2001517 282.922386,41.2001517 C281.501317,41.2001517 280.103309,41.4249537 278.734125,41.8659114 C277.356293,42.3068692 276.197531,42.9236336 275.246309,43.7133226 L272.925903,39.3988537 C274.254732,38.395891 275.84875,37.6206124 277.713722,37.081664 C279.575812,36.5455978 281.547437,36.2746825 283.634362,36.2746825 Z M252.516416,26.714834 L252.516416,61.8473495 L246.832141,61.8473495 L246.832141,58.5790745 C245.857859,59.7866646 244.644329,60.6801084 243.214613,61.2766983 C241.776249,61.8790524 240.190879,62.1816704 238.452736,62.1816704 C236.01703,62.1816704 233.837866,61.63984 231.895066,60.5734716 C229.949383,59.498457 228.424545,57.9767204 227.32055,55.9967337 C226.213673,54.0253932 225.663117,51.7600809 225.663117,49.2036788 C225.663117,46.6501588 226.213673,44.3934927 227.32055,42.4307985 C228.424545,40.4738684 229.949383,38.957896 231.895066,37.8857634 C233.837866,36.8193951 236.01703,36.2746825 238.452736,36.2746825 C240.121699,36.2746825 241.652302,36.5628902 243.047429,37.1248952 C244.43679,37.7013105 245.618612,38.5515232 246.601542,39.6870614 L246.601542,26.714834 L252.516416,26.714834 Z M158.695615,28.7020259 L171.862839,50.6692149 L184.787935,28.7020259 L189.861122,28.7020259 L189.910124,61.8487906 L184.087489,61.8487906 L184.02984,39.8787195 L173.136901,58.0617417 L170.392768,58.0617417 L159.502712,40.158281 L159.502712,61.8487906 L153.633958,61.8487906 L153.633958,28.7020259 L158.695615,28.7020259 Z M266.20739,36.5634666 L266.20739,61.8479259 L260.283868,61.8479259 L260.283868,36.5634666 L266.20739,36.5634666 Z M289.226397,51.0020947 L283.109748,51.0020947 C279.69976,51.0020947 277.999089,52.1232226 277.999089,54.3654783 C277.999089,55.4404929 278.425698,56.2907055 279.276033,56.9218804 C280.123486,57.5588193 281.316838,57.8672015 282.830146,57.8672015 C284.317512,57.8672015 285.631929,57.5328806 286.782043,56.8555926 C287.932158,56.1754225 288.74502,55.2012805 289.226397,53.9389309 L289.226397,51.0020947 Z M239.164711,41.2952602 C237.743643,41.2952602 236.463816,41.6180528 235.330997,42.2694022 C234.192412,42.9178694 233.290192,43.8343699 232.630101,45.0361959 C231.967128,46.2409039 231.635641,47.6243008 231.635641,49.2036788 C231.635641,50.788821 231.967128,52.1693358 232.630101,53.3682797 C233.290192,54.5729878 234.192412,55.4923703 235.330997,56.1437196 C236.463816,56.795069 237.743643,57.1092153 239.164711,57.1092153 C240.58578,57.1092153 241.859842,56.795069 242.998426,56.1437196 C244.137011,55.4923703 245.039231,54.5729878 245.699321,53.3682797 C246.362295,52.1693358 246.693781,50.788821 246.693781,49.2036788 C246.693781,47.6243008 246.362295,46.2409039 245.699321,45.0361959 C245.039231,43.8343699 244.137011,42.9178694 242.998426,42.2694022 C241.859842,41.6180528 240.58578,41.2952602 239.164711,41.2952602 Z M209.275572,41.0156988 C207.381775,41.0156988 205.779109,41.5719396 204.47334,42.6930675 C203.158923,43.8141953 202.363355,45.304229 202.077989,47.1689326 L216.424153,47.1689326 C216.179141,45.3359318 215.406633,43.8516623 214.106629,42.7161241 C212.818155,41.5777038 211.201077,41.0156988 209.275572,41.0156988 Z M263.273012,25.2945466 C264.3453,25.2945466 265.241755,25.6173392 265.968143,26.2600423 C266.694531,26.9085095 267.057725,27.7183731 267.057725,28.7011613 C267.057725,29.7473551 266.703178,30.6177423 265.991203,31.3296153 C265.28211,32.0386061 264.374124,32.3988657 263.273012,32.3988657 C262.197843,32.3988657 261.298505,32.0558986 260.572117,31.3757285 C259.845729,30.6955584 259.482535,29.853992 259.482535,28.839501 C259.482535,27.8336562 259.845729,26.9863256 260.572117,26.3119197 C261.298505,25.6317495 262.197843,25.2945466 263.273012,25.2945466 Z" id="Combined-Shape"></path>
            </g>
        </g>
    </g>
</svg>
