<svg width="1395" height="585" viewBox="0 0 1395 585" fill="none" xmlns="http://www.w3.org/2000/svg">
<rect x="0.5" y="0.5" width="1394" height="584" rx="3.5" fill="white" stroke="#D3D5DC"/>
<g filter="url(#filter0_d_46_3282)">
<rect x="55" y="148" width="1291" height="100" fill="#3C64F7" fill-opacity="0.1"/>
<path d="M82.7359 183.918L88.4419 171.318H90.2239L95.9479 183.918H94.0579L88.9639 172.326H89.6839L84.5899 183.918H82.7359ZM85.1659 180.768L85.6519 179.328H92.7439L93.2659 180.768H85.1659ZM109.6 174.288C110.368 174.288 111.046 174.438 111.634 174.738C112.222 175.038 112.678 175.494 113.002 176.106C113.338 176.718 113.506 177.492 113.506 178.428V183.918H111.778V178.626C111.778 177.702 111.562 177.006 111.13 176.538C110.698 176.07 110.092 175.836 109.312 175.836C108.736 175.836 108.232 175.956 107.8 176.196C107.368 176.436 107.032 176.79 106.792 177.258C106.564 177.726 106.45 178.308 106.45 179.004V183.918H104.722V178.626C104.722 177.702 104.506 177.006 104.074 176.538C103.654 176.07 103.048 175.836 102.256 175.836C101.692 175.836 101.194 175.956 100.762 176.196C100.33 176.436 99.9935 176.79 99.7535 177.258C99.5135 177.726 99.3935 178.308 99.3935 179.004V183.918H97.6655V174.378H99.3215V176.916L99.0515 176.268C99.3515 175.644 99.8135 175.158 100.438 174.81C101.062 174.462 101.788 174.288 102.616 174.288C103.528 174.288 104.314 174.516 104.974 174.972C105.634 175.416 106.066 176.094 106.27 177.006L105.568 176.718C105.856 175.986 106.36 175.398 107.08 174.954C107.8 174.51 108.64 174.288 109.6 174.288ZM120.861 184.026C119.901 184.026 119.049 183.816 118.305 183.396C117.561 182.976 116.973 182.4 116.541 181.668C116.109 180.924 115.893 180.084 115.893 179.148C115.893 178.2 116.109 177.36 116.541 176.628C116.973 175.896 117.561 175.326 118.305 174.918C119.049 174.498 119.901 174.288 120.861 174.288C121.809 174.288 122.655 174.498 123.399 174.918C124.155 175.326 124.743 175.896 125.163 176.628C125.595 177.348 125.811 178.188 125.811 179.148C125.811 180.096 125.595 180.936 125.163 181.668C124.743 182.4 124.155 182.976 123.399 183.396C122.655 183.816 121.809 184.026 120.861 184.026ZM120.861 182.514C121.473 182.514 122.019 182.376 122.499 182.1C122.991 181.824 123.375 181.434 123.651 180.93C123.927 180.414 124.065 179.82 124.065 179.148C124.065 178.464 123.927 177.876 123.651 177.384C123.375 176.88 122.991 176.49 122.499 176.214C122.019 175.938 121.473 175.8 120.861 175.8C120.249 175.8 119.703 175.938 119.223 176.214C118.743 176.49 118.359 176.88 118.071 177.384C117.783 177.876 117.639 178.464 117.639 179.148C117.639 179.82 117.783 180.414 118.071 180.93C118.359 181.434 118.743 181.824 119.223 182.1C119.703 182.376 120.249 182.514 120.861 182.514ZM128.291 183.918V174.378H129.947V176.97L129.785 176.322C130.049 175.662 130.493 175.158 131.117 174.81C131.741 174.462 132.509 174.288 133.421 174.288V175.962C133.349 175.95 133.277 175.944 133.205 175.944C133.145 175.944 133.085 175.944 133.025 175.944C132.101 175.944 131.369 176.22 130.829 176.772C130.289 177.324 130.019 178.122 130.019 179.166V183.918H128.291ZM139.303 184.026C138.343 184.026 137.599 183.768 137.071 183.252C136.543 182.736 136.279 181.998 136.279 181.038V172.29H138.007V180.966C138.007 181.482 138.133 181.878 138.385 182.154C138.649 182.43 139.021 182.568 139.501 182.568C140.041 182.568 140.491 182.418 140.851 182.118L141.391 183.36C141.127 183.588 140.809 183.756 140.437 183.864C140.077 183.972 139.699 184.026 139.303 184.026ZM134.659 175.8V174.378H140.743V175.8H134.659ZM143.57 183.918V174.378H145.298V183.918H143.57ZM144.434 172.542C144.098 172.542 143.816 172.434 143.588 172.218C143.372 172.002 143.264 171.738 143.264 171.426C143.264 171.102 143.372 170.832 143.588 170.616C143.816 170.4 144.098 170.292 144.434 170.292C144.77 170.292 145.046 170.4 145.262 170.616C145.49 170.82 145.604 171.078 145.604 171.39C145.604 171.714 145.496 171.99 145.28 172.218C145.064 172.434 144.782 172.542 144.434 172.542ZM151.424 184.026C150.632 184.026 149.876 183.918 149.156 183.702C148.448 183.486 147.89 183.222 147.482 182.91L148.202 181.542C148.61 181.818 149.114 182.052 149.714 182.244C150.314 182.436 150.926 182.532 151.55 182.532C152.354 182.532 152.93 182.418 153.278 182.19C153.638 181.962 153.818 181.644 153.818 181.236C153.818 180.936 153.71 180.702 153.494 180.534C153.278 180.366 152.99 180.24 152.63 180.156C152.282 180.072 151.892 180 151.46 179.94C151.028 179.868 150.596 179.784 150.164 179.688C149.732 179.58 149.336 179.436 148.976 179.256C148.616 179.064 148.328 178.806 148.112 178.482C147.896 178.146 147.788 177.702 147.788 177.15C147.788 176.574 147.95 176.07 148.274 175.638C148.598 175.206 149.054 174.876 149.642 174.648C150.242 174.408 150.95 174.288 151.766 174.288C152.39 174.288 153.02 174.366 153.656 174.522C154.304 174.666 154.832 174.876 155.24 175.152L154.502 176.52C154.07 176.232 153.62 176.034 153.152 175.926C152.684 175.818 152.216 175.764 151.748 175.764C150.992 175.764 150.428 175.89 150.056 176.142C149.684 176.382 149.498 176.694 149.498 177.078C149.498 177.402 149.606 177.654 149.822 177.834C150.05 178.002 150.338 178.134 150.686 178.23C151.046 178.326 151.442 178.41 151.874 178.482C152.306 178.542 152.738 178.626 153.17 178.734C153.602 178.83 153.992 178.968 154.34 179.148C154.7 179.328 154.988 179.58 155.204 179.904C155.432 180.228 155.546 180.66 155.546 181.2C155.546 181.776 155.378 182.274 155.042 182.694C154.706 183.114 154.232 183.444 153.62 183.684C153.008 183.912 152.276 184.026 151.424 184.026ZM160.531 184.026C159.739 184.026 158.983 183.918 158.263 183.702C157.555 183.486 156.997 183.222 156.589 182.91L157.309 181.542C157.717 181.818 158.221 182.052 158.821 182.244C159.421 182.436 160.033 182.532 160.657 182.532C161.461 182.532 162.037 182.418 162.385 182.19C162.745 181.962 162.925 181.644 162.925 181.236C162.925 180.936 162.817 180.702 162.601 180.534C162.385 180.366 162.097 180.24 161.737 180.156C161.389 180.072 160.999 180 160.567 179.94C160.135 179.868 159.703 179.784 159.271 179.688C158.839 179.58 158.443 179.436 158.083 179.256C157.723 179.064 157.435 178.806 157.219 178.482C157.003 178.146 156.895 177.702 156.895 177.15C156.895 176.574 157.057 176.07 157.381 175.638C157.705 175.206 158.161 174.876 158.749 174.648C159.349 174.408 160.057 174.288 160.873 174.288C161.497 174.288 162.127 174.366 162.763 174.522C163.411 174.666 163.939 174.876 164.347 175.152L163.609 176.52C163.177 176.232 162.727 176.034 162.259 175.926C161.791 175.818 161.323 175.764 160.855 175.764C160.099 175.764 159.535 175.89 159.163 176.142C158.791 176.382 158.605 176.694 158.605 177.078C158.605 177.402 158.713 177.654 158.929 177.834C159.157 178.002 159.445 178.134 159.793 178.23C160.153 178.326 160.549 178.41 160.981 178.482C161.413 178.542 161.845 178.626 162.277 178.734C162.709 178.83 163.099 178.968 163.447 179.148C163.807 179.328 164.095 179.58 164.311 179.904C164.539 180.228 164.653 180.66 164.653 181.2C164.653 181.776 164.485 182.274 164.149 182.694C163.813 183.114 163.339 183.444 162.727 183.684C162.115 183.912 161.383 184.026 160.531 184.026ZM171.151 184.026C170.131 184.026 169.231 183.816 168.451 183.396C167.683 182.976 167.083 182.4 166.651 181.668C166.231 180.936 166.021 180.096 166.021 179.148C166.021 178.2 166.225 177.36 166.633 176.628C167.053 175.896 167.623 175.326 168.343 174.918C169.075 174.498 169.897 174.288 170.809 174.288C171.733 174.288 172.549 174.492 173.257 174.9C173.965 175.308 174.517 175.884 174.913 176.628C175.321 177.36 175.525 178.218 175.525 179.202C175.525 179.274 175.519 179.358 175.507 179.454C175.507 179.55 175.501 179.64 175.489 179.724H167.371V178.482H174.589L173.887 178.914C173.899 178.302 173.773 177.756 173.509 177.276C173.245 176.796 172.879 176.424 172.411 176.16C171.955 175.884 171.421 175.746 170.809 175.746C170.209 175.746 169.675 175.884 169.207 176.16C168.739 176.424 168.373 176.802 168.109 177.294C167.845 177.774 167.713 178.326 167.713 178.95V179.238C167.713 179.874 167.857 180.444 168.145 180.948C168.445 181.44 168.859 181.824 169.387 182.1C169.915 182.376 170.521 182.514 171.205 182.514C171.769 182.514 172.279 182.418 172.735 182.226C173.203 182.034 173.611 181.746 173.959 181.362L174.913 182.478C174.481 182.982 173.941 183.366 173.293 183.63C172.657 183.894 171.943 184.026 171.151 184.026ZM189.948 174.288C190.716 174.288 191.394 174.438 191.982 174.738C192.57 175.038 193.026 175.494 193.35 176.106C193.686 176.718 193.854 177.492 193.854 178.428V183.918H192.126V178.626C192.126 177.702 191.91 177.006 191.478 176.538C191.046 176.07 190.44 175.836 189.66 175.836C189.084 175.836 188.58 175.956 188.148 176.196C187.716 176.436 187.38 176.79 187.14 177.258C186.912 177.726 186.798 178.308 186.798 179.004V183.918H185.07V178.626C185.07 177.702 184.854 177.006 184.422 176.538C184.002 176.07 183.396 175.836 182.604 175.836C182.04 175.836 181.542 175.956 181.11 176.196C180.678 176.436 180.342 176.79 180.102 177.258C179.862 177.726 179.742 178.308 179.742 179.004V183.918H178.014V174.378H179.67V176.916L179.4 176.268C179.7 175.644 180.162 175.158 180.786 174.81C181.41 174.462 182.136 174.288 182.964 174.288C183.876 174.288 184.662 174.516 185.322 174.972C185.982 175.416 186.414 176.094 186.618 177.006L185.916 176.718C186.204 175.986 186.708 175.398 187.428 174.954C188.148 174.51 188.988 174.288 189.948 174.288ZM201.372 184.026C200.352 184.026 199.452 183.816 198.672 183.396C197.904 182.976 197.304 182.4 196.872 181.668C196.452 180.936 196.242 180.096 196.242 179.148C196.242 178.2 196.446 177.36 196.854 176.628C197.274 175.896 197.844 175.326 198.564 174.918C199.296 174.498 200.118 174.288 201.03 174.288C201.954 174.288 202.77 174.492 203.478 174.9C204.186 175.308 204.738 175.884 205.134 176.628C205.542 177.36 205.746 178.218 205.746 179.202C205.746 179.274 205.74 179.358 205.728 179.454C205.728 179.55 205.722 179.64 205.71 179.724H197.592V178.482H204.81L204.108 178.914C204.12 178.302 203.994 177.756 203.73 177.276C203.466 176.796 203.1 176.424 202.632 176.16C202.176 175.884 201.642 175.746 201.03 175.746C200.43 175.746 199.896 175.884 199.428 176.16C198.96 176.424 198.594 176.802 198.33 177.294C198.066 177.774 197.934 178.326 197.934 178.95V179.238C197.934 179.874 198.078 180.444 198.366 180.948C198.666 181.44 199.08 181.824 199.608 182.1C200.136 182.376 200.742 182.514 201.426 182.514C201.99 182.514 202.5 182.418 202.956 182.226C203.424 182.034 203.832 181.746 204.18 181.362L205.134 182.478C204.702 182.982 204.162 183.366 203.514 183.63C202.878 183.894 202.164 184.026 201.372 184.026ZM213.329 174.288C214.109 174.288 214.793 174.438 215.381 174.738C215.981 175.038 216.449 175.494 216.785 176.106C217.121 176.718 217.289 177.492 217.289 178.428V183.918H215.561V178.626C215.561 177.702 215.333 177.006 214.877 176.538C214.433 176.07 213.803 175.836 212.987 175.836C212.375 175.836 211.841 175.956 211.385 176.196C210.929 176.436 210.575 176.79 210.323 177.258C210.083 177.726 209.963 178.308 209.963 179.004V183.918H208.235V174.378H209.891V176.952L209.621 176.268C209.933 175.644 210.413 175.158 211.061 174.81C211.709 174.462 212.465 174.288 213.329 174.288ZM223.853 184.026C222.893 184.026 222.149 183.768 221.621 183.252C221.093 182.736 220.829 181.998 220.829 181.038V172.29H222.557V180.966C222.557 181.482 222.683 181.878 222.935 182.154C223.199 182.43 223.571 182.568 224.051 182.568C224.591 182.568 225.041 182.418 225.401 182.118L225.941 183.36C225.677 183.588 225.359 183.756 224.987 183.864C224.627 183.972 224.249 184.026 223.853 184.026ZM219.209 175.8V174.378H225.293V175.8H219.209ZM238.984 184.062C238.024 184.062 237.13 183.9 236.302 183.576C235.486 183.252 234.778 182.802 234.178 182.226C233.578 181.638 233.11 180.954 232.774 180.174C232.438 179.394 232.27 178.542 232.27 177.618C232.27 176.694 232.438 175.842 232.774 175.062C233.11 174.282 233.578 173.604 234.178 173.028C234.778 172.44 235.486 171.984 236.302 171.66C237.118 171.336 238.012 171.174 238.984 171.174C239.944 171.174 240.826 171.336 241.63 171.66C242.446 171.972 243.154 172.422 243.754 173.01C244.366 173.586 244.834 174.264 245.158 175.044C245.494 175.824 245.662 176.682 245.662 177.618C245.662 178.554 245.494 179.412 245.158 180.192C244.834 180.972 244.366 181.656 243.754 182.244C243.154 182.82 242.446 183.27 241.63 183.594C240.826 183.906 239.944 184.062 238.984 184.062ZM243.106 186.546C242.686 186.546 242.284 186.492 241.9 186.384C241.516 186.288 241.132 186.126 240.748 185.898C240.364 185.682 239.968 185.394 239.56 185.034C239.152 184.686 238.708 184.254 238.228 183.738L240.154 183.234C240.514 183.678 240.856 184.038 241.18 184.314C241.516 184.602 241.846 184.806 242.17 184.926C242.494 185.058 242.812 185.124 243.124 185.124C244.024 185.124 244.792 184.764 245.428 184.044L246.274 185.07C245.458 186.054 244.402 186.546 243.106 186.546ZM238.984 182.46C239.68 182.46 240.322 182.34 240.91 182.1C241.51 181.86 242.026 181.518 242.458 181.074C242.902 180.63 243.244 180.114 243.484 179.526C243.736 178.938 243.862 178.302 243.862 177.618C243.862 176.922 243.736 176.28 243.484 175.692C243.244 175.104 242.902 174.594 242.458 174.162C242.026 173.718 241.51 173.376 240.91 173.136C240.322 172.896 239.68 172.776 238.984 172.776C238.276 172.776 237.622 172.896 237.022 173.136C236.434 173.376 235.918 173.718 235.474 174.162C235.03 174.594 234.682 175.104 234.43 175.692C234.19 176.28 234.07 176.922 234.07 177.618C234.07 178.302 234.19 178.938 234.43 179.526C234.682 180.114 235.03 180.63 235.474 181.074C235.918 181.518 236.434 181.86 237.022 182.1C237.622 182.34 238.276 182.46 238.984 182.46ZM248.504 183.918V171.318H253.814C255.158 171.318 256.34 171.582 257.36 172.11C258.392 172.638 259.19 173.376 259.754 174.324C260.33 175.272 260.618 176.37 260.618 177.618C260.618 178.866 260.33 179.964 259.754 180.912C259.19 181.86 258.392 182.598 257.36 183.126C256.34 183.654 255.158 183.918 253.814 183.918H248.504ZM250.304 182.352H253.706C254.75 182.352 255.65 182.154 256.406 181.758C257.174 181.362 257.768 180.81 258.188 180.102C258.608 179.382 258.818 178.554 258.818 177.618C258.818 176.67 258.608 175.842 258.188 175.134C257.768 174.426 257.174 173.874 256.406 173.478C255.65 173.082 254.75 172.884 253.706 172.884H250.304V182.352Z" fill="#454E5D"/>
<path d="M88.4895 220.09C87.6995 220.09 86.9645 219.96 86.2845 219.7C85.6145 219.43 85.0295 219.055 84.5295 218.575C84.0395 218.085 83.6545 217.52 83.3745 216.88C83.1045 216.23 82.9695 215.52 82.9695 214.75C82.9695 213.98 83.1045 213.275 83.3745 212.635C83.6545 211.985 84.0395 211.42 84.5295 210.94C85.0295 210.45 85.6145 210.075 86.2845 209.815C86.9545 209.545 87.6895 209.41 88.4895 209.41C89.2795 209.41 90.0095 209.545 90.6795 209.815C91.3495 210.075 91.9295 210.445 92.4195 210.925C92.9195 211.405 93.3045 211.97 93.5745 212.62C93.8545 213.27 93.9945 213.98 93.9945 214.75C93.9945 215.52 93.8545 216.23 93.5745 216.88C93.3045 217.53 92.9195 218.095 92.4195 218.575C91.9295 219.055 91.3495 219.43 90.6795 219.7C90.0095 219.96 89.2795 220.09 88.4895 220.09ZM91.9245 222.085C91.6045 222.085 91.2945 222.045 90.9945 221.965C90.6945 221.885 90.3895 221.755 90.0795 221.575C89.7795 221.405 89.4695 221.18 89.1495 220.9C88.8295 220.62 88.4795 220.28 88.0995 219.88L89.3145 219.58C89.6245 219.95 89.9245 220.255 90.2145 220.495C90.5145 220.735 90.8045 220.91 91.0845 221.02C91.3745 221.14 91.6595 221.2 91.9395 221.2C92.7195 221.2 93.3845 220.88 93.9345 220.24L94.4745 220.885C93.8145 221.685 92.9645 222.085 91.9245 222.085ZM88.4895 219.1C89.1195 219.1 89.6995 218.995 90.2295 218.785C90.7695 218.565 91.2345 218.255 91.6245 217.855C92.0245 217.455 92.3345 216.995 92.5545 216.475C92.7745 215.945 92.8845 215.37 92.8845 214.75C92.8845 214.12 92.7745 213.545 92.5545 213.025C92.3345 212.495 92.0245 212.035 91.6245 211.645C91.2345 211.245 90.7695 210.94 90.2295 210.73C89.6995 210.51 89.1195 210.4 88.4895 210.4C87.8595 210.4 87.2745 210.51 86.7345 210.73C86.1945 210.94 85.7245 211.245 85.3245 211.645C84.9345 212.035 84.6245 212.495 84.3945 213.025C84.1745 213.545 84.0645 214.12 84.0645 214.75C84.0645 215.37 84.1745 215.945 84.3945 216.475C84.6245 216.995 84.9345 217.455 85.3245 217.855C85.7245 218.255 86.1945 218.565 86.7345 218.785C87.2745 218.995 87.8595 219.1 88.4895 219.1ZM99.5875 220.075C98.9175 220.075 98.3325 219.95 97.8325 219.7C97.3325 219.45 96.9425 219.075 96.6625 218.575C96.3925 218.075 96.2575 217.45 96.2575 216.7V212.125H97.3225V216.58C97.3225 217.42 97.5275 218.055 97.9375 218.485C98.3575 218.905 98.9425 219.115 99.6925 219.115C100.242 219.115 100.717 219.005 101.117 218.785C101.527 218.555 101.837 218.225 102.047 217.795C102.267 217.365 102.377 216.85 102.377 216.25V212.125H103.442V220H102.422V217.84L102.587 218.23C102.337 218.81 101.947 219.265 101.417 219.595C100.897 219.915 100.287 220.075 99.5875 220.075ZM109.831 220.075C109.011 220.075 108.291 219.905 107.671 219.565C107.051 219.215 106.566 218.74 106.216 218.14C105.866 217.53 105.691 216.835 105.691 216.055C105.691 215.275 105.856 214.585 106.186 213.985C106.526 213.385 106.986 212.915 107.566 212.575C108.156 212.225 108.816 212.05 109.546 212.05C110.286 212.05 110.941 212.22 111.511 212.56C112.091 212.89 112.546 213.36 112.876 213.97C113.206 214.57 113.371 215.265 113.371 216.055C113.371 216.105 113.366 216.16 113.356 216.22C113.356 216.27 113.356 216.325 113.356 216.385H106.501V215.59H112.786L112.366 215.905C112.366 215.335 112.241 214.83 111.991 214.39C111.751 213.94 111.421 213.59 111.001 213.34C110.581 213.09 110.096 212.965 109.546 212.965C109.006 212.965 108.521 213.09 108.091 213.34C107.661 213.59 107.326 213.94 107.086 214.39C106.846 214.84 106.726 215.355 106.726 215.935V216.1C106.726 216.7 106.856 217.23 107.116 217.69C107.386 218.14 107.756 218.495 108.226 218.755C108.706 219.005 109.251 219.13 109.861 219.13C110.341 219.13 110.786 219.045 111.196 218.875C111.616 218.705 111.976 218.445 112.276 218.095L112.876 218.785C112.526 219.205 112.086 219.525 111.556 219.745C111.036 219.965 110.461 220.075 109.831 220.075ZM119.633 212.05C120.273 212.05 120.833 212.175 121.313 212.425C121.803 212.665 122.183 213.035 122.453 213.535C122.733 214.035 122.873 214.665 122.873 215.425V220H121.808V215.53C121.808 214.7 121.598 214.075 121.178 213.655C120.768 213.225 120.188 213.01 119.438 213.01C118.878 213.01 118.388 213.125 117.968 213.355C117.558 213.575 117.238 213.9 117.008 214.33C116.788 214.75 116.678 215.26 116.678 215.86V220H115.613V212.125H116.633V214.285L116.468 213.88C116.718 213.31 117.118 212.865 117.668 212.545C118.218 212.215 118.873 212.05 119.633 212.05ZM128.315 220.075C127.575 220.075 127.005 219.875 126.605 219.475C126.205 219.075 126.005 218.51 126.005 217.78V210.385H127.07V217.72C127.07 218.18 127.185 218.535 127.415 218.785C127.655 219.035 127.995 219.16 128.435 219.16C128.905 219.16 129.295 219.025 129.605 218.755L129.98 219.52C129.77 219.71 129.515 219.85 129.215 219.94C128.925 220.03 128.625 220.075 128.315 220.075ZM124.595 213.01V212.125H129.47V213.01H124.595ZM131.994 220V212.125H133.059V220H131.994ZM132.534 210.385C132.314 210.385 132.129 210.31 131.979 210.16C131.829 210.01 131.754 209.83 131.754 209.62C131.754 209.41 131.829 209.235 131.979 209.095C132.129 208.945 132.314 208.87 132.534 208.87C132.754 208.87 132.939 208.94 133.089 209.08C133.239 209.22 133.314 209.395 133.314 209.605C133.314 209.825 133.239 210.01 133.089 210.16C132.949 210.31 132.764 210.385 132.534 210.385ZM140.117 212.05C140.757 212.05 141.317 212.175 141.797 212.425C142.287 212.665 142.667 213.035 142.937 213.535C143.217 214.035 143.357 214.665 143.357 215.425V220H142.292V215.53C142.292 214.7 142.082 214.075 141.662 213.655C141.252 213.225 140.672 213.01 139.922 213.01C139.362 213.01 138.872 213.125 138.452 213.355C138.042 213.575 137.722 213.9 137.492 214.33C137.272 214.75 137.162 215.26 137.162 215.86V220H136.097V212.125H137.117V214.285L136.952 213.88C137.202 213.31 137.602 212.865 138.152 212.545C138.702 212.215 139.357 212.05 140.117 212.05ZM150.535 220V209.5H154.81C155.93 209.5 156.91 209.725 157.75 210.175C158.6 210.615 159.26 211.23 159.73 212.02C160.2 212.81 160.435 213.72 160.435 214.75C160.435 215.78 160.2 216.69 159.73 217.48C159.26 218.27 158.6 218.89 157.75 219.34C156.91 219.78 155.93 220 154.81 220H150.535ZM151.645 219.04H154.75C155.68 219.04 156.485 218.86 157.165 218.5C157.855 218.13 158.39 217.625 158.77 216.985C159.15 216.335 159.34 215.59 159.34 214.75C159.34 213.9 159.15 213.155 158.77 212.515C158.39 211.875 157.855 211.375 157.165 211.015C156.485 210.645 155.68 210.46 154.75 210.46H151.645V219.04ZM166.032 220.075C165.362 220.075 164.777 219.95 164.277 219.7C163.777 219.45 163.387 219.075 163.107 218.575C162.837 218.075 162.702 217.45 162.702 216.7V212.125H163.767V216.58C163.767 217.42 163.972 218.055 164.382 218.485C164.802 218.905 165.387 219.115 166.137 219.115C166.687 219.115 167.162 219.005 167.562 218.785C167.972 218.555 168.282 218.225 168.492 217.795C168.712 217.365 168.822 216.85 168.822 216.25V212.125H169.887V220H168.867V217.84L169.032 218.23C168.782 218.81 168.392 219.265 167.862 219.595C167.342 219.915 166.732 220.075 166.032 220.075ZM176.995 220.075C176.315 220.075 175.7 219.92 175.15 219.61C174.6 219.29 174.16 218.835 173.83 218.245C173.51 217.645 173.35 216.915 173.35 216.055C173.35 215.195 173.51 214.47 173.83 213.88C174.15 213.28 174.585 212.825 175.135 212.515C175.685 212.205 176.305 212.05 176.995 212.05C177.745 212.05 178.415 212.22 179.005 212.56C179.605 212.89 180.075 213.36 180.415 213.97C180.755 214.57 180.925 215.265 180.925 216.055C180.925 216.855 180.755 217.555 180.415 218.155C180.075 218.755 179.605 219.225 179.005 219.565C178.415 219.905 177.745 220.075 176.995 220.075ZM172.93 222.91V212.125H173.95V214.495L173.845 216.07L173.995 217.66V222.91H172.93ZM176.92 219.13C177.48 219.13 177.98 219.005 178.42 218.755C178.86 218.495 179.21 218.135 179.47 217.675C179.73 217.205 179.86 216.665 179.86 216.055C179.86 215.445 179.73 214.91 179.47 214.45C179.21 213.99 178.86 213.63 178.42 213.37C177.98 213.11 177.48 212.98 176.92 212.98C176.36 212.98 175.855 213.11 175.405 213.37C174.965 213.63 174.615 213.99 174.355 214.45C174.105 214.91 173.98 215.445 173.98 216.055C173.98 216.665 174.105 217.205 174.355 217.675C174.615 218.135 174.965 218.495 175.405 218.755C175.855 219.005 176.36 219.13 176.92 219.13ZM183.171 220V212.125H184.236V220H183.171ZM183.711 210.385C183.491 210.385 183.306 210.31 183.156 210.16C183.006 210.01 182.931 209.83 182.931 209.62C182.931 209.41 183.006 209.235 183.156 209.095C183.306 208.945 183.491 208.87 183.711 208.87C183.931 208.87 184.116 208.94 184.266 209.08C184.416 209.22 184.491 209.395 184.491 209.605C184.491 209.825 184.416 210.01 184.266 210.16C184.126 210.31 183.941 210.385 183.711 210.385ZM190.62 220.075C189.8 220.075 189.08 219.905 188.46 219.565C187.84 219.215 187.355 218.74 187.005 218.14C186.655 217.53 186.48 216.835 186.48 216.055C186.48 215.275 186.645 214.585 186.975 213.985C187.315 213.385 187.775 212.915 188.355 212.575C188.945 212.225 189.605 212.05 190.335 212.05C191.075 212.05 191.73 212.22 192.3 212.56C192.88 212.89 193.335 213.36 193.665 213.97C193.995 214.57 194.16 215.265 194.16 216.055C194.16 216.105 194.155 216.16 194.145 216.22C194.145 216.27 194.145 216.325 194.145 216.385H187.29V215.59H193.575L193.155 215.905C193.155 215.335 193.03 214.83 192.78 214.39C192.54 213.94 192.21 213.59 191.79 213.34C191.37 213.09 190.885 212.965 190.335 212.965C189.795 212.965 189.31 213.09 188.88 213.34C188.45 213.59 188.115 213.94 187.875 214.39C187.635 214.84 187.515 215.355 187.515 215.935V216.1C187.515 216.7 187.645 217.23 187.905 217.69C188.175 218.14 188.545 218.495 189.015 218.755C189.495 219.005 190.04 219.13 190.65 219.13C191.13 219.13 191.575 219.045 191.985 218.875C192.405 218.705 192.765 218.445 193.065 218.095L193.665 218.785C193.315 219.205 192.875 219.525 192.345 219.745C191.825 219.965 191.25 220.075 190.62 220.075ZM199.657 220.075C198.987 220.075 198.402 219.95 197.902 219.7C197.402 219.45 197.012 219.075 196.732 218.575C196.462 218.075 196.327 217.45 196.327 216.7V212.125H197.392V216.58C197.392 217.42 197.597 218.055 198.007 218.485C198.427 218.905 199.012 219.115 199.762 219.115C200.312 219.115 200.787 219.005 201.187 218.785C201.597 218.555 201.907 218.225 202.117 217.795C202.337 217.365 202.447 216.85 202.447 216.25V212.125H203.512V220H202.492V217.84L202.657 218.23C202.407 218.81 202.017 219.265 201.487 219.595C200.967 219.915 200.357 220.075 199.657 220.075ZM205.356 220L208.686 215.68L208.671 216.205L205.506 212.125H206.706L209.301 215.5L208.851 215.485L211.446 212.125H212.616L209.421 216.25L209.436 215.68L212.796 220H211.581L208.836 216.4L209.256 216.46L206.556 220H205.356Z" fill="#454E5D"/>
<path d="M1256.06 195.02L1256.98 195.94L1247.92 205H1247V204.08L1256.06 195.02ZM1259.66 189C1259.41 189 1259.15 189.1 1258.96 189.29L1257.13 191.12L1260.88 194.87L1262.71 193.04C1263.1 192.65 1263.1 192.02 1262.71 191.63L1260.37 189.29C1260.17 189.09 1259.92 189 1259.66 189ZM1256.06 192.19L1245 203.25V207H1248.75L1259.81 195.94L1256.06 192.19Z" fill="#1F2A3B"/>
<path d="M1298 195V205H1290V195H1298ZM1296.5 189H1291.5L1290.5 190H1287V192H1301V190H1297.5L1296.5 189ZM1300 193H1288V205C1288 206.1 1288.9 207 1290 207H1298C1299.1 207 1300 206.1 1300 205V193Z" fill="#1F2A3B"/>
</g>
<g filter="url(#filter1_d_46_3282)">
<rect x="55" y="277" width="1291" height="100" fill="white"/>
<path d="M82.7359 312.918L88.4419 300.318H90.2239L95.9479 312.918H94.0579L88.9639 301.326H89.6839L84.5899 312.918H82.7359ZM85.1659 309.768L85.6519 308.328H92.7439L93.2659 309.768H85.1659ZM109.6 303.288C110.368 303.288 111.046 303.438 111.634 303.738C112.222 304.038 112.678 304.494 113.002 305.106C113.338 305.718 113.506 306.492 113.506 307.428V312.918H111.778V307.626C111.778 306.702 111.562 306.006 111.13 305.538C110.698 305.07 110.092 304.836 109.312 304.836C108.736 304.836 108.232 304.956 107.8 305.196C107.368 305.436 107.032 305.79 106.792 306.258C106.564 306.726 106.45 307.308 106.45 308.004V312.918H104.722V307.626C104.722 306.702 104.506 306.006 104.074 305.538C103.654 305.07 103.048 304.836 102.256 304.836C101.692 304.836 101.194 304.956 100.762 305.196C100.33 305.436 99.9935 305.79 99.7535 306.258C99.5135 306.726 99.3935 307.308 99.3935 308.004V312.918H97.6655V303.378H99.3215V305.916L99.0515 305.268C99.3515 304.644 99.8135 304.158 100.438 303.81C101.062 303.462 101.788 303.288 102.616 303.288C103.528 303.288 104.314 303.516 104.974 303.972C105.634 304.416 106.066 305.094 106.27 306.006L105.568 305.718C105.856 304.986 106.36 304.398 107.08 303.954C107.8 303.51 108.64 303.288 109.6 303.288ZM120.861 313.026C119.901 313.026 119.049 312.816 118.305 312.396C117.561 311.976 116.973 311.4 116.541 310.668C116.109 309.924 115.893 309.084 115.893 308.148C115.893 307.2 116.109 306.36 116.541 305.628C116.973 304.896 117.561 304.326 118.305 303.918C119.049 303.498 119.901 303.288 120.861 303.288C121.809 303.288 122.655 303.498 123.399 303.918C124.155 304.326 124.743 304.896 125.163 305.628C125.595 306.348 125.811 307.188 125.811 308.148C125.811 309.096 125.595 309.936 125.163 310.668C124.743 311.4 124.155 311.976 123.399 312.396C122.655 312.816 121.809 313.026 120.861 313.026ZM120.861 311.514C121.473 311.514 122.019 311.376 122.499 311.1C122.991 310.824 123.375 310.434 123.651 309.93C123.927 309.414 124.065 308.82 124.065 308.148C124.065 307.464 123.927 306.876 123.651 306.384C123.375 305.88 122.991 305.49 122.499 305.214C122.019 304.938 121.473 304.8 120.861 304.8C120.249 304.8 119.703 304.938 119.223 305.214C118.743 305.49 118.359 305.88 118.071 306.384C117.783 306.876 117.639 307.464 117.639 308.148C117.639 308.82 117.783 309.414 118.071 309.93C118.359 310.434 118.743 310.824 119.223 311.1C119.703 311.376 120.249 311.514 120.861 311.514ZM128.291 312.918V303.378H129.947V305.97L129.785 305.322C130.049 304.662 130.493 304.158 131.117 303.81C131.741 303.462 132.509 303.288 133.421 303.288V304.962C133.349 304.95 133.277 304.944 133.205 304.944C133.145 304.944 133.085 304.944 133.025 304.944C132.101 304.944 131.369 305.22 130.829 305.772C130.289 306.324 130.019 307.122 130.019 308.166V312.918H128.291ZM139.303 313.026C138.343 313.026 137.599 312.768 137.071 312.252C136.543 311.736 136.279 310.998 136.279 310.038V301.29H138.007V309.966C138.007 310.482 138.133 310.878 138.385 311.154C138.649 311.43 139.021 311.568 139.501 311.568C140.041 311.568 140.491 311.418 140.851 311.118L141.391 312.36C141.127 312.588 140.809 312.756 140.437 312.864C140.077 312.972 139.699 313.026 139.303 313.026ZM134.659 304.8V303.378H140.743V304.8H134.659ZM143.57 312.918V303.378H145.298V312.918H143.57ZM144.434 301.542C144.098 301.542 143.816 301.434 143.588 301.218C143.372 301.002 143.264 300.738 143.264 300.426C143.264 300.102 143.372 299.832 143.588 299.616C143.816 299.4 144.098 299.292 144.434 299.292C144.77 299.292 145.046 299.4 145.262 299.616C145.49 299.82 145.604 300.078 145.604 300.39C145.604 300.714 145.496 300.99 145.28 301.218C145.064 301.434 144.782 301.542 144.434 301.542ZM151.424 313.026C150.632 313.026 149.876 312.918 149.156 312.702C148.448 312.486 147.89 312.222 147.482 311.91L148.202 310.542C148.61 310.818 149.114 311.052 149.714 311.244C150.314 311.436 150.926 311.532 151.55 311.532C152.354 311.532 152.93 311.418 153.278 311.19C153.638 310.962 153.818 310.644 153.818 310.236C153.818 309.936 153.71 309.702 153.494 309.534C153.278 309.366 152.99 309.24 152.63 309.156C152.282 309.072 151.892 309 151.46 308.94C151.028 308.868 150.596 308.784 150.164 308.688C149.732 308.58 149.336 308.436 148.976 308.256C148.616 308.064 148.328 307.806 148.112 307.482C147.896 307.146 147.788 306.702 147.788 306.15C147.788 305.574 147.95 305.07 148.274 304.638C148.598 304.206 149.054 303.876 149.642 303.648C150.242 303.408 150.95 303.288 151.766 303.288C152.39 303.288 153.02 303.366 153.656 303.522C154.304 303.666 154.832 303.876 155.24 304.152L154.502 305.52C154.07 305.232 153.62 305.034 153.152 304.926C152.684 304.818 152.216 304.764 151.748 304.764C150.992 304.764 150.428 304.89 150.056 305.142C149.684 305.382 149.498 305.694 149.498 306.078C149.498 306.402 149.606 306.654 149.822 306.834C150.05 307.002 150.338 307.134 150.686 307.23C151.046 307.326 151.442 307.41 151.874 307.482C152.306 307.542 152.738 307.626 153.17 307.734C153.602 307.83 153.992 307.968 154.34 308.148C154.7 308.328 154.988 308.58 155.204 308.904C155.432 309.228 155.546 309.66 155.546 310.2C155.546 310.776 155.378 311.274 155.042 311.694C154.706 312.114 154.232 312.444 153.62 312.684C153.008 312.912 152.276 313.026 151.424 313.026ZM160.531 313.026C159.739 313.026 158.983 312.918 158.263 312.702C157.555 312.486 156.997 312.222 156.589 311.91L157.309 310.542C157.717 310.818 158.221 311.052 158.821 311.244C159.421 311.436 160.033 311.532 160.657 311.532C161.461 311.532 162.037 311.418 162.385 311.19C162.745 310.962 162.925 310.644 162.925 310.236C162.925 309.936 162.817 309.702 162.601 309.534C162.385 309.366 162.097 309.24 161.737 309.156C161.389 309.072 160.999 309 160.567 308.94C160.135 308.868 159.703 308.784 159.271 308.688C158.839 308.58 158.443 308.436 158.083 308.256C157.723 308.064 157.435 307.806 157.219 307.482C157.003 307.146 156.895 306.702 156.895 306.15C156.895 305.574 157.057 305.07 157.381 304.638C157.705 304.206 158.161 303.876 158.749 303.648C159.349 303.408 160.057 303.288 160.873 303.288C161.497 303.288 162.127 303.366 162.763 303.522C163.411 303.666 163.939 303.876 164.347 304.152L163.609 305.52C163.177 305.232 162.727 305.034 162.259 304.926C161.791 304.818 161.323 304.764 160.855 304.764C160.099 304.764 159.535 304.89 159.163 305.142C158.791 305.382 158.605 305.694 158.605 306.078C158.605 306.402 158.713 306.654 158.929 306.834C159.157 307.002 159.445 307.134 159.793 307.23C160.153 307.326 160.549 307.41 160.981 307.482C161.413 307.542 161.845 307.626 162.277 307.734C162.709 307.83 163.099 307.968 163.447 308.148C163.807 308.328 164.095 308.58 164.311 308.904C164.539 309.228 164.653 309.66 164.653 310.2C164.653 310.776 164.485 311.274 164.149 311.694C163.813 312.114 163.339 312.444 162.727 312.684C162.115 312.912 161.383 313.026 160.531 313.026ZM171.151 313.026C170.131 313.026 169.231 312.816 168.451 312.396C167.683 311.976 167.083 311.4 166.651 310.668C166.231 309.936 166.021 309.096 166.021 308.148C166.021 307.2 166.225 306.36 166.633 305.628C167.053 304.896 167.623 304.326 168.343 303.918C169.075 303.498 169.897 303.288 170.809 303.288C171.733 303.288 172.549 303.492 173.257 303.9C173.965 304.308 174.517 304.884 174.913 305.628C175.321 306.36 175.525 307.218 175.525 308.202C175.525 308.274 175.519 308.358 175.507 308.454C175.507 308.55 175.501 308.64 175.489 308.724H167.371V307.482H174.589L173.887 307.914C173.899 307.302 173.773 306.756 173.509 306.276C173.245 305.796 172.879 305.424 172.411 305.16C171.955 304.884 171.421 304.746 170.809 304.746C170.209 304.746 169.675 304.884 169.207 305.16C168.739 305.424 168.373 305.802 168.109 306.294C167.845 306.774 167.713 307.326 167.713 307.95V308.238C167.713 308.874 167.857 309.444 168.145 309.948C168.445 310.44 168.859 310.824 169.387 311.1C169.915 311.376 170.521 311.514 171.205 311.514C171.769 311.514 172.279 311.418 172.735 311.226C173.203 311.034 173.611 310.746 173.959 310.362L174.913 311.478C174.481 311.982 173.941 312.366 173.293 312.63C172.657 312.894 171.943 313.026 171.151 313.026ZM189.948 303.288C190.716 303.288 191.394 303.438 191.982 303.738C192.57 304.038 193.026 304.494 193.35 305.106C193.686 305.718 193.854 306.492 193.854 307.428V312.918H192.126V307.626C192.126 306.702 191.91 306.006 191.478 305.538C191.046 305.07 190.44 304.836 189.66 304.836C189.084 304.836 188.58 304.956 188.148 305.196C187.716 305.436 187.38 305.79 187.14 306.258C186.912 306.726 186.798 307.308 186.798 308.004V312.918H185.07V307.626C185.07 306.702 184.854 306.006 184.422 305.538C184.002 305.07 183.396 304.836 182.604 304.836C182.04 304.836 181.542 304.956 181.11 305.196C180.678 305.436 180.342 305.79 180.102 306.258C179.862 306.726 179.742 307.308 179.742 308.004V312.918H178.014V303.378H179.67V305.916L179.4 305.268C179.7 304.644 180.162 304.158 180.786 303.81C181.41 303.462 182.136 303.288 182.964 303.288C183.876 303.288 184.662 303.516 185.322 303.972C185.982 304.416 186.414 305.094 186.618 306.006L185.916 305.718C186.204 304.986 186.708 304.398 187.428 303.954C188.148 303.51 188.988 303.288 189.948 303.288ZM201.372 313.026C200.352 313.026 199.452 312.816 198.672 312.396C197.904 311.976 197.304 311.4 196.872 310.668C196.452 309.936 196.242 309.096 196.242 308.148C196.242 307.2 196.446 306.36 196.854 305.628C197.274 304.896 197.844 304.326 198.564 303.918C199.296 303.498 200.118 303.288 201.03 303.288C201.954 303.288 202.77 303.492 203.478 303.9C204.186 304.308 204.738 304.884 205.134 305.628C205.542 306.36 205.746 307.218 205.746 308.202C205.746 308.274 205.74 308.358 205.728 308.454C205.728 308.55 205.722 308.64 205.71 308.724H197.592V307.482H204.81L204.108 307.914C204.12 307.302 203.994 306.756 203.73 306.276C203.466 305.796 203.1 305.424 202.632 305.16C202.176 304.884 201.642 304.746 201.03 304.746C200.43 304.746 199.896 304.884 199.428 305.16C198.96 305.424 198.594 305.802 198.33 306.294C198.066 306.774 197.934 307.326 197.934 307.95V308.238C197.934 308.874 198.078 309.444 198.366 309.948C198.666 310.44 199.08 310.824 199.608 311.1C200.136 311.376 200.742 311.514 201.426 311.514C201.99 311.514 202.5 311.418 202.956 311.226C203.424 311.034 203.832 310.746 204.18 310.362L205.134 311.478C204.702 311.982 204.162 312.366 203.514 312.63C202.878 312.894 202.164 313.026 201.372 313.026ZM213.329 303.288C214.109 303.288 214.793 303.438 215.381 303.738C215.981 304.038 216.449 304.494 216.785 305.106C217.121 305.718 217.289 306.492 217.289 307.428V312.918H215.561V307.626C215.561 306.702 215.333 306.006 214.877 305.538C214.433 305.07 213.803 304.836 212.987 304.836C212.375 304.836 211.841 304.956 211.385 305.196C210.929 305.436 210.575 305.79 210.323 306.258C210.083 306.726 209.963 307.308 209.963 308.004V312.918H208.235V303.378H209.891V305.952L209.621 305.268C209.933 304.644 210.413 304.158 211.061 303.81C211.709 303.462 212.465 303.288 213.329 303.288ZM223.853 313.026C222.893 313.026 222.149 312.768 221.621 312.252C221.093 311.736 220.829 310.998 220.829 310.038V301.29H222.557V309.966C222.557 310.482 222.683 310.878 222.935 311.154C223.199 311.43 223.571 311.568 224.051 311.568C224.591 311.568 225.041 311.418 225.401 311.118L225.941 312.36C225.677 312.588 225.359 312.756 224.987 312.864C224.627 312.972 224.249 313.026 223.853 313.026ZM219.209 304.8V303.378H225.293V304.8H219.209ZM231.388 312.918L237.094 300.318H238.876L244.6 312.918H242.71L237.616 301.326H238.336L233.242 312.918H231.388ZM233.818 309.768L234.304 308.328H241.396L241.918 309.768H233.818ZM246.318 312.918V303.378H247.974V305.97L247.812 305.322C248.076 304.662 248.52 304.158 249.144 303.81C249.768 303.462 250.536 303.288 251.448 303.288V304.962C251.376 304.95 251.304 304.944 251.232 304.944C251.172 304.944 251.112 304.944 251.052 304.944C250.128 304.944 249.396 305.22 248.856 305.772C248.316 306.324 248.046 307.122 248.046 308.166V312.918H246.318ZM257.331 313.026C256.371 313.026 255.627 312.768 255.099 312.252C254.571 311.736 254.307 310.998 254.307 310.038V301.29H256.035V309.966C256.035 310.482 256.161 310.878 256.413 311.154C256.677 311.43 257.049 311.568 257.529 311.568C258.069 311.568 258.519 311.418 258.879 311.118L259.419 312.36C259.155 312.588 258.837 312.756 258.465 312.864C258.105 312.972 257.727 313.026 257.331 313.026ZM252.687 304.8V303.378H258.771V304.8H252.687ZM265.529 313.026C264.509 313.026 263.609 312.816 262.829 312.396C262.061 311.976 261.461 311.4 261.029 310.668C260.609 309.936 260.399 309.096 260.399 308.148C260.399 307.2 260.603 306.36 261.011 305.628C261.431 304.896 262.001 304.326 262.721 303.918C263.453 303.498 264.275 303.288 265.187 303.288C266.111 303.288 266.927 303.492 267.635 303.9C268.343 304.308 268.895 304.884 269.291 305.628C269.699 306.36 269.903 307.218 269.903 308.202C269.903 308.274 269.897 308.358 269.885 308.454C269.885 308.55 269.879 308.64 269.867 308.724H261.749V307.482H268.967L268.265 307.914C268.277 307.302 268.151 306.756 267.887 306.276C267.623 305.796 267.257 305.424 266.789 305.16C266.333 304.884 265.799 304.746 265.187 304.746C264.587 304.746 264.053 304.884 263.585 305.16C263.117 305.424 262.751 305.802 262.487 306.294C262.223 306.774 262.091 307.326 262.091 307.95V308.238C262.091 308.874 262.235 309.444 262.523 309.948C262.823 310.44 263.237 310.824 263.765 311.1C264.293 311.376 264.899 311.514 265.583 311.514C266.147 311.514 266.657 311.418 267.113 311.226C267.581 311.034 267.989 310.746 268.337 310.362L269.291 311.478C268.859 311.982 268.319 312.366 267.671 312.63C267.035 312.894 266.321 313.026 265.529 313.026Z" fill="#454E5D"/>
<path d="M82.2195 349L87.0195 338.5H88.1145L92.9145 349H91.7445L87.3345 339.145H87.7845L83.3745 349H82.2195ZM84.1095 346.195L84.4395 345.295H90.5445L90.8745 346.195H84.1095ZM94.5014 349V341.125H95.5214V343.27L95.4164 342.895C95.6364 342.295 96.0064 341.84 96.5264 341.53C97.0464 341.21 97.6914 341.05 98.4614 341.05V342.085C98.4214 342.085 98.3814 342.085 98.3414 342.085C98.3014 342.075 98.2614 342.07 98.2214 342.07C97.3914 342.07 96.7414 342.325 96.2714 342.835C95.8014 343.335 95.5664 344.05 95.5664 344.98V349H94.5014ZM103.307 349.075C102.567 349.075 101.997 348.875 101.597 348.475C101.197 348.075 100.997 347.51 100.997 346.78V339.385H102.062V346.72C102.062 347.18 102.177 347.535 102.407 347.785C102.647 348.035 102.987 348.16 103.427 348.16C103.897 348.16 104.287 348.025 104.597 347.755L104.972 348.52C104.762 348.71 104.507 348.85 104.207 348.94C103.917 349.03 103.617 349.075 103.307 349.075ZM99.5866 342.01V341.125H104.462V342.01H99.5866ZM110.052 349.075C109.232 349.075 108.512 348.905 107.892 348.565C107.272 348.215 106.787 347.74 106.437 347.14C106.087 346.53 105.912 345.835 105.912 345.055C105.912 344.275 106.077 343.585 106.407 342.985C106.747 342.385 107.207 341.915 107.787 341.575C108.377 341.225 109.037 341.05 109.767 341.05C110.507 341.05 111.162 341.22 111.732 341.56C112.312 341.89 112.767 342.36 113.097 342.97C113.427 343.57 113.592 344.265 113.592 345.055C113.592 345.105 113.587 345.16 113.577 345.22C113.577 345.27 113.577 345.325 113.577 345.385H106.722V344.59H113.007L112.587 344.905C112.587 344.335 112.462 343.83 112.212 343.39C111.972 342.94 111.642 342.59 111.222 342.34C110.802 342.09 110.317 341.965 109.767 341.965C109.227 341.965 108.742 342.09 108.312 342.34C107.882 342.59 107.547 342.94 107.307 343.39C107.067 343.84 106.947 344.355 106.947 344.935V345.1C106.947 345.7 107.077 346.23 107.337 346.69C107.607 347.14 107.977 347.495 108.447 347.755C108.927 348.005 109.472 348.13 110.082 348.13C110.562 348.13 111.007 348.045 111.417 347.875C111.837 347.705 112.197 347.445 112.497 347.095L113.097 347.785C112.747 348.205 112.307 348.525 111.777 348.745C111.257 348.965 110.682 349.075 110.052 349.075ZM121.051 343.585H126.601V344.545H121.051V343.585ZM121.171 349H120.061V338.5H127.261V339.46H121.171V349ZM129.256 349V341.125H130.276V343.27L130.171 342.895C130.391 342.295 130.761 341.84 131.281 341.53C131.801 341.21 132.446 341.05 133.216 341.05V342.085C133.176 342.085 133.136 342.085 133.096 342.085C133.056 342.075 133.016 342.07 132.976 342.07C132.146 342.07 131.496 342.325 131.026 342.835C130.556 343.335 130.321 344.05 130.321 344.98V349H129.256ZM139.584 349V347.26L139.539 346.975V344.065C139.539 343.395 139.349 342.88 138.969 342.52C138.599 342.16 138.044 341.98 137.304 341.98C136.794 341.98 136.309 342.065 135.849 342.235C135.389 342.405 134.999 342.63 134.679 342.91L134.199 342.115C134.599 341.775 135.079 341.515 135.639 341.335C136.199 341.145 136.789 341.05 137.409 341.05C138.429 341.05 139.214 341.305 139.764 341.815C140.324 342.315 140.604 343.08 140.604 344.11V349H139.584ZM136.869 349.075C136.279 349.075 135.764 348.98 135.324 348.79C134.894 348.59 134.564 348.32 134.334 347.98C134.104 347.63 133.989 347.23 133.989 346.78C133.989 346.37 134.084 346 134.274 345.67C134.474 345.33 134.794 345.06 135.234 344.86C135.684 344.65 136.284 344.545 137.034 344.545H139.749V345.34H137.064C136.304 345.34 135.774 345.475 135.474 345.745C135.184 346.015 135.039 346.35 135.039 346.75C135.039 347.2 135.214 347.56 135.564 347.83C135.914 348.1 136.404 348.235 137.034 348.235C137.634 348.235 138.149 348.1 138.579 347.83C139.019 347.55 139.339 347.15 139.539 346.63L139.779 347.365C139.579 347.885 139.229 348.3 138.729 348.61C138.239 348.92 137.619 349.075 136.869 349.075ZM147.591 341.05C148.231 341.05 148.791 341.175 149.271 341.425C149.761 341.665 150.141 342.035 150.411 342.535C150.691 343.035 150.831 343.665 150.831 344.425V349H149.766V344.53C149.766 343.7 149.556 343.075 149.136 342.655C148.726 342.225 148.146 342.01 147.396 342.01C146.836 342.01 146.346 342.125 145.926 342.355C145.516 342.575 145.196 342.9 144.966 343.33C144.746 343.75 144.636 344.26 144.636 344.86V349H143.571V341.125H144.591V343.285L144.426 342.88C144.676 342.31 145.076 341.865 145.626 341.545C146.176 341.215 146.831 341.05 147.591 341.05ZM157.053 349.075C156.273 349.075 155.573 348.905 154.953 348.565C154.343 348.215 153.863 347.74 153.513 347.14C153.163 346.53 152.988 345.835 152.988 345.055C152.988 344.265 153.163 343.57 153.513 342.97C153.863 342.37 154.343 341.9 154.953 341.56C155.573 341.22 156.273 341.05 157.053 341.05C157.723 341.05 158.328 341.18 158.868 341.44C159.408 341.7 159.833 342.09 160.143 342.61L159.348 343.15C159.078 342.75 158.743 342.455 158.343 342.265C157.943 342.075 157.508 341.98 157.038 341.98C156.478 341.98 155.973 342.11 155.523 342.37C155.073 342.62 154.718 342.975 154.458 343.435C154.198 343.895 154.068 344.435 154.068 345.055C154.068 345.675 154.198 346.215 154.458 346.675C154.718 347.135 155.073 347.495 155.523 347.755C155.973 348.005 156.478 348.13 157.038 348.13C157.508 348.13 157.943 348.035 158.343 347.845C158.743 347.655 159.078 347.365 159.348 346.975L160.143 347.515C159.833 348.025 159.408 348.415 158.868 348.685C158.328 348.945 157.723 349.075 157.053 349.075ZM165.523 349.075C164.703 349.075 163.983 348.905 163.363 348.565C162.743 348.215 162.258 347.74 161.908 347.14C161.558 346.53 161.383 345.835 161.383 345.055C161.383 344.275 161.548 343.585 161.878 342.985C162.218 342.385 162.678 341.915 163.258 341.575C163.848 341.225 164.508 341.05 165.238 341.05C165.978 341.05 166.633 341.22 167.203 341.56C167.783 341.89 168.238 342.36 168.568 342.97C168.898 343.57 169.063 344.265 169.063 345.055C169.063 345.105 169.058 345.16 169.048 345.22C169.048 345.27 169.048 345.325 169.048 345.385H162.193V344.59H168.478L168.058 344.905C168.058 344.335 167.933 343.83 167.683 343.39C167.443 342.94 167.113 342.59 166.693 342.34C166.273 342.09 165.788 341.965 165.238 341.965C164.698 341.965 164.213 342.09 163.783 342.34C163.353 342.59 163.018 342.94 162.778 343.39C162.538 343.84 162.418 344.355 162.418 344.935V345.1C162.418 345.7 162.548 346.23 162.808 346.69C163.078 347.14 163.448 347.495 163.918 347.755C164.398 348.005 164.943 348.13 165.553 348.13C166.033 348.13 166.478 348.045 166.888 347.875C167.308 347.705 167.668 347.445 167.968 347.095L168.568 347.785C168.218 348.205 167.778 348.525 167.248 348.745C166.728 348.965 166.153 349.075 165.523 349.075ZM180.092 349.09C179.302 349.09 178.572 348.96 177.902 348.7C177.232 348.43 176.652 348.055 176.162 347.575C175.672 347.095 175.287 346.53 175.007 345.88C174.737 345.23 174.602 344.52 174.602 343.75C174.602 342.98 174.737 342.27 175.007 341.62C175.287 340.97 175.672 340.405 176.162 339.925C176.662 339.445 177.247 339.075 177.917 338.815C178.587 338.545 179.317 338.41 180.107 338.41C180.867 338.41 181.582 338.54 182.252 338.8C182.922 339.05 183.487 339.43 183.947 339.94L183.242 340.645C182.812 340.205 182.337 339.89 181.817 339.7C181.297 339.5 180.737 339.4 180.137 339.4C179.507 339.4 178.922 339.51 178.382 339.73C177.842 339.94 177.372 340.245 176.972 340.645C176.572 341.035 176.257 341.495 176.027 342.025C175.807 342.545 175.697 343.12 175.697 343.75C175.697 344.38 175.807 344.96 176.027 345.49C176.257 346.01 176.572 346.47 176.972 346.87C177.372 347.26 177.842 347.565 178.382 347.785C178.922 347.995 179.507 348.1 180.137 348.1C180.737 348.1 181.297 348 181.817 347.8C182.337 347.6 182.812 347.28 183.242 346.84L183.947 347.545C183.487 348.055 182.922 348.44 182.252 348.7C181.582 348.96 180.862 349.09 180.092 349.09ZM186.163 349V341.125H187.228V349H186.163ZM186.703 339.385C186.483 339.385 186.298 339.31 186.148 339.16C185.998 339.01 185.923 338.83 185.923 338.62C185.923 338.41 185.998 338.235 186.148 338.095C186.298 337.945 186.483 337.87 186.703 337.87C186.923 337.87 187.108 337.94 187.258 338.08C187.408 338.22 187.483 338.395 187.483 338.605C187.483 338.825 187.408 339.01 187.258 339.16C187.118 339.31 186.933 339.385 186.703 339.385ZM194.286 341.05C194.926 341.05 195.486 341.175 195.966 341.425C196.456 341.665 196.836 342.035 197.106 342.535C197.386 343.035 197.526 343.665 197.526 344.425V349H196.461V344.53C196.461 343.7 196.251 343.075 195.831 342.655C195.421 342.225 194.841 342.01 194.091 342.01C193.531 342.01 193.041 342.125 192.621 342.355C192.211 342.575 191.891 342.9 191.661 343.33C191.441 343.75 191.331 344.26 191.331 344.86V349H190.266V341.125H191.286V343.285L191.121 342.88C191.371 342.31 191.771 341.865 192.321 341.545C192.871 341.215 193.526 341.05 194.286 341.05ZM203.823 349.075C203.003 349.075 202.283 348.905 201.663 348.565C201.043 348.215 200.558 347.74 200.208 347.14C199.858 346.53 199.683 345.835 199.683 345.055C199.683 344.275 199.848 343.585 200.178 342.985C200.518 342.385 200.978 341.915 201.558 341.575C202.148 341.225 202.808 341.05 203.538 341.05C204.278 341.05 204.933 341.22 205.503 341.56C206.083 341.89 206.538 342.36 206.868 342.97C207.198 343.57 207.363 344.265 207.363 345.055C207.363 345.105 207.358 345.16 207.348 345.22C207.348 345.27 207.348 345.325 207.348 345.385H200.493V344.59H206.778L206.358 344.905C206.358 344.335 206.233 343.83 205.983 343.39C205.743 342.94 205.413 342.59 204.993 342.34C204.573 342.09 204.088 341.965 203.538 341.965C202.998 341.965 202.513 342.09 202.083 342.34C201.653 342.59 201.318 342.94 201.078 343.39C200.838 343.84 200.718 344.355 200.718 344.935V345.1C200.718 345.7 200.848 346.23 201.108 346.69C201.378 347.14 201.748 347.495 202.218 347.755C202.698 348.005 203.243 348.13 203.853 348.13C204.333 348.13 204.778 348.045 205.188 347.875C205.608 347.705 205.968 347.445 206.268 347.095L206.868 347.785C206.518 348.205 206.078 348.525 205.548 348.745C205.028 348.965 204.453 349.075 203.823 349.075ZM202.548 339.895L204.603 338.035H206.028L203.598 339.895H202.548ZM219.446 341.05C220.086 341.05 220.641 341.175 221.111 341.425C221.591 341.665 221.961 342.035 222.221 342.535C222.491 343.035 222.626 343.665 222.626 344.425V349H221.561V344.53C221.561 343.7 221.361 343.075 220.961 342.655C220.571 342.225 220.016 342.01 219.296 342.01C218.756 342.01 218.286 342.125 217.886 342.355C217.496 342.575 217.191 342.9 216.971 343.33C216.761 343.75 216.656 344.26 216.656 344.86V349H215.591V344.53C215.591 343.7 215.391 343.075 214.991 342.655C214.591 342.225 214.031 342.01 213.311 342.01C212.781 342.01 212.316 342.125 211.916 342.355C211.516 342.575 211.206 342.9 210.986 343.33C210.776 343.75 210.671 344.26 210.671 344.86V349H209.606V341.125H210.626V343.255L210.461 342.88C210.701 342.31 211.086 341.865 211.616 341.545C212.156 341.215 212.791 341.05 213.521 341.05C214.291 341.05 214.946 341.245 215.486 341.635C216.026 342.015 216.376 342.59 216.536 343.36L216.116 343.195C216.346 342.555 216.751 342.04 217.331 341.65C217.921 341.25 218.626 341.05 219.446 341.05ZM230.524 349V347.26L230.479 346.975V344.065C230.479 343.395 230.289 342.88 229.909 342.52C229.539 342.16 228.984 341.98 228.244 341.98C227.734 341.98 227.249 342.065 226.789 342.235C226.329 342.405 225.939 342.63 225.619 342.91L225.139 342.115C225.539 341.775 226.019 341.515 226.579 341.335C227.139 341.145 227.729 341.05 228.349 341.05C229.369 341.05 230.154 341.305 230.704 341.815C231.264 342.315 231.544 343.08 231.544 344.11V349H230.524ZM227.809 349.075C227.219 349.075 226.704 348.98 226.264 348.79C225.834 348.59 225.504 348.32 225.274 347.98C225.044 347.63 224.929 347.23 224.929 346.78C224.929 346.37 225.024 346 225.214 345.67C225.414 345.33 225.734 345.06 226.174 344.86C226.624 344.65 227.224 344.545 227.974 344.545H230.689V345.34H228.004C227.244 345.34 226.714 345.475 226.414 345.745C226.124 346.015 225.979 346.35 225.979 346.75C225.979 347.2 226.154 347.56 226.504 347.83C226.854 348.1 227.344 348.235 227.974 348.235C228.574 348.235 229.089 348.1 229.519 347.83C229.959 347.55 230.279 347.15 230.479 346.63L230.719 347.365C230.519 347.885 230.169 348.3 229.669 348.61C229.179 348.92 228.559 349.075 227.809 349.075Z" fill="#454E5D"/>
<path d="M1256.06 324.02L1256.98 324.94L1247.92 334H1247V333.08L1256.06 324.02ZM1259.66 318C1259.41 318 1259.15 318.1 1258.96 318.29L1257.13 320.12L1260.88 323.87L1262.71 322.04C1263.1 321.65 1263.1 321.02 1262.71 320.63L1260.37 318.29C1260.17 318.09 1259.92 318 1259.66 318ZM1256.06 321.19L1245 332.25V336H1248.75L1259.81 324.94L1256.06 321.19Z" fill="#1F2A3B"/>
<path d="M1298 324V334H1290V324H1298ZM1296.5 318H1291.5L1290.5 319H1287V321H1301V319H1297.5L1296.5 318ZM1300 322H1288V334C1288 335.1 1288.9 336 1290 336H1298C1299.1 336 1300 335.1 1300 334V322Z" fill="#1F2A3B"/>
</g>
<g filter="url(#filter2_d_46_3282)">
<rect x="55" y="406" width="1291" height="100" fill="white"/>
<path d="M82.7359 441.918L88.4419 429.318H90.2239L95.9479 441.918H94.0579L88.9639 430.326H89.6839L84.5899 441.918H82.7359ZM85.1659 438.768L85.6519 437.328H92.7439L93.2659 438.768H85.1659ZM109.6 432.288C110.368 432.288 111.046 432.438 111.634 432.738C112.222 433.038 112.678 433.494 113.002 434.106C113.338 434.718 113.506 435.492 113.506 436.428V441.918H111.778V436.626C111.778 435.702 111.562 435.006 111.13 434.538C110.698 434.07 110.092 433.836 109.312 433.836C108.736 433.836 108.232 433.956 107.8 434.196C107.368 434.436 107.032 434.79 106.792 435.258C106.564 435.726 106.45 436.308 106.45 437.004V441.918H104.722V436.626C104.722 435.702 104.506 435.006 104.074 434.538C103.654 434.07 103.048 433.836 102.256 433.836C101.692 433.836 101.194 433.956 100.762 434.196C100.33 434.436 99.9935 434.79 99.7535 435.258C99.5135 435.726 99.3935 436.308 99.3935 437.004V441.918H97.6655V432.378H99.3215V434.916L99.0515 434.268C99.3515 433.644 99.8135 433.158 100.438 432.81C101.062 432.462 101.788 432.288 102.616 432.288C103.528 432.288 104.314 432.516 104.974 432.972C105.634 433.416 106.066 434.094 106.27 435.006L105.568 434.718C105.856 433.986 106.36 433.398 107.08 432.954C107.8 432.51 108.64 432.288 109.6 432.288ZM120.861 442.026C119.901 442.026 119.049 441.816 118.305 441.396C117.561 440.976 116.973 440.4 116.541 439.668C116.109 438.924 115.893 438.084 115.893 437.148C115.893 436.2 116.109 435.36 116.541 434.628C116.973 433.896 117.561 433.326 118.305 432.918C119.049 432.498 119.901 432.288 120.861 432.288C121.809 432.288 122.655 432.498 123.399 432.918C124.155 433.326 124.743 433.896 125.163 434.628C125.595 435.348 125.811 436.188 125.811 437.148C125.811 438.096 125.595 438.936 125.163 439.668C124.743 440.4 124.155 440.976 123.399 441.396C122.655 441.816 121.809 442.026 120.861 442.026ZM120.861 440.514C121.473 440.514 122.019 440.376 122.499 440.1C122.991 439.824 123.375 439.434 123.651 438.93C123.927 438.414 124.065 437.82 124.065 437.148C124.065 436.464 123.927 435.876 123.651 435.384C123.375 434.88 122.991 434.49 122.499 434.214C122.019 433.938 121.473 433.8 120.861 433.8C120.249 433.8 119.703 433.938 119.223 434.214C118.743 434.49 118.359 434.88 118.071 435.384C117.783 435.876 117.639 436.464 117.639 437.148C117.639 437.82 117.783 438.414 118.071 438.93C118.359 439.434 118.743 439.824 119.223 440.1C119.703 440.376 120.249 440.514 120.861 440.514ZM128.291 441.918V432.378H129.947V434.97L129.785 434.322C130.049 433.662 130.493 433.158 131.117 432.81C131.741 432.462 132.509 432.288 133.421 432.288V433.962C133.349 433.95 133.277 433.944 133.205 433.944C133.145 433.944 133.085 433.944 133.025 433.944C132.101 433.944 131.369 434.22 130.829 434.772C130.289 435.324 130.019 436.122 130.019 437.166V441.918H128.291ZM139.303 442.026C138.343 442.026 137.599 441.768 137.071 441.252C136.543 440.736 136.279 439.998 136.279 439.038V430.29H138.007V438.966C138.007 439.482 138.133 439.878 138.385 440.154C138.649 440.43 139.021 440.568 139.501 440.568C140.041 440.568 140.491 440.418 140.851 440.118L141.391 441.36C141.127 441.588 140.809 441.756 140.437 441.864C140.077 441.972 139.699 442.026 139.303 442.026ZM134.659 433.8V432.378H140.743V433.8H134.659ZM143.57 441.918V432.378H145.298V441.918H143.57ZM144.434 430.542C144.098 430.542 143.816 430.434 143.588 430.218C143.372 430.002 143.264 429.738 143.264 429.426C143.264 429.102 143.372 428.832 143.588 428.616C143.816 428.4 144.098 428.292 144.434 428.292C144.77 428.292 145.046 428.4 145.262 428.616C145.49 428.82 145.604 429.078 145.604 429.39C145.604 429.714 145.496 429.99 145.28 430.218C145.064 430.434 144.782 430.542 144.434 430.542ZM151.424 442.026C150.632 442.026 149.876 441.918 149.156 441.702C148.448 441.486 147.89 441.222 147.482 440.91L148.202 439.542C148.61 439.818 149.114 440.052 149.714 440.244C150.314 440.436 150.926 440.532 151.55 440.532C152.354 440.532 152.93 440.418 153.278 440.19C153.638 439.962 153.818 439.644 153.818 439.236C153.818 438.936 153.71 438.702 153.494 438.534C153.278 438.366 152.99 438.24 152.63 438.156C152.282 438.072 151.892 438 151.46 437.94C151.028 437.868 150.596 437.784 150.164 437.688C149.732 437.58 149.336 437.436 148.976 437.256C148.616 437.064 148.328 436.806 148.112 436.482C147.896 436.146 147.788 435.702 147.788 435.15C147.788 434.574 147.95 434.07 148.274 433.638C148.598 433.206 149.054 432.876 149.642 432.648C150.242 432.408 150.95 432.288 151.766 432.288C152.39 432.288 153.02 432.366 153.656 432.522C154.304 432.666 154.832 432.876 155.24 433.152L154.502 434.52C154.07 434.232 153.62 434.034 153.152 433.926C152.684 433.818 152.216 433.764 151.748 433.764C150.992 433.764 150.428 433.89 150.056 434.142C149.684 434.382 149.498 434.694 149.498 435.078C149.498 435.402 149.606 435.654 149.822 435.834C150.05 436.002 150.338 436.134 150.686 436.23C151.046 436.326 151.442 436.41 151.874 436.482C152.306 436.542 152.738 436.626 153.17 436.734C153.602 436.83 153.992 436.968 154.34 437.148C154.7 437.328 154.988 437.58 155.204 437.904C155.432 438.228 155.546 438.66 155.546 439.2C155.546 439.776 155.378 440.274 155.042 440.694C154.706 441.114 154.232 441.444 153.62 441.684C153.008 441.912 152.276 442.026 151.424 442.026ZM160.531 442.026C159.739 442.026 158.983 441.918 158.263 441.702C157.555 441.486 156.997 441.222 156.589 440.91L157.309 439.542C157.717 439.818 158.221 440.052 158.821 440.244C159.421 440.436 160.033 440.532 160.657 440.532C161.461 440.532 162.037 440.418 162.385 440.19C162.745 439.962 162.925 439.644 162.925 439.236C162.925 438.936 162.817 438.702 162.601 438.534C162.385 438.366 162.097 438.24 161.737 438.156C161.389 438.072 160.999 438 160.567 437.94C160.135 437.868 159.703 437.784 159.271 437.688C158.839 437.58 158.443 437.436 158.083 437.256C157.723 437.064 157.435 436.806 157.219 436.482C157.003 436.146 156.895 435.702 156.895 435.15C156.895 434.574 157.057 434.07 157.381 433.638C157.705 433.206 158.161 432.876 158.749 432.648C159.349 432.408 160.057 432.288 160.873 432.288C161.497 432.288 162.127 432.366 162.763 432.522C163.411 432.666 163.939 432.876 164.347 433.152L163.609 434.52C163.177 434.232 162.727 434.034 162.259 433.926C161.791 433.818 161.323 433.764 160.855 433.764C160.099 433.764 159.535 433.89 159.163 434.142C158.791 434.382 158.605 434.694 158.605 435.078C158.605 435.402 158.713 435.654 158.929 435.834C159.157 436.002 159.445 436.134 159.793 436.23C160.153 436.326 160.549 436.41 160.981 436.482C161.413 436.542 161.845 436.626 162.277 436.734C162.709 436.83 163.099 436.968 163.447 437.148C163.807 437.328 164.095 437.58 164.311 437.904C164.539 438.228 164.653 438.66 164.653 439.2C164.653 439.776 164.485 440.274 164.149 440.694C163.813 441.114 163.339 441.444 162.727 441.684C162.115 441.912 161.383 442.026 160.531 442.026ZM171.151 442.026C170.131 442.026 169.231 441.816 168.451 441.396C167.683 440.976 167.083 440.4 166.651 439.668C166.231 438.936 166.021 438.096 166.021 437.148C166.021 436.2 166.225 435.36 166.633 434.628C167.053 433.896 167.623 433.326 168.343 432.918C169.075 432.498 169.897 432.288 170.809 432.288C171.733 432.288 172.549 432.492 173.257 432.9C173.965 433.308 174.517 433.884 174.913 434.628C175.321 435.36 175.525 436.218 175.525 437.202C175.525 437.274 175.519 437.358 175.507 437.454C175.507 437.55 175.501 437.64 175.489 437.724H167.371V436.482H174.589L173.887 436.914C173.899 436.302 173.773 435.756 173.509 435.276C173.245 434.796 172.879 434.424 172.411 434.16C171.955 433.884 171.421 433.746 170.809 433.746C170.209 433.746 169.675 433.884 169.207 434.16C168.739 434.424 168.373 434.802 168.109 435.294C167.845 435.774 167.713 436.326 167.713 436.95V437.238C167.713 437.874 167.857 438.444 168.145 438.948C168.445 439.44 168.859 439.824 169.387 440.1C169.915 440.376 170.521 440.514 171.205 440.514C171.769 440.514 172.279 440.418 172.735 440.226C173.203 440.034 173.611 439.746 173.959 439.362L174.913 440.478C174.481 440.982 173.941 441.366 173.293 441.63C172.657 441.894 171.943 442.026 171.151 442.026ZM189.948 432.288C190.716 432.288 191.394 432.438 191.982 432.738C192.57 433.038 193.026 433.494 193.35 434.106C193.686 434.718 193.854 435.492 193.854 436.428V441.918H192.126V436.626C192.126 435.702 191.91 435.006 191.478 434.538C191.046 434.07 190.44 433.836 189.66 433.836C189.084 433.836 188.58 433.956 188.148 434.196C187.716 434.436 187.38 434.79 187.14 435.258C186.912 435.726 186.798 436.308 186.798 437.004V441.918H185.07V436.626C185.07 435.702 184.854 435.006 184.422 434.538C184.002 434.07 183.396 433.836 182.604 433.836C182.04 433.836 181.542 433.956 181.11 434.196C180.678 434.436 180.342 434.79 180.102 435.258C179.862 435.726 179.742 436.308 179.742 437.004V441.918H178.014V432.378H179.67V434.916L179.4 434.268C179.7 433.644 180.162 433.158 180.786 432.81C181.41 432.462 182.136 432.288 182.964 432.288C183.876 432.288 184.662 432.516 185.322 432.972C185.982 433.416 186.414 434.094 186.618 435.006L185.916 434.718C186.204 433.986 186.708 433.398 187.428 432.954C188.148 432.51 188.988 432.288 189.948 432.288ZM201.372 442.026C200.352 442.026 199.452 441.816 198.672 441.396C197.904 440.976 197.304 440.4 196.872 439.668C196.452 438.936 196.242 438.096 196.242 437.148C196.242 436.2 196.446 435.36 196.854 434.628C197.274 433.896 197.844 433.326 198.564 432.918C199.296 432.498 200.118 432.288 201.03 432.288C201.954 432.288 202.77 432.492 203.478 432.9C204.186 433.308 204.738 433.884 205.134 434.628C205.542 435.36 205.746 436.218 205.746 437.202C205.746 437.274 205.74 437.358 205.728 437.454C205.728 437.55 205.722 437.64 205.71 437.724H197.592V436.482H204.81L204.108 436.914C204.12 436.302 203.994 435.756 203.73 435.276C203.466 434.796 203.1 434.424 202.632 434.16C202.176 433.884 201.642 433.746 201.03 433.746C200.43 433.746 199.896 433.884 199.428 434.16C198.96 434.424 198.594 434.802 198.33 435.294C198.066 435.774 197.934 436.326 197.934 436.95V437.238C197.934 437.874 198.078 438.444 198.366 438.948C198.666 439.44 199.08 439.824 199.608 440.1C200.136 440.376 200.742 440.514 201.426 440.514C201.99 440.514 202.5 440.418 202.956 440.226C203.424 440.034 203.832 439.746 204.18 439.362L205.134 440.478C204.702 440.982 204.162 441.366 203.514 441.63C202.878 441.894 202.164 442.026 201.372 442.026ZM213.329 432.288C214.109 432.288 214.793 432.438 215.381 432.738C215.981 433.038 216.449 433.494 216.785 434.106C217.121 434.718 217.289 435.492 217.289 436.428V441.918H215.561V436.626C215.561 435.702 215.333 435.006 214.877 434.538C214.433 434.07 213.803 433.836 212.987 433.836C212.375 433.836 211.841 433.956 211.385 434.196C210.929 434.436 210.575 434.79 210.323 435.258C210.083 435.726 209.963 436.308 209.963 437.004V441.918H208.235V432.378H209.891V434.952L209.621 434.268C209.933 433.644 210.413 433.158 211.061 432.81C211.709 432.462 212.465 432.288 213.329 432.288ZM223.853 442.026C222.893 442.026 222.149 441.768 221.621 441.252C221.093 440.736 220.829 439.998 220.829 439.038V430.29H222.557V438.966C222.557 439.482 222.683 439.878 222.935 440.154C223.199 440.43 223.571 440.568 224.051 440.568C224.591 440.568 225.041 440.418 225.401 440.118L225.941 441.36C225.677 441.588 225.359 441.756 224.987 441.864C224.627 441.972 224.249 442.026 223.853 442.026ZM219.209 433.8V432.378H225.293V433.8H219.209ZM238.966 441.918V439.902L238.876 439.524V436.086C238.876 435.354 238.66 434.79 238.228 434.394C237.808 433.986 237.172 433.782 236.32 433.782C235.756 433.782 235.204 433.878 234.664 434.07C234.124 434.25 233.668 434.496 233.296 434.808L232.576 433.512C233.068 433.116 233.656 432.816 234.34 432.612C235.036 432.396 235.762 432.288 236.518 432.288C237.826 432.288 238.834 432.606 239.542 433.242C240.25 433.878 240.604 434.85 240.604 436.158V441.918H238.966ZM235.834 442.026C235.126 442.026 234.502 441.906 233.962 441.666C233.434 441.426 233.026 441.096 232.738 440.676C232.45 440.244 232.306 439.758 232.306 439.218C232.306 438.702 232.426 438.234 232.666 437.814C232.918 437.394 233.32 437.058 233.872 436.806C234.436 436.554 235.192 436.428 236.14 436.428H239.164V437.67H236.212C235.348 437.67 234.766 437.814 234.466 438.102C234.166 438.39 234.016 438.738 234.016 439.146C234.016 439.614 234.202 439.992 234.574 440.28C234.946 440.556 235.462 440.694 236.122 440.694C236.77 440.694 237.334 440.55 237.814 440.262C238.306 439.974 238.66 439.554 238.876 439.002L239.218 440.19C238.99 440.754 238.588 441.204 238.012 441.54C237.436 441.864 236.71 442.026 235.834 442.026ZM248.05 442.026C247.078 442.026 246.208 441.816 245.44 441.396C244.684 440.976 244.09 440.4 243.658 439.668C243.226 438.936 243.01 438.096 243.01 437.148C243.01 436.2 243.226 435.36 243.658 434.628C244.09 433.896 244.684 433.326 245.44 432.918C246.208 432.498 247.078 432.288 248.05 432.288C248.914 432.288 249.682 432.462 250.354 432.81C251.038 433.146 251.566 433.65 251.938 434.322L250.624 435.168C250.312 434.7 249.928 434.358 249.472 434.142C249.028 433.914 248.548 433.8 248.032 433.8C247.408 433.8 246.85 433.938 246.358 434.214C245.866 434.49 245.476 434.88 245.188 435.384C244.9 435.876 244.756 436.464 244.756 437.148C244.756 437.832 244.9 438.426 245.188 438.93C245.476 439.434 245.866 439.824 246.358 440.1C246.85 440.376 247.408 440.514 248.032 440.514C248.548 440.514 249.028 440.406 249.472 440.19C249.928 439.962 250.312 439.614 250.624 439.146L251.938 439.974C251.566 440.634 251.038 441.144 250.354 441.504C249.682 441.852 248.914 442.026 248.05 442.026ZM257.665 442.026C256.705 442.026 255.961 441.768 255.433 441.252C254.905 440.736 254.641 439.998 254.641 439.038V430.29H256.369V438.966C256.369 439.482 256.495 439.878 256.747 440.154C257.011 440.43 257.383 440.568 257.863 440.568C258.403 440.568 258.853 440.418 259.213 440.118L259.753 441.36C259.489 441.588 259.171 441.756 258.799 441.864C258.439 441.972 258.061 442.026 257.665 442.026ZM253.021 433.8V432.378H259.105V433.8H253.021ZM265.701 442.026C264.741 442.026 263.889 441.816 263.145 441.396C262.401 440.976 261.813 440.4 261.381 439.668C260.949 438.924 260.733 438.084 260.733 437.148C260.733 436.2 260.949 435.36 261.381 434.628C261.813 433.896 262.401 433.326 263.145 432.918C263.889 432.498 264.741 432.288 265.701 432.288C266.649 432.288 267.495 432.498 268.239 432.918C268.995 433.326 269.583 433.896 270.003 434.628C270.435 435.348 270.651 436.188 270.651 437.148C270.651 438.096 270.435 438.936 270.003 439.668C269.583 440.4 268.995 440.976 268.239 441.396C267.495 441.816 266.649 442.026 265.701 442.026ZM265.701 440.514C266.313 440.514 266.859 440.376 267.339 440.1C267.831 439.824 268.215 439.434 268.491 438.93C268.767 438.414 268.905 437.82 268.905 437.148C268.905 436.464 268.767 435.876 268.491 435.384C268.215 434.88 267.831 434.49 267.339 434.214C266.859 433.938 266.313 433.8 265.701 433.8C265.089 433.8 264.543 433.938 264.063 434.214C263.583 434.49 263.199 434.88 262.911 435.384C262.623 435.876 262.479 436.464 262.479 437.148C262.479 437.82 262.623 438.414 262.911 438.93C263.199 439.434 263.583 439.824 264.063 440.1C264.543 440.376 265.089 440.514 265.701 440.514ZM273.131 441.918V432.378H274.787V434.97L274.625 434.322C274.889 433.662 275.333 433.158 275.957 432.81C276.581 432.462 277.349 432.288 278.261 432.288V433.962C278.189 433.95 278.117 433.944 278.045 433.944C277.985 433.944 277.925 433.944 277.865 433.944C276.941 433.944 276.209 434.22 275.669 434.772C275.129 435.324 274.859 436.122 274.859 437.166V441.918H273.131ZM283.322 442.026C282.53 442.026 281.774 441.918 281.054 441.702C280.346 441.486 279.788 441.222 279.38 440.91L280.1 439.542C280.508 439.818 281.012 440.052 281.612 440.244C282.212 440.436 282.824 440.532 283.448 440.532C284.252 440.532 284.828 440.418 285.176 440.19C285.536 439.962 285.716 439.644 285.716 439.236C285.716 438.936 285.608 438.702 285.392 438.534C285.176 438.366 284.888 438.24 284.528 438.156C284.18 438.072 283.79 438 283.358 437.94C282.926 437.868 282.494 437.784 282.062 437.688C281.63 437.58 281.234 437.436 280.874 437.256C280.514 437.064 280.226 436.806 280.01 436.482C279.794 436.146 279.686 435.702 279.686 435.15C279.686 434.574 279.848 434.07 280.172 433.638C280.496 433.206 280.952 432.876 281.54 432.648C282.14 432.408 282.848 432.288 283.664 432.288C284.288 432.288 284.918 432.366 285.554 432.522C286.202 432.666 286.73 432.876 287.138 433.152L286.4 434.52C285.968 434.232 285.518 434.034 285.05 433.926C284.582 433.818 284.114 433.764 283.646 433.764C282.89 433.764 282.326 433.89 281.954 434.142C281.582 434.382 281.396 434.694 281.396 435.078C281.396 435.402 281.504 435.654 281.72 435.834C281.948 436.002 282.236 436.134 282.584 436.23C282.944 436.326 283.34 436.41 283.772 436.482C284.204 436.542 284.636 436.626 285.068 436.734C285.5 436.83 285.89 436.968 286.238 437.148C286.598 437.328 286.886 437.58 287.102 437.904C287.33 438.228 287.444 438.66 287.444 439.2C287.444 439.776 287.276 440.274 286.94 440.694C286.604 441.114 286.13 441.444 285.518 441.684C284.906 441.912 284.174 442.026 283.322 442.026Z" fill="#454E5D"/>
<path d="M84.8895 472.585H90.4395V473.545H84.8895V472.585ZM85.0095 478H83.8995V467.5H91.0995V468.46H85.0095V478ZM93.2416 478V466.87H94.3066V478H93.2416ZM102.28 478V476.26L102.235 475.975V473.065C102.235 472.395 102.045 471.88 101.665 471.52C101.295 471.16 100.74 470.98 100 470.98C99.49 470.98 99.005 471.065 98.545 471.235C98.085 471.405 97.695 471.63 97.375 471.91L96.895 471.115C97.295 470.775 97.775 470.515 98.335 470.335C98.895 470.145 99.485 470.05 100.105 470.05C101.125 470.05 101.91 470.305 102.46 470.815C103.02 471.315 103.3 472.08 103.3 473.11V478H102.28ZM99.565 478.075C98.975 478.075 98.46 477.98 98.02 477.79C97.59 477.59 97.26 477.32 97.03 476.98C96.8 476.63 96.685 476.23 96.685 475.78C96.685 475.37 96.78 475 96.97 474.67C97.17 474.33 97.49 474.06 97.93 473.86C98.38 473.65 98.98 473.545 99.73 473.545H102.445V474.34H99.76C99 474.34 98.47 474.475 98.17 474.745C97.88 475.015 97.735 475.35 97.735 475.75C97.735 476.2 97.91 476.56 98.26 476.83C98.61 477.1 99.1 477.235 99.73 477.235C100.33 477.235 100.845 477.1 101.275 476.83C101.715 476.55 102.035 476.15 102.235 475.63L102.475 476.365C102.275 476.885 101.925 477.3 101.425 477.61C100.935 477.92 100.315 478.075 99.565 478.075ZM108.758 478.075C108.018 478.075 107.448 477.875 107.048 477.475C106.648 477.075 106.448 476.51 106.448 475.78V468.385H107.513V475.72C107.513 476.18 107.628 476.535 107.858 476.785C108.098 477.035 108.438 477.16 108.878 477.16C109.348 477.16 109.738 477.025 110.048 476.755L110.423 477.52C110.213 477.71 109.958 477.85 109.658 477.94C109.368 478.03 109.068 478.075 108.758 478.075ZM105.038 471.01V470.125H109.913V471.01H105.038ZM111.938 480.19L112.598 477.415L112.718 478.06C112.488 478.06 112.293 477.985 112.133 477.835C111.983 477.685 111.908 477.49 111.908 477.25C111.908 477.01 111.983 476.815 112.133 476.665C112.293 476.515 112.483 476.44 112.703 476.44C112.933 476.44 113.118 476.52 113.258 476.68C113.408 476.84 113.483 477.03 113.483 477.25C113.483 477.33 113.478 477.41 113.468 477.49C113.458 477.57 113.438 477.66 113.408 477.76C113.378 477.86 113.338 477.98 113.288 478.12L112.658 480.19H111.938ZM122.102 478V468.46H118.412V467.5H126.902V468.46H123.212V478H122.102ZM128.526 478V470.125H129.591V478H128.526ZM129.066 468.385C128.846 468.385 128.661 468.31 128.511 468.16C128.361 468.01 128.286 467.83 128.286 467.62C128.286 467.41 128.361 467.235 128.511 467.095C128.661 466.945 128.846 466.87 129.066 466.87C129.286 466.87 129.471 466.94 129.621 467.08C129.771 467.22 129.846 467.395 129.846 467.605C129.846 467.825 129.771 468.01 129.621 468.16C129.481 468.31 129.296 468.385 129.066 468.385ZM132.629 478V470.125H133.649V472.27L133.544 471.895C133.764 471.295 134.134 470.84 134.654 470.53C135.174 470.21 135.819 470.05 136.589 470.05V471.085C136.549 471.085 136.509 471.085 136.469 471.085C136.429 471.075 136.389 471.07 136.349 471.07C135.519 471.07 134.869 471.325 134.399 471.835C133.929 472.335 133.694 473.05 133.694 473.98V478H132.629ZM141.879 478.075C141.059 478.075 140.339 477.905 139.719 477.565C139.099 477.215 138.614 476.74 138.264 476.14C137.914 475.53 137.739 474.835 137.739 474.055C137.739 473.275 137.904 472.585 138.234 471.985C138.574 471.385 139.034 470.915 139.614 470.575C140.204 470.225 140.864 470.05 141.594 470.05C142.334 470.05 142.989 470.22 143.559 470.56C144.139 470.89 144.594 471.36 144.924 471.97C145.254 472.57 145.419 473.265 145.419 474.055C145.419 474.105 145.414 474.16 145.404 474.22C145.404 474.27 145.404 474.325 145.404 474.385H138.549V473.59H144.834L144.414 473.905C144.414 473.335 144.289 472.83 144.039 472.39C143.799 471.94 143.469 471.59 143.049 471.34C142.629 471.09 142.144 470.965 141.594 470.965C141.054 470.965 140.569 471.09 140.139 471.34C139.709 471.59 139.374 471.94 139.134 472.39C138.894 472.84 138.774 473.355 138.774 473.935V474.1C138.774 474.7 138.904 475.23 139.164 475.69C139.434 476.14 139.804 476.495 140.274 476.755C140.754 477.005 141.299 477.13 141.909 477.13C142.389 477.13 142.834 477.045 143.244 476.875C143.664 476.705 144.024 476.445 144.324 476.095L144.924 476.785C144.574 477.205 144.134 477.525 143.604 477.745C143.084 477.965 142.509 478.075 141.879 478.075Z" fill="#454E5D"/>
<path d="M1256.06 453.02L1256.98 453.94L1247.92 463H1247V462.08L1256.06 453.02ZM1259.66 447C1259.41 447 1259.15 447.1 1258.96 447.29L1257.13 449.12L1260.88 452.87L1262.71 451.04C1263.1 450.65 1263.1 450.02 1262.71 449.63L1260.37 447.29C1260.17 447.09 1259.92 447 1259.66 447ZM1256.06 450.19L1245 461.25V465H1248.75L1259.81 453.94L1256.06 450.19Z" fill="#1F2A3B"/>
<path d="M1298 453V463H1290V453H1298ZM1296.5 447H1291.5L1290.5 448H1287V450H1301V448H1297.5L1296.5 447ZM1300 451H1288V463C1288 464.1 1288.9 465 1290 465H1298C1299.1 465 1300 464.1 1300 463V451Z" fill="#1F2A3B"/>
</g>
<rect x="1161" y="47" width="185" height="52" rx="2" fill="#C8CACF" fill-opacity="0.2"/>
<path d="M1186.79 79V67.8H1188.94L1195.55 75.864H1194.51V67.8H1197.07V79H1194.94L1188.31 70.936H1189.35V79H1186.79ZM1203.73 79.128C1202.75 79.128 1201.89 78.936 1201.14 78.552C1200.4 78.168 1199.83 77.6453 1199.43 76.984C1199.02 76.312 1198.82 75.5493 1198.82 74.696C1198.82 73.832 1199.02 73.0693 1199.41 72.408C1199.82 71.736 1200.37 71.2133 1201.06 70.84C1201.75 70.456 1202.54 70.264 1203.41 70.264C1204.25 70.264 1205.01 70.4453 1205.68 70.808C1206.37 71.16 1206.91 71.672 1207.3 72.344C1207.69 73.0053 1207.89 73.8 1207.89 74.728C1207.89 74.824 1207.89 74.936 1207.88 75.064C1207.87 75.1813 1207.85 75.2933 1207.84 75.4H1200.85V73.944H1206.53L1205.57 74.376C1205.57 73.928 1205.48 73.5387 1205.3 73.208C1205.12 72.8773 1204.87 72.6213 1204.55 72.44C1204.23 72.248 1203.85 72.152 1203.43 72.152C1203 72.152 1202.62 72.248 1202.29 72.44C1201.97 72.6213 1201.72 72.8827 1201.54 73.224C1201.36 73.5547 1201.27 73.9493 1201.27 74.408V74.792C1201.27 75.2613 1201.37 75.6773 1201.57 76.04C1201.79 76.392 1202.08 76.664 1202.45 76.856C1202.84 77.0373 1203.28 77.128 1203.8 77.128C1204.25 77.128 1204.65 77.0587 1205 76.92C1205.35 76.7813 1205.67 76.5733 1205.96 76.296L1207.28 77.736C1206.89 78.184 1206.39 78.5307 1205.8 78.776C1205.2 79.0107 1204.51 79.128 1203.73 79.128ZM1211.29 79L1208.18 70.392H1210.53L1213.11 77.8H1211.99L1214.68 70.392H1216.79L1219.4 77.8H1218.28L1220.93 70.392H1223.14L1220.02 79H1217.61L1215.32 72.648H1216.05L1213.69 79H1211.29ZM1234.21 79.192C1233.35 79.192 1232.54 79.0533 1231.79 78.776C1231.06 78.488 1230.42 78.0827 1229.87 77.56C1229.33 77.0373 1228.9 76.424 1228.59 75.72C1228.29 75.016 1228.15 74.2427 1228.15 73.4C1228.15 72.5573 1228.29 71.784 1228.59 71.08C1228.9 70.376 1229.33 69.7627 1229.87 69.24C1230.43 68.7173 1231.07 68.3173 1231.81 68.04C1232.55 67.752 1233.35 67.608 1234.23 67.608C1235.2 67.608 1236.07 67.7787 1236.85 68.12C1237.64 68.4507 1238.3 68.9413 1238.83 69.592L1237.17 71.128C1236.79 70.6907 1236.36 70.3653 1235.89 70.152C1235.42 69.928 1234.91 69.816 1234.35 69.816C1233.83 69.816 1233.35 69.9013 1232.91 70.072C1232.48 70.2427 1232.1 70.488 1231.78 70.808C1231.46 71.128 1231.21 71.5067 1231.03 71.944C1230.85 72.3813 1230.77 72.8667 1230.77 73.4C1230.77 73.9333 1230.85 74.4187 1231.03 74.856C1231.21 75.2933 1231.46 75.672 1231.78 75.992C1232.1 76.312 1232.48 76.5573 1232.91 76.728C1233.35 76.8987 1233.83 76.984 1234.35 76.984C1234.91 76.984 1235.42 76.8773 1235.89 76.664C1236.36 76.44 1236.79 76.104 1237.17 75.656L1238.83 77.192C1238.3 77.8427 1237.64 78.3387 1236.85 78.68C1236.07 79.0213 1235.19 79.192 1234.21 79.192ZM1245.56 79V77.32L1245.4 76.952V73.944C1245.4 73.4107 1245.24 72.9947 1244.9 72.696C1244.58 72.3973 1244.09 72.248 1243.42 72.248C1242.96 72.248 1242.5 72.3227 1242.06 72.472C1241.62 72.6107 1241.25 72.8027 1240.94 73.048L1240.04 71.304C1240.51 70.9733 1241.08 70.7173 1241.74 70.536C1242.4 70.3547 1243.07 70.264 1243.75 70.264C1245.06 70.264 1246.08 70.5733 1246.81 71.192C1247.53 71.8107 1247.9 72.776 1247.9 74.088V79H1245.56ZM1242.94 79.128C1242.26 79.128 1241.69 79.016 1241.21 78.792C1240.73 78.5573 1240.36 78.2427 1240.1 77.848C1239.85 77.4533 1239.72 77.0107 1239.72 76.52C1239.72 76.008 1239.84 75.56 1240.09 75.176C1240.34 74.792 1240.74 74.4933 1241.29 74.28C1241.83 74.056 1242.54 73.944 1243.42 73.944H1245.7V75.4H1243.69C1243.1 75.4 1242.7 75.496 1242.47 75.688C1242.26 75.88 1242.15 76.12 1242.15 76.408C1242.15 76.728 1242.28 76.984 1242.52 77.176C1242.78 77.3573 1243.12 77.448 1243.56 77.448C1243.98 77.448 1244.35 77.352 1244.68 77.16C1245.01 76.9573 1245.25 76.664 1245.4 76.28L1245.78 77.432C1245.6 77.9867 1245.27 78.408 1244.79 78.696C1244.31 78.984 1243.69 79.128 1242.94 79.128ZM1250.08 79V67.128H1252.57V79H1250.08ZM1258.97 79.128C1258.04 79.128 1257.21 78.9413 1256.49 78.568C1255.76 78.184 1255.19 77.656 1254.78 76.984C1254.37 76.312 1254.17 75.5493 1254.17 74.696C1254.17 73.832 1254.37 73.0693 1254.78 72.408C1255.19 71.736 1255.76 71.2133 1256.49 70.84C1257.21 70.456 1258.04 70.264 1258.97 70.264C1259.87 70.264 1260.66 70.456 1261.34 70.84C1262.01 71.2133 1262.5 71.752 1262.82 72.456L1260.89 73.496C1260.66 73.0907 1260.38 72.792 1260.04 72.6C1259.71 72.408 1259.35 72.312 1258.95 72.312C1258.53 72.312 1258.14 72.408 1257.8 72.6C1257.46 72.792 1257.19 73.064 1256.98 73.416C1256.79 73.768 1256.7 74.1947 1256.7 74.696C1256.7 75.1973 1256.79 75.624 1256.98 75.976C1257.19 76.328 1257.46 76.6 1257.8 76.792C1258.14 76.984 1258.53 77.08 1258.95 77.08C1259.35 77.08 1259.71 76.9893 1260.04 76.808C1260.38 76.616 1260.66 76.312 1260.89 75.896L1262.82 76.952C1262.5 77.6453 1262.01 78.184 1261.34 78.568C1260.66 78.9413 1259.87 79.128 1258.97 79.128ZM1267.81 79.128C1267.1 79.128 1266.46 78.9893 1265.89 78.712C1265.34 78.4347 1264.91 78.0133 1264.6 77.448C1264.29 76.872 1264.13 76.1413 1264.13 75.256V70.392H1266.63V74.888C1266.63 75.6027 1266.78 76.1307 1267.08 76.472C1267.39 76.8027 1267.82 76.968 1268.37 76.968C1268.76 76.968 1269.1 76.888 1269.4 76.728C1269.7 76.5573 1269.93 76.3013 1270.1 75.96C1270.27 75.608 1270.36 75.1707 1270.36 74.648V70.392H1272.85V79H1270.49V76.632L1270.92 77.32C1270.63 77.9173 1270.2 78.3707 1269.64 78.68C1269.08 78.9787 1268.47 79.128 1267.81 79.128ZM1275.09 79V67.128H1277.58V79H1275.09ZM1285.1 79V77.32L1284.94 76.952V73.944C1284.94 73.4107 1284.77 72.9947 1284.44 72.696C1284.12 72.3973 1283.63 72.248 1282.95 72.248C1282.5 72.248 1282.04 72.3227 1281.59 72.472C1281.16 72.6107 1280.78 72.8027 1280.47 73.048L1279.58 71.304C1280.05 70.9733 1280.61 70.7173 1281.27 70.536C1281.94 70.3547 1282.61 70.264 1283.29 70.264C1284.6 70.264 1285.62 70.5733 1286.35 71.192C1287.07 71.8107 1287.43 72.776 1287.43 74.088V79H1285.1ZM1282.47 79.128C1281.8 79.128 1281.23 79.016 1280.75 78.792C1280.27 78.5573 1279.9 78.2427 1279.64 77.848C1279.39 77.4533 1279.26 77.0107 1279.26 76.52C1279.26 76.008 1279.38 75.56 1279.63 75.176C1279.88 74.792 1280.28 74.4933 1280.83 74.28C1281.37 74.056 1282.08 73.944 1282.95 73.944H1285.24V75.4H1283.23C1282.64 75.4 1282.23 75.496 1282.01 75.688C1281.8 75.88 1281.69 76.12 1281.69 76.408C1281.69 76.728 1281.81 76.984 1282.06 77.176C1282.31 77.3573 1282.66 77.448 1283.1 77.448C1283.51 77.448 1283.89 77.352 1284.22 77.16C1284.55 76.9573 1284.79 76.664 1284.94 76.28L1285.32 77.432C1285.14 77.9867 1284.81 78.408 1284.33 78.696C1283.85 78.984 1283.23 79.128 1282.47 79.128ZM1293.13 79.128C1292.12 79.128 1291.33 78.872 1290.77 78.36C1290.2 77.8373 1289.92 77.064 1289.92 76.04V68.488H1292.41V76.008C1292.41 76.3707 1292.51 76.6533 1292.7 76.856C1292.89 77.048 1293.15 77.144 1293.49 77.144C1293.88 77.144 1294.22 77.0373 1294.49 76.824L1295.17 78.584C1294.91 78.7653 1294.6 78.904 1294.24 79C1293.89 79.0853 1293.52 79.128 1293.13 79.128ZM1288.59 72.504V70.584H1294.56V72.504H1288.59ZM1296.49 79V70.392H1298.98V79H1296.49ZM1297.73 69.192C1297.28 69.192 1296.9 69.0587 1296.61 68.792C1296.33 68.5253 1296.18 68.1947 1296.18 67.8C1296.18 67.4053 1296.33 67.0747 1296.61 66.808C1296.9 66.5413 1297.28 66.408 1297.73 66.408C1298.19 66.408 1298.57 66.536 1298.85 66.792C1299.14 67.0373 1299.29 67.3573 1299.29 67.752C1299.29 68.168 1299.14 68.5147 1298.85 68.792C1298.58 69.0587 1298.2 69.192 1297.73 69.192ZM1305.31 79.128C1304.4 79.128 1303.58 78.936 1302.87 78.552C1302.16 78.168 1301.6 77.6453 1301.19 76.984C1300.78 76.312 1300.58 75.5493 1300.58 74.696C1300.58 73.832 1300.78 73.0693 1301.19 72.408C1301.6 71.736 1302.16 71.2133 1302.87 70.84C1303.58 70.456 1304.4 70.264 1305.31 70.264C1306.22 70.264 1307.03 70.456 1307.75 70.84C1308.46 71.2133 1309.02 71.7307 1309.43 72.392C1309.83 73.0533 1310.03 73.8213 1310.03 74.696C1310.03 75.5493 1309.83 76.312 1309.43 76.984C1309.02 77.6453 1308.46 78.168 1307.75 78.552C1307.03 78.936 1306.22 79.128 1305.31 79.128ZM1305.31 77.08C1305.73 77.08 1306.1 76.984 1306.43 76.792C1306.77 76.6 1307.03 76.328 1307.22 75.976C1307.41 75.6133 1307.51 75.1867 1307.51 74.696C1307.51 74.1947 1307.41 73.768 1307.22 73.416C1307.03 73.064 1306.77 72.792 1306.43 72.6C1306.1 72.408 1305.73 72.312 1305.31 72.312C1304.9 72.312 1304.53 72.408 1304.19 72.6C1303.86 72.792 1303.6 73.064 1303.39 73.416C1303.2 73.768 1303.11 74.1947 1303.11 74.696C1303.11 75.1867 1303.2 75.6133 1303.39 75.976C1303.6 76.328 1303.86 76.6 1304.19 76.792C1304.53 76.984 1304.9 77.08 1305.31 77.08ZM1316.86 70.264C1317.54 70.264 1318.15 70.4027 1318.68 70.68C1319.22 70.9467 1319.65 71.3627 1319.96 71.928C1320.27 72.4827 1320.42 73.1973 1320.42 74.072V79H1317.93V74.456C1317.93 73.7627 1317.77 73.2507 1317.46 72.92C1317.16 72.5893 1316.74 72.424 1316.18 72.424C1315.79 72.424 1315.43 72.5093 1315.11 72.68C1314.8 72.84 1314.56 73.0907 1314.38 73.432C1314.2 73.7733 1314.12 74.2107 1314.12 74.744V79H1311.62V70.392H1314.01V72.776L1313.56 72.056C1313.87 71.48 1314.31 71.0373 1314.89 70.728C1315.46 70.4187 1316.12 70.264 1316.86 70.264Z" fill="#454E5D"/>
<path d="M58.686 57.782H67.084V61.76H58.686V57.782ZM59.05 68H53.902V49.8H68.176V53.778H59.05V68ZM70.2197 68V53.908H75.1597V68H70.2197ZM72.6897 52.348C71.7883 52.348 71.0603 52.0967 70.5057 51.594C69.951 51.0913 69.6737 50.4673 69.6737 49.722C69.6737 48.9767 69.951 48.3527 70.5057 47.85C71.0603 47.3473 71.7883 47.096 72.6897 47.096C73.591 47.096 74.319 47.3387 74.8737 47.824C75.4283 48.292 75.7057 48.8987 75.7057 49.644C75.7057 50.424 75.4283 51.074 74.8737 51.594C74.3363 52.0967 73.6083 52.348 72.6897 52.348ZM78.2401 68V48.708H83.1801V68H78.2401ZM104.616 53.674C105.708 53.674 106.679 53.8993 107.528 54.35C108.395 54.7833 109.071 55.4593 109.556 56.378C110.059 57.2967 110.31 58.484 110.31 59.94V68H105.37V60.746C105.37 59.7407 105.18 59.0127 104.798 58.562C104.417 58.094 103.897 57.86 103.238 57.86C102.77 57.86 102.346 57.9727 101.964 58.198C101.583 58.4233 101.288 58.77 101.08 59.238C100.872 59.6887 100.768 60.278 100.768 61.006V68H95.8285V60.746C95.8285 59.7407 95.6378 59.0127 95.2565 58.562C94.8925 58.094 94.3725 57.86 93.6965 57.86C93.2111 57.86 92.7778 57.9727 92.3965 58.198C92.0325 58.4233 91.7378 58.77 91.5125 59.238C91.3045 59.6887 91.2005 60.278 91.2005 61.006V68H86.2605V53.908H90.9665V57.834L90.0305 56.716C90.5505 55.7107 91.2611 54.9567 92.1625 54.454C93.0638 53.934 94.0691 53.674 95.1785 53.674C96.4438 53.674 97.5531 54.0033 98.5065 54.662C99.4771 55.3033 100.127 56.3087 100.456 57.678L98.8445 57.34C99.3471 56.196 100.101 55.3033 101.106 54.662C102.129 54.0033 103.299 53.674 104.616 53.674ZM118.785 68L126.819 49.8H131.889L139.949 68H134.593L128.301 52.322H130.329L124.037 68H118.785ZM123.179 64.464L124.505 60.668H133.397L134.723 64.464H123.179ZM159.4 53.674C160.492 53.674 161.463 53.8993 162.312 54.35C163.179 54.7833 163.855 55.4593 164.34 56.378C164.843 57.2967 165.094 58.484 165.094 59.94V68H160.154V60.746C160.154 59.7407 159.964 59.0127 159.582 58.562C159.201 58.094 158.681 57.86 158.022 57.86C157.554 57.86 157.13 57.9727 156.748 58.198C156.367 58.4233 156.072 58.77 155.864 59.238C155.656 59.6887 155.552 60.278 155.552 61.006V68H150.612V60.746C150.612 59.7407 150.422 59.0127 150.04 58.562C149.676 58.094 149.156 57.86 148.48 57.86C147.995 57.86 147.562 57.9727 147.18 58.198C146.816 58.4233 146.522 58.77 146.296 59.238C146.088 59.6887 145.984 60.278 145.984 61.006V68H141.044V53.908H145.75V57.834L144.814 56.716C145.334 55.7107 146.045 54.9567 146.946 54.454C147.848 53.934 148.853 53.674 149.962 53.674C151.228 53.674 152.337 54.0033 153.29 54.662C154.261 55.3033 154.911 56.3087 155.24 57.678L153.628 57.34C154.131 56.196 154.885 55.3033 155.89 54.662C156.913 54.0033 158.083 53.674 159.4 53.674ZM175.332 68.234C173.789 68.234 172.42 67.922 171.224 67.298C170.028 66.674 169.083 65.816 168.39 64.724C167.714 63.6147 167.376 62.3493 167.376 60.928C167.376 59.5067 167.714 58.25 168.39 57.158C169.083 56.066 170.028 55.2167 171.224 54.61C172.42 53.986 173.789 53.674 175.332 53.674C176.875 53.674 178.244 53.986 179.44 54.61C180.653 55.2167 181.598 56.066 182.274 57.158C182.95 58.25 183.288 59.5067 183.288 60.928C183.288 62.3493 182.95 63.6147 182.274 64.724C181.598 65.816 180.653 66.674 179.44 67.298C178.244 67.922 176.875 68.234 175.332 68.234ZM175.332 64.308C175.904 64.308 176.407 64.178 176.84 63.918C177.291 63.658 177.646 63.2767 177.906 62.774C178.166 62.254 178.296 61.6387 178.296 60.928C178.296 60.2173 178.166 59.6193 177.906 59.134C177.646 58.6313 177.291 58.25 176.84 57.99C176.407 57.73 175.904 57.6 175.332 57.6C174.777 57.6 174.275 57.73 173.824 57.99C173.391 58.25 173.035 58.6313 172.758 59.134C172.498 59.6193 172.368 60.2173 172.368 60.928C172.368 61.6387 172.498 62.254 172.758 62.774C173.035 63.2767 173.391 63.658 173.824 63.918C174.275 64.178 174.777 64.308 175.332 64.308ZM185.446 68V53.908H190.152V58.016L189.45 56.846C189.866 55.7887 190.542 55 191.478 54.48C192.414 53.9427 193.55 53.674 194.884 53.674V58.12C194.659 58.0853 194.46 58.068 194.286 58.068C194.13 58.0507 193.957 58.042 193.766 58.042C192.761 58.042 191.946 58.3193 191.322 58.874C190.698 59.4113 190.386 60.2953 190.386 61.526V68H185.446ZM203.517 68.234C201.714 68.234 200.31 67.792 199.305 66.908C198.299 66.0067 197.797 64.6547 197.797 62.852V50.762H202.737V62.8C202.737 63.3027 202.875 63.7013 203.153 63.996C203.43 64.2733 203.785 64.412 204.219 64.412C204.808 64.412 205.311 64.2647 205.727 63.97L206.949 67.428C206.533 67.7053 206.021 67.9047 205.415 68.026C204.808 68.1647 204.175 68.234 203.517 68.234ZM195.743 58.12V54.428H205.961V58.12H195.743ZM208.723 68V53.908H213.663V68H208.723ZM211.193 52.348C210.292 52.348 209.564 52.0967 209.009 51.594C208.455 51.0913 208.177 50.4673 208.177 49.722C208.177 48.9767 208.455 48.3527 209.009 47.85C209.564 47.3473 210.292 47.096 211.193 47.096C212.095 47.096 212.823 47.3387 213.377 47.824C213.932 48.292 214.209 48.8987 214.209 49.644C214.209 50.424 213.932 51.074 213.377 51.594C212.84 52.0967 212.112 52.348 211.193 52.348ZM216.016 68V65.088L223.92 55.988L224.752 57.574H216.198V53.908H228.756V56.794L220.826 65.92L219.994 64.308H229.016V68H216.016ZM239.667 68V65.374L239.329 64.724V59.888C239.329 59.108 239.086 58.51 238.601 58.094C238.133 57.6607 237.379 57.444 236.339 57.444C235.663 57.444 234.978 57.5567 234.285 57.782C233.592 57.99 233.002 58.2847 232.517 58.666L230.853 55.312C231.65 54.792 232.604 54.3933 233.713 54.116C234.84 53.8213 235.958 53.674 237.067 53.674C239.355 53.674 241.123 54.2027 242.371 55.26C243.636 56.3 244.269 57.938 244.269 60.174V68H239.667ZM235.507 68.234C234.38 68.234 233.427 68.0433 232.647 67.662C231.867 67.2807 231.269 66.7607 230.853 66.102C230.454 65.4433 230.255 64.7067 230.255 63.892C230.255 63.0253 230.472 62.28 230.905 61.656C231.356 61.0147 232.04 60.5293 232.959 60.2C233.878 59.8533 235.065 59.68 236.521 59.68H239.849V62.254H237.197C236.4 62.254 235.836 62.384 235.507 62.644C235.195 62.904 235.039 63.2507 235.039 63.684C235.039 64.1173 235.204 64.464 235.533 64.724C235.862 64.984 236.313 65.114 236.885 65.114C237.422 65.114 237.908 64.984 238.341 64.724C238.792 64.4467 239.121 64.0307 239.329 63.476L240.005 65.296C239.745 66.2667 239.234 67.0033 238.471 67.506C237.726 67.9913 236.738 68.234 235.507 68.234ZM253.549 68.234C251.747 68.234 250.343 67.792 249.337 66.908C248.332 66.0067 247.829 64.6547 247.829 62.852V50.762H252.769V62.8C252.769 63.3027 252.908 63.7013 253.185 63.996C253.463 64.2733 253.818 64.412 254.251 64.412C254.841 64.412 255.343 64.2647 255.759 63.97L256.981 67.428C256.565 67.7053 256.054 67.9047 255.447 68.026C254.841 68.1647 254.208 68.234 253.549 68.234ZM245.775 58.12V54.428H255.993V58.12H245.775ZM258.756 68V53.908H263.696V68H258.756ZM261.226 52.348C260.325 52.348 259.597 52.0967 259.042 51.594C258.488 51.0913 258.21 50.4673 258.21 49.722C258.21 48.9767 258.488 48.3527 259.042 47.85C259.597 47.3473 260.325 47.096 261.226 47.096C262.128 47.096 262.856 47.3387 263.41 47.824C263.965 48.292 264.242 48.8987 264.242 49.644C264.242 50.424 263.965 51.074 263.41 51.594C262.873 52.0967 262.145 52.348 261.226 52.348ZM273.849 68.234C272.306 68.234 270.937 67.922 269.741 67.298C268.545 66.674 267.6 65.816 266.907 64.724C266.231 63.6147 265.893 62.3493 265.893 60.928C265.893 59.5067 266.231 58.25 266.907 57.158C267.6 56.066 268.545 55.2167 269.741 54.61C270.937 53.986 272.306 53.674 273.849 53.674C275.391 53.674 276.761 53.986 277.957 54.61C279.17 55.2167 280.115 56.066 280.791 57.158C281.467 58.25 281.805 59.5067 281.805 60.928C281.805 62.3493 281.467 63.6147 280.791 64.724C280.115 65.816 279.17 66.674 277.957 67.298C276.761 67.922 275.391 68.234 273.849 68.234ZM273.849 64.308C274.421 64.308 274.923 64.178 275.357 63.918C275.807 63.658 276.163 63.2767 276.423 62.774C276.683 62.254 276.813 61.6387 276.813 60.928C276.813 60.2173 276.683 59.6193 276.423 59.134C276.163 58.6313 275.807 58.25 275.357 57.99C274.923 57.73 274.421 57.6 273.849 57.6C273.294 57.6 272.791 57.73 272.341 57.99C271.907 58.25 271.552 58.6313 271.275 59.134C271.015 59.6193 270.885 60.2173 270.885 60.928C270.885 61.6387 271.015 62.254 271.275 62.774C271.552 63.2767 271.907 63.658 272.341 63.918C272.791 64.178 273.294 64.308 273.849 64.308ZM293.141 53.674C294.233 53.674 295.221 53.8993 296.105 54.35C296.989 54.7833 297.682 55.4593 298.185 56.378C298.705 57.2967 298.965 58.484 298.965 59.94V68H294.025V60.746C294.025 59.7407 293.817 59.0127 293.401 58.562C293.002 58.094 292.439 57.86 291.711 57.86C291.191 57.86 290.714 57.9813 290.281 58.224C289.848 58.4493 289.51 58.8047 289.267 59.29C289.024 59.7753 288.903 60.408 288.903 61.188V68H283.963V53.908H288.669V57.912L287.759 56.742C288.296 55.7193 289.033 54.9567 289.969 54.454C290.905 53.934 291.962 53.674 293.141 53.674Z" fill="#1F2A3B"/>
<defs>
<filter id="filter0_d_46_3282" x="51" y="148" width="1299" height="108" filterUnits="userSpaceOnUse" color-interpolation-filters="sRGB">
<feFlood flood-opacity="0" result="BackgroundImageFix"/>
<feColorMatrix in="SourceAlpha" type="matrix" values="0 0 0 0 0 0 0 0 0 0 0 0 0 0 0 0 0 0 127 0" result="hardAlpha"/>
<feOffset dy="4"/>
<feGaussianBlur stdDeviation="2"/>
<feComposite in2="hardAlpha" operator="out"/>
<feColorMatrix type="matrix" values="0 0 0 0 0 0 0 0 0 0 0 0 0 0 0 0 0 0 0.25 0"/>
<feBlend mode="normal" in2="BackgroundImageFix" result="effect1_dropShadow_46_3282"/>
<feBlend mode="normal" in="SourceGraphic" in2="effect1_dropShadow_46_3282" result="shape"/>
</filter>
<filter id="filter1_d_46_3282" x="51" y="277" width="1299" height="108" filterUnits="userSpaceOnUse" color-interpolation-filters="sRGB">
<feFlood flood-opacity="0" result="BackgroundImageFix"/>
<feColorMatrix in="SourceAlpha" type="matrix" values="0 0 0 0 0 0 0 0 0 0 0 0 0 0 0 0 0 0 127 0" result="hardAlpha"/>
<feOffset dy="4"/>
<feGaussianBlur stdDeviation="2"/>
<feComposite in2="hardAlpha" operator="out"/>
<feColorMatrix type="matrix" values="0 0 0 0 0 0 0 0 0 0 0 0 0 0 0 0 0 0 0.25 0"/>
<feBlend mode="normal" in2="BackgroundImageFix" result="effect1_dropShadow_46_3282"/>
<feBlend mode="normal" in="SourceGraphic" in2="effect1_dropShadow_46_3282" result="shape"/>
</filter>
<filter id="filter2_d_46_3282" x="51" y="406" width="1299" height="108" filterUnits="userSpaceOnUse" color-interpolation-filters="sRGB">
<feFlood flood-opacity="0" result="BackgroundImageFix"/>
<feColorMatrix in="SourceAlpha" type="matrix" values="0 0 0 0 0 0 0 0 0 0 0 0 0 0 0 0 0 0 127 0" result="hardAlpha"/>
<feOffset dy="4"/>
<feGaussianBlur stdDeviation="2"/>
<feComposite in2="hardAlpha" operator="out"/>
<feColorMatrix type="matrix" values="0 0 0 0 0 0 0 0 0 0 0 0 0 0 0 0 0 0 0.25 0"/>
<feBlend mode="normal" in2="BackgroundImageFix" result="effect1_dropShadow_46_3282"/>
<feBlend mode="normal" in="SourceGraphic" in2="effect1_dropShadow_46_3282" result="shape"/>
</filter>
</defs>
</svg>
