<svg xmlns="http://www.w3.org/2000/svg" width="64" height="24" viewBox="0 0 64 24">
  <path fill="#606F87" fill-rule="evenodd" d="M11.9886252,2 C17.4971676,2 21.9772505,6.48653768 21.9772505,12.001353 C21.9772505,17.5134623 17.4971676,22 11.9886252,22 C6.48143435,22 2,17.5134623 2,12.001353 C2,10.1978081 2.48652484,8.50926803 3.32307727,7.04667839 C2.9595351,6.68272223 2.73384163,6.17940739 2.73384163,5.62197267 C2.73384163,4.50710323 3.6366155,3.60465431 4.74886534,3.60465431 C5.21376685,3.60465431 5.63677317,3.76971993 5.97734056,4.03355432 C7.65179688,2.76309024 9.7303391,2 11.9886252,2 Z M14.1698783,14.0078474 L5.4624351,18.4578541 C7.12878267,20.1450413 9.4384242,21.1936139 11.9886252,21.1936139 C15.2753708,21.1936139 18.1553276,19.4496009 19.7784285,16.8450819 L19.7784285,16.8450819 L14.1698783,14.0078474 Z M31.2379805,13.5361927 C31.7015305,13.5361927 32.1245368,13.6160195 32.5069994,13.7783791 C32.889462,13.9407387 33.2124604,14.1761602 33.4773462,14.4819375 L33.4773462,14.4819375 L32.7975629,15.121905 C32.3880711,14.679475 31.8839773,14.4589365 31.2852815,14.4589365 C30.8974131,14.4589365 30.5500884,14.5428224 30.2433075,14.7133 C29.9351751,14.8837776 29.695967,15.119199 29.5229804,15.4209173 C29.3513453,15.7239886 29.264852,16.0662968 29.264852,16.449195 C29.264852,16.8320931 29.3513453,17.1744013 29.5229804,17.4774726 C29.695967,17.7805439 29.9351751,18.0146124 30.2433075,18.18509 C30.5500884,18.3555676 30.8974131,18.4408064 31.2852815,18.4408064 C31.8839773,18.4408064 32.3880711,18.2162089 32.7975629,17.7683669 L32.7975629,17.7683669 L33.4773462,18.4164524 C33.2124604,18.7235827 32.8881105,18.9590042 32.5029451,19.1200108 C32.1177796,19.2823705 31.6934218,19.3635503 31.2285203,19.3635503 C30.658205,19.3635503 30.1419481,19.2377216 29.681101,18.9860641 C29.2202538,18.7371127 28.8594146,18.3893925 28.5972318,17.9469625 C28.3364004,17.5045325 28.205309,17.0052767 28.205309,16.449195 C28.205309,15.8931132 28.3377518,15.3952104 28.6012861,14.9527804 C28.8661719,14.5103504 29.2283626,14.1626302 29.6892097,13.9109728 C30.1500569,13.6620214 30.6663138,13.5361927 31.2379805,13.5361927 Z M36.1693151,14.9120552 C36.6112419,14.9120552 37.007219,15.006765 37.3572466,15.1948316 C37.7086257,15.3828981 37.9816202,15.6453795 38.178933,15.9809227 C38.3748944,16.315113 38.4735508,16.6953051 38.4735508,17.1201461 C38.4735508,17.5476931 38.3748944,17.9292383 38.178933,18.2661345 C37.9816202,18.6030307 37.7086257,18.8668651 37.3572466,19.0549317 C37.007219,19.2443512 36.6112419,19.339061 36.1693151,19.339061 C35.7327943,19.339061 35.33952,19.2443512 34.988141,19.0549317 C34.6381134,18.8668651 34.3651189,18.6030307 34.167806,18.2661345 C33.9718446,17.9292383 33.8731882,17.5476931 33.8731882,17.1201461 C33.8731882,16.6953051 33.9718446,16.315113 34.167806,15.9809227 C34.3651189,15.6453795 34.6381134,15.3828981 34.988141,15.1948316 C35.33952,15.006765 35.7327943,14.9120552 36.1693151,14.9120552 Z M59.9784893,14.0052767 L59.9784893,14.9916114 L61.1353372,14.9916114 L61.1353372,15.8020566 L59.9784893,15.8020566 L59.9784893,17.8572588 C59.9784893,18.0683263 60.0298447,18.229333 60.1325555,18.3389257 C60.2352663,18.4498715 60.3825752,18.5053443 60.5771851,18.5053443 C60.8028786,18.5053443 60.9920827,18.4458125 61.143446,18.3267487 L61.143446,18.3267487 L61.4259007,19.0465431 C61.3083239,19.1453119 61.1637179,19.2170207 60.9934342,19.2657286 C60.8245019,19.3157895 60.644758,19.3387904 60.4555539,19.3387904 C59.9811922,19.3387904 59.6149471,19.2143147 59.3568187,18.9667163 C59.0973388,18.7177648 58.9689503,18.3578677 58.9689503,17.8816128 L58.9689503,17.8816128 L58.9689503,15.8020566 L58.2567319,15.8020566 L58.2567319,14.9916114 L58.9689503,14.9916114 L58.9689503,14.0052767 L59.9784893,14.0052767 Z M46.1292895,14.0052767 L46.1292895,14.9916114 L47.2861374,14.9916114 L47.2861374,15.8020566 L46.1292895,15.8020566 L46.1292895,17.8572588 C46.1292895,18.0683263 46.1806449,18.229333 46.2833557,18.3389257 C46.3860665,18.4498715 46.5333754,18.5053443 46.7279853,18.5053443 C46.9536788,18.5053443 47.1428829,18.4458125 47.2942462,18.3267487 L47.2942462,18.3267487 L47.5767009,19.0465431 C47.459124,19.1453119 47.314518,19.2170207 47.1442343,19.2657286 C46.9753021,19.3157895 46.7955582,19.3387904 46.6063541,19.3387904 C46.1319924,19.3387904 45.7657473,19.2143147 45.5076188,18.9667163 C45.2481389,18.7177648 45.1197504,18.3578677 45.1197504,17.8816128 L45.1197504,17.8816128 L45.1197504,15.8020566 L44.4075321,15.8020566 L44.4075321,14.9916114 L45.1197504,14.9916114 L45.1197504,14.0052767 L46.1292895,14.0052767 Z M50.1394705,14.911514 C50.5597739,14.911514 50.9368306,15.0035178 51.2679378,15.1902314 C51.599045,15.3769449 51.8585249,15.6380733 52.0436746,15.9763226 C52.2301758,16.3132188 52.3220749,16.7028819 52.3220749,17.1453119 C52.3220749,17.2156677 52.3180206,17.3144365 52.3072089,17.4443242 L52.3072089,17.4443242 L48.919104,17.4443242 C48.9785681,17.7622784 49.1339858,18.0152889 49.3840055,18.2020024 C49.6340252,18.387363 49.946212,18.4820728 50.3178629,18.4820728 C50.7922246,18.4820728 51.1827959,18.3237722 51.4895769,18.0112299 L51.4895769,18.0112299 L52.0315115,18.6349614 C51.838253,18.8676769 51.5922877,19.0422135 51.2963184,19.1612772 C50.9989977,19.280341 50.6651876,19.3385198 50.2935367,19.3385198 C49.8191749,19.3385198 49.4015744,19.24381 49.0407352,19.0557435 C48.6798959,18.8676769 48.4001442,18.6038425 48.2041828,18.2669463 C48.0068699,17.9286971 47.9082135,17.5471519 47.9082135,17.1209579 C47.9082135,16.7001759 48.004167,16.3213368 48.196074,15.9844405 C48.3866296,15.6475443 48.6528668,15.3837099 48.9920827,15.1942904 C49.3312986,15.0062238 49.7137612,14.911514 50.1394705,14.911514 Z M41.8930096,14.911514 C42.4376471,14.911514 42.874168,15.0711676 43.2025723,15.3891219 C43.5309765,15.7070762 43.6958544,16.1792721 43.6958544,16.8043566 L43.6958544,16.8043566 L43.6958544,19.281694 L42.6849639,19.281694 L42.6849639,16.9342444 C42.6849639,16.5581112 42.5971191,16.2726289 42.4187267,16.0805033 C42.2403343,15.8897308 41.9876116,15.793668 41.6592074,15.793668 C41.286205,15.793668 40.9929386,15.9059667 40.7767054,16.1292112 C40.5618236,16.3524557 40.4537069,16.6758219 40.4537069,17.096604 L40.4537069,17.096604 L40.4537069,19.281694 L39.4441679,19.281694 L39.4441679,14.9602219 L40.4050545,14.9602219 L40.4050545,15.5176566 C40.5726352,15.3187661 40.7821112,15.1672304 41.0361853,15.0644027 C41.2889079,14.9629279 41.575417,14.911514 41.8930096,14.911514 Z M55.7428851,14.911514 C56.2875227,14.911514 56.7240436,15.0711676 57.0524478,15.3891219 C57.3808521,15.7070762 57.54573,16.1792721 57.54573,16.8043566 L57.54573,16.8043566 L57.54573,19.281694 L56.5348395,19.281694 L56.5348395,16.9342444 C56.5348395,16.5581112 56.4469947,16.2726289 56.2686023,16.0805033 C56.0902098,15.8897308 55.8374872,15.793668 55.5090829,15.793668 C55.1360805,15.793668 54.8428142,15.9059667 54.6265809,16.1292112 C54.4116991,16.3524557 54.3035825,16.6758219 54.3035825,17.096604 L54.3035825,17.096604 L54.3035825,19.281694 L53.2940434,19.281694 L53.2940434,14.9602219 L54.25493,14.9602219 L54.25493,15.5176566 C54.4225108,15.3187661 54.6319868,15.1672304 54.8860608,15.0644027 C55.1387835,14.9629279 55.4252925,14.911514 55.7428851,14.911514 Z M36.1693151,15.7685022 C35.7963128,15.7685022 35.4908833,15.8929779 35.2516752,16.1419294 C35.0111157,16.3895278 34.8921874,16.7169531 34.8921874,17.1201461 C34.8921874,17.5260452 35.0111157,17.8521174 35.2516752,18.1010689 C35.4908833,18.3500203 35.7963128,18.47179 36.1693151,18.47179 C36.5409661,18.47179 36.847747,18.3500203 37.0910094,18.1010689 C37.3329204,17.8521174 37.4545516,17.5260452 37.4545516,17.1201461 C37.4545516,16.7169531 37.3329204,16.3895278 37.0910094,16.1419294 C36.847747,15.8929779 36.5409661,15.7685022 36.1693151,15.7685022 Z M3.77311275,16.0806386 C4.08529952,16.7097822 4.45965335,17.3023948 4.90158008,17.8381816 L4.90158008,17.8381816 L6.71253365,16.9127317 Z M50.1394705,15.7219591 C49.816472,15.7219591 49.5421261,15.8166689 49.3191355,16.0087945 C49.0947935,16.199567 48.9596477,16.4552835 48.9109952,16.7732377 L48.9109952,16.7732377 L51.3598369,16.7732377 C51.3179417,16.4606954 51.1854989,16.206332 50.9652112,16.0128535 C50.7435721,15.8180219 50.4678747,15.7219591 50.1394705,15.7219591 Z M11.9886252,2.80773914 C9.93035487,2.80773914 8.03425946,3.49641456 6.50170622,4.64646191 C6.66388116,4.93735624 6.76388905,5.26613449 6.76388905,5.62197267 C6.76388905,6.73548911 5.86111518,7.63929103 4.74886534,7.63929103 C4.48262814,7.63929103 4.22855405,7.58517115 3.9961033,7.49046137 C3.2419898,8.8245163 2.80682036,10.3615208 2.80682036,12.001353 C2.80682036,13.0986335 3.0108905,14.1485591 3.36497246,15.1267758 L3.36497246,15.1267758 L7.76937371,16.3728859 L20.8636492,9.68096333 C19.8324868,5.73291841 16.2511234,2.80773914 11.9886252,2.80773914 Z M21.0379872,10.4968205 L15.0591375,13.5532404 L20.1757571,16.1415235 C20.8068879,14.8954133 21.1717816,13.4910026 21.1717816,12.001353 C21.1717816,11.4885672 21.1190747,10.9879583 21.0379872,10.4968205 L21.0379872,10.4968205 Z M52.806978,6.57394128 C53.2286329,6.57394128 53.6043382,6.66729807 53.9354454,6.84859965 C54.267904,7.03260723 54.5273839,7.29102963 54.716588,7.62657286 C54.9044407,7.96211609 54.9990427,8.3477202 54.9990427,8.7833852 C54.9990427,9.22040319 54.9044407,9.6073603 54.716588,9.94425653 C54.5273839,10.2825058 54.267904,10.5436341 53.9354454,10.7262887 C53.6043382,10.9089433 53.2286329,11.0023001 52.806978,11.0023001 C52.2258511,11.0023001 51.765004,10.8074685 51.4257881,10.4191584 L51.4257881,10.4191584 L51.4257881,12.5149506 L50.4148976,12.5149506 L50.4148976,6.62264917 L51.3771356,6.62264917 L51.3771356,7.18955486 C51.5433649,6.98389934 51.750138,6.83101069 51.9947518,6.72682993 C52.2407172,6.62535516 52.5110088,6.57394128 52.806978,6.57394128 Z M57.8360231,6.57353538 C58.2563265,6.57353538 58.6320318,6.66689217 58.963139,6.85360574 C59.2955976,7.03896631 59.5537261,7.30144771 59.7402273,7.63969693 C59.925377,7.97659315 60.0186276,8.36625626 60.0186276,8.80868624 C60.0186276,8.87904208 60.0132218,8.97781085 60.0024101,9.10769855 L60.0024101,9.10769855 L56.6156566,9.10769855 C56.6751208,9.42565282 56.829187,9.67731024 57.0805582,9.86402381 C57.3305779,10.0507374 57.6414132,10.1440942 58.0144156,10.1440942 C58.4874258,10.1440942 58.8793486,9.98714653 59.1861295,9.67325125 L59.1861295,9.67325125 L59.7280641,10.2969828 C59.5334542,10.5296983 59.2888403,10.7042349 58.9915196,10.8232986 C58.6955503,10.9423623 58.3617402,11.0018942 57.9900893,11.0018942 C57.5157276,11.0018942 57.0981271,10.9071844 56.7359364,10.7177648 C56.3750971,10.5296983 56.0966968,10.2658639 55.899384,9.92896766 C55.7034226,9.59207144 55.6047661,9.21052632 55.6047661,8.7829793 C55.6047661,8.36355026 55.6993682,7.98335814 55.8912752,7.64646191 C56.0831822,7.30956569 56.348068,7.04573129 56.6872839,6.85631173 C57.0278513,6.66959816 57.4103139,6.57353538 57.8360231,6.57353538 Z M39.8635253,6.57434718 C40.2892345,6.57434718 40.6635883,6.65958598 40.9838839,6.83276958 C41.3041794,7.00595319 41.5460903,7.25490461 41.7082653,7.57827087 L41.7082653,7.57827087 L40.931177,8.03152483 C40.8068429,7.83263428 40.6527767,7.68109863 40.4662755,7.58232986 C40.2797743,7.48220809 40.0770556,7.43214721 39.8554165,7.43214721 C39.4783598,7.43214721 39.166173,7.55391693 38.9188562,7.80016236 C38.670188,8.04640779 38.5458538,8.37383304 38.5458538,8.7837911 C38.5458538,9.19374915 38.6688365,9.5225274 38.9148018,9.76741983 C39.1594157,10.0136653 39.4729539,10.135435 39.8554165,10.135435 C40.0770556,10.135435 40.2797743,10.0867271 40.4662755,9.98525233 C40.6527767,9.88648356 40.8068429,9.73630091 40.931177,9.53605737 L40.931177,9.53605737 L41.7082653,9.98931132 C41.5393331,10.3140306 41.2960706,10.562982 40.9757751,10.7388716 C40.6554796,10.9147612 40.2838287,11.001353 39.8635253,11.001353 C39.4161927,11.001353 39.0148097,10.9066432 38.6593763,10.7172237 C38.3039429,10.5305101 38.0255426,10.2653227 37.8268782,9.92842646 C37.6268625,9.59153024 37.5282061,9.20998512 37.5282061,8.7837911 C37.5282061,8.35759708 37.6268625,7.97740495 37.8268782,7.64321472 C38.0255426,7.30767149 38.3025914,7.04654309 38.6553219,6.85712353 C39.0080524,6.66905696 39.4107869,6.57434718 39.8635253,6.57434718 Z M37.0664129,6.57367068 L37.0664129,7.53700446 C36.9799196,7.5221215 36.901535,7.51400352 36.8312592,7.51400352 C36.437985,7.51400352 36.131204,7.62765526 35.9095649,7.85766473 C35.6892773,8.0876742 35.5784578,8.41780544 35.5784578,8.84805845 L35.5784578,8.84805845 L35.5784578,10.9452036 L34.5675673,10.9452036 L34.5675673,6.62237857 L35.5298053,6.62237857 L35.5298053,7.25422812 C35.8217202,6.80097416 36.3339227,6.57367068 37.0664129,6.57367068 L37.0664129,6.57367068 Z M31.3912358,5.27979976 L33.9454912,10.9447977 L32.8467559,10.9447977 L32.2804951,9.63374374 L29.4505423,9.63374374 L28.8923902,10.9447977 L27.8098724,10.9447977 L30.3560191,5.27979976 L31.3912358,5.27979976 Z M43.5501672,4.94006224 L43.5501672,7.12515221 C43.717748,6.94655662 43.9245211,6.81125693 44.169135,6.71519416 C44.4151003,6.62183737 44.6880948,6.57448248 44.9894699,6.57448248 C45.5341074,6.57448248 45.9706283,6.73413611 46.300384,7.05073738 C46.6287883,7.37004465 46.7923147,7.84224056 46.7923147,8.46732513 L46.7923147,8.46732513 L46.7923147,10.9446624 L45.7827757,10.9446624 L45.7827757,8.59721283 C45.7827757,8.22107969 45.6935794,7.93559735 45.515187,7.74347179 C45.338146,7.55134623 45.0840719,7.45663645 44.7556677,7.45663645 C44.3840168,7.45663645 44.0893989,7.56893519 43.8745171,7.79217968 C43.6582839,8.01542416 43.5501672,8.33743742 43.5501672,8.75957245 L43.5501672,8.75957245 L43.5501672,10.9446624 L42.5406282,10.9446624 L42.5406282,4.94006224 L43.5501672,4.94006224 Z M49.0895228,6.62305507 L49.0895228,10.9445271 L48.0786323,10.9445271 L48.0786323,6.62305507 L49.0895228,6.62305507 Z M62,4.93992694 L62,10.9445271 L60.9891095,10.9445271 L60.9891095,4.93992694 L62,4.93992694 Z M52.694807,7.43174131 C52.4515446,7.43174131 52.2339599,7.48721418 52.0393499,7.59815992 C51.8460915,7.70910567 51.6920253,7.86605331 51.5785028,8.07170884 C51.4649803,8.27736436 51.4095706,8.51413882 51.4095706,8.7833852 C51.4095706,9.05398458 51.4649803,9.29075903 51.5785028,9.49506156 C51.6920253,9.70207009 51.8460915,9.85901772 52.0393499,9.96996347 C52.2339599,10.0809092 52.4515446,10.1350291 52.694807,10.1350291 C53.0664579,10.1350291 53.3718874,10.0119064 53.6124469,9.76430794 C53.851655,9.51535651 53.9719347,9.18928426 53.9719347,8.7833852 C53.9719347,8.37883913 53.851655,8.05276688 53.6124469,7.80381545 C53.3718874,7.55621702 53.0664579,7.43174131 52.694807,7.43174131 Z M30.8655187,6.33107834 L29.8059757,8.80841564 L31.9331704,8.80841564 L30.8655187,6.33107834 Z M57.8360231,7.38398052 C57.5130247,7.38398052 57.2386787,7.4786903 57.0156882,7.67081586 C56.7913462,7.86294142 56.6548489,8.11730483 56.6075479,8.4352591 L56.6075479,8.4352591 L59.0563896,8.4352591 C59.0144944,8.12271682 58.8820515,7.8683534 58.6604124,7.67487485 C58.4401248,7.4800433 58.1644274,7.38398052 57.8360231,7.38398052 Z M48.5875914,4.6971993 C48.7700382,4.6971993 48.9241044,4.75267217 49.0484385,4.86226492 C49.1727726,4.97321066 49.2349397,5.11121634 49.2349397,5.27898796 C49.2349397,5.45758355 49.1741241,5.60641321 49.0524929,5.72818293 C48.9308617,5.84995265 48.775444,5.91083751 48.5875914,5.91083751 C48.4037931,5.91083751 48.2497269,5.85265864 48.1267442,5.73630091 C48.0024101,5.61994317 47.940243,5.4765255 47.940243,5.3033419 C47.940243,5.1315113 48.0024101,4.98538763 48.1267442,4.8703829 C48.2497269,4.75537816 48.4037931,4.6971993 48.5875914,4.6971993 Z"/>
</svg>
