<svg xmlns="http://www.w3.org/2000/svg" width="64" height="24" viewBox="0 0 64 24">
  <g fill="#606F87" fill-rule="evenodd" transform="translate(2 2)">
    <path d="M12.1698783,12.0078474 L17.7784285,14.8450819 C16.1553276,17.4496009 13.2753708,19.1936139 9.98862523,19.1936139 C7.4384242,19.1936139 5.12878267,18.1450413 3.4624351,16.4578541 L12.1698783,12.0078474 Z M1.77311275,14.0806386 L4.71253365,14.9127317 L2.90158008,15.8381816 C2.45965335,15.3023948 2.08529952,14.7097822 1.77311275,14.0806386 Z M9.98862523,0.807739142 C14.2511234,0.807739142 17.8324868,3.73291841 18.8636492,7.68096333 L5.76937371,14.3728859 L1.36497246,13.1267758 C1.0108905,12.1485591 0.806820357,11.0986335 0.806820357,10.001353 C0.806820357,8.36152077 1.2419898,6.8245163 1.9961033,5.49046137 C2.22855405,5.58517115 2.48262814,5.63929103 2.74886534,5.63929103 C3.86111518,5.63929103 4.76388905,4.73548911 4.76388905,3.62197267 C4.76388905,3.26613449 4.66388116,2.93735624 4.50170622,2.64646191 C6.03425946,1.49641456 7.93035487,0.807739142 9.98862523,0.807739142 Z M19.0379872,8.49682046 C19.1190747,8.98795833 19.1717816,9.48856718 19.1717816,10.001353 C19.1717816,11.4910026 18.8068879,12.8954133 18.1757571,14.1415235 L13.0591375,11.5532404 L19.0379872,8.49682046 Z" opacity=".3"/>
    <path d="M9.98862523,-2.30926389e-13 C15.4971676,-2.30926389e-13 19.9772505,4.48653768 19.9772505,10.001353 C19.9772505,15.5134623 15.4971676,20 9.98862523,20 C4.48143435,20 -2.94875235e-13,15.5134623 -2.94875235e-13,10.001353 C-2.94875235e-13,8.19780815 0.486524839,6.50926803 1.32307727,5.04667839 C0.959535098,4.68272223 0.733841632,4.17940739 0.733841632,3.62197267 C0.733841632,2.50710323 1.6366155,1.60465431 2.74886534,1.60465431 C3.21376685,1.60465431 3.63677317,1.76971993 3.97734056,2.03355432 C5.65179688,0.763090245 7.7303391,-2.30926389e-13 9.98862523,-2.30926389e-13 Z M12.1698783,12.0078474 L3.4624351,16.4578541 C5.12878267,18.1450413 7.4384242,19.1936139 9.98862523,19.1936139 C13.2753708,19.1936139 16.1553276,17.4496009 17.7784285,14.8450819 L17.7784285,14.8450819 L12.1698783,12.0078474 Z M29.2379805,11.5361927 C29.7015305,11.5361927 30.1245368,11.6160195 30.5069994,11.7783791 C30.889462,11.9407387 31.2124604,12.1761602 31.4773462,12.4819375 L31.4773462,12.4819375 L30.7975629,13.121905 C30.3880711,12.679475 29.8839773,12.4589365 29.2852815,12.4589365 C28.8974131,12.4589365 28.5500884,12.5428224 28.2433075,12.7133 C27.9351751,12.8837776 27.695967,13.119199 27.5229804,13.4209173 C27.3513453,13.7239886 27.264852,14.0662968 27.264852,14.449195 C27.264852,14.8320931 27.3513453,15.1744013 27.5229804,15.4774726 C27.695967,15.7805439 27.9351751,16.0146124 28.2433075,16.18509 C28.5500884,16.3555676 28.8974131,16.4408064 29.2852815,16.4408064 C29.8839773,16.4408064 30.3880711,16.2162089 30.7975629,15.7683669 L30.7975629,15.7683669 L31.4773462,16.4164524 C31.2124604,16.7235827 30.8881105,16.9590042 30.5029451,17.1200108 C30.1177796,17.2823705 29.6934218,17.3635503 29.2285203,17.3635503 C28.658205,17.3635503 28.1419481,17.2377216 27.681101,16.9860641 C27.2202538,16.7371127 26.8594146,16.3893925 26.5972318,15.9469625 C26.3364004,15.5045325 26.205309,15.0052767 26.205309,14.449195 C26.205309,13.8931132 26.3377518,13.3952104 26.6012861,12.9527804 C26.8661719,12.5103504 27.2283626,12.1626302 27.6892097,11.9109728 C28.1500569,11.6620214 28.6663138,11.5361927 29.2379805,11.5361927 Z M34.1693151,12.9120552 C34.6112419,12.9120552 35.007219,13.006765 35.3572466,13.1948316 C35.7086257,13.3828981 35.9816202,13.6453795 36.178933,13.9809227 C36.3748944,14.315113 36.4735508,14.6953051 36.4735508,15.1201461 C36.4735508,15.5476931 36.3748944,15.9292383 36.178933,16.2661345 C35.9816202,16.6030307 35.7086257,16.8668651 35.3572466,17.0549317 C35.007219,17.2443512 34.6112419,17.339061 34.1693151,17.339061 C33.7327943,17.339061 33.33952,17.2443512 32.988141,17.0549317 C32.6381134,16.8668651 32.3651189,16.6030307 32.167806,16.2661345 C31.9718446,15.9292383 31.8731882,15.5476931 31.8731882,15.1201461 C31.8731882,14.6953051 31.9718446,14.315113 32.167806,13.9809227 C32.3651189,13.6453795 32.6381134,13.3828981 32.988141,13.1948316 C33.33952,13.006765 33.7327943,12.9120552 34.1693151,12.9120552 Z M57.9784893,12.0052767 L57.9784893,12.9916114 L59.1353372,12.9916114 L59.1353372,13.8020566 L57.9784893,13.8020566 L57.9784893,15.8572588 C57.9784893,16.0683263 58.0298447,16.229333 58.1325555,16.3389257 C58.2352663,16.4498715 58.3825752,16.5053443 58.5771851,16.5053443 C58.8028786,16.5053443 58.9920827,16.4458125 59.143446,16.3267487 L59.143446,16.3267487 L59.4259007,17.0465431 C59.3083239,17.1453119 59.1637179,17.2170207 58.9934342,17.2657286 C58.8245019,17.3157895 58.644758,17.3387904 58.4555539,17.3387904 C57.9811922,17.3387904 57.6149471,17.2143147 57.3568187,16.9667163 C57.0973388,16.7177648 56.9689503,16.3578677 56.9689503,15.8816128 L56.9689503,15.8816128 L56.9689503,13.8020566 L56.2567319,13.8020566 L56.2567319,12.9916114 L56.9689503,12.9916114 L56.9689503,12.0052767 L57.9784893,12.0052767 Z M44.1292895,12.0052767 L44.1292895,12.9916114 L45.2861374,12.9916114 L45.2861374,13.8020566 L44.1292895,13.8020566 L44.1292895,15.8572588 C44.1292895,16.0683263 44.1806449,16.229333 44.2833557,16.3389257 C44.3860665,16.4498715 44.5333754,16.5053443 44.7279853,16.5053443 C44.9536788,16.5053443 45.1428829,16.4458125 45.2942462,16.3267487 L45.2942462,16.3267487 L45.5767009,17.0465431 C45.459124,17.1453119 45.314518,17.2170207 45.1442343,17.2657286 C44.9753021,17.3157895 44.7955582,17.3387904 44.6063541,17.3387904 C44.1319924,17.3387904 43.7657473,17.2143147 43.5076188,16.9667163 C43.2481389,16.7177648 43.1197504,16.3578677 43.1197504,15.8816128 L43.1197504,15.8816128 L43.1197504,13.8020566 L42.4075321,13.8020566 L42.4075321,12.9916114 L43.1197504,12.9916114 L43.1197504,12.0052767 L44.1292895,12.0052767 Z M48.1394705,12.911514 C48.5597739,12.911514 48.9368306,13.0035178 49.2679378,13.1902314 C49.599045,13.3769449 49.8585249,13.6380733 50.0436746,13.9763226 C50.2301758,14.3132188 50.3220749,14.7028819 50.3220749,15.1453119 C50.3220749,15.2156677 50.3180206,15.3144365 50.3072089,15.4443242 L50.3072089,15.4443242 L46.919104,15.4443242 C46.9785681,15.7622784 47.1339858,16.0152889 47.3840055,16.2020024 C47.6340252,16.387363 47.946212,16.4820728 48.3178629,16.4820728 C48.7922246,16.4820728 49.1827959,16.3237722 49.4895769,16.0112299 L49.4895769,16.0112299 L50.0315115,16.6349614 C49.838253,16.8676769 49.5922877,17.0422135 49.2963184,17.1612772 C48.9989977,17.280341 48.6651876,17.3385198 48.2935367,17.3385198 C47.8191749,17.3385198 47.4015744,17.24381 47.0407352,17.0557435 C46.6798959,16.8676769 46.4001442,16.6038425 46.2041828,16.2669463 C46.0068699,15.9286971 45.9082135,15.5471519 45.9082135,15.1209579 C45.9082135,14.7001759 46.004167,14.3213368 46.196074,13.9844405 C46.3866296,13.6475443 46.6528668,13.3837099 46.9920827,13.1942904 C47.3312986,13.0062238 47.7137612,12.911514 48.1394705,12.911514 Z M39.8930096,12.911514 C40.4376471,12.911514 40.874168,13.0711676 41.2025723,13.3891219 C41.5309765,13.7070762 41.6958544,14.1792721 41.6958544,14.8043566 L41.6958544,14.8043566 L41.6958544,17.281694 L40.6849639,17.281694 L40.6849639,14.9342444 C40.6849639,14.5581112 40.5971191,14.2726289 40.4187267,14.0805033 C40.2403343,13.8897308 39.9876116,13.793668 39.6592074,13.793668 C39.286205,13.793668 38.9929386,13.9059667 38.7767054,14.1292112 C38.5618236,14.3524557 38.4537069,14.6758219 38.4537069,15.096604 L38.4537069,15.096604 L38.4537069,17.281694 L37.4441679,17.281694 L37.4441679,12.9602219 L38.4050545,12.9602219 L38.4050545,13.5176566 C38.5726352,13.3187661 38.7821112,13.1672304 39.0361853,13.0644027 C39.2889079,12.9629279 39.575417,12.911514 39.8930096,12.911514 Z M53.7428851,12.911514 C54.2875227,12.911514 54.7240436,13.0711676 55.0524478,13.3891219 C55.3808521,13.7070762 55.54573,14.1792721 55.54573,14.8043566 L55.54573,14.8043566 L55.54573,17.281694 L54.5348395,17.281694 L54.5348395,14.9342444 C54.5348395,14.5581112 54.4469947,14.2726289 54.2686023,14.0805033 C54.0902098,13.8897308 53.8374872,13.793668 53.5090829,13.793668 C53.1360805,13.793668 52.8428142,13.9059667 52.6265809,14.1292112 C52.4116991,14.3524557 52.3035825,14.6758219 52.3035825,15.096604 L52.3035825,15.096604 L52.3035825,17.281694 L51.2940434,17.281694 L51.2940434,12.9602219 L52.25493,12.9602219 L52.25493,13.5176566 C52.4225108,13.3187661 52.6319868,13.1672304 52.8860608,13.0644027 C53.1387835,12.9629279 53.4252925,12.911514 53.7428851,12.911514 Z M34.1693151,13.7685022 C33.7963128,13.7685022 33.4908833,13.8929779 33.2516752,14.1419294 C33.0111157,14.3895278 32.8921874,14.7169531 32.8921874,15.1201461 C32.8921874,15.5260452 33.0111157,15.8521174 33.2516752,16.1010689 C33.4908833,16.3500203 33.7963128,16.47179 34.1693151,16.47179 C34.5409661,16.47179 34.847747,16.3500203 35.0910094,16.1010689 C35.3329204,15.8521174 35.4545516,15.5260452 35.4545516,15.1201461 C35.4545516,14.7169531 35.3329204,14.3895278 35.0910094,14.1419294 C34.847747,13.8929779 34.5409661,13.7685022 34.1693151,13.7685022 Z M1.77311275,14.0806386 C2.08529952,14.7097822 2.45965335,15.3023948 2.90158008,15.8381816 L2.90158008,15.8381816 L4.71253365,14.9127317 Z M48.1394705,13.7219591 C47.816472,13.7219591 47.5421261,13.8166689 47.3191355,14.0087945 C47.0947935,14.199567 46.9596477,14.4552835 46.9109952,14.7732377 L46.9109952,14.7732377 L49.3598369,14.7732377 C49.3179417,14.4606954 49.1854989,14.206332 48.9652112,14.0128535 C48.7435721,13.8180219 48.4678747,13.7219591 48.1394705,13.7219591 Z M9.98862523,0.807739142 C7.93035487,0.807739142 6.03425946,1.49641456 4.50170622,2.64646191 C4.66388116,2.93735624 4.76388905,3.26613449 4.76388905,3.62197267 C4.76388905,4.73548911 3.86111518,5.63929103 2.74886534,5.63929103 C2.48262814,5.63929103 2.22855405,5.58517115 1.9961033,5.49046137 C1.2419898,6.8245163 0.806820357,8.36152077 0.806820357,10.001353 C0.806820357,11.0986335 1.0108905,12.1485591 1.36497246,13.1267758 L1.36497246,13.1267758 L5.76937371,14.3728859 L18.8636492,7.68096333 C17.8324868,3.73291841 14.2511234,0.807739142 9.98862523,0.807739142 Z M19.0379872,8.49682046 L13.0591375,11.5532404 L18.1757571,14.1415235 C18.8068879,12.8954133 19.1717816,11.4910026 19.1717816,10.001353 C19.1717816,9.48856718 19.1190747,8.98795833 19.0379872,8.49682046 L19.0379872,8.49682046 Z M50.806978,4.57394128 C51.2286329,4.57394128 51.6043382,4.66729807 51.9354454,4.84859965 C52.267904,5.03260723 52.5273839,5.29102963 52.716588,5.62657286 C52.9044407,5.96211609 52.9990427,6.3477202 52.9990427,6.7833852 C52.9990427,7.22040319 52.9044407,7.6073603 52.716588,7.94425653 C52.5273839,8.28250575 52.267904,8.54363415 51.9354454,8.72628873 C51.6043382,8.90894331 51.2286329,9.00230009 50.806978,9.00230009 C50.2258511,9.00230009 49.765004,8.80746854 49.4257881,8.41915844 L49.4257881,8.41915844 L49.4257881,10.5149506 L48.4148976,10.5149506 L48.4148976,4.62264917 L49.3771356,4.62264917 L49.3771356,5.18955486 C49.5433649,4.98389934 49.750138,4.83101069 49.9947518,4.72682993 C50.2407172,4.62535516 50.5110088,4.57394128 50.806978,4.57394128 Z M55.8360231,4.57353538 C56.2563265,4.57353538 56.6320318,4.66689217 56.963139,4.85360574 C57.2955976,5.03896631 57.5537261,5.30144771 57.7402273,5.63969693 C57.925377,5.97659315 58.0186276,6.36625626 58.0186276,6.80868624 C58.0186276,6.87904208 58.0132218,6.97781085 58.0024101,7.10769855 L58.0024101,7.10769855 L54.6156566,7.10769855 C54.6751208,7.42565282 54.829187,7.67731024 55.0805582,7.86402381 C55.3305779,8.05073738 55.6414132,8.14409417 56.0144156,8.14409417 C56.4874258,8.14409417 56.8793486,7.98714653 57.1861295,7.67325125 L57.1861295,7.67325125 L57.7280641,8.29698282 C57.5334542,8.52969828 57.2888403,8.70423488 56.9915196,8.82329861 C56.6955503,8.94236233 56.3617402,9.0018942 55.9900893,9.0018942 C55.5157276,9.0018942 55.0981271,8.90718441 54.7359364,8.71776485 C54.3750971,8.52969828 54.0966968,8.26586389 53.899384,7.92896766 C53.7034226,7.59207144 53.6047661,7.21052632 53.6047661,6.7829793 C53.6047661,6.36355026 53.6993682,5.98335814 53.8912752,5.64646191 C54.0831822,5.30956569 54.348068,5.04573129 54.6872839,4.85631173 C55.0278513,4.66959816 55.4103139,4.57353538 55.8360231,4.57353538 Z M37.8635253,4.57434718 C38.2892345,4.57434718 38.6635883,4.65958598 38.9838839,4.83276958 C39.3041794,5.00595319 39.5460903,5.25490461 39.7082653,5.57827087 L39.7082653,5.57827087 L38.931177,6.03152483 C38.8068429,5.83263428 38.6527767,5.68109863 38.4662755,5.58232986 C38.2797743,5.48220809 38.0770556,5.43214721 37.8554165,5.43214721 C37.4783598,5.43214721 37.166173,5.55391693 36.9188562,5.80016236 C36.670188,6.04640779 36.5458538,6.37383304 36.5458538,6.7837911 C36.5458538,7.19374915 36.6688365,7.5225274 36.9148018,7.76741983 C37.1594157,8.01366527 37.4729539,8.13543499 37.8554165,8.13543499 C38.0770556,8.13543499 38.2797743,8.0867271 38.4662755,7.98525233 C38.6527767,7.88648356 38.8068429,7.73630091 38.931177,7.53605737 L38.931177,7.53605737 L39.7082653,7.98931132 C39.5393331,8.31403058 39.2960706,8.56298201 38.9757751,8.7388716 C38.6554796,8.9147612 38.2838287,9.001353 37.8635253,9.001353 C37.4161927,9.001353 37.0148097,8.90664321 36.6593763,8.71722365 C36.3039429,8.53051008 36.0255426,8.26532269 35.8268782,7.92842646 C35.6268625,7.59153024 35.5282061,7.20998512 35.5282061,6.7837911 C35.5282061,6.35759708 35.6268625,5.97740495 35.8268782,5.64321472 C36.0255426,5.30767149 36.3025914,5.04654309 36.6553219,4.85712353 C37.0080524,4.66905696 37.4107869,4.57434718 37.8635253,4.57434718 Z M35.0664129,4.57367068 L35.0664129,5.53700446 C34.9799196,5.5221215 34.901535,5.51400352 34.8312592,5.51400352 C34.437985,5.51400352 34.131204,5.62765526 33.9095649,5.85766473 C33.6892773,6.0876742 33.5784578,6.41780544 33.5784578,6.84805845 L33.5784578,6.84805845 L33.5784578,8.94520363 L32.5675673,8.94520363 L32.5675673,4.62237857 L33.5298053,4.62237857 L33.5298053,5.25422812 C33.8217202,4.80097416 34.3339227,4.57367068 35.0664129,4.57367068 L35.0664129,4.57367068 Z M29.3912358,3.27979976 L31.9454912,8.94479773 L30.8467559,8.94479773 L30.2804951,7.63374374 L27.4505423,7.63374374 L26.8923902,8.94479773 L25.8098724,8.94479773 L28.3560191,3.27979976 L29.3912358,3.27979976 Z M41.5501672,2.94006224 L41.5501672,5.12515221 C41.717748,4.94655662 41.9245211,4.81125693 42.169135,4.71519416 C42.4151003,4.62183737 42.6880948,4.57448248 42.9894699,4.57448248 C43.5341074,4.57448248 43.9706283,4.73413611 44.300384,5.05073738 C44.6287883,5.37004465 44.7923147,5.84224056 44.7923147,6.46732513 L44.7923147,6.46732513 L44.7923147,8.94466243 L43.7827757,8.94466243 L43.7827757,6.59721283 C43.7827757,6.22107969 43.6935794,5.93559735 43.515187,5.74347179 C43.338146,5.55134623 43.0840719,5.45663645 42.7556677,5.45663645 C42.3840168,5.45663645 42.0893989,5.56893519 41.8745171,5.79217968 C41.6582839,6.01542416 41.5501672,6.33743742 41.5501672,6.75957245 L41.5501672,6.75957245 L41.5501672,8.94466243 L40.5406282,8.94466243 L40.5406282,2.94006224 L41.5501672,2.94006224 Z M47.0895228,4.62305507 L47.0895228,8.94452713 L46.0786323,8.94452713 L46.0786323,4.62305507 L47.0895228,4.62305507 Z M60,2.93992694 L60,8.94452713 L58.9891095,8.94452713 L58.9891095,2.93992694 L60,2.93992694 Z M50.694807,5.43174131 C50.4515446,5.43174131 50.2339599,5.48721418 50.0393499,5.59815992 C49.8460915,5.70910567 49.6920253,5.86605331 49.5785028,6.07170884 C49.4649803,6.27736436 49.4095706,6.51413882 49.4095706,6.7833852 C49.4095706,7.05398458 49.4649803,7.29075903 49.5785028,7.49506156 C49.6920253,7.70207009 49.8460915,7.85901772 50.0393499,7.96996347 C50.2339599,8.08090921 50.4515446,8.13502909 50.694807,8.13502909 C51.0664579,8.13502909 51.3718874,8.01190637 51.6124469,7.76430794 C51.851655,7.51535651 51.9719347,7.18928426 51.9719347,6.7833852 C51.9719347,6.37883913 51.851655,6.05276688 51.6124469,5.80381545 C51.3718874,5.55621702 51.0664579,5.43174131 50.694807,5.43174131 Z M28.8655187,4.33107834 L27.8059757,6.80841564 L29.9331704,6.80841564 L28.8655187,4.33107834 Z M55.8360231,5.38398052 C55.5130247,5.38398052 55.2386787,5.4786903 55.0156882,5.67081586 C54.7913462,5.86294142 54.6548489,6.11730483 54.6075479,6.4352591 L54.6075479,6.4352591 L57.0563896,6.4352591 C57.0144944,6.12271682 56.8820515,5.8683534 56.6604124,5.67487485 C56.4401248,5.4800433 56.1644274,5.38398052 55.8360231,5.38398052 Z M46.5875914,2.6971993 C46.7700382,2.6971993 46.9241044,2.75267217 47.0484385,2.86226492 C47.1727726,2.97321066 47.2349397,3.11121634 47.2349397,3.27898796 C47.2349397,3.45758355 47.1741241,3.60641321 47.0524929,3.72818293 C46.9308617,3.84995265 46.775444,3.91083751 46.5875914,3.91083751 C46.4037931,3.91083751 46.2497269,3.85265864 46.1267442,3.73630091 C46.0024101,3.61994317 45.940243,3.4765255 45.940243,3.3033419 C45.940243,3.1315113 46.0024101,2.98538763 46.1267442,2.8703829 C46.2497269,2.75537816 46.4037931,2.6971993 46.5875914,2.6971993 Z"/>
  </g>
</svg>
