<svg xmlns="http://www.w3.org/2000/svg" width="76" height="24" viewBox="0 0 76 24">
  <g fill="#606F87" fill-rule="evenodd" transform="translate(2 2)">
    <path d="M19.084739,8.12618639 C18.675104,7.28728797 18.0843224,6.67256814 17.3291199,6.29931503 L17.3288364,6.29931503 C16.7275659,6.00258305 16.0426676,5.85605924 15.288032,5.85974359 C15.3399096,5.67269191 15.3821488,5.48450659 15.4025597,5.29433739 C15.4073789,5.24984176 15.4090798,5.20534614 15.4119147,5.16085051 C15.5596101,4.81763903 15.6596801,4.4684759 15.697667,4.11421137 C15.7719399,3.41985288 15.6446554,2.7308792 15.3197823,2.06627893 C14.768405,0.936600181 13.8272367,0.260096622 12.5234918,0.0543397797 C11.2421422,-0.146599065 9.64754223,0.210216176 7.79100268,1.11684998 L0.42777801,4.71164308 L4.1033843e-13,5.95667037 L6.8600398,20 L14.7496951,16.1481525 C16.6581123,15.2162951 17.9731965,14.1509508 18.6580949,12.981311 C18.9789993,12.4340431 19.1547597,11.8762891 19.1992667,11.3128667 C19.6480226,10.2747299 19.6120201,9.20541787 19.084739,8.12618639" opacity=".3"/>
    <path d="M7.79100268,1.11684998 C9.64754223,0.210216176 11.2421422,-0.146599065 12.5234918,0.0543397797 C13.8272367,0.260096622 14.768405,0.936600181 15.3197823,2.06627893 C15.6446554,2.7308792 15.7719399,3.41985288 15.697667,4.11421137 C15.6596801,4.4684759 15.5596101,4.81763903 15.4119147,5.16085051 C15.4090798,5.20534614 15.4073789,5.24984176 15.4025597,5.29433739 C15.3821488,5.48450659 15.3399096,5.67269191 15.288032,5.85974359 C16.0426676,5.85605924 16.7275659,6.00258305 17.3288364,6.29931503 L17.3288364,6.29931503 C18.0843224,6.67256814 18.675104,7.28728797 19.084739,8.12618639 C19.6120201,9.20541787 19.6480226,10.2747299 19.1992667,11.3128667 C19.1547597,11.8762891 18.9789993,12.4340431 18.6580949,12.981311 C17.9731965,14.1509508 16.6581123,15.2162951 14.7496951,16.1481525 L14.7496951,16.1481525 L6.8600398,20 L-1.42108547e-14,5.95667037 L0.42777801,4.71164308 Z M12.4775673,0.345970346 C11.2554659,0.152967027 9.72124818,0.502696977 7.92112203,1.38183985 L7.92112203,1.38183985 L0.69000111,4.9120151 L0.968949793,5.48365636 L1.03386773,5.616293 L1.09850218,5.74836282 L2.567802,8.75649385 L8.7721423,5.93229697 C8.74095901,5.82970196 8.7194142,5.72313918 8.7194142,5.61034136 C8.7194142,4.99392106 9.21948074,4.49426636 9.83577589,4.49426636 C10.4523545,4.49426636 10.9524211,4.99392106 10.9524211,5.61034136 C10.9524211,6.22676165 10.4523545,6.72641635 9.83577589,6.72641635 C9.43719678,6.72641635 9.08992835,6.51612492 8.8923397,6.20182143 L8.8923397,6.20182143 L2.69735438,9.02148372 L5.37061259,14.4947291 L12.7185291,10.8574243 C12.6805422,10.7449098 12.6550286,10.6264438 12.6550286,10.5008924 C12.6550286,9.88447213 13.1548116,9.38481743 13.7713903,9.38481743 C14.3882524,9.38481743 14.8880355,9.88447213 14.8880355,10.5008924 C14.8880355,11.1173127 14.3882524,11.6169674 13.7713903,11.6169674 C13.3858514,11.6169674 13.0456701,11.4214134 12.8452466,11.1238312 L12.8452466,11.1238312 L5.49988149,14.759719 L7.29065265,18.4250816 L14.91525,14.7030367 C16.7703721,13.7972531 18.0435007,12.7707362 18.6983497,11.6518271 C18.7805602,11.5118217 18.8528487,11.3718164 18.9157823,11.231811 C18.9719122,11.1065431 19.0178367,10.9812751 19.058375,10.8557238 C19.1011811,10.7233706 19.1343488,10.5907339 19.1601459,10.4578139 C19.2990532,9.7373815 19.1879273,9.00901361 18.8196811,8.25598891 C18.4389615,7.47689035 17.8935374,6.90751638 17.1981501,6.56373808 C16.6141722,6.27579186 15.9408966,6.14173816 15.1958996,6.1573258 C15.1426045,6.15845945 15.0898764,6.15930968 15.0360143,6.16186039 C14.9824358,6.16441109 14.9274398,6.16894568 14.8730108,6.17319685 C14.8299212,6.17659779 14.7873985,6.17801485 14.7440254,6.18226602 L14.7440254,6.18226602 L14.6119216,5.94590073 C14.8231175,5.67014121 14.9915073,5.38786323 15.1207762,5.10133407 C15.1783235,4.97323201 15.2273663,4.84427972 15.2684716,4.71476061 C15.3109942,4.58070691 15.3464298,4.44608638 15.3710929,4.31089904 C15.3847002,4.23494472 15.3960396,4.1589904 15.4042606,4.08275268 C15.4725804,3.44450969 15.3549343,2.80995105 15.0547243,2.19608146 C14.5404835,1.14320726 13.6976843,0.538123431 12.4775673,0.345970346 Z M65.8886993,8.06598976 C66.2799078,8.06598976 66.6353973,8.14704548 66.9543173,8.30887352 C67.2729538,8.47070156 67.5258219,8.70508298 67.7120712,9.01201778 C67.8980369,9.31895257 67.9913033,9.68228628 67.9913033,10.1023023 C67.9913033,10.1125051 67.9833658,10.2258698 67.9691915,10.4432465 L65.1128024,10.4432465 C65.1709167,10.6458858 65.2831765,10.8020456 65.4501489,10.9108757 C65.6171212,11.0194223 65.8257657,11.073554 66.0772164,11.073554 C66.2660171,11.073554 66.4287371,11.0471967 66.5665106,10.9941987 C66.7040005,10.9412007 66.8431914,10.8541934 66.9832327,10.73346 L67.7083859,11.4867681 C67.3262488,11.9124524 66.7683515,12.1247277 66.0335598,12.1247277 C65.5745985,12.1247277 65.1709167,12.0377203 64.8230813,11.8637056 C64.4752459,11.6899743 64.2056522,11.4482241 64.0145837,11.1387386 C63.8237987,10.82982 63.7282644,10.4798066 63.7282644,10.0884151 C63.7282644,9.70155827 63.8215308,9.35466244 64.0074966,9.04801105 C64.1934624,8.74164308 64.4508662,8.50102661 64.7794247,8.32701187 C65.1082666,8.15328054 65.4779303,8.06598976 65.8886993,8.06598976 Z M32.911267,8.02492341 C33.3367771,8.02492341 33.7186307,8.11079714 34.0568276,8.28226117 C34.395308,8.45372521 34.6583816,8.69264121 34.8471822,8.99957601 C35.0354159,9.30622739 35.1298162,9.6551071 35.1298162,10.0470654 C35.1298162,10.4381734 35.0354159,10.7887536 34.8471822,11.0976723 C34.6583816,11.4068744 34.395308,11.6486245 34.0568276,11.8223558 C33.7186307,11.9963706 33.3367771,12.0833779 32.911267,12.0833779 C32.4908596,12.0833779 32.1115574,11.9963706 31.7733605,11.8223558 C31.4348801,11.6486245 31.1703891,11.4068744 30.9793206,11.0976723 C30.7885356,10.7887536 30.6930013,10.4381734 30.6930013,10.0470654 C30.6930013,9.66020851 30.7885356,9.31246244 30.9793206,9.00326036 C31.1703891,8.69405827 31.4337461,8.45372521 31.7696752,8.28226117 C32.1056043,8.11079714 32.4860404,8.02492341 32.911267,8.02492341 Z M70.3104328,8.02481005 C70.5959016,8.02481005 70.8785356,8.05371803 71.1589017,8.11181742 C71.4392678,8.1699168 71.6739929,8.25182276 71.8619431,8.35781871 L71.4489063,9.2933605 C71.1007874,9.10007377 70.7243201,9.00314699 70.3183703,9.00314699 C70.1006543,9.00314699 69.9410526,9.02837063 69.8398486,9.07938472 C69.7383612,9.1301154 69.6876175,9.19671713 69.6876175,9.2786231 C69.6876175,9.37044846 69.7426135,9.43421608 69.8540228,9.47077618 C69.9654322,9.50705287 70.1488467,9.5444632 70.4051166,9.58300718 C70.7288558,9.63147057 70.9967486,9.68701925 71.2096454,9.74965322 C71.4225422,9.81228719 71.6073741,9.92735231 71.7644244,10.0939984 C71.9211913,10.2609278 72,10.4938922 72,10.7931748 C72,11.039743 71.9248766,11.260804 71.7749134,11.4563581 C71.6255171,11.6521955 71.4043992,11.8058046 71.1121268,11.9166185 C70.8192873,12.0277159 70.4680501,12.0832646 70.0572812,12.0832646 C69.7287227,12.0832646 69.4044165,12.0458542 69.08578,11.9710336 C68.76686,11.8962129 68.5105901,11.7981525 68.3172537,11.6774191 L68.7302905,10.7356423 C68.9094527,10.8461728 69.1217826,10.9345972 69.3686975,11.0000653 C69.614762,11.06525 69.8591256,11.0975589 70.1006543,11.0975589 C70.3226226,11.0975589 70.4810904,11.0746026 70.5757742,11.0286899 C70.6696076,10.9827772 70.716666,10.9164589 70.716666,10.8297349 C70.716666,10.7427276 70.6602526,10.6809438 70.5462918,10.6443837 C70.4328981,10.6086739 70.2528854,10.5732474 70.006254,10.5395214 C69.6924367,10.5009775 69.4251109,10.4505302 69.2054105,10.3873294 C68.9854265,10.324412 68.7957755,10.2087801 68.6364572,10.0395833 C68.476572,9.87038658 68.3971963,9.63345445 68.3971963,9.32907037 C68.3971963,9.07825107 68.4720362,8.85435589 68.621716,8.65880186 C68.7713958,8.46324784 68.9902458,8.30850509 69.278266,8.19514044 C69.5651522,8.08149237 69.9095858,8.02481005 70.3104328,8.02481005 Z M37.7759449,8.02498009 C38.220732,8.02498009 38.6048534,8.1202064 38.9285926,8.31094243 C39.2520484,8.50196187 39.4816708,8.76638492 39.6171763,9.1047784 L38.5515583,9.64807849 C38.3729631,9.29579784 38.111874,9.11923239 37.7685743,9.11923239 C37.5222264,9.11923239 37.3178341,9.20113836 37.156248,9.3655171 C36.9940949,9.52989585 36.9133018,9.75662515 36.9133018,10.0468387 C36.9133018,10.3415868 36.9940949,10.5722838 37.156248,10.7392133 C37.3178341,10.9055759 37.5222264,10.9888989 37.7685743,10.9888989 C38.111874,10.9888989 38.3729631,10.8129003 38.5515583,10.4600528 L39.6171763,11.0033529 C39.4816708,11.3417464 39.2520484,11.6061694 38.9285926,11.7971889 C38.6048534,11.9876415 38.220732,12.0831512 37.7759449,12.0831512 C37.3407963,12.0831512 36.9518557,11.9964273 36.608556,11.8224125 C36.2655399,11.6486812 35.998781,11.4069311 35.807429,11.0974456 C35.6169275,10.7888103 35.5211097,10.4382301 35.5211097,10.0468387 C35.5211097,9.65516379 35.6169275,9.30628407 35.807429,8.99963269 C35.998781,8.69269789 36.2655399,8.45349848 36.608556,8.28203444 C36.9518557,8.11085382 37.3407963,8.02498009 37.7759449,8.02498009 Z M53.4063411,7.98876009 C54.0824514,7.98876009 54.5986766,8.13755119 54.9541661,8.43598364 C55.3102225,8.73356585 55.4879673,9.1904254 55.4879673,9.80627887 L55.4879673,11.9942166 L54.1581418,11.9942166 L54.1581418,11.4852094 C53.9526156,11.8683819 53.5514851,12.0596847 52.9553173,12.0596847 C52.6397992,12.0596847 52.3668037,12.0064033 52.1363308,11.900124 C51.9061415,11.7935612 51.731515,11.6490213 51.6141525,11.4673544 C51.496223,11.2854042 51.4375417,11.0785137 51.4375417,10.8458327 C51.4375417,10.4725796 51.5852371,10.1829329 51.8809113,9.97717608 C52.1765856,9.77113582 52.6327121,9.66769058 53.2487237,9.66769058 L54.0600562,9.66769058 C54.0348261,9.2513589 53.7468059,9.04305135 53.1959956,9.04305135 C53.0006749,9.04305135 52.8022357,9.07280957 52.6020957,9.13374307 C52.4019557,9.19410975 52.2315816,9.27771618 52.0912568,9.38427895 L51.6104672,8.44646987 C51.8358373,8.3010797 52.1099668,8.18856529 52.4334225,8.1083598 C52.7563113,8.02872113 53.0809009,7.98876009 53.4063411,7.98876009 Z M61.4257472,8.05201756 C61.9116395,8.05201756 62.3000132,8.19542385 62.5894508,8.48138618 C62.8788884,8.76734852 63.0234654,9.19955125 63.0234654,9.77629392 L63.0234654,11.9942733 L61.6939234,11.9942733 L61.6939234,9.97213135 C61.6939234,9.69665525 61.6403449,9.49373252 61.5323373,9.36336317 C61.4248967,9.23299382 61.2732325,9.16780915 61.0779118,9.16780915 C60.8624636,9.16780915 60.6895381,9.24007911 60.5594187,9.38518587 C60.4290159,9.53029262 60.3638145,9.75022005 60.3638145,10.0449681 L60.3638145,11.9942733 L59.033989,11.9942733 L59.033989,9.97213135 C59.033989,9.43563314 58.8295967,9.16780915 58.4219461,9.16780915 C58.2022457,9.16780915 58.0279027,9.24007911 57.8986338,9.38518587 C57.768798,9.53029262 57.704447,9.75022005 57.704447,10.0449681 L57.704447,11.9942733 L56.374338,11.9942733 L56.374338,8.11663542 L57.5933211,8.11663542 L57.5933211,8.52418134 C57.7395991,8.3671713 57.9136585,8.24870523 58.1152159,8.1699168 C58.3173403,8.09169519 58.5373243,8.05201756 58.7760182,8.05201756 C59.0535494,8.05201756 59.3013148,8.10218142 59.5204483,8.20250914 C59.7392983,8.30283686 59.917043,8.45531231 60.0536825,8.65993551 C60.2087485,8.46494831 60.4057702,8.31474014 60.6447475,8.20931102 C60.882591,8.10444872 61.1428297,8.05201756 61.4257472,8.05201756 Z M25.7351704,6.89788039 C26.3854837,6.89788039 26.880731,7.01776351 27.2206288,7.25781316 C27.5605267,7.49871304 27.7306173,7.82208571 27.7306173,8.22991504 C27.7306173,8.47279881 27.6713691,8.69017553 27.5523056,8.88147838 C27.4329587,9.07363146 27.2642854,9.22525669 27.0460024,9.33663746 C27.3374244,9.43866564 27.5656294,9.59765957 27.7306173,9.81361923 C27.8958888,10.0298623 27.9780993,10.2903176 27.9780993,10.5961187 C27.9780993,11.0430589 27.7986536,11.387404 27.4391953,11.6302878 C27.0800206,11.8728881 26.5601101,11.9941883 25.8808814,11.9941883 L23.1282476,11.9941883 L23.1282476,6.89788039 L25.7351704,6.89788039 Z M29.9988613,6.56543855 L29.9988613,11.9941883 L28.6693193,11.9941883 L28.6693193,6.56543855 L29.9988613,6.56543855 Z M41.5244312,6.56558025 L41.5244312,9.46856557 L42.912938,8.1166921 L44.5231296,8.1166921 L42.912938,9.7763506 L44.6594856,11.99433 L43.013008,11.99433 L41.9252782,10.6348044 L41.5244312,11.0426338 L41.5244312,11.99433 L40.1946058,11.99433 L40.1946058,6.56558025 L41.5244312,6.56558025 Z M46.9169572,6.5676775 C47.0893157,6.5676775 47.256855,6.58439878 47.4198586,6.61812477 C47.5831456,6.65213416 47.7172337,6.70258143 47.8224065,6.77031681 L47.4847765,7.74156847 C47.3506884,7.66419709 47.2137654,7.62565311 47.0751415,7.62565311 C46.9311314,7.62565311 46.819722,7.6692985 46.7409133,7.75630587 C46.6618212,7.84331324 46.6221334,7.97113189 46.6221334,8.14032863 L46.6221334,8.227336 L47.5088727,8.227336 L47.5088727,9.22466152 L46.6221334,9.22466152 L46.6221334,11.9944434 L45.2923079,11.9944434 L45.2923079,9.22466152 L44.7380958,9.22466152 L44.7380958,8.227336 L45.2923079,8.227336 L45.2923079,8.12587463 C45.2923079,7.64747581 45.4349006,7.26827105 45.7198024,6.98769353 C46.0047043,6.70768284 46.4038503,6.5676775 46.9169572,6.5676775 Z M51.2766076,8.05133738 L51.2766076,9.27680926 C51.1547093,9.2632055 51.0535053,9.2558368 50.9738462,9.2558368 C50.6872434,9.2558368 50.4630073,9.33349159 50.3008542,9.48823434 C50.1387011,9.64354391 50.0576245,9.88075944 50.0576245,10.1995975 L50.0576245,11.99416 L48.6169566,11.99416 L48.6169566,8.11652205 L49.9467821,8.11652205 L49.9467821,8.58755218 C50.0879573,8.40871944 50.2719387,8.27466574 50.4987263,8.18539108 C50.7252304,8.095833 50.9846186,8.05133738 51.2766076,8.05133738 Z M54.0472994,10.4433882 L53.4528325,10.4433882 C53.0514186,10.4433882 52.8512786,10.5760249 52.8512786,10.8415815 C52.8512786,10.9623149 52.897203,11.0589583 52.9887685,11.1317951 C53.0809009,11.204065 53.2062011,11.2406251 53.3660863,11.2406251 C53.5254045,11.2406251 53.6651624,11.2015143 53.7862102,11.1241429 C53.9072581,11.0473384 53.9940043,10.9336903 54.0472994,10.784049 L54.0472994,10.4433882 Z M25.7348869,10.0001041 L24.5689155,10.0001041 L24.5689155,10.9971462 L25.7348869,10.9971462 C26.2219132,10.9971462 26.4651428,10.831067 26.4651428,10.4986251 C26.4651428,10.1664667 26.2219132,10.0001041 25.7348869,10.0001041 Z M32.911267,9.11945912 C32.6697383,9.11945912 32.4715827,9.20136509 32.3168002,9.36546042 C32.1620177,9.52983916 32.0851934,9.75685188 32.0851934,10.0470654 C32.0851934,10.3418135 32.1620177,10.5722271 32.3168002,10.7391566 C32.4715827,10.9055192 32.6697383,10.9888422 32.911267,10.9888422 C33.1530792,10.9888422 33.3509514,10.9055192 33.5057339,10.7391566 C33.6605164,10.5722271 33.7376241,10.3418135 33.7376241,10.0470654 C33.7376241,9.75685188 33.6605164,9.52983916 33.5057339,9.36546042 C33.3509514,9.20136509 33.1530792,9.11945912 32.911267,9.11945912 Z M65.8960699,8.99387943 C65.6831731,8.99387943 65.5057118,9.05452952 65.3631191,9.17526287 C65.2205265,9.29599623 65.1300949,9.46037497 65.0909741,9.66754887 L66.7005987,9.66754887 C66.6617613,9.46037497 66.5713298,9.29599623 66.4287371,9.17526287 C66.2861445,9.05452952 66.1083997,8.99387943 65.8960699,8.99387943 Z M25.5738678,8.00573645 L24.5689155,8.00573645 L24.5689155,9.00306197 L25.5738678,9.00306197 C26.0668472,9.00306197 26.3131952,8.83528228 26.3131952,8.50057315 C26.3131952,8.17068201 26.0668472,8.00573645 25.5738678,8.00573645 Z"/>
  </g>
</svg>
