<?xml version="1.0" encoding="UTF-8"?>
<svg width="133px" height="90px" viewBox="0 0 133 90" version="1.1" xmlns="http://www.w3.org/2000/svg" xmlns:xlink="http://www.w3.org/1999/xlink">
    <title>illustrations/light/exclusive-priviledges</title>
    <defs>
        <filter x="-387.8%" y="-290.9%" width="875.6%" height="681.7%" filterUnits="objectBoundingBox" id="filter-1">
            <feGaussianBlur stdDeviation="10" in="SourceGraphic"></feGaussianBlur>
        </filter>
    </defs>
    <g id="illustrations" stroke="none" stroke-width="1" fill="none" fill-rule="evenodd">
        <g id="illustrations/light/exclusive-priviledges" transform="translate(-19.000000, -40.000000)">
            <g transform="translate(20.000000, 41.000000)">
                <g id="Group-3">
                    <g id="Group-2">
                        <path d="M2.09067721,-2.37424251e-13 L20.1036518,-2.37424251e-13 L20.1036518,-2.37424251e-13 L128.750662,-2.37424251e-13 C129.855232,-2.37627157e-13 130.750662,0.8954305 130.750662,2 L130.750662,85.4638587 C130.750662,86.5684282 129.855232,87.4638587 128.750662,87.4638587 L2.09067721,87.4638587 C0.986107715,87.4638587 0.0906772148,86.5684282 0.0906772148,85.4638587 L0.0906772148,2 C0.0906772148,0.8954305 0.986107715,-2.37443389e-13 2.09067721,-2.37424251e-13 Z" id="Rectangle-2" stroke="#000000" stroke-width="2"></path>
                        <polygon id="Path-2" fill="#000000" fill-rule="nonzero" points="129.944605 9.74589372 129.94525 11.6950723 0.000644341237 11.7538024 4.04700428e-13 9.80462383"></polygon>
                        <circle id="Oval" stroke="#000000" cx="6.49726248" cy="5.68510467" r="1.62431562"></circle>
                        <circle id="Oval" stroke="#000000" cx="12.994525" cy="5.68510467" r="1.62431562"></circle>
                        <circle id="Oval" stroke="#000000" cx="19.4917874" cy="5.68510467" r="1.62431562"></circle>
                    </g>
                    <g id="multimedia" transform="translate(63.791304, 39.869565)" fill="#8DA4FA" fill-rule="nonzero">
                        <path d="M0.969888199,0.0504341863 L0.969888199,10.3644726 L8.70541704,5.20745342 L0.969888199,0.0504341863 Z M2.72740373,3.33441053 L5.53696805,5.20745342 L2.72740373,7.0804963 L2.72740373,3.33441053 Z" id="Shape" filter="url(#filter-1)"></path>
                    </g>
                </g>
                <g id="vip" transform="translate(34.173913, 23.921739)">
                    <path d="M5.69565217,9.96630547 C5.69565217,9.96630547 63.7913043,15.6340354 63.7913043,15.9478261 L63.7913043,5.04860537 C63.7913043,4.73481472 63.7078314,4.5970276 63.4031305,4.6238051 C60.8096323,4.86870219 58.7383366,3.02027506 58.5823217,0.303139161 C58.5641862,0.0466731454 58.5388463,-0.033659342 58.2848253,0.0122263668 L5.69565217,9.96630547 Z" id="Path" fill="#404B8A" opacity="0.245256696"></path>
                    <path d="M5.51942137,46.7043478 L58.2681452,46.7043478 C58.5228111,46.7043478 58.5483524,46.6221758 58.5665428,46.372109 C58.7230303,43.6914994 60.8004757,41.5410771 63.4019546,41.3469329 C63.7075786,41.3244878 63.7913043,41.1752339 63.7913043,40.8691177 L63.7913043,14.9482736 C63.7913043,14.6421574 63.7075786,14.4927767 63.4019546,14.4704584 C60.8006003,14.2763142 58.7230303,12.1258919 58.5665428,9.44528233 C58.5483524,9.19508872 58.5229357,9.11304348 58.2681452,9.11304348 L5.51942137,9.11304348 C5.26475552,9.11304348 5.23921418,9.19521553 5.22476152,9.44528233 C5.06466092,12.1258919 2.99082867,14.2763142 0.385736537,14.4704584 C0.0799880028,14.4927767 0,14.6421574 0,14.9482736 L0,40.8691177 C0,41.1752339 0.0799880028,41.3246146 0.385611945,41.3469329 C2.99070408,41.5410771 5.06453633,43.6914994 5.22463693,46.372109 C5.23921418,46.6221758 5.26463093,46.7043478 5.51942137,46.7043478 L5.51942137,46.7043478 Z" id="Path-Copy" stroke="#879DEF" stroke-width="2" fill="#FFFFFF"></path>
                    <path d="M7.97391304,14.8086957 C7.3447816,14.8086957 6.83478261,14.3012862 6.83478261,13.6728056 C6.83478261,13.0399062 7.3447816,12.5304348 7.97391304,12.5304348 C8.60304449,12.5304348 9.11304348,13.0399062 9.11304348,13.6683869 C9.11304348,14.2968676 8.60304449,14.8086957 7.97391304,14.8086957 Z" id="Path" fill="#879DEF" fill-rule="nonzero"></path>
                    <path d="M7.97391303,44.426087 C7.34478159,44.426087 6.83478261,43.9165826 6.83478261,43.2880613 C6.83478261,42.6595399 7.34478159,42.1478261 7.97391303,42.1478261 C8.60304447,42.1478261 9.11304348,42.6552683 9.11304348,43.2837896 L9.11304348,43.2880613 C9.11319089,43.9164353 8.60304447,44.426087 7.97391303,44.426087 Z" id="Path" fill="#879DEF" fill-rule="nonzero"></path>
                    <path d="M58.3128144,46.7043478 C58.5654206,46.7043478 58.5907554,46.6221758 58.6087987,46.372109 C58.7640205,43.6914994 60.8246644,41.5410771 63.4051036,41.3469329 C63.7082557,41.3244878 63.7913043,41.1752339 63.7913043,40.8691177 L63.7913043,30.23646 L63.7913043,14.9482736 C63.7913043,14.6421574 63.7082557,14.4927767 63.4051036,14.4704584 C60.8247879,14.2763142 58.7640205,12.1258919 58.6087987,9.44528233 C58.5907554,9.19508872 58.5655442,9.11304348 58.3128144,9.11304348 L49.0956537,9.11304348 C50.9542373,12.1818145 52.1884732,15.6576416 52.6179285,19.3760538 C52.7297722,20.350452 52.7874861,19.2379591 52.7874861,22.336657 C52.7874861,25.4390324 51.2248868,32.3832048 48.5397717,36.4413375 C45.4180335,41.1454339 40.7842419,44.7928332 35.3130435,46.7043478 L58.3128144,46.7043478 Z" id="Path"></path>
                    <path d="M9.73746526,31.8645852 L11.9602961,31.0553706 L14.1831269,31.8645852 C14.4039223,31.9443324 14.4944224,31.8721986 14.4908272,31.6290858 L14.4474367,29.1596327 L15.8629572,27.1917611 C16.0041621,26.9980709 15.9715573,26.8839989 15.7471667,26.8118651 L13.4953262,26.0938823 L12.1522058,24.0727168 C12.0183153,23.8714132 11.9024008,23.8714132 11.7685103,24.0727168 L10.4253899,26.0937532 L8.17354944,26.811736 C7.95275404,26.8838698 7.916554,26.9979419 8.05775893,27.1916321 L9.47687461,29.1595037 L9.42976498,31.6289568 C9.42616977,31.8721986 9.51666985,31.9443324 9.73746526,31.8645852 L9.73746526,31.8645852 Z" id="Path" fill="#879DEF"></path>
                    <path d="M49.6100257,31.8645852 L51.8286377,31.0553706 L54.0508439,31.8645852 C54.2715773,31.9443324 54.3620519,31.8721986 54.3584577,31.6290858 L54.3150795,29.1596327 L55.7337964,27.1917611 C55.8749617,26.9980709 55.8387718,26.8839989 55.6143203,26.8118651 L53.3667068,26.0938823 L52.0203696,24.0727168 C51.8865167,23.8714132 51.774229,23.8714132 51.640376,24.0727168 L50.2940388,26.0938823 L48.0465493,26.8118651 C47.8220978,26.8839989 47.7859079,26.9980709 47.9270731,27.1917611 L49.3457901,29.1596327 L49.2986937,31.6290858 C49.2950995,31.8721986 49.3855741,31.9443324 49.6100257,31.8645852 L49.6100257,31.8645852 Z" id="Path" fill="#879DEF"></path>
                    <path d="M31.8956522,34.173913 C31.2665207,34.173913 30.7565217,33.7107898 30.7565217,33.1394841 L30.7565217,23.8170377 C30.7565217,23.2457319 31.2665207,22.7826087 31.8956522,22.7826087 C32.5247836,22.7826087 33.0347826,23.2457319 33.0347826,23.8170377 L33.0347826,33.1394841 C33.03493,33.7107898 32.524931,34.173913 31.8956522,34.173913 Z" id="Path" fill="#879DEF" fill-rule="nonzero"></path>
                    <path d="M24.5552292,34.1737791 C24.0689806,34.1737791 23.6351125,33.8407524 23.4735238,33.3420826 L20.5565267,24.154186 C20.3850549,23.6138712 20.6500456,23.025082 21.1485244,22.839219 C21.6468798,22.6532222 22.1900797,22.9405867 22.361675,23.4809015 L24.5401574,30.3426992 L26.6169675,23.5134409 C26.7821388,22.9707157 27.3220031,22.6759864 27.8223351,22.8547523 C28.3229141,23.033652 28.59507,23.6185579 28.4300222,24.1612831 L25.6449645,33.3193184 C25.490294,33.8258887 25.0567965,34.1689585 24.5658535,34.173913 C24.5623944,34.1737791 24.5588118,34.1737791 24.5552292,34.1737791 L24.5552292,34.1737791 Z" id="Path" fill="#879DEF" fill-rule="nonzero"></path>
                    <path d="M39.8293267,22.7826087 L37.4206562,22.7826087 C36.8936695,22.7826087 36.4521739,23.2541669 36.4521739,23.8170377 L36.4521739,33.1394841 C36.4521739,33.7107898 36.8857722,34.173913 37.4206562,34.173913 C37.9555403,34.173913 38.3891386,33.7107898 38.3891386,33.1394841 L38.3891386,30.1197441 C38.9015843,30.1167985 39.4961367,30.1138529 39.8293267,30.1138529 C41.7359558,30.1138529 43.2869565,28.4703614 43.2869565,26.4501053 C43.2869565,24.4278408 41.7358304,22.7826087 39.8293267,22.7826087 L39.8293267,22.7826087 Z M39.8293267,28.044995 C39.498017,28.044995 38.9096069,28.0479406 38.3984147,28.0507522 C38.395657,27.4806515 38.3928992,26.8161587 38.3928992,26.4502392 C38.3928992,26.1390804 38.3918963,25.4479436 38.3910189,24.8516005 L39.829452,24.8516005 C40.6536523,24.8516005 41.3501172,25.5837074 41.3501172,26.4502392 C41.3498665,27.3146287 40.653527,28.044995 39.8293267,28.044995 L39.8293267,28.044995 Z" id="Shape" fill="#879DEF" fill-rule="nonzero"></path>
                    <path d="M55.9983545,21.6434783 L8.93208025,21.6434783 C8.40289316,21.6434783 7.97391304,21.1334793 7.97391304,20.5043478 C7.97391304,19.8752164 8.40289316,19.3652174 8.93208025,19.3652174 L55.9983545,19.3652174 C56.5275416,19.3652174 56.9565217,19.8752164 56.9565217,20.5043478 C56.9565217,21.1334793 56.5275416,21.6434783 55.9983545,21.6434783 Z" id="Path" fill="#879DEF" fill-rule="nonzero"></path>
                    <path d="M55.8173913,44.426087 C55.1882599,44.426087 54.6782609,43.9165826 54.6782609,43.2880613 C54.6782609,42.6595399 55.1882599,42.1478261 55.8173913,42.1478261 C56.4465228,42.1478261 56.9565217,42.6552683 56.9565217,43.2837896 L56.9565217,43.2880613 C56.9565217,43.9164353 56.4465228,44.426087 55.8173913,44.426087 Z" id="Path" fill="#879DEF" fill-rule="nonzero"></path>
                    <path d="M55.8173913,14.8086957 C55.1882599,14.8086957 54.6782609,14.3012862 54.6782609,13.6728056 L54.6782609,13.6683869 C54.6782609,13.0399062 55.1882599,12.5304348 55.8173913,12.5304348 C56.4465228,12.5304348 56.9565217,13.0399062 56.9565217,13.6683869 C56.9565217,14.2968676 56.4465228,14.8086957 55.8173913,14.8086957 Z" id="Path" fill="#879DEF" fill-rule="nonzero"></path>
                    <path d="M55.9983545,37.5913043 L8.93208025,37.5913043 C8.40289316,37.5913043 7.97391304,37.0813054 7.97391304,36.4521739 C7.97391304,35.8230425 8.40289316,35.3130435 8.93208025,35.3130435 L55.9983545,35.3130435 C56.5275416,35.3130435 56.9565217,35.8230425 56.9565217,36.4521739 C56.9565217,37.0813054 56.5275416,37.5913043 55.9983545,37.5913043 Z" id="Path" fill="#879DEF" fill-rule="nonzero"></path>
                </g>
            </g>
        </g>
    </g>
</svg>