<svg xmlns="http://www.w3.org/2000/svg" width="136" height="48" viewBox="0 0 136 48">
    <path fill="#1A49F5" fill-rule="evenodd" d="M23.975 2C36.094 2 45.95 11.87 45.95 24.003 45.95 36.13 36.094 46 23.975 46 11.859 46 2 36.13 2 24.003c0-3.968 1.07-7.683 2.91-10.9a4.42 4.42 0 01-1.296-3.135A4.435 4.435 0 018.048 5.53c1.022 0 1.953.363 2.702.944C14.434 3.679 19.007 2 23.975 2zm4.799 26.417l-19.157 9.79c3.666 3.712 8.748 6.019 14.358 6.019 7.23 0 13.567-3.837 17.138-9.567l-12.34-6.242zm37.55-1.037c1.02 0 1.95.175 2.791.532a5.767 5.767 0 012.135 1.548l-1.495 1.408c-.901-.973-2.01-1.458-3.327-1.458-.854 0-1.618.184-2.293.56a4.048 4.048 0 00-1.584 1.556c-.378.667-.568 1.42-.568 2.262 0 .843.19 1.596.568 2.262.38.667.906 1.182 1.584 1.557.675.375 1.44.563 2.293.563 1.317 0 2.426-.494 3.327-1.48l1.495 1.426a5.686 5.686 0 01-2.144 1.548c-.847.357-1.78.536-2.803.536-1.255 0-2.39-.277-3.405-.83a6.08 6.08 0 01-2.384-2.287c-.574-.973-.862-2.071-.862-3.295 0-1.223.291-2.319.87-3.292a6.2 6.2 0 012.394-2.292c1.014-.548 2.15-.824 3.408-.824zm63.229 1.032v2.17h2.545v1.783h-2.545v4.521c0 .464.113.819.339 1.06.226.244.55.366.978.366.496 0 .913-.131 1.246-.393l.621 1.583a2.542 2.542 0 01-.951.483 4.15 4.15 0 01-1.184.16c-1.043 0-1.85-.274-2.417-.818-.57-.548-.853-1.34-.853-2.387v-4.575h-1.567v-1.783h1.567v-2.17h2.22zm-30.469 0v2.17h2.546v1.783h-2.546v4.521c0 .464.113.819.34 1.06.225.244.55.366.978.366.496 0 .912-.131 1.245-.393l.622 1.583a2.542 2.542 0 01-.952.483 4.15 4.15 0 01-1.183.16c-1.044 0-1.85-.274-2.417-.818-.571-.548-.854-1.34-.854-2.387v-4.575h-1.566v-1.783h1.566v-2.17h2.221zm-21.912 1.995c.973 0 1.844.208 2.614.622a4.538 4.538 0 011.808 1.729c.43.735.648 1.572.648 2.506 0 .94-.217 1.78-.648 2.521a4.533 4.533 0 01-1.808 1.736c-.77.417-1.641.625-2.614.625-.96 0-1.825-.208-2.598-.625a4.544 4.544 0 01-1.805-1.736c-.43-.74-.648-1.58-.648-2.52 0-.935.217-1.772.648-2.507a4.55 4.55 0 011.805-1.73c.773-.413 1.638-.621 2.598-.621zm30.735-.002c.925 0 1.754.203 2.482.614.729.41 1.3.985 1.707 1.729.41.741.613 1.598.613 2.572 0 .154-.01.372-.033.658h-7.454c.13.699.473 1.256 1.023 1.666.55.408 1.237.617 2.054.617 1.044 0 1.903-.349 2.578-1.036l1.192 1.372a4.001 4.001 0 01-1.617 1.158c-.654.262-1.389.39-2.206.39-1.044 0-1.963-.209-2.756-.622a4.47 4.47 0 01-1.84-1.736c-.435-.744-.652-1.583-.652-2.52 0-.927.211-1.76.633-2.501a4.492 4.492 0 011.752-1.739c.746-.413 1.587-.622 2.524-.622zm-18.142 0c1.198 0 2.158.352 2.88 1.051.723.7 1.086 1.738 1.086 3.114v5.45h-2.224v-5.165c0-.827-.193-1.455-.586-1.878-.392-.42-.948-.63-1.67-.63-.821 0-1.467.246-1.942.737-.473.491-.71 1.203-.71 2.129v4.807h-2.222v-9.508h2.114v1.227c.369-.438.83-.771 1.389-.997.556-.224 1.186-.337 1.885-.337zm30.47 0c1.198 0 2.158.352 2.88 1.051.723.7 1.086 1.738 1.086 3.114v5.45h-2.224v-5.165c0-.827-.194-1.455-.586-1.878-.393-.42-.949-.63-1.671-.63-.82 0-1.466.246-1.942.737-.472.491-.71 1.203-.71 2.129v4.807h-2.221v-9.508h2.114v1.227c.369-.438.83-.771 1.388-.997.556-.224 1.187-.337 1.885-.337zm-43.063 1.886c-.82 0-1.492.274-2.018.821-.53.545-.791 1.265-.791 2.152 0 .893.261 1.61.79 2.158.527.548 1.199.816 2.02.816.817 0 1.492-.268 2.027-.816.532-.547.8-1.265.8-2.158 0-.887-.268-1.607-.8-2.152-.535-.547-1.21-.821-2.028-.821zm-71.271.686a20.108 20.108 0 002.482 3.867l3.985-2.036zm102.006-.789c-.71 0-1.314.209-1.805.631-.493.42-.79.983-.898 1.682h5.388c-.093-.687-.384-1.247-.869-1.673-.487-.428-1.094-.64-1.816-.64zM23.975 3.777c-4.528 0-8.7 1.515-12.071 4.045.357.64.577 1.363.577 2.146a4.437 4.437 0 01-4.433 4.438c-.586 0-1.145-.119-1.657-.327a20.1 20.1 0 00-2.616 9.924c0 2.414.449 4.724 1.228 6.876l9.69 2.741L43.5 18.898C41.231 10.212 33.352 3.777 23.975 3.777zm19.909 16.916L30.73 27.417l11.257 5.694a20.102 20.102 0 002.19-9.108c0-1.128-.115-2.23-.293-3.31zm69.891-8.63c.928 0 1.755.205 2.483.604a4.362 4.362 0 011.718 1.711c.414.739.622 1.587.622 2.545 0 .962-.208 1.813-.622 2.554a4.327 4.327 0 01-1.718 1.72c-.728.403-1.555.608-2.483.608-1.278 0-2.292-.429-3.038-1.283v4.61h-2.224V12.17h2.117v1.247a3.46 3.46 0 011.358-1.018 4.638 4.638 0 011.787-.336zm11.064-.001c.925 0 1.751.205 2.48.616.731.408 1.3.985 1.71 1.73.407.74.612 1.598.612 2.571 0 .155-.012.372-.036.658h-7.45c.13.7.47 1.253 1.022 1.664.55.41 1.234.616 2.055.616 1.04 0 1.903-.345 2.577-1.036l1.193 1.372a4.01 4.01 0 01-1.62 1.158c-.652.262-1.386.393-2.204.393-1.043 0-1.962-.208-2.759-.625a4.488 4.488 0 01-1.84-1.735c-.431-.741-.649-1.58-.649-2.521 0-.923.209-1.76.63-2.5a4.512 4.512 0 011.752-1.74c.75-.41 1.59-.621 2.527-.621zm-39.54.002c.937 0 1.76.187 2.466.568a3.724 3.724 0 011.593 1.64l-1.71.997c-.273-.437-.612-.77-1.022-.988a2.79 2.79 0 00-1.344-.33c-.83 0-1.516.268-2.06.81-.548.541-.821 1.261-.821 2.163 0 .902.27 1.626.812 2.164.538.542 1.227.81 2.069.81.488 0 .934-.107 1.344-.33.41-.218.75-.548 1.023-.989l1.71.997a3.882 3.882 0 01-1.612 1.65c-.705.386-1.523.577-2.447.577-.984 0-1.867-.208-2.65-.625a4.537 4.537 0 01-1.83-1.735c-.44-.742-.658-1.581-.658-2.519 0-.937.217-1.774.657-2.509a4.598 4.598 0 011.823-1.73c.776-.413 1.662-.621 2.658-.621zm-6.153-.002v2.12a3.09 3.09 0 00-.517-.051c-.865 0-1.54.25-2.028.756-.485.506-.728 1.232-.728 2.179v4.613h-2.224v-9.51h2.117v1.39c.642-.997 1.769-1.497 3.38-1.497zM66.661 9.216l5.62 12.463h-2.418l-1.246-2.885h-6.226l-1.228 2.885h-2.381l5.601-12.463h2.278zm26.75-.748v4.807c.368-.393.823-.69 1.361-.902a5.047 5.047 0 011.805-.31c1.198 0 2.158.352 2.884 1.049.722.702 1.082 1.74 1.082 3.116v5.45h-2.22v-5.164c0-.828-.197-1.456-.59-1.878-.39-.423-.948-.631-1.67-.631-.818 0-1.466.247-1.94.738-.475.49-.713 1.2-.713 2.128v4.807h-2.22V8.468h2.22zm12.186 3.703v9.507h-2.224v-9.507h2.224zM134 8.468v13.21h-2.224V8.468H134zm-20.471 5.482c-.536 0-1.014.122-1.442.366a2.65 2.65 0 00-1.014 1.042c-.25.452-.372.973-.372 1.565 0 .596.122 1.117.372 1.566.25.456.588.8 1.014 1.045.428.244.906.363 1.442.363.817 0 1.49-.27 2.018-.816.527-.547.791-1.265.791-2.158 0-.89-.264-1.607-.79-2.155-.53-.544-1.202-.818-2.02-.818zm-48.025-2.422l-2.33 5.45h4.679l-2.349-5.45zm59.335 2.317c-.71 0-1.314.208-1.804.63-.494.423-.794.983-.898 1.683h5.387c-.092-.688-.383-1.248-.871-1.673-.485-.429-1.091-.64-1.814-.64zm-20.346-5.911c.401 0 .74.122 1.014.363.273.244.41.548.41.917 0 .393-.134.72-.402.988-.267.268-.609.402-1.022.402-.405 0-.744-.128-1.014-.384a1.249 1.249 0 01-.41-.953c0-.378.136-.7.41-.952.27-.253.61-.381 1.014-.381z"/>
</svg>
