<svg xmlns="http://www.w3.org/2000/svg" width="136" height="48" viewBox="0 0 136 48">
  <path fill="#FFF" fill-rule="evenodd" d="M21.9749755,-2.30926389e-13 C34.0937687,-2.30926389e-13 43.949951,9.8703829 43.949951,22.0029766 C43.949951,34.1296171 34.0937687,44 21.9749755,44 C9.85915556,44 -2.30926389e-13,34.1296171 -2.30926389e-13,22.0029766 C-2.30926389e-13,18.0351779 1.07035465,14.3203897 2.91076999,11.1026925 C2.11097722,10.3019889 1.61445159,9.19469625 1.61445159,7.96833987 C1.61445159,5.51562711 3.6005541,3.53023948 6.04750374,3.53023948 C7.07028707,3.53023948 8.00090097,3.89338385 8.75014922,4.47381951 C12.4339531,1.67879854 17.006746,-2.30926389e-13 21.9749755,-2.30926389e-13 Z M26.7737322,26.4172642 L7.61735722,36.2072791 C11.2833219,39.9190908 16.3645332,42.2259505 21.9749755,42.2259505 C29.2058158,42.2259505 35.5417206,38.3891219 39.1125427,32.6591801 L39.1125427,32.6591801 L26.7737322,26.4172642 Z M64.323557,25.3796239 C65.3433672,25.3796239 66.2739811,25.5552429 67.1153987,25.912434 C67.9568164,26.2696252 68.667413,26.7875524 69.2501616,27.4602625 L69.2501616,27.4602625 L67.7546383,28.868191 C66.8537565,27.8948451 65.7447501,27.4096604 64.4276193,27.4096604 C63.5743088,27.4096604 62.8101945,27.5942092 62.1352764,27.9692599 C61.4573852,28.3443106 60.9311275,28.8622379 60.5505569,29.5260181 C60.1729596,30.192775 59.9826743,30.9458531 59.9826743,31.7882289 C59.9826743,32.6306048 60.1729596,33.3836829 60.5505569,34.0504397 C60.9311275,34.7171966 61.4573852,35.2321472 62.1352764,35.6071979 C62.8101945,35.9822487 63.5743088,36.169774 64.4276193,36.169774 C65.7447501,36.169774 66.8537565,35.6756596 67.7546383,34.6904073 L67.7546383,34.6904073 L69.2501616,36.1161954 C68.667413,36.791882 67.9538432,37.3098092 67.1064791,37.6640238 C66.259115,38.021215 65.3255279,38.1998106 64.3027446,38.1998106 C63.0480511,38.1998106 61.9122859,37.9229874 60.8984222,37.3693411 C59.8845585,36.821648 59.0907121,36.0566635 58.5139099,35.0833175 C57.9400809,34.1099716 57.6516797,33.0116087 57.6516797,31.7882289 C57.6516797,30.5648491 57.9430541,29.4694629 58.5228295,28.4961169 C59.1055781,27.5227709 59.9023977,26.7577865 60.9162614,26.2041402 C61.9301251,25.656447 63.0658903,25.3796239 64.323557,25.3796239 Z M127.552676,26.4116087 L127.552676,28.5815451 L130.097742,28.5815451 L130.097742,30.3645244 L127.552676,30.3645244 L127.552676,34.8859694 C127.552676,35.350318 127.665658,35.7045325 127.891622,35.9456366 C128.117586,36.1897172 128.441665,36.3117575 128.869807,36.3117575 C129.366333,36.3117575 129.782582,36.1807874 130.115581,35.9188472 L130.115581,35.9188472 L130.736982,37.5023948 C130.478312,37.7196861 130.160179,37.8774455 129.785555,37.9846029 C129.413904,38.0947368 129.018468,38.1453389 128.602219,38.1453389 C127.558623,38.1453389 126.752884,37.8714924 126.185001,37.3267758 C125.614145,36.7790827 125.331691,35.9873089 125.331691,34.9395481 L125.331691,34.9395481 L125.331691,30.3645244 L123.76481,30.3645244 L123.76481,28.5815451 L125.331691,28.5815451 L125.331691,26.4116087 L127.552676,26.4116087 Z M97.0844368,26.4116087 L97.0844368,28.5815451 L99.6295023,28.5815451 L99.6295023,30.3645244 L97.0844368,30.3645244 L97.0844368,34.8859694 C97.0844368,35.350318 97.1974187,35.7045325 97.4233825,35.9456366 C97.6493462,36.1897172 97.9734258,36.3117575 98.4015677,36.3117575 C98.8980933,36.3117575 99.3143423,36.1807874 99.6473416,35.9188472 L99.6473416,35.9188472 L100.268742,37.5023948 C100.010073,37.7196861 99.6919397,37.8774455 99.3173156,37.9846029 C98.9456646,38.0947368 98.5502281,38.1453389 98.133979,38.1453389 C97.0903833,38.1453389 96.2846441,37.8714924 95.7167615,37.3267758 C95.1459056,36.7790827 94.8634509,35.9873089 94.8634509,34.9395481 L94.8634509,34.9395481 L94.8634509,30.3645244 L93.2965707,30.3645244 L93.2965707,28.5815451 L94.8634509,28.5815451 L94.8634509,26.4116087 L97.0844368,26.4116087 Z M75.1724933,28.4065214 C76.1447321,28.4065214 77.0158819,28.614883 77.7859426,29.0286294 C78.5589765,29.4423759 79.1595644,30.0198349 79.5936527,30.75803 C80.0247677,31.4932485 80.2418119,32.3296712 80.2418119,33.2643215 C80.2418119,34.2049249 80.0247677,35.0443242 79.5936527,35.7854959 C79.1595644,36.5266676 78.5589765,37.1071032 77.7859426,37.5208497 C77.0158819,37.9375727 76.1447321,38.1459342 75.1724933,38.1459342 C74.2121474,38.1459342 73.346944,37.9375727 72.5739101,37.5208497 C71.8038494,37.1071032 71.2032615,36.5266676 70.7691732,35.7854959 C70.3380582,35.0443242 70.121014,34.2049249 70.121014,33.2643215 C70.121014,32.3296712 70.3380582,31.4932485 70.7691732,30.75803 C71.2032615,30.0198349 71.8038494,29.4423759 72.5739101,29.0286294 C73.346944,28.614883 74.2121474,28.4065214 75.1724933,28.4065214 Z M105.906835,28.4053308 C106.831502,28.4053308 107.661027,28.6077391 108.389463,29.018509 C109.117899,29.4292789 109.688755,30.0037613 110.096084,30.7479096 C110.506387,31.4890813 110.708565,32.3463401 110.708565,33.3196861 C110.708565,33.4744689 110.699645,33.6917602 110.67586,33.9775132 L110.67586,33.9775132 L103.222029,33.9775132 C103.35285,34.6770126 103.694769,35.2336355 104.244812,35.6444054 C104.794855,36.0521986 105.481666,36.2605601 106.299298,36.2605601 C107.342894,36.2605601 108.202151,35.9122987 108.877069,35.2247057 L108.877069,35.2247057 L110.069325,36.5969152 C109.644157,37.1088892 109.103033,37.4928697 108.4519,37.7548099 C107.797795,38.0167501 107.063413,38.1447436 106.245781,38.1447436 C105.202185,38.1447436 104.283464,37.9363821 103.489617,37.5226356 C102.695771,37.1088892 102.080317,36.5284535 101.649202,35.7872818 C101.215114,35.0431335 100.99807,34.2037343 100.99807,33.2661074 C100.99807,32.340387 101.209167,31.5069409 101.631363,30.7657692 C102.050585,30.0245975 102.636307,29.4441618 103.382582,29.0274388 C104.128857,28.6136923 104.970275,28.4053308 105.906835,28.4053308 Z M87.7646211,28.4053308 C88.9628236,28.4053308 89.9231696,28.7565688 90.645659,29.4560682 C91.3681484,30.1555676 91.7308797,31.1943986 91.7308797,32.5695846 L91.7308797,32.5695846 L91.7308797,38.0197267 L89.5069206,38.0197267 L89.5069206,32.8553376 C89.5069206,32.0278447 89.3136621,31.3997835 88.9211987,30.9771073 C88.5287354,30.5574077 87.9727456,30.3460695 87.2502562,30.3460695 C86.429651,30.3460695 85.784465,30.5931268 85.3087518,31.0842646 C84.8360118,31.5754025 84.5981553,32.2868083 84.5981553,33.2125288 L84.5981553,33.2125288 L84.5981553,38.0197267 L82.3771694,38.0197267 L82.3771694,28.5124882 L84.4911198,28.5124882 L84.4911198,29.7388445 C84.8597975,29.3012853 85.3206446,28.9679069 85.8796076,28.7416858 C86.4355974,28.5184413 87.0659174,28.4053308 87.7646211,28.4053308 Z M118.234347,28.4053308 C119.43255,28.4053308 120.392896,28.7565688 121.115385,29.4560682 C121.837875,30.1555676 122.200606,31.1943986 122.200606,32.5695846 L122.200606,32.5695846 L122.200606,38.0197267 L119.976647,38.0197267 L119.976647,32.8553376 C119.976647,32.0278447 119.783388,31.3997835 119.390925,30.9771073 C118.998462,30.5574077 118.442472,30.3460695 117.719982,30.3460695 C116.899377,30.3460695 116.254191,30.5931268 115.778478,31.0842646 C115.305738,31.5754025 115.067881,32.2868083 115.067881,33.2125288 L115.067881,33.2125288 L115.067881,38.0197267 L112.846896,38.0197267 L112.846896,28.5124882 L114.960846,28.5124882 L114.960846,29.7388445 C115.329524,29.3012853 115.790371,28.9679069 116.349334,28.7416858 C116.905324,28.5184413 117.535644,28.4053308 118.234347,28.4053308 Z M75.1724933,30.2907049 C74.3518881,30.2907049 73.6799432,30.5645515 73.1536855,31.1122446 C72.6244546,31.6569612 72.3628124,32.3772967 72.3628124,33.2643215 C72.3628124,34.1572994 72.6244546,34.8746584 73.1536855,35.4223515 C73.6799432,35.9700446 74.3518881,36.237938 75.1724933,36.237938 C75.9901253,36.237938 76.6650434,35.9700446 77.2002207,35.4223515 C77.7324249,34.8746584 78.0000135,34.1572994 78.0000135,33.2643215 C78.0000135,32.3772967 77.7324249,31.6569612 77.2002207,31.1122446 C76.6650434,30.5645515 75.9901253,30.2907049 75.1724933,30.2907049 Z M3.90084804,30.977405 C4.58765894,32.3615208 5.41123737,33.6652686 6.38347617,34.8439995 L6.38347617,34.8439995 L10.367574,32.8080097 Z M105.906835,30.1883101 C105.196238,30.1883101 104.592677,30.3966716 104.102098,30.8193479 C103.608546,31.2390475 103.311225,31.8016236 103.20419,32.501123 L103.20419,32.501123 L108.591641,32.501123 C108.499472,31.81353 108.208097,31.2539305 107.723465,30.8282776 C107.235859,30.3996482 106.629324,30.1883101 105.906835,30.1883101 Z M21.9749755,1.77702611 C17.4467807,1.77702611 13.2753708,3.29211203 9.90375367,5.82221621 C10.2605386,6.46218374 10.4805559,7.18549587 10.4805559,7.96833987 C10.4805559,10.418076 8.49445339,12.4064403 6.04750374,12.4064403 C5.4617819,12.4064403 4.90281892,12.2873765 4.39142725,12.079015 C2.73237755,15.0139359 1.77500479,18.3953457 1.77500479,22.0029766 C1.77500479,24.4169936 2.2239591,26.7268299 3.00293942,28.8789068 L3.00293942,28.8789068 L12.6926222,31.6203491 L41.5000282,16.8981193 C39.2314709,8.21242051 31.3524715,1.77702611 21.9749755,1.77702611 Z M41.8835719,18.693005 L28.7301026,25.4171289 L39.9866656,31.1113516 C41.3751534,28.3699093 42.1779194,25.2802057 42.1779194,22.0029766 C42.1779194,20.8748478 42.0619643,19.7735083 41.8835719,18.693005 L41.8835719,18.693005 Z M111.775352,10.0626708 C112.702992,10.0626708 113.529544,10.2680557 114.25798,10.6669192 C114.989389,11.0717359 115.560245,11.6402652 115.976494,12.3784603 C116.389769,13.1166554 116.597894,13.9649844 116.597894,14.9234474 C116.597894,15.884887 116.389769,16.7361927 115.976494,17.4773644 C115.560245,18.2215127 114.989389,18.7959951 114.25798,19.1978352 C113.529544,19.5996753 112.702992,19.8050602 111.775352,19.8050602 C110.496873,19.8050602 109.483009,19.3764308 108.736734,18.5221486 L108.736734,18.5221486 L108.736734,23.1328914 L106.512775,23.1328914 L106.512775,10.1698282 L108.629698,10.1698282 L108.629698,11.4170207 C108.995403,10.9645785 109.450304,10.6282235 109.988454,10.3990258 C110.529578,10.1757814 111.124219,10.0626708 111.775352,10.0626708 Z M122.839251,10.0617778 C123.763918,10.0617778 124.59047,10.2671628 125.318906,10.6779326 C126.050315,11.0857259 126.618197,11.663185 127.0285,12.4073332 C127.435829,13.1485049 127.640981,14.0057638 127.640981,14.9791097 C127.640981,15.1338926 127.629088,15.3511839 127.605302,15.6369368 L127.605302,15.6369368 L120.154445,15.6369368 C120.285266,16.3364362 120.624211,16.8900825 121.177228,17.3008524 C121.727271,17.7116222 122.411109,17.9170072 123.231714,17.9170072 C124.272337,17.9170072 125.134567,17.5717224 125.809485,16.8811528 L125.809485,16.8811528 L127.001741,18.2533622 C126.573599,18.7653362 126.035449,19.1493167 125.381343,19.4112569 C124.730211,19.6731971 123.995828,19.8041672 123.178196,19.8041672 C122.134601,19.8041672 121.21588,19.5958057 120.41906,19.1790827 C119.625214,18.7653362 119.012733,18.1849006 118.578645,17.4437289 C118.14753,16.7025572 117.930486,15.8631579 117.930486,14.9225545 C117.930486,13.9998106 118.13861,13.1633879 118.560805,12.4222162 C118.983001,11.6810445 119.56575,11.1006088 120.312025,10.6838858 C121.061273,10.273116 121.902691,10.0617778 122.839251,10.0617778 Z M83.2997556,10.0635638 C84.2363159,10.0635638 85.0598944,10.2510892 85.7645445,10.6320931 C86.4691946,11.013097 87.0013988,11.5607902 87.3581836,12.2721959 L87.3581836,12.2721959 L85.6485894,13.2693546 C85.3750543,12.8317954 85.0361087,12.498417 84.6258061,12.2811257 C84.2155035,12.0608578 83.7695224,11.9507239 83.2819164,11.9507239 C82.4523915,11.9507239 81.7655806,12.2186172 81.2214837,12.7603572 C80.6744135,13.3020971 80.4008784,14.0224327 80.4008784,14.9243404 C80.4008784,15.8262481 80.6714403,16.5495603 81.2125641,17.0883236 C81.7507146,17.6300636 82.4404987,17.897957 83.2819164,17.897957 C83.7695224,17.897957 84.2155035,17.7907996 84.6258061,17.5675551 C85.0361087,17.3502638 85.3750543,17.019862 85.6485894,16.5793262 L85.6485894,16.5793262 L87.3581836,17.5764849 C86.9865327,18.2908673 86.4513554,18.8385604 85.7467053,19.2255175 C85.0420551,19.6124746 84.2244231,19.8029766 83.2997556,19.8029766 C82.315624,19.8029766 81.4325814,19.5946151 80.6506279,19.177892 C79.8686743,18.7671222 79.2561936,18.1837099 78.8191321,17.4425382 C78.3790975,16.7013665 78.1620533,15.8619673 78.1620533,14.9243404 C78.1620533,13.9867136 78.3790975,13.1502909 78.8191321,12.4150724 C79.2561936,11.6768773 79.8657011,11.1023948 80.6417082,10.6856718 C81.4177154,10.2719253 82.3037311,10.0635638 83.2997556,10.0635638 Z M77.1461084,10.0620755 L77.1461084,12.1814098 C76.9558231,12.1486673 76.7833771,12.1308077 76.6287703,12.1308077 C75.7635669,12.1308077 75.0886489,12.3808416 74.6010429,12.8868624 C74.1164101,13.3928832 73.8726071,14.119172 73.8726071,15.0657286 L73.8726071,15.0657286 L73.8726071,19.679448 L71.648648,19.679448 L71.648648,10.1692329 L73.7655716,10.1692329 L73.7655716,11.5593019 C74.4077844,10.5621431 75.53463,10.0620755 77.1461084,10.0620755 L77.1461084,10.0620755 Z M64.6607188,7.21555946 L70.2800806,19.678555 L67.8628631,19.678555 L66.6170892,16.7942362 L60.391193,16.7942362 L59.1632584,19.678555 L56.7817193,19.678555 L62.3832419,7.21555946 L64.6607188,7.21555946 Z M91.4103679,6.46813692 L91.4103679,11.2753349 C91.7790456,10.8824246 92.2339464,10.5847653 92.7720969,10.3734271 C93.3132206,10.1680422 93.9138085,10.0638615 94.5768338,10.0638615 C95.7750363,10.0638615 96.7353823,10.4150994 97.4608449,11.1116222 C98.1833343,11.8140982 98.5430924,12.8529292 98.5430924,14.2281153 L98.5430924,14.2281153 L98.5430924,19.6782573 L96.3221065,19.6782573 L96.3221065,14.5138682 C96.3221065,13.6863753 96.1258748,13.0583142 95.7334114,12.6356379 C95.3439213,12.2129617 94.7849583,12.0046002 94.0624689,12.0046002 C93.2448369,12.0046002 92.5966777,12.2516574 92.1239377,12.7427953 C91.6482245,13.2339332 91.4103679,13.9423623 91.4103679,14.8710594 L91.4103679,14.8710594 L91.4103679,19.6782573 L89.189382,19.6782573 L89.189382,6.46813692 L91.4103679,6.46813692 Z M103.59695,10.1707211 L103.59695,19.6779597 L101.372991,19.6779597 L101.372991,10.1707211 L103.59695,10.1707211 Z M132,6.46783926 L132,19.6779597 L129.776041,19.6779597 L129.776041,6.46783926 L132,6.46783926 Z M111.528575,11.9498309 C110.993398,11.9498309 110.514712,12.0718712 110.08657,12.3159518 C109.661401,12.5600325 109.322456,12.9053173 109.072706,13.3577594 C108.822957,13.8102016 108.701055,14.3311054 108.701055,14.9234474 C108.701055,15.5187661 108.822957,16.0396699 109.072706,16.4891354 C109.322456,16.9445542 109.661401,17.289839 110.08657,17.5339196 C110.514712,17.7780003 110.993398,17.897064 111.528575,17.897064 C112.346207,17.897064 113.018152,17.626194 113.547383,17.0814775 C114.073641,16.5337843 114.338256,15.8164254 114.338256,14.9234474 C114.338256,14.0334461 114.073641,13.3160871 113.547383,12.768394 C113.018152,12.2236774 112.346207,11.9498309 111.528575,11.9498309 Z M63.5041411,9.52837234 L61.1731465,14.9785144 L65.8529749,14.9785144 L63.5041411,9.52837234 Z M122.839251,11.8447571 C122.128654,11.8447571 121.525093,12.0531187 121.034514,12.4757949 C120.540962,12.8984711 120.240668,13.4580706 120.136605,14.15757 L120.136605,14.15757 L125.524057,14.15757 C125.431888,13.469977 125.140513,12.9103775 124.652907,12.4847247 C124.168275,12.0560953 123.56174,11.8447571 122.839251,11.8447571 Z M102.492701,5.93383845 C102.894084,5.93383845 103.23303,6.05587877 103.506565,6.29698282 C103.7801,6.54106346 103.916867,6.84467596 103.916867,7.21377351 C103.916867,7.6066838 103.783073,7.93410905 103.515484,8.20200244 C103.247896,8.46989582 102.905977,8.60384251 102.492701,8.60384251 C102.088345,8.60384251 101.749399,8.47584901 101.478837,8.21986199 C101.205302,7.96387498 101.068535,7.64835611 101.068535,7.26735219 C101.068535,6.88932485 101.205302,6.56785279 101.478837,6.31484238 C101.749399,6.06183196 102.088345,5.93383845 102.492701,5.93383845 Z" transform="translate(2 2)"/>
</svg>
