<svg xmlns="http://www.w3.org/2000/svg" width="60" height="24" viewBox="0 0 60 24">
  <path fill="#606F87" fill-rule="evenodd" d="M6.80569195,2.00000439 C7.64572982,1.99817752 8.3484231,2.56633567 8.56835697,3.33914064 L8.56835697,3.33914064 L10.8142377,3.33914064 C12.819195,3.33914064 14.6242954,3.72233837 16.1798028,4.47683042 C17.748999,5.23727418 18.9855567,6.3337599 19.8547974,7.73744476 C20.720844,9.13929833 21.1597992,10.7989062 21.1597992,12.6686547 C21.1597992,14.5397767 20.720844,16.2003001 19.8547974,17.6021537 C18.9855567,19.0053807 17.748999,20.1023243 16.1798028,20.8632259 C14.6242954,21.6172601 12.819195,22.0000044 10.8142377,22.0000044 L10.8142377,22.0000044 L2,22.0000044 L2,3.33914064 L5.05169652,3.33914064 C5.27026151,2.56954043 5.96793555,2.00138228 6.80569195,2.00000439 Z M4.99739749,4.07669325 L2.73509018,4.07669325 L2.73509018,21.263363 L6.41966694,21.263363 L6.41966694,5.64061611 C5.66860646,5.47671553 5.09595707,4.85224516 4.99739749,4.07669325 L4.99739749,4.07669325 Z M10.8142377,4.07669325 L8.62265599,4.07669325 C8.52135865,4.86735332 7.92817601,5.50189579 7.15384452,5.64931474 L7.15384452,5.64931474 L7.15384452,21.263363 L10.8142377,21.263363 C12.7078592,21.263363 14.4052741,20.9053456 15.8594842,20.1993827 C17.3027431,19.5007451 18.4370909,18.4962817 19.231043,17.2134621 C20.02317,15.9301847 20.4251653,14.4005985 20.4251653,12.6686547 C20.4251653,10.9380843 20.02317,9.40941381 19.231043,8.12567854 C18.4370909,6.84377456 17.3027431,5.8388534 15.8594842,5.14021573 C14.4052741,4.4342529 12.7078592,4.07669325 10.8142377,4.07669325 L10.8142377,4.07669325 Z M54.5627348,14.7830637 L55.8262138,17.7648639 L57.0969935,14.7830637 L58,14.7830637 L56.119611,19.1374168 C55.7513815,20.0503156 55.2403319,20.3300454 54.5695792,20.3300454 C54.1716905,20.3300454 53.7496183,20.194072 53.4940934,19.9605823 L53.87008,19.2665229 C54.0516851,19.4391221 54.3072099,19.5448792 54.5627348,19.5448792 C54.8940045,19.5448792 55.0892984,19.3873881 55.269991,18.987251 L55.3375225,18.8279286 L53.584896,14.7830637 L54.5627348,14.7830637 Z M34.7705117,14.7374646 C35.944557,14.7374646 36.8014777,15.5606301 36.8014777,16.8210164 C36.8014777,16.8960993 36.794177,17.0091815 36.7868763,17.1002883 L33.6347951,17.1002883 C33.7474998,17.6881328 34.236191,18.0662945 34.9361465,18.0662945 C35.3878779,18.0662945 35.7419623,17.9225381 36.02669,17.6277002 L36.5299826,18.2095931 C36.1690538,18.6394887 35.6055303,18.8665689 34.9137881,18.8665689 C33.5668072,18.8665689 32.695285,17.9976211 32.695285,16.798583 C32.695285,15.5986293 33.5759331,14.7374646 34.7705117,14.7374646 Z M48.0333453,14.7374646 C49.2060218,14.7374646 50.0629425,15.5606301 50.0629425,16.8210164 C50.0629425,16.8960993 50.0556418,17.0091815 50.0483411,17.1002883 L46.8976287,17.1002883 C47.0103334,17.6881328 47.4990247,18.0662945 48.1989802,18.0662945 C48.6493427,18.0662945 49.0034271,17.9225381 49.2895236,17.6277002 L49.7928163,18.2095931 C49.4318875,18.6394887 48.8669951,18.8665689 48.1752529,18.8665689 C46.8296409,18.8665689 45.9562935,17.9976211 45.9562935,16.798583 C45.9562935,15.5986293 46.8369416,14.7374646 48.0333453,14.7374646 Z M40.8186474,14.7830179 L40.8186474,18.8132325 L39.8791374,18.8132325 L39.8791374,14.7830179 L40.8186474,14.7830179 Z M42.3755237,14.7830637 L43.6257702,17.7717313 L44.9111513,14.7830637 L45.8141578,14.7830637 L44.0911904,18.8132783 L43.1211087,18.8132783 L41.3981413,14.7830637 L42.3755237,14.7830637 Z M53.2913619,14.7374646 L53.2913619,15.635713 C53.2092289,15.6210627 53.1403284,15.6132797 53.0727969,15.6132797 C52.3596088,15.6132797 51.9078774,16.0358502 51.9078774,16.8590157 L51.9078774,18.8130036 L50.9669985,18.8130036 L50.9669985,14.7832469 L51.862248,14.7832469 L51.862248,15.372007 C52.1337431,14.9494365 52.6224344,14.7374646 53.2913619,14.7374646 Z M38.6453175,13.2131434 L38.6453175,18.8127747 L37.7044386,18.8127747 L37.7044386,13.2131434 L38.6453175,13.2131434 Z M29.204177,13.5296363 C30.9107179,13.5296363 32.0770062,14.5867493 32.0770062,16.1712742 C32.0770062,17.7562569 30.9107179,18.812912 29.204177,18.812912 L26.9026284,18.812912 L26.9026284,13.5296363 L29.204177,13.5296363 Z M29.1585476,14.360127 L27.8800109,14.360127 L27.8800109,17.9828792 L29.1585476,17.9828792 C30.3321366,17.9828792 31.092323,17.2659286 31.092323,16.1712742 C31.092323,15.0770776 30.3321366,14.360127 29.1585476,14.360127 Z M48.0333453,15.4924144 C47.4228235,15.4924144 46.9793054,15.8856843 46.8898717,16.4735288 L49.1690619,16.4735288 C49.0928608,15.8930094 48.6493427,15.4924144 48.0333453,15.4924144 Z M34.7705117,15.4924144 C34.1613587,15.4924144 33.7178406,15.8856843 33.627038,16.4735288 L35.9062283,16.4735288 C35.831396,15.8930094 35.3878779,15.4924144 34.7705117,15.4924144 Z M40.3518583,12.9874367 C40.6981857,12.9874367 40.9537106,13.2204686 40.9537106,13.5299568 C40.9537106,13.8623362 40.7054865,14.118717 40.3518583,14.118717 C40.0068998,14.118717 39.7500061,13.8696614 39.7500061,13.5533058 C39.7500061,13.2364924 40.0068998,12.9874367 40.3518583,12.9874367 Z M35.7405478,6.96248802 C36.9145931,6.96248802 37.7715139,7.78565351 37.7715139,9.04603981 C37.7715139,9.12112276 37.7642132,9.23466283 37.7569125,9.32576957 L34.6048312,9.32576957 C34.7179922,9.91315629 35.2062271,10.291318 35.9061826,10.291318 C36.357914,10.291318 36.7119984,10.1475616 36.9967261,9.85272367 L37.5000187,10.4346165 C37.1390899,10.8645122 36.5755664,11.0915923 35.8842805,11.0915923 C34.5368433,11.0915923 33.6653211,10.2226445 33.6653211,9.02406432 C33.6653211,7.8236528 34.5459692,6.96248802 35.7405478,6.96248802 Z M47.551681,6.96271693 C48.7097561,6.96271693 49.3791399,7.51485129 49.3791399,8.67634786 L49.3791399,11.0382559 L48.4911911,11.0382559 L48.4911911,10.5483855 C48.2653254,10.8954152 47.8304769,11.0913634 47.2290809,11.0913634 C46.3101041,11.0913634 45.7306103,10.5850113 45.7306103,9.88362672 C45.7306103,9.21245842 46.182798,8.68367303 47.4006476,8.68367303 L48.4396298,8.68367303 L48.4396298,8.62369823 C48.4396298,8.07247952 48.1079038,7.74834094 47.4389763,7.74834094 C46.9877012,7.74834094 46.5213684,7.89896466 46.2193016,8.14756247 L45.8506158,7.46128602 C46.2809013,7.12890663 46.9046557,6.96271693 47.551681,6.96271693 Z M42.608827,5.43839576 L42.608827,11.038027 L41.7062768,11.038027 L41.7062768,10.5174825 C41.3905211,10.9029693 40.9241883,11.0915923 40.3752662,11.0915923 C39.2098905,11.0915923 38.3443002,10.2752942 38.3443002,9.02406432 C38.3443002,7.77100318 39.2098905,6.96248802 40.3752662,6.96248802 C40.8949855,6.96248802 41.3526487,7.13600288 41.6684044,7.50729721 L41.6684044,5.43839576 L42.608827,5.43839576 Z M27.7067559,5.75493447 L29.7979529,9.25636363 L31.8512774,5.75493447 L32.6570932,5.75493447 L32.6643939,11.0382102 L31.7385727,11.0382102 L31.7308157,7.53678101 L30.0005476,10.4347996 L29.5647865,10.4347996 L27.8345183,7.58210547 L27.8345183,11.0382102 L26.902309,11.0382102 L26.902309,5.75493447 L27.7067559,5.75493447 Z M44.7843015,7.00827031 L44.7843015,11.0384849 L43.8434226,11.0384849 L43.8434226,7.00827031 L44.7843015,7.00827031 Z M48.4396298,9.30997469 L47.4695481,9.30997469 C46.8298234,9.30997469 46.6564316,9.55124733 46.6564316,9.84562742 C46.6564316,10.1857898 46.9416155,10.4050869 47.4225497,10.4050869 C47.8820381,10.4050869 48.2808394,10.193115 48.4396298,9.77786964 L48.4396298,9.30997469 Z M40.4879709,7.76322019 C39.8117427,7.76322019 39.2920235,8.25354846 39.2920235,9.02406432 C39.2920235,9.79274888 39.8117427,10.2844506 40.4879709,10.2844506 C41.1646554,10.2844506 41.6843747,9.79274888 41.6843747,9.02406432 C41.6843747,8.25354846 41.1646554,7.76322019 40.4879709,7.76322019 Z M35.7405478,7.7174379 C35.1313948,7.7174379 34.6878767,8.11070773 34.5970742,8.69855227 L36.8762644,8.69855227 C36.8014321,8.1180329 36.357914,7.7174379 35.7405478,7.7174379 Z M44.3170561,5.21314691 C44.6638398,5.21314691 44.9189083,5.44572092 44.9189083,5.75475135 C44.9189083,6.08758856 44.6706842,6.34351153 44.3170561,6.34351153 C43.9720976,6.34351153 43.7152039,6.09537155 43.7152039,5.77810031 C43.7152039,5.46174472 43.9720976,5.21314691 44.3170561,5.21314691 Z"/>
</svg>
