<svg xmlns="http://www.w3.org/2000/svg" width="64" height="24" viewBox="0 0 64 24">
  <path fill="#606F87" fill-rule="evenodd" d="M22.1364452,2 L22.1364452,12.4047238 L19.8555306,12.4047238 C19.7159229,13.0941075 19.2238549,13.6501415 18.578415,13.8917456 L18.578415,13.8917456 L18.578415,22 L2,22 L2,11.5947841 L3.98056143,11.5947841 C4.1417985,10.8015746 4.76610056,10.1766515 5.55852176,10.0157461 L5.55852176,10.0157461 L5.55852176,2 L22.1364452,2 Z M3.98056143,12.4047238 L2.80962638,12.4047238 L2.80962638,21.1900603 L17.7687887,21.1900603 L17.7687887,14.014762 C16.8377429,13.9665395 16.0708837,13.2958543 15.8899836,12.4047238 L15.8899836,12.4047238 L13.9005738,12.4047238 C13.7132831,13.3293148 12.8967747,14.0250953 11.918046,14.0250953 C10.9388258,14.0250953 10.1228089,13.3293148 9.93551828,12.4047238 L9.93551828,12.4047238 L7.9456169,12.4047238 C7.75832628,13.3293148 6.94181783,14.0250953 5.96308916,14.0250953 C4.98386892,14.0250953 4.16785205,13.3293148 3.98056143,12.4047238 L3.98056143,12.4047238 Z M36.0892523,14.9184402 C36.5306879,14.9184402 36.9264069,15.0139008 37.2773925,15.2013778 C37.6264117,15.3893468 37.8997282,15.6511256 38.097342,15.9862222 C38.2939725,16.3203346 38.3913047,16.7002091 38.3913047,17.1253537 C38.3913047,17.5514823 38.2939725,17.9328331 38.097342,18.2694058 C37.8997282,18.6064707 37.6264117,18.8702177 37.2773925,19.0576947 C36.9264069,19.2461557 36.5306879,19.3411244 36.0892523,19.3411244 C35.6527324,19.3411244 35.2599628,19.2461557 34.910452,19.0576947 C34.559958,18.8702177 34.2866415,18.6064707 34.0905025,18.2694058 C33.8938719,17.9328331 33.7965398,17.5514823 33.7965398,17.1253537 C33.7965398,16.7002091 33.8938719,16.3203346 34.0905025,15.9862222 C34.2866415,15.6511256 34.559958,15.3893468 34.910452,15.2013778 C35.2599628,15.0139008 35.6527324,14.9184402 36.0892523,14.9184402 Z M44.5463823,14.9184402 C44.9666801,14.9184402 45.3427361,15.0109485 45.6730755,15.1969492 C46.004398,15.383442 46.2629672,15.6442367 46.4487831,15.9827777 C46.634599,16.3188584 46.7270153,16.7080822 46.7270153,17.150449 C46.7270153,17.2203223 46.721608,17.3192275 46.7107933,17.4486407 L43.3267812,17.4486407 C43.3857703,17.767007 43.5416001,18.0184525 43.7918125,18.2049453 C44.0410417,18.390946 44.3522096,18.4844384 44.7238414,18.4844384 C45.1972295,18.4844384 45.5890159,18.3274696 45.8947764,18.0145159 L46.4369852,18.6379628 C46.2428125,18.8702177 45.9980075,19.0439168 45.7010953,19.1629967 C45.4056579,19.2820765 45.0708943,19.3411244 44.7002457,19.3411244 C44.2258745,19.3411244 43.8090176,19.2461557 43.447709,19.0576947 C43.087875,18.8702177 42.808168,18.6064707 42.6115375,18.2694058 C42.4153985,17.9328331 42.3180663,17.5514823 42.3180663,17.1253537 C42.3180663,16.7056218 42.4129406,16.3267315 42.6036722,15.9901587 C42.795387,15.654078 43.0603467,15.3893468 43.3990429,15.2013778 C43.7392138,15.0139008 44.1216603,14.9184402 44.5463823,14.9184402 Z M27.3988692,13.6250461 L29.6443903,17.376061 L31.8491106,13.6250461 L32.7137936,13.6250461 L32.7221504,19.2842908 L31.729166,19.2842908 L31.719826,15.533768 L29.8621587,18.6382089 L29.3941779,18.6382089 L27.5365106,15.5814983 L27.5365106,19.2842908 L26.535661,19.2842908 L26.535661,13.6250461 L27.3988692,13.6250461 Z M41.8563778,14.918637 L41.8563778,15.8806249 C41.7708435,15.8648788 41.6926828,15.8570058 41.622879,15.8570058 C41.2301094,15.8570058 40.9228741,15.9706729 40.7011731,16.1999754 C40.4814385,16.42977 40.3703422,16.7594538 40.3703422,17.1900111 L40.3703422,19.2842416 L39.3616274,19.2842416 L39.3616274,14.9673515 L40.3226593,14.9673515 L40.3226593,15.5981794 C40.613181,15.1454791 41.1244205,14.918637 41.8563778,14.918637 Z M36.0892523,15.7751261 C35.7176205,15.7751261 35.4128431,15.8991266 35.1729538,16.1471276 C34.9330645,16.3951286 34.8131198,16.7213679 34.8131198,17.1253537 C34.8131198,17.5303235 34.9330645,17.8565629 35.1729538,18.1045639 C35.4128431,18.3525649 35.7176205,18.4755813 36.0892523,18.4755813 C36.460884,18.4755813 36.7681193,18.3525649 37.0109581,18.1045639 C37.2523221,17.8565629 37.3732499,17.5303235 37.3732499,17.1253537 C37.3732499,16.7213679 37.2523221,16.3951286 37.0109581,16.1471276 C36.7681193,15.8991266 36.460884,15.7751261 36.0892523,15.7751261 Z M44.5463823,15.7273957 C44.222925,15.7273957 43.9501001,15.8223644 43.727416,16.0137778 C43.5032571,16.2056834 43.367582,16.4600812 43.3184244,16.7784475 L45.7654918,16.7784475 C45.7237078,16.4654939 45.5914738,16.2115881 45.3702644,16.0182064 C45.1500381,15.8238406 44.8742638,15.7273957 44.5463823,15.7273957 Z M21.3273104,2.80993972 L6.36765657,2.80993972 L6.36765657,10.0157461 C7.16056934,10.1766515 7.78437983,10.8015746 7.9456169,11.5947841 L7.9456169,11.5947841 L9.93551828,11.5947841 C10.1233005,10.6701931 10.9393173,9.97490466 11.918046,9.97490466 C12.8967747,9.97490466 13.7127916,10.6701931 13.9005738,11.5947841 L13.9005738,11.5947841 L15.8899836,11.5947841 C16.0777658,10.6701931 16.8937826,9.97490466 17.8730029,9.97490466 C18.8517315,9.97490466 19.6677484,10.6701931 19.8555306,11.5947841 L19.8555306,11.5947841 L21.3273104,11.5947841 L21.3273104,2.80993972 Z M59.092817,5.23242711 C59.5504747,5.23242711 59.9171907,5.34461803 60.1914903,5.56801575 C60.4652984,5.79239759 60.6039229,6.09403371 60.6039229,6.47686062 C60.6039229,6.76865543 60.5129813,7.02748186 60.3320812,7.25333989 C60.1516726,7.48018206 59.8577099,7.70800837 59.4492099,7.94075532 L60.6683195,9.1044901 C60.8030114,8.84074302 60.9072256,8.52286874 60.9839115,8.15086727 L61.7984537,8.41707467 C61.6903069,8.91848936 61.5216961,9.35003075 61.2896721,9.71219092 L62,10.3902571 L61.4440271,11.0451962 L60.7332075,10.3587649 C60.2047629,10.8114651 59.5716124,11.0368311 58.8347394,11.0368311 C58.4414782,11.0368311 58.0880348,10.9723705 57.7773585,10.8434494 C57.4647159,10.7135441 57.2194192,10.5344323 57.0414686,10.3061139 C56.8635179,10.0763194 56.7750341,9.8165088 56.7750341,9.52569812 C56.7750341,9.17485546 56.8767905,8.86583836 57.0822694,8.59913889 C57.2867652,8.33293148 57.620054,8.07016853 58.083119,7.81134211 C57.8574854,7.58548407 57.6952652,7.37340386 57.5989162,7.17657768 C57.5015841,6.97975151 57.4524265,6.77652848 57.4524265,6.5669086 C57.4524265,6.16735146 57.6033404,5.84455653 57.9012357,5.60049207 C58.2001142,5.35495141 58.597308,5.23242711 59.092817,5.23242711 Z M28.4578232,5.21677943 C28.8019267,5.21677943 29.1411144,5.25909706 29.4744032,5.34570058 C29.8091668,5.43181203 30.096739,5.55581252 30.3395777,5.71671792 L30.0082552,6.53403863 C29.7605007,6.38887932 29.5019315,6.27767253 29.2330392,6.20287858 C28.9626721,6.1271005 28.7021366,6.0887194 28.4484832,6.0887194 C28.0345758,6.0887194 27.7263574,6.15908476 27.5243195,6.29883134 C27.3227732,6.44005413 27.2210169,6.62605487 27.2210169,6.85732562 C27.2210169,7.01970722 27.2795145,7.15108869 27.3950349,7.25294624 C27.511047,7.35578792 27.6575367,7.43697872 27.8354874,7.49602657 C28.0134381,7.55556649 28.2548021,7.62248739 28.5620374,7.69826547 C28.9828268,7.79569443 29.3269303,7.89558371 29.5958226,8.00137778 C29.8647149,8.10717185 30.0957558,8.26660106 30.2864875,8.48212572 C30.4777107,8.69814245 30.5740597,8.98895313 30.5740597,9.35554189 C30.5740597,9.66849551 30.4885254,9.95094108 30.3199147,10.2043548 C30.1493376,10.4577685 29.8922432,10.6595153 29.5481397,10.8115635 C29.203053,10.9621356 28.7837383,11.0369295 28.2877377,11.0369295 C27.8517094,11.0369295 27.43092,10.9749293 27.0234031,10.8509288 C26.617361,10.7269283 26.29587,10.5630705 26.0584386,10.3588633 L26.4222052,9.54154263 C26.6527545,9.72508304 26.9378688,9.87467093 27.2741071,9.99030631 C27.6098538,10.1064338 27.9490415,10.1644975 28.2877377,10.1644975 C28.7070524,10.1644975 29.0206782,10.0975766 29.2291066,9.96275065 C29.4360602,9.82694058 29.5392913,9.65028909 29.5392913,9.42787551 C29.5392913,9.26697011 29.4812853,9.13411244 29.3662564,9.02831837 C29.2502444,8.9225243 29.1037546,8.84084143 28.9258039,8.78130151 C28.7478532,8.72225366 28.5055061,8.65484069 28.1997455,8.57955468 C27.7681414,8.476713 27.4191222,8.37485546 27.1526877,8.27201378 C26.8862533,8.1706483 26.6566871,8.0097429 26.4669386,7.7917579 C26.2757154,7.57278878 26.1793664,7.27804158 26.1793664,6.9060401 C26.1793664,6.59357855 26.2639176,6.30965678 26.434003,6.05329069 C26.6040884,5.79692459 26.8597082,5.59419363 27.2013538,5.44263747 C27.5429994,5.29206544 27.9623141,5.21677943 28.4578232,5.21677943 Z M32.6654716,5.68537335 L32.6654716,6.67147251 L33.8201846,6.67147251 L33.8201846,7.47993603 L32.6654716,7.47993603 L32.6654716,9.5338172 C32.6654716,9.74392914 32.7165955,9.90483454 32.8183519,10.0145651 C32.9210913,10.1247878 33.0685643,10.1803912 33.2622454,10.1803912 C33.4893537,10.1803912 33.6776275,10.1208513 33.8280498,10.0022635 L34.1102147,10.7216632 C33.9927279,10.8190921 33.8477129,10.8919178 33.6791022,10.9406323 C33.5090167,10.9893468 33.3295913,11.013458 33.1413176,11.013458 C32.6679295,11.013458 32.3012135,10.8894575 32.0426443,10.6409644 C31.7845666,10.3929635 31.655282,10.0327716 31.655282,9.55743634 L31.655282,7.47993603 L30.9444625,7.47993603 L30.9444625,6.67147251 L31.655282,6.67147251 L31.655282,5.68537335 L32.6654716,5.68537335 Z M47.5668736,6.59033091 C47.9871715,6.59033091 48.3632275,6.68283922 48.6940584,6.86933202 C49.0248893,7.05533276 49.2834585,7.31661951 49.4692744,7.65466847 C49.6550903,7.99074917 49.7475067,8.37997294 49.7475067,8.82283184 C49.7475067,8.89221306 49.7420993,8.99111822 49.7317762,9.12053143 L46.3472725,9.12053143 C46.4067533,9.43889777 46.5620914,9.69083528 46.8123038,9.87683602 C47.0620247,10.0628368 47.372701,10.1568213 47.7448243,10.1568213 C48.2182124,10.1568213 48.6095073,9.99936031 48.9157594,9.68689876 L49.4574766,10.3098536 C49.2637955,10.5421085 49.0184988,10.7162997 48.7215867,10.8348874 C48.4266408,10.9539673 48.0913857,11.0135072 47.7207371,11.0135072 C47.2463658,11.0135072 46.8300006,10.9180465 46.4686919,10.7295854 C46.1083664,10.5421085 45.829151,10.2783614 45.6325204,9.94178866 C45.4363814,9.60472383 45.3385577,9.22386517 45.3385577,8.79724443 C45.3385577,8.37751261 45.4334319,7.99911428 45.6246552,7.66204945 C45.8158784,7.32596875 46.0808381,7.06172961 46.4195343,6.87326854 C46.7597052,6.68579161 47.1421516,6.59033091 47.5668736,6.59033091 Z M36.7366584,6.59033091 C37.1785856,6.59033091 37.5738131,6.68579161 37.9233239,6.87326854 C38.2738179,7.06172961 38.5471344,7.32301636 38.7432734,7.65811293 C38.939904,7.99222537 39.0387108,8.37209989 39.0387108,8.79724443 C39.0387108,9.22386517 38.939904,9.60472383 38.7432734,9.94178866 C38.5471344,10.2783614 38.2738179,10.5421085 37.9233239,10.7295854 C37.5738131,10.9180465 37.1785856,11.0135072 36.7366584,11.0135072 C36.3001385,11.0135072 35.907369,10.9180465 35.556875,10.7295854 C35.2073641,10.5421085 34.9340476,10.2783614 34.7379087,9.94178866 C34.5412781,9.60472383 34.4424712,9.22386517 34.4424712,8.79724443 C34.4424712,8.37209989 34.5412781,7.99222537 34.7379087,7.65811293 C34.9340476,7.32301636 35.2073641,7.06172961 35.556875,6.87326854 C35.907369,6.68579161 36.3001385,6.59033091 36.7366584,6.59033091 Z M52.2512529,6.59052774 C52.5481651,6.59052774 52.8445857,6.62497232 53.1400231,6.69238529 C53.4369353,6.75979825 53.6792824,6.8488621 53.8680478,6.96302128 L53.480194,7.73064338 C53.113478,7.51462665 52.7010453,7.40735638 52.2433877,7.40735638 C51.9479502,7.40735638 51.7228082,7.4511502 51.5694364,7.54119818 C51.415573,7.62927789 51.3388871,7.74688154 51.3388871,7.89204084 C51.3388871,8.05442244 51.4209803,8.16907369 51.5856584,8.23648665 C51.7503365,8.30340755 52.0049731,8.366884 52.3490766,8.42642391 C52.6931801,8.47907492 52.9763281,8.54156723 53.1965544,8.61094846 C53.4182553,8.68229795 53.6080038,8.79990159 53.7662915,8.9676959 C53.9260538,9.13499815 54.004706,9.37118957 54.004706,9.67873047 C54.004706,10.0832083 53.8297048,10.4060032 53.480194,10.6490835 C53.1297,10.8916718 52.6533624,11.013212 52.0497066,11.013212 C51.7001957,11.013212 51.3585501,10.9674499 51.0237866,10.8759257 C50.6904977,10.7839095 50.4240633,10.6687661 50.2249749,10.5275434 L50.6123371,9.7594292 C50.8065098,9.88884242 51.039517,9.99316029 51.3113588,10.0709066 C51.582709,10.148653 51.8506181,10.1885103 52.1141031,10.1885103 C52.7182505,10.1885103 53.0186037,10.0300652 53.0186037,9.71219092 C53.0186037,9.5601427 52.9424094,9.45582482 52.7890375,9.39628491 C52.6351741,9.33723705 52.3898775,9.28064953 52.0497066,9.22603026 C51.6947884,9.17190306 51.4047583,9.10990282 51.1820742,9.04052159 C50.9579153,8.97015623 50.7642342,8.84763194 50.6005393,8.67196457 C50.4358612,8.4977734 50.3542595,8.25370894 50.3542595,7.94075532 C50.3542595,7.53135687 50.5253281,7.20413335 50.8669737,6.95859269 C51.2081277,6.7135441 51.669718,6.59052774 52.2512529,6.59052774 Z M42.502555,6.59052774 L42.502555,7.55251568 C42.4165291,7.53676959 42.33886,7.52889654 42.2690562,7.52889654 C41.8762866,7.52889654 41.5690513,7.64256366 41.3473504,7.87186616 C41.1271241,8.10166072 41.0165194,8.43183663 41.0165194,8.86190183 L41.0165194,10.9566244 L40.0078046,10.9566244 L40.0078046,6.63973428 L40.9688365,6.63973428 L40.9688365,7.27056218 C41.2593582,6.81786198 41.7705977,6.59052774 42.502555,6.59052774 Z M44.3681367,6.63968508 L44.3681367,10.9565752 L43.3594218,10.9565752 L43.3594218,6.63968508 L44.3681367,6.63968508 Z M58.6405667,8.3526141 C58.317601,8.53074179 58.0895095,8.70247263 57.957767,8.86583836 C57.8260245,9.03117235 57.7596617,9.21569689 57.7596617,9.42039611 C57.7596617,9.65757166 57.8653507,9.84898512 58.0752538,9.99414442 C58.2846654,10.1397958 58.5628976,10.2121294 58.9070011,10.2121294 C59.3749819,10.2121294 59.7854482,10.0694304 60.1344675,9.78452454 L58.6405667,8.3526141 Z M36.7366584,7.44750892 C36.3650266,7.44750892 36.0592661,7.57150941 35.8188852,7.81901833 C35.5804707,8.06751138 35.460526,8.3932587 35.460526,8.79724443 C35.460526,9.20270636 35.5804707,9.52845368 35.8188852,9.77645467 C36.0592661,10.0249477 36.3650266,10.147472 36.7366584,10.147472 C37.1082902,10.147472 37.4145423,10.0249477 37.6568895,9.77645467 C37.8997282,9.52845368 38.0211476,9.20270636 38.0211476,8.79724443 C38.0211476,8.3932587 37.8997282,8.06751138 37.6568895,7.81901833 C37.4145423,7.57150941 37.1082902,7.44750892 36.7366584,7.44750892 Z M47.5668736,7.39977857 C47.2439079,7.39977857 46.971083,7.4947472 46.7479073,7.68616066 C46.5237485,7.87757412 46.3880734,8.13197195 46.3389157,8.45033829 L48.7864748,8.45033829 C48.7441992,8.13738467 48.6119651,7.88397097 48.3907557,7.69009718 C48.1705295,7.49573133 47.8947551,7.39977857 47.5668736,7.39977857 Z M59.092817,5.95182679 C58.8730823,5.95182679 58.6975896,6.00693812 58.568305,6.11814491 C58.4390204,6.22787551 58.3741323,6.37303481 58.3741323,6.54968631 C58.3741323,6.67909952 58.4085426,6.80211588 58.4783465,6.91775126 C58.5496251,7.03387871 58.684317,7.19133965 58.8834054,7.39062615 C59.2063712,7.21397466 59.43053,7.05749785 59.5568652,6.92611637 C59.6836919,6.79375077 59.7466137,6.65006766 59.7466137,6.49457498 C59.7466137,6.32678066 59.6890992,6.19441506 59.5740703,6.0969861 C59.4580583,6.00054127 59.2973128,5.95182679 59.092817,5.95182679 Z M43.8682034,4.71521712 C44.0500867,4.71521712 44.2044417,4.77082052 44.328319,4.88055111 C44.4526878,4.99077377 44.5146264,5.12953623 44.5146264,5.29733054 C44.5146264,5.47496617 44.453671,5.62455407 44.3327432,5.74560217 C44.2113238,5.86714233 44.0554941,5.92766638 43.8682034,5.92766638 C43.685337,5.92766638 43.530982,5.87009472 43.4071048,5.75396728 C43.2827359,5.63783983 43.2207973,5.49415672 43.2207973,5.32094969 C43.2207973,5.14921885 43.2827359,5.00405954 43.4071048,4.88940829 C43.530982,4.77328085 43.685337,4.71521712 43.8682034,4.71521712 Z"/>
</svg>
