<svg xmlns="http://www.w3.org/2000/svg" width="64" height="24" viewBox="0 0 64 24">
  <g fill="#606F87" fill-rule="evenodd" transform="translate(2 2)">
    <path d="M1.98056143,10.4047238 C2.16785205,11.3293148 2.98386892,12.0250953 3.96308916,12.0250953 C4.94181783,12.0250953 5.75832628,11.3293148 5.9456169,10.4047238 L7.93551828,10.4047238 C8.1228089,11.3293148 8.93882577,12.0250953 9.91804602,12.0250953 C10.8967747,12.0250953 11.7132831,11.3293148 11.9005738,10.4047238 L13.8899836,10.4047238 C14.0708837,11.2958543 14.8377429,11.9665395 15.7687887,12.014762 L15.7687887,19.1900603 L0.809626377,19.1900603 L0.809626377,10.4047238 L1.98056143,10.4047238 Z M19.3273104,0.809939722 L19.3273104,9.59478411 L17.8555306,9.59478411 C17.6677484,8.67019314 16.8517315,7.97490466 15.8730029,7.97490466 C14.8937826,7.97490466 14.0777658,8.67019314 13.8899836,9.59478411 L11.9005738,9.59478411 C11.7127916,8.67019314 10.8967747,7.97490466 9.91804602,7.97490466 C8.93931735,7.97490466 8.12330048,8.67019314 7.93551828,9.59478411 L5.9456169,9.59478411 C5.78437983,8.80157461 5.16056934,8.17665149 4.36765657,8.01574609 L4.36765657,0.809939722 L19.3273104,0.809939722 Z" opacity=".3"/>
    <path d="M20.1364452,-7.10542736e-15 L20.1364452,10.4047238 L17.8555306,10.4047238 C17.7159229,11.0941075 17.2238549,11.6501415 16.578415,11.8917456 L16.578415,11.8917456 L16.578415,20 L-1.77635684e-14,20 L-1.77635684e-14,9.59478411 L1.98056143,9.59478411 C2.1417985,8.80157461 2.76610056,8.17665149 3.55852176,8.01574609 L3.55852176,8.01574609 L3.55852176,-7.10542736e-15 L20.1364452,-7.10542736e-15 Z M1.98056143,10.4047238 L0.809626377,10.4047238 L0.809626377,19.1900603 L15.7687887,19.1900603 L15.7687887,12.014762 C14.8377429,11.9665395 14.0708837,11.2958543 13.8899836,10.4047238 L13.8899836,10.4047238 L11.9005738,10.4047238 C11.7132831,11.3293148 10.8967747,12.0250953 9.91804602,12.0250953 C8.93882577,12.0250953 8.1228089,11.3293148 7.93551828,10.4047238 L7.93551828,10.4047238 L5.9456169,10.4047238 C5.75832628,11.3293148 4.94181783,12.0250953 3.96308916,12.0250953 C2.98386892,12.0250953 2.16785205,11.3293148 1.98056143,10.4047238 L1.98056143,10.4047238 Z M34.0892523,12.9184402 C34.5306879,12.9184402 34.9264069,13.0139008 35.2773925,13.2013778 C35.6264117,13.3893468 35.8997282,13.6511256 36.097342,13.9862222 C36.2939725,14.3203346 36.3913047,14.7002091 36.3913047,15.1253537 C36.3913047,15.5514823 36.2939725,15.9328331 36.097342,16.2694058 C35.8997282,16.6064707 35.6264117,16.8702177 35.2773925,17.0576947 C34.9264069,17.2461557 34.5306879,17.3411244 34.0892523,17.3411244 C33.6527324,17.3411244 33.2599628,17.2461557 32.910452,17.0576947 C32.559958,16.8702177 32.2866415,16.6064707 32.0905025,16.2694058 C31.8938719,15.9328331 31.7965398,15.5514823 31.7965398,15.1253537 C31.7965398,14.7002091 31.8938719,14.3203346 32.0905025,13.9862222 C32.2866415,13.6511256 32.559958,13.3893468 32.910452,13.2013778 C33.2599628,13.0139008 33.6527324,12.9184402 34.0892523,12.9184402 Z M42.5463823,12.9184402 C42.9666801,12.9184402 43.3427361,13.0109485 43.6730755,13.1969492 C44.004398,13.383442 44.2629672,13.6442367 44.4487831,13.9827777 C44.634599,14.3188584 44.7270153,14.7080822 44.7270153,15.150449 C44.7270153,15.2203223 44.721608,15.3192275 44.7107933,15.4486407 L41.3267812,15.4486407 C41.3857703,15.767007 41.5416001,16.0184525 41.7918125,16.2049453 C42.0410417,16.390946 42.3522096,16.4844384 42.7238414,16.4844384 C43.1972295,16.4844384 43.5890159,16.3274696 43.8947764,16.0145159 L44.4369852,16.6379628 C44.2428125,16.8702177 43.9980075,17.0439168 43.7010953,17.1629967 C43.4056579,17.2820765 43.0708943,17.3411244 42.7002457,17.3411244 C42.2258745,17.3411244 41.8090176,17.2461557 41.447709,17.0576947 C41.087875,16.8702177 40.808168,16.6064707 40.6115375,16.2694058 C40.4153985,15.9328331 40.3180663,15.5514823 40.3180663,15.1253537 C40.3180663,14.7056218 40.4129406,14.3267315 40.6036722,13.9901587 C40.795387,13.654078 41.0603467,13.3893468 41.3990429,13.2013778 C41.7392138,13.0139008 42.1216603,12.9184402 42.5463823,12.9184402 Z M25.3988692,11.6250461 L27.6443903,15.376061 L29.8491106,11.6250461 L30.7137936,11.6250461 L30.7221504,17.2842908 L29.729166,17.2842908 L29.719826,13.533768 L27.8621587,16.6382089 L27.3941779,16.6382089 L25.5365106,13.5814983 L25.5365106,17.2842908 L24.535661,17.2842908 L24.535661,11.6250461 L25.3988692,11.6250461 Z M39.8563778,12.918637 L39.8563778,13.8806249 C39.7708435,13.8648788 39.6926828,13.8570058 39.622879,13.8570058 C39.2301094,13.8570058 38.9228741,13.9706729 38.7011731,14.1999754 C38.4814385,14.42977 38.3703422,14.7594538 38.3703422,15.1900111 L38.3703422,17.2842416 L37.3616274,17.2842416 L37.3616274,12.9673515 L38.3226593,12.9673515 L38.3226593,13.5981794 C38.613181,13.1454791 39.1244205,12.918637 39.8563778,12.918637 Z M34.0892523,13.7751261 C33.7176205,13.7751261 33.4128431,13.8991266 33.1729538,14.1471276 C32.9330645,14.3951286 32.8131198,14.7213679 32.8131198,15.1253537 C32.8131198,15.5303235 32.9330645,15.8565629 33.1729538,16.1045639 C33.4128431,16.3525649 33.7176205,16.4755813 34.0892523,16.4755813 C34.460884,16.4755813 34.7681193,16.3525649 35.0109581,16.1045639 C35.2523221,15.8565629 35.3732499,15.5303235 35.3732499,15.1253537 C35.3732499,14.7213679 35.2523221,14.3951286 35.0109581,14.1471276 C34.7681193,13.8991266 34.460884,13.7751261 34.0892523,13.7751261 Z M42.5463823,13.7273957 C42.222925,13.7273957 41.9501001,13.8223644 41.727416,14.0137778 C41.5032571,14.2056834 41.367582,14.4600812 41.3184244,14.7784475 L43.7654918,14.7784475 C43.7237078,14.4654939 43.5914738,14.2115881 43.3702644,14.0182064 C43.1500381,13.8238406 42.8742638,13.7273957 42.5463823,13.7273957 Z M19.3273104,0.809939722 L4.36765657,0.809939722 L4.36765657,8.01574609 C5.16056934,8.17665149 5.78437983,8.80157461 5.9456169,9.59478411 L5.9456169,9.59478411 L7.93551828,9.59478411 C8.12330048,8.67019314 8.93931735,7.97490466 9.91804602,7.97490466 C10.8967747,7.97490466 11.7127916,8.67019314 11.9005738,9.59478411 L11.9005738,9.59478411 L13.8899836,9.59478411 C14.0777658,8.67019314 14.8937826,7.97490466 15.8730029,7.97490466 C16.8517315,7.97490466 17.6677484,8.67019314 17.8555306,9.59478411 L17.8555306,9.59478411 L19.3273104,9.59478411 L19.3273104,0.809939722 Z M57.092817,3.23242711 C57.5504747,3.23242711 57.9171907,3.34461803 58.1914903,3.56801575 C58.4652984,3.79239759 58.6039229,4.09403371 58.6039229,4.47686062 C58.6039229,4.76865543 58.5129813,5.02748186 58.3320812,5.25333989 C58.1516726,5.48018206 57.8577099,5.70800837 57.4492099,5.94075532 L58.6683195,7.1044901 C58.8030114,6.84074302 58.9072256,6.52286874 58.9839115,6.15086727 L59.7984537,6.41707467 C59.6903069,6.91848936 59.5216961,7.35003075 59.2896721,7.71219092 L60,8.3902571 L59.4440271,9.04519621 L58.7332075,8.35876492 C58.2047629,8.81146512 57.5716124,9.0368311 56.8347394,9.0368311 C56.4414782,9.0368311 56.0880348,8.97237053 55.7773585,8.84344938 C55.4647159,8.7135441 55.2194192,8.53443228 55.0414686,8.30611391 C54.8635179,8.07631935 54.7750341,7.8165088 54.7750341,7.52569812 C54.7750341,7.17485546 54.8767905,6.86583836 55.0822694,6.59913889 C55.2867652,6.33293148 55.620054,6.07016853 56.083119,5.81134211 C55.8574854,5.58548407 55.6952652,5.37340386 55.5989162,5.17657768 C55.5015841,4.97975151 55.4524265,4.77652848 55.4524265,4.5669086 C55.4524265,4.16735146 55.6033404,3.84455653 55.9012357,3.60049207 C56.2001142,3.35495141 56.597308,3.23242711 57.092817,3.23242711 Z M26.4578232,3.21677943 C26.8019267,3.21677943 27.1411144,3.25909706 27.4744032,3.34570058 C27.8091668,3.43181203 28.096739,3.55581252 28.3395777,3.71671792 L28.0082552,4.53403863 C27.7605007,4.38887932 27.5019315,4.27767253 27.2330392,4.20287858 C26.9626721,4.1271005 26.7021366,4.0887194 26.4484832,4.0887194 C26.0345758,4.0887194 25.7263574,4.15908476 25.5243195,4.29883134 C25.3227732,4.44005413 25.2210169,4.62605487 25.2210169,4.85732562 C25.2210169,5.01970722 25.2795145,5.15108869 25.3950349,5.25294624 C25.511047,5.35578792 25.6575367,5.43697872 25.8354874,5.49602657 C26.0134381,5.55556649 26.2548021,5.62248739 26.5620374,5.69826547 C26.9828268,5.79569443 27.3269303,5.89558371 27.5958226,6.00137778 C27.8647149,6.10717185 28.0957558,6.26660106 28.2864875,6.48212572 C28.4777107,6.69814245 28.5740597,6.98895313 28.5740597,7.35554189 C28.5740597,7.66849551 28.4885254,7.95094108 28.3199147,8.20435478 C28.1493376,8.45776848 27.8922432,8.65951532 27.5481397,8.81156354 C27.203053,8.96213556 26.7837383,9.03692951 26.2877377,9.03692951 C25.8517094,9.03692951 25.43092,8.97492927 25.0234031,8.85092877 C24.617361,8.72692828 24.29587,8.56307049 24.0584386,8.35886333 L24.4222052,7.54154263 C24.6527545,7.72508304 24.9378688,7.87467093 25.2741071,7.99030631 C25.6098538,8.10643376 25.9490415,8.16449748 26.2877377,8.16449748 C26.7070524,8.16449748 27.0206782,8.09757658 27.2291066,7.96275065 C27.4360602,7.82694058 27.5392913,7.65028909 27.5392913,7.42787551 C27.5392913,7.26697011 27.4812853,7.13411244 27.3662564,7.02831837 C27.2502444,6.9225243 27.1037546,6.84084143 26.9258039,6.78130151 C26.7478532,6.72225366 26.5055061,6.65484069 26.1997455,6.57955468 C25.7681414,6.476713 25.4191222,6.37485546 25.1526877,6.27201378 C24.8862533,6.1706483 24.6566871,6.0097429 24.4669386,5.7917579 C24.2757154,5.57278878 24.1793664,5.27804158 24.1793664,4.9060401 C24.1793664,4.59357855 24.2639176,4.30965678 24.434003,4.05329069 C24.6040884,3.79692459 24.8597082,3.59419363 25.2013538,3.44263747 C25.5429994,3.29206544 25.9623141,3.21677943 26.4578232,3.21677943 Z M30.6654716,3.68537335 L30.6654716,4.67147251 L31.8201846,4.67147251 L31.8201846,5.47993603 L30.6654716,5.47993603 L30.6654716,7.5338172 C30.6654716,7.74392914 30.7165955,7.90483454 30.8183519,8.01456514 C30.9210913,8.1247878 31.0685643,8.18039119 31.2622454,8.18039119 C31.4893537,8.18039119 31.6776275,8.12085127 31.8280498,8.0022635 L32.1102147,8.72166318 C31.9927279,8.81909214 31.8477129,8.89191783 31.6791022,8.9406323 C31.5090167,8.98934678 31.3295913,9.01345799 31.1413176,9.01345799 C30.6679295,9.01345799 30.3012135,8.8894575 30.0426443,8.64096445 C29.7845666,8.39296346 29.655282,8.03277156 29.655282,7.55743634 L29.655282,5.47993603 L28.9444625,5.47993603 L28.9444625,4.67147251 L29.655282,4.67147251 L29.655282,3.68537335 L30.6654716,3.68537335 Z M45.5668736,4.59033091 C45.9871715,4.59033091 46.3632275,4.68283922 46.6940584,4.86933202 C47.0248893,5.05533276 47.2834585,5.31661951 47.4692744,5.65466847 C47.6550903,5.99074917 47.7475067,6.37997294 47.7475067,6.82283184 C47.7475067,6.89221306 47.7420993,6.99111822 47.7317762,7.12053143 L44.3472725,7.12053143 C44.4067533,7.43889777 44.5620914,7.69083528 44.8123038,7.87683602 C45.0620247,8.06283676 45.372701,8.15682126 45.7448243,8.15682126 C46.2182124,8.15682126 46.6095073,7.99936031 46.9157594,7.68689876 L47.4574766,8.30985361 C47.2637955,8.5421085 47.0184988,8.71629967 46.7215867,8.83488744 C46.4266408,8.95396728 46.0913857,9.0135072 45.7207371,9.0135072 C45.2463658,9.0135072 44.8300006,8.9180465 44.4686919,8.72958543 C44.1083664,8.5421085 43.829151,8.27836142 43.6325204,7.94178866 C43.4363814,7.60472383 43.3385577,7.22386517 43.3385577,6.79724443 C43.3385577,6.37751261 43.4334319,5.99911428 43.6246552,5.66204945 C43.8158784,5.32596875 44.0808381,5.06172961 44.4195343,4.87326854 C44.7597052,4.68579161 45.1421516,4.59033091 45.5668736,4.59033091 Z M34.7366584,4.59033091 C35.1785856,4.59033091 35.5738131,4.68579161 35.9233239,4.87326854 C36.2738179,5.06172961 36.5471344,5.32301636 36.7432734,5.65811293 C36.939904,5.99222537 37.0387108,6.37209989 37.0387108,6.79724443 C37.0387108,7.22386517 36.939904,7.60472383 36.7432734,7.94178866 C36.5471344,8.27836142 36.2738179,8.5421085 35.9233239,8.72958543 C35.5738131,8.9180465 35.1785856,9.0135072 34.7366584,9.0135072 C34.3001385,9.0135072 33.907369,8.9180465 33.556875,8.72958543 C33.2073641,8.5421085 32.9340476,8.27836142 32.7379087,7.94178866 C32.5412781,7.60472383 32.4424712,7.22386517 32.4424712,6.79724443 C32.4424712,6.37209989 32.5412781,5.99222537 32.7379087,5.65811293 C32.9340476,5.32301636 33.2073641,5.06172961 33.556875,4.87326854 C33.907369,4.68579161 34.3001385,4.59033091 34.7366584,4.59033091 Z M50.2512529,4.59052774 C50.5481651,4.59052774 50.8445857,4.62497232 51.1400231,4.69238529 C51.4369353,4.75979825 51.6792824,4.8488621 51.8680478,4.96302128 L51.480194,5.73064338 C51.113478,5.51462665 50.7010453,5.40735638 50.2433877,5.40735638 C49.9479502,5.40735638 49.7228082,5.4511502 49.5694364,5.54119818 C49.415573,5.62927789 49.3388871,5.74688154 49.3388871,5.89204084 C49.3388871,6.05442244 49.4209803,6.16907369 49.5856584,6.23648665 C49.7503365,6.30340755 50.0049731,6.366884 50.3490766,6.42642391 C50.6931801,6.47907492 50.9763281,6.54156723 51.1965544,6.61094846 C51.4182553,6.68229795 51.6080038,6.79990159 51.7662915,6.9676959 C51.9260538,7.13499815 52.004706,7.37118957 52.004706,7.67873047 C52.004706,8.08320827 51.8297048,8.4060032 51.480194,8.64908353 C51.1297,8.89167179 50.6533624,9.01321196 50.0497066,9.01321196 C49.7001957,9.01321196 49.3585501,8.96744987 49.0237866,8.8759257 C48.6904977,8.78390946 48.4240633,8.66876615 48.2249749,8.52754336 L48.6123371,7.7594292 C48.8065098,7.88884242 49.039517,7.99316029 49.3113588,8.07090663 C49.582709,8.14865297 49.8506181,8.18851027 50.1141031,8.18851027 C50.7182505,8.18851027 51.0186037,8.0300652 51.0186037,7.71219092 C51.0186037,7.5601427 50.9424094,7.45582482 50.7890375,7.39628491 C50.6351741,7.33723705 50.3898775,7.28064953 50.0497066,7.22603026 C49.6947884,7.17190306 49.4047583,7.10990282 49.1820742,7.04052159 C48.9579153,6.97015623 48.7642342,6.84763194 48.6005393,6.67196457 C48.4358612,6.4977734 48.3542595,6.25370894 48.3542595,5.94075532 C48.3542595,5.53135687 48.5253281,5.20413335 48.8669737,4.95859269 C49.2081277,4.7135441 49.669718,4.59052774 50.2512529,4.59052774 Z M40.502555,4.59052774 L40.502555,5.55251568 C40.4165291,5.53676959 40.33886,5.52889654 40.2690562,5.52889654 C39.8762866,5.52889654 39.5690513,5.64256366 39.3473504,5.87186616 C39.1271241,6.10166072 39.0165194,6.43183663 39.0165194,6.86190183 L39.0165194,8.95662443 L38.0078046,8.95662443 L38.0078046,4.63973428 L38.9688365,4.63973428 L38.9688365,5.27056218 C39.2593582,4.81786198 39.7705977,4.59052774 40.502555,4.59052774 Z M42.3681367,4.63968508 L42.3681367,8.95657522 L41.3594218,8.95657522 L41.3594218,4.63968508 L42.3681367,4.63968508 Z M56.6405667,6.3526141 C56.317601,6.53074179 56.0895095,6.70247263 55.957767,6.86583836 C55.8260245,7.03117235 55.7596617,7.21569689 55.7596617,7.42039611 C55.7596617,7.65757166 55.8653507,7.84898512 56.0752538,7.99414442 C56.2846654,8.13979579 56.5628976,8.21212941 56.9070011,8.21212941 C57.3749819,8.21212941 57.7854482,8.06943043 58.1344675,7.78452454 L56.6405667,6.3526141 Z M34.7366584,5.44750892 C34.3650266,5.44750892 34.0592661,5.57150941 33.8188852,5.81901833 C33.5804707,6.06751138 33.460526,6.3932587 33.460526,6.79724443 C33.460526,7.20270636 33.5804707,7.52845368 33.8188852,7.77645467 C34.0592661,8.02494772 34.3650266,8.14747201 34.7366584,8.14747201 C35.1082902,8.14747201 35.4145423,8.02494772 35.6568895,7.77645467 C35.8997282,7.52845368 36.0211476,7.20270636 36.0211476,6.79724443 C36.0211476,6.3932587 35.8997282,6.06751138 35.6568895,5.81901833 C35.4145423,5.57150941 35.1082902,5.44750892 34.7366584,5.44750892 Z M45.5668736,5.39977857 C45.2439079,5.39977857 44.971083,5.4947472 44.7479073,5.68616066 C44.5237485,5.87757412 44.3880734,6.13197195 44.3389157,6.45033829 L46.7864748,6.45033829 C46.7441992,6.13738467 46.6119651,5.88397097 46.3907557,5.69009718 C46.1705295,5.49573133 45.8947551,5.39977857 45.5668736,5.39977857 Z M57.092817,3.95182679 C56.8730823,3.95182679 56.6975896,4.00693812 56.568305,4.11814491 C56.4390204,4.22787551 56.3741323,4.37303481 56.3741323,4.54968631 C56.3741323,4.67909952 56.4085426,4.80211588 56.4783465,4.91775126 C56.5496251,5.03387871 56.684317,5.19133965 56.8834054,5.39062615 C57.2063712,5.21397466 57.43053,5.05749785 57.5568652,4.92611637 C57.6836919,4.79375077 57.7466137,4.65006766 57.7466137,4.49457498 C57.7466137,4.32678066 57.6890992,4.19441506 57.5740703,4.0969861 C57.4580583,4.00054127 57.2973128,3.95182679 57.092817,3.95182679 Z M41.8682034,2.71521712 C42.0500867,2.71521712 42.2044417,2.77082052 42.328319,2.88055111 C42.4526878,2.99077377 42.5146264,3.12953623 42.5146264,3.29733054 C42.5146264,3.47496617 42.453671,3.62455407 42.3327432,3.74560217 C42.2113238,3.86714233 42.0554941,3.92766638 41.8682034,3.92766638 C41.685337,3.92766638 41.530982,3.87009472 41.4071048,3.75396728 C41.2827359,3.63783983 41.2207973,3.49415672 41.2207973,3.32094969 C41.2207973,3.14921885 41.2827359,3.00405954 41.4071048,2.88940829 C41.530982,2.77328085 41.685337,2.71521712 41.8682034,2.71521712 Z"/>
  </g>
</svg>
