<?xml version="1.0" encoding="UTF-8"?>
<svg width="133px" height="90px" viewBox="0 0 133 90" version="1.1" xmlns="http://www.w3.org/2000/svg" xmlns:xlink="http://www.w3.org/1999/xlink">
    <title>illustrations/light/tag-along</title>
    <g id="illustrations" stroke="none" stroke-width="1" fill="none" fill-rule="evenodd">
        <g id="illustrations/tag-along" transform="translate(-19.000000, -40.000000)">
            <g id="illustrations/light/tag-along" transform="translate(20.000000, 41.000000)">
                <g id="Group-9" transform="translate(29.000000, 14.000000)">
                    <g id="support" transform="translate(38.642363, 36.000000) scale(1, -1) rotate(22.000000) translate(-38.642363, -36.000000) translate(7.642363, 10.000000)">
                        <polygon id="Path-3" fill="#D0D2E2" opacity="0.447381882" points="5.12491288 33.2051833 10.4813471 27.8439559 14.0894692 27.3868303 28.7320165 12.6175954 30.1741565 8.68631581 35.099111 3.7867173 39.2356785 6.38378264 38.1578773 9.67008586 42.2056213 11.4383505 42.2056213 14.6831306 45.3078873 17.6652143 46.166815 21.5344331 49.1802055 24.34375 47.4415359 27.90625 47.6861153 25.8115673 34.1290212 38.9967807 31.3292465 40.1328336 25.242442 39.7659532 19 45.7984346"></polygon>
                        <path d="M60.0984189,33.525973 C59.5990506,33.525973 55.759447,31.3059559 48.5796081,26.8659219 L48.79245,26.6541477 C50.5651768,24.8846456 50.5645251,22.0092695 48.7923197,20.2457401 C48.1590074,19.6136637 47.3687683,19.1921929 46.5073646,19.0148272 C46.6259721,18.6069899 46.688404,18.179806 46.688404,17.7426242 C46.688404,16.5279417 46.2147558,15.3889578 45.3573926,14.5383555 C44.72395,13.9062791 43.9338412,13.4848083 43.0724375,13.3074426 C43.1910451,12.8996053 43.253477,12.4725513 43.253477,12.0352396 C43.253477,10.8204273 42.7798288,9.6815732 41.9210318,8.82967242 C41.2724701,8.18435207 40.4751927,7.77586558 39.6380318,7.60200563 C40.0858731,6.06375407 39.7032008,4.333075 38.4884509,3.12085954 C37.4772889,2.11782136 36.105221,1.68674217 34.7829422,1.82645338 L26.1239387,0.193676024 C24.8033543,-0.0558824714 23.1541879,-0.220913089 22.1131784,0.724994111 C22.0474881,0.78472195 21.9804944,0.853408966 21.9145434,0.929886569 C20.3004379,0.343774682 18.4178361,0.692793014 17.1252744,1.97901906 C16.2677808,2.83221826 15.795436,3.97068282 15.795436,5.18471609 C15.795436,5.62202775 15.8576072,6.0490818 15.9760845,6.45704891 C15.1155931,6.63428479 14.3263967,7.05523621 13.6951699,7.68523508 C12.8359819,8.53765522 12.3622034,9.67482135 12.361291,10.8874263 C12.3609,11.3257767 12.4233319,11.7542591 12.5424608,12.1632649 C11.6815784,12.3401113 10.8918606,12.7602836 10.2586787,13.3902825 C9.3994908,14.2452995 8.92636394,15.3844133 8.92636394,16.5977973 C8.92636394,17.5272145 9.2048962,18.4126148 9.72103459,19.1605112 C9.0693447,19.3805953 8.47239677,19.7468828 7.97255063,20.2443118 C6.19865076,22.0092695 6.19799907,24.8847754 7.97372367,26.6568744 L8.18578356,26.8672203 L3.81555118,31.21294 C2.19140965,30.4511504 2.17172861,33.258229 2.84557596,33.6595741 C2.89301898,33.7305983 2.94789127,33.7981167 3.01071417,33.860831 C3.12319585,33.9731453 3.25157876,34.0592313 3.38791228,34.1222052 L16.6945074,47.3588034 C16.7577213,47.4960475 16.8445264,47.6252415 16.9577901,47.738205 C17.068056,47.8481821 20.1569357,47.5200685 19.724344,46.8337177 L24.6427779,41.9399302 C24.6479914,41.9346066 24.6532049,41.929283 24.6585488,41.9239595 C25.2217392,41.3439502 26.7900961,41.4524991 28.3068391,41.5574123 C29.3844735,41.6320721 30.585929,41.7150419 31.7597528,41.5802647 L44.1944107,49.0302675 C43.8454959,49.6640318 61.2698966,33.525973 60.0984189,33.525973 Z M25.6351713,2.76327156 L31.3292465,3.8369444 L27.9210387,7.23091397 C27.3938216,6.97849892 26.6712278,6.50768773 25.8785123,5.75226041 C24.7934486,4.71818972 24.017286,3.52428214 23.9466428,2.77963179 C23.9465124,2.77833336 23.9463821,2.77820352 23.9463821,2.77807368 C23.9412989,2.72457831 23.9399955,2.68185992 23.9406472,2.64926929 C24.1123023,2.60771949 24.5682246,2.56162518 25.6351713,2.76327156 Z M18.9803748,3.8294135 C19.6453592,3.16760307 20.678418,3.09125531 21.4298164,3.59816288 C21.8556306,5.37675407 23.3786299,6.98875653 24.0638166,7.64186747 C24.5716134,8.12592266 26.2009684,9.57717932 27.845573,9.97605741 C28.0680599,10.2937836 28.1891439,10.672536 28.1891439,11.0721931 C28.1891439,11.5870211 27.9903785,12.0683496 27.6281693,12.4287941 C27.2670027,12.7892387 26.7830578,12.987639 26.2653554,12.987639 C25.7475226,12.987639 25.2635777,12.7892387 24.9007168,12.4271062 L24.9005864,12.4269763 L24.8999347,12.4263271 L18.9802445,6.53975899 C18.6193386,6.18074273 18.4205732,5.69941425 18.4205732,5.18471609 C18.4207036,4.66988808 18.619469,4.1885596 18.9803748,3.8294135 L18.9803748,3.8294135 Z M15.5504006,9.53562952 C15.9115672,9.17531483 16.3949907,8.97678469 16.9119111,8.97678469 C17.4294832,8.97678469 17.9144708,9.17570436 18.2779835,9.53744732 L23.044704,14.2765917 C23.7953204,15.0255269 23.7953204,16.2442345 23.0473107,16.9905728 C22.6841891,17.3508875 22.1985498,17.5492878 21.679935,17.5492878 C21.1613202,17.5492878 20.6756809,17.3508875 20.3141233,16.9921309 L20.313993,16.9920011 L16.6977658,13.3902825 C16.6921613,13.3846993 16.6860354,13.3795055 16.6803005,13.3737924 L15.5489669,12.2472734 C15.1859756,11.8860499 14.9861675,11.4038125 14.986558,10.889374 C14.9870799,10.3766235 15.1862363,9.89685311 15.5504006,9.53562952 L15.5504006,9.53562952 Z M12.1139095,15.240677 C12.4753367,14.8811413 12.959803,14.6831306 13.4782875,14.6831306 C13.9924708,14.6831306 14.4727662,14.8782848 14.8326294,15.2315879 L18.4599353,18.8434343 C18.8216232,19.2023207 19.0209099,19.6831306 19.0209099,20.1973086 C19.0209099,20.7113575 18.8216232,21.1921666 18.4585016,21.5524813 C18.0972047,21.9118871 17.6132598,22.1098979 17.0956877,22.1098979 C16.5773335,22.1098979 16.0918246,21.9113677 15.7300064,21.5524813 L14.4150265,20.2440521 C14.4147658,20.2436626 14.4143748,20.2434029 14.4141141,20.2431432 L12.1140399,17.9545282 C11.7514396,17.5936941 11.5517618,17.1117165 11.5517618,16.5975377 C11.5517618,16.0834887 11.7514396,15.6013812 12.1139095,15.240677 L12.1139095,15.240677 Z M9.82778139,22.0945764 C10.1907727,21.7333528 10.6758906,21.5344331 11.1937234,21.5344331 C11.7114258,21.5344331 12.1964135,21.733223 12.5592744,22.0941869 L13.876079,23.4044339 C14.2378972,23.7633203 14.4370536,24.2441294 14.4370536,24.7583082 C14.4370536,25.272487 14.2377668,25.7531663 13.8733419,26.1149092 C13.5121753,26.4752239 13.0282304,26.6737541 12.510528,26.6737541 C11.9926952,26.6737541 11.5087503,26.4753537 11.144977,26.1123124 L10.9800994,25.94871 C10.9778837,25.9465027 10.9761893,25.9441655 10.9741039,25.942088 C10.9716275,25.9397508 10.9690207,25.9376733 10.9665443,25.9353362 L9.82908477,24.8066098 C9.07846836,24.0572851 9.07781667,22.8407849 9.82778139,22.0945764 Z M34.7212923,36.9549927 L33.5534641,38.1169589 C32.4437665,39.2224433 30.4330425,39.0832515 28.4885303,38.9488638 C26.3769247,38.8026605 24.1933726,38.6517828 22.7803785,40.0969368 L17.9454913,44.9076248 L5.85494951,32.8806452 L10.1336846,28.6258157 C10.8408985,29.0576739 11.6569446,29.2891842 12.5107887,29.2891842 C13.7306218,29.2891842 14.8744679,28.8181133 15.7288333,27.9654335 C16.5889336,27.1121045 17.0627122,25.9732504 17.0627122,24.758438 C17.0627122,24.7471417 17.0619301,24.7359752 17.0619301,24.7246788 C17.0732695,24.7248087 17.0846089,24.7254579 17.0959484,24.7254579 C18.3140871,24.7254579 19.4570208,24.2558153 20.3125593,23.4045637 C21.1726596,22.5512347 21.6464381,21.4122507 21.6464381,20.1975683 C21.6464381,20.1862719 21.6456561,20.1751054 21.6456561,20.1638091 C21.6571259,20.1638091 21.6685956,20.1645881 21.6801957,20.1645881 C22.8979434,20.1645881 24.0415288,19.6954649 24.9028022,18.8409673 C25.7969207,17.9488151 26.2391574,16.7742542 26.2306855,15.6021602 C26.2424159,15.6022901 26.2541463,15.6029393 26.2658767,15.6029393 C27.4857099,15.6028094 28.6294256,15.1318684 29.4850944,14.2778901 C30.342588,13.4246909 30.8149328,12.2862264 30.8149328,11.0721931 C30.8149328,10.2231489 30.5831919,9.41149949 30.1511215,8.70839894 L33.9013361,4.97398069 C34.1807807,4.6967656 34.5253943,4.52277581 34.8865609,4.45097256 C34.9256623,4.44681758 34.9642423,4.44058511 35.0024313,4.43305421 C35.581914,4.35346037 36.190462,4.53160514 36.6336111,4.97125398 C37.3842275,5.720319 37.3842275,6.93902661 36.6363482,7.68536492 L35.4941965,8.81850591 C35.4904167,8.82227136 35.4863763,8.82564729 35.4825965,8.82941274 L34.1670952,10.1377121 C33.654085,10.6479956 33.6535636,11.4760052 34.1659222,11.986938 C34.6784111,12.4980005 35.5094461,12.4983901 36.0221957,11.9881066 L37.1689092,10.8473048 L37.3430407,10.6744836 C38.0957426,9.93152122 39.3151847,9.93307934 40.0671045,10.6811056 C40.4289227,11.039992 40.6282095,11.5208011 40.6282095,12.0349799 C40.6282095,12.5490289 40.4289227,13.029838 40.064237,13.3915809 L38.9155684,14.5382256 L37.5998066,15.8437983 C37.0861446,16.3534326 37.0844502,17.1814422 37.5960267,17.6930241 C38.1076033,18.2047359 38.9386383,18.206294 39.4523002,17.6967896 L40.7736666,16.3857635 C41.1348332,16.025319 41.6187781,15.8269187 42.1364805,15.8269187 C42.6543133,15.8269187 43.1383886,16.025319 43.5021618,16.3883604 C43.8639801,16.7473766 44.0631365,17.2281857 44.0631365,17.7423645 C44.0631365,18.2564135 43.8639801,18.7372226 43.5000764,19.0981865 L41.2100382,21.3804392 C40.6975493,21.8912421 40.6976796,22.7191218 41.2102989,23.229665 C41.4666737,23.4849366 41.8024243,23.6124426 42.1383053,23.6124426 C42.4743166,23.6124426 42.8103279,23.4846769 43.0665723,23.2292755 L44.1889126,22.1108068 C44.1952992,22.1047042 44.2022071,22.0993806 44.2085937,22.0930183 C44.5697602,21.7325737 45.0537051,21.5341734 45.5714076,21.5341734 C46.0892404,21.5341734 46.5731853,21.7325737 46.9356552,22.0943167 C47.6854896,22.8405252 47.6848379,24.0571553 46.9356552,24.804792 L45.7945462,25.9402702 L43.9808932,27.74483 C43.4680133,28.2552434 43.4674919,29.083253 43.9797202,29.5941857 C44.236095,29.8498468 44.572367,29.9777423 44.9085086,29.9777423 C45.2441289,29.9777423 45.5798795,29.8502364 45.836124,29.5953543 L47.0449826,28.2790763 L57.383603,34.7542024 L44.5530743,46.9995559 L34.5469001,40.6577293 C34.8488932,40.464263 35.1378525,40.2367778 35.4090858,39.9665743 L36.5762624,38.8052573 C37.089403,38.2951037 37.0899244,37.467094 36.5775658,36.9561613 C36.0652072,36.4450988 35.2340419,36.4447092 34.7212923,36.9549927 Z" id="Shape" fill="#8EA6F9" fill-rule="nonzero"></path>
                        <path d="M41.1999807,39.9942594 L62.8884205,40.6483666 C63.3893561,40.6634744 63.8017443,41.0470541 63.853026,41.5455868 L63.8783711,41.7919785 C63.9341115,42.3338556 63.5400197,42.8183204 62.9981426,42.8740607 C62.9557726,42.8784191 62.9131649,42.8800284 62.8705869,42.8788785 L41.1731874,42.2928817 C40.6704405,42.2793036 40.2559977,41.8944522 40.2052826,41.3940855 L40.1749324,41.0946443 C40.1192404,40.5451746 40.5195262,40.0545942 41.0689958,39.9989022 C41.1125089,39.9944919 41.1562645,39.992941 41.1999807,39.9942594 Z" id="Rectangle" fill="#8EA6F9" fill-rule="nonzero" transform="translate(52.026606, 41.434538) rotate(-46.000000) translate(-52.026606, -41.434538) "></path>
                        <path d="M-2.03817892,38.9453336 L24.4618211,38.9453336 C25.0141058,38.9453336 25.4618211,39.3930489 25.4618211,39.9453336 L25.4618211,40.3203336 C25.4618211,40.8726184 25.0141058,41.3203336 24.4618211,41.3203336 L-2.03817892,41.3203336 C-2.59046367,41.3203336 -3.03817892,40.8726184 -3.03817892,40.3203336 L-3.03817892,39.9453336 C-3.03817892,39.3930489 -2.59046367,38.9453336 -2.03817892,38.9453336 Z" id="Rectangle" fill="#8EA6F9" fill-rule="nonzero" transform="translate(11.211821, 40.132834) rotate(45.000000) translate(-11.211821, -40.132834) "></path>
                    </g>
                </g>
                <g id="Group">
                    <g id="Group-6" opacity="0.355794271" transform="translate(9.000000, 12.500000)" fill="#8EA6F9">
                        <path d="M106.415295,20.0696481 C106.74511,19.1505599 107.275707,18.2927886 108,17.5 C107.785488,19.4629765 107.310253,20.9925686 106.629807,21.8894961 C106.47302,22.095108 106.276814,22.3152159 106,22.5 C106.002362,21.7670288 106.106149,20.9300853 106.415295,20.0696481 Z" id="Path"></path>
                        <path d="M102.221486,43.2031286 C103.925029,40.7824724 106.532114,39.2111244 110,38.5 C109.835657,38.7759033 109.667886,39.0443748 109.496457,39.3165622 C108.210743,41.3159318 106.885714,42.8654491 105.549943,43.928652 C104.217829,44.9881391 102.960686,45.5 101.703543,45.5 C101.474971,45.5 101.239314,45.4818851 101,45.4456554 C101.2928,44.734531 101.689371,43.9613981 102.221486,43.2031286 Z" id="Path"></path>
                        <path d="M92.30244,3.59222071 C91.748467,2.71826867 91.3144481,1.68639111 91,0.5 C92.5210782,2.00809125 93.5270823,3.54079743 93.8861778,4.94019302 C93.9310169,5.11152271 93.9701073,5.29625658 94,5.5 C93.4161344,5.0354845 92.8263286,4.41474946 92.30244,3.59222071 Z" id="Path"></path>
                        <path d="M95.7774515,30.5 C93.983709,29.7349252 92.5164906,28.7065817 91.4190978,27.4381053 C90.0344544,25.8393463 89.2280885,23.8542604 89,21.5 C92.7881324,23.7718892 95.2034539,26.1387147 95.8288092,28.1892188 C96.00554,28.7610305 96.1236123,29.5245097 95.7774515,30.5 Z" id="Path"></path>
                        <path d="M14.1677538,28.1985928 C14.789279,26.1480886 17.2081675,23.7732853 21,21.5 C20.7719312,23.8528643 19.965635,25.8395457 18.5811114,27.4381053 C17.4838136,28.7063823 16.0164703,29.7349252 14.2231347,30.5 C13.8767521,29.5292964 13.9948142,28.7674127 14.1677538,28.1985928 Z" id="Path"></path>
                        <path d="M16.1108696,4.9496978 C16.4705243,3.5503022 17.4744885,2.01174693 19,0.5 C18.6882992,1.6861474 18.2536445,2.71826867 17.6992967,3.59027101 C17.1748721,4.41474946 16.5844629,5.0354845 16,5.5 C16.0299233,5.29991226 16.0688619,5.1171281 16.1108696,4.9496978 Z" id="Path"></path>
                        <path d="M4.37487081,21.8946614 C3.6920124,21.0003999 3.21674295,19.4669755 3,17.5 C3.72434667,18.2927886 4.25498302,19.1505599 4.58482209,20.0696481 C4.89399085,20.9300853 4.99778532,21.7671954 5,22.5 C4.72552783,22.3163823 4.52945519,22.0991069 4.37487081,21.8946614 Z" id="Path"></path>
                        <path d="M8.29645714,45.5 C7.03931429,45.5 5.78217143,44.9883713 4.45005714,43.928652 C3.11428571,42.8654491 1.78925714,41.3159318 0.503542857,39.3165622 C0.332114286,39.0443748 0.164342857,38.7721874 0,38.5 C3.46788571,39.2111244 6.07497143,40.7824724 7.77851429,43.2028964 C8.31062857,43.9613981 8.70354286,44.7342988 9,45.4454232 C8.76091429,45.4816529 8.52502857,45.5 8.29645714,45.5 Z" id="Path"></path>
                        <path d="M20.3982192,68.5 C16.7576526,68.5 12.3281214,66.6300593 7.58613153,63.0961147 C7.02939629,62.6801138 6.50085666,62.2643192 6,61.8547151 C7.65815852,61.6192701 9.24018887,61.5 10.7419899,61.5 C15.7802901,61.5 19.9455514,62.8379713 23.1216594,65.4786281 C23.8785835,66.1104708 24.5035008,66.7522183 25,67.3390767 C23.5263946,68.116396 22.0002428,68.5 20.3982192,68.5 Z" id="Path"></path>
                        <path d="M25.9328451,52.7860669 C25.7536263,54.8182901 25.2080962,56.737972 24.3147413,58.5 C23.5739021,57.4763296 23.3010514,56.460338 23.1593197,55.6691891 C22.6884212,52.9998714 23.2688707,49.0966783 24.8013878,44.6725314 C24.8200457,44.6163807 24.8388748,44.5599901 24.8602715,44.5 C25.8017261,47.4282347 26.1627312,50.1990556 25.9328451,52.7860669 Z" id="Path"></path>
                        <path d="M45.6917966,71.5 C44.4520196,71.2289818 43.2416048,70.7764238 42.2410994,70.0384573 C39.5322693,68.0291589 38.8881724,64.5959541 39.0149927,61.5 C42.1533248,63.1172537 44.2471081,64.8843145 45.2672925,66.7867922 C46.0725697,68.2857868 46.2140711,69.868356 45.6917966,71.5 Z" id="Path"></path>
                        <path d="M65.5306427,69.9191589 C64.9526664,70.6817032 64.2064187,71.1770631 63.4254192,71.5 C63.0441662,70.3115637 62.8027331,68.7419444 63.2156894,67.0218112 C63.6825007,65.0959459 64.8827565,63.2505923 66.8071084,61.5 C67.1944581,64.4864092 67.1056482,67.8427798 65.5306427,69.9191589 Z" id="Path"></path>
                        <path d="M84.067245,52.7861648 C83.8371595,50.1989579 84.1982089,47.4320239 85.1397792,44.5 L85.1425183,44.5074386 C86.7154543,48.9917387 87.3172033,52.9510147 86.8411111,55.6579597 C86.7021011,56.4526944 86.4292169,57.4725079 85.6855476,58.5 C84.792083,56.7377622 84.2464858,54.8181133 84.067245,52.7861648 Z" id="Path"></path>
                        <path d="M101.70628,62.9872445 C99.692425,64.6807296 97.7106779,66.0162356 95.8222732,66.9516472 C93.743973,67.9774825 91.8266712,68.5 90.1173828,68.5 C88.6839933,68.5 87.3187184,68.1162149 86,67.3387354 C86.4444654,66.7516 86.9997032,66.1097561 87.6806206,65.4774088 C90.5224013,62.8355059 94.2492142,61.5 98.7571669,61.5 C100.100884,61.5 101.516384,61.6160232 103,61.8515793 C102.591312,62.229171 102.157855,62.6098593 101.70628,62.9872445 Z" id="Path"></path>
                    </g>
                    <path d="M2,0 L20.0650541,0 L20.0650541,0 L129,0 C130.104569,-2.02906125e-16 131,0.8954305 131,2 L131,86 C131,87.1045695 130.104569,88 129,88 L2,88 C0.8954305,88 1.3527075e-16,87.1045695 0,86 L0,2 C-1.3527075e-16,0.8954305 0.8954305,2.02906125e-16 2,0 Z" id="Rectangle-2" stroke="#000000" stroke-width="2"></path>
                    <polygon id="Path-2" fill="#000000" fill-rule="nonzero" points="130.944605 9.68510467 130.94525 11.6342833 1.00064434 11.6930134 1 9.74383478"></polygon>
                    <circle id="Oval" fill="#000000" cx="7.49726248" cy="5.62431562" r="1.62431562"></circle>
                    <circle id="Oval" fill="#000000" cx="13.994525" cy="5.62431562" r="1.62431562"></circle>
                    <circle id="Oval" fill="#000000" cx="20.4917874" cy="5.62431562" r="1.62431562"></circle>
                </g>
            </g>
        </g>
    </g>
</svg>