<?xml version="1.0" encoding="UTF-8"?>
<svg width="133px" height="90px" viewBox="0 0 133 90" version="1.1" xmlns="http://www.w3.org/2000/svg" xmlns:xlink="http://www.w3.org/1999/xlink">
    <title>illustrations/light/topfilms</title>
    <defs>
        <filter id="filter-1">
            <feColorMatrix in="SourceGraphic" type="matrix" values="0 0 0 0 0.000000 0 0 0 0 0.000000 0 0 0 0 0.000000 0 0 0 1.000000 0"></feColorMatrix>
        </filter>
        <filter x="-387.8%" y="-290.9%" width="875.6%" height="681.7%" filterUnits="objectBoundingBox" id="filter-2">
            <feGaussianBlur stdDeviation="10" in="SourceGraphic"></feGaussianBlur>
        </filter>
        <filter id="filter-3">
            <feColorMatrix in="SourceGraphic" type="matrix" values="0 0 0 0 0.000000 0 0 0 0 0.000000 0 0 0 0 0.000000 0 0 0 1.000000 0"></feColorMatrix>
        </filter>
        <filter id="filter-4">
            <feColorMatrix in="SourceGraphic" type="matrix" values="0 0 0 0 0.000000 0 0 0 0 0.000000 0 0 0 0 0.000000 0 0 0 1.000000 0"></feColorMatrix>
        </filter>
    </defs>
    <g id="illustrations" stroke="none" stroke-width="1" fill="none" fill-rule="evenodd">
        <g id="illustrations/light/topfilms" transform="translate(-18.000000, -40.000000)">
            <g transform="translate(19.000000, 41.000000)">
                <g id="Group-3">
                    <g filter="url(#filter-1)" id="Group-2">
                        <g>
                            <path d="M2.09067721,-2.59008274e-13 L20.1036518,-2.59008274e-13 L20.1036518,-2.59008274e-13 L128.750662,-2.59008274e-13 C129.855232,-2.5921118e-13 130.750662,0.8954305 130.750662,2 L130.750662,85.4638587 C130.750662,86.5684282 129.855232,87.4638587 128.750662,87.4638587 L2.09067721,87.4638587 C0.986107715,87.4638587 0.0906772148,86.5684282 0.0906772148,85.4638587 L0.0906772148,2 C0.0906772148,0.8954305 0.986107715,-2.58805368e-13 2.09067721,-2.59008274e-13 Z" id="Rectangle-2" stroke="#000000" stroke-width="2"></path>
                            <polygon id="Path-2" fill="#000000" fill-rule="nonzero" points="129.944605 9.74589372 129.94525 11.6950723 0.000644341236 11.7538024 0 9.80462383"></polygon>
                            <circle id="Oval" stroke="#000000" cx="6.49726248" cy="5.68510467" r="1.62431562"></circle>
                            <circle id="Oval" stroke="#000000" cx="12.994525" cy="5.68510467" r="1.62431562"></circle>
                            <circle id="Oval" stroke="#000000" cx="19.4917874" cy="5.68510467" r="1.62431562"></circle>
                        </g>
                    </g>
                    <line x1="3.4173913" y1="19.3652174" x2="26.7695652" y2="19.3652174" id="Line-2-Copy" stroke="#000000" stroke-width="2.5" stroke-linecap="round" stroke-linejoin="round"></line>
                    <line x1="3.4173913" y1="55.2478261" x2="26.7695652" y2="55.2478261" id="Line-2-Copy-2" stroke="#000000" stroke-width="2.5" stroke-linecap="round" stroke-linejoin="round"></line>
                    <g id="multimedia" transform="translate(78.069565, 31.921739)" fill="#8DA4FA" fill-rule="nonzero">
                        <path d="M0.361192547,0.0243472298 L0.361192547,10.3383857 L8.09672139,5.18136646 L0.361192547,0.0243472298 Z M2.11870807,3.30832358 L4.9282724,5.18136646 L2.11870807,7.05440934 L2.11870807,3.30832358 Z" id="Shape" filter="url(#filter-2)"></path>
                    </g>
                    <g id="multimedia-copy" transform="translate(58.421118, 17.086957)" fill="#8DA4FA" fill-rule="nonzero">
                        <path d="M45.2397516,30.4636025 L42.6366605,30.4636025 L42.6366605,7.61590062 L45.2397516,7.61590062 L45.2397516,-5.26110556e-14 L0.813664596,-5.26110556e-14 L0.813664596,7.61590062 L3.4168424,7.61590062 L3.4168424,30.4636025 L0.813664596,30.4636025 L0.813664596,38.0795031 L45.2397516,38.0795031 L45.2397516,30.4636025 Z M42.6366605,5.07726708 L38.2114058,5.07726708 L38.2114058,2.53863354 L42.6366605,2.53863354 L42.6366605,5.07726708 Z M10.4451014,5.07726708 L10.4451014,2.53863354 L14.7835865,2.53863354 L14.7835865,5.07726708 L10.4451014,5.07726708 Z M17.3866775,2.53863354 L21.7251626,2.53863354 L21.7251626,5.07726708 L17.3866775,5.07726708 L17.3866775,2.53863354 Z M24.3282536,2.53863354 L28.6667386,2.53863354 L28.6667386,5.07726708 L24.3282536,5.07726708 L24.3282536,2.53863354 Z M31.2698297,2.53863354 L35.6083147,2.53863354 L35.6083147,5.07726708 L31.2698297,5.07726708 L31.2698297,2.53863354 Z M3.41675563,2.53863354 L7.84201038,2.53863354 L7.84201038,5.07726708 L3.41675563,5.07726708 L3.41675563,2.53863354 Z M6.01984666,7.61590062 L40.0336563,7.61590062 L40.0336563,30.4636025 L6.01984666,30.4636025 L6.01984666,7.61590062 Z M14.7835865,33.002236 L14.7835865,35.5408696 L10.4451014,35.5408696 L10.4451014,33.002236 L14.7835865,33.002236 Z M17.3866775,33.002236 L21.7251626,33.002236 L21.7251626,35.5408696 L17.3866775,35.5408696 L17.3866775,33.002236 Z M24.3282536,33.002236 L28.6667386,33.002236 L28.6667386,35.5408696 L24.3282536,35.5408696 L24.3282536,33.002236 Z M31.2698297,33.002236 L35.6083147,33.002236 L35.6083147,35.5408696 L31.2698297,35.5408696 L31.2698297,33.002236 Z M3.41675563,33.002236 L7.84201038,33.002236 L7.84201038,35.5408696 L3.41675563,35.5408696 L3.41675563,33.002236 Z M42.6366605,35.5408696 L38.2114058,35.5408696 L38.2114058,33.002236 L42.6366605,33.002236 L42.6366605,35.5408696 Z" id="Shape"></path>
                        <polygon id="Path" points="21.8875776 13.6695652 21.8875776 18.226087 25.3049689 15.9478261"></polygon>
                    </g>
                    <g filter="url(#filter-3)" id="multimedia">
                        <g transform="translate(5.695652, 27.339130)">
                            <path d="M23.3293913,16.4034783 L21.9624348,16.4034783 L21.9624348,4.10086957 L23.3293913,4.10086957 L23.3293913,0 L0,0 L0,4.10086957 L1.36700209,4.10086957 L1.36700209,16.4034783 L0,16.4034783 L0,20.5043478 L23.3293913,20.5043478 L23.3293913,16.4034783 Z M21.9624348,2.73391304 L19.6386087,2.73391304 L19.6386087,1.36695652 L21.9624348,1.36695652 L21.9624348,2.73391304 Z M5.05773913,2.73391304 L5.05773913,1.36695652 L7.336,1.36695652 L7.336,2.73391304 L5.05773913,2.73391304 Z M8.70295652,1.36695652 L10.9812174,1.36695652 L10.9812174,2.73391304 L8.70295652,2.73391304 L8.70295652,1.36695652 Z M12.3481739,1.36695652 L14.6264348,1.36695652 L14.6264348,2.73391304 L12.3481739,2.73391304 L12.3481739,1.36695652 Z M15.9933913,1.36695652 L18.2716522,1.36695652 L18.2716522,2.73391304 L15.9933913,2.73391304 L15.9933913,1.36695652 Z M1.36695652,1.36695652 L3.69078261,1.36695652 L3.69078261,2.73391304 L1.36695652,2.73391304 L1.36695652,1.36695652 Z M2.73391304,4.10086957 L20.5955238,4.10086957 L20.5955238,16.4034783 L2.73391304,16.4034783 L2.73391304,4.10086957 Z M7.336,17.7704348 L7.336,19.1373913 L5.05773913,19.1373913 L5.05773913,17.7704348 L7.336,17.7704348 Z M8.70295652,17.7704348 L10.9812174,17.7704348 L10.9812174,19.1373913 L8.70295652,19.1373913 L8.70295652,17.7704348 Z M12.3481739,17.7704348 L14.6264348,17.7704348 L14.6264348,19.1373913 L12.3481739,19.1373913 L12.3481739,17.7704348 Z M15.9933913,17.7704348 L18.2716522,17.7704348 L18.2716522,19.1373913 L15.9933913,19.1373913 L15.9933913,17.7704348 Z M1.36695652,17.7704348 L3.69078261,17.7704348 L3.69078261,19.1373913 L1.36695652,19.1373913 L1.36695652,17.7704348 Z M21.9624348,19.1373913 L19.6386087,19.1373913 L19.6386087,17.7704348 L21.9624348,17.7704348 L21.9624348,19.1373913 Z" id="Shape" fill="#404B8A" fill-rule="nonzero"></path>
                            <path d="M9.61426087,6.24115896 L9.61426087,14.2631889 L15.6307833,10.2521739 L9.61426087,6.24115896 Z M10.9812174,8.79536278 L13.1664341,10.2521739 L10.9812174,11.708985 L10.9812174,8.79536278 Z" id="Shape" fill="#404B8A" fill-rule="nonzero"></path>
                        </g>
                    </g>
                    <g id="multimedia" transform="translate(33.034783, 27.339130)" fill="#060608" fill-rule="nonzero">
                        <path d="M23.3293913,16.4034783 L21.9624348,16.4034783 L21.9624348,4.10086957 L23.3293913,4.10086957 L23.3293913,0 L0,0 L0,4.10086957 L1.36700209,4.10086957 L1.36700209,16.4034783 L0,16.4034783 L0,20.5043478 L23.3293913,20.5043478 L23.3293913,16.4034783 Z M21.9624348,2.73391304 L19.6386087,2.73391304 L19.6386087,1.36695652 L21.9624348,1.36695652 L21.9624348,2.73391304 Z M5.05773913,2.73391304 L5.05773913,1.36695652 L7.336,1.36695652 L7.336,2.73391304 L5.05773913,2.73391304 Z M8.70295652,1.36695652 L10.9812174,1.36695652 L10.9812174,2.73391304 L8.70295652,2.73391304 L8.70295652,1.36695652 Z M12.3481739,1.36695652 L14.6264348,1.36695652 L14.6264348,2.73391304 L12.3481739,2.73391304 L12.3481739,1.36695652 Z M15.9933913,1.36695652 L18.2716522,1.36695652 L18.2716522,2.73391304 L15.9933913,2.73391304 L15.9933913,1.36695652 Z M1.36695652,1.36695652 L3.69078261,1.36695652 L3.69078261,2.73391304 L1.36695652,2.73391304 L1.36695652,1.36695652 Z M2.73391304,4.10086957 L20.5955238,4.10086957 L20.5955238,16.4034783 L2.73391304,16.4034783 L2.73391304,4.10086957 Z M7.336,17.7704348 L7.336,19.1373913 L5.05773913,19.1373913 L5.05773913,17.7704348 L7.336,17.7704348 Z M8.70295652,17.7704348 L10.9812174,17.7704348 L10.9812174,19.1373913 L8.70295652,19.1373913 L8.70295652,17.7704348 Z M12.3481739,17.7704348 L14.6264348,17.7704348 L14.6264348,19.1373913 L12.3481739,19.1373913 L12.3481739,17.7704348 Z M15.9933913,17.7704348 L18.2716522,17.7704348 L18.2716522,19.1373913 L15.9933913,19.1373913 L15.9933913,17.7704348 Z M1.36695652,17.7704348 L3.69078261,17.7704348 L3.69078261,19.1373913 L1.36695652,19.1373913 L1.36695652,17.7704348 Z M21.9624348,19.1373913 L19.6386087,19.1373913 L19.6386087,17.7704348 L21.9624348,17.7704348 L21.9624348,19.1373913 Z" id="Shape"></path>
                        <path d="M9.61426087,6.24115896 L9.61426087,14.2631889 L15.6307833,10.2521739 L9.61426087,6.24115896 Z M10.9812174,8.79536278 L13.1664341,10.2521739 L10.9812174,11.708985 L10.9812174,8.79536278 Z" id="Shape"></path>
                    </g>
                    <g filter="url(#filter-4)" id="multimedia">
                        <g transform="translate(104.800000, 27.339130)">
                            <path d="M23.3293913,16.4034783 L21.9624348,16.4034783 L21.9624348,4.10086957 L23.3293913,4.10086957 L23.3293913,0 L0,0 L0,4.10086957 L1.36700209,4.10086957 L1.36700209,16.4034783 L0,16.4034783 L0,20.5043478 L23.3293913,20.5043478 L23.3293913,16.4034783 Z M21.9624348,2.73391304 L19.6386087,2.73391304 L19.6386087,1.36695652 L21.9624348,1.36695652 L21.9624348,2.73391304 Z M5.05773913,2.73391304 L5.05773913,1.36695652 L7.336,1.36695652 L7.336,2.73391304 L5.05773913,2.73391304 Z M8.70295652,1.36695652 L10.9812174,1.36695652 L10.9812174,2.73391304 L8.70295652,2.73391304 L8.70295652,1.36695652 Z M12.3481739,1.36695652 L14.6264348,1.36695652 L14.6264348,2.73391304 L12.3481739,2.73391304 L12.3481739,1.36695652 Z M15.9933913,1.36695652 L18.2716522,1.36695652 L18.2716522,2.73391304 L15.9933913,2.73391304 L15.9933913,1.36695652 Z M1.36695652,1.36695652 L3.69078261,1.36695652 L3.69078261,2.73391304 L1.36695652,2.73391304 L1.36695652,1.36695652 Z M2.73391304,4.10086957 L20.5955238,4.10086957 L20.5955238,16.4034783 L2.73391304,16.4034783 L2.73391304,4.10086957 Z M7.336,17.7704348 L7.336,19.1373913 L5.05773913,19.1373913 L5.05773913,17.7704348 L7.336,17.7704348 Z M8.70295652,17.7704348 L10.9812174,17.7704348 L10.9812174,19.1373913 L8.70295652,19.1373913 L8.70295652,17.7704348 Z M12.3481739,17.7704348 L14.6264348,17.7704348 L14.6264348,19.1373913 L12.3481739,19.1373913 L12.3481739,17.7704348 Z M15.9933913,17.7704348 L18.2716522,17.7704348 L18.2716522,19.1373913 L15.9933913,19.1373913 L15.9933913,17.7704348 Z M1.36695652,17.7704348 L3.69078261,17.7704348 L3.69078261,19.1373913 L1.36695652,19.1373913 L1.36695652,17.7704348 Z M21.9624348,19.1373913 L19.6386087,19.1373913 L19.6386087,17.7704348 L21.9624348,17.7704348 L21.9624348,19.1373913 Z" id="Shape" fill="#404B8A" fill-rule="nonzero"></path>
                            <path d="M9.61426087,6.24115896 L9.61426087,14.2631889 L15.6307833,10.2521739 L9.61426087,6.24115896 Z M10.9812174,8.79536278 L13.1664341,10.2521739 L10.9812174,11.708985 L10.9812174,8.79536278 Z" id="Shape" fill="#404B8A" fill-rule="nonzero"></path>
                        </g>
                    </g>
                </g>
                <g id="Group" transform="translate(6.834783, 63.791304)" stroke="#000000" stroke-linecap="round" stroke-linejoin="round">
                    <rect id="Rectangle" stroke-width="1.5" x="0" y="0" width="34.173913" height="13.6695652"></rect>
                    <line x1="42.1478261" y1="1.13913043" x2="68.9173913" y2="1.13913043" id="Line-2" stroke-width="3"></line>
                    <line x1="42.1478261" y1="7.97391304" x2="108.217391" y2="7.97391304" id="Line-2-Copy" stroke-width="1.5"></line>
                    <line x1="42.1478261" y1="12.5304348" x2="108.217391" y2="12.5304348" id="Line-2-Copy-2" stroke-width="1.5"></line>
                </g>
                <path d="M89.8234915,38.8124388 C89.8234915,38.8110892 89.824304,38.8103927 89.8250657,38.8097396 C90.144024,38.3573597 90.423322,37.8825589 90.6605729,37.3880364 C90.924027,37.4649205 91.1763093,37.499575 91.4167594,37.499575 C93.7384365,37.499575 95,34.2755354 95,34.2755354 C94.7524404,34.2578599 94.5167637,34.2496752 94.2938332,34.2496752 C93.0036797,34.2496752 92.0999223,34.525866 91.4675409,34.9064554 C91.5809866,34.2962584 91.6421275,33.6670363 91.6492369,33.0255807 C94.2200477,32.6745955 93.5686233,29.0645246 93.5686233,29.0645246 C92.4895175,29.449903 91.8055422,29.9192618 91.3818726,30.3985033 C91.2366884,29.7165594 91.0756097,29.2274788 91.0184805,29.0638715 C91.6445142,27.1462526 88.0049063,26 88.0049063,26 C87.6835613,28.479883 89.1649577,29.2968748 90.0512463,29.5621381 C90.1313794,29.796491 90.4059039,30.6587164 90.518588,31.8583003 C89.4998105,30.8773965 87.9549373,30.2658499 87.9549373,30.2658499 C87.1995633,33.6113106 89.4482166,34.5980047 90.378939,34.8588709 C90.3551225,34.9785942 90.3297318,35.0969678 90.3019543,35.214645 C90.1345279,35.918705 89.8869683,36.5907663 89.5640491,37.2261269 C89.2093914,35.8438235 88.0429924,34.555122 88.0429924,34.555122 C85.5340841,37.2723619 86.9258005,39.0886296 87.6605573,39.7572951 C87.0876917,40.3041911 86.4314939,40.8055487 85.6951629,41.2606279 C86.0823714,39.7756672 85.383314,37.9451198 85.383314,37.9451198 C82.1094848,39.6967369 82.5014668,41.7014273 82.9172653,42.6136317 C82.6204985,42.7279131 82.3142356,42.8360558 82.0000508,42.9401498 C81.6231509,42.8156811 81.2581846,42.6836807 80.9058629,42.5449323 C81.2153251,41.5864494 81.335931,39.6096654 77.9644999,38.1389844 C77.9644999,38.1389844 77.560635,39.6198963 77.8494291,40.9661086 C77.2947941,40.5919624 76.7917531,40.1886037 76.3394935,39.7572951 C77.0741995,39.0886296 78.4651542,37.2723619 75.9570076,34.555122 C75.9570076,34.555122 74.7906086,35.8438671 74.4359509,37.2254304 C74.1161801,36.5975579 73.8710073,35.9336378 73.7035809,35.2384155 C73.6734167,35.1132502 73.6464517,34.9867353 73.621061,34.8588273 C74.5525959,34.5979612 76.8004367,33.6109188 76.0458752,30.2658063 C76.0458752,30.2658063 74.5001895,30.8773529 73.481412,31.8582568 C73.5940961,30.6640713 73.8686206,29.7977971 73.9495662,29.5620946 C74.8358548,29.2964395 76.3164387,28.4798395 75.9950937,26 C75.9950937,26 72.3515248,27.1472539 72.982332,29.0665707 C72.9243903,29.2332256 72.7633624,29.7206082 72.6189399,30.3991563 C72.1944578,29.9195666 71.5104825,29.4498594 70.4313767,29.0645246 C70.4313767,29.0645246 69.7799523,32.6745955 72.3507631,33.0255807 C72.3579233,33.6670363 72.4190134,34.296302 72.5324591,34.9064554 C71.9000777,34.525866 70.9963203,34.2496752 69.7061668,34.2496752 C69.4831855,34.2496752 69.2475596,34.2578599 69,34.2755354 C69,34.2755354 70.2616143,37.499575 72.5832406,37.499575 C72.8236399,37.499575 73.075973,37.464877 73.3394271,37.3880364 C73.576678,37.8825589 73.855976,38.3574033 74.1749343,38.8097396 C74.1757468,38.8104362 74.1765085,38.8110892 74.1765085,38.8124388 C73.8138782,38.7335521 73.4108258,38.6886232 72.9641014,38.6886232 C72.1627194,38.6886232 71.2200634,38.8342067 70.1163794,39.197469 C70.1163794,39.197469 72.4102789,42.0225469 74.8771401,42.0225469 C75.5000254,42.0225469 76.1331685,41.8422654 76.7441709,41.3912786 C77.8010344,42.1674339 79.0412189,42.8347498 80.4607635,43.3925733 C79.3776968,43.6735094 78.210536,43.9041183 76.959992,44.0843998 L77.1393013,45 C78.9174645,44.7442275 80.5385099,44.3878004 82.0000508,43.9320247 C83.4615916,44.3878004 85.082637,44.7442275 86.8608002,45 L87.0401095,44.0843998 C85.7896164,43.9041183 84.6224556,43.6735094 83.539338,43.3925733 C84.9588319,42.8347933 86.1990164,42.1674339 87.2559307,41.3912786 C87.8661206,41.8422654 88.5000762,42.0225469 89.1229614,42.0225469 C91.5898226,42.0225469 93.8837222,39.197469 93.8837222,39.197469 C92.7800382,38.8342067 91.8373822,38.6886232 91.0360001,38.6886232 C90.589225,38.6886232 90.1861218,38.7335085 89.8234915,38.8124388 Z" id="Shape" fill="#8DA4FA" fill-rule="nonzero"></path>
            </g>
        </g>
    </g>
</svg>