<svg xmlns="http://www.w3.org/2000/svg" width="80" height="80" viewBox="0 0 80 80">
  <g fill="none" fill-rule="evenodd">
    <path fill="#000" fill-rule="nonzero" d="M41.5749733,29.345969 C43.4724412,35.6008631 42.2049627,43.7757246 37.105049,47.8481556 C39.6625057,47.8406557 41.5074745,48.4481454 43.6149388,50.5706095 C45.6249047,47.6231594 47.4698735,47.1431676 49.7798344,47.0831686 C46.4648905,44.0832194 45.3324097,38.083321 46.8248844,33.4933987 C48.8948493,27.1185067 61.2771396,27.0885072 64.1045917,33.4184 C64.5095849,34.3333845 64.7570807,36.6358455 64.7570807,37.730827 C64.7570807,42.0657536 63.3096052,45.1782008 61.2321404,47.0906684 C67.1120408,47.2031665 69.871994,55.9030192 69.9997488,61.8804179 C70.0219915,62.8404017 68.5595163,62.8704012 68.5445165,61.9104174 C68.4320184,56.7205053 66.0395589,48.5456438 61.1271422,48.5456438 L59.0571772,48.5456438 C57.9321963,49.0781348 56.7172168,49.3406303 55.5097373,49.3406303 C52.8547823,49.3331305 53.0272793,48.5606435 51.21981,48.5381439 C48.5798547,48.5156443 46.6898867,48.4931447 44.6124219,51.7030903 C47.6873698,55.5805246 49.3448417,61.6104225 49.4723396,67.5653216 C49.4948392,68.5253054 48.0323639,68.5553049 48.0173642,67.5953211 C47.9048661,62.4504083 46.6598872,57.8154868 44.7324198,54.4780433 C42.8799512,51.2755976 40.412493,49.3106308 37.7500381,49.3106308 L34.7275893,49.3106308 C33.2651141,49.9781195 31.7051405,50.3156138 30.1451669,50.3156138 C28.5551939,50.3156138 26.9727207,49.9706197 25.4877458,49.2806313 L21.7303094,49.303131 C19.0603547,49.3181307 16.5928965,51.2980972 14.7404278,54.5005429 C12.8129605,57.8304865 11.5679816,62.4579082 11.4554835,67.5953211 C11.4404837,68.5553049 9.97800851,68.5253054 10.0002512,67.5653216 C10.1655053,59.5854568 13.8704426,47.8931548 21.7228096,47.8481556 L23.1552853,47.8406557 C18.0553717,43.7682247 16.7128944,35.3308676 18.6703613,29.3159695 C21.400315,20.9461113 37.7950373,20.8711125 41.537474,29.2334709 C41.5524737,29.2709703 41.5674735,29.3084696 41.5749733,29.345969 Z M58.6671838,47.1131681 C60.9996443,45.9131884 62.964611,43.1757348 63.2346065,39.0733042 C63.2646059,38.5858125 61.5996341,36.4108493 60.6321505,35.6008631 C57.2572077,38.203319 51.2498095,36.1858531 51.0923121,36.4708483 C50.2523263,37.9858227 48.9923477,39.1183035 47.8748666,40.3482826 C48.917349,46.3406811 53.9872631,49.4531284 58.6671838,47.1131681 Z M39.4300097,42.5007462 C40.1724971,40.9032732 40.6974882,38.9608061 40.8474856,36.785843 C40.8924849,36.0658552 38.2375299,32.4584163 37.0675497,31.768428 C32.440128,35.4958648 24.3777646,32.3834175 23.9652716,33.125905 C22.8252909,35.1958699 21.0928202,36.7183441 19.5778459,38.4058155 C21.640311,50.7956057 34.9300859,52.1755823 39.4300097,42.5007462 Z"/>
    <g transform="translate(52 11)">
      <circle cx="12.878" cy="12.512" r="11.122" fill="#879DEF"/>
      <circle cx="11.488" cy="11.122" r="11.122" stroke="#000"/>
      <g fill="#000" transform="translate(5 5)">
        <polygon points="5.935 .271 7.065 .271 7.065 12.729 5.935 12.729" transform="rotate(90 6.5 6.5)"/>
        <rect width="1.083" height="13" x="5.958"/>
      </g>
    </g>
  </g>
</svg>
