<svg xmlns="http://www.w3.org/2000/svg" width="100" height="100" viewBox="0 0 100 100">
  <g fill="none" fill-rule="evenodd" transform="translate(4 12)">
    <polygon fill="#8DA4FA" points="42.167 -42.167 44.722 -42.167 44.722 44.722 42.167 44.722" transform="rotate(90 12.139 35.139)"/>
    <g fill="#000" transform="translate(0 12.778)">
      <path fill-rule="nonzero" d="M85.8666667,3.12345679 C85.8666667,1.35349794 84.5377778,0 82.8,0 L9.2,0 C7.46222222,0 6.13333333,1.35349794 6.13333333,3.12345679 L6.13333333,48.9341564 L0,48.9341564 L0,49.9753086 C0,53.4111111 2.76,56.2222222 6.13333333,56.2222222 L85.8666667,56.2222222 C87.5022222,56.2222222 89.0355556,55.5975309 90.2622222,54.3481481 C91.3866667,53.2028807 92,51.6411523 92,49.9753086 L92,48.9341564 L85.8666667,48.9341564 L85.8666667,3.12345679 Z M8.17777778,3.12345679 C8.17777778,2.49876543 8.58666667,2.08230453 9.2,2.08230453 L82.8,2.08230453 C83.4133333,2.08230453 83.8222222,2.49876543 83.8222222,3.12345679 L83.8222222,48.9341564 L54.1777778,48.9341564 L37.8222222,48.9341564 L8.17777778,48.9341564 L8.17777778,3.12345679 Z M89.8533333,51.0164609 C89.6488889,51.7452675 89.3422222,52.3699588 88.8311111,52.890535 C88.0133333,53.7234568 86.9911111,54.1399177 85.8666667,54.1399177 L6.13333333,54.1399177 C4.19111111,54.1399177 2.65777778,52.7864198 2.14666667,51.0164609 L6.13333333,51.0164609 L6.13333333,51.0164609 L37.8222222,51.0164609 C37.8222222,52.1617284 38.7422222,53.0987654 39.8666667,53.0987654 L52.1333333,53.0987654 C53.2577778,53.0987654 54.1777778,52.1617284 54.1777778,51.0164609 L85.8666667,51.0164609 L89.8533333,51.0164609 Z"/>
      <polygon points="46.639 20.444 53.667 31.944 39.611 31.944" transform="rotate(90 46.639 26.194)"/>
    </g>
    <g transform="translate(61.333)">
      <circle cx="16.455" cy="15.988" r="14.211" fill="#879DEF"/>
      <circle cx="14.679" cy="14.211" r="14.211" stroke="#000" stroke-width="1.5"/>
      <g fill="#000" transform="translate(6.667 6)">
        <path d="M8.58333333,0.346064815 C9.13561808,0.346064815 9.58333333,0.793780065 9.58333333,1.34606481 L9.58333333,15.2650463 C9.58333333,15.817331 9.13561808,16.2650463 8.58333333,16.2650463 C8.03104858,16.2650463 7.58333333,15.817331 7.58333333,15.2650463 L7.58333333,1.34606481 C7.58333333,0.793780065 8.03104858,0.346064815 8.58333333,0.346064815 Z" transform="rotate(90 8.583 8.306)"/>
        <rect width="2" height="16.611" x="7.613" rx="1"/>
      </g>
    </g>
  </g>
</svg>
