<svg xmlns="http://www.w3.org/2000/svg" width="80" height="80" viewBox="0 0 80 80">
  <g fill="none" fill-rule="evenodd">
    <g transform="translate(4 16)">
      <path stroke="#000" d="M2.04962211,0 L11.0015027,0 L11.0015027,0 L69.5518642,0 C70.6564337,-2.02906125e-16 71.5518642,0.8954305 71.5518642,2 L71.5518642,45.8636364 C71.5518642,46.9682059 70.6564337,47.8636364 69.5518642,47.8636364 L2.04962211,47.8636364 C0.945052611,47.8636364 0.0496221102,46.9682059 0.0496221102,45.8636364 L0.0496221102,2 C0.0496221102,0.8954305 0.945052611,2.02906125e-16 2.04962211,0 Z"/>
      <line x1=".116" x2="71.386" y1="5.323" y2="5.295" stroke="#000" stroke-width=".8"/>
      <circle cx="2.222" cy="2.776" r="1" fill="#000"/>
      <circle cx="4.619" cy="2.776" r="1" fill="#000"/>
      <circle cx="6.876" cy="2.776" r="1" fill="#000"/>
    </g>
    <g fill-rule="nonzero" transform="translate(25 26)">
      <polygon fill="#8DA4FA" points="13.676 28.071 2.756 18.312 .927 20.258 11.781 30.016"/>
      <path fill="#8DA4FA" d="M14.3749266,13.4490093 C14.4357918,13.1590045 14.7222162,12.9728286 15.012221,13.0372741 C15.3022257,13.0981393 15.4884016,13.3845638 15.4239561,13.6745685 L15.1303711,15.0494058 L16.3082916,14.2868008 C16.5553326,14.125687 16.8883011,14.1972931 17.0458345,14.4479145 C17.2069482,14.6949556 17.1353421,15.027924 16.8847207,15.1854574 L15.7068002,15.9480625 L17.0780572,16.2416476 C17.368062,16.3025128 17.5542379,16.5889372 17.4897924,16.8789419 C17.4289272,17.1689467 17.1425027,17.3551226 16.852498,17.2906771 L15.4776607,16.997092 L16.2402658,18.1750125 C16.4013795,18.4220536 16.3297734,18.755022 16.0827323,18.9161358 C15.8356912,19.0772495 15.5027228,19.0056434 15.3416091,18.7586023 L14.579004,17.5806818 L14.285419,18.9519388 C14.2245538,19.2419436 13.9381293,19.4281195 13.6481246,19.363674 C13.3581198,19.3028088 13.1719439,19.0163843 13.2363894,18.7263796 L13.5299745,17.3515423 L12.352054,18.1141473 C12.1050129,18.2752611 11.7720445,18.203655 11.614511,17.9530336 C11.4533973,17.7059925 11.5250034,17.3730241 11.7756248,17.2154907 L12.9535453,16.4528856 L11.5822883,16.1593005 C11.2922836,16.0984353 11.1061077,15.8120109 11.1705532,15.5220062 C11.2314184,15.2320014 11.5178428,15.0458255 11.8078475,15.110271 L13.1791046,15.4038561 L12.4164995,14.2259356 C12.2553857,13.9788945 12.3269918,13.6459261 12.5740329,13.4848123 C12.821074,13.3236986 13.1540424,13.3953047 13.3151562,13.6423458 L14.0777612,14.8202663 L14.3713463,13.4490093 L14.3749266,13.4490093 Z"/>
      <path fill="#000" d="M23.6013739,4.68800171 L25.2590553,6.1738285 L25.3306614,6.238274 C25.7674587,6.03061628 26.2579605,5.74777214 26.7126593,5.45060679 C27.2389643,5.11047776 27.7115646,4.75244721 27.9836678,4.480344 C28.080336,4.38367575 28.1698437,4.28342719 28.2486104,4.18675894 C28.6925683,3.64255251 28.9073866,3.07328393 28.9324488,2.56846086 C28.993314,1.34041607 28.0409527,0.892877882 26.931058,1.12559774 C26.3009242,1.25806904 25.6206662,1.61251929 25.0299158,2.20685 C24.446326,2.7904398 24.0023681,3.68909648 23.6013739,4.68800171 Z M26.1827741,7.00803968 L27.8834192,8.53683013 L26.2507999,15.3895349 L15.9717428,26.8393519 L15.6137123,27.2403461 L12.2983494,30.9352213 L-1.77635684e-15,19.8935592 C4.65081685,14.7128571 9.305214,9.53215506 13.9560308,4.34787269 L20.5903369,1.98845137 L22.7528415,3.92897695 C23.1645766,2.96587477 23.6335966,2.09228023 24.2673107,1.45498585 C25.0155945,0.703121691 25.8856088,0.252003198 26.709079,0.0801485336 C28.5063924,-0.29936385 30.0924677,0.688800469 29.9957995,2.62216544 C29.9599964,3.34180685 29.6699917,4.13663467 29.0720807,4.86701699 C28.9682518,4.99232768 28.8572623,5.11763837 28.735532,5.23936876 C28.4097242,5.56517656 27.8726783,5.97333139 27.2890885,6.35284377 C26.9274777,6.58914394 26.544385,6.81470318 26.1791938,7.00803968 L26.1827741,7.00803968 Z M23.1896387,5.76209336 C22.981981,6.32062102 22.7814839,6.88272899 22.5559247,7.43409603 C23.028525,7.92101758 23.2934676,8.53683013 23.3400116,9.16338359 C23.4545813,10.6635316 22.3196245,11.9202188 20.8194765,11.9703431 C20.1320578,11.9918249 19.4267377,11.7555248 18.8646297,11.2507017 C18.3025217,10.7458786 17.9910351,10.0692009 17.9373306,9.38536253 C17.8227608,7.88521453 18.9577176,6.6285273 20.4578656,6.57840302 C20.8588599,6.5640818 21.2670147,6.64284852 21.6501074,6.80754257 C21.8864075,6.20605125 22.1012259,5.59739931 22.3303654,4.99232768 L20.3432959,3.20933554 L14.6577707,5.17134296 L4.47180157,16.5173311 L9.89596441,21.3865466 L15.1733347,26.1232908 L25.3628842,14.7773026 L26.7019184,8.91634251 L24.5394139,6.97581693 L23.1896387,5.76209336 Z M20.4936687,7.64533406 C19.6021726,7.6739765 18.9398161,8.41151944 19.0078419,9.30301551 C19.0400647,9.72191125 19.2334012,10.140807 19.5806908,10.4522936 C19.9279804,10.7637802 20.3647777,10.914153 20.7836734,10.8998318 C21.6751695,10.8711893 22.3339457,10.1336464 22.2695002,9.24215031 C22.2050547,8.40793913 21.2097298,7.62385223 20.4900884,7.64533406 L20.4936687,7.64533406 Z M14.4572736,26.9181186 L3.75574047,17.3121589 L1.51446923,19.8112122 L12.2160024,29.4171718 L14.4572736,26.9181186 Z"/>
    </g>
  </g>
</svg>
