<?xml version="1.0" encoding="UTF-8"?>
<svg width="47px" height="62px" viewBox="0 0 47 62" version="1.1" xmlns="http://www.w3.org/2000/svg" xmlns:xlink="http://www.w3.org/1999/xlink">
    <title>Shape</title>
    <g id="Component" stroke="none" stroke-width="1" fill="none" fill-rule="evenodd">
        <g id="Component/credit-card_director_description_filled-Copy" transform="translate(-167.000000, -109.000000)" fill="#606F87" fill-rule="nonzero">
            <g id="Group-15" transform="translate(13.000000, 16.000000)">
                <g id="director-chair" transform="translate(154.000000, 93.000000)">
                    <path d="M46.0007077,22.0376421 L39.7692308,18.9340802 L39.7692308,1.80062768 C39.7692308,0.806201032 38.9598667,0 37.9615385,0 C36.9632103,0 36.1538462,0.806201032 36.1538462,1.80062768 L36.1538462,3.60125535 L10.8461538,3.60125535 L10.8461538,1.80062768 C10.8461538,0.806201032 10.0367897,0 9.03846154,0 C8.04013333,0 7.23076923,0.806201032 7.23076923,1.80062768 L7.23076923,18.9340802 L0.999292308,22.0376421 C0.992182051,22.0411233 0.985915385,22.0455648 0.978805128,22.0491661 C0.370576923,22.3628354 0,22.9944956 0,23.6482435 L0,34.4520096 C0,37.4306079 2.43279231,39.8538926 5.42307692,39.8538926 L8.43589744,39.8538926 L20.4871795,48.857031 L7.95384615,58.2202949 C7.15520769,58.8170229 6.99323846,59.9456563 7.59230769,60.7411736 C8.19137692,61.536691 9.32419744,61.6980272 10.1230769,61.1012992 L23.5,51.1078156 L36.8769231,61.1012992 C37.6755615,61.6980272 38.8087436,61.536691 39.4076923,60.7411736 C40.0067615,59.9456563 39.8447923,58.8170229 39.0461538,58.2202949 L26.5128205,48.857031 L38.5641026,39.8538926 L41.5769231,39.8538926 C44.5672077,39.8538926 47,37.4306079 47,34.4520096 L47,23.6482435 C47,22.9724079 46.6035128,22.3366663 46.0007077,22.0376421 Z M10.8461538,7.20251071 L36.1538462,7.20251071 L36.1538462,18.2463605 L10.8461538,18.2463605 L10.8461538,7.20251071 Z M10.8461538,21.8476158 L36.1538462,21.8476158 L36.1538462,29.0501265 L10.8461538,29.0501265 L10.8461538,21.8476158 Z M3.61538462,24.7610314 L7.23076923,22.9604037 L7.23076923,29.0501265 L5.42307692,29.0501265 C4.7893,29.0501265 4.18119231,29.1599648 3.61538462,29.3598345 L3.61538462,24.7610314 Z M23.5,46.6062464 L14.4615385,39.8538926 L32.5384615,39.8538926 L23.5,46.6062464 Z M41.5769231,36.2526372 L5.42307692,36.2526372 C4.42631538,36.2526372 3.61538462,35.4448757 3.61538462,34.4520096 C3.61538462,33.4591435 4.42631538,32.6513819 5.42307692,32.6513819 L41.5769231,32.6513819 C42.5736846,32.6513819 43.3846154,33.4591435 43.3846154,34.4520096 C43.3846154,35.4448757 42.5739256,36.2526372 41.5769231,36.2526372 Z M43.3846154,29.3598345 C42.8188077,29.1599648 42.2107,29.0501265 41.5769231,29.0501265 L39.7692308,29.0501265 L39.7692308,22.9605238 L43.3846154,24.7611514 L43.3846154,29.3598345 Z" id="Shape"></path>
                </g>
            </g>
        </g>
    </g>
</svg>