<?xml version="1.0" encoding="UTF-8"?>
<svg width="67px" height="54px" viewBox="0 0 67 54" version="1.1" xmlns="http://www.w3.org/2000/svg" xmlns:xlink="http://www.w3.org/1999/xlink">
    <title>movie-frame</title>
    <g id="Component" stroke="none" stroke-width="1" fill="none" fill-rule="evenodd">
        <g id="credit-cards" transform="translate(-622.000000, -927.000000)" fill="#7D83A1" fill-rule="nonzero">
            <g id="Component/credit-card_director_description_filled-Copy-4" transform="translate(465.000000, 814.000000)">
                <g id="Group-15" transform="translate(14.000000, 16.000000)">
                    <g id="movie-frame" transform="translate(143.000000, 97.000000)">
                        <polygon id="Path" points="46.2068966 13.862069 48.5172414 13.862069 48.5172414 16.1724138 46.2068966 16.1724138"></polygon>
                        <polygon id="Path" points="41.5862069 13.862069 43.8965517 13.862069 43.8965517 16.1724138 41.5862069 16.1724138"></polygon>
                        <polygon id="Path" points="50.8275862 13.862069 53.137931 13.862069 53.137931 16.1724138 50.8275862 16.1724138"></polygon>
                        <path d="M30.0344828,1.1852069 C28.9312931,2.02039655 28.1238276,3.22524138 27.8396552,4.62993103 C28.4807759,4.00267241 29.2235517,3.49093103 30.0344828,3.10510345 L30.0344828,1.1852069 Z" id="Path"></path>
                        <polygon id="Path" points="36.9655172 13.862069 39.2758621 13.862069 39.2758621 16.1724138 36.9655172 16.1724138"></polygon>
                        <polygon id="Path" points="36.9655172 27.7241379 39.2758621 27.7241379 39.2758621 30.0344828 36.9655172 30.0344828"></polygon>
                        <polygon id="Path" points="46.2068966 0 48.5172414 0 48.5172414 2.31034483 46.2068966 2.31034483"></polygon>
                        <path d="M34.6551724,2.31034483 L34.6551724,0 L33.5,0 C33.104931,0 32.7179483,0.0404310345 32.3448276,0.116672414 L32.3448276,2.40160345 C32.7237241,2.34615517 33.1083966,2.31034483 33.5,2.31034483 L34.6551724,2.31034483 Z" id="Path"></path>
                        <path d="M28.2197069,8.09660345 C28.9659483,9.78662069 30.491931,11.0573103 32.3448276,11.4350517 L32.3448276,4.75237931 C30.5208103,5.12665517 28.9740345,6.365 28.2197069,8.09660345 Z" id="Path"></path>
                        <polygon id="Path" points="50.8275862 0 53.137931 0 53.137931 2.31034483 50.8275862 2.31034483"></polygon>
                        <polygon id="Path" points="36.9655172 0 39.2758621 0 39.2758621 2.31034483 36.9655172 2.31034483"></polygon>
                        <path d="M34.6551724,16.1724138 L34.6551724,13.862069 L33.5,13.862069 C33.1072414,13.862069 32.7237241,13.8239483 32.3448276,13.7696552 L32.3448276,16.0557414 C32.7179483,16.1319828 33.104931,16.1724138 33.5,16.1724138 L34.6551724,16.1724138 Z" id="Path"></path>
                        <polygon id="Path" points="34.6551724 4.62068966 46.2068966 4.62068966 46.2068966 11.5517241 34.6551724 11.5517241"></polygon>
                        <polygon id="Path" points="41.5862069 0 43.8965517 0 43.8965517 2.31034483 41.5862069 2.31034483"></polygon>
                        <polygon id="Path" points="48.5172414 4.62068966 53.137931 4.62068966 53.137931 11.5517241 48.5172414 11.5517241"></polygon>
                        <polygon id="Path" points="55.4482759 27.7241379 57.7586207 27.7241379 57.7586207 30.0344828 55.4482759 30.0344828"></polygon>
                        <polygon id="Path" points="55.4482759 13.862069 57.7586207 13.862069 57.7586207 16.1724138 55.4482759 16.1724138"></polygon>
                        <path d="M64.6896552,15.0472759 L64.6896552,16.9671724 C65.5005862,17.353 66.2433621,17.8647414 66.8844828,18.492 C66.6003103,17.0873103 65.7928448,15.8813103 64.6896552,15.0472759 Z" id="Path"></path>
                        <polygon id="Path" points="27.7241379 27.7241379 30.0344828 27.7241379 30.0344828 30.0344828 27.7241379 30.0344828"></polygon>
                        <path d="M66.504431,21.9586724 C65.5941552,19.8689655 63.5310172,18.4827586 61.2241379,18.4827586 L57.7586207,18.4827586 L57.7586207,25.4137931 L61.2241379,25.4137931 C63.5818448,25.4137931 65.6080172,23.9894655 66.504431,21.9586724 Z" id="Path"></path>
                        <path d="M66.8844828,25.3987759 C66.2468276,26.0260345 65.5052069,26.5435517 64.6896552,26.9328448 L64.6896552,28.8492759 C65.794,28.0140862 66.6014655,26.8057759 66.8844828,25.3987759 Z" id="Path"></path>
                        <path d="M60.0689655,27.7241379 L60.0689655,30.0344828 L61.2241379,30.0344828 C61.6192069,30.0344828 62.0061897,29.9940517 62.3793103,29.9178103 L62.3793103,27.6317241 C62.0004138,27.6860172 61.6168966,27.7241379 61.2241379,27.7241379 L60.0689655,27.7241379 Z" id="Path"></path>
                        <path d="M62.3793103,16.2636724 L62.3793103,13.9787414 C62.0061897,13.9025 61.6192069,13.862069 61.2241379,13.862069 L60.0689655,13.862069 L60.0689655,16.1724138 L61.2241379,16.1724138 C61.6157414,16.1724138 62.0004138,16.2082241 62.3793103,16.2636724 Z" id="Path"></path>
                        <path d="M36.9655172,18.4827586 L33.5,18.4827586 C31.2381724,18.4827586 29.1935172,17.547069 27.7241379,16.0441897 L27.7241379,25.4137931 L36.9655172,25.4137931 L36.9655172,18.4827586 Z" id="Path"></path>
                        <polygon id="Path" points="32.3448276 27.7241379 34.6551724 27.7241379 34.6551724 30.0344828 32.3448276 30.0344828"></polygon>
                        <polygon id="Path" points="41.5862069 27.7241379 43.8965517 27.7241379 43.8965517 30.0344828 41.5862069 30.0344828"></polygon>
                        <polygon id="Path" points="50.8275862 27.7241379 53.137931 27.7241379 53.137931 30.0344828 50.8275862 30.0344828"></polygon>
                        <polygon id="Path" points="39.2758621 18.4827586 55.4482759 18.4827586 55.4482759 25.4137931 39.2758621 25.4137931"></polygon>
                        <polygon id="Path" points="46.2068966 27.7241379 48.5172414 27.7241379 48.5172414 30.0344828 46.2068966 30.0344828"></polygon>
                        <polygon id="Path" points="6.93103448 32.3448276 23.1034483 32.3448276 23.1034483 48.5172414 6.93103448 48.5172414"></polygon>
                        <polygon id="Path" points="18.4827586 50.8275862 20.7931034 50.8275862 20.7931034 53.137931 18.4827586 53.137931"></polygon>
                        <polygon id="Path" points="36.9655172 50.8275862 39.2758621 50.8275862 39.2758621 53.137931 36.9655172 53.137931"></polygon>
                        <polygon id="Path" points="41.5862069 50.8275862 43.8965517 50.8275862 43.8965517 53.137931 41.5862069 53.137931"></polygon>
                        <polygon id="Path" points="25.4137931 32.3448276 41.5862069 32.3448276 41.5862069 48.5172414 25.4137931 48.5172414"></polygon>
                        <polygon id="Path" points="23.1034483 50.8275862 25.4137931 50.8275862 25.4137931 53.137931 23.1034483 53.137931"></polygon>
                        <polygon id="Path" points="27.7241379 50.8275862 30.0344828 50.8275862 30.0344828 53.137931 27.7241379 53.137931"></polygon>
                        <polygon id="Path" points="43.8965517 32.3448276 60.0689655 32.3448276 60.0689655 48.5172414 43.8965517 48.5172414"></polygon>
                        <polygon id="Path" points="32.3448276 50.8275862 34.6551724 50.8275862 34.6551724 53.137931 32.3448276 53.137931"></polygon>
                        <path d="M64.6896552,51.9527241 C65.7928448,51.1175345 66.6003103,49.9103793 66.8844828,48.5056897 C66.2468276,49.1317931 65.5052069,49.647 64.6896552,50.0351379 L64.6896552,51.9527241 Z" id="Path"></path>
                        <path d="M62.3793103,32.2524138 L62.3793103,48.400569 C65.0119483,47.8634138 67,45.5311207 67,42.7413793 L67,41.5862069 L67,29.9062586 C65.7859138,31.148069 64.1767586,31.9936552 62.3793103,32.2524138 L62.3793103,32.2524138 Z" id="Path"></path>
                        <polygon id="Path" points="46.2068966 50.8275862 48.5172414 50.8275862 48.5172414 53.137931 46.2068966 53.137931"></polygon>
                        <path d="M60.0689655,50.8275862 L60.0689655,53.137931 L61.2241379,53.137931 C61.6192069,53.137931 62.0061897,53.0975 62.3793103,53.0212586 L62.3793103,50.7351724 C62.0004138,50.7894655 61.6168966,50.8275862 61.2241379,50.8275862 L60.0689655,50.8275862 Z" id="Path"></path>
                        <polygon id="Path" points="50.8275862 50.8275862 53.137931 50.8275862 53.137931 53.137931 50.8275862 53.137931"></polygon>
                        <polygon id="Path" points="55.4482759 50.8275862 57.7586207 50.8275862 57.7586207 53.137931 55.4482759 53.137931"></polygon>
                        <polygon id="Path" points="0 27.7241379 2.31034483 27.7241379 2.31034483 30.0344828 0 30.0344828"></polygon>
                        <polygon id="Path" points="13.862069 27.7241379 16.1724138 27.7241379 16.1724138 30.0344828 13.862069 30.0344828"></polygon>
                        <polygon id="Path" points="4.62068966 27.7241379 6.93103448 27.7241379 6.93103448 30.0344828 4.62068966 30.0344828"></polygon>
                        <polygon id="Path" points="9.24137931 27.7241379 11.5517241 27.7241379 11.5517241 30.0344828 9.24137931 30.0344828"></polygon>
                        <polygon id="Path" points="18.4827586 27.7241379 20.7931034 27.7241379 20.7931034 30.0344828 18.4827586 30.0344828"></polygon>
                        <polygon id="Path" points="23.1034483 27.7241379 25.4137931 27.7241379 25.4137931 30.0344828 23.1034483 30.0344828"></polygon>
                        <polygon id="Path" points="13.862069 50.8275862 16.1724138 50.8275862 16.1724138 53.137931 13.862069 53.137931"></polygon>
                        <polygon id="Path" points="9.24137931 50.8275862 11.5517241 50.8275862 11.5517241 53.137931 9.24137931 53.137931"></polygon>
                        <polygon id="Path" points="4.62068966 50.8275862 6.93103448 50.8275862 6.93103448 53.137931 4.62068966 53.137931"></polygon>
                        <polygon id="Path" points="0 32.3448276 4.62068966 32.3448276 4.62068966 48.5172414 0 48.5172414"></polygon>
                        <path d="M30.0344828,14.9872069 L30.0344828,13.0696207 C29.2200862,12.6803276 28.4773103,12.1651207 27.8396552,11.5401724 C28.1238276,12.9460172 28.9312931,14.1520172 30.0344828,14.9872069 L30.0344828,14.9872069 Z" id="Path"></path>
                        <polygon id="Path" points="0 50.8275862 2.31034483 50.8275862 2.31034483 53.137931 0 53.137931"></polygon>
                    </g>
                </g>
            </g>
        </g>
    </g>
</svg>