<?xml version="1.0" encoding="UTF-8"?>
<svg width="62px" height="59px" viewBox="0 0 62 59" version="1.1" xmlns="http://www.w3.org/2000/svg" xmlns:xlink="http://www.w3.org/1999/xlink">
    <title>theatre</title>
    <g id="Component" stroke="none" stroke-width="1" fill="none" fill-rule="evenodd">
        <g id="Component/credit-card_director_description_filled-Copy-2" transform="translate(-159.000000, -113.000000)" fill="#606F87" fill-rule="nonzero">
            <g id="Group-15" transform="translate(13.000000, 16.000000)">
                <g id="theatre" transform="translate(146.000000, 97.000000)">
                    <path d="M16.089106,29.8221903 C13.9014865,30.5173242 12.1370576,31.3245909 11.3692866,31.9819474 C11.1395664,32.1786297 10.8654021,32.2739726 10.5933212,32.2739726 C10.2248522,32.2739726 9.85999433,32.0990273 9.61319095,31.7632284 C9.18416696,31.1793279 9.27486061,30.3306859 9.81568917,29.8676132 C11.2141491,28.6705797 13.9041253,27.7033588 15.3830012,27.23354 C16.0452175,27.0226163 16.7400725,27.4318713 16.9350708,28.1467933 C17.1300691,28.8617153 16.7513224,29.6117163 16.089106,29.8221903 Z M32.8830322,37.6282058 C33.5117654,40.9978434 32.9008599,44.0736231 31.116455,46.5231969 C29.5439414,48.6817534 27.1768015,50.1757563 24.4509298,50.7296693 C23.6961777,50.8830606 22.940473,50.9589041 22.1955194,50.9589041 C20.2502568,50.9589041 18.3753524,50.4422027 16.7602428,49.4407563 C14.2255768,47.8690636 12.5535818,45.2570085 11.9248485,41.8873709 L11.9126005,41.8213274 C11.8044094,41.2347477 12.0998596,40.648168 12.6242122,40.4087072 C13.5181838,40.0000898 14.5350442,39.6011304 15.6462146,39.2229072 C15.9970532,39.1034608 16.3808254,39.1555855 16.6909733,39.3646521 C20.9120598,42.2129014 24.6697617,41.4490695 27.5582602,37.1562435 C27.7704237,36.8409391 28.1073812,36.6423826 28.4756392,36.6155391 C29.6411093,36.5310319 30.7272392,36.5027681 31.703681,36.5313159 C32.2764815,36.5480754 32.7616404,36.9771449 32.8714646,37.5641507 L32.8833044,37.6273536 L32.8830322,37.6282058 Z M30.5192821,39.0684932 C30.0463215,39.0740472 29.5512827,39.0908518 29.0368896,39.118907 C26.7523709,42.1087038 23.9533157,43.6295212 20.9088199,43.6298061 C19.0070852,43.6299485 17.0102997,43.036945 14.9819739,41.8376939 C14.4946768,42.0034614 14.0293145,42.1725044 13.5890411,42.3435412 C15.0559502,47.4189613 19.6645564,48.9817902 23.5298159,48.2344122 C27.3955056,47.4867494 31.0759678,44.3209313 30.5192821,39.0684932 Z M23.5215907,27.904027 C25.9009472,27.6992145 27.9099033,27.7279289 28.8950169,27.9806411 C29.0184837,28.0124048 29.142824,28.0273973 29.2652717,28.0273973 C29.8316464,28.0273973 30.3539051,27.7044238 30.5217792,27.2063687 C30.7259071,26.600444 30.3287167,25.9649155 29.6343616,25.7865305 C27.9297046,25.3490805 25.2291597,25.4588559 23.2640285,25.6282201 C22.5437571,25.6900958 22.0175672,26.2500266 22.0886189,26.87844 C22.1598161,27.5069805 22.802484,27.9661568 23.5215907,27.904027 Z M38.4613443,11.8851784 C38.5039498,11.8886242 38.5461114,11.890411 38.5878292,11.890411 C39.2667054,11.890411 39.8467607,11.4443654 39.9118524,10.8495104 C39.9807903,10.2178998 39.4433405,9.65763084 38.7112075,9.5981581 C36.2927572,9.40148967 34.2956274,9.03674057 33.3691071,8.62234576 C32.7159717,8.33021466 31.9125337,8.55023826 31.5743531,9.11357015 C31.2358765,9.6766468 31.4907695,10.3698998 32.143609,10.6619033 C33.8312577,11.4165434 36.8263607,11.7523219 38.4613443,11.8851784 Z M47.1929583,11.890411 C47.234823,11.890411 47.2769836,11.8886241 47.3194401,11.8851781 C49.3172601,11.722833 52.0350645,11.3786152 53.6374626,10.6615907 C54.290286,10.3695736 54.5448768,9.67616061 54.2064086,9.1130577 C53.8677925,8.55008241 53.0643745,8.33043143 52.4115511,8.62219328 C51.4856455,9.03647978 49.4887131,9.40124591 47.0695831,9.59805114 C46.3376162,9.65752666 45.8000318,10.2176941 45.868968,10.8494619 C45.9339101,11.4443446 46.513951,11.890411 47.1929583,11.890411 Z M40.4854445,36.8505883 C42.1961698,45.604211 35.9722019,54.7145907 25.686204,58.5128548 C25.558144,58.5601627 25.4232411,58.586182 25.286802,58.5903562 C25.009036,58.5985655 24.7305719,58.6027397 24.45518,58.6027397 C13.8585981,58.6027397 5.07831775,52.5755799 3.41102388,44.0436084 L0.0415233927,26.8032349 C-0.293499472,25.0892991 1.39194903,23.5118605 5.34588916,21.838693 C8.55744431,20.4797053 12.91735,19.2285517 17.6227525,18.3157884 C22.3281549,17.4028859 26.8404199,16.9303639 30.329322,16.9915859 C34.62429,17.0640782 36.7807815,17.896279 37.1158044,19.6100756 L40.4854445,36.8505883 Z M37.9834272,37.3301386 L34.6416096,20.2477389 C34.3274252,20.0087019 32.9508987,19.5181347 29.4852482,19.5346535 C26.2872052,19.555892 22.2426912,20.0102288 18.0970747,20.8138207 C13.9514583,21.6174125 10.0311956,22.7069604 7.05878531,23.8817397 C3.83898789,25.1543827 2.74917383,26.1294093 2.54794521,26.4686697 L5.8896233,43.5512082 C7.35121526,51.0239599 15.3682863,56.2557051 24.9897478,56.0488729 C33.9878606,52.6471072 39.4451586,44.8030291 37.9834272,37.3301386 Z M55.7676062,1.12751784 C52.3143189,0.400443914 47.7410235,0 42.8903403,0 C38.0395158,0 33.4662205,0.400303849 30.0129331,1.12751784 C25.7611136,2.02266896 23.7808219,3.25831646 23.7808219,5.01612378 L23.7808219,12.7490753 C23.7808219,13.4453351 24.3501523,14.0096543 25.0525948,14.0096543 C25.7550374,14.0096543 26.3243677,13.4453351 26.3243677,12.7490753 L26.3243677,5.13685923 C26.5903096,4.83950266 27.8639195,4.08301522 31.3142394,3.44068022 C34.4991827,2.84778792 38.6104005,2.52129797 42.8903403,2.52129797 C47.1702801,2.52129797 51.2813566,2.84778792 54.4664412,3.44068022 C57.9167611,4.08301522 59.190371,4.83950266 59.4563129,5.13685923 L59.4563129,22.696584 C59.4563129,29.775295 53.6491152,36.0405125 45.0057226,38.2868642 C44.3263132,38.4634853 43.9199111,39.1526018 44.0981006,39.825891 C44.2478872,40.3921711 44.7632379,40.7671233 45.3274811,40.7671233 C45.4341687,40.7671233 45.5426934,40.7536771 45.6509354,40.7256642 C50.3172115,39.5128472 54.3473185,37.1939422 57.3054623,34.0196644 C60.3766525,30.7240908 62,26.8087326 62,22.696584 L62,5.01612378 C62,3.25831646 60.0194257,2.02266896 55.7676062,1.12751784 Z M49.2116242,29.7260274 C49.2616193,29.7260274 49.311887,29.7229807 49.3620184,29.7166102 C50.5230778,29.5706437 51.5953175,29.386593 52.5489038,29.1694436 C53.1087951,29.0418961 53.5068493,28.5365529 53.5068493,27.9532409 L53.5068493,27.8905058 C53.5068493,24.6194163 52.3866579,21.8367745 50.2675167,19.8436534 C48.0968818,17.801923 45.0454056,16.7732332 41.8980259,17.0232043 C41.2228868,17.0766607 40.7183035,17.6763142 40.7708869,18.3625229 C40.8234704,19.04887 41.4125143,19.5636304 42.0883345,19.5083736 C44.5583955,19.3126899 46.9317356,20.1020722 48.6024188,21.673497 C50.0044631,22.9920424 50.8289065,24.8002818 51.0147196,26.9424161 C50.5729367,27.0245396 50.1082677,27.0998771 49.6235735,27.1680133 C47.6713098,25.393288 45.6078853,24.4068371 43.4827501,24.2344193 C42.8084284,24.180409 42.2169324,24.6917071 42.1629867,25.3777773 C42.1091772,26.0639859 42.6126708,26.6646089 43.2876736,26.7194502 C44.9928222,26.8577999 46.6998779,27.7521562 48.3617063,29.3778683 C48.5913844,29.6026345 48.8966682,29.7260274 49.2116242,29.7260274 Z" id="XMLID_113_"></path>
                </g>
            </g>
        </g>
    </g>
</svg>