<svg xmlns="http://www.w3.org/2000/svg" xmlns:xlink="http://www.w3.org/1999/xlink" width="380" height="380" viewBox="0 0 380 380">
  <defs>
    <rect id="join_orga-a" width="380" height="190" x="0" y="179.431"/>
    <ellipse id="join_orga-c" cx="65.72" cy="89.925" rx="16.573" ry="16.503"/>
  </defs>
  <g fill="none" fill-rule="evenodd">
    <g transform="translate(0 11)">
      <mask id="join_orga-b" fill="#fff">
        <use xlink:href="#join_orga-a"/>
      </mask>
      <path fill="#F5F5FF" fill-rule="nonzero" d="M201.834248,255.113937 C207.104145,255.113937 211.559095,258.603137 213.014924,263.397362 C215.818895,262.327054 218.870195,261.740113 222.06152,261.740113 C235.832931,261.740113 246.996865,272.669838 246.996865,286.152338 C246.996865,286.905993 246.961982,287.651671 246.893709,288.38791 C249.179303,288.93884 251.407568,289.633405 253.568622,290.460362 C259.202545,285.400293 266.685374,282.316132 274.896552,282.316132 C290.117547,282.316132 302.83581,292.913847 305.919246,307.055558 C316.973406,299.377896 330.450803,294.87099 344.994514,294.87099 C382.552907,294.87099 413,324.927736 413,362.004611 C413,399.081486 382.552907,429.138232 344.994514,429.138232 C310.774334,429.138232 282.457517,404.186968 277.694218,371.708309 C267.827457,384.960833 251.89453,393.566132 233.918887,393.566132 C222.827281,393.566132 212.513403,390.289814 203.922387,384.667117 C196.022032,390.267759 186.328201,393.566132 175.852665,393.566132 C158.186164,393.566132 142.742929,384.18515 134.372097,370.202045 C127.059216,374.625115 118.452855,377.175066 109.242163,377.175066 C104.515774,377.175066 99.948514,376.503627 95.6332371,375.252259 C91.025977,405.746856 64.3669287,429.138232 32.169279,429.138232 C-3.2704352,429.138232 -32,400.799014 -32,365.840818 C-32,330.882622 -3.2704352,302.543404 32.169279,302.543404 C44.1100558,302.543404 55.2890747,305.760564 64.8641016,311.364092 C72.1486566,294.298976 89.2754591,282.316132 109.242163,282.316132 C120.082151,282.316132 130.085096,285.848002 138.130788,291.80777 C144.613046,283.689912 154.648741,278.479925 165.913401,278.479925 C166.145448,278.479925 166.376974,278.482135 166.607957,278.486537 C165.821945,276.542132 165.390282,274.421716 165.390282,272.202495 C165.390282,262.764745 173.197229,255.113937 182.827586,255.113937 C186.828327,255.113937 190.514379,256.43433 193.456749,258.654702 C195.578599,256.470783 198.547969,255.113937 201.834248,255.113937 Z" mask="url(#join_orga-b)"/>
      <path stroke="#000" d="M188.976171,130.431034 C198.571228,153.519173 199.592607,174.841914 197.786076,191.368141 L197.774279,191.475623 C197.699001,192.158771 197.6189,192.833691 197.534384,193.500168 C197.506528,193.719835 197.478189,193.938603 197.449386,194.156445 C197.37551,194.715162 197.298575,195.267795 197.218825,195.814212 L204.588763,195.814746 L204.589063,266.419919 C208.611299,267.392172 211.821245,270.445754 213.014924,274.376685 C215.818895,273.306377 218.870195,272.719436 222.06152,272.719436 C235.832931,272.719436 246.996865,283.649161 246.996865,297.131661 C246.996865,297.885115 246.962,298.630597 246.893764,299.366644 C249.179303,299.918163 251.407568,300.612728 253.568622,301.439685 C259.202545,296.379616 266.685374,293.295455 274.896552,293.295455 C290.117244,293.295455 302.835305,303.892749 305.919063,318.034038 C316.973406,310.357219 330.450803,305.850313 344.994514,305.850313 C382.552907,305.850313 413,335.907059 413,372.983934 C413,410.060809 382.552907,440.117555 344.994514,440.117555 C310.774334,440.117555 282.457517,415.166291 277.694218,382.687632 C267.827457,395.940156 251.89453,404.545455 233.918887,404.545455 C222.827281,404.545455 212.513403,401.269137 203.922387,395.64644 C196.022032,401.247082 186.328201,404.545455 175.852665,404.545455 C158.186164,404.545455 142.742929,395.164473 134.372097,381.181368 C127.059216,385.604438 118.452855,388.154389 109.242163,388.154389 C104.515774,388.154389 99.948514,387.48295 95.6332371,386.231582 C91.0264744,416.725742 64.3672291,440.117555 32.169279,440.117555 C-3.2704352,440.117555 -32,411.778337 -32,376.820141 C-32,341.861945 -3.2704352,313.522727 32.169279,313.522727 C44.1100558,313.522727 55.2890747,316.739887 64.8641016,322.343415 C72.1492442,305.277888 89.2758016,293.295455 109.242163,293.295455 C120.082151,293.295455 130.085096,296.827325 138.130788,302.787093 C144.613046,294.669235 154.648741,289.459248 165.913401,289.459248 C166.145448,289.459248 166.376974,289.461458 166.607957,289.46586 C165.821945,287.521455 165.390282,285.401039 165.390282,283.181818 C165.390282,276.122075 169.758679,270.06222 175.990983,267.456652 L175.991584,195.814746 L181.609927,195.814136 C181.602513,195.75949 181.595134,195.704856 181.587792,195.650242 L181.533081,195.238423 L181.533081,195.238423 C181.499847,194.985255 181.467388,194.732377 181.435716,194.479953 C181.410902,194.282178 181.386584,194.084795 181.362745,193.887694 L181.21043,192.574088 L181.21043,192.574088 L181.072069,191.268955 L181.072069,191.268955 C177.511759,156.044553 188.976171,130.431034 188.976171,130.431034 Z" mask="url(#join_orga-b)"/>
      <g transform="translate(125.284)">
        <path fill="#FF6E61" fill-rule="nonzero" d="M62.9941963,225.870995 C62.9941963,225.870995 67.6790155,216.527425 70.4844579,201.303155 C72.2914548,203.278212 73.2912881,205.921313 73.1896928,208.685033 C73.1896928,208.685033 74.525257,233.102838 62.9550531,246.098268 C51.3848491,233.102838 52.7063548,208.685033 52.7063548,208.685033 C52.5908511,205.542962 53.8989875,202.556797 56.1969323,200.529134 C57.5324077,208.62417 59.7027662,217.129397 62.9941963,225.870995 Z"/>
        <path stroke="#000" d="M63.6916884,130.431034 C73.2867448,153.519173 74.3081241,174.841914 72.5015929,191.368141 L72.4897964,191.475623 C72.4145186,192.158771 72.3344177,192.833691 72.2499011,193.500168 C72.2220449,193.719835 72.1937067,193.938603 72.1649033,194.156445 C69.7235113,212.620494 63.9404926,224.438915 63.6994615,224.925592 L63.6916884,224.941223 C60.1398755,215.508082 57.8935245,206.350191 56.5927704,197.684967 C56.5725986,197.55059 56.5526162,197.416074 56.5328607,197.281677 C56.5092956,197.121364 56.4860245,196.961021 56.4630747,196.800849 C56.4356931,196.609748 56.4087535,196.41878 56.3822679,196.228059 C56.3555205,196.035457 56.3291844,195.842722 56.3033092,195.650242 C56.2848392,195.512849 56.2666021,195.37557 56.2485984,195.238423 C56.2153639,194.985255 56.1829052,194.732377 56.1512337,194.479953 C56.126419,194.282178 56.1021014,194.084795 56.078262,193.887694 C55.9720065,193.009191 55.8752397,192.136161 55.7875802,191.268955 C55.7875802,191.268955 55.7875822,191.268955 55.787586,191.268955 C52.2272766,156.044553 63.6916884,130.431034 63.6916884,130.431034 Z"/>
        <path stroke="#000" d="M63.6916884,130.431034 C73.2867448,153.519173 74.3081241,174.841914 72.5015929,191.368141 L72.4897964,191.475623 C72.4145186,192.158771 72.3344177,192.833691 72.2499011,193.500168 C72.2220449,193.719835 72.1937067,193.938603 72.1649033,194.156445 C69.7235113,212.620494 63.9404926,224.438915 63.6994615,224.925592 L63.6916884,224.941223 C60.1398755,215.508082 57.8935245,206.350191 56.5927704,197.684967 C56.5725986,197.55059 56.5526162,197.416074 56.5328607,197.281677 C56.5092956,197.121364 56.4860245,196.961021 56.4630747,196.800849 C56.4356931,196.609748 56.4087535,196.41878 56.3822679,196.228059 C56.3555205,196.035457 56.3291844,195.842722 56.3033092,195.650242 C56.2848392,195.512849 56.2666021,195.37557 56.2485984,195.238423 C56.2153639,194.985255 56.1829052,194.732377 56.1512337,194.479953 C56.126419,194.282178 56.1021014,194.084795 56.078262,193.887694 C55.9720065,193.009191 55.8752397,192.136161 55.7875802,191.268955 C55.7875802,191.268955 55.7875822,191.268955 55.787586,191.268955 C52.2272766,156.044553 63.6916884,130.431034 63.6916884,130.431034 Z"/>
        <path stroke="#000" stroke-linecap="round" d="M55.3894061,200.594219 C54.0385433,202.524091 53.3167972,204.882385 53.4061705,207.330108 C53.4061705,207.330108 52.0174696,233.163437 64.175989,246.912226"/>
        <path stroke="#000" stroke-linecap="round" d="M66.2005346,200.594219 C64.8496719,202.524091 64.1279257,204.882385 64.217299,207.330108 C64.217299,207.330108 62.8285981,233.163437 74.9871175,246.912226" transform="matrix(-1 0 0 1 139.156 0)"/>
        <path stroke="#000" d="M26.4230841 148.61872C17.6697039 154.131121-10.0832247 176.066289 3.84152305 225.987461 3.84152305 225.987461 12.1070991 198.179561 38.272994 189.501861M102.795212 146.837193C102.795212 146.837193 142.673543 166.07799 126.22924 224.941223 126.22924 224.941223 119.006826 195.899399 90.8491892 188.241288"/>
        <path fill="#000" fill-rule="nonzero" d="M55.6397928,189.716925 C55.6858464,190.232144 55.7350825,190.749504 55.787586,191.268955 L55.787586,191.268955 L55.9259476,192.574088 L55.9259476,192.574088 L56.078262,193.887694 C56.1021014,194.084795 56.126419,194.282178 56.1512337,194.479953 C56.1829052,194.732377 56.2153639,194.985255 56.2485984,195.238423 C56.2666021,195.37557 56.2848392,195.512849 56.3033092,195.650242 C56.3291844,195.842722 56.3555205,196.035457 56.3822679,196.228059 C56.4087535,196.41878 56.4356931,196.609748 56.4630747,196.800849 C56.4860245,196.961021 56.5092956,197.121364 56.5328607,197.281677 C56.5526162,197.416074 56.5725986,197.55059 56.5927704,197.684967 C56.7857887,198.970795 56.9996286,200.267472 57.2354658,201.574287 L50.8932379,201.57453 C49.8059986,201.574175 48.8632916,200.787665 48.6209134,199.678707 L47.135734,192.701458 C46.9834267,191.97837 47.151134,191.221981 47.5921568,190.642913 C48.0331796,190.063845 48.700412,189.723948 49.4080585,189.717868 Z M79.9730505,189.717868 C80.6826977,189.7181 81.3536208,190.056455 81.7958756,190.637141 C82.2381304,191.217827 82.4035766,191.977635 82.2453749,192.701458 L80.7601955,199.678707 C80.5194368,200.808296 79.5491142,201.602278 78.4433157,201.57453 L70.9543375,201.575002 C71.4079041,199.24377 71.8197905,196.766505 72.1649033,194.156445 C72.1937067,193.938603 72.2220449,193.719835 72.2499011,193.500168 C72.3344177,192.833691 72.4145186,192.158771 72.4897964,191.475623 L72.4897964,191.475623 L72.5015929,191.368141 C72.5611883,190.82296 72.6177062,190.272558 72.6709403,189.717046 L79.9730505,189.717868 Z"/>
        <path stroke="#000" stroke-linecap="round" stroke-linejoin="round" d="M34.7413858,46.0344828 C25.1344399,78.9489034 21.4158798,107.54135 23.5857055,131.811823 C23.5857055,131.811823 27.8453632,171.103533 41.0443028,195.995298 C43.6561641,194.923587 46.3241994,194.042588 49.0284161,193.3523"/>
        <path stroke="#000" d="M80.2685894,193.728229 C82.493465,194.353562 84.691242,195.109251 86.8506225,195.995298 C86.8506225,195.995298 101.984407,174.951535 105.089157,128.700352 C106.874014,102.019868 104.331165,71.5815685 95.511874,45.3369906 L34.7413858,45.3369906"/>
        <path fill="#000" fill-rule="nonzero" d="M59.4312598,2.56003549 C48.5544518,15.4269595 40.0047654,30.1450548 34.177116,46.0344828 L96.2539185,46.0344828 C90.5679556,28.887252 82.1297447,13.4900519 70.1831737,2.02274536 C68.6932813,0.633522822 66.7171212,-0.0916785208 64.6965523,0.0092925011 C62.6759834,0.110263523 60.7795411,1.02898493 59.4312598,2.56003549 Z"/>
        <ellipse cx="65.739" cy="89.976" stroke="#000" stroke-width="5" rx="21.389" ry="21.563"/>
        <mask id="join_orga-d" fill="#fff">
          <use xlink:href="#join_orga-c"/>
        </mask>
        <use fill-rule="nonzero" stroke="#000" stroke-width="2" transform="rotate(-76.78 65.72 89.925)" xlink:href="#join_orga-c"/>
        <g mask="url(#join_orga-d)">
          <g transform="translate(48.127 77.422)">
            <path fill="#000" fill-rule="nonzero" d="M5.39398424,19.6887536 C7.2487219,17.5486717 23.459129,16.2047003 25.3680821,17.6913438 C29.0393274,20.5467568 27.7764965,34.9542738 27.3063394,38.5410308 C27.2831722,38.7177697 1.96422481,38.5410308 0.14777211,38.5842502 C-0.4229164,37.7282174 3.21110069,22.2026365 5.39398424,19.6887536 Z"/>
            <path stroke="#FFF" stroke-linecap="round" d="M11.6737874 38.5513941C8.11536269 37.6407243 6.93732126 36.1329125 8.8181153 30.5147147M24.4121789 29.2221052C24.3636703 30.0353363 24.1011536 38.5410308 24.1011536 38.5410308"/>
            <path stroke="#000" stroke-width=".6" d="M19.4072406,15.1289524 L19.4528957,18.1364809 C19.4528957,18.8812294 15.3610591,18.924031 15.3638844,18.1364809 L15.3638844,12.7624011"/>
            <circle cx="19.333" cy="9.819" r="5.01" stroke="#000" stroke-width=".6"/>
            <ellipse cx="24.233" cy="11.336" fill="#FF6E61" fill-rule="nonzero" rx="1" ry="1" transform="rotate(-84.07 24.233 11.336)"/>
            <ellipse cx="18.691" cy="10.926" fill="#FF6E61" fill-rule="nonzero" rx="1" ry="1" transform="rotate(-84.07 18.69 10.926)"/>
            <path stroke="#000" stroke-linecap="round" stroke-width=".6" d="M22.1807868 10.329462C22.3206055 10.580565 23.065354 11.6563128 22.1294248 11.9644846M20.2318855 12.9318017C19.9693688 12.8975603 19.5927144 12.5323197 19.4072406 12.2155876"/>
            <path fill="#000" fill-rule="nonzero" d="M15.8318771,10.1896434 C15.8318771,11.747623 14.1198116,12.7577417 13.5320024,12.7577417 C13.3473245,12.7801043 13.1620262,12.721265 13.0240806,12.5964571 C12.8861349,12.4716491 12.8091055,12.2931443 12.8129349,12.1071568 C12.8129349,11.4537184 13.1952962,10.8972971 14.0028204,10.1896434 C13.8544414,9.94710074 12.8129349,8.66875848 12.8129349,6.84826213 C12.8129349,4.93930906 13.9856998,3.33852779 14.7703965,3.33852779 C15.4600989,3.3844067 16.0321209,3.88961466 16.1628764,4.56836153 C16.1628764,1.90039274 19.016319,0.00285344255 20.7283845,0.00285344255 C22.3120451,0.00285344255 22.5859756,0.69338654 22.5859756,1.25266128 C22.5859756,2.48249502 21.6158052,3.79793204 21.253418,4.12037105 C22.1408386,3.4669327 23.536172,2.80778747 24.7232041,2.80778747 C25.4793664,2.80778747 26.4352696,3.02179566 26.4352696,4.05759531 C26.4352696,5.96084149 24.6128767,7.124413 24.0165073,7.4325848 C23.7895444,6.98927805 23.5026309,6.59988453 23.1617258,6.23681877 C23.27301,6.59635253 22.8713199,7.16784769 22.0295543,7.31337326 C21.5444691,7.39326965 15.8318771,6.62284017 15.8318771,10.1896434 Z"/>
          </g>
        </g>
      </g>
      <g fill-rule="nonzero" transform="translate(345.018 165.434)">
        <circle cx="4.064" cy="4.438" r="2.438" fill="#8DA4FA"/>
        <circle cx="3.251" cy="3.219" r="2.438" stroke="#000"/>
      </g>
      <g fill-rule="nonzero" transform="translate(72.037 71.744)">
        <path fill="#8DA4FA" d="M4.06392694,3.03196347 C4.06392694,4.15418591 3.15418591,5.06392694 2.03196347,5.06392694 C0.909741033,5.06392694 0,4.15418591 0,3.03196347 C0,1.90974103 0.909741033,1 2.03196347,1 C3.15418591,1 4.06392694,1.90974103 4.06392694,3.03196347 L4.06392694,3.03196347 Z"/>
        <path stroke="#000" d="M4.87671233,2.21917808 C4.87671233,3.34140052 3.9669713,4.25114155 2.84474886,4.25114155 C1.72252642,4.25114155 0.812785388,3.34140052 0.812785388,2.21917808 C0.812785388,1.09695565 1.72252642,0.187214612 2.84474886,0.187214612 C3.9669713,0.187214612 4.87671233,1.09695565 4.87671233,2.21917808 L4.87671233,2.21917808 Z"/>
      </g>
      <g fill-rule="nonzero" transform="translate(43.995 15.068)">
        <path fill="#8DA4FA" d="M5.32951674,4.21248871 C5.22328489,4.15524644 5.13600633,4.06888099 5.07815883,3.96376056 L4.18873855,2.30876172 C4.0811152,2.11812105 3.87769891,2 3.6570199,2 C3.43634089,2 3.23292459,2.11812105 3.12530125,2.30876172 L2.22621335,3.96376056 C2.1749825,4.07037255 2.09017113,4.15765357 1.98452305,4.21248871 L0.312026203,5.16913544 C0.119369925,5.27563281 0,5.47692093 0,5.69529115 C0,5.91366137 0.119369925,6.11494948 0.312026203,6.22144685 L1.98452305,7.10156184 C2.09017113,7.15639699 2.1749825,7.24367801 2.22621335,7.35028999 L3.12530125,8.99572237 C3.22848994,9.19196133 3.4334662,9.31506849 3.6570199,9.31506849 C3.88057359,9.31506849 4.08554985,9.19196133 4.18873855,8.99572237 L5.07815883,7.35028999 C5.13600633,7.24516956 5.22328489,7.15880412 5.32951674,7.10156184 L6.99234598,6.22144685 C7.19065974,6.11933774 7.31506849,5.91650597 7.31506849,5.69529115 C7.31506849,5.47407632 7.19065974,5.27124456 6.99234598,5.16913544 L5.32951674,4.21248871 Z"/>
        <path stroke="#000" d="M6.14230213,2.99331063 C6.03607028,2.93606835 5.94879171,2.84970291 5.89094422,2.74458248 L5.00152393,1.08958364 C4.89390059,0.89894297 4.69048429,0.780821918 4.46980528,0.780821918 C4.24912627,0.780821918 4.04570998,0.89894297 3.93808663,1.08958364 L3.03899873,2.74458248 C2.98776789,2.85119447 2.90295652,2.93847549 2.79730844,2.99331063 L1.12481159,3.94995736 C0.932155313,4.05645473 0.812785388,4.25774284 0.812785388,4.47611306 C0.812785388,4.69448329 0.932155313,4.8957714 1.12481159,5.00226877 L2.79730844,5.88238376 C2.90295652,5.9372189 2.98776789,6.02449992 3.03899873,6.13111191 L3.93808663,7.77654428 C4.04127533,7.97278324 4.24625159,8.09589041 4.46980528,8.09589041 C4.69335898,8.09589041 4.89833524,7.97278324 5.00152393,7.77654428 L5.89094422,6.13111191 C5.94879171,6.02599148 6.03607028,5.93962604 6.14230213,5.88238376 L7.80513137,5.00226877 C8.00344512,4.90015966 8.12785388,4.69732789 8.12785388,4.47611306 C8.12785388,4.25489824 8.00344512,4.05206647 7.80513137,3.94995736 L6.14230213,2.99331063 Z"/>
      </g>
      <g fill-rule="nonzero" transform="translate(41 142)">
        <path fill="#D2DCFF" d="M13.180327,7.91174629 L10.0334675,6.21998712 C9.83594008,6.11257245 9.67378,5.94989273 9.56670843,5.75173235 L7.8803531,2.5947889 C7.68322417,2.22839102 7.30163928,2 6.886608,2 C6.47157673,2 6.08999183,2.22839102 5.8928629,2.5947889 L4.20650757,5.75173235 C4.09943601,5.94989273 3.93727592,6.11257245 3.73974851,6.21998712 L0.592889013,7.91174629 C0.227661491,8.10950691 0,8.49231458 0,8.9086758 C0,9.32503702 0.227661491,9.70784469 0.592889013,9.90560531 L3.73974851,11.5973645 C3.93727592,11.7047792 4.09943601,11.8674589 4.20650757,12.0656193 L5.8928629,15.2225627 C6.08999183,15.5889606 6.47157673,15.8173516 6.886608,15.8173516 C7.30163928,15.8173516 7.68322417,15.5889606 7.8803531,15.2225627 L9.56670843,12.0656193 C9.67378,11.8674589 9.83594008,11.7047792 10.0334675,11.5973645 L13.180327,9.95092029 C13.5699093,9.76163233 13.8173516,9.36558965 13.8173516,8.93133329 C13.8173516,8.49707692 13.5699093,8.10103425 13.180327,7.91174629 L13.180327,7.91174629 Z"/>
        <path stroke="#000" d="M13.9931124,6.69256821 L10.8462529,5.00080904 C10.6487255,4.89339437 10.4865654,4.73071465 10.3794938,4.53255427 L8.69313849,1.37561081 C8.49600956,1.00921294 8.11442466,0.780821918 7.69939339,0.780821918 C7.28436212,0.780821918 6.90277722,1.00921294 6.70564829,1.37561081 L5.01929296,4.53255427 C4.91222139,4.73071465 4.75006131,4.89339437 4.5525339,5.00080904 L1.4056744,6.69256821 C1.04044688,6.89032883 0.812785388,7.2731365 0.812785388,7.68949772 C0.812785388,8.10585894 1.04044688,8.4886666 1.4056744,8.68642723 L4.5525339,10.3781864 C4.75006131,10.4856011 4.91222139,10.6482808 5.01929296,10.8464412 L6.70564829,14.0033846 C6.90277722,14.3697825 7.28436212,14.5981735 7.69939339,14.5981735 C8.11442466,14.5981735 8.49600956,14.3697825 8.69313849,14.0033846 L10.3794938,10.8464412 C10.4865654,10.6482808 10.6487255,10.4856011 10.8462529,10.3781864 L13.9931124,8.73174221 C14.3826947,8.54245425 14.630137,8.14641157 14.630137,7.71215521 C14.630137,7.27789884 14.3826947,6.88185617 13.9931124,6.69256821 L13.9931124,6.69256821 Z"/>
      </g>
      <g fill-rule="nonzero" transform="translate(285 92)">
        <path fill="#6D8CFF" d="M5.44905758,4.43165665 L4.14950493,3.7297085 C4.06475488,3.69243721 3.9970605,3.62474283 3.95978921,3.53999279 L3.25784107,2.24044014 C3.17362569,2.09184035 3.01601375,2 2.84520939,2 C2.67440503,2 2.51679309,2.09184035 2.43257771,2.24044014 L1.74011535,3.53999279 C1.69736689,3.62085073 1.63125758,3.68696004 1.55039963,3.7297085 L0.250846983,4.43165665 C0.096736959,4.51156531 0,4.67069313 0,4.84428833 C0,5.01788353 0.096736959,5.17701135 0.250846983,5.25692001 L1.55039963,5.94938237 C1.62699556,5.99768079 1.69181693,6.06250215 1.74011535,6.13909808 L2.43257771,7.43865073 C2.51248637,7.59276076 2.67161419,7.68949772 2.84520939,7.68949772 C3.01880459,7.68949772 3.17793241,7.59276076 3.25784107,7.43865073 L3.95978921,6.13909808 C4.00253767,6.05824014 4.06864699,5.99213083 4.14950493,5.94938237 L5.44905758,5.25692001 C5.59765737,5.17270463 5.68949772,5.01509269 5.68949772,4.84428833 C5.68949772,4.67348397 5.59765737,4.51587203 5.44905758,4.43165665 Z"/>
        <path stroke="#000" d="M6.26184297,3.21247857 L4.96229032,2.51053042 C4.87754027,2.47325913 4.80984589,2.40556475 4.7725746,2.3208147 L4.07062646,1.02126206 C3.98641107,0.872662265 3.82879913,0.780821918 3.65799478,0.780821918 C3.48719042,0.780821918 3.32957848,0.872662265 3.2453631,1.02126206 L2.55290074,2.3208147 C2.51015228,2.40167265 2.44404296,2.46778196 2.36318502,2.51053042 L1.06363237,3.21247857 C0.909522347,3.29238723 0.812785388,3.45151505 0.812785388,3.62511025 C0.812785388,3.79870545 0.909522347,3.95783327 1.06363237,4.03774193 L2.36318502,4.73020429 C2.43978095,4.7785027 2.50460232,4.84332407 2.55290074,4.91992 L3.2453631,6.21947265 C3.32527176,6.37358268 3.48439958,6.47031963 3.65799478,6.47031963 C3.83158998,6.47031963 3.9907178,6.37358268 4.07062646,6.21947265 L4.7725746,4.91992 C4.81532306,4.83906206 4.88143237,4.77295274 4.96229032,4.73020429 L6.26184297,4.03774193 C6.41044276,3.95352654 6.50228311,3.7959146 6.50228311,3.62511025 C6.50228311,3.45430589 6.41044276,3.29669395 6.26184297,3.21247857 Z"/>
      </g>
      <g fill-rule="nonzero" transform="translate(339 37)">
        <path fill="#C7D3FF" d="M11.6510219,7.19968531 L8.86790567,5.70601014 C8.6943339,5.62195379 8.55422092,5.48158519 8.47031764,5.30769676 L6.97936253,2.51950311 C6.80007404,2.19869477 6.46172761,2 6.09472917,2 C5.72773072,2 5.38938429,2.19869477 5.2100958,2.51950311 L3.7191407,5.30769676 C3.6276715,5.48298181 3.48089033,5.62302843 3.30167327,5.70601014 L0.518557069,7.19968531 C0.198332936,7.37930089 0,7.71826459 0,8.08593258 C0,8.45360056 0.198332936,8.79256426 0.518557069,8.97217984 L3.30167327,10.465855 C3.47777007,10.5625587 3.62261309,10.707666 3.7191407,10.8840841 L5.2100958,13.6722777 C5.38938429,13.9930861 5.72773072,14.1917808 6.09472917,14.1917808 C6.46172761,14.1917808 6.80007404,13.9930861 6.97936253,13.6722777 L8.47031764,10.8840841 C8.55965722,10.7090676 8.69777111,10.5637835 8.86790567,10.465855 L11.6510219,8.97217984 C11.9829743,8.80180531 12.1917808,8.45959329 12.1917808,8.08593258 C12.1917808,7.71227187 11.9829743,7.37005984 11.6510219,7.19968531 Z"/>
        <path stroke="#000" d="M12.4638073,5.98050723 L9.68069105,4.48683206 C9.50711929,4.4027757 9.36700631,4.2624071 9.28310303,4.08851868 L7.79214792,1.30032503 C7.61285943,0.979516688 7.274513,0.780821918 6.90751456,0.780821918 C6.54051611,0.780821918 6.20216968,0.979516688 6.02288119,1.30032503 L4.53192609,4.08851868 C4.44045688,4.26380373 4.29367571,4.40385035 4.11445866,4.48683206 L1.33134246,5.98050723 C1.01111832,6.16012281 0.812785388,6.49908651 0.812785388,6.86675449 C0.812785388,7.23442248 1.01111832,7.57338618 1.33134246,7.75300176 L4.11445866,9.24667693 C4.29055546,9.34338065 4.43539847,9.4884879 4.53192609,9.66490598 L6.02288119,12.4530996 C6.20216968,12.773908 6.54051611,12.9726027 6.90751456,12.9726027 C7.274513,12.9726027 7.61285943,12.773908 7.79214792,12.4530996 L9.28310303,9.66490598 C9.37244261,9.48988955 9.5105565,9.34460539 9.68069105,9.24667693 L12.4638073,7.75300176 C12.7957597,7.58262723 13.0045662,7.2404152 13.0045662,6.86675449 C13.0045662,6.49309379 12.7957597,6.15088176 12.4638073,5.98050723 Z"/>
      </g>
      <path stroke="#000" d="M38.9733132 261.909018C42.4056804 258.594876 47.4106014 257.499013 51.911895 259.076021 54.4996676 251.005942 62.1095256 245.623214 70.5733109 245.876126 90.3233095 245.876126 91.9095298 265.302387 91.9095298 265.302387 105.781182 261.09959 108.487088 273.396663 108.487088 273.894772L33.8414239 273.894772C33.7171459 269.34029 35.5926531 264.95996 38.9733132 261.909018L38.9733132 261.909018zM263.690072 238.181778C266.471515 238.178943 269.204016 238.933021 271.609352 240.367233 275.929775 232.392999 283.998989 227.321843 292.880081 226.999486 301.761173 226.67713 310.158946 231.150586 315.016902 238.791673 317.730713 229.547435 326.402147 223.538395 335.766136 224.413085 345.130126 225.287775 352.603298 232.804881 353.648137 242.400214 354.464887 242.249244 355.293036 242.172709 356.122912 242.171504 362.140814 242.216367 367.631011 245.706788 370.352867 251.218269L248 251.218269C249.6444 243.656813 256.145312 238.255367 263.690072 238.181778L263.690072 238.181778z"/>
    </g>
    <g fill-rule="nonzero" transform="translate(280 16)">
      <path fill="#809AFD" d="M8.55605234,5.04068973 L6.50549163,3.96709774 C6.37484774,3.89908053 6.26670789,3.79466964 6.19414996,3.66649198 L5.12055796,1.61593127 C4.99557077,1.37235291 4.74480883,1.21917808 4.47103481,1.21917808 C4.19726078,1.21917808 3.94649884,1.37235291 3.82151165,1.61593127 L2.74791965,3.66649198 C2.68263105,3.7963984 2.57722032,3.90180913 2.4473139,3.96709774 L0.396753188,5.04068973 C0.153174827,5.16567693 4.33431069e-13,5.41643886 4.33431069e-13,5.69021289 C4.33431069e-13,5.96398691 0.153174827,6.21474885 0.396753188,6.33973604 L2.4473139,7.41332804 C2.57263606,7.484791 2.67645669,7.58861163 2.74791965,7.7139338 L3.82151165,9.77523042 C3.95156951,10.0123938 4.20055094,10.1598174 4.47103481,10.1598174 C4.74151867,10.1598174 4.9905001,10.0123938 5.12055796,9.77523042 L6.19414996,7.7139338 C6.27264908,7.59048066 6.37936096,7.48744849 6.50549163,7.41332804 L8.55605234,6.33973604 C8.79321573,6.20967818 8.94063927,5.96069675 8.94063927,5.69021289 C8.94063927,5.41972902 8.79321573,5.17074759 8.55605234,5.04068973 L8.55605234,5.04068973 Z"/>
      <path stroke="#000" d="M9.36883773,3.82151165 L7.31827702,2.74791965 C7.18763313,2.67990245 7.07949328,2.57549156 7.00693534,2.4473139 L5.93334335,0.396753188 C5.80835615,0.153174827 5.55759422,-5.68434189e-14 5.28382019,-5.68434189e-14 C5.01004617,-5.68434189e-14 4.75928423,0.153174827 4.63429704,0.396753188 L3.56070504,2.4473139 C3.49541644,2.57722032 3.39000571,2.68263105 3.26009928,2.74791965 L1.20953858,3.82151165 C0.965960215,3.94649884 0.812785388,4.19726078 0.812785388,4.47103481 C0.812785388,4.74480883 0.965960215,4.99557077 1.20953858,5.12055796 L3.26009928,6.19414996 C3.38542145,6.26561292 3.48924208,6.36943355 3.56070504,6.49475571 L4.63429704,8.55605234 C4.7643549,8.79321573 5.01333633,8.94063927 5.28382019,8.94063927 C5.55430406,8.94063927 5.80328549,8.79321573 5.93334335,8.55605234 L7.00693534,6.49475571 C7.08543446,6.37130257 7.19214635,6.26827041 7.31827702,6.19414996 L9.36883773,5.12055796 C9.60600112,4.9905001 9.75342466,4.74151867 9.75342466,4.47103481 C9.75342466,4.20055094 9.60600112,3.95156951 9.36883773,3.82151165 L9.36883773,3.82151165 Z"/>
    </g>
  </g>
</svg>
