<svg xmlns="http://www.w3.org/2000/svg" xmlns:xlink="http://www.w3.org/1999/xlink" width="1172" height="907" viewBox="0 0 1172 907">
  <defs>
    <ellipse id="login_signin-a" cx="161.716" cy="221.276" rx="40.781" ry="40.609"/>
  </defs>
  <g fill="none" fill-rule="evenodd">
    <g transform="translate(39 38)">
      <path fill="#F5F5FF" fill-rule="nonzero" d="M575.38989,627.752272 C588.357048,627.752272 599.318994,636.337605 602.901608,648.13415 C609.801412,645.501429 617.309734,644.057131 625.162618,644.057131 C659.049572,644.057131 686.520376,670.951625 686.520376,704.127664 C686.520376,705.9817 686.434582,707.816117 686.266668,709.627319 C691.8894,710.983915 697.373761,712.693402 702.69266,714.728815 C716.555876,702.276589 734.968094,694.688009 755.172414,694.688009 C792.625867,694.688009 823.921064,720.7649 831.50888,755.562406 C858.710295,736.671301 891.873568,725.581426 927.660658,725.581426 C1020.07962,725.581426 1095,799.541284 1095,890.775392 C1095,982.009499 1020.07962,1055.96936 927.660658,1055.96936 C843.45566,1055.96936 773.777015,994.572011 762.056439,914.652217 C737.779626,947.262118 698.573035,968.438009 654.339734,968.438009 C627.045881,968.438009 601.66591,960.375455 580.525746,946.53888 C561.08674,960.322191 537.233924,968.438009 511.45768,968.438009 C467.986199,968.438009 429.985448,945.354494 409.38755,910.946657 C391.392646,921.830416 370.215315,928.104937 347.55094,928.104937 C335.920654,928.104937 324.681945,926.452694 314.063307,923.373391 C302.727589,998.410147 237.128062,1055.96936 157.899687,1055.96936 C70.6940977,1055.96936 0,986.235777 0,900.215047 C0,814.194316 70.6940977,744.460736 157.899687,744.460736 C187.281996,744.460736 214.789874,752.37709 238.350868,766.165502 C256.276417,724.17353 298.419685,694.688009 347.55094,694.688009 C374.225644,694.688009 398.840497,703.37946 418.638714,718.045528 C434.588351,698.067815 459.282402,685.248354 487.000392,685.248354 C487.571621,685.248354 488.141565,685.253799 488.710176,685.264638 C486.77539,680.480281 485.713166,675.26253 485.713166,669.801645 C485.713166,646.578418 504.923519,627.752272 528.62069,627.752272 C538.464757,627.752272 547.534551,631.001032 554.774599,636.46419 C559.997249,631.090811 567.303691,627.752272 575.38989,627.752272 Z"/>
      <path stroke="#000" stroke-width="3" d="M543.750354,320.948276 C567.656857,378.473384 569.933682,431.544748 565.2581,472.41953 C565.232612,472.642349 565.206922,472.864768 565.181027,473.086823 C565.148329,473.367232 565.115312,473.646996 565.081974,473.926179 C564.948857,475.040958 564.810639,476.146378 564.667614,477.242359 C564.465224,478.793216 564.253256,480.32487 564.032541,481.83709 L582.167855,481.836286 L582.167674,655.572388 C592.065198,657.964466 599.964039,665.478095 602.901608,675.150686 C609.801412,672.517965 617.309734,671.073668 625.162618,671.073668 C659.049572,671.073668 686.520376,697.968161 686.520376,731.144201 C686.520376,732.998376 686.434569,734.832931 686.26663,736.644267 C691.889046,738.000366 697.373072,739.709723 702.691657,741.744967 C716.554995,729.293489 734.967611,721.704545 755.172414,721.704545 C792.625867,721.704545 823.921064,747.781436 831.50888,782.578942 C858.710295,763.687837 891.873568,752.597962 927.660658,752.597962 C1020.07962,752.597962 1095,826.55782 1095,917.791928 C1095,1009.02604 1020.07962,1082.98589 927.660658,1082.98589 C843.45562,1082.98589 773.77695,1021.58849 762.056422,941.668642 C737.779642,974.278646 698.573043,995.454545 654.339734,995.454545 C627.046314,995.454545 601.666714,987.392247 580.526751,973.556074 C561.087559,987.338448 537.234366,995.454545 511.45768,995.454545 C467.986424,995.454545 429.985841,972.371269 409.387869,937.963727 C391.392646,948.846952 370.215315,955.121473 347.55094,955.121473 C335.920654,955.121473 324.681945,953.46923 314.063307,950.389928 C302.728173,1025.42617 237.128415,1082.98589 157.899687,1082.98589 C70.6940977,1082.98589 0,1013.25231 0,927.231583 C0,841.210853 70.6940977,771.477273 157.899687,771.477273 C187.281996,771.477273 214.789874,779.393626 238.350868,793.182038 C256.277004,751.189655 298.420027,721.704545 347.55094,721.704545 C374.225644,721.704545 398.840497,730.395996 418.638714,745.062064 C434.588037,725.084514 459.282226,712.26489 487.000392,712.26489 C487.571621,712.26489 488.141565,712.270335 488.710176,712.281175 C486.775314,707.496444 485.713166,702.278871 485.713166,696.818182 C485.713166,679.446149 496.462746,664.5346 511.798847,658.123334 L511.799516,481.836286 L525.624707,481.836836 C525.456635,480.598244 525.296328,479.363943 525.143607,478.134043 C525.126384,477.99534 525.109243,477.856576 525.092198,477.717868 C525.001137,476.976825 524.912816,476.237292 524.827209,475.499387 C524.802863,475.289535 524.778819,475.08053 524.754992,474.871656 C524.668467,474.113181 524.584735,473.355797 524.503827,472.600173 C524.492524,472.494605 524.481266,472.388985 524.470063,472.283399 L524.384387,471.466215 L524.384387,471.466215 L524.300922,470.650574 L524.300922,470.650574 C515.539964,383.975264 543.750354,320.948276 543.750354,320.948276 Z"/>
      <g transform="translate(387.026)">
        <path fill="#FF6E61" fill-rule="nonzero" d="M155.008191,555.794921 C155.008191,555.794921 166.536844,532.801765 173.440038,495.337381 C177.884893,500.199273 180.34602,506.704119 180.095986,513.505869 C180.095986,513.505869 183.382374,573.590129 154.911872,605.567649 C126.44137,573.590129 129.693165,513.505869 129.693165,513.505869 C129.408939,505.773995 132.628063,498.425778 138.282912,493.436353 C141.568827,513.35735 146.909295,534.285335 155.008191,555.794921 Z"/>
        <path stroke="#000" stroke-width="3" d="M156.724492,320.948276 C180.630995,378.473384 182.90782,431.544748 178.232237,472.41953 C178.20675,472.642349 178.18106,472.864768 178.155165,473.086823 C178.122466,473.367232 178.08945,473.646996 178.056112,473.926179 C177.922995,475.040958 177.784777,476.146378 177.641751,477.242359 C177.360042,479.401021 177.059775,481.522478 176.743195,483.606111 C176.701984,483.877351 176.66053,484.14773 176.618805,484.417466 C176.415825,485.729669 176.206396,487.026898 175.991142,488.308603 L175.991142,488.308603 L175.971105,488.42777 C169.205705,528.614077 156.724492,553.507053 156.724492,553.507053 C146.841354,527.258758 141.065925,501.876553 138.117745,478.134043 C138.100522,477.99534 138.083381,477.856576 138.066336,477.717868 C137.975275,476.976825 137.886954,476.237292 137.801347,475.499387 C137.777001,475.289535 137.752957,475.08053 137.729129,474.871656 C137.642604,474.113181 137.558873,473.355797 137.477965,472.600173 C137.466662,472.494605 137.455404,472.388985 137.444201,472.283399 C137.386342,471.738062 137.329973,471.193853 137.275057,470.650574 C137.275057,470.650574 137.275058,470.650574 137.27506,470.650574 C128.514102,383.975264 156.724492,320.948276 156.724492,320.948276 Z"/>
        <path stroke="#000" stroke-width="3" d="M156.724492,320.948276 C180.630995,378.473384 182.90782,431.544748 178.232237,472.41953 C178.20675,472.642349 178.18106,472.864768 178.155165,473.086823 C178.122466,473.367232 178.08945,473.646996 178.056112,473.926179 C177.922995,475.040958 177.784777,476.146378 177.641751,477.242359 C177.360042,479.401021 177.059775,481.522478 176.743195,483.606111 C176.701984,483.877351 176.66053,484.14773 176.618805,484.417466 C176.415825,485.729669 176.206396,487.026898 175.991142,488.308603 L175.991142,488.308603 L175.971105,488.42777 C169.205705,528.614077 156.724492,553.507053 156.724492,553.507053 C146.841354,527.258758 141.065925,501.876553 138.117745,478.134043 C138.100522,477.99534 138.083381,477.856576 138.066336,477.717868 C137.975275,476.976825 137.886954,476.237292 137.801347,475.499387 C137.777001,475.289535 137.752957,475.08053 137.729129,474.871656 C137.642604,474.113181 137.558873,473.355797 137.477965,472.600173 C137.466662,472.494605 137.455404,472.388985 137.444201,472.283399 C137.386342,471.738062 137.329973,471.193853 137.275057,470.650574 C137.275057,470.650574 137.275058,470.650574 137.27506,470.650574 C128.514102,383.975264 156.724492,320.948276 156.724492,320.948276 Z"/>
        <path stroke="#000" stroke-linecap="round" stroke-width="3" d="M136.29528,493.59701 C132.971247,498.345798 131.195265,504.14879 131.415184,510.171838 C131.415184,510.171838 127.998043,573.739244 157.916198,607.570533"/>
        <path stroke="#000" stroke-linecap="round" stroke-width="3" d="M162.897945,493.59701 C159.573912,498.345798 157.79793,504.14879 158.017848,510.171838 C158.017848,510.171838 154.600708,573.739244 184.518862,607.570533" transform="matrix(-1 0 0 1 342.419 0)"/>
        <path stroke="#000" stroke-width="3" d="M65.0186002 365.702243C43.4793837 379.266466-24.8115306 433.241767 9.45273649 556.081505 9.45273649 556.081505 29.7916259 487.655323 94.1773672 466.302331M252.945522 361.318486C252.945522 361.318486 351.073099 408.663819 310.609028 553.507053 310.609028 553.507053 292.837021 482.044589 223.550252 463.200473"/>
        <path fill="#000" fill-rule="nonzero" d="M196.787619,466.833856 C198.533829,466.834426 200.184752,467.667006 201.272997,469.095885 C202.361242,470.524764 202.768351,472.394406 202.379069,474.175498 L198.724526,491.344235 C198.132097,494.123786 195.74445,496.077515 193.02344,496.009237 L174.595594,496.010122 C175.07462,493.548008 175.534751,491.019699 175.971105,488.42777 L175.971105,488.42777 L175.991142,488.308603 L176.204431,487.021744 C176.345299,486.160415 176.483485,485.292268 176.618805,484.417466 C176.66053,484.14773 176.701984,483.877351 176.743195,483.606111 C177.059775,481.522478 177.360042,479.401021 177.641751,477.242359 C177.784777,476.146378 177.922995,475.040958 178.056112,473.926179 C178.08945,473.646996 178.122466,473.367232 178.155165,473.086823 C178.18106,472.864768 178.20675,472.642349 178.232237,472.41953 C178.442397,470.582278 178.63851,468.720385 178.819244,466.834554 L196.787619,466.833856 Z M137.023258,468.057449 L137.27506,470.650574 L137.27506,470.650574 L137.358525,471.466215 L137.358525,471.466215 L137.444201,472.283399 C137.455404,472.388985 137.466662,472.494605 137.477965,472.600173 C137.558873,473.355797 137.642604,474.113181 137.729129,474.871656 C137.752957,475.08053 137.777001,475.289535 137.801347,475.499387 C137.886954,476.237292 137.975275,476.976825 138.066336,477.717868 C138.083381,477.856576 138.100522,477.99534 138.117745,478.134043 C138.845691,483.996391 139.746003,489.958705 140.837958,496.009341 L125.231675,496.009237 C122.556334,496.008363 120.236639,494.073019 119.640225,491.344235 L115.985683,474.175498 C115.610904,472.396215 116.023577,470.534988 117.10879,469.11009 C118.194004,467.685191 119.835845,466.848815 121.577133,466.833856 L136.911448,466.832303 C137.024754,468.099835 137.145889,469.372634 137.27506,470.650574 Z"/>
        <path stroke="#000" stroke-linecap="round" stroke-linejoin="round" stroke-width="3" d="M85.4872302,113.275862 C61.8476667,194.267526 52.697502,264.624221 58.0367359,324.345946 C58.0367359,324.345946 68.5183657,421.030042 100.996655,482.280564 C107.423595,479.643434 113.98876,477.475582 120.642956,475.777008"/>
        <path stroke="#000" stroke-width="3" d="M197.514843,476.702047 C202.989537,478.240787 208.397551,480.100292 213.711082,482.280564 C213.711082,482.280564 250.950394,430.498722 258.590173,316.68963 C262.982124,251.037652 256.725003,176.138916 235.0236,111.559561 L85.4872302,111.559561"/>
        <path fill="#000" fill-rule="nonzero" d="M146.240965,6.29941318 C119.476685,37.9607207 98.4386923,74.1771573 84.0987461,113.275862 L236.84953,113.275862 C222.858228,71.0821144 202.09454,33.1946221 172.697922,4.97731723 C169.031782,1.55889324 164.169096,-0.225590967 159.197134,0.0228658173 C154.225173,0.271322601 149.558646,2.53199662 146.240965,6.29941318 Z"/>
        <ellipse cx="161.761" cy="221.403" stroke="#000" stroke-width="15" rx="51.283" ry="51.712"/>
        <mask id="login_signin-b" fill="#fff">
          <use xlink:href="#login_signin-a"/>
        </mask>
        <use fill-rule="nonzero" stroke="#000" stroke-width="3" transform="rotate(-76.78 161.716 221.276)" xlink:href="#login_signin-a"/>
        <g mask="url(#login_signin-b)">
          <g transform="translate(118.425 190.51)">
            <path fill="#000" fill-rule="nonzero" d="M13.2728376,48.4476072 C17.8367427,43.181563 57.7252726,39.8744872 62.4225841,43.5326326 C71.4563224,50.5588735 68.3489072,86.0110783 67.1920036,94.8369184 C67.1349967,95.2718154 4.83331722,94.8369184 0.363619013,94.9432674 C-1.04065946,92.8368496 7.90147248,54.6334539 13.2728376,48.4476072 Z"/>
            <path stroke="#FFF" stroke-linecap="round" d="M28.7253869 94.8624193C19.9692633 92.6215577 17.0704872 88.911324 21.6985084 75.0867698M60.0704176 71.9060791C59.951054 73.9071759 59.3050859 94.8369184 59.3050859 94.8369184"/>
            <path stroke="#000" d="M47.7548955,37.2274222 L47.8672377,44.6279698 C47.8672377,46.4605532 37.7985611,46.5658741 37.8055678,44.6279698 L37.8055678,32.3967043"/>
            <circle cx="47.572" cy="24.161" r="12.567" stroke="#000"/>
            <ellipse cx="59.63" cy="27.894" fill="#FF6E61" fill-rule="nonzero" rx="1.137" ry="2.184" transform="rotate(-84.07 59.63 27.894)"/>
            <ellipse cx="45.992" cy="26.885" fill="#FF6E61" fill-rule="nonzero" rx="1.137" ry="2.184" transform="rotate(-84.07 45.992 26.885)"/>
            <path stroke="#000" stroke-linecap="round" stroke-width=".69" d="M54.5796888 25.4174403C54.923737 26.0353228 56.7563204 28.6823877 54.4533038 29.4406981M49.7840778 31.8209501C49.1381097 31.7366934 48.211286 30.8379552 47.7548955 30.0585806"/>
            <path fill="#000" fill-rule="nonzero" d="M38.9570908,25.0733921 C38.9570908,28.9070723 34.7442554,31.3926452 33.2978486,31.3926452 C32.8434165,31.4476724 32.3874577,31.3028881 32.0480185,30.9957764 C31.7085793,30.6886647 31.5190349,30.2494224 31.5284577,29.7917677 C31.5284577,28.1838689 32.4693243,26.8146974 34.4563783,25.0733921 C34.0912659,24.4765737 31.5284577,21.33099 31.5284577,16.8513416 C31.5284577,12.1540302 34.41425,8.21502905 36.3451329,8.21502905 C38.0422658,8.32792211 39.4498256,9.57107427 39.7715724,11.2412492 C39.7715724,4.6762473 46.7929647,0.00702139235 51.0058001,0.00702139235 C54.9026729,0.00702139235 55.5767265,1.70619834 55.5767265,3.08239124 C55.5767265,6.10861134 53.1894531,9.34547322 52.2977363,10.1388906 C54.4813893,8.5309917 57.9148502,6.90905007 60.8357494,6.90905007 C62.6964184,6.90905007 65.0485848,7.4356545 65.0485848,9.98441992 C65.0485848,14.6676886 60.5642698,17.530859 59.0967988,18.2891693 C58.5383171,17.1983359 57.8323164,16.2401653 56.9934601,15.3467788 C57.2672944,16.2314742 56.2788658,17.6377376 54.207555,17.9958286 C53.0139183,18.1924276 38.9570908,16.2966516 38.9570908,25.0733921 Z"/>
          </g>
        </g>
      </g>
    </g>
    <path stroke="#000" stroke-width="2" d="M213.642198 682.472752C222.088135 674.31773 234.403615 671.621166 245.479831 675.501671 251.847497 655.643836 270.572878 642.398696 291.399495 643.021029 339.997806 643.021029 343.900978 690.822728 343.900978 690.822728 378.034595 680.481014 384.692946 710.740103 384.692946 711.965787L201.01429 711.965787C200.708483 700.758691 205.323495 689.980127 213.642198 682.472752L213.642198 682.472752zM845.608156 624.087747C852.45238 624.08077 859.176175 625.936311 865.094922 629.465438 875.726076 609.843448 895.581782 597.364983 917.435256 596.57177 939.28873 595.778556 959.952911 606.786273 971.90676 625.588498 978.584563 602.841442 999.922137 588.055152 1022.96386 590.207479 1046.00559 592.359805 1064.39463 610.856955 1066.96564 634.467942 1068.9754 634.096454 1071.0132 633.908127 1073.05526 633.90516 1087.86335 634.015556 1101.37294 642.604342 1108.07054 656.166302L807 656.166302C811.046332 637.560024 827.042958 624.268825 845.608156 624.087747L845.608156 624.087747z"/>
    <g fill-rule="nonzero" transform="translate(59 57)">
      <circle cx="994" cy="399" r="6" fill="#8DA4FA"/>
      <path fill="#8DA4FA" d="M246 165C246 167.761424 243.761424 170 241 170 238.238576 170 236 167.761424 236 165 236 162.238576 238.238576 160 241 160 243.761424 160 246 162.238576 246 165L246 165zM180.114204 28.4442138C179.852802 28.3033592 179.638038 28.090842 179.495694 27.8321749L177.307121 23.759762C177.042295 23.2906574 176.541753 23 175.998734 23 175.455715 23 174.955174 23.2906574 174.690348 23.759762L172.477986 27.8321749C172.351923 28.0945122 172.14323 28.3092824 171.883265 28.4442138L167.767795 30.7982097C167.29373 31.060265 167 31.5555695 167 32.0929074 167 32.6302454 167.29373 33.1255499 167.767795 33.3876052L171.883265 35.5532814C172.14323 35.6882128 172.351923 35.902983 172.477986 36.1653203L174.690348 40.2141932C174.944262 40.6970734 175.448642 41 175.998734 41 176.548827 41 177.053207 40.6970734 177.307121 40.2141932L179.495694 36.1653203C179.638038 35.9066532 179.852802 35.694136 180.114204 35.5532814L184.205885 33.3876052C184.693871 33.1363479 185 32.637245 185 32.0929074 185 31.5485698 184.693871 31.0494669 184.205885 30.7982097L180.114204 28.4442138z"/>
      <path fill="#D2DCFF" d="M165.43249,526.546881 L157.689094,522.384013 C157.203044,522.119701 156.80402,521.719399 156.540552,521.231791 L152.390981,513.463582 C151.905911,512.561996 150.966955,512 149.945698,512 C148.924442,512 147.985486,512.561996 147.500415,513.463582 L143.350844,521.231791 C143.087376,521.719399 142.688353,522.119701 142.202303,522.384013 L134.458907,526.546881 C133.560201,527.033506 133,527.975471 133,529 C133,530.024529 133.560201,530.966494 134.458907,531.453119 L142.202303,535.615987 C142.688353,535.880299 143.087376,536.280601 143.350844,536.768209 L147.500415,544.536418 C147.985486,545.438004 148.924442,546 149.945698,546 C150.966955,546 151.905911,545.438004 152.390981,544.536418 L156.540552,536.768209 C156.80402,536.280601 157.203044,535.880299 157.689094,535.615987 L165.43249,531.564624 C166.391125,531.098848 167,530.124316 167,529.055753 C167,527.987189 166.391125,527.012657 165.43249,526.546881 L165.43249,526.546881 Z"/>
      <path fill="#809AFD" d="M21.0536569,275.403495 L16.0078951,272.761735 C15.6864231,272.594367 15.4203262,272.337446 15.2417847,272.022042 L12.6000246,266.97628 C12.2924719,266.376913 11.6754285,266 11.0017598,266 C10.3280911,266 9.71104772,266.376913 9.40349496,266.97628 L6.76173488,272.022042 C6.6010809,272.341699 6.34169944,272.601081 6.02204206,272.761735 L0.976280316,275.403495 C0.376913339,275.711048 0,276.328091 0,277.00176 C0,277.675428 0.376913339,278.292472 0.976280316,278.600025 L6.02204206,281.241785 C6.33041908,281.417632 6.58588782,281.673101 6.76173488,281.981478 L9.40349496,287.053657 C9.72352498,287.637239 10.3361872,288 11.0017598,288 C11.6673325,288 12.2799946,287.637239 12.6000246,287.053657 L15.2417847,281.981478 C15.4349455,281.6777 15.6975286,281.424171 16.0078951,281.241785 L21.0536569,278.600025 C21.6372387,278.279995 22,277.667332 22,277.00176 C22,276.336187 21.6372387,275.723525 21.0536569,275.403495 L21.0536569,275.403495 Z"/>
      <path fill="#6D8CFF" d="M864.408355,180.983515 L861.21058,179.256249 C861.002037,179.164537 860.835463,178.997963 860.743751,178.78942 L859.016485,175.591645 C858.809259,175.225989 858.421427,175 858.001133,175 C857.580839,175 857.193008,175.225989 856.985781,175.591645 L855.281857,178.78942 C855.176667,178.988386 855.013993,179.151059 854.815028,179.256249 L851.617253,180.983515 C851.238038,181.180144 851,181.571706 851,181.998867 C851,182.426028 851.238038,182.81759 851.617253,183.014219 L854.815028,184.718143 C855.003506,184.83699 855.16301,184.996494 855.281857,185.184972 L856.985781,188.382747 C857.18241,188.761962 857.573972,189 858.001133,189 C858.428294,189 858.819856,188.761962 859.016485,188.382747 L860.743751,185.184972 C860.848941,184.986007 861.011614,184.823333 861.21058,184.718143 L864.408355,183.014219 C864.774011,182.806992 865,182.419161 865,181.998867 C865,181.578573 864.774011,181.190741 864.408355,180.983515 Z"/>
      <path fill="#C7D3FF" d="M989.669368,12.7947313 L982.821026,9.11928338 C982.393923,8.91244808 982.04915,8.56704669 981.842692,8.13916394 L978.173937,1.27832788 C977.732766,0.488923086 976.900206,0 975.997143,0 C975.094079,0 974.261519,0.488923086 973.820348,1.27832788 L970.151593,8.13916394 C969.926517,8.57048333 969.565337,8.91509243 969.124342,9.11928338 L962.276,12.7947313 C961.488033,13.2367067 961,14.0707859 961,14.975497 C961,15.8802081 961.488033,16.7142873 962.276,17.1562628 L969.124342,20.8317107 C969.557659,21.069667 969.91407,21.4267287 970.151593,21.8608361 L973.820348,28.7216721 C974.261519,29.5110769 975.094079,30 975.997143,30 C976.900206,30 977.732766,29.5110769 978.173937,28.7216721 L981.842692,21.8608361 C982.062527,21.4301777 982.402381,21.0726807 982.821026,20.8317107 L989.669368,17.1562628 C990.486195,16.7370266 991,15.8949543 991,14.975497 C991,14.0560398 990.486195,13.2139675 989.669368,12.7947313 Z"/>
    </g>
    <g fill-rule="nonzero" stroke="#000" stroke-width="2" transform="translate(61 54)">
      <circle cx="990" cy="399" r="6"/>
      <path d="M246 166C246 168.761424 243.761424 171 241 171 238.238576 171 236 168.761424 236 166 236 163.238576 238.238576 161 241 161 243.761424 161 246 163.238576 246 166L246 166zM180.114204 28.4442138C179.852802 28.3033592 179.638038 28.090842 179.495694 27.8321749L177.307121 23.759762C177.042295 23.2906574 176.541753 23 175.998734 23 175.455715 23 174.955174 23.2906574 174.690348 23.759762L172.477986 27.8321749C172.351923 28.0945122 172.14323 28.3092824 171.883265 28.4442138L167.767795 30.7982097C167.29373 31.060265 167 31.5555695 167 32.0929074 167 32.6302454 167.29373 33.1255499 167.767795 33.3876052L171.883265 35.5532814C172.14323 35.6882128 172.351923 35.902983 172.477986 36.1653203L174.690348 40.2141932C174.944262 40.6970734 175.448642 41 175.998734 41 176.548827 41 177.053207 40.6970734 177.307121 40.2141932L179.495694 36.1653203C179.638038 35.9066532 179.852802 35.694136 180.114204 35.5532814L184.205885 33.3876052C184.693871 33.1363479 185 32.637245 185 32.0929074 185 31.5485698 184.693871 31.0494669 184.205885 30.7982097L180.114204 28.4442138zM165.43249 526.546881L157.689094 522.384013C157.203044 522.119701 156.80402 521.719399 156.540552 521.231791L152.390981 513.463582C151.905911 512.561996 150.966955 512 149.945698 512 148.924442 512 147.985486 512.561996 147.500415 513.463582L143.350844 521.231791C143.087376 521.719399 142.688353 522.119701 142.202303 522.384013L134.458907 526.546881C133.560201 527.033506 133 527.975471 133 529 133 530.024529 133.560201 530.966494 134.458907 531.453119L142.202303 535.615987C142.688353 535.880299 143.087376 536.280601 143.350844 536.768209L147.500415 544.536418C147.985486 545.438004 148.924442 546 149.945698 546 150.966955 546 151.905911 545.438004 152.390981 544.536418L156.540552 536.768209C156.80402 536.280601 157.203044 535.880299 157.689094 535.615987L165.43249 531.564624C166.391125 531.098848 167 530.124316 167 529.055753 167 527.987189 166.391125 527.012657 165.43249 526.546881L165.43249 526.546881zM21.0536569 275.403495L16.0078951 272.761735C15.6864231 272.594367 15.4203262 272.337446 15.2417847 272.022042L12.6000246 266.97628C12.2924719 266.376913 11.6754285 266 11.0017598 266 10.3280911 266 9.71104772 266.376913 9.40349496 266.97628L6.76173488 272.022042C6.6010809 272.341699 6.34169944 272.601081 6.02204206 272.761735L.976280316 275.403495C.376913339 275.711048 0 276.328091 0 277.00176 0 277.675428.376913339 278.292472.976280316 278.600025L6.02204206 281.241785C6.33041908 281.417632 6.58588782 281.673101 6.76173488 281.981478L9.40349496 287.053657C9.72352498 287.637239 10.3361872 288 11.0017598 288 11.6673325 288 12.2799946 287.637239 12.6000246 287.053657L15.2417847 281.981478C15.4349455 281.6777 15.6975286 281.424171 16.0078951 281.241785L21.0536569 278.600025C21.6372387 278.279995 22 277.667332 22 277.00176 22 276.336187 21.6372387 275.723525 21.0536569 275.403495L21.0536569 275.403495zM864.408355 180.983515L861.21058 179.256249C861.002037 179.164537 860.835463 178.997963 860.743751 178.78942L859.016485 175.591645C858.809259 175.225989 858.421427 175 858.001133 175 857.580839 175 857.193008 175.225989 856.985781 175.591645L855.281857 178.78942C855.176667 178.988386 855.013993 179.151059 854.815028 179.256249L851.617253 180.983515C851.238038 181.180144 851 181.571706 851 181.998867 851 182.426028 851.238038 182.81759 851.617253 183.014219L854.815028 184.718143C855.003506 184.83699 855.16301 184.996494 855.281857 185.184972L856.985781 188.382747C857.18241 188.761962 857.573972 189 858.001133 189 858.428294 189 858.819856 188.761962 859.016485 188.382747L860.743751 185.184972C860.848941 184.986007 861.011614 184.823333 861.21058 184.718143L864.408355 183.014219C864.774011 182.806992 865 182.419161 865 181.998867 865 181.578573 864.774011 181.190741 864.408355 180.983515zM989.669368 12.7947313L982.821026 9.11928338C982.393923 8.91244808 982.04915 8.56704669 981.842692 8.13916394L978.173937 1.27832788C977.732766.488923086 976.900206 0 975.997143 0 975.094079 0 974.261519.488923086 973.820348 1.27832788L970.151593 8.13916394C969.926517 8.57048333 969.565337 8.91509243 969.124342 9.11928338L962.276 12.7947313C961.488033 13.2367067 961 14.0707859 961 14.975497 961 15.8802081 961.488033 16.7142873 962.276 17.1562628L969.124342 20.8317107C969.557659 21.069667 969.91407 21.4267287 970.151593 21.8608361L973.820348 28.7216721C974.261519 29.5110769 975.094079 30 975.997143 30 976.900206 30 977.732766 29.5110769 978.173937 28.7216721L981.842692 21.8608361C982.062527 21.4301777 982.402381 21.0726807 982.821026 20.8317107L989.669368 17.1562628C990.486195 16.7370266 991 15.8949543 991 14.975497 991 14.0560398 990.486195 13.2139675 989.669368 12.7947313z"/>
    </g>
  </g>
</svg>
