<svg xmlns="http://www.w3.org/2000/svg" width="170" height="170" viewBox="0 0 170 170">
  <g fill="none" fill-rule="evenodd" transform="translate(27 47)">
    <polygon fill="#8DA4FA" points="45.833 -45.833 48.611 -45.833 48.611 48.611 45.833 48.611" transform="rotate(90 16.139 42.25)"/>
    <path fill="#000" fill-rule="nonzero" d="M93.333,15.9989225 L93.3333333,53.1893004 L100,53.1893004 L100,54.3209877 C100,56.1316872 99.3333333,57.8292181 98.1111111,59.0740741 C96.8518519,60.3566529 95.2952675,61.0335696 93.6285627,61.104824 L93.3333333,61.1111111 L6.66666667,61.1111111 C3.07801418,61.1111111 0.12796137,58.184196 0.00405176759,54.5584193 L0,54.3209877 L0,53.1893004 L6.66666667,53.1893004 L6.66666667,3.39506173 C6.66666667,1.53532236 8.01641975,0.0985825332 9.81262963,0.00486625514 L10,-2.27373675e-13 L71,-7.75007634e-05 L71,2.2629225 L10,2.26337449 C9.37777778,2.26337449 8.9491358,2.65770462 8.89474897,3.26234415 L8.88888889,3.39506173 L8.88888889,53.1893004 L91.1111111,53.1893004 L91.111,15.9989225 L93.333,15.9989225 Z M41.1111111,55.4526749 L2.33333333,55.4526749 C2.88888889,57.3765432 4.55555556,58.8477366 6.66666667,58.8477366 L6.66666667,58.8477366 L93.3333333,58.8477366 C94.5555556,58.8477366 95.6666667,58.3950617 96.5555556,57.4897119 C97.1111111,56.9238683 97.4444444,56.244856 97.6666667,55.4526749 L97.6666667,55.4526749 L58.8888889,55.4526749 C58.8888889,56.6975309 57.8888889,57.7160494 56.6666667,57.7160494 L56.6666667,57.7160494 L43.3333333,57.7160494 C42.1111111,57.7160494 41.1111111,56.6975309 41.1111111,55.4526749 L41.1111111,55.4526749 Z" transform="translate(7 15)"/>
    <g transform="translate(78 4)">
      <path stroke="#000" stroke-width="2" d="M36,0 C37.1045695,-4.2495073e-16 38,0.8954305 38,2 L38,20.2857143 C38,21.3902838 37.1045695,22.2857143 36,22.2857143 L34.02,22.285 L34.0204082,23.4693878 C34.0204082,24.5739573 33.1249777,25.4693878 32.0204082,25.4693878 L31.836,25.469 L31.8367347,25.6530612 C31.8367347,26.7576307 30.9413042,27.6530612 29.8367347,27.6530612 L2,27.6530612 C0.8954305,27.6530612 1.3527075e-16,26.7576307 4.03896783e-28,25.6530612 L4.03896783e-28,7.36734694 C-1.3527075e-16,6.26277744 0.8954305,5.36734694 2,5.36734694 L2.183,5.367 L2.18367347,5.18367347 C2.18367347,4.07910397 3.07910397,3.18367347 4.18367347,3.18367347 L6.163,3.183 L6.16326531,2 C6.16326531,0.8954305 7.05869581,2.02906125e-16 8.16326531,0 L36,0 Z"/>
      <path stroke="#000" stroke-width="2" d="M34.0204082,23.3381882 L34.0204082,23.877551 C34.0204082,24.7566982 33.3077186,25.4693878 32.4285714,25.4693878 L4.18367347,25.4693878 C3.07910397,25.4693878 2.18367347,24.5739573 2.18367347,23.4693878 L2.18367347,5.18367347 C2.18367347,4.07910397 3.07910397,3.18367347 4.18367347,3.18367347 L5.59554087,3.18367347 C5.99990743,3.18367347 6.39477643,3.30624575 6.72806549,3.5352233"/>
      <rect width="31.837" height="22.286" x="6.163" stroke="#000" stroke-width="2" rx="2"/>
      <path fill="#000" d="M3.18326531,4.99967347 L3.18367347,22.4693878 C3.18367347,23.5739573 4.07910397,24.4693878 5.18367347,24.4693878 L5.18367347,24.4693878 L31.9992653,24.4686735 L32,25.2857143 C32,26.3902838 31.1045695,27.2857143 30,27.2857143 L2.16326531,27.2857143 C1.05869581,27.2857143 0.163265306,26.3902838 0.163265306,25.2857143 L0.163265306,7 C0.163265306,5.8954305 1.05869581,5 2.16326531,5 L3.18326531,4.99967347 Z"/>
      <polygon fill="#8DA4FA" points="23.386 6.367 29.466 16.316 17.306 16.316" transform="rotate(90 23.386 11.342)"/>
    </g>
    <path fill="#8DA4FA" fill-rule="nonzero" d="M6.7137813 6.54102033C6.79731951 6.54102033 6.8682065 6.60066179 6.88266504 6.68299512L6.88266504 6.68299512 7.1660122 8.29974065C7.51442276 8.39532764 7.84877642 8.53469187 8.16264715 8.7142187L8.16264715 8.7142187 9.49323415 7.75674228C9.56130976 7.70734228 9.65508943 7.71457154 9.71473089 7.77501626L9.71473089 7.77501626 10.7449016 8.80398211C10.8039407 8.86302114 10.8119732 8.95539512 10.7639789 9.02387236L10.7639789 9.02387236 9.81714553 10.3745407C9.99325854 10.6862024 10.1308154 11.018548 10.2266033 11.3641472L10.2266033 11.3641472 11.8507789 11.629622C11.9335138 11.6436789 11.9943602 11.7153691 11.9947618 11.7989073L11.9947618 11.7989073 11.9947618 13.2554041C11.9947618 13.3385407 11.9347187 13.4102309 11.8525862 13.4242878L11.8525862 13.4242878 10.2276073 13.7090407C10.1328236 14.0548407 9.99586911 14.3877886 9.81895285 14.7006553L9.81895285 14.7006553 10.7794415 16.0348569C10.8284398 16.1029325 10.8212106 16.1967122 10.7615691 16.2565545L10.7615691 16.2565545 9.73220163 17.286926C9.67276098 17.345965 9.58038699 17.3539976 9.51231138 17.3064049L9.51231138 17.3064049 8.16525772 16.3603748C7.85219024 16.5399016 7.51823821 16.6800691 7.16962683 16.7770618L7.16962683 16.7770618 6.88286585 18.395213C6.86840732 18.4769439 6.7971187 18.5365854 6.71398211 18.5365854L6.71398211 18.5365854 5.25708374 18.5365854C5.17334472 18.5365854 5.10165447 18.4755382 5.08799919 18.3934057L5.08799919 18.3934057 4.81991382 16.7826846C4.47110163 16.6868967 4.13534228 16.5483358 3.82006585 16.3700138L3.82006585 16.3700138 2.48285203 17.3066057C2.41377236 17.3541984 2.32200081 17.3461659 2.2631626 17.2871268L2.2631626 17.2871268 1.23299187 16.2567553C1.17355122 16.196913 1.16592033 16.1037358 1.2149187 16.0354593L1.2149187 16.0354593 2.16054715 14.7129049C1.98001626 14.3954195 1.83984878 14.0582545 1.74345854 13.7078358L1.74345854 13.7078358.141773984 13.4244886C.0596414634 13.4098293-1.87687264e-13 13.3387415-1.87687264e-13 13.2556049L-1.87687264e-13 13.2556049-1.87687264e-13 11.7991081C-1.87687264e-13 11.7153691.0606455285 11.6436789.143179675 11.629622L.143179675 11.629622 1.74546667 11.3635447C1.84225854 11.013126 1.98242602 10.6761618 2.16295691 10.3592789L2.16295691 10.3592789 1.22897561 9.02407317C1.18138293 8.95559593 1.18941545 8.86322195 1.24845447 8.80418293L1.24845447 8.80418293 2.27842439 7.77521707C2.33746341 7.71477236 2.43084146 7.70754309 2.49951951 7.75694309L2.49951951 7.75694309 3.82649187 8.70437886C4.14076423 8.52686016 4.47572033 8.38970488 4.82513496 8.2943187L4.82513496 8.2943187 5.08779837 6.68500325C5.10105203 6.60186667 5.17274228 6.54102033 5.25688293 6.54102033L5.25688293 6.54102033zM5.99728049 10.6795756C4.97192927 10.6795756 4.13735041 11.5137528 4.13735041 12.5389033 4.13735041 13.5646561 4.97192927 14.3988333 5.99728049 14.3988333 7.02283252 14.3988333 7.85680894 13.5644553 7.85680894 12.5389033 7.85680894 11.513552 7.02263171 10.6795756 5.99728049 10.6795756zM13.2657846.0130528455C13.3432984-.0190772358 13.4318569.0102414634 13.4762366.0813292683L13.4762366.0813292683 14.1182358 1.11913089C14.3792927 1.09101707 14.6421569 1.0930252 14.903013 1.12455285L14.903013 1.12455285 15.5494301.0883577236C15.5938098.0178723577 15.681565-.0136552846 15.7612878.0212861789L15.7612878.0212861789 16.7892496.451628455C16.8659602.48395935 16.9085325.566292683 16.8900577.648023577L16.8900577.648023577 16.6181569 1.84667642C16.8257976 2.01335122 17.0107463 2.20010732 17.1701919 2.40453496L17.1701919 2.40453496 18.3660333 2.1272122C18.4485675 2.10512276 18.5319049 2.15130976 18.5636333 2.22902439L18.5636333 2.22902439 18.9863447 3.26019919C19.0178724 3.33731138 18.9895577 3.42566911 18.9190724 3.47065122L18.9190724 3.47065122 17.8740415 4.12851463C17.9025569 4.38776423 17.9015528 4.64922276 17.8712301 4.90766911L17.8712301 4.90766911 18.916261 5.56131545C18.9877504 5.60569512 19.0158642 5.69545854 18.9835333 5.77317317L18.9835333 5.77317317 18.5539943 6.80013089C18.5216634 6.87664065 18.438326 6.91740569 18.3580008 6.90134065L18.3580008 6.90134065 17.1523195 6.6288374C16.9898618 6.83226098 16.804913 7.01660732 16.6000837 7.17806098L16.6000837 7.17806098 16.8782098 8.37671382C16.8970862 8.45844472 16.854313 8.54218374 16.7763976 8.57431382L16.7763976 8.57431382 15.7462268 8.99762764C15.7249407 9.0062626 15.7026504 9.01027886 15.6809626 9.01027886 15.6237309 9.01027886 15.5681057 8.9815626 15.5359756 8.92995366L15.5359756 8.92995366 14.8787146 7.88693089C14.619465 7.91765528 14.3547935 7.91825772 14.094339 7.88753333L14.094339 7.88753333 13.4276398 8.92272439C13.3828585 8.99220569 13.2938984 9.02112276 13.2175894 8.98758699L13.2175894 8.98758699 12.1902301 8.55885122C12.1127163 8.52672114 12.0697423 8.44298211 12.089422 8.36125122L12.089422 8.36125122 12.3695561 7.17063089C12.1633211 7.00656667 11.9775691 6.8202122 11.8147098 6.61397724L11.8147098 6.61397724 10.6194707 6.87463252C10.537539 6.89069756 10.4554065 6.84912927 10.4240797 6.77201707L10.4240797 6.77201707 10.0019707 5.73943659C9.97024228 5.66172195 9.99936016 5.57276179 10.0706488 5.52838211L10.0706488 5.52838211 11.1060407 4.88919431C11.0759187 4.62432195 11.076722 4.35904797 11.1080488 4.09919593L11.1080488 4.09919593 10.0830992 3.43711545C10.0134171 3.39213333 9.98590569 3.30377561 10.0180358 3.22666341L10.0180358 3.22666341 10.4475748 2.19970569C10.4797049 2.1225935 10.5624398 2.0778122 10.6451748 2.09929919L10.6451748 2.09929919 11.8291683 2.37943333C11.9958431 2.17098943 12.1842057 1.98423333 12.3908423 1.82277967L12.3908423 1.82277967 12.1319943.628946341C12.1143228.547617073 12.1574976.46528374 12.2348106.433756098L12.2348106.433756098zM14.4979732 3.12625691C13.9389098 3.12625691 13.4384837 3.45880325 13.2228106 3.97388862 12.9290211 4.67733659 13.2615675 5.48862114 13.964413 5.7828122 14.1349033 5.85369919 14.3142293 5.89004634 14.4969691 5.89004634 15.0564341 5.89004634 15.5564585 5.55689756 15.7721317 5.0418122 16.0663228 4.33956911 15.7335756 3.52828455 15.0309309 3.23349106 14.8604407 3.16240325 14.6811146 3.12625691 14.4979732 3.12625691z"/>
    <g transform="translate(42 27)">
      <line x1="29.851" y1=".439" y2=".439" stroke="#000" stroke-linecap="round" stroke-width="2"/>
      <line x1="20.088" y1="7.287" y2="7.287" stroke="#000" stroke-linecap="round" stroke-width="2"/>
      <g fill-rule="nonzero" transform="translate(5.382 16.699)">
        <path fill="#8DA4FA" d="M17.0282095,1.31429464 C14.0447598,4.78895685 11.0613121,8.26359185 8.07783675,11.7382546 C6.9106435,10.4392962 5.7433959,9.14033777 4.57617597,7.84135373 C3.99659948,7.19637833 3.0482429,8.14976387 3.62543236,8.79210299 C4.95471704,10.27139 6.28398067,11.7507048 7.61327201,13.2300461 C7.8431335,13.4858306 8.33622986,13.4953234 8.56402127,13.2300461 C11.7023403,9.57502709 14.8406193,5.92003574 17.9789321,2.26501722 C18.5398996,1.61170638 17.5930504,0.656465936 17.0282095,1.31429464 Z"/>
        <path fill="#000" d="M17.6164448,0.726059348 C14.6329951,4.20072156 11.6495474,7.67535656 8.66607204,11.1500193 C7.49887879,9.85106087 6.33163119,8.55210248 5.16441127,7.25311844 C4.58483477,6.60814303 3.6364782,7.56152858 4.21366766,8.2038677 C5.54295234,9.68315472 6.87221596,11.1624695 8.20150731,12.6418109 C8.43136879,12.8975953 8.92446516,12.9070881 9.15225656,12.6418109 C12.2905756,8.9867918 15.4288546,5.33180044 18.5671674,1.67678193 C19.1281349,1.02347109 18.1812857,0.068230642 17.6164448,0.726059348 Z"/>
        <path fill="#000" d="M16.4997846,6.58437214 C17.6386083,10.2569498 16.1631331,14.2565733 12.6738968,16.0305299 C9.55723149,17.6150949 5.634085,16.847525 3.33998634,14.2116925 C1.03944949,11.5684394 0.808135207,7.59965964 2.80071304,4.71288242 C5.12493486,1.34559492 9.61730495,0.487672175 13.1339968,2.45685531 C13.8898152,2.88006231 14.5684902,1.71913414 13.8126123,1.2958738 C7.4816679,-2.24913404 -0.652166803,2.63264067 0.138340787,10.0452655 C0.866192726,16.8703018 8.96977605,20.5577239 14.5431536,16.4491387 C17.7448282,14.0889092 18.9638326,9.99215669 17.7962905,6.22693997 C17.5408269,5.40308797 16.2424891,5.75463045 16.4997846,6.58437214 Z"/>
      </g>
    </g>
  </g>
</svg>
