<?xml version="1.0" encoding="UTF-8"?>
<svg width="89px" height="97px" viewBox="0 0 89 97" version="1.1" xmlns="http://www.w3.org/2000/svg" xmlns:xlink="http://www.w3.org/1999/xlink">
    <title>illu</title>
    <g id="Add-movie-form-blue" stroke="none" stroke-width="1" fill="none" fill-rule="evenodd">
        <g id="0-AddFilm-Overview" transform="translate(-1244.000000, -457.000000)">
            <g id="page-content" transform="translate(304.000000, 156.000000)">
                <g id="form-group" transform="translate(0.000000, 102.000000)">
                    <g id="status_options" transform="translate(16.000000, 174.000000)">
                        <g id="status_released" transform="translate(868.000000, 0.000000)">
                            <g id="illu" transform="translate(56.000000, 25.000000)">
                                <g id="Group-8">
                                    <g id="cinema" transform="translate(4.000000, 6.000000)">
                                        <g transform="translate(44.000000, 0.000000)" fill="#E5EAFD" id="Star">
                                            <polygon transform="translate(16.500000, 17.078125) rotate(15.000000) translate(-16.500000, -17.078125) " points="16.5 25.0734547 8.56489909 27.6585504 8.65069891 19.5488178 3.66073703 13.0367621 11.6488651 10.6097674 16.5 4 21.3511349 10.6097674 29.339263 13.0367621 24.3493011 19.5488178 24.4351009 27.6585504"></polygon>
                                        </g>
                                        <polygon id="Star" fill="#E5EAFD" transform="translate(20.000000, 36.500000) rotate(15.000000) translate(-20.000000, -36.500000) " points="20 45.9759463 12 49.9233938 11.5288668 41.2379732 4 36.5 11.5288668 31.7620268 12 23.0766062 20 27.0240537 28 23.0766062 28.4711332 31.7620268 36 36.5 28.4711332 41.2379732 28 49.9233938"></polygon>
                                        <path d="M58.8007812,14 L24.1992188,14 C21.8837695,14 20,15.904434 20,18.245283 L20,36.754717 C20,39.095566 21.8837695,41 24.1992188,41 L37.7313691,41 C38.1951309,41 38.5712129,40.6197925 38.5712129,40.1509434 C38.5712129,39.6820943 38.1951309,39.3018868 37.7313691,39.3018868 L24.1992188,39.3018868 C22.8099492,39.3018868 21.6796875,38.1592264 21.6796875,36.754717 L21.6796875,18.245283 C21.6796875,16.8407736 22.8099492,15.6981132 24.1992188,15.6981132 L58.8007812,15.6981132 C60.1900508,15.6981132 61.3203125,16.8407736 61.3203125,18.245283 L61.3203125,36.754717 C61.3203125,38.1592264 60.1900508,39.3018868 58.8007812,39.3018868 L45.2899629,39.3018868 C44.8262012,39.3018868 44.4501191,39.6820943 44.4501191,40.1509434 C44.4501191,40.6197925 44.8262012,41 45.2899629,41 L58.8007812,41 C61.1162305,41 63,39.095566 63,36.754717 L63,18.245283 C63,15.904434 61.1162305,14 58.8007812,14 Z" id="XMLID_1061_" fill="#606F87" fill-rule="nonzero"></path>
                                        <path d="M50.1955536,28.3460089 C50.6434955,28.3231071 51,27.9537098 51,27.5 C51,27.0462902 50.6434955,26.6768929 50.1955536,26.6539911 C49.7955357,22.5106339 46.4894509,19.2044643 42.3460089,18.8044464 C42.3231071,18.3565045 41.953625,18 41.5,18 C41.046375,18 40.6768929,18.3565045 40.6539911,18.8044464 C36.5106339,19.2044643 33.2045491,22.5105491 32.8044464,26.6539911 C32.3565045,26.6768929 32,27.0462902 32,27.5 C32,27.9537098 32.3565045,28.3231071 32.8044464,28.3460089 C33.2044643,32.4893661 36.5105491,35.7955357 40.6539911,36.1955536 C40.6768929,36.6434955 41.0462902,37 41.5,37 C41.9537098,37 42.3231071,36.6434955 42.3460089,36.1955536 C46.4893661,35.7954509 49.7954509,32.4893661 50.1955536,28.3460089 L50.1955536,28.3460089 Z M48.48725,26.6517857 L46.3449152,26.6517857 C45.9897679,24.6178527 44.3820625,23.0101473 42.3482143,22.6550848 L42.3482143,20.51275 C45.5531071,20.8995357 48.1003795,23.4468929 48.48725,26.6517857 L48.48725,26.6517857 Z M40.6517857,20.51275 L40.6517857,23.4285714 C40.6517857,23.8969554 41.0316161,24.2767857 41.5,24.2767857 C43.2772634,24.2767857 44.7232143,25.7227366 44.7232143,27.5 C44.7232143,29.2772634 43.2772634,30.7232143 41.5,30.7232143 C39.7227366,30.7232143 38.2767857,29.2772634 38.2767857,27.5 C38.2767857,27.0316161 37.8969554,26.6517857 37.4285714,26.6517857 L34.51275,26.6517857 C34.8996205,23.4468929 37.4468929,20.8995357 40.6517857,20.51275 L40.6517857,20.51275 Z M34.51275,28.3482143 L36.6550848,28.3482143 C37.0102321,30.3821473 38.6179375,31.9898527 40.6517857,32.3449152 L40.6517857,34.48725 C37.4468929,34.1004643 34.8996205,31.5531071 34.51275,28.3482143 Z M42.3482143,34.48725 L42.3482143,32.3449152 C44.3821473,31.9897679 45.9898527,30.3820625 46.3449152,28.3482143 L48.48725,28.3482143 C48.1003795,31.5531071 45.5531071,34.1004643 42.3482143,34.48725 Z" id="XMLID_1067_" fill="#606F87" fill-rule="nonzero"></path>
                                        <path d="M57.9289395,48.689569 C58.4711426,48.0527586 58.8007812,47.2206034 58.8007812,46.3103448 L58.8007812,45.6206897 C58.8007812,43.6242241 57.2184316,42 55.2734375,42 C53.3284434,42 51.7460938,43.6242241 51.7460938,45.6206897 L51.7460938,46.3103448 C51.7460938,47.2206034 52.0757324,48.0527586 52.6179355,48.689569 C50.7805254,49.3819828 49.2683027,50.7715517 48.3867188,52.5443103 C47.5051348,50.7715517 45.9929121,49.3819828 44.155502,48.689569 C44.6977051,48.0527586 45.0273438,47.2206034 45.0273438,46.3103448 L45.0273438,45.6206897 C45.0273438,43.6242241 43.4449941,42 41.5,42 C39.5550059,42 37.9726562,43.6242241 37.9726562,45.6206897 L37.9726562,46.3103448 C37.9726562,47.2206034 38.3022949,48.0527586 38.844498,48.689569 C37.0070879,49.3819828 35.4948652,50.7715517 34.6132812,52.5443103 C33.7316973,50.7715517 32.2194746,49.3819828 30.3820645,48.689569 C30.9242676,48.0527586 31.2539062,47.2206034 31.2539062,46.3103448 L31.2539062,45.6206897 C31.2539062,43.6242241 29.6715566,42 27.7265625,42 C25.7815684,42 24.1992188,43.6242241 24.1992188,45.6206897 L24.1992188,46.3103448 C24.1992188,47.2206034 24.5288574,48.0527586 25.0710605,48.689569 C22.1148105,49.8035345 20,52.7219828 20,56.137931 C20,56.6139655 20.376082,57 20.8398438,57 L62.1601562,57 C62.623918,57 63,56.6139655 63,56.137931 C63,52.7219828 60.8851895,49.8035345 57.9289395,48.689569 L57.9289395,48.689569 Z M53.4257812,46.3103448 L53.4257812,45.6206897 C53.4257812,44.5749138 54.254623,43.7241379 55.2734375,43.7241379 C56.292252,43.7241379 57.1210938,44.5749138 57.1210938,45.6206897 L57.1210938,46.3103448 C57.1210938,47.3561207 56.292252,48.2068966 55.2734375,48.2068966 C54.254623,48.2068966 53.4257812,47.3561207 53.4257812,46.3103448 Z M39.6523438,46.3103448 L39.6523438,45.6206897 C39.6523438,44.5749138 40.4811855,43.7241379 41.5,43.7241379 C42.5188145,43.7241379 43.3476562,44.5749138 43.3476562,45.6206897 L43.3476562,46.3103448 C43.3476562,47.3561207 42.5188145,48.2068966 41.5,48.2068966 C40.4811855,48.2068966 39.6523438,47.3561207 39.6523438,46.3103448 Z M25.8789062,46.3103448 L25.8789062,45.6206897 C25.8789062,44.5749138 26.707748,43.7241379 27.7265625,43.7241379 C28.745377,43.7241379 29.5742188,44.5749138 29.5742188,45.6206897 L29.5742188,46.3103448 C29.5742188,47.3561207 28.745377,48.2068966 27.7265625,48.2068966 C26.707748,48.2068966 25.8789062,47.3561207 25.8789062,46.3103448 Z M21.7378047,55.2758621 C22.1478164,52.2599138 24.6771738,49.9310345 27.7265625,49.9310345 C30.7759512,49.9310345 33.3053086,52.2599138 33.7153203,55.2758621 L21.7378047,55.2758621 Z M35.5112422,55.2758621 C35.9212539,52.2599138 38.4506113,49.9310345 41.5,49.9310345 C44.5493887,49.9310345 47.0787461,52.2599138 47.4887578,55.2758621 L35.5112422,55.2758621 Z M49.2846797,55.2758621 C49.6946914,52.2599138 52.2240488,49.9310345 55.2734375,49.9310345 C58.3228262,49.9310345 60.8521836,52.2599138 61.2621953,55.2758621 L49.2846797,55.2758621 Z" id="XMLID_1122_" fill="#606F87" fill-rule="nonzero"></path>
                                        <path d="M41.1465,39.1465 C41.053,39.2395 41,39.3685 41,39.5 C41,39.6315 41.053,39.7605 41.1465,39.85345 C41.2395,39.94645 41.36805,40 41.5,40 C41.6315,40 41.7605,39.9465 41.8535,39.85345 C41.94645,39.7605 42,39.6315 42,39.5 C42,39.3685 41.9465,39.2395 41.8535,39.1465 C41.76,39.0535 41.6315,39 41.5,39 C41.3685,39 41.2395,39.05345 41.1465,39.1465 Z" id="XMLID_1134_" fill="#606F87" fill-rule="nonzero"></path>
                                    </g>
                                    <circle id="Oval-Copy-4" stroke="#606F87" stroke-width="1.5" cx="44.5" cy="44.5" r="43.75"></circle>
                                </g>
                                <g id="Group-5" transform="translate(38.000000, 73.000000)">
                                    <circle id="Oval" fill="#E5EAFD" cx="12" cy="12" r="12"></circle>
                                    <g id="popcorn" transform="translate(5.000000, 3.000000)" fill="#606F87" fill-rule="nonzero">
                                        <path d="M11.5,5.9765625 C11.7761333,5.9765625 12,5.75357031 12,5.47851562 C12,5.20346094 11.7761333,4.98046875 11.5,4.98046875 L11,4.98046875 C11,4.25441602 10.5990667,3.59812305 9.98206667,3.25131641 C9.994,3.164125 10,3.07636914 10,2.98828125 C10,1.88978906 9.1028,0.99609375 8,0.99609375 C7.91156667,0.99609375 7.82346667,1.00207031 7.73596667,1.01395703 C7.38776667,0.399433594 6.72886667,0 6,0 C5.27113333,0 4.61223333,0.399433594 4.26403333,1.01395703 C4.17653333,1.00207031 4.08843333,0.99609375 4,0.99609375 C2.8972,0.99609375 2,1.88978906 2,2.98828125 C2,3.07636914 2.006,3.164125 2.01793333,3.25131641 C1.40093333,3.59812305 1,4.25441602 1,4.98046875 L0.5,4.98046875 C0.223866667,4.98046875 0,5.20346094 0,5.47851562 C0,5.75357031 0.223866667,5.9765625 0.5,5.9765625 L1.04313333,5.9765625 L2.00203333,16.5467773 C2.0253,16.8034375 2.2413,17 2.5,17 L9.5,17 C9.7587,17 9.9747,16.8034375 9.99796667,16.5467773 L10.9568667,5.9765625 L11.5,5.9765625 Z M2.74033333,4.02461719 C2.8782,3.98746289 2.99353333,3.89333203 3.05723333,3.76599805 C3.12093333,3.63866406 3.12693333,3.4902793 3.0737,3.35826367 C3.0248,3.23690625 3,3.11242773 3,2.98828125 C3,2.43903516 3.4486,1.9921875 4,1.9921875 C4.12463333,1.9921875 4.2496,2.01689062 4.37143333,2.06563281 C4.50393333,2.1186582 4.65293333,2.11268164 4.78076667,2.04919727 C4.9086,1.98574609 5.00306667,1.87086328 5.0404,1.73350195 C5.15833333,1.29933789 5.55293333,0.99609375 6,0.99609375 C6.44706667,0.99609375 6.84166667,1.29933789 6.9596,1.73353516 C6.9969,1.87086328 7.0914,1.98574609 7.21923333,2.04923047 C7.34706667,2.11271484 7.49603333,2.1186582 7.62856667,2.06566602 C7.7504,2.01689062 7.87536667,1.9921875 8,1.9921875 C8.5514,1.9921875 9,2.43903516 9,2.98828125 C9,3.11242773 8.9752,3.23690625 8.9263,3.35826367 C8.87306667,3.4902793 8.87906667,3.63866406 8.94276667,3.76599805 C9.0065,3.89333203 9.12183333,3.98742969 9.25966667,4.02461719 C9.69556667,4.14208984 10,4.53514844 10,4.98046875 L2,4.98046875 C2,4.53514844 2.30443333,4.14208984 2.74033333,4.02461719 Z M2.04723333,5.9765625 L3.2721,5.9765625 L3.72693333,16.0039062 L2.95686667,16.0039062 L2.04723333,5.9765625 Z M4.2731,5.9765625 L5.5,5.9765625 L5.5,16.0039062 L4.7279,16.0039062 L4.2731,5.9765625 Z M6.5,16.0039062 L6.5,5.9765625 L7.7269,5.9765625 L7.27206667,16.0039062 L6.5,16.0039062 Z M9.04313333,16.0039062 L8.2731,16.0039062 L8.72793333,5.9765625 L9.9528,5.9765625 L9.04313333,16.0039062 Z" id="Shape"></path>
                                        <path d="M17,13 C17,11.8972 16.1028,11 15,11 C13.8972,11 13,11.8972 13,13 C11.8972,13 11,13.8972 11,15 C11,16.1028 11.8972,17 13,17 C13.3524667,17 13.6966,16.9048667 14,16.7272 C14.3034,16.9048667 14.6475333,17 15,17 C16.1028,17 17,16.1028 17,15 C17,14.6475333 16.9048667,14.3034 16.7272,14 C16.9048667,13.6966 17,13.3524667 17,13 Z M15.7392333,14.3346667 C15.8582,14.4667 16,14.6893333 16,15 C16,15.5514 15.5514,16 15,16 C14.6893333,16 14.4667,15.8582 14.3346667,15.7392333 C14.2395667,15.6535667 14.1198,15.6107333 14,15.6107333 C13.8802,15.6107333 13.7604333,15.6535667 13.6653333,15.7392333 C13.5333,15.8582 13.3106667,16 13,16 C12.4486,16 12,15.5514 12,15 C12,14.4486 12.4486,14 13,14 C13.1462,14 13.2933667,14.0359333 13.4374667,14.1068333 C13.6295333,14.2013333 13.8604333,14.1631 14.0117667,14.0117667 C14.1631333,13.8604 14.2013667,13.6295 14.1068667,13.4374667 C14.0359333,13.2934 14,13.1462 14,13 C14,12.4486 14.4486,12 15,12 C15.5514,12 16,12.4486 16,13 C16,13.3106667 15.8582,13.5333 15.7392333,13.6653333 C15.5678667,13.8555667 15.5678667,14.1444333 15.7392333,14.3346667 L15.7392333,14.3346667 Z" id="Shape"></path>
                                        <path d="M5.70710184,3.8867404 C5.78536036,3.81367468 5.88938288,3.77345502 6,3.77345502 C6.11062748,3.77345502 6.21465,3.81367468 6.29290851,3.8867404 C6.37379037,3.96225539 6.47980111,4 6.58578423,4 C6.69176736,4 6.79780571,3.96222961 6.87868757,3.88671462 C7.04045128,3.73568464 7.04042367,3.49083456 6.87868757,3.33980457 C6.64396726,3.12068477 6.33192731,3 6,3 C5.66808304,3 5.3560431,3.12068477 5.12132279,3.33980457 C4.95955907,3.49083456 4.95955907,3.73568464 5.12132279,3.88671462 C5.2830865,4.03774461 5.54533813,4.03774461 5.70710184,3.8867404 Z" id="Path"></path>
                                    </g>
                                </g>
                            </g>
                        </g>
                    </g>
                </g>
            </g>
        </g>
    </g>
</svg>