<svg xmlns="http://www.w3.org/2000/svg" width="80" height="80" viewBox="0 0 80 80">
  <g fill="none" fill-rule="evenodd">
    <g transform="translate(9 19)">
      <path stroke="#000" d="M2.04341935,-1.13686838e-13 L9.62631486,-1.13686838e-13 L9.62631486,-1.13686838e-13 L60.6078812,-1.13686838e-13 C61.7124507,-1.21738182e-13 62.6078812,0.8954305 62.6078812,2 L62.6078812,39.8806818 C62.6078812,40.9852513 61.7124507,41.8806818 60.6078812,41.8806818 L2.04341935,41.8806818 C0.938849847,41.8806818 0.0434193464,40.9852513 0.0434193464,39.8806818 L0.0434193464,2 C0.0434193464,0.8954305 0.938849847,-1.13483932e-13 2.04341935,-1.13686838e-13 Z"/>
      <path fill="#000" fill-rule="nonzero" d="M47.4609146,4.23930716 C47.3662224,4.52194456 47.3149033,4.82426371 47.3149033,5.13832602 L47.317537,5.03852276 L0.10153702,5.05762725 L0.10153702,4.25762731 Z M62.4632228,4.23352276 L62.4632228,5.0335227 L52.990175,5.03664078 C52.9803203,4.75816883 52.9301542,4.48978962 52.8453475,4.23717061 L62.4632228,4.23352276 Z"/>
      <circle cx="1.944" cy="2.429" r="1" fill="#000"/>
      <circle cx="4.042" cy="2.429" r="1" fill="#000"/>
      <circle cx="6.016" cy="2.429" r="1" fill="#000"/>
    </g>
    <path fill="#8DA4FA" fill-rule="nonzero" d="M10.2473504 9.9836626C10.3748561 9.9836626 10.483052 10.0746943 10.5051203 10.200361L10.5051203 10.200361 10.9375976 12.6680252C11.4693821 12.8139211 11.9797114 13.026635 12.4587772 13.3006496L12.4587772 13.3006496 14.4896732 11.8392382C14.593578 11.7638382 14.7367154 11.7748724 14.8277472 11.8671301L14.8277472 11.8671301 16.400113 13.4376569C16.4902252 13.5277691 16.5024854 13.668761 16.4292309 13.7732789L16.4292309 13.7732789 14.9840642 15.8348252C15.2528683 16.3105195 15.4628236 16.8177837 15.609026 17.3452772L15.609026 17.3452772 18.0880309 17.7504756C18.2143106 17.7719309 18.3071813 17.8813528 18.3077943 18.0088585L18.3077943 18.0088585 18.3077943 20.2319325C18.3077943 20.3588252 18.2161496 20.4682472 18.0907894 20.4897024L18.0907894 20.4897024 15.6105585 20.9243252C15.4658886 21.4521252 15.2568528 21.9603089 14.9868228 22.4378423L14.9868228 22.4378423 16.4528317 24.4742553C16.5276187 24.5781602 16.5165846 24.7212976 16.4255528 24.8126358L16.4255528 24.8126358 14.854413 26.3853081C14.7636878 26.4754203 14.6226959 26.4876805 14.5187911 26.415039L14.5187911 26.415039 12.4627618 24.9710984C11.984922 25.245113 11.4752057 25.4590528 10.9431146 25.6070943L10.9431146 25.6070943 10.5054268 28.0769041C10.4833585 28.2016512 10.3745496 28.2926829 10.2476569 28.2926829L10.2476569 28.2926829 8.02396992 28.2926829C7.89615772 28.2926829 7.78673577 28.1995057 7.7658935 28.0741455L7.7658935 28.0741455 7.35671057 25.6156764C6.82431301 25.469474 6.31183821 25.2579862 5.83062683 24.9858106L5.83062683 24.9858106 3.78961626 26.4153455C3.68417886 26.487987 3.5441065 26.4757268 3.45430081 26.3856146L3.45430081 26.3856146 1.88193496 24.8129423C1.79120976 24.7216041 1.7795626 24.5793862 1.85434959 24.4751748L1.85434959 24.4751748 3.29767724 22.456539C3.02213008 21.9719561 2.80819024 21.4573358 2.66106829 20.9224862L2.66106829 20.9224862.21639187 20.4900089C.0910317073 20.4676341-2.86470035e-13 20.3591317-2.86470035e-13 20.232239L-2.86470035e-13 20.232239-2.86470035e-13 18.009165C-2.86470035e-13 17.8813528.0925642276 17.7719309.218537398 17.7504756L.218537398 17.7504756 2.66413333 17.3443577C2.81186829 16.8095081 3.02580813 16.2951943 3.30135528 15.8115309L3.30135528 15.8115309 1.87580488 13.7735854C1.80316341 13.6690675 1.81542358 13.5280756 1.90553577 13.4379634L1.90553577 13.4379634 3.47759512 11.8674366C3.56770732 11.7751789 3.71023171 11.7641447 3.8150561 11.8395447L3.8150561 11.8395447 5.84043496 13.2856309C6.32011382 13.0146813 6.8313626 12.805339 7.36467967 12.6597496L7.36467967 12.6597496 7.76558699 10.203426C7.78581626 10.0765333 7.89523821 9.9836626 8.02366341 9.9836626L8.02366341 9.9836626zM9.1537439 16.3004049C7.58873415 16.3004049 6.31490325 17.5736228 6.31490325 19.138326 6.31490325 20.7039488 7.58873415 21.9771667 9.1537439 21.9771667 10.7190602 21.9771667 11.9919715 20.7036423 11.9919715 19.138326 11.9919715 17.5733163 10.7187537 16.3004049 9.1537439 16.3004049zM20.2477764.0199227642C20.366087-.0291178862 20.5012553.0156317073 20.5689927.124134146L20.5689927.124134146 21.5488862 1.70814715C21.9473415 1.66523659 22.3485553 1.66830163 22.7467041 1.71642276L22.7467041 1.71642276 23.7333407.134861789C23.801078.0272788618 23.9350203-.0208422764 24.0567024.0324894309L24.0567024.0324894309 25.6256967.689327642C25.7427813.738674797 25.8077602.864341463 25.7795618.989088618L25.7795618.989088618 25.3645553 2.81861138C25.6814805 3.07300976 25.9637707 3.35805854 26.207135 3.67007967L26.207135 3.67007967 28.0323667 3.24679756C28.1583398 3.21308211 28.285539 3.28357805 28.3339667 3.40219512L28.3339667 3.40219512 28.9791577 4.9760935C29.0272789 5.09379106 28.9840618 5.22865285 28.8764789 5.29730976L28.8764789 5.29730976 27.2814317 6.30141707C27.3249553 6.69711382 27.3234228 7.09618211 27.2771407 7.49065285L27.2771407 7.49065285 28.8721878 8.48832358C28.9813033 8.55606098 29.0242138 8.69306829 28.9748667 8.81168537L28.9748667 8.81168537 28.3192545 10.3791472C28.2699073 10.4959252 28.1427081 10.5581455 28.0201065 10.5336252L28.0201065 10.5336252 26.1798561 10.1176992C25.9318943 10.4281878 25.6496041 10.7095585 25.3369699 10.9559878L25.3369699 10.9559878 25.761478 12.7855106C25.7902894 12.9102577 25.7250041 13.0380699 25.6060805 13.0871106L25.6060805 13.0871106 24.0337146 13.7332211C24.0012252 13.7464008 23.9672033 13.7525309 23.9341008 13.7525309 23.8467472 13.7525309 23.7618455 13.7087008 23.7128049 13.6299293L23.7128049 13.6299293 22.7096171 12.0379472C22.3139203 12.0848423 21.909948 12.0857618 21.5124122 12.0388667L21.5124122 12.0388667 20.4948187 13.6188951C20.4264683 13.7249455 20.290687 13.7690821 20.1742154 13.7178959L20.1742154 13.7178959 18.6061407 13.0635098C18.4878301 13.0144691 18.4222382 12.8866569 18.4522756 12.7619098L18.4522756 12.7619098 18.8798488 10.9446472C18.5650691 10.6942333 18.2815528 10.4097976 18.032978 10.0950179L18.032978 10.0950179 16.2086659 10.4928602C16.0836122 10.5173805 15.958252 10.4539341 15.9104374 10.3362366L15.9104374 10.3362366 15.2661659 8.76019268C15.2177382 8.64157561 15.2621813 8.50579431 15.3709902 8.43805691L15.3709902 8.43805691 16.9513252 7.46245447C16.9053496 7.05817561 16.9065756 6.65328374 16.9543902 6.25666748L16.9543902 6.25666748 15.3899935 5.24612358C15.2836366 5.17746667 15.2416455 5.04260488 15.2906862 4.92490732L15.2906862 4.92490732 15.9462984 3.35744553C15.995339 3.23974797 16.1216187 3.17139756 16.2478984 3.2041935L16.2478984 3.2041935 18.0550463 3.63176667C18.3094447 3.31361545 18.5969455 3.02856667 18.9123382 2.7821374L18.9123382 2.7821374 18.5172545.959970732C18.4902821.835836585 18.5561805.710169919 18.6741846.66204878L18.6741846.66204878zM22.1284854 4.77165528C21.275178 4.77165528 20.5113699 5.27922602 20.1821846 6.06540894 19.7337691 7.13909268 20.2413398 8.37736911 21.3141041 8.82639756 21.574326 8.9345935 21.8480341 8.99007073 22.1269528 8.99007073 22.9808732 8.99007073 23.7440683 8.48158049 24.0732537 7.69539756 24.5222821 6.62355285 24.0144049 5.38527642 22.9419472 4.93532846 22.6817252 4.82682602 22.4080171 4.77165528 22.1284854 4.77165528z" transform="translate(50 5)"/>
    <line x1="40.5" x2="40.5" y1="24.5" y2="60.5" stroke="#000" stroke-linecap="square"/>
    <polygon fill="#000" points="55.5 40 59 45.727 52 45.727" transform="rotate(90 55.5 42.864)"/>
    <line x1="14" x2="35" y1="32" y2="32" stroke="#000" stroke-linecap="round"/>
    <line x1="14" x2="35" y1="36" y2="36" stroke="#000" stroke-linecap="round"/>
    <line x1="14" x2="35" y1="40" y2="40" stroke="#000" stroke-linecap="round"/>
    <line x1="14" x2="21" y1="44" y2="44" stroke="#000" stroke-linecap="round"/>
  </g>
</svg>
