<svg width="168" height="49" viewBox="0 0 168 49" xmlns="http://www.w3.org/2000/svg" fill-rule="evenodd" clip-rule="evenodd"><path d="m43.671 33.942-12.294-6.216 14.366-7.332c.195 1.175.322 2.377.322 3.604 0 3.579-.877 6.953-2.394 9.944ZM23.998 46.065c-6.127 0-11.677-2.517-15.678-6.563l20.923-10.684 13.474 6.813c-3.901 6.251-10.821 10.434-18.719 10.434ZM11.324 35.79l-4.355 2.224a22.088 22.088 0 0 1-2.712-4.221l7.067 1.997ZM4.793 13.175a4.81 4.81 0 0 0 1.809.357 4.839 4.839 0 0 0 4.842-4.839c0-.857-.24-1.646-.63-2.344 3.686-2.761 8.239-4.414 13.184-4.414 10.243 0 18.852 7.025 21.326 16.497L13.86 34.497 3.277 31.503a21.95 21.95 0 0 1-1.342-7.505c0-3.932 1.046-7.621 2.858-10.823ZM23.998 0C18.572 0 13.577 1.828 9.554 4.878a4.785 4.785 0 0 0-2.952-1.03A4.844 4.844 0 0 0 1.76 8.693c0 1.335.542 2.543 1.419 3.417A23.819 23.819 0 0 0 0 23.998C0 37.235 10.765 48 23.998 48 37.235 48 48 37.235 48 23.998 48 10.765 37.235 0 23.998 0Z" style="fill:#3c64f7" transform="scale(1.02083)"/><path d="M65.208 15.787h-8.359l-1.648 4.192H52l7.524-18.116h3.057l7.548 18.116H66.88l-1.672-4.192Zm-1.027-2.64-3.152-7.919-3.129 7.919h6.281ZM74.811 8.178c.86-1.449 2.372-2.174 4.538-2.174v3.08a3.498 3.498 0 0 0-.693-.078c-1.162 0-2.07.371-2.723 1.113-.653.725-.979 1.777-.979 3.157v6.703h-2.986V6.159h2.843v2.019ZM87.617 20.161c-1.322 0-2.508-.302-3.559-.906a6.4 6.4 0 0 1-2.46-2.511c-.589-1.087-.884-2.312-.884-3.675s.295-2.579.884-3.649a6.454 6.454 0 0 1 2.436-2.51c1.051-.604 2.245-.906 3.583-.906 1.258 0 2.356.276 3.296.828.955.552 1.672 1.346 2.15 2.381l-2.293 1.45c-.367-.639-.828-1.113-1.386-1.424a3.389 3.389 0 0 0-1.791-.492c-1.115 0-2.038.397-2.771 1.191-.732.776-1.098 1.82-1.098 3.131 0 1.312.358 2.364 1.074 3.158.733.776 1.664 1.164 2.795 1.164.653 0 1.25-.155 1.791-.465.558-.328 1.019-.811 1.386-1.45l2.293 1.45c-.494 1.035-1.219 1.837-2.174 2.406-.939.552-2.03.829-3.272.829ZM102.764 6.004c1.608 0 2.898.509 3.869 1.527.972 1.018 1.457 2.528 1.457 4.529v7.919h-2.985v-7.505c0-1.208-.263-2.113-.789-2.717-.525-.621-1.273-.932-2.245-.932-1.098 0-1.966.362-2.603 1.087-.637.707-.956 1.734-.956 3.08v6.987h-2.985V.776h2.985v6.988a4.746 4.746 0 0 1 1.816-1.294c.732-.311 1.544-.466 2.436-.466ZM111.878 6.159h2.985v13.82h-2.985V6.159Zm1.504-2.277c-.541 0-.995-.181-1.361-.543-.366-.38-.549-.846-.549-1.398 0-.552.183-1.009.549-1.372.366-.379.82-.569 1.361-.569.542 0 .996.181 1.362.543.366.346.549.786.549 1.32 0 .57-.183 1.053-.549 1.45-.35.379-.804.569-1.362.569ZM125.852 6.004c1.242 0 2.349.293 3.32.88.987.587 1.759 1.415 2.317 2.485.557 1.069.836 2.303.836 3.7 0 1.398-.279 2.64-.836 3.727-.558 1.07-1.33 1.898-2.317 2.485-.971.586-2.078.88-3.32.88-1.72 0-3.081-.622-4.084-1.864V25h-2.986V6.159h2.842v1.812a4.69 4.69 0 0 1 1.816-1.475c.732-.328 1.536-.492 2.412-.492Zm-.334 11.387c1.098 0 1.998-.396 2.699-1.19.716-.794 1.074-1.838 1.074-3.132s-.358-2.337-1.074-3.131c-.701-.794-1.601-1.191-2.699-1.191-.717 0-1.362.182-1.935.544-.573.345-1.027.845-1.362 1.501-.334.656-.501 1.415-.501 2.277 0 .863.167 1.622.501 2.278.335.655.789 1.164 1.362 1.527a3.678 3.678 0 0 0 1.935.517ZM147.147 13.147c0 .224-.016.544-.048.958h-10.008c.175 1.018.629 1.828 1.361 2.432.749.587 1.672.88 2.771.88 1.401 0 2.556-.5 3.463-1.501l1.601 1.993a5.425 5.425 0 0 1-2.174 1.682c-.876.38-1.863.57-2.962.57-1.401 0-2.635-.302-3.702-.906a6.355 6.355 0 0 1-2.484-2.511c-.573-1.087-.86-2.312-.86-3.675 0-1.345.279-2.553.836-3.623.574-1.087 1.362-1.932 2.365-2.536 1.003-.604 2.134-.906 3.392-.906 1.242 0 2.348.302 3.32.906.987.587 1.751 1.423 2.293 2.51.557 1.07.836 2.312.836 3.727Zm-6.449-4.555c-.956 0-1.768.311-2.437.932-.653.604-1.051 1.415-1.194 2.433h7.237c-.127-1.001-.517-1.812-1.17-2.433-.653-.621-1.465-.932-2.436-.932ZM150.014.776H153v19.203h-2.986z" style="fill:#3c64f7;fill-rule:nonzero"/><path d="M153.582 25H52.058v24h101.524V25ZM63.811 45.652c-1.658 0-3.16-.354-4.505-1.063a8.195 8.195 0 0 1-3.144-2.983c-.751-1.264-1.126-2.69-1.126-4.278 0-1.588.383-3.014 1.15-4.278a8.006 8.006 0 0 1 3.144-2.959c1.345-.725 2.846-1.087 4.504-1.087 1.346 0 2.573.231 3.684.694a7.502 7.502 0 0 1 2.815 2.011l-1.97 1.827c-1.189-1.264-2.652-1.896-4.388-1.896-1.126 0-2.135.247-3.027.74a5.216 5.216 0 0 0-2.088 2.011c-.5.864-.751 1.843-.751 2.937 0 1.095.251 2.073.751 2.937a5.373 5.373 0 0 0 2.088 2.034c.892.478 1.901.717 3.027.717 1.736 0 3.199-.64 4.388-1.919l1.97 1.85a7.463 7.463 0 0 1-2.839 2.011c-1.11.463-2.338.694-3.683.694Zm14.336-.069c-1.267 0-2.409-.27-3.425-.81a6.06 6.06 0 0 1-2.394-2.242c-.563-.972-.844-2.066-.844-3.284s.281-2.304.844-3.26a6.055 6.055 0 0 1 2.394-2.243c1.016-.539 2.158-.809 3.425-.809 1.283 0 2.432.27 3.449.809a5.887 5.887 0 0 1 2.37 2.243c.579.956.868 2.042.868 3.26s-.289 2.312-.868 3.284a5.89 5.89 0 0 1-2.37 2.242c-1.017.54-2.166.81-3.449.81Zm0-2.474c1.079 0 1.971-.355 2.675-1.064.704-.709 1.056-1.642 1.056-2.798 0-1.156-.352-2.089-1.056-2.798-.704-.709-1.596-1.063-2.675-1.063-1.079 0-1.971.354-2.675 1.063-.688.709-1.032 1.642-1.032 2.798 0 1.156.344 2.089 1.032 2.798.704.709 1.596 1.064 2.675 1.064Zm20.401-8.81c-.954-.909-2.221-1.364-3.8-1.364-.923 0-1.752.146-2.488.439a4.59 4.59 0 0 0-1.83 1.295v-1.595h-2.792v12.347h2.933v-6.243c0-1.203.313-2.12.939-2.752.625-.647 1.478-.971 2.557-.971.954 0 1.689.278 2.206.833.516.539.774 1.348.774 2.427v6.706h2.933v-7.076c0-1.788-.477-3.137-1.432-4.046Zm12.684 10.451a3.474 3.474 0 0 1-1.267.625 5.64 5.64 0 0 1-1.549.208c-1.376 0-2.44-.355-3.191-1.064-.751-.709-1.126-1.742-1.126-3.098v-5.943h-2.065v-2.312h2.065v-2.821h2.933v2.821h3.355v2.312h-3.355v5.873c0 .602.148 1.064.446 1.388.297.308.727.462 1.29.462.657 0 1.204-.169 1.642-.509l.822 2.058Zm13.731-4.578c.031-.37.047-.655.047-.855 0-1.264-.274-2.374-.821-3.33a5.5 5.5 0 0 0-2.253-2.243c-.954-.539-2.041-.809-3.261-.809-1.236 0-2.346.27-3.332.809a5.923 5.923 0 0 0-2.322 2.266c-.548.956-.822 2.035-.822 3.237 0 1.218.282 2.312.845 3.284.579.955 1.392 1.703 2.44 2.242 1.048.54 2.26.81 3.637.81 1.079 0 2.049-.17 2.909-.509a5.294 5.294 0 0 0 2.135-1.503l-1.572-1.78c-.891.894-2.025 1.341-3.402 1.341-1.079 0-1.986-.262-2.721-.786-.72-.54-1.166-1.264-1.338-2.174h9.831Zm-8.681-4.093c.657-.555 1.454-.832 2.393-.832.954 0 1.752.277 2.393.832.641.555 1.025 1.28 1.15 2.174h-7.109c.14-.91.532-1.634 1.173-2.174Zm18.654-3.144c1.58 0 2.847.455 3.801 1.364.954.909 1.431 2.258 1.431 4.046v7.076h-2.933v-6.706c0-1.079-.258-1.888-.774-2.427-.516-.555-1.251-.833-2.205-.833-1.08 0-1.932.324-2.558.971-.625.632-.938 1.549-.938 2.752v6.243h-2.933V33.074h2.792v1.595a4.59 4.59 0 0 1 1.83-1.295c.735-.293 1.564-.439 2.487-.439Zm15.217 12.44a3.458 3.458 0 0 0 1.267-.625l-.821-2.058c-.438.34-.986.509-1.642.509-.564 0-.994-.154-1.291-.462-.297-.324-.446-.786-.446-1.388v-5.873h3.355v-2.312h-3.355v-2.821h-2.932v2.821h-2.065v2.312h2.065v5.943c0 1.356.375 2.389 1.126 3.098.751.709 1.814 1.064 3.191 1.064.547 0 1.063-.07 1.548-.208Z" style="fill:#3c64f7"/></svg>