<svg width="351" height="350" viewBox="0 0 351 350" fill="none" xmlns="http://www.w3.org/2000/svg">
<path fill-rule="evenodd" clip-rule="evenodd" d="M259.934 102.893L332.704 174.79L260.802 247.523L259.934 168.394V102.893ZM247.938 168.459L248.937 259.525L219.995 288.801L219.115 149.722L207.563 149.795L208.517 300.412L179.833 329.427L179.381 246.405L167.83 246.468L168.258 325.134L17.2446 175.93L74.834 117.676C78.8615 119.93 83.5136 121.217 88.469 121.217C103.803 121.217 116.234 108.896 116.234 93.6985C116.234 88.5864 114.828 83.7999 112.378 79.6983L174.4 16.9595L247.938 89.6169V91.0405V168.459ZM104.135 70.9757L165.868 8.52967L174.3 0L182.832 8.42986L341.848 165.54L350.38 173.97L349.668 174.69L350.308 175.323L341.876 183.852L261.001 265.661L249.136 277.663L249.122 276.398L184.793 341.471L176.36 350L167.828 341.571L8.81236 184.46L0.280273 176.03L8.71252 167.5L65.8672 109.685C62.6165 105.179 60.7036 99.6603 60.7036 93.6985C60.7036 78.5006 73.1346 66.1803 88.469 66.1803C94.281 66.1803 99.6759 67.9501 104.135 70.9757Z" fill="#3C64F7"/>
</svg>
