<?xml version="1.0" encoding="UTF-8"?>
<svg width="400px" height="131px" viewBox="0 0 400 131" version="1.1" xmlns="http://www.w3.org/2000/svg" xmlns:xlink="http://www.w3.org/1999/xlink">
    <defs>
        <filter color-interpolation-filters="auto" id="filter-1">
            <feColorMatrix in="SourceGraphic" type="matrix" values="0 0 0 0 0.101961 0 0 0 0 0.286275 0 0 0 0 0.960784 0 0 0 1.000000 0"></feColorMatrix>
        </filter>
    </defs>
    <g id="draft" stroke="none" stroke-width="1" fill="none" fill-rule="evenodd">
        <g id="logo/light/archipel_market" filter="url(#filter-1)">
            <g id="Group" transform="translate(0.010935, 0.010935)" fill="#9CA3C4">
                <path d="M66.4546971,3.35771839e-13 C51.428202,3.35771839e-13 37.5977116,4.96535876 26.4559836,13.2468363 C24.1898695,11.5182212 21.3752118,10.451066 18.2817861,10.451066 C10.880945,10.451066 4.87394396,16.3424685 4.87394396,23.6097076 C4.87394396,27.2345077 6.37569422,30.5153487 8.80367368,32.8877848 C3.22831343,42.4216264 -1.04088336e-12,53.4283186 -1.04088336e-12,65.1758459 C-1.04088336e-12,101.123985 29.8101923,130.360511 66.4546971,130.360511 C103.108194,130.360511 132.918387,101.123985 132.918387,65.1758459 C132.918387,29.2365263 103.108194,3.35771839e-13 66.4546971,3.35771839e-13 L66.4546971,3.35771839e-13 Z" id="Path" opacity="0"></path>
                <path d="M66.4546971,-3.70506857e-13 C103.108194,-3.70506857e-13 132.918387,29.2365263 132.918387,65.1758459 C132.918387,101.123985 103.108194,130.360511 66.4546971,130.360511 C29.8101923,130.360511 -1.85300116e-12,101.123985 -1.85300116e-12,65.1758459 C-1.85300116e-12,53.4283186 3.22831343,42.4216264 8.80367368,32.8877848 C6.37569422,30.5153487 4.87394396,27.2345077 4.87394396,23.6097076 C4.87394396,16.3424685 10.880945,10.451066 18.2817861,10.451066 C21.3752118,10.451066 24.1898695,11.5182212 26.4559836,13.2468363 C37.5977116,4.96535876 51.428202,-3.70506857e-13 66.4546971,-3.70506857e-13 Z M80.9776113,78.2639319 L23.0388273,107.279972 C34.1176077,118.269025 49.4858184,125.10411 66.4546971,125.10411 C88.3244973,125.10411 107.48755,113.744639 118.287562,96.7671693 L118.287562,96.7671693 L80.9776113,78.2639319 Z M371.271332,70.1711909 L371.271332,116.782063 L171.51157,116.782063 L171.51157,70.1711909 L371.271332,70.1711909 Z M356.891399,78.2418832 L350.173989,78.2418832 L350.173989,84.6889121 L345.434933,84.6889121 L345.434933,89.9629521 L350.173989,89.9629521 L350.173989,103.51847 C350.173989,109.745012 353.770996,113.017033 360.065757,113.017033 C362.363795,113.017033 364.661832,112.443945 366.273684,111.297767 L366.522384,111.112029 L364.642948,106.420074 C363.617801,107.213826 362.268924,107.584243 360.875084,107.584243 C358.372439,107.584243 356.977501,106.191011 356.895257,103.605589 L356.891399,103.359719 L356.891399,89.9629521 L364.588993,89.9629521 L364.588993,84.6889121 L356.891399,84.6889121 L356.891399,78.2418832 Z M238.752213,84.1579803 C234.289444,84.1579803 229.969187,85.2350247 226.916502,87.4049899 L226.594331,87.641669 L229.229138,92.4394579 C231.387342,90.7020233 234.723566,89.652507 237.951879,89.652507 C242.63411,89.652507 244.999195,91.8152362 245.097717,95.5205637 L245.10093,95.7643962 L245.10093,96.1877305 L237.673111,96.1877305 C228.968355,96.1877305 225.740042,99.8830863 225.740042,104.575042 C225.740042,109.478664 229.876599,113.01527 236.441136,113.01527 C240.618024,113.01527 243.670294,111.729847 245.327361,109.43242 L245.478615,109.21408 L245.478615,112.644852 L251.827332,112.644852 L251.827332,96.1348137 C251.827332,88.0120865 247.034321,84.1579803 238.752213,84.1579803 Z M328.267319,84.1544525 C319.715436,84.1544525 313.429667,90.1781471 313.429667,98.5654582 C313.429667,106.94395 319.661481,113.011742 329.292466,113.011742 C334.088475,113.011742 338.030451,111.527286 340.618222,108.695083 L340.856843,108.42562 L337.250843,104.359847 C335.209542,106.414782 332.682645,107.429021 329.454332,107.429021 C324.558656,107.429021 321.102809,104.892276 320.20115,100.92826 L320.147077,100.67331 L342.691316,100.67331 C342.745271,100.038309 342.790234,99.244557 342.790234,98.7153891 C342.790234,89.9047437 336.66633,84.1544525 328.267319,84.1544525 Z M182.807969,75.7186343 L177.052759,75.7186343 L177.052759,112.645734 L183.725206,112.645734 L183.725206,88.4892195 L196.089916,108.42121 L199.210319,108.42121 L211.584022,88.1717188 L211.637977,112.645734 L218.256469,112.645734 L218.202514,75.7186343 L212.447304,75.7186343 L197.762524,100.19265 L182.807969,75.7186343 Z M289.48979,73.5031847 L282.763387,73.5031847 L282.763387,112.64397 L289.48979,112.64397 L289.48979,105.200342 L294.489629,100.561303 L304.435352,112.64397 L312.618542,112.64397 L299.489468,96.2926821 L311.485485,84.4745991 L303.419198,84.4745991 L289.48979,97.1305313 L289.48979,73.5031847 Z M277.057636,84.1544525 C272.405595,84.1544525 268.981897,85.5502473 267.008539,88.3337729 L266.833144,88.5906434 L266.833144,84.4719533 L260.439465,84.4719533 L260.439465,112.641324 L267.156875,112.641324 L267.156875,98.9887926 C267.156875,93.229682 270.385188,90.2751612 275.50193,90.2751612 C275.8991,90.2751612 276.302514,90.311909 276.769417,90.3854045 L277.057636,90.4339116 L277.057636,84.1544525 Z M245.10093,100.562185 L245.10093,103.834207 C243.976865,106.735811 241.117245,108.217481 237.834976,108.217481 C234.399835,108.217481 232.358534,106.682894 232.358534,104.310458 C232.358534,102.292564 233.536362,100.63724 237.867486,100.564666 L238.167699,100.562185 L245.10093,100.562185 Z M11.7891892,91.7753522 C13.8664605,95.8764034 16.3573876,99.739329 19.2979405,103.240657 L19.2979405,103.240657 L31.3569051,97.1993231 Z M328.267319,89.437312 C332.588702,89.437312 335.721363,92.1153791 336.350119,96.0328094 L336.387562,96.2900363 L320.093122,96.2900363 C320.740583,92.1801656 323.914941,89.437312 328.267319,89.437312 Z M66.4546971,5.25640111 C52.7590944,5.25640111 40.1515863,9.74550876 29.94508,17.242054 C31.024182,19.1382389 31.6896282,21.2813689 31.6896282,23.6097076 C31.6896282,30.8681273 25.6916197,36.7507104 18.2817861,36.7507104 C16.5102603,36.7507104 14.8286597,36.3979318 13.2729544,35.7805693 C8.25513017,44.4765617 5.35953985,54.4954739 5.35953985,65.1758459 C5.35953985,72.3460709 6.71740984,79.1811562 9.07344917,85.5576294 L9.07344917,85.5576294 L38.3800605,93.6891761 L125.508553,50.059283 C118.656256,24.3329038 94.8170942,5.25640111 66.4546971,5.25640111 Z M126.668588,55.3862398 L86.8856947,75.3005917 L120.931362,92.1810476 C125.130867,84.0583204 127.558847,74.8948963 127.558847,65.1758459 C127.558847,61.8420882 127.208139,58.5788861 126.668588,55.3862398 L126.668588,55.3862398 Z M338.062868,29.8062637 C346.452886,29.8062637 352.639737,35.5124575 352.639737,44.2172694 C352.639737,52.9661787 346.452886,58.6723725 338.062868,58.6723725 C334.402913,58.6723725 331.1746,57.4552863 328.863523,54.8711831 L328.863523,68.5325343 L322.137121,68.5325343 L322.137121,30.1237645 L328.539793,30.1237645 L328.539793,33.8191203 C330.805907,31.1380029 334.133138,29.8062637 338.062868,29.8062637 Z M251.941537,29.8062637 C257.534882,29.8062637 261.99517,32.0816857 264.198337,36.3503067 L259.036632,39.3048275 C257.319062,36.6237101 254.73821,35.406624 251.887582,35.406624 C246.932705,35.406624 243.164841,38.784479 243.164841,44.2172694 C243.164841,49.7029766 246.932705,53.0279149 251.887582,53.0279149 C254.73821,53.0279149 257.319062,51.8108287 259.036632,49.1208919 L264.198337,52.0754127 C261.99517,56.2911169 257.534882,58.6723725 251.941537,58.6723725 C242.850103,58.6723725 236.393476,52.6574974 236.393476,44.2172694 C236.393476,35.7770415 242.850103,29.8062637 251.941537,29.8062637 Z M371.516828,29.8071457 C379.915838,29.8071457 386.039742,35.5574368 386.039742,44.3680823 C386.039742,44.8972502 385.994779,45.691002 385.940824,46.3260035 L363.396585,46.3260035 C364.205912,50.4358742 367.704001,53.0817136 372.70384,53.0817136 C375.932153,53.0817136 378.45905,52.0674752 380.500352,50.0125398 L384.106351,54.0783132 C381.525499,57.0857507 377.487859,58.664435 372.541975,58.664435 C362.910989,58.664435 356.679175,52.5966431 356.679175,44.2181514 C356.679175,35.8308402 362.964944,29.8071457 371.516828,29.8071457 Z M313.323556,30.13082 L313.323556,58.300191 L306.597153,58.300191 L306.597153,30.13082 L313.323556,30.13082 Z M276.473122,19.1576417 L276.473122,33.4010776 C278.676289,31.0815583 282.066467,29.8115554 286.04116,29.8115554 C292.929427,29.8115554 298.037177,33.6656616 298.037177,42.1588063 L298.037177,58.2984272 L291.310774,58.2984272 L291.310774,43.0054749 C291.310774,37.9871994 288.783877,35.5618465 284.485454,35.5618465 C279.692443,35.5618465 276.473122,38.4105337 276.473122,44.0549913 L276.473122,58.2984272 L269.74672,58.2984272 L269.74672,19.1576417 L276.473122,19.1576417 Z M195.562055,21.3704455 L212.548919,58.2975452 L205.238003,58.2975452 L201.470139,49.7514837 L182.648802,49.7514837 L178.934892,58.2975452 L171.731887,58.2975452 L188.673788,21.3704455 L195.562055,21.3704455 Z M233.320733,29.8080276 L233.320733,36.0874866 C232.727227,35.9816531 232.241631,35.9287363 231.756035,35.9287363 C226.648286,35.9287363 223.419972,38.883257 223.419972,44.6423676 L223.419972,58.2948994 L216.69357,58.2948994 L216.69357,30.1255283 L223.096242,30.1255283 L223.096242,34.2442185 C225.038625,31.2896977 228.536714,29.8080276 233.320733,29.8080276 Z M399.229066,19.1505862 L399.229066,58.2913716 L392.502663,58.2913716 L392.502663,19.1505862 L399.229066,19.1505862 Z M337.307496,35.406624 C332.469522,35.406624 328.755613,38.8373958 328.755613,44.2172694 C328.755613,49.5883236 332.469522,53.0279149 337.307496,53.0279149 C342.154463,53.0279149 345.805424,49.5883236 345.805424,44.2172694 C345.805424,38.8373958 342.154463,35.406624 337.307496,35.406624 Z M192.054974,28.2319892 L185.013833,44.3716101 L199.159062,44.3716101 L192.054974,28.2319892 Z M371.516828,35.0900052 C367.16445,35.0900052 363.990091,37.8328588 363.34263,41.9427294 L379.63707,41.9427294 C379.106512,37.8857755 375.932153,35.0900052 371.516828,35.0900052 Z M309.978339,17.5807214 C312.460274,17.5807214 314.285755,19.203503 314.285755,21.3642719 C314.285755,23.6926106 312.514229,25.482962 309.978339,25.482962 C307.505397,25.482962 305.679916,23.7455274 305.679916,21.5318417 C305.679916,19.318156 307.505397,17.5807214 309.978339,17.5807214 Z" id="Combined-Shape"></path>
            </g>
        </g>
    </g>
</svg>
