<svg width="350" height="350" viewBox="0 0 350 350" fill="none" xmlns="http://www.w3.org/2000/svg">
<path fill-rule="evenodd" clip-rule="evenodd" d="M317.75 247.493L228.294 202.172L332.824 148.704C334.242 157.276 335.163 166.037 335.163 174.988C335.163 201.082 328.784 225.685 317.75 247.493ZM174.611 335.887C130.025 335.887 89.6447 317.536 60.535 288.032L212.77 210.128L310.803 259.807C282.426 305.389 232.074 335.887 174.611 335.887ZM82.3909 260.967L50.7057 277.187C42.9794 267.786 36.4344 257.415 30.9763 246.404L82.3909 260.967ZM34.875 96.0659C38.9626 97.7234 43.381 98.6706 48.0358 98.6706C67.5053 98.6706 83.2652 82.8767 83.2652 63.3888C83.2652 57.1375 81.5167 51.3835 78.6813 46.2925C105.499 26.1653 138.626 14.1127 174.611 14.1127C249.134 14.1127 311.772 65.3305 329.776 134.402L100.844 251.543L23.8407 229.71C17.6501 212.59 14.0823 194.239 14.0823 174.988C14.0823 146.313 21.6905 119.413 34.875 96.0659ZM174.611 0C135.129 0 98.7888 13.3313 69.5136 35.5659C63.5594 30.9248 56.1638 28.0597 48.0358 28.0597C28.5899 28.0597 12.8064 43.8773 12.8064 63.3888C12.8064 73.1209 16.7523 81.9295 23.1318 88.2992C8.48246 113.896 0 143.448 0 174.988C0 271.504 78.3269 350 174.611 350C270.919 350 349.246 271.504 349.246 174.988C349.246 78.496 270.919 0 174.611 0Z" fill="#3C64F7"/>
</svg>
