<svg width="161" height="48" viewBox="0 0 161 48" fill="none" xmlns="http://www.w3.org/2000/svg">
<path fill-rule="evenodd" clip-rule="evenodd" d="M35.5996 14.111L45.5766 23.9712L35.7186 33.946L35.5996 23.094V14.111ZM33.9549 23.103L34.0918 35.5919L30.1238 39.607L30.003 20.5333L28.4193 20.5433L28.5501 41.1994L24.6174 45.1786L24.5555 33.7927L22.9717 33.8013L23.0304 44.5898L2.32588 24.1276L10.2216 16.1384C10.7738 16.4476 11.4116 16.624 12.091 16.624C14.1934 16.624 15.8978 14.9344 15.8978 12.8501C15.8978 12.149 15.7049 11.4926 15.369 10.9301L23.8725 2.32588L33.9549 12.2903V12.4855V23.103ZM14.2389 9.73381L22.7027 1.16978L23.8588 0L25.0286 1.15609L46.8303 22.7027L48.0001 23.8588L47.9025 23.9576L47.9902 24.0442L46.8341 25.214L35.7458 36.4335L34.1191 38.0795L34.1172 37.906L25.2974 46.8303L24.1413 48.0001L22.9715 46.844L1.16978 25.2974L0 24.1413L1.15609 22.9715L8.99223 15.0426C8.54655 14.4246 8.28428 13.6677 8.28428 12.8501C8.28428 10.7658 9.98862 9.07615 12.091 9.07615C12.8879 9.07615 13.6275 9.31888 14.2389 9.73381Z" fill="#3C64F7"/>
<path d="M73.2084 15.7867H64.8486L63.2006 19.9793H60L67.5238 1.86335H70.581L78.1287 19.9793H74.8803L73.2084 15.7867ZM72.1813 13.147L69.0285 5.22774L65.8996 13.147H72.1813Z" fill="#3C64F7"/>
<path d="M82.8107 8.17805C83.6706 6.72878 85.1833 6.00414 87.3488 6.00414V9.08385C87.0941 9.03209 86.8632 9.00621 86.6562 9.00621C85.4938 9.00621 84.5862 9.37716 83.9333 10.119C83.2804 10.8437 82.954 11.8961 82.954 13.2764V19.9793H79.9684V6.15942H82.8107V8.17805Z" fill="#3C64F7"/>
<path d="M95.6168 20.1605C94.2951 20.1605 93.1089 19.8585 92.0579 19.2547C91.007 18.6508 90.1869 17.814 89.5978 16.7443C89.0086 15.6573 88.714 14.4324 88.714 13.0694C88.714 11.7063 89.0086 10.49 89.5978 9.42029C90.1869 8.35059 90.999 7.5138 92.034 6.90994C93.085 6.30607 94.2792 6.00414 95.6168 6.00414C96.8747 6.00414 97.9734 6.28019 98.9129 6.8323C99.8683 7.3844 100.585 8.17805 101.063 9.21325L98.7696 10.6625C98.4034 10.0242 97.9416 9.54969 97.3843 9.23913C96.8429 8.91132 96.2457 8.74741 95.5929 8.74741C94.4783 8.74741 93.5547 9.14424 92.8222 9.93789C92.0898 10.7143 91.7235 11.7581 91.7235 13.0694C91.7235 14.3806 92.0818 15.4331 92.7983 16.2267C93.5308 17.0031 94.4623 17.3913 95.5929 17.3913C96.2457 17.3913 96.8429 17.236 97.3843 16.9255C97.9416 16.5977 98.4034 16.1146 98.7696 15.4762L101.063 16.9255C100.569 17.9607 99.8444 18.7629 98.889 19.3323C97.9495 19.8844 96.8588 20.1605 95.6168 20.1605Z" fill="#3C64F7"/>
<path d="M110.764 6.00414C112.372 6.00414 113.662 6.51311 114.633 7.53105C115.605 8.549 116.09 10.0587 116.09 12.06V19.9793H113.105V12.4741C113.105 11.2664 112.842 10.3606 112.316 9.75673C111.791 9.13561 111.043 8.82505 110.071 8.82505C108.973 8.82505 108.105 9.18737 107.468 9.91201C106.831 10.6194 106.512 11.646 106.512 12.9917V19.9793H103.527V0.776397H106.512V7.76398C107.006 7.19462 107.611 6.76328 108.328 6.46998C109.06 6.15942 109.872 6.00414 110.764 6.00414Z" fill="#3C64F7"/>
<path d="M119.878 6.15942H122.863V19.9793H119.878V6.15942ZM121.382 3.88199C120.841 3.88199 120.387 3.70083 120.021 3.33851C119.655 2.95894 119.472 2.4931 119.472 1.94099C119.472 1.38889 119.655 0.931676 120.021 0.569357C120.387 0.189786 120.841 0 121.382 0C121.924 0 122.378 0.181159 122.744 0.543477C123.11 0.888543 123.293 1.3285 123.293 1.86335C123.293 2.43271 123.11 2.9158 122.744 3.31263C122.394 3.6922 121.94 3.88199 121.382 3.88199Z" fill="#3C64F7"/>
<path d="M133.852 6.00414C135.094 6.00414 136.201 6.29745 137.172 6.88406C138.159 7.47067 138.931 8.29883 139.489 9.36853C140.046 10.4382 140.325 11.6718 140.325 13.0694C140.325 14.4669 140.046 15.7091 139.489 16.7961C138.931 17.8658 138.159 18.6939 137.172 19.2805C136.201 19.8671 135.094 20.1605 133.852 20.1605C132.132 20.1605 130.771 19.5393 129.768 18.2971V25H126.782V6.15942H129.624V7.97101C130.118 7.31539 130.723 6.82367 131.44 6.49586C132.172 6.16805 132.976 6.00414 133.852 6.00414ZM133.518 17.3913C134.616 17.3913 135.516 16.9945 136.217 16.2008C136.933 15.4072 137.291 14.3634 137.291 13.0694C137.291 11.7754 136.933 10.7315 136.217 9.93789C135.516 9.14424 134.616 8.74741 133.518 8.74741C132.801 8.74741 132.156 8.92857 131.583 9.29089C131.01 9.63596 130.556 10.1363 130.221 10.7919C129.887 11.4475 129.72 12.2067 129.72 13.0694C129.72 13.932 129.887 14.6912 130.221 15.3468C130.556 16.0024 131.01 16.5114 131.583 16.8737C132.156 17.2188 132.801 17.3913 133.518 17.3913Z" fill="#3C64F7"/>
<path d="M155.147 13.147C155.147 13.3713 155.131 13.6905 155.099 14.1046H145.091C145.266 15.1225 145.72 15.9334 146.452 16.5373C147.201 17.1239 148.124 17.4172 149.223 17.4172C150.624 17.4172 151.779 16.9168 152.686 15.9161L154.287 17.9089C153.713 18.6508 152.989 19.2115 152.113 19.5911C151.237 19.9707 150.25 20.1605 149.151 20.1605C147.75 20.1605 146.516 19.8585 145.449 19.2547C144.382 18.6508 143.554 17.814 142.965 16.7443C142.392 15.6573 142.105 14.4324 142.105 13.0694C142.105 11.7236 142.384 10.5159 142.941 9.44617C143.515 8.35921 144.303 7.5138 145.306 6.90994C146.309 6.30607 147.44 6.00414 148.698 6.00414C149.94 6.00414 151.046 6.30607 152.018 6.90994C153.005 7.49655 153.769 8.33333 154.311 9.42029C154.868 10.49 155.147 11.7322 155.147 13.147ZM148.698 8.59213C147.742 8.59213 146.93 8.90269 146.261 9.52381C145.608 10.1277 145.21 10.9386 145.067 11.9565H152.304C152.177 10.9558 151.787 10.1449 151.134 9.52381C150.481 8.90269 149.669 8.59213 148.698 8.59213Z" fill="#3C64F7"/>
<path d="M158.014 0.776397H161V19.9793H158.014V0.776397Z" fill="#3C64F7"/>
<path fill-rule="evenodd" clip-rule="evenodd" d="M161 24H60V48H161V24ZM118.016 41.2457L120.419 39.0134L125.199 44.8224H129.127L122.822 36.9586L128.584 31.2764H124.708L118.016 37.3645V26H114.786V44.8224H118.016V41.2457ZM80.5883 33.0521L80.6141 44.8224H83.7922L83.7664 27.0654H81.0017L73.9478 38.8358L66.7647 27.0654H64V44.8224H67.204V33.2043L73.1468 42.7931H74.6454L80.5883 33.0521ZM98.2896 32.5701C97.2216 31.6061 95.6713 31.1242 93.6387 31.1242C92.5018 31.1242 91.4252 31.2679 90.4089 31.5554C89.3925 31.8429 88.5227 32.2572 87.7992 32.7984L89.0653 35.1068C89.582 34.684 90.2108 34.3543 90.9515 34.1175C91.7094 33.8807 92.4759 33.7624 93.2511 33.7624C94.388 33.7624 95.2406 34.016 95.8091 34.5234C96.3948 35.0307 96.6876 35.7579 96.6876 36.7049V36.9079H93.1219C91.1409 36.9079 89.6854 37.2799 88.7552 38.024C87.8422 38.7512 87.3858 39.7236 87.3858 40.9413C87.3858 41.7192 87.5925 42.421 88.0059 43.0467C88.4365 43.6555 89.0394 44.1375 89.8146 44.4927C90.5897 44.8309 91.4941 45 92.5276 45C93.5611 45 94.4396 44.8478 95.1631 44.5434C95.9038 44.2221 96.4723 43.7655 96.8685 43.1736V44.8224H99.9174V36.8825C99.9174 34.9546 99.3748 33.5171 98.2896 32.5701ZM95.344 42.1589C94.7239 42.514 94.009 42.6916 93.1994 42.6916C92.3726 42.6916 91.7266 42.5225 91.2615 42.1842C90.7964 41.846 90.5639 41.3894 90.5639 40.8144C90.5639 39.6137 91.4941 39.0134 93.3544 39.0134H96.6876V40.5861C96.4292 41.2626 95.9813 41.7868 95.344 42.1589ZM107.137 33.255C108.067 31.8344 109.704 31.1242 112.046 31.1242V34.1429C111.771 34.0921 111.521 34.0668 111.297 34.0668C110.04 34.0668 109.058 34.4304 108.352 35.1575C107.645 35.8678 107.292 36.8994 107.292 38.2523V44.8224H104.062V31.2764H107.137V33.255ZM143.603 38.1255C143.603 38.3454 143.586 38.6582 143.552 39.0641H132.725C132.915 40.0619 133.406 40.8567 134.198 41.4486C135.008 42.0236 136.007 42.3111 137.196 42.3111C138.711 42.3111 139.96 41.8207 140.942 40.8398L142.673 42.7931C142.053 43.5203 141.269 44.0699 140.322 44.4419C139.375 44.814 138.307 45 137.118 45C135.602 45 134.267 44.7041 133.113 44.1122C131.959 43.5203 131.063 42.7 130.426 41.6515C129.806 40.5861 129.496 39.3854 129.496 38.0494C129.496 36.7303 129.797 35.5465 130.4 34.498C131.02 33.4326 131.873 32.6039 132.958 32.012C134.043 31.4201 135.266 31.1242 136.627 31.1242C137.971 31.1242 139.168 31.4201 140.219 32.012C141.287 32.587 142.113 33.4072 142.699 34.4726C143.302 35.5211 143.603 36.7388 143.603 38.1255ZM136.627 33.6609C135.594 33.6609 134.715 33.9653 133.992 34.5741C133.285 35.166 132.855 35.9608 132.7 36.9586H140.529C140.391 35.9777 139.969 35.1829 139.263 34.5741C138.556 33.9653 137.678 33.6609 136.627 33.6609ZM153.605 44.7717C154.156 44.6195 154.621 44.3912 155 44.0868L154.096 41.8291C153.613 42.2012 153.01 42.3872 152.287 42.3872C151.667 42.3872 151.193 42.2181 150.866 41.8798C150.539 41.5247 150.375 41.0174 150.375 40.3578V33.9146H154.07V31.3778H150.375V28.283H147.145V31.3778H144.871V33.9146H147.145V40.4339C147.145 41.9221 147.559 43.0552 148.385 43.8331C149.212 44.611 150.384 45 151.899 45C152.502 45 153.071 44.9239 153.605 44.7717Z" fill="#3C64F7"/>
</svg>
