<svg width="1103" height="350" viewBox="0 0 1103 350" fill="none" xmlns="http://www.w3.org/2000/svg">
<path fill-rule="evenodd" clip-rule="evenodd" d="M111.653 67.7773C138.063 54.8493 160.747 49.7614 178.974 52.6267C197.52 55.5606 210.908 65.207 218.752 81.3154C223.373 90.7921 225.184 100.616 224.127 110.517C223.587 115.569 222.163 120.548 220.062 125.442C220.022 126.076 219.998 126.711 219.929 127.345C219.639 130.057 219.038 132.74 218.3 135.407C229.035 135.355 238.778 137.444 247.331 141.675L249.206 142.65C259.057 148.04 266.824 156.467 272.309 167.725C279.809 183.114 280.322 198.362 273.938 213.165C273.305 221.199 270.805 229.152 266.24 236.956C256.497 253.634 237.79 268.825 210.642 282.113L98.4104 337.037L0.825195 136.79L6.91041 119.036L111.653 67.7773ZM178.321 56.7851C160.936 54.033 139.112 59.0199 113.504 71.5558L10.6406 121.894L14.6087 130.045L16.4516 133.819L37.3526 176.713L125.61 136.442C125.167 134.979 124.86 133.46 124.86 131.851C124.86 123.061 131.974 115.937 140.741 115.937C149.512 115.937 156.625 123.061 156.625 131.851C156.625 140.641 149.512 147.766 140.741 147.766C135.071 147.766 130.131 144.767 127.32 140.285L39.1955 180.491L77.223 258.536L181.748 206.671C181.208 205.066 180.845 203.377 180.845 201.587C180.845 192.797 187.955 185.672 196.725 185.672C205.5 185.672 212.61 192.797 212.61 201.587C212.61 210.376 205.5 217.501 196.725 217.501C191.241 217.501 186.402 214.713 183.551 210.469L79.0619 262.314L104.536 314.58L212.997 261.506C239.386 248.59 257.497 233.953 266.812 217.998C267.982 216.002 269.01 214.005 269.905 212.009C270.704 210.223 271.357 208.437 271.934 206.646C272.543 204.759 273.014 202.868 273.381 200.973C275.357 190.7 273.777 180.314 268.538 169.576C263.122 158.467 255.364 150.348 245.472 145.446C237.165 141.34 227.587 139.428 216.989 139.651C216.231 139.667 215.481 139.679 214.715 139.715C213.953 139.752 213.17 139.816 212.396 139.877C211.783 139.926 211.178 139.946 210.561 140.006L208.682 136.636C211.686 132.704 214.082 128.679 215.921 124.593C216.739 122.766 217.437 120.928 218.022 119.081C218.627 117.169 219.131 115.25 219.482 113.322C219.675 112.239 219.836 111.156 219.953 110.069C220.925 100.968 219.252 91.9196 214.981 83.1663C207.666 68.1531 195.677 59.525 178.321 56.7851ZM938.103 166.867C943.668 166.867 948.725 168.023 953.261 170.33C957.794 172.638 961.391 175.98 964.041 180.357C966.686 184.733 968.013 189.914 968.013 195.903C968.013 196.049 967.9 197.665 967.698 200.765H927.065C927.892 203.654 929.489 205.881 931.864 207.433C934.239 208.981 937.207 209.752 940.784 209.752C943.47 209.752 945.785 209.377 947.745 208.621C949.701 207.865 951.681 206.625 953.673 204.903L963.988 215.645C958.552 221.715 950.616 224.741 940.163 224.741C933.635 224.741 927.892 223.501 922.944 221.019C917.996 218.542 914.161 215.095 911.443 210.682C908.729 206.277 907.37 201.286 907.37 195.705C907.37 190.189 908.697 185.242 911.342 180.87C913.988 176.501 917.649 173.07 922.323 170.589C927.001 168.112 932.26 166.867 938.103 166.867ZM468.993 166.281C475.046 166.281 480.478 167.506 485.289 169.951C490.104 172.396 493.846 175.802 496.532 180.179C499.21 184.552 500.553 189.526 500.553 195.116C500.553 200.692 499.21 205.691 496.532 210.096C493.846 214.505 490.104 217.953 485.289 220.43C480.478 222.911 475.046 224.152 468.993 224.152C463.013 224.152 457.617 222.911 452.806 220.43C447.992 217.953 444.229 214.505 441.511 210.096C438.797 205.691 437.438 200.692 437.438 195.116C437.438 189.599 438.797 184.641 441.511 180.232C444.229 175.823 447.975 172.396 452.754 169.951C457.533 167.506 462.944 166.281 468.993 166.281ZM1001 166.28C1005.06 166.28 1009.08 166.692 1013.07 167.52C1017.06 168.349 1020.4 169.517 1023.07 171.028L1017.2 184.368C1012.25 181.612 1006.89 180.23 1001.12 180.23C998.018 180.23 995.748 180.59 994.309 181.317C992.865 182.04 992.143 182.99 992.143 184.158C992.143 185.467 992.925 186.377 994.51 186.898C996.095 187.415 998.704 187.949 1002.35 188.498C1006.95 189.189 1010.77 189.982 1013.79 190.875C1016.82 191.768 1019.45 193.409 1021.69 195.785C1023.92 198.165 1025.04 201.487 1025.04 205.755C1025.04 209.27 1023.97 212.423 1021.84 215.211C1019.71 218.003 1016.56 220.194 1012.41 221.774C1008.24 223.358 1003.24 224.15 997.402 224.15C992.728 224.15 988.114 223.617 983.582 222.55C979.045 221.483 975.4 220.085 972.649 218.363L978.525 204.934C981.073 206.51 984.094 207.771 987.606 208.705C991.107 209.634 994.583 210.095 998.018 210.095C1001.18 210.095 1003.43 209.767 1004.78 209.113C1006.11 208.458 1006.78 207.512 1006.78 206.276C1006.78 205.035 1005.98 204.154 1004.36 203.633C1002.74 203.124 1000.18 202.618 996.676 202.138C992.212 201.588 988.409 200.869 985.284 199.967C982.154 199.07 979.456 197.421 977.19 195.009C974.916 192.596 973.786 189.218 973.786 184.877C973.786 181.301 974.851 178.108 976.98 175.32C979.11 172.531 982.223 170.325 986.32 168.708C990.401 167.088 995.301 166.28 1001 166.28ZM538.194 166.282C544.521 166.282 549.986 167.64 554.591 170.36C559.192 173.083 562.458 176.854 564.386 181.679L549.227 189.426C546.687 184.403 542.973 181.885 538.089 181.885C534.585 181.885 531.677 183.053 529.379 185.397C527.072 187.741 525.923 190.974 525.923 195.112C525.923 199.315 527.072 202.605 529.379 204.985C531.677 207.357 534.585 208.545 538.089 208.545C542.973 208.545 546.687 206.036 549.227 201.004L564.386 208.751C562.458 213.577 559.192 217.347 554.591 220.071C549.986 222.787 544.521 224.149 538.194 224.149C532.004 224.149 526.471 222.912 521.588 220.431C516.708 217.953 512.914 214.506 510.192 210.093C507.482 205.692 506.119 200.693 506.119 195.112C506.119 189.527 507.482 184.553 510.192 180.18C512.914 175.803 516.708 172.392 521.588 169.947C526.471 167.507 532.004 166.282 538.194 166.282ZM760.539 165.766C770.157 165.766 777.5 167.887 782.557 172.143C787.622 176.386 790.151 182.9 790.151 191.682V222.88H771.234V215.622C768.31 221.086 762.604 223.814 754.123 223.814C749.635 223.814 745.752 223.054 742.473 221.539C739.199 220.019 736.714 217.958 735.045 215.368C733.367 212.773 732.533 209.823 732.533 206.505C732.533 201.183 734.634 197.053 738.84 194.119C743.046 191.181 749.534 189.706 758.297 189.706H769.838C769.479 183.769 765.382 180.799 757.547 180.799C754.768 180.799 751.946 181.223 749.099 182.092C746.252 182.953 743.828 184.145 741.832 185.665L734.993 172.292C738.198 170.219 742.098 168.615 746.699 167.471C751.292 166.335 755.91 165.766 760.539 165.766ZM874.617 166.668C881.528 166.668 887.053 168.712 891.17 172.79C895.288 176.868 897.344 183.031 897.344 191.255V222.881H878.431V194.047C878.431 190.119 877.669 187.225 876.133 185.366C874.604 183.507 872.447 182.578 869.669 182.578C866.604 182.578 864.144 183.609 862.293 185.678C860.438 187.747 859.51 190.883 859.51 195.086V222.881H840.593V194.047C840.593 186.397 837.686 182.578 831.887 182.578C828.762 182.578 826.282 183.609 824.443 185.678C822.596 187.747 821.68 190.883 821.68 195.086V222.881H802.759V167.589H820.1V173.4C822.18 171.161 824.656 169.472 827.524 168.349C830.399 167.233 833.528 166.668 836.924 166.668C840.872 166.668 844.396 167.383 847.513 168.814C850.627 170.244 853.155 172.418 855.099 175.336C857.305 172.556 860.107 170.414 863.507 168.911C866.89 167.415 870.592 166.668 874.617 166.668ZM366.912 150.21C376.163 150.21 383.208 151.92 388.043 155.343C392.878 158.778 395.298 163.389 395.298 169.204C395.298 172.668 394.455 175.767 392.761 178.495C391.064 181.235 388.664 183.397 385.559 184.985C389.705 186.44 392.951 188.707 395.298 191.787C397.649 194.87 398.818 198.584 398.818 202.945C398.818 209.318 396.266 214.228 391.152 217.691C386.043 221.15 378.647 222.88 368.985 222.88H329.828V150.21H366.912ZM427.564 145.47V222.88H408.651V145.47H427.564ZM591.517 145.472V186.867L611.269 167.59H634.174L611.269 191.255L636.114 222.882H612.692L597.219 203.496L591.517 209.312V222.882H572.6V145.472H591.517ZM668.227 145.502C670.678 145.502 673.062 145.74 675.38 146.221C677.703 146.706 679.611 147.426 681.107 148.392L676.304 162.241C674.396 161.138 672.449 160.588 670.477 160.588C668.428 160.588 666.843 161.21 665.722 162.451C664.597 163.692 664.033 165.514 664.033 167.927V169.168H676.647V183.389H664.033V222.884H645.116V183.389H637.232V169.168H645.116V167.721C645.116 160.899 647.144 155.492 651.197 151.491C655.25 147.498 660.928 145.502 668.227 145.502ZM730.243 166.658V184.132C728.509 183.938 727.07 183.833 725.937 183.833C721.86 183.833 718.67 184.94 716.363 187.147C714.056 189.362 712.903 192.744 712.903 197.291V222.88H692.409V167.587H711.326V174.304C713.335 171.754 715.952 169.842 719.178 168.569C722.4 167.292 726.09 166.658 730.243 166.658ZM769.657 200.767H761.201C755.49 200.767 752.643 202.658 752.643 206.445C752.643 208.166 753.297 209.544 754.599 210.583C755.91 211.613 757.692 212.135 759.966 212.135C762.233 212.135 764.221 211.577 765.943 210.474C767.665 209.379 768.899 207.758 769.657 205.624V200.767ZM366.908 194.446H350.322V208.663H366.908C373.836 208.663 377.296 206.295 377.296 201.554C377.296 196.818 373.836 194.446 366.908 194.446ZM468.993 181.889C465.558 181.889 462.739 183.056 460.537 185.396C458.335 187.74 457.242 190.977 457.242 195.116C457.242 199.318 458.335 202.604 460.537 204.984C462.739 207.356 465.558 208.545 468.993 208.545C472.433 208.545 475.248 207.356 477.45 204.984C479.652 202.604 480.748 199.318 480.748 195.116C480.748 190.977 479.652 187.74 477.45 185.396C475.248 183.056 472.433 181.889 468.993 181.889ZM938.208 180.098C935.179 180.098 932.655 180.963 930.626 182.684C928.598 184.406 927.312 186.75 926.755 189.704H949.652C949.1 186.75 947.813 184.406 945.785 182.684C943.756 180.963 941.228 180.098 938.208 180.098ZM364.618 166.008H350.322V180.229H364.618C371.63 180.229 375.135 177.836 375.135 173.064C375.135 168.36 371.63 166.008 364.618 166.008Z" fill="#1A49F5"/>
</svg>
