<?xml version="1.0" encoding="UTF-8"?>
<svg width="123px" height="26px" viewBox="0 0 123 26" version="1.1" xmlns="http://www.w3.org/2000/svg" xmlns:xlink="http://www.w3.org/1999/xlink">
    <title>Group 29</title>
    <g id="Landing-page" stroke="none" stroke-width="1" fill="none" fill-rule="evenodd">
        <g id="Landing_sellers" transform="translate(-972.000000, -5031.000000)" fill-rule="nonzero">
            <g id="Group-23" transform="translate(0.000000, 583.000000)">
                <g id="footer" transform="translate(81.000000, 4278.000000)">
                    <g id="Group-27" transform="translate(891.000000, 134.000000)">
                        <g id="logoCascade8_2" transform="translate(0.000000, 36.000000)">
                            <path d="M84.3295455,22.3727679 C82.3963253,22.3727679 80.8352273,20.5050298 80.8352273,18.0650848 C80.8352273,15.5385446 82.3963253,13.6674107 84.3295455,13.6674107 C86.2627656,13.6674107 87.8238636,15.6285356 87.8238636,18.0650848 C87.8238636,20.4422059 86.261253,22.3727679 84.3295455,22.3727679 M87.8306575,11.9069962 C86.773832,10.6973396 85.4528,10.1363151 83.8403862,10.1363151 C80.2728451,10.1363151 77.3409091,13.7046333 77.3409091,18.0681575 C77.3409091,22.4620074 80.2215136,26 84.3431332,26 C88.4375773,26 91.3181818,22.4620074 91.3181818,18.0681575 L91.3181818,2.78571429 L87.8306575,2.78571429 L87.8306575,11.9069962 Z" id="Shape" fill="#004876"></path>
                            <path d="M96.2805284,18.8818034 C96.3555437,16.6136422 97.8962432,15.0671687 99.8149045,15.0671687 C100.803644,15.0419853 101.750389,15.4751883 102.38995,16.2454342 L96.2805284,18.8818034 Z M99.8466418,12.0773199 C96.1607924,12.0773199 93.1818182,15.221816 93.1818182,19.0614888 C93.1818182,22.9011616 96.1535794,26 99.8466418,26 C103.078071,26 105.376137,24.1692699 106.133504,21.4636777 L102.565948,21.4636777 C102.010546,22.5196982 100.899742,23.0101512 99.8149045,23.0101512 C98.7170561,23.022008 97.6817907,22.4894104 97.0378947,21.5815043 L106.227273,17.6387332 C105.595413,14.0818441 102.969876,12.0714286 99.8394288,12.0714286" id="Shape" fill="#004876"></path>
                            <path d="M68.2765759,22.7187812 C66.2862534,22.7187812 64.6762274,21.1144895 64.6762274,19.0187012 C64.6762274,16.8485322 66.2862534,15.2413236 68.2765759,15.2413236 C70.2668983,15.2413236 71.8769243,16.9258299 71.8769243,19.0187012 C71.8769243,21.060527 70.2684569,22.7187812 68.2765759,22.7187812 M68.2765759,12.0721184 C66.4521274,12.0475195 64.6876903,12.6816205 63.3498653,13.842673 L63.3498653,13.842673 C63.2158263,13.9520565 63.0849046,14.0628985 62.9571,14.1810327 L60.7314301,16.2651534 L60.1531923,16.8062372 L57.7233467,19.079956 L57.2744721,19.4999887 L54.919439,21.7037021 C53.6521234,22.8969556 51.685627,23.1434156 50.1274119,22.3042846 C48.5691967,21.4651535 47.8089481,19.750285 48.2748116,18.125433 C48.7406751,16.500581 50.3161454,15.3720958 52.1139727,15.3755008 C52.6794864,15.3767071 53.2383075,15.4900384 53.7536119,15.7080267 L56.2722972,13.3511764 C53.0422342,11.302532 48.6669663,11.9546811 46.2769655,14.841016 C43.8869646,17.7273508 44.3046667,21.8546393 47.231209,24.269837 C50.1577513,26.6850346 54.5860657,26.557035 57.347726,23.9774209 L60.1531923,21.3522164 L61.1880976,20.3823491 C61.8240033,23.4946749 64.5437471,25.8325654 67.7856193,25.8325654 C69.476692,25.8325654 71.0041126,25.2710633 72.0686312,24.1743112 L72.0686312,25.5525436 L75.4772727,25.5525436 L75.4772727,18.9895323 C75.4772727,15.1873611 72.505037,12.0735769 68.2765759,12.0735769" id="Shape" fill="#004876"></path>
                            <path d="M23.5535358,22.7212483 C21.5615321,22.7212483 19.9529657,21.1165855 19.9529657,19.0203125 C19.9529657,16.8496414 21.5615321,15.2420611 23.5535358,15.2420611 C25.5455396,15.2420611 27.1541059,16.926957 27.1541059,19.0203125 C27.1541059,21.0626105 25.5439809,22.7212483 23.5535358,22.7212483 M23.5535358,12.0721227 C21.7284961,12.0474428 19.9634352,12.6816751 18.6249632,13.8430869 L18.6249632,13.8430869 C18.4924747,13.9524957 18.3599862,14.0633633 18.2337324,14.1815249 L16.0079255,16.2661277 L15.424976,16.8058779 L12.9934222,19.0801226 L12.5445199,19.5002525 L10.1940179,21.7044756 C8.92657457,22.8958024 6.9617494,23.1409178 5.40513593,22.3018972 C3.84852246,21.4628765 3.08898383,19.7493185 3.55390719,18.1254305 C4.01883055,16.5015424 5.59207175,15.3729935 7.3883788,15.3748104 C7.95605,15.3750129 8.51716186,15.488397 9.03435371,15.7074133 L11.548518,13.3500178 C8.31917875,11.299478 3.94321564,11.9499971 1.55170652,14.8361173 C-0.839802601,17.7222374 -0.423863528,21.8507532 2.50191209,24.2676395 C5.42768771,26.6845259 9.8564476,26.5580556 12.6193369,23.9787204 L15.424976,21.3529086 L16.4599451,20.382817 C17.0943312,23.4958628 19.8158011,25.834294 23.0578729,25.834294 C24.7490498,25.834294 26.2765644,25.2726621 27.3395899,24.1756563 L27.3395899,25.5542074 L30.75,25.5542074 L30.75,18.989678 C30.75,15.1866273 27.7760226,12.0721227 23.5488598,12.0721227" id="Shape" fill="#004876"></path>
                            <path d="M42.0849589,13.456254 C40.6434336,12.526428 38.9164335,12.0418633 37.1543858,12.0728251 C33.97032,12.0728251 31.7320163,13.7872939 31.7320163,16.2216661 C31.7320163,17.4243963 32.2222364,18.326444 33.2373544,18.9278091 C33.9009641,19.3499211 34.2508961,19.469905 36.1392678,20.0712701 C38.0638937,20.6726352 38.4831815,20.9386236 38.4831815,21.6946668 C38.4831815,22.5070879 37.6430295,23.140256 36.5601319,23.140256 C35.2991158,23.140256 34.1815402,22.6588748 32.9567783,21.6064858 L30.75,23.8312476 C32.2670359,25.237179 34.3404396,26.0194779 36.4970811,25.9996314 C40.2391465,25.9996314 42.8636364,24.0755522 42.8636364,21.3390518 C42.8636364,20.1059643 42.3040604,19.1128445 41.1849086,18.4478735 C40.4850447,17.9968496 39.9601467,17.7857936 38.246741,17.274055 C36.2874372,16.6958194 35.8334713,16.4327221 35.8334713,15.8284658 C35.8334713,15.1967434 36.531759,14.7153622 37.4775211,14.7153622 C38.3160969,14.7153622 39.0853167,14.9871329 39.9995534,15.5827157 L42.0849589,13.456254 Z" id="Path" fill="#004876"></path>
                            <path d="M111.864665,24.1414269 C110.647004,22.9726299 109.957292,21.3480515 109.957292,19.6487196 C109.957292,17.9493878 110.647004,16.3248094 111.864665,15.1560124 L112.995647,14.0546337 L115.396531,16.392004 L114.265549,17.4933827 C113.681775,18.05432 113.351165,18.8336163 113.351165,19.6487196 C113.351165,20.463823 113.681775,21.2431193 114.265549,21.8040566 C115.507604,22.9909726 117.447764,22.9909726 118.689819,21.8040566 C119.273994,21.2433439 119.604887,20.4639638 119.604887,19.6487196 C119.604887,18.8334755 119.273994,18.0540954 118.689819,17.4933827 L111.864665,10.8468682 C110.645394,9.67897254 109.954545,8.05405794 109.954545,6.35416091 C109.954545,4.65426389 110.645394,3.02934928 111.864665,1.86145363 C114.451486,-0.620484543 118.502371,-0.620484543 121.089193,1.86145363 C122.307255,3.03002572 122.997251,4.65468805 122.997251,6.35416091 C122.997251,8.05363377 122.307255,9.67829611 121.089193,10.8468682 L120.02163,11.8855295 L117.620746,9.54815915 L118.688309,8.50796815 C119.272,7.94729969 119.60258,7.16825394 119.60258,6.35339607 C119.60258,5.53853819 119.272,4.75949245 118.688309,4.19882398 C117.44776,3.00807203 115.504587,3.00807203 114.264039,4.19882398 C113.679946,4.75926772 113.349082,5.53839728 113.349082,6.35339607 C113.349082,7.16839485 113.679946,7.94752442 114.264039,8.50796815 L121.089193,15.1560124 C122.308867,16.323682 123,17.9486809 123,19.6487196 C123,21.3487584 122.308867,22.9737573 121.089193,24.1414269 C118.500862,26.6195244 114.452995,26.6195244 111.864665,24.1414269" id="Path" fill="#008BD2"></path>
                        </g>
                    </g>
                </g>
            </g>
        </g>
    </g>
</svg>