<?xml version="1.0" encoding="UTF-8"?>
<svg width="12px" height="20px" viewBox="0 0 12 20" version="1.1" xmlns="http://www.w3.org/2000/svg" xmlns:xlink="http://www.w3.org/1999/xlink">
    <title>facebook-logo</title>
    <g id="Landing-page" stroke="none" stroke-width="1" fill="none" fill-rule="evenodd">
        <g id="Landing_sellers" transform="translate(-1348.000000, -5034.000000)" fill="#1A49F5" fill-rule="nonzero">
            <g id="Group-23" transform="translate(0.000000, 583.000000)">
                <g id="footer" transform="translate(81.000000, 4278.000000)">
                    <g id="Group-27" transform="translate(891.000000, 134.000000)">
                        <g id="Group-25" transform="translate(263.000000, 39.000000)">
                            <g id="facebook-logo" transform="translate(113.133771, 0.000000)">
                                <path d="M10.0237455,0.00412972509 L7.52926592,0 C4.72680366,0 2.91572944,1.91722487 2.91572944,4.88463883 L2.91572944,7.13678441 L0.407641789,7.13678441 C0.190913239,7.13678441 0.0154091398,7.31807934 0.0154091398,7.54170395 L0.0154091398,10.8048062 C0.0154091398,11.0284308 0.191113357,11.2095193 0.407641789,11.2095193 L2.91572944,11.2095193 L2.91572944,19.4433652 C2.91572944,19.6669898 3.09123354,19.8480782 3.30796209,19.8480782 L6.58030305,19.8480782 C6.7970316,19.8480782 6.9725357,19.6667833 6.9725357,19.4433652 L6.9725357,11.2095193 L9.90507511,11.2095193 C10.1218037,11.2095193 10.2973078,11.0284308 10.2973078,10.8048062 L10.2985085,7.54170395 C10.2985085,7.4343311 10.2570839,7.33150095 10.1836403,7.255514 C10.1101968,7.17952706 10.0101374,7.13678441 9.90607571,7.13678441 L6.9725357,7.13678441 L6.9725357,5.2276125 C6.9725357,4.30998759 7.1844614,3.8441546 8.34294855,3.8441546 L10.0233453,3.84353514 C10.2398737,3.84353514 10.4153778,3.66224021 10.4153778,3.43882208 L10.4153778,0.408842784 C10.4153778,0.185631143 10.2400738,0.00454269759 10.0237455,0.00412972509 Z" id="Path"></path>
                            </g>
                        </g>
                    </g>
                </g>
            </g>
        </g>
    </g>
</svg>