<?xml version="1.0" encoding="UTF-8"?>
<svg width="20px" height="20px" viewBox="0 0 20 20" version="1.1" xmlns="http://www.w3.org/2000/svg" xmlns:xlink="http://www.w3.org/1999/xlink">
    <title>instagram</title>
    <g id="Landing-page" stroke="none" stroke-width="1" fill="none" fill-rule="evenodd">
        <g id="Landing_sellers" transform="translate(-1310.000000, -5035.000000)" fill="#1A49F5" fill-rule="nonzero">
            <g id="Group-23" transform="translate(0.000000, 583.000000)">
                <g id="footer" transform="translate(81.000000, 4278.000000)">
                    <g id="Group-27" transform="translate(891.000000, 134.000000)">
                        <g id="Group-25" transform="translate(263.000000, 39.000000)">
                            <g id="instagram" transform="translate(75.422514, 1.178186)">
                                <path d="M3.99094845,6.41894292 C4.24479971,6.01677639 4.54310165,5.64321771 4.88401288,5.30239051 C5.47380369,4.7127451 6.16089248,4.24968107 6.92620266,3.92604803 C7.7191334,3.59074358 8.56078679,3.42075339 9.42777742,3.42075339 C10.2947681,3.42075339 11.1364214,3.5907804 11.9293522,3.92604803 C12.6946624,4.24968107 13.381788,4.7127451 13.971542,5.30239051 C14.3124532,5.64321771 14.610792,6.01677639 14.8646064,6.41894292 L18.8556285,6.41894292 L18.8556285,3.9358417 C18.8556285,1.76558577 17.0896074,0 14.9188532,0 L3.93677534,0 C1.76602111,0 0,1.76558577 0,3.93580489 L0,6.41894292 L3.99094845,6.41894292 L3.99094845,6.41894292 Z M16.2094694,3.76088104 L15.1046474,3.76088104 L15.1046474,2.65633141 L16.2094694,2.65633141 L16.2094694,3.76088104 Z" id="Shape"></path>
                                <path d="M15.4206633,7.52349255 C15.707917,8.26335671 15.8536799,9.04331602 15.8536799,9.84507178 C15.8536799,10.7118487 15.6836478,11.5532946 15.3482606,12.3460299 C15.0245478,13.1111514 14.5613696,13.7981076 13.9715788,14.3877162 C13.381788,14.9773616 12.6946992,15.4404257 11.929389,15.7640587 C11.1364583,16.0993632 10.2948049,16.2693534 9.42781425,16.2693534 C8.56082361,16.2693534 7.71917023,16.0993263 6.92623949,15.7640587 C6.1609293,15.4404257 5.47380369,14.9773616 4.88404971,14.3877162 C4.29425891,13.7980708 3.83108071,13.1111514 3.50736787,12.3460299 C3.17198074,11.5532946 3.00194864,10.7118487 3.00194864,9.84507178 C3.00194864,9.04335284 3.14774831,8.26335671 3.4349652,7.52349255 L-2.09339529e-15,7.52349255 L-2.09339529e-15,14.9151755 C-2.09339529e-15,17.0853946 1.76602111,18.8509804 3.93677534,18.8509804 L14.9188163,18.8509804 C17.0896074,18.8509804 18.8556285,17.0853946 18.8556285,14.9151755 L18.8556285,7.52349255 L15.4206633,7.52349255 Z" id="Path"></path>
                                <path d="M9.42781425,7.59477282 C8.18673089,7.59477282 7.17699725,8.60425754 7.17699725,9.84503496 C7.17699725,11.0858124 8.18673089,12.0952971 9.42781425,12.0952971 C10.6688976,12.0952971 11.6786312,11.0858492 11.6786312,9.84507178 C11.6786312,8.60429436 10.6688976,7.59477282 9.42781425,7.59477282 L9.42781425,7.59477282 Z" id="Path"></path>
                                <path d="M9.42781425,4.52530303 C6.48906143,4.52530303 4.10677062,6.9070434 4.10677062,9.84503496 C4.10677062,12.7830265 6.48906143,15.1648037 9.42781425,15.1648037 C12.3665671,15.1648037 14.7488579,12.7830634 14.7488579,9.84507178 C14.7488579,6.90708022 12.3665671,4.52530303 9.42781425,4.52530303 Z M12.7834532,9.84507178 C12.7834532,11.6948979 11.2781333,13.1998467 9.42781425,13.1998467 C7.57749522,13.1998467 6.07217527,11.6948979 6.07217527,9.84507178 C6.07217527,7.99520888 7.57749522,6.49026 9.42781425,6.49026 C11.2781333,6.49026 12.7834532,7.99517206 12.7834532,9.84507178 Z" id="Shape"></path>
                            </g>
                        </g>
                    </g>
                </g>
            </g>
        </g>
    </g>
</svg>