<?xml version="1.0" encoding="UTF-8"?>
<svg width="20px" height="20px" viewBox="0 0 20 20" version="1.1" xmlns="http://www.w3.org/2000/svg" xmlns:xlink="http://www.w3.org/1999/xlink">
    <title>linkedin</title>
    <g id="Landing-page" stroke="none" stroke-width="1" fill="none" fill-rule="evenodd">
        <g id="Landing_sellers" transform="translate(-1272.000000, -5035.000000)" fill="#1A49F5" fill-rule="nonzero">
            <g id="Group-23" transform="translate(0.000000, 583.000000)">
                <g id="footer" transform="translate(81.000000, 4278.000000)">
                    <g id="Group-27" transform="translate(891.000000, 134.000000)">
                        <g id="Group-25" transform="translate(263.000000, 39.000000)">
                            <g id="linkedin" transform="translate(37.711257, 1.178186)">
                                <path d="M18.850903,18.8509804 L18.850903,18.8501884 L18.8556285,18.8501884 L18.8556285,11.8787688 C18.8556285,8.46830161 18.1255317,5.84114885 14.1607991,5.84114885 C12.254829,5.84114885 10.9757814,6.89296039 10.4536086,7.89012208 L10.3984773,7.89012208 L10.3984773,6.15954361 L6.63930581,6.15954361 L6.63930581,18.8501884 L10.5536327,18.8501884 L10.5536327,12.5662481 C10.5536327,10.9117042 10.8655187,9.31181011 12.9030164,9.31181011 C14.9105856,9.31181011 14.9405141,11.2000019 14.9405141,12.6723796 L14.9405141,18.8509804 L18.850903,18.8509804 Z" id="Path"></path>
                                <polygon id="Path" points="0.265572232 6.37216239 4.24915572 6.37216239 4.24915572 18.8509804 0.265572232 18.8509804"></polygon>
                                <path d="M2.25736398,0 C1.01119254,0 0,1.00622984 0,2.24628536 C0,3.48634087 1.01119254,4.51361502 2.25736398,4.51361502 C3.50353541,4.51361502 4.51472795,3.48634087 4.51472795,2.24628536 C4.51394469,1.00622984 3.50275215,0 2.25736398,0 Z" id="Path"></path>
                            </g>
                        </g>
                    </g>
                </g>
            </g>
        </g>
    </g>
</svg>