<svg viewBox="0 0 1413 351" xmlns="http://www.w3.org/2000/svg" fill-rule="evenodd" clip-rule="evenodd"><path d="M317.63.5c18.108.008 32.775 14.685 32.775 32.795 0 15.856-11.273 29.083-26.235 32.118l-.047 285.087-323.752-.056.08-323.778 285.048.064C288.542 11.759 301.767.5 317.63.5Zm-7.234 64.714-59.019 130.624c7.656 6.007 12.659 15.234 12.659 25.72 0 18.102-14.683 32.779-32.792 32.779-9.321 0-17.678-3.936-23.646-10.175L33.115 337.337l277.894.048.048-271.98c-.223-.047-.438-.135-.661-.191ZM13.517 226.856l-.024 106.091 187.142-99.94c-.541-1.45-.932-2.972-1.282-4.493l-185.836-1.658Zm.039-187.075-.039 173.944 185.565 1.666c2.884-15.155 16.173-26.629 32.17-26.629 2.916 0 5.689.494 8.381 1.211l58.82-130.193c-6.533-4.733-11.289-11.744-12.954-19.943l-271.943-.056Z" fill="#3c64f7"/><path d="m531.005 154.9-.2-92.8-46 76.8h-11.6l-46-75.6v91.6h-24.8v-140h21.4l55.6 92.8 54.6-92.8h21.4l.2 140h-24.6ZM691.421 102.1c0 1.733-.133 4.2-.4 7.4h-83.8c1.467 7.867 5.267 14.133 11.4 18.8 6.267 4.533 14 6.8 23.2 6.8 11.733 0 21.4-3.867 29-11.6l13.4 15.4c-4.8 5.733-10.867 10.067-18.2 13-7.333 2.933-15.6 4.4-24.8 4.4-11.733 0-22.067-2.333-31-7s-15.867-11.133-20.8-19.4c-4.8-8.4-7.2-17.867-7.2-28.4 0-10.4 2.333-19.733 7-28 4.8-8.4 11.4-14.933 19.8-19.6 8.4-4.667 17.867-7 28.4-7 10.4 0 19.667 2.333 27.8 7 8.267 4.533 14.667 11 19.2 19.4 4.667 8.267 7 17.867 7 28.8Zm-54-35.2c-8 0-14.8 2.4-20.4 7.2-5.467 4.667-8.8 10.933-10 18.8h60.6c-1.067-7.733-4.333-14-9.8-18.8-5.467-4.8-12.267-7.2-20.4-7.2ZM820.035 6.5v148.4h-24v-13.8c-4.133 5.067-9.267 8.867-15.4 11.4-6 2.533-12.667 3.8-20 3.8-10.267 0-19.533-2.267-27.8-6.8-8.133-4.533-14.533-10.933-19.2-19.2-4.667-8.4-7-18-7-28.8s2.333-20.333 7-28.6c4.667-8.267 11.067-14.667 19.2-19.2 8.267-4.533 17.533-6.8 27.8-6.8 7.067 0 13.533 1.2 19.4 3.6 5.867 2.4 10.867 6 15 10.8V6.5h25Zm-56.4 128.4c6 0 11.4-1.333 16.2-4 4.8-2.8 8.6-6.733 11.4-11.8 2.8-5.067 4.2-10.933 4.2-17.6 0-6.667-1.4-12.533-4.2-17.6-2.8-5.067-6.6-8.933-11.4-11.6-4.8-2.8-10.2-4.2-16.2-4.2s-11.4 1.4-16.2 4.2c-4.8 2.667-8.6 6.533-11.4 11.6-2.8 5.067-4.2 10.933-4.2 17.6 0 6.667 1.4 12.533 4.2 17.6 2.8 5.067 6.6 9 11.4 11.8 4.8 2.667 10.2 4 16.2 4ZM852.74 48.1h25v106.8h-25V48.1Zm12.6-17.6c-4.534 0-8.334-1.4-11.4-4.2-3.067-2.933-4.6-6.533-4.6-10.8s1.533-7.8 4.6-10.6c3.066-2.933 6.866-4.4 11.4-4.4 4.533 0 8.333 1.4 11.4 4.2 3.066 2.667 4.6 6.067 4.6 10.2 0 4.4-1.534 8.133-4.6 11.2-2.934 2.933-6.734 4.4-11.4 4.4ZM951.352 46.9c15.734 0 27.734 3.8 36 11.4 8.4 7.467 12.6 18.8 12.6 34v62.6h-23.6v-13c-3.066 4.667-7.467 8.267-13.2 10.8-5.6 2.4-12.4 3.6-20.4 3.6-8 0-15-1.333-21-4-6-2.8-10.667-6.6-14-11.4-3.2-4.933-4.8-10.467-4.8-16.6 0-9.6 3.534-17.267 10.6-23 7.2-5.867 18.467-8.8 33.8-8.8h27.6v-1.6c0-7.467-2.267-13.2-6.8-17.2-4.4-4-11-6-19.8-6-6 0-11.933.933-17.8 2.8-5.733 1.867-10.6 4.467-14.6 7.8l-9.8-18.2c5.6-4.267 12.334-7.533 20.2-9.8 7.867-2.267 16.2-3.4 25-3.4Zm-3.4 91.2c6.267 0 11.8-1.4 16.6-4.2 4.934-2.933 8.4-7.067 10.4-12.4v-12.4h-25.8c-14.4 0-21.6 4.733-21.6 14.2 0 4.533 1.8 8.133 5.4 10.8 3.6 2.667 8.6 4 15 4Z" fill="#3c64f7" fill-rule="nonzero"/><path d="M1412.83 175.5H402.405v175H1412.83v-175Zm-64.96 159.841a88.82 88.82 0 0 1-23.59-3.157c-7.67-2.105-13.8-4.767-18.38-7.986l8.91-17.645c4.46 2.972 9.78 5.387 15.97 7.244 6.32 1.733 12.51 2.6 18.58 2.6 13.86 0 20.8-3.653 20.8-10.958 0-3.467-1.8-5.881-5.39-7.243-3.46-1.362-9.1-2.662-16.9-3.901-8.17-1.238-14.86-2.662-20.06-4.271-5.07-1.61-9.53-4.396-13.37-8.358-3.71-4.086-5.57-9.72-5.57-16.901 0-9.411 3.9-16.902 11.7-22.474 7.92-5.695 18.57-8.543 31.94-8.543 6.81 0 13.62.805 20.43 2.414 6.81 1.486 12.39 3.529 16.72 6.129l-8.92 17.645c-8.41-4.953-17.89-7.43-28.41-7.43-6.81 0-12.01 1.053-15.6 3.158-3.47 1.981-5.2 4.643-5.2 7.986 0 3.715 1.85 6.377 5.57 7.986 3.84 1.486 9.72 2.91 17.64 4.272 7.93 1.238 14.43 2.662 19.5 4.272 5.08 1.61 9.41 4.334 13.01 8.172 3.71 3.838 5.57 9.286 5.57 16.344 0 9.287-4.03 16.716-12.08 22.287-8.04 5.572-19 8.358-32.87 8.358ZM759.66 233.748c14.61 0 25.754 3.529 33.431 10.586 7.8 6.934 11.7 17.459 11.7 31.574v58.133h-21.915v-12.072c-2.848 4.333-6.934 7.677-12.259 10.029-5.2 2.229-11.515 3.343-18.944 3.343-7.429 0-13.929-1.238-19.501-3.714-5.572-2.6-9.906-6.129-13.001-10.587-2.972-4.581-4.458-9.72-4.458-15.415 0-8.915 3.281-16.035 9.844-21.359 6.686-5.448 17.149-8.172 31.388-8.172h25.63v-1.486c0-6.934-2.104-12.258-6.314-15.973-4.086-3.714-10.215-5.571-18.387-5.571-5.572 0-11.082.866-16.53 2.6-5.324 1.733-9.844 4.148-13.558 7.243l-9.101-16.901c5.2-3.962 11.453-6.996 18.758-9.101 7.306-2.105 15.044-3.157 23.217-3.157Zm248.48 101.593c-10.276 0-19.501-2.167-27.673-6.5-8.172-4.334-14.549-10.339-19.13-18.016-4.581-7.8-6.872-16.592-6.872-26.373 0-9.782 2.291-18.511 6.872-26.188 4.581-7.677 10.896-13.682 18.944-18.016 8.173-4.333 17.459-6.5 27.859-6.5 9.78 0 18.33 1.981 25.63 5.943 7.43 3.962 13 9.658 16.72 17.087l-17.83 10.401c-2.85-4.581-6.44-7.986-10.78-10.215-4.21-2.353-8.85-3.529-13.92-3.529-8.672 0-15.854 2.848-21.549 8.544-5.696 5.571-8.544 13.062-8.544 22.473 0 9.41 2.786 16.963 8.358 22.659 5.695 5.571 12.939 8.357 21.735 8.357 5.07 0 9.71-1.114 13.92-3.343 4.34-2.352 7.93-5.819 10.78-10.401l17.83 10.401c-3.84 7.429-9.48 13.187-16.9 17.273-7.31 3.962-15.79 5.943-25.45 5.943Zm209.34-50.332c0 1.61-.13 3.9-.37 6.872h-77.82c1.36 7.305 4.89 13.125 10.58 17.458 5.82 4.21 13 6.315 21.55 6.315 10.89 0 19.87-3.591 26.93-10.772l12.44 14.301c-4.46 5.324-10.09 9.348-16.9 12.072-6.81 2.724-14.49 4.086-23.03 4.086-10.9 0-20.49-2.167-28.79-6.5-8.29-4.334-14.73-10.339-19.31-18.016-4.46-7.8-6.69-16.592-6.69-26.373 0-9.658 2.17-18.325 6.5-26.002 4.46-7.801 10.59-13.868 18.39-18.202 7.8-4.333 16.59-6.5 26.37-6.5 9.66 0 18.26 2.167 25.82 6.5 7.67 4.21 13.62 10.215 17.83 18.016 4.33 7.677 6.5 16.592 6.5 26.745Zm-146.92-50.147h23.21v99.179h-23.21v-99.179Zm-529.62 0h23.216v99.179H540.94v-99.179Zm720.94 14.487c6.69-10.401 18.45-15.601 35.29-15.601v22.102c-1.98-.372-3.78-.558-5.39-.558-9.04 0-16.09 2.662-21.17 7.987-5.08 5.2-7.62 12.753-7.62 22.659v48.103h-23.21v-99.179h22.1v14.487Zm-371.018-15.601c12.506 0 22.535 3.653 30.088 10.958 7.553 7.305 11.329 18.139 11.329 32.502v56.833h-23.216V280.18c0-8.667-2.043-15.168-6.129-19.502-4.086-4.457-9.905-6.686-17.458-6.686-8.544 0-15.292 2.6-20.244 7.801-4.953 5.076-7.43 12.444-7.43 22.102v50.146h-23.216v-99.179h22.102v12.816c3.838-4.582 8.667-8.049 14.487-10.401 5.819-2.353 12.382-3.529 19.687-3.529Zm-239.959 0c12.505 0 22.535 3.653 30.088 10.958 7.552 7.305 11.329 18.139 11.329 32.502v56.833h-23.216V280.18c0-8.667-2.043-15.168-6.129-19.502-4.086-4.457-9.906-6.686-17.459-6.686-8.543 0-15.291 2.6-20.244 7.801-4.953 5.076-7.429 12.444-7.429 22.102v50.146h-23.216v-99.179h22.102v12.816c3.838-4.582 8.667-8.049 14.486-10.401 5.82-2.353 12.382-3.529 19.688-3.529Zm-200.033-9.472v39.56h62.776v20.43H450.87v49.775h-24.144v-130.01h94.907v20.245H450.87Zm305.632 94.164c5.82 0 10.958-1.3 15.416-3.9 4.581-2.724 7.8-6.563 9.657-11.515v-11.516h-23.959c-13.372 0-20.058 4.396-20.058 13.187 0 4.21 1.671 7.553 5.014 10.029 3.344 2.477 7.987 3.715 13.93 3.715Zm410.828-66.119c-7.43 0-13.74 2.228-18.94 6.686-5.08 4.334-8.17 10.153-9.29 17.458h56.28c-.99-7.181-4.03-13.001-9.1-17.458-5.08-4.458-11.4-6.686-18.95-6.686Zm-85.07-33.803c-4.21 0-7.74-1.3-10.59-3.9-2.85-2.724-4.27-6.067-4.27-10.029 0-3.963 1.42-7.244 4.27-9.844 2.85-2.724 6.38-4.086 10.59-4.086s7.74 1.3 10.58 3.9c2.85 2.477 4.27 5.634 4.27 9.472 0 4.086-1.42 7.553-4.27 10.401-2.72 2.724-6.25 4.086-10.58 4.086Zm-529.619 0c-4.21 0-7.739-1.3-10.587-3.9-2.848-2.724-4.272-6.067-4.272-10.029 0-3.963 1.424-7.244 4.272-9.844 2.848-2.724 6.377-4.086 10.587-4.086 4.209 0 7.738 1.3 10.586 3.9 2.848 2.477 4.272 5.634 4.272 9.472 0 4.086-1.424 7.553-4.272 10.401-2.724 2.724-6.253 4.086-10.586 4.086Z" fill="#3c64f7"/></svg>