<?xml version="1.0" encoding="UTF-8"?>
<svg width="19px" height="18px" viewBox="0 0 19 18" version="1.1" xmlns="http://www.w3.org/2000/svg" xmlns:xlink="http://www.w3.org/1999/xlink">
    <title>twitter</title>
    <g id="Landing-page" stroke="none" stroke-width="1" fill="none" fill-rule="evenodd">
        <g id="Landing_sellers" transform="translate(-1235.000000, -5037.000000)" fill="#1A49F5" fill-rule="nonzero">
            <g id="Group-23" transform="translate(0.000000, 583.000000)">
                <g id="footer" transform="translate(81.000000, 4278.000000)">
                    <g id="Group-27" transform="translate(891.000000, 134.000000)">
                        <g id="Group-25" transform="translate(263.000000, 39.000000)">
                            <g id="twitter" transform="translate(0.000000, 3.534559)">
                                <path d="M18.8556285,1.90637237 C18.1544348,2.22967528 17.4072805,2.44397185 16.6283074,2.54802336 C17.4296716,2.04510772 18.041301,1.2548117 18.3288494,0.302244872 C17.5816951,0.770476681 16.7567614,1.10121185 15.8776177,1.28577941 C15.1681747,0.49176727 14.1570416,0 13.0539873,0 C10.9138735,0 9.19094042,1.82585631 9.19094042,4.06420256 C9.19094042,4.38626676 9.21686691,4.69594389 9.28050465,4.99075651 C6.06679847,4.82600828 3.223134,3.20701628 1.31282313,0.740747677 C0.979314205,1.34895355 0.78368706,2.04510772 0.78368706,2.79452635 C0.78368706,4.2016992 1.47309598,5.44907865 2.50072773,6.1712457 C1.87967047,6.15885861 1.27039797,5.96933621 0.75422514,5.67080747 C0.75422514,5.68319455 0.75422514,5.69929776 0.75422514,5.71540097 C0.75422514,7.68990231 2.09415324,9.32995235 3.85126212,9.70775844 C3.53660882,9.79818416 3.19367208,9.84153895 2.83777209,9.84153895 C2.59029197,9.84153895 2.34045489,9.82667445 2.10593801,9.77217128 C2.60679064,11.3812536 4.02803364,12.5642202 5.71796934,12.6026202 C4.40278926,13.6840127 2.73288766,14.3355734 0.925104273,14.3355734 C0.608094019,14.3355734 0.30404701,14.3207089 0,14.2798315 C1.71232676,15.4405013 3.74166378,16.1032104 5.93009516,16.1032104 C13.043381,16.1032104 16.9323544,9.90966792 16.9323544,4.54110532 C16.9323544,4.36149259 16.926462,4.1880734 16.9182127,4.01589292 C17.6854011,3.4436096 18.3300279,2.7288748 18.8556285,1.90637237 Z" id="Path"></path>
                            </g>
                        </g>
                    </g>
                </g>
            </g>
        </g>
    </g>
</svg>