<svg width="1395" height="386" viewBox="0 0 1395 386" fill="none" xmlns="http://www.w3.org/2000/svg">
<rect x="0.5" y="0.5" width="1394" height="385" rx="3.5" fill="white" stroke="#D3D5DC"/>
<path d="M37.058 57V52.32L37.364 53.148L32.018 44.4H33.44L38.138 52.086H37.382L42.08 44.4H43.412L38.066 53.148L38.372 52.32V57H37.058ZM48.0775 57.09C47.1655 57.09 46.3435 56.886 45.6115 56.478C44.8915 56.058 44.3215 55.488 43.9015 54.768C43.4815 54.036 43.2715 53.202 43.2715 52.266C43.2715 51.318 43.4815 50.484 43.9015 49.764C44.3215 49.044 44.8915 48.48 45.6115 48.072C46.3315 47.664 47.1535 47.46 48.0775 47.46C49.0135 47.46 49.8415 47.664 50.5615 48.072C51.2935 48.48 51.8635 49.044 52.2715 49.764C52.6915 50.484 52.9015 51.318 52.9015 52.266C52.9015 53.202 52.6915 54.036 52.2715 54.768C51.8635 55.488 51.2935 56.058 50.5615 56.478C49.8295 56.886 49.0015 57.09 48.0775 57.09ZM48.0775 55.956C48.7615 55.956 49.3675 55.806 49.8955 55.506C50.4235 55.194 50.8375 54.762 51.1375 54.21C51.4495 53.646 51.6055 52.998 51.6055 52.266C51.6055 51.522 51.4495 50.874 51.1375 50.322C50.8375 49.77 50.4235 49.344 49.8955 49.044C49.3675 48.732 48.7675 48.576 48.0955 48.576C47.4235 48.576 46.8235 48.732 46.2955 49.044C45.7675 49.344 45.3475 49.77 45.0355 50.322C44.7235 50.874 44.5675 51.522 44.5675 52.266C44.5675 52.998 44.7235 53.646 45.0355 54.21C45.3475 54.762 45.7675 55.194 46.2955 55.506C46.8235 55.806 47.4175 55.956 48.0775 55.956ZM59.5067 57.09C58.7027 57.09 58.0007 56.94 57.4007 56.64C56.8007 56.34 56.3327 55.89 55.9967 55.29C55.6727 54.69 55.5107 53.94 55.5107 53.04V47.55H56.7887V52.896C56.7887 53.904 57.0347 54.666 57.5267 55.182C58.0307 55.686 58.7327 55.938 59.6327 55.938C60.2927 55.938 60.8627 55.806 61.3427 55.542C61.8347 55.266 62.2067 54.87 62.4587 54.354C62.7227 53.838 62.8547 53.22 62.8547 52.5V47.55H64.1327V57H62.9087V54.408L63.1067 54.876C62.8067 55.572 62.3387 56.118 61.7027 56.514C61.0787 56.898 60.3467 57.09 59.5067 57.09ZM76.5094 57.09C75.5734 57.09 74.7334 56.886 73.9894 56.478C73.2574 56.058 72.6814 55.488 72.2614 54.768C71.8414 54.036 71.6314 53.202 71.6314 52.266C71.6314 51.318 71.8414 50.484 72.2614 49.764C72.6814 49.044 73.2574 48.48 73.9894 48.072C74.7334 47.664 75.5734 47.46 76.5094 47.46C77.3134 47.46 78.0394 47.616 78.6874 47.928C79.3354 48.24 79.8454 48.708 80.2174 49.332L79.2634 49.98C78.9394 49.5 78.5374 49.146 78.0574 48.918C77.5774 48.69 77.0554 48.576 76.4914 48.576C75.8194 48.576 75.2134 48.732 74.6734 49.044C74.1334 49.344 73.7074 49.77 73.3954 50.322C73.0834 50.874 72.9274 51.522 72.9274 52.266C72.9274 53.01 73.0834 53.658 73.3954 54.21C73.7074 54.762 74.1334 55.194 74.6734 55.506C75.2134 55.806 75.8194 55.956 76.4914 55.956C77.0554 55.956 77.5774 55.842 78.0574 55.614C78.5374 55.386 78.9394 55.038 79.2634 54.57L80.2174 55.218C79.8454 55.83 79.3354 56.298 78.6874 56.622C78.0394 56.934 77.3134 57.09 76.5094 57.09ZM88.7399 57V54.912L88.6859 54.57V51.078C88.6859 50.274 88.4579 49.656 88.0019 49.224C87.5579 48.792 86.8919 48.576 86.0039 48.576C85.3919 48.576 84.8099 48.678 84.2579 48.882C83.7059 49.086 83.2379 49.356 82.8539 49.692L82.2779 48.738C82.7579 48.33 83.3339 48.018 84.0059 47.802C84.6779 47.574 85.3859 47.46 86.1299 47.46C87.3539 47.46 88.2959 47.766 88.9559 48.378C89.6279 48.978 89.9639 49.896 89.9639 51.132V57H88.7399ZM85.4819 57.09C84.7739 57.09 84.1559 56.976 83.6279 56.748C83.1119 56.508 82.7159 56.184 82.4399 55.776C82.1639 55.356 82.0259 54.876 82.0259 54.336C82.0259 53.844 82.1399 53.4 82.3679 53.004C82.6079 52.596 82.9919 52.272 83.5199 52.032C84.0599 51.78 84.7799 51.654 85.6799 51.654H88.9379V52.608H85.7159C84.8039 52.608 84.1679 52.77 83.8079 53.094C83.4599 53.418 83.2859 53.82 83.2859 54.3C83.2859 54.84 83.4959 55.272 83.9159 55.596C84.3359 55.92 84.9239 56.082 85.6799 56.082C86.3999 56.082 87.0179 55.92 87.5339 55.596C88.0619 55.26 88.4459 54.78 88.6859 54.156L88.9739 55.038C88.7339 55.662 88.3139 56.16 87.7139 56.532C87.1259 56.904 86.3819 57.09 85.4819 57.09ZM98.3491 47.46C99.1171 47.46 99.7891 47.61 100.365 47.91C100.953 48.198 101.409 48.642 101.733 49.242C102.069 49.842 102.237 50.598 102.237 51.51V57H100.959V51.636C100.959 50.64 100.707 49.89 100.203 49.386C99.7111 48.87 99.0151 48.612 98.1151 48.612C97.4431 48.612 96.8551 48.75 96.3511 49.026C95.8591 49.29 95.4751 49.68 95.1991 50.196C94.9351 50.7 94.8031 51.312 94.8031 52.032V57H93.5251V47.55H94.7491V50.142L94.5511 49.656C94.8511 48.972 95.3311 48.438 95.9911 48.054C96.6511 47.658 97.4371 47.46 98.3491 47.46ZM114.342 57.09C113.442 57.09 112.632 56.886 111.912 56.478C111.204 56.07 110.646 55.506 110.238 54.786C109.83 54.054 109.626 53.214 109.626 52.266C109.626 51.306 109.83 50.466 110.238 49.746C110.646 49.026 111.204 48.468 111.912 48.072C112.632 47.664 113.442 47.46 114.342 47.46C115.17 47.46 115.908 47.646 116.556 48.018C117.216 48.39 117.738 48.936 118.122 49.656C118.518 50.364 118.716 51.234 118.716 52.266C118.716 53.286 118.524 54.156 118.14 54.876C117.756 55.596 117.234 56.148 116.574 56.532C115.926 56.904 115.182 57.09 114.342 57.09ZM114.432 55.956C115.104 55.956 115.704 55.806 116.232 55.506C116.772 55.194 117.192 54.762 117.492 54.21C117.804 53.646 117.96 52.998 117.96 52.266C117.96 51.522 117.804 50.874 117.492 50.322C117.192 49.77 116.772 49.344 116.232 49.044C115.704 48.732 115.104 48.576 114.432 48.576C113.772 48.576 113.178 48.732 112.65 49.044C112.122 49.344 111.702 49.77 111.39 50.322C111.078 50.874 110.922 51.522 110.922 52.266C110.922 52.998 111.078 53.646 111.39 54.21C111.702 54.762 112.122 55.194 112.65 55.506C113.178 55.806 113.772 55.956 114.432 55.956ZM117.996 57V54.156L118.122 52.248L117.942 50.34V43.644H119.22V57H117.996ZM126.883 57.09C125.899 57.09 125.035 56.886 124.291 56.478C123.547 56.058 122.965 55.488 122.545 54.768C122.125 54.036 121.915 53.202 121.915 52.266C121.915 51.33 122.113 50.502 122.509 49.782C122.917 49.062 123.469 48.498 124.165 48.09C124.873 47.67 125.665 47.46 126.541 47.46C127.429 47.46 128.215 47.664 128.899 48.072C129.595 48.468 130.141 49.032 130.537 49.764C130.933 50.484 131.131 51.318 131.131 52.266C131.131 52.326 131.125 52.392 131.113 52.464C131.113 52.524 131.113 52.59 131.113 52.662H122.887V51.708H130.429L129.925 52.086C129.925 51.402 129.775 50.796 129.475 50.268C129.187 49.728 128.791 49.308 128.287 49.008C127.783 48.708 127.201 48.558 126.541 48.558C125.893 48.558 125.311 48.708 124.795 49.008C124.279 49.308 123.877 49.728 123.589 50.268C123.301 50.808 123.157 51.426 123.157 52.122V52.32C123.157 53.04 123.313 53.676 123.625 54.228C123.949 54.768 124.393 55.194 124.957 55.506C125.533 55.806 126.187 55.956 126.919 55.956C127.495 55.956 128.029 55.854 128.521 55.65C129.025 55.446 129.457 55.134 129.817 54.714L130.537 55.542C130.117 56.046 129.589 56.43 128.953 56.694C128.329 56.958 127.639 57.09 126.883 57.09ZM134.039 57V46.362C134.039 45.522 134.285 44.844 134.777 44.328C135.269 43.812 135.977 43.554 136.901 43.554C137.261 43.554 137.609 43.602 137.945 43.698C138.281 43.794 138.563 43.944 138.791 44.148L138.359 45.102C138.179 44.946 137.969 44.832 137.729 44.76C137.489 44.676 137.231 44.634 136.955 44.634C136.415 44.634 136.001 44.784 135.713 45.084C135.425 45.384 135.281 45.828 135.281 46.416V47.856L135.317 48.45V57H134.039ZM132.347 48.612V47.55H138.197V48.612H132.347ZM139.925 57V47.55H141.203V57H139.925ZM140.573 45.462C140.309 45.462 140.087 45.372 139.907 45.192C139.727 45.012 139.637 44.796 139.637 44.544C139.637 44.292 139.727 44.082 139.907 43.914C140.087 43.734 140.309 43.644 140.573 43.644C140.837 43.644 141.059 43.728 141.239 43.896C141.419 44.064 141.509 44.274 141.509 44.526C141.509 44.79 141.419 45.012 141.239 45.192C141.071 45.372 140.849 45.462 140.573 45.462ZM149.705 47.46C150.473 47.46 151.145 47.61 151.721 47.91C152.309 48.198 152.765 48.642 153.089 49.242C153.425 49.842 153.593 50.598 153.593 51.51V57H152.315V51.636C152.315 50.64 152.063 49.89 151.559 49.386C151.067 48.87 150.371 48.612 149.471 48.612C148.799 48.612 148.211 48.75 147.707 49.026C147.215 49.29 146.831 49.68 146.555 50.196C146.291 50.7 146.159 51.312 146.159 52.032V57H144.881V47.55H146.105V50.142L145.907 49.656C146.207 48.972 146.687 48.438 147.347 48.054C148.007 47.658 148.793 47.46 149.705 47.46ZM161.149 57.09C160.165 57.09 159.301 56.886 158.557 56.478C157.813 56.058 157.231 55.488 156.811 54.768C156.391 54.036 156.181 53.202 156.181 52.266C156.181 51.33 156.379 50.502 156.775 49.782C157.183 49.062 157.735 48.498 158.431 48.09C159.139 47.67 159.931 47.46 160.807 47.46C161.695 47.46 162.481 47.664 163.165 48.072C163.861 48.468 164.407 49.032 164.803 49.764C165.199 50.484 165.397 51.318 165.397 52.266C165.397 52.326 165.391 52.392 165.379 52.464C165.379 52.524 165.379 52.59 165.379 52.662H157.153V51.708H164.695L164.191 52.086C164.191 51.402 164.041 50.796 163.741 50.268C163.453 49.728 163.057 49.308 162.553 49.008C162.049 48.708 161.467 48.558 160.807 48.558C160.159 48.558 159.577 48.708 159.061 49.008C158.545 49.308 158.143 49.728 157.855 50.268C157.567 50.808 157.423 51.426 157.423 52.122V52.32C157.423 53.04 157.579 53.676 157.891 54.228C158.215 54.768 158.659 55.194 159.223 55.506C159.799 55.806 160.453 55.956 161.185 55.956C161.761 55.956 162.295 55.854 162.787 55.65C163.291 55.446 163.723 55.134 164.083 54.714L164.803 55.542C164.383 56.046 163.855 56.43 163.219 56.694C162.595 56.958 161.905 57.09 161.149 57.09ZM177.714 47.46C178.482 47.46 179.154 47.61 179.73 47.91C180.318 48.198 180.774 48.642 181.098 49.242C181.434 49.842 181.602 50.598 181.602 51.51V57H180.324V51.636C180.324 50.64 180.072 49.89 179.568 49.386C179.076 48.87 178.38 48.612 177.48 48.612C176.808 48.612 176.22 48.75 175.716 49.026C175.224 49.29 174.84 49.68 174.564 50.196C174.3 50.7 174.168 51.312 174.168 52.032V57H172.89V43.644H174.168V50.142L173.916 49.656C174.216 48.972 174.696 48.438 175.356 48.054C176.016 47.658 176.802 47.46 177.714 47.46ZM189.158 57.09C188.174 57.09 187.31 56.886 186.566 56.478C185.822 56.058 185.24 55.488 184.82 54.768C184.4 54.036 184.19 53.202 184.19 52.266C184.19 51.33 184.388 50.502 184.784 49.782C185.192 49.062 185.744 48.498 186.44 48.09C187.148 47.67 187.94 47.46 188.816 47.46C189.704 47.46 190.49 47.664 191.174 48.072C191.87 48.468 192.416 49.032 192.812 49.764C193.208 50.484 193.406 51.318 193.406 52.266C193.406 52.326 193.4 52.392 193.388 52.464C193.388 52.524 193.388 52.59 193.388 52.662H185.162V51.708H192.704L192.2 52.086C192.2 51.402 192.05 50.796 191.75 50.268C191.462 49.728 191.066 49.308 190.562 49.008C190.058 48.708 189.476 48.558 188.816 48.558C188.168 48.558 187.586 48.708 187.07 49.008C186.554 49.308 186.152 49.728 185.864 50.268C185.576 50.808 185.432 51.426 185.432 52.122V52.32C185.432 53.04 185.588 53.676 185.9 54.228C186.224 54.768 186.668 55.194 187.232 55.506C187.808 55.806 188.462 55.956 189.194 55.956C189.77 55.956 190.304 55.854 190.796 55.65C191.3 55.446 191.732 55.134 192.092 54.714L192.812 55.542C192.392 56.046 191.864 56.43 191.228 56.694C190.604 56.958 189.914 57.09 189.158 57.09ZM196.097 57V47.55H197.321V50.124L197.195 49.674C197.459 48.954 197.903 48.408 198.527 48.036C199.151 47.652 199.925 47.46 200.849 47.46V48.702C200.801 48.702 200.753 48.702 200.705 48.702C200.657 48.69 200.609 48.684 200.561 48.684C199.565 48.684 198.785 48.99 198.221 49.602C197.657 50.202 197.375 51.06 197.375 52.176V57H196.097ZM207.197 57.09C206.213 57.09 205.349 56.886 204.605 56.478C203.861 56.058 203.279 55.488 202.859 54.768C202.439 54.036 202.229 53.202 202.229 52.266C202.229 51.33 202.427 50.502 202.823 49.782C203.231 49.062 203.783 48.498 204.479 48.09C205.187 47.67 205.979 47.46 206.855 47.46C207.743 47.46 208.529 47.664 209.213 48.072C209.909 48.468 210.455 49.032 210.851 49.764C211.247 50.484 211.445 51.318 211.445 52.266C211.445 52.326 211.439 52.392 211.427 52.464C211.427 52.524 211.427 52.59 211.427 52.662H203.201V51.708H210.743L210.239 52.086C210.239 51.402 210.089 50.796 209.789 50.268C209.501 49.728 209.105 49.308 208.601 49.008C208.097 48.708 207.515 48.558 206.855 48.558C206.207 48.558 205.625 48.708 205.109 49.008C204.593 49.308 204.191 49.728 203.903 50.268C203.615 50.808 203.471 51.426 203.471 52.122V52.32C203.471 53.04 203.627 53.676 203.939 54.228C204.263 54.768 204.707 55.194 205.271 55.506C205.847 55.806 206.501 55.956 207.233 55.956C207.809 55.956 208.343 55.854 208.835 55.65C209.339 55.446 209.771 55.134 210.131 54.714L210.851 55.542C210.431 56.046 209.903 56.43 209.267 56.694C208.643 56.958 207.953 57.09 207.197 57.09ZM221.925 57.09C221.037 57.09 220.353 56.85 219.873 56.37C219.393 55.89 219.153 55.212 219.153 54.336V45.462H220.431V54.264C220.431 54.816 220.569 55.242 220.845 55.542C221.133 55.842 221.541 55.992 222.069 55.992C222.633 55.992 223.101 55.83 223.473 55.506L223.923 56.424C223.671 56.652 223.365 56.82 223.005 56.928C222.657 57.036 222.297 57.09 221.925 57.09ZM217.461 48.612V47.55H223.311V48.612H217.461ZM231.164 47.46C231.932 47.46 232.604 47.61 233.18 47.91C233.768 48.198 234.224 48.642 234.548 49.242C234.884 49.842 235.052 50.598 235.052 51.51V57H233.774V51.636C233.774 50.64 233.522 49.89 233.018 49.386C232.526 48.87 231.83 48.612 230.93 48.612C230.258 48.612 229.67 48.75 229.166 49.026C228.674 49.29 228.29 49.68 228.014 50.196C227.75 50.7 227.618 51.312 227.618 52.032V57H226.34V43.644H227.618V50.142L227.366 49.656C227.666 48.972 228.146 48.438 228.806 48.054C229.466 47.658 230.252 47.46 231.164 47.46ZM242.608 57.09C241.624 57.09 240.76 56.886 240.016 56.478C239.272 56.058 238.69 55.488 238.27 54.768C237.85 54.036 237.64 53.202 237.64 52.266C237.64 51.33 237.838 50.502 238.234 49.782C238.642 49.062 239.194 48.498 239.89 48.09C240.598 47.67 241.39 47.46 242.266 47.46C243.154 47.46 243.94 47.664 244.624 48.072C245.32 48.468 245.866 49.032 246.262 49.764C246.658 50.484 246.856 51.318 246.856 52.266C246.856 52.326 246.85 52.392 246.838 52.464C246.838 52.524 246.838 52.59 246.838 52.662H238.612V51.708H246.154L245.65 52.086C245.65 51.402 245.5 50.796 245.2 50.268C244.912 49.728 244.516 49.308 244.012 49.008C243.508 48.708 242.926 48.558 242.266 48.558C241.618 48.558 241.036 48.708 240.52 49.008C240.004 49.308 239.602 49.728 239.314 50.268C239.026 50.808 238.882 51.426 238.882 52.122V52.32C238.882 53.04 239.038 53.676 239.35 54.228C239.674 54.768 240.118 55.194 240.682 55.506C241.258 55.806 241.912 55.956 242.644 55.956C243.22 55.956 243.754 55.854 244.246 55.65C244.75 55.446 245.182 55.134 245.542 54.714L246.262 55.542C245.842 56.046 245.314 56.43 244.678 56.694C244.054 56.958 243.364 57.09 242.608 57.09ZM258.272 57.09C257.336 57.09 256.496 56.886 255.752 56.478C255.02 56.058 254.444 55.488 254.024 54.768C253.604 54.036 253.394 53.202 253.394 52.266C253.394 51.318 253.604 50.484 254.024 49.764C254.444 49.044 255.02 48.48 255.752 48.072C256.496 47.664 257.336 47.46 258.272 47.46C259.076 47.46 259.802 47.616 260.45 47.928C261.098 48.24 261.608 48.708 261.98 49.332L261.026 49.98C260.702 49.5 260.3 49.146 259.82 48.918C259.34 48.69 258.818 48.576 258.254 48.576C257.582 48.576 256.976 48.732 256.436 49.044C255.896 49.344 255.47 49.77 255.158 50.322C254.846 50.874 254.69 51.522 254.69 52.266C254.69 53.01 254.846 53.658 255.158 54.21C255.47 54.762 255.896 55.194 256.436 55.506C256.976 55.806 257.582 55.956 258.254 55.956C258.818 55.956 259.34 55.842 259.82 55.614C260.3 55.386 260.702 55.038 261.026 54.57L261.98 55.218C261.608 55.83 261.098 56.298 260.45 56.622C259.802 56.934 259.076 57.09 258.272 57.09ZM270.503 57V54.912L270.449 54.57V51.078C270.449 50.274 270.221 49.656 269.765 49.224C269.321 48.792 268.655 48.576 267.767 48.576C267.155 48.576 266.573 48.678 266.021 48.882C265.469 49.086 265.001 49.356 264.617 49.692L264.041 48.738C264.521 48.33 265.097 48.018 265.769 47.802C266.441 47.574 267.149 47.46 267.893 47.46C269.117 47.46 270.059 47.766 270.719 48.378C271.391 48.978 271.727 49.896 271.727 51.132V57H270.503ZM267.245 57.09C266.537 57.09 265.919 56.976 265.391 56.748C264.875 56.508 264.479 56.184 264.203 55.776C263.927 55.356 263.789 54.876 263.789 54.336C263.789 53.844 263.903 53.4 264.131 53.004C264.371 52.596 264.755 52.272 265.283 52.032C265.823 51.78 266.543 51.654 267.443 51.654H270.701V52.608H267.479C266.567 52.608 265.931 52.77 265.571 53.094C265.223 53.418 265.049 53.82 265.049 54.3C265.049 54.84 265.259 55.272 265.679 55.596C266.099 55.92 266.687 56.082 267.443 56.082C268.163 56.082 268.781 55.92 269.297 55.596C269.825 55.26 270.209 54.78 270.449 54.156L270.737 55.038C270.497 55.662 270.077 56.16 269.477 56.532C268.889 56.904 268.145 57.09 267.245 57.09ZM275.288 57V43.644H276.566V57H275.288ZM284.136 57.09C283.2 57.09 282.36 56.886 281.616 56.478C280.884 56.058 280.308 55.488 279.888 54.768C279.468 54.036 279.258 53.202 279.258 52.266C279.258 51.318 279.468 50.484 279.888 49.764C280.308 49.044 280.884 48.48 281.616 48.072C282.36 47.664 283.2 47.46 284.136 47.46C284.94 47.46 285.666 47.616 286.314 47.928C286.962 48.24 287.472 48.708 287.844 49.332L286.89 49.98C286.566 49.5 286.164 49.146 285.684 48.918C285.204 48.69 284.682 48.576 284.118 48.576C283.446 48.576 282.84 48.732 282.3 49.044C281.76 49.344 281.334 49.77 281.022 50.322C280.71 50.874 280.554 51.522 280.554 52.266C280.554 53.01 280.71 53.658 281.022 54.21C281.334 54.762 281.76 55.194 282.3 55.506C282.84 55.806 283.446 55.956 284.118 55.956C284.682 55.956 285.204 55.842 285.684 55.614C286.164 55.386 286.566 55.038 286.89 54.57L287.844 55.218C287.472 55.83 286.962 56.298 286.314 56.622C285.666 56.934 284.94 57.09 284.136 57.09ZM294.35 57.09C293.546 57.09 292.844 56.94 292.244 56.64C291.644 56.34 291.176 55.89 290.84 55.29C290.516 54.69 290.354 53.94 290.354 53.04V47.55H291.632V52.896C291.632 53.904 291.878 54.666 292.37 55.182C292.874 55.686 293.576 55.938 294.476 55.938C295.136 55.938 295.706 55.806 296.186 55.542C296.678 55.266 297.05 54.87 297.302 54.354C297.566 53.838 297.698 53.22 297.698 52.5V47.55H298.976V57H297.752V54.408L297.95 54.876C297.65 55.572 297.182 56.118 296.546 56.514C295.922 56.898 295.19 57.09 294.35 57.09ZM302.628 57V43.644H303.906V57H302.628ZM313.474 57V54.912L313.42 54.57V51.078C313.42 50.274 313.192 49.656 312.736 49.224C312.292 48.792 311.626 48.576 310.738 48.576C310.126 48.576 309.544 48.678 308.992 48.882C308.44 49.086 307.972 49.356 307.588 49.692L307.012 48.738C307.492 48.33 308.068 48.018 308.74 47.802C309.412 47.574 310.12 47.46 310.864 47.46C312.088 47.46 313.03 47.766 313.69 48.378C314.362 48.978 314.698 49.896 314.698 51.132V57H313.474ZM310.216 57.09C309.508 57.09 308.89 56.976 308.362 56.748C307.846 56.508 307.45 56.184 307.174 55.776C306.898 55.356 306.76 54.876 306.76 54.336C306.76 53.844 306.874 53.4 307.102 53.004C307.342 52.596 307.726 52.272 308.254 52.032C308.794 51.78 309.514 51.654 310.414 51.654H313.672V52.608H310.45C309.538 52.608 308.902 52.77 308.542 53.094C308.194 53.418 308.02 53.82 308.02 54.3C308.02 54.84 308.23 55.272 308.65 55.596C309.07 55.92 309.658 56.082 310.414 56.082C311.134 56.082 311.752 55.92 312.268 55.596C312.796 55.26 313.18 54.78 313.42 54.156L313.708 55.038C313.468 55.662 313.048 56.16 312.448 56.532C311.86 56.904 311.116 57.09 310.216 57.09ZM321.247 57.09C320.359 57.09 319.675 56.85 319.195 56.37C318.715 55.89 318.475 55.212 318.475 54.336V45.462H319.753V54.264C319.753 54.816 319.891 55.242 320.167 55.542C320.455 55.842 320.863 55.992 321.391 55.992C321.955 55.992 322.423 55.83 322.795 55.506L323.245 56.424C322.993 56.652 322.687 56.82 322.327 56.928C321.979 57.036 321.619 57.09 321.247 57.09ZM316.783 48.612V47.55H322.633V48.612H316.783ZM325.662 57V47.55H326.94V57H325.662ZM326.31 45.462C326.046 45.462 325.824 45.372 325.644 45.192C325.464 45.012 325.374 44.796 325.374 44.544C325.374 44.292 325.464 44.082 325.644 43.914C325.824 43.734 326.046 43.644 326.31 43.644C326.574 43.644 326.796 43.728 326.976 43.896C327.156 44.064 327.246 44.274 327.246 44.526C327.246 44.79 327.156 45.012 326.976 45.192C326.808 45.372 326.586 45.462 326.31 45.462ZM334.438 57.09C333.526 57.09 332.704 56.886 331.972 56.478C331.252 56.058 330.682 55.488 330.262 54.768C329.842 54.036 329.632 53.202 329.632 52.266C329.632 51.318 329.842 50.484 330.262 49.764C330.682 49.044 331.252 48.48 331.972 48.072C332.692 47.664 333.514 47.46 334.438 47.46C335.374 47.46 336.202 47.664 336.922 48.072C337.654 48.48 338.224 49.044 338.632 49.764C339.052 50.484 339.262 51.318 339.262 52.266C339.262 53.202 339.052 54.036 338.632 54.768C338.224 55.488 337.654 56.058 336.922 56.478C336.19 56.886 335.362 57.09 334.438 57.09ZM334.438 55.956C335.122 55.956 335.728 55.806 336.256 55.506C336.784 55.194 337.198 54.762 337.498 54.21C337.81 53.646 337.966 52.998 337.966 52.266C337.966 51.522 337.81 50.874 337.498 50.322C337.198 49.77 336.784 49.344 336.256 49.044C335.728 48.732 335.128 48.576 334.456 48.576C333.784 48.576 333.184 48.732 332.656 49.044C332.128 49.344 331.708 49.77 331.396 50.322C331.084 50.874 330.928 51.522 330.928 52.266C330.928 52.998 331.084 53.646 331.396 54.21C331.708 54.762 332.128 55.194 332.656 55.506C333.184 55.806 333.778 55.956 334.438 55.956ZM346.785 47.46C347.553 47.46 348.225 47.61 348.801 47.91C349.389 48.198 349.845 48.642 350.169 49.242C350.505 49.842 350.673 50.598 350.673 51.51V57H349.395V51.636C349.395 50.64 349.143 49.89 348.639 49.386C348.147 48.87 347.451 48.612 346.551 48.612C345.879 48.612 345.291 48.75 344.787 49.026C344.295 49.29 343.911 49.68 343.635 50.196C343.371 50.7 343.239 51.312 343.239 52.032V57H341.961V47.55H343.185V50.142L342.987 49.656C343.287 48.972 343.767 48.438 344.427 48.054C345.087 47.658 345.873 47.46 346.785 47.46ZM370.824 47.46C371.592 47.46 372.258 47.61 372.822 47.91C373.398 48.198 373.842 48.642 374.154 49.242C374.478 49.842 374.64 50.598 374.64 51.51V57H373.362V51.636C373.362 50.64 373.122 49.89 372.642 49.386C372.174 48.87 371.508 48.612 370.644 48.612C369.996 48.612 369.432 48.75 368.952 49.026C368.484 49.29 368.118 49.68 367.854 50.196C367.602 50.7 367.476 51.312 367.476 52.032V57H366.198V51.636C366.198 50.64 365.958 49.89 365.478 49.386C364.998 48.87 364.326 48.612 363.462 48.612C362.826 48.612 362.268 48.75 361.788 49.026C361.308 49.29 360.936 49.68 360.672 50.196C360.42 50.7 360.294 51.312 360.294 52.032V57H359.016V47.55H360.24V50.106L360.042 49.656C360.33 48.972 360.792 48.438 361.428 48.054C362.076 47.658 362.838 47.46 363.714 47.46C364.638 47.46 365.424 47.694 366.072 48.162C366.72 48.618 367.14 49.308 367.332 50.232L366.828 50.034C367.104 49.266 367.59 48.648 368.286 48.18C368.994 47.7 369.84 47.46 370.824 47.46ZM382.21 57.09C381.226 57.09 380.362 56.886 379.618 56.478C378.874 56.058 378.292 55.488 377.872 54.768C377.452 54.036 377.242 53.202 377.242 52.266C377.242 51.33 377.44 50.502 377.836 49.782C378.244 49.062 378.796 48.498 379.492 48.09C380.2 47.67 380.992 47.46 381.868 47.46C382.756 47.46 383.542 47.664 384.226 48.072C384.922 48.468 385.468 49.032 385.864 49.764C386.26 50.484 386.458 51.318 386.458 52.266C386.458 52.326 386.452 52.392 386.44 52.464C386.44 52.524 386.44 52.59 386.44 52.662H378.214V51.708H385.756L385.252 52.086C385.252 51.402 385.102 50.796 384.802 50.268C384.514 49.728 384.118 49.308 383.614 49.008C383.11 48.708 382.528 48.558 381.868 48.558C381.22 48.558 380.638 48.708 380.122 49.008C379.606 49.308 379.204 49.728 378.916 50.268C378.628 50.808 378.484 51.426 378.484 52.122V52.32C378.484 53.04 378.64 53.676 378.952 54.228C379.276 54.768 379.72 55.194 380.284 55.506C380.86 55.806 381.514 55.956 382.246 55.956C382.822 55.956 383.356 55.854 383.848 55.65C384.352 55.446 384.784 55.134 385.144 54.714L385.864 55.542C385.444 56.046 384.916 56.43 384.28 56.694C383.656 56.958 382.966 57.09 382.21 57.09ZM392.137 57.09C391.249 57.09 390.565 56.85 390.085 56.37C389.605 55.89 389.365 55.212 389.365 54.336V45.462H390.643V54.264C390.643 54.816 390.781 55.242 391.057 55.542C391.345 55.842 391.753 55.992 392.281 55.992C392.845 55.992 393.313 55.83 393.685 55.506L394.135 56.424C393.883 56.652 393.577 56.82 393.217 56.928C392.869 57.036 392.509 57.09 392.137 57.09ZM387.673 48.612V47.55H393.523V48.612H387.673ZM401.376 47.46C402.144 47.46 402.816 47.61 403.392 47.91C403.98 48.198 404.436 48.642 404.76 49.242C405.096 49.842 405.264 50.598 405.264 51.51V57H403.986V51.636C403.986 50.64 403.734 49.89 403.23 49.386C402.738 48.87 402.042 48.612 401.142 48.612C400.47 48.612 399.882 48.75 399.378 49.026C398.886 49.29 398.502 49.68 398.226 50.196C397.962 50.7 397.83 51.312 397.83 52.032V57H396.552V43.644H397.83V50.142L397.578 49.656C397.878 48.972 398.358 48.438 399.018 48.054C399.678 47.658 400.464 47.46 401.376 47.46ZM412.658 57.09C411.746 57.09 410.924 56.886 410.192 56.478C409.472 56.058 408.902 55.488 408.482 54.768C408.062 54.036 407.852 53.202 407.852 52.266C407.852 51.318 408.062 50.484 408.482 49.764C408.902 49.044 409.472 48.48 410.192 48.072C410.912 47.664 411.734 47.46 412.658 47.46C413.594 47.46 414.422 47.664 415.142 48.072C415.874 48.48 416.444 49.044 416.852 49.764C417.272 50.484 417.482 51.318 417.482 52.266C417.482 53.202 417.272 54.036 416.852 54.768C416.444 55.488 415.874 56.058 415.142 56.478C414.41 56.886 413.582 57.09 412.658 57.09ZM412.658 55.956C413.342 55.956 413.948 55.806 414.476 55.506C415.004 55.194 415.418 54.762 415.718 54.21C416.03 53.646 416.186 52.998 416.186 52.266C416.186 51.522 416.03 50.874 415.718 50.322C415.418 49.77 415.004 49.344 414.476 49.044C413.948 48.732 413.348 48.576 412.676 48.576C412.004 48.576 411.404 48.732 410.876 49.044C410.348 49.344 409.928 49.77 409.616 50.322C409.304 50.874 409.148 51.522 409.148 52.266C409.148 52.998 409.304 53.646 409.616 54.21C409.928 54.762 410.348 55.194 410.876 55.506C411.404 55.806 411.998 55.956 412.658 55.956ZM423.943 57.09C423.043 57.09 422.233 56.886 421.513 56.478C420.805 56.07 420.247 55.506 419.839 54.786C419.431 54.054 419.227 53.214 419.227 52.266C419.227 51.306 419.431 50.466 419.839 49.746C420.247 49.026 420.805 48.468 421.513 48.072C422.233 47.664 423.043 47.46 423.943 47.46C424.771 47.46 425.509 47.646 426.157 48.018C426.817 48.39 427.339 48.936 427.723 49.656C428.119 50.364 428.317 51.234 428.317 52.266C428.317 53.286 428.125 54.156 427.741 54.876C427.357 55.596 426.835 56.148 426.175 56.532C425.527 56.904 424.783 57.09 423.943 57.09ZM424.033 55.956C424.705 55.956 425.305 55.806 425.833 55.506C426.373 55.194 426.793 54.762 427.093 54.21C427.405 53.646 427.561 52.998 427.561 52.266C427.561 51.522 427.405 50.874 427.093 50.322C426.793 49.77 426.373 49.344 425.833 49.044C425.305 48.732 424.705 48.576 424.033 48.576C423.373 48.576 422.779 48.732 422.251 49.044C421.723 49.344 421.303 49.77 420.991 50.322C420.679 50.874 420.523 51.522 420.523 52.266C420.523 52.998 420.679 53.646 420.991 54.21C421.303 54.762 421.723 55.194 422.251 55.506C422.779 55.806 423.373 55.956 424.033 55.956ZM427.597 57V54.156L427.723 52.248L427.543 50.34V43.644H428.821V57H427.597ZM437.487 57V46.362C437.487 45.522 437.733 44.844 438.225 44.328C438.717 43.812 439.425 43.554 440.349 43.554C440.709 43.554 441.057 43.602 441.393 43.698C441.729 43.794 442.011 43.944 442.239 44.148L441.807 45.102C441.627 44.946 441.417 44.832 441.177 44.76C440.937 44.676 440.679 44.634 440.403 44.634C439.863 44.634 439.449 44.784 439.161 45.084C438.873 45.384 438.729 45.828 438.729 46.416V47.856L438.765 48.45V57H437.487ZM435.795 48.612V47.55H441.645V48.612H435.795ZM447.154 57.09C446.242 57.09 445.42 56.886 444.688 56.478C443.968 56.058 443.398 55.488 442.978 54.768C442.558 54.036 442.348 53.202 442.348 52.266C442.348 51.318 442.558 50.484 442.978 49.764C443.398 49.044 443.968 48.48 444.688 48.072C445.408 47.664 446.23 47.46 447.154 47.46C448.09 47.46 448.918 47.664 449.638 48.072C450.37 48.48 450.94 49.044 451.348 49.764C451.768 50.484 451.978 51.318 451.978 52.266C451.978 53.202 451.768 54.036 451.348 54.768C450.94 55.488 450.37 56.058 449.638 56.478C448.906 56.886 448.078 57.09 447.154 57.09ZM447.154 55.956C447.838 55.956 448.444 55.806 448.972 55.506C449.5 55.194 449.914 54.762 450.214 54.21C450.526 53.646 450.682 52.998 450.682 52.266C450.682 51.522 450.526 50.874 450.214 50.322C449.914 49.77 449.5 49.344 448.972 49.044C448.444 48.732 447.844 48.576 447.172 48.576C446.5 48.576 445.9 48.732 445.372 49.044C444.844 49.344 444.424 49.77 444.112 50.322C443.8 50.874 443.644 51.522 443.644 52.266C443.644 52.998 443.8 53.646 444.112 54.21C444.424 54.762 444.844 55.194 445.372 55.506C445.9 55.806 446.494 55.956 447.154 55.956ZM454.678 57V47.55H455.902V50.124L455.776 49.674C456.04 48.954 456.484 48.408 457.108 48.036C457.732 47.652 458.506 47.46 459.43 47.46V48.702C459.382 48.702 459.334 48.702 459.286 48.702C459.238 48.69 459.19 48.684 459.142 48.684C458.146 48.684 457.366 48.99 456.802 49.602C456.238 50.202 455.956 51.06 455.956 52.176V57H454.678ZM469.781 57.09C468.893 57.09 468.209 56.85 467.729 56.37C467.249 55.89 467.009 55.212 467.009 54.336V45.462H468.287V54.264C468.287 54.816 468.425 55.242 468.701 55.542C468.989 55.842 469.397 55.992 469.925 55.992C470.489 55.992 470.957 55.83 471.329 55.506L471.779 56.424C471.527 56.652 471.221 56.82 470.861 56.928C470.513 57.036 470.153 57.09 469.781 57.09ZM465.317 48.612V47.55H471.167V48.612H465.317ZM479.02 47.46C479.788 47.46 480.46 47.61 481.036 47.91C481.624 48.198 482.08 48.642 482.404 49.242C482.74 49.842 482.908 50.598 482.908 51.51V57H481.63V51.636C481.63 50.64 481.378 49.89 480.874 49.386C480.382 48.87 479.686 48.612 478.786 48.612C478.114 48.612 477.526 48.75 477.022 49.026C476.53 49.29 476.146 49.68 475.87 50.196C475.606 50.7 475.474 51.312 475.474 52.032V57H474.196V43.644H475.474V50.142L475.222 49.656C475.522 48.972 476.002 48.438 476.662 48.054C477.322 47.658 478.108 47.46 479.02 47.46ZM490.464 57.09C489.48 57.09 488.616 56.886 487.872 56.478C487.128 56.058 486.546 55.488 486.126 54.768C485.706 54.036 485.496 53.202 485.496 52.266C485.496 51.33 485.694 50.502 486.09 49.782C486.498 49.062 487.05 48.498 487.746 48.09C488.454 47.67 489.246 47.46 490.122 47.46C491.01 47.46 491.796 47.664 492.48 48.072C493.176 48.468 493.722 49.032 494.118 49.764C494.514 50.484 494.712 51.318 494.712 52.266C494.712 52.326 494.706 52.392 494.694 52.464C494.694 52.524 494.694 52.59 494.694 52.662H486.468V51.708H494.01L493.506 52.086C493.506 51.402 493.356 50.796 493.056 50.268C492.768 49.728 492.372 49.308 491.868 49.008C491.364 48.708 490.782 48.558 490.122 48.558C489.474 48.558 488.892 48.708 488.376 49.008C487.86 49.308 487.458 49.728 487.17 50.268C486.882 50.808 486.738 51.426 486.738 52.122V52.32C486.738 53.04 486.894 53.676 487.206 54.228C487.53 54.768 487.974 55.194 488.538 55.506C489.114 55.806 489.768 55.956 490.5 55.956C491.076 55.956 491.61 55.854 492.102 55.65C492.606 55.446 493.038 55.134 493.398 54.714L494.118 55.542C493.698 56.046 493.17 56.43 492.534 56.694C491.91 56.958 491.22 57.09 490.464 57.09ZM502.42 57V46.362C502.42 45.522 502.666 44.844 503.158 44.328C503.65 43.812 504.358 43.554 505.282 43.554C505.642 43.554 505.99 43.602 506.326 43.698C506.662 43.794 506.944 43.944 507.172 44.148L506.74 45.102C506.56 44.946 506.35 44.832 506.11 44.76C505.87 44.676 505.612 44.634 505.336 44.634C504.796 44.634 504.382 44.784 504.094 45.084C503.806 45.384 503.662 45.828 503.662 46.416V47.856L503.698 48.45V57H502.42ZM500.728 48.612V47.55H506.578V48.612H500.728ZM508.306 57V47.55H509.584V57H508.306ZM508.954 45.462C508.69 45.462 508.468 45.372 508.288 45.192C508.108 45.012 508.018 44.796 508.018 44.544C508.018 44.292 508.108 44.082 508.288 43.914C508.468 43.734 508.69 43.644 508.954 43.644C509.218 43.644 509.44 43.728 509.62 43.896C509.8 44.064 509.89 44.274 509.89 44.526C509.89 44.79 509.8 45.012 509.62 45.192C509.452 45.372 509.23 45.462 508.954 45.462ZM513.263 57V43.644H514.541V57H513.263ZM529.995 47.46C530.763 47.46 531.429 47.61 531.993 47.91C532.569 48.198 533.013 48.642 533.325 49.242C533.649 49.842 533.811 50.598 533.811 51.51V57H532.533V51.636C532.533 50.64 532.293 49.89 531.813 49.386C531.345 48.87 530.679 48.612 529.815 48.612C529.167 48.612 528.603 48.75 528.123 49.026C527.655 49.29 527.289 49.68 527.025 50.196C526.773 50.7 526.647 51.312 526.647 52.032V57H525.369V51.636C525.369 50.64 525.129 49.89 524.649 49.386C524.169 48.87 523.497 48.612 522.633 48.612C521.997 48.612 521.439 48.75 520.959 49.026C520.479 49.29 520.107 49.68 519.843 50.196C519.591 50.7 519.465 51.312 519.465 52.032V57H518.187V47.55H519.411V50.106L519.213 49.656C519.501 48.972 519.963 48.438 520.599 48.054C521.247 47.658 522.009 47.46 522.885 47.46C523.809 47.46 524.595 47.694 525.243 48.162C525.891 48.618 526.311 49.308 526.503 50.232L525.999 50.034C526.275 49.266 526.761 48.648 527.457 48.18C528.165 47.7 529.011 47.46 529.995 47.46ZM548.089 57V54.912L548.035 54.57V51.078C548.035 50.274 547.807 49.656 547.351 49.224C546.907 48.792 546.241 48.576 545.353 48.576C544.741 48.576 544.159 48.678 543.607 48.882C543.055 49.086 542.587 49.356 542.203 49.692L541.627 48.738C542.107 48.33 542.683 48.018 543.355 47.802C544.027 47.574 544.735 47.46 545.479 47.46C546.703 47.46 547.645 47.766 548.305 48.378C548.977 48.978 549.313 49.896 549.313 51.132V57H548.089ZM544.831 57.09C544.123 57.09 543.505 56.976 542.977 56.748C542.461 56.508 542.065 56.184 541.789 55.776C541.513 55.356 541.375 54.876 541.375 54.336C541.375 53.844 541.489 53.4 541.717 53.004C541.957 52.596 542.341 52.272 542.869 52.032C543.409 51.78 544.129 51.654 545.029 51.654H548.287V52.608H545.065C544.153 52.608 543.517 52.77 543.157 53.094C542.809 53.418 542.635 53.82 542.635 54.3C542.635 54.84 542.845 55.272 543.265 55.596C543.685 55.92 544.273 56.082 545.029 56.082C545.749 56.082 546.367 55.92 546.883 55.596C547.411 55.26 547.795 54.78 548.035 54.156L548.323 55.038C548.083 55.662 547.663 56.16 547.063 56.532C546.475 56.904 545.731 57.09 544.831 57.09ZM564.683 47.46C565.451 47.46 566.117 47.61 566.681 47.91C567.257 48.198 567.701 48.642 568.013 49.242C568.337 49.842 568.499 50.598 568.499 51.51V57H567.221V51.636C567.221 50.64 566.981 49.89 566.501 49.386C566.033 48.87 565.367 48.612 564.503 48.612C563.855 48.612 563.291 48.75 562.811 49.026C562.343 49.29 561.977 49.68 561.713 50.196C561.461 50.7 561.335 51.312 561.335 52.032V57H560.057V51.636C560.057 50.64 559.817 49.89 559.337 49.386C558.857 48.87 558.185 48.612 557.321 48.612C556.685 48.612 556.127 48.75 555.647 49.026C555.167 49.29 554.795 49.68 554.531 50.196C554.279 50.7 554.153 51.312 554.153 52.032V57H552.875V47.55H554.099V50.106L553.901 49.656C554.189 48.972 554.651 48.438 555.287 48.054C555.935 47.658 556.697 47.46 557.573 47.46C558.497 47.46 559.283 47.694 559.931 48.162C560.579 48.618 560.999 49.308 561.191 50.232L560.687 50.034C560.963 49.266 561.449 48.648 562.145 48.18C562.853 47.7 563.699 47.46 564.683 47.46ZM575.906 57.09C574.994 57.09 574.172 56.886 573.44 56.478C572.72 56.058 572.15 55.488 571.73 54.768C571.31 54.036 571.1 53.202 571.1 52.266C571.1 51.318 571.31 50.484 571.73 49.764C572.15 49.044 572.72 48.48 573.44 48.072C574.16 47.664 574.982 47.46 575.906 47.46C576.842 47.46 577.67 47.664 578.39 48.072C579.122 48.48 579.692 49.044 580.1 49.764C580.52 50.484 580.73 51.318 580.73 52.266C580.73 53.202 580.52 54.036 580.1 54.768C579.692 55.488 579.122 56.058 578.39 56.478C577.658 56.886 576.83 57.09 575.906 57.09ZM575.906 55.956C576.59 55.956 577.196 55.806 577.724 55.506C578.252 55.194 578.666 54.762 578.966 54.21C579.278 53.646 579.434 52.998 579.434 52.266C579.434 51.522 579.278 50.874 578.966 50.322C578.666 49.77 578.252 49.344 577.724 49.044C577.196 48.732 576.596 48.576 575.924 48.576C575.252 48.576 574.652 48.732 574.124 49.044C573.596 49.344 573.176 49.77 572.864 50.322C572.552 50.874 572.396 51.522 572.396 52.266C572.396 52.998 572.552 53.646 572.864 54.21C573.176 54.762 573.596 55.194 574.124 55.506C574.652 55.806 575.246 55.956 575.906 55.956ZM583.43 57V47.55H584.654V50.124L584.528 49.674C584.792 48.954 585.236 48.408 585.86 48.036C586.484 47.652 587.258 47.46 588.182 47.46V48.702C588.134 48.702 588.086 48.702 588.038 48.702C587.99 48.69 587.942 48.684 587.894 48.684C586.898 48.684 586.118 48.99 585.554 49.602C584.99 50.202 584.708 51.06 584.708 52.176V57H583.43ZM593.996 57.09C593.108 57.09 592.424 56.85 591.944 56.37C591.464 55.89 591.224 55.212 591.224 54.336V45.462H592.502V54.264C592.502 54.816 592.64 55.242 592.916 55.542C593.204 55.842 593.612 55.992 594.14 55.992C594.704 55.992 595.172 55.83 595.544 55.506L595.994 56.424C595.742 56.652 595.436 56.82 595.076 56.928C594.728 57.036 594.368 57.09 593.996 57.09ZM589.532 48.612V47.55H595.382V48.612H589.532ZM598.41 57V47.55H599.688V57H598.41ZM599.058 45.462C598.794 45.462 598.572 45.372 598.392 45.192C598.212 45.012 598.122 44.796 598.122 44.544C598.122 44.292 598.212 44.082 598.392 43.914C598.572 43.734 598.794 43.644 599.058 43.644C599.322 43.644 599.544 43.728 599.724 43.896C599.904 44.064 599.994 44.274 599.994 44.526C599.994 44.79 599.904 45.012 599.724 45.192C599.556 45.372 599.334 45.462 599.058 45.462ZM602.308 57V56.154L608.608 48.18L608.878 48.612H602.416V47.55H609.886V48.378L603.604 56.37L603.28 55.938H610.012V57H602.308ZM618.54 57V54.912L618.486 54.57V51.078C618.486 50.274 618.258 49.656 617.802 49.224C617.358 48.792 616.692 48.576 615.804 48.576C615.192 48.576 614.61 48.678 614.058 48.882C613.506 49.086 613.038 49.356 612.654 49.692L612.078 48.738C612.558 48.33 613.134 48.018 613.806 47.802C614.478 47.574 615.186 47.46 615.93 47.46C617.154 47.46 618.096 47.766 618.756 48.378C619.428 48.978 619.764 49.896 619.764 51.132V57H618.54ZM615.282 57.09C614.574 57.09 613.956 56.976 613.428 56.748C612.912 56.508 612.516 56.184 612.24 55.776C611.964 55.356 611.826 54.876 611.826 54.336C611.826 53.844 611.94 53.4 612.168 53.004C612.408 52.596 612.792 52.272 613.32 52.032C613.86 51.78 614.58 51.654 615.48 51.654H618.738V52.608H615.516C614.604 52.608 613.968 52.77 613.608 53.094C613.26 53.418 613.086 53.82 613.086 54.3C613.086 54.84 613.296 55.272 613.716 55.596C614.136 55.92 614.724 56.082 615.48 56.082C616.2 56.082 616.818 55.92 617.334 55.596C617.862 55.26 618.246 54.78 618.486 54.156L618.774 55.038C618.534 55.662 618.114 56.16 617.514 56.532C616.926 56.904 616.182 57.09 615.282 57.09ZM626.313 57.09C625.425 57.09 624.741 56.85 624.261 56.37C623.781 55.89 623.541 55.212 623.541 54.336V45.462H624.819V54.264C624.819 54.816 624.957 55.242 625.233 55.542C625.521 55.842 625.929 55.992 626.457 55.992C627.021 55.992 627.489 55.83 627.861 55.506L628.311 56.424C628.059 56.652 627.753 56.82 627.393 56.928C627.045 57.036 626.685 57.09 626.313 57.09ZM621.849 48.612V47.55H627.699V48.612H621.849ZM630.727 57V47.55H632.005V57H630.727ZM631.375 45.462C631.111 45.462 630.889 45.372 630.709 45.192C630.529 45.012 630.439 44.796 630.439 44.544C630.439 44.292 630.529 44.082 630.709 43.914C630.889 43.734 631.111 43.644 631.375 43.644C631.639 43.644 631.861 43.728 632.041 43.896C632.221 44.064 632.311 44.274 632.311 44.526C632.311 44.79 632.221 45.012 632.041 45.192C631.873 45.372 631.651 45.462 631.375 45.462ZM639.503 57.09C638.591 57.09 637.769 56.886 637.037 56.478C636.317 56.058 635.747 55.488 635.327 54.768C634.907 54.036 634.697 53.202 634.697 52.266C634.697 51.318 634.907 50.484 635.327 49.764C635.747 49.044 636.317 48.48 637.037 48.072C637.757 47.664 638.579 47.46 639.503 47.46C640.439 47.46 641.267 47.664 641.987 48.072C642.719 48.48 643.289 49.044 643.697 49.764C644.117 50.484 644.327 51.318 644.327 52.266C644.327 53.202 644.117 54.036 643.697 54.768C643.289 55.488 642.719 56.058 641.987 56.478C641.255 56.886 640.427 57.09 639.503 57.09ZM639.503 55.956C640.187 55.956 640.793 55.806 641.321 55.506C641.849 55.194 642.263 54.762 642.563 54.21C642.875 53.646 643.031 52.998 643.031 52.266C643.031 51.522 642.875 50.874 642.563 50.322C642.263 49.77 641.849 49.344 641.321 49.044C640.793 48.732 640.193 48.576 639.521 48.576C638.849 48.576 638.249 48.732 637.721 49.044C637.193 49.344 636.773 49.77 636.461 50.322C636.149 50.874 635.993 51.522 635.993 52.266C635.993 52.998 636.149 53.646 636.461 54.21C636.773 54.762 637.193 55.194 637.721 55.506C638.249 55.806 638.843 55.956 639.503 55.956ZM651.851 47.46C652.619 47.46 653.291 47.61 653.867 47.91C654.455 48.198 654.911 48.642 655.235 49.242C655.571 49.842 655.739 50.598 655.739 51.51V57H654.461V51.636C654.461 50.64 654.209 49.89 653.705 49.386C653.213 48.87 652.517 48.612 651.617 48.612C650.945 48.612 650.357 48.75 649.853 49.026C649.361 49.29 648.977 49.68 648.701 50.196C648.437 50.7 648.305 51.312 648.305 52.032V57H647.027V47.55H648.251V50.142L648.053 49.656C648.353 48.972 648.833 48.438 649.493 48.054C650.153 47.658 650.939 47.46 651.851 47.46ZM659.407 57.09C659.143 57.09 658.915 56.994 658.723 56.802C658.543 56.61 658.453 56.376 658.453 56.1C658.453 55.812 658.543 55.578 658.723 55.398C658.915 55.218 659.143 55.128 659.407 55.128C659.671 55.128 659.893 55.218 660.073 55.398C660.265 55.578 660.361 55.812 660.361 56.1C660.361 56.376 660.265 56.61 660.073 56.802C659.893 56.994 659.671 57.09 659.407 57.09Z" fill="#454E5D"/>
<g filter="url(#filter0_d_24_3211)">
<rect x="537.5" y="111.5" width="321" height="219" rx="3.5" fill="white" stroke="#D3D5DC"/>
<g clip-path="url(#clip0_24_3211)">
<path d="M653.716 151.058V145.943C653.716 145.168 654.346 144.539 655.124 144.539H735.327C736.105 144.539 736.735 145.168 736.735 145.943V197.789" stroke="#414D86"/>
<path d="M727.649 205.405H656.653" stroke="#414D86"/>
<path d="M653.716 173.844V149.828" stroke="#414D86"/>
<path fill-rule="evenodd" clip-rule="evenodd" d="M658.023 148.022C658.023 148.525 657.613 148.934 657.108 148.934C656.603 148.934 656.194 148.525 656.194 148.022C656.194 147.519 656.603 147.11 657.108 147.11C657.613 147.11 658.023 147.519 658.023 148.022Z" fill="#414D86"/>
<path fill-rule="evenodd" clip-rule="evenodd" d="M661.327 148.022C661.327 148.525 660.918 148.934 660.413 148.934C659.907 148.934 659.498 148.525 659.498 148.022C659.498 147.519 659.907 147.11 660.413 147.11C660.918 147.11 661.327 147.519 661.327 148.022Z" fill="#414D86"/>
<path fill-rule="evenodd" clip-rule="evenodd" d="M664.631 148.022C664.631 148.525 664.222 148.934 663.717 148.934C663.211 148.934 662.802 148.525 662.802 148.022C662.802 147.519 663.211 147.11 663.717 147.11C664.222 147.11 664.631 147.519 664.631 148.022Z" fill="#414D86"/>
<path d="M686.302 191.613C685.847 191.613 685.476 191.243 685.476 190.789C685.476 190.335 685.847 189.966 686.302 189.966C686.758 189.966 687.128 190.335 687.128 190.789C687.128 191.243 686.758 191.613 686.302 191.613Z" fill="#414D86"/>
<path d="M711.353 191.081H682.611C682.263 191.081 682.216 190.988 682.216 190.875C682.216 190.761 682.263 190.669 682.611 190.669H711.353C711.7 190.669 711.794 190.761 711.794 190.875C711.794 190.988 711.7 191.081 711.353 191.081Z" fill="#414D86"/>
<g filter="url(#filter1_f_24_3211)">
<path d="M678.69 189.543V192.164L681.32 190.853L678.69 189.543Z" fill="#FF6E61"/>
</g>
<path d="M678.69 189.543V192.164L681.32 190.853L678.69 189.543Z" fill="#FF6E61"/>
<path d="M678.932 182.462H710.999V161.192H678.932V182.462Z" stroke="#414D86" stroke-linejoin="round"/>
<path d="M695.347 165.565C698.457 165.565 700.988 168.088 700.988 171.189C700.988 174.289 698.457 176.812 695.347 176.812C692.236 176.812 689.706 174.289 689.706 171.189C689.706 168.088 692.236 165.565 695.347 165.565ZM693.447 172.78C693.394 172.78 693.34 172.784 693.285 172.793C693.016 172.835 692.78 172.98 692.62 173.2C692.459 173.419 692.395 173.688 692.437 173.957C692.48 174.225 692.625 174.461 692.845 174.621C693.066 174.78 693.335 174.845 693.605 174.802C693.874 174.76 694.111 174.615 694.271 174.395C694.602 173.942 694.5 173.304 694.045 172.974C693.869 172.847 693.661 172.78 693.447 172.78ZM697.246 172.78C697.032 172.78 696.825 172.847 696.648 172.974C696.428 173.134 696.283 173.37 696.24 173.638C696.198 173.907 696.262 174.176 696.423 174.395C696.583 174.615 696.819 174.76 697.089 174.802C697.358 174.845 697.627 174.78 697.848 174.621C698.069 174.461 698.214 174.225 698.256 173.957C698.299 173.688 698.234 173.419 698.074 173.2C697.914 172.98 697.677 172.835 697.408 172.793C697.354 172.784 697.3 172.78 697.246 172.78ZM695.327 170.521C694.948 170.521 694.641 170.827 694.641 171.205C694.641 171.582 694.948 171.889 695.327 171.889C695.705 171.889 696.013 171.582 696.013 171.205C696.013 170.827 695.705 170.521 695.327 170.521ZM699.394 169.878C699.22 169.344 698.643 169.051 698.108 169.225C697.573 169.398 697.279 169.973 697.453 170.507C697.537 170.765 697.717 170.975 697.96 171.098C698.203 171.222 698.479 171.244 698.739 171.16C698.998 171.076 699.209 170.896 699.333 170.654C699.456 170.412 699.478 170.136 699.394 169.878ZM692.585 169.225C692.05 169.051 691.473 169.344 691.299 169.878C691.215 170.136 691.237 170.412 691.361 170.654C691.484 170.896 691.695 171.076 691.955 171.16C692.49 171.333 693.067 171.04 693.241 170.507C693.414 169.973 693.12 169.398 692.585 169.225ZM695.347 166.946C694.784 166.946 694.326 167.403 694.326 167.964C694.326 168.525 694.784 168.981 695.347 168.981C695.909 168.981 696.367 168.525 696.367 167.964C696.367 167.403 695.909 166.946 695.347 166.946Z" fill="#414D86"/>
<path d="M695.347 165.21C692.04 165.21 689.349 167.892 689.349 171.188C689.349 174.485 692.04 177.167 695.347 177.167C698.654 177.167 701.344 174.485 701.344 171.188C701.344 167.892 698.654 165.21 695.347 165.21ZM695.347 176.812C692.236 176.812 689.706 174.289 689.706 171.188C689.706 168.088 692.236 165.565 695.347 165.565C698.457 165.565 700.988 168.088 700.988 171.188C700.988 174.289 698.457 176.812 695.347 176.812Z" fill="#414D86"/>
<path d="M695.346 169.336C696.106 169.336 696.723 168.72 696.723 167.964C696.723 167.207 696.106 166.591 695.346 166.591C694.587 166.591 693.969 167.207 693.969 167.964C693.969 168.72 694.587 169.336 695.346 169.336ZM695.346 166.946C695.909 166.946 696.367 167.403 696.367 167.964C696.367 168.524 695.909 168.981 695.346 168.981C694.784 168.981 694.326 168.524 694.326 167.964C694.326 167.403 694.784 166.946 695.346 166.946Z" fill="#414D86"/>
<path d="M693.579 170.616C693.814 169.897 693.417 169.121 692.695 168.887C691.973 168.653 691.195 169.048 690.96 169.768C690.847 170.117 690.876 170.489 691.043 170.815C691.21 171.142 691.495 171.384 691.844 171.498C691.985 171.543 692.128 171.565 692.269 171.565C692.849 171.565 693.391 171.196 693.579 170.616ZM691.954 171.16C691.695 171.076 691.484 170.896 691.36 170.654C691.237 170.412 691.215 170.136 691.299 169.878C691.473 169.344 692.05 169.051 692.585 169.225C693.12 169.398 693.414 169.973 693.24 170.507C693.067 171.04 692.489 171.333 691.954 171.16Z" fill="#414D86"/>
<path d="M694.255 172.688C693.957 172.472 693.593 172.384 693.23 172.442C692.866 172.499 692.547 172.694 692.331 172.991C692.115 173.288 692.028 173.65 692.085 174.013C692.143 174.375 692.338 174.693 692.636 174.908C692.874 175.081 693.154 175.171 693.442 175.171C693.515 175.171 693.588 175.165 693.661 175.154C694.024 175.096 694.343 174.901 694.559 174.605C695.005 173.992 694.869 173.132 694.255 172.688ZM694.271 174.396C694.111 174.616 693.874 174.76 693.605 174.803C693.335 174.846 693.066 174.78 692.845 174.621C692.625 174.461 692.48 174.225 692.437 173.957C692.395 173.689 692.459 173.42 692.62 173.2C692.78 172.98 693.016 172.836 693.285 172.793C693.34 172.785 693.394 172.78 693.447 172.78C693.661 172.78 693.869 172.847 694.045 172.975C694.5 173.305 694.602 173.942 694.271 174.396Z" fill="#414D86"/>
<path d="M697.463 172.442C697.1 172.384 696.736 172.472 696.439 172.687C696.141 172.903 695.945 173.221 695.888 173.583C695.83 173.945 695.918 174.308 696.134 174.605C696.35 174.901 696.669 175.096 697.033 175.154C697.105 175.165 697.178 175.171 697.251 175.171C697.539 175.171 697.819 175.08 698.057 174.908C698.355 174.693 698.55 174.375 698.608 174.013C698.665 173.65 698.578 173.288 698.362 172.991C698.146 172.694 697.827 172.499 697.463 172.442ZM698.256 173.957C698.213 174.225 698.068 174.461 697.848 174.621C697.627 174.78 697.357 174.846 697.088 174.803C696.819 174.76 696.583 174.616 696.422 174.396C696.262 174.176 696.197 173.907 696.24 173.639C696.283 173.37 696.428 173.135 696.648 172.975C696.824 172.847 697.032 172.78 697.246 172.78C697.299 172.78 697.354 172.784 697.408 172.793C697.677 172.836 697.913 172.98 698.074 173.2C698.234 173.42 698.299 173.689 698.256 173.957Z" fill="#414D86"/>
<path d="M697.998 168.887C697.275 169.121 696.879 169.897 697.113 170.616C697.227 170.965 697.47 171.249 697.798 171.415C697.994 171.515 698.207 171.566 698.422 171.566C698.565 171.566 698.708 171.543 698.849 171.498C699.198 171.384 699.483 171.142 699.65 170.815C699.817 170.489 699.846 170.117 699.733 169.768C699.498 169.048 698.72 168.653 697.998 168.887ZM699.394 169.878C699.478 170.136 699.456 170.412 699.332 170.654C699.209 170.896 698.998 171.076 698.738 171.16C698.479 171.244 698.203 171.222 697.96 171.099C697.717 170.975 697.537 170.765 697.452 170.507C697.279 169.973 697.572 169.398 698.108 169.225C698.643 169.051 699.22 169.345 699.394 169.878Z" fill="#414D86"/>
<path d="M695.346 164.082C691.415 164.082 688.217 167.27 688.217 171.189C688.217 174.334 690.278 177.007 693.124 177.94H688.396C688.297 177.94 688.217 178.019 688.217 178.117C688.217 178.216 688.297 178.295 688.396 178.295H695.174C695.181 178.295 695.187 178.292 695.193 178.291C695.244 178.292 695.295 178.295 695.346 178.295C699.278 178.295 702.476 175.107 702.476 171.189C702.476 167.27 699.278 164.082 695.346 164.082ZM695.346 177.94C691.612 177.94 688.574 174.911 688.574 171.189C688.574 167.466 691.612 164.437 695.346 164.437C699.081 164.437 702.119 167.466 702.119 171.189C702.119 174.911 699.081 177.94 695.346 177.94Z" fill="#414D86"/>
<path d="M696.369 171.204C696.369 170.631 695.901 170.165 695.326 170.165C694.751 170.165 694.284 170.631 694.284 171.204C694.284 171.777 694.751 172.244 695.326 172.244C695.901 172.244 696.369 171.777 696.369 171.204ZM695.326 171.888C694.948 171.888 694.64 171.581 694.64 171.204C694.64 170.827 694.948 170.52 695.326 170.52C695.705 170.52 696.012 170.827 696.012 171.204C696.012 171.581 695.705 171.888 695.326 171.888Z" fill="#414D86"/>
<path d="M653.922 151.058H736.529" stroke="#414D86" stroke-linecap="square"/>
<path d="M635.754 242.579C635.737 242.865 635.561 243.914 635.783 244.21C636.192 244.744 639.759 244.717 639.935 244.563C640.111 244.408 640.231 244.065 640.088 243.957C639.945 243.849 638.549 243.478 638.367 243.336C638.185 243.193 637.961 242.775 638.083 242.402L635.754 242.579Z" fill="#414D86"/>
<path d="M653.433 195.801C654.041 197.175 659.145 212.141 659.027 214.323C658.909 216.506 647.098 238.991 646.446 239.229C645.794 239.466 643.084 238.636 642.865 238.046C642.682 237.55 645.702 228.026 646.75 222.942" stroke="#414D86"/>
<path d="M653.434 195.8C653.128 197.419 648.049 219.742 648.049 219.742L638.737 242.222C637.962 242.598 635.684 242.639 635.286 242.519C634.887 242.4 636.801 220.873 637.558 217.822C638.166 215.373 639.597 200.802 640.127 195.325" stroke="#414D86"/>
<path d="M643.284 238.447C643.18 238.712 642.596 240.008 642.722 240.357C642.948 240.99 646.351 242.047 646.566 241.953C646.781 241.858 647.001 241.567 646.899 241.422C646.796 241.277 645.579 240.502 645.447 240.309C645.316 240.116 645.215 239.494 645.447 239.176L643.284 238.447Z" fill="#414D86"/>
<path d="M646.433 168.073C646.433 169.654 646.433 170.694 646.433 171.194H649.536V168.309" fill="#6F7CBD"/>
<path d="M646.433 168.073C646.433 169.654 646.433 170.694 646.433 171.194H649.536V168.309" stroke="#414D86"/>
<path d="M642.493 156.312C641.55 156.312 640.784 157.213 640.784 158.323C640.784 159.294 641.37 160.105 642.148 160.292C642.002 160.371 641.879 160.459 641.781 160.557C639.251 163.102 639.65 168.103 639.155 169.803C638.196 173.095 633.369 181.808 633.369 184.702C633.369 191.712 635.785 194.656 639.689 194.762C640.418 193.005 641.062 190.031 641.62 185.842C642.326 180.555 643.429 176.65 644.931 174.127C644.931 174.127 644.931 174.126 644.931 174.124L644.931 174.109C644.933 174.012 644.992 173.504 645.862 172.252C646.395 171.485 646.414 169.657 646.394 168.026C646.928 168.351 647.554 168.537 648.225 168.537C650.169 168.537 651.746 166.966 651.746 165.028C651.746 164.134 651.41 163.318 650.858 162.698C650.983 162.254 651.024 160.731 649.746 160.198C648.749 159.783 645.686 159.516 643.596 159.858C643.967 159.489 644.203 158.939 644.203 158.323C644.203 157.213 643.437 156.312 642.493 156.312Z" fill="#6F7CBD" stroke="#414D86"/>
<g filter="url(#filter2_f_24_3211)">
<path d="M651.785 165.849C651.46 165.849 651.196 165.692 651.196 165.498C651.196 165.305 651.46 165.147 651.785 165.147C652.11 165.147 652.373 165.305 652.373 165.498C652.373 165.692 652.11 165.849 651.785 165.849Z" fill="#FF6E61"/>
</g>
<g filter="url(#filter3_f_24_3211)">
<path d="M648.091 165.849C647.766 165.849 647.503 165.692 647.503 165.498C647.503 165.305 647.766 165.147 648.091 165.147C648.416 165.147 648.68 165.305 648.68 165.498C648.68 165.692 648.416 165.849 648.091 165.849Z" fill="#FF6E61"/>
</g>
<path d="M648.091 165.849C647.766 165.849 647.503 165.692 647.503 165.498C647.503 165.305 647.766 165.147 648.091 165.147C648.416 165.147 648.68 165.305 648.68 165.498C648.68 165.692 648.416 165.849 648.091 165.849Z" fill="#FF6E61"/>
<path d="M651.785 165.849C651.46 165.849 651.196 165.692 651.196 165.498C651.196 165.305 651.46 165.147 651.785 165.147C652.11 165.147 652.373 165.305 652.373 165.498C652.373 165.692 652.11 165.849 651.785 165.849Z" fill="#FF6E61"/>
<path d="M650.35 164.865C650.461 165.022 651.026 165.678 650.43 165.944" stroke="#414D86" stroke-width="0.62" stroke-linecap="round"/>
<path d="M649.237 166.71C649 166.646 648.794 166.498 648.657 166.295" stroke="#414D86" stroke-width="0.62" stroke-linecap="round"/>
<path d="M642.494 156.312C641.55 156.312 640.785 157.213 640.785 158.323C640.785 159.294 641.37 160.105 642.149 160.292C642.003 160.371 641.879 160.459 641.782 160.557C639.252 163.102 639.651 168.103 639.155 169.803C638.197 173.095 633.37 181.808 633.37 184.702C633.37 191.712 635.786 194.656 639.69 194.762C640.418 193.005 641.062 190.031 641.621 185.842C642.326 180.555 643.43 176.65 644.931 174.127C644.931 174.127 644.931 174.126 644.931 174.124L644.931 174.109C644.933 174.012 644.993 173.504 645.863 172.252C646.841 170.843 646.086 165.852 646.543 165.08C647.106 164.125 648.961 162.045 649.64 161.962C649.77 161.945 650.496 162.508 650.827 162.786C650.968 162.514 651.131 160.775 649.747 160.198C648.749 159.783 645.687 159.516 643.597 159.858C643.968 159.489 644.203 158.939 644.203 158.323C644.203 157.213 643.438 156.312 642.494 156.312Z" fill="#414D86" stroke="#414D86"/>
<path d="M647.592 170.872C646.67 170.99 645.825 171.642 645.059 172.655C641.895 175.751 639.337 187.927 639.133 189.214C638.303 194.457 642.494 200.611 642.494 200.611C642.494 200.611 642.969 200.238 643.475 199.846L643.613 199.739C643.936 199.489 644.254 199.245 644.453 199.096C644.334 198.909 643.974 196.873 643.647 194.762C647.456 195.639 652.86 196.438 653.434 195.8C653.911 195.271 654.896 187.438 654.148 180.685C655.17 181.091 656.626 181.585 658.075 182.042L658.394 182.142C660.629 182.838 662.767 183.421 663.174 183.421C663.55 183.421 665.678 181.638 667.99 179.591L668.218 179.389C668.294 179.321 668.37 179.253 668.447 179.185L668.771 178.896C668.844 178.83 668.917 178.765 668.99 178.7L669.209 178.503L669.427 178.307C669.463 178.274 669.5 178.241 669.536 178.209L669.753 178.013C672.205 175.796 674.417 173.714 674.503 173.597C674.689 173.34 673.924 172.553 673.423 172.053C673.343 172.104 673.072 172.263 672.665 172.495L672.451 172.617C671.576 173.114 670.227 173.868 668.82 174.633L668.525 174.793C667.359 175.425 666.174 176.053 665.204 176.538L665 176.64C664.029 177.121 663.307 177.438 663.096 177.438C662.692 177.438 660.224 176.331 657.597 175.1L657.268 174.945L656.938 174.79C656.828 174.738 656.718 174.686 656.608 174.634L656.278 174.479C653.979 173.39 651.801 172.332 651.02 171.964L651.017 171.962C650.112 171.118 648.986 170.697 647.592 170.872Z" fill="#414D86"/>
<path d="M675.133 173.689C674.223 173.689 673.352 172.978 673.352 172.23C673.352 171.482 674.166 170.812 675.075 170.812C675.985 170.812 676.723 171.419 676.723 172.167C676.723 172.915 676.042 173.689 675.133 173.689Z" fill="#6F7CBD" stroke="#414D86"/>
<path d="M647.561 181.079C647.021 181.752 643.034 188.924 643.034 190.003C643.034 190.537 643.326 192.687 643.647 194.763" stroke="#121424" stroke-linecap="round" stroke-linejoin="round"/>
<path d="M652.392 174.127C653.194 175.881 653.872 178.294 654.154 180.729" stroke="black" stroke-linecap="round" stroke-linejoin="round"/>
<path d="M674.139 168.136L676.126 174.403" stroke="#414D86" stroke-width="2" stroke-linecap="round"/>
<path d="M645.811 171.514C644.082 173.408 643.814 174.007 642.143 177.232C640.473 180.457 640.801 180.766 640.098 184.083C639.614 186.859 639.024 186.714 639.024 190.335C639.024 192.072 639.31 193.941 639.643 195.197" stroke="#121424" stroke-linecap="round"/>
<g filter="url(#filter4_f_24_3211)">
<path fill-rule="evenodd" clip-rule="evenodd" d="M632.957 155.423L632.428 155.512L631.899 155.601L631.883 156.093C631.671 156.187 631.47 156.311 631.288 156.464L630.837 156.263L630.526 156.699L630.215 157.135L630.553 157.494C630.468 157.716 630.416 157.945 630.396 158.176L629.935 158.352L630.024 158.88L630.113 159.407L630.607 159.423C630.701 159.634 630.826 159.834 630.979 160.016L630.778 160.465L631.215 160.775L631.652 161.086L632.013 160.749C632.235 160.834 632.465 160.885 632.696 160.905L632.873 161.365L633.402 161.276L633.932 161.187L633.947 160.695C634.159 160.601 634.36 160.477 634.542 160.324L634.993 160.525L635.304 160.089L635.615 159.653L635.278 159.294C635.363 159.072 635.414 158.843 635.434 158.612L635.896 158.436L635.807 157.908L635.717 157.381L635.224 157.365C635.129 157.154 635.005 156.954 634.851 156.772L635.053 156.323L634.615 156.013L634.178 155.702L633.818 156.039C633.596 155.954 633.365 155.903 633.134 155.883L632.957 155.423ZM632.273 159.293C631.775 158.94 631.659 158.251 632.013 157.754C632.368 157.258 633.059 157.142 633.557 157.495C634.055 157.848 634.172 158.537 633.817 159.034C633.601 159.336 633.26 159.498 632.914 159.498C632.692 159.498 632.468 159.431 632.273 159.293Z" fill="#FF6E61"/>
</g>
<path fill-rule="evenodd" clip-rule="evenodd" d="M632.957 155.423L632.428 155.512L631.899 155.601L631.883 156.093C631.671 156.187 631.47 156.311 631.288 156.464L630.837 156.263L630.526 156.699L630.215 157.135L630.553 157.494C630.468 157.716 630.416 157.945 630.396 158.176L629.935 158.352L630.024 158.88L630.113 159.407L630.607 159.423C630.701 159.634 630.826 159.834 630.979 160.016L630.778 160.465L631.215 160.775L631.652 161.086L632.013 160.749C632.235 160.834 632.465 160.885 632.696 160.905L632.873 161.365L633.402 161.276L633.932 161.187L633.947 160.695C634.159 160.601 634.36 160.477 634.542 160.324L634.993 160.525L635.304 160.089L635.615 159.653L635.278 159.294C635.363 159.072 635.414 158.843 635.434 158.612L635.896 158.436L635.807 157.908L635.717 157.381L635.224 157.365C635.129 157.154 635.005 156.954 634.851 156.772L635.053 156.323L634.615 156.013L634.178 155.702L633.818 156.039C633.596 155.954 633.365 155.903 633.134 155.883L632.957 155.423ZM632.273 159.293C631.775 158.94 631.659 158.251 632.013 157.754C632.368 157.258 633.059 157.142 633.557 157.495C634.055 157.848 634.172 158.537 633.817 159.034C633.601 159.336 633.26 159.498 632.914 159.498C632.692 159.498 632.468 159.431 632.273 159.293Z" fill="#FF6E61"/>
<g filter="url(#filter5_f_24_3211)">
<path fill-rule="evenodd" clip-rule="evenodd" d="M629.687 148.471L629.358 148.657L629.029 148.843L629.138 149.174C629.02 149.288 628.917 149.418 628.834 149.563L628.486 149.538L628.385 149.902L628.285 150.267L628.596 150.424C628.593 150.591 628.615 150.756 628.657 150.914L628.394 151.141L628.581 151.47L628.769 151.799L629.1 151.691C629.214 151.808 629.345 151.911 629.49 151.995L629.466 152.342L629.831 152.442L630.196 152.543L630.353 152.233C630.521 152.236 630.686 152.215 630.844 152.173L631.073 152.436L631.402 152.249L631.732 152.063L631.623 151.733C631.74 151.619 631.843 151.489 631.927 151.344L632.275 151.368L632.375 151.004L632.476 150.64L632.165 150.483C632.167 150.316 632.146 150.151 632.103 149.993L632.366 149.765L632.179 149.436L631.992 149.108L631.661 149.216C631.547 149.098 631.416 148.995 631.27 148.912L631.295 148.565L630.929 148.464L630.564 148.363L630.407 148.673C630.239 148.671 630.074 148.692 629.916 148.734L629.687 148.471ZM630.173 151.204C629.757 151.089 629.513 150.66 629.627 150.245C629.742 149.831 630.172 149.588 630.588 149.702C631.004 149.817 631.248 150.247 631.133 150.661C631.064 150.914 630.877 151.103 630.647 151.186C630.5 151.239 630.336 151.249 630.173 151.204Z" fill="#FF6E61"/>
</g>
<path fill-rule="evenodd" clip-rule="evenodd" d="M629.687 148.471L629.358 148.657L629.029 148.843L629.138 149.174C629.02 149.288 628.917 149.418 628.834 149.563L628.486 149.538L628.385 149.902L628.285 150.267L628.596 150.424C628.593 150.591 628.615 150.756 628.657 150.914L628.394 151.141L628.581 151.47L628.769 151.799L629.1 151.691C629.214 151.808 629.345 151.911 629.49 151.995L629.466 152.342L629.831 152.442L630.196 152.543L630.353 152.233C630.521 152.236 630.686 152.215 630.844 152.173L631.073 152.436L631.402 152.249L631.732 152.063L631.623 151.733C631.74 151.619 631.843 151.489 631.927 151.344L632.275 151.368L632.375 151.004L632.476 150.64L632.165 150.483C632.167 150.316 632.146 150.151 632.103 149.993L632.366 149.765L632.179 149.436L631.992 149.108L631.661 149.216C631.547 149.098 631.416 148.995 631.27 148.912L631.295 148.565L630.929 148.464L630.564 148.363L630.407 148.673C630.239 148.671 630.074 148.692 629.916 148.734L629.687 148.471ZM630.173 151.204C629.757 151.089 629.513 150.66 629.627 150.245C629.742 149.831 630.172 149.588 630.588 149.702C631.004 149.817 631.248 150.247 631.133 150.661C631.064 150.914 630.877 151.103 630.647 151.186C630.5 151.239 630.336 151.249 630.173 151.204Z" fill="#FF6E61"/>
<g filter="url(#filter6_f_24_3211)">
<path fill-rule="evenodd" clip-rule="evenodd" d="M636.453 144.777L636.186 144.752L635.919 144.726L635.847 144.962C635.732 144.981 635.619 145.015 635.512 145.065L635.32 144.91L635.113 145.081L634.906 145.251L635.023 145.468C634.953 145.564 634.898 145.669 634.858 145.777L634.613 145.803L634.587 146.07L634.561 146.336L634.798 146.407C634.816 146.522 634.85 146.634 634.9 146.742L634.745 146.933L634.915 147.139L635.086 147.345L635.304 147.229C635.4 147.299 635.504 147.353 635.613 147.392L635.639 147.637L635.906 147.663L636.173 147.688L636.245 147.452C636.359 147.434 636.472 147.4 636.58 147.349L636.771 147.504L636.978 147.334L637.185 147.163L637.069 146.946C637.139 146.85 637.194 146.746 637.233 146.637L637.479 146.611L637.505 146.345L637.53 146.078L637.294 146.007C637.276 145.893 637.242 145.78 637.191 145.673L637.347 145.481L637.176 145.275L637.005 145.069L636.788 145.185C636.692 145.116 636.587 145.061 636.478 145.022L636.453 144.777ZM635.619 146.559C635.425 146.324 635.458 145.976 635.694 145.782C635.929 145.588 636.278 145.62 636.473 145.855C636.667 146.09 636.634 146.438 636.398 146.632C636.254 146.751 636.069 146.785 635.902 146.74C635.795 146.712 635.695 146.651 635.619 146.559Z" fill="#FF6E61"/>
</g>
<mask id="mask0_24_3211" style="mask-type:alpha" maskUnits="userSpaceOnUse" x="634" y="144" width="4" height="4">
<path d="M636.453 144.777L636.186 144.752L635.919 144.727L635.848 144.963C635.733 144.981 635.62 145.016 635.512 145.066L635.321 144.911L635.114 145.082L634.907 145.252L635.023 145.469C634.953 145.566 634.898 145.67 634.859 145.779L634.613 145.805L634.587 146.071L634.562 146.338L634.798 146.409C634.816 146.523 634.85 146.636 634.9 146.743L634.745 146.934L634.915 147.141L635.086 147.347L635.304 147.23C635.4 147.3 635.504 147.354 635.613 147.394L635.639 147.639L635.906 147.664L636.173 147.689L636.244 147.453C636.359 147.435 636.472 147.401 636.58 147.35L636.771 147.505L636.978 147.334L637.185 147.164L637.069 146.947C637.139 146.851 637.193 146.746 637.233 146.637L637.479 146.612L637.504 146.345L637.53 146.079L637.294 146.008C637.276 145.893 637.242 145.781 637.191 145.673L637.347 145.482L637.176 145.276L637.006 145.069L636.788 145.186C636.692 145.116 636.588 145.062 636.479 145.022L636.453 144.777ZM635.619 146.56C635.425 146.325 635.458 145.977 635.694 145.783C635.93 145.588 636.278 145.621 636.473 145.856C636.667 146.091 636.634 146.439 636.398 146.633C636.254 146.752 636.069 146.786 635.902 146.741C635.795 146.713 635.695 146.652 635.619 146.56Z" fill="white"/>
</mask>
<g mask="url(#mask0_24_3211)">
<path d="M636.453 144.777L636.186 144.752L635.919 144.726L635.847 144.962C635.732 144.981 635.619 145.015 635.512 145.065L635.32 144.91L635.113 145.081L634.906 145.251L635.023 145.468C634.953 145.564 634.898 145.669 634.858 145.777L634.613 145.803L634.587 146.07L634.561 146.336L634.798 146.407C634.816 146.522 634.85 146.634 634.9 146.742L634.745 146.933L634.915 147.139L635.086 147.345L635.304 147.229C635.4 147.299 635.504 147.353 635.613 147.392L635.639 147.637L635.906 147.663L636.173 147.688L636.245 147.452C636.359 147.434 636.472 147.4 636.58 147.349L636.771 147.504L636.978 147.334L637.185 147.163L637.069 146.946C637.139 146.85 637.194 146.746 637.233 146.637L637.479 146.611L637.505 146.345L637.53 146.078L637.294 146.007C637.276 145.893 637.242 145.78 637.191 145.673L637.347 145.481L637.176 145.275L637.005 145.069L636.788 145.185C636.692 145.116 636.587 145.061 636.478 145.022L636.453 144.777ZM635.619 146.559C635.425 146.324 635.458 145.976 635.694 145.782C635.929 145.588 636.278 145.62 636.473 145.855C636.667 146.09 636.634 146.438 636.398 146.632C636.254 146.751 636.069 146.785 635.902 146.74C635.795 146.712 635.695 146.651 635.619 146.559Z" fill="#FF6E61"/>
</g>
<path fill-rule="evenodd" clip-rule="evenodd" d="M729.322 197.788C728.403 197.788 727.659 198.578 727.659 199.551V208.47C727.659 209.444 728.403 210.233 729.322 210.233H740.967L744.056 214.371L744.037 210.226H744.765C745.683 210.226 746.428 209.437 746.428 208.463V199.548C746.426 198.575 745.682 197.788 744.765 197.788H729.322Z" stroke="#414D86" stroke-linecap="round" stroke-linejoin="round"/>
<g filter="url(#filter7_f_24_3211)">
<path fill-rule="evenodd" clip-rule="evenodd" d="M728.501 201.119C728.501 200.368 729.075 199.76 729.783 199.76C730.491 199.76 731.064 200.368 731.064 201.119C731.064 201.869 730.491 202.477 729.783 202.477C729.075 202.477 728.501 201.869 728.501 201.119Z" fill="#FF6E61"/>
</g>
<path fill-rule="evenodd" clip-rule="evenodd" d="M728.501 201.119C728.501 200.368 729.075 199.76 729.783 199.76C730.491 199.76 731.064 200.368 731.064 201.119C731.064 201.869 730.491 202.477 729.783 202.477C729.075 202.477 728.501 201.869 728.501 201.119Z" fill="#FF6E61"/>
<path fill-rule="evenodd" clip-rule="evenodd" d="M728.915 201.119C728.915 200.368 729.488 199.76 730.196 199.76C730.904 199.76 731.478 200.368 731.478 201.119C731.478 201.869 730.904 202.477 730.196 202.477C729.488 202.477 728.915 201.869 728.915 201.119Z" stroke="#414D86" stroke-linecap="round" stroke-linejoin="round"/>
<path d="M732.711 201.119H741.72" stroke="#414D86" stroke-linecap="round" stroke-linejoin="round"/>
<path d="M730.104 204.524H743.444" stroke="#414D86" stroke-linecap="round" stroke-linejoin="round"/>
</g>
<rect x="560" y="245" width="277" height="52" rx="2" fill="white"/>
<path d="M591.017 277.16C590.164 277.16 589.369 277.021 588.633 276.744C587.908 276.456 587.273 276.056 586.729 275.544C586.196 275.021 585.78 274.408 585.481 273.704C585.182 273 585.033 272.232 585.033 271.4C585.033 270.568 585.182 269.8 585.481 269.096C585.78 268.392 586.201 267.784 586.745 267.272C587.289 266.749 587.924 266.349 588.649 266.072C589.374 265.784 590.169 265.64 591.033 265.64C591.95 265.64 592.788 265.8 593.545 266.12C594.302 266.429 594.942 266.893 595.465 267.512L594.121 268.776C593.716 268.339 593.262 268.013 592.761 267.8C592.26 267.576 591.716 267.464 591.129 267.464C590.542 267.464 590.004 267.56 589.513 267.752C589.033 267.944 588.612 268.216 588.249 268.568C587.897 268.92 587.62 269.336 587.417 269.816C587.225 270.296 587.129 270.824 587.129 271.4C587.129 271.976 587.225 272.504 587.417 272.984C587.62 273.464 587.897 273.88 588.249 274.232C588.612 274.584 589.033 274.856 589.513 275.048C590.004 275.24 590.542 275.336 591.129 275.336C591.716 275.336 592.26 275.229 592.761 275.016C593.262 274.792 593.716 274.456 594.121 274.008L595.465 275.288C594.942 275.896 594.302 276.36 593.545 276.68C592.788 277 591.945 277.16 591.017 277.16ZM602.372 277V275.272L602.26 274.904V271.88C602.26 271.293 602.084 270.84 601.732 270.52C601.38 270.189 600.847 270.024 600.132 270.024C599.652 270.024 599.177 270.099 598.708 270.248C598.249 270.397 597.86 270.605 597.54 270.872L596.756 269.416C597.215 269.064 597.759 268.803 598.388 268.632C599.028 268.451 599.689 268.36 600.372 268.36C601.609 268.36 602.564 268.659 603.236 269.256C603.919 269.843 604.26 270.755 604.26 271.992V277H602.372ZM599.684 277.112C599.044 277.112 598.484 277.005 598.004 276.792C597.524 276.568 597.151 276.264 596.884 275.88C596.628 275.485 596.5 275.043 596.5 274.552C596.5 274.072 596.612 273.64 596.836 273.256C597.071 272.872 597.449 272.568 597.972 272.344C598.495 272.12 599.188 272.008 600.052 272.008H602.532V273.336H600.196C599.513 273.336 599.055 273.448 598.82 273.672C598.585 273.885 598.468 274.152 598.468 274.472C598.468 274.835 598.612 275.123 598.9 275.336C599.188 275.549 599.588 275.656 600.1 275.656C600.591 275.656 601.028 275.544 601.412 275.32C601.807 275.096 602.089 274.765 602.26 274.328L602.596 275.528C602.404 276.029 602.057 276.419 601.556 276.696C601.065 276.973 600.441 277.112 599.684 277.112ZM606.747 277V265.128H608.747V277H606.747ZM615.212 277.112C614.316 277.112 613.516 276.925 612.812 276.552C612.118 276.168 611.574 275.645 611.18 274.984C610.785 274.323 610.588 273.571 610.588 272.728C610.588 271.875 610.785 271.123 611.18 270.472C611.574 269.811 612.118 269.293 612.812 268.92C613.516 268.547 614.316 268.36 615.212 268.36C616.044 268.36 616.774 268.531 617.404 268.872C618.044 269.203 618.529 269.693 618.86 270.344L617.324 271.24C617.068 270.835 616.753 270.536 616.38 270.344C616.017 270.152 615.622 270.056 615.196 270.056C614.705 270.056 614.262 270.163 613.868 270.376C613.473 270.589 613.164 270.899 612.94 271.304C612.716 271.699 612.604 272.173 612.604 272.728C612.604 273.283 612.716 273.763 612.94 274.168C613.164 274.563 613.473 274.867 613.868 275.08C614.262 275.293 614.705 275.4 615.196 275.4C615.622 275.4 616.017 275.304 616.38 275.112C616.753 274.92 617.068 274.621 617.324 274.216L618.86 275.112C618.529 275.752 618.044 276.248 617.404 276.6C616.774 276.941 616.044 277.112 615.212 277.112ZM624.125 277.112C623.399 277.112 622.759 276.979 622.205 276.712C621.65 276.435 621.218 276.019 620.909 275.464C620.599 274.899 620.445 274.189 620.445 273.336V268.456H622.445V273.064C622.445 273.832 622.615 274.408 622.957 274.792C623.309 275.165 623.805 275.352 624.445 275.352C624.914 275.352 625.319 275.256 625.661 275.064C626.013 274.872 626.285 274.584 626.477 274.2C626.679 273.816 626.781 273.341 626.781 272.776V268.456H628.781V277H626.877V274.696L627.213 275.4C626.925 275.955 626.503 276.381 625.949 276.68C625.394 276.968 624.786 277.112 624.125 277.112ZM631.319 277V265.128H633.319V277H631.319ZM641.128 277V275.272L641.016 274.904V271.88C641.016 271.293 640.84 270.84 640.488 270.52C640.136 270.189 639.603 270.024 638.888 270.024C638.408 270.024 637.934 270.099 637.464 270.248C637.006 270.397 636.616 270.605 636.296 270.872L635.512 269.416C635.971 269.064 636.515 268.803 637.144 268.632C637.784 268.451 638.446 268.36 639.128 268.36C640.366 268.36 641.32 268.659 641.992 269.256C642.675 269.843 643.016 270.755 643.016 271.992V277H641.128ZM638.44 277.112C637.8 277.112 637.24 277.005 636.76 276.792C636.28 276.568 635.907 276.264 635.64 275.88C635.384 275.485 635.256 275.043 635.256 274.552C635.256 274.072 635.368 273.64 635.592 273.256C635.827 272.872 636.206 272.568 636.728 272.344C637.251 272.12 637.944 272.008 638.808 272.008H641.288V273.336H638.952C638.27 273.336 637.811 273.448 637.576 273.672C637.342 273.885 637.224 274.152 637.224 274.472C637.224 274.835 637.368 275.123 637.656 275.336C637.944 275.549 638.344 275.656 638.856 275.656C639.347 275.656 639.784 275.544 640.168 275.32C640.563 275.096 640.846 274.765 641.016 274.328L641.352 275.528C641.16 276.029 640.814 276.419 640.312 276.696C639.822 276.973 639.198 277.112 638.44 277.112ZM648.719 277.112C647.78 277.112 647.055 276.872 646.543 276.392C646.031 275.901 645.775 275.181 645.775 274.232V266.568H647.775V274.184C647.775 274.589 647.876 274.904 648.079 275.128C648.292 275.352 648.586 275.464 648.959 275.464C649.407 275.464 649.78 275.347 650.079 275.112L650.639 276.536C650.404 276.728 650.116 276.872 649.775 276.968C649.434 277.064 649.082 277.112 648.719 277.112ZM644.367 270.12V268.52H650.063V270.12H644.367ZM655.939 277.112C654.99 277.112 654.158 276.925 653.443 276.552C652.739 276.168 652.19 275.645 651.795 274.984C651.411 274.323 651.219 273.571 651.219 272.728C651.219 271.875 651.406 271.123 651.779 270.472C652.163 269.811 652.686 269.293 653.347 268.92C654.019 268.547 654.782 268.36 655.635 268.36C656.467 268.36 657.208 268.541 657.859 268.904C658.51 269.267 659.022 269.779 659.395 270.44C659.768 271.101 659.955 271.88 659.955 272.776C659.955 272.861 659.95 272.957 659.939 273.064C659.939 273.171 659.934 273.272 659.923 273.368H652.803V272.04H658.867L658.083 272.456C658.094 271.965 657.992 271.533 657.779 271.16C657.566 270.787 657.272 270.493 656.899 270.28C656.536 270.067 656.115 269.96 655.635 269.96C655.144 269.96 654.712 270.067 654.339 270.28C653.976 270.493 653.688 270.792 653.475 271.176C653.272 271.549 653.171 271.992 653.171 272.504V272.824C653.171 273.336 653.288 273.789 653.523 274.184C653.758 274.579 654.088 274.883 654.515 275.096C654.942 275.309 655.432 275.416 655.987 275.416C656.467 275.416 656.899 275.341 657.283 275.192C657.667 275.043 658.008 274.808 658.307 274.488L659.379 275.72C658.995 276.168 658.51 276.515 657.923 276.76C657.347 276.995 656.686 277.112 655.939 277.112ZM668.234 270.952H673.818V272.712H668.234V270.952ZM668.41 277H666.33V265.8H674.506V267.544H668.41V277ZM676.245 277V268.456H678.245V277H676.245ZM677.253 267.048C676.88 267.048 676.571 266.931 676.325 266.696C676.091 266.461 675.973 266.179 675.973 265.848C675.973 265.507 676.091 265.224 676.325 265C676.571 264.765 676.88 264.648 677.253 264.648C677.627 264.648 677.931 264.76 678.165 264.984C678.411 265.197 678.533 265.469 678.533 265.8C678.533 266.152 678.416 266.451 678.181 266.696C677.947 266.931 677.637 267.048 677.253 267.048ZM680.79 277V265.128H682.79V277H680.79ZM696.119 268.36C696.802 268.36 697.405 268.493 697.927 268.76C698.461 269.027 698.877 269.437 699.175 269.992C699.474 270.536 699.623 271.24 699.623 272.104V277H697.623V272.36C697.623 271.603 697.458 271.037 697.127 270.664C696.797 270.291 696.322 270.104 695.703 270.104C695.266 270.104 694.877 270.2 694.535 270.392C694.205 270.584 693.943 270.867 693.751 271.24C693.57 271.613 693.479 272.088 693.479 272.664V277H691.479V272.36C691.479 271.603 691.314 271.037 690.983 270.664C690.653 270.291 690.178 270.104 689.559 270.104C689.122 270.104 688.733 270.2 688.391 270.392C688.061 270.584 687.799 270.867 687.607 271.24C687.426 271.613 687.335 272.088 687.335 272.664V277H685.335V268.456H687.239V270.728L686.903 270.056C687.191 269.501 687.607 269.08 688.151 268.792C688.706 268.504 689.335 268.36 690.039 268.36C690.839 268.36 691.533 268.557 692.119 268.952C692.717 269.347 693.111 269.944 693.303 270.744L692.519 270.472C692.797 269.832 693.255 269.32 693.895 268.936C694.535 268.552 695.277 268.36 696.119 268.36ZM705.049 277L710.089 265.8H712.137L717.193 277H715.017L710.681 266.904H711.513L707.193 277H705.049ZM707.369 274.408L707.929 272.776H713.977L714.537 274.408H707.369ZM729.129 268.36C729.812 268.36 730.415 268.493 730.937 268.76C731.471 269.027 731.887 269.437 732.185 269.992C732.484 270.536 732.633 271.24 732.633 272.104V277H730.633V272.36C730.633 271.603 730.468 271.037 730.137 270.664C729.807 270.291 729.332 270.104 728.713 270.104C728.276 270.104 727.887 270.2 727.545 270.392C727.215 270.584 726.953 270.867 726.761 271.24C726.58 271.613 726.489 272.088 726.489 272.664V277H724.489V272.36C724.489 271.603 724.324 271.037 723.993 270.664C723.663 270.291 723.188 270.104 722.569 270.104C722.132 270.104 721.743 270.2 721.401 270.392C721.071 270.584 720.809 270.867 720.617 271.24C720.436 271.613 720.345 272.088 720.345 272.664V277H718.345V268.456H720.249V270.728L719.913 270.056C720.201 269.501 720.617 269.08 721.161 268.792C721.716 268.504 722.345 268.36 723.049 268.36C723.849 268.36 724.543 268.557 725.129 268.952C725.727 269.347 726.121 269.944 726.313 270.744L725.529 270.472C725.807 269.832 726.265 269.32 726.905 268.936C727.545 268.552 728.287 268.36 729.129 268.36ZM738.965 277.112C738.09 277.112 737.311 276.925 736.629 276.552C735.946 276.168 735.407 275.645 735.013 274.984C734.618 274.323 734.421 273.571 734.421 272.728C734.421 271.875 734.618 271.123 735.013 270.472C735.407 269.811 735.946 269.293 736.629 268.92C737.311 268.547 738.09 268.36 738.965 268.36C739.85 268.36 740.634 268.547 741.317 268.92C742.01 269.293 742.549 269.805 742.933 270.456C743.327 271.107 743.525 271.864 743.525 272.728C743.525 273.571 743.327 274.323 742.933 274.984C742.549 275.645 742.01 276.168 741.317 276.552C740.634 276.925 739.85 277.112 738.965 277.112ZM738.965 275.4C739.455 275.4 739.893 275.293 740.277 275.08C740.661 274.867 740.959 274.557 741.173 274.152C741.397 273.747 741.509 273.272 741.509 272.728C741.509 272.173 741.397 271.699 741.173 271.304C740.959 270.899 740.661 270.589 740.277 270.376C739.893 270.163 739.461 270.056 738.981 270.056C738.49 270.056 738.053 270.163 737.669 270.376C737.295 270.589 736.997 270.899 736.773 271.304C736.549 271.699 736.437 272.173 736.437 272.728C736.437 273.272 736.549 273.747 736.773 274.152C736.997 274.557 737.295 274.867 737.669 275.08C738.053 275.293 738.485 275.4 738.965 275.4ZM745.357 277V268.456H747.261V270.808L747.037 270.12C747.293 269.544 747.693 269.107 748.237 268.808C748.792 268.509 749.48 268.36 750.301 268.36V270.264C750.216 270.243 750.136 270.232 750.061 270.232C749.987 270.221 749.912 270.216 749.837 270.216C749.08 270.216 748.477 270.44 748.029 270.888C747.581 271.325 747.357 271.981 747.357 272.856V277H745.357ZM755.446 277.112C754.508 277.112 753.782 276.872 753.27 276.392C752.758 275.901 752.502 275.181 752.502 274.232V266.568H754.502V274.184C754.502 274.589 754.604 274.904 754.806 275.128C755.02 275.352 755.313 275.464 755.686 275.464C756.134 275.464 756.508 275.347 756.806 275.112L757.366 276.536C757.132 276.728 756.844 276.872 756.502 276.968C756.161 277.064 755.809 277.112 755.446 277.112ZM751.094 270.12V268.52H756.79V270.12H751.094ZM758.932 277V268.456H760.932V277H758.932ZM759.94 267.048C759.566 267.048 759.257 266.931 759.012 266.696C758.777 266.461 758.66 266.179 758.66 265.848C758.66 265.507 758.777 265.224 759.012 265C759.257 264.765 759.566 264.648 759.94 264.648C760.313 264.648 760.617 264.76 760.852 264.984C761.097 265.197 761.22 265.469 761.22 265.8C761.22 266.152 761.102 266.451 760.868 266.696C760.633 266.931 760.324 267.048 759.94 267.048ZM762.773 277V275.736L768.037 269.368L768.405 270.056H762.869V268.456H770.005V269.72L764.741 276.088L764.341 275.4H770.149V277H762.773ZM777.176 277V275.272L777.064 274.904V271.88C777.064 271.293 776.888 270.84 776.536 270.52C776.184 270.189 775.651 270.024 774.936 270.024C774.456 270.024 773.982 270.099 773.512 270.248C773.054 270.397 772.664 270.605 772.344 270.872L771.56 269.416C772.019 269.064 772.563 268.803 773.192 268.632C773.832 268.451 774.494 268.36 775.176 268.36C776.414 268.36 777.368 268.659 778.04 269.256C778.723 269.843 779.064 270.755 779.064 271.992V277H777.176ZM774.488 277.112C773.848 277.112 773.288 277.005 772.808 276.792C772.328 276.568 771.955 276.264 771.688 275.88C771.432 275.485 771.304 275.043 771.304 274.552C771.304 274.072 771.416 273.64 771.64 273.256C771.875 272.872 772.254 272.568 772.776 272.344C773.299 272.12 773.992 272.008 774.856 272.008H777.336V273.336H775C774.318 273.336 773.859 273.448 773.624 273.672C773.39 273.885 773.272 274.152 773.272 274.472C773.272 274.835 773.416 275.123 773.704 275.336C773.992 275.549 774.392 275.656 774.904 275.656C775.395 275.656 775.832 275.544 776.216 275.32C776.611 275.096 776.894 274.765 777.064 274.328L777.4 275.528C777.208 276.029 776.862 276.419 776.36 276.696C775.87 276.973 775.246 277.112 774.488 277.112ZM784.767 277.112C783.828 277.112 783.103 276.872 782.591 276.392C782.079 275.901 781.823 275.181 781.823 274.232V266.568H783.823V274.184C783.823 274.589 783.924 274.904 784.127 275.128C784.34 275.352 784.634 275.464 785.007 275.464C785.455 275.464 785.828 275.347 786.127 275.112L786.687 276.536C786.452 276.728 786.164 276.872 785.823 276.968C785.482 277.064 785.13 277.112 784.767 277.112ZM780.415 270.12V268.52H786.111V270.12H780.415ZM788.252 277V268.456H790.252V277H788.252ZM789.26 267.048C788.887 267.048 788.578 266.931 788.332 266.696C788.098 266.461 787.98 266.179 787.98 265.848C787.98 265.507 788.098 265.224 788.332 265C788.578 264.765 788.887 264.648 789.26 264.648C789.634 264.648 789.938 264.76 790.172 264.984C790.418 265.197 790.54 265.469 790.54 265.8C790.54 266.152 790.423 266.451 790.188 266.696C789.954 266.931 789.644 267.048 789.26 267.048ZM796.637 277.112C795.763 277.112 794.984 276.925 794.301 276.552C793.619 276.168 793.08 275.645 792.685 274.984C792.291 274.323 792.093 273.571 792.093 272.728C792.093 271.875 792.291 271.123 792.685 270.472C793.08 269.811 793.619 269.293 794.301 268.92C794.984 268.547 795.763 268.36 796.637 268.36C797.523 268.36 798.307 268.547 798.989 268.92C799.683 269.293 800.221 269.805 800.605 270.456C801 271.107 801.197 271.864 801.197 272.728C801.197 273.571 801 274.323 800.605 274.984C800.221 275.645 799.683 276.168 798.989 276.552C798.307 276.925 797.523 277.112 796.637 277.112ZM796.637 275.4C797.128 275.4 797.565 275.293 797.949 275.08C798.333 274.867 798.632 274.557 798.845 274.152C799.069 273.747 799.181 273.272 799.181 272.728C799.181 272.173 799.069 271.699 798.845 271.304C798.632 270.899 798.333 270.589 797.949 270.376C797.565 270.163 797.133 270.056 796.653 270.056C796.163 270.056 795.725 270.163 795.341 270.376C794.968 270.589 794.669 270.899 794.445 271.304C794.221 271.699 794.109 272.173 794.109 272.728C794.109 273.272 794.221 273.747 794.445 274.152C794.669 274.557 794.968 274.867 795.341 275.08C795.725 275.293 796.157 275.4 796.637 275.4ZM807.878 268.36C808.56 268.36 809.168 268.493 809.702 268.76C810.246 269.027 810.672 269.437 810.982 269.992C811.291 270.536 811.446 271.24 811.446 272.104V277H809.446V272.36C809.446 271.603 809.264 271.037 808.902 270.664C808.55 270.291 808.054 270.104 807.414 270.104C806.944 270.104 806.528 270.2 806.166 270.392C805.803 270.584 805.52 270.872 805.318 271.256C805.126 271.629 805.03 272.104 805.03 272.68V277H803.03V268.456H804.934V270.76L804.598 270.056C804.896 269.512 805.328 269.096 805.894 268.808C806.47 268.509 807.131 268.36 807.878 268.36Z" fill="#4D65FF"/>
</g>
<defs>
<filter id="filter0_d_24_3211" x="532" y="107" width="332" height="230" filterUnits="userSpaceOnUse" color-interpolation-filters="sRGB">
<feFlood flood-opacity="0" result="BackgroundImageFix"/>
<feColorMatrix in="SourceAlpha" type="matrix" values="0 0 0 0 0 0 0 0 0 0 0 0 0 0 0 0 0 0 127 0" result="hardAlpha"/>
<feOffset dy="1"/>
<feGaussianBlur stdDeviation="2.5"/>
<feComposite in2="hardAlpha" operator="out"/>
<feColorMatrix type="matrix" values="0 0 0 0 0 0 0 0 0 0 0 0 0 0 0 0 0 0 0.15 0"/>
<feBlend mode="normal" in2="BackgroundImageFix" result="effect1_dropShadow_24_3211"/>
<feBlend mode="normal" in="SourceGraphic" in2="effect1_dropShadow_24_3211" result="shape"/>
</filter>
<filter id="filter1_f_24_3211" x="670.69" y="181.543" width="18.6294" height="18.6211" filterUnits="userSpaceOnUse" color-interpolation-filters="sRGB">
<feFlood flood-opacity="0" result="BackgroundImageFix"/>
<feBlend mode="normal" in="SourceGraphic" in2="BackgroundImageFix" result="shape"/>
<feGaussianBlur stdDeviation="4" result="effect1_foregroundBlur_24_3211"/>
</filter>
<filter id="filter2_f_24_3211" x="647.196" y="161.147" width="9.17676" height="8.70215" filterUnits="userSpaceOnUse" color-interpolation-filters="sRGB">
<feFlood flood-opacity="0" result="BackgroundImageFix"/>
<feBlend mode="normal" in="SourceGraphic" in2="BackgroundImageFix" result="shape"/>
<feGaussianBlur stdDeviation="2" result="effect1_foregroundBlur_24_3211"/>
</filter>
<filter id="filter3_f_24_3211" x="643.503" y="161.147" width="9.17676" height="8.70215" filterUnits="userSpaceOnUse" color-interpolation-filters="sRGB">
<feFlood flood-opacity="0" result="BackgroundImageFix"/>
<feBlend mode="normal" in="SourceGraphic" in2="BackgroundImageFix" result="shape"/>
<feGaussianBlur stdDeviation="2" result="effect1_foregroundBlur_24_3211"/>
</filter>
<filter id="filter4_f_24_3211" x="621.935" y="147.423" width="21.9614" height="21.9424" filterUnits="userSpaceOnUse" color-interpolation-filters="sRGB">
<feFlood flood-opacity="0" result="BackgroundImageFix"/>
<feBlend mode="normal" in="SourceGraphic" in2="BackgroundImageFix" result="shape"/>
<feGaussianBlur stdDeviation="4" result="effect1_foregroundBlur_24_3211"/>
</filter>
<filter id="filter5_f_24_3211" x="620.285" y="140.363" width="20.1904" height="20.1797" filterUnits="userSpaceOnUse" color-interpolation-filters="sRGB">
<feFlood flood-opacity="0" result="BackgroundImageFix"/>
<feBlend mode="normal" in="SourceGraphic" in2="BackgroundImageFix" result="shape"/>
<feGaussianBlur stdDeviation="4" result="effect1_foregroundBlur_24_3211"/>
</filter>
<filter id="filter6_f_24_3211" x="626.562" y="136.727" width="18.9688" height="18.9609" filterUnits="userSpaceOnUse" color-interpolation-filters="sRGB">
<feFlood flood-opacity="0" result="BackgroundImageFix"/>
<feBlend mode="normal" in="SourceGraphic" in2="BackgroundImageFix" result="shape"/>
<feGaussianBlur stdDeviation="4" result="effect1_foregroundBlur_24_3211"/>
</filter>
<filter id="filter7_f_24_3211" x="720.501" y="191.76" width="18.563" height="18.7178" filterUnits="userSpaceOnUse" color-interpolation-filters="sRGB">
<feFlood flood-opacity="0" result="BackgroundImageFix"/>
<feBlend mode="normal" in="SourceGraphic" in2="BackgroundImageFix" result="shape"/>
<feGaussianBlur stdDeviation="4" result="effect1_foregroundBlur_24_3211"/>
</filter>
<clipPath id="clip0_24_3211">
<rect width="125" height="106" fill="white" transform="translate(622 139)"/>
</clipPath>
</defs>
</svg>
