<svg width="1395" height="457" viewBox="0 0 1395 457" fill="none" xmlns="http://www.w3.org/2000/svg">
<rect x="0.5" y="0.5" width="1394" height="456" rx="3.5" fill="white" stroke="#D3D5DC"/>
<rect x="1161" y="47" width="185" height="52" rx="2" fill="#C8CACF" fill-opacity="0.2"/>
<path d="M1186.79 79V67.8H1188.94L1195.55 75.864H1194.51V67.8H1197.07V79H1194.94L1188.31 70.936H1189.35V79H1186.79ZM1203.73 79.128C1202.75 79.128 1201.89 78.936 1201.14 78.552C1200.4 78.168 1199.83 77.6453 1199.43 76.984C1199.02 76.312 1198.82 75.5493 1198.82 74.696C1198.82 73.832 1199.02 73.0693 1199.41 72.408C1199.82 71.736 1200.37 71.2133 1201.06 70.84C1201.75 70.456 1202.54 70.264 1203.41 70.264C1204.25 70.264 1205.01 70.4453 1205.68 70.808C1206.37 71.16 1206.91 71.672 1207.3 72.344C1207.69 73.0053 1207.89 73.8 1207.89 74.728C1207.89 74.824 1207.89 74.936 1207.88 75.064C1207.87 75.1813 1207.85 75.2933 1207.84 75.4H1200.85V73.944H1206.53L1205.57 74.376C1205.57 73.928 1205.48 73.5387 1205.3 73.208C1205.12 72.8773 1204.87 72.6213 1204.55 72.44C1204.23 72.248 1203.85 72.152 1203.43 72.152C1203 72.152 1202.62 72.248 1202.29 72.44C1201.97 72.6213 1201.72 72.8827 1201.54 73.224C1201.36 73.5547 1201.27 73.9493 1201.27 74.408V74.792C1201.27 75.2613 1201.37 75.6773 1201.57 76.04C1201.79 76.392 1202.08 76.664 1202.45 76.856C1202.84 77.0373 1203.28 77.128 1203.8 77.128C1204.25 77.128 1204.65 77.0587 1205 76.92C1205.35 76.7813 1205.67 76.5733 1205.96 76.296L1207.28 77.736C1206.89 78.184 1206.39 78.5307 1205.8 78.776C1205.2 79.0107 1204.51 79.128 1203.73 79.128ZM1211.29 79L1208.18 70.392H1210.53L1213.11 77.8H1211.99L1214.68 70.392H1216.79L1219.4 77.8H1218.28L1220.93 70.392H1223.14L1220.02 79H1217.61L1215.32 72.648H1216.05L1213.69 79H1211.29ZM1234.21 79.192C1233.35 79.192 1232.54 79.0533 1231.79 78.776C1231.06 78.488 1230.42 78.0827 1229.87 77.56C1229.33 77.0373 1228.9 76.424 1228.59 75.72C1228.29 75.016 1228.15 74.2427 1228.15 73.4C1228.15 72.5573 1228.29 71.784 1228.59 71.08C1228.9 70.376 1229.33 69.7627 1229.87 69.24C1230.43 68.7173 1231.07 68.3173 1231.81 68.04C1232.55 67.752 1233.35 67.608 1234.23 67.608C1235.2 67.608 1236.07 67.7787 1236.85 68.12C1237.64 68.4507 1238.3 68.9413 1238.83 69.592L1237.17 71.128C1236.79 70.6907 1236.36 70.3653 1235.89 70.152C1235.42 69.928 1234.91 69.816 1234.35 69.816C1233.83 69.816 1233.35 69.9013 1232.91 70.072C1232.48 70.2427 1232.1 70.488 1231.78 70.808C1231.46 71.128 1231.21 71.5067 1231.03 71.944C1230.85 72.3813 1230.77 72.8667 1230.77 73.4C1230.77 73.9333 1230.85 74.4187 1231.03 74.856C1231.21 75.2933 1231.46 75.672 1231.78 75.992C1232.1 76.312 1232.48 76.5573 1232.91 76.728C1233.35 76.8987 1233.83 76.984 1234.35 76.984C1234.91 76.984 1235.42 76.8773 1235.89 76.664C1236.36 76.44 1236.79 76.104 1237.17 75.656L1238.83 77.192C1238.3 77.8427 1237.64 78.3387 1236.85 78.68C1236.07 79.0213 1235.19 79.192 1234.21 79.192ZM1245.56 79V77.32L1245.4 76.952V73.944C1245.4 73.4107 1245.24 72.9947 1244.9 72.696C1244.58 72.3973 1244.09 72.248 1243.42 72.248C1242.96 72.248 1242.5 72.3227 1242.06 72.472C1241.62 72.6107 1241.25 72.8027 1240.94 73.048L1240.04 71.304C1240.51 70.9733 1241.08 70.7173 1241.74 70.536C1242.4 70.3547 1243.07 70.264 1243.75 70.264C1245.06 70.264 1246.08 70.5733 1246.81 71.192C1247.53 71.8107 1247.9 72.776 1247.9 74.088V79H1245.56ZM1242.94 79.128C1242.26 79.128 1241.69 79.016 1241.21 78.792C1240.73 78.5573 1240.36 78.2427 1240.1 77.848C1239.85 77.4533 1239.72 77.0107 1239.72 76.52C1239.72 76.008 1239.84 75.56 1240.09 75.176C1240.34 74.792 1240.74 74.4933 1241.29 74.28C1241.83 74.056 1242.54 73.944 1243.42 73.944H1245.7V75.4H1243.69C1243.1 75.4 1242.7 75.496 1242.47 75.688C1242.26 75.88 1242.15 76.12 1242.15 76.408C1242.15 76.728 1242.28 76.984 1242.52 77.176C1242.78 77.3573 1243.12 77.448 1243.56 77.448C1243.98 77.448 1244.35 77.352 1244.68 77.16C1245.01 76.9573 1245.25 76.664 1245.4 76.28L1245.78 77.432C1245.6 77.9867 1245.27 78.408 1244.79 78.696C1244.31 78.984 1243.69 79.128 1242.94 79.128ZM1250.08 79V67.128H1252.57V79H1250.08ZM1258.97 79.128C1258.04 79.128 1257.21 78.9413 1256.49 78.568C1255.76 78.184 1255.19 77.656 1254.78 76.984C1254.37 76.312 1254.17 75.5493 1254.17 74.696C1254.17 73.832 1254.37 73.0693 1254.78 72.408C1255.19 71.736 1255.76 71.2133 1256.49 70.84C1257.21 70.456 1258.04 70.264 1258.97 70.264C1259.87 70.264 1260.66 70.456 1261.34 70.84C1262.01 71.2133 1262.5 71.752 1262.82 72.456L1260.89 73.496C1260.66 73.0907 1260.38 72.792 1260.04 72.6C1259.71 72.408 1259.35 72.312 1258.95 72.312C1258.53 72.312 1258.14 72.408 1257.8 72.6C1257.46 72.792 1257.19 73.064 1256.98 73.416C1256.79 73.768 1256.7 74.1947 1256.7 74.696C1256.7 75.1973 1256.79 75.624 1256.98 75.976C1257.19 76.328 1257.46 76.6 1257.8 76.792C1258.14 76.984 1258.53 77.08 1258.95 77.08C1259.35 77.08 1259.71 76.9893 1260.04 76.808C1260.38 76.616 1260.66 76.312 1260.89 75.896L1262.82 76.952C1262.5 77.6453 1262.01 78.184 1261.34 78.568C1260.66 78.9413 1259.87 79.128 1258.97 79.128ZM1267.81 79.128C1267.1 79.128 1266.46 78.9893 1265.89 78.712C1265.34 78.4347 1264.91 78.0133 1264.6 77.448C1264.29 76.872 1264.13 76.1413 1264.13 75.256V70.392H1266.63V74.888C1266.63 75.6027 1266.78 76.1307 1267.08 76.472C1267.39 76.8027 1267.82 76.968 1268.37 76.968C1268.76 76.968 1269.1 76.888 1269.4 76.728C1269.7 76.5573 1269.93 76.3013 1270.1 75.96C1270.27 75.608 1270.36 75.1707 1270.36 74.648V70.392H1272.85V79H1270.49V76.632L1270.92 77.32C1270.63 77.9173 1270.2 78.3707 1269.64 78.68C1269.08 78.9787 1268.47 79.128 1267.81 79.128ZM1275.09 79V67.128H1277.58V79H1275.09ZM1285.1 79V77.32L1284.94 76.952V73.944C1284.94 73.4107 1284.77 72.9947 1284.44 72.696C1284.12 72.3973 1283.63 72.248 1282.95 72.248C1282.5 72.248 1282.04 72.3227 1281.59 72.472C1281.16 72.6107 1280.78 72.8027 1280.47 73.048L1279.58 71.304C1280.05 70.9733 1280.61 70.7173 1281.27 70.536C1281.94 70.3547 1282.61 70.264 1283.29 70.264C1284.6 70.264 1285.62 70.5733 1286.35 71.192C1287.07 71.8107 1287.43 72.776 1287.43 74.088V79H1285.1ZM1282.47 79.128C1281.8 79.128 1281.23 79.016 1280.75 78.792C1280.27 78.5573 1279.9 78.2427 1279.64 77.848C1279.39 77.4533 1279.26 77.0107 1279.26 76.52C1279.26 76.008 1279.38 75.56 1279.63 75.176C1279.88 74.792 1280.28 74.4933 1280.83 74.28C1281.37 74.056 1282.08 73.944 1282.95 73.944H1285.24V75.4H1283.23C1282.64 75.4 1282.23 75.496 1282.01 75.688C1281.8 75.88 1281.69 76.12 1281.69 76.408C1281.69 76.728 1281.81 76.984 1282.06 77.176C1282.31 77.3573 1282.66 77.448 1283.1 77.448C1283.51 77.448 1283.89 77.352 1284.22 77.16C1284.55 76.9573 1284.79 76.664 1284.94 76.28L1285.32 77.432C1285.14 77.9867 1284.81 78.408 1284.33 78.696C1283.85 78.984 1283.23 79.128 1282.47 79.128ZM1293.13 79.128C1292.12 79.128 1291.33 78.872 1290.77 78.36C1290.2 77.8373 1289.92 77.064 1289.92 76.04V68.488H1292.41V76.008C1292.41 76.3707 1292.51 76.6533 1292.7 76.856C1292.89 77.048 1293.15 77.144 1293.49 77.144C1293.88 77.144 1294.22 77.0373 1294.49 76.824L1295.17 78.584C1294.91 78.7653 1294.6 78.904 1294.24 79C1293.89 79.0853 1293.52 79.128 1293.13 79.128ZM1288.59 72.504V70.584H1294.56V72.504H1288.59ZM1296.49 79V70.392H1298.98V79H1296.49ZM1297.73 69.192C1297.28 69.192 1296.9 69.0587 1296.61 68.792C1296.33 68.5253 1296.18 68.1947 1296.18 67.8C1296.18 67.4053 1296.33 67.0747 1296.61 66.808C1296.9 66.5413 1297.28 66.408 1297.73 66.408C1298.19 66.408 1298.57 66.536 1298.85 66.792C1299.14 67.0373 1299.29 67.3573 1299.29 67.752C1299.29 68.168 1299.14 68.5147 1298.85 68.792C1298.58 69.0587 1298.2 69.192 1297.73 69.192ZM1305.31 79.128C1304.4 79.128 1303.58 78.936 1302.87 78.552C1302.16 78.168 1301.6 77.6453 1301.19 76.984C1300.78 76.312 1300.58 75.5493 1300.58 74.696C1300.58 73.832 1300.78 73.0693 1301.19 72.408C1301.6 71.736 1302.16 71.2133 1302.87 70.84C1303.58 70.456 1304.4 70.264 1305.31 70.264C1306.22 70.264 1307.03 70.456 1307.75 70.84C1308.46 71.2133 1309.02 71.7307 1309.43 72.392C1309.83 73.0533 1310.03 73.8213 1310.03 74.696C1310.03 75.5493 1309.83 76.312 1309.43 76.984C1309.02 77.6453 1308.46 78.168 1307.75 78.552C1307.03 78.936 1306.22 79.128 1305.31 79.128ZM1305.31 77.08C1305.73 77.08 1306.1 76.984 1306.43 76.792C1306.77 76.6 1307.03 76.328 1307.22 75.976C1307.41 75.6133 1307.51 75.1867 1307.51 74.696C1307.51 74.1947 1307.41 73.768 1307.22 73.416C1307.03 73.064 1306.77 72.792 1306.43 72.6C1306.1 72.408 1305.73 72.312 1305.31 72.312C1304.9 72.312 1304.53 72.408 1304.19 72.6C1303.86 72.792 1303.6 73.064 1303.39 73.416C1303.2 73.768 1303.11 74.1947 1303.11 74.696C1303.11 75.1867 1303.2 75.6133 1303.39 75.976C1303.6 76.328 1303.86 76.6 1304.19 76.792C1304.53 76.984 1304.9 77.08 1305.31 77.08ZM1316.86 70.264C1317.54 70.264 1318.15 70.4027 1318.68 70.68C1319.22 70.9467 1319.65 71.3627 1319.96 71.928C1320.27 72.4827 1320.42 73.1973 1320.42 74.072V79H1317.93V74.456C1317.93 73.7627 1317.77 73.2507 1317.46 72.92C1317.16 72.5893 1316.74 72.424 1316.18 72.424C1315.79 72.424 1315.43 72.5093 1315.11 72.68C1314.8 72.84 1314.56 73.0907 1314.38 73.432C1314.2 73.7733 1314.12 74.2107 1314.12 74.744V79H1311.62V70.392H1314.01V72.776L1313.56 72.056C1313.87 71.48 1314.31 71.0373 1314.89 70.728C1315.46 70.4187 1316.12 70.264 1316.86 70.264Z" fill="#454E5D"/>
<path d="M58.686 57.782H67.084V61.76H58.686V57.782ZM59.05 68H53.902V49.8H68.176V53.778H59.05V68ZM70.2197 68V53.908H75.1597V68H70.2197ZM72.6897 52.348C71.7883 52.348 71.0603 52.0967 70.5057 51.594C69.951 51.0913 69.6737 50.4673 69.6737 49.722C69.6737 48.9767 69.951 48.3527 70.5057 47.85C71.0603 47.3473 71.7883 47.096 72.6897 47.096C73.591 47.096 74.319 47.3387 74.8737 47.824C75.4283 48.292 75.7057 48.8987 75.7057 49.644C75.7057 50.424 75.4283 51.074 74.8737 51.594C74.3363 52.0967 73.6083 52.348 72.6897 52.348ZM78.2401 68V48.708H83.1801V68H78.2401ZM104.616 53.674C105.708 53.674 106.679 53.8993 107.528 54.35C108.395 54.7833 109.071 55.4593 109.556 56.378C110.059 57.2967 110.31 58.484 110.31 59.94V68H105.37V60.746C105.37 59.7407 105.18 59.0127 104.798 58.562C104.417 58.094 103.897 57.86 103.238 57.86C102.77 57.86 102.346 57.9727 101.964 58.198C101.583 58.4233 101.288 58.77 101.08 59.238C100.872 59.6887 100.768 60.278 100.768 61.006V68H95.8285V60.746C95.8285 59.7407 95.6378 59.0127 95.2565 58.562C94.8925 58.094 94.3725 57.86 93.6965 57.86C93.2111 57.86 92.7778 57.9727 92.3965 58.198C92.0325 58.4233 91.7378 58.77 91.5125 59.238C91.3045 59.6887 91.2005 60.278 91.2005 61.006V68H86.2605V53.908H90.9665V57.834L90.0305 56.716C90.5505 55.7107 91.2611 54.9567 92.1625 54.454C93.0638 53.934 94.0691 53.674 95.1785 53.674C96.4438 53.674 97.5531 54.0033 98.5065 54.662C99.4771 55.3033 100.127 56.3087 100.456 57.678L98.8445 57.34C99.3471 56.196 100.101 55.3033 101.106 54.662C102.129 54.0033 103.299 53.674 104.616 53.674ZM118.785 68L126.819 49.8H131.889L139.949 68H134.593L128.301 52.322H130.329L124.037 68H118.785ZM123.179 64.464L124.505 60.668H133.397L134.723 64.464H123.179ZM159.4 53.674C160.492 53.674 161.463 53.8993 162.312 54.35C163.179 54.7833 163.855 55.4593 164.34 56.378C164.843 57.2967 165.094 58.484 165.094 59.94V68H160.154V60.746C160.154 59.7407 159.964 59.0127 159.582 58.562C159.201 58.094 158.681 57.86 158.022 57.86C157.554 57.86 157.13 57.9727 156.748 58.198C156.367 58.4233 156.072 58.77 155.864 59.238C155.656 59.6887 155.552 60.278 155.552 61.006V68H150.612V60.746C150.612 59.7407 150.422 59.0127 150.04 58.562C149.676 58.094 149.156 57.86 148.48 57.86C147.995 57.86 147.562 57.9727 147.18 58.198C146.816 58.4233 146.522 58.77 146.296 59.238C146.088 59.6887 145.984 60.278 145.984 61.006V68H141.044V53.908H145.75V57.834L144.814 56.716C145.334 55.7107 146.045 54.9567 146.946 54.454C147.848 53.934 148.853 53.674 149.962 53.674C151.228 53.674 152.337 54.0033 153.29 54.662C154.261 55.3033 154.911 56.3087 155.24 57.678L153.628 57.34C154.131 56.196 154.885 55.3033 155.89 54.662C156.913 54.0033 158.083 53.674 159.4 53.674ZM175.332 68.234C173.789 68.234 172.42 67.922 171.224 67.298C170.028 66.674 169.083 65.816 168.39 64.724C167.714 63.6147 167.376 62.3493 167.376 60.928C167.376 59.5067 167.714 58.25 168.39 57.158C169.083 56.066 170.028 55.2167 171.224 54.61C172.42 53.986 173.789 53.674 175.332 53.674C176.875 53.674 178.244 53.986 179.44 54.61C180.653 55.2167 181.598 56.066 182.274 57.158C182.95 58.25 183.288 59.5067 183.288 60.928C183.288 62.3493 182.95 63.6147 182.274 64.724C181.598 65.816 180.653 66.674 179.44 67.298C178.244 67.922 176.875 68.234 175.332 68.234ZM175.332 64.308C175.904 64.308 176.407 64.178 176.84 63.918C177.291 63.658 177.646 63.2767 177.906 62.774C178.166 62.254 178.296 61.6387 178.296 60.928C178.296 60.2173 178.166 59.6193 177.906 59.134C177.646 58.6313 177.291 58.25 176.84 57.99C176.407 57.73 175.904 57.6 175.332 57.6C174.777 57.6 174.275 57.73 173.824 57.99C173.391 58.25 173.035 58.6313 172.758 59.134C172.498 59.6193 172.368 60.2173 172.368 60.928C172.368 61.6387 172.498 62.254 172.758 62.774C173.035 63.2767 173.391 63.658 173.824 63.918C174.275 64.178 174.777 64.308 175.332 64.308ZM185.446 68V53.908H190.152V58.016L189.45 56.846C189.866 55.7887 190.542 55 191.478 54.48C192.414 53.9427 193.55 53.674 194.884 53.674V58.12C194.659 58.0853 194.46 58.068 194.286 58.068C194.13 58.0507 193.957 58.042 193.766 58.042C192.761 58.042 191.946 58.3193 191.322 58.874C190.698 59.4113 190.386 60.2953 190.386 61.526V68H185.446ZM203.517 68.234C201.714 68.234 200.31 67.792 199.305 66.908C198.299 66.0067 197.797 64.6547 197.797 62.852V50.762H202.737V62.8C202.737 63.3027 202.875 63.7013 203.153 63.996C203.43 64.2733 203.785 64.412 204.219 64.412C204.808 64.412 205.311 64.2647 205.727 63.97L206.949 67.428C206.533 67.7053 206.021 67.9047 205.415 68.026C204.808 68.1647 204.175 68.234 203.517 68.234ZM195.743 58.12V54.428H205.961V58.12H195.743ZM208.723 68V53.908H213.663V68H208.723ZM211.193 52.348C210.292 52.348 209.564 52.0967 209.009 51.594C208.455 51.0913 208.177 50.4673 208.177 49.722C208.177 48.9767 208.455 48.3527 209.009 47.85C209.564 47.3473 210.292 47.096 211.193 47.096C212.095 47.096 212.823 47.3387 213.377 47.824C213.932 48.292 214.209 48.8987 214.209 49.644C214.209 50.424 213.932 51.074 213.377 51.594C212.84 52.0967 212.112 52.348 211.193 52.348ZM216.016 68V65.088L223.92 55.988L224.752 57.574H216.198V53.908H228.756V56.794L220.826 65.92L219.994 64.308H229.016V68H216.016ZM239.667 68V65.374L239.329 64.724V59.888C239.329 59.108 239.086 58.51 238.601 58.094C238.133 57.6607 237.379 57.444 236.339 57.444C235.663 57.444 234.978 57.5567 234.285 57.782C233.592 57.99 233.002 58.2847 232.517 58.666L230.853 55.312C231.65 54.792 232.604 54.3933 233.713 54.116C234.84 53.8213 235.958 53.674 237.067 53.674C239.355 53.674 241.123 54.2027 242.371 55.26C243.636 56.3 244.269 57.938 244.269 60.174V68H239.667ZM235.507 68.234C234.38 68.234 233.427 68.0433 232.647 67.662C231.867 67.2807 231.269 66.7607 230.853 66.102C230.454 65.4433 230.255 64.7067 230.255 63.892C230.255 63.0253 230.472 62.28 230.905 61.656C231.356 61.0147 232.04 60.5293 232.959 60.2C233.878 59.8533 235.065 59.68 236.521 59.68H239.849V62.254H237.197C236.4 62.254 235.836 62.384 235.507 62.644C235.195 62.904 235.039 63.2507 235.039 63.684C235.039 64.1173 235.204 64.464 235.533 64.724C235.862 64.984 236.313 65.114 236.885 65.114C237.422 65.114 237.908 64.984 238.341 64.724C238.792 64.4467 239.121 64.0307 239.329 63.476L240.005 65.296C239.745 66.2667 239.234 67.0033 238.471 67.506C237.726 67.9913 236.738 68.234 235.507 68.234ZM253.549 68.234C251.747 68.234 250.343 67.792 249.337 66.908C248.332 66.0067 247.829 64.6547 247.829 62.852V50.762H252.769V62.8C252.769 63.3027 252.908 63.7013 253.185 63.996C253.463 64.2733 253.818 64.412 254.251 64.412C254.841 64.412 255.343 64.2647 255.759 63.97L256.981 67.428C256.565 67.7053 256.054 67.9047 255.447 68.026C254.841 68.1647 254.208 68.234 253.549 68.234ZM245.775 58.12V54.428H255.993V58.12H245.775ZM258.756 68V53.908H263.696V68H258.756ZM261.226 52.348C260.325 52.348 259.597 52.0967 259.042 51.594C258.488 51.0913 258.21 50.4673 258.21 49.722C258.21 48.9767 258.488 48.3527 259.042 47.85C259.597 47.3473 260.325 47.096 261.226 47.096C262.128 47.096 262.856 47.3387 263.41 47.824C263.965 48.292 264.242 48.8987 264.242 49.644C264.242 50.424 263.965 51.074 263.41 51.594C262.873 52.0967 262.145 52.348 261.226 52.348ZM273.849 68.234C272.306 68.234 270.937 67.922 269.741 67.298C268.545 66.674 267.6 65.816 266.907 64.724C266.231 63.6147 265.893 62.3493 265.893 60.928C265.893 59.5067 266.231 58.25 266.907 57.158C267.6 56.066 268.545 55.2167 269.741 54.61C270.937 53.986 272.306 53.674 273.849 53.674C275.391 53.674 276.761 53.986 277.957 54.61C279.17 55.2167 280.115 56.066 280.791 57.158C281.467 58.25 281.805 59.5067 281.805 60.928C281.805 62.3493 281.467 63.6147 280.791 64.724C280.115 65.816 279.17 66.674 277.957 67.298C276.761 67.922 275.391 68.234 273.849 68.234ZM273.849 64.308C274.421 64.308 274.923 64.178 275.357 63.918C275.807 63.658 276.163 63.2767 276.423 62.774C276.683 62.254 276.813 61.6387 276.813 60.928C276.813 60.2173 276.683 59.6193 276.423 59.134C276.163 58.6313 275.807 58.25 275.357 57.99C274.923 57.73 274.421 57.6 273.849 57.6C273.294 57.6 272.791 57.73 272.341 57.99C271.907 58.25 271.552 58.6313 271.275 59.134C271.015 59.6193 270.885 60.2173 270.885 60.928C270.885 61.6387 271.015 62.254 271.275 62.774C271.552 63.2767 271.907 63.658 272.341 63.918C272.791 64.178 273.294 64.308 273.849 64.308ZM293.141 53.674C294.233 53.674 295.221 53.8993 296.105 54.35C296.989 54.7833 297.682 55.4593 298.185 56.378C298.705 57.2967 298.965 58.484 298.965 59.94V68H294.025V60.746C294.025 59.7407 293.817 59.0127 293.401 58.562C293.002 58.094 292.439 57.86 291.711 57.86C291.191 57.86 290.714 57.9813 290.281 58.224C289.848 58.4493 289.51 58.8047 289.267 59.29C289.024 59.7753 288.903 60.408 288.903 61.188V68H283.963V53.908H288.669V57.912L287.759 56.742C288.296 55.7193 289.033 54.9567 289.969 54.454C290.905 53.934 291.962 53.674 293.141 53.674Z" fill="#1F2A3B"/>
<g filter="url(#filter0_d_24_4948)">
<rect x="55" y="143" width="1291" height="100" fill="white"/>
<path d="M82.7359 178.918L88.4419 166.318H90.2239L95.9479 178.918H94.0579L88.9639 167.326H89.6839L84.5899 178.918H82.7359ZM85.1659 175.768L85.6519 174.328H92.7439L93.2659 175.768H85.1659ZM109.6 169.288C110.368 169.288 111.046 169.438 111.634 169.738C112.222 170.038 112.678 170.494 113.002 171.106C113.338 171.718 113.506 172.492 113.506 173.428V178.918H111.778V173.626C111.778 172.702 111.562 172.006 111.13 171.538C110.698 171.07 110.092 170.836 109.312 170.836C108.736 170.836 108.232 170.956 107.8 171.196C107.368 171.436 107.032 171.79 106.792 172.258C106.564 172.726 106.45 173.308 106.45 174.004V178.918H104.722V173.626C104.722 172.702 104.506 172.006 104.074 171.538C103.654 171.07 103.048 170.836 102.256 170.836C101.692 170.836 101.194 170.956 100.762 171.196C100.33 171.436 99.9935 171.79 99.7535 172.258C99.5135 172.726 99.3935 173.308 99.3935 174.004V178.918H97.6655V169.378H99.3215V171.916L99.0515 171.268C99.3515 170.644 99.8135 170.158 100.438 169.81C101.062 169.462 101.788 169.288 102.616 169.288C103.528 169.288 104.314 169.516 104.974 169.972C105.634 170.416 106.066 171.094 106.27 172.006L105.568 171.718C105.856 170.986 106.36 170.398 107.08 169.954C107.8 169.51 108.64 169.288 109.6 169.288ZM120.861 179.026C119.901 179.026 119.049 178.816 118.305 178.396C117.561 177.976 116.973 177.4 116.541 176.668C116.109 175.924 115.893 175.084 115.893 174.148C115.893 173.2 116.109 172.36 116.541 171.628C116.973 170.896 117.561 170.326 118.305 169.918C119.049 169.498 119.901 169.288 120.861 169.288C121.809 169.288 122.655 169.498 123.399 169.918C124.155 170.326 124.743 170.896 125.163 171.628C125.595 172.348 125.811 173.188 125.811 174.148C125.811 175.096 125.595 175.936 125.163 176.668C124.743 177.4 124.155 177.976 123.399 178.396C122.655 178.816 121.809 179.026 120.861 179.026ZM120.861 177.514C121.473 177.514 122.019 177.376 122.499 177.1C122.991 176.824 123.375 176.434 123.651 175.93C123.927 175.414 124.065 174.82 124.065 174.148C124.065 173.464 123.927 172.876 123.651 172.384C123.375 171.88 122.991 171.49 122.499 171.214C122.019 170.938 121.473 170.8 120.861 170.8C120.249 170.8 119.703 170.938 119.223 171.214C118.743 171.49 118.359 171.88 118.071 172.384C117.783 172.876 117.639 173.464 117.639 174.148C117.639 174.82 117.783 175.414 118.071 175.93C118.359 176.434 118.743 176.824 119.223 177.1C119.703 177.376 120.249 177.514 120.861 177.514ZM128.291 178.918V169.378H129.947V171.97L129.785 171.322C130.049 170.662 130.493 170.158 131.117 169.81C131.741 169.462 132.509 169.288 133.421 169.288V170.962C133.349 170.95 133.277 170.944 133.205 170.944C133.145 170.944 133.085 170.944 133.025 170.944C132.101 170.944 131.369 171.22 130.829 171.772C130.289 172.324 130.019 173.122 130.019 174.166V178.918H128.291ZM139.303 179.026C138.343 179.026 137.599 178.768 137.071 178.252C136.543 177.736 136.279 176.998 136.279 176.038V167.29H138.007V175.966C138.007 176.482 138.133 176.878 138.385 177.154C138.649 177.43 139.021 177.568 139.501 177.568C140.041 177.568 140.491 177.418 140.851 177.118L141.391 178.36C141.127 178.588 140.809 178.756 140.437 178.864C140.077 178.972 139.699 179.026 139.303 179.026ZM134.659 170.8V169.378H140.743V170.8H134.659ZM143.57 178.918V169.378H145.298V178.918H143.57ZM144.434 167.542C144.098 167.542 143.816 167.434 143.588 167.218C143.372 167.002 143.264 166.738 143.264 166.426C143.264 166.102 143.372 165.832 143.588 165.616C143.816 165.4 144.098 165.292 144.434 165.292C144.77 165.292 145.046 165.4 145.262 165.616C145.49 165.82 145.604 166.078 145.604 166.39C145.604 166.714 145.496 166.99 145.28 167.218C145.064 167.434 144.782 167.542 144.434 167.542ZM151.424 179.026C150.632 179.026 149.876 178.918 149.156 178.702C148.448 178.486 147.89 178.222 147.482 177.91L148.202 176.542C148.61 176.818 149.114 177.052 149.714 177.244C150.314 177.436 150.926 177.532 151.55 177.532C152.354 177.532 152.93 177.418 153.278 177.19C153.638 176.962 153.818 176.644 153.818 176.236C153.818 175.936 153.71 175.702 153.494 175.534C153.278 175.366 152.99 175.24 152.63 175.156C152.282 175.072 151.892 175 151.46 174.94C151.028 174.868 150.596 174.784 150.164 174.688C149.732 174.58 149.336 174.436 148.976 174.256C148.616 174.064 148.328 173.806 148.112 173.482C147.896 173.146 147.788 172.702 147.788 172.15C147.788 171.574 147.95 171.07 148.274 170.638C148.598 170.206 149.054 169.876 149.642 169.648C150.242 169.408 150.95 169.288 151.766 169.288C152.39 169.288 153.02 169.366 153.656 169.522C154.304 169.666 154.832 169.876 155.24 170.152L154.502 171.52C154.07 171.232 153.62 171.034 153.152 170.926C152.684 170.818 152.216 170.764 151.748 170.764C150.992 170.764 150.428 170.89 150.056 171.142C149.684 171.382 149.498 171.694 149.498 172.078C149.498 172.402 149.606 172.654 149.822 172.834C150.05 173.002 150.338 173.134 150.686 173.23C151.046 173.326 151.442 173.41 151.874 173.482C152.306 173.542 152.738 173.626 153.17 173.734C153.602 173.83 153.992 173.968 154.34 174.148C154.7 174.328 154.988 174.58 155.204 174.904C155.432 175.228 155.546 175.66 155.546 176.2C155.546 176.776 155.378 177.274 155.042 177.694C154.706 178.114 154.232 178.444 153.62 178.684C153.008 178.912 152.276 179.026 151.424 179.026ZM160.531 179.026C159.739 179.026 158.983 178.918 158.263 178.702C157.555 178.486 156.997 178.222 156.589 177.91L157.309 176.542C157.717 176.818 158.221 177.052 158.821 177.244C159.421 177.436 160.033 177.532 160.657 177.532C161.461 177.532 162.037 177.418 162.385 177.19C162.745 176.962 162.925 176.644 162.925 176.236C162.925 175.936 162.817 175.702 162.601 175.534C162.385 175.366 162.097 175.24 161.737 175.156C161.389 175.072 160.999 175 160.567 174.94C160.135 174.868 159.703 174.784 159.271 174.688C158.839 174.58 158.443 174.436 158.083 174.256C157.723 174.064 157.435 173.806 157.219 173.482C157.003 173.146 156.895 172.702 156.895 172.15C156.895 171.574 157.057 171.07 157.381 170.638C157.705 170.206 158.161 169.876 158.749 169.648C159.349 169.408 160.057 169.288 160.873 169.288C161.497 169.288 162.127 169.366 162.763 169.522C163.411 169.666 163.939 169.876 164.347 170.152L163.609 171.52C163.177 171.232 162.727 171.034 162.259 170.926C161.791 170.818 161.323 170.764 160.855 170.764C160.099 170.764 159.535 170.89 159.163 171.142C158.791 171.382 158.605 171.694 158.605 172.078C158.605 172.402 158.713 172.654 158.929 172.834C159.157 173.002 159.445 173.134 159.793 173.23C160.153 173.326 160.549 173.41 160.981 173.482C161.413 173.542 161.845 173.626 162.277 173.734C162.709 173.83 163.099 173.968 163.447 174.148C163.807 174.328 164.095 174.58 164.311 174.904C164.539 175.228 164.653 175.66 164.653 176.2C164.653 176.776 164.485 177.274 164.149 177.694C163.813 178.114 163.339 178.444 162.727 178.684C162.115 178.912 161.383 179.026 160.531 179.026ZM171.151 179.026C170.131 179.026 169.231 178.816 168.451 178.396C167.683 177.976 167.083 177.4 166.651 176.668C166.231 175.936 166.021 175.096 166.021 174.148C166.021 173.2 166.225 172.36 166.633 171.628C167.053 170.896 167.623 170.326 168.343 169.918C169.075 169.498 169.897 169.288 170.809 169.288C171.733 169.288 172.549 169.492 173.257 169.9C173.965 170.308 174.517 170.884 174.913 171.628C175.321 172.36 175.525 173.218 175.525 174.202C175.525 174.274 175.519 174.358 175.507 174.454C175.507 174.55 175.501 174.64 175.489 174.724H167.371V173.482H174.589L173.887 173.914C173.899 173.302 173.773 172.756 173.509 172.276C173.245 171.796 172.879 171.424 172.411 171.16C171.955 170.884 171.421 170.746 170.809 170.746C170.209 170.746 169.675 170.884 169.207 171.16C168.739 171.424 168.373 171.802 168.109 172.294C167.845 172.774 167.713 173.326 167.713 173.95V174.238C167.713 174.874 167.857 175.444 168.145 175.948C168.445 176.44 168.859 176.824 169.387 177.1C169.915 177.376 170.521 177.514 171.205 177.514C171.769 177.514 172.279 177.418 172.735 177.226C173.203 177.034 173.611 176.746 173.959 176.362L174.913 177.478C174.481 177.982 173.941 178.366 173.293 178.63C172.657 178.894 171.943 179.026 171.151 179.026ZM189.948 169.288C190.716 169.288 191.394 169.438 191.982 169.738C192.57 170.038 193.026 170.494 193.35 171.106C193.686 171.718 193.854 172.492 193.854 173.428V178.918H192.126V173.626C192.126 172.702 191.91 172.006 191.478 171.538C191.046 171.07 190.44 170.836 189.66 170.836C189.084 170.836 188.58 170.956 188.148 171.196C187.716 171.436 187.38 171.79 187.14 172.258C186.912 172.726 186.798 173.308 186.798 174.004V178.918H185.07V173.626C185.07 172.702 184.854 172.006 184.422 171.538C184.002 171.07 183.396 170.836 182.604 170.836C182.04 170.836 181.542 170.956 181.11 171.196C180.678 171.436 180.342 171.79 180.102 172.258C179.862 172.726 179.742 173.308 179.742 174.004V178.918H178.014V169.378H179.67V171.916L179.4 171.268C179.7 170.644 180.162 170.158 180.786 169.81C181.41 169.462 182.136 169.288 182.964 169.288C183.876 169.288 184.662 169.516 185.322 169.972C185.982 170.416 186.414 171.094 186.618 172.006L185.916 171.718C186.204 170.986 186.708 170.398 187.428 169.954C188.148 169.51 188.988 169.288 189.948 169.288ZM201.372 179.026C200.352 179.026 199.452 178.816 198.672 178.396C197.904 177.976 197.304 177.4 196.872 176.668C196.452 175.936 196.242 175.096 196.242 174.148C196.242 173.2 196.446 172.36 196.854 171.628C197.274 170.896 197.844 170.326 198.564 169.918C199.296 169.498 200.118 169.288 201.03 169.288C201.954 169.288 202.77 169.492 203.478 169.9C204.186 170.308 204.738 170.884 205.134 171.628C205.542 172.36 205.746 173.218 205.746 174.202C205.746 174.274 205.74 174.358 205.728 174.454C205.728 174.55 205.722 174.64 205.71 174.724H197.592V173.482H204.81L204.108 173.914C204.12 173.302 203.994 172.756 203.73 172.276C203.466 171.796 203.1 171.424 202.632 171.16C202.176 170.884 201.642 170.746 201.03 170.746C200.43 170.746 199.896 170.884 199.428 171.16C198.96 171.424 198.594 171.802 198.33 172.294C198.066 172.774 197.934 173.326 197.934 173.95V174.238C197.934 174.874 198.078 175.444 198.366 175.948C198.666 176.44 199.08 176.824 199.608 177.1C200.136 177.376 200.742 177.514 201.426 177.514C201.99 177.514 202.5 177.418 202.956 177.226C203.424 177.034 203.832 176.746 204.18 176.362L205.134 177.478C204.702 177.982 204.162 178.366 203.514 178.63C202.878 178.894 202.164 179.026 201.372 179.026ZM213.329 169.288C214.109 169.288 214.793 169.438 215.381 169.738C215.981 170.038 216.449 170.494 216.785 171.106C217.121 171.718 217.289 172.492 217.289 173.428V178.918H215.561V173.626C215.561 172.702 215.333 172.006 214.877 171.538C214.433 171.07 213.803 170.836 212.987 170.836C212.375 170.836 211.841 170.956 211.385 171.196C210.929 171.436 210.575 171.79 210.323 172.258C210.083 172.726 209.963 173.308 209.963 174.004V178.918H208.235V169.378H209.891V171.952L209.621 171.268C209.933 170.644 210.413 170.158 211.061 169.81C211.709 169.462 212.465 169.288 213.329 169.288ZM223.853 179.026C222.893 179.026 222.149 178.768 221.621 178.252C221.093 177.736 220.829 176.998 220.829 176.038V167.29H222.557V175.966C222.557 176.482 222.683 176.878 222.935 177.154C223.199 177.43 223.571 177.568 224.051 177.568C224.591 177.568 225.041 177.418 225.401 177.118L225.941 178.36C225.677 178.588 225.359 178.756 224.987 178.864C224.627 178.972 224.249 179.026 223.853 179.026ZM219.209 170.8V169.378H225.293V170.8H219.209ZM231.388 178.918L237.094 166.318H238.876L244.6 178.918H242.71L237.616 167.326H238.336L233.242 178.918H231.388ZM233.818 175.768L234.304 174.328H241.396L241.918 175.768H233.818ZM246.318 178.918V169.378H247.974V171.97L247.812 171.322C248.076 170.662 248.52 170.158 249.144 169.81C249.768 169.462 250.536 169.288 251.448 169.288V170.962C251.376 170.95 251.304 170.944 251.232 170.944C251.172 170.944 251.112 170.944 251.052 170.944C250.128 170.944 249.396 171.22 248.856 171.772C248.316 172.324 248.046 173.122 248.046 174.166V178.918H246.318ZM257.331 179.026C256.371 179.026 255.627 178.768 255.099 178.252C254.571 177.736 254.307 176.998 254.307 176.038V167.29H256.035V175.966C256.035 176.482 256.161 176.878 256.413 177.154C256.677 177.43 257.049 177.568 257.529 177.568C258.069 177.568 258.519 177.418 258.879 177.118L259.419 178.36C259.155 178.588 258.837 178.756 258.465 178.864C258.105 178.972 257.727 179.026 257.331 179.026ZM252.687 170.8V169.378H258.771V170.8H252.687ZM265.529 179.026C264.509 179.026 263.609 178.816 262.829 178.396C262.061 177.976 261.461 177.4 261.029 176.668C260.609 175.936 260.399 175.096 260.399 174.148C260.399 173.2 260.603 172.36 261.011 171.628C261.431 170.896 262.001 170.326 262.721 169.918C263.453 169.498 264.275 169.288 265.187 169.288C266.111 169.288 266.927 169.492 267.635 169.9C268.343 170.308 268.895 170.884 269.291 171.628C269.699 172.36 269.903 173.218 269.903 174.202C269.903 174.274 269.897 174.358 269.885 174.454C269.885 174.55 269.879 174.64 269.867 174.724H261.749V173.482H268.967L268.265 173.914C268.277 173.302 268.151 172.756 267.887 172.276C267.623 171.796 267.257 171.424 266.789 171.16C266.333 170.884 265.799 170.746 265.187 170.746C264.587 170.746 264.053 170.884 263.585 171.16C263.117 171.424 262.751 171.802 262.487 172.294C262.223 172.774 262.091 173.326 262.091 173.95V174.238C262.091 174.874 262.235 175.444 262.523 175.948C262.823 176.44 263.237 176.824 263.765 177.1C264.293 177.376 264.899 177.514 265.583 177.514C266.147 177.514 266.657 177.418 267.113 177.226C267.581 177.034 267.989 176.746 268.337 176.362L269.291 177.478C268.859 177.982 268.319 178.366 267.671 178.63C267.035 178.894 266.321 179.026 265.529 179.026Z" fill="#454E5D"/>
<path d="M82.2195 215L87.0195 204.5H88.1145L92.9145 215H91.7445L87.3345 205.145H87.7845L83.3745 215H82.2195ZM84.1095 212.195L84.4395 211.295H90.5445L90.8745 212.195H84.1095ZM94.5014 215V207.125H95.5214V209.27L95.4164 208.895C95.6364 208.295 96.0064 207.84 96.5264 207.53C97.0464 207.21 97.6914 207.05 98.4614 207.05V208.085C98.4214 208.085 98.3814 208.085 98.3414 208.085C98.3014 208.075 98.2614 208.07 98.2214 208.07C97.3914 208.07 96.7414 208.325 96.2714 208.835C95.8014 209.335 95.5664 210.05 95.5664 210.98V215H94.5014ZM103.307 215.075C102.567 215.075 101.997 214.875 101.597 214.475C101.197 214.075 100.997 213.51 100.997 212.78V205.385H102.062V212.72C102.062 213.18 102.177 213.535 102.407 213.785C102.647 214.035 102.987 214.16 103.427 214.16C103.897 214.16 104.287 214.025 104.597 213.755L104.972 214.52C104.762 214.71 104.507 214.85 104.207 214.94C103.917 215.03 103.617 215.075 103.307 215.075ZM99.5866 208.01V207.125H104.462V208.01H99.5866ZM110.052 215.075C109.232 215.075 108.512 214.905 107.892 214.565C107.272 214.215 106.787 213.74 106.437 213.14C106.087 212.53 105.912 211.835 105.912 211.055C105.912 210.275 106.077 209.585 106.407 208.985C106.747 208.385 107.207 207.915 107.787 207.575C108.377 207.225 109.037 207.05 109.767 207.05C110.507 207.05 111.162 207.22 111.732 207.56C112.312 207.89 112.767 208.36 113.097 208.97C113.427 209.57 113.592 210.265 113.592 211.055C113.592 211.105 113.587 211.16 113.577 211.22C113.577 211.27 113.577 211.325 113.577 211.385H106.722V210.59H113.007L112.587 210.905C112.587 210.335 112.462 209.83 112.212 209.39C111.972 208.94 111.642 208.59 111.222 208.34C110.802 208.09 110.317 207.965 109.767 207.965C109.227 207.965 108.742 208.09 108.312 208.34C107.882 208.59 107.547 208.94 107.307 209.39C107.067 209.84 106.947 210.355 106.947 210.935V211.1C106.947 211.7 107.077 212.23 107.337 212.69C107.607 213.14 107.977 213.495 108.447 213.755C108.927 214.005 109.472 214.13 110.082 214.13C110.562 214.13 111.007 214.045 111.417 213.875C111.837 213.705 112.197 213.445 112.497 213.095L113.097 213.785C112.747 214.205 112.307 214.525 111.777 214.745C111.257 214.965 110.682 215.075 110.052 215.075ZM121.051 209.585H126.601V210.545H121.051V209.585ZM121.171 215H120.061V204.5H127.261V205.46H121.171V215ZM129.256 215V207.125H130.276V209.27L130.171 208.895C130.391 208.295 130.761 207.84 131.281 207.53C131.801 207.21 132.446 207.05 133.216 207.05V208.085C133.176 208.085 133.136 208.085 133.096 208.085C133.056 208.075 133.016 208.07 132.976 208.07C132.146 208.07 131.496 208.325 131.026 208.835C130.556 209.335 130.321 210.05 130.321 210.98V215H129.256ZM139.584 215V213.26L139.539 212.975V210.065C139.539 209.395 139.349 208.88 138.969 208.52C138.599 208.16 138.044 207.98 137.304 207.98C136.794 207.98 136.309 208.065 135.849 208.235C135.389 208.405 134.999 208.63 134.679 208.91L134.199 208.115C134.599 207.775 135.079 207.515 135.639 207.335C136.199 207.145 136.789 207.05 137.409 207.05C138.429 207.05 139.214 207.305 139.764 207.815C140.324 208.315 140.604 209.08 140.604 210.11V215H139.584ZM136.869 215.075C136.279 215.075 135.764 214.98 135.324 214.79C134.894 214.59 134.564 214.32 134.334 213.98C134.104 213.63 133.989 213.23 133.989 212.78C133.989 212.37 134.084 212 134.274 211.67C134.474 211.33 134.794 211.06 135.234 210.86C135.684 210.65 136.284 210.545 137.034 210.545H139.749V211.34H137.064C136.304 211.34 135.774 211.475 135.474 211.745C135.184 212.015 135.039 212.35 135.039 212.75C135.039 213.2 135.214 213.56 135.564 213.83C135.914 214.1 136.404 214.235 137.034 214.235C137.634 214.235 138.149 214.1 138.579 213.83C139.019 213.55 139.339 213.15 139.539 212.63L139.779 213.365C139.579 213.885 139.229 214.3 138.729 214.61C138.239 214.92 137.619 215.075 136.869 215.075ZM147.591 207.05C148.231 207.05 148.791 207.175 149.271 207.425C149.761 207.665 150.141 208.035 150.411 208.535C150.691 209.035 150.831 209.665 150.831 210.425V215H149.766V210.53C149.766 209.7 149.556 209.075 149.136 208.655C148.726 208.225 148.146 208.01 147.396 208.01C146.836 208.01 146.346 208.125 145.926 208.355C145.516 208.575 145.196 208.9 144.966 209.33C144.746 209.75 144.636 210.26 144.636 210.86V215H143.571V207.125H144.591V209.285L144.426 208.88C144.676 208.31 145.076 207.865 145.626 207.545C146.176 207.215 146.831 207.05 147.591 207.05ZM157.053 215.075C156.273 215.075 155.573 214.905 154.953 214.565C154.343 214.215 153.863 213.74 153.513 213.14C153.163 212.53 152.988 211.835 152.988 211.055C152.988 210.265 153.163 209.57 153.513 208.97C153.863 208.37 154.343 207.9 154.953 207.56C155.573 207.22 156.273 207.05 157.053 207.05C157.723 207.05 158.328 207.18 158.868 207.44C159.408 207.7 159.833 208.09 160.143 208.61L159.348 209.15C159.078 208.75 158.743 208.455 158.343 208.265C157.943 208.075 157.508 207.98 157.038 207.98C156.478 207.98 155.973 208.11 155.523 208.37C155.073 208.62 154.718 208.975 154.458 209.435C154.198 209.895 154.068 210.435 154.068 211.055C154.068 211.675 154.198 212.215 154.458 212.675C154.718 213.135 155.073 213.495 155.523 213.755C155.973 214.005 156.478 214.13 157.038 214.13C157.508 214.13 157.943 214.035 158.343 213.845C158.743 213.655 159.078 213.365 159.348 212.975L160.143 213.515C159.833 214.025 159.408 214.415 158.868 214.685C158.328 214.945 157.723 215.075 157.053 215.075ZM165.523 215.075C164.703 215.075 163.983 214.905 163.363 214.565C162.743 214.215 162.258 213.74 161.908 213.14C161.558 212.53 161.383 211.835 161.383 211.055C161.383 210.275 161.548 209.585 161.878 208.985C162.218 208.385 162.678 207.915 163.258 207.575C163.848 207.225 164.508 207.05 165.238 207.05C165.978 207.05 166.633 207.22 167.203 207.56C167.783 207.89 168.238 208.36 168.568 208.97C168.898 209.57 169.063 210.265 169.063 211.055C169.063 211.105 169.058 211.16 169.048 211.22C169.048 211.27 169.048 211.325 169.048 211.385H162.193V210.59H168.478L168.058 210.905C168.058 210.335 167.933 209.83 167.683 209.39C167.443 208.94 167.113 208.59 166.693 208.34C166.273 208.09 165.788 207.965 165.238 207.965C164.698 207.965 164.213 208.09 163.783 208.34C163.353 208.59 163.018 208.94 162.778 209.39C162.538 209.84 162.418 210.355 162.418 210.935V211.1C162.418 211.7 162.548 212.23 162.808 212.69C163.078 213.14 163.448 213.495 163.918 213.755C164.398 214.005 164.943 214.13 165.553 214.13C166.033 214.13 166.478 214.045 166.888 213.875C167.308 213.705 167.668 213.445 167.968 213.095L168.568 213.785C168.218 214.205 167.778 214.525 167.248 214.745C166.728 214.965 166.153 215.075 165.523 215.075ZM180.092 215.09C179.302 215.09 178.572 214.96 177.902 214.7C177.232 214.43 176.652 214.055 176.162 213.575C175.672 213.095 175.287 212.53 175.007 211.88C174.737 211.23 174.602 210.52 174.602 209.75C174.602 208.98 174.737 208.27 175.007 207.62C175.287 206.97 175.672 206.405 176.162 205.925C176.662 205.445 177.247 205.075 177.917 204.815C178.587 204.545 179.317 204.41 180.107 204.41C180.867 204.41 181.582 204.54 182.252 204.8C182.922 205.05 183.487 205.43 183.947 205.94L183.242 206.645C182.812 206.205 182.337 205.89 181.817 205.7C181.297 205.5 180.737 205.4 180.137 205.4C179.507 205.4 178.922 205.51 178.382 205.73C177.842 205.94 177.372 206.245 176.972 206.645C176.572 207.035 176.257 207.495 176.027 208.025C175.807 208.545 175.697 209.12 175.697 209.75C175.697 210.38 175.807 210.96 176.027 211.49C176.257 212.01 176.572 212.47 176.972 212.87C177.372 213.26 177.842 213.565 178.382 213.785C178.922 213.995 179.507 214.1 180.137 214.1C180.737 214.1 181.297 214 181.817 213.8C182.337 213.6 182.812 213.28 183.242 212.84L183.947 213.545C183.487 214.055 182.922 214.44 182.252 214.7C181.582 214.96 180.862 215.09 180.092 215.09ZM186.163 215V207.125H187.228V215H186.163ZM186.703 205.385C186.483 205.385 186.298 205.31 186.148 205.16C185.998 205.01 185.923 204.83 185.923 204.62C185.923 204.41 185.998 204.235 186.148 204.095C186.298 203.945 186.483 203.87 186.703 203.87C186.923 203.87 187.108 203.94 187.258 204.08C187.408 204.22 187.483 204.395 187.483 204.605C187.483 204.825 187.408 205.01 187.258 205.16C187.118 205.31 186.933 205.385 186.703 205.385ZM194.286 207.05C194.926 207.05 195.486 207.175 195.966 207.425C196.456 207.665 196.836 208.035 197.106 208.535C197.386 209.035 197.526 209.665 197.526 210.425V215H196.461V210.53C196.461 209.7 196.251 209.075 195.831 208.655C195.421 208.225 194.841 208.01 194.091 208.01C193.531 208.01 193.041 208.125 192.621 208.355C192.211 208.575 191.891 208.9 191.661 209.33C191.441 209.75 191.331 210.26 191.331 210.86V215H190.266V207.125H191.286V209.285L191.121 208.88C191.371 208.31 191.771 207.865 192.321 207.545C192.871 207.215 193.526 207.05 194.286 207.05ZM203.823 215.075C203.003 215.075 202.283 214.905 201.663 214.565C201.043 214.215 200.558 213.74 200.208 213.14C199.858 212.53 199.683 211.835 199.683 211.055C199.683 210.275 199.848 209.585 200.178 208.985C200.518 208.385 200.978 207.915 201.558 207.575C202.148 207.225 202.808 207.05 203.538 207.05C204.278 207.05 204.933 207.22 205.503 207.56C206.083 207.89 206.538 208.36 206.868 208.97C207.198 209.57 207.363 210.265 207.363 211.055C207.363 211.105 207.358 211.16 207.348 211.22C207.348 211.27 207.348 211.325 207.348 211.385H200.493V210.59H206.778L206.358 210.905C206.358 210.335 206.233 209.83 205.983 209.39C205.743 208.94 205.413 208.59 204.993 208.34C204.573 208.09 204.088 207.965 203.538 207.965C202.998 207.965 202.513 208.09 202.083 208.34C201.653 208.59 201.318 208.94 201.078 209.39C200.838 209.84 200.718 210.355 200.718 210.935V211.1C200.718 211.7 200.848 212.23 201.108 212.69C201.378 213.14 201.748 213.495 202.218 213.755C202.698 214.005 203.243 214.13 203.853 214.13C204.333 214.13 204.778 214.045 205.188 213.875C205.608 213.705 205.968 213.445 206.268 213.095L206.868 213.785C206.518 214.205 206.078 214.525 205.548 214.745C205.028 214.965 204.453 215.075 203.823 215.075ZM202.548 205.895L204.603 204.035H206.028L203.598 205.895H202.548ZM219.446 207.05C220.086 207.05 220.641 207.175 221.111 207.425C221.591 207.665 221.961 208.035 222.221 208.535C222.491 209.035 222.626 209.665 222.626 210.425V215H221.561V210.53C221.561 209.7 221.361 209.075 220.961 208.655C220.571 208.225 220.016 208.01 219.296 208.01C218.756 208.01 218.286 208.125 217.886 208.355C217.496 208.575 217.191 208.9 216.971 209.33C216.761 209.75 216.656 210.26 216.656 210.86V215H215.591V210.53C215.591 209.7 215.391 209.075 214.991 208.655C214.591 208.225 214.031 208.01 213.311 208.01C212.781 208.01 212.316 208.125 211.916 208.355C211.516 208.575 211.206 208.9 210.986 209.33C210.776 209.75 210.671 210.26 210.671 210.86V215H209.606V207.125H210.626V209.255L210.461 208.88C210.701 208.31 211.086 207.865 211.616 207.545C212.156 207.215 212.791 207.05 213.521 207.05C214.291 207.05 214.946 207.245 215.486 207.635C216.026 208.015 216.376 208.59 216.536 209.36L216.116 209.195C216.346 208.555 216.751 208.04 217.331 207.65C217.921 207.25 218.626 207.05 219.446 207.05ZM230.524 215V213.26L230.479 212.975V210.065C230.479 209.395 230.289 208.88 229.909 208.52C229.539 208.16 228.984 207.98 228.244 207.98C227.734 207.98 227.249 208.065 226.789 208.235C226.329 208.405 225.939 208.63 225.619 208.91L225.139 208.115C225.539 207.775 226.019 207.515 226.579 207.335C227.139 207.145 227.729 207.05 228.349 207.05C229.369 207.05 230.154 207.305 230.704 207.815C231.264 208.315 231.544 209.08 231.544 210.11V215H230.524ZM227.809 215.075C227.219 215.075 226.704 214.98 226.264 214.79C225.834 214.59 225.504 214.32 225.274 213.98C225.044 213.63 224.929 213.23 224.929 212.78C224.929 212.37 225.024 212 225.214 211.67C225.414 211.33 225.734 211.06 226.174 210.86C226.624 210.65 227.224 210.545 227.974 210.545H230.689V211.34H228.004C227.244 211.34 226.714 211.475 226.414 211.745C226.124 212.015 225.979 212.35 225.979 212.75C225.979 213.2 226.154 213.56 226.504 213.83C226.854 214.1 227.344 214.235 227.974 214.235C228.574 214.235 229.089 214.1 229.519 213.83C229.959 213.55 230.279 213.15 230.479 212.63L230.719 213.365C230.519 213.885 230.169 214.3 229.669 214.61C229.179 214.92 228.559 215.075 227.809 215.075Z" fill="#454E5D"/>
<path d="M1256.06 190.02L1256.98 190.94L1247.92 200H1247V199.08L1256.06 190.02ZM1259.66 184C1259.41 184 1259.15 184.1 1258.96 184.29L1257.13 186.12L1260.88 189.87L1262.71 188.04C1263.1 187.65 1263.1 187.02 1262.71 186.63L1260.37 184.29C1260.17 184.09 1259.92 184 1259.66 184ZM1256.06 187.19L1245 198.25V202H1248.75L1259.81 190.94L1256.06 187.19Z" fill="#1F2A3B"/>
<path d="M1298 190V200H1290V190H1298ZM1296.5 184H1291.5L1290.5 185H1287V187H1301V185H1297.5L1296.5 184ZM1300 188H1288V200C1288 201.1 1288.9 202 1290 202H1298C1299.1 202 1300 201.1 1300 200V188Z" fill="#1F2A3B"/>
</g>
<g filter="url(#filter1_d_24_4948)">
<rect x="55" y="272" width="1291" height="100" fill="white"/>
<path d="M82.7359 307.918L88.4419 295.318H90.2239L95.9479 307.918H94.0579L88.9639 296.326H89.6839L84.5899 307.918H82.7359ZM85.1659 304.768L85.6519 303.328H92.7439L93.2659 304.768H85.1659ZM109.6 298.288C110.368 298.288 111.046 298.438 111.634 298.738C112.222 299.038 112.678 299.494 113.002 300.106C113.338 300.718 113.506 301.492 113.506 302.428V307.918H111.778V302.626C111.778 301.702 111.562 301.006 111.13 300.538C110.698 300.07 110.092 299.836 109.312 299.836C108.736 299.836 108.232 299.956 107.8 300.196C107.368 300.436 107.032 300.79 106.792 301.258C106.564 301.726 106.45 302.308 106.45 303.004V307.918H104.722V302.626C104.722 301.702 104.506 301.006 104.074 300.538C103.654 300.07 103.048 299.836 102.256 299.836C101.692 299.836 101.194 299.956 100.762 300.196C100.33 300.436 99.9935 300.79 99.7535 301.258C99.5135 301.726 99.3935 302.308 99.3935 303.004V307.918H97.6655V298.378H99.3215V300.916L99.0515 300.268C99.3515 299.644 99.8135 299.158 100.438 298.81C101.062 298.462 101.788 298.288 102.616 298.288C103.528 298.288 104.314 298.516 104.974 298.972C105.634 299.416 106.066 300.094 106.27 301.006L105.568 300.718C105.856 299.986 106.36 299.398 107.08 298.954C107.8 298.51 108.64 298.288 109.6 298.288ZM120.861 308.026C119.901 308.026 119.049 307.816 118.305 307.396C117.561 306.976 116.973 306.4 116.541 305.668C116.109 304.924 115.893 304.084 115.893 303.148C115.893 302.2 116.109 301.36 116.541 300.628C116.973 299.896 117.561 299.326 118.305 298.918C119.049 298.498 119.901 298.288 120.861 298.288C121.809 298.288 122.655 298.498 123.399 298.918C124.155 299.326 124.743 299.896 125.163 300.628C125.595 301.348 125.811 302.188 125.811 303.148C125.811 304.096 125.595 304.936 125.163 305.668C124.743 306.4 124.155 306.976 123.399 307.396C122.655 307.816 121.809 308.026 120.861 308.026ZM120.861 306.514C121.473 306.514 122.019 306.376 122.499 306.1C122.991 305.824 123.375 305.434 123.651 304.93C123.927 304.414 124.065 303.82 124.065 303.148C124.065 302.464 123.927 301.876 123.651 301.384C123.375 300.88 122.991 300.49 122.499 300.214C122.019 299.938 121.473 299.8 120.861 299.8C120.249 299.8 119.703 299.938 119.223 300.214C118.743 300.49 118.359 300.88 118.071 301.384C117.783 301.876 117.639 302.464 117.639 303.148C117.639 303.82 117.783 304.414 118.071 304.93C118.359 305.434 118.743 305.824 119.223 306.1C119.703 306.376 120.249 306.514 120.861 306.514ZM128.291 307.918V298.378H129.947V300.97L129.785 300.322C130.049 299.662 130.493 299.158 131.117 298.81C131.741 298.462 132.509 298.288 133.421 298.288V299.962C133.349 299.95 133.277 299.944 133.205 299.944C133.145 299.944 133.085 299.944 133.025 299.944C132.101 299.944 131.369 300.22 130.829 300.772C130.289 301.324 130.019 302.122 130.019 303.166V307.918H128.291ZM139.303 308.026C138.343 308.026 137.599 307.768 137.071 307.252C136.543 306.736 136.279 305.998 136.279 305.038V296.29H138.007V304.966C138.007 305.482 138.133 305.878 138.385 306.154C138.649 306.43 139.021 306.568 139.501 306.568C140.041 306.568 140.491 306.418 140.851 306.118L141.391 307.36C141.127 307.588 140.809 307.756 140.437 307.864C140.077 307.972 139.699 308.026 139.303 308.026ZM134.659 299.8V298.378H140.743V299.8H134.659ZM143.57 307.918V298.378H145.298V307.918H143.57ZM144.434 296.542C144.098 296.542 143.816 296.434 143.588 296.218C143.372 296.002 143.264 295.738 143.264 295.426C143.264 295.102 143.372 294.832 143.588 294.616C143.816 294.4 144.098 294.292 144.434 294.292C144.77 294.292 145.046 294.4 145.262 294.616C145.49 294.82 145.604 295.078 145.604 295.39C145.604 295.714 145.496 295.99 145.28 296.218C145.064 296.434 144.782 296.542 144.434 296.542ZM151.424 308.026C150.632 308.026 149.876 307.918 149.156 307.702C148.448 307.486 147.89 307.222 147.482 306.91L148.202 305.542C148.61 305.818 149.114 306.052 149.714 306.244C150.314 306.436 150.926 306.532 151.55 306.532C152.354 306.532 152.93 306.418 153.278 306.19C153.638 305.962 153.818 305.644 153.818 305.236C153.818 304.936 153.71 304.702 153.494 304.534C153.278 304.366 152.99 304.24 152.63 304.156C152.282 304.072 151.892 304 151.46 303.94C151.028 303.868 150.596 303.784 150.164 303.688C149.732 303.58 149.336 303.436 148.976 303.256C148.616 303.064 148.328 302.806 148.112 302.482C147.896 302.146 147.788 301.702 147.788 301.15C147.788 300.574 147.95 300.07 148.274 299.638C148.598 299.206 149.054 298.876 149.642 298.648C150.242 298.408 150.95 298.288 151.766 298.288C152.39 298.288 153.02 298.366 153.656 298.522C154.304 298.666 154.832 298.876 155.24 299.152L154.502 300.52C154.07 300.232 153.62 300.034 153.152 299.926C152.684 299.818 152.216 299.764 151.748 299.764C150.992 299.764 150.428 299.89 150.056 300.142C149.684 300.382 149.498 300.694 149.498 301.078C149.498 301.402 149.606 301.654 149.822 301.834C150.05 302.002 150.338 302.134 150.686 302.23C151.046 302.326 151.442 302.41 151.874 302.482C152.306 302.542 152.738 302.626 153.17 302.734C153.602 302.83 153.992 302.968 154.34 303.148C154.7 303.328 154.988 303.58 155.204 303.904C155.432 304.228 155.546 304.66 155.546 305.2C155.546 305.776 155.378 306.274 155.042 306.694C154.706 307.114 154.232 307.444 153.62 307.684C153.008 307.912 152.276 308.026 151.424 308.026ZM160.531 308.026C159.739 308.026 158.983 307.918 158.263 307.702C157.555 307.486 156.997 307.222 156.589 306.91L157.309 305.542C157.717 305.818 158.221 306.052 158.821 306.244C159.421 306.436 160.033 306.532 160.657 306.532C161.461 306.532 162.037 306.418 162.385 306.19C162.745 305.962 162.925 305.644 162.925 305.236C162.925 304.936 162.817 304.702 162.601 304.534C162.385 304.366 162.097 304.24 161.737 304.156C161.389 304.072 160.999 304 160.567 303.94C160.135 303.868 159.703 303.784 159.271 303.688C158.839 303.58 158.443 303.436 158.083 303.256C157.723 303.064 157.435 302.806 157.219 302.482C157.003 302.146 156.895 301.702 156.895 301.15C156.895 300.574 157.057 300.07 157.381 299.638C157.705 299.206 158.161 298.876 158.749 298.648C159.349 298.408 160.057 298.288 160.873 298.288C161.497 298.288 162.127 298.366 162.763 298.522C163.411 298.666 163.939 298.876 164.347 299.152L163.609 300.52C163.177 300.232 162.727 300.034 162.259 299.926C161.791 299.818 161.323 299.764 160.855 299.764C160.099 299.764 159.535 299.89 159.163 300.142C158.791 300.382 158.605 300.694 158.605 301.078C158.605 301.402 158.713 301.654 158.929 301.834C159.157 302.002 159.445 302.134 159.793 302.23C160.153 302.326 160.549 302.41 160.981 302.482C161.413 302.542 161.845 302.626 162.277 302.734C162.709 302.83 163.099 302.968 163.447 303.148C163.807 303.328 164.095 303.58 164.311 303.904C164.539 304.228 164.653 304.66 164.653 305.2C164.653 305.776 164.485 306.274 164.149 306.694C163.813 307.114 163.339 307.444 162.727 307.684C162.115 307.912 161.383 308.026 160.531 308.026ZM171.151 308.026C170.131 308.026 169.231 307.816 168.451 307.396C167.683 306.976 167.083 306.4 166.651 305.668C166.231 304.936 166.021 304.096 166.021 303.148C166.021 302.2 166.225 301.36 166.633 300.628C167.053 299.896 167.623 299.326 168.343 298.918C169.075 298.498 169.897 298.288 170.809 298.288C171.733 298.288 172.549 298.492 173.257 298.9C173.965 299.308 174.517 299.884 174.913 300.628C175.321 301.36 175.525 302.218 175.525 303.202C175.525 303.274 175.519 303.358 175.507 303.454C175.507 303.55 175.501 303.64 175.489 303.724H167.371V302.482H174.589L173.887 302.914C173.899 302.302 173.773 301.756 173.509 301.276C173.245 300.796 172.879 300.424 172.411 300.16C171.955 299.884 171.421 299.746 170.809 299.746C170.209 299.746 169.675 299.884 169.207 300.16C168.739 300.424 168.373 300.802 168.109 301.294C167.845 301.774 167.713 302.326 167.713 302.95V303.238C167.713 303.874 167.857 304.444 168.145 304.948C168.445 305.44 168.859 305.824 169.387 306.1C169.915 306.376 170.521 306.514 171.205 306.514C171.769 306.514 172.279 306.418 172.735 306.226C173.203 306.034 173.611 305.746 173.959 305.362L174.913 306.478C174.481 306.982 173.941 307.366 173.293 307.63C172.657 307.894 171.943 308.026 171.151 308.026ZM189.948 298.288C190.716 298.288 191.394 298.438 191.982 298.738C192.57 299.038 193.026 299.494 193.35 300.106C193.686 300.718 193.854 301.492 193.854 302.428V307.918H192.126V302.626C192.126 301.702 191.91 301.006 191.478 300.538C191.046 300.07 190.44 299.836 189.66 299.836C189.084 299.836 188.58 299.956 188.148 300.196C187.716 300.436 187.38 300.79 187.14 301.258C186.912 301.726 186.798 302.308 186.798 303.004V307.918H185.07V302.626C185.07 301.702 184.854 301.006 184.422 300.538C184.002 300.07 183.396 299.836 182.604 299.836C182.04 299.836 181.542 299.956 181.11 300.196C180.678 300.436 180.342 300.79 180.102 301.258C179.862 301.726 179.742 302.308 179.742 303.004V307.918H178.014V298.378H179.67V300.916L179.4 300.268C179.7 299.644 180.162 299.158 180.786 298.81C181.41 298.462 182.136 298.288 182.964 298.288C183.876 298.288 184.662 298.516 185.322 298.972C185.982 299.416 186.414 300.094 186.618 301.006L185.916 300.718C186.204 299.986 186.708 299.398 187.428 298.954C188.148 298.51 188.988 298.288 189.948 298.288ZM201.372 308.026C200.352 308.026 199.452 307.816 198.672 307.396C197.904 306.976 197.304 306.4 196.872 305.668C196.452 304.936 196.242 304.096 196.242 303.148C196.242 302.2 196.446 301.36 196.854 300.628C197.274 299.896 197.844 299.326 198.564 298.918C199.296 298.498 200.118 298.288 201.03 298.288C201.954 298.288 202.77 298.492 203.478 298.9C204.186 299.308 204.738 299.884 205.134 300.628C205.542 301.36 205.746 302.218 205.746 303.202C205.746 303.274 205.74 303.358 205.728 303.454C205.728 303.55 205.722 303.64 205.71 303.724H197.592V302.482H204.81L204.108 302.914C204.12 302.302 203.994 301.756 203.73 301.276C203.466 300.796 203.1 300.424 202.632 300.16C202.176 299.884 201.642 299.746 201.03 299.746C200.43 299.746 199.896 299.884 199.428 300.16C198.96 300.424 198.594 300.802 198.33 301.294C198.066 301.774 197.934 302.326 197.934 302.95V303.238C197.934 303.874 198.078 304.444 198.366 304.948C198.666 305.44 199.08 305.824 199.608 306.1C200.136 306.376 200.742 306.514 201.426 306.514C201.99 306.514 202.5 306.418 202.956 306.226C203.424 306.034 203.832 305.746 204.18 305.362L205.134 306.478C204.702 306.982 204.162 307.366 203.514 307.63C202.878 307.894 202.164 308.026 201.372 308.026ZM213.329 298.288C214.109 298.288 214.793 298.438 215.381 298.738C215.981 299.038 216.449 299.494 216.785 300.106C217.121 300.718 217.289 301.492 217.289 302.428V307.918H215.561V302.626C215.561 301.702 215.333 301.006 214.877 300.538C214.433 300.07 213.803 299.836 212.987 299.836C212.375 299.836 211.841 299.956 211.385 300.196C210.929 300.436 210.575 300.79 210.323 301.258C210.083 301.726 209.963 302.308 209.963 303.004V307.918H208.235V298.378H209.891V300.952L209.621 300.268C209.933 299.644 210.413 299.158 211.061 298.81C211.709 298.462 212.465 298.288 213.329 298.288ZM223.853 308.026C222.893 308.026 222.149 307.768 221.621 307.252C221.093 306.736 220.829 305.998 220.829 305.038V296.29H222.557V304.966C222.557 305.482 222.683 305.878 222.935 306.154C223.199 306.43 223.571 306.568 224.051 306.568C224.591 306.568 225.041 306.418 225.401 306.118L225.941 307.36C225.677 307.588 225.359 307.756 224.987 307.864C224.627 307.972 224.249 308.026 223.853 308.026ZM219.209 299.8V298.378H225.293V299.8H219.209ZM238.966 307.918V305.902L238.876 305.524V302.086C238.876 301.354 238.66 300.79 238.228 300.394C237.808 299.986 237.172 299.782 236.32 299.782C235.756 299.782 235.204 299.878 234.664 300.07C234.124 300.25 233.668 300.496 233.296 300.808L232.576 299.512C233.068 299.116 233.656 298.816 234.34 298.612C235.036 298.396 235.762 298.288 236.518 298.288C237.826 298.288 238.834 298.606 239.542 299.242C240.25 299.878 240.604 300.85 240.604 302.158V307.918H238.966ZM235.834 308.026C235.126 308.026 234.502 307.906 233.962 307.666C233.434 307.426 233.026 307.096 232.738 306.676C232.45 306.244 232.306 305.758 232.306 305.218C232.306 304.702 232.426 304.234 232.666 303.814C232.918 303.394 233.32 303.058 233.872 302.806C234.436 302.554 235.192 302.428 236.14 302.428H239.164V303.67H236.212C235.348 303.67 234.766 303.814 234.466 304.102C234.166 304.39 234.016 304.738 234.016 305.146C234.016 305.614 234.202 305.992 234.574 306.28C234.946 306.556 235.462 306.694 236.122 306.694C236.77 306.694 237.334 306.55 237.814 306.262C238.306 305.974 238.66 305.554 238.876 305.002L239.218 306.19C238.99 306.754 238.588 307.204 238.012 307.54C237.436 307.864 236.71 308.026 235.834 308.026ZM248.05 308.026C247.078 308.026 246.208 307.816 245.44 307.396C244.684 306.976 244.09 306.4 243.658 305.668C243.226 304.936 243.01 304.096 243.01 303.148C243.01 302.2 243.226 301.36 243.658 300.628C244.09 299.896 244.684 299.326 245.44 298.918C246.208 298.498 247.078 298.288 248.05 298.288C248.914 298.288 249.682 298.462 250.354 298.81C251.038 299.146 251.566 299.65 251.938 300.322L250.624 301.168C250.312 300.7 249.928 300.358 249.472 300.142C249.028 299.914 248.548 299.8 248.032 299.8C247.408 299.8 246.85 299.938 246.358 300.214C245.866 300.49 245.476 300.88 245.188 301.384C244.9 301.876 244.756 302.464 244.756 303.148C244.756 303.832 244.9 304.426 245.188 304.93C245.476 305.434 245.866 305.824 246.358 306.1C246.85 306.376 247.408 306.514 248.032 306.514C248.548 306.514 249.028 306.406 249.472 306.19C249.928 305.962 250.312 305.614 250.624 305.146L251.938 305.974C251.566 306.634 251.038 307.144 250.354 307.504C249.682 307.852 248.914 308.026 248.05 308.026ZM257.665 308.026C256.705 308.026 255.961 307.768 255.433 307.252C254.905 306.736 254.641 305.998 254.641 305.038V296.29H256.369V304.966C256.369 305.482 256.495 305.878 256.747 306.154C257.011 306.43 257.383 306.568 257.863 306.568C258.403 306.568 258.853 306.418 259.213 306.118L259.753 307.36C259.489 307.588 259.171 307.756 258.799 307.864C258.439 307.972 258.061 308.026 257.665 308.026ZM253.021 299.8V298.378H259.105V299.8H253.021ZM265.701 308.026C264.741 308.026 263.889 307.816 263.145 307.396C262.401 306.976 261.813 306.4 261.381 305.668C260.949 304.924 260.733 304.084 260.733 303.148C260.733 302.2 260.949 301.36 261.381 300.628C261.813 299.896 262.401 299.326 263.145 298.918C263.889 298.498 264.741 298.288 265.701 298.288C266.649 298.288 267.495 298.498 268.239 298.918C268.995 299.326 269.583 299.896 270.003 300.628C270.435 301.348 270.651 302.188 270.651 303.148C270.651 304.096 270.435 304.936 270.003 305.668C269.583 306.4 268.995 306.976 268.239 307.396C267.495 307.816 266.649 308.026 265.701 308.026ZM265.701 306.514C266.313 306.514 266.859 306.376 267.339 306.1C267.831 305.824 268.215 305.434 268.491 304.93C268.767 304.414 268.905 303.82 268.905 303.148C268.905 302.464 268.767 301.876 268.491 301.384C268.215 300.88 267.831 300.49 267.339 300.214C266.859 299.938 266.313 299.8 265.701 299.8C265.089 299.8 264.543 299.938 264.063 300.214C263.583 300.49 263.199 300.88 262.911 301.384C262.623 301.876 262.479 302.464 262.479 303.148C262.479 303.82 262.623 304.414 262.911 304.93C263.199 305.434 263.583 305.824 264.063 306.1C264.543 306.376 265.089 306.514 265.701 306.514ZM273.131 307.918V298.378H274.787V300.97L274.625 300.322C274.889 299.662 275.333 299.158 275.957 298.81C276.581 298.462 277.349 298.288 278.261 298.288V299.962C278.189 299.95 278.117 299.944 278.045 299.944C277.985 299.944 277.925 299.944 277.865 299.944C276.941 299.944 276.209 300.22 275.669 300.772C275.129 301.324 274.859 302.122 274.859 303.166V307.918H273.131ZM283.322 308.026C282.53 308.026 281.774 307.918 281.054 307.702C280.346 307.486 279.788 307.222 279.38 306.91L280.1 305.542C280.508 305.818 281.012 306.052 281.612 306.244C282.212 306.436 282.824 306.532 283.448 306.532C284.252 306.532 284.828 306.418 285.176 306.19C285.536 305.962 285.716 305.644 285.716 305.236C285.716 304.936 285.608 304.702 285.392 304.534C285.176 304.366 284.888 304.24 284.528 304.156C284.18 304.072 283.79 304 283.358 303.94C282.926 303.868 282.494 303.784 282.062 303.688C281.63 303.58 281.234 303.436 280.874 303.256C280.514 303.064 280.226 302.806 280.01 302.482C279.794 302.146 279.686 301.702 279.686 301.15C279.686 300.574 279.848 300.07 280.172 299.638C280.496 299.206 280.952 298.876 281.54 298.648C282.14 298.408 282.848 298.288 283.664 298.288C284.288 298.288 284.918 298.366 285.554 298.522C286.202 298.666 286.73 298.876 287.138 299.152L286.4 300.52C285.968 300.232 285.518 300.034 285.05 299.926C284.582 299.818 284.114 299.764 283.646 299.764C282.89 299.764 282.326 299.89 281.954 300.142C281.582 300.382 281.396 300.694 281.396 301.078C281.396 301.402 281.504 301.654 281.72 301.834C281.948 302.002 282.236 302.134 282.584 302.23C282.944 302.326 283.34 302.41 283.772 302.482C284.204 302.542 284.636 302.626 285.068 302.734C285.5 302.83 285.89 302.968 286.238 303.148C286.598 303.328 286.886 303.58 287.102 303.904C287.33 304.228 287.444 304.66 287.444 305.2C287.444 305.776 287.276 306.274 286.94 306.694C286.604 307.114 286.13 307.444 285.518 307.684C284.906 307.912 284.174 308.026 283.322 308.026Z" fill="#454E5D"/>
<path d="M84.8895 338.585H90.4395V339.545H84.8895V338.585ZM85.0095 344H83.8995V333.5H91.0995V334.46H85.0095V344ZM93.2416 344V332.87H94.3066V344H93.2416ZM102.28 344V342.26L102.235 341.975V339.065C102.235 338.395 102.045 337.88 101.665 337.52C101.295 337.16 100.74 336.98 100 336.98C99.49 336.98 99.005 337.065 98.545 337.235C98.085 337.405 97.695 337.63 97.375 337.91L96.895 337.115C97.295 336.775 97.775 336.515 98.335 336.335C98.895 336.145 99.485 336.05 100.105 336.05C101.125 336.05 101.91 336.305 102.46 336.815C103.02 337.315 103.3 338.08 103.3 339.11V344H102.28ZM99.565 344.075C98.975 344.075 98.46 343.98 98.02 343.79C97.59 343.59 97.26 343.32 97.03 342.98C96.8 342.63 96.685 342.23 96.685 341.78C96.685 341.37 96.78 341 96.97 340.67C97.17 340.33 97.49 340.06 97.93 339.86C98.38 339.65 98.98 339.545 99.73 339.545H102.445V340.34H99.76C99 340.34 98.47 340.475 98.17 340.745C97.88 341.015 97.735 341.35 97.735 341.75C97.735 342.2 97.91 342.56 98.26 342.83C98.61 343.1 99.1 343.235 99.73 343.235C100.33 343.235 100.845 343.1 101.275 342.83C101.715 342.55 102.035 342.15 102.235 341.63L102.475 342.365C102.275 342.885 101.925 343.3 101.425 343.61C100.935 343.92 100.315 344.075 99.565 344.075ZM108.758 344.075C108.018 344.075 107.448 343.875 107.048 343.475C106.648 343.075 106.448 342.51 106.448 341.78V334.385H107.513V341.72C107.513 342.18 107.628 342.535 107.858 342.785C108.098 343.035 108.438 343.16 108.878 343.16C109.348 343.16 109.738 343.025 110.048 342.755L110.423 343.52C110.213 343.71 109.958 343.85 109.658 343.94C109.368 344.03 109.068 344.075 108.758 344.075ZM105.038 337.01V336.125H109.913V337.01H105.038ZM111.938 346.19L112.598 343.415L112.718 344.06C112.488 344.06 112.293 343.985 112.133 343.835C111.983 343.685 111.908 343.49 111.908 343.25C111.908 343.01 111.983 342.815 112.133 342.665C112.293 342.515 112.483 342.44 112.703 342.44C112.933 342.44 113.118 342.52 113.258 342.68C113.408 342.84 113.483 343.03 113.483 343.25C113.483 343.33 113.478 343.41 113.468 343.49C113.458 343.57 113.438 343.66 113.408 343.76C113.378 343.86 113.338 343.98 113.288 344.12L112.658 346.19H111.938ZM122.102 344V334.46H118.412V333.5H126.902V334.46H123.212V344H122.102ZM128.526 344V336.125H129.591V344H128.526ZM129.066 334.385C128.846 334.385 128.661 334.31 128.511 334.16C128.361 334.01 128.286 333.83 128.286 333.62C128.286 333.41 128.361 333.235 128.511 333.095C128.661 332.945 128.846 332.87 129.066 332.87C129.286 332.87 129.471 332.94 129.621 333.08C129.771 333.22 129.846 333.395 129.846 333.605C129.846 333.825 129.771 334.01 129.621 334.16C129.481 334.31 129.296 334.385 129.066 334.385ZM132.629 344V336.125H133.649V338.27L133.544 337.895C133.764 337.295 134.134 336.84 134.654 336.53C135.174 336.21 135.819 336.05 136.589 336.05V337.085C136.549 337.085 136.509 337.085 136.469 337.085C136.429 337.075 136.389 337.07 136.349 337.07C135.519 337.07 134.869 337.325 134.399 337.835C133.929 338.335 133.694 339.05 133.694 339.98V344H132.629ZM141.879 344.075C141.059 344.075 140.339 343.905 139.719 343.565C139.099 343.215 138.614 342.74 138.264 342.14C137.914 341.53 137.739 340.835 137.739 340.055C137.739 339.275 137.904 338.585 138.234 337.985C138.574 337.385 139.034 336.915 139.614 336.575C140.204 336.225 140.864 336.05 141.594 336.05C142.334 336.05 142.989 336.22 143.559 336.56C144.139 336.89 144.594 337.36 144.924 337.97C145.254 338.57 145.419 339.265 145.419 340.055C145.419 340.105 145.414 340.16 145.404 340.22C145.404 340.27 145.404 340.325 145.404 340.385H138.549V339.59H144.834L144.414 339.905C144.414 339.335 144.289 338.83 144.039 338.39C143.799 337.94 143.469 337.59 143.049 337.34C142.629 337.09 142.144 336.965 141.594 336.965C141.054 336.965 140.569 337.09 140.139 337.34C139.709 337.59 139.374 337.94 139.134 338.39C138.894 338.84 138.774 339.355 138.774 339.935V340.1C138.774 340.7 138.904 341.23 139.164 341.69C139.434 342.14 139.804 342.495 140.274 342.755C140.754 343.005 141.299 343.13 141.909 343.13C142.389 343.13 142.834 343.045 143.244 342.875C143.664 342.705 144.024 342.445 144.324 342.095L144.924 342.785C144.574 343.205 144.134 343.525 143.604 343.745C143.084 343.965 142.509 344.075 141.879 344.075Z" fill="#454E5D"/>
<path d="M1256.06 319.02L1256.98 319.94L1247.92 329H1247V328.08L1256.06 319.02ZM1259.66 313C1259.41 313 1259.15 313.1 1258.96 313.29L1257.13 315.12L1260.88 318.87L1262.71 317.04C1263.1 316.65 1263.1 316.02 1262.71 315.63L1260.37 313.29C1260.17 313.09 1259.92 313 1259.66 313ZM1256.06 316.19L1245 327.25V331H1248.75L1259.81 319.94L1256.06 316.19Z" fill="#1F2A3B"/>
<path d="M1298 319V329H1290V319H1298ZM1296.5 313H1291.5L1290.5 314H1287V316H1301V314H1297.5L1296.5 313ZM1300 317H1288V329C1288 330.1 1288.9 331 1290 331H1298C1299.1 331 1300 330.1 1300 329V317Z" fill="#1F2A3B"/>
</g>
<defs>
<filter id="filter0_d_24_4948" x="51" y="143" width="1299" height="108" filterUnits="userSpaceOnUse" color-interpolation-filters="sRGB">
<feFlood flood-opacity="0" result="BackgroundImageFix"/>
<feColorMatrix in="SourceAlpha" type="matrix" values="0 0 0 0 0 0 0 0 0 0 0 0 0 0 0 0 0 0 127 0" result="hardAlpha"/>
<feOffset dy="4"/>
<feGaussianBlur stdDeviation="2"/>
<feComposite in2="hardAlpha" operator="out"/>
<feColorMatrix type="matrix" values="0 0 0 0 0 0 0 0 0 0 0 0 0 0 0 0 0 0 0.25 0"/>
<feBlend mode="normal" in2="BackgroundImageFix" result="effect1_dropShadow_24_4948"/>
<feBlend mode="normal" in="SourceGraphic" in2="effect1_dropShadow_24_4948" result="shape"/>
</filter>
<filter id="filter1_d_24_4948" x="51" y="272" width="1299" height="108" filterUnits="userSpaceOnUse" color-interpolation-filters="sRGB">
<feFlood flood-opacity="0" result="BackgroundImageFix"/>
<feColorMatrix in="SourceAlpha" type="matrix" values="0 0 0 0 0 0 0 0 0 0 0 0 0 0 0 0 0 0 127 0" result="hardAlpha"/>
<feOffset dy="4"/>
<feGaussianBlur stdDeviation="2"/>
<feComposite in2="hardAlpha" operator="out"/>
<feColorMatrix type="matrix" values="0 0 0 0 0 0 0 0 0 0 0 0 0 0 0 0 0 0 0.25 0"/>
<feBlend mode="normal" in2="BackgroundImageFix" result="effect1_dropShadow_24_4948"/>
<feBlend mode="normal" in="SourceGraphic" in2="effect1_dropShadow_24_4948" result="shape"/>
</filter>
</defs>
</svg>
