<svg width="1395" height="351" viewBox="0 0 1395 351" fill="none" xmlns="http://www.w3.org/2000/svg">
<rect x="0.5" y="0.5" width="1394" height="350" rx="3.5" fill="white" stroke="#D3D5DC"/>
<path d="M104.742 67V53H111.102C112.622 53 113.962 53.2933 115.122 53.88C116.282 54.4533 117.189 55.26 117.842 56.3C118.495 57.34 118.822 58.5733 118.822 60C118.822 61.4133 118.495 62.6467 117.842 63.7C117.189 64.74 116.282 65.5533 115.122 66.14C113.962 66.7133 112.622 67 111.102 67H104.742ZM107.982 64.34H110.942C111.875 64.34 112.682 64.1667 113.362 63.82C114.055 63.46 114.589 62.9533 114.962 62.3C115.349 61.6467 115.542 60.88 115.542 60C115.542 59.1067 115.349 58.34 114.962 57.7C114.589 57.0467 114.055 56.5467 113.362 56.2C112.682 55.84 111.875 55.66 110.942 55.66H107.982V64.34ZM126.065 67.16C124.919 67.16 123.899 66.92 123.005 66.44C122.125 65.96 121.425 65.3067 120.905 64.48C120.399 63.64 120.145 62.6867 120.145 61.62C120.145 60.54 120.399 59.5867 120.905 58.76C121.425 57.92 122.125 57.2667 123.005 56.8C123.899 56.32 124.919 56.08 126.065 56.08C127.199 56.08 128.212 56.32 129.105 56.8C129.999 57.2667 130.699 57.9133 131.205 58.74C131.712 59.5667 131.965 60.5267 131.965 61.62C131.965 62.6867 131.712 63.64 131.205 64.48C130.699 65.3067 129.999 65.96 129.105 66.44C128.212 66.92 127.199 67.16 126.065 67.16ZM126.065 64.6C126.585 64.6 127.052 64.48 127.465 64.24C127.879 64 128.205 63.66 128.445 63.22C128.685 62.7667 128.805 62.2333 128.805 61.62C128.805 60.9933 128.685 60.46 128.445 60.02C128.205 59.58 127.879 59.24 127.465 59C127.052 58.76 126.585 58.64 126.065 58.64C125.545 58.64 125.079 58.76 124.665 59C124.252 59.24 123.919 59.58 123.665 60.02C123.425 60.46 123.305 60.9933 123.305 61.62C123.305 62.2333 123.425 62.7667 123.665 63.22C123.919 63.66 124.252 64 124.665 64.24C125.079 64.48 125.545 64.6 126.065 64.6ZM139.151 67.16C137.991 67.16 136.958 66.9267 136.051 66.46C135.144 65.98 134.431 65.32 133.911 64.48C133.404 63.64 133.151 62.6867 133.151 61.62C133.151 60.54 133.404 59.5867 133.911 58.76C134.431 57.92 135.144 57.2667 136.051 56.8C136.958 56.32 137.991 56.08 139.151 56.08C140.284 56.08 141.271 56.32 142.111 56.8C142.951 57.2667 143.571 57.94 143.971 58.82L141.551 60.12C141.271 59.6133 140.918 59.24 140.491 59C140.078 58.76 139.624 58.64 139.131 58.64C138.598 58.64 138.118 58.76 137.691 59C137.264 59.24 136.924 59.58 136.671 60.02C136.431 60.46 136.311 60.9933 136.311 61.62C136.311 62.2467 136.431 62.78 136.671 63.22C136.924 63.66 137.264 64 137.691 64.24C138.118 64.48 138.598 64.6 139.131 64.6C139.624 64.6 140.078 64.4867 140.491 64.26C140.918 64.02 141.271 63.64 141.551 63.12L143.971 64.44C143.571 65.3067 142.951 65.98 142.111 66.46C141.271 66.9267 140.284 67.16 139.151 67.16ZM150.207 67.16C149.314 67.16 148.514 66.9867 147.807 66.64C147.114 66.2933 146.574 65.7667 146.187 65.06C145.801 64.34 145.607 63.4267 145.607 62.32V56.24H148.727V61.86C148.727 62.7533 148.914 63.4133 149.287 63.84C149.674 64.2533 150.214 64.46 150.907 64.46C151.387 64.46 151.814 64.36 152.187 64.16C152.561 63.9467 152.854 63.6267 153.067 63.2C153.281 62.76 153.387 62.2133 153.387 61.56V56.24H156.507V67H153.547V64.04L154.087 64.9C153.727 65.6467 153.194 66.2133 152.487 66.6C151.794 66.9733 151.034 67.16 150.207 67.16ZM173.078 56.08C173.931 56.08 174.684 56.2533 175.338 56.6C176.004 56.9333 176.524 57.4533 176.898 58.16C177.284 58.8533 177.478 59.7467 177.478 60.84V67H174.358V61.32C174.358 60.4533 174.178 59.8133 173.818 59.4C173.458 58.9867 172.951 58.78 172.298 58.78C171.844 58.78 171.438 58.8867 171.078 59.1C170.718 59.3 170.438 59.6067 170.238 60.02C170.038 60.4333 169.938 60.96 169.938 61.6V67H166.818V61.32C166.818 60.4533 166.638 59.8133 166.278 59.4C165.931 58.9867 165.431 58.78 164.778 58.78C164.324 58.78 163.918 58.8867 163.558 59.1C163.198 59.3 162.918 59.6067 162.718 60.02C162.518 60.4333 162.418 60.96 162.418 61.6V67H159.298V56.24H162.278V59.18L161.718 58.32C162.091 57.5867 162.618 57.0333 163.298 56.66C163.991 56.2733 164.778 56.08 165.658 56.08C166.644 56.08 167.504 56.3333 168.238 56.84C168.984 57.3333 169.478 58.0933 169.718 59.12L168.618 58.82C168.978 57.98 169.551 57.3133 170.338 56.82C171.138 56.3267 172.051 56.08 173.078 56.08ZM185.593 67.16C184.366 67.16 183.286 66.92 182.353 66.44C181.433 65.96 180.719 65.3067 180.213 64.48C179.706 63.64 179.453 62.6867 179.453 61.62C179.453 60.54 179.699 59.5867 180.193 58.76C180.699 57.92 181.386 57.2667 182.253 56.8C183.119 56.32 184.099 56.08 185.193 56.08C186.246 56.08 187.193 56.3067 188.033 56.76C188.886 57.2 189.559 57.84 190.053 58.68C190.546 59.5067 190.793 60.5 190.793 61.66C190.793 61.78 190.786 61.92 190.773 62.08C190.759 62.2267 190.746 62.3667 190.733 62.5H181.993V60.68H189.092L187.893 61.22C187.893 60.66 187.779 60.1733 187.553 59.76C187.326 59.3467 187.013 59.0267 186.613 58.8C186.213 58.56 185.746 58.44 185.213 58.44C184.679 58.44 184.206 58.56 183.793 58.8C183.393 59.0267 183.079 59.3533 182.853 59.78C182.626 60.1933 182.513 60.6867 182.513 61.26V61.74C182.513 62.3267 182.639 62.8467 182.893 63.3C183.159 63.74 183.526 64.08 183.993 64.32C184.473 64.5467 185.033 64.66 185.673 64.66C186.246 64.66 186.746 64.5733 187.173 64.4C187.613 64.2267 188.013 63.9667 188.373 63.62L190.033 65.42C189.539 65.98 188.919 66.4133 188.173 66.72C187.426 67.0133 186.566 67.16 185.593 67.16ZM199.31 56.08C200.163 56.08 200.923 56.2533 201.59 56.6C202.27 56.9333 202.803 57.4533 203.19 58.16C203.576 58.8533 203.77 59.7467 203.77 60.84V67H200.65V61.32C200.65 60.4533 200.456 59.8133 200.07 59.4C199.696 58.9867 199.163 58.78 198.47 58.78C197.976 58.78 197.53 58.8867 197.13 59.1C196.743 59.3 196.436 59.6133 196.21 60.04C195.996 60.4667 195.89 61.0133 195.89 61.68V67H192.77V56.24H195.75V59.22L195.19 58.32C195.576 57.6 196.13 57.0467 196.85 56.66C197.57 56.2733 198.39 56.08 199.31 56.08ZM210.898 67.16C209.631 67.16 208.644 66.84 207.938 66.2C207.231 65.5467 206.878 64.58 206.878 63.3V53.86H209.998V63.26C209.998 63.7133 210.118 64.0667 210.358 64.32C210.598 64.56 210.924 64.68 211.338 64.68C211.831 64.68 212.251 64.5467 212.598 64.28L213.438 66.48C213.118 66.7067 212.731 66.88 212.278 67C211.838 67.1067 211.378 67.16 210.898 67.16ZM205.218 58.88V56.48H212.678V58.88H205.218ZM218.709 67.16C217.789 67.16 216.903 67.0533 216.049 66.84C215.209 66.6133 214.543 66.3333 214.049 66L215.089 63.76C215.583 64.0667 216.163 64.32 216.829 64.52C217.509 64.7067 218.176 64.8 218.829 64.8C219.549 64.8 220.056 64.7133 220.349 64.54C220.656 64.3667 220.809 64.1267 220.809 63.82C220.809 63.5667 220.689 63.38 220.449 63.26C220.223 63.1267 219.916 63.0267 219.529 62.96C219.143 62.8933 218.716 62.8267 218.249 62.76C217.796 62.6933 217.336 62.6067 216.869 62.5C216.403 62.38 215.976 62.2067 215.589 61.98C215.203 61.7533 214.889 61.4467 214.649 61.06C214.423 60.6733 214.309 60.1733 214.309 59.56C214.309 58.88 214.503 58.28 214.889 57.76C215.289 57.24 215.863 56.8333 216.609 56.54C217.356 56.2333 218.249 56.08 219.289 56.08C220.023 56.08 220.769 56.16 221.529 56.32C222.289 56.48 222.923 56.7133 223.429 57.02L222.389 59.24C221.869 58.9333 221.343 58.7267 220.809 58.62C220.289 58.5 219.783 58.44 219.289 58.44C218.596 58.44 218.089 58.5333 217.769 58.72C217.449 58.9067 217.289 59.1467 217.289 59.44C217.289 59.7067 217.403 59.9067 217.629 60.04C217.869 60.1733 218.183 60.28 218.569 60.36C218.956 60.44 219.376 60.5133 219.829 60.58C220.296 60.6333 220.763 60.72 221.229 60.84C221.696 60.96 222.116 61.1333 222.489 61.36C222.876 61.5733 223.189 61.8733 223.429 62.26C223.669 62.6333 223.789 63.1267 223.789 63.74C223.789 64.4067 223.589 65 223.189 65.52C222.789 66.0267 222.209 66.4267 221.449 66.72C220.703 67.0133 219.789 67.16 218.709 67.16Z" fill="#1F2A3B"/>
<path d="M83 59H70.83L76.42 53.41L75 52L67 60L75 68L76.41 66.59L70.83 61H83V59Z" fill="#DBDCE0"/>
<path d="M1337 110V108H1335V110H1333V112H1335V114H1337V112H1339V110H1337Z" fill="#454E5D"/>
<path d="M1323 113C1325.21 113 1327 111.21 1327 109C1327 106.79 1325.21 105 1323 105C1320.79 105 1319 106.79 1319 109C1319 111.21 1320.79 113 1323 113ZM1323 107C1324.1 107 1325 107.9 1325 109C1325 110.1 1324.1 111 1323 111C1321.9 111 1321 110.1 1321 109C1321 107.9 1321.9 107 1323 107Z" fill="#454E5D"/>
<path d="M1323 114C1320.33 114 1315 115.34 1315 118V121H1331V118C1331 115.34 1325.67 114 1323 114ZM1329 119H1317V118.01C1317.2 117.29 1320.3 116 1323 116C1325.7 116 1328.8 117.29 1329 118V119Z" fill="#454E5D"/>
<path d="M1327.51 105.05C1328.43 106.11 1329 107.49 1329 109C1329 110.51 1328.43 111.89 1327.51 112.95C1329.47 112.7 1331 111.04 1331 109C1331 106.96 1329.47 105.3 1327.51 105.05Z" fill="#454E5D"/>
<path d="M1331.53 114.83C1332.42 115.66 1333 116.7 1333 118V121H1335V118C1335 116.55 1333.41 115.49 1331.53 114.83Z" fill="#454E5D"/>
<path d="M110.17 107L112.17 109H121V119H105V107H110.17ZM111 105H105C103.9 105 103.01 105.9 103.01 107L103 119C103 120.1 103.9 121 105 121H121C122.1 121 123 120.1 123 119V109C123 107.9 122.1 107 121 107H113L111 105Z" fill="#1F2A3B"/>
<path d="M136.24 112.502H142.9V113.654H136.24V112.502ZM136.384 119H135.052V106.4H143.692V107.552H136.384V119ZM146.263 119V109.55H147.541V119H146.263ZM146.911 107.462C146.647 107.462 146.425 107.372 146.245 107.192C146.065 107.012 145.975 106.796 145.975 106.544C145.975 106.292 146.065 106.082 146.245 105.914C146.425 105.734 146.647 105.644 146.911 105.644C147.175 105.644 147.397 105.728 147.577 105.896C147.757 106.064 147.847 106.274 147.847 106.526C147.847 106.79 147.757 107.012 147.577 107.192C147.409 107.372 147.187 107.462 146.911 107.462ZM156.011 109.46C156.779 109.46 157.451 109.61 158.027 109.91C158.615 110.198 159.071 110.642 159.395 111.242C159.731 111.842 159.899 112.598 159.899 113.51V119H158.621V113.636C158.621 112.64 158.369 111.89 157.865 111.386C157.373 110.87 156.677 110.612 155.777 110.612C155.105 110.612 154.517 110.75 154.013 111.026C153.521 111.29 153.137 111.68 152.861 112.196C152.597 112.7 152.465 113.312 152.465 114.032V119H151.187V109.55H152.411V112.142L152.213 111.656C152.513 110.972 152.993 110.438 153.653 110.054C154.313 109.658 155.099 109.46 156.011 109.46ZM169.363 119V116.912L169.309 116.57V113.078C169.309 112.274 169.081 111.656 168.625 111.224C168.181 110.792 167.515 110.576 166.627 110.576C166.015 110.576 165.433 110.678 164.881 110.882C164.329 111.086 163.861 111.356 163.477 111.692L162.901 110.738C163.381 110.33 163.957 110.018 164.629 109.802C165.301 109.574 166.009 109.46 166.753 109.46C167.977 109.46 168.919 109.766 169.579 110.378C170.251 110.978 170.587 111.896 170.587 113.132V119H169.363ZM166.105 119.09C165.397 119.09 164.779 118.976 164.251 118.748C163.735 118.508 163.339 118.184 163.063 117.776C162.787 117.356 162.649 116.876 162.649 116.336C162.649 115.844 162.763 115.4 162.991 115.004C163.231 114.596 163.615 114.272 164.143 114.032C164.683 113.78 165.403 113.654 166.303 113.654H169.561V114.608H166.339C165.427 114.608 164.791 114.77 164.431 115.094C164.083 115.418 163.909 115.82 163.909 116.3C163.909 116.84 164.119 117.272 164.539 117.596C164.959 117.92 165.547 118.082 166.303 118.082C167.023 118.082 167.641 117.92 168.157 117.596C168.685 117.26 169.069 116.78 169.309 116.156L169.597 117.038C169.357 117.662 168.937 118.16 168.337 118.532C167.749 118.904 167.005 119.09 166.105 119.09ZM178.972 109.46C179.74 109.46 180.412 109.61 180.988 109.91C181.576 110.198 182.032 110.642 182.356 111.242C182.692 111.842 182.86 112.598 182.86 113.51V119H181.582V113.636C181.582 112.64 181.33 111.89 180.826 111.386C180.334 110.87 179.638 110.612 178.738 110.612C178.066 110.612 177.478 110.75 176.974 111.026C176.482 111.29 176.098 111.68 175.822 112.196C175.558 112.7 175.426 113.312 175.426 114.032V119H174.148V109.55H175.372V112.142L175.174 111.656C175.474 110.972 175.954 110.438 176.614 110.054C177.274 109.658 178.06 109.46 178.972 109.46ZM190.326 119.09C189.39 119.09 188.55 118.886 187.806 118.478C187.074 118.058 186.498 117.488 186.078 116.768C185.658 116.036 185.448 115.202 185.448 114.266C185.448 113.318 185.658 112.484 186.078 111.764C186.498 111.044 187.074 110.48 187.806 110.072C188.55 109.664 189.39 109.46 190.326 109.46C191.13 109.46 191.856 109.616 192.504 109.928C193.152 110.24 193.662 110.708 194.034 111.332L193.08 111.98C192.756 111.5 192.354 111.146 191.874 110.918C191.394 110.69 190.872 110.576 190.308 110.576C189.636 110.576 189.03 110.732 188.49 111.044C187.95 111.344 187.524 111.77 187.212 112.322C186.9 112.874 186.744 113.522 186.744 114.266C186.744 115.01 186.9 115.658 187.212 116.21C187.524 116.762 187.95 117.194 188.49 117.506C189.03 117.806 189.636 117.956 190.308 117.956C190.872 117.956 191.394 117.842 191.874 117.614C192.354 117.386 192.756 117.038 193.08 116.57L194.034 117.218C193.662 117.83 193.152 118.298 192.504 118.622C191.856 118.934 191.13 119.09 190.326 119.09ZM196.494 119V109.55H197.772V119H196.494ZM197.142 107.462C196.878 107.462 196.656 107.372 196.476 107.192C196.296 107.012 196.206 106.796 196.206 106.544C196.206 106.292 196.296 106.082 196.476 105.914C196.656 105.734 196.878 105.644 197.142 105.644C197.406 105.644 197.628 105.728 197.808 105.896C197.988 106.064 198.078 106.274 198.078 106.526C198.078 106.79 197.988 107.012 197.808 107.192C197.64 107.372 197.418 107.462 197.142 107.462ZM206.242 109.46C207.01 109.46 207.682 109.61 208.258 109.91C208.846 110.198 209.302 110.642 209.626 111.242C209.962 111.842 210.13 112.598 210.13 113.51V119H208.852V113.636C208.852 112.64 208.6 111.89 208.096 111.386C207.604 110.87 206.908 110.612 206.008 110.612C205.336 110.612 204.748 110.75 204.244 111.026C203.752 111.29 203.368 111.68 203.092 112.196C202.828 112.7 202.696 113.312 202.696 114.032V119H201.418V109.55H202.642V112.142L202.444 111.656C202.744 110.972 203.224 110.438 203.884 110.054C204.544 109.658 205.33 109.46 206.242 109.46ZM217.704 122.582C216.84 122.582 216.012 122.456 215.22 122.204C214.428 121.952 213.786 121.592 213.294 121.124L213.942 120.152C214.386 120.548 214.932 120.86 215.58 121.088C216.24 121.328 216.936 121.448 217.668 121.448C218.868 121.448 219.75 121.166 220.314 120.602C220.878 120.05 221.16 119.186 221.16 118.01V115.652L221.34 114.032L221.214 112.412V109.55H222.438V117.848C222.438 119.48 222.036 120.674 221.232 121.43C220.44 122.198 219.264 122.582 217.704 122.582ZM217.47 118.64C216.57 118.64 215.76 118.448 215.04 118.064C214.32 117.668 213.75 117.122 213.33 116.426C212.922 115.73 212.718 114.932 212.718 114.032C212.718 113.132 212.922 112.34 213.33 111.656C213.75 110.96 214.32 110.42 215.04 110.036C215.76 109.652 216.57 109.46 217.47 109.46C218.31 109.46 219.066 109.634 219.738 109.982C220.41 110.33 220.944 110.846 221.34 111.53C221.736 112.214 221.934 113.048 221.934 114.032C221.934 115.016 221.736 115.85 221.34 116.534C220.944 117.218 220.41 117.74 219.738 118.1C219.066 118.46 218.31 118.64 217.47 118.64ZM217.596 117.506C218.292 117.506 218.91 117.362 219.45 117.074C219.99 116.774 220.416 116.366 220.728 115.85C221.04 115.322 221.196 114.716 221.196 114.032C221.196 113.348 221.04 112.748 220.728 112.232C220.416 111.716 219.99 111.314 219.45 111.026C218.91 110.726 218.292 110.576 217.596 110.576C216.912 110.576 216.294 110.726 215.742 111.026C215.202 111.314 214.776 111.716 214.464 112.232C214.164 112.748 214.014 113.348 214.014 114.032C214.014 114.716 214.164 115.322 214.464 115.85C214.776 116.366 215.202 116.774 215.742 117.074C216.294 117.362 216.912 117.506 217.596 117.506ZM231.155 119V106.4H235.871C236.939 106.4 237.857 106.574 238.625 106.922C239.393 107.258 239.981 107.75 240.389 108.398C240.809 109.034 241.019 109.808 241.019 110.72C241.019 111.608 240.809 112.376 240.389 113.024C239.981 113.66 239.393 114.152 238.625 114.5C237.857 114.848 236.939 115.022 235.871 115.022H231.893L232.487 114.392V119H231.155ZM232.487 114.5L231.893 113.852H235.835C237.095 113.852 238.049 113.582 238.697 113.042C239.357 112.49 239.687 111.716 239.687 110.72C239.687 109.712 239.357 108.932 238.697 108.38C238.049 107.828 237.095 107.552 235.835 107.552H231.893L232.487 106.922V114.5ZM243.895 119V105.644H245.173V119H243.895ZM254.741 119V116.912L254.687 116.57V113.078C254.687 112.274 254.459 111.656 254.003 111.224C253.559 110.792 252.893 110.576 252.005 110.576C251.393 110.576 250.811 110.678 250.259 110.882C249.707 111.086 249.239 111.356 248.855 111.692L248.279 110.738C248.759 110.33 249.335 110.018 250.007 109.802C250.679 109.574 251.387 109.46 252.131 109.46C253.355 109.46 254.297 109.766 254.957 110.378C255.629 110.978 255.965 111.896 255.965 113.132V119H254.741ZM251.483 119.09C250.775 119.09 250.157 118.976 249.629 118.748C249.113 118.508 248.717 118.184 248.441 117.776C248.165 117.356 248.027 116.876 248.027 116.336C248.027 115.844 248.141 115.4 248.369 115.004C248.609 114.596 248.993 114.272 249.521 114.032C250.061 113.78 250.781 113.654 251.681 113.654H254.939V114.608H251.717C250.805 114.608 250.169 114.77 249.809 115.094C249.461 115.418 249.287 115.82 249.287 116.3C249.287 116.84 249.497 117.272 249.917 117.596C250.337 117.92 250.925 118.082 251.681 118.082C252.401 118.082 253.019 117.92 253.535 117.596C254.063 117.26 254.447 116.78 254.687 116.156L254.975 117.038C254.735 117.662 254.315 118.16 253.715 118.532C253.127 118.904 252.383 119.09 251.483 119.09ZM264.35 109.46C265.118 109.46 265.79 109.61 266.366 109.91C266.954 110.198 267.41 110.642 267.734 111.242C268.07 111.842 268.238 112.598 268.238 113.51V119H266.96V113.636C266.96 112.64 266.708 111.89 266.204 111.386C265.712 110.87 265.016 110.612 264.116 110.612C263.444 110.612 262.856 110.75 262.352 111.026C261.86 111.29 261.476 111.68 261.2 112.196C260.936 112.7 260.804 113.312 260.804 114.032V119H259.526V109.55H260.75V112.142L260.552 111.656C260.852 110.972 261.332 110.438 261.992 110.054C262.652 109.658 263.438 109.46 264.35 109.46Z" fill="#454E5D"/>
<path d="M1337 154V152H1335V154H1333V156H1335V158H1337V156H1339V154H1337Z" fill="#454E5D"/>
<path d="M1323 157C1325.21 157 1327 155.21 1327 153C1327 150.79 1325.21 149 1323 149C1320.79 149 1319 150.79 1319 153C1319 155.21 1320.79 157 1323 157ZM1323 151C1324.1 151 1325 151.9 1325 153C1325 154.1 1324.1 155 1323 155C1321.9 155 1321 154.1 1321 153C1321 151.9 1321.9 151 1323 151Z" fill="#454E5D"/>
<path d="M1323 158C1320.33 158 1315 159.34 1315 162V165H1331V162C1331 159.34 1325.67 158 1323 158ZM1329 163H1317V162.01C1317.2 161.29 1320.3 160 1323 160C1325.7 160 1328.8 161.29 1329 162V163Z" fill="#454E5D"/>
<path d="M1327.51 149.05C1328.43 150.11 1329 151.49 1329 153C1329 154.51 1328.43 155.89 1327.51 156.95C1329.47 156.7 1331 155.04 1331 153C1331 150.96 1329.47 149.3 1327.51 149.05Z" fill="#454E5D"/>
<path d="M1331.53 158.83C1332.42 159.66 1333 160.7 1333 162V165H1335V162C1335 160.55 1333.41 159.49 1331.53 158.83Z" fill="#454E5D"/>
<path d="M110.17 151L112.17 153H121V163H105V151H110.17ZM111 149H105C103.9 149 103.01 149.9 103.01 151L103 163C103 164.1 103.9 165 105 165H121C122.1 165 123 164.1 123 163V153C123 151.9 122.1 151 121 151H113L111 149Z" fill="#1F2A3B"/>
<path d="M135.052 163V150.4H140.488C141.892 150.4 142.978 150.682 143.746 151.246C144.526 151.81 144.916 152.608 144.916 153.64C144.916 154.324 144.754 154.9 144.43 155.368C144.118 155.836 143.686 156.19 143.134 156.43C142.594 156.67 142 156.79 141.352 156.79L141.658 156.358C142.462 156.358 143.152 156.484 143.728 156.736C144.316 156.976 144.772 157.342 145.096 157.834C145.42 158.314 145.582 158.914 145.582 159.634C145.582 160.702 145.186 161.53 144.394 162.118C143.614 162.706 142.432 163 140.848 163H135.052ZM136.384 161.902H140.83C141.934 161.902 142.78 161.716 143.368 161.344C143.956 160.96 144.25 160.354 144.25 159.526C144.25 158.71 143.956 158.116 143.368 157.744C142.78 157.36 141.934 157.168 140.83 157.168H136.24V156.07H140.398C141.406 156.07 142.186 155.878 142.738 155.494C143.302 155.11 143.584 154.54 143.584 153.784C143.584 153.016 143.302 152.446 142.738 152.074C142.186 151.69 141.406 151.498 140.398 151.498H136.384V161.902ZM152.348 163.09C151.544 163.09 150.842 162.94 150.242 162.64C149.642 162.34 149.174 161.89 148.838 161.29C148.514 160.69 148.352 159.94 148.352 159.04V153.55H149.63V158.896C149.63 159.904 149.876 160.666 150.368 161.182C150.872 161.686 151.574 161.938 152.474 161.938C153.134 161.938 153.704 161.806 154.184 161.542C154.676 161.266 155.048 160.87 155.3 160.354C155.564 159.838 155.696 159.22 155.696 158.5V153.55H156.974V163H155.75V160.408L155.948 160.876C155.648 161.572 155.18 162.118 154.544 162.514C153.92 162.898 153.188 163.09 152.348 163.09ZM164.388 163.09C163.488 163.09 162.678 162.886 161.958 162.478C161.25 162.07 160.692 161.506 160.284 160.786C159.876 160.054 159.672 159.214 159.672 158.266C159.672 157.306 159.876 156.466 160.284 155.746C160.692 155.026 161.25 154.468 161.958 154.072C162.678 153.664 163.488 153.46 164.388 153.46C165.216 153.46 165.954 153.646 166.602 154.018C167.262 154.39 167.784 154.936 168.168 155.656C168.564 156.364 168.762 157.234 168.762 158.266C168.762 159.286 168.57 160.156 168.186 160.876C167.802 161.596 167.28 162.148 166.62 162.532C165.972 162.904 165.228 163.09 164.388 163.09ZM164.478 161.956C165.15 161.956 165.75 161.806 166.278 161.506C166.818 161.194 167.238 160.762 167.538 160.21C167.85 159.646 168.006 158.998 168.006 158.266C168.006 157.522 167.85 156.874 167.538 156.322C167.238 155.77 166.818 155.344 166.278 155.044C165.75 154.732 165.15 154.576 164.478 154.576C163.818 154.576 163.224 154.732 162.696 155.044C162.168 155.344 161.748 155.77 161.436 156.322C161.124 156.874 160.968 157.522 160.968 158.266C160.968 158.998 161.124 159.646 161.436 160.21C161.748 160.762 162.168 161.194 162.696 161.506C163.224 161.806 163.818 161.956 164.478 161.956ZM168.042 163V160.156L168.168 158.248L167.988 156.34V149.644H169.266V163H168.042ZM176.947 166.582C176.083 166.582 175.255 166.456 174.463 166.204C173.671 165.952 173.029 165.592 172.537 165.124L173.185 164.152C173.629 164.548 174.175 164.86 174.823 165.088C175.483 165.328 176.179 165.448 176.911 165.448C178.111 165.448 178.993 165.166 179.557 164.602C180.121 164.05 180.403 163.186 180.403 162.01V159.652L180.583 158.032L180.457 156.412V153.55H181.681V161.848C181.681 163.48 181.279 164.674 180.475 165.43C179.683 166.198 178.507 166.582 176.947 166.582ZM176.713 162.64C175.813 162.64 175.003 162.448 174.283 162.064C173.563 161.668 172.993 161.122 172.573 160.426C172.165 159.73 171.961 158.932 171.961 158.032C171.961 157.132 172.165 156.34 172.573 155.656C172.993 154.96 173.563 154.42 174.283 154.036C175.003 153.652 175.813 153.46 176.713 153.46C177.553 153.46 178.309 153.634 178.981 153.982C179.653 154.33 180.187 154.846 180.583 155.53C180.979 156.214 181.177 157.048 181.177 158.032C181.177 159.016 180.979 159.85 180.583 160.534C180.187 161.218 179.653 161.74 178.981 162.1C178.309 162.46 177.553 162.64 176.713 162.64ZM176.839 161.506C177.535 161.506 178.153 161.362 178.693 161.074C179.233 160.774 179.659 160.366 179.971 159.85C180.283 159.322 180.439 158.716 180.439 158.032C180.439 157.348 180.283 156.748 179.971 156.232C179.659 155.716 179.233 155.314 178.693 155.026C178.153 154.726 177.535 154.576 176.839 154.576C176.155 154.576 175.537 154.726 174.985 155.026C174.445 155.314 174.019 155.716 173.707 156.232C173.407 156.748 173.257 157.348 173.257 158.032C173.257 158.716 173.407 159.322 173.707 159.85C174.019 160.366 174.445 160.774 174.985 161.074C175.537 161.362 176.155 161.506 176.839 161.506ZM189.342 163.09C188.358 163.09 187.494 162.886 186.75 162.478C186.006 162.058 185.424 161.488 185.004 160.768C184.584 160.036 184.374 159.202 184.374 158.266C184.374 157.33 184.572 156.502 184.968 155.782C185.376 155.062 185.928 154.498 186.624 154.09C187.332 153.67 188.124 153.46 189 153.46C189.888 153.46 190.674 153.664 191.358 154.072C192.054 154.468 192.6 155.032 192.996 155.764C193.392 156.484 193.59 157.318 193.59 158.266C193.59 158.326 193.584 158.392 193.572 158.464C193.572 158.524 193.572 158.59 193.572 158.662H185.346V157.708H192.888L192.384 158.086C192.384 157.402 192.234 156.796 191.934 156.268C191.646 155.728 191.25 155.308 190.746 155.008C190.242 154.708 189.66 154.558 189 154.558C188.352 154.558 187.77 154.708 187.254 155.008C186.738 155.308 186.336 155.728 186.048 156.268C185.76 156.808 185.616 157.426 185.616 158.122V158.32C185.616 159.04 185.772 159.676 186.084 160.228C186.408 160.768 186.852 161.194 187.416 161.506C187.992 161.806 188.646 161.956 189.378 161.956C189.954 161.956 190.488 161.854 190.98 161.65C191.484 161.446 191.916 161.134 192.276 160.714L192.996 161.542C192.576 162.046 192.048 162.43 191.412 162.694C190.788 162.958 190.098 163.09 189.342 163.09ZM199.269 163.09C198.381 163.09 197.697 162.85 197.217 162.37C196.737 161.89 196.497 161.212 196.497 160.336V151.462H197.775V160.264C197.775 160.816 197.913 161.242 198.189 161.542C198.477 161.842 198.885 161.992 199.413 161.992C199.977 161.992 200.445 161.83 200.817 161.506L201.267 162.424C201.015 162.652 200.709 162.82 200.349 162.928C200.001 163.036 199.641 163.09 199.269 163.09ZM194.805 154.612V153.55H200.655V154.612H194.805Z" fill="#454E5D"/>
<path d="M1337 198V196H1335V198H1333V200H1335V202H1337V200H1339V198H1337Z" fill="#454E5D"/>
<path d="M1323 201C1325.21 201 1327 199.21 1327 197C1327 194.79 1325.21 193 1323 193C1320.79 193 1319 194.79 1319 197C1319 199.21 1320.79 201 1323 201ZM1323 195C1324.1 195 1325 195.9 1325 197C1325 198.1 1324.1 199 1323 199C1321.9 199 1321 198.1 1321 197C1321 195.9 1321.9 195 1323 195Z" fill="#454E5D"/>
<path d="M1323 202C1320.33 202 1315 203.34 1315 206V209H1331V206C1331 203.34 1325.67 202 1323 202ZM1329 207H1317V206.01C1317.2 205.29 1320.3 204 1323 204C1325.7 204 1328.8 205.29 1329 206V207Z" fill="#454E5D"/>
<path d="M1327.51 193.05C1328.43 194.11 1329 195.49 1329 197C1329 198.51 1328.43 199.89 1327.51 200.95C1329.47 200.7 1331 199.04 1331 197C1331 194.96 1329.47 193.3 1327.51 193.05Z" fill="#454E5D"/>
<path d="M1331.53 202.83C1332.42 203.66 1333 204.7 1333 206V209H1335V206C1335 204.55 1333.41 203.49 1331.53 202.83Z" fill="#454E5D"/>
<path d="M110.17 195L112.17 197H121V207H105V195H110.17ZM111 193H105C103.9 193 103.01 193.9 103.01 195L103 207C103 208.1 103.9 209 105 209H121C122.1 209 123 208.1 123 207V197C123 195.9 122.1 195 121 195H113L111 193Z" fill="#1F2A3B"/>
<path d="M140.524 207.108C139.576 207.108 138.7 206.952 137.896 206.64C137.092 206.316 136.396 205.866 135.808 205.29C135.22 204.714 134.758 204.036 134.422 203.256C134.098 202.476 133.936 201.624 133.936 200.7C133.936 199.776 134.098 198.924 134.422 198.144C134.758 197.364 135.22 196.686 135.808 196.11C136.408 195.534 137.11 195.09 137.914 194.778C138.718 194.454 139.594 194.292 140.542 194.292C141.454 194.292 142.312 194.448 143.116 194.76C143.92 195.06 144.598 195.516 145.15 196.128L144.304 196.974C143.788 196.446 143.218 196.068 142.594 195.84C141.97 195.6 141.298 195.48 140.578 195.48C139.822 195.48 139.12 195.612 138.472 195.876C137.824 196.128 137.26 196.494 136.78 196.974C136.3 197.442 135.922 197.994 135.646 198.63C135.382 199.254 135.25 199.944 135.25 200.7C135.25 201.456 135.382 202.152 135.646 202.788C135.922 203.412 136.3 203.964 136.78 204.444C137.26 204.912 137.824 205.278 138.472 205.542C139.12 205.794 139.822 205.92 140.578 205.92C141.298 205.92 141.97 205.8 142.594 205.56C143.218 205.32 143.788 204.936 144.304 204.408L145.15 205.254C144.598 205.866 143.92 206.328 143.116 206.64C142.312 206.952 141.448 207.108 140.524 207.108ZM151.24 207.09C150.328 207.09 149.506 206.886 148.774 206.478C148.054 206.058 147.484 205.488 147.064 204.768C146.644 204.036 146.434 203.202 146.434 202.266C146.434 201.318 146.644 200.484 147.064 199.764C147.484 199.044 148.054 198.48 148.774 198.072C149.494 197.664 150.316 197.46 151.24 197.46C152.176 197.46 153.004 197.664 153.724 198.072C154.456 198.48 155.026 199.044 155.434 199.764C155.854 200.484 156.064 201.318 156.064 202.266C156.064 203.202 155.854 204.036 155.434 204.768C155.026 205.488 154.456 206.058 153.724 206.478C152.992 206.886 152.164 207.09 151.24 207.09ZM151.24 205.956C151.924 205.956 152.53 205.806 153.058 205.506C153.586 205.194 154 204.762 154.3 204.21C154.612 203.646 154.768 202.998 154.768 202.266C154.768 201.522 154.612 200.874 154.3 200.322C154 199.77 153.586 199.344 153.058 199.044C152.53 198.732 151.93 198.576 151.258 198.576C150.586 198.576 149.986 198.732 149.458 199.044C148.93 199.344 148.51 199.77 148.198 200.322C147.886 200.874 147.73 201.522 147.73 202.266C147.73 202.998 147.886 203.646 148.198 204.21C148.51 204.762 148.93 205.194 149.458 205.506C149.986 205.806 150.58 205.956 151.24 205.956ZM163.587 197.46C164.355 197.46 165.027 197.61 165.603 197.91C166.191 198.198 166.647 198.642 166.971 199.242C167.307 199.842 167.475 200.598 167.475 201.51V207H166.197V201.636C166.197 200.64 165.945 199.89 165.441 199.386C164.949 198.87 164.253 198.612 163.353 198.612C162.681 198.612 162.093 198.75 161.589 199.026C161.097 199.29 160.713 199.68 160.437 200.196C160.173 200.7 160.041 201.312 160.041 202.032V207H158.763V197.55H159.987V200.142L159.789 199.656C160.089 198.972 160.569 198.438 161.229 198.054C161.889 197.658 162.675 197.46 163.587 197.46ZM174.005 207.09C173.117 207.09 172.433 206.85 171.953 206.37C171.473 205.89 171.233 205.212 171.233 204.336V195.462H172.511V204.264C172.511 204.816 172.649 205.242 172.925 205.542C173.213 205.842 173.621 205.992 174.149 205.992C174.713 205.992 175.181 205.83 175.553 205.506L176.003 206.424C175.751 206.652 175.445 206.82 175.085 206.928C174.737 207.036 174.377 207.09 174.005 207.09ZM169.541 198.612V197.55H175.391V198.612H169.541ZM178.419 207V197.55H179.643V200.124L179.517 199.674C179.781 198.954 180.225 198.408 180.849 198.036C181.473 197.652 182.247 197.46 183.171 197.46V198.702C183.123 198.702 183.075 198.702 183.027 198.702C182.979 198.69 182.931 198.684 182.883 198.684C181.887 198.684 181.107 198.99 180.543 199.602C179.979 200.202 179.697 201.06 179.697 202.176V207H178.419ZM190.812 207V204.912L190.758 204.57V201.078C190.758 200.274 190.53 199.656 190.074 199.224C189.63 198.792 188.964 198.576 188.076 198.576C187.464 198.576 186.882 198.678 186.33 198.882C185.778 199.086 185.31 199.356 184.926 199.692L184.35 198.738C184.83 198.33 185.406 198.018 186.078 197.802C186.75 197.574 187.458 197.46 188.202 197.46C189.426 197.46 190.368 197.766 191.028 198.378C191.7 198.978 192.036 199.896 192.036 201.132V207H190.812ZM187.554 207.09C186.846 207.09 186.228 206.976 185.7 206.748C185.184 206.508 184.788 206.184 184.512 205.776C184.236 205.356 184.098 204.876 184.098 204.336C184.098 203.844 184.212 203.4 184.44 203.004C184.68 202.596 185.064 202.272 185.592 202.032C186.132 201.78 186.852 201.654 187.752 201.654H191.01V202.608H187.788C186.876 202.608 186.24 202.77 185.88 203.094C185.532 203.418 185.358 203.82 185.358 204.3C185.358 204.84 185.568 205.272 185.988 205.596C186.408 205.92 186.996 206.082 187.752 206.082C188.472 206.082 189.09 205.92 189.606 205.596C190.134 205.26 190.518 204.78 190.758 204.156L191.046 205.038C190.806 205.662 190.386 206.16 189.786 206.532C189.198 206.904 188.454 207.09 187.554 207.09ZM199.521 207.09C198.585 207.09 197.745 206.886 197.001 206.478C196.269 206.058 195.693 205.488 195.273 204.768C194.853 204.036 194.643 203.202 194.643 202.266C194.643 201.318 194.853 200.484 195.273 199.764C195.693 199.044 196.269 198.48 197.001 198.072C197.745 197.664 198.585 197.46 199.521 197.46C200.325 197.46 201.051 197.616 201.699 197.928C202.347 198.24 202.857 198.708 203.229 199.332L202.275 199.98C201.951 199.5 201.549 199.146 201.069 198.918C200.589 198.69 200.067 198.576 199.503 198.576C198.831 198.576 198.225 198.732 197.685 199.044C197.145 199.344 196.719 199.77 196.407 200.322C196.095 200.874 195.939 201.522 195.939 202.266C195.939 203.01 196.095 203.658 196.407 204.21C196.719 204.762 197.145 205.194 197.685 205.506C198.225 205.806 198.831 205.956 199.503 205.956C200.067 205.956 200.589 205.842 201.069 205.614C201.549 205.386 201.951 205.038 202.275 204.57L203.229 205.218C202.857 205.83 202.347 206.298 201.699 206.622C201.051 206.934 200.325 207.09 199.521 207.09ZM208.923 207.09C208.035 207.09 207.351 206.85 206.871 206.37C206.391 205.89 206.151 205.212 206.151 204.336V195.462H207.429V204.264C207.429 204.816 207.567 205.242 207.843 205.542C208.131 205.842 208.539 205.992 209.067 205.992C209.631 205.992 210.099 205.83 210.471 205.506L210.921 206.424C210.669 206.652 210.363 206.82 210.003 206.928C209.655 207.036 209.295 207.09 208.923 207.09ZM204.459 198.612V197.55H210.309V198.612H204.459ZM215.876 207.09C215.096 207.09 214.358 206.982 213.662 206.766C212.966 206.538 212.42 206.256 212.024 205.92L212.6 204.912C212.984 205.2 213.476 205.452 214.076 205.668C214.676 205.872 215.306 205.974 215.966 205.974C216.866 205.974 217.514 205.836 217.91 205.56C218.306 205.272 218.504 204.894 218.504 204.426C218.504 204.078 218.39 203.808 218.162 203.616C217.946 203.412 217.658 203.262 217.298 203.166C216.938 203.058 216.536 202.968 216.092 202.896C215.648 202.824 215.204 202.74 214.76 202.644C214.328 202.548 213.932 202.41 213.572 202.23C213.212 202.038 212.918 201.78 212.69 201.456C212.474 201.132 212.366 200.7 212.366 200.16C212.366 199.644 212.51 199.182 212.798 198.774C213.086 198.366 213.506 198.048 214.058 197.82C214.622 197.58 215.306 197.46 216.11 197.46C216.722 197.46 217.334 197.544 217.946 197.712C218.558 197.868 219.062 198.078 219.458 198.342L218.9 199.368C218.48 199.08 218.03 198.876 217.55 198.756C217.07 198.624 216.59 198.558 216.11 198.558C215.258 198.558 214.628 198.708 214.22 199.008C213.824 199.296 213.626 199.668 213.626 200.124C213.626 200.484 213.734 200.766 213.95 200.97C214.178 201.174 214.472 201.336 214.832 201.456C215.204 201.564 215.606 201.654 216.038 201.726C216.482 201.798 216.92 201.888 217.352 201.996C217.796 202.092 218.198 202.23 218.558 202.41C218.93 202.578 219.224 202.824 219.44 203.148C219.668 203.46 219.782 203.874 219.782 204.39C219.782 204.942 219.626 205.422 219.314 205.83C219.014 206.226 218.57 206.538 217.982 206.766C217.406 206.982 216.704 207.09 215.876 207.09Z" fill="#454E5D"/>
<path d="M1337 242V240H1335V242H1333V244H1335V246H1337V244H1339V242H1337Z" fill="#454E5D"/>
<path d="M1323 245C1325.21 245 1327 243.21 1327 241C1327 238.79 1325.21 237 1323 237C1320.79 237 1319 238.79 1319 241C1319 243.21 1320.79 245 1323 245ZM1323 239C1324.1 239 1325 239.9 1325 241C1325 242.1 1324.1 243 1323 243C1321.9 243 1321 242.1 1321 241C1321 239.9 1321.9 239 1323 239Z" fill="#454E5D"/>
<path d="M1323 246C1320.33 246 1315 247.34 1315 250V253H1331V250C1331 247.34 1325.67 246 1323 246ZM1329 251H1317V250.01C1317.2 249.29 1320.3 248 1323 248C1325.7 248 1328.8 249.29 1329 250V251Z" fill="#454E5D"/>
<path d="M1327.51 237.05C1328.43 238.11 1329 239.49 1329 241C1329 242.51 1328.43 243.89 1327.51 244.95C1329.47 244.7 1331 243.04 1331 241C1331 238.96 1329.47 237.3 1327.51 237.05Z" fill="#454E5D"/>
<path d="M1331.53 246.83C1332.42 247.66 1333 248.7 1333 250V253H1335V250C1335 248.55 1333.41 247.49 1331.53 246.83Z" fill="#454E5D"/>
<path d="M110.17 239L112.17 241H121V251H105V239H110.17ZM111 237H105C103.9 237 103.01 237.9 103.01 239L103 251C103 252.1 103.9 253 105 253H121C122.1 253 123 252.1 123 251V241C123 239.9 122.1 239 121 239H113L111 237Z" fill="#1F2A3B"/>
<path d="M138.526 251.108C137.59 251.108 136.69 250.958 135.826 250.658C134.974 250.346 134.314 249.95 133.846 249.47L134.368 248.444C134.812 248.876 135.406 249.242 136.15 249.542C136.906 249.83 137.698 249.974 138.526 249.974C139.318 249.974 139.96 249.878 140.452 249.686C140.956 249.482 141.322 249.212 141.55 248.876C141.79 248.54 141.91 248.168 141.91 247.76C141.91 247.268 141.766 246.872 141.478 246.572C141.202 246.272 140.836 246.038 140.38 245.87C139.924 245.69 139.42 245.534 138.868 245.402C138.316 245.27 137.764 245.132 137.212 244.988C136.66 244.832 136.15 244.628 135.682 244.376C135.226 244.124 134.854 243.794 134.566 243.386C134.29 242.966 134.152 242.42 134.152 241.748C134.152 241.124 134.314 240.554 134.638 240.038C134.974 239.51 135.484 239.09 136.168 238.778C136.852 238.454 137.728 238.292 138.796 238.292C139.504 238.292 140.206 238.394 140.902 238.598C141.598 238.79 142.198 239.06 142.702 239.408L142.252 240.47C141.712 240.11 141.136 239.846 140.524 239.678C139.924 239.51 139.342 239.426 138.778 239.426C138.022 239.426 137.398 239.528 136.906 239.732C136.414 239.936 136.048 240.212 135.808 240.56C135.58 240.896 135.466 241.28 135.466 241.712C135.466 242.204 135.604 242.6 135.88 242.9C136.168 243.2 136.54 243.434 136.996 243.602C137.464 243.77 137.974 243.92 138.526 244.052C139.078 244.184 139.624 244.328 140.164 244.484C140.716 244.64 141.22 244.844 141.676 245.096C142.144 245.336 142.516 245.66 142.792 246.068C143.08 246.476 143.224 247.01 143.224 247.67C143.224 248.282 143.056 248.852 142.72 249.38C142.384 249.896 141.868 250.316 141.172 250.64C140.488 250.952 139.606 251.108 138.526 251.108ZM151.868 251V248.912L151.814 248.57V245.078C151.814 244.274 151.586 243.656 151.13 243.224C150.686 242.792 150.02 242.576 149.132 242.576C148.52 242.576 147.938 242.678 147.386 242.882C146.834 243.086 146.366 243.356 145.982 243.692L145.406 242.738C145.886 242.33 146.462 242.018 147.134 241.802C147.806 241.574 148.514 241.46 149.258 241.46C150.482 241.46 151.424 241.766 152.084 242.378C152.756 242.978 153.092 243.896 153.092 245.132V251H151.868ZM148.61 251.09C147.902 251.09 147.284 250.976 146.756 250.748C146.24 250.508 145.844 250.184 145.568 249.776C145.292 249.356 145.154 248.876 145.154 248.336C145.154 247.844 145.268 247.4 145.496 247.004C145.736 246.596 146.12 246.272 146.648 246.032C147.188 245.78 147.908 245.654 148.808 245.654H152.066V246.608H148.844C147.932 246.608 147.296 246.77 146.936 247.094C146.588 247.418 146.414 247.82 146.414 248.3C146.414 248.84 146.624 249.272 147.044 249.596C147.464 249.92 148.052 250.082 148.808 250.082C149.528 250.082 150.146 249.92 150.662 249.596C151.19 249.26 151.574 248.78 151.814 248.156L152.102 249.038C151.862 249.662 151.442 250.16 150.842 250.532C150.254 250.904 149.51 251.09 148.61 251.09ZM156.653 251V237.644H157.931V251H156.653ZM165.591 251.09C164.607 251.09 163.743 250.886 162.999 250.478C162.255 250.058 161.673 249.488 161.253 248.768C160.833 248.036 160.623 247.202 160.623 246.266C160.623 245.33 160.821 244.502 161.217 243.782C161.625 243.062 162.177 242.498 162.873 242.09C163.581 241.67 164.373 241.46 165.249 241.46C166.137 241.46 166.923 241.664 167.607 242.072C168.303 242.468 168.849 243.032 169.245 243.764C169.641 244.484 169.839 245.318 169.839 246.266C169.839 246.326 169.833 246.392 169.821 246.464C169.821 246.524 169.821 246.59 169.821 246.662H161.595V245.708H169.137L168.633 246.086C168.633 245.402 168.483 244.796 168.183 244.268C167.895 243.728 167.499 243.308 166.995 243.008C166.491 242.708 165.909 242.558 165.249 242.558C164.601 242.558 164.019 242.708 163.503 243.008C162.987 243.308 162.585 243.728 162.297 244.268C162.009 244.808 161.865 245.426 161.865 246.122V246.32C161.865 247.04 162.021 247.676 162.333 248.228C162.657 248.768 163.101 249.194 163.665 249.506C164.241 249.806 164.895 249.956 165.627 249.956C166.203 249.956 166.737 249.854 167.229 249.65C167.733 249.446 168.165 249.134 168.525 248.714L169.245 249.542C168.825 250.046 168.297 250.43 167.661 250.694C167.037 250.958 166.347 251.09 165.591 251.09ZM175.069 251.09C174.289 251.09 173.551 250.982 172.855 250.766C172.159 250.538 171.613 250.256 171.217 249.92L171.793 248.912C172.177 249.2 172.669 249.452 173.269 249.668C173.869 249.872 174.499 249.974 175.159 249.974C176.059 249.974 176.707 249.836 177.103 249.56C177.499 249.272 177.697 248.894 177.697 248.426C177.697 248.078 177.583 247.808 177.355 247.616C177.139 247.412 176.851 247.262 176.491 247.166C176.131 247.058 175.729 246.968 175.285 246.896C174.841 246.824 174.397 246.74 173.953 246.644C173.521 246.548 173.125 246.41 172.765 246.23C172.405 246.038 172.111 245.78 171.883 245.456C171.667 245.132 171.559 244.7 171.559 244.16C171.559 243.644 171.703 243.182 171.991 242.774C172.279 242.366 172.699 242.048 173.251 241.82C173.815 241.58 174.499 241.46 175.303 241.46C175.915 241.46 176.527 241.544 177.139 241.712C177.751 241.868 178.255 242.078 178.651 242.342L178.093 243.368C177.673 243.08 177.223 242.876 176.743 242.756C176.263 242.624 175.783 242.558 175.303 242.558C174.451 242.558 173.821 242.708 173.413 243.008C173.017 243.296 172.819 243.668 172.819 244.124C172.819 244.484 172.927 244.766 173.143 244.97C173.371 245.174 173.665 245.336 174.025 245.456C174.397 245.564 174.799 245.654 175.231 245.726C175.675 245.798 176.113 245.888 176.545 245.996C176.989 246.092 177.391 246.23 177.751 246.41C178.123 246.578 178.417 246.824 178.633 247.148C178.861 247.46 178.975 247.874 178.975 248.39C178.975 248.942 178.819 249.422 178.507 249.83C178.207 250.226 177.763 250.538 177.175 250.766C176.599 250.982 175.897 251.09 175.069 251.09Z" fill="#454E5D"/>
<path d="M1337 286V284H1335V286H1333V288H1335V290H1337V288H1339V286H1337Z" fill="#454E5D"/>
<path d="M1323 289C1325.21 289 1327 287.21 1327 285C1327 282.79 1325.21 281 1323 281C1320.79 281 1319 282.79 1319 285C1319 287.21 1320.79 289 1323 289ZM1323 283C1324.1 283 1325 283.9 1325 285C1325 286.1 1324.1 287 1323 287C1321.9 287 1321 286.1 1321 285C1321 283.9 1321.9 283 1323 283Z" fill="#454E5D"/>
<path d="M1323 290C1320.33 290 1315 291.34 1315 294V297H1331V294C1331 291.34 1325.67 290 1323 290ZM1329 295H1317V294.01C1317.2 293.29 1320.3 292 1323 292C1325.7 292 1328.8 293.29 1329 294V295Z" fill="#454E5D"/>
<path d="M1327.51 281.05C1328.43 282.11 1329 283.49 1329 285C1329 286.51 1328.43 287.89 1327.51 288.95C1329.47 288.7 1331 287.04 1331 285C1331 282.96 1329.47 281.3 1327.51 281.05Z" fill="#454E5D"/>
<path d="M1331.53 290.83C1332.42 291.66 1333 292.7 1333 294V297H1335V294C1335 292.55 1333.41 291.49 1331.53 290.83Z" fill="#454E5D"/>
<path d="M110.17 283L112.17 285H121V295H105V283H110.17ZM111 281H105C103.9 281 103.01 281.9 103.01 283L103 295C103 296.1 103.9 297 105 297H121C122.1 297 123 296.1 123 295V285C123 283.9 122.1 283 121 283H113L111 281Z" fill="#1F2A3B"/>
<path d="M140.56 295.108C139.612 295.108 138.73 294.952 137.914 294.64C137.11 294.316 136.408 293.866 135.808 293.29C135.22 292.702 134.758 292.024 134.422 291.256C134.098 290.476 133.936 289.624 133.936 288.7C133.936 287.776 134.098 286.93 134.422 286.162C134.758 285.382 135.22 284.704 135.808 284.128C136.408 283.54 137.11 283.09 137.914 282.778C138.718 282.454 139.6 282.292 140.56 282.292C141.508 282.292 142.384 282.454 143.188 282.778C143.992 283.09 144.688 283.534 145.276 284.11C145.876 284.686 146.338 285.364 146.662 286.144C146.998 286.924 147.166 287.776 147.166 288.7C147.166 289.624 146.998 290.476 146.662 291.256C146.338 292.036 145.876 292.714 145.276 293.29C144.688 293.866 143.992 294.316 143.188 294.64C142.384 294.952 141.508 295.108 140.56 295.108ZM140.56 293.92C141.316 293.92 142.012 293.794 142.648 293.542C143.296 293.278 143.854 292.912 144.322 292.444C144.802 291.964 145.174 291.412 145.438 290.788C145.702 290.152 145.834 289.456 145.834 288.7C145.834 287.944 145.702 287.254 145.438 286.63C145.174 285.994 144.802 285.442 144.322 284.974C143.854 284.494 143.296 284.128 142.648 283.876C142.012 283.612 141.316 283.48 140.56 283.48C139.804 283.48 139.102 283.612 138.454 283.876C137.806 284.128 137.242 284.494 136.762 284.974C136.294 285.442 135.922 285.994 135.646 286.63C135.382 287.254 135.25 287.944 135.25 288.7C135.25 289.444 135.382 290.134 135.646 290.77C135.922 291.406 136.294 291.964 136.762 292.444C137.242 292.912 137.806 293.278 138.454 293.542C139.102 293.794 139.804 293.92 140.56 293.92ZM153.048 295.09C152.16 295.09 151.476 294.85 150.996 294.37C150.516 293.89 150.276 293.212 150.276 292.336V283.462H151.554V292.264C151.554 292.816 151.692 293.242 151.968 293.542C152.256 293.842 152.664 293.992 153.192 293.992C153.756 293.992 154.224 293.83 154.596 293.506L155.046 294.424C154.794 294.652 154.488 294.82 154.128 294.928C153.78 295.036 153.42 295.09 153.048 295.09ZM148.584 286.612V285.55H154.434V286.612H148.584ZM162.286 285.46C163.054 285.46 163.726 285.61 164.302 285.91C164.89 286.198 165.346 286.642 165.67 287.242C166.006 287.842 166.174 288.598 166.174 289.51V295H164.896V289.636C164.896 288.64 164.644 287.89 164.14 287.386C163.648 286.87 162.952 286.612 162.052 286.612C161.38 286.612 160.792 286.75 160.288 287.026C159.796 287.29 159.412 287.68 159.136 288.196C158.872 288.7 158.74 289.312 158.74 290.032V295H157.462V281.644H158.74V288.142L158.488 287.656C158.788 286.972 159.268 286.438 159.928 286.054C160.588 285.658 161.374 285.46 162.286 285.46ZM173.73 295.09C172.746 295.09 171.882 294.886 171.138 294.478C170.394 294.058 169.812 293.488 169.392 292.768C168.972 292.036 168.762 291.202 168.762 290.266C168.762 289.33 168.96 288.502 169.356 287.782C169.764 287.062 170.316 286.498 171.012 286.09C171.72 285.67 172.512 285.46 173.388 285.46C174.276 285.46 175.062 285.664 175.746 286.072C176.442 286.468 176.988 287.032 177.384 287.764C177.78 288.484 177.978 289.318 177.978 290.266C177.978 290.326 177.972 290.392 177.96 290.464C177.96 290.524 177.96 290.59 177.96 290.662H169.734V289.708H177.276L176.772 290.086C176.772 289.402 176.622 288.796 176.322 288.268C176.034 287.728 175.638 287.308 175.134 287.008C174.63 286.708 174.048 286.558 173.388 286.558C172.74 286.558 172.158 286.708 171.642 287.008C171.126 287.308 170.724 287.728 170.436 288.268C170.148 288.808 170.004 289.426 170.004 290.122V290.32C170.004 291.04 170.16 291.676 170.472 292.228C170.796 292.768 171.24 293.194 171.804 293.506C172.38 293.806 173.034 293.956 173.766 293.956C174.342 293.956 174.876 293.854 175.368 293.65C175.872 293.446 176.304 293.134 176.664 292.714L177.384 293.542C176.964 294.046 176.436 294.43 175.8 294.694C175.176 294.958 174.486 295.09 173.73 295.09ZM180.669 295V285.55H181.893V288.124L181.767 287.674C182.031 286.954 182.475 286.408 183.099 286.036C183.723 285.652 184.497 285.46 185.421 285.46V286.702C185.373 286.702 185.325 286.702 185.277 286.702C185.229 286.69 185.181 286.684 185.133 286.684C184.137 286.684 183.357 286.99 182.793 287.602C182.229 288.202 181.947 289.06 181.947 290.176V295H180.669Z" fill="#454E5D"/>
</svg>
