<svg width="1391" height="30" viewBox="0 0 1391 30" fill="none" xmlns="http://www.w3.org/2000/svg">
<rect width="123" height="30" rx="15" fill="#3C64F7"/>
<path d="M13.5465 20V10.9H17.2515C18.2221 10.9 19.0715 11.095 19.7995 11.485C20.5361 11.8663 21.1081 12.3993 21.5155 13.084C21.9228 13.7687 22.1265 14.5573 22.1265 15.45C22.1265 16.3427 21.9228 17.1313 21.5155 17.816C21.1081 18.5007 20.5361 19.038 19.7995 19.428C19.0715 19.8093 18.2221 20 17.2515 20H13.5465ZM14.5085 19.168H17.1995C18.0055 19.168 18.7031 19.012 19.2925 18.7C19.8905 18.3793 20.3541 17.9417 20.6835 17.387C21.0128 16.8237 21.1775 16.178 21.1775 15.45C21.1775 14.7133 21.0128 14.0677 20.6835 13.513C20.3541 12.9583 19.8905 12.525 19.2925 12.213C18.7031 11.8923 18.0055 11.732 17.1995 11.732H14.5085V19.168ZM24.2867 20V10.9H25.2487V20H24.2867ZM30.7185 20.078C30.0425 20.078 29.3925 19.9697 28.7685 19.753C28.1532 19.5277 27.6765 19.2417 27.3385 18.895L27.7155 18.154C28.0362 18.466 28.4652 18.7303 29.0025 18.947C29.5485 19.155 30.1205 19.259 30.7185 19.259C31.2905 19.259 31.7542 19.1897 32.1095 19.051C32.4735 18.9037 32.7379 18.7087 32.9025 18.466C33.0759 18.2233 33.1625 17.9547 33.1625 17.66C33.1625 17.3047 33.0585 17.0187 32.8505 16.802C32.6512 16.5853 32.3869 16.4163 32.0575 16.295C31.7282 16.165 31.3642 16.0523 30.9655 15.957C30.5669 15.8617 30.1682 15.762 29.7695 15.658C29.3709 15.5453 29.0025 15.398 28.6645 15.216C28.3352 15.034 28.0665 14.7957 27.8585 14.501C27.6592 14.1977 27.5595 13.8033 27.5595 13.318C27.5595 12.8673 27.6765 12.4557 27.9105 12.083C28.1532 11.7017 28.5215 11.3983 29.0155 11.173C29.5095 10.939 30.1422 10.822 30.9135 10.822C31.4249 10.822 31.9319 10.8957 32.4345 11.043C32.9372 11.1817 33.3705 11.3767 33.7345 11.628L33.4095 12.395C33.0195 12.135 32.6035 11.9443 32.1615 11.823C31.7282 11.7017 31.3079 11.641 30.9005 11.641C30.3545 11.641 29.9039 11.7147 29.5485 11.862C29.1932 12.0093 28.9289 12.2087 28.7555 12.46C28.5909 12.7027 28.5085 12.98 28.5085 13.292C28.5085 13.6473 28.6082 13.9333 28.8075 14.15C29.0155 14.3667 29.2842 14.5357 29.6135 14.657C29.9515 14.7783 30.3199 14.8867 30.7185 14.982C31.1172 15.0773 31.5115 15.1813 31.9015 15.294C32.3002 15.4067 32.6642 15.554 32.9935 15.736C33.3315 15.9093 33.6002 16.1433 33.7995 16.438C34.0075 16.7327 34.1115 17.1183 34.1115 17.595C34.1115 18.037 33.9902 18.4487 33.7475 18.83C33.5049 19.2027 33.1322 19.506 32.6295 19.74C32.1355 19.9653 31.4985 20.078 30.7185 20.078ZM37.8486 20V11.732H34.6506V10.9H42.0086V11.732H38.8106V20H37.8486ZM43.5455 20V10.9H46.9515C47.7228 10.9 48.3858 11.0257 48.9405 11.277C49.4951 11.5197 49.9198 11.875 50.2145 12.343C50.5178 12.8023 50.6695 13.3613 50.6695 14.02C50.6695 14.6613 50.5178 15.216 50.2145 15.684C49.9198 16.1433 49.4951 16.4987 48.9405 16.75C48.3858 16.9927 47.7228 17.114 46.9515 17.114H44.0785L44.5075 16.672V20H43.5455ZM49.7595 20L47.4195 16.698H48.4595L50.8125 20H49.7595ZM44.5075 16.75L44.0785 16.295H46.9255C47.8355 16.295 48.5245 16.0957 48.9925 15.697C49.4691 15.2983 49.7075 14.7393 49.7075 14.02C49.7075 13.292 49.4691 12.7287 48.9925 12.33C48.5245 11.9313 47.8355 11.732 46.9255 11.732H44.0785L44.5075 11.277V16.75ZM52.94 20V10.9H53.902V20H52.94ZM56.8629 20V10.9H60.7889C61.8029 10.9 62.5872 11.1037 63.1419 11.511C63.7052 11.9183 63.9869 12.4947 63.9869 13.24C63.9869 13.734 63.8699 14.15 63.6359 14.488C63.4105 14.826 63.0985 15.0817 62.6999 15.255C62.3099 15.4283 61.8809 15.515 61.4129 15.515L61.6339 15.203C62.2145 15.203 62.7129 15.294 63.1289 15.476C63.5535 15.6493 63.8829 15.9137 64.1169 16.269C64.3509 16.6157 64.4679 17.049 64.4679 17.569C64.4679 18.3403 64.1819 18.9383 63.6099 19.363C63.0465 19.7877 62.1929 20 61.0489 20H56.8629ZM57.8249 19.207H61.0359C61.8332 19.207 62.4442 19.0727 62.8689 18.804C63.2935 18.5267 63.5059 18.089 63.5059 17.491C63.5059 16.9017 63.2935 16.4727 62.8689 16.204C62.4442 15.9267 61.8332 15.788 61.0359 15.788H57.7209V14.995H60.7239C61.4519 14.995 62.0152 14.8563 62.4139 14.579C62.8212 14.3017 63.0249 13.89 63.0249 13.344C63.0249 12.7893 62.8212 12.3777 62.4139 12.109C62.0152 11.8317 61.4519 11.693 60.7239 11.693H57.8249V19.207ZM70.3296 20.078C69.1683 20.078 68.254 19.7443 67.5866 19.077C66.9193 18.4097 66.5856 17.4217 66.5856 16.113V10.9H67.5476V16.074C67.5476 17.1487 67.7903 17.9417 68.2756 18.453C68.761 18.9643 69.4456 19.22 70.3296 19.22C71.2223 19.22 71.9113 18.9643 72.3966 18.453C72.882 17.9417 73.1246 17.1487 73.1246 16.074V10.9H74.0606V16.113C74.0606 17.4217 73.727 18.4097 73.0596 19.077C72.401 19.7443 71.491 20.078 70.3296 20.078ZM78.5498 20V11.732H75.3518V10.9H82.7098V11.732H79.5118V20H78.5498ZM88.0977 20.078C87.413 20.078 86.776 19.9653 86.1867 19.74C85.606 19.506 85.099 19.181 84.6657 18.765C84.241 18.3403 83.9074 17.8507 83.6647 17.296C83.4307 16.7327 83.3137 16.1173 83.3137 15.45C83.3137 14.7827 83.4307 14.1717 83.6647 13.617C83.9074 13.0537 84.241 12.564 84.6657 12.148C85.099 11.7233 85.606 11.3983 86.1867 11.173C86.7674 10.939 87.4044 10.822 88.0977 10.822C88.7824 10.822 89.415 10.939 89.9957 11.173C90.5764 11.3983 91.079 11.719 91.5037 12.135C91.937 12.551 92.2707 13.0407 92.5047 13.604C92.7474 14.1673 92.8687 14.7827 92.8687 15.45C92.8687 16.1173 92.7474 16.7327 92.5047 17.296C92.2707 17.8593 91.937 18.349 91.5037 18.765C91.079 19.181 90.5764 19.506 89.9957 19.74C89.415 19.9653 88.7824 20.078 88.0977 20.078ZM88.0977 19.22C88.6437 19.22 89.1464 19.129 89.6057 18.947C90.0737 18.7563 90.4767 18.492 90.8147 18.154C91.1614 17.8073 91.43 17.4087 91.6207 16.958C91.8114 16.4987 91.9067 15.996 91.9067 15.45C91.9067 14.904 91.8114 14.4057 91.6207 13.955C91.43 13.4957 91.1614 13.097 90.8147 12.759C90.4767 12.4123 90.0737 12.148 89.6057 11.966C89.1464 11.7753 88.6437 11.68 88.0977 11.68C87.5517 11.68 87.0447 11.7753 86.5767 11.966C86.1087 12.148 85.7014 12.4123 85.3547 12.759C85.0167 13.097 84.748 13.4957 84.5487 13.955C84.358 14.4057 84.2627 14.904 84.2627 15.45C84.2627 15.9873 84.358 16.4857 84.5487 16.945C84.748 17.4043 85.0167 17.8073 85.3547 18.154C85.7014 18.492 86.1087 18.7563 86.5767 18.947C87.0447 19.129 87.5517 19.22 88.0977 19.22ZM95.025 20V10.9H98.431C99.2023 10.9 99.8653 11.0257 100.42 11.277C100.975 11.5197 101.399 11.875 101.694 12.343C101.997 12.8023 102.149 13.3613 102.149 14.02C102.149 14.6613 101.997 15.216 101.694 15.684C101.399 16.1433 100.975 16.4987 100.42 16.75C99.8653 16.9927 99.2023 17.114 98.431 17.114H95.558L95.987 16.672V20H95.025ZM101.239 20L98.899 16.698H99.939L102.292 20H101.239ZM95.987 16.75L95.558 16.295H98.405C99.315 16.295 100.004 16.0957 100.472 15.697C100.949 15.2983 101.187 14.7393 101.187 14.02C101.187 13.292 100.949 12.7287 100.472 12.33C100.004 11.9313 99.315 11.732 98.405 11.732H95.558L95.987 11.277V16.75ZM106.929 20.078C106.253 20.078 105.603 19.9697 104.979 19.753C104.363 19.5277 103.887 19.2417 103.549 18.895L103.926 18.154C104.246 18.466 104.675 18.7303 105.213 18.947C105.759 19.155 106.331 19.259 106.929 19.259C107.501 19.259 107.964 19.1897 108.32 19.051C108.684 18.9037 108.948 18.7087 109.113 18.466C109.286 18.2233 109.373 17.9547 109.373 17.66C109.373 17.3047 109.269 17.0187 109.061 16.802C108.861 16.5853 108.597 16.4163 108.268 16.295C107.938 16.165 107.574 16.0523 107.176 15.957C106.777 15.8617 106.378 15.762 105.98 15.658C105.581 15.5453 105.213 15.398 104.875 15.216C104.545 15.034 104.277 14.7957 104.069 14.501C103.869 14.1977 103.77 13.8033 103.77 13.318C103.77 12.8673 103.887 12.4557 104.121 12.083C104.363 11.7017 104.732 11.3983 105.226 11.173C105.72 10.939 106.352 10.822 107.124 10.822C107.635 10.822 108.142 10.8957 108.645 11.043C109.147 11.1817 109.581 11.3767 109.945 11.628L109.619 12.395C109.23 12.135 108.814 11.9443 108.372 11.823C107.938 11.7017 107.518 11.641 107.111 11.641C106.565 11.641 106.114 11.7147 105.759 11.862C105.403 12.0093 105.139 12.2087 104.966 12.46C104.801 12.7027 104.719 12.98 104.719 13.292C104.719 13.6473 104.818 13.9333 105.018 14.15C105.226 14.3667 105.494 14.5357 105.824 14.657C106.162 14.7783 106.53 14.8867 106.929 14.982C107.327 15.0773 107.722 15.1813 108.112 15.294C108.51 15.4067 108.874 15.554 109.204 15.736C109.542 15.9093 109.81 16.1433 110.01 16.438C110.218 16.7327 110.322 17.1183 110.322 17.595C110.322 18.037 110.2 18.4487 109.958 18.83C109.715 19.2027 109.342 19.506 108.84 19.74C108.346 19.9653 107.709 20.078 106.929 20.078Z" fill="#F4F4F4"/>
<rect x="141" width="123" height="30" rx="15" fill="#E7E7E7"/>
<path d="M157.036 20.078C156.36 20.078 155.71 19.9697 155.086 19.753C154.471 19.5277 153.994 19.2417 153.656 18.895L154.033 18.154C154.354 18.466 154.783 18.7303 155.32 18.947C155.866 19.155 156.438 19.259 157.036 19.259C157.608 19.259 158.072 19.1897 158.427 19.051C158.791 18.9037 159.056 18.7087 159.22 18.466C159.394 18.2233 159.48 17.9547 159.48 17.66C159.48 17.3047 159.376 17.0187 159.168 16.802C158.969 16.5853 158.705 16.4163 158.375 16.295C158.046 16.165 157.682 16.0523 157.283 15.957C156.885 15.8617 156.486 15.762 156.087 15.658C155.689 15.5453 155.32 15.398 154.982 15.216C154.653 15.034 154.384 14.7957 154.176 14.501C153.977 14.1977 153.877 13.8033 153.877 13.318C153.877 12.8673 153.994 12.4557 154.228 12.083C154.471 11.7017 154.839 11.3983 155.333 11.173C155.827 10.939 156.46 10.822 157.231 10.822C157.743 10.822 158.25 10.8957 158.752 11.043C159.255 11.1817 159.688 11.3767 160.052 11.628L159.727 12.395C159.337 12.135 158.921 11.9443 158.479 11.823C158.046 11.7017 157.626 11.641 157.218 11.641C156.672 11.641 156.222 11.7147 155.866 11.862C155.511 12.0093 155.247 12.2087 155.073 12.46C154.909 12.7027 154.826 12.98 154.826 13.292C154.826 13.6473 154.926 13.9333 155.125 14.15C155.333 14.3667 155.602 14.5357 155.931 14.657C156.269 14.7783 156.638 14.8867 157.036 14.982C157.435 15.0773 157.829 15.1813 158.219 15.294C158.618 15.4067 158.982 15.554 159.311 15.736C159.649 15.9093 159.918 16.1433 160.117 16.438C160.325 16.7327 160.429 17.1183 160.429 17.595C160.429 18.037 160.308 18.4487 160.065 18.83C159.823 19.2027 159.45 19.506 158.947 19.74C158.453 19.9653 157.816 20.078 157.036 20.078ZM161.069 20L165.229 10.9H166.178L170.338 20H169.324L165.502 11.459H165.892L162.07 20H161.069ZM162.707 17.569L162.993 16.789H168.284L168.57 17.569H162.707ZM171.844 20V10.9H172.806V19.168H177.902V20H171.844ZM180.357 14.969H185.167V15.788H180.357V14.969ZM180.461 19.168H185.934V20H179.499V10.9H185.739V11.732H180.461V19.168ZM190.704 20.078C190.028 20.078 189.378 19.9697 188.754 19.753C188.139 19.5277 187.662 19.2417 187.324 18.895L187.701 18.154C188.022 18.466 188.451 18.7303 188.988 18.947C189.534 19.155 190.106 19.259 190.704 19.259C191.276 19.259 191.74 19.1897 192.095 19.051C192.459 18.9037 192.724 18.7087 192.888 18.466C193.062 18.2233 193.148 17.9547 193.148 17.66C193.148 17.3047 193.044 17.0187 192.836 16.802C192.637 16.5853 192.373 16.4163 192.043 16.295C191.714 16.165 191.35 16.0523 190.951 15.957C190.553 15.8617 190.154 15.762 189.755 15.658C189.357 15.5453 188.988 15.398 188.65 15.216C188.321 15.034 188.052 14.7957 187.844 14.501C187.645 14.1977 187.545 13.8033 187.545 13.318C187.545 12.8673 187.662 12.4557 187.896 12.083C188.139 11.7017 188.507 11.3983 189.001 11.173C189.495 10.939 190.128 10.822 190.899 10.822C191.411 10.822 191.918 10.8957 192.42 11.043C192.923 11.1817 193.356 11.3767 193.72 11.628L193.395 12.395C193.005 12.135 192.589 11.9443 192.147 11.823C191.714 11.7017 191.294 11.641 190.886 11.641C190.34 11.641 189.89 11.7147 189.534 11.862C189.179 12.0093 188.915 12.2087 188.741 12.46C188.577 12.7027 188.494 12.98 188.494 13.292C188.494 13.6473 188.594 13.9333 188.793 14.15C189.001 14.3667 189.27 14.5357 189.599 14.657C189.937 14.7783 190.306 14.8867 190.704 14.982C191.103 15.0773 191.497 15.1813 191.887 15.294C192.286 15.4067 192.65 15.554 192.979 15.736C193.317 15.9093 193.586 16.1433 193.785 16.438C193.993 16.7327 194.097 17.1183 194.097 17.595C194.097 18.037 193.976 18.4487 193.733 18.83C193.491 19.2027 193.118 19.506 192.615 19.74C192.121 19.9653 191.484 20.078 190.704 20.078ZM198.14 20L202.3 10.9H203.249L207.409 20H206.395L202.573 11.459H202.963L199.141 20H198.14ZM199.778 17.569L200.064 16.789H205.355L205.641 17.569H199.778ZM212.778 20.078C212.085 20.078 211.444 19.9653 210.854 19.74C210.274 19.506 209.767 19.181 209.333 18.765C208.909 18.349 208.575 17.8593 208.332 17.296C208.098 16.7327 207.981 16.1173 207.981 15.45C207.981 14.7827 208.098 14.1673 208.332 13.604C208.575 13.0407 208.913 12.551 209.346 12.135C209.78 11.719 210.287 11.3983 210.867 11.173C211.457 10.939 212.098 10.822 212.791 10.822C213.485 10.822 214.117 10.9303 214.689 11.147C215.27 11.3637 215.764 11.693 216.171 12.135L215.573 12.746C215.192 12.3647 214.772 12.0917 214.312 11.927C213.853 11.7623 213.359 11.68 212.83 11.68C212.267 11.68 211.747 11.7753 211.27 11.966C210.802 12.148 210.391 12.4123 210.035 12.759C209.689 13.097 209.416 13.4957 209.216 13.955C209.026 14.4057 208.93 14.904 208.93 15.45C208.93 15.9873 209.026 16.4857 209.216 16.945C209.416 17.4043 209.689 17.8073 210.035 18.154C210.391 18.492 210.802 18.7563 211.27 18.947C211.747 19.129 212.263 19.22 212.817 19.22C213.337 19.22 213.827 19.142 214.286 18.986C214.754 18.83 215.183 18.5657 215.573 18.193L216.119 18.921C215.686 19.3023 215.179 19.5927 214.598 19.792C214.018 19.9827 213.411 20.078 212.778 20.078ZM215.196 18.804V15.45H216.119V18.921L215.196 18.804ZM219.7 14.969H224.51V15.788H219.7V14.969ZM219.804 19.168H225.277V20H218.842V10.9H225.082V11.732H219.804V19.168ZM227.538 20V10.9H228.331L234.61 18.804H234.194V10.9H235.143V20H234.35L228.084 12.096H228.5V20H227.538ZM239.881 20V11.732H236.683V10.9H244.041V11.732H240.843V20H239.881ZM247.948 20.078C247.272 20.078 246.622 19.9697 245.998 19.753C245.382 19.5277 244.906 19.2417 244.568 18.895L244.945 18.154C245.265 18.466 245.694 18.7303 246.232 18.947C246.778 19.155 247.35 19.259 247.948 19.259C248.52 19.259 248.983 19.1897 249.339 19.051C249.703 18.9037 249.967 18.7087 250.132 18.466C250.305 18.2233 250.392 17.9547 250.392 17.66C250.392 17.3047 250.288 17.0187 250.08 16.802C249.88 16.5853 249.616 16.4163 249.287 16.295C248.957 16.165 248.593 16.0523 248.195 15.957C247.796 15.8617 247.397 15.762 246.999 15.658C246.6 15.5453 246.232 15.398 245.894 15.216C245.564 15.034 245.296 14.7957 245.088 14.501C244.888 14.1977 244.789 13.8033 244.789 13.318C244.789 12.8673 244.906 12.4557 245.14 12.083C245.382 11.7017 245.751 11.3983 246.245 11.173C246.739 10.939 247.371 10.822 248.143 10.822C248.654 10.822 249.161 10.8957 249.664 11.043C250.166 11.1817 250.6 11.3767 250.964 11.628L250.639 12.395C250.249 12.135 249.833 11.9443 249.391 11.823C248.957 11.7017 248.537 11.641 248.13 11.641C247.584 11.641 247.133 11.7147 246.778 11.862C246.422 12.0093 246.158 12.2087 245.985 12.46C245.82 12.7027 245.738 12.98 245.738 13.292C245.738 13.6473 245.837 13.9333 246.037 14.15C246.245 14.3667 246.513 14.5357 246.843 14.657C247.181 14.7783 247.549 14.8867 247.948 14.982C248.346 15.0773 248.741 15.1813 249.131 15.294C249.529 15.4067 249.893 15.554 250.223 15.736C250.561 15.9093 250.829 16.1433 251.029 16.438C251.237 16.7327 251.341 17.1183 251.341 17.595C251.341 18.037 251.219 18.4487 250.977 18.83C250.734 19.2027 250.361 19.506 249.859 19.74C249.365 19.9653 248.728 20.078 247.948 20.078Z" fill="#454E5D"/>
<rect x="301" width="90" height="30" rx="15" fill="#E7E7E7"/>
<path d="M313.234 20L317.394 10.9H318.343L322.503 20H321.489L317.667 11.459H318.057L314.235 20H313.234ZM314.872 17.569L315.158 16.789H320.449L320.735 17.569H314.872ZM327.484 20.078C326.323 20.078 325.408 19.7443 324.741 19.077C324.074 18.4097 323.74 17.4217 323.74 16.113V10.9H324.702V16.074C324.702 17.1487 324.945 17.9417 325.43 18.453C325.915 18.9643 326.6 19.22 327.484 19.22C328.377 19.22 329.066 18.9643 329.551 18.453C330.036 17.9417 330.279 17.1487 330.279 16.074V10.9H331.215V16.113C331.215 17.4217 330.881 18.4097 330.214 19.077C329.555 19.7443 328.645 20.078 327.484 20.078ZM335.704 20V11.732H332.506V10.9H339.864V11.732H336.666V20H335.704ZM348.057 10.9H349.006V20H348.057V10.9ZM342.363 20H341.401V10.9H342.363V20ZM348.148 15.801H342.259V14.956H348.148V15.801ZM355.954 20.078C355.269 20.078 354.632 19.9653 354.043 19.74C353.462 19.506 352.955 19.181 352.522 18.765C352.097 18.3403 351.764 17.8507 351.521 17.296C351.287 16.7327 351.17 16.1173 351.17 15.45C351.17 14.7827 351.287 14.1717 351.521 13.617C351.764 13.0537 352.097 12.564 352.522 12.148C352.955 11.7233 353.462 11.3983 354.043 11.173C354.624 10.939 355.261 10.822 355.954 10.822C356.639 10.822 357.271 10.939 357.852 11.173C358.433 11.3983 358.935 11.719 359.36 12.135C359.793 12.551 360.127 13.0407 360.361 13.604C360.604 14.1673 360.725 14.7827 360.725 15.45C360.725 16.1173 360.604 16.7327 360.361 17.296C360.127 17.8593 359.793 18.349 359.36 18.765C358.935 19.181 358.433 19.506 357.852 19.74C357.271 19.9653 356.639 20.078 355.954 20.078ZM355.954 19.22C356.5 19.22 357.003 19.129 357.462 18.947C357.93 18.7563 358.333 18.492 358.671 18.154C359.018 17.8073 359.286 17.4087 359.477 16.958C359.668 16.4987 359.763 15.996 359.763 15.45C359.763 14.904 359.668 14.4057 359.477 13.955C359.286 13.4957 359.018 13.097 358.671 12.759C358.333 12.4123 357.93 12.148 357.462 11.966C357.003 11.7753 356.5 11.68 355.954 11.68C355.408 11.68 354.901 11.7753 354.433 11.966C353.965 12.148 353.558 12.4123 353.211 12.759C352.873 13.097 352.604 13.4957 352.405 13.955C352.214 14.4057 352.119 14.904 352.119 15.45C352.119 15.9873 352.214 16.4857 352.405 16.945C352.604 17.4043 352.873 17.8073 353.211 18.154C353.558 18.492 353.965 18.7563 354.433 18.947C354.901 19.129 355.408 19.22 355.954 19.22ZM362.881 20V10.9H366.287C367.059 10.9 367.722 11.0257 368.276 11.277C368.831 11.5197 369.256 11.875 369.55 12.343C369.854 12.8023 370.005 13.3613 370.005 14.02C370.005 14.6613 369.854 15.216 369.55 15.684C369.256 16.1433 368.831 16.4987 368.276 16.75C367.722 16.9927 367.059 17.114 366.287 17.114H363.414L363.843 16.672V20H362.881ZM369.095 20L366.755 16.698H367.795L370.148 20H369.095ZM363.843 16.75L363.414 16.295H366.261C367.171 16.295 367.86 16.0957 368.328 15.697C368.805 15.2983 369.043 14.7393 369.043 14.02C369.043 13.292 368.805 12.7287 368.328 12.33C367.86 11.9313 367.171 11.732 366.261 11.732H363.414L363.843 11.277V16.75ZM374.785 20.078C374.109 20.078 373.459 19.9697 372.835 19.753C372.22 19.5277 371.743 19.2417 371.405 18.895L371.782 18.154C372.103 18.466 372.532 18.7303 373.069 18.947C373.615 19.155 374.187 19.259 374.785 19.259C375.357 19.259 375.821 19.1897 376.176 19.051C376.54 18.9037 376.804 18.7087 376.969 18.466C377.142 18.2233 377.229 17.9547 377.229 17.66C377.229 17.3047 377.125 17.0187 376.917 16.802C376.718 16.5853 376.453 16.4163 376.124 16.295C375.795 16.165 375.431 16.0523 375.032 15.957C374.633 15.8617 374.235 15.762 373.836 15.658C373.437 15.5453 373.069 15.398 372.731 15.216C372.402 15.034 372.133 14.7957 371.925 14.501C371.726 14.1977 371.626 13.8033 371.626 13.318C371.626 12.8673 371.743 12.4557 371.977 12.083C372.22 11.7017 372.588 11.3983 373.082 11.173C373.576 10.939 374.209 10.822 374.98 10.822C375.491 10.822 375.998 10.8957 376.501 11.043C377.004 11.1817 377.437 11.3767 377.801 11.628L377.476 12.395C377.086 12.135 376.67 11.9443 376.228 11.823C375.795 11.7017 375.374 11.641 374.967 11.641C374.421 11.641 373.97 11.7147 373.615 11.862C373.26 12.0093 372.995 12.2087 372.822 12.46C372.657 12.7027 372.575 12.98 372.575 13.292C372.575 13.6473 372.675 13.9333 372.874 14.15C373.082 14.3667 373.351 14.5357 373.68 14.657C374.018 14.7783 374.386 14.8867 374.785 14.982C375.184 15.0773 375.578 15.1813 375.968 15.294C376.367 15.4067 376.731 15.554 377.06 15.736C377.398 15.9093 377.667 16.1433 377.866 16.438C378.074 16.7327 378.178 17.1183 378.178 17.595C378.178 18.037 378.057 18.4487 377.814 18.83C377.571 19.2027 377.199 19.506 376.696 19.74C376.202 19.9653 375.565 20.078 374.785 20.078Z" fill="#454E5D"/>
<rect x="409" width="131" height="30" rx="15" fill="#E7E7E7"/>
<path d="M426.918 20.078C426.234 20.078 425.601 19.9653 425.02 19.74C424.44 19.506 423.937 19.181 423.512 18.765C423.088 18.349 422.754 17.8593 422.511 17.296C422.277 16.7327 422.16 16.1173 422.16 15.45C422.16 14.7827 422.277 14.1673 422.511 13.604C422.754 13.0407 423.088 12.551 423.512 12.135C423.946 11.719 424.453 11.3983 425.033 11.173C425.614 10.939 426.247 10.822 426.931 10.822C427.59 10.822 428.21 10.9347 428.79 11.16C429.371 11.3767 429.861 11.706 430.259 12.148L429.648 12.759C429.276 12.3777 428.864 12.1047 428.413 11.94C427.963 11.7667 427.477 11.68 426.957 11.68C426.411 11.68 425.904 11.7753 425.436 11.966C424.968 12.148 424.561 12.4123 424.214 12.759C423.868 13.097 423.595 13.4957 423.395 13.955C423.205 14.4057 423.109 14.904 423.109 15.45C423.109 15.996 423.205 16.4987 423.395 16.958C423.595 17.4087 423.868 17.8073 424.214 18.154C424.561 18.492 424.968 18.7563 425.436 18.947C425.904 19.129 426.411 19.22 426.957 19.22C427.477 19.22 427.963 19.1333 428.413 18.96C428.864 18.7867 429.276 18.5093 429.648 18.128L430.259 18.739C429.861 19.181 429.371 19.5147 428.79 19.74C428.21 19.9653 427.586 20.078 426.918 20.078ZM436.098 20.078C435.413 20.078 434.776 19.9653 434.187 19.74C433.606 19.506 433.099 19.181 432.666 18.765C432.241 18.3403 431.907 17.8507 431.665 17.296C431.431 16.7327 431.314 16.1173 431.314 15.45C431.314 14.7827 431.431 14.1717 431.665 13.617C431.907 13.0537 432.241 12.564 432.666 12.148C433.099 11.7233 433.606 11.3983 434.187 11.173C434.767 10.939 435.404 10.822 436.098 10.822C436.782 10.822 437.415 10.939 437.996 11.173C438.576 11.3983 439.079 11.719 439.504 12.135C439.937 12.551 440.271 13.0407 440.505 13.604C440.747 14.1673 440.869 14.7827 440.869 15.45C440.869 16.1173 440.747 16.7327 440.505 17.296C440.271 17.8593 439.937 18.349 439.504 18.765C439.079 19.181 438.576 19.506 437.996 19.74C437.415 19.9653 436.782 20.078 436.098 20.078ZM436.098 19.22C436.644 19.22 437.146 19.129 437.606 18.947C438.074 18.7563 438.477 18.492 438.815 18.154C439.161 17.8073 439.43 17.4087 439.621 16.958C439.811 16.4987 439.907 15.996 439.907 15.45C439.907 14.904 439.811 14.4057 439.621 13.955C439.43 13.4957 439.161 13.097 438.815 12.759C438.477 12.4123 438.074 12.148 437.606 11.966C437.146 11.7753 436.644 11.68 436.098 11.68C435.552 11.68 435.045 11.7753 434.577 11.966C434.109 12.148 433.701 12.4123 433.355 12.759C433.017 13.097 432.748 13.4957 432.549 13.955C432.358 14.4057 432.263 14.904 432.263 15.45C432.263 15.9873 432.358 16.4857 432.549 16.945C432.748 17.4043 433.017 17.8073 433.355 18.154C433.701 18.492 434.109 18.7563 434.577 18.947C435.045 19.129 435.552 19.22 436.098 19.22ZM443.025 20V10.9H446.431C447.202 10.9 447.865 11.0257 448.42 11.277C448.975 11.5197 449.399 11.875 449.694 12.343C449.997 12.8023 450.149 13.3613 450.149 14.02C450.149 14.6613 449.997 15.216 449.694 15.684C449.399 16.1433 448.975 16.4987 448.42 16.75C447.865 17.0013 447.202 17.127 446.431 17.127H443.558L443.987 16.672V20H443.025ZM443.987 16.75L443.558 16.282H446.405C447.315 16.282 448.004 16.087 448.472 15.697C448.949 15.2983 449.187 14.7393 449.187 14.02C449.187 13.292 448.949 12.7287 448.472 12.33C448.004 11.9313 447.315 11.732 446.405 11.732H443.558L443.987 11.277V16.75ZM452.229 20V10.9H455.635C456.406 10.9 457.069 11.0257 457.624 11.277C458.179 11.5197 458.603 11.875 458.898 12.343C459.201 12.8023 459.353 13.3613 459.353 14.02C459.353 14.6613 459.201 15.216 458.898 15.684C458.603 16.1433 458.179 16.4987 457.624 16.75C457.069 16.9927 456.406 17.114 455.635 17.114H452.762L453.191 16.672V20H452.229ZM458.443 20L456.103 16.698H457.143L459.496 20H458.443ZM453.191 16.75L452.762 16.295H455.609C456.519 16.295 457.208 16.0957 457.676 15.697C458.153 15.2983 458.391 14.7393 458.391 14.02C458.391 13.292 458.153 12.7287 457.676 12.33C457.208 11.9313 456.519 11.732 455.609 11.732H452.762L453.191 11.277V16.75ZM465.602 20.078C464.917 20.078 464.28 19.9653 463.691 19.74C463.11 19.506 462.603 19.181 462.17 18.765C461.745 18.3403 461.411 17.8507 461.169 17.296C460.935 16.7327 460.818 16.1173 460.818 15.45C460.818 14.7827 460.935 14.1717 461.169 13.617C461.411 13.0537 461.745 12.564 462.17 12.148C462.603 11.7233 463.11 11.3983 463.691 11.173C464.271 10.939 464.908 10.822 465.602 10.822C466.286 10.822 466.919 10.939 467.5 11.173C468.08 11.3983 468.583 11.719 469.008 12.135C469.441 12.551 469.775 13.0407 470.009 13.604C470.251 14.1673 470.373 14.7827 470.373 15.45C470.373 16.1173 470.251 16.7327 470.009 17.296C469.775 17.8593 469.441 18.349 469.008 18.765C468.583 19.181 468.08 19.506 467.5 19.74C466.919 19.9653 466.286 20.078 465.602 20.078ZM465.602 19.22C466.148 19.22 466.65 19.129 467.11 18.947C467.578 18.7563 467.981 18.492 468.319 18.154C468.665 17.8073 468.934 17.4087 469.125 16.958C469.315 16.4987 469.411 15.996 469.411 15.45C469.411 14.904 469.315 14.4057 469.125 13.955C468.934 13.4957 468.665 13.097 468.319 12.759C467.981 12.4123 467.578 12.148 467.11 11.966C466.65 11.7753 466.148 11.68 465.602 11.68C465.056 11.68 464.549 11.7753 464.081 11.966C463.613 12.148 463.205 12.4123 462.859 12.759C462.521 13.097 462.252 13.4957 462.053 13.955C461.862 14.4057 461.767 14.904 461.767 15.45C461.767 15.9873 461.862 16.4857 462.053 16.945C462.252 17.4043 462.521 17.8073 462.859 18.154C463.205 18.492 463.613 18.7563 464.081 18.947C464.549 19.129 465.056 19.22 465.602 19.22ZM472.529 20V10.9H476.234C477.205 10.9 478.054 11.095 478.782 11.485C479.519 11.8663 480.091 12.3993 480.498 13.084C480.905 13.7687 481.109 14.5573 481.109 15.45C481.109 16.3427 480.905 17.1313 480.498 17.816C480.091 18.5007 479.519 19.038 478.782 19.428C478.054 19.8093 477.205 20 476.234 20H472.529ZM473.491 19.168H476.182C476.988 19.168 477.686 19.012 478.275 18.7C478.873 18.3793 479.337 17.9417 479.666 17.387C479.995 16.8237 480.16 16.178 480.16 15.45C480.16 14.7133 479.995 14.0677 479.666 13.513C479.337 12.9583 478.873 12.525 478.275 12.213C477.686 11.8923 476.988 11.732 476.182 11.732H473.491V19.168ZM486.935 20.078C485.774 20.078 484.859 19.7443 484.192 19.077C483.525 18.4097 483.191 17.4217 483.191 16.113V10.9H484.153V16.074C484.153 17.1487 484.396 17.9417 484.881 18.453C485.366 18.9643 486.051 19.22 486.935 19.22C487.828 19.22 488.517 18.9643 489.002 18.453C489.487 17.9417 489.73 17.1487 489.73 16.074V10.9H490.666V16.113C490.666 17.4217 490.332 18.4097 489.665 19.077C489.006 19.7443 488.096 20.078 486.935 20.078ZM497.517 20.078C496.832 20.078 496.2 19.9653 495.619 19.74C495.038 19.506 494.536 19.181 494.111 18.765C493.686 18.349 493.353 17.8593 493.11 17.296C492.876 16.7327 492.759 16.1173 492.759 15.45C492.759 14.7827 492.876 14.1673 493.11 13.604C493.353 13.0407 493.686 12.551 494.111 12.135C494.544 11.719 495.051 11.3983 495.632 11.173C496.213 10.939 496.845 10.822 497.53 10.822C498.189 10.822 498.808 10.9347 499.389 11.16C499.97 11.3767 500.459 11.706 500.858 12.148L500.247 12.759C499.874 12.3777 499.463 12.1047 499.012 11.94C498.561 11.7667 498.076 11.68 497.556 11.68C497.01 11.68 496.503 11.7753 496.035 11.966C495.567 12.148 495.16 12.4123 494.813 12.759C494.466 13.097 494.193 13.4957 493.994 13.955C493.803 14.4057 493.708 14.904 493.708 15.45C493.708 15.996 493.803 16.4987 493.994 16.958C494.193 17.4087 494.466 17.8073 494.813 18.154C495.16 18.492 495.567 18.7563 496.035 18.947C496.503 19.129 497.01 19.22 497.556 19.22C498.076 19.22 498.561 19.1333 499.012 18.96C499.463 18.7867 499.874 18.5093 500.247 18.128L500.858 18.739C500.459 19.181 499.97 19.5147 499.389 19.74C498.808 19.9653 498.184 20.078 497.517 20.078ZM503.767 14.969H508.577V15.788H503.767V14.969ZM503.871 19.168H509.344V20H502.909V10.9H509.149V11.732H503.871V19.168ZM511.605 20V10.9H515.011C515.782 10.9 516.445 11.0257 517 11.277C517.555 11.5197 517.979 11.875 518.274 12.343C518.577 12.8023 518.729 13.3613 518.729 14.02C518.729 14.6613 518.577 15.216 518.274 15.684C517.979 16.1433 517.555 16.4987 517 16.75C516.445 16.9927 515.782 17.114 515.011 17.114H512.138L512.567 16.672V20H511.605ZM517.819 20L515.479 16.698H516.519L518.872 20H517.819ZM512.567 16.75L512.138 16.295H514.985C515.895 16.295 516.584 16.0957 517.052 15.697C517.529 15.2983 517.767 14.7393 517.767 14.02C517.767 13.292 517.529 12.7287 517.052 12.33C516.584 11.9313 515.895 11.732 514.985 11.732H512.138L512.567 11.277V16.75ZM523.509 20.078C522.833 20.078 522.183 19.9697 521.559 19.753C520.943 19.5277 520.467 19.2417 520.129 18.895L520.506 18.154C520.826 18.466 521.255 18.7303 521.793 18.947C522.339 19.155 522.911 19.259 523.509 19.259C524.081 19.259 524.544 19.1897 524.9 19.051C525.264 18.9037 525.528 18.7087 525.693 18.466C525.866 18.2233 525.953 17.9547 525.953 17.66C525.953 17.3047 525.849 17.0187 525.641 16.802C525.441 16.5853 525.177 16.4163 524.848 16.295C524.518 16.165 524.154 16.0523 523.756 15.957C523.357 15.8617 522.958 15.762 522.56 15.658C522.161 15.5453 521.793 15.398 521.455 15.216C521.125 15.034 520.857 14.7957 520.649 14.501C520.449 14.1977 520.35 13.8033 520.35 13.318C520.35 12.8673 520.467 12.4557 520.701 12.083C520.943 11.7017 521.312 11.3983 521.806 11.173C522.3 10.939 522.932 10.822 523.704 10.822C524.215 10.822 524.722 10.8957 525.225 11.043C525.727 11.1817 526.161 11.3767 526.525 11.628L526.2 12.395C525.81 12.135 525.394 11.9443 524.952 11.823C524.518 11.7017 524.098 11.641 523.691 11.641C523.145 11.641 522.694 11.7147 522.339 11.862C521.983 12.0093 521.719 12.2087 521.546 12.46C521.381 12.7027 521.299 12.98 521.299 13.292C521.299 13.6473 521.398 13.9333 521.598 14.15C521.806 14.3667 522.074 14.5357 522.404 14.657C522.742 14.7783 523.11 14.8867 523.509 14.982C523.907 15.0773 524.302 15.1813 524.692 15.294C525.09 15.4067 525.454 15.554 525.784 15.736C526.122 15.9093 526.39 16.1433 526.59 16.438C526.798 16.7327 526.902 17.1183 526.902 17.595C526.902 18.037 526.78 18.4487 526.538 18.83C526.295 19.2027 525.922 19.506 525.42 19.74C524.926 19.9653 524.289 20.078 523.509 20.078Z" fill="#454E5D"/>
<rect x="558" width="106" height="30" rx="15" fill="#E7E7E7"/>
<path d="M572.353 15.307H577.163V16.139H572.353V15.307ZM572.457 20H571.495V10.9H577.735V11.732H572.457V20ZM579.722 20V10.9H580.684V20H579.722ZM583.645 20V10.9H584.438L590.717 18.804H590.301V10.9H591.25V20H590.457L584.191 12.096H584.607V20H583.645ZM592.764 20L596.924 10.9H597.873L602.033 20H601.019L597.197 11.459H597.587L593.765 20H592.764ZM594.402 17.569L594.688 16.789H599.979L600.265 17.569H594.402ZM603.538 20V10.9H604.331L610.61 18.804H610.194V10.9H611.143V20H610.35L604.084 12.096H604.5V20H603.538ZM618.065 20.078C617.381 20.078 616.748 19.9653 616.167 19.74C615.587 19.506 615.084 19.181 614.659 18.765C614.235 18.349 613.901 17.8593 613.658 17.296C613.424 16.7327 613.307 16.1173 613.307 15.45C613.307 14.7827 613.424 14.1673 613.658 13.604C613.901 13.0407 614.235 12.551 614.659 12.135C615.093 11.719 615.6 11.3983 616.18 11.173C616.761 10.939 617.394 10.822 618.078 10.822C618.737 10.822 619.357 10.9347 619.937 11.16C620.518 11.3767 621.008 11.706 621.406 12.148L620.795 12.759C620.423 12.3777 620.011 12.1047 619.56 11.94C619.11 11.7667 618.624 11.68 618.104 11.68C617.558 11.68 617.051 11.7753 616.583 11.966C616.115 12.148 615.708 12.4123 615.361 12.759C615.015 13.097 614.742 13.4957 614.542 13.955C614.352 14.4057 614.256 14.904 614.256 15.45C614.256 15.996 614.352 16.4987 614.542 16.958C614.742 17.4087 615.015 17.8073 615.361 18.154C615.708 18.492 616.115 18.7563 616.583 18.947C617.051 19.129 617.558 19.22 618.104 19.22C618.624 19.22 619.11 19.1333 619.56 18.96C620.011 18.7867 620.423 18.5093 620.795 18.128L621.406 18.739C621.008 19.181 620.518 19.5147 619.937 19.74C619.357 19.9653 618.733 20.078 618.065 20.078ZM623.457 20V10.9H624.419V20H623.457ZM628.238 14.969H633.048V15.788H628.238V14.969ZM628.342 19.168H633.815V20H627.38V10.9H633.62V11.732H628.342V19.168ZM636.076 20V10.9H639.482C640.254 10.9 640.917 11.0257 641.471 11.277C642.026 11.5197 642.451 11.875 642.745 12.343C643.049 12.8023 643.2 13.3613 643.2 14.02C643.2 14.6613 643.049 15.216 642.745 15.684C642.451 16.1433 642.026 16.4987 641.471 16.75C640.917 16.9927 640.254 17.114 639.482 17.114H636.609L637.038 16.672V20H636.076ZM642.29 20L639.95 16.698H640.99L643.343 20H642.29ZM637.038 16.75L636.609 16.295H639.456C640.366 16.295 641.055 16.0957 641.523 15.697C642 15.2983 642.238 14.7393 642.238 14.02C642.238 13.292 642 12.7287 641.523 12.33C641.055 11.9313 640.366 11.732 639.456 11.732H636.609L637.038 11.277V16.75ZM647.98 20.078C647.304 20.078 646.654 19.9697 646.03 19.753C645.414 19.5277 644.938 19.2417 644.6 18.895L644.977 18.154C645.297 18.466 645.726 18.7303 646.264 18.947C646.81 19.155 647.382 19.259 647.98 19.259C648.552 19.259 649.015 19.1897 649.371 19.051C649.735 18.9037 649.999 18.7087 650.164 18.466C650.337 18.2233 650.424 17.9547 650.424 17.66C650.424 17.3047 650.32 17.0187 650.112 16.802C649.912 16.5853 649.648 16.4163 649.319 16.295C648.989 16.165 648.625 16.0523 648.227 15.957C647.828 15.8617 647.429 15.762 647.031 15.658C646.632 15.5453 646.264 15.398 645.926 15.216C645.596 15.034 645.328 14.7957 645.12 14.501C644.92 14.1977 644.821 13.8033 644.821 13.318C644.821 12.8673 644.938 12.4557 645.172 12.083C645.414 11.7017 645.783 11.3983 646.277 11.173C646.771 10.939 647.403 10.822 648.175 10.822C648.686 10.822 649.193 10.8957 649.696 11.043C650.198 11.1817 650.632 11.3767 650.996 11.628L650.671 12.395C650.281 12.135 649.865 11.9443 649.423 11.823C648.989 11.7017 648.569 11.641 648.162 11.641C647.616 11.641 647.165 11.7147 646.81 11.862C646.454 12.0093 646.19 12.2087 646.017 12.46C645.852 12.7027 645.77 12.98 645.77 13.292C645.77 13.6473 645.869 13.9333 646.069 14.15C646.277 14.3667 646.545 14.5357 646.875 14.657C647.213 14.7783 647.581 14.8867 647.98 14.982C648.378 15.0773 648.773 15.1813 649.163 15.294C649.561 15.4067 649.925 15.554 650.255 15.736C650.593 15.9093 650.861 16.1433 651.061 16.438C651.269 16.7327 651.373 17.1183 651.373 17.595C651.373 18.037 651.251 18.4487 651.009 18.83C650.766 19.2027 650.393 19.506 649.891 19.74C649.397 19.9653 648.76 20.078 647.98 20.078Z" fill="#454E5D"/>
<line x1="283.5" y1="30" x2="283.5" y2="-1.19209e-07" stroke="#1F2A3B"/>
</svg>
