<svg width="1418" height="52" viewBox="0 0 1418 52" fill="none" xmlns="http://www.w3.org/2000/svg">
<rect y="11" width="155" height="30" rx="15" fill="#3C64F7"/>
<path d="M13.7281 31V21.9H14.5211L18.6811 28.998H18.2651L22.3861 21.9H23.1791V31H22.2561V23.343H22.4771L18.6811 29.843H18.2261L14.4041 23.343H14.6511V31H13.7281ZM24.6881 31L28.8481 21.9H29.7971L33.9571 31H32.9431L29.1211 22.459H29.5111L25.6891 31H24.6881ZM26.3261 28.569L26.6121 27.789H31.9031L32.1891 28.569H26.3261ZM35.4625 31V21.9H36.4245V31H35.4625ZM39.3853 31V21.9H40.1783L46.4573 29.804H46.0413V21.9H46.9903V31H46.1973L39.9313 23.096H40.3473V31H39.3853ZM53.3629 31V21.9H57.0679C58.0385 21.9 58.8879 22.095 59.6159 22.485C60.3525 22.8663 60.9245 23.3993 61.3319 24.084C61.7392 24.7687 61.9429 25.5573 61.9429 26.45C61.9429 27.3427 61.7392 28.1313 61.3319 28.816C60.9245 29.5007 60.3525 30.038 59.6159 30.428C58.8879 30.8093 58.0385 31 57.0679 31H53.3629ZM54.3249 30.168H57.0159C57.8219 30.168 58.5195 30.012 59.1089 29.7C59.7069 29.3793 60.1705 28.9417 60.4999 28.387C60.8292 27.8237 60.9939 27.178 60.9939 26.45C60.9939 25.7133 60.8292 25.0677 60.4999 24.513C60.1705 23.9583 59.7069 23.525 59.1089 23.213C58.5195 22.8923 57.8219 22.732 57.0159 22.732H54.3249V30.168ZM64.1031 31V21.9H65.0651V31H64.1031ZM70.5349 31.078C69.8589 31.078 69.2089 30.9697 68.5849 30.753C67.9696 30.5277 67.4929 30.2417 67.1549 29.895L67.5319 29.154C67.8526 29.466 68.2816 29.7303 68.8189 29.947C69.3649 30.155 69.9369 30.259 70.5349 30.259C71.1069 30.259 71.5706 30.1897 71.9259 30.051C72.2899 29.9037 72.5543 29.7087 72.7189 29.466C72.8923 29.2233 72.9789 28.9547 72.9789 28.66C72.9789 28.3047 72.8749 28.0187 72.6669 27.802C72.4676 27.5853 72.2033 27.4163 71.8739 27.295C71.5446 27.165 71.1806 27.0523 70.7819 26.957C70.3833 26.8617 69.9846 26.762 69.5859 26.658C69.1873 26.5453 68.8189 26.398 68.4809 26.216C68.1516 26.034 67.8829 25.7957 67.6749 25.501C67.4756 25.1977 67.3759 24.8033 67.3759 24.318C67.3759 23.8673 67.4929 23.4557 67.7269 23.083C67.9696 22.7017 68.3379 22.3983 68.8319 22.173C69.3259 21.939 69.9586 21.822 70.7299 21.822C71.2413 21.822 71.7483 21.8957 72.2509 22.043C72.7536 22.1817 73.1869 22.3767 73.5509 22.628L73.2259 23.395C72.8359 23.135 72.4199 22.9443 71.9779 22.823C71.5446 22.7017 71.1243 22.641 70.7169 22.641C70.1709 22.641 69.7203 22.7147 69.3649 22.862C69.0096 23.0093 68.7453 23.2087 68.5719 23.46C68.4073 23.7027 68.3249 23.98 68.3249 24.292C68.3249 24.6473 68.4246 24.9333 68.6239 25.15C68.8319 25.3667 69.1006 25.5357 69.4299 25.657C69.7679 25.7783 70.1363 25.8867 70.5349 25.982C70.9336 26.0773 71.3279 26.1813 71.7179 26.294C72.1166 26.4067 72.4806 26.554 72.8099 26.736C73.1479 26.9093 73.4166 27.1433 73.6159 27.438C73.8239 27.7327 73.9279 28.1183 73.9279 28.595C73.9279 29.037 73.8066 29.4487 73.5639 29.83C73.3213 30.2027 72.9486 30.506 72.4459 30.74C71.9519 30.9653 71.3149 31.078 70.5349 31.078ZM77.665 31V22.732H74.467V21.9H81.825V22.732H78.627V31H77.665ZM83.3619 31V21.9H86.7679C87.5392 21.9 88.2022 22.0257 88.7569 22.277C89.3116 22.5197 89.7362 22.875 90.0309 23.343C90.3342 23.8023 90.4859 24.3613 90.4859 25.02C90.4859 25.6613 90.3342 26.216 90.0309 26.684C89.7362 27.1433 89.3116 27.4987 88.7569 27.75C88.2022 27.9927 87.5392 28.114 86.7679 28.114H83.8949L84.3239 27.672V31H83.3619ZM89.5759 31L87.2359 27.698H88.2759L90.6289 31H89.5759ZM84.3239 27.75L83.8949 27.295H86.7419C87.6519 27.295 88.3409 27.0957 88.8089 26.697C89.2855 26.2983 89.5239 25.7393 89.5239 25.02C89.5239 24.292 89.2855 23.7287 88.8089 23.33C88.3409 22.9313 87.6519 22.732 86.7419 22.732H83.8949L84.3239 22.277V27.75ZM92.7564 31V21.9H93.7184V31H92.7564ZM96.6793 31V21.9H100.605C101.619 21.9 102.404 22.1037 102.958 22.511C103.522 22.9183 103.803 23.4947 103.803 24.24C103.803 24.734 103.686 25.15 103.452 25.488C103.227 25.826 102.915 26.0817 102.516 26.255C102.126 26.4283 101.697 26.515 101.229 26.515L101.45 26.203C102.031 26.203 102.529 26.294 102.945 26.476C103.37 26.6493 103.699 26.9137 103.933 27.269C104.167 27.6157 104.284 28.049 104.284 28.569C104.284 29.3403 103.998 29.9383 103.426 30.363C102.863 30.7877 102.009 31 100.865 31H96.6793ZM97.6413 30.207H100.852C101.65 30.207 102.261 30.0727 102.685 29.804C103.11 29.5267 103.322 29.089 103.322 28.491C103.322 27.9017 103.11 27.4727 102.685 27.204C102.261 26.9267 101.65 26.788 100.852 26.788H97.5373V25.995H100.54C101.268 25.995 101.832 25.8563 102.23 25.579C102.638 25.3017 102.841 24.89 102.841 24.344C102.841 23.7893 102.638 23.3777 102.23 23.109C101.832 22.8317 101.268 22.693 100.54 22.693H97.6413V30.207ZM110.146 31.078C108.985 31.078 108.07 30.7443 107.403 30.077C106.736 29.4097 106.402 28.4217 106.402 27.113V21.9H107.364V27.074C107.364 28.1487 107.607 28.9417 108.092 29.453C108.577 29.9643 109.262 30.22 110.146 30.22C111.039 30.22 111.728 29.9643 112.213 29.453C112.698 28.9417 112.941 28.1487 112.941 27.074V21.9H113.877V27.113C113.877 28.4217 113.543 29.4097 112.876 30.077C112.217 30.7443 111.307 31.078 110.146 31.078ZM118.366 31V22.732H115.168V21.9H122.526V22.732H119.328V31H118.366ZM127.914 31.078C127.229 31.078 126.592 30.9653 126.003 30.74C125.422 30.506 124.915 30.181 124.482 29.765C124.057 29.3403 123.724 28.8507 123.481 28.296C123.247 27.7327 123.13 27.1173 123.13 26.45C123.13 25.7827 123.247 25.1717 123.481 24.617C123.724 24.0537 124.057 23.564 124.482 23.148C124.915 22.7233 125.422 22.3983 126.003 22.173C126.584 21.939 127.221 21.822 127.914 21.822C128.599 21.822 129.231 21.939 129.812 22.173C130.393 22.3983 130.895 22.719 131.32 23.135C131.753 23.551 132.087 24.0407 132.321 24.604C132.564 25.1673 132.685 25.7827 132.685 26.45C132.685 27.1173 132.564 27.7327 132.321 28.296C132.087 28.8593 131.753 29.349 131.32 29.765C130.895 30.181 130.393 30.506 129.812 30.74C129.231 30.9653 128.599 31.078 127.914 31.078ZM127.914 30.22C128.46 30.22 128.963 30.129 129.422 29.947C129.89 29.7563 130.293 29.492 130.631 29.154C130.978 28.8073 131.246 28.4087 131.437 27.958C131.628 27.4987 131.723 26.996 131.723 26.45C131.723 25.904 131.628 25.4057 131.437 24.955C131.246 24.4957 130.978 24.097 130.631 23.759C130.293 23.4123 129.89 23.148 129.422 22.966C128.963 22.7753 128.46 22.68 127.914 22.68C127.368 22.68 126.861 22.7753 126.393 22.966C125.925 23.148 125.518 23.4123 125.171 23.759C124.833 24.097 124.564 24.4957 124.365 24.955C124.174 25.4057 124.079 25.904 124.079 26.45C124.079 26.9873 124.174 27.4857 124.365 27.945C124.564 28.4043 124.833 28.8073 125.171 29.154C125.518 29.492 125.925 29.7563 126.393 29.947C126.861 30.129 127.368 30.22 127.914 30.22ZM134.841 31V21.9H138.247C139.019 21.9 139.682 22.0257 140.236 22.277C140.791 22.5197 141.216 22.875 141.51 23.343C141.814 23.8023 141.965 24.3613 141.965 25.02C141.965 25.6613 141.814 26.216 141.51 26.684C141.216 27.1433 140.791 27.4987 140.236 27.75C139.682 27.9927 139.019 28.114 138.247 28.114H135.374L135.803 27.672V31H134.841ZM141.055 31L138.715 27.698H139.755L142.108 31H141.055ZM135.803 27.75L135.374 27.295H138.221C139.131 27.295 139.82 27.0957 140.288 26.697C140.765 26.2983 141.003 25.7393 141.003 25.02C141.003 24.292 140.765 23.7287 140.288 23.33C139.82 22.9313 139.131 22.732 138.221 22.732H135.374L135.803 22.277V27.75Z" fill="#F4F4F4"/>
<rect x="178" y="11" width="123" height="30" rx="15" fill="#E7E7E7"/>
<path d="M194.036 31.078C193.36 31.078 192.71 30.9697 192.086 30.753C191.471 30.5277 190.994 30.2417 190.656 29.895L191.033 29.154C191.354 29.466 191.783 29.7303 192.32 29.947C192.866 30.155 193.438 30.259 194.036 30.259C194.608 30.259 195.072 30.1897 195.427 30.051C195.791 29.9037 196.056 29.7087 196.22 29.466C196.394 29.2233 196.48 28.9547 196.48 28.66C196.48 28.3047 196.376 28.0187 196.168 27.802C195.969 27.5853 195.705 27.4163 195.375 27.295C195.046 27.165 194.682 27.0523 194.283 26.957C193.885 26.8617 193.486 26.762 193.087 26.658C192.689 26.5453 192.32 26.398 191.982 26.216C191.653 26.034 191.384 25.7957 191.176 25.501C190.977 25.1977 190.877 24.8033 190.877 24.318C190.877 23.8673 190.994 23.4557 191.228 23.083C191.471 22.7017 191.839 22.3983 192.333 22.173C192.827 21.939 193.46 21.822 194.231 21.822C194.743 21.822 195.25 21.8957 195.752 22.043C196.255 22.1817 196.688 22.3767 197.052 22.628L196.727 23.395C196.337 23.135 195.921 22.9443 195.479 22.823C195.046 22.7017 194.626 22.641 194.218 22.641C193.672 22.641 193.222 22.7147 192.866 22.862C192.511 23.0093 192.247 23.2087 192.073 23.46C191.909 23.7027 191.826 23.98 191.826 24.292C191.826 24.6473 191.926 24.9333 192.125 25.15C192.333 25.3667 192.602 25.5357 192.931 25.657C193.269 25.7783 193.638 25.8867 194.036 25.982C194.435 26.0773 194.829 26.1813 195.219 26.294C195.618 26.4067 195.982 26.554 196.311 26.736C196.649 26.9093 196.918 27.1433 197.117 27.438C197.325 27.7327 197.429 28.1183 197.429 28.595C197.429 29.037 197.308 29.4487 197.065 29.83C196.823 30.2027 196.45 30.506 195.947 30.74C195.453 30.9653 194.816 31.078 194.036 31.078ZM198.069 31L202.229 21.9H203.178L207.338 31H206.324L202.502 22.459H202.892L199.07 31H198.069ZM199.707 28.569L199.993 27.789H205.284L205.57 28.569H199.707ZM208.844 31V21.9H209.806V30.168H214.902V31H208.844ZM217.357 25.969H222.167V26.788H217.357V25.969ZM217.461 30.168H222.934V31H216.499V21.9H222.739V22.732H217.461V30.168ZM227.704 31.078C227.028 31.078 226.378 30.9697 225.754 30.753C225.139 30.5277 224.662 30.2417 224.324 29.895L224.701 29.154C225.022 29.466 225.451 29.7303 225.988 29.947C226.534 30.155 227.106 30.259 227.704 30.259C228.276 30.259 228.74 30.1897 229.095 30.051C229.459 29.9037 229.724 29.7087 229.888 29.466C230.062 29.2233 230.148 28.9547 230.148 28.66C230.148 28.3047 230.044 28.0187 229.836 27.802C229.637 27.5853 229.373 27.4163 229.043 27.295C228.714 27.165 228.35 27.0523 227.951 26.957C227.553 26.8617 227.154 26.762 226.755 26.658C226.357 26.5453 225.988 26.398 225.65 26.216C225.321 26.034 225.052 25.7957 224.844 25.501C224.645 25.1977 224.545 24.8033 224.545 24.318C224.545 23.8673 224.662 23.4557 224.896 23.083C225.139 22.7017 225.507 22.3983 226.001 22.173C226.495 21.939 227.128 21.822 227.899 21.822C228.411 21.822 228.918 21.8957 229.42 22.043C229.923 22.1817 230.356 22.3767 230.72 22.628L230.395 23.395C230.005 23.135 229.589 22.9443 229.147 22.823C228.714 22.7017 228.294 22.641 227.886 22.641C227.34 22.641 226.89 22.7147 226.534 22.862C226.179 23.0093 225.915 23.2087 225.741 23.46C225.577 23.7027 225.494 23.98 225.494 24.292C225.494 24.6473 225.594 24.9333 225.793 25.15C226.001 25.3667 226.27 25.5357 226.599 25.657C226.937 25.7783 227.306 25.8867 227.704 25.982C228.103 26.0773 228.497 26.1813 228.887 26.294C229.286 26.4067 229.65 26.554 229.979 26.736C230.317 26.9093 230.586 27.1433 230.785 27.438C230.993 27.7327 231.097 28.1183 231.097 28.595C231.097 29.037 230.976 29.4487 230.733 29.83C230.491 30.2027 230.118 30.506 229.615 30.74C229.121 30.9653 228.484 31.078 227.704 31.078ZM235.14 31L239.3 21.9H240.249L244.409 31H243.395L239.573 22.459H239.963L236.141 31H235.14ZM236.778 28.569L237.064 27.789H242.355L242.641 28.569H236.778ZM249.778 31.078C249.085 31.078 248.444 30.9653 247.854 30.74C247.274 30.506 246.767 30.181 246.333 29.765C245.909 29.349 245.575 28.8593 245.332 28.296C245.098 27.7327 244.981 27.1173 244.981 26.45C244.981 25.7827 245.098 25.1673 245.332 24.604C245.575 24.0407 245.913 23.551 246.346 23.135C246.78 22.719 247.287 22.3983 247.867 22.173C248.457 21.939 249.098 21.822 249.791 21.822C250.485 21.822 251.117 21.9303 251.689 22.147C252.27 22.3637 252.764 22.693 253.171 23.135L252.573 23.746C252.192 23.3647 251.772 23.0917 251.312 22.927C250.853 22.7623 250.359 22.68 249.83 22.68C249.267 22.68 248.747 22.7753 248.27 22.966C247.802 23.148 247.391 23.4123 247.035 23.759C246.689 24.097 246.416 24.4957 246.216 24.955C246.026 25.4057 245.93 25.904 245.93 26.45C245.93 26.9873 246.026 27.4857 246.216 27.945C246.416 28.4043 246.689 28.8073 247.035 29.154C247.391 29.492 247.802 29.7563 248.27 29.947C248.747 30.129 249.263 30.22 249.817 30.22C250.337 30.22 250.827 30.142 251.286 29.986C251.754 29.83 252.183 29.5657 252.573 29.193L253.119 29.921C252.686 30.3023 252.179 30.5927 251.598 30.792C251.018 30.9827 250.411 31.078 249.778 31.078ZM252.196 29.804V26.45H253.119V29.921L252.196 29.804ZM256.7 25.969H261.51V26.788H256.7V25.969ZM256.804 30.168H262.277V31H255.842V21.9H262.082V22.732H256.804V30.168ZM264.538 31V21.9H265.331L271.61 29.804H271.194V21.9H272.143V31H271.35L265.084 23.096H265.5V31H264.538ZM276.881 31V22.732H273.683V21.9H281.041V22.732H277.843V31H276.881ZM284.948 31.078C284.272 31.078 283.622 30.9697 282.998 30.753C282.382 30.5277 281.906 30.2417 281.568 29.895L281.945 29.154C282.265 29.466 282.694 29.7303 283.232 29.947C283.778 30.155 284.35 30.259 284.948 30.259C285.52 30.259 285.983 30.1897 286.339 30.051C286.703 29.9037 286.967 29.7087 287.132 29.466C287.305 29.2233 287.392 28.9547 287.392 28.66C287.392 28.3047 287.288 28.0187 287.08 27.802C286.88 27.5853 286.616 27.4163 286.287 27.295C285.957 27.165 285.593 27.0523 285.195 26.957C284.796 26.8617 284.397 26.762 283.999 26.658C283.6 26.5453 283.232 26.398 282.894 26.216C282.564 26.034 282.296 25.7957 282.088 25.501C281.888 25.1977 281.789 24.8033 281.789 24.318C281.789 23.8673 281.906 23.4557 282.14 23.083C282.382 22.7017 282.751 22.3983 283.245 22.173C283.739 21.939 284.371 21.822 285.143 21.822C285.654 21.822 286.161 21.8957 286.664 22.043C287.166 22.1817 287.6 22.3767 287.964 22.628L287.639 23.395C287.249 23.135 286.833 22.9443 286.391 22.823C285.957 22.7017 285.537 22.641 285.13 22.641C284.584 22.641 284.133 22.7147 283.778 22.862C283.422 23.0093 283.158 23.2087 282.985 23.46C282.82 23.7027 282.738 23.98 282.738 24.292C282.738 24.6473 282.837 24.9333 283.037 25.15C283.245 25.3667 283.513 25.5357 283.843 25.657C284.181 25.7783 284.549 25.8867 284.948 25.982C285.346 26.0773 285.741 26.1813 286.131 26.294C286.529 26.4067 286.893 26.554 287.223 26.736C287.561 26.9093 287.829 27.1433 288.029 27.438C288.237 27.7327 288.341 28.1183 288.341 28.595C288.341 29.037 288.219 29.4487 287.977 29.83C287.734 30.2027 287.361 30.506 286.859 30.74C286.365 30.9653 285.728 31.078 284.948 31.078Z" fill="#454E5D"/>
<rect x="324" y="11" width="119" height="30" rx="15" fill="#E7E7E7"/>
<path d="M337.736 31V21.9H341.441C342.412 21.9 343.261 22.095 343.989 22.485C344.726 22.8663 345.298 23.3993 345.705 24.084C346.113 24.7687 346.316 25.5573 346.316 26.45C346.316 27.3427 346.113 28.1313 345.705 28.816C345.298 29.5007 344.726 30.038 343.989 30.428C343.261 30.8093 342.412 31 341.441 31H337.736ZM338.698 30.168H341.389C342.195 30.168 342.893 30.012 343.482 29.7C344.08 29.3793 344.544 28.9417 344.873 28.387C345.203 27.8237 345.367 27.178 345.367 26.45C345.367 25.7133 345.203 25.0677 344.873 24.513C344.544 23.9583 344.08 23.525 343.482 23.213C342.893 22.8923 342.195 22.732 341.389 22.732H338.698V30.168ZM348.477 31V21.9H349.439V31H348.477ZM352.399 31V21.9H355.805C356.577 21.9 357.24 22.0257 357.794 22.277C358.349 22.5197 358.774 22.875 359.068 23.343C359.372 23.8023 359.523 24.3613 359.523 25.02C359.523 25.6613 359.372 26.216 359.068 26.684C358.774 27.1433 358.349 27.4987 357.794 27.75C357.24 27.9927 356.577 28.114 355.805 28.114H352.932L353.361 27.672V31H352.399ZM358.613 31L356.273 27.698H357.313L359.666 31H358.613ZM353.361 27.75L352.932 27.295H355.779C356.689 27.295 357.378 27.0957 357.846 26.697C358.323 26.2983 358.561 25.7393 358.561 25.02C358.561 24.292 358.323 23.7287 357.846 23.33C357.378 22.9313 356.689 22.732 355.779 22.732H352.932L353.361 22.277V27.75ZM362.652 25.969H367.462V26.788H362.652V25.969ZM362.756 30.168H368.229V31H361.794V21.9H368.034V22.732H362.756V30.168ZM374.417 31.078C373.732 31.078 373.1 30.9653 372.519 30.74C371.938 30.506 371.436 30.181 371.011 29.765C370.586 29.349 370.253 28.8593 370.01 28.296C369.776 27.7327 369.659 27.1173 369.659 26.45C369.659 25.7827 369.776 25.1673 370.01 24.604C370.253 24.0407 370.586 23.551 371.011 23.135C371.444 22.719 371.951 22.3983 372.532 22.173C373.113 21.939 373.745 21.822 374.43 21.822C375.089 21.822 375.708 21.9347 376.289 22.16C376.87 22.3767 377.359 22.706 377.758 23.148L377.147 23.759C376.774 23.3777 376.363 23.1047 375.912 22.94C375.461 22.7667 374.976 22.68 374.456 22.68C373.91 22.68 373.403 22.7753 372.935 22.966C372.467 23.148 372.06 23.4123 371.713 23.759C371.366 24.097 371.093 24.4957 370.894 24.955C370.703 25.4057 370.608 25.904 370.608 26.45C370.608 26.996 370.703 27.4987 370.894 27.958C371.093 28.4087 371.366 28.8073 371.713 29.154C372.06 29.492 372.467 29.7563 372.935 29.947C373.403 30.129 373.91 30.22 374.456 30.22C374.976 30.22 375.461 30.1333 375.912 29.96C376.363 29.7867 376.774 29.5093 377.147 29.128L377.758 29.739C377.359 30.181 376.87 30.5147 376.289 30.74C375.708 30.9653 375.084 31.078 374.417 31.078ZM381.462 31V22.732H378.264V21.9H385.622V22.732H382.424V31H381.462ZM393.071 31.078C392.395 31.078 391.745 30.9697 391.121 30.753C390.505 30.5277 390.029 30.2417 389.691 29.895L390.068 29.154C390.388 29.466 390.817 29.7303 391.355 29.947C391.901 30.155 392.473 30.259 393.071 30.259C393.643 30.259 394.106 30.1897 394.462 30.051C394.826 29.9037 395.09 29.7087 395.255 29.466C395.428 29.2233 395.515 28.9547 395.515 28.66C395.515 28.3047 395.411 28.0187 395.203 27.802C395.003 27.5853 394.739 27.4163 394.41 27.295C394.08 27.165 393.716 27.0523 393.318 26.957C392.919 26.8617 392.52 26.762 392.122 26.658C391.723 26.5453 391.355 26.398 391.017 26.216C390.687 26.034 390.419 25.7957 390.211 25.501C390.011 25.1977 389.912 24.8033 389.912 24.318C389.912 23.8673 390.029 23.4557 390.263 23.083C390.505 22.7017 390.874 22.3983 391.368 22.173C391.862 21.939 392.494 21.822 393.266 21.822C393.777 21.822 394.284 21.8957 394.787 22.043C395.289 22.1817 395.723 22.3767 396.087 22.628L395.762 23.395C395.372 23.135 394.956 22.9443 394.514 22.823C394.08 22.7017 393.66 22.641 393.253 22.641C392.707 22.641 392.256 22.7147 391.901 22.862C391.545 23.0093 391.281 23.2087 391.108 23.46C390.943 23.7027 390.861 23.98 390.861 24.292C390.861 24.6473 390.96 24.9333 391.16 25.15C391.368 25.3667 391.636 25.5357 391.966 25.657C392.304 25.7783 392.672 25.8867 393.071 25.982C393.469 26.0773 393.864 26.1813 394.254 26.294C394.652 26.4067 395.016 26.554 395.346 26.736C395.684 26.9093 395.952 27.1433 396.152 27.438C396.36 27.7327 396.464 28.1183 396.464 28.595C396.464 29.037 396.342 29.4487 396.1 29.83C395.857 30.2027 395.484 30.506 394.982 30.74C394.488 30.9653 393.851 31.078 393.071 31.078ZM397.104 31L401.264 21.9H402.213L406.373 31H405.359L401.537 22.459H401.927L398.105 31H397.104ZM398.742 28.569L399.028 27.789H404.319L404.605 28.569H398.742ZM407.878 31V21.9H408.84V30.168H413.936V31H407.878ZM416.391 25.969H421.201V26.788H416.391V25.969ZM416.495 30.168H421.968V31H415.533V21.9H421.773V22.732H416.495V30.168ZM426.739 31.078C426.063 31.078 425.413 30.9697 424.789 30.753C424.173 30.5277 423.697 30.2417 423.359 29.895L423.736 29.154C424.056 29.466 424.485 29.7303 425.023 29.947C425.569 30.155 426.141 30.259 426.739 30.259C427.311 30.259 427.774 30.1897 428.13 30.051C428.494 29.9037 428.758 29.7087 428.923 29.466C429.096 29.2233 429.183 28.9547 429.183 28.66C429.183 28.3047 429.079 28.0187 428.871 27.802C428.671 27.5853 428.407 27.4163 428.078 27.295C427.748 27.165 427.384 27.0523 426.986 26.957C426.587 26.8617 426.188 26.762 425.79 26.658C425.391 26.5453 425.023 26.398 424.685 26.216C424.355 26.034 424.087 25.7957 423.879 25.501C423.679 25.1977 423.58 24.8033 423.58 24.318C423.58 23.8673 423.697 23.4557 423.931 23.083C424.173 22.7017 424.542 22.3983 425.036 22.173C425.53 21.939 426.162 21.822 426.934 21.822C427.445 21.822 427.952 21.8957 428.455 22.043C428.957 22.1817 429.391 22.3767 429.755 22.628L429.43 23.395C429.04 23.135 428.624 22.9443 428.182 22.823C427.748 22.7017 427.328 22.641 426.921 22.641C426.375 22.641 425.924 22.7147 425.569 22.862C425.213 23.0093 424.949 23.2087 424.776 23.46C424.611 23.7027 424.529 23.98 424.529 24.292C424.529 24.6473 424.628 24.9333 424.828 25.15C425.036 25.3667 425.304 25.5357 425.634 25.657C425.972 25.7783 426.34 25.8867 426.739 25.982C427.137 26.0773 427.532 26.1813 427.922 26.294C428.32 26.4067 428.684 26.554 429.014 26.736C429.352 26.9093 429.62 27.1433 429.82 27.438C430.028 27.7327 430.132 28.1183 430.132 28.595C430.132 29.037 430.01 29.4487 429.768 29.83C429.525 30.2027 429.152 30.506 428.65 30.74C428.156 30.9653 427.519 31.078 426.739 31.078Z" fill="#454E5D"/>
<rect x="466" y="11" width="189" height="30" rx="15" fill="#FFB7B0"/>
<path d="M483.866 31.078C483.181 31.078 482.544 30.9653 481.955 30.74C481.374 30.506 480.867 30.181 480.434 29.765C480.009 29.3403 479.675 28.8507 479.433 28.296C479.199 27.7327 479.082 27.1173 479.082 26.45C479.082 25.7827 479.199 25.1717 479.433 24.617C479.675 24.0537 480.009 23.564 480.434 23.148C480.867 22.7233 481.374 22.3983 481.955 22.173C482.535 21.939 483.172 21.822 483.866 21.822C484.55 21.822 485.183 21.939 485.764 22.173C486.344 22.3983 486.847 22.719 487.272 23.135C487.705 23.551 488.039 24.0407 488.273 24.604C488.515 25.1673 488.637 25.7827 488.637 26.45C488.637 27.1173 488.515 27.7327 488.273 28.296C488.039 28.8593 487.705 29.349 487.272 29.765C486.847 30.181 486.344 30.506 485.764 30.74C485.183 30.9653 484.55 31.078 483.866 31.078ZM483.866 30.22C484.412 30.22 484.914 30.129 485.374 29.947C485.842 29.7563 486.245 29.492 486.583 29.154C486.929 28.8073 487.198 28.4087 487.389 27.958C487.579 27.4987 487.675 26.996 487.675 26.45C487.675 25.904 487.579 25.4057 487.389 24.955C487.198 24.4957 486.929 24.097 486.583 23.759C486.245 23.4123 485.842 23.148 485.374 22.966C484.914 22.7753 484.412 22.68 483.866 22.68C483.32 22.68 482.813 22.7753 482.345 22.966C481.877 23.148 481.469 23.4123 481.123 23.759C480.785 24.097 480.516 24.4957 480.317 24.955C480.126 25.4057 480.031 25.904 480.031 26.45C480.031 26.9873 480.126 27.4857 480.317 27.945C480.516 28.4043 480.785 28.8073 481.123 29.154C481.469 29.492 481.877 29.7563 482.345 29.947C482.813 30.129 483.32 30.22 483.866 30.22ZM494.459 31.078C493.298 31.078 492.383 30.7443 491.716 30.077C491.049 29.4097 490.715 28.4217 490.715 27.113V21.9H491.677V27.074C491.677 28.1487 491.92 28.9417 492.405 29.453C492.89 29.9643 493.575 30.22 494.459 30.22C495.352 30.22 496.041 29.9643 496.526 29.453C497.011 28.9417 497.254 28.1487 497.254 27.074V21.9H498.19V27.113C498.19 28.4217 497.856 29.4097 497.189 30.077C496.53 30.7443 495.62 31.078 494.459 31.078ZM502.679 31V22.732H499.481V21.9H506.839V22.732H503.641V31H502.679ZM512.24 31.078C511.547 31.078 510.905 30.9653 510.316 30.74C509.735 30.506 509.228 30.181 508.795 29.765C508.37 29.349 508.037 28.8593 507.794 28.296C507.56 27.7327 507.443 27.1173 507.443 26.45C507.443 25.7827 507.56 25.1673 507.794 24.604C508.037 24.0407 508.375 23.551 508.808 23.135C509.241 22.719 509.748 22.3983 510.329 22.173C510.918 21.939 511.56 21.822 512.253 21.822C512.946 21.822 513.579 21.9303 514.151 22.147C514.732 22.3637 515.226 22.693 515.633 23.135L515.035 23.746C514.654 23.3647 514.233 23.0917 513.774 22.927C513.315 22.7623 512.821 22.68 512.292 22.68C511.729 22.68 511.209 22.7753 510.732 22.966C510.264 23.148 509.852 23.4123 509.497 23.759C509.15 24.097 508.877 24.4957 508.678 24.955C508.487 25.4057 508.392 25.904 508.392 26.45C508.392 26.9873 508.487 27.4857 508.678 27.945C508.877 28.4043 509.15 28.8073 509.497 29.154C509.852 29.492 510.264 29.7563 510.732 29.947C511.209 30.129 511.724 30.22 512.279 30.22C512.799 30.22 513.289 30.142 513.748 29.986C514.216 29.83 514.645 29.5657 515.035 29.193L515.581 29.921C515.148 30.3023 514.641 30.5927 514.06 30.792C513.479 30.9827 512.873 31.078 512.24 31.078ZM514.658 29.804V26.45H515.581V29.921L514.658 29.804ZM522.282 31.078C521.597 31.078 520.96 30.9653 520.371 30.74C519.79 30.506 519.283 30.181 518.85 29.765C518.425 29.3403 518.091 28.8507 517.849 28.296C517.615 27.7327 517.498 27.1173 517.498 26.45C517.498 25.7827 517.615 25.1717 517.849 24.617C518.091 24.0537 518.425 23.564 518.85 23.148C519.283 22.7233 519.79 22.3983 520.371 22.173C520.951 21.939 521.588 21.822 522.282 21.822C522.966 21.822 523.599 21.939 524.18 22.173C524.76 22.3983 525.263 22.719 525.688 23.135C526.121 23.551 526.455 24.0407 526.689 24.604C526.931 25.1673 527.053 25.7827 527.053 26.45C527.053 27.1173 526.931 27.7327 526.689 28.296C526.455 28.8593 526.121 29.349 525.688 29.765C525.263 30.181 524.76 30.506 524.18 30.74C523.599 30.9653 522.966 31.078 522.282 31.078ZM522.282 30.22C522.828 30.22 523.33 30.129 523.79 29.947C524.258 29.7563 524.661 29.492 524.999 29.154C525.345 28.8073 525.614 28.4087 525.805 27.958C525.995 27.4987 526.091 26.996 526.091 26.45C526.091 25.904 525.995 25.4057 525.805 24.955C525.614 24.4957 525.345 24.097 524.999 23.759C524.661 23.4123 524.258 23.148 523.79 22.966C523.33 22.7753 522.828 22.68 522.282 22.68C521.736 22.68 521.229 22.7753 520.761 22.966C520.293 23.148 519.885 23.4123 519.539 23.759C519.201 24.097 518.932 24.4957 518.733 24.955C518.542 25.4057 518.447 25.904 518.447 26.45C518.447 26.9873 518.542 27.4857 518.733 27.945C518.932 28.4043 519.201 28.8073 519.539 29.154C519.885 29.492 520.293 29.7563 520.761 29.947C521.229 30.129 521.736 30.22 522.282 30.22ZM529.209 31V21.9H530.171V31H529.209ZM533.132 31V21.9H533.925L540.204 29.804H539.788V21.9H540.737V31H539.944L533.678 23.096H534.094V31H533.132ZM547.698 31.078C547.005 31.078 546.363 30.9653 545.774 30.74C545.193 30.506 544.686 30.181 544.253 29.765C543.828 29.349 543.495 28.8593 543.252 28.296C543.018 27.7327 542.901 27.1173 542.901 26.45C542.901 25.7827 543.018 25.1673 543.252 24.604C543.495 24.0407 543.833 23.551 544.266 23.135C544.699 22.719 545.206 22.3983 545.787 22.173C546.376 21.939 547.018 21.822 547.711 21.822C548.404 21.822 549.037 21.9303 549.609 22.147C550.19 22.3637 550.684 22.693 551.091 23.135L550.493 23.746C550.112 23.3647 549.691 23.0917 549.232 22.927C548.773 22.7623 548.279 22.68 547.75 22.68C547.187 22.68 546.667 22.7753 546.19 22.966C545.722 23.148 545.31 23.4123 544.955 23.759C544.608 24.097 544.335 24.4957 544.136 24.955C543.945 25.4057 543.85 25.904 543.85 26.45C543.85 26.9873 543.945 27.4857 544.136 27.945C544.335 28.4043 544.608 28.8073 544.955 29.154C545.31 29.492 545.722 29.7563 546.19 29.947C546.667 30.129 547.182 30.22 547.737 30.22C548.257 30.22 548.747 30.142 549.206 29.986C549.674 29.83 550.103 29.5657 550.493 29.193L551.039 29.921C550.606 30.3023 550.099 30.5927 549.518 30.792C548.937 30.9827 548.331 31.078 547.698 31.078ZM550.116 29.804V26.45H551.039V29.921L550.116 29.804ZM559.673 31.078C558.997 31.078 558.347 30.9697 557.723 30.753C557.108 30.5277 556.631 30.2417 556.293 29.895L556.67 29.154C556.991 29.466 557.42 29.7303 557.957 29.947C558.503 30.155 559.075 30.259 559.673 30.259C560.245 30.259 560.709 30.1897 561.064 30.051C561.428 29.9037 561.692 29.7087 561.857 29.466C562.03 29.2233 562.117 28.9547 562.117 28.66C562.117 28.3047 562.013 28.0187 561.805 27.802C561.606 27.5853 561.341 27.4163 561.012 27.295C560.683 27.165 560.319 27.0523 559.92 26.957C559.521 26.8617 559.123 26.762 558.724 26.658C558.325 26.5453 557.957 26.398 557.619 26.216C557.29 26.034 557.021 25.7957 556.813 25.501C556.614 25.1977 556.514 24.8033 556.514 24.318C556.514 23.8673 556.631 23.4557 556.865 23.083C557.108 22.7017 557.476 22.3983 557.97 22.173C558.464 21.939 559.097 21.822 559.868 21.822C560.379 21.822 560.886 21.8957 561.389 22.043C561.892 22.1817 562.325 22.3767 562.689 22.628L562.364 23.395C561.974 23.135 561.558 22.9443 561.116 22.823C560.683 22.7017 560.262 22.641 559.855 22.641C559.309 22.641 558.858 22.7147 558.503 22.862C558.148 23.0093 557.883 23.2087 557.71 23.46C557.545 23.7027 557.463 23.98 557.463 24.292C557.463 24.6473 557.563 24.9333 557.762 25.15C557.97 25.3667 558.239 25.5357 558.568 25.657C558.906 25.7783 559.274 25.8867 559.673 25.982C560.072 26.0773 560.466 26.1813 560.856 26.294C561.255 26.4067 561.619 26.554 561.948 26.736C562.286 26.9093 562.555 27.1433 562.754 27.438C562.962 27.7327 563.066 28.1183 563.066 28.595C563.066 29.037 562.945 29.4487 562.702 29.83C562.459 30.2027 562.087 30.506 561.584 30.74C561.09 30.9653 560.453 31.078 559.673 31.078ZM566.803 31V22.732H563.605V21.9H570.963V22.732H567.765V31H566.803ZM570.587 31L574.747 21.9H575.696L579.856 31H578.842L575.02 22.459H575.41L571.588 31H570.587ZM572.225 28.569L572.511 27.789H577.802L578.088 28.569H572.225ZM582.672 31V22.732H579.474V21.9H586.832V22.732H583.634V31H582.672ZM589.227 25.969H594.037V26.788H589.227V25.969ZM589.331 30.168H594.804V31H588.369V21.9H594.609V22.732H589.331V30.168ZM597.065 31V21.9H597.858L602.018 28.998H601.602L605.723 21.9H606.516V31H605.593V23.343H605.814L602.018 29.843H601.563L597.741 23.343H597.988V31H597.065ZM610.34 25.969H615.15V26.788H610.34V25.969ZM610.444 30.168H615.917V31H609.482V21.9H615.722V22.732H610.444V30.168ZM618.178 31V21.9H618.971L625.25 29.804H624.834V21.9H625.783V31H624.99L618.724 23.096H619.14V31H618.178ZM630.521 31V22.732H627.323V21.9H634.681V22.732H631.483V31H630.521ZM638.587 31.078C637.911 31.078 637.261 30.9697 636.637 30.753C636.022 30.5277 635.545 30.2417 635.207 29.895L635.584 29.154C635.905 29.466 636.334 29.7303 636.871 29.947C637.417 30.155 637.989 30.259 638.587 30.259C639.159 30.259 639.623 30.1897 639.978 30.051C640.342 29.9037 640.607 29.7087 640.771 29.466C640.945 29.2233 641.031 28.9547 641.031 28.66C641.031 28.3047 640.927 28.0187 640.719 27.802C640.52 27.5853 640.256 27.4163 639.926 27.295C639.597 27.165 639.233 27.0523 638.834 26.957C638.436 26.8617 638.037 26.762 637.638 26.658C637.24 26.5453 636.871 26.398 636.533 26.216C636.204 26.034 635.935 25.7957 635.727 25.501C635.528 25.1977 635.428 24.8033 635.428 24.318C635.428 23.8673 635.545 23.4557 635.779 23.083C636.022 22.7017 636.39 22.3983 636.884 22.173C637.378 21.939 638.011 21.822 638.782 21.822C639.294 21.822 639.801 21.8957 640.303 22.043C640.806 22.1817 641.239 22.3767 641.603 22.628L641.278 23.395C640.888 23.135 640.472 22.9443 640.03 22.823C639.597 22.7017 639.177 22.641 638.769 22.641C638.223 22.641 637.773 22.7147 637.417 22.862C637.062 23.0093 636.798 23.2087 636.624 23.46C636.46 23.7027 636.377 23.98 636.377 24.292C636.377 24.6473 636.477 24.9333 636.676 25.15C636.884 25.3667 637.153 25.5357 637.482 25.657C637.82 25.7783 638.189 25.8867 638.587 25.982C638.986 26.0773 639.38 26.1813 639.77 26.294C640.169 26.4067 640.533 26.554 640.862 26.736C641.2 26.9093 641.469 27.1433 641.668 27.438C641.876 27.7327 641.98 28.1183 641.98 28.595C641.98 29.037 641.859 29.4487 641.616 29.83C641.374 30.2027 641.001 30.506 640.498 30.74C640.004 30.9653 639.367 31.078 638.587 31.078Z" fill="#454E5D"/>
<line x1="312.5" y1="41" x2="312.5" y2="11" stroke="#1F2A3B"/>
<line x1="455.5" y1="41" x2="455.5" y2="11" stroke="#1F2A3B"/>
<rect width="252" height="52" transform="translate(1132)" fill="white"/>
<rect x="1132" width="252" height="52" rx="26" fill="#3C64F7"/>
<path d="M1163.06 32.16C1162.21 32.16 1161.41 32.0213 1160.68 31.744C1159.95 31.456 1159.32 31.056 1158.77 30.544C1158.24 30.0213 1157.82 29.408 1157.53 28.704C1157.23 28 1157.08 27.232 1157.08 26.4C1157.08 25.568 1157.23 24.8 1157.53 24.096C1157.82 23.392 1158.25 22.784 1158.79 22.272C1159.33 21.7493 1159.97 21.3493 1160.69 21.072C1161.42 20.784 1162.21 20.64 1163.08 20.64C1163.99 20.64 1164.83 20.8 1165.59 21.12C1166.35 21.4293 1166.99 21.8933 1167.51 22.512L1166.17 23.776C1165.76 23.3387 1165.31 23.0133 1164.81 22.8C1164.3 22.576 1163.76 22.464 1163.17 22.464C1162.59 22.464 1162.05 22.56 1161.56 22.752C1161.08 22.944 1160.66 23.216 1160.29 23.568C1159.94 23.92 1159.66 24.336 1159.46 24.816C1159.27 25.296 1159.17 25.824 1159.17 26.4C1159.17 26.976 1159.27 27.504 1159.46 27.984C1159.66 28.464 1159.94 28.88 1160.29 29.232C1160.66 29.584 1161.08 29.856 1161.56 30.048C1162.05 30.24 1162.59 30.336 1163.17 30.336C1163.76 30.336 1164.3 30.2293 1164.81 30.016C1165.31 29.792 1165.76 29.456 1166.17 29.008L1167.51 30.288C1166.99 30.896 1166.35 31.36 1165.59 31.68C1164.83 32 1163.99 32.16 1163.06 32.16ZM1174.08 23.36C1174.76 23.36 1175.37 23.4933 1175.9 23.76C1176.45 24.0267 1176.87 24.4373 1177.18 24.992C1177.49 25.536 1177.65 26.24 1177.65 27.104V32H1175.65V27.36C1175.65 26.6027 1175.46 26.0373 1175.1 25.664C1174.75 25.2907 1174.25 25.104 1173.61 25.104C1173.14 25.104 1172.73 25.2 1172.37 25.392C1172 25.584 1171.72 25.872 1171.52 26.256C1171.33 26.6293 1171.23 27.104 1171.23 27.68V32H1169.23V20.128H1171.23V25.76L1170.8 25.056C1171.1 24.512 1171.53 24.096 1172.09 23.808C1172.67 23.5093 1173.33 23.36 1174.08 23.36ZM1183.96 32.112C1183.08 32.112 1182.31 31.9253 1181.62 31.552C1180.94 31.168 1180.4 30.6453 1180.01 29.984C1179.61 29.3227 1179.41 28.5707 1179.41 27.728C1179.41 26.8747 1179.61 26.1227 1180.01 25.472C1180.4 24.8107 1180.94 24.2933 1181.62 23.92C1182.31 23.5467 1183.08 23.36 1183.96 23.36C1184.84 23.36 1185.63 23.5467 1186.31 23.92C1187 24.2933 1187.54 24.8053 1187.93 25.456C1188.32 26.1067 1188.52 26.864 1188.52 27.728C1188.52 28.5707 1188.32 29.3227 1187.93 29.984C1187.54 30.6453 1187 31.168 1186.31 31.552C1185.63 31.9253 1184.84 32.112 1183.96 32.112ZM1183.96 30.4C1184.45 30.4 1184.89 30.2933 1185.27 30.08C1185.65 29.8667 1185.95 29.5573 1186.17 29.152C1186.39 28.7467 1186.5 28.272 1186.5 27.728C1186.5 27.1733 1186.39 26.6987 1186.17 26.304C1185.95 25.8987 1185.65 25.5893 1185.27 25.376C1184.89 25.1627 1184.45 25.056 1183.97 25.056C1183.48 25.056 1183.05 25.1627 1182.66 25.376C1182.29 25.5893 1181.99 25.8987 1181.77 26.304C1181.54 26.6987 1181.43 27.1733 1181.43 27.728C1181.43 28.272 1181.54 28.7467 1181.77 29.152C1181.99 29.5573 1182.29 29.8667 1182.66 30.08C1183.05 30.2933 1183.48 30.4 1183.96 30.4ZM1194.19 32.112C1193.32 32.112 1192.54 31.9253 1191.86 31.552C1191.17 31.168 1190.63 30.6453 1190.24 29.984C1189.84 29.3227 1189.65 28.5707 1189.65 27.728C1189.65 26.8747 1189.84 26.1227 1190.24 25.472C1190.63 24.8107 1191.17 24.2933 1191.86 23.92C1192.54 23.5467 1193.32 23.36 1194.19 23.36C1195.08 23.36 1195.86 23.5467 1196.54 23.92C1197.24 24.2933 1197.78 24.8053 1198.16 25.456C1198.55 26.1067 1198.75 26.864 1198.75 27.728C1198.75 28.5707 1198.55 29.3227 1198.16 29.984C1197.78 30.6453 1197.24 31.168 1196.54 31.552C1195.86 31.9253 1195.08 32.112 1194.19 32.112ZM1194.19 30.4C1194.68 30.4 1195.12 30.2933 1195.5 30.08C1195.89 29.8667 1196.19 29.5573 1196.4 29.152C1196.62 28.7467 1196.74 28.272 1196.74 27.728C1196.74 27.1733 1196.62 26.6987 1196.4 26.304C1196.19 25.8987 1195.89 25.5893 1195.5 25.376C1195.12 25.1627 1194.69 25.056 1194.21 25.056C1193.72 25.056 1193.28 25.1627 1192.9 25.376C1192.52 25.5893 1192.22 25.8987 1192 26.304C1191.78 26.6987 1191.66 27.1733 1191.66 27.728C1191.66 28.272 1191.78 28.7467 1192 29.152C1192.22 29.5573 1192.52 29.8667 1192.9 30.08C1193.28 30.2933 1193.71 30.4 1194.19 30.4ZM1203.22 32.112C1202.51 32.112 1201.82 32.0213 1201.16 31.84C1200.51 31.648 1199.99 31.4187 1199.61 31.152L1200.38 29.632C1200.76 29.8773 1201.22 30.08 1201.75 30.24C1202.29 30.4 1202.82 30.48 1203.35 30.48C1203.98 30.48 1204.43 30.3947 1204.71 30.224C1205 30.0533 1205.14 29.824 1205.14 29.536C1205.14 29.3013 1205.05 29.1253 1204.86 29.008C1204.66 28.88 1204.41 28.784 1204.1 28.72C1203.79 28.656 1203.45 28.5973 1203.06 28.544C1202.69 28.4907 1202.31 28.4213 1201.93 28.336C1201.55 28.24 1201.21 28.1067 1200.9 27.936C1200.59 27.7547 1200.34 27.5147 1200.15 27.216C1199.96 26.9173 1199.86 26.5227 1199.86 26.032C1199.86 25.488 1200.02 25.0187 1200.33 24.624C1200.64 24.2187 1201.07 23.9093 1201.62 23.696C1202.19 23.472 1202.86 23.36 1203.62 23.36C1204.2 23.36 1204.78 23.424 1205.37 23.552C1205.95 23.68 1206.44 23.8613 1206.82 24.096L1206.06 25.616C1205.65 25.3707 1205.24 25.2053 1204.82 25.12C1204.42 25.024 1204.01 24.976 1203.61 24.976C1203 24.976 1202.55 25.0667 1202.25 25.248C1201.96 25.4293 1201.82 25.6587 1201.82 25.936C1201.82 26.192 1201.91 26.384 1202.1 26.512C1202.3 26.64 1202.55 26.7413 1202.86 26.816C1203.17 26.8907 1203.51 26.9547 1203.88 27.008C1204.26 27.0507 1204.64 27.12 1205.02 27.216C1205.39 27.312 1205.73 27.4453 1206.04 27.616C1206.36 27.776 1206.62 28.0053 1206.81 28.304C1207 28.6027 1207.1 28.992 1207.1 29.472C1207.1 30.0053 1206.94 30.4693 1206.62 30.864C1206.31 31.2587 1205.86 31.568 1205.29 31.792C1204.71 32.0053 1204.02 32.112 1203.22 32.112ZM1212.75 32.112C1211.8 32.112 1210.97 31.9253 1210.26 31.552C1209.55 31.168 1209 30.6453 1208.61 29.984C1208.23 29.3227 1208.03 28.5707 1208.03 27.728C1208.03 26.8747 1208.22 26.1227 1208.59 25.472C1208.98 24.8107 1209.5 24.2933 1210.16 23.92C1210.83 23.5467 1211.6 23.36 1212.45 23.36C1213.28 23.36 1214.02 23.5413 1214.67 23.904C1215.32 24.2667 1215.84 24.7787 1216.21 25.44C1216.58 26.1013 1216.77 26.88 1216.77 27.776C1216.77 27.8613 1216.76 27.9573 1216.75 28.064C1216.75 28.1707 1216.75 28.272 1216.74 28.368H1209.62V27.04H1215.68L1214.9 27.456C1214.91 26.9653 1214.81 26.5333 1214.59 26.16C1214.38 25.7867 1214.09 25.4933 1213.71 25.28C1213.35 25.0667 1212.93 24.96 1212.45 24.96C1211.96 24.96 1211.53 25.0667 1211.15 25.28C1210.79 25.4933 1210.5 25.792 1210.29 26.176C1210.09 26.5493 1209.99 26.992 1209.99 27.504V27.824C1209.99 28.336 1210.1 28.7893 1210.34 29.184C1210.57 29.5787 1210.9 29.8827 1211.33 30.096C1211.76 30.3093 1212.25 30.416 1212.8 30.416C1213.28 30.416 1213.71 30.3413 1214.1 30.192C1214.48 30.0427 1214.82 29.808 1215.12 29.488L1216.19 30.72C1215.81 31.168 1215.32 31.5147 1214.74 31.76C1214.16 31.9947 1213.5 32.112 1212.75 32.112ZM1225.79 32L1222.07 20.8H1224.23L1227.55 30.928H1226.47L1229.91 20.8H1231.83L1235.18 30.928H1234.14L1237.53 20.8H1239.51L1235.8 32H1233.59L1230.54 22.864H1231.11L1228.01 32H1225.79ZM1245.56 32V30.272L1245.45 29.904V26.88C1245.45 26.2933 1245.27 25.84 1244.92 25.52C1244.57 25.1893 1244.03 25.024 1243.32 25.024C1242.84 25.024 1242.36 25.0987 1241.9 25.248C1241.44 25.3973 1241.05 25.6053 1240.73 25.872L1239.94 24.416C1240.4 24.064 1240.95 23.8027 1241.58 23.632C1242.22 23.4507 1242.88 23.36 1243.56 23.36C1244.8 23.36 1245.75 23.6587 1246.42 24.256C1247.11 24.8427 1247.45 25.7547 1247.45 26.992V32H1245.56ZM1242.87 32.112C1242.23 32.112 1241.67 32.0053 1241.19 31.792C1240.71 31.568 1240.34 31.264 1240.07 30.88C1239.82 30.4853 1239.69 30.0427 1239.69 29.552C1239.69 29.072 1239.8 28.64 1240.02 28.256C1240.26 27.872 1240.64 27.568 1241.16 27.344C1241.68 27.12 1242.38 27.008 1243.24 27.008H1245.72V28.336H1243.38C1242.7 28.336 1242.24 28.448 1242.01 28.672C1241.77 28.8853 1241.66 29.152 1241.66 29.472C1241.66 29.8347 1241.8 30.1227 1242.09 30.336C1242.38 30.5493 1242.78 30.656 1243.29 30.656C1243.78 30.656 1244.22 30.544 1244.6 30.32C1244.99 30.096 1245.28 29.7653 1245.45 29.328L1245.78 30.528C1245.59 31.0293 1245.24 31.4187 1244.74 31.696C1244.25 31.9733 1243.63 32.112 1242.87 32.112ZM1253.15 32.112C1252.21 32.112 1251.49 31.872 1250.97 31.392C1250.46 30.9013 1250.21 30.1813 1250.21 29.232V21.568H1252.21V29.184C1252.21 29.5893 1252.31 29.904 1252.51 30.128C1252.72 30.352 1253.02 30.464 1253.39 30.464C1253.84 30.464 1254.21 30.3467 1254.51 30.112L1255.07 31.536C1254.84 31.728 1254.55 31.872 1254.21 31.968C1253.86 32.064 1253.51 32.112 1253.15 32.112ZM1248.8 25.12V23.52H1254.49V25.12H1248.8ZM1260.37 32.112C1259.42 32.112 1258.59 31.9253 1257.87 31.552C1257.17 31.168 1256.62 30.6453 1256.23 29.984C1255.84 29.3227 1255.65 28.5707 1255.65 27.728C1255.65 26.8747 1255.84 26.1227 1256.21 25.472C1256.59 24.8107 1257.12 24.2933 1257.78 23.92C1258.45 23.5467 1259.21 23.36 1260.07 23.36C1260.9 23.36 1261.64 23.5413 1262.29 23.904C1262.94 24.2667 1263.45 24.7787 1263.83 25.44C1264.2 26.1013 1264.39 26.88 1264.39 27.776C1264.39 27.8613 1264.38 27.9573 1264.37 28.064C1264.37 28.1707 1264.36 28.272 1264.35 28.368H1257.23V27.04H1263.3L1262.51 27.456C1262.52 26.9653 1262.42 26.5333 1262.21 26.16C1262 25.7867 1261.7 25.4933 1261.33 25.28C1260.97 25.0667 1260.55 24.96 1260.07 24.96C1259.58 24.96 1259.14 25.0667 1258.77 25.28C1258.41 25.4933 1258.12 25.792 1257.91 26.176C1257.7 26.5493 1257.6 26.992 1257.6 27.504V27.824C1257.6 28.336 1257.72 28.7893 1257.95 29.184C1258.19 29.5787 1258.52 29.8827 1258.95 30.096C1259.37 30.3093 1259.86 30.416 1260.42 30.416C1260.9 30.416 1261.33 30.3413 1261.71 30.192C1262.1 30.0427 1262.44 29.808 1262.74 29.488L1263.81 30.72C1263.43 31.168 1262.94 31.5147 1262.35 31.76C1261.78 31.9947 1261.12 32.112 1260.37 32.112ZM1266.23 32V23.456H1268.13V25.808L1267.91 25.12C1268.16 24.544 1268.56 24.1067 1269.11 23.808C1269.66 23.5093 1270.35 23.36 1271.17 23.36V25.264C1271.09 25.2427 1271.01 25.232 1270.93 25.232C1270.86 25.2213 1270.78 25.216 1270.71 25.216C1269.95 25.216 1269.35 25.44 1268.9 25.888C1268.45 26.3253 1268.23 26.9813 1268.23 27.856V32H1266.23ZM1273.14 32V22.976C1273.14 22.08 1273.4 21.3653 1273.92 20.832C1274.46 20.288 1275.21 20.016 1276.19 20.016C1276.55 20.016 1276.88 20.0533 1277.19 20.128C1277.51 20.2027 1277.77 20.32 1277.99 20.48L1277.44 21.984C1277.29 21.8667 1277.12 21.7813 1276.93 21.728C1276.74 21.664 1276.54 21.632 1276.34 21.632C1275.92 21.632 1275.61 21.7493 1275.39 21.984C1275.18 22.208 1275.07 22.5493 1275.07 23.008V23.968L1275.14 24.864V32H1273.14ZM1271.73 25.12V23.52H1277.43V25.12H1271.73ZM1283.8 32V30.272L1283.69 29.904V26.88C1283.69 26.2933 1283.51 25.84 1283.16 25.52C1282.81 25.1893 1282.27 25.024 1281.56 25.024C1281.08 25.024 1280.61 25.0987 1280.14 25.248C1279.68 25.3973 1279.29 25.6053 1278.97 25.872L1278.18 24.416C1278.64 24.064 1279.19 23.8027 1279.82 23.632C1280.46 23.4507 1281.12 23.36 1281.8 23.36C1283.04 23.36 1283.99 23.6587 1284.66 24.256C1285.35 24.8427 1285.69 25.7547 1285.69 26.992V32H1283.8ZM1281.11 32.112C1280.47 32.112 1279.91 32.0053 1279.43 31.792C1278.95 31.568 1278.58 31.264 1278.31 30.88C1278.06 30.4853 1277.93 30.0427 1277.93 29.552C1277.93 29.072 1278.04 28.64 1278.26 28.256C1278.5 27.872 1278.88 27.568 1279.4 27.344C1279.92 27.12 1280.62 27.008 1281.48 27.008H1283.96V28.336H1281.62C1280.94 28.336 1280.48 28.448 1280.25 28.672C1280.01 28.8853 1279.9 29.152 1279.9 29.472C1279.9 29.8347 1280.04 30.1227 1280.33 30.336C1280.62 30.5493 1281.02 30.656 1281.53 30.656C1282.02 30.656 1282.46 30.544 1282.84 30.32C1283.23 30.096 1283.52 29.7653 1283.69 29.328L1284.02 30.528C1283.83 31.0293 1283.49 31.4187 1282.98 31.696C1282.49 31.9733 1281.87 32.112 1281.11 32.112ZM1288.17 32V20.128H1290.17V32H1288.17ZM1292.72 32V20.128H1294.72V32H1292.72ZM1303.88 32L1300.21 23.456H1302.29L1305.45 30.992H1304.42L1307.69 23.456H1309.61L1305.94 32H1303.88ZM1314.56 32.112C1313.61 32.112 1312.78 31.9253 1312.06 31.552C1311.36 31.168 1310.81 30.6453 1310.41 29.984C1310.03 29.3227 1309.84 28.5707 1309.84 27.728C1309.84 26.8747 1310.02 26.1227 1310.4 25.472C1310.78 24.8107 1311.3 24.2933 1311.97 23.92C1312.64 23.5467 1313.4 23.36 1314.25 23.36C1315.09 23.36 1315.83 23.5413 1316.48 23.904C1317.13 24.2667 1317.64 24.7787 1318.01 25.44C1318.39 26.1013 1318.57 26.88 1318.57 27.776C1318.57 27.8613 1318.57 27.9573 1318.56 28.064C1318.56 28.1707 1318.55 28.272 1318.54 28.368H1311.42V27.04H1317.49L1316.7 27.456C1316.71 26.9653 1316.61 26.5333 1316.4 26.16C1316.18 25.7867 1315.89 25.4933 1315.52 25.28C1315.16 25.0667 1314.73 24.96 1314.25 24.96C1313.76 24.96 1313.33 25.0667 1312.96 25.28C1312.6 25.4933 1312.31 25.792 1312.09 26.176C1311.89 26.5493 1311.79 26.992 1311.79 27.504V27.824C1311.79 28.336 1311.91 28.7893 1312.14 29.184C1312.38 29.5787 1312.71 29.8827 1313.13 30.096C1313.56 30.3093 1314.05 30.416 1314.61 30.416C1315.09 30.416 1315.52 30.3413 1315.9 30.192C1316.29 30.0427 1316.63 29.808 1316.93 29.488L1318 30.72C1317.61 31.168 1317.13 31.5147 1316.54 31.76C1315.97 31.9947 1315.3 32.112 1314.56 32.112ZM1320.42 32V23.456H1322.32V25.808L1322.1 25.12C1322.35 24.544 1322.75 24.1067 1323.3 23.808C1323.85 23.5093 1324.54 23.36 1325.36 23.36V25.264C1325.27 25.2427 1325.19 25.232 1325.12 25.232C1325.04 25.2213 1324.97 25.216 1324.9 25.216C1324.14 25.216 1323.54 25.44 1323.09 25.888C1322.64 26.3253 1322.42 26.9813 1322.42 27.856V32H1320.42ZM1329.69 32.112C1328.98 32.112 1328.29 32.0213 1327.63 31.84C1326.98 31.648 1326.46 31.4187 1326.08 31.152L1326.85 29.632C1327.23 29.8773 1327.69 30.08 1328.22 30.24C1328.76 30.4 1329.29 30.48 1329.82 30.48C1330.45 30.48 1330.9 30.3947 1331.18 30.224C1331.47 30.0533 1331.61 29.824 1331.61 29.536C1331.61 29.3013 1331.52 29.1253 1331.33 29.008C1331.13 28.88 1330.88 28.784 1330.57 28.72C1330.26 28.656 1329.92 28.5973 1329.53 28.544C1329.16 28.4907 1328.78 28.4213 1328.4 28.336C1328.02 28.24 1327.68 28.1067 1327.37 27.936C1327.06 27.7547 1326.81 27.5147 1326.62 27.216C1326.43 26.9173 1326.33 26.5227 1326.33 26.032C1326.33 25.488 1326.49 25.0187 1326.8 24.624C1327.11 24.2187 1327.54 23.9093 1328.09 23.696C1328.66 23.472 1329.33 23.36 1330.09 23.36C1330.67 23.36 1331.25 23.424 1331.84 23.552C1332.42 23.68 1332.91 23.8613 1333.29 24.096L1332.53 25.616C1332.12 25.3707 1331.71 25.2053 1331.29 25.12C1330.89 25.024 1330.48 24.976 1330.08 24.976C1329.47 24.976 1329.02 25.0667 1328.72 25.248C1328.43 25.4293 1328.29 25.6587 1328.29 25.936C1328.29 26.192 1328.38 26.384 1328.57 26.512C1328.77 26.64 1329.02 26.7413 1329.33 26.816C1329.64 26.8907 1329.98 26.9547 1330.35 27.008C1330.73 27.0507 1331.11 27.12 1331.49 27.216C1331.86 27.312 1332.2 27.4453 1332.51 27.616C1332.83 27.776 1333.09 28.0053 1333.28 28.304C1333.47 28.6027 1333.57 28.992 1333.57 29.472C1333.57 30.0053 1333.41 30.4693 1333.09 30.864C1332.78 31.2587 1332.33 31.568 1331.76 31.792C1331.18 32.0053 1330.49 32.112 1329.69 32.112ZM1335.21 32V23.456H1337.21V32H1335.21ZM1336.22 22.048C1335.84 22.048 1335.53 21.9307 1335.29 21.696C1335.05 21.4613 1334.94 21.1787 1334.94 20.848C1334.94 20.5067 1335.05 20.224 1335.29 20C1335.53 19.7653 1335.84 19.648 1336.22 19.648C1336.59 19.648 1336.89 19.76 1337.13 19.984C1337.37 20.1973 1337.5 20.4693 1337.5 20.8C1337.5 21.152 1337.38 21.4507 1337.14 21.696C1336.91 21.9307 1336.6 22.048 1336.22 22.048ZM1343.59 32.112C1342.72 32.112 1341.94 31.9253 1341.26 31.552C1340.57 31.168 1340.04 30.6453 1339.64 29.984C1339.25 29.3227 1339.05 28.5707 1339.05 27.728C1339.05 26.8747 1339.25 26.1227 1339.64 25.472C1340.04 24.8107 1340.57 24.2933 1341.26 23.92C1341.94 23.5467 1342.72 23.36 1343.59 23.36C1344.48 23.36 1345.26 23.5467 1345.95 23.92C1346.64 24.2933 1347.18 24.8053 1347.56 25.456C1347.96 26.1067 1348.15 26.864 1348.15 27.728C1348.15 28.5707 1347.96 29.3227 1347.56 29.984C1347.18 30.6453 1346.64 31.168 1345.95 31.552C1345.26 31.9253 1344.48 32.112 1343.59 32.112ZM1343.59 30.4C1344.08 30.4 1344.52 30.2933 1344.91 30.08C1345.29 29.8667 1345.59 29.5573 1345.8 29.152C1346.03 28.7467 1346.14 28.272 1346.14 27.728C1346.14 27.1733 1346.03 26.6987 1345.8 26.304C1345.59 25.8987 1345.29 25.5893 1344.91 25.376C1344.52 25.1627 1344.09 25.056 1343.61 25.056C1343.12 25.056 1342.68 25.1627 1342.3 25.376C1341.92 25.5893 1341.63 25.8987 1341.4 26.304C1341.18 26.6987 1341.07 27.1733 1341.07 27.728C1341.07 28.272 1341.18 28.7467 1341.4 29.152C1341.63 29.5573 1341.92 29.8667 1342.3 30.08C1342.68 30.2933 1343.11 30.4 1343.59 30.4ZM1354.83 23.36C1355.52 23.36 1356.12 23.4933 1356.66 23.76C1357.2 24.0267 1357.63 24.4373 1357.94 24.992C1358.25 25.536 1358.4 26.24 1358.4 27.104V32H1356.4V27.36C1356.4 26.6027 1356.22 26.0373 1355.86 25.664C1355.51 25.2907 1355.01 25.104 1354.37 25.104C1353.9 25.104 1353.48 25.2 1353.12 25.392C1352.76 25.584 1352.48 25.872 1352.27 26.256C1352.08 26.6293 1351.99 27.104 1351.99 27.68V32H1349.99V23.456H1351.89V25.76L1351.55 25.056C1351.85 24.512 1352.28 24.096 1352.85 23.808C1353.43 23.5093 1354.09 23.36 1354.83 23.36Z" fill="white"/>
<path d="M1405 32H1407V30H1405V32ZM1406 16C1400.48 16 1396 20.48 1396 26C1396 31.52 1400.48 36 1406 36C1411.52 36 1416 31.52 1416 26C1416 20.48 1411.52 16 1406 16ZM1406 34C1401.59 34 1398 30.41 1398 26C1398 21.59 1401.59 18 1406 18C1410.41 18 1414 21.59 1414 26C1414 30.41 1410.41 34 1406 34ZM1406 20C1403.79 20 1402 21.79 1402 24H1404C1404 22.9 1404.9 22 1406 22C1407.1 22 1408 22.9 1408 24C1408 26 1405 25.75 1405 29H1407C1407 26.75 1410 26.5 1410 24C1410 21.79 1408.21 20 1406 20Z" fill="#454E5D"/>
</svg>
