<svg width="1440" height="2038" viewBox="0 0 1440 2038" fill="none" xmlns="http://www.w3.org/2000/svg">
<g clip-path="url(#clip0_66_3495)">
<rect width="1440" height="2038" fill="#FCFDFF"/>
<rect x="-401.699" y="1534.97" width="1431" height="301.09" transform="rotate(27.7735 -401.699 1534.97)" fill="#3C64F7"/>
<rect x="-334.036" y="1406.5" width="1431" height="415.293" transform="rotate(27.7735 -334.036 1406.5)" fill="#3C64F7" fill-opacity="0.2"/>
<rect x="1933.58" y="546.252" width="1431" height="301.09" transform="rotate(-150 1933.58 546.252)" fill="#3C64F7"/>
<rect x="1860.98" y="672.004" width="1431" height="415.293" transform="rotate(-150 1860.98 672.004)" fill="#3C64F7" fill-opacity="0.2"/>
<rect width="241" height="72" transform="matrix(1 0 0 -1 1148 1960)" fill="white"/>
<path fill-rule="evenodd" clip-rule="evenodd" d="M1172.24 1901.94C1178.01 1899.28 1182.97 1898.24 1186.96 1898.83C1191.02 1899.43 1193.94 1901.41 1195.66 1904.73C1196.67 1906.68 1197.07 1908.7 1196.83 1910.73C1196.72 1911.77 1196.41 1912.8 1195.95 1913.8C1195.94 1913.94 1195.93 1914.07 1195.92 1914.2C1195.85 1914.75 1195.72 1915.31 1195.56 1915.85C1197.91 1915.84 1200.04 1916.27 1201.91 1917.14L1202.32 1917.34C1204.47 1918.45 1206.17 1920.19 1207.37 1922.5C1209.01 1925.67 1209.12 1928.81 1207.73 1931.85C1207.59 1933.5 1207.04 1935.14 1206.04 1936.74C1203.91 1940.18 1199.82 1943.3 1193.89 1946.03L1169.34 1957.33L1148 1916.14L1149.33 1912.49L1172.24 1901.94ZM1186.82 1899.68C1183.02 1899.11 1178.24 1900.14 1172.64 1902.72L1150.15 1913.07L1151.01 1914.75L1151.42 1915.53L1155.99 1924.35L1175.29 1916.07C1175.19 1915.77 1175.13 1915.45 1175.13 1915.12C1175.13 1913.31 1176.68 1911.85 1178.6 1911.85C1180.52 1911.85 1182.07 1913.31 1182.07 1915.12C1182.07 1916.93 1180.52 1918.4 1178.6 1918.4C1177.36 1918.4 1176.28 1917.78 1175.66 1916.86L1156.39 1925.13L1164.71 1941.18L1187.57 1930.51C1187.45 1930.18 1187.37 1929.84 1187.37 1929.47C1187.37 1927.66 1188.92 1926.19 1190.84 1926.19C1192.76 1926.19 1194.32 1927.66 1194.32 1929.47C1194.32 1931.28 1192.76 1932.74 1190.84 1932.74C1189.64 1932.74 1188.58 1932.17 1187.96 1931.3L1165.11 1941.96L1170.68 1952.71L1194.4 1941.79C1200.17 1939.14 1204.13 1936.13 1206.17 1932.84C1206.43 1932.43 1206.65 1932.02 1206.85 1931.61C1207.02 1931.25 1207.16 1930.88 1207.29 1930.51C1207.42 1930.12 1207.53 1929.73 1207.61 1929.34C1208.04 1927.23 1207.69 1925.09 1206.55 1922.88C1205.36 1920.6 1203.67 1918.93 1201.5 1917.92C1199.69 1917.08 1197.59 1916.68 1195.27 1916.73C1195.11 1916.73 1194.94 1916.73 1194.78 1916.74C1194.61 1916.75 1194.44 1916.76 1194.27 1916.77C1194.14 1916.78 1194 1916.79 1193.87 1916.8L1193.46 1916.11C1194.11 1915.3 1194.64 1914.47 1195.04 1913.63C1195.22 1913.25 1195.37 1912.88 1195.5 1912.5C1195.63 1912.1 1195.74 1911.71 1195.82 1911.31C1195.86 1911.09 1195.9 1910.87 1195.92 1910.64C1196.13 1908.77 1195.77 1906.91 1194.83 1905.11C1193.23 1902.02 1190.61 1900.24 1186.82 1899.68ZM1352.98 1922.33C1354.19 1922.33 1355.3 1922.56 1356.29 1923.04C1357.28 1923.51 1358.07 1924.2 1358.65 1925.1C1359.23 1926 1359.52 1927.07 1359.52 1928.3C1359.52 1928.33 1359.49 1928.66 1359.45 1929.3H1350.56C1350.74 1929.89 1351.09 1930.35 1351.61 1930.67C1352.13 1930.99 1352.78 1931.15 1353.56 1931.15C1354.15 1931.15 1354.66 1931.07 1355.08 1930.92C1355.51 1930.76 1355.95 1930.5 1356.38 1930.15L1358.64 1932.36C1357.45 1933.61 1355.71 1934.23 1353.43 1934.23C1352 1934.23 1350.74 1933.98 1349.66 1933.47C1348.58 1932.96 1347.74 1932.25 1347.15 1931.34C1346.55 1930.43 1346.26 1929.41 1346.26 1928.26C1346.26 1927.12 1346.55 1926.11 1347.12 1925.21C1347.7 1924.31 1348.5 1923.6 1349.53 1923.09C1350.55 1922.58 1351.7 1922.33 1352.98 1922.33ZM1250.39 1922.21C1251.71 1922.21 1252.9 1922.46 1253.95 1922.96C1255 1923.46 1255.82 1924.16 1256.41 1925.06C1256.99 1925.96 1257.29 1926.99 1257.29 1928.14C1257.29 1929.28 1256.99 1930.31 1256.41 1931.22C1255.82 1932.13 1255 1932.84 1253.95 1933.34C1252.9 1933.86 1251.71 1934.11 1250.39 1934.11C1249.08 1934.11 1247.9 1933.86 1246.85 1933.34C1245.79 1932.84 1244.97 1932.13 1244.38 1931.22C1243.78 1930.31 1243.48 1929.28 1243.48 1928.14C1243.48 1927 1243.78 1925.98 1244.38 1925.08C1244.97 1924.17 1245.79 1923.46 1246.83 1922.96C1247.88 1922.46 1249.06 1922.21 1250.39 1922.21ZM1366.73 1922.21C1367.62 1922.21 1368.5 1922.29 1369.37 1922.46C1370.24 1922.63 1370.97 1922.87 1371.56 1923.18L1370.27 1925.93C1369.19 1925.36 1368.02 1925.08 1366.76 1925.08C1366.08 1925.08 1365.58 1925.15 1365.27 1925.3C1364.95 1925.45 1364.79 1925.64 1364.79 1925.88C1364.79 1926.15 1364.97 1926.34 1365.31 1926.45C1365.66 1926.55 1366.23 1926.66 1367.03 1926.78C1368.03 1926.92 1368.87 1927.08 1369.53 1927.26C1370.19 1927.45 1370.77 1927.79 1371.26 1928.28C1371.74 1928.76 1371.99 1929.45 1371.99 1930.33C1371.99 1931.05 1371.75 1931.7 1371.29 1932.27C1370.82 1932.85 1370.14 1933.3 1369.23 1933.62C1368.32 1933.95 1367.22 1934.11 1365.94 1934.11C1364.92 1934.11 1363.91 1934 1362.92 1933.78C1361.93 1933.56 1361.13 1933.27 1360.53 1932.92L1361.82 1930.16C1362.37 1930.48 1363.03 1930.74 1363.8 1930.93C1364.57 1931.12 1365.33 1931.22 1366.08 1931.22C1366.77 1931.22 1367.26 1931.15 1367.56 1931.02C1367.85 1930.88 1368 1930.69 1368 1930.43C1368 1930.18 1367.82 1930 1367.47 1929.89C1367.11 1929.78 1366.55 1929.68 1365.79 1929.58C1364.81 1929.47 1363.98 1929.32 1363.29 1929.14C1362.61 1928.95 1362.02 1928.61 1361.52 1928.12C1361.03 1927.62 1360.78 1926.92 1360.78 1926.03C1360.78 1925.3 1361.01 1924.64 1361.48 1924.07C1361.94 1923.49 1362.63 1923.04 1363.52 1922.71C1364.41 1922.37 1365.49 1922.21 1366.73 1922.21ZM1265.52 1922.21C1266.9 1922.21 1268.1 1922.49 1269.1 1923.04C1270.11 1923.61 1270.83 1924.38 1271.25 1925.37L1267.93 1926.97C1267.38 1925.93 1266.56 1925.42 1265.5 1925.42C1264.73 1925.42 1264.09 1925.66 1263.59 1926.14C1263.09 1926.62 1262.84 1927.29 1262.84 1928.14C1262.84 1929 1263.09 1929.68 1263.59 1930.17C1264.09 1930.66 1264.73 1930.9 1265.5 1930.9C1266.56 1930.9 1267.38 1930.38 1267.93 1929.35L1271.25 1930.94C1270.83 1931.94 1270.11 1932.71 1269.1 1933.27C1268.1 1933.83 1266.9 1934.11 1265.52 1934.11C1264.17 1934.11 1262.96 1933.86 1261.89 1933.35C1260.82 1932.84 1259.99 1932.13 1259.4 1931.22C1258.8 1930.31 1258.5 1929.28 1258.5 1928.14C1258.5 1926.99 1258.8 1925.96 1259.4 1925.06C1259.99 1924.16 1260.82 1923.46 1261.89 1922.96C1262.96 1922.46 1264.17 1922.21 1265.52 1922.21ZM1314.14 1922.1C1316.25 1922.1 1317.85 1922.54 1318.96 1923.41C1320.07 1924.28 1320.62 1925.62 1320.62 1927.43V1933.85H1316.48V1932.36C1315.84 1933.48 1314.6 1934.04 1312.74 1934.04C1311.76 1934.04 1310.91 1933.88 1310.19 1933.57C1309.48 1933.26 1308.93 1932.84 1308.57 1932.3C1308.2 1931.77 1308.02 1931.16 1308.02 1930.48C1308.02 1929.39 1308.48 1928.54 1309.4 1927.93C1310.32 1927.33 1311.74 1927.02 1313.65 1927.02H1316.18C1316.1 1925.8 1315.2 1925.19 1313.49 1925.19C1312.88 1925.19 1312.26 1925.28 1311.64 1925.46C1311.02 1925.64 1310.49 1925.88 1310.05 1926.19L1308.56 1923.44C1309.26 1923.02 1310.11 1922.69 1311.12 1922.45C1312.12 1922.22 1313.13 1922.1 1314.14 1922.1ZM1339.09 1922.29C1340.6 1922.29 1341.81 1922.71 1342.71 1923.54C1343.61 1924.38 1344.06 1925.65 1344.06 1927.34V1933.85H1339.93V1927.92C1339.93 1927.11 1339.76 1926.51 1339.42 1926.13C1339.09 1925.75 1338.62 1925.56 1338.01 1925.56C1337.34 1925.56 1336.8 1925.77 1336.4 1926.2C1335.99 1926.62 1335.79 1927.27 1335.79 1928.13V1933.85H1331.65V1927.92C1331.65 1926.34 1331.02 1925.56 1329.75 1925.56C1329.06 1925.56 1328.52 1925.77 1328.12 1926.2C1327.72 1926.62 1327.52 1927.27 1327.52 1928.13V1933.85H1323.38V1922.47H1327.17V1923.67C1327.62 1923.21 1328.17 1922.86 1328.79 1922.63C1329.42 1922.4 1330.11 1922.29 1330.85 1922.29C1331.71 1922.29 1332.48 1922.43 1333.16 1922.73C1333.85 1923.02 1334.4 1923.47 1334.82 1924.07C1335.31 1923.5 1335.92 1923.06 1336.66 1922.75C1337.4 1922.44 1338.21 1922.29 1339.09 1922.29ZM1228.06 1918.9C1230.08 1918.9 1231.62 1919.25 1232.68 1919.96C1233.74 1920.66 1234.27 1921.61 1234.27 1922.81C1234.27 1923.52 1234.08 1924.16 1233.71 1924.72C1233.34 1925.28 1232.82 1925.73 1232.14 1926.05C1233.05 1926.35 1233.76 1926.82 1234.27 1927.45C1234.78 1928.09 1235.04 1928.85 1235.04 1929.75C1235.04 1931.06 1234.48 1932.07 1233.36 1932.78C1232.24 1933.49 1230.63 1933.85 1228.51 1933.85H1219.95V1918.9H1228.06ZM1241.32 1917.92V1933.85H1237.19V1917.92H1241.32ZM1277.18 1917.93V1926.44L1281.5 1922.47H1286.51L1281.5 1927.34L1286.93 1933.85H1281.81L1278.43 1929.86L1277.18 1931.06V1933.85H1273.04V1917.93H1277.18ZM1293.96 1917.93C1294.49 1917.93 1295.01 1917.98 1295.52 1918.08C1296.03 1918.18 1296.45 1918.33 1296.77 1918.53L1295.72 1921.37C1295.31 1921.15 1294.88 1921.03 1294.45 1921.03C1294 1921.03 1293.65 1921.16 1293.41 1921.42C1293.16 1921.67 1293.04 1922.05 1293.04 1922.54V1922.8H1295.8V1925.73H1293.04V1933.85H1288.9V1925.73H1287.18V1922.8H1288.9V1922.5C1288.9 1921.1 1289.35 1919.99 1290.23 1919.16C1291.12 1918.34 1292.36 1917.93 1293.96 1917.93ZM1307.52 1922.28V1925.88C1307.14 1925.84 1306.82 1925.82 1306.58 1925.82C1305.69 1925.82 1304.99 1926.04 1304.48 1926.5C1303.98 1926.95 1303.73 1927.65 1303.73 1928.58V1933.85H1299.24V1922.47H1303.38V1923.86C1303.82 1923.33 1304.39 1922.94 1305.1 1922.68C1305.8 1922.41 1306.61 1922.28 1307.52 1922.28ZM1316.14 1929.3H1314.29C1313.04 1929.3 1312.42 1929.69 1312.42 1930.47C1312.42 1930.82 1312.56 1931.11 1312.85 1931.32C1313.13 1931.53 1313.52 1931.64 1314.02 1931.64C1314.51 1931.64 1314.95 1931.52 1315.33 1931.3C1315.7 1931.07 1315.97 1930.74 1316.14 1930.3V1929.3ZM1228.06 1928H1224.43V1930.92H1228.06C1229.58 1930.92 1230.33 1930.44 1230.33 1929.46C1230.33 1928.49 1229.58 1928 1228.06 1928ZM1250.39 1925.42C1249.63 1925.42 1249.02 1925.66 1248.54 1926.14C1248.05 1926.62 1247.82 1927.29 1247.82 1928.14C1247.82 1929 1248.05 1929.68 1248.54 1930.17C1249.02 1930.66 1249.63 1930.9 1250.39 1930.9C1251.14 1930.9 1251.75 1930.66 1252.23 1930.17C1252.72 1929.68 1252.96 1929 1252.96 1928.14C1252.96 1927.29 1252.72 1926.62 1252.23 1926.14C1251.75 1925.66 1251.14 1925.42 1250.39 1925.42ZM1353 1925.05C1352.34 1925.05 1351.78 1925.23 1351.34 1925.58C1350.9 1925.93 1350.62 1926.42 1350.49 1927.02H1355.5C1355.38 1926.42 1355.1 1925.93 1354.66 1925.58C1354.21 1925.23 1353.66 1925.05 1353 1925.05ZM1227.56 1922.15H1224.43V1925.07H1227.56C1229.09 1925.07 1229.86 1924.58 1229.86 1923.6C1229.86 1922.63 1229.09 1922.15 1227.56 1922.15Z" fill="#1A49F5"/>
<path d="M489.328 854L504.16 820.4H513.52L528.4 854H518.512L506.896 825.056H510.64L499.024 854H489.328ZM497.44 847.472L499.888 840.464H516.304L518.752 847.472H497.44ZM530.422 854V827.984H539.11V835.568L537.814 833.408C538.582 831.456 539.83 830 541.558 829.04C543.286 828.048 545.382 827.552 547.846 827.552V835.76C547.43 835.696 547.062 835.664 546.742 835.664C546.454 835.632 546.134 835.616 545.782 835.616C543.926 835.616 542.422 836.128 541.27 837.152C540.118 838.144 539.542 839.776 539.542 842.048V854H530.422ZM563.783 854.432C560.455 854.432 557.863 853.616 556.007 851.984C554.151 850.32 553.223 847.824 553.223 844.496V822.176H562.343V844.4C562.343 845.328 562.599 846.064 563.111 846.608C563.623 847.12 564.279 847.376 565.079 847.376C566.167 847.376 567.095 847.104 567.863 846.56L570.119 852.944C569.351 853.456 568.407 853.824 567.287 854.048C566.167 854.304 564.999 854.432 563.783 854.432ZM549.431 835.76V828.944H568.295V835.76H549.431ZM586.278 854.432C583.205 854.432 580.517 853.856 578.213 852.704C575.941 851.52 574.165 849.92 572.885 847.904C571.637 845.856 571.013 843.536 571.013 840.944C571.013 838.352 571.621 836.048 572.837 834.032C574.085 831.984 575.797 830.4 577.973 829.28C580.149 828.128 582.597 827.552 585.317 827.552C587.878 827.552 590.214 828.08 592.325 829.136C594.437 830.16 596.117 831.68 597.366 833.696C598.613 835.712 599.237 838.16 599.237 841.04C599.237 841.36 599.221 841.728 599.189 842.144C599.158 842.56 599.126 842.944 599.094 843.296H578.501V838.496H594.246L590.789 839.84C590.821 838.656 590.597 837.632 590.117 836.768C589.669 835.904 589.029 835.232 588.197 834.752C587.397 834.272 586.453 834.032 585.365 834.032C584.277 834.032 583.317 834.272 582.485 834.752C581.685 835.232 581.061 835.92 580.613 836.816C580.165 837.68 579.941 838.704 579.941 839.888V841.28C579.941 842.56 580.197 843.664 580.709 844.592C581.253 845.52 582.021 846.24 583.013 846.752C584.005 847.232 585.189 847.472 586.565 847.472C587.845 847.472 588.934 847.296 589.83 846.944C590.757 846.56 591.669 845.984 592.565 845.216L597.366 850.208C596.117 851.584 594.581 852.64 592.757 853.376C590.933 854.08 588.773 854.432 586.278 854.432ZM629.171 854.672C626.419 854.672 623.763 854.336 621.203 853.664C618.675 852.96 616.611 852.064 615.011 850.976L618.131 843.968C619.635 844.928 621.363 845.728 623.315 846.368C625.299 846.976 627.267 847.28 629.219 847.28C630.531 847.28 631.587 847.168 632.387 846.944C633.187 846.688 633.763 846.368 634.115 845.984C634.499 845.568 634.691 845.088 634.691 844.544C634.691 843.776 634.339 843.168 633.635 842.72C632.931 842.272 632.019 841.904 630.899 841.616C629.779 841.328 628.531 841.04 627.155 840.752C625.811 840.464 624.451 840.096 623.075 839.648C621.731 839.2 620.499 838.624 619.379 837.92C618.259 837.184 617.347 836.24 616.643 835.088C615.939 833.904 615.587 832.416 615.587 830.624C615.587 828.608 616.131 826.784 617.219 825.152C618.339 823.52 620.003 822.208 622.211 821.216C624.419 820.224 627.171 819.728 630.467 819.728C632.675 819.728 634.835 819.984 636.947 820.496C639.091 820.976 640.995 821.696 642.659 822.656L639.731 829.712C638.131 828.848 636.547 828.208 634.979 827.792C633.411 827.344 631.891 827.12 630.419 827.12C629.107 827.12 628.051 827.264 627.251 827.552C626.451 827.808 625.875 828.16 625.523 828.608C625.171 829.056 624.995 829.568 624.995 830.144C624.995 830.88 625.331 831.472 626.003 831.92C626.707 832.336 627.619 832.688 628.739 832.976C629.891 833.232 631.139 833.504 632.483 833.792C633.859 834.08 635.219 834.448 636.563 834.896C637.939 835.312 639.187 835.888 640.307 836.624C641.427 837.328 642.323 838.272 642.995 839.456C643.699 840.608 644.051 842.064 644.051 843.824C644.051 845.776 643.491 847.584 642.371 849.248C641.283 850.88 639.635 852.192 637.427 853.184C635.251 854.176 632.499 854.672 629.171 854.672ZM659.385 854.432C656.057 854.432 653.465 853.616 651.609 851.984C649.753 850.32 648.825 847.824 648.825 844.496V822.176H657.945V844.4C657.945 845.328 658.201 846.064 658.713 846.608C659.225 847.12 659.881 847.376 660.681 847.376C661.769 847.376 662.697 847.104 663.465 846.56L665.721 852.944C664.953 853.456 664.009 853.824 662.889 854.048C661.769 854.304 660.601 854.432 659.385 854.432ZM645.033 835.76V828.944H663.897V835.76H645.033ZM684.886 854V849.152L684.262 847.952V839.024C684.262 837.584 683.814 836.48 682.918 835.712C682.054 834.912 680.662 834.512 678.742 834.512C677.494 834.512 676.23 834.72 674.95 835.136C673.67 835.52 672.582 836.064 671.686 836.768L668.614 830.576C670.086 829.616 671.846 828.88 673.894 828.368C675.974 827.824 678.038 827.552 680.086 827.552C684.31 827.552 687.574 828.528 689.878 830.48C692.214 832.4 693.382 835.424 693.382 839.552V854H684.886ZM677.206 854.432C675.126 854.432 673.366 854.08 671.926 853.376C670.486 852.672 669.382 851.712 668.614 850.496C667.878 849.28 667.51 847.92 667.51 846.416C667.51 844.816 667.91 843.44 668.71 842.288C669.542 841.104 670.806 840.208 672.502 839.6C674.198 838.96 676.39 838.64 679.078 838.64H685.222V843.392H680.326C678.854 843.392 677.814 843.632 677.206 844.112C676.63 844.592 676.342 845.232 676.342 846.032C676.342 846.832 676.646 847.472 677.254 847.952C677.862 848.432 678.694 848.672 679.75 848.672C680.742 848.672 681.638 848.432 682.438 847.952C683.27 847.44 683.878 846.672 684.262 845.648L685.51 849.008C685.03 850.8 684.086 852.16 682.678 853.088C681.302 853.984 679.478 854.432 677.206 854.432ZM710.515 854.432C707.187 854.432 704.595 853.616 702.739 851.984C700.883 850.32 699.955 847.824 699.955 844.496V822.176H709.075V844.4C709.075 845.328 709.331 846.064 709.843 846.608C710.355 847.12 711.011 847.376 711.811 847.376C712.899 847.376 713.827 847.104 714.595 846.56L716.851 852.944C716.083 853.456 715.139 853.824 714.019 854.048C712.899 854.304 711.731 854.432 710.515 854.432ZM696.163 835.76V828.944H715.027V835.76H696.163ZM733.009 854.432C729.937 854.432 727.249 853.856 724.945 852.704C722.673 851.52 720.897 849.92 719.617 847.904C718.369 845.856 717.745 843.536 717.745 840.944C717.745 838.352 718.353 836.048 719.569 834.032C720.817 831.984 722.529 830.4 724.705 829.28C726.881 828.128 729.329 827.552 732.049 827.552C734.609 827.552 736.945 828.08 739.057 829.136C741.169 830.16 742.849 831.68 744.097 833.696C745.345 835.712 745.969 838.16 745.969 841.04C745.969 841.36 745.953 841.728 745.921 842.144C745.889 842.56 745.857 842.944 745.825 843.296H725.233V838.496H740.977L737.521 839.84C737.553 838.656 737.329 837.632 736.849 836.768C736.401 835.904 735.761 835.232 734.929 834.752C734.129 834.272 733.185 834.032 732.097 834.032C731.009 834.032 730.049 834.272 729.217 834.752C728.417 835.232 727.793 835.92 727.345 836.816C726.897 837.68 726.673 838.704 726.673 839.888V841.28C726.673 842.56 726.929 843.664 727.441 844.592C727.985 845.52 728.753 846.24 729.745 846.752C730.737 847.232 731.921 847.472 733.297 847.472C734.577 847.472 735.665 847.296 736.561 846.944C737.489 846.56 738.401 845.984 739.297 845.216L744.097 850.208C742.849 851.584 741.313 852.64 739.489 853.376C737.665 854.08 735.505 854.432 733.009 854.432ZM783.822 827.552C785.838 827.552 787.63 827.968 789.198 828.8C790.798 829.6 792.046 830.848 792.942 832.544C793.87 834.24 794.334 836.432 794.334 839.12V854H785.214V840.608C785.214 838.752 784.862 837.408 784.158 836.576C783.454 835.712 782.494 835.28 781.278 835.28C780.414 835.28 779.63 835.488 778.926 835.904C778.222 836.32 777.678 836.96 777.294 837.824C776.91 838.656 776.718 839.744 776.718 841.088V854H767.598V840.608C767.598 838.752 767.246 837.408 766.542 836.576C765.87 835.712 764.91 835.28 763.662 835.28C762.766 835.28 761.966 835.488 761.262 835.904C760.59 836.32 760.046 836.96 759.63 837.824C759.246 838.656 759.054 839.744 759.054 841.088V854H749.934V827.984H758.622V835.232L756.894 833.168C757.854 831.312 759.166 829.92 760.83 828.992C762.494 828.032 764.35 827.552 766.398 827.552C768.734 827.552 770.782 828.16 772.542 829.376C774.334 830.56 775.534 832.416 776.142 834.944L773.166 834.32C774.094 832.208 775.486 830.56 777.342 829.376C779.23 828.16 781.39 827.552 783.822 827.552ZM813.811 854.432C810.739 854.432 808.051 853.856 805.747 852.704C803.475 851.52 801.699 849.92 800.419 847.904C799.171 845.856 798.547 843.536 798.547 840.944C798.547 838.352 799.155 836.048 800.371 834.032C801.619 831.984 803.331 830.4 805.507 829.28C807.683 828.128 810.131 827.552 812.851 827.552C815.411 827.552 817.747 828.08 819.859 829.136C821.971 830.16 823.651 831.68 824.899 833.696C826.147 835.712 826.771 838.16 826.771 841.04C826.771 841.36 826.755 841.728 826.723 842.144C826.691 842.56 826.659 842.944 826.627 843.296H806.035V838.496H821.779L818.323 839.84C818.355 838.656 818.131 837.632 817.651 836.768C817.203 835.904 816.563 835.232 815.731 834.752C814.931 834.272 813.987 834.032 812.899 834.032C811.811 834.032 810.851 834.272 810.019 834.752C809.219 835.232 808.595 835.92 808.147 836.816C807.699 837.68 807.475 838.704 807.475 839.888V841.28C807.475 842.56 807.731 843.664 808.243 844.592C808.787 845.52 809.555 846.24 810.547 846.752C811.539 847.232 812.723 847.472 814.099 847.472C815.379 847.472 816.467 847.296 817.363 846.944C818.291 846.56 819.203 845.984 820.099 845.216L824.899 850.208C823.651 851.584 822.115 852.64 820.291 853.376C818.467 854.08 816.307 854.432 813.811 854.432ZM847.679 827.552C849.695 827.552 851.519 827.968 853.151 828.8C854.783 829.6 856.063 830.848 856.991 832.544C857.951 834.24 858.431 836.432 858.431 839.12V854H849.311V840.608C849.311 838.752 848.927 837.408 848.159 836.576C847.423 835.712 846.383 835.28 845.039 835.28C844.079 835.28 843.199 835.504 842.399 835.952C841.599 836.368 840.975 837.024 840.527 837.92C840.079 838.816 839.855 839.984 839.855 841.424V854H830.735V827.984H839.423V835.376L837.743 833.216C838.735 831.328 840.095 829.92 841.823 828.992C843.551 828.032 845.503 827.552 847.679 827.552ZM875.533 854.432C872.205 854.432 869.613 853.616 867.757 851.984C865.901 850.32 864.973 847.824 864.973 844.496V822.176H874.093V844.4C874.093 845.328 874.349 846.064 874.861 846.608C875.373 847.12 876.029 847.376 876.829 847.376C877.917 847.376 878.845 847.104 879.613 846.56L881.869 852.944C881.101 853.456 880.157 853.824 879.037 854.048C877.917 854.304 876.749 854.432 875.533 854.432ZM861.181 835.76V828.944H880.045V835.76H861.181ZM914.331 854L918.507 820.4H925.035L920.859 854H914.331ZM896.763 846.848V840.656H928.539V846.848H896.763ZM901.899 854L906.075 820.4H912.603L908.427 854H901.899ZM898.347 833.744V827.552H930.171V833.744H898.347ZM943.633 854.672C941.297 854.672 938.961 854.384 936.625 853.808C934.321 853.232 932.305 852.416 930.577 851.36L934.033 844.208C935.377 845.104 936.865 845.792 938.497 846.272C940.161 846.752 941.777 846.992 943.345 846.992C944.977 846.992 946.273 846.688 947.233 846.08C948.193 845.472 948.673 844.608 948.673 843.488C948.673 842.496 948.273 841.712 947.473 841.136C946.673 840.528 945.361 840.224 943.537 840.224H939.553V834.224L948.577 824.48L949.489 827.744H932.305V820.4H956.593V826.352L947.569 836.096L942.913 833.456H945.505C949.697 833.456 952.865 834.4 955.009 836.288C957.185 838.144 958.273 840.544 958.273 843.488C958.273 845.408 957.745 847.216 956.689 848.912C955.665 850.608 954.081 852 951.937 853.088C949.793 854.144 947.025 854.672 943.633 854.672Z" fill="#1F2A3B"/>
<path d="M472.328 961L487.16 927.4H496.52L511.4 961H501.512L489.896 932.056H493.64L482.024 961H472.328ZM480.44 954.472L482.888 947.464H499.304L501.752 954.472H480.44ZM513.422 961V934.984H522.11V942.568L520.814 940.408C521.582 938.456 522.83 937 524.558 936.04C526.286 935.048 528.382 934.552 530.846 934.552V942.76C530.43 942.696 530.062 942.664 529.742 942.664C529.454 942.632 529.134 942.616 528.782 942.616C526.926 942.616 525.422 943.128 524.27 944.152C523.118 945.144 522.542 946.776 522.542 949.048V961H513.422ZM546.783 961.432C543.455 961.432 540.863 960.616 539.007 958.984C537.151 957.32 536.223 954.824 536.223 951.496V929.176H545.343V951.4C545.343 952.328 545.599 953.064 546.111 953.608C546.623 954.12 547.279 954.376 548.079 954.376C549.167 954.376 550.095 954.104 550.863 953.56L553.119 959.944C552.351 960.456 551.407 960.824 550.287 961.048C549.167 961.304 547.999 961.432 546.783 961.432ZM532.431 942.76V935.944H551.295V942.76H532.431ZM569.278 961.432C566.205 961.432 563.517 960.856 561.213 959.704C558.941 958.52 557.165 956.92 555.885 954.904C554.637 952.856 554.013 950.536 554.013 947.944C554.013 945.352 554.621 943.048 555.837 941.032C557.085 938.984 558.797 937.4 560.973 936.28C563.149 935.128 565.597 934.552 568.317 934.552C570.878 934.552 573.214 935.08 575.325 936.136C577.437 937.16 579.117 938.68 580.366 940.696C581.613 942.712 582.237 945.16 582.237 948.04C582.237 948.36 582.221 948.728 582.189 949.144C582.158 949.56 582.126 949.944 582.094 950.296H561.501V945.496H577.246L573.789 946.84C573.821 945.656 573.597 944.632 573.117 943.768C572.669 942.904 572.029 942.232 571.197 941.752C570.397 941.272 569.453 941.032 568.365 941.032C567.277 941.032 566.317 941.272 565.485 941.752C564.685 942.232 564.061 942.92 563.613 943.816C563.165 944.68 562.941 945.704 562.941 946.888V948.28C562.941 949.56 563.197 950.664 563.709 951.592C564.253 952.52 565.021 953.24 566.013 953.752C567.005 954.232 568.189 954.472 569.565 954.472C570.845 954.472 571.934 954.296 572.83 953.944C573.757 953.56 574.669 952.984 575.565 952.216L580.366 957.208C579.117 958.584 577.581 959.64 575.757 960.376C573.933 961.08 571.773 961.432 569.278 961.432ZM609.195 942.136H624.699V949.48H609.195V942.136ZM609.867 961H600.363V927.4H626.715V934.744H609.867V961ZM630.019 961V934.984H638.707V942.568L637.411 940.408C638.179 938.456 639.427 937 641.155 936.04C642.883 935.048 644.979 934.552 647.443 934.552V942.76C647.027 942.696 646.659 942.664 646.339 942.664C646.051 942.632 645.731 942.616 645.379 942.616C643.523 942.616 642.019 943.128 640.867 944.152C639.715 945.144 639.139 946.776 639.139 949.048V961H630.019ZM665.308 961V956.152L664.684 954.952V946.024C664.684 944.584 664.236 943.48 663.34 942.712C662.476 941.912 661.084 941.512 659.164 941.512C657.916 941.512 656.652 941.72 655.372 942.136C654.092 942.52 653.004 943.064 652.108 943.768L649.036 937.576C650.508 936.616 652.268 935.88 654.316 935.368C656.396 934.824 658.46 934.552 660.508 934.552C664.732 934.552 667.996 935.528 670.3 937.48C672.636 939.4 673.804 942.424 673.804 946.552V961H665.308ZM657.628 961.432C655.548 961.432 653.788 961.08 652.348 960.376C650.908 959.672 649.804 958.712 649.036 957.496C648.3 956.28 647.932 954.92 647.932 953.416C647.932 951.816 648.332 950.44 649.132 949.288C649.964 948.104 651.228 947.208 652.924 946.6C654.62 945.96 656.812 945.64 659.5 945.64H665.644V950.392H660.748C659.276 950.392 658.236 950.632 657.628 951.112C657.052 951.592 656.764 952.232 656.764 953.032C656.764 953.832 657.068 954.472 657.676 954.952C658.284 955.432 659.116 955.672 660.172 955.672C661.164 955.672 662.06 955.432 662.86 954.952C663.692 954.44 664.3 953.672 664.684 952.648L665.932 956.008C665.452 957.8 664.508 959.16 663.1 960.088C661.724 960.984 659.9 961.432 657.628 961.432ZM696.265 934.552C698.281 934.552 700.105 934.968 701.737 935.8C703.369 936.6 704.649 937.848 705.577 939.544C706.537 941.24 707.017 943.432 707.017 946.12V961H697.897V947.608C697.897 945.752 697.513 944.408 696.745 943.576C696.009 942.712 694.969 942.28 693.625 942.28C692.665 942.28 691.785 942.504 690.985 942.952C690.185 943.368 689.561 944.024 689.113 944.92C688.665 945.816 688.441 946.984 688.441 948.424V961H679.321V934.984H688.009V942.376L686.329 940.216C687.321 938.328 688.681 936.92 690.409 935.992C692.137 935.032 694.089 934.552 696.265 934.552ZM726.126 961.432C723.246 961.432 720.67 960.856 718.398 959.704C716.158 958.552 714.398 956.968 713.118 954.952C711.838 952.904 711.198 950.568 711.198 947.944C711.198 945.32 711.838 943 713.118 940.984C714.398 938.968 716.158 937.4 718.398 936.28C720.67 935.128 723.246 934.552 726.126 934.552C729.07 934.552 731.614 935.176 733.758 936.424C735.902 937.672 737.422 939.432 738.318 941.704L731.262 945.304C730.654 944.088 729.902 943.208 729.006 942.664C728.11 942.088 727.134 941.8 726.078 941.8C725.022 941.8 724.062 942.04 723.198 942.52C722.334 943 721.646 943.704 721.134 944.632C720.654 945.528 720.414 946.632 720.414 947.944C720.414 949.288 720.654 950.424 721.134 951.352C721.646 952.28 722.334 952.984 723.198 953.464C724.062 953.944 725.022 954.184 726.078 954.184C727.134 954.184 728.11 953.912 729.006 953.368C729.902 952.792 730.654 951.896 731.262 950.68L738.318 954.28C737.422 956.552 735.902 958.312 733.758 959.56C731.614 960.808 729.07 961.432 726.126 961.432ZM754.863 961.432C751.791 961.432 749.103 960.856 746.799 959.704C744.527 958.52 742.751 956.92 741.471 954.904C740.223 952.856 739.599 950.536 739.599 947.944C739.599 945.352 740.207 943.048 741.423 941.032C742.671 938.984 744.383 937.4 746.559 936.28C748.735 935.128 751.183 934.552 753.903 934.552C756.463 934.552 758.799 935.08 760.911 936.136C763.023 937.16 764.703 938.68 765.951 940.696C767.199 942.712 767.823 945.16 767.823 948.04C767.823 948.36 767.807 948.728 767.775 949.144C767.743 949.56 767.711 949.944 767.679 950.296H747.087V945.496H762.831L759.375 946.84C759.407 945.656 759.183 944.632 758.703 943.768C758.255 942.904 757.615 942.232 756.783 941.752C755.983 941.272 755.039 941.032 753.951 941.032C752.863 941.032 751.903 941.272 751.071 941.752C750.271 942.232 749.647 942.92 749.199 943.816C748.751 944.68 748.527 945.704 748.527 946.888V948.28C748.527 949.56 748.783 950.664 749.295 951.592C749.839 952.52 750.607 953.24 751.599 953.752C752.591 954.232 753.775 954.472 755.151 954.472C756.431 954.472 757.519 954.296 758.415 953.944C759.343 953.56 760.255 952.984 761.151 952.216L765.951 957.208C764.703 958.584 763.167 959.64 761.343 960.376C759.519 961.08 757.359 961.432 754.863 961.432ZM802.701 961.672C800.045 961.672 797.581 961.256 795.309 960.424C793.069 959.56 791.117 958.344 789.453 956.776C787.821 955.208 786.541 953.368 785.613 951.256C784.685 949.112 784.221 946.76 784.221 944.2C784.221 941.64 784.685 939.304 785.613 937.192C786.541 935.048 787.821 933.192 789.453 931.624C791.117 930.056 793.069 928.856 795.309 928.024C797.581 927.16 800.045 926.728 802.701 926.728C805.805 926.728 808.573 927.272 811.005 928.36C813.469 929.448 815.517 931.016 817.149 933.064L811.101 938.536C810.013 937.256 808.813 936.28 807.501 935.608C806.221 934.936 804.781 934.6 803.181 934.6C801.805 934.6 800.541 934.824 799.389 935.272C798.237 935.72 797.245 936.376 796.413 937.24C795.613 938.072 794.973 939.08 794.493 940.264C794.045 941.448 793.821 942.76 793.821 944.2C793.821 945.64 794.045 946.952 794.493 948.136C794.973 949.32 795.613 950.344 796.413 951.208C797.245 952.04 798.237 952.68 799.389 953.128C800.541 953.576 801.805 953.8 803.181 953.8C804.781 953.8 806.221 953.464 807.501 952.792C808.813 952.12 810.013 951.144 811.101 949.864L817.149 955.336C815.517 957.352 813.469 958.92 811.005 960.04C808.573 961.128 805.805 961.672 802.701 961.672ZM820.714 961V934.984H829.834V961H820.714ZM825.274 932.104C823.61 932.104 822.266 931.64 821.242 930.712C820.218 929.784 819.706 928.632 819.706 927.256C819.706 925.88 820.218 924.728 821.242 923.8C822.266 922.872 823.61 922.408 825.274 922.408C826.938 922.408 828.282 922.856 829.306 923.752C830.33 924.616 830.842 925.736 830.842 927.112C830.842 928.552 830.33 929.752 829.306 930.712C828.314 931.64 826.97 932.104 825.274 932.104ZM852.465 934.552C854.481 934.552 856.305 934.968 857.937 935.8C859.569 936.6 860.849 937.848 861.777 939.544C862.737 941.24 863.217 943.432 863.217 946.12V961H854.097V947.608C854.097 945.752 853.713 944.408 852.945 943.576C852.209 942.712 851.169 942.28 849.825 942.28C848.865 942.28 847.985 942.504 847.185 942.952C846.385 943.368 845.761 944.024 845.313 944.92C844.865 945.816 844.641 946.984 844.641 948.424V961H835.521V934.984H844.209V942.376L842.529 940.216C843.521 938.328 844.881 936.92 846.609 935.992C848.337 935.032 850.289 934.552 852.465 934.552ZM882.663 961.432C879.591 961.432 876.903 960.856 874.599 959.704C872.327 958.52 870.551 956.92 869.271 954.904C868.023 952.856 867.399 950.536 867.399 947.944C867.399 945.352 868.007 943.048 869.223 941.032C870.471 938.984 872.183 937.4 874.359 936.28C876.535 935.128 878.983 934.552 881.703 934.552C884.263 934.552 886.599 935.08 888.711 936.136C890.823 937.16 892.503 938.68 893.751 940.696C894.999 942.712 895.623 945.16 895.623 948.04C895.623 948.36 895.607 948.728 895.575 949.144C895.543 949.56 895.511 949.944 895.479 950.296H874.887V945.496H890.631L887.175 946.84C887.207 945.656 886.983 944.632 886.503 943.768C886.055 942.904 885.415 942.232 884.583 941.752C883.783 941.272 882.839 941.032 881.751 941.032C880.663 941.032 879.703 941.272 878.871 941.752C878.071 942.232 877.447 942.92 876.999 943.816C876.551 944.68 876.327 945.704 876.327 946.888V948.28C876.327 949.56 876.583 950.664 877.095 951.592C877.639 952.52 878.407 953.24 879.399 953.752C880.391 954.232 881.575 954.472 882.951 954.472C884.231 954.472 885.319 954.296 886.215 953.944C887.143 953.56 888.055 952.984 888.951 952.216L893.751 957.208C892.503 958.584 890.967 959.64 889.143 960.376C887.319 961.08 885.159 961.432 882.663 961.432ZM933.476 934.552C935.492 934.552 937.284 934.968 938.852 935.8C940.452 936.6 941.7 937.848 942.596 939.544C943.524 941.24 943.988 943.432 943.988 946.12V961H934.868V947.608C934.868 945.752 934.516 944.408 933.812 943.576C933.108 942.712 932.148 942.28 930.932 942.28C930.068 942.28 929.284 942.488 928.58 942.904C927.876 943.32 927.332 943.96 926.948 944.824C926.564 945.656 926.372 946.744 926.372 948.088V961H917.252V947.608C917.252 945.752 916.9 944.408 916.196 943.576C915.524 942.712 914.564 942.28 913.316 942.28C912.42 942.28 911.62 942.488 910.916 942.904C910.244 943.32 909.7 943.96 909.284 944.824C908.9 945.656 908.708 946.744 908.708 948.088V961H899.588V934.984H908.276V942.232L906.548 940.168C907.508 938.312 908.82 936.92 910.484 935.992C912.148 935.032 914.004 934.552 916.052 934.552C918.388 934.552 920.436 935.16 922.196 936.376C923.988 937.56 925.188 939.416 925.796 941.944L922.82 941.32C923.748 939.208 925.14 937.56 926.996 936.376C928.884 935.16 931.044 934.552 933.476 934.552ZM965.392 961V956.152L964.768 954.952V946.024C964.768 944.584 964.32 943.48 963.424 942.712C962.56 941.912 961.168 941.512 959.248 941.512C958 941.512 956.736 941.72 955.456 942.136C954.176 942.52 953.088 943.064 952.192 943.768L949.12 937.576C950.592 936.616 952.352 935.88 954.4 935.368C956.48 934.824 958.544 934.552 960.592 934.552C964.816 934.552 968.08 935.528 970.384 937.48C972.72 939.4 973.888 942.424 973.888 946.552V961H965.392ZM957.712 961.432C955.632 961.432 953.872 961.08 952.432 960.376C950.992 959.672 949.888 958.712 949.12 957.496C948.384 956.28 948.016 954.92 948.016 953.416C948.016 951.816 948.416 950.44 949.216 949.288C950.048 948.104 951.312 947.208 953.008 946.6C954.704 945.96 956.896 945.64 959.584 945.64H965.728V950.392H960.832C959.36 950.392 958.32 950.632 957.712 951.112C957.136 951.592 956.848 952.232 956.848 953.032C956.848 953.832 957.152 954.472 957.76 954.952C958.368 955.432 959.2 955.672 960.256 955.672C961.248 955.672 962.144 955.432 962.944 954.952C963.776 954.44 964.384 953.672 964.768 952.648L966.016 956.008C965.536 957.8 964.592 959.16 963.184 960.088C961.808 960.984 959.984 961.432 957.712 961.432Z" fill="#1F2A3B"/>
<path d="M487.894 1130.36C486.455 1130.36 485.121 1130.14 483.89 1129.69C482.677 1129.22 481.619 1128.56 480.718 1127.71C479.834 1126.86 479.141 1125.87 478.638 1124.72C478.135 1123.56 477.884 1122.29 477.884 1120.9C477.884 1119.51 478.135 1118.25 478.638 1117.1C479.141 1115.94 479.834 1114.94 480.718 1114.09C481.619 1113.24 482.677 1112.59 483.89 1112.14C485.121 1111.67 486.455 1111.44 487.894 1111.44C489.575 1111.44 491.075 1111.73 492.392 1112.32C493.727 1112.91 494.836 1113.76 495.72 1114.87L492.444 1117.83C491.855 1117.14 491.205 1116.61 490.494 1116.25C489.801 1115.88 489.021 1115.7 488.154 1115.7C487.409 1115.7 486.724 1115.82 486.1 1116.06C485.476 1116.31 484.939 1116.66 484.488 1117.13C484.055 1117.58 483.708 1118.13 483.448 1118.77C483.205 1119.41 483.084 1120.12 483.084 1120.9C483.084 1121.68 483.205 1122.39 483.448 1123.03C483.708 1123.67 484.055 1124.23 484.488 1124.7C484.939 1125.15 485.476 1125.49 486.1 1125.74C486.724 1125.98 487.409 1126.1 488.154 1126.1C489.021 1126.1 489.801 1125.92 490.494 1125.55C491.205 1125.19 491.855 1124.66 492.444 1123.97L495.72 1126.93C494.836 1128.02 493.727 1128.87 492.392 1129.48C491.075 1130.07 489.575 1130.36 487.894 1130.36ZM504.266 1130.23C502.724 1130.23 501.354 1129.92 500.158 1129.3C498.962 1128.67 498.018 1127.82 497.324 1126.72C496.648 1125.61 496.31 1124.35 496.31 1122.93C496.31 1121.51 496.648 1120.25 497.324 1119.16C498.018 1118.07 498.962 1117.22 500.158 1116.61C501.354 1115.99 502.724 1115.67 504.266 1115.67C505.809 1115.67 507.178 1115.99 508.374 1116.61C509.588 1117.22 510.532 1118.07 511.208 1119.16C511.884 1120.25 512.222 1121.51 512.222 1122.93C512.222 1124.35 511.884 1125.61 511.208 1126.72C510.532 1127.82 509.588 1128.67 508.374 1129.3C507.178 1129.92 505.809 1130.23 504.266 1130.23ZM504.266 1126.31C504.838 1126.31 505.341 1126.18 505.774 1125.92C506.225 1125.66 506.58 1125.28 506.84 1124.77C507.1 1124.25 507.23 1123.64 507.23 1122.93C507.23 1122.22 507.1 1121.62 506.84 1121.13C506.58 1120.63 506.225 1120.25 505.774 1119.99C505.341 1119.73 504.838 1119.6 504.266 1119.6C503.712 1119.6 503.209 1119.73 502.758 1119.99C502.325 1120.25 501.97 1120.63 501.692 1121.13C501.432 1121.62 501.302 1122.22 501.302 1122.93C501.302 1123.64 501.432 1124.25 501.692 1124.77C501.97 1125.28 502.325 1125.66 502.758 1125.92C503.209 1126.18 503.712 1126.31 504.266 1126.31ZM517.926 1130L512.128 1115.91H517.198L521.826 1127.69H519.278L524.14 1115.91H528.846L523.022 1130H517.926ZM536.996 1130.23C535.332 1130.23 533.876 1129.92 532.628 1129.3C531.397 1128.66 530.435 1127.79 529.742 1126.7C529.066 1125.59 528.728 1124.33 528.728 1122.93C528.728 1121.52 529.057 1120.28 529.716 1119.18C530.392 1118.07 531.319 1117.22 532.498 1116.61C533.677 1115.99 535.003 1115.67 536.476 1115.67C537.863 1115.67 539.128 1115.96 540.272 1116.53C541.416 1117.09 542.326 1117.91 543.002 1119C543.678 1120.09 544.016 1121.42 544.016 1122.98C544.016 1123.15 544.007 1123.35 543.99 1123.58C543.973 1123.8 543.955 1124.01 543.938 1124.2H532.784V1121.6H541.312L539.44 1122.33C539.457 1121.69 539.336 1121.13 539.076 1120.67C538.833 1120.2 538.487 1119.83 538.036 1119.57C537.603 1119.31 537.091 1119.18 536.502 1119.18C535.913 1119.18 535.393 1119.31 534.942 1119.57C534.509 1119.83 534.171 1120.21 533.928 1120.69C533.685 1121.16 533.564 1121.71 533.564 1122.36V1123.11C533.564 1123.8 533.703 1124.4 533.98 1124.9C534.275 1125.41 534.691 1125.8 535.228 1126.07C535.765 1126.33 536.407 1126.46 537.152 1126.46C537.845 1126.46 538.435 1126.37 538.92 1126.18C539.423 1125.97 539.917 1125.66 540.402 1125.24L543.002 1127.95C542.326 1128.69 541.494 1129.26 540.506 1129.66C539.518 1130.04 538.348 1130.23 536.996 1130.23ZM546.164 1130V1115.91H550.87V1120.02L550.168 1118.85C550.584 1117.79 551.26 1117 552.196 1116.48C553.132 1115.94 554.267 1115.67 555.602 1115.67V1120.12C555.376 1120.09 555.177 1120.07 555.004 1120.07C554.848 1120.05 554.674 1120.04 554.484 1120.04C553.478 1120.04 552.664 1120.32 552.04 1120.87C551.416 1121.41 551.104 1122.3 551.104 1123.53V1130H546.164ZM564.767 1130.23C563.103 1130.23 561.647 1129.92 560.399 1129.3C559.169 1128.66 558.207 1127.79 557.513 1126.7C556.837 1125.59 556.499 1124.33 556.499 1122.93C556.499 1121.52 556.829 1120.28 557.487 1119.18C558.163 1118.07 559.091 1117.22 560.269 1116.61C561.448 1115.99 562.774 1115.67 564.247 1115.67C565.634 1115.67 566.899 1115.96 568.043 1116.53C569.187 1117.09 570.097 1117.91 570.773 1119C571.449 1120.09 571.787 1121.42 571.787 1122.98C571.787 1123.15 571.779 1123.35 571.761 1123.58C571.744 1123.8 571.727 1124.01 571.709 1124.2H560.555V1121.6H569.083L567.211 1122.33C567.229 1121.69 567.107 1121.13 566.847 1120.67C566.605 1120.2 566.258 1119.83 565.807 1119.57C565.374 1119.31 564.863 1119.18 564.273 1119.18C563.684 1119.18 563.164 1119.31 562.713 1119.57C562.28 1119.83 561.942 1120.21 561.699 1120.69C561.457 1121.16 561.335 1121.71 561.335 1122.36V1123.11C561.335 1123.8 561.474 1124.4 561.751 1124.9C562.046 1125.41 562.462 1125.8 562.999 1126.07C563.537 1126.33 564.178 1126.46 564.923 1126.46C565.617 1126.46 566.206 1126.37 566.691 1126.18C567.194 1125.97 567.688 1125.66 568.173 1125.24L570.773 1127.95C570.097 1128.69 569.265 1129.26 568.277 1129.66C567.289 1130.04 566.119 1130.23 564.767 1130.23ZM580.071 1130.23C578.788 1130.23 577.618 1129.94 576.561 1129.35C575.521 1128.74 574.689 1127.9 574.065 1126.83C573.441 1125.74 573.129 1124.44 573.129 1122.93C573.129 1121.44 573.441 1120.15 574.065 1119.08C574.689 1117.99 575.521 1117.15 576.561 1116.56C577.618 1115.97 578.788 1115.67 580.071 1115.67C581.284 1115.67 582.307 1115.93 583.139 1116.45C583.988 1116.97 584.63 1117.77 585.063 1118.85C585.496 1119.92 585.713 1121.28 585.713 1122.93C585.713 1124.61 585.505 1125.99 585.089 1127.06C584.673 1128.14 584.049 1128.93 583.217 1129.45C582.385 1129.97 581.336 1130.23 580.071 1130.23ZM581.111 1126.31C581.666 1126.31 582.16 1126.18 582.593 1125.92C583.044 1125.66 583.399 1125.28 583.659 1124.77C583.919 1124.25 584.049 1123.64 584.049 1122.93C584.049 1122.22 583.919 1121.62 583.659 1121.13C583.399 1120.63 583.044 1120.25 582.593 1119.99C582.16 1119.73 581.666 1119.6 581.111 1119.6C580.539 1119.6 580.028 1119.73 579.577 1119.99C579.144 1120.25 578.797 1120.63 578.537 1121.13C578.277 1121.62 578.147 1122.22 578.147 1122.93C578.147 1123.64 578.277 1124.25 578.537 1124.77C578.797 1125.28 579.144 1125.66 579.577 1125.92C580.028 1126.18 580.539 1126.31 581.111 1126.31ZM584.205 1130V1127.58L584.231 1122.93L583.971 1118.27V1110.71H588.911V1130H584.205ZM608.262 1130.23C607.066 1130.23 606.043 1129.97 605.194 1129.45C604.344 1128.92 603.694 1128.12 603.244 1127.06C602.81 1125.99 602.594 1124.62 602.594 1122.95C602.594 1121.27 602.802 1119.9 603.218 1118.85C603.634 1117.77 604.258 1116.97 605.09 1116.45C605.939 1115.93 606.996 1115.67 608.262 1115.67C609.544 1115.67 610.706 1115.98 611.746 1116.58C612.803 1117.17 613.635 1118.01 614.242 1119.11C614.866 1120.18 615.178 1121.46 615.178 1122.95C615.178 1124.44 614.866 1125.74 614.242 1126.83C613.635 1127.92 612.803 1128.76 611.746 1129.35C610.706 1129.94 609.544 1130.23 608.262 1130.23ZM599.396 1135.04V1115.91H604.102V1118.3L604.076 1122.95L604.336 1127.63V1135.04H599.396ZM607.222 1126.31C607.776 1126.31 608.27 1126.18 608.704 1125.92C609.154 1125.66 609.51 1125.28 609.77 1124.77C610.047 1124.27 610.186 1123.66 610.186 1122.95C610.186 1122.24 610.047 1121.64 609.77 1121.13C609.51 1120.63 609.154 1120.25 608.704 1119.99C608.27 1119.73 607.776 1119.6 607.222 1119.6C606.667 1119.6 606.164 1119.73 605.714 1119.99C605.28 1120.25 604.925 1120.63 604.648 1121.13C604.388 1121.64 604.258 1122.24 604.258 1122.95C604.258 1123.66 604.388 1124.27 604.648 1124.77C604.925 1125.28 605.28 1125.66 605.714 1125.92C606.164 1126.18 606.667 1126.31 607.222 1126.31ZM624.728 1130.23C623.064 1130.23 621.608 1129.92 620.36 1129.3C619.129 1128.66 618.167 1127.79 617.474 1126.7C616.798 1125.59 616.46 1124.33 616.46 1122.93C616.46 1121.52 616.789 1120.28 617.448 1119.18C618.124 1118.07 619.051 1117.22 620.23 1116.61C621.408 1115.99 622.734 1115.67 624.208 1115.67C625.594 1115.67 626.86 1115.96 628.004 1116.53C629.148 1117.09 630.058 1117.91 630.734 1119C631.41 1120.09 631.748 1121.42 631.748 1122.98C631.748 1123.15 631.739 1123.35 631.722 1123.58C631.704 1123.8 631.687 1124.01 631.67 1124.2H620.516V1121.6H629.044L627.172 1122.33C627.189 1121.69 627.068 1121.13 626.808 1120.67C626.565 1120.2 626.218 1119.83 625.768 1119.57C625.334 1119.31 624.823 1119.18 624.234 1119.18C623.644 1119.18 623.124 1119.31 622.674 1119.57C622.24 1119.83 621.902 1120.21 621.66 1120.69C621.417 1121.16 621.296 1121.71 621.296 1122.36V1123.11C621.296 1123.8 621.434 1124.4 621.712 1124.9C622.006 1125.41 622.422 1125.8 622.96 1126.07C623.497 1126.33 624.138 1126.46 624.884 1126.46C625.577 1126.46 626.166 1126.37 626.652 1126.18C627.154 1125.97 627.648 1125.66 628.134 1125.24L630.734 1127.95C630.058 1128.69 629.226 1129.26 628.238 1129.66C627.25 1130.04 626.08 1130.23 624.728 1130.23ZM633.895 1130V1115.91H638.601V1120.02L637.899 1118.85C638.315 1117.79 638.991 1117 639.927 1116.48C640.863 1115.94 641.999 1115.67 643.333 1115.67V1120.12C643.108 1120.09 642.909 1120.07 642.735 1120.07C642.579 1120.05 642.406 1120.04 642.215 1120.04C641.21 1120.04 640.395 1120.32 639.771 1120.87C639.147 1121.41 638.835 1122.3 638.835 1123.53V1130H633.895ZM645.242 1130V1115.91H650.182V1130H645.242ZM647.712 1114.35C646.811 1114.35 646.083 1114.1 645.528 1113.59C644.973 1113.09 644.696 1112.47 644.696 1111.72C644.696 1110.98 644.973 1110.35 645.528 1109.85C646.083 1109.35 646.811 1109.1 647.712 1109.1C648.613 1109.1 649.341 1109.34 649.896 1109.82C650.451 1110.29 650.728 1110.9 650.728 1111.64C650.728 1112.42 650.451 1113.07 649.896 1113.59C649.359 1114.1 648.631 1114.35 647.712 1114.35ZM660.334 1130.23C658.792 1130.23 657.422 1129.92 656.226 1129.3C655.03 1128.67 654.086 1127.82 653.392 1126.72C652.716 1125.61 652.378 1124.35 652.378 1122.93C652.378 1121.51 652.716 1120.25 653.392 1119.16C654.086 1118.07 655.03 1117.22 656.226 1116.61C657.422 1115.99 658.792 1115.67 660.334 1115.67C661.877 1115.67 663.246 1115.99 664.442 1116.61C665.656 1117.22 666.6 1118.07 667.276 1119.16C667.952 1120.25 668.29 1121.51 668.29 1122.93C668.29 1124.35 667.952 1125.61 667.276 1126.72C666.6 1127.82 665.656 1128.67 664.442 1129.3C663.246 1129.92 661.877 1130.23 660.334 1130.23ZM660.334 1126.31C660.906 1126.31 661.409 1126.18 661.842 1125.92C662.293 1125.66 662.648 1125.28 662.908 1124.77C663.168 1124.25 663.298 1123.64 663.298 1122.93C663.298 1122.22 663.168 1121.62 662.908 1121.13C662.648 1120.63 662.293 1120.25 661.842 1119.99C661.409 1119.73 660.906 1119.6 660.334 1119.6C659.78 1119.6 659.277 1119.73 658.826 1119.99C658.393 1120.25 658.038 1120.63 657.76 1121.13C657.5 1121.62 657.37 1122.22 657.37 1122.93C657.37 1123.64 657.5 1124.25 657.76 1124.77C658.038 1125.28 658.393 1125.66 658.826 1125.92C659.277 1126.18 659.78 1126.31 660.334 1126.31ZM676.585 1130.23C675.302 1130.23 674.132 1129.94 673.075 1129.35C672.035 1128.74 671.203 1127.9 670.579 1126.83C669.955 1125.74 669.643 1124.44 669.643 1122.93C669.643 1121.44 669.955 1120.15 670.579 1119.08C671.203 1117.99 672.035 1117.15 673.075 1116.56C674.132 1115.97 675.302 1115.67 676.585 1115.67C677.798 1115.67 678.821 1115.93 679.653 1116.45C680.502 1116.97 681.143 1117.77 681.577 1118.85C682.01 1119.92 682.227 1121.28 682.227 1122.93C682.227 1124.61 682.019 1125.99 681.603 1127.06C681.187 1128.14 680.563 1128.93 679.731 1129.45C678.899 1129.97 677.85 1130.23 676.585 1130.23ZM677.625 1126.31C678.179 1126.31 678.673 1126.18 679.107 1125.92C679.557 1125.66 679.913 1125.28 680.173 1124.77C680.433 1124.25 680.563 1123.64 680.563 1122.93C680.563 1122.22 680.433 1121.62 680.173 1121.13C679.913 1120.63 679.557 1120.25 679.107 1119.99C678.673 1119.73 678.179 1119.6 677.625 1119.6C677.053 1119.6 676.541 1119.73 676.091 1119.99C675.657 1120.25 675.311 1120.63 675.051 1121.13C674.791 1121.62 674.661 1122.22 674.661 1122.93C674.661 1123.64 674.791 1124.25 675.051 1124.77C675.311 1125.28 675.657 1125.66 676.091 1125.92C676.541 1126.18 677.053 1126.31 677.625 1126.31ZM680.719 1130V1127.58L680.745 1122.93L680.485 1118.27V1110.71H685.425V1130H680.719ZM690.553 1121.52C689.721 1121.52 689.019 1121.25 688.447 1120.69C687.875 1120.14 687.589 1119.44 687.589 1118.59C687.589 1117.7 687.875 1117 688.447 1116.48C689.019 1115.94 689.721 1115.67 690.553 1115.67C691.385 1115.67 692.087 1115.94 692.659 1116.48C693.231 1117 693.517 1117.7 693.517 1118.59C693.517 1119.44 693.231 1120.14 692.659 1120.69C692.087 1121.25 691.385 1121.52 690.553 1121.52ZM690.553 1130.23C689.721 1130.23 689.019 1129.96 688.447 1129.4C687.875 1128.85 687.589 1128.15 687.589 1127.3C687.589 1126.41 687.875 1125.71 688.447 1125.19C689.019 1124.65 689.721 1124.38 690.553 1124.38C691.385 1124.38 692.087 1124.65 692.659 1125.19C693.231 1125.71 693.517 1126.41 693.517 1127.3C693.517 1128.15 693.231 1128.85 692.659 1129.4C692.087 1129.96 691.385 1130.23 690.553 1130.23ZM710.163 1130.16C708.759 1130.16 707.511 1129.79 706.419 1129.06C705.327 1128.32 704.469 1127.26 703.845 1125.89C703.221 1124.51 702.909 1122.84 702.909 1120.9C702.909 1118.96 703.221 1117.3 703.845 1115.93C704.469 1114.55 705.327 1113.49 706.419 1112.76C707.511 1112.02 708.759 1111.64 710.163 1111.64C711.567 1111.64 712.815 1112.02 713.907 1112.76C714.999 1113.49 715.857 1114.55 716.481 1115.93C717.122 1117.3 717.443 1118.96 717.443 1120.9C717.443 1122.84 717.122 1124.51 716.481 1125.89C715.857 1127.26 714.999 1128.32 713.907 1129.06C712.815 1129.79 711.567 1130.16 710.163 1130.16ZM710.163 1128.44C711.237 1128.44 712.173 1128.15 712.971 1127.58C713.768 1126.99 714.392 1126.14 714.843 1125.03C715.293 1123.91 715.519 1122.53 715.519 1120.9C715.519 1119.27 715.293 1117.9 714.843 1116.79C714.392 1115.67 713.768 1114.82 712.971 1114.24C712.173 1113.65 711.237 1113.36 710.163 1113.36C709.123 1113.36 708.195 1113.65 707.381 1114.24C706.566 1114.82 705.933 1115.67 705.483 1116.79C705.032 1117.9 704.807 1119.27 704.807 1120.9C704.807 1122.53 705.032 1123.91 705.483 1125.03C705.933 1126.14 706.566 1126.99 707.381 1127.58C708.195 1128.15 709.123 1128.44 710.163 1128.44ZM723.166 1130V1112.58L723.998 1113.46H718.876V1111.8H725.038V1130H723.166ZM727.256 1132.6L735.836 1108.11H737.526L728.946 1132.6H727.256ZM744.583 1130.16C743.179 1130.16 741.931 1129.79 740.839 1129.06C739.747 1128.32 738.889 1127.26 738.265 1125.89C737.641 1124.51 737.329 1122.84 737.329 1120.9C737.329 1118.96 737.641 1117.3 738.265 1115.93C738.889 1114.55 739.747 1113.49 740.839 1112.76C741.931 1112.02 743.179 1111.64 744.583 1111.64C745.987 1111.64 747.235 1112.02 748.327 1112.76C749.419 1113.49 750.277 1114.55 750.901 1115.93C751.543 1117.3 751.863 1118.96 751.863 1120.9C751.863 1122.84 751.543 1124.51 750.901 1125.89C750.277 1127.26 749.419 1128.32 748.327 1129.06C747.235 1129.79 745.987 1130.16 744.583 1130.16ZM744.583 1128.44C745.658 1128.44 746.594 1128.15 747.391 1127.58C748.189 1126.99 748.813 1126.14 749.263 1125.03C749.714 1123.91 749.939 1122.53 749.939 1120.9C749.939 1119.27 749.714 1117.9 749.263 1116.79C748.813 1115.67 748.189 1114.82 747.391 1114.24C746.594 1113.65 745.658 1113.36 744.583 1113.36C743.543 1113.36 742.616 1113.65 741.801 1114.24C740.987 1114.82 740.354 1115.67 739.903 1116.79C739.453 1117.9 739.227 1119.27 739.227 1120.9C739.227 1122.53 739.453 1123.91 739.903 1125.03C740.354 1126.14 740.987 1126.99 741.801 1127.58C742.616 1128.15 743.543 1128.44 744.583 1128.44ZM757.586 1130V1112.58L758.418 1113.46H753.296V1111.8H759.458V1130H757.586ZM761.677 1132.6L770.257 1108.11H771.947L763.367 1132.6H761.677ZM771.92 1130V1128.67L779.486 1121.26C780.179 1120.59 780.699 1120 781.046 1119.5C781.392 1118.98 781.626 1118.49 781.748 1118.04C781.869 1117.59 781.93 1117.16 781.93 1116.77C781.93 1115.71 781.566 1114.88 780.838 1114.27C780.127 1113.66 779.07 1113.36 777.666 1113.36C776.591 1113.36 775.638 1113.52 774.806 1113.85C773.991 1114.18 773.289 1114.69 772.7 1115.39L771.374 1114.24C772.084 1113.41 772.994 1112.77 774.104 1112.32C775.213 1111.87 776.452 1111.64 777.822 1111.64C779.052 1111.64 780.118 1111.84 781.02 1112.24C781.921 1112.62 782.614 1113.19 783.1 1113.93C783.602 1114.68 783.854 1115.55 783.854 1116.56C783.854 1117.15 783.767 1117.73 783.594 1118.3C783.438 1118.87 783.143 1119.48 782.71 1120.12C782.294 1120.74 781.678 1121.45 780.864 1122.25L773.922 1129.06L773.402 1128.34H784.686V1130H771.92ZM794.108 1130.16C792.704 1130.16 791.456 1129.79 790.364 1129.06C789.272 1128.32 788.414 1127.26 787.79 1125.89C787.166 1124.51 786.854 1122.84 786.854 1120.9C786.854 1118.96 787.166 1117.3 787.79 1115.93C788.414 1114.55 789.272 1113.49 790.364 1112.76C791.456 1112.02 792.704 1111.64 794.108 1111.64C795.512 1111.64 796.76 1112.02 797.852 1112.76C798.944 1113.49 799.802 1114.55 800.426 1115.93C801.068 1117.3 801.388 1118.96 801.388 1120.9C801.388 1122.84 801.068 1124.51 800.426 1125.89C799.802 1127.26 798.944 1128.32 797.852 1129.06C796.76 1129.79 795.512 1130.16 794.108 1130.16ZM794.108 1128.44C795.183 1128.44 796.119 1128.15 796.916 1127.58C797.714 1126.99 798.338 1126.14 798.788 1125.03C799.239 1123.91 799.464 1122.53 799.464 1120.9C799.464 1119.27 799.239 1117.9 798.788 1116.79C798.338 1115.67 797.714 1114.82 796.916 1114.24C796.119 1113.65 795.183 1113.36 794.108 1113.36C793.068 1113.36 792.141 1113.65 791.326 1114.24C790.512 1114.82 789.879 1115.67 789.428 1116.79C788.978 1117.9 788.752 1119.27 788.752 1120.9C788.752 1122.53 788.978 1123.91 789.428 1125.03C789.879 1126.14 790.512 1126.99 791.326 1127.58C792.141 1128.15 793.068 1128.44 794.108 1128.44ZM807.111 1130V1112.58L807.943 1113.46H802.821V1111.8H808.983V1130H807.111ZM818.872 1111.64C820.484 1111.64 821.844 1112.01 822.954 1112.74C824.063 1113.45 824.904 1114.48 825.476 1115.83C826.048 1117.18 826.334 1118.82 826.334 1120.74C826.334 1122.79 825.978 1124.51 825.268 1125.92C824.574 1127.32 823.604 1128.38 822.356 1129.09C821.108 1129.8 819.66 1130.16 818.014 1130.16C817.199 1130.16 816.419 1130.08 815.674 1129.92C814.946 1129.77 814.287 1129.51 813.698 1129.17L814.452 1127.66C814.92 1127.97 815.457 1128.2 816.064 1128.34C816.688 1128.46 817.329 1128.52 817.988 1128.52C819.946 1128.52 821.506 1127.89 822.668 1126.65C823.846 1125.4 824.436 1123.53 824.436 1121.06C824.436 1120.66 824.41 1120.18 824.358 1119.63C824.323 1119.07 824.228 1118.52 824.072 1117.96L824.722 1118.46C824.548 1119.36 824.176 1120.13 823.604 1120.77C823.049 1121.39 822.356 1121.87 821.524 1122.2C820.709 1122.53 819.799 1122.69 818.794 1122.69C817.598 1122.69 816.532 1122.47 815.596 1122.02C814.677 1121.57 813.958 1120.93 813.438 1120.12C812.918 1119.31 812.658 1118.34 812.658 1117.23C812.658 1116.09 812.926 1115.1 813.464 1114.27C814.001 1113.44 814.738 1112.8 815.674 1112.35C816.627 1111.88 817.693 1111.64 818.872 1111.64ZM818.95 1113.23C818.083 1113.23 817.312 1113.39 816.636 1113.72C815.977 1114.04 815.457 1114.49 815.076 1115.08C814.694 1115.67 814.504 1116.37 814.504 1117.18C814.504 1118.38 814.911 1119.33 815.726 1120.04C816.558 1120.75 817.676 1121.11 819.08 1121.11C820.016 1121.11 820.83 1120.93 821.524 1120.59C822.234 1120.24 822.78 1119.76 823.162 1119.16C823.56 1118.55 823.76 1117.88 823.76 1117.13C823.76 1116.45 823.578 1115.82 823.214 1115.23C822.85 1114.64 822.312 1114.17 821.602 1113.8C820.891 1113.42 820.007 1113.23 818.95 1113.23ZM835.8 1123.76V1122.15H842.612V1123.76H835.8ZM855.236 1130V1112.58L856.068 1113.46H850.946V1111.8H857.108V1130H855.236ZM860.991 1130V1128.67L868.557 1121.26C869.25 1120.59 869.77 1120 870.117 1119.5C870.464 1118.98 870.698 1118.49 870.819 1118.04C870.94 1117.59 871.001 1117.16 871.001 1116.77C871.001 1115.71 870.637 1114.88 869.909 1114.27C869.198 1113.66 868.141 1113.36 866.737 1113.36C865.662 1113.36 864.709 1113.52 863.877 1113.85C863.062 1114.18 862.36 1114.69 861.771 1115.39L860.445 1114.24C861.156 1113.41 862.066 1112.77 863.175 1112.32C864.284 1111.87 865.524 1111.64 866.893 1111.64C868.124 1111.64 869.19 1111.84 870.091 1112.24C870.992 1112.62 871.686 1113.19 872.171 1113.93C872.674 1114.68 872.925 1115.55 872.925 1116.56C872.925 1117.15 872.838 1117.73 872.665 1118.3C872.509 1118.87 872.214 1119.48 871.781 1120.12C871.365 1120.74 870.75 1121.45 869.935 1122.25L862.993 1129.06L862.473 1128.34H873.757V1130H860.991ZM874.228 1132.6L882.808 1108.11H884.498L875.918 1132.6H874.228ZM890.243 1130.16C888.926 1130.16 887.678 1129.95 886.499 1129.53C885.338 1129.1 884.402 1128.53 883.691 1127.82L884.601 1126.33C885.191 1126.94 885.979 1127.44 886.967 1127.84C887.973 1128.24 889.065 1128.44 890.243 1128.44C891.751 1128.44 892.904 1128.11 893.701 1127.45C894.516 1126.79 894.923 1125.91 894.923 1124.8C894.923 1123.69 894.525 1122.81 893.727 1122.15C892.947 1121.49 891.708 1121.16 890.009 1121.16H888.709V1119.78L894.325 1112.74L894.585 1113.46H884.445V1111.8H896.145V1113.13L890.529 1120.17L889.619 1119.57H890.321C892.505 1119.57 894.135 1120.06 895.209 1121.03C896.301 1122 896.847 1123.25 896.847 1124.77C896.847 1125.8 896.605 1126.72 896.119 1127.53C895.634 1128.34 894.897 1128.99 893.909 1129.45C892.939 1129.92 891.717 1130.16 890.243 1130.16ZM902.527 1130V1112.58L903.359 1113.46H898.237V1111.8H904.399V1130H902.527ZM906.617 1132.6L915.197 1108.11H916.887L908.307 1132.6H906.617ZM916.86 1130V1128.67L924.426 1121.26C925.12 1120.59 925.64 1120 925.986 1119.5C926.333 1118.98 926.567 1118.49 926.688 1118.04C926.81 1117.59 926.87 1117.16 926.87 1116.77C926.87 1115.71 926.506 1114.88 925.778 1114.27C925.068 1113.66 924.01 1113.36 922.606 1113.36C921.532 1113.36 920.578 1113.52 919.746 1113.85C918.932 1114.18 918.23 1114.69 917.64 1115.39L916.314 1114.24C917.025 1113.41 917.935 1112.77 919.044 1112.32C920.154 1111.87 921.393 1111.64 922.762 1111.64C923.993 1111.64 925.059 1111.84 925.96 1112.24C926.862 1112.62 927.555 1113.19 928.04 1113.93C928.543 1114.68 928.794 1115.55 928.794 1116.56C928.794 1117.15 928.708 1117.73 928.534 1118.3C928.378 1118.87 928.084 1119.48 927.65 1120.12C927.234 1120.74 926.619 1121.45 925.804 1122.25L918.862 1129.06L918.342 1128.34H929.626V1130H916.86ZM939.049 1130.16C937.645 1130.16 936.397 1129.79 935.305 1129.06C934.213 1128.32 933.355 1127.26 932.731 1125.89C932.107 1124.51 931.795 1122.84 931.795 1120.9C931.795 1118.96 932.107 1117.3 932.731 1115.93C933.355 1114.55 934.213 1113.49 935.305 1112.76C936.397 1112.02 937.645 1111.64 939.049 1111.64C940.453 1111.64 941.701 1112.02 942.793 1112.76C943.885 1113.49 944.743 1114.55 945.367 1115.93C946.008 1117.3 946.329 1118.96 946.329 1120.9C946.329 1122.84 946.008 1124.51 945.367 1125.89C944.743 1127.26 943.885 1128.32 942.793 1129.06C941.701 1129.79 940.453 1130.16 939.049 1130.16ZM939.049 1128.44C940.124 1128.44 941.06 1128.15 941.857 1127.58C942.654 1126.99 943.278 1126.14 943.729 1125.03C944.18 1123.91 944.405 1122.53 944.405 1120.9C944.405 1119.27 944.18 1117.9 943.729 1116.79C943.278 1115.67 942.654 1114.82 941.857 1114.24C941.06 1113.65 940.124 1113.36 939.049 1113.36C938.009 1113.36 937.082 1113.65 936.267 1114.24C935.452 1114.82 934.82 1115.67 934.369 1116.79C933.918 1117.9 933.693 1119.27 933.693 1120.9C933.693 1122.53 933.918 1123.91 934.369 1125.03C934.82 1126.14 935.452 1126.99 936.267 1127.58C937.082 1128.15 938.009 1128.44 939.049 1128.44ZM952.052 1130V1112.58L952.884 1113.46H947.762V1111.8H953.924V1130H952.052ZM963.812 1111.64C965.424 1111.64 966.785 1112.01 967.894 1112.74C969.004 1113.45 969.844 1114.48 970.416 1115.83C970.988 1117.18 971.274 1118.82 971.274 1120.74C971.274 1122.79 970.919 1124.51 970.208 1125.92C969.515 1127.32 968.544 1128.38 967.296 1129.09C966.048 1129.8 964.601 1130.16 962.954 1130.16C962.14 1130.16 961.36 1130.08 960.614 1129.92C959.886 1129.77 959.228 1129.51 958.638 1129.17L959.392 1127.66C959.86 1127.97 960.398 1128.2 961.004 1128.34C961.628 1128.46 962.27 1128.52 962.928 1128.52C964.887 1128.52 966.447 1127.89 967.608 1126.65C968.787 1125.4 969.376 1123.53 969.376 1121.06C969.376 1120.66 969.35 1120.18 969.298 1119.63C969.264 1119.07 969.168 1118.52 969.012 1117.96L969.662 1118.46C969.489 1119.36 969.116 1120.13 968.544 1120.77C967.99 1121.39 967.296 1121.87 966.464 1122.2C965.65 1122.53 964.74 1122.69 963.734 1122.69C962.538 1122.69 961.472 1122.47 960.536 1122.02C959.618 1121.57 958.898 1120.93 958.378 1120.12C957.858 1119.31 957.598 1118.34 957.598 1117.23C957.598 1116.09 957.867 1115.1 958.404 1114.27C958.942 1113.44 959.678 1112.8 960.614 1112.35C961.568 1111.88 962.634 1111.64 963.812 1111.64ZM963.89 1113.23C963.024 1113.23 962.252 1113.39 961.576 1113.72C960.918 1114.04 960.398 1114.49 960.016 1115.08C959.635 1115.67 959.444 1116.37 959.444 1117.18C959.444 1118.38 959.852 1119.33 960.666 1120.04C961.498 1120.75 962.616 1121.11 964.02 1121.11C964.956 1121.11 965.771 1120.93 966.464 1120.59C967.175 1120.24 967.721 1119.76 968.102 1119.16C968.501 1118.55 968.7 1117.88 968.7 1117.13C968.7 1116.45 968.518 1115.82 968.154 1115.23C967.79 1114.64 967.253 1114.17 966.542 1113.8C965.832 1113.42 964.948 1113.23 963.89 1113.23Z" fill="#454E5D"/>
<path d="M626.82 760V741.8H631.058L638.598 754.176H636.362L643.694 741.8H647.932L647.984 760H643.252L643.2 749.002H644.006L638.52 758.206H636.232L630.59 749.002H631.578V760H626.82ZM658.335 760.234C656.792 760.234 655.423 759.922 654.227 759.298C653.031 758.674 652.086 757.816 651.393 756.724C650.717 755.615 650.379 754.349 650.379 752.928C650.379 751.507 650.717 750.25 651.393 749.158C652.086 748.066 653.031 747.217 654.227 746.61C655.423 745.986 656.792 745.674 658.335 745.674C659.877 745.674 661.247 745.986 662.443 746.61C663.656 747.217 664.601 748.066 665.277 749.158C665.953 750.25 666.291 751.507 666.291 752.928C666.291 754.349 665.953 755.615 665.277 756.724C664.601 757.816 663.656 758.674 662.443 759.298C661.247 759.922 659.877 760.234 658.335 760.234ZM658.335 756.308C658.907 756.308 659.409 756.178 659.843 755.918C660.293 755.658 660.649 755.277 660.909 754.774C661.169 754.254 661.299 753.639 661.299 752.928C661.299 752.217 661.169 751.619 660.909 751.134C660.649 750.631 660.293 750.25 659.843 749.99C659.409 749.73 658.907 749.6 658.335 749.6C657.78 749.6 657.277 749.73 656.827 749.99C656.393 750.25 656.038 750.631 655.761 751.134C655.501 751.619 655.371 752.217 655.371 752.928C655.371 753.639 655.501 754.254 655.761 754.774C656.038 755.277 656.393 755.658 656.827 755.918C657.277 756.178 657.78 756.308 658.335 756.308ZM671.994 760L666.196 745.908H671.266L675.894 757.686H673.346L678.208 745.908H682.914L677.09 760H671.994ZM684.061 760V745.908H689.001V760H684.061ZM686.531 744.348C685.63 744.348 684.902 744.097 684.347 743.594C683.793 743.091 683.515 742.467 683.515 741.722C683.515 740.977 683.793 740.353 684.347 739.85C684.902 739.347 685.63 739.096 686.531 739.096C687.433 739.096 688.161 739.339 688.715 739.824C689.27 740.292 689.547 740.899 689.547 741.644C689.547 742.424 689.27 743.074 688.715 743.594C688.178 744.097 687.45 744.348 686.531 744.348ZM699.466 760.234C697.802 760.234 696.346 759.922 695.098 759.298C693.867 758.657 692.905 757.79 692.212 756.698C691.536 755.589 691.198 754.332 691.198 752.928C691.198 751.524 691.527 750.276 692.186 749.184C692.862 748.075 693.789 747.217 694.968 746.61C696.146 745.986 697.472 745.674 698.946 745.674C700.332 745.674 701.598 745.96 702.742 746.532C703.886 747.087 704.796 747.91 705.472 749.002C706.148 750.094 706.486 751.42 706.486 752.98C706.486 753.153 706.477 753.353 706.46 753.578C706.442 753.803 706.425 754.011 706.408 754.202H695.254V751.602H703.782L701.91 752.33C701.927 751.689 701.806 751.134 701.546 750.666C701.303 750.198 700.956 749.834 700.506 749.574C700.072 749.314 699.561 749.184 698.972 749.184C698.382 749.184 697.862 749.314 697.412 749.574C696.978 749.834 696.64 750.207 696.398 750.692C696.155 751.16 696.034 751.715 696.034 752.356V753.11C696.034 753.803 696.172 754.401 696.45 754.904C696.744 755.407 697.16 755.797 697.698 756.074C698.235 756.334 698.876 756.464 699.622 756.464C700.315 756.464 700.904 756.369 701.39 756.178C701.892 755.97 702.386 755.658 702.872 755.242L705.472 757.946C704.796 758.691 703.964 759.263 702.976 759.662C701.988 760.043 700.818 760.234 699.466 760.234ZM710.713 751.524C709.881 751.524 709.179 751.247 708.607 750.692C708.035 750.137 707.749 749.435 707.749 748.586C707.749 747.702 708.035 747 708.607 746.48C709.179 745.943 709.881 745.674 710.713 745.674C711.545 745.674 712.247 745.943 712.819 746.48C713.391 747 713.677 747.702 713.677 748.586C713.677 749.435 713.391 750.137 712.819 750.692C712.247 751.247 711.545 751.524 710.713 751.524ZM710.713 760.234C709.881 760.234 709.179 759.957 708.607 759.402C708.035 758.847 707.749 758.145 707.749 757.296C707.749 756.412 708.035 755.71 708.607 755.19C709.179 754.653 709.881 754.384 710.713 754.384C711.545 754.384 712.247 754.653 712.819 755.19C713.391 755.71 713.677 756.412 713.677 757.296C713.677 758.145 713.391 758.847 712.819 759.402C712.247 759.957 711.545 760.234 710.713 760.234ZM724.681 760V741.8H731.493C733.036 741.8 734.362 742.051 735.471 742.554C736.58 743.039 737.43 743.75 738.019 744.686C738.626 745.605 738.929 746.723 738.929 748.04C738.929 749.323 738.626 750.432 738.019 751.368C737.43 752.287 736.58 752.997 735.471 753.5C734.362 753.985 733.036 754.228 731.493 754.228H725.747L726.605 753.344V760H724.681ZM737.109 760L732.429 753.396H734.509L739.215 760H737.109ZM726.605 753.5L725.747 752.59H731.441C733.261 752.59 734.639 752.191 735.575 751.394C736.528 750.597 737.005 749.479 737.005 748.04C737.005 746.584 736.528 745.457 735.575 744.66C734.639 743.863 733.261 743.464 731.441 743.464H725.747L726.605 742.554V753.5ZM748.592 760.13C747.431 760.13 746.417 759.913 745.55 759.48C744.683 759.047 744.007 758.397 743.522 757.53C743.054 756.663 742.82 755.58 742.82 754.28V746.35H744.666V754.072C744.666 755.528 745.021 756.629 745.732 757.374C746.46 758.102 747.474 758.466 748.774 758.466C749.727 758.466 750.551 758.275 751.244 757.894C751.955 757.495 752.492 756.923 752.856 756.178C753.237 755.433 753.428 754.54 753.428 753.5V746.35H755.274V760H753.506V756.256L753.792 756.932C753.359 757.937 752.683 758.726 751.764 759.298C750.863 759.853 749.805 760.13 748.592 760.13ZM767.335 760.13C766.139 760.13 765.064 759.861 764.111 759.324C763.157 758.769 762.403 757.972 761.849 756.932C761.294 755.892 761.017 754.635 761.017 753.162C761.017 751.671 761.294 750.415 761.849 749.392C762.421 748.352 763.183 747.563 764.137 747.026C765.09 746.489 766.156 746.22 767.335 746.22C768.635 746.22 769.796 746.515 770.819 747.104C771.859 747.676 772.673 748.482 773.263 749.522C773.852 750.562 774.147 751.775 774.147 753.162C774.147 754.531 773.852 755.745 773.263 756.802C772.673 757.842 771.859 758.657 770.819 759.246C769.796 759.835 768.635 760.13 767.335 760.13ZM760.289 760V740.708H762.135V750.38L761.875 753.136L762.057 755.892V760H760.289ZM767.205 758.492C768.175 758.492 769.042 758.275 769.805 757.842C770.567 757.391 771.174 756.767 771.625 755.97C772.075 755.155 772.301 754.219 772.301 753.162C772.301 752.087 772.075 751.151 771.625 750.354C771.174 749.557 770.567 748.941 769.805 748.508C769.042 748.057 768.175 747.832 767.205 747.832C766.234 747.832 765.359 748.057 764.579 748.508C763.816 748.941 763.209 749.557 762.759 750.354C762.325 751.151 762.109 752.087 762.109 753.162C762.109 754.219 762.325 755.155 762.759 755.97C763.209 756.767 763.816 757.391 764.579 757.842C765.359 758.275 766.234 758.492 767.205 758.492ZM784.826 760.13C783.63 760.13 782.555 759.861 781.602 759.324C780.649 758.769 779.895 757.972 779.34 756.932C778.785 755.892 778.508 754.635 778.508 753.162C778.508 751.671 778.785 750.415 779.34 749.392C779.912 748.352 780.675 747.563 781.628 747.026C782.581 746.489 783.647 746.22 784.826 746.22C786.126 746.22 787.287 746.515 788.31 747.104C789.35 747.676 790.165 748.482 790.754 749.522C791.343 750.562 791.638 751.775 791.638 753.162C791.638 754.531 791.343 755.745 790.754 756.802C790.165 757.842 789.35 758.657 788.31 759.246C787.287 759.835 786.126 760.13 784.826 760.13ZM777.78 760V740.708H779.626V750.38L779.366 753.136L779.548 755.892V760H777.78ZM784.696 758.492C785.667 758.492 786.533 758.275 787.296 757.842C788.059 757.391 788.665 756.767 789.116 755.97C789.567 755.155 789.792 754.219 789.792 753.162C789.792 752.087 789.567 751.151 789.116 750.354C788.665 749.557 788.059 748.941 787.296 748.508C786.533 748.057 785.667 747.832 784.696 747.832C783.725 747.832 782.85 748.057 782.07 748.508C781.307 748.941 780.701 749.557 780.25 750.354C779.817 751.151 779.6 752.087 779.6 753.162C779.6 754.219 779.817 755.155 780.25 755.97C780.701 756.767 781.307 757.391 782.07 757.842C782.85 758.275 783.725 758.492 784.696 758.492ZM801.069 760.13C799.648 760.13 798.4 759.835 797.325 759.246C796.25 758.639 795.41 757.816 794.803 756.776C794.196 755.719 793.893 754.514 793.893 753.162C793.893 751.81 794.179 750.614 794.751 749.574C795.34 748.534 796.138 747.719 797.143 747.13C798.166 746.523 799.31 746.22 800.575 746.22C801.858 746.22 802.993 746.515 803.981 747.104C804.986 747.676 805.775 748.491 806.347 749.548C806.919 750.588 807.205 751.793 807.205 753.162C807.205 753.249 807.196 753.344 807.179 753.448C807.179 753.535 807.179 753.63 807.179 753.734H795.297V752.356H806.191L805.463 752.902C805.463 751.914 805.246 751.039 804.813 750.276C804.397 749.496 803.825 748.889 803.097 748.456C802.369 748.023 801.528 747.806 800.575 747.806C799.639 747.806 798.798 748.023 798.053 748.456C797.308 748.889 796.727 749.496 796.311 750.276C795.895 751.056 795.687 751.949 795.687 752.954V753.24C795.687 754.28 795.912 755.199 796.363 755.996C796.831 756.776 797.472 757.391 798.287 757.842C799.119 758.275 800.064 758.492 801.121 758.492C801.953 758.492 802.724 758.345 803.435 758.05C804.163 757.755 804.787 757.305 805.307 756.698L806.347 757.894C805.74 758.622 804.978 759.177 804.059 759.558C803.158 759.939 802.161 760.13 801.069 760.13ZM810.832 760V746.35H812.6V750.068L812.418 749.418C812.8 748.378 813.441 747.589 814.342 747.052C815.244 746.497 816.362 746.22 817.696 746.22V748.014C817.627 748.014 817.558 748.014 817.488 748.014C817.419 747.997 817.35 747.988 817.28 747.988C815.842 747.988 814.715 748.43 813.9 749.314C813.086 750.181 812.678 751.42 812.678 753.032V760H810.832Z" fill="#454E5D"/>
<line x1="677" y1="1046.5" x2="772" y2="1046.5" stroke="#3C64F7" stroke-width="3"/>
</g>
<defs>
<clipPath id="clip0_66_3495">
<rect width="1440" height="2038" fill="white"/>
</clipPath>
</defs>
</svg>
