<?xml version="1.0" encoding="UTF-8"?>
<svg width="1217px" height="451px" viewBox="0 0 1217 451" version="1.1" xmlns="http://www.w3.org/2000/svg" xmlns:xlink="http://www.w3.org/1999/xlink">
    <title>Group 6</title>
    <g id="Existing-org" stroke="none" stroke-width="1" fill="none" fill-rule="evenodd">
        <g id="waiting" transform="translate(-91.000000, -162.000000)" fill-rule="nonzero">
            <g id="Group-6" transform="translate(91.000000, 163.000000)">
                <path d="M76.8791708,47.2692234 C76.2558626,48.1765544 74.7603325,48.5379442 73.5367195,48.0769154 C64.3653071,44.673532 53.3782684,45.111255 44.775001,48.9422073 C36.171731,52.7733443 29.8500011,59.9487877 29.8500011,70.4615221 C29.8269439,71.3564491 28.9423032,72.1102034 27.7510461,72.2499276 C11.4544387,74.2794037 0,86.1610607 0,98.1538561 C0,112.522281 15.5931387,124 39.800001,124 L159.2,124 C181.210644,124 199,110.797051 199,94.4615498 C199,80.6390321 186.231163,69.085215 168.994531,65.8461393 C167.867252,65.6305104 167.092184,64.8635326 167.128906,63.9999862 C167.365219,45.6662086 147.413974,28 119.4,28 C99.1082194,28 83.9508845,36.7723659 76.8791708,47.2692234 Z" id="Path-Copy" fill="#FFFFFF"></path>
                <path d="M1139.67726,346.645428 C1139.28261,347.240864 1138.33569,347.478026 1137.56094,347.175476 C1131.75391,344.942005 1124.7973,345.229261 1119.35,347.743324 C1113.9027,350.257507 1109.9,354.966392 1109.9,361.865374 C1109.8854,362.45267 1109.32528,362.947321 1108.57101,363.039015 C1098.25256,364.370859 1091,372.168196 1091,380.038468 C1091,389.467747 1100.87304,397 1116.2,397 L1191.8,397 C1205.73639,397 1217,388.335565 1217,377.615392 C1217,368.544365 1208.91521,360.962172 1198.00156,358.836529 C1197.28781,358.695022 1196.79706,358.191693 1196.82031,357.624991 C1196.96994,345.593449 1184.33749,334 1166.6,334 C1153.75194,334 1144.15483,339.756865 1139.67726,346.645428 Z" id="Path-Copy" fill="#FFFFFF"></path>
                <path d="M60.179821,431.415745 L52.7317992,427.584555 C52.267296,427.368955 51.8923334,427.008918 51.6677961,426.562904 L47.6777844,419.411349 C47.1979824,418.588494 46.2925184,418.078854 45.3103775,418.078854 C44.3282365,418.078854 43.4227725,418.588494 42.9429705,419.411349 L38.9529588,426.562904 C38.708174,427.0125 38.3153664,427.371712 37.8357556,427.584555 L30.3877338,431.415745 C29.5307676,431.876449 29,432.745871 29,433.688918 C29,434.631965 29.5307676,435.501387 30.3877338,435.962091 L37.8357556,439.793281 C38.3070161,440.04132 38.694637,440.413512 38.9529588,440.866014 L42.9429705,448.017569 C43.4227725,448.840424 44.3282365,449.350065 45.3103775,449.350065 C46.2925184,449.350065 47.1979824,448.840424 47.6777844,448.017569 L51.6677961,440.866014 C51.9068817,440.417107 52.2764945,440.044462 52.7317992,439.793281 L60.179821,435.962091 C61.0681737,435.52509 61.6269702,434.647336 61.6269702,433.688918 C61.6269702,432.7305 61.0681737,431.852746 60.179821,431.415745 Z" id="Path" fill="#C7D3FF"></path>
                <path d="M63.4587967,422.529821 L58.8932353,420.079522 C58.6084996,419.941632 58.3786513,419.711364 58.2410122,419.426109 L55.7951758,414.852219 C55.5010621,414.325949 54.9460218,414 54.3439795,414 C53.7419371,414 53.1868969,414.325949 52.8927831,414.852219 L50.4469467,419.426109 C50.2968961,419.713656 50.056109,419.943395 49.7621125,420.079522 L45.1965511,422.529821 C44.6712396,422.824471 44.3458844,423.380524 44.3458844,423.983665 C44.3458844,424.586805 44.6712396,425.142858 45.1965511,425.437509 L49.7621125,427.887807 C50.0509904,428.046445 50.288598,428.284486 50.4469467,428.573891 L52.8927831,433.147781 C53.1868969,433.674051 53.7419371,434 54.3439795,434 C54.9460218,434 55.5010621,433.674051 55.7951758,433.147781 L58.2410122,428.573891 C58.3875693,428.286785 58.6141382,428.048454 58.8932353,427.887807 L63.4587967,425.437509 C64.0033479,425.158018 64.3458844,424.596636 64.3458844,423.983665 C64.3458844,423.370693 64.0033479,422.809312 63.4587967,422.529821 Z" id="Path" stroke="#000000"></path>
                <path d="M1110.4588,8.52982084 L1105.89324,6.07952225 C1105.6085,5.94163205 1105.37865,5.71136446 1105.24101,5.42610929 L1102.79518,0.852218588 C1102.50106,0.325948724 1101.94602,0 1101.34398,0 C1100.74194,0 1100.1869,0.325948724 1099.89278,0.852218588 L1097.44695,5.42610929 C1097.2969,5.71365555 1097.05611,5.94339495 1096.76211,6.07952225 L1092.19655,8.52982084 C1091.67124,8.82447112 1091.34588,9.38052393 1091.34588,9.98366468 C1091.34588,10.5868054 1091.67124,11.1428582 1092.19655,11.4375085 L1096.76211,13.8878071 C1097.05099,14.0464447 1097.2886,14.2844858 1097.44695,14.5738907 L1099.89278,19.1477814 C1100.1869,19.6740513 1100.74194,20 1101.34398,20 C1101.94602,20 1102.50106,19.6740513 1102.79518,19.1477814 L1105.24101,14.5738907 C1105.38757,14.2867851 1105.61414,14.0484538 1105.89324,13.8878071 L1110.4588,11.4375085 C1111.00335,11.1580177 1111.34588,10.5966362 1111.34588,9.98366468 C1111.34588,9.37069318 1111.00335,8.80931165 1110.4588,8.52982084 Z" id="Path" stroke="#000000"></path>
            </g>
        </g>
    </g>
</svg>