<svg xmlns="http://www.w3.org/2000/svg" width="24" height="24" viewBox="0 0 24 24">
  <path fill="#B7BCD9" fill-rule="evenodd" d="M10.4210526,11.4848485 C12.7473684,11.4848485 14.6315789,9.58636364 14.6315789,7.24242424 C14.6315789,4.89848485 12.7473684,3 10.4210526,3 C8.09473684,3 6.21052632,4.89848485 6.21052632,7.24242424 C6.21052632,9.58636364 8.09473684,11.4848485 10.4210526,11.4848485 Z M10.4210526,5.12121212 C11.5789474,5.12121212 12.5263158,6.07575758 12.5263158,7.24242424 C12.5263158,8.40909091 11.5789474,9.36363636 10.4210526,9.36363636 C9.26315789,9.36363636 8.31578947,8.40909091 8.31578947,7.24242424 C8.31578947,6.07575758 9.26315789,5.12121212 10.4210526,5.12121212 Z M4.10526316,17.8484848 C4.31578947,17.180303 6.81052632,16.0666667 9.32631579,15.7909091 L11.4736842,13.669697 C11.0631579,13.6272727 10.7578947,13.6060606 10.4210526,13.6060606 C7.61052632,13.6060606 2,15.0272727 2,17.8484848 L2,19.969697 L11.4736842,19.969697 L9.36842105,17.8484848 L4.10526316,17.8484848 Z M20.5263158,12.0151515 L15.1263158,17.4984848 L12.9473684,15.2924242 L11.4736842,16.7878788 L15.1263158,20.5 L22,13.5106061 L20.5263158,12.0151515 Z"/>
</svg>
