<svg xmlns="http://www.w3.org/2000/svg" width="24" height="24" viewBox="0 0 24 24">
  <g fill="#B7BCD9" fill-rule="evenodd" transform="translate(4 2)">
    <path d="M12.375,14.8717949 L4.125,14.8717949 L4.125,8.71794872 C4.125,6.17435897 5.6821875,4.1025641 8.25,4.1025641 C10.8178125,4.1025641 12.375,6.17435897 12.375,8.71794872 L12.375,14.8717949 Z" opacity=".3"/>
    <path d="M8.25,20 C9.384375,20 10.3125,19.0769231 10.3125,17.9487179 L6.1875,17.9487179 C6.1875,19.0769231 7.115625,20 8.25,20 Z M14.4375,13.8461538 L14.4375,8.71794872 C14.4375,5.56923077 12.7565625,2.93333333 9.796875,2.23589744 L9.796875,1.53846154 C9.796875,0.687179487 9.1059375,0 8.25,0 C7.3940625,0 6.703125,0.687179487 6.703125,1.53846154 L6.703125,2.23589744 C3.75375,2.93333333 2.0625,5.55897436 2.0625,8.71794872 L2.0625,13.8461538 L0,15.8974359 L0,16.9230769 L16.5,16.9230769 L16.5,15.8974359 L14.4375,13.8461538 Z M12.375,14.8717949 L4.125,14.8717949 L4.125,8.71794872 C4.125,6.17435897 5.6821875,4.1025641 8.25,4.1025641 C10.8178125,4.1025641 12.375,6.17435897 12.375,8.71794872 L12.375,14.8717949 Z"/>
  </g>
</svg>
