<svg xmlns="http://www.w3.org/2000/svg" width="76" height="24" viewBox="0 0 76 24">
  <path fill="#B7BCD9" fill-rule="evenodd" d="M9.79100268,3.11684998 C11.6475422,2.21021618 13.2421422,1.85340093 14.5234918,2.05433978 C15.8272367,2.26009662 16.768405,2.93660018 17.3197823,4.06627893 C17.6446554,4.7308792 17.7719399,5.41985288 17.697667,6.11421137 C17.6596801,6.4684759 17.5596101,6.81763903 17.4119147,7.16085051 C17.4090798,7.20534614 17.4073789,7.24984176 17.4025597,7.29433739 C17.3821488,7.48450659 17.3399096,7.67269191 17.288032,7.85974359 C18.0426676,7.85605924 18.7275659,8.00258305 19.3288364,8.29931503 L19.3288364,8.29931503 C20.0843224,8.67256814 20.675104,9.28728797 21.084739,10.1261864 C21.6120201,11.2054179 21.6480226,12.2747299 21.1992667,13.3128667 C21.1547597,13.8762891 20.9789993,14.4340431 20.6580949,14.981311 C19.9731965,16.1509508 18.6581123,17.2162951 16.7496951,18.1481525 L16.7496951,18.1481525 L8.8600398,22 L2,7.95667037 L2.42777801,6.71164308 Z M14.4775673,2.34597035 C13.2554659,2.15296703 11.7212482,2.50269698 9.92112203,3.38183985 L9.92112203,3.38183985 L2.69000111,6.9120151 L2.96894979,7.48365636 L3.03386773,7.616293 L3.09850218,7.74836282 L4.567802,10.7564939 L10.7721423,7.93229697 C10.740959,7.82970196 10.7194142,7.72313918 10.7194142,7.61034136 C10.7194142,6.99392106 11.2194807,6.49426636 11.8357759,6.49426636 C12.4523545,6.49426636 12.9524211,6.99392106 12.9524211,7.61034136 C12.9524211,8.22676165 12.4523545,8.72641635 11.8357759,8.72641635 C11.4371968,8.72641635 11.0899283,8.51612492 10.8923397,8.20182143 L10.8923397,8.20182143 L4.69735438,11.0214837 L7.37061259,16.4947291 L14.7185291,12.8574243 C14.6805422,12.7449098 14.6550286,12.6264438 14.6550286,12.5008924 C14.6550286,11.8844721 15.1548116,11.3848174 15.7713903,11.3848174 C16.3882524,11.3848174 16.8880355,11.8844721 16.8880355,12.5008924 C16.8880355,13.1173127 16.3882524,13.6169674 15.7713903,13.6169674 C15.3858514,13.6169674 15.0456701,13.4214134 14.8452466,13.1238312 L14.8452466,13.1238312 L7.49988149,16.759719 L9.29065265,20.4250816 L16.91525,16.7030367 C18.7703721,15.7972531 20.0435007,14.7707362 20.6983497,13.6518271 C20.7805602,13.5118217 20.8528487,13.3718164 20.9157823,13.231811 C20.9719122,13.1065431 21.0178367,12.9812751 21.058375,12.8557238 C21.1011811,12.7233706 21.1343488,12.5907339 21.1601459,12.4578139 C21.2990532,11.7373815 21.1879273,11.0090136 20.8196811,10.2559889 C20.4389615,9.47689035 19.8935374,8.90751638 19.1981501,8.56373808 C18.6141722,8.27579186 17.9408966,8.14173816 17.1958996,8.1573258 C17.1426045,8.15845945 17.0898764,8.15930968 17.0360143,8.16186039 C16.9824358,8.16441109 16.9274398,8.16894568 16.8730108,8.17319685 C16.8299212,8.17659779 16.7873985,8.17801485 16.7440254,8.18226602 L16.7440254,8.18226602 L16.6119216,7.94590073 C16.8231175,7.67014121 16.9915073,7.38786323 17.1207762,7.10133407 C17.1783235,6.97323201 17.2273663,6.84427972 17.2684716,6.71476061 C17.3109942,6.58070691 17.3464298,6.44608638 17.3710929,6.31089904 C17.3847002,6.23494472 17.3960396,6.1589904 17.4042606,6.08275268 C17.4725804,5.44450969 17.3549343,4.80995105 17.0547243,4.19608146 C16.5404835,3.14320726 15.6976843,2.53812343 14.4775673,2.34597035 Z M67.8886993,10.0659898 C68.2799078,10.0659898 68.6353973,10.1470455 68.9543173,10.3088735 C69.2729538,10.4707016 69.5258219,10.705083 69.7120712,11.0120178 C69.8980369,11.3189526 69.9913033,11.6822863 69.9913033,12.1023023 C69.9913033,12.1125051 69.9833658,12.2258698 69.9691915,12.4432465 L67.1128024,12.4432465 C67.1709167,12.6458858 67.2831765,12.8020456 67.4501489,12.9108757 C67.6171212,13.0194223 67.8257657,13.073554 68.0772164,13.073554 C68.2660171,13.073554 68.4287371,13.0471967 68.5665106,12.9941987 C68.7040005,12.9412007 68.8431914,12.8541934 68.9832327,12.73346 L69.7083859,13.4867681 C69.3262488,13.9124524 68.7683515,14.1247277 68.0335598,14.1247277 C67.5745985,14.1247277 67.1709167,14.0377203 66.8230813,13.8637056 C66.4752459,13.6899743 66.2056522,13.4482241 66.0145837,13.1387386 C65.8237987,12.82982 65.7282644,12.4798066 65.7282644,12.0884151 C65.7282644,11.7015583 65.8215308,11.3546624 66.0074966,11.0480111 C66.1934624,10.7416431 66.4508662,10.5010266 66.7794247,10.3270119 C67.1082666,10.1532805 67.4779303,10.0659898 67.8886993,10.0659898 Z M34.911267,10.0249234 C35.3367771,10.0249234 35.7186307,10.1107971 36.0568276,10.2822612 C36.395308,10.4537252 36.6583816,10.6926412 36.8471822,10.999576 C37.0354159,11.3062274 37.1298162,11.6551071 37.1298162,12.0470654 C37.1298162,12.4381734 37.0354159,12.7887536 36.8471822,13.0976723 C36.6583816,13.4068744 36.395308,13.6486245 36.0568276,13.8223558 C35.7186307,13.9963706 35.3367771,14.0833779 34.911267,14.0833779 C34.4908596,14.0833779 34.1115574,13.9963706 33.7733605,13.8223558 C33.4348801,13.6486245 33.1703891,13.4068744 32.9793206,13.0976723 C32.7885356,12.7887536 32.6930013,12.4381734 32.6930013,12.0470654 C32.6930013,11.6602085 32.7885356,11.3124624 32.9793206,11.0032604 C33.1703891,10.6940583 33.4337461,10.4537252 33.7696752,10.2822612 C34.1056043,10.1107971 34.4860404,10.0249234 34.911267,10.0249234 Z M72.3104328,10.02481 C72.5959016,10.02481 72.8785356,10.053718 73.1589017,10.1118174 C73.4392678,10.1699168 73.6739929,10.2518228 73.8619431,10.3578187 L73.4489063,11.2933605 C73.1007874,11.1000738 72.7243201,11.003147 72.3183703,11.003147 C72.1006543,11.003147 71.9410526,11.0283706 71.8398486,11.0793847 C71.7383612,11.1301154 71.6876175,11.1967171 71.6876175,11.2786231 C71.6876175,11.3704485 71.7426135,11.4342161 71.8540228,11.4707762 C71.9654322,11.5070529 72.1488467,11.5444632 72.4051166,11.5830072 C72.7288558,11.6314706 72.9967486,11.6870193 73.2096454,11.7496532 C73.4225422,11.8122872 73.6073741,11.9273523 73.7644244,12.0939984 C73.9211913,12.2609278 74,12.4938922 74,12.7931748 C74,13.039743 73.9248766,13.260804 73.7749134,13.4563581 C73.6255171,13.6521955 73.4043992,13.8058046 73.1121268,13.9166185 C72.8192873,14.0277159 72.4680501,14.0832646 72.0572812,14.0832646 C71.7287227,14.0832646 71.4044165,14.0458542 71.08578,13.9710336 C70.76686,13.8962129 70.5105901,13.7981525 70.3172537,13.6774191 L70.7302905,12.7356423 C70.9094527,12.8461728 71.1217826,12.9345972 71.3686975,13.0000653 C71.614762,13.06525 71.8591256,13.0975589 72.1006543,13.0975589 C72.3226226,13.0975589 72.4810904,13.0746026 72.5757742,13.0286899 C72.6696076,12.9827772 72.716666,12.9164589 72.716666,12.8297349 C72.716666,12.7427276 72.6602526,12.6809438 72.5462918,12.6443837 C72.4328981,12.6086739 72.2528854,12.5732474 72.006254,12.5395214 C71.6924367,12.5009775 71.4251109,12.4505302 71.2054105,12.3873294 C70.9854265,12.324412 70.7957755,12.2087801 70.6364572,12.0395833 C70.476572,11.8703866 70.3971963,11.6334545 70.3971963,11.3290704 C70.3971963,11.0782511 70.4720362,10.8543559 70.621716,10.6588019 C70.7713958,10.4632478 70.9902458,10.3085051 71.278266,10.1951404 C71.5651522,10.0814924 71.9095858,10.02481 72.3104328,10.02481 Z M39.7759449,10.0249801 C40.220732,10.0249801 40.6048534,10.1202064 40.9285926,10.3109424 C41.2520484,10.5019619 41.4816708,10.7663849 41.6171763,11.1047784 L40.5515583,11.6480785 C40.3729631,11.2957978 40.111874,11.1192324 39.7685743,11.1192324 C39.5222264,11.1192324 39.3178341,11.2011384 39.156248,11.3655171 C38.9940949,11.5298958 38.9133018,11.7566251 38.9133018,12.0468387 C38.9133018,12.3415868 38.9940949,12.5722838 39.156248,12.7392133 C39.3178341,12.9055759 39.5222264,12.9888989 39.7685743,12.9888989 C40.111874,12.9888989 40.3729631,12.8129003 40.5515583,12.4600528 L41.6171763,13.0033529 C41.4816708,13.3417464 41.2520484,13.6061694 40.9285926,13.7971889 C40.6048534,13.9876415 40.220732,14.0831512 39.7759449,14.0831512 C39.3407963,14.0831512 38.9518557,13.9964273 38.608556,13.8224125 C38.2655399,13.6486812 37.998781,13.4069311 37.807429,13.0974456 C37.6169275,12.7888103 37.5211097,12.4382301 37.5211097,12.0468387 C37.5211097,11.6551638 37.6169275,11.3062841 37.807429,10.9996327 C37.998781,10.6926979 38.2655399,10.4534985 38.608556,10.2820344 C38.9518557,10.1108538 39.3407963,10.0249801 39.7759449,10.0249801 Z M55.4063411,9.98876009 C56.0824514,9.98876009 56.5986766,10.1375512 56.9541661,10.4359836 C57.3102225,10.7335659 57.4879673,11.1904254 57.4879673,11.8062789 L57.4879673,13.9942166 L56.1581418,13.9942166 L56.1581418,13.4852094 C55.9526156,13.8683819 55.5514851,14.0596847 54.9553173,14.0596847 C54.6397992,14.0596847 54.3668037,14.0064033 54.1363308,13.900124 C53.9061415,13.7935612 53.731515,13.6490213 53.6141525,13.4673544 C53.496223,13.2854042 53.4375417,13.0785137 53.4375417,12.8458327 C53.4375417,12.4725796 53.5852371,12.1829329 53.8809113,11.9771761 C54.1765856,11.7711358 54.6327121,11.6676906 55.2487237,11.6676906 L56.0600562,11.6676906 C56.0348261,11.2513589 55.7468059,11.0430513 55.1959956,11.0430513 C55.0006749,11.0430513 54.8022357,11.0728096 54.6020957,11.1337431 C54.4019557,11.1941097 54.2315816,11.2777162 54.0912568,11.384279 L53.6104672,10.4464699 C53.8358373,10.3010797 54.1099668,10.1885653 54.4334225,10.1083598 C54.7563113,10.0287211 55.0809009,9.98876009 55.4063411,9.98876009 Z M63.4257472,10.0520176 C63.9116395,10.0520176 64.3000132,10.1954238 64.5894508,10.4813862 C64.8788884,10.7673485 65.0234654,11.1995513 65.0234654,11.7762939 L65.0234654,13.9942733 L63.6939234,13.9942733 L63.6939234,11.9721314 C63.6939234,11.6966552 63.6403449,11.4937325 63.5323373,11.3633632 C63.4248967,11.2329938 63.2732325,11.1678091 63.0779118,11.1678091 C62.8624636,11.1678091 62.6895381,11.2400791 62.5594187,11.3851859 C62.4290159,11.5302926 62.3638145,11.75022 62.3638145,12.0449681 L62.3638145,13.9942733 L61.033989,13.9942733 L61.033989,11.9721314 C61.033989,11.4356331 60.8295967,11.1678091 60.4219461,11.1678091 C60.2022457,11.1678091 60.0279027,11.2400791 59.8986338,11.3851859 C59.768798,11.5302926 59.704447,11.75022 59.704447,12.0449681 L59.704447,13.9942733 L58.374338,13.9942733 L58.374338,10.1166354 L59.5933211,10.1166354 L59.5933211,10.5241813 C59.7395991,10.3671713 59.9136585,10.2487052 60.1152159,10.1699168 C60.3173403,10.0916952 60.5373243,10.0520176 60.7760182,10.0520176 C61.0535494,10.0520176 61.3013148,10.1021814 61.5204483,10.2025091 C61.7392983,10.3028369 61.917043,10.4553123 62.0536825,10.6599355 C62.2087485,10.4649483 62.4057702,10.3147401 62.6447475,10.209311 C62.882591,10.1044487 63.1428297,10.0520176 63.4257472,10.0520176 Z M27.7351704,8.89788039 C28.3854837,8.89788039 28.880731,9.01776351 29.2206288,9.25781316 C29.5605267,9.49871304 29.7306173,9.82208571 29.7306173,10.229915 C29.7306173,10.4727988 29.6713691,10.6901755 29.5523056,10.8814784 C29.4329587,11.0736315 29.2642854,11.2252567 29.0460024,11.3366375 C29.3374244,11.4386656 29.5656294,11.5976596 29.7306173,11.8136192 C29.8958888,12.0298623 29.9780993,12.2903176 29.9780993,12.5961187 C29.9780993,13.0430589 29.7986536,13.387404 29.4391953,13.6302878 C29.0800206,13.8728881 28.5601101,13.9941883 27.8808814,13.9941883 L25.1282476,13.9941883 L25.1282476,8.89788039 L27.7351704,8.89788039 Z M31.9988613,8.56543855 L31.9988613,13.9941883 L30.6693193,13.9941883 L30.6693193,8.56543855 L31.9988613,8.56543855 Z M43.5244312,8.56558025 L43.5244312,11.4685656 L44.912938,10.1166921 L46.5231296,10.1166921 L44.912938,11.7763506 L46.6594856,13.99433 L45.013008,13.99433 L43.9252782,12.6348044 L43.5244312,13.0426338 L43.5244312,13.99433 L42.1946058,13.99433 L42.1946058,8.56558025 L43.5244312,8.56558025 Z M48.9169572,8.5676775 C49.0893157,8.5676775 49.256855,8.58439878 49.4198586,8.61812477 C49.5831456,8.65213416 49.7172337,8.70258143 49.8224065,8.77031681 L49.4847765,9.74156847 C49.3506884,9.66419709 49.2137654,9.62565311 49.0751415,9.62565311 C48.9311314,9.62565311 48.819722,9.6692985 48.7409133,9.75630587 C48.6618212,9.84331324 48.6221334,9.97113189 48.6221334,10.1403286 L48.6221334,10.227336 L49.5088727,10.227336 L49.5088727,11.2246615 L48.6221334,11.2246615 L48.6221334,13.9944434 L47.2923079,13.9944434 L47.2923079,11.2246615 L46.7380958,11.2246615 L46.7380958,10.227336 L47.2923079,10.227336 L47.2923079,10.1258746 C47.2923079,9.64747581 47.4349006,9.26827105 47.7198024,8.98769353 C48.0047043,8.70768284 48.4038503,8.5676775 48.9169572,8.5676775 Z M53.2766076,10.0513374 L53.2766076,11.2768093 C53.1547093,11.2632055 53.0535053,11.2558368 52.9738462,11.2558368 C52.6872434,11.2558368 52.4630073,11.3334916 52.3008542,11.4882343 C52.1387011,11.6435439 52.0576245,11.8807594 52.0576245,12.1995975 L52.0576245,13.99416 L50.6169566,13.99416 L50.6169566,10.1165221 L51.9467821,10.1165221 L51.9467821,10.5875522 C52.0879573,10.4087194 52.2719387,10.2746657 52.4987263,10.1853911 C52.7252304,10.095833 52.9846186,10.0513374 53.2766076,10.0513374 Z M56.0472994,12.4433882 L55.4528325,12.4433882 C55.0514186,12.4433882 54.8512786,12.5760249 54.8512786,12.8415815 C54.8512786,12.9623149 54.897203,13.0589583 54.9887685,13.1317951 C55.0809009,13.204065 55.2062011,13.2406251 55.3660863,13.2406251 C55.5254045,13.2406251 55.6651624,13.2015143 55.7862102,13.1241429 C55.9072581,13.0473384 55.9940043,12.9336903 56.0472994,12.784049 L56.0472994,12.4433882 Z M27.7348869,12.0001041 L26.5689155,12.0001041 L26.5689155,12.9971462 L27.7348869,12.9971462 C28.2219132,12.9971462 28.4651428,12.831067 28.4651428,12.4986251 C28.4651428,12.1664667 28.2219132,12.0001041 27.7348869,12.0001041 Z M34.911267,11.1194591 C34.6697383,11.1194591 34.4715827,11.2013651 34.3168002,11.3654604 C34.1620177,11.5298392 34.0851934,11.7568519 34.0851934,12.0470654 C34.0851934,12.3418135 34.1620177,12.5722271 34.3168002,12.7391566 C34.4715827,12.9055192 34.6697383,12.9888422 34.911267,12.9888422 C35.1530792,12.9888422 35.3509514,12.9055192 35.5057339,12.7391566 C35.6605164,12.5722271 35.7376241,12.3418135 35.7376241,12.0470654 C35.7376241,11.7568519 35.6605164,11.5298392 35.5057339,11.3654604 C35.3509514,11.2013651 35.1530792,11.1194591 34.911267,11.1194591 Z M67.8960699,10.9938794 C67.6831731,10.9938794 67.5057118,11.0545295 67.3631191,11.1752629 C67.2205265,11.2959962 67.1300949,11.460375 67.0909741,11.6675489 L68.7005987,11.6675489 C68.6617613,11.460375 68.5713298,11.2959962 68.4287371,11.1752629 C68.2861445,11.0545295 68.1083997,10.9938794 67.8960699,10.9938794 Z M27.5738678,10.0057364 L26.5689155,10.0057364 L26.5689155,11.003062 L27.5738678,11.003062 C28.0668472,11.003062 28.3131952,10.8352823 28.3131952,10.5005731 C28.3131952,10.170682 28.0668472,10.0057364 27.5738678,10.0057364 Z"/>
</svg>
