<svg xmlns="http://www.w3.org/2000/svg" width="24" height="24" viewBox="0 0 24 24">
  <path fill="#B7BCD9" fill-rule="evenodd" d="M7.28007165,5.95461767 L7.28007165,20.8314275 L4.15310893,20.8314275 L4.15310893,4.47767807 L5.93868199,4.47767807 C6.09646654,5.17631526 6.60871386,5.74068521 7.28007165,5.95461767 M20.8460071,12.6536577 C20.8460071,14.3055922 20.4681198,15.7610491 19.7225104,16.9788529 C18.9755751,18.1962092 17.9077671,19.1495066 16.5486985,19.8141294 C15.170625,20.4894936 13.5587476,20.8314275 11.7581474,20.8314275 L8.43362255,20.8314275 L8.43362255,5.9680444 C9.12884691,5.76530087 9.65877317,5.19556023 9.82009351,4.47767807 L11.7581474,4.47767807 C13.5587476,4.47767807 15.170625,4.82005953 16.5486985,5.49542373 C17.9082091,6.15959899 18.9760171,7.11379148 19.7225104,8.33114776 C20.4681198,9.54850404 20.8460071,11.0030658 20.8460071,12.6536577 M20.7023657,7.7153087 C19.8387494,6.30729295 18.610505,5.20674917 17.0507804,4.44366371 C15.5144804,3.69131962 13.7337691,3.31000067 11.7581474,3.31000067 L9.74142222,3.31000067 C9.4497197,2.53035558 8.70676219,2 7.8785038,2 L7.87452604,2 C7.04936146,2.00223779 6.30772988,2.53259337 6.0169113,3.31000067 L3,3.31000067 L3,22 L11.7581474,22 C13.7333271,22 15.5140385,21.6182335 17.0507804,20.8654419 C18.610063,20.1028039 19.8387494,19.0022602 20.7023657,17.594692 C21.5633302,16.1875713 22,14.5248954 22,12.6536577 C22,10.7833151 21.5633302,9.12153423 20.7023657,7.7153087"/>
</svg>
