<svg xmlns="http://www.w3.org/2000/svg" width="24" height="24" viewBox="0 0 24 24">
  <g fill="#B7BCD9" fill-rule="evenodd" transform="translate(2 5)">
    <polygon points="0 0 20 0 20 13.5 0 13.5" opacity=".3"/>
    <path d="M0,0 L20,0 L20,13.5 L0,13.5 L0,0 L0,0 Z M10,3.375 C11.8409492,3.375 13.3333333,4.88603897 13.3333333,6.75 C13.3333333,8.61396103 11.8409492,10.125 10,10.125 C8.15905083,10.125 6.66666667,8.61396103 6.66666667,6.75 C6.66666667,4.88603897 8.15905083,3.375 10,3.375 L10,3.375 Z M4.44444444,2.25 C4.44444444,3.49264069 3.44952167,4.5 2.22222222,4.5 L2.22222222,9 C3.44952167,9 4.44444444,10.0073593 4.44444444,11.25 L15.5555556,11.25 C15.5555556,10.0073593 16.5504783,9 17.7777778,9 L17.7777778,4.5 C16.5504783,4.5 15.5555556,3.49264069 15.5555556,2.25 L4.44444444,2.25 Z"/>
  </g>
</svg>
