<svg xmlns="http://www.w3.org/2000/svg" width="24" height="24" viewBox="0 0 24 24">
  <g fill="none" fill-rule="evenodd">
    <polyline fill="#B7BCD9" points="14.06 9.02 14.98 9.94 5.92 19 5 19 5 18.08 14.06 9.02" opacity=".3"/>
    <path fill="#B7BCD9" d="M14.06,9.02 L14.98,9.94 L5.92,19 L5,19 L5,18.08 L14.06,9.02 M17.66,3 C17.41,3 17.15,3.1 16.96,3.29 L15.13,5.12 L18.88,8.87 L20.71,7.04 C21.1,6.65 21.1,6.02 20.71,5.63 L18.37,3.29 C18.17,3.09 17.92,3 17.66,3 Z M14.06,6.19 L3,17.25 L3,21 L6.75,21 L17.81,9.94 L14.06,6.19 Z"/>
  </g>
</svg>
