<svg xmlns="http://www.w3.org/2000/svg" width="24" height="24" viewBox="0 0 24 24">
  <g fill="#B7BCD9" fill-rule="evenodd" transform="translate(2 2)">
    <path d="M2,15.17 L2.59,14.58 L3.17,14 L18,14 L18,2 L2,2 L2,15.17 Z M16,12 L8.5,12 L10.5,10 L16,10 L16,12 Z M4,9.53 L9.88,3.65 C10.08,3.45 10.39,3.45 10.59,3.65 L12.36,5.42 C12.56,5.62 12.56,5.93 12.36,6.13 L6.47,12 L4,12 L4,9.53 Z" opacity=".3"/>
    <path d="M18,0 L2,0 C0.9,0 0.01,0.9 0.01,2 L0,20 L4,16 L18,16 C19.1,16 20,15.1 20,14 L20,2 C20,0.9 19.1,0 18,0 Z M18,14 L3.17,14 L2.58,14.59 L2,15.17 L2,2 L18,2 L18,14 Z M8.5,12 L16,12 L16,10 L10.5,10 L8.5,12 Z M12.36,6.13 C12.56,5.93 12.56,5.62 12.36,5.42 L10.59,3.65 C10.39,3.45 10.08,3.45 9.88,3.65 L4,9.53 L4,12 L6.47,12 L12.36,6.13 Z"/>
  </g>
</svg>
