<?xml version="1.0" encoding="UTF-8"?>
<svg width="453px" height="597px" viewBox="0 0 453 597" version="1.1" xmlns="http://www.w3.org/2000/svg" xmlns:xlink="http://www.w3.org/1999/xlink" style="background: #FFFFFF;">
    <title>empty_poster-light</title>
    <g id="empty_poster-light" stroke="none" stroke-width="1" fill="none" fill-rule="evenodd">
        <rect fill="#FFFFFF" x="0" y="0" width="453" height="597"></rect>
        <g id="camera" transform="translate(29.854579, 114.363185)">
            <circle id="Oval" fill="#DCE2FF" fill-rule="nonzero" opacity="0.472072783" cx="193.926553" cy="193.926553" r="193.926553"></circle>
            <g id="Group" transform="translate(19.057896, 28.310264)">
                <path d="M151.552781,103.654301 C124.436969,109.278061 103.379379,130.683157 98.2001645,157.887379 C93.0209498,185.0916 104.740201,212.736842 127.892675,227.930817 C151.045149,243.124791 181.070768,242.874916 203.967162,227.297719 C226.863556,211.720521 238.121084,183.884065 232.489826,156.769809 C224.784366,119.767702 188.565221,95.9986321 151.552781,103.654301 Z M172.377723,204.225769 C158.819576,207.034968 144.904277,201.399983 137.120946,189.948578 C129.337615,178.497172 129.219173,163.484692 136.820854,151.911905 C144.422535,140.339119 158.247192,134.485279 171.847975,137.080206 C185.448758,139.675134 196.147001,150.207759 198.953793,163.766404 C202.785775,182.277388 190.888027,200.390501 172.377723,204.225769 L172.377723,204.225769 Z" id="Shape" fill="#FFFFFF" fill-rule="nonzero"></path>
                <path d="M173.824663,1.28789475 C149.265594,6.36601214 130.184549,25.7394516 125.480474,50.3729005 C120.776399,75.0063494 131.375873,100.047667 152.335553,113.818177 C173.295233,127.588687 200.486614,127.375961 221.228281,113.27921 C241.969947,99.1824583 252.176338,73.9783705 247.087433,49.4215349 C243.756246,33.3227433 234.165674,19.2068901 220.42592,10.1798717 C206.686166,1.15285342 189.922949,-2.04573278 173.824663,1.28789475 Z M142.578091,61.9677843 C140.275782,56.8821547 142.531052,50.8929824 147.615954,48.5890656 C152.700855,46.2851487 158.69074,48.5385254 160.996265,53.6226982 C163.301789,58.706871 161.050306,64.6974681 155.966862,67.0045998 C153.523648,68.1134578 150.739865,68.2056807 148.228618,67.2609572 C145.717372,66.3162337 143.684631,64.4120494 142.578091,61.9677843 L142.578091,61.9677843 Z M164.044083,84.7708216 C169.132419,82.4773954 175.11665,84.7410546 177.413218,89.8279739 C179.709786,94.9148932 177.449823,100.90052 172.364323,103.200229 C167.278822,105.499938 161.291801,103.243672 158.988952,98.1595929 C157.87109,95.7154248 157.776294,92.9258911 158.72565,90.4114734 C159.675006,87.8970557 161.589786,85.8662677 164.044083,84.7708216 L164.044083,84.7708216 Z M170.198156,32.552782 C167.892096,27.4710194 170.139521,21.4818419 175.2194,19.1716356 C180.299278,16.8614293 186.290288,19.1039657 188.604639,24.1819576 C190.91899,29.2599495 188.681344,35.2527872 183.605243,37.5712818 C178.516667,39.8732932 172.524447,37.6303035 170.198156,32.552782 L170.198156,32.552782 Z M218.624847,82.8659895 C220.927156,87.9516191 218.671886,93.9407914 213.586984,96.2447083 C208.502083,98.5486251 202.512198,96.2952484 200.206673,91.2110756 C197.901149,86.1269028 200.152632,80.1363057 205.236076,77.8291741 C207.67929,76.720316 210.463073,76.6280931 212.974319,77.5728166 C215.485566,78.5175401 217.518307,80.4217244 218.624847,82.8659895 L218.624847,82.8659895 Z M209.631842,52.7733066 C207.329533,47.687677 209.584803,41.6985047 214.669704,39.3945879 C219.754606,37.090671 225.744491,39.3440477 228.050015,44.4282205 C230.35554,49.5123933 228.104057,55.5029905 223.020613,57.8101221 C220.574093,58.9356482 217.779204,59.0366735 215.257807,58.0907199 C212.736411,57.1447663 210.697672,55.2303059 209.59521,52.7733066 L209.631842,52.7733066 Z" id="Shape" stroke="#11112D" fill="#FFFFFF" fill-rule="nonzero"></path>
                <circle id="Oval" fill="#080B0F" fill-rule="nonzero" cx="186.609016" cy="63.0300945" r="36.4482283"></circle>
                <path d="M175.656232,10.15269 C154.489653,14.5216152 138.040206,31.2127115 133.980409,52.4407501 C129.920611,73.6687887 139.050249,95.2518071 157.110987,107.122837 C175.171724,118.993867 198.605561,118.814294 216.482253,106.667876 C234.358945,94.5214587 243.15675,72.8010627 238.772109,51.6377337 C232.789115,22.7596473 204.538753,4.19114203 175.656232,10.15269 L175.656232,10.15269 Z M142.578091,61.9677843 C140.275782,56.8821547 142.531052,50.8929824 147.615954,48.5890656 C152.700855,46.2851487 158.69074,48.5385254 160.996265,53.6226982 C163.301789,58.706871 161.050306,64.6974681 155.966862,67.0045998 C153.523648,68.1134578 150.739865,68.2056807 148.228618,67.2609572 C145.717372,66.3162337 143.684631,64.4120494 142.578091,61.9677843 L142.578091,61.9677843 Z M172.396039,103.178093 C168.672865,104.874376 164.294362,104.159506 161.304044,101.367124 C158.313725,98.5747414 157.301136,94.2553682 158.738866,90.4249198 C160.176596,86.5944715 163.781195,84.0081252 167.870343,83.8729675 C171.959492,83.7378098 175.727009,86.0804872 177.414538,89.807637 C179.713781,94.8858431 177.468828,100.866923 172.396039,103.178093 L172.396039,103.178093 Z M170.198156,32.552782 C167.892096,27.4710194 170.139521,21.4818419 175.2194,19.1716356 C180.299278,16.8614293 186.290288,19.1039657 188.604639,24.1819576 C190.91899,29.2599495 188.681344,35.2527872 183.605243,37.5712818 C178.516667,39.8732932 172.524447,37.6303035 170.198156,32.552782 L170.198156,32.552782 Z M213.5514,96.2547608 C208.46577,98.55707 202.476598,96.3017996 200.172681,91.2168982 C197.868764,86.1319967 200.122141,80.1421117 205.206314,77.8365874 C210.290487,75.531063 216.281084,77.7825459 218.588215,82.8659895 C219.702136,85.3085475 219.796959,88.0942677 218.851707,90.6069174 C217.906456,93.1195671 215.99904,95.152051 213.5514,96.2547608 L213.5514,96.2547608 Z M222.983982,57.7918064 C217.899506,60.0889997 211.91525,57.8331893 209.612382,52.7512809 C207.309514,47.6693725 209.558642,41.6826022 214.637976,39.3740622 C219.717311,37.0655222 225.706588,39.3079655 228.020797,44.3847194 C229.14122,46.8319131 229.239621,49.6248485 228.294199,52.1448256 C227.348778,54.6648027 225.437581,56.7037963 222.983982,57.8101221 L222.983982,57.7918064 Z" id="Shape" stroke="#090919" fill="#FFFFFF" fill-rule="nonzero"></path>
                <path d="M49.4244787,46.5276554 C15.90605,53.46864 -5.63988631,86.2666749 1.29940444,119.785454 C8.23869518,153.304234 41.0356413,174.851827 74.5547713,167.91423 C108.073901,160.976633 129.623152,128.180776 122.687249,94.6612956 C115.741301,61.1431761 82.9456458,39.5964308 49.4244787,46.5276554 Z M18.2878012,107.207545 C15.9868672,102.132866 18.2340145,96.1536638 23.3077157,93.8505737 C28.381417,91.5474837 34.3615731,93.7920902 36.6668188,98.8648124 C38.9720644,103.937535 36.7299991,109.918644 31.6582568,112.226045 C29.2093888,113.359247 26.4091388,113.466509 23.8807603,112.523957 C21.3523818,111.581405 19.3056916,109.667257 18.1962228,107.207545 L18.2878012,107.207545 Z M39.7354773,130.010582 C44.8143919,127.732515 50.7787968,129.99695 53.0661592,135.071685 C55.3535216,140.146421 53.1000097,146.114962 48.0294705,148.411611 C42.9589314,150.70826 36.9862749,148.465679 34.6803461,143.399354 C33.5566613,140.966549 33.448623,138.186282 34.3801318,135.673614 C35.3116406,133.160947 37.2059157,131.122988 39.6438988,130.010582 L39.7354773,130.010582 Z M45.9078657,77.7925427 C44.2115827,74.0693685 44.9264525,69.690866 47.7188347,66.7005477 C50.5112169,63.7102293 54.8305901,62.6976398 58.6610385,64.1353698 C62.4914868,65.5730997 65.0778331,69.177699 65.2129908,73.2668474 C65.3481485,77.3559958 63.0054711,81.1235129 59.2783213,82.8110425 C56.8287678,83.9391413 54.0304678,84.0437725 51.5035105,83.1017503 C48.9765532,82.1597281 46.929615,80.2488449 45.8162872,77.7925427 L45.9078657,77.7925427 Z M94.2796098,128.10575 C96.5819189,133.19138 94.3266486,139.180552 89.2417472,141.484469 C84.1568457,143.788386 78.1669607,141.535009 75.8614364,136.450836 C73.555912,131.366664 75.8073949,125.376066 80.8908385,123.068935 C85.9542956,120.810136 91.891761,123.059176 94.1880313,128.10575 L94.2796098,128.10575 Z M85.1950263,97.9947516 C82.9016001,92.9064151 85.1652593,86.9221846 90.2521786,84.6256166 C95.3390979,82.3290486 101.324725,84.5890118 103.624434,89.6745119 C105.924143,94.760012 103.667877,100.747034 98.5837976,103.049883 C96.138314,104.157572 93.3526835,104.247146 90.8410882,103.298856 C88.329493,102.350565 86.298183,100.442283 85.1950263,97.9947516 L85.1950263,97.9947516 Z" id="Shape" stroke="#11112D" fill="#FFFFFF" fill-rule="nonzero"></path>
                <circle id="Oval" fill="#080B0F" fill-rule="nonzero" cx="62.2088321" cy="108.269855" r="36.4482283"></circle>
                <path d="M51.2560479,55.3924507 C22.3746842,61.3741955 3.80956735,89.6347458 9.78795972,118.516804 C15.7663521,147.398861 44.0247472,165.967259 72.9074988,159.992219 C101.79025,154.017179 120.361927,125.760939 114.39024,96.8774944 C111.521647,83.0028808 103.257684,70.8366036 91.4170936,63.0562334 C79.5765038,55.2758632 65.1296617,52.5190262 51.2560479,55.3924507 L51.2560479,55.3924507 Z M18.2878012,107.207545 C15.9868672,102.132866 18.2340145,96.1536638 23.3077157,93.8505737 C28.381417,91.5474837 34.3615731,93.7920902 36.6668188,98.8648124 C38.9720644,103.937535 36.7299991,109.918644 31.6582568,112.226045 C29.2093888,113.359247 26.4091388,113.466509 23.8807603,112.523957 C21.3523818,111.581405 19.3056916,109.667257 18.1962228,107.207545 L18.2878012,107.207545 Z M48.0874331,148.399538 C43.0127537,150.700472 37.0335519,148.453324 34.7304618,143.379623 C32.4273718,138.305922 34.6719783,132.325766 39.7447005,130.02052 C44.8174227,127.715274 50.798532,129.95734 53.1059329,135.029082 C55.3826378,140.13246 53.0959624,146.115517 47.9958546,148.399538 L48.0874331,148.399538 Z M45.9078657,77.7925427 C44.2115827,74.0693685 44.9264525,69.690866 47.7188347,66.7005477 C50.5112169,63.7102293 54.8305901,62.6976398 58.6610385,64.1353698 C62.4914868,65.5730997 65.0778331,69.177699 65.2129908,73.2668474 C65.3481485,77.3559958 63.0054711,81.1235129 59.2783213,82.8110425 C56.8287678,83.9391413 54.0304678,84.0437725 51.5035105,83.1017503 C48.9765532,82.1597281 46.929615,80.2488449 45.8162872,77.7925427 L45.9078657,77.7925427 Z M89.26111,141.476206 C85.5379358,143.172489 81.1594334,142.457619 78.169115,139.665237 C75.1787967,136.872855 74.1662072,132.553481 75.6039371,128.723033 C77.041667,124.892585 80.6462663,122.306238 84.7354147,122.171081 C88.8245631,122.035923 92.5920803,124.3786 94.2796098,128.10575 C95.3780521,130.556044 95.4566139,133.342659 94.4979667,135.850947 C93.5393195,138.359235 91.6222221,140.383126 89.1695316,141.476206 L89.26111,141.476206 Z M98.675376,103.013251 C93.5908999,105.310445 87.6066442,103.054634 85.3037762,97.9727259 C83.0009081,92.8908175 85.2500363,86.9040472 90.3293706,84.5955072 C95.408705,82.2869672 101.397982,84.5294105 103.712191,89.6061644 C104.832697,92.0667317 104.920989,94.8735842 103.957345,97.3997103 C102.9937,99.9258364 101.058412,101.960751 98.5837976,103.049883 L98.675376,103.013251 Z" id="Shape" stroke="#090919" fill="#FFFFFF" fill-rule="nonzero"></path>
                <circle id="Oval" stroke="#11112D" fill="#EBEBFF" fill-rule="nonzero" cx="178.678321" cy="230.105842" r="40.2578923"></circle>
                <circle id="Oval" stroke="#11112D" fill="#EBEBFF" fill-rule="nonzero" cx="178.678321" cy="230.105842" r="32.1257248"></circle>
                <path d="M172.199667,178.537701 L183.815168,178.537701 C187.664593,178.537701 190.785168,181.658277 190.785168,185.507701 L190.785168,275.420127 C190.785168,279.269552 187.664593,282.390127 183.815168,282.390127 L172.199667,282.390127 C168.350242,282.390127 165.229667,279.269552 165.229667,275.420127 L165.229667,185.507701 C165.229667,181.658277 168.350242,178.537701 172.199667,178.537701 Z" id="Rectangle" stroke="#11112D" stroke-width="1.00019998" fill="#EBEBFF" fill-rule="nonzero" transform="translate(178.007417, 230.463914) rotate(78.465379) translate(-178.007417, -230.463914) "></path>
                <path d="M80.4423935,130.744299 L249.853677,130.744299 C251.444258,130.744299 252.733677,132.033718 252.733677,133.624299 L252.733677,226.988827 C252.733677,228.579407 251.444258,229.868827 249.853677,229.868827 L80.4423935,229.868827 C78.8518135,229.868827 77.5623935,228.579407 77.5623935,226.988827 L77.5623935,133.624299 C77.5623935,132.033718 78.8518135,130.744299 80.4423935,130.744299 Z" id="Rectangle" stroke="#11112D" fill="#FFFFFF" fill-rule="nonzero" transform="translate(165.148036, 180.306563) rotate(-11.700000) translate(-165.148036, -180.306563) "></path>
                <path d="M227.562905,128.710168 L242.929771,202.852092 C240.676941,203.694614 141.131151,224.611135 141.131151,224.611135 C138.604506,225.105727 136.151684,223.470512 135.636444,220.947996 L135.14192,218.54864 C135.282721,218.503 135.417898,218.441556 135.544865,218.365483 C147.966191,211.831156 152.901711,196.577392 146.662491,184.005244 C142.673805,175.544364 134.338501,169.9781 124.995026,169.535847 L124.482187,167.081544 C122.433012,157.943824 128.169294,148.872305 137.303172,146.806072 C137.303172,146.806072 225.181865,128.838378 227.562905,128.710168 Z" id="Path" stroke="#11112D" fill="#ECEFFC" fill-rule="nonzero"></path>
                <path d="M132.321303,303.679979 L107.924801,343.040403 C100.891575,340.402943 95.103816,336.501701 92.9425642,329.230371 L125.910811,298.203587 L132.321303,303.679979 Z" id="Path" stroke="#0E0E1C"></path>
                <path d="M70.8651713,174.349153 L84.0143568,174.349153 C84.439616,174.349153 84.7843568,174.693894 84.7843568,175.119153 L84.7843568,202.444685 C84.7843568,202.869944 84.439616,203.214685 84.0143568,203.214685 L70.8651713,203.214685 C70.439912,203.214685 70.0951713,202.869944 70.0951713,202.444685 L70.0951713,175.119153 C70.0951713,174.693894 70.439912,174.349153 70.8651713,174.349153 Z" id="Rectangle" stroke="#11112D" fill="#FFFFFF" fill-rule="nonzero" transform="translate(77.439764, 188.781919) rotate(168.300000) translate(-77.439764, -188.781919) "></path>
                <polygon id="Path" stroke="#11112D" fill="#FFFFFF" fill-rule="nonzero" points="21.4564161 180.470315 59.2233742 183.272616 62.2454635 197.833592 29.2955325 216.259179"></polygon>
                <line x1="132.852458" y1="296.225493" x2="159.153793" y2="265.308603" id="Path" stroke="#11112D"></line>
                <line x1="189.393001" y1="276.041599" x2="208.771004" y2="357.949377" id="Path" stroke="#070721" fill="#D4D4FF" fill-rule="nonzero"></line>
                <line x1="197.048961" y1="273.294245" x2="242.3803" y2="348.571742" id="Path" stroke="#070721" fill="#D4D4FF" fill-rule="nonzero"></line>
                <line x1="181.260834" y1="277.52517" x2="177.652642" y2="363.883661" id="Path" stroke="#070721" fill="#D4D4FF" fill-rule="nonzero"></line>
                <circle id="Oval" stroke="#11112D" fill="#FF6E61" fill-rule="nonzero" cx="119.518634" cy="196.295074" r="18.2241141"></circle>
            </g>
            <polygon id="Path" fill="#FFFFFF" fill-rule="nonzero" points="402.047768 175.006443 294.937598 157.20359 287.794478 122.733456 378.017579 64.0133456"></polygon>
            <path d="M259.697445,151.279272 L280.392272,151.279272 C280.939034,151.279272 281.382272,151.72251 281.382272,152.269272 L281.382272,180.766584 C281.382272,181.313346 280.939034,181.756584 280.392272,181.756584 L259.697445,181.756584 C259.150683,181.756584 258.707445,181.313346 258.707445,180.766584 L258.707445,152.269272 C258.707445,151.72251 259.150683,151.279272 259.697445,151.279272 Z" id="Rectangle" stroke="#11112D" fill="#ECEFFC" fill-rule="nonzero" transform="translate(270.044859, 166.517928) rotate(-11.700000) translate(-270.044859, -166.517928) "></path>
            <polygon id="Path" stroke="#11112D" fill="#FFFFFF" points="387.761528 193.615186 294.314864 182.003037 285.505016 139.547262 365.141647 89.2340543"></polygon>
            <path d="M150.518362,340.323884 L122.000828,386.296272 C113.777082,383.219236 107.091855,378.658629 104.491026,370.160147 L142.953981,333.913392 L150.518362,340.323884 Z" id="Path" fill="#FF6E61" fill-rule="nonzero"></path>
            <g id="manivelle" transform="translate(69.680913, 218.779553)" fill="#FFFFFF" fill-rule="nonzero" stroke="#11112D">
                <path d="M61.1663946,1.70475486 L1.32902693,99.6387631 C-0.630752175,102.624221 -0.392648172,106.232412 1.84186632,107.697668 L1.84186632,107.697668 C4.09469651,109.181239 7.50141534,107.954088 9.44287875,104.986945 L75.6357918,11.1922836 C75.6357918,11.1922836 76.4783136,3.49969273 71.9726533,1.02707423 L71.9726533,1.02707423 C68.6941443,-1.62870119 61.1663946,1.70475486 61.1663946,1.70475486 Z" id="Path"></path>
                <circle id="Oval" cx="66.0383689" cy="10.1299734" r="4.67050161"></circle>
            </g>
            <circle id="Oval" stroke="#070721" fill="#F4F4F9" fill-rule="nonzero" cx="207.480166" cy="89.2157386" r="7.1797515"></circle>
            <circle id="Oval" stroke="#070721" fill="#F4F4F9" fill-rule="nonzero" cx="79.7831569" cy="137.715693" r="7.1797515"></circle>
            <circle id="Oval" stroke="#11112D" fill="#D4D4FF" fill-rule="nonzero" cx="230.686148" cy="176.856328" r="7.1797515"></circle>
            <line x1="132.75214" y1="232.517717" x2="138.70474" y2="225.301335" id="Path" stroke="#11112D"></line>
            <line x1="225.70428" y1="172.002669" x2="235.686332" y2="181.984722" id="Path" stroke="#11112D"></line>
        </g>
        <rect id="Rectangle" fill="#080B0F" fill-rule="nonzero" x="0.128209848" y="0.164841233" width="452.672342" height="45.3130235"></rect>
        <polygon id="Path" fill="#FFFFFF" fill-rule="nonzero" points="48.023746 45.4778647 0.402945237 45.4778647 24.2133456 0 71.8341463 0"></polygon>
        <polygon id="Path" fill="#FFFFFF" fill-rule="nonzero" points="143.265347 45.4778647 95.6445467 45.4778647 119.454947 0 167.075748 0"></polygon>
        <polygon id="Path" fill="#FFFFFF" fill-rule="nonzero" points="333.74855 45.6610216 286.12775 45.6610216 309.93815 0.164841233 357.558951 0.164841233"></polygon>
        <polygon id="Path" fill="#FFFFFF" fill-rule="nonzero" points="427.543212 45.6610216 379.922411 45.6610216 403.732812 0.164841233 451.353613 0.164841233"></polygon>
        <polygon id="Path" fill="#FFFFFF" fill-rule="nonzero" points="238.763369 45.4778647 191.142568 45.4778647 214.952968 0 262.573769 0"></polygon>
        <g id="Group" transform="translate(12.711091, 20.623470)">
            <ellipse id="Accent-1" fill="#8DA4FA" fill-rule="nonzero" cx="402.780396" cy="264.99144" rx="2.12462034" ry="2.19788311"></ellipse>
            <path d="M87.4208007,179.145789 C87.6062243,179.885638 87.31374,180.662952 86.6865894,181.097049 C86.0594389,181.531146 85.2289182,181.531146 84.6017677,181.097049 C83.9746171,180.662952 83.6821328,179.885638 83.8675564,179.145789 C83.6821328,178.405941 83.9746171,177.628626 84.6017677,177.194529 C85.2289182,176.760432 86.0594389,176.760432 86.6865894,177.194529 C87.31374,177.628626 87.6062243,178.405941 87.4208007,179.145789 Z" id="Accent-1-2" fill="#D6DFFF" fill-rule="nonzero"></path>
            <path d="M64.0133456,129.05237 C63.9191103,129.003608 63.8423195,128.926817 63.7935573,128.832582 L63.0059825,127.330695 C62.9138253,127.163474 62.7390065,127.058582 62.5480902,127.05596 C62.3526446,127.059458 62.1727422,127.163248 62.0718822,127.330695 L61.3026231,128.832582 C61.249116,128.923245 61.1734977,128.998863 61.0828348,129.05237 L59.6175794,129.913208 C59.4526146,130.016482 59.3496756,130.19491 59.3428439,130.389416 C59.3427181,130.585848 59.4474635,130.767407 59.6175794,130.865624 L61.0828348,131.671514 C61.1770701,131.720276 61.2538609,131.797067 61.3026231,131.891302 L62.0718822,133.374873 C62.1621948,133.554965 62.3466228,133.668459 62.5480902,133.667964 C62.7455403,133.670421 62.9255492,133.555216 63.0059825,133.374873 L63.7935573,131.891302 C63.8361249,131.792701 63.9147447,131.714082 64.0133456,131.671514 L65.4602853,130.865624 C65.6414787,130.776105 65.7561711,130.591516 65.7561711,130.389416 C65.7561711,130.187315 65.6414787,130.002726 65.4602853,129.913208 L64.0133456,129.05237 Z" id="Accent-1-3" fill="#9EB1FF" fill-rule="nonzero"></path>
            <path d="M312.923608,6.97827888 L310.176254,5.45807639 C309.99752,5.35950998 309.855991,5.20511382 309.773309,5.01849977 L308.308053,2.16125173 C308.134057,1.83687302 307.796985,1.63322581 307.4289,1.63009664 C307.065092,1.63184665 306.732804,1.83687583 306.568063,2.16125173 L305.066176,5.01849977 C304.982478,5.19984516 304.840679,5.34808939 304.663231,5.4397607 L301.915877,6.95996318 C301.591268,7.15079308 301.391936,7.49920226 301.391936,7.87574781 C301.391936,8.25229337 301.591268,8.60070255 301.915877,8.79153244 L304.663231,10.3117349 C304.840679,10.4034062 304.982478,10.5516505 305.066176,10.7329959 L306.549747,13.5902439 C306.714488,13.9146198 307.046776,14.119649 307.410584,14.121399 C307.77867,14.1182698 308.115741,13.9146226 308.289738,13.5902439 L309.754993,10.7329959 C309.845671,10.5503603 309.993618,10.4024123 310.176254,10.3117349 L312.923608,8.82816383 C313.266824,8.65309838 313.480123,8.29760047 313.473079,7.9123792 C313.482795,7.52176962 313.269735,7.1595686 312.923608,6.97827888 L312.923608,6.97827888 Z" id="Accent-1-4" fill="#9EB1FF" fill-rule="nonzero"></path>
            <path d="M7.56438104,219.660101 L5.73281178,218.68937 C5.62396943,218.616856 5.53058948,218.523476 5.45807639,218.414634 L4.52397607,216.583065 C4.42336535,216.359714 4.20115562,216.216096 3.9561896,216.216096 C3.71122358,216.216096 3.48901384,216.359714 3.38840313,216.583065 L2.45430281,218.414634 C2.38710509,218.527719 2.29265251,218.622172 2.17956742,218.68937 L0.347998159,219.660101 C0.135037275,219.77867 0.00215591316,220.00247 0,220.246203 C0.00584745728,220.488891 0.137722864,220.710997 0.347998159,220.832306 L2.17956742,221.803037 C2.29188311,221.863169 2.38657699,221.95155 2.45430281,222.059457 L3.38840313,223.891026 C3.49907693,224.102183 3.71778705,224.234481 3.9561896,224.234481 C4.19459215,224.234481 4.41330227,224.102183 4.52397607,223.891026 L5.45807639,222.059457 C5.52580221,221.95155 5.62049609,221.863169 5.73281178,221.803037 L7.56438104,220.832306 C7.76762674,220.706511 7.89210236,220.485221 7.89406351,220.246203 C7.89953768,220.005267 7.77312758,219.780538 7.56438104,219.660101 L7.56438104,219.660101 Z" id="Accent-1-5" fill="#9EB1FF" fill-rule="nonzero"></path>
            <path d="M307.227428,185.006811 L306.091855,184.384077 C306.020423,184.348547 305.962544,184.290668 305.927013,184.219236 L305.322595,183.028716 C305.241153,182.905937 305.103616,182.832125 304.956282,182.832125 C304.808947,182.832125 304.67141,182.905937 304.589968,183.028716 L303.98555,184.219236 C303.945108,184.286992 303.888464,184.343636 303.820709,184.384077 L302.685136,185.006811 C302.547902,185.086034 302.463929,185.232987 302.46533,185.39144 C302.470363,185.543328 302.553477,185.681852 302.685136,185.757754 L303.820709,186.380488 C303.889725,186.427236 303.946305,186.490103 303.98555,186.563645 L304.589968,187.735849 C304.664818,187.867653 304.804707,187.949084 304.956282,187.949084 C305.107856,187.949084 305.247745,187.867653 305.322595,187.735849 L305.927013,186.563645 C305.961487,186.486877 306.01913,186.422829 306.091855,186.380488 L307.227428,185.757754 C307.359086,185.681852 307.4422,185.543328 307.447216,185.39144 C307.441677,185.234884 307.359495,185.091065 307.227428,185.006811 Z" id="Accent-1-6" fill="#9EB1FF" fill-rule="nonzero"></path>
            <ellipse id="Outline-1" stroke="#1F2A3B" stroke-width="0.5" cx="353.30971" cy="264.973125" rx="2.12462034" ry="2.2161988"></ellipse>
            <path d="M89.4172112,179.017579 C89.4172112,180.029127 88.5971897,180.849149 87.585642,180.849149 C86.5740942,180.849149 85.7540727,180.029127 85.7540727,179.017579 C85.7540727,178.006032 86.5740942,177.18601 87.585642,177.18601 C88.5971897,177.18601 89.4172112,178.006032 89.4172112,179.017579 Z" id="Outline-1-2" stroke="#1F2A3B" stroke-width="0.5"></path>
            <path d="M66.0463875,128.191532 C65.9521522,128.14277 65.8753614,128.065979 65.8265992,127.971744 L65.0390244,126.469857 C64.9532028,126.296661 64.7743387,126.189343 64.5811321,126.195122 C64.3866839,126.184461 64.2053378,126.293268 64.1232398,126.469857 L63.335665,127.971744 C63.2869028,128.065979 63.210112,128.14277 63.1158767,128.191532 L61.668937,129.070686 C61.4985858,129.168747 61.3935904,129.350335 61.3935904,129.546894 C61.3935904,129.743453 61.4985858,129.925041 61.668937,130.023102 L63.1158767,130.828992 C63.210112,130.877754 63.2869028,130.954545 63.335665,131.04878 L64.1232398,132.532352 C64.210427,132.705211 64.387529,132.814239 64.5811321,132.814239 C64.7747351,132.814239 64.9518372,132.705211 65.0390244,132.532352 L65.8265992,131.04878 C65.8691668,130.95018 65.9477865,130.87156 66.0463875,130.828992 L67.4933272,130.023102 C67.6636784,129.925041 67.7686738,129.743453 67.7686738,129.546894 C67.7686738,129.350335 67.6636784,129.168747 67.4933272,129.070686 L66.0463875,128.191532 Z" id="Outline-1-3" stroke="#414D86" stroke-width="0.5"></path>
            <path d="M314.425495,5.36649793 L311.678141,3.82797975 C311.504554,3.73122994 311.364139,3.5844319 311.275196,3.40671882 L309.80994,0.531155085 C309.635943,0.206776381 309.298872,0.00312916674 308.930787,0 C308.566979,0.00175001077 308.23469,0.206779188 308.069949,0.531155085 L306.604694,3.40671882 C306.514017,3.58935437 306.366069,3.73730234 306.183433,3.82797975 L303.436079,5.36649793 C303.111471,5.55732782 302.912138,5.905737 302.912138,6.28228256 C302.912138,6.65882812 303.111471,7.0072373 303.436079,7.19806719 L306.11017,8.68163829 C306.292806,8.7723157 306.440754,8.92026367 306.531431,9.10289922 L307.996687,11.978463 C308.161428,12.3028389 308.493716,12.507868 308.857524,12.509618 C309.225609,12.5064889 309.562681,12.3028417 309.736677,11.978463 L311.201933,9.10289922 C311.290876,8.92518614 311.431291,8.7783881 311.604878,8.68163829 L314.352232,7.1797515 C314.686877,6.99658103 314.894965,6.64546234 314.894965,6.26396687 C314.894965,5.88247139 314.686877,5.5313527 314.352232,5.34818224 L314.425495,5.36649793 Z" id="Outline-1-4" stroke="#414D86" stroke-width="0.5"></path>
            <path d="M9.61573861,219.312103 L7.78416935,218.341371 C7.66010212,218.289371 7.56143468,218.190703 7.50943396,218.066636 L6.57533364,216.235067 C6.47472292,216.011715 6.25251319,215.868098 6.00754717,215.868098 C5.76258115,215.868098 5.54037141,216.011715 5.4397607,216.235067 L4.50566038,218.066636 C4.44923987,218.187673 4.35196229,218.284951 4.23092499,218.341371 L2.39935573,219.312103 C2.1806287,219.433841 2.0468236,219.666239 2.05135757,219.916521 C2.04954712,220.161345 2.18353887,220.387015 2.39935573,220.502623 L4.23092499,221.473355 C4.33976734,221.545868 4.43314729,221.639248 4.50566038,221.74809 L5.4397607,223.579659 C5.54589425,223.795613 5.76694664,223.931097 6.00754717,223.927722 C6.24694124,223.926776 6.46589723,223.792577 6.57533364,223.579659 L7.50943396,221.74809 C7.58194705,221.639248 7.675327,221.545868 7.78416935,221.473355 L9.61573861,220.502623 C9.82869949,220.384055 9.96158086,220.160255 9.96373677,219.916521 C9.96827074,219.666239 9.83446564,219.433841 9.61573861,219.312103 L9.61573861,219.312103 Z" id="Outline-1-5" stroke="#414D86" stroke-width="0.5"></path>
            <path d="M308.74763,184.512287 L307.612057,183.871238 C307.535502,183.833787 307.476424,183.768145 307.447216,183.688081 L306.842798,182.515877 C306.772772,182.37859 306.630573,182.293271 306.476484,182.296088 C306.327746,182.295902 306.192231,182.38149 306.128486,182.515877 L305.524068,183.688081 C305.484238,183.761211 305.427772,183.823951 305.359227,183.871238 L304.278601,184.512287 C304.134353,184.574612 304.045924,184.721994 304.058813,184.878601 C304.0513,185.033906 304.138031,185.178459 304.278601,185.244915 L305.414174,185.885964 C305.477998,185.931253 305.533726,185.986981 305.579015,186.050805 L306.183433,187.241325 C306.247178,187.375712 306.382693,187.4613 306.531431,187.461114 C306.684383,187.459787 306.824597,187.375658 306.897745,187.241325 L307.502163,186.050805 C307.542604,185.98305 307.599249,185.926406 307.667004,185.885964 L308.802577,185.244915 C308.934381,185.170065 309.015812,185.030176 309.015812,184.878601 C309.015812,184.727026 308.934381,184.587137 308.802577,184.512287 L308.74763,184.512287 Z" id="Outline-1-6" stroke="#414D86" stroke-width="0.5"></path>
            <path d="M195.153705,78.9589508 L192.717717,77.6035895 C192.56827,77.5267137 192.446595,77.405039 192.369719,77.2555913 L191.069305,74.7097101 C190.923696,74.4181612 190.625934,74.2338321 190.300046,74.2335021 C189.975359,74.2379928 189.679585,74.4210908 189.530787,74.7097101 L188.230373,77.2555913 C188.141825,77.4024544 188.015267,77.5226848 187.864059,77.6035895 L185.428072,78.9589508 C185.150551,79.1320875 184.983812,79.4377754 184.988495,79.7648412 C184.980085,80.0928179 185.147767,80.4002356 185.428072,80.5707317 L187.864059,81.926093 C188.016763,82.0212157 188.142808,82.1535625 188.230373,82.3107225 L189.530787,84.8382881 C189.679585,85.1269074 189.975359,85.3100053 190.300046,85.3144961 C190.625934,85.314166 190.923696,85.129837 191.069305,84.8382881 L192.369719,82.3107225 C192.444397,82.1504323 192.565676,82.016387 192.717717,81.926093 L195.153705,80.5707317 C195.451057,80.4127109 195.634933,80.1015366 195.630013,79.7648412 C195.626939,79.4303181 195.445298,79.1229259 195.153705,78.9589508 L195.153705,78.9589508 Z" id="Outline-1-7" stroke="#1F2A3B" stroke-width="0.5"></path>
            <path d="M198.047584,79.6183157 L195.648228,78.2812701 C195.494669,78.2101549 195.371345,78.0868311 195.30023,77.933272 L193.999816,75.3873907 C193.839812,75.1085523 193.542883,74.9365957 193.221399,74.9365957 C192.899915,74.9365957 192.602986,75.1085523 192.442982,75.3873907 L191.142568,77.933272 C191.064324,78.0881005 190.934889,78.2110641 190.776254,78.2812701 L188.358583,79.6366314 C188.076715,79.8078631 187.903494,80.1127311 187.900687,80.4425219 C187.899879,80.7732738 188.074038,81.0797942 188.358583,81.2484123 L190.776254,82.6037736 C190.937457,82.6880478 191.066253,82.8232832 191.142568,82.9884031 L192.442982,85.5159687 C192.594855,85.8052783 192.894649,85.9864931 193.221399,85.9864931 C193.548149,85.9864931 193.847943,85.8052783 193.999816,85.5159687 L195.30023,82.9884031 C195.374908,82.8281129 195.496187,82.6940677 195.648228,82.6037736 L198.0659,81.2484123 C198.363252,81.0903915 198.547128,80.7792172 198.542208,80.4425219 C198.542208,80.0975474 198.351973,79.7806566 198.047584,79.6183157 L198.047584,79.6183157 Z" id="Accent-1-7" fill="#9EB1FF" fill-rule="nonzero"></path>
        </g>
        <polygon id="Path" fill="#FFFFFF" fill-rule="nonzero" points="210.996779 581.944501 171.306673 581.944501 182.442614 536.466636 221.601565 536.466636"></polygon>
        <rect id="Rectangle" fill="#080B0F" fill-rule="nonzero" x="0" y="551.522135" width="452.672342" height="45.3130235"></rect>
        <polygon id="Path" fill="#FFFFFF" fill-rule="nonzero" points="47.8772204 596.835159 0.256419696 596.835159 24.0668201 551.357294 71.6876208 551.357294"></polygon>
        <polygon id="Path" fill="#FFFFFF" fill-rule="nonzero" points="143.118822 596.835159 95.4980212 596.835159 119.308422 551.357294 166.929222 551.357294"></polygon>
        <polygon id="Path" fill="#FFFFFF" fill-rule="nonzero" points="333.602025 597 285.981224 597 309.791624 551.522135 357.412425 551.522135"></polygon>
        <polygon id="Path" fill="#FFFFFF" fill-rule="nonzero" points="427.415002 597 379.794202 597 403.604602 551.522135 451.225403 551.522135"></polygon>
        <polygon id="Path" fill="#FFFFFF" fill-rule="nonzero" points="238.635159 596.835159 191.014358 596.835159 214.824758 551.357294 262.445559 551.357294"></polygon>
    </g>
</svg>