<svg xmlns="http://www.w3.org/2000/svg" width="48" height="48" viewBox="0 0 48 48">
  <path fill="#9EB1FF" fill-rule="evenodd" d="M11.5238365,34.7231383 L8.76923077,36.1284646 C8.12053877,35.3116316 7.52374213,34.4107282 6.98818201,33.440285 L11.5238365,34.7231383 Z M42.7440851,18.7850353 L14.8295709,33.0355011 L5.63994056,30.4365815 C4.89783691,28.3317057 4.52107659,26.1676692 4.52107659,24.000519 C4.52107659,20.7757413 5.33790956,17.5789871 6.88646711,14.7330455 C7.35871488,14.8866558 7.84445545,14.9644989 8.33538556,14.9644989 C10.9529875,14.9644989 13.0827731,12.8336754 13.0827731,10.2160734 C13.0827731,9.53313047 12.9291628,8.86471823 12.6260939,8.22432949 C15.9733447,5.80081617 19.8987097,4.52107659 23.999481,4.52107659 C32.7376218,4.52107659 40.4015286,10.3707216 42.7440851,18.7850353 L42.7440851,18.7850353 Z M40.2935862,34.6245371 C36.6661005,40.1783785 30.6067983,43.4799613 23.999481,43.4799613 C18.9438351,43.4799613 14.1850305,41.5587951 10.5378246,38.058972 L28.7209209,28.7769679 L40.2935862,34.6245371 Z M43.4789234,24.000519 C43.4789234,26.9326068 42.8260798,29.7660935 41.5380369,32.4283254 L31.5025122,27.355035 L43.2754936,21.3434765 C43.4124973,22.2921237 43.4789234,23.1650037 43.4789234,24.000519 L43.4789234,24.000519 Z M23.999481,2 C19.2956856,2 14.8036232,3.48524521 10.9893143,6.29901163 C10.1932394,5.75411035 9.28091902,5.46764796 8.33538556,5.46764796 C5.71674569,5.46764796 3.58696011,7.59743354 3.58696011,10.2160734 C3.58696011,11.383719 4.00523671,12.4859765 4.77225014,13.3536669 C2.95695044,16.617885 2,20.2931144 2,24.000519 C2,36.1315783 11.8694596,46.0010379 23.999481,46.0010379 C36.1305404,46.0010379 46,36.1315783 46,24.000519 C46,11.8684217 36.1305404,2 23.999481,2 L23.999481,2 Z"/>
</svg>
