<svg xmlns="http://www.w3.org/2000/svg" width="71" height="32" viewBox="0 0 71 32">
  <g fill="none" fill-rule="evenodd">
    <g fill="#9EB1FF" transform="translate(34 5)">
      <path d="M3.05564628 1.70355838L4.12329801 4.18089568 1.9961033 4.18089568 3.05564628 1.70355838zM1.64066987 5.00622379L4.47062268 5.00622379 5.03688354 6.31727777 6.1356188 6.31727777 3.5813634.6522798 2.54614666.6522798 1.64313008e-14 6.31727777 1.08251777 6.31727777 1.64066987 5.00622379zM7.76858536 4.22053849C7.76858536 3.79028548 7.87940491 3.46015424 8.09969254 3.23014477 8.32133164 3.0001353 8.62811258 2.88648356 9.02138682 2.88648356 9.09166263 2.88648356 9.17004719 2.89460154 9.25654049 2.90948451L9.25654049 1.94615072C8.52405032 1.94615072 8.01184778 2.1734542 7.71993288 2.62670816L7.71993288 1.99485861 6.75769486 1.99485861 6.75769486 6.31768367 7.76858536 6.31768367 7.76858536 4.22053849zM13.1659027 6.11135164C13.4861982 5.93546205 13.7294607 5.68651062 13.8983929 5.36179137L13.1213046 4.90853741C12.9969705 5.10878095 12.8429043 5.2589636 12.6564031 5.35773238 12.4699019 5.45920714 12.2671832 5.50791503 12.0455441 5.50791503 11.6630815 5.50791503 11.3495433 5.38614531 11.1049294 5.13989988 10.8589641 4.89500744 10.7359814 4.5662292 10.7359814 4.15627114 10.7359814 3.74631308 10.8603156 3.41888784 11.1089838 3.1726424 11.3563006 2.92639697 11.6684874 2.80462725 12.0455441 2.80462725 12.2671832 2.80462725 12.4699019 2.85468813 12.6564031 2.9548099 12.8429043 3.05357868 12.9969705 3.20511433 13.1213046 3.40400487L13.8983929 2.95075091C13.7362179 2.62738466 13.494307 2.37843323 13.1740115 2.20524963 12.8537159 2.03206603 12.4793621 1.94682722 12.0536529 1.94682722 11.6009145 1.94682722 11.19818 2.041537 10.8454495 2.22960357 10.492719 2.41902314 10.2156702 2.68015154 10.0170058 3.01569476 9.81699008 3.349885 9.71833365 3.73007712 9.71833365 4.15627114 9.71833365 4.58246516 9.81699008 4.96401028 10.0170058 5.30090651 10.2156702 5.63780273 10.4940705 5.90299012 10.8495039 6.08970369 11.2049373 6.27912326 11.6063203 6.37383304 12.0536529 6.37383304 12.4739563 6.37383304 12.8456072 6.28724124 13.1659027 6.11135164M17.7053146 3.11595183C17.883707 3.30807739 17.9729033 3.59355973 17.9729033 3.96969287L17.9729033 6.31714247 18.9824423 6.31714247 18.9824423 3.83980517C18.9824423 3.21472061 18.8189159 2.74252469 18.4905116 2.42321743 18.1607559 2.10661615 17.724235 1.94696252 17.1795975 1.94696252 16.8782224 1.94696252 16.6052279 1.99431741 16.3592626 2.0876742 16.1146487 2.18373698 15.9078756 2.31903667 15.7402948 2.49763226L15.7402948.312542281 14.7307558.312542281 14.7307558 6.31714247 15.7402948 6.31714247 15.7402948 4.1320525C15.7402948 3.70991747 15.8484115 3.38790421 16.0646447 3.16465972 16.2795265 2.94141523 16.5741444 2.82911649 16.9457953 2.82911649 17.2741995 2.82911649 17.5282736 2.92382628 17.7053146 3.11595183M20.777719 1.28331755C20.9655716 1.28331755 21.1209893 1.22243269 21.2426205 1.10066297 21.3642517.978893249 21.4250673.830063591 21.4250673.651468002 21.4250673.483696387 21.3629002.345690705 21.2385661.23474496 21.114232.125152212 20.9601658.0696793397 20.777719.0696793397 20.5939207.0696793397 20.4398545.127858206 20.3168718.242862941 20.1925377.357867677 20.1303706.503991341 20.1303706.675821946 20.1303706.849005547 20.1925377.992423217 20.3168718 1.10878095 20.4398545 1.22513868 20.5939207 1.28331755 20.777719 1.28331755"/>
      <polygon points="20.269 6.317 21.28 6.317 21.28 1.996 20.269 1.996"/>
      <path d="M24.8849346 5.50750913C24.6416722 5.50750913 24.4240875 5.45338926 24.2294775 5.34244351 24.0362191 5.23149777 23.8821529 5.07455013 23.7686304 4.8675416 23.6551079 4.66323907 23.5996982 4.42646462 23.5996982 4.15586524 23.5996982 3.88661886 23.6551079 3.64984441 23.7686304 3.44418888 23.8821529 3.23853335 24.0362191 3.08158571 24.2294775 2.97063997 24.4240875 2.85969422 24.6416722 2.80422135 24.8849346 2.80422135 25.2565855 2.80422135 25.562015 2.92869706 25.8025745 3.17629549 26.0417826 3.42524692 26.1620623 3.75131917 26.1620623 4.15586524 26.1620623 4.56176431 26.0417826 4.88783656 25.8025745 5.13678799 25.562015 5.38438642 25.2565855 5.50750913 24.8849346 5.50750913M26.9067156 5.31673657C27.0945683 4.97984035 27.1891703 4.59288324 27.1891703 4.15586524 27.1891703 3.72020024 27.0945683 3.33459613 26.9067156 2.9990529 26.7175115 2.66350967 26.4580316 2.40508727 26.125573 2.22107969 25.7944658 2.03977811 25.4187605 1.94642132 24.9971056 1.94642132 24.7011364 1.94642132 24.4308448 1.9978352 24.1848794 2.09930997 23.9402656 2.20349073 23.7334925 2.35637938 23.5672632 2.56203491L23.5672632 1.99512921 22.6050252 1.99512921 22.6050252 7.88743066 23.6159157 7.88743066 23.6159157 5.79163848C23.9551316 6.17994859 24.4159787 6.37478014 24.9971056 6.37478014 25.4187605 6.37478014 25.7944658 6.28142335 26.125573 6.09876877 26.4580316 5.91611419 26.7175115 5.65498579 26.9067156 5.31673657M29.2058158 3.0432959C29.4288063 2.85117034 29.7031523 2.75646056 30.0261507 2.75646056 30.354555 2.75646056 30.6302524 2.85252334 30.85054 3.04735489 31.0721791 3.24083345 31.204622 3.49519686 31.2465172 3.80773914L28.7976755 3.80773914C28.8449765 3.48978487 28.9814738 3.23542146 29.2058158 3.0432959M31.9181917 5.66946286L31.3762571 5.04573129C31.0694762 5.35962657 30.6775534 5.51657421 30.2045432 5.51657421 29.8315408 5.51657421 29.5207055 5.42321743 29.2706858 5.23650386 29.0193146 5.04979029 28.8652484 4.79813286 28.8057842 4.4801786L32.1925377 4.4801786C32.2033494 4.35029089 32.2087552 4.25152212 32.2087552 4.18116628 32.2087552 3.7387363 32.1155046 3.3490732 31.9303549 3.01217697 31.7438537 2.67392775 31.4857252 2.41144635 31.1532666 2.22608578 30.8221594 2.03937221 30.4464541 1.94601542 30.0261507 1.94601542 29.6004415 1.94601542 29.2179789 2.0420782 28.8774115 2.22879177 28.5381956 2.41821134 28.2733098 2.68204573 28.0814028 3.01894196 27.8894958 3.35583818 27.7948937 3.73603031 27.7948937 4.15545934 27.7948937 4.58300636 27.8935502 4.96455148 28.0895116 5.30144771 28.2868244 5.63834393 28.5652247 5.90217832 28.926064 6.09024489 29.2882547 6.27966446 29.7058552 6.37437424 30.1802169 6.37437424 30.5518678 6.37437424 30.8856779 6.31484238 31.1816472 6.19577865 31.4789679 6.07671492 31.7235818 5.90217832 31.9181917 5.66946286"/>
      <polygon points="33.179 6.317 34.19 6.317 34.19 .312 33.179 .312"/>
      <path d="M2.43343507 10.08578C2.74021601 9.91530239 3.08754068 9.83141659 3.4754091 9.83141659 4.07410494 9.83141659 4.57819873 10.0519551 4.98769047 10.4943851L5.66747379 9.85441753C5.40258804 9.54864024 5.07958961 9.31321878 4.69712703 9.15085915 4.31466444 8.98849953 3.89165813 8.90867271 3.42810807 8.90867271 2.85644139 8.90867271 2.34018447 9.03450142 1.87933734 9.28345285 1.4184902 9.53511027 1.05629948 9.88283047.791413738 10.3252605.52787945 10.7676904.395436577 11.2655933.395436577 11.821675.395436577 12.3777567.526527992 12.8770126.787359364 13.3194426 1.04954219 13.7618725 1.41038145 14.1095927 1.87122859 14.3585442 2.33207573 14.6102016 2.84833264 14.7360303 3.41864787 14.7360303 3.88354938 14.7360303 4.30790715 14.6548505 4.69307265 14.4924909 5.07823815 14.3314842 5.40258804 14.0960628 5.66747379 13.7889325L4.98769047 13.140847C4.57819873 13.5886889 4.07410494 13.8132864 3.4754091 13.8132864 3.08754068 13.8132864 2.74021601 13.7280476 2.43343507 13.55757 2.12530267 13.3870924 1.88609462 13.1530239 1.71310802 12.8499526 1.54147286 12.5468813 1.45497956 12.2045731 1.45497956 11.821675 1.45497956 11.4387769 1.54147286 11.0964687 1.71310802 10.7933974 1.88609462 10.4916791 2.12530267 10.2562576 2.43343507 10.08578M9.28113703 13.4735489C9.03787461 13.7225003 8.73109367 13.8442701 8.35944275 13.8442701 7.98644037 13.8442701 7.68101089 13.7225003 7.44180284 13.4735489 7.20124334 13.2245975 7.08231505 12.8985252 7.08231505 12.4926262 7.08231505 12.0894331 7.20124334 11.7620078 7.44180284 11.5144094 7.68101089 11.265458 7.98644037 11.1409823 8.35944275 11.1409823 8.73109367 11.1409823 9.03787461 11.265458 9.28113703 11.5144094 9.52304799 11.7620078 9.6446792 12.0894331 9.6446792 12.4926262 9.6446792 12.8985252 9.52304799 13.2245975 9.28113703 13.4735489M9.54737423 10.5673116C9.19734664 10.379245 8.80136948 10.2845352 8.35944275 10.2845352 7.92292185 10.2845352 7.52964761 10.379245 7.17826856 10.5673116 6.82824096 10.7553782 6.55524647 11.0178596 6.35793362 11.3534028 6.16197223 11.687593 6.0633158 12.0677851 6.0633158 12.4926262 6.0633158 12.9201732 6.16197223 13.3017183 6.35793362 13.6386145 6.55524647 13.9755108 6.82824096 14.2393451 7.17826856 14.4274117 7.52964761 14.6168313 7.92292185 14.7115411 8.35944275 14.7115411 8.80136948 14.7115411 9.19734664 14.6168313 9.54737423 14.4274117 9.89875328 14.2393451 10.1717478 13.9755108 10.3690606 13.6386145 10.565022 13.3017183 10.6636784 12.9201732 10.6636784 12.4926262 10.6636784 12.0677851 10.565022 11.687593 10.3690606 11.3534028 10.1717478 11.0178596 9.89875328 10.7553782 9.54737423 10.5673116M14.0831372 10.283994C13.7655446 10.283994 13.4790355 10.3354079 13.2263129 10.4368827 12.9722388 10.5397105 12.7627628 10.6912461 12.5951821 10.8901367L12.5951821 10.3327019 11.6342955 10.3327019 11.6342955 14.654174 12.6438345 14.654174 12.6438345 12.469084C12.6438345 12.048302 12.7519512 11.7249357 12.966833 11.5016912 13.1830662 11.2784468 13.4763326 11.166148 13.849335 11.166148 14.1777392 11.166148 14.4304619 11.2622108 14.6088543 11.4529834 14.7872467 11.6451089 14.8750915 11.9305913 14.8750915 12.3067244L14.8750915 14.654174 15.885982 14.654174 15.885982 12.1768367C15.885982 11.5517521 15.7211041 11.0795562 15.3926999 10.7616019 15.0642956 10.4436477 14.6277747 10.283994 14.0831372 10.283994M18.9181129 13.8778244C18.723503 13.8778244 18.5761941 13.8223515 18.4734833 13.7114058 18.3707725 13.601813 18.3194171 13.4408064 18.3194171 13.2297389L18.3194171 11.1745366 19.476265 11.1745366 19.476265 10.3640915 18.3194171 10.3640915 18.3194171 9.37775673 17.309878 9.37775673 17.309878 10.3640915 16.5976597 10.3640915 16.5976597 11.1745366 17.309878 11.1745366 17.309878 13.2540928C17.309878 13.7303477 17.4382665 14.0902449 17.6977464 14.3391963 17.9558749 14.5867948 18.32212 14.7112705 18.7964817 14.7112705 18.9856858 14.7112705 19.1654297 14.6882695 19.3343619 14.6382086 19.5046456 14.5895007 19.6492516 14.5177919 19.7668285 14.4190231L19.4843738 13.6992288C19.3330105 13.8182925 19.1438064 13.8778244 18.9181129 13.8778244M21.1011228 12.1457178C21.1497753 11.8277635 21.2849211 11.5720471 21.5092631 11.3812745 21.7322537 11.189149 22.0065996 11.0944392 22.3295981 11.0944392 22.6580023 11.0944392 22.9336997 11.190502 23.1553388 11.3853335 23.3756265 11.5788121 23.5080693 11.8331755 23.5499645 12.1457178L21.1011228 12.1457178zM23.4580654 10.5627114C23.1269582 10.3759978 22.7499015 10.283994 22.3295981 10.283994 21.9038888 10.283994 21.5214262 10.3787038 21.1822103 10.5667704 20.8429944 10.75619 20.5767572 11.0200244 20.3862016 11.3569206 20.1942946 11.6938168 20.0983411 12.0726559 20.0983411 12.493438 20.0983411 12.919632 20.1969975 13.3011771 20.3943104 13.6394263 20.5902718 13.9763226 20.8700235 14.2401569 21.2308628 14.4282235 21.591702 14.6162901 22.0093025 14.7109999 22.4836643 14.7109999 22.8553152 14.7109999 23.1891253 14.652821 23.486446 14.5337573 23.7824153 14.4146935 24.0283806 14.2401569 24.2216391 14.0074415L23.6797045 13.3837099C23.3729235 13.6962522 22.9823522 13.8545528 22.5079905 13.8545528 22.1363396 13.8545528 21.8241528 13.7598431 21.5741331 13.5744825 21.3241134 13.3877689 21.1686957 13.1347585 21.1092316 12.8168042L24.4973365 12.8168042C24.5081482 12.6869165 24.5122025 12.5881477 24.5122025 12.5177919 24.5122025 12.0753619 24.4203034 11.6856988 24.2338022 11.3488026 24.0486525 11.0105534 23.7891726 10.749425 23.4580654 10.5627114L23.4580654 10.5627114zM27.9330127 10.283994C27.6154201 10.283994 27.3289111 10.3354079 27.0761884 10.4368827 26.8221144 10.5397105 26.6126384 10.6912461 26.4450576 10.8901367L26.4450576 10.3327019 25.484171 10.3327019 25.484171 14.654174 26.4937101 14.654174 26.4937101 12.469084C26.4937101 12.048302 26.6018267 11.7249357 26.8167085 11.5016912 27.0329418 11.2784468 27.3262081 11.166148 27.6992105 11.166148 28.0276148 11.166148 28.2803374 11.2622108 28.4587299 11.4529834 28.6371223 11.6451089 28.7249671 11.9305913 28.7249671 12.3067244L28.7249671 14.654174 29.7358576 14.654174 29.7358576 12.1768367C29.7358576 11.5517521 29.5709797 11.0795562 29.2425754 10.7616019 28.9141712 10.4436477 28.4776503 10.283994 27.9330127 10.283994M32.7673127 13.8778244C32.5727028 13.8778244 32.4253939 13.8223515 32.3226831 13.7114058 32.2199723 13.601813 32.1686169 13.4408064 32.1686169 13.2297389L32.1686169 11.1745366 33.3254648 11.1745366 33.3254648 10.3640915 32.1686169 10.3640915 32.1686169 9.37775673 31.1590779 9.37775673 31.1590779 10.3640915 30.4468595 10.3640915 30.4468595 11.1745366 31.1590779 11.1745366 31.1590779 13.2540928C31.1590779 13.7303477 31.2874664 14.0902449 31.5469463 14.3391963 31.8050747 14.5867948 32.1713198 14.7112705 32.6456815 14.7112705 32.8348856 14.7112705 33.0146295 14.6882695 33.1835618 14.6382086 33.3538455 14.5895007 33.4984515 14.5177919 33.6160283 14.4190231L33.3335736 13.6992288C33.1822103 13.8182925 32.9930062 13.8778244 32.7673127 13.8778244"/>
    </g>
    <path fill="#9EB1FF" d="M10.0863212,22.1220403 L3.9131376,20.3774861 C3.41685834,19.0079827 3.1308348,17.5380869 3.1308348,16.0018942 C3.1308348,13.7061291 3.7407658,11.5543228 4.79772697,9.68664592 C5.12352862,9.81923962 5.4796374,9.89500744 5.85279394,9.89500744 C7.41171695,9.89500744 8.67703964,8.62968475 8.67703964,7.07076174 C8.67703964,6.57258828 8.53686917,6.11229874 8.30956569,5.70504668 C10.4575835,4.09498038 13.11514,3.1308348 16,3.1308348 C21.9742931,3.1308348 26.9939115,7.22608578 28.4391828,12.7533487 L10.0863212,22.1220403 Z M28.8710594,16.0018942 C28.8710594,18.0874036 28.3596266,20.0535787 27.4750372,21.7981329 L20.3036125,18.1745366 L28.683534,13.8955486 C28.7971858,14.5831417 28.8710594,15.283994 28.8710594,16.0018942 L28.8710594,16.0018942 Z M16,28.8710594 C12.4256528,28.8710594 9.18847247,27.4030578 6.85292924,25.0409958 L19.0572318,18.8109863 L26.9181437,22.7831146 C24.6432147,26.4294412 20.6066838,28.8710594 16,28.8710594 L16,28.8710594 Z M6.06683805,24.1734542 C5.44743607,23.4233527 4.92274388,22.593695 4.48518468,21.7128941 L8.60506021,22.8778244 L6.06683805,24.1734542 Z M16,2 C12.8347991,2 9.92152618,3.06832634 7.57461778,4.84697605 C7.09728048,4.4776079 6.50439724,4.24651603 5.85279394,4.24651603 C4.29387092,4.24651603 3.02854823,5.50994453 3.02854823,7.07076174 C3.02854823,7.85117034 3.34487891,8.55581112 3.85441753,9.06534975 C2.68191043,11.1129752 2,13.4769314 2,16.0018942 C2,23.7188472 8.28115275,30 16,30 C23.7207414,30 30,23.7188472 30,16.0018942 C30,8.28115275 23.7207414,2 16,2 L16,2 Z"/>
    <g transform="translate(34 23)">
      <rect width="27" height="4" fill="#9EB1FF"/>
      <text fill="#FFF" font-family="Montserrat-SemiBold, Montserrat" font-size="3" font-weight="500" letter-spacing=".375">
        <tspan x=".605" y="3">FILM MARKET </tspan>
      </text>
    </g>
  </g>
</svg>
