<svg xmlns="http://www.w3.org/2000/svg" width="136" height="48" viewBox="0 0 136 48">
  <path fill="#9EB1FF" fill-rule="evenodd" d="M23.9749755,2 C36.0937687,2 45.949951,11.8703829 45.949951,24.0029766 C45.949951,36.1296171 36.0937687,46 23.9749755,46 C11.8591556,46 2,36.1296171 2,24.0029766 C2,20.0351779 3.07035465,16.3203897 4.91076999,13.1026925 C4.11097722,12.3019889 3.61445159,11.1946963 3.61445159,9.96833987 C3.61445159,7.51562711 5.6005541,5.53023948 8.04750374,5.53023948 C9.07028707,5.53023948 10.000901,5.89338385 10.7501492,6.47381951 C14.4339531,3.67879854 19.006746,2 23.9749755,2 Z M28.7737322,28.4172642 L9.61735722,38.2072791 C13.2833219,41.9190908 18.3645332,44.2259505 23.9749755,44.2259505 C31.2058158,44.2259505 37.5417206,40.3891219 41.1125427,34.6591801 L41.1125427,34.6591801 L28.7737322,28.4172642 Z M66.323557,27.3796239 C67.3433672,27.3796239 68.2739811,27.5552429 69.1153987,27.912434 C69.9568164,28.2696252 70.667413,28.7875524 71.2501616,29.4602625 L71.2501616,29.4602625 L69.7546383,30.868191 C68.8537565,29.8948451 67.7447501,29.4096604 66.4276193,29.4096604 C65.5743088,29.4096604 64.8101945,29.5942092 64.1352764,29.9692599 C63.4573852,30.3443106 62.9311275,30.8622379 62.5505569,31.5260181 C62.1729596,32.192775 61.9826743,32.9458531 61.9826743,33.7882289 C61.9826743,34.6306048 62.1729596,35.3836829 62.5505569,36.0504397 C62.9311275,36.7171966 63.4573852,37.2321472 64.1352764,37.6071979 C64.8101945,37.9822487 65.5743088,38.169774 66.4276193,38.169774 C67.7447501,38.169774 68.8537565,37.6756596 69.7546383,36.6904073 L69.7546383,36.6904073 L71.2501616,38.1161954 C70.667413,38.791882 69.9538432,39.3098092 69.1064791,39.6640238 C68.259115,40.021215 67.3255279,40.1998106 66.3027446,40.1998106 C65.0480511,40.1998106 63.9122859,39.9229874 62.8984222,39.3693411 C61.8845585,38.821648 61.0907121,38.0566635 60.5139099,37.0833175 C59.9400809,36.1099716 59.6516797,35.0116087 59.6516797,33.7882289 C59.6516797,32.5648491 59.9430541,31.4694629 60.5228295,30.4961169 C61.1055781,29.5227709 61.9023977,28.7577865 62.9162614,28.2041402 C63.9301251,27.656447 65.0658903,27.3796239 66.323557,27.3796239 Z M129.552676,28.4116087 L129.552676,30.5815451 L132.097742,30.5815451 L132.097742,32.3645244 L129.552676,32.3645244 L129.552676,36.8859694 C129.552676,37.350318 129.665658,37.7045325 129.891622,37.9456366 C130.117586,38.1897172 130.441665,38.3117575 130.869807,38.3117575 C131.366333,38.3117575 131.782582,38.1807874 132.115581,37.9188472 L132.115581,37.9188472 L132.736982,39.5023948 C132.478312,39.7196861 132.160179,39.8774455 131.785555,39.9846029 C131.413904,40.0947368 131.018468,40.1453389 130.602219,40.1453389 C129.558623,40.1453389 128.752884,39.8714924 128.185001,39.3267758 C127.614145,38.7790827 127.331691,37.9873089 127.331691,36.9395481 L127.331691,36.9395481 L127.331691,32.3645244 L125.76481,32.3645244 L125.76481,30.5815451 L127.331691,30.5815451 L127.331691,28.4116087 L129.552676,28.4116087 Z M99.0844368,28.4116087 L99.0844368,30.5815451 L101.629502,30.5815451 L101.629502,32.3645244 L99.0844368,32.3645244 L99.0844368,36.8859694 C99.0844368,37.350318 99.1974187,37.7045325 99.4233825,37.9456366 C99.6493462,38.1897172 99.9734258,38.3117575 100.401568,38.3117575 C100.898093,38.3117575 101.314342,38.1807874 101.647342,37.9188472 L101.647342,37.9188472 L102.268742,39.5023948 C102.010073,39.7196861 101.69194,39.8774455 101.317316,39.9846029 C100.945665,40.0947368 100.550228,40.1453389 100.133979,40.1453389 C99.0903833,40.1453389 98.2846441,39.8714924 97.7167615,39.3267758 C97.1459056,38.7790827 96.8634509,37.9873089 96.8634509,36.9395481 L96.8634509,36.9395481 L96.8634509,32.3645244 L95.2965707,32.3645244 L95.2965707,30.5815451 L96.8634509,30.5815451 L96.8634509,28.4116087 L99.0844368,28.4116087 Z M77.1724933,30.4065214 C78.1447321,30.4065214 79.0158819,30.614883 79.7859426,31.0286294 C80.5589765,31.4423759 81.1595644,32.0198349 81.5936527,32.75803 C82.0247677,33.4932485 82.2418119,34.3296712 82.2418119,35.2643215 C82.2418119,36.2049249 82.0247677,37.0443242 81.5936527,37.7854959 C81.1595644,38.5266676 80.5589765,39.1071032 79.7859426,39.5208497 C79.0158819,39.9375727 78.1447321,40.1459342 77.1724933,40.1459342 C76.2121474,40.1459342 75.346944,39.9375727 74.5739101,39.5208497 C73.8038494,39.1071032 73.2032615,38.5266676 72.7691732,37.7854959 C72.3380582,37.0443242 72.121014,36.2049249 72.121014,35.2643215 C72.121014,34.3296712 72.3380582,33.4932485 72.7691732,32.75803 C73.2032615,32.0198349 73.8038494,31.4423759 74.5739101,31.0286294 C75.346944,30.614883 76.2121474,30.4065214 77.1724933,30.4065214 Z M107.906835,30.4053308 C108.831502,30.4053308 109.661027,30.6077391 110.389463,31.018509 C111.117899,31.4292789 111.688755,32.0037613 112.096084,32.7479096 C112.506387,33.4890813 112.708565,34.3463401 112.708565,35.3196861 C112.708565,35.4744689 112.699645,35.6917602 112.67586,35.9775132 L112.67586,35.9775132 L105.222029,35.9775132 C105.35285,36.6770126 105.694769,37.2336355 106.244812,37.6444054 C106.794855,38.0521986 107.481666,38.2605601 108.299298,38.2605601 C109.342894,38.2605601 110.202151,37.9122987 110.877069,37.2247057 L110.877069,37.2247057 L112.069325,38.5969152 C111.644157,39.1088892 111.103033,39.4928697 110.4519,39.7548099 C109.797795,40.0167501 109.063413,40.1447436 108.245781,40.1447436 C107.202185,40.1447436 106.283464,39.9363821 105.489617,39.5226356 C104.695771,39.1088892 104.080317,38.5284535 103.649202,37.7872818 C103.215114,37.0431335 102.99807,36.2037343 102.99807,35.2661074 C102.99807,34.340387 103.209167,33.5069409 103.631363,32.7657692 C104.050585,32.0245975 104.636307,31.4441618 105.382582,31.0274388 C106.128857,30.6136923 106.970275,30.4053308 107.906835,30.4053308 Z M89.7646211,30.4053308 C90.9628236,30.4053308 91.9231696,30.7565688 92.645659,31.4560682 C93.3681484,32.1555676 93.7308797,33.1943986 93.7308797,34.5695846 L93.7308797,34.5695846 L93.7308797,40.0197267 L91.5069206,40.0197267 L91.5069206,34.8553376 C91.5069206,34.0278447 91.3136621,33.3997835 90.9211987,32.9771073 C90.5287354,32.5574077 89.9727456,32.3460695 89.2502562,32.3460695 C88.429651,32.3460695 87.784465,32.5931268 87.3087518,33.0842646 C86.8360118,33.5754025 86.5981553,34.2868083 86.5981553,35.2125288 L86.5981553,35.2125288 L86.5981553,40.0197267 L84.3771694,40.0197267 L84.3771694,30.5124882 L86.4911198,30.5124882 L86.4911198,31.7388445 C86.8597975,31.3012853 87.3206446,30.9679069 87.8796076,30.7416858 C88.4355974,30.5184413 89.0659174,30.4053308 89.7646211,30.4053308 Z M120.234347,30.4053308 C121.43255,30.4053308 122.392896,30.7565688 123.115385,31.4560682 C123.837875,32.1555676 124.200606,33.1943986 124.200606,34.5695846 L124.200606,34.5695846 L124.200606,40.0197267 L121.976647,40.0197267 L121.976647,34.8553376 C121.976647,34.0278447 121.783388,33.3997835 121.390925,32.9771073 C120.998462,32.5574077 120.442472,32.3460695 119.719982,32.3460695 C118.899377,32.3460695 118.254191,32.5931268 117.778478,33.0842646 C117.305738,33.5754025 117.067881,34.2868083 117.067881,35.2125288 L117.067881,35.2125288 L117.067881,40.0197267 L114.846896,40.0197267 L114.846896,30.5124882 L116.960846,30.5124882 L116.960846,31.7388445 C117.329524,31.3012853 117.790371,30.9679069 118.349334,30.7416858 C118.905324,30.5184413 119.535644,30.4053308 120.234347,30.4053308 Z M77.1724933,32.2907049 C76.3518881,32.2907049 75.6799432,32.5645515 75.1536855,33.1122446 C74.6244546,33.6569612 74.3628124,34.3772967 74.3628124,35.2643215 C74.3628124,36.1572994 74.6244546,36.8746584 75.1536855,37.4223515 C75.6799432,37.9700446 76.3518881,38.237938 77.1724933,38.237938 C77.9901253,38.237938 78.6650434,37.9700446 79.2002207,37.4223515 C79.7324249,36.8746584 80.0000135,36.1572994 80.0000135,35.2643215 C80.0000135,34.3772967 79.7324249,33.6569612 79.2002207,33.1122446 C78.6650434,32.5645515 77.9901253,32.2907049 77.1724933,32.2907049 Z M5.90084804,32.977405 C6.58765894,34.3615208 7.41123737,35.6652686 8.38347617,36.8439995 L8.38347617,36.8439995 L12.367574,34.8080097 Z M107.906835,32.1883101 C107.196238,32.1883101 106.592677,32.3966716 106.102098,32.8193479 C105.608546,33.2390475 105.311225,33.8016236 105.20419,34.501123 L105.20419,34.501123 L110.591641,34.501123 C110.499472,33.81353 110.208097,33.2539305 109.723465,32.8282776 C109.235859,32.3996482 108.629324,32.1883101 107.906835,32.1883101 Z M23.9749755,3.77702611 C19.4467807,3.77702611 15.2753708,5.29211203 11.9037537,7.82221621 C12.2605386,8.46218374 12.4805559,9.18549587 12.4805559,9.96833987 C12.4805559,12.418076 10.4944534,14.4064403 8.04750374,14.4064403 C7.4617819,14.4064403 6.90281892,14.2873765 6.39142725,14.079015 C4.73237755,17.0139359 3.77500479,20.3953457 3.77500479,24.0029766 C3.77500479,26.4169936 4.2239591,28.7268299 5.00293942,30.8789068 L5.00293942,30.8789068 L14.6926222,33.6203491 L43.5000282,18.8981193 C41.2314709,10.2124205 33.3524715,3.77702611 23.9749755,3.77702611 Z M43.8835719,20.693005 L30.7301026,27.4171289 L41.9866656,33.1113516 C43.3751534,30.3699093 44.1779194,27.2802057 44.1779194,24.0029766 C44.1779194,22.8748478 44.0619643,21.7735083 43.8835719,20.693005 L43.8835719,20.693005 Z M113.775352,12.0626708 C114.702992,12.0626708 115.529544,12.2680557 116.25798,12.6669192 C116.989389,13.0717359 117.560245,13.6402652 117.976494,14.3784603 C118.389769,15.1166554 118.597894,15.9649844 118.597894,16.9234474 C118.597894,17.884887 118.389769,18.7361927 117.976494,19.4773644 C117.560245,20.2215127 116.989389,20.7959951 116.25798,21.1978352 C115.529544,21.5996753 114.702992,21.8050602 113.775352,21.8050602 C112.496873,21.8050602 111.483009,21.3764308 110.736734,20.5221486 L110.736734,20.5221486 L110.736734,25.1328914 L108.512775,25.1328914 L108.512775,12.1698282 L110.629698,12.1698282 L110.629698,13.4170207 C110.995403,12.9645785 111.450304,12.6282235 111.988454,12.3990258 C112.529578,12.1757814 113.124219,12.0626708 113.775352,12.0626708 Z M124.839251,12.0617778 C125.763918,12.0617778 126.59047,12.2671628 127.318906,12.6779326 C128.050315,13.0857259 128.618197,13.663185 129.0285,14.4073332 C129.435829,15.1485049 129.640981,16.0057638 129.640981,16.9791097 C129.640981,17.1338926 129.629088,17.3511839 129.605302,17.6369368 L129.605302,17.6369368 L122.154445,17.6369368 C122.285266,18.3364362 122.624211,18.8900825 123.177228,19.3008524 C123.727271,19.7116222 124.411109,19.9170072 125.231714,19.9170072 C126.272337,19.9170072 127.134567,19.5717224 127.809485,18.8811528 L127.809485,18.8811528 L129.001741,20.2533622 C128.573599,20.7653362 128.035449,21.1493167 127.381343,21.4112569 C126.730211,21.6731971 125.995828,21.8041672 125.178196,21.8041672 C124.134601,21.8041672 123.21588,21.5958057 122.41906,21.1790827 C121.625214,20.7653362 121.012733,20.1849006 120.578645,19.4437289 C120.14753,18.7025572 119.930486,17.8631579 119.930486,16.9225545 C119.930486,15.9998106 120.13861,15.1633879 120.560805,14.4222162 C120.983001,13.6810445 121.56575,13.1006088 122.312025,12.6838858 C123.061273,12.273116 123.902691,12.0617778 124.839251,12.0617778 Z M85.2997556,12.0635638 C86.2363159,12.0635638 87.0598944,12.2510892 87.7645445,12.6320931 C88.4691946,13.013097 89.0013988,13.5607902 89.3581836,14.2721959 L89.3581836,14.2721959 L87.6485894,15.2693546 C87.3750543,14.8317954 87.0361087,14.498417 86.6258061,14.2811257 C86.2155035,14.0608578 85.7695224,13.9507239 85.2819164,13.9507239 C84.4523915,13.9507239 83.7655806,14.2186172 83.2214837,14.7603572 C82.6744135,15.3020971 82.4008784,16.0224327 82.4008784,16.9243404 C82.4008784,17.8262481 82.6714403,18.5495603 83.2125641,19.0883236 C83.7507146,19.6300636 84.4404987,19.897957 85.2819164,19.897957 C85.7695224,19.897957 86.2155035,19.7907996 86.6258061,19.5675551 C87.0361087,19.3502638 87.3750543,19.019862 87.6485894,18.5793262 L87.6485894,18.5793262 L89.3581836,19.5764849 C88.9865327,20.2908673 88.4513554,20.8385604 87.7467053,21.2255175 C87.0420551,21.6124746 86.2244231,21.8029766 85.2997556,21.8029766 C84.315624,21.8029766 83.4325814,21.5946151 82.6506279,21.177892 C81.8686743,20.7671222 81.2561936,20.1837099 80.8191321,19.4425382 C80.3790975,18.7013665 80.1620533,17.8619673 80.1620533,16.9243404 C80.1620533,15.9867136 80.3790975,15.1502909 80.8191321,14.4150724 C81.2561936,13.6768773 81.8657011,13.1023948 82.6417082,12.6856718 C83.4177154,12.2719253 84.3037311,12.0635638 85.2997556,12.0635638 Z M79.1461084,12.0620755 L79.1461084,14.1814098 C78.9558231,14.1486673 78.7833771,14.1308077 78.6287703,14.1308077 C77.7635669,14.1308077 77.0886489,14.3808416 76.6010429,14.8868624 C76.1164101,15.3928832 75.8726071,16.119172 75.8726071,17.0657286 L75.8726071,17.0657286 L75.8726071,21.679448 L73.648648,21.679448 L73.648648,12.1692329 L75.7655716,12.1692329 L75.7655716,13.5593019 C76.4077844,12.5621431 77.53463,12.0620755 79.1461084,12.0620755 L79.1461084,12.0620755 Z M66.6607188,9.21555946 L72.2800806,21.678555 L69.8628631,21.678555 L68.6170892,18.7942362 L62.391193,18.7942362 L61.1632584,21.678555 L58.7817193,21.678555 L64.3832419,9.21555946 L66.6607188,9.21555946 Z M93.4103679,8.46813692 L93.4103679,13.2753349 C93.7790456,12.8824246 94.2339464,12.5847653 94.7720969,12.3734271 C95.3132206,12.1680422 95.9138085,12.0638615 96.5768338,12.0638615 C97.7750363,12.0638615 98.7353823,12.4150994 99.4608449,13.1116222 C100.183334,13.8140982 100.543092,14.8529292 100.543092,16.2281153 L100.543092,16.2281153 L100.543092,21.6782573 L98.3221065,21.6782573 L98.3221065,16.5138682 C98.3221065,15.6863753 98.1258748,15.0583142 97.7334114,14.6356379 C97.3439213,14.2129617 96.7849583,14.0046002 96.0624689,14.0046002 C95.2448369,14.0046002 94.5966777,14.2516574 94.1239377,14.7427953 C93.6482245,15.2339332 93.4103679,15.9423623 93.4103679,16.8710594 L93.4103679,16.8710594 L93.4103679,21.6782573 L91.189382,21.6782573 L91.189382,8.46813692 L93.4103679,8.46813692 Z M105.59695,12.1707211 L105.59695,21.6779597 L103.372991,21.6779597 L103.372991,12.1707211 L105.59695,12.1707211 Z M134,8.46783926 L134,21.6779597 L131.776041,21.6779597 L131.776041,8.46783926 L134,8.46783926 Z M113.528575,13.9498309 C112.993398,13.9498309 112.514712,14.0718712 112.08657,14.3159518 C111.661401,14.5600325 111.322456,14.9053173 111.072706,15.3577594 C110.822957,15.8102016 110.701055,16.3311054 110.701055,16.9234474 C110.701055,17.5187661 110.822957,18.0396699 111.072706,18.4891354 C111.322456,18.9445542 111.661401,19.289839 112.08657,19.5339196 C112.514712,19.7780003 112.993398,19.897064 113.528575,19.897064 C114.346207,19.897064 115.018152,19.626194 115.547383,19.0814775 C116.073641,18.5337843 116.338256,17.8164254 116.338256,16.9234474 C116.338256,16.0334461 116.073641,15.3160871 115.547383,14.768394 C115.018152,14.2236774 114.346207,13.9498309 113.528575,13.9498309 Z M65.5041411,11.5283723 L63.1731465,16.9785144 L67.8529749,16.9785144 L65.5041411,11.5283723 Z M124.839251,13.8447571 C124.128654,13.8447571 123.525093,14.0531187 123.034514,14.4757949 C122.540962,14.8984711 122.240668,15.4580706 122.136605,16.15757 L122.136605,16.15757 L127.524057,16.15757 C127.431888,15.469977 127.140513,14.9103775 126.652907,14.4847247 C126.168275,14.0560953 125.56174,13.8447571 124.839251,13.8447571 Z M104.492701,7.93383845 C104.894084,7.93383845 105.23303,8.05587877 105.506565,8.29698282 C105.7801,8.54106346 105.916867,8.84467596 105.916867,9.21377351 C105.916867,9.6066838 105.783073,9.93410905 105.515484,10.2020024 C105.247896,10.4698958 104.905977,10.6038425 104.492701,10.6038425 C104.088345,10.6038425 103.749399,10.475849 103.478837,10.219862 C103.205302,9.96387498 103.068535,9.64835611 103.068535,9.26735219 C103.068535,8.88932485 103.205302,8.56785279 103.478837,8.31484238 C103.749399,8.06183196 104.088345,7.93383845 104.492701,7.93383845 Z"/>
</svg>
