<svg xmlns="http://www.w3.org/2000/svg" width="140" height="48" viewBox="0 0 140 48">
  <path fill="#9EB1FF" fill-rule="evenodd" d="M22.6382285,1.24344979e-13 C35.1244828,1.24344979e-13 45.2795203,9.86807388 45.2795203,21.9985116 C45.2795203,34.1319261 35.1244828,44 22.6382285,44 C10.1550375,44 -3.33955086e-13,34.1319261 -3.33955086e-13,21.9985116 C-3.33955086e-13,18.0334213 1.09974615,14.3183817 2.99902919,11.1004668 C2.17192206,10.2997091 1.66034098,9.19234152 1.66034098,7.96887897 C1.66034098,5.51600027 3.70666529,3.52750152 6.22781035,3.52750152 C7.2816061,3.52750152 8.2404377,3.88769366 9.01240435,4.47114539 C12.8079071,1.67593532 17.5193544,1.24344979e-13 22.6382285,1.24344979e-13 Z M27.5855545,26.4160747 L7.84832765,36.2097287 C11.6223869,39.9188147 16.8576686,42.2258305 22.6382285,42.2258305 C30.0883194,42.2258305 36.616339,38.3917191 40.295434,32.6613896 L40.295434,32.6613896 L27.5855545,26.4160747 Z M126.476015,23.684568 L126.476015,39.4169271 L58.4265413,39.4169271 L58.4265413,23.684568 L126.476015,23.684568 Z M121.577396,26.4086327 L119.289066,26.4086327 L119.289066,28.5846695 L117.674676,28.5846695 L117.674676,30.3647926 L119.289066,30.3647926 L119.289066,34.9401258 C119.289066,37.0417428 120.51441,38.1461335 122.658762,38.1461335 C123.400401,38.1461335 124.142041,37.9725269 124.684926,37.6253136 L124.858254,37.5031459 L124.218012,35.9194912 C123.868789,36.1874027 123.409285,36.3124281 122.934464,36.3124281 C122.106997,36.3124281 121.635006,35.8694316 121.582341,35.045483 L121.577396,34.8865435 L121.577396,30.3647926 L124.199632,30.3647926 L124.199632,28.5846695 L121.577396,28.5846695 L121.577396,26.4086327 Z M81.3325074,28.4054665 C79.8629116,28.4054665 78.4386808,28.745165 77.4060118,29.4294027 L77.1908451,29.5813003 L78.0884095,31.2006765 C78.8236158,30.614248 79.9601223,30.2600095 81.0598684,30.2600095 C82.6216713,30.2600095 83.4266701,30.9598869 83.4910419,32.1631431 L83.4952394,32.3229281 L83.4952394,32.4658142 L80.9649043,32.4658142 C77.999572,32.4658142 76.8998259,33.7130911 76.8998259,35.2967458 C76.8998259,36.9518436 78.3089714,38.1455382 80.545224,38.1455382 C81.9262586,38.1455382 82.9463892,37.7368212 83.5213356,37.0037675 L83.6239005,36.8625397 L83.6239005,38.0205128 L85.7866325,38.0205128 L85.7866325,32.4479535 C85.7866325,29.7063257 84.1538617,28.4054665 81.3325074,28.4054665 Z M111.826416,28.4042758 C108.913161,28.4042758 106.771872,30.4374264 106.771872,33.268358 C106.771872,36.0963128 108.89478,38.1443475 112.175639,38.1443475 C113.761378,38.1443475 115.073047,37.6723453 115.954856,36.770531 L116.115119,36.5964143 L114.886712,35.224112 C114.191329,35.9177052 113.330525,36.2600365 112.230779,36.2600365 C110.598519,36.2600365 109.436096,35.4398676 109.099406,34.1506077 L109.060202,33.9798119 L116.740045,33.9798119 C116.758425,33.7654827 116.773742,33.4975712 116.773742,33.3189635 C116.773742,30.3451458 114.687594,28.4042758 111.826416,28.4042758 Z M98.6165958,24.809201 L96.3252027,24.809201 L96.3252027,38.0202151 L98.6165958,38.0202151 L98.6165958,35.5078006 L100.319824,33.9420066 L103.7079,38.0202151 L106.495557,38.0202151 L102.023052,32.5012381 L106.109574,28.5123334 L103.36174,28.5123334 L98.6165958,32.7840336 L98.6165958,24.809201 Z M62.2747338,25.5569718 L60.3141836,25.5569718 L60.3141836,38.0208105 L62.5871965,38.0208105 L62.5871965,29.8673703 L66.7993161,36.5949259 L67.862302,36.5949259 L72.077485,29.7602057 L72.0958651,38.0208105 L74.3504979,38.0208105 L74.3321178,25.5569718 L72.3715675,25.5569718 L67.3691011,33.8175766 L62.2747338,25.5569718 Z M94.3815009,28.4042758 C92.8447755,28.4042758 91.7015169,28.8472722 91.0206816,29.7307834 L90.8984609,29.9016034 L90.8984609,28.5114404 L88.7204121,28.5114404 L88.7204121,38.0193221 L91.0087418,38.0193221 L91.0087418,33.4112442 C91.0087418,31.4673973 92.108488,30.4701712 93.8515397,30.4701712 C93.9597784,30.4701712 94.0693786,30.4781093 94.1903246,30.4939855 L94.3815009,30.5237535 L94.3815009,28.4042758 Z M83.4952394,33.9423043 L83.4952394,35.0466951 C83.1123194,36.0260605 82.138171,36.526162 81.0200447,36.526162 C79.8498413,36.526162 79.1544587,36.0081997 79.1544587,35.207442 C79.1544587,34.5411577 79.5384383,33.991987 80.936412,33.9454925 L81.133389,33.9423043 L83.4952394,33.9423043 Z M4.01606462,30.9765239 C4.72370072,32.3607334 5.57225137,33.6645694 6.57397,34.8463568 L6.57397,34.8463568 L10.6819354,32.8072526 Z M111.826416,30.1873757 C113.267854,30.1873757 114.321043,31.0540208 114.565381,32.3314339 L114.592629,32.500345 L109.041822,32.500345 C109.262384,31.1131588 110.34375,30.1873757 111.826416,30.1873757 Z M22.6382285,1.77416954 C17.9727316,1.77416954 13.6779012,3.28935796 10.2009879,5.81963331 C10.5685911,6.45964414 10.7952797,7.18300521 10.7952797,7.96887897 C10.7952797,10.4187809 8.75201878,12.4043028 6.22781035,12.4043028 C5.62432848,12.4043028 5.05148021,12.285231 4.52151898,12.0768554 C2.81216424,15.0119748 1.8257624,18.3936134 1.8257624,21.9985116 C1.8257624,24.4186456 2.28832973,26.7256613 3.09092998,28.8778838 L3.09092998,28.8778838 L13.0744194,31.6224883 L42.7553119,16.8962858 C40.4210318,8.21297612 32.3000651,1.77416954 22.6382285,1.77416954 Z M43.1504853,18.6942697 L29.5981818,25.4158717 L41.1960618,31.1134565 C42.6266508,28.3718287 43.4537579,25.2789392 43.4537579,21.9985116 C43.4537579,20.8732833 43.3342869,19.7718693 43.1504853,18.6942697 L43.1504853,18.6942697 Z M115.163333,10.0603748 C118.021448,10.0603748 120.12904,11.9863609 120.12904,14.9244571 C120.12904,17.8774373 118.021448,19.8034233 115.163333,19.8034233 C113.916546,19.8034233 112.8168,19.3926257 112.029516,18.5204249 L112.029516,23.1314796 L109.738123,23.1314796 L109.738123,10.1675394 L111.919235,10.1675394 L111.919235,11.4148163 C112.691202,10.5098708 113.824645,10.0603748 115.163333,10.0603748 Z M85.8255372,10.0603748 C87.7309469,10.0603748 89.2503733,10.8283878 90.0008965,12.2691563 L88.242528,13.2663825 C87.6574263,12.361437 86.778242,11.9506393 85.807157,11.9506393 C84.1192458,11.9506393 82.8356981,13.0907516 82.8356981,14.9244571 C82.8356981,16.7760233 84.1192458,17.8982748 85.807157,17.8982748 C86.778242,17.8982748 87.6574263,17.4874772 88.242528,16.5795548 L90.0008965,17.576781 C89.2503733,18.9996888 87.7309469,19.8034233 85.8255372,19.8034233 C82.7284805,19.8034233 80.5289882,17.7732494 80.5289882,14.9244571 C80.5289882,12.0756647 82.7284805,10.0603748 85.8255372,10.0603748 Z M126.559644,10.0606725 C129.420822,10.0606725 131.50697,12.0015425 131.50697,14.9753603 C131.50697,15.1539679 131.491653,15.4218794 131.473273,15.6362086 L123.79343,15.6362086 C124.069133,17.0233949 125.26078,17.9164333 126.964008,17.9164333 C128.063754,17.9164333 128.924558,17.5741019 129.619941,16.8805088 L130.848348,18.252811 C129.969164,19.267898 128.593715,19.8007442 126.908867,19.8007442 C123.628009,19.8007442 121.505101,17.7527096 121.505101,14.9247548 C121.505101,12.0938232 123.646389,10.0606725 126.559644,10.0606725 Z M106.735724,10.1699208 L106.735724,19.6778026 L104.444331,19.6778026 L104.444331,10.1699208 L106.735724,10.1699208 Z M94.1823825,6.46619309 L94.1823825,11.2737163 C94.9329057,10.4908193 96.0877923,10.0621609 97.4417973,10.0621609 C99.7883309,10.0621609 101.528319,11.3630201 101.528319,14.2296732 L101.528319,19.6772072 L99.2369261,19.6772072 L99.2369261,14.5154455 C99.2369261,12.8216494 98.376122,12.0030309 96.9118361,12.0030309 C95.2790653,12.0030309 94.1823825,12.9645356 94.1823825,14.8696841 L94.1823825,19.6772072 L91.8909894,19.6772072 L91.8909894,6.46619309 L94.1823825,6.46619309 Z M66.6194969,7.21307083 L72.4061835,19.6769095 L69.915672,19.6769095 L68.6321243,16.7923956 L62.2205123,16.7923956 L60.9553448,19.6769095 L58.5015936,19.6769095 L64.2729634,7.21307083 L66.6194969,7.21307083 Z M79.4822381,10.0609702 L79.4822381,12.1804479 C79.2800564,12.1447263 79.114635,12.1268656 78.9492135,12.1268656 C77.2092252,12.1268656 76.1094791,13.1240917 76.1094791,15.0679386 L76.1094791,19.6760165 L73.818086,19.6760165 L73.818086,10.1681348 L75.9991981,10.1681348 L75.9991981,11.5582978 C76.6608838,10.5610716 77.8525308,10.0609702 79.4822381,10.0609702 Z M136,6.46381165 L136,19.6748258 L133.708607,19.6748258 L133.708607,6.46381165 L136,6.46381165 Z M114.906011,11.9506393 C113.257924,11.9506393 111.992756,13.1086124 111.992756,14.9244571 C111.992756,16.7373249 113.257924,17.8982748 114.906011,17.8982748 C116.557162,17.8982748 117.800886,16.7373249 117.800886,14.9244571 C117.800886,13.1086124 116.557162,11.9506393 114.906011,11.9506393 Z M65.4247866,9.52901698 L63.026176,14.976551 L67.8448408,14.976551 L65.4247866,9.52901698 Z M126.559644,11.8437724 C125.076978,11.8437724 123.995612,12.7695555 123.77505,14.1567418 L129.325858,14.1567418 C129.14512,12.7874163 128.063754,11.8437724 126.559644,11.8437724 Z M105.596155,5.93394222 C106.441642,5.93394222 107.063504,6.48167242 107.063504,7.21098708 C107.063504,7.99686083 106.460022,8.60115013 105.596155,8.60115013 C104.753731,8.60115013 104.131869,8.0147216 104.131869,7.26754617 C104.131869,6.52037075 104.753731,5.93394222 105.596155,5.93394222 Z" transform="translate(2 2)"/>
</svg>
