<svg width="89" height="100" viewBox="0 0 89 100" fill="none" xmlns="http://www.w3.org/2000/svg">
<g filter="url(#filter0_f_471_29135)">
<path fill-rule="evenodd" clip-rule="evenodd" d="M8.99414 90.4071V18.019H16.8842L16.884 87.231L67.3807 87.2315V90.4071H8.99414Z" fill="#8DA4FA"/>
</g>
<path fill-rule="evenodd" clip-rule="evenodd" d="M8.99414 90.4071V18.019H16.8842L16.884 87.231L67.3807 87.2315V90.4071H8.99414Z" fill="#8DA4FA"/>
<g filter="url(#filter1_f_471_29135)">
<path fill-rule="evenodd" clip-rule="evenodd" d="M79.837 9.5957V22.2285L66.6992 9.5957H79.837Z" fill="#8DA4FA"/>
</g>
<path fill-rule="evenodd" clip-rule="evenodd" d="M79.837 9.5957V22.2285L66.6992 9.5957H79.837Z" fill="#8DA4FA"/>
<path d="M79.7343 8.95508H18.1206C17.711 8.95508 17.3789 9.28919 17.3789 9.70135V86.1772C17.3789 86.5893 17.711 86.9234 18.1206 86.9234H79.7343C80.1439 86.9234 80.4759 86.5893 80.4759 86.1772V9.70135C80.4759 9.28919 80.1439 8.95508 79.7343 8.95508Z" stroke="#414D86" stroke-width="2"/>
<path d="M16.8257 17.8657H8.52344" stroke="#414D86" stroke-width="2" stroke-linecap="round"/>
<path d="M8.52344 17.8657V95.8341" stroke="#414D86" stroke-width="2" stroke-linecap="round"/>
<path d="M71.6201 86.9233V95.834" stroke="#414D86" stroke-width="2" stroke-linecap="round"/>
<path d="M71.6205 95.834H8.52344" stroke="#414D86" stroke-width="2" stroke-linecap="round"/>
<path d="M67.1925 30.1182H29.5557" stroke="#414D86" stroke-width="2" stroke-linecap="round"/>
<path d="M54.883 38.8057H29.5557" stroke="#414D86" stroke-width="2" stroke-linecap="round"/>
<path d="M45.4253 59.6895C45.5199 59.6895 45.6001 59.7574 45.6165 59.8512L45.9372 61.6927C46.3317 61.8016 46.7101 61.9603 47.0655 62.1648L48.5717 61.0742C48.6488 61.0179 48.7549 61.0262 48.8224 61.095L49.9886 62.2671C50.0554 62.3343 50.0645 62.4395 50.0102 62.5175L48.9384 64.056C49.1377 64.411 49.2935 64.7895 49.4019 65.1832L51.2405 65.4856C51.3341 65.5016 51.403 65.5833 51.4035 65.6784V67.3374C51.4035 67.4321 51.3355 67.5138 51.2425 67.5298L49.403 67.8541C49.2957 68.248 49.1407 68.6273 48.9404 68.9836L50.0277 70.5033C50.0832 70.5809 50.075 70.6877 50.0075 70.7559L48.8422 71.9295C48.7749 71.9967 48.6704 72.0059 48.5933 71.9517L47.0684 70.8741C46.714 71.0786 46.336 71.2383 45.9413 71.3487L45.6167 73.1919C45.6004 73.285 45.5197 73.3529 45.4255 73.3529H43.7763C43.6815 73.3529 43.6004 73.2834 43.5849 73.1898L43.2814 71.3551C42.8866 71.246 42.5065 71.0882 42.1496 70.8851L40.6358 71.9519C40.5576 72.0061 40.4537 71.997 40.3871 71.9297L39.221 70.7561C39.1537 70.6879 39.145 70.5818 39.2005 70.504L40.271 68.9976C40.0666 68.6359 39.9079 68.2519 39.7988 67.8528L37.9857 67.53C37.8927 67.5133 37.8252 67.4323 37.8252 67.3376V65.6786C37.8252 65.5833 37.8938 65.5016 37.9873 65.4856L39.8011 65.1825C39.9107 64.7834 40.0693 64.3996 40.2737 64.0386L39.2164 62.5178C39.1625 62.4398 39.1716 62.3345 39.2385 62.2673L40.4044 61.0953C40.4712 61.0264 40.577 61.0182 40.6547 61.0744L42.1569 62.1536C42.5126 61.9514 42.8918 61.7952 43.2873 61.6865L43.5847 59.8535C43.5997 59.7588 43.6808 59.6895 43.7761 59.6895H45.4253ZM44.6142 64.4034C43.4535 64.4034 42.5087 65.3536 42.5087 66.5213C42.5087 67.6897 43.4535 68.6398 44.6142 68.6398C45.7752 68.6398 46.7192 67.6894 46.7192 66.5213C46.7192 65.3534 45.7749 64.4034 44.6142 64.4034Z" fill="#414D86"/>
<path d="M52.842 52.2535C52.9297 52.217 53.0299 52.2503 53.0802 52.3313L53.8069 53.5134C54.1025 53.4814 54.4 53.4837 54.6953 53.5196L55.4271 52.3393C55.4773 52.259 55.5767 52.2231 55.6669 52.2629L56.8306 52.7531C56.9174 52.7899 56.9656 52.8837 56.9447 52.9768L56.6369 54.3421C56.8719 54.532 57.0813 54.7447 57.2618 54.9775L58.6155 54.6617C58.709 54.6365 58.8033 54.6891 58.8392 54.7776L59.3177 55.9522C59.3534 56.04 59.3214 56.1407 59.2416 56.1919L58.0586 56.9412C58.0909 57.2365 58.0897 57.5343 58.0554 57.8287L59.2384 58.5732C59.3193 58.6238 59.3511 58.726 59.3145 58.8146L58.8283 59.9843C58.7917 60.0715 58.6974 60.1179 58.6064 60.0996L57.2416 59.7892C57.0577 60.0209 56.8483 60.2309 56.6164 60.4148L56.9313 61.7801C56.9527 61.8732 56.9042 61.9686 56.816 62.0052L55.6499 62.4874C55.6258 62.4972 55.6005 62.5018 55.576 62.5018C55.5112 62.5018 55.4482 62.4691 55.4118 62.4103L54.6678 61.2222C54.3743 61.2572 54.0747 61.2579 53.7799 61.2229L53.0252 62.402C52.9745 62.4812 52.8738 62.5141 52.7874 62.4759L51.6244 61.9876C51.5367 61.951 51.488 61.8556 51.5103 61.7625L51.8274 60.4063C51.5939 60.2195 51.3837 60.0072 51.1993 59.7723L49.8463 60.0692C49.7535 60.0875 49.6606 60.0401 49.6251 59.9523L49.1473 58.7761C49.1113 58.6876 49.1443 58.5863 49.225 58.5357L50.3971 57.8077C50.363 57.506 50.3639 57.2038 50.3994 56.9078L49.2391 56.1537C49.1602 56.1025 49.1291 56.0018 49.1654 55.914L49.6517 54.7442C49.6881 54.6564 49.7817 54.6054 49.8754 54.6299L51.2157 54.949C51.4044 54.7115 51.6176 54.4988 51.8515 54.3149L51.5585 52.9551C51.5385 52.8624 51.5874 52.7687 51.6749 52.7327L52.842 52.2535ZM54.2368 55.7996C53.6039 55.7996 53.0375 56.1784 52.7933 56.7651C52.4607 57.5664 52.8372 58.4904 53.6328 58.8255C53.8258 58.9063 54.0288 58.9477 54.2357 58.9477C54.869 58.9477 55.435 58.5682 55.6792 57.9815C56.0122 57.1816 55.6355 56.2575 54.8401 55.9218C54.6471 55.8408 54.4441 55.7996 54.2368 55.7996Z" fill="#414D86"/>
<defs>
<filter id="filter0_f_471_29135" x="0.994141" y="10.019" width="74.3867" height="88.3882" filterUnits="userSpaceOnUse" color-interpolation-filters="sRGB">
<feFlood flood-opacity="0" result="BackgroundImageFix"/>
<feBlend mode="normal" in="SourceGraphic" in2="BackgroundImageFix" result="shape"/>
<feGaussianBlur stdDeviation="4" result="effect1_foregroundBlur_471_29135"/>
</filter>
<filter id="filter1_f_471_29135" x="58.6992" y="1.5957" width="29.1377" height="28.6328" filterUnits="userSpaceOnUse" color-interpolation-filters="sRGB">
<feFlood flood-opacity="0" result="BackgroundImageFix"/>
<feBlend mode="normal" in="SourceGraphic" in2="BackgroundImageFix" result="shape"/>
<feGaussianBlur stdDeviation="4" result="effect1_foregroundBlur_471_29135"/>
</filter>
</defs>
</svg>
