<?xml version="1.0" encoding="UTF-8"?>
<svg width="100px" height="100px" viewBox="0 0 100 100" version="1.1" xmlns="http://www.w3.org/2000/svg" xmlns:xlink="http://www.w3.org/1999/xlink">
    <g id="Illustrations/Light/100px/add_draft" stroke="none" stroke-width="1" fill="none" fill-rule="evenodd">
        <g id="sketch" transform="translate(12.000000, 15.000000)">
            <polygon id="Rectangle" fill="#8DA4FA" transform="translate(3.500000, 30.910242) rotate(180.000000) translate(-3.500000, -30.910242) " points="2 3.34711466 5 6.8204833 5 55.8204833 2 58.4733686"></polygon>
            <path d="M75.0482305,10.2579941 L25.0702676,10.2579941 C24.4393789,4.54886523 19.0728398,0.0751953125 12.5664902,0.0751953125 C5.63724219,0.0751953125 0,5.14907422 0,11.3859238 L0,50.162041 C0,57.9533281 7.05813281,64.2919922 15.7338672,64.2919922 L30.8714355,64.2919922 C31.4949551,64.2919922 32.0005684,63.7871309 32.0005684,63.1640625 C32.0005684,62.5409941 31.4951055,62.0361328 30.8714355,62.0361328 L15.7338672,62.0361328 C8.30336719,62.0361328 2.25811523,56.7094473 2.25811523,50.162041 C2.25811523,45.1692227 6.88247656,41.1071719 12.5664902,41.1071719 C18.2506543,41.1071719 22.8748652,45.1692227 22.8748652,50.162041 C22.8748652,50.1806895 22.8768203,50.1988867 22.8777227,50.2173848 C22.8768203,50.2358828 22.8748652,50.2540801 22.8748652,50.2727285 C22.8748652,53.8096152 19.5796562,56.6870391 15.5291855,56.6870391 C11.4811211,56.6870391 8.18786719,53.8094648 8.18786719,50.2727285 C8.18786719,48.327877 10.0259414,46.7457676 12.2852598,46.7457676 C14.546834,46.7457676 16.3867129,48.3280273 16.3867129,50.2727285 C16.3867129,50.8957969 16.8921758,51.4006582 17.5158457,51.4006582 C18.1393652,51.4006582 18.6449785,50.8957969 18.6449785,50.2727285 C18.6449785,47.0841465 15.7920684,44.4899082 12.2854102,44.4899082 C8.78100781,44.4899082 5.92990234,47.0841465 5.92990234,50.2727285 C5.92990234,55.0534961 10.2361875,58.9428984 15.5294863,58.9428984 C20.825041,58.9428984 25.1332812,55.0534961 25.1332812,50.2727285 C25.1332812,50.2540801 25.1313262,50.2358828 25.1304238,50.2173848 C25.1313262,50.1988867 25.1332812,50.1806895 25.1332812,50.162041 L25.1332812,12.5138535 L74.7421855,12.5138535 L74.7421855,62.0361328 L36.0808164,62.0361328 C35.4572969,62.0361328 34.9516836,62.5409941 34.9516836,63.1640625 C34.9516836,63.7871309 35.4571465,64.2919922 36.0808164,64.2919922 L75.0483809,64.2919922 C76.1245762,64.2919922 77.0001504,63.4573242 77.0001504,62.4315098 L77.0001504,12.1183262 C77.0001504,11.0925117 76.1244258,10.2579941 75.0482305,10.2579941 Z M12.5664902,38.8513125 C8.30306641,38.8513125 4.53126953,40.7739062 2.25811523,43.7045684 L2.25811523,11.3859238 C2.25811523,6.39310547 6.88247656,2.33105469 12.5664902,2.33105469 C18.2506543,2.33105469 22.8748652,6.39310547 22.8748652,11.3859238 L22.8748652,43.7045684 C20.6017109,40.7739062 16.8299141,38.8513125 12.5664902,38.8513125 Z" id="Shape" fill="#000000" fill-rule="nonzero"></path>
            <line x1="26.9527327" y1="63.1380929" x2="39.8317749" y2="63.1380929" id="Path-17" stroke="#000000" stroke-width="2.25"></line>
        </g>
        <circle id="Oval" fill="#879DEF" cx="83.2113821" cy="28.2113821" r="14.2113821"></circle>
        <circle id="Oval" stroke="#000000" stroke-width="1.5" cx="82.2113821" cy="26.2113821" r="14.2113821"></circle>
        <line x1="77" y1="50.5" x2="43" y2="50.5" id="Line-3-Copy-3" stroke="#000000" stroke-width="1.7" stroke-linecap="round" stroke-dasharray="3"></line>
        <line x1="77" y1="59.5" x2="43" y2="59.5" id="Line-3-Copy-4" stroke="#000000" stroke-width="1.7" stroke-linecap="round" stroke-dasharray="3"></line>
        <g id="eraser" transform="translate(73.000000, 18.000000)" fill="#000000" fill-rule="nonzero">
            <path d="M9.58238734,15.7857143 L17.2118457,7.04285714 C17.9271074,6.19285714 17.9271074,4.85714286 17.0926354,4.00714286 L13.8739577,0.728571429 C13.5163268,0.242857143 12.9202754,0 12.3242239,0 L10.1784388,0 C9.58238734,0 8.98633591,0.242857143 8.50949476,0.728571429 L0.522405544,9.95714286 C-0.192856177,10.8071429 -0.192856177,12.2642857 0.641615831,12.9928571 L3.86029357,16.2714286 C4.21792444,16.7571429 4.81397587,17 5.4100273,17 L7.92508114,17 L9.5,15.7857143 L9.58238734,15.7857143 Z M8.03265361,15.6642857 C8.03265361,15.6642857 8.03265361,15.5428571 8.03265361,15.6642857 L4.81397587,12.3857143 C4.33713472,11.9 4.33713472,11.2928571 4.81397587,10.8071429 L8.86712562,6.07142857 L7.67502275,6.07142857 L4.09871415,10.0785714 C3.38345243,10.9285714 3.38345243,12.1428571 4.21792444,12.9928571 L6.95976103,15.7857143 L5.4100273,15.7857143 C5.17160673,15.7857143 4.93318616,15.6642857 4.69476558,15.5428571 L1.35687755,12.1428571 C0.999246691,11.7785714 0.999246691,11.1714286 1.35687755,10.8071429 L5.52923759,6.07142857 L7.67502275,6.07142857 L11.8473828,1.21428571 L13.0394857,1.21428571 L8.86712562,6.07142857 L12.5626445,10.5642857 L8.39028447,15.4214286 C8.27107419,15.5428571 8.1518639,15.5428571 8.03265361,15.6642857 L8.03265361,15.6642857 Z" id="Shape"></path>
        </g>
    </g>
</svg>
