<?xml version="1.0" encoding="UTF-8"?>
<svg width="100px" height="100px" viewBox="0 0 100 100" version="1.1" xmlns="http://www.w3.org/2000/svg" xmlns:xlink="http://www.w3.org/1999/xlink">
    <g id="Illustrations/Light/100px/add_title" stroke="none" stroke-width="1" fill="none" fill-rule="evenodd">
        <g id="Group-3" transform="translate(4.000000, 12.000000)">
            <g id="Group" transform="translate(2.555556, 65.166667)" fill="#8DA4FA">
                <polygon id="Rectangle" transform="translate(43.444444, 1.277778) rotate(90.000000) translate(-43.444444, -1.277778) " points="42.1666667 -42.1666667 44.7222222 -42.1666667 44.7222222 44.7222222 42.1666667 44.7222222"></polygon>
            </g>
            <g id="Group-2" transform="translate(0.000000, 12.777778)" fill="#000000">
                <path d="M85.8666667,3.12345679 C85.8666667,1.35349794 84.5377778,0 82.8,0 L9.2,0 C7.46222222,0 6.13333333,1.35349794 6.13333333,3.12345679 L6.13333333,48.9341564 L0,48.9341564 L0,49.9753086 C0,53.4111111 2.76,56.2222222 6.13333333,56.2222222 L85.8666667,56.2222222 C87.5022222,56.2222222 89.0355556,55.5975309 90.2622222,54.3481481 C91.3866667,53.2028807 92,51.6411523 92,49.9753086 L92,48.9341564 L85.8666667,48.9341564 L85.8666667,3.12345679 Z M8.17777778,3.12345679 C8.17777778,2.49876543 8.58666667,2.08230453 9.2,2.08230453 L82.8,2.08230453 C83.4133333,2.08230453 83.8222222,2.49876543 83.8222222,3.12345679 L83.8222222,48.9341564 L54.1777778,48.9341564 L37.8222222,48.9341564 L8.17777778,48.9341564 L8.17777778,3.12345679 Z M89.8533333,51.0164609 C89.6488889,51.7452675 89.3422222,52.3699588 88.8311111,52.890535 C88.0133333,53.7234568 86.9911111,54.1399177 85.8666667,54.1399177 L6.13333333,54.1399177 C4.19111111,54.1399177 2.65777778,52.7864198 2.14666667,51.0164609 L6.13333333,51.0164609 L6.13333333,51.0164609 L37.8222222,51.0164609 C37.8222222,52.1617284 38.7422222,53.0987654 39.8666667,53.0987654 L52.1333333,53.0987654 C53.2577778,53.0987654 54.1777778,52.1617284 54.1777778,51.0164609 L85.8666667,51.0164609 L89.8533333,51.0164609 Z" id="Shape" fill-rule="nonzero"></path>
                <polygon id="Triangle" transform="translate(46.638889, 26.194444) rotate(90.000000) translate(-46.638889, -26.194444) " points="46.6388889 20.4444444 53.6666667 31.9444444 39.6111111 31.9444444"></polygon>
            </g>
            <g id="Group-2" transform="translate(61.333333, 0.000000)">
                <circle id="Oval" fill="#879DEF" cx="16.4552846" cy="15.9878049" r="14.2113821"></circle>
                <circle id="Oval" stroke="#000000" stroke-width="1.5" cx="14.6788618" cy="14.2113821" r="14.2113821"></circle>
                <g transform="translate(6.666667, 6.000000)" fill="#000000" id="Rectangle">
                    <path d="M8.58333333,0.346064815 C9.13561808,0.346064815 9.58333333,0.793780065 9.58333333,1.34606481 L9.58333333,15.2650463 C9.58333333,15.817331 9.13561808,16.2650463 8.58333333,16.2650463 C8.03104858,16.2650463 7.58333333,15.817331 7.58333333,15.2650463 L7.58333333,1.34606481 C7.58333333,0.793780065 8.03104858,0.346064815 8.58333333,0.346064815 Z" transform="translate(8.583333, 8.305556) rotate(90.000000) translate(-8.583333, -8.305556) "></path>
                    <rect x="7.61342593" y="0" width="2" height="16.6111111" rx="1"></rect>
                </g>
            </g>
        </g>
    </g>
</svg>
