<?xml version="1.0" encoding="UTF-8"?>
<svg width="100px" height="100px" viewBox="0 0 100 100" version="1.1" xmlns="http://www.w3.org/2000/svg" xmlns:xlink="http://www.w3.org/1999/xlink">
    <g id="Illustrations/Light/100px/add_organization" stroke="none" stroke-width="1" fill="none" fill-rule="evenodd">
        <g id="Group-4-Copy" transform="translate(14.000000, 12.000000)">
            <g id="Group-3" transform="translate(0.000000, 7.931034)" fill-rule="nonzero">
                <path d="M1.1460034,56.6548837 C1.1460034,54.7740025 2.67603309,53.2439729 4.55691428,53.2439729 C6.43779548,53.2439729 7.96782517,54.7740025 7.96782517,56.6548837 C7.96782517,58.5357649 6.43779548,60.0657946 4.55691428,60.0657946 C2.67603309,60.0657946 1.1460034,58.535765 1.1460034,56.6548837 Z" id="Path" fill="#879DEF"></path>
                <path d="M62.7027573,47.4868566 C62.7027573,45.6059753 64.232787,44.0759457 66.1136682,44.0759457 C67.9945494,44.0759457 69.5245791,45.6059754 69.5245791,47.4868566 C69.5245791,49.3677378 67.9945494,50.8977675 66.1136682,50.8977675 C64.232787,50.8977675 62.7027573,49.3677378 62.7027573,47.4868566 Z" id="Path" fill="#879DEF"></path>
                <g id="Group" transform="translate(-0.000000, 0.000000)" fill="#000000">
                    <path d="M72.0344992,46.8466663 C72.0344992,43.9730245 69.6963677,41.6348929 66.8227259,41.6348929 C63.949084,41.6348929 61.6109525,43.9730245 61.6109525,46.8466663 C61.6109525,48.8187777 62.71242,50.5383025 64.3322509,51.4233455 C62.71242,52.3083886 61.6109525,54.0279132 61.6109525,56.0000247 C61.6109525,58.5660669 63.4771051,60.6999746 65.9222946,61.1284818 L65.9222946,66.2336368 L57.784999,66.2336368 L14.2495002,66.2336368 L6.11220461,66.2336368 L6.11220461,61.1284818 C8.55744918,60.6999746 10.4235467,58.5660669 10.4235467,56.0000247 C10.4235467,53.1263829 8.08541521,50.7882514 5.21177337,50.7882514 C2.33813152,50.7882514 0,53.1263828 0,56.0000247 C0,58.5660669 1.86609755,60.6999745 4.31134213,61.1284818 L4.31134213,66.2336368 L0.900431241,66.2336368 C0.402731919,66.2336368 0,66.6368084 0,67.134068 C0,67.6313276 0.402731919,68.0344992 0.900431241,68.0344992 L71.134068,68.0344992 C71.6317673,68.0344992 72.0344992,67.6313276 72.0344992,67.134068 C72.0344992,66.6368084 71.6317673,66.2336368 71.134068,66.2336368 L67.7231571,66.2336368 L67.7231571,61.1284818 C70.1683467,60.6999746 72.0344992,58.5660669 72.0344992,56.0000247 C72.0344992,54.0279132 70.9330318,52.3083885 69.3132008,51.4233454 C70.9330318,50.5383025 72.0344992,48.8187777 72.0344992,46.8466663 Z M1.80086248,56.0000247 C1.80086248,54.1191434 3.33089217,52.5891138 5.21177337,52.5891138 C7.09265456,52.5891138 8.62268425,54.1191435 8.62268425,56.0000247 C8.62268425,57.8809059 7.09265456,59.4109355 5.21177337,59.4109355 C3.33089217,59.4109355 1.80086248,57.8809059 1.80086248,56.0000247 Z M66.8227259,59.4109356 C64.9418446,59.4109356 63.411815,57.8809059 63.411815,56.0000247 C63.411815,54.1191436 64.9418447,52.5891139 66.8227259,52.5891139 C68.7036071,52.5891139 70.2336368,54.1191434 70.2336368,56.0000247 C70.2336368,57.8809059 68.7036071,59.4109356 66.8227259,59.4109356 Z M66.8227259,50.2575772 C64.9418446,50.2575772 63.411815,48.7275475 63.411815,46.8466663 C63.411815,44.9657851 64.9418447,43.4357554 66.8227259,43.4357554 C68.7036071,43.4357554 70.2336368,44.965785 70.2336368,46.8466663 C70.2336368,48.7275476 68.7036071,50.2575772 66.8227259,50.2575772 Z" id="Shape"></path>
                    <path d="M22.8370115,9.5293311 L18.6074468,9.5293311 C18.3322173,8.17164962 17.4467346,7.0003855 16.1989691,6.36111453 C16.0028791,3.34282326 13.4844855,0.946656156 10.4173916,0.946656156 C7.24565773,0.946656156 4.66131454,3.50857645 4.62350345,6.67151713 C4.61295148,6.67151713 4.60152023,6.67151713 4.59008899,6.67151713 C2.05938475,6.67151713 0,8.7304622 0,11.2616061 C0,11.7588658 0.402731919,12.1620374 0.900431241,12.1620374 C1.39813056,12.1620374 1.80086248,11.7588658 1.80086248,11.2616061 C1.80086248,9.72366253 3.05214531,8.4723797 4.5900889,8.4723797 C4.82398996,8.4723797 5.07196026,8.51326846 5.37181097,8.60164083 C5.67342023,8.69045289 6.00316806,8.61527039 6.23531049,8.40027487 C6.46833228,8.18659831 6.57121357,7.86652319 6.507902,7.55699995 C6.45250441,7.28616716 6.42436593,7.01137733 6.42436593,6.74054445 C6.42436593,4.53870869 8.2155558,2.74751882 10.4173916,2.74751882 C12.6192273,2.74751882 14.4104172,4.53870869 14.4060206,6.81352864 C14.4060206,6.82056326 14.4007446,6.90365973 14.3998653,6.91069435 C14.3805201,7.31078828 14.6276111,7.6757092 15.0066012,7.80628929 C16.1365369,8.19451229 16.8962757,9.24882588 16.8962757,10.4297625 C16.8962757,10.9270222 17.2990076,11.3301938 17.796707,11.3301938 L22.8370115,11.3301938 L22.8370115,9.5293311 Z" id="Shape"></path>
                </g>
            </g>
            <g id="Group-2" transform="translate(45.103448, 0.000000)">
                <circle id="Oval" fill="#879DEF" cx="16.8746846" cy="16.3952902" r="14.5735913"></circle>
                <circle id="Oval" stroke="#000000" stroke-width="1.5" cx="15.0529857" cy="14.5735913" r="14.5735913"></circle>
                <g transform="translate(6.896552, 7.000000)" fill="#000000" id="Rectangle">
                    <path d="M8.58333333,0.346064815 C9.13561808,0.346064815 9.58333333,0.793780065 9.58333333,1.34606481 L9.58333333,15.2650463 C9.58333333,15.817331 9.13561808,16.2650463 8.58333333,16.2650463 C8.03104858,16.2650463 7.58333333,15.817331 7.58333333,15.2650463 L7.58333333,1.34606481 C7.58333333,0.793780065 8.03104858,0.346064815 8.58333333,0.346064815 Z" transform="translate(8.583333, 8.305556) rotate(90.000000) translate(-8.583333, -8.305556) "></path>
                    <rect x="7.61342593" y="0" width="2" height="16.6111111" rx="1"></rect>
                </g>
            </g>
        </g>
        <g id="Group-4" transform="translate(30.000000, 47.000000)" fill-rule="nonzero">
            <path d="M14.498334,14.7940269 L8.59730964,14.7940269 C8.32432432,14.7940269 8.10366531,15.0146859 8.10366531,15.2876712 L8.10366531,25.0178946 C8.10366531,25.2908799 8.32432432,25.5115389 8.59730964,25.5115389 L20.1841293,25.5115389 C20.4571146,25.5115389 20.6777737,25.2908799 20.6777737,25.0178946 L20.6777737,20.9734666 C20.6777737,17.5663335 17.9054671,14.7940269 14.498334,14.7940269 Z M19.690485,24.5242503 L9.09095397,24.5242503 L9.09095397,15.7813156 L14.498334,15.7813156 C17.3614711,15.7813156 19.690485,18.1103295 19.690485,20.9734666 L19.690485,24.5242503 Z" id="Shape" stroke="#000000" stroke-width="0.5" fill="#000000"></path>
            <polygon id="Path" fill="#879DEF" points="27 31 4 31 4 29 27 29"></polygon>
            <path d="M37.6250771,20.9487844 L38.3285203,20.9487844 C38.6015056,20.9487844 38.8221646,20.7281254 38.8221646,20.4551401 C38.8221646,20.1821548 38.6015056,19.9614957 38.3285203,19.9614957 L37.6122424,19.9614957 L37.6122424,5.26372948 L38.7125756,4.17129458 C38.7194866,4.16438356 38.7214612,4.15549796 38.7278786,4.14858694 C39.2052326,3.71121807 39.5103048,3.08873257 39.5103048,2.39170678 C39.5103048,1.07268913 38.4371221,-2.7253694e-14 37.1185981,-2.7253694e-14 C36.582994,-2.7253694e-14 36.0928051,0.18363569 35.6939405,0.48229051 C35.6865359,0.486733309 35.6776503,0.487226953 35.6702456,0.492163396 L18.2065902,12.176231 C17.0815747,11.7141799 15.852894,11.4550167 14.5630014,11.4550167 L5.08503024,11.4550167 C4.81204492,11.4550167 4.59138591,11.6756757 4.59138591,11.948661 L4.59138591,27.3291374 L3.95162286,27.3291374 C3.67863754,27.3291374 3.45797853,27.5497964 3.45797853,27.8227817 L3.45797853,30.9692706 C3.45797853,30.9781562 3.46242133,30.9855609 3.46291497,30.9939529 C1.49228681,31.3804764 -1.284817e-13,33.1190917 -1.284817e-13,35.2012835 C-1.284817e-13,37.5663335 1.9242256,39.4905591 4.28927558,39.4905591 L28.1406886,39.4905591 C30.5057386,39.4905591 32.4299642,37.5663335 32.4299642,35.2012835 C32.4299642,32.993706 30.7530544,31.1721585 28.6066889,30.9386647 L28.6066889,27.8227817 C28.6066889,27.5497964 28.3860299,27.3291374 28.1130446,27.3291374 L24.1900531,27.3291374 L24.1900531,21.082562 C24.1900531,20.3174133 24.0908306,19.5764532 23.9215106,18.8621498 L36.6254474,6.24460077 L36.6254474,19.9614957 L35.9091694,19.9614957 C35.6361841,19.9614957 35.4155251,20.1821548 35.4155251,20.4551401 C35.4155251,20.7281254 35.6361841,20.9487844 35.9091694,20.9487844 L36.6397631,20.9487844 C36.7212144,22.070838 37.2982846,22.6637048 37.7746514,23.1405652 C38.1814143,23.5483154 38.5032704,23.8706652 38.5437492,24.4837714 C38.5664569,24.8194496 38.4445267,25.1477231 38.2011601,25.4078736 C37.9227447,25.7060348 37.5273356,25.8763421 37.1176108,25.8763421 C36.331729,25.8763421 35.6919659,25.236579 35.6919659,24.4506973 C35.6919659,24.177712 35.4713069,23.9570529 35.1983216,23.9570529 C34.9253363,23.9570529 34.7046773,24.177712 34.7046773,24.4506973 C34.7046773,25.7810687 35.7867456,26.8636308 37.1176108,26.8636308 C37.7998272,26.8636308 38.4573615,26.578798 38.9218808,26.0821918 C39.3543132,25.6201407 39.5695421,25.0292484 39.5290633,24.4181167 C39.4639023,23.4357645 38.938171,22.9080587 38.4736517,22.4430458 C38.0422066,22.011107 37.6941873,21.657164 37.6250771,20.9487844 Z M33.1304455,8.32284339 L32.4393435,4.4087375 L36.2162162,5.2582994 L33.1304455,8.32284339 Z M28.8446254,12.5795384 L27.8173516,8.09823522 L31.9160805,9.52881649 L28.8446254,12.5795384 Z M23.704307,17.6848081 L22.2144885,11.5601629 L27.6983833,13.7178823 L23.704307,17.6848081 Z M26.7081328,7.67616932 L27.8647415,12.7231889 L22.3862767,10.5679378 L26.7081328,7.67616932 Z M31.4530421,4.50104899 L32.1722819,8.57213378 L27.7013452,7.01172405 L31.4530421,4.50104899 Z M32.9359496,3.50882389 L34.7362705,2.30433173 C34.7352832,2.33395039 34.7273849,2.36159447 34.7273849,2.39170678 C34.7273849,3.04430458 34.9914846,3.63519684 35.4165124,4.06713563 L32.9359496,3.50882389 Z M38.5230162,2.39121313 C38.5230162,3.16524744 37.893126,3.7951376 37.1185981,3.7951376 C36.3440701,3.7951376 35.7146736,3.16574108 35.7146736,2.39121313 C35.7146736,1.61668518 36.3440701,0.986795014 37.1185981,0.986795014 C37.893126,0.986795014 38.5230162,1.61717882 38.5230162,2.39121313 Z M21.1566087,11.3903493 L22.0436875,15.035419 C21.2701469,14.0802172 20.3184006,13.2765642 19.2383068,12.6738245 L21.1566087,11.3903493 Z M24.2088116,33.4942614 C23.9378008,32.8732568 23.5256078,32.3272862 23.0102431,31.9002838 L25.4068863,31.9002838 C24.8920153,32.3272862 24.4798223,32.8732568 24.2088116,33.4942614 Z M23.5784277,35.2017771 C23.5784277,37.0223374 22.0970011,38.503764 20.2764408,38.503764 C18.4558805,38.503764 16.9749476,37.0223374 16.9749476,35.2017771 C16.9749476,33.3812168 18.4558805,31.9002838 20.2764408,31.9002838 C22.0970011,31.9002838 23.5784277,33.3812168 23.5784277,35.2017771 Z M16.2794027,33.6566704 C16.0123411,32.9685302 15.5759595,32.3638159 15.0166605,31.9002838 L17.5416512,31.9002838 C16.9828459,32.3638159 16.5464643,32.9685302 16.2794027,33.6566704 Z M15.5848451,35.2017771 C15.5848451,37.0223374 14.1034185,38.503764 12.2828582,38.503764 C10.4622979,38.503764 8.98136493,37.0223374 8.98136493,35.2017771 C8.98136493,33.3812168 10.4622979,31.9002838 12.2828582,31.9002838 C14.1034185,31.9002838 15.5848451,33.3812168 15.5848451,35.2017771 Z M8.28631371,33.657164 C8.01925213,32.9685302 7.58287054,32.3638159 7.02357152,31.9002838 L9.54856226,31.9002838 C8.98926324,32.3643095 8.55337529,32.9685302 8.28631371,33.657164 Z M0.987288659,35.2017771 C0.987288659,33.3812168 2.46871529,31.9002838 4.28927558,31.9002838 C6.10983586,31.9002838 7.59076885,33.3812168 7.59076885,35.2017771 C7.59076885,37.0223374 6.10983586,38.503764 4.28927558,38.503764 C2.46871529,38.503764 0.987288659,37.0228311 0.987288659,35.2017771 Z M7.02307787,38.5042577 C7.5823769,38.040232 8.01875848,37.4355177 8.28582007,36.7468839 C8.55288165,37.4355177 8.98926324,38.040232 9.54856226,38.5042577 L7.02307787,38.5042577 Z M15.0166605,38.5042577 C15.5759595,38.040232 16.0123411,37.4360114 16.2794027,36.7473775 C16.5464643,37.4360114 16.9828459,38.040232 17.5421449,38.5042577 L15.0166605,38.5042577 Z M23.0102431,38.5042577 C23.5256078,38.0767617 23.9378008,37.5312847 24.2088116,36.9097865 C24.4798223,37.5312847 24.8920153,38.0772553 25.40738,38.5042577 L23.0102431,38.5042577 Z M31.4431692,35.2017771 C31.4431692,37.0223374 29.9617426,38.503764 28.1411823,38.503764 C26.320622,38.503764 24.839689,37.0223374 24.839689,35.2017771 C24.839689,33.3812168 26.320622,31.9002838 28.1411823,31.9002838 C29.9617426,31.9002838 31.4431692,33.3812168 31.4431692,35.2017771 Z M27.6198939,30.9129952 L4.44526718,30.9129952 L4.44526718,28.3169197 L27.6198939,28.3169197 L27.6198939,30.9129952 Z M5.57867456,27.329631 L5.57867456,12.442799 L14.563495,12.442799 C19.3271628,12.442799 23.2027644,16.3188942 23.2027644,21.082562 L23.2027644,27.329631 L5.57867456,27.329631 Z" id="Shape" stroke="#000000" stroke-width="0.5" fill="#000000"></path>
        </g>
    </g>
</svg>
