<?xml version="1.0" encoding="UTF-8"?>
<svg width="102px" height="100px" viewBox="0 0 102 100" version="1.1" xmlns="http://www.w3.org/2000/svg" xmlns:xlink="http://www.w3.org/1999/xlink">
    <title>Illustration/Landing/Benefits_simplify_life</title>
    <g id="A-Market" stroke="none" stroke-width="1" fill="none" fill-rule="evenodd">
        <g id="Landing_desktop_1440" transform="translate(-822.000000, -2001.000000)">
            <g id="Group-23" transform="translate(0.000000, 583.000000)">
                <g id="seller_or_buyer" transform="translate(0.000000, 347.000000)">
                    <g id="benefits" transform="translate(169.000000, 987.000000)">
                        <g id="Group-37" transform="translate(32.000000, 84.000000)">
                            <g id="Illustration/Landing/Benefits_simplify_life" transform="translate(622.000000, 0.000000)">
                                <path d="M42.9215849,59.6345314 C64.4421203,59.8018224 102.513933,43.5133141 100.09283,19.7519997 C98.1357702,0.544928698 69.3578056,-1.78646346 41.9743572,1.14076951 C28.7268634,2.5568987 13.6145083,9.04231069 10.2178699,17.8390371 C-0.199845494,44.8191806 21.4010495,59.4672404 42.9215849,59.6345314 Z" id="Oval" fill="#D6DFFF" transform="translate(53.860075, 29.865802) scale(-1, 1) translate(-53.860075, -29.865802) "></path>
                                <polygon id="Path" transform="translate(95.580954, 20.408412) rotate(11.000000) translate(-95.580954, -20.408412) " points="86.6920651 11.519523 104.469843 11.519523 104.469843 29.2973008 86.6920651 29.2973008"></polygon>
                                <polygon id="Path" points="93.3587318 21.519523 111.13651 21.519523 111.13651 39.2973008 93.3587318 39.2973008"></polygon>
                                <path d="M6.76608403,48.7836456 C9.17572806,48.8023771 13.4386107,46.9785607 13.1675209,44.3180177 C12.9483899,42.1674111 9.72613498,41.9063663 6.66002339,42.2341272 C5.17670786,42.3926905 3.48458471,43.1188589 3.10426473,44.1038242 C1.93779813,47.1247779 4.35643999,48.7649141 6.76608403,48.7836456 Z" id="Oval" fill="#D6DFFF" transform="translate(7.990861, 45.450455) scale(-1, -1) rotate(12.000000) translate(-7.990861, -45.450455) "></path>
                                <path d="M85.125309,93.731167 C86.330131,93.7405327 88.4615723,92.8286245 88.3260274,91.498353 C88.2164619,90.4230497 86.6053344,90.2925273 85.0722786,90.4564077 C84.3306209,90.5356894 83.4845593,90.8987736 83.2943993,91.3912562 C82.711166,92.9017331 83.920487,93.7218012 85.125309,93.731167 Z" id="Oval" fill="#D6DFFF" transform="translate(85.737698, 92.064572) scale(1, -1) rotate(12.000000) translate(-85.737698, -92.064572) "></path>
                                <path d="M63.2956952,63.9667446 C65.7898262,63.4424644 70.6113974,64.3487049 70.916651,67.03289 C71.1119922,68.7505829 69.0949718,69.6938891 66.6329837,70.17111 L65.842784,70.3066777 L65.842784,70.3066777 L65.0353704,70.4134167 C64.9000541,70.428924 64.7645359,70.44332 64.6290735,70.4566497 C63.0562658,70.6114156 61.1418864,70.2495006 60.5305201,69.3566773 C58.6554188,66.6183291 60.8015642,64.4910247 63.2956952,63.9667446 Z" id="Oval" fill="#D6DFFF"></path>
                                <g id="man-leaning" transform="translate(31.136510, 56.519523) scale(-1, 1) translate(-31.136510, -56.519523) translate(0.025398, 13.741745)">
                                    <path d="M35.7329515,25.9537241 C39.2314731,25.9537241 57.481172,26.5490409 60.7791854,33.017454 C64.0771988,39.485867 60.9693225,69.3840002 58.9192994,70.5433013 C57.8130476,71.1664692 57.5122853,70.5607083 57.1907809,71.8279324 C56.8692764,73.0951564 53.7337438,85.5555556 53.7337438,85.5555556 C51.7424904,85.610735 22.7102927,81.2067832 13.2864095,76.057815 C13.3417221,74.6269658 13.798051,70.9053654 13.798051,70.6198918 C12.5466036,71.1351368 11.0324213,71.2430597 10.6141198,70.6198918 C6.93928935,65.0113808 12.4221502,35.7712294 16.3528014,29.887689 C18.0294644,27.363685 30.1187232,25.971131 35.7329515,25.9537241 Z" id="Path" stroke="#1F2A3B" fill="#FFFFFF" fill-rule="nonzero"></path>
                                    <path d="M40.251299,29.3654813 C40.251299,30.5004127 31.3632566,30.5004127 31.3632566,29.3654813 L31.3632566,17.8769112 L40.251299,17.8769112 L40.251299,29.3654813 Z" id="Path" fill="#F8CDBA" fill-rule="nonzero"></path>
                                    <path d="M40.2529928,19.6449913 C39.8696587,19.6877347 36.938515,21.1002964 37.020658,21.6906889 L37.020658,18.6698733 C37.6312544,18.6057583 40.2529928,19.6449913 40.2529928,19.6449913 Z" id="Path" fill="#1F161E" fill-rule="nonzero" transform="translate(38.635978, 20.178857) scale(-1, 1) translate(-38.635978, -20.178857) "></path>
                                    <ellipse id="Oval" fill="#F8CDBA" fill-rule="nonzero" cx="43.0390731" cy="14.841693" rx="1.99816745" ry="2.01224045"></ellipse>
                                    <ellipse id="Oval" fill="#F8CDBA" fill-rule="nonzero" cx="33.9352922" cy="12.727943" rx="8.64604983" ry="8.70694353"></ellipse>
                                    <path d="M31.0106388,0 C26.5718031,0 23.8027164,2.80599619 23.8027164,6.40226675 C23.8027164,9.39277634 24.5252372,11.0847294 25.3722113,11.5129397 C25.908052,8.60946475 27.0730735,7.2656502 28.0375869,6.68774031 C28.7843069,7.2656502 30.0703247,8.66516691 31.7850151,9.09685863 C33.4997055,9.52855035 37.9627404,9.44499712 41.5684302,12.0838868 C42.7438228,11.0046575 43.9226724,9.60165943 43.9226724,7.94800163 C43.9226724,6.29434382 43.1966946,4.21943845 38.9237968,3.02184206 C36.1063115,2.23156769 35.7156663,0 31.0106388,0 Z" id="Path" fill="#1F2A3B" fill-rule="nonzero"></path>
                                    <ellipse id="Oval" fill="#FF7165" fill-rule="nonzero" cx="25.8561965" cy="14.5208562" rx="1.51418226" ry="1"></ellipse>
                                    <ellipse id="Oval" fill="#FF7165" fill-rule="nonzero" cx="35.3803337" cy="14.5208562" rx="1.51418226" ry="1"></ellipse>
                                    <path d="M29.5552262,12.881124 C29.2717491,13.288446 27.8267076,14.997806 29.351261,15.6871202" id="Path" stroke="#1F2A3B" stroke-width="0.642415263" stroke-linecap="round"></path>
                                    <path d="M26.693416,19.1049416 C27.1461559,19.1047131 27.8514744,18.5332436 28.2215282,18.0211441" id="Path" stroke="#1F2A3B" stroke-width="0.642415263" stroke-linecap="round" transform="translate(27.457472, 18.563043) rotate(30.000000) translate(-27.457472, -18.563043) "></path>
                                    <path d="M26.6934669,20.5303242 C27.1463387,20.5303242 27.8515743,19.959377 28.2214773,19.4476135" id="Path" stroke="#1F2A3B" stroke-width="0.642415263" stroke-linecap="round"></path>
                                    <path d="M0,17.9859926 C4.74856279,19.4651488 14.2338147,19.8149826 19.9862526,19.2720692" id="Path" stroke="#1F2A3B" stroke-width="0.642415263" stroke-linecap="round"></path>
                                    <path d="M3.81651622,24.5216875 C8.51637451,24.5216875 15.8352378,23.0178171 19.6740534,21.6698357" id="Path" stroke="#1F2A3B" stroke-width="0.642415263" stroke-linecap="round"></path>
                                    <path d="M4.08460088,12.7374835 C7.57727625,14.4341955 14.8813805,15.95881 19.4059687,16.3429286" id="Path" stroke="#1F2A3B" stroke-width="0.642415263" stroke-linecap="round"></path>
                                    <path d="M47.9501207,43.085619 C47.794554,45.0073434 47.1861155,54.5045613 47.4142799,55.7543785 C44.5138258,56.7709429 17.9430385,69.4571093 13.3624643,70.8392191" id="Path" stroke="#1F161E" stroke-linecap="round"></path>
                                    <path d="M17.1029785,40.0881466 C16.4945399,42.2396425 14.4341458,52.004927 15.8826444,56.5411715" id="Path" stroke="#1F161E" stroke-linecap="round"></path>
                                    <path d="M23.8822283,66.4039348 C25.2650431,67.3822039 38.5227805,73.290114 56.8450772,71.0620277" id="Path" stroke="#1F161E" stroke-linecap="round"></path>
                                    <path d="M22.6169527,56.5411715 C23.5054112,56.6839082 20.6084141,54.3548618 18.9663215,55.2217266 C17.3242289,56.0885914 15.1117251,60.0121122 15.564597,60.924235 C15.6881727,61.2582648 15.9554436,61.5178782 16.2913791,61.6301942 C16.6273145,61.7425103 16.9956986,61.6954207 17.2931155,61.5021449 C17.7390733,61.2097085 21.0578289,56.2905117 22.6169527,56.5411715 Z" id="Path" fill="#F8CDBA" fill-rule="nonzero"></path>
                                </g>
                                <g id="music_note_black_24dp" transform="translate(82.247621, 15.963967)" fill="#FF7165" fill-rule="nonzero">
                                    <path d="M8.88888889,2.22222222 L8.8962963,10.037037 C8.45925926,9.78518519 7.95555556,9.62962963 7.41481481,9.62962963 C5.77037037,9.62962963 4.44444444,10.9555556 4.44444444,12.5925926 C4.44444444,14.2296296 5.77037037,15.5555556 7.41481481,15.5555556 C9.05925926,15.5555556 10.3703704,14.2296296 10.3703704,12.5925926 L10.3703704,5.18518519 L13.3333333,5.18518519 L13.3333333,2.22222222 L8.88888889,2.22222222 Z M7.41481481,14.0740741 C6.6,14.0740741 5.93333333,13.4074074 5.93333333,12.5925926 C5.93333333,11.7777778 6.6,11.1111111 7.41481481,11.1111111 C8.22962963,11.1111111 8.8962963,11.7777778 8.8962963,12.5925926 C8.8962963,13.4074074 8.22962963,14.0740741 7.41481481,14.0740741 Z" id="Shape"></path>
                                </g>
                                <g id="music_note_black_24dp" transform="translate(75.580954, 10.408412) rotate(11.000000) translate(-75.580954, -10.408412) translate(66.692065, 1.519523)" fill="#FF7165" fill-rule="nonzero">
                                    <path d="M8.88888889,2.22222222 L8.8962963,10.037037 C8.45925926,9.78518519 7.95555556,9.62962963 7.41481481,9.62962963 C5.77037037,9.62962963 4.44444444,10.9555556 4.44444444,12.5925926 C4.44444444,14.2296296 5.77037037,15.5555556 7.41481481,15.5555556 C9.05925926,15.5555556 10.3703704,14.2296296 10.3703704,12.5925926 L10.3703704,5.18518519 L13.3333333,5.18518519 L13.3333333,2.22222222 L8.88888889,2.22222222 Z M7.41481481,14.0740741 C6.6,14.0740741 5.93333333,13.4074074 5.93333333,12.5925926 C5.93333333,11.7777778 6.6,11.1111111 7.41481481,11.1111111 C8.22962963,11.1111111 8.8962963,11.7777778 8.8962963,12.5925926 C8.8962963,13.4074074 8.22962963,14.0740741 7.41481481,14.0740741 Z" id="Shape"></path>
                                </g>
                                <line x1="48.8851563" y1="89.8948997" x2="51.6666667" y2="99.4444444" id="Path-4" stroke="#1F2A3B" stroke-linecap="round"></line>
                            </g>
                        </g>
                    </g>
                </g>
            </g>
        </g>
    </g>
</svg>