<?xml version="1.0" encoding="UTF-8"?>
<svg width="102px" height="87px" viewBox="0 0 102 87" version="1.1" xmlns="http://www.w3.org/2000/svg" xmlns:xlink="http://www.w3.org/1999/xlink">
    <title>Illustration/Landing/Benefits_network</title>
    <g id="A-Market" stroke="none" stroke-width="1" fill="none" fill-rule="evenodd">
        <g id="Landing_desktop_1440" transform="translate(-200.000000, -2183.000000)">
            <g id="Group-23" transform="translate(0.000000, 583.000000)">
                <g id="seller_or_buyer" transform="translate(0.000000, 347.000000)">
                    <g id="benefits" transform="translate(169.000000, 987.000000)">
                        <g id="Group-37" transform="translate(32.000000, 84.000000)">
                            <g id="Illustration/Landing/Benefits_network" transform="translate(0.000000, 181.943396)">
                                <path d="M32.7018736,55.6655233 C52.7822405,55.8216191 88.3062626,40.6231485 86.0471809,18.451957 C84.2210891,0.530235835 57.3689649,-1.64513802 31.818035,1.08620259 C19.4570722,2.40756348 5.35604592,8.45896741 2.18671278,16.6670111 C-7.5338422,41.8416256 12.6215067,55.5094275 32.7018736,55.6655233 Z" id="Oval" fill="#D6DFFF" transform="translate(42.908352, 27.888937) scale(1, -1) translate(-42.908352, -27.888937) "></path>
                                <g id="network" transform="translate(56.666667, 3.333333)" fill="#FF6E61" fill-rule="nonzero" stroke="#FF6E61" stroke-width="0.5">
                                    <path d="M17.8181818,0 C16.6149091,0 15.6363636,0.978545455 15.6363636,2.18181818 C15.6363636,2.55818182 15.732,2.91236364 15.9003636,3.22181818 L12.3261818,6.796 C11.8334545,6.41236364 11.2167273,6.18181818 10.5454545,6.18181818 C9.87418182,6.18181818 9.25745455,6.41236364 8.76436364,6.79563636 L5.97563636,4.00690909 C6.10363636,3.79054545 6.18181818,3.54181818 6.18181818,3.27272727 C6.18181818,2.47054545 5.52945455,1.81818182 4.72727273,1.81818182 C3.92509091,1.81818182 3.27272727,2.47054545 3.27272727,3.27272727 C3.27272727,4.07490909 3.92509091,4.72727273 4.72727273,4.72727273 C4.99636364,4.72727273 5.24509091,4.64909091 5.46145455,4.52109091 L8.25018182,7.30981818 C7.86690909,7.80290909 7.63636364,8.41963636 7.63636364,9.09090909 C7.63636364,9.76218182 7.86690909,10.3789091 8.25018182,10.8716364 L3.64509091,15.4770909 C3.25745455,15.1254545 2.74509091,14.9090909 2.18181818,14.9090909 C0.978545455,14.9090909 0,15.8876364 0,17.0909091 C0,18.2941818 0.978545455,19.2727273 2.18181818,19.2727273 C3.38509091,19.2727273 4.36363636,18.2941818 4.36363636,17.0909091 C4.36363636,16.7145455 4.268,16.3603636 4.09963636,16.0509091 L8.76472727,11.3858182 C9.16690909,11.6985455 9.652,11.908 10.1821818,11.9745455 L10.1821818,15.6690909 C9.152,15.8429091 8.364,16.7389091 8.364,17.8181818 C8.364,19.0214545 9.34254545,20 10.5458182,20 C11.7490909,20 12.7276364,19.0214545 12.7276364,17.8181818 C12.7276364,16.7392727 11.9396364,15.8432727 10.9094545,15.6690909 L10.9094545,11.9745455 C11.4396364,11.908 11.9247273,11.6985455 12.3269091,11.3858182 L15.1156364,14.1745455 C14.9872727,14.3912727 14.9090909,14.64 14.9090909,14.9090909 C14.9090909,15.7112727 15.5614545,16.3636364 16.3636364,16.3636364 C17.1658182,16.3636364 17.8181818,15.7112727 17.8181818,14.9090909 C17.8181818,14.1069091 17.1658182,13.4545455 16.3636364,13.4545455 C16.0945455,13.4545455 15.8458182,13.5327273 15.6294545,13.6607273 L12.8407273,10.872 C13.224,10.3789091 13.4545455,9.76218182 13.4545455,9.09090909 C13.4545455,8.41963636 13.224,7.80290909 12.8407273,7.31018182 L16.3552727,3.79563636 C16.7425455,4.14727273 17.2549091,4.36363636 17.8181818,4.36363636 C19.0214545,4.36363636 20,3.38509091 20,2.18181818 C20,0.978545455 19.0214545,0 17.8181818,0 Z M4,3.27272727 C4,2.87163636 4.32618182,2.54545455 4.72727273,2.54545455 C5.12836364,2.54545455 5.45454545,2.87163636 5.45454545,3.27272727 C5.45454545,3.67381818 5.12836364,4 4.72727273,4 C4.32618182,4 4,3.67381818 4,3.27272727 Z M2.18181818,18.5454545 C1.37963636,18.5454545 0.727272727,17.8930909 0.727272727,17.0909091 C0.727272727,16.2887273 1.37963636,15.6363636 2.18181818,15.6363636 C2.984,15.6363636 3.63636364,16.2887273 3.63636364,17.0909091 C3.63636364,17.8930909 2.984,18.5454545 2.18181818,18.5454545 Z M12,17.8181818 C12,18.6203636 11.3476364,19.2727273 10.5454545,19.2727273 C9.74327273,19.2727273 9.09090909,18.6203636 9.09090909,17.8181818 C9.09090909,17.016 9.74327273,16.3636364 10.5454545,16.3636364 C11.3476364,16.3636364 12,17.016 12,17.8181818 Z M10.5454545,11.2727273 C9.34218182,11.2727273 8.36363636,10.2941818 8.36363636,9.09090909 C8.36363636,7.88763636 9.34218182,6.90909091 10.5454545,6.90909091 C11.7487273,6.90909091 12.7272727,7.88763636 12.7272727,9.09090909 C12.7272727,10.2941818 11.7487273,11.2727273 10.5454545,11.2727273 Z M17.0909091,14.9090909 C17.0909091,15.3101818 16.7647273,15.6363636 16.3636364,15.6363636 C15.9625455,15.6363636 15.6363636,15.3101818 15.6363636,14.9090909 C15.6363636,14.508 15.9625455,14.1818182 16.3636364,14.1818182 C16.7647273,14.1818182 17.0909091,14.508 17.0909091,14.9090909 Z M17.8181818,3.63636364 C17.016,3.63636364 16.3636364,2.984 16.3636364,2.18181818 C16.3636364,1.37963636 17.016,0.727272727 17.8181818,0.727272727 C18.6203636,0.727272727 19.2727273,1.37963636 19.2727273,2.18181818 C19.2727273,2.984 18.6203636,3.63636364 17.8181818,3.63636364 Z" id="Shape"></path>
                                </g>
                                <path d="M65.6549729,86.9698353 C68.0646169,86.9885668 72.3274996,85.1647503 72.0564098,82.5042073 C71.8372788,80.3536008 68.6150239,80.0925559 65.5489123,80.4203168 C64.0655967,80.5788801 62.3734736,81.3050486 61.9931536,82.2900138 C60.826687,85.3109676 63.2453289,86.9511038 65.6549729,86.9698353 Z" id="Oval" fill="#D6DFFF" transform="translate(66.879750, 83.636645) scale(-1, -1) rotate(12.000000) translate(-66.879750, -83.636645) "></path>
                                <path d="M93.6251369,7.38644941 C94.8299589,7.39581515 96.9614003,6.48390692 96.8258554,5.15363543 C96.7162899,4.07833216 95.1051624,3.94780973 93.5721066,4.11169016 C92.8304488,4.19097182 91.9843873,4.55405605 91.7942273,5.04653867 C91.210994,6.55701554 92.4203149,7.37708366 93.6251369,7.38644941 Z" id="Oval" fill="#D6DFFF" transform="translate(94.237526, 5.719854) scale(1, -1) rotate(30.000000) translate(-94.237526, -5.719854) "></path>
                                <g id="Group-4" transform="translate(0.000000, 25.555556)">
                                    <g id="leaning-back" transform="translate(0.000000, 5.555556)">
                                        <path d="M47.4414868,28.2188792 C51.8163483,28.2188792 47.9894711,26.2244558 47.9894711,24.5811248 C47.9894711,24.1207371 53.6383969,24.7187432 53.4052277,24.3296487 C52.8061109,23.3298895 48.4760186,22.6633237 46.9983807,22.6633237 C44.9456635,22.6633237 43.2816074,23.9955067 43.2816074,25.6388377 C43.2816074,27.2821688 43.0666253,28.2188792 47.4414868,28.2188792 Z" id="Oval" fill="#F8CDBA" fill-rule="nonzero"></path>
                                        <path d="M7.97072462,16.0990325 C8.02274853,16.5718809 11.9601369,16.1497902 11.908113,15.6769419 L11.3604929,10.8950294 L7.43405694,11.3144485 L7.97072462,16.0990325 Z" id="Path" fill="#F8CDBA" fill-rule="nonzero"></path>
                                        <path d="M10.4404912,12.4765334 C10.0571571,12.5192767 7.70239078,13.8416492 7.78453379,14.4320418 L7.43405694,11.3144485 C8.04465333,11.2503335 10.4404912,12.4765334 10.4404912,12.4765334 Z" id="Path" fill="#1F161E" fill-rule="nonzero"></path>
                                        <ellipse id="Oval" fill="#F8CDBA" fill-rule="nonzero" cx="10.4569198" cy="7.3606884" rx="5.55560574" ry="5.42039138"></ellipse>
                                        <ellipse id="Oval" fill="#FA9E9F" fill-rule="nonzero" transform="translate(15.738725, 7.918157) rotate(-6.240000) translate(-15.738725, -7.918157) " cx="15.7387249" cy="7.91815695" rx="1" ry="1"></ellipse>
                                        <ellipse id="Oval" fill="#FA9E9F" fill-rule="nonzero" transform="translate(9.656527, 8.569893) rotate(-6.240000) translate(-9.656527, -8.569893) " cx="9.6565274" cy="8.56989255" rx="1" ry="1"></ellipse>
                                        <path d="M13.2634727,7.15498602 C13.4715684,7.38473154 14.5202608,8.34378551 13.5920448,8.87540595" id="Path" stroke="#1F161E" stroke-width="0.522222222" stroke-linecap="round"></path>
                                        <path d="M11.7739461,10.3206656 C11.4837075,10.3420372 10.9963256,10.0535196 10.7225155,9.75431614" id="Path" stroke="#1F161E" stroke-width="0.522222222" stroke-linecap="round"></path>
                                        <path d="M9.08239339,0.185148109 C7.66679547,0.593881417 3.2611919,1.1228304 2.02630862,0.714097095 C1.70321277,1.10680165 0.712020417,3.22794051 0.249281447,5.72575517 L2.96000086,6.77029584 L0.0986859241,6.71419519 C-0.0798191282,7.98452401 -0.0157636826,9.27611712 0.287614853,10.5236965 C1.62654596,11.8807979 3.84714539,11.7231818 4.23869375,11.613652 C6.71393653,10.9030437 6.02393522,6.94928363 7.00965137,6.01694426 C8.68263073,4.41406854 11.9190654,5.35709375 14.8351424,3.9679348 C14.8953806,2.37841638 12.4721617,-0.797948997 9.08239339,0.185148109 Z" id="Path" fill="#1F161E" fill-rule="nonzero"></path>
                                        <ellipse id="Oval" fill="#F8CDBA" fill-rule="nonzero" cx="5.41881503" cy="8.52544475" rx="1.28416909" ry="1.25291452"></ellipse>
                                        <path d="M1.68130796,21.9522003 C4.13738404,14.4293703 16.8120509,14.2690827 19.0874123,15.0491489 C21.3627737,15.8292151 28.9262261,25.9392725 29.7887277,26.1797039 C30.6512293,26.4201352 43.57945,23.4498426 44.0093317,23.6902739 C44.4392135,23.9307053 45.1294854,27.8658366 44.8721039,28.5256871 C44.6147225,29.1855377 27.8219526,36.5330264 27.20588,36.6024844 C27.3920709,37.5642098 29.5442178,43.6257515 29.1225503,44.6435776 C28.7008829,45.6614036 18.2961013,53.7666119 11.9163273,54.4264624 C10.8375158,54.5253064 9.30965572,47.2883225 9.30965572,47.2883225 C9.30965572,48.7282392 10.1039604,54.2474746 9.67134048,54.4264624 C9.23872062,54.6054501 4.12215192,53.4007042 3.69227016,52.9225129 C3.26238839,52.4443217 1.36916452,22.8952256 1.68130796,21.9522003 Z" id="Path" stroke="#1F161E" stroke-width="0.522222222" fill="#FFFFFF" fill-rule="nonzero"></path>
                                        <line x1="9.3209335" y1="48.0632008" x2="8.85341901" y2="27.2222222" id="Path" stroke="#1F161E" stroke-width="0.522222222" stroke-linecap="round"></line>
                                        <path d="M28.3854821,42.3571117 C27.4334351,37.7663847 24.2602678,26.3895727 23.9359134,25.2751446" id="Path" stroke="#1F161E" stroke-width="0.522222222" stroke-linecap="round" transform="translate(26.160698, 33.816128) rotate(-3.000000) translate(-26.160698, -33.816128) "></path>
                                    </g>
                                    <g id="legs-hanging" transform="translate(44.042214, 0.000000)">
                                        <path d="M7.07450653,27.4799967 C6.42953266,27.4816412 1.38682179,28.7340487 2.28434113,34.5417157 C2.51817465,36.2753473 3.86311371,36.4363575 4.33836514,36.3509978 C5.34590916,36.1700333 6.3157771,32.3965915 6.75607107,32.2392257 C7.0473052,32.1351355 6.88979414,34.3594894 7.37318255,34.1524391 C8.90577694,33.4959812 8.00565944,29.9620365 8.18484093,30.0013293 C9.19821594,30.2235528 7.07450653,27.4799967 7.07450653,27.4799967 Z" id="Path" fill="#FEE1D4" fill-rule="nonzero" transform="translate(5.318258, 31.924441) scale(1, -1) rotate(67.000000) translate(-5.318258, -31.924441) "></path>
                                        <path d="M4.21619816,31.1975383 C5.5233384,31.1928654 7.03242323,30.8975214 7.03524333,30.1157339 C7.03803069,29.3339464 6.68149251,29.4966958 5.37435227,29.5013687 C4.56945757,29.5042461 3.41880451,30.311592 2.67488703,30.7065014 C2.21069062,30.9529207 2.52243257,30.7525475 2.88585699,31.312172 C3.05632118,31.5746639 2.90905792,31.2022111 4.21619816,31.1975383 Z" id="Oval" fill="#F8CDBA" transform="translate(4.738346, 30.445013) rotate(33.000000) translate(-4.738346, -30.445013) "></path>
                                        <path d="M25.8517898,28.3882715 C28.2967164,26.7310661 33.6405779,23.0407082 37.9498159,20.293813 C42.2590538,17.5469179 55.0971433,19.4686884 55.5731455,20.293813 C55.9577862,20.9605672 55.8492895,60.0000003 55.5731455,60.0000003 C55.2970016,60.0000003 33.9629696,54.806381 33.9629696,54.806381 C33.9629696,54.806381 33.5435185,36.0502969 33.879635,33.7113029 C31.9546044,34.2105457 23.5072482,35.8710108 8.61812311,35.3662515 C7.6660856,33.9208944 7.54185135,32.0872386 8.29034013,30.5282851 C10.3764843,29.6677118 23.104524,28.9150968 25.8517898,28.3882715 Z" id="Path" stroke="#000000" stroke-width="0.541595788" fill="#FFFFFF" fill-rule="nonzero"></path>
                                        <path d="M42.1630997,20.2869115 C42.1380993,21.0619791 46.446501,21.24954 46.4715014,20.4165492 L46.6242816,15.2144941 L42.3158799,15.0848565 L42.1630997,20.2869115 Z" id="Path" fill="#F8CDBA" fill-rule="nonzero"></path>
                                        <ellipse id="Oval" fill="#F8CDBA" fill-rule="nonzero" cx="42.6769968" cy="11.2922659" rx="5.60008884" ry="5.56062728"></ellipse>
                                        <ellipse id="Oval" fill="#FA9E9F" fill-rule="nonzero" transform="translate(37.000127, 11.869944) rotate(-88.270000) translate(-37.000127, -11.869944) " cx="37.0001271" cy="11.8699442" rx="1" ry="1"></ellipse>
                                        <ellipse id="Oval" fill="#FA9E9F" fill-rule="nonzero" transform="translate(42.869003, 12.046100) rotate(-88.270000) translate(-42.869003, -12.046100) " cx="42.8690034" cy="12.0460999" rx="1" ry="1"></ellipse>
                                        <path d="M39.304721,10.9336937 C39.1241626,11.1764195 38.1935923,12.1886964 39.1297183,12.6355325" id="Path" stroke="#1F161E" stroke-width="0.541595788" stroke-linecap="round"></path>
                                        <path d="M40.974192,13.9070847 C41.2519742,13.9070847 41.6992035,13.5816115 41.9380962,13.275446" id="Path" stroke="#1F161E" stroke-width="0.541595788" stroke-linecap="round"></path>
                                        <path d="M47.7770777,13.5926445 C48.5326452,12.8865331 48.9493185,6.46809077 48.2770856,5.91368299 C47.797659,5.56773378 47.2167397,5.38838458 46.6242816,5.40340717 C46.6242816,5.40340717 41.3075306,0 39.0130498,0 C36.7185689,0 36.9963511,1.37912383 36.9963511,2.07696049 C36.9963511,2.77479715 37.6269167,7.13282845 38.4935971,7.59345581 C38.9828477,7.07712123 39.5532311,6.64303291 40.1825128,6.3081124 C40.5102957,6.73288254 43.4520091,9.58766887 46.118718,10.4289344 C46.8659521,11.6949701 47.7770777,13.5926445 47.7770777,13.5926445 Z" id="Path" fill="#000000" fill-rule="nonzero"></path>
                                        <path d="M41.043896,32.3131412 C39.1855332,32.611032 33.6405779,33.7204101 33.6405779,33.7204101" id="Path" stroke="#1F161E" stroke-width="0.541595788" stroke-linecap="round"></path>
                                    </g>
                                </g>
                            </g>
                        </g>
                    </g>
                </g>
            </g>
        </g>
    </g>
</svg>