<?xml version="1.0" encoding="UTF-8"?>
<svg width="101px" height="104px" viewBox="0 0 101 104" version="1.1" xmlns="http://www.w3.org/2000/svg" xmlns:xlink="http://www.w3.org/1999/xlink">
    <title>Illustration/Landing/Benefits_habits</title>
    <defs>
        <rect id="path-1" x="-2.52637417e-13" y="0" width="67.7777778" height="34.4444444" rx="2.61931037"></rect>
        <filter x="-7.4%" y="-11.6%" width="114.8%" height="129.0%" filterUnits="objectBoundingBox" id="filter-2">
            <feOffset dx="0" dy="1" in="SourceAlpha" result="shadowOffsetOuter1"></feOffset>
            <feGaussianBlur stdDeviation="1.5" in="shadowOffsetOuter1" result="shadowBlurOuter1"></feGaussianBlur>
            <feComposite in="shadowBlurOuter1" in2="SourceAlpha" operator="out" result="shadowBlurOuter1"></feComposite>
            <feColorMatrix values="0 0 0 0 0   0 0 0 0 0   0 0 0 0 0  0 0 0 0.286904502 0" type="matrix" in="shadowBlurOuter1"></feColorMatrix>
        </filter>
    </defs>
    <g id="A-Market" stroke="none" stroke-width="1" fill="none" fill-rule="evenodd">
        <g id="Landing_desktop_1440-v" transform="translate(-823.000000, -2023.000000)">
            <g id="Group-23" transform="translate(0.000000, 583.000000)">
                <g id="seller_or_buyer" transform="translate(0.000000, 347.000000)">
                    <g id="benefits" transform="translate(169.000000, 995.000000)">
                        <g id="Group-37" transform="translate(32.000000, 99.000000)">
                            <g id="Group-22" transform="translate(622.000000, 0.000000)">
                                <g id="Illustration/Landing/Benefits_habits" transform="translate(0.000000, 0.000000)">
                                    <path d="M42.922099,59.4013493 C64.4426344,59.5686403 102.514447,43.280132 100.093344,19.5188176 C98.1362843,0.311746566 69.3583197,-2.0196456 41.9748713,0.90758738 C28.7273775,2.32371657 13.6150225,8.80912855 10.218384,17.605855 C-0.199331346,44.5859985 21.4015637,59.2340583 42.922099,59.4013493 Z" id="Oval" fill="#D6DFFF"></path>
                                    <path d="M15.5968249,17.1546131 C31.6892445,-1.47377016 43.5488319,6.11490423 46.043476,13.882387 C48.688699,22.1187219 42.9128945,35.5351423 28.7161283,39.8652546 C20.3340349,42.4218513 11.191766,49.5038035 1.28932142,61.1111111 C0.0993773351,44.2257012 4.86854516,29.5735352 15.5968249,17.1546131 Z" id="badge_rope" stroke="#1F2A3B" stroke-width="1.40349007" transform="translate(23.888889, 33.333333) scale(-1, 1) rotate(1.000000) translate(-23.888889, -33.333333) "></path>
                                    <g id="badge" transform="translate(47.222222, 72.777778) rotate(-18.000000) translate(-47.222222, -72.777778) translate(13.333333, 55.555556)">
                                        <g id="Rectangle">
                                            <use fill="black" fill-opacity="1" filter="url(#filter-2)" xlink:href="#path-1"></use>
                                            <rect stroke="#1F2A3B" stroke-width="0.5" stroke-linejoin="square" fill="#FFFFFF" fill-rule="evenodd" x="0.25" y="0.25" width="67.2777778" height="33.9444444" rx="2.61931037"></rect>
                                        </g>
                                        <path d="M27.8937396,10.0524684 C28.5695926,10.0524684 29.0842212,9.9260684 29.4376253,9.6732684 C29.7910294,9.4204684 29.9677314,9.05932554 29.9677314,8.58983982 C29.9677314,8.23901533 29.8774457,7.94881125 29.6968743,7.71922757 C29.5163028,7.4896439 29.268662,7.330999 28.9539518,7.24329288 C29.1757967,7.13495002 29.3524988,6.97759492 29.4840579,6.77122757 C29.6156171,6.56486022 29.6813967,6.31979899 29.6813967,6.03604389 C29.6813967,5.59751327 29.5124334,5.25442756 29.1745069,5.00678674 C28.8365804,4.75914592 28.3580661,4.63532551 27.738964,4.63532551 L27.738964,4.63532551 L25.3089885,4.63532551 L25.3089885,10.0524684 L27.8937396,10.0524684 Z M27.6693151,6.99565206 L26.0828661,6.99565206 L26.0828661,5.26216633 L27.6693151,5.26216633 C28.0665722,5.26216633 28.3722538,5.3356847 28.58636,5.48272144 C28.8004661,5.62975817 28.9075192,5.84515409 28.9075192,6.1289092 C28.9075192,6.4126643 28.8004661,6.62806022 28.58636,6.77509696 C28.3722538,6.92213369 28.0665722,6.99565206 27.6693151,6.99565206 L27.6693151,6.99565206 Z M27.8627845,9.42562758 L26.0828661,9.42562758 L26.0828661,7.62249288 L27.8627845,7.62249288 C28.7450049,7.62249288 29.1861151,7.92430513 29.1861151,8.52792962 C29.1861151,8.83748064 29.0751926,9.06448472 28.8533477,9.20894187 C28.6315028,9.35339901 28.3013151,9.42562758 27.8627845,9.42562758 L27.8627845,9.42562758 Z M33.3329446,10.0989011 C33.6218589,10.0989011 33.8888466,10.0408602 34.1339079,9.92477861 C34.3789691,9.80869697 34.5763079,9.64489289 34.7259242,9.43336636 L34.7259242,9.43336636 L34.7259242,10.0524684 L35.4301528,10.0524684 L35.4301528,5.95091736 L34.6872303,5.95091736 L34.6872303,8.07134186 C34.6872303,8.50471329 34.5737283,8.84006023 34.3467242,9.07738268 C34.1197201,9.31470513 33.8101691,9.43336636 33.4180711,9.43336636 C33.0620875,9.43336636 32.7886507,9.33147248 32.5977609,9.12768472 C32.4068711,8.92389697 32.3114262,8.62337452 32.3114262,8.22611737 L32.3114262,8.22611737 L32.3114262,5.95091736 L31.5685038,5.95091736 L31.5685038,8.3112439 C31.5685038,8.89939085 31.7258589,9.34437044 32.0405691,9.64618269 C32.3552793,9.94799493 32.7860711,10.0989011 33.3329446,10.0989011 Z M37.5726394,11.6002235 C37.9028272,11.6002235 38.1852925,11.515097 38.4200354,11.3448439 C38.6547782,11.1745909 38.8598558,10.8805174 39.035268,10.4626235 L39.035268,10.4626235 L41.0241333,5.95091736 L40.2966884,5.95091736 L38.8804925,9.23215819 L37.448819,5.95091736 L36.6749415,5.95091736 L38.4858149,10.0447296 L38.3542558,10.3310643 C38.2562313,10.5632276 38.1465986,10.7270317 38.0253578,10.8224766 C37.904117,10.9179215 37.7532109,10.9656439 37.5726394,10.9656439 C37.2940435,10.9656439 37.0489823,10.8650398 36.8374557,10.6638317 L36.8374557,10.6638317 L36.520166,11.2210235 C36.6439864,11.3448439 36.8000517,11.438999 36.9883619,11.5034888 C37.1766721,11.5679786 37.3714313,11.6002235 37.5726394,11.6002235 Z M43.9791914,10.0989011 C44.3196975,10.0989011 44.6279588,10.04215 44.9039751,9.92864799 C45.1799914,9.81514595 45.4108649,9.65005207 45.5965955,9.43336636 L45.5965955,9.43336636 L45.1864404,8.95356227 C44.8872077,9.28375003 44.4925302,9.44884391 44.0024077,9.44884391 C43.5999914,9.44884391 43.2633547,9.33921126 42.9924975,9.11994595 C42.7216404,8.90068064 42.5629955,8.61047656 42.5165628,8.2493337 L42.5165628,8.2493337 L45.8442363,8.2493337 C45.8545547,8.15646839 45.8597139,8.08166023 45.8597139,8.02490921 C45.8597139,7.61217451 45.7732975,7.24587247 45.6004649,6.92600308 C45.4276322,6.60613369 45.1877302,6.35720308 44.8807588,6.17921124 C44.5737873,6.0012194 44.2242526,5.91222348 43.8321547,5.91222348 C43.4400567,5.91222348 43.0879424,6.0012194 42.7758118,6.17921124 C42.4636812,6.35720308 42.21862,6.60613369 42.0406281,6.92600308 C41.8626363,7.24587247 41.7736404,7.60443574 41.7736404,8.00169288 C41.7736404,8.40410921 41.8652159,8.76525207 42.0483669,9.08512146 C42.2315179,9.40499085 42.4907669,9.65392146 42.8261139,9.8319133 C43.1614608,10.0099051 43.54582,10.0989011 43.9791914,10.0989011 Z M45.1477465,7.71535819 L42.5165628,7.71535819 C42.5578363,7.36453369 42.6984241,7.08077859 42.9383261,6.86409287 C43.1782281,6.64740716 43.476171,6.5390643 43.8321547,6.5390643 C44.1881384,6.5390643 44.4860812,6.64869695 44.7259833,6.86796226 C44.9658853,7.08722757 45.1064731,7.36969288 45.1477465,7.71535819 L45.1477465,7.71535819 Z M48.1801924,10.0524684 L48.1801924,8.00943166 C48.1801924,7.56574186 48.2949842,7.22394594 48.5245679,6.9840439 C48.7541515,6.74414185 49.0701516,6.62419083 49.4725679,6.62419083 C49.5447965,6.62419083 49.6015475,6.62677042 49.6428209,6.63192961 L49.6428209,6.63192961 L49.6428209,5.91222348 C49.2816781,5.91222348 48.9747067,5.97413369 48.7219067,6.09795409 C48.4691067,6.2217745 48.2782169,6.40234593 48.1492373,6.63966838 L48.1492373,6.63966838 L48.1492373,5.95091736 L47.4372699,5.95091736 L47.4372699,10.0524684 L48.1801924,10.0524684 Z" id="Buyer" fill="#1F2A3B" fill-rule="nonzero"></path>
                                        <g id="icons/48px/logo_archipel_market_fill" transform="translate(24.404842, 17.466509)" fill="#879DEF">
                                            <g id="Group" transform="translate(0.000000, -0.000000)">
                                                <path d="M6.75806041,2.52548531e-13 C5.2299523,2.52548531e-13 3.82347099,0.505114931 2.69042134,1.34757127 C2.45997057,1.17172309 2.17373608,1.06316375 1.85915248,1.06316375 C1.10652951,1.06316375 0.495652063,1.66248307 0.495652063,2.40176318 C0.495652063,2.77050605 0.648371425,3.10425872 0.895282969,3.34560138 C0.328300905,4.31545794 2.01579854e-12,5.43514432 2.01579854e-12,6.63019421 C2.01579854e-12,10.2871186 3.03152507,13.2612856 6.75806041,13.2612856 C10.4855102,13.2612856 13.5170353,10.2871186 13.5170353,6.63019421 C13.5170353,2.97416696 10.4855102,2.52548531e-13 6.75806041,2.52548531e-13 L6.75806041,2.52548531e-13 Z" id="Path" opacity="0.3"></path>
                                                <path d="M6.75806041,2.52548531e-13 C10.4855102,2.52548531e-13 13.5170353,2.97416696 13.5170353,6.63019421 C13.5170353,10.2871186 10.4855102,13.2612856 6.75806041,13.2612856 C3.03152507,13.2612856 0,10.2871186 0,6.63019421 C0,5.43514432 0.328300905,4.31545794 0.895282969,3.34560138 C0.648371425,3.10425872 0.495652063,2.77050605 0.495652063,2.40176318 C0.495652063,1.66248307 1.10652951,1.06316375 1.85915248,1.06316375 C2.17373608,1.06316375 2.45997057,1.17172309 2.69042134,1.34757127 C3.82347099,0.505114931 5.2299523,2.52548531e-13 6.75806041,2.52548531e-13 Z M8.23495724,7.96161616 L2.34291621,10.9133535 C3.46956444,12.0312455 5.03242306,12.7265636 6.75806041,12.7265636 C8.98209328,12.7265636 10.9308655,11.5709898 12.0291646,9.84390945 L12.0291646,9.84390945 L8.23495724,7.96161616 Z M37.7561587,7.13835957 L37.7561587,11.8799802 L17.44174,11.8799802 L17.44174,7.13835957 L37.7561587,7.13835957 Z M36.2938022,7.9593732 L35.6106803,7.9593732 L35.6106803,8.61521514 L35.1287455,8.61521514 L35.1287455,9.15173153 L35.6106803,9.15173153 L35.6106803,10.5307043 C35.6106803,11.1641166 35.9764752,11.4969721 36.6166162,11.4969721 C36.8134138,11.4969721 37.0102115,11.4556298 37.1653378,11.3729453 L37.273218,11.3031802 L37.0820902,10.825878 C36.9778386,10.9066246 36.8406656,10.9443064 36.69892,10.9443064 C36.4656242,10.9443064 36.3269834,10.8252134 36.2990546,10.6027806 L36.2938022,10.5145549 L36.2938022,9.15173153 L37.0766033,9.15173153 L37.0766033,8.61521514 L36.2938022,8.61521514 L36.2938022,7.9593732 Z M33.382898,8.56084575 C32.5132207,8.56084575 31.8739941,9.17362284 31.8739941,10.0268454 C31.8739941,10.8791708 32.5077338,11.4964338 33.4871496,11.4964338 C33.9342322,11.4964338 34.3083365,11.3695431 34.5702837,11.1264737 L34.6631801,11.0298978 L34.2964707,10.6162957 C34.0888821,10.8253397 33.8319112,10.9285159 33.5036103,10.9285159 C33.0375267,10.9285159 32.6997697,10.7023506 32.5833187,10.3426222 L32.5571161,10.2412725 L34.8497355,10.2412725 C34.8552224,10.1766752 34.8597948,10.0959286 34.8597948,10.0420975 C34.8597948,9.14581011 34.2370291,8.56084575 33.382898,8.56084575 Z M24.2797266,8.56120463 C23.868436,8.56120463 23.469048,8.65118944 23.1667189,8.83236115 L23.0433399,8.91559255 L23.3112847,9.40366097 C23.5307616,9.2269156 23.8700364,9.12015063 24.1983373,9.12015063 C24.6406165,9.12015063 24.8795924,9.3099682 24.9193874,9.63904824 L24.9253546,9.74189956 L24.9253546,9.78496442 L24.1699882,9.78496442 C23.2847645,9.78496442 22.9564636,10.1608848 22.9564636,10.638187 C22.9564636,11.1370216 23.3771278,11.4967926 24.0447034,11.4967926 C24.4279879,11.4967926 24.7181518,11.3903221 24.8949783,11.1978164 L24.963763,11.1101061 L24.963763,11.4591109 L25.609391,11.4591109 L25.609391,9.77958132 C25.609391,8.9532743 25.1219693,8.56120463 24.2797266,8.56120463 Z M29.4394463,7.47731591 L28.7554099,7.47731591 L28.7554099,11.4590212 L29.4394463,11.4590212 L29.4394463,10.7017974 L29.9479012,10.2298783 L30.959324,11.4590212 L31.7915074,11.4590212 L30.4563561,9.79564092 L31.676282,8.59341355 L30.855987,8.59341355 L29.4394463,9.88087346 L29.4394463,7.47731591 Z M18.5905189,7.70268868 L18.005247,7.70268868 L18.005247,11.4592006 L18.6837965,11.4592006 L18.6837965,9.00181199 L19.9412164,11.0294492 L20.2585435,11.0294492 L21.5168779,8.96951334 L21.5223648,11.4592006 L22.1954274,11.4592006 L22.1899405,7.70268868 L21.6046687,7.70268868 L20.1113111,10.192376 L18.5905189,7.70268868 Z M28.1751678,8.56084575 C27.741904,8.56084575 27.4134112,8.6799387 27.2070306,8.91749448 L27.1353958,9.01212961 L27.1353958,8.5931444 L26.4851954,8.5931444 L26.4851954,11.458752 L27.1683173,11.458752 L27.1683173,10.0699103 C27.1683173,9.48404871 27.4966182,9.18349187 28.0169615,9.18349187 L28.0916065,9.1875292 L28.0916065,9.1875292 L28.1751678,9.19964119 L28.1751678,8.56084575 Z M24.9253546,10.229968 L24.9253546,10.5628235 C24.8110437,10.8579972 24.5202368,11.0087242 24.1864489,11.0087242 C23.8371148,11.0087242 23.6295262,10.8526141 23.6295262,10.6112714 C23.6295262,10.4204158 23.7330673,10.2614436 24.1016105,10.2341169 L24.220285,10.229968 L24.9253546,10.229968 Z M1.19889272,9.33610297 C1.41013926,9.75329381 1.66345222,10.1462607 1.96248953,10.502443 L1.96248953,10.502443 L3.18881687,9.8878715 Z M33.382898,9.09825933 C33.7910918,9.09825933 34.0949888,9.33330687 34.1874063,9.68611409 L34.20868,9.79537177 L32.5516291,9.79537177 C32.6174722,9.37728374 32.9402862,9.09825933 33.382898,9.09825933 Z M6.75806041,0.534722023 C5.36529641,0.534722023 4.08318535,0.991388985 3.04524238,1.7539959 C3.15498084,1.94689059 3.22265289,2.16490644 3.22265289,2.40176318 C3.22265289,3.14014611 2.61268993,3.73856824 1.85915248,3.73856824 C1.6789985,3.73856824 1.50798939,3.70268085 1.34978311,3.63987793 C0.83949925,4.52450195 0.545034372,5.54370366 0.545034372,6.63019421 C0.545034372,7.35960529 0.683121939,8.05492336 0.922717585,8.70358782 L0.922717585,8.70358782 L3.90303137,9.53079203 L12.7634979,5.0924198 C12.0666586,2.47533232 9.64235304,0.534722023 6.75806041,0.534722023 Z M12.8814667,5.6343193 L8.83577533,7.66016213 L12.2980239,9.37737346 C12.7250894,8.55106644 12.9720009,7.61889164 12.9720009,6.63019421 C12.9720009,6.29105843 12.9363359,5.95910013 12.8814667,5.6343193 L12.8814667,5.6343193 Z M34.3790489,3.03212508 C35.2322655,3.03212508 35.8614327,3.61260352 35.8614327,4.49812472 C35.8614327,5.38813185 35.2322655,5.96861028 34.3790489,5.96861028 C34.0068526,5.96861028 33.6785517,5.84479881 33.4435285,5.58192372 L33.4435285,6.97166267 L32.7594921,6.97166267 L32.7594921,3.06442373 L33.410607,3.06442373 L33.410607,3.44034407 C33.6410577,3.16759996 33.979418,3.03212508 34.3790489,3.03212508 Z M25.621005,3.03212508 C26.189816,3.03212508 26.6434017,3.26359871 26.8674511,3.69783606 L26.3425354,3.9983929 C26.1678683,3.72564878 25.9054105,3.6018373 25.6155181,3.6018373 C25.1116356,3.6018373 24.7284655,3.94545901 24.7284655,4.49812472 C24.7284655,5.05617354 25.1116356,5.39441214 25.6155181,5.39441214 C25.9054105,5.39441214 26.1678683,5.27060066 26.3425354,4.99695936 L26.8674511,5.2975162 C26.6434017,5.72637044 26.189816,5.96861028 25.621005,5.96861028 C24.6964584,5.96861028 24.0398566,5.35673038 24.0398566,4.49812472 C24.0398566,3.63951906 24.6964584,3.03212508 25.621005,3.03212508 Z M37.7811242,3.0322148 C38.6352552,3.0322148 39.258021,3.61717916 39.258021,4.51346658 C39.258021,4.56729765 39.2534486,4.64804427 39.2479617,4.71264156 L36.9553423,4.71264156 C37.0376461,5.13072958 37.3933816,5.39988496 37.9018365,5.39988496 C38.2301374,5.39988496 38.4871083,5.29670873 38.6946969,5.08766472 L39.0614063,5.50126682 C38.7989485,5.80720677 38.3883437,5.96780282 37.8853757,5.96780282 C36.90596,5.96780282 36.2722203,5.35053981 36.2722203,4.49821444 C36.2722203,3.64499188 36.9114469,3.0322148 37.7811242,3.0322148 Z M28.1157261,1.94886439 L28.1157261,3.39781752 C28.3397754,3.16185797 28.6845371,3.03266339 29.0887405,3.03266339 C29.7892377,3.03266339 30.3086664,3.42473306 30.3086664,4.28872183 L30.3086664,5.93056966 L29.62463,5.93056966 L29.62463,4.37485156 C29.62463,3.86435352 29.3676591,3.61762775 28.9305342,3.61762775 C28.4431125,3.61762775 28.1157261,3.90741838 28.1157261,4.48161652 L28.1157261,5.93056966 L27.4316897,5.93056966 L27.4316897,1.94886439 L28.1157261,1.94886439 Z M31.8702601,3.06514147 L31.8702601,5.93074909 L31.1800136,5.93074909 L31.1800136,3.06514147 L31.8702601,3.06514147 Z M23.7273764,3.03230452 L23.7273764,3.67109995 C23.6670202,3.66033374 23.6176379,3.65495063 23.5682556,3.65495063 C23.0488269,3.65495063 22.7205259,3.95550747 22.7205259,4.54136902 L22.7205259,5.93021078 L22.0364895,5.93021078 L22.0364895,3.06460316 L22.6876044,3.06460316 L22.6876044,3.48358837 C22.8851336,3.18303153 23.2408692,3.03230452 23.7273764,3.03230452 Z M19.887536,2.17396801 L21.6150024,5.93047994 L20.8715243,5.93047994 L20.4883541,5.06110806 L18.5743324,5.06110806 L18.1966492,5.93047994 L17.464145,5.93047994 L19.1870389,2.17396801 L19.887536,2.17396801 Z M40.5992994,1.94814664 L40.5992994,5.92985191 L39.915263,5.92985191 L39.915263,1.94814664 L40.5992994,1.94814664 Z M34.302232,3.6018373 C33.8102379,3.6018373 33.4325547,3.95084211 33.4325547,4.49812472 C33.4325547,5.04451014 33.8102379,5.39441214 34.302232,5.39441214 C34.7951406,5.39441214 35.1664224,5.04451014 35.1664224,4.49812472 C35.1664224,3.95084211 34.7951406,3.6018373 34.302232,3.6018373 Z M19.530886,2.87197763 L18.8148426,4.51382545 L20.2533309,4.51382545 L19.530886,2.87197763 Z M37.7811242,3.56962838 C37.3385124,3.56962838 37.0156984,3.84865279 36.9498553,4.26674081 L38.6069061,4.26674081 C38.5529514,3.85403589 38.2301374,3.56962838 37.7811242,3.56962838 Z M31.5269824,1.78844779 C31.7816723,1.78844779 31.9689986,1.95352975 31.9689986,2.17333998 C31.9689986,2.41019671 31.787209,2.59232519 31.5269824,2.59232519 C31.2732153,2.59232519 31.0858891,2.41557982 31.0858891,2.19038649 C31.0858891,1.96519315 31.2732153,1.78844779 31.5269824,1.78844779 Z" id="Combined-Shape"></path>
                                            </g>
                                        </g>
                                        <rect id="Rectangle" fill="#D6DFFF" x="2.88416076" y="2.93144208" width="18.0260047" height="28.5815603"></rect>
                                    </g>
                                    <g id="auto_awesome_black_24dp" transform="translate(83.321697, 16.327358) rotate(-18.000000) translate(-83.321697, -16.327358) translate(69.988364, 2.994025)">
                                        <rect id="Rectangle" x="0" y="0" width="26.6666667" height="26.6666667"></rect>
                                        <g id="Group" transform="translate(1.111111, 1.111111)" fill="#FF7165" fill-rule="nonzero">
                                            <polygon id="Path" points="20 8.88888889 21.3888889 5.83333333 24.4444444 4.44444444 21.3888889 3.05555556 20 0 18.6111111 3.05555556 15.5555556 4.44444444 18.6111111 5.83333333"></polygon>
                                            <polygon id="Path" points="20 15.5555556 18.6111111 18.6111111 15.5555556 20 18.6111111 21.3888889 20 24.4444444 21.3888889 21.3888889 24.4444444 20 21.3888889 18.6111111"></polygon>
                                            <path d="M11.6666667,9.44444444 L8.88888889,3.33333333 L6.11111111,9.44444444 L0,12.2222222 L6.11111111,15 L8.88888889,21.1111111 L11.6666667,15 L17.7777778,12.2222222 L11.6666667,9.44444444 Z M9.98888889,13.3222222 L8.88888889,15.7444444 L7.78888889,13.3222222 L5.36666667,12.2222222 L7.78888889,11.1222222 L8.88888889,8.7 L9.98888889,11.1222222 L12.4111111,12.2222222 L9.98888889,13.3222222 Z" id="Shape"></path>
                                        </g>
                                    </g>
                                    <path d="M89.693823,62.7352699 C92.103467,62.7540014 96.3663496,60.9301849 96.0952598,58.2696419 C95.8761288,56.1190354 92.6538739,55.8579905 89.5877623,56.1857514 C88.1044468,56.3443147 86.4123236,57.0704832 86.0320037,58.0554484 C84.8655371,61.0764021 87.2841789,62.7165384 89.693823,62.7352699 Z" id="Oval" fill="#D6DFFF" transform="translate(90.918600, 59.402079) scale(-1, -1) rotate(30.000000) translate(-90.918600, -59.402079) "></path>
                                </g>
                            </g>
                        </g>
                    </g>
                </g>
            </g>
        </g>
    </g>
</svg>