<?xml version="1.0" encoding="UTF-8"?>
<svg width="97px" height="94px" viewBox="0 0 97 94" version="1.1" xmlns="http://www.w3.org/2000/svg" xmlns:xlink="http://www.w3.org/1999/xlink">
    <title>Illustration/Landing/Benefits_simplify_life</title>
    <defs>
        <path d="M0.00833333333,1.65517241 L0,11.5862069 C0,12.4965517 0.75,13.2413793 1.66666667,13.2413793 L15,13.2413793 C15.9166667,13.2413793 16.6666667,12.4965517 16.6666667,11.5862069 L16.6666667,0 L13.3333333,0 L15,3.31034483 L12.5,3.31034483 L10.8333333,0 L9.16666667,0 L10.8333333,3.31034483 L8.33333333,3.31034483 L6.66666667,0 L5,0 L6.66666667,3.31034483 L4.16666667,3.31034483 L2.5,0 L1.66666667,0 C0.75,0 0.00833333333,0.744827586 0.00833333333,1.65517241 Z M1.66666667,2.04413793 L3.13333333,4.96551724 L15,4.96551724 L15,11.5862069 L1.66666667,11.5862069 L1.66666667,2.04413793 Z" id="path-1"></path>
        <path d="M0.00611111111,1.25 L0,8.75 C0,9.4375 0.55,10 1.22222222,10 L11,10 C11.6722222,10 12.2222222,9.4375 12.2222222,8.75 L12.2222222,0 L9.77777778,0 L11,2.5 L9.16666667,2.5 L7.94444444,0 L6.72222222,0 L7.94444444,2.5 L6.11111111,2.5 L4.88888889,0 L3.66666667,0 L4.88888889,2.5 L3.05555556,2.5 L1.83333333,0 L1.22222222,0 C0.55,0 0.00611111111,0.5625 0.00611111111,1.25 Z M1.22222222,1.54375 L2.29777778,3.75 L11,3.75 L11,8.75 L1.22222222,8.75 L1.22222222,1.54375 Z" id="path-3"></path>
    </defs>
    <g id="Landing-page" stroke="none" stroke-width="1" fill="none" fill-rule="evenodd">
        <g id="Landing_buyer" transform="translate(-200.000000, -2024.000000)">
            <g id="Group-23" transform="translate(0.000000, 583.000000)">
                <g id="seller_or_buyer" transform="translate(0.000000, 347.000000)">
                    <g id="benefits" transform="translate(169.000000, 995.000000)">
                        <g id="Group-37" transform="translate(32.000000, 99.000000)">
                            <g id="Illustration/Landing/Benefits_simplify_life" transform="translate(0.000000, 0.000000)">
                                <path d="M35.1438071,59.6345314 C56.6643425,59.8018224 94.7361554,43.5133141 92.3150519,19.7519997 C90.3579924,0.544928698 61.5800278,-1.78646346 34.1965794,1.14076951 C20.9490856,2.5568987 5.83673053,9.04231069 2.4400921,17.8390371 C-7.97762327,44.8191806 13.6232717,59.4672404 35.1438071,59.6345314 Z" id="Oval" fill="#D6DFFF" transform="translate(46.082297, 29.865802) scale(-1, 1) translate(-46.082297, -29.865802) "></path>
                                <polygon id="Path" transform="translate(95.580954, 20.408412) rotate(11.000000) translate(-95.580954, -20.408412) " points="86.6920651 11.519523 104.469843 11.519523 104.469843 29.2973008 86.6920651 29.2973008"></polygon>
                                <polygon id="Path" points="93.3587318 21.519523 111.13651 21.519523 111.13651 39.2973008 93.3587318 39.2973008"></polygon>
                                <path d="M10.0994174,93.2280901 C12.5090614,93.2468216 16.771944,91.4230051 16.5008542,88.7624621 C16.2817232,86.6118556 13.0594683,86.3508107 9.99335672,86.6785716 C8.51004119,86.8371349 6.81791804,87.5633034 6.43759806,88.5482686 C5.27113146,91.5692224 7.68977333,93.2093586 10.0994174,93.2280901 Z" id="Oval" fill="#D6DFFF" transform="translate(11.324195, 89.894900) scale(-1, -1) rotate(12.000000) translate(-11.324195, -89.894900) "></path>
                                <g id="binoculars" transform="translate(7.777778, 38.888889)">
                                    <g id="right" transform="translate(31.293972, 0.749665)">
                                        <path d="M41.6661287,25.8655539 C41.2466541,25.940645 40.8243093,25.937553 40.4028477,25.8624619 C37.3813057,25.3326281 34.4310744,21.1465216 33.4523739,15.6675235 C32.6054767,10.9281725 33.4779839,6.58569987 35.4444368,4.49971402 C36.0685709,3.83626229 36.8028723,3.4020592 37.6263672,3.25496904 C41.0470725,2.6434185 44.7247611,7.20873493 45.840122,13.4527786 C46.9557038,19.6968222 45.0868339,25.2540034 41.6661287,25.8655539 M36.4179979,0.0957353136 C36.1784481,0.137786959 35.9433634,0.192608214 35.7134134,0.262180569 C35.4725241,0.333954581 35.2363231,0.420259529 35.0048104,0.51911392 L34.5460268,0.740820761 C34.3388486,0.848922111 34.1361354,0.969572905 33.9398966,1.10057149 L33.9381106,1.10299331 C33.1489134,1.62896912 32.4441057,2.33261864 31.8352965,3.17805486 C29.6766693,6.17054681 28.7468232,10.9507841 29.670195,16.0460785 C30.7554247,22.0343648 34.0867966,26.7388651 37.8816405,28.2685763 C38.9784794,28.7148521 40.1172897,28.8920855 41.2491792,28.7551425 L41.602811,28.704064 C46.7606106,27.7949999 49.7821082,20.6537059 48.3506139,12.7537209 C46.9188965,4.85373586 41.5760207,-0.813328787 36.4179979,0.0957353136" id="Fill-1" fill="#FFFFFF"></path>
                                        <path d="M41.6661287,25.8655539 C41.2466541,25.940645 40.8243093,25.937553 40.4028477,25.8624619 C37.3813057,25.3326281 34.4310744,21.1465216 33.4523739,15.6675235 C32.6054767,10.9281725 33.4779839,6.58569987 35.4444368,4.49971402 C36.0685709,3.83626229 36.8028723,3.4020592 37.6263672,3.25496904 C41.0470725,2.6434185 44.7247611,7.20873493 45.840122,13.4527786 C46.9557038,19.6968222 45.0868339,25.2540034 41.6661287,25.8655539 Z M36.4179979,0.0957353136 C36.1784481,0.137786959 35.9433634,0.192608214 35.7134134,0.262180569 C35.4725241,0.333954581 35.2363231,0.420259529 35.0048104,0.51911392 L34.5460268,0.740820761 C34.3388486,0.848922111 34.1361354,0.969572905 33.9398966,1.10057149 L33.9381106,1.10299331 C33.1489134,1.62896912 32.4441057,2.33261864 31.8352965,3.17805486 C29.6766693,6.17054681 28.7468232,10.9507841 29.670195,16.0460785 C30.7554247,22.0343648 34.0867966,26.7388651 37.8816405,28.2685763 C38.9784794,28.7148521 40.1172897,28.8920855 41.2491792,28.7551425 L41.602811,28.704064 C46.7606106,27.7949999 49.7821082,20.6537059 48.3506139,12.7537209 C46.9188965,4.85373586 41.5760207,-0.813328787 36.4179979,0.0957353136 Z" id="Stroke-3" stroke="#000000" fill="#FFFFFF"></path>
                                        <path d="M0.242314649,19.3540214 L0.20925423,19.3665016 L0.24676509,19.3597815 C0.242950426,19.3572214 0.242950426,19.3572214 0.242314649,19.3540214 L0.242314649,19.3540214 Z M1.48076392,27.3635696 L1.51350645,27.3642096 C1.51604956,27.3603695 1.51891055,27.3597295 1.51827478,27.3565295 L1.48076392,27.3635696 Z" id="Fill-13" fill="#FFFFFF"></path>
                                        <path d="M0.124806418,19.207531 L0.0984608772,19.2121664 L0.121680676,19.2035577 C0.12212721,19.2057651 0.12212721,19.2057651 0.124806418,19.207531" id="Fill-37" fill="#FFFFFF"></path>
                                        <path d="M14.9496432,28.6472137 C14.9815704,28.6483174 15.0130511,28.6472137 15.0447551,28.64611 L14.9500897,28.6494211 L14.9496432,28.6472137 Z" id="Fill-41" fill="#FFFFFF"></path>
                                        <path d="M31.667,2.505 L31.5694253,2.63710455 C29.3476017,5.72520347 28.3662989,10.6546555 29.3180203,15.9194092 C30.4409237,22.1314392 33.9209024,26.9667785 37.8332763,28.5478427 L37.8332763,28.5478427 L34.8116254,29.0141914 C32.7749378,29.3769586 30.7288838,28.7088584 28.9445928,27.3266127 C26.5851439,25.4833508 24.6997892,22.4315719 23.8400404,18.752834 C23.7753179,18.475896 23.7164157,18.1953887 23.6635877,17.9114287 C24.0797691,15.9342531 23.906614,13.8718636 23.5771925,11.774877 C23.8567344,10.123088 24.3854689,8.61635986 25.1236805,7.34865582 C26.0143552,5.8351458 27.1636136,4.68457539 28.5403792,4.02222534 L28.5403792,4.02222534 L31.667,2.505 Z" id="Stroke-47" stroke="#000000"></path>
                                    </g>
                                    <g id="left" stroke="#000000">
                                        <path d="M49.9132841,26.7693615 C49.4708155,26.84805 49.0253195,26.8448099 48.5807549,26.7661214 C45.3935837,26.2109049 42.2816322,21.8242543 41.2490502,16.0827736 C40.3559622,11.1163742 41.2762969,6.56586655 43.3505432,4.37994726 C44.0088899,3.68471152 44.7834428,3.22970704 45.6520785,3.07557022 C49.2602936,2.4347221 53.1395788,7.21874938 54.3160796,13.7619267 C55.4928132,20.3051041 53.5214991,26.1285134 49.9132841,26.7693615 Z M44.7127165,0.10032171 C44.4600337,0.144387926 44.2120608,0.201835505 43.9695043,0.274740867 C43.7154086,0.349953361 43.4662582,0.440392923 43.2220532,0.543983137 L42.7381175,0.7763113 C42.5195811,0.889591466 42.3057545,1.01602228 42.0987572,1.15329662 L42.0968732,1.15583447 C41.2644096,1.70700823 40.5209619,2.44436752 39.8787757,3.3303061 C37.6018052,6.46615951 36.6209817,11.4754039 37.5949759,16.8147988 C38.7397017,23.0899663 42.2537108,28.0198453 46.2566009,29.6228404 C47.4135723,30.090496 48.6148161,30.2762201 49.8087597,30.1327165 L50.1817787,30.0791911 C55.6223464,29.1265764 58.8094929,21.643164 57.2995192,13.364714 C55.7893101,5.08626404 50.1535197,-0.852292971 44.7127165,0.10032171 Z" id="Stroke-51" fill="#FFFFFF"></path>
                                        <path d="M36.4575221,29.1258911 L36.4579931,29.1282042 L22.1485531,29.7039366 L22.1202922,29.706481 C22.0868501,29.7076375 22.0536435,29.7087941 22.019966,29.7076375 C20.8600912,29.7351635 19.6950352,29.1194144 18.692244,28.0523781 C18.644907,28.0021837 18.59757,27.9517579 18.552117,27.8983252 C17.3734016,26.5756905 16.438201,24.6181079 16.0251208,22.3477933 C15.5197215,19.5697516 15.9123126,16.9677374 16.9294698,15.2618209 C17.4457024,14.3913987 18.1265548,13.7548316 18.9312842,13.4444127 L18.9310487,13.4420996 L32.3229512,7.47035089 L32.3234222,7.47266399 C32.3140019,7.48584871 32.3071721,7.50134652 32.2977518,7.51453123 C30.5797241,10.4454693 29.8908645,14.535274 30.6743982,18.8411229 C31.4814826,23.2767371 33.6750001,26.9686874 36.4351488,29.1087741 C36.4433916,29.1143256 36.4492793,29.1203396 36.4575221,29.1258911 Z" id="Stroke-59"></path>
                                        <path d="M10.2530316,28.1949648 C9.66958682,28.9898395 8.87968157,29.5373153 7.95237086,29.7031101 C7.50844552,29.7825976 7.06710387,29.7682522 6.63539235,29.6760656 C4.7662083,29.269927 3.11663811,27.3410625 2.66261288,24.796758 C2.20835277,22.2524536 3.08845238,19.8708868 4.70138111,18.8417828 C5.07437235,18.6054369 5.48353528,18.4391717 5.9276955,18.3596842 C6.84302727,18.1955356 7.76493572,18.4274132 8.57785932,18.9579568 L6.43128065,19.6980368 L6.40685301,19.7072085 C4.73520399,20.0063447 3.72451048,22.1652055 4.14706164,24.5312511 C4.56937791,26.8970615 6.26404528,28.5719423 7.9356943,28.2728061 L7.95965218,28.2732764 L10.2530316,28.1949648 Z" id="Stroke-67"></path>
                                        <path d="M6.63532189,29.6760185 C7.06703341,29.7684404 7.50860994,29.7825506 7.9523004,29.7030631 L5.90155323,30.0294791 L4.76190998,30.2096193 C2.6291893,30.1708163 0.627062527,28.097087 0.119249519,25.2520001 C-0.440002457,22.1195355 1.02119307,19.2375269 3.38409726,18.814456 L5.92762504,18.3596372 C5.4836997,18.4391247 5.07430188,18.6053899 4.70154553,18.8417358 C3.08838191,19.8710749 2.20828231,22.2526417 2.66254242,24.796711 C3.11680253,27.3410154 4.76613784,29.2698799 6.63532189,29.6760185 Z" id="Stroke-71"></path>
                                        <path d="M16.0251679,22.3478627 C16.4382481,24.617946 17.3734487,26.5755286 18.5519286,27.8983945 L10.2111925,28.1690281 L7.91169656,28.2460545 C7.91358062,28.2432788 7.91570019,28.2428162 7.91522918,28.2407344 L7.88743928,28.2455919 C6.2113319,28.5398191 4.51214479,26.8924243 4.08870217,24.5654385 C3.66525956,22.2382214 4.67841313,20.1147891 6.35452051,19.8205618 L6.38254591,19.8157043 C6.37971982,19.8138538 6.37971982,19.8138538 6.3792488,19.8115407 L8.53155249,19.0836059 L8.53367206,19.0831433 L16.9295169,15.2618903 C15.9123597,16.9678068 15.5197686,19.569821 16.0251679,22.3478627 Z" id="Stroke-79"></path>
                                        <path d="M39.737,2.638 L39.5741366,2.85688185 C37.2332441,6.08914044 36.2005399,11.2488348 37.2032148,16.7590862 C38.3857961,23.2583646 42.0484782,28.3199348 46.1696401,29.9744542 L46.1696401,29.9744542 L42.9757848,30.5084652 C40.819775,30.8897997 38.6533596,30.1883277 36.7640749,28.734342 C34.0641059,26.6392022 31.9484159,23.0522432 31.1658717,18.7525287 C30.4064523,14.579422 31.0622384,10.6114346 32.7274927,7.77051714 C33.6698694,6.17965076 34.8862491,4.9707553 36.3427411,4.2746442 L36.3427411,4.2746442 L39.737,2.638 Z" id="Stroke-95"></path>
                                    </g>
                                </g>
                                <path d="M87.7401397,70.6334112 C90.2342707,70.1091311 95.0558418,71.0153716 95.3610954,73.6995567 C95.5564366,75.4172496 93.5394162,76.3605558 91.0774282,76.8377766 L90.2872285,76.9733444 L90.2872285,76.9733444 L89.4798149,77.0800834 C89.3444986,77.0955907 89.2089804,77.1099867 89.073518,77.1233163 C87.5007102,77.2780822 85.5863309,76.9161672 84.9749645,76.023344 C83.0998633,73.2849958 85.2460086,71.1576914 87.7401397,70.6334112 Z" id="Oval" fill="#D6DFFF"></path>
                                <g id="Group" transform="translate(81.666667, 13.287356) rotate(21.000000) translate(-81.666667, -13.287356) translate(73.333333, 6.666667)">
                                    <polygon id="Path" fill="#FF6E61" opacity="0.113022347" points="1.66666667 2.04413793 3.13333333 4.96551724 15 4.96551724 15 11.5862069 1.66666667 11.5862069"></polygon>
                                    <mask id="mask-2" fill="white">
                                        <use xlink:href="#path-1"></use>
                                    </mask>
                                    <use id="Shape" fill="#FF6E61" xlink:href="#path-1"></use>
                                </g>
                                <g id="Group" transform="translate(52.777778, 17.222222) rotate(21.000000) translate(-52.777778, -17.222222) translate(46.666667, 12.222222)">
                                    <polygon id="Path" fill="#FF6E61" opacity="0.113022347" points="1.22222222 1.54375 2.29777778 3.75 11 3.75 11 8.75 1.22222222 8.75"></polygon>
                                    <mask id="mask-4" fill="white">
                                        <use xlink:href="#path-3"></use>
                                    </mask>
                                    <use id="Shape" fill="#FF6E61" xlink:href="#path-3"></use>
                                </g>
                            </g>
                        </g>
                    </g>
                </g>
            </g>
        </g>
    </g>
</svg>