<?xml version="1.0" encoding="UTF-8"?>
<svg width="101px" height="100px" viewBox="0 0 101 100" version="1.1" xmlns="http://www.w3.org/2000/svg" xmlns:xlink="http://www.w3.org/1999/xlink">
    <title>Illustration/Landing/Benefits_gain_time</title>
    <g id="A-Market" stroke="none" stroke-width="1" fill="none" fill-rule="evenodd">
        <g id="Landing_desktop_1440-v" transform="translate(-823.000000, -2187.000000)">
            <g id="Group-23" transform="translate(0.000000, 583.000000)">
                <g id="seller_or_buyer" transform="translate(0.000000, 347.000000)">
                    <g id="benefits" transform="translate(169.000000, 995.000000)">
                        <g id="Group-37" transform="translate(32.000000, 99.000000)">
                            <g id="Illustration/Landing/Benefits_gain_time" transform="translate(622.000000, 163.000000)">
                                <path d="M42.8961865,59.6345314 C64.4167218,59.8018224 102.488535,43.5133141 100.067431,19.7519997 C98.1103717,0.544928698 69.3324071,-1.78646346 41.9489587,1.14076951 C28.7014649,2.5568987 13.5891099,9.04231069 10.1924714,17.8390371 C-0.22524393,44.8191806 21.3756511,59.4672404 42.8961865,59.6345314 Z" id="Oval" fill="#D6DFFF" transform="translate(53.834676, 29.865802) scale(-1, 1) translate(-53.834676, -29.865802) "></path>
                                <g id="settings_black_24dp" transform="translate(67.777778, 0.408412)">
                                    <polygon id="Path" points="0 0 22.2222222 0 22.2222222 22.2222222 0 22.2222222"></polygon>
                                    <path d="M17.9028499,12.5922222 C17.9394029,12.29 17.9668177,11.9877778 17.9668177,11.6666667 C17.9668177,11.3455556 17.9394029,11.0433333 17.9028499,10.7411111 L19.8310208,9.18277778 C20.0046476,9.04111111 20.0503389,8.78611111 19.9406799,8.57833333 L18.1130297,5.31055556 C18.0307854,5.15944444 17.8754352,5.07444444 17.7109466,5.07444444 C17.6561171,5.07444444 17.6012876,5.08388889 17.5555964,5.10277778 L15.2801719,6.04722222 C14.8049829,5.66944444 14.2932408,5.35777778 13.7358075,5.12166667 L13.388554,2.61888889 C13.3611392,2.39222222 13.169236,2.22222222 12.9407797,2.22222222 L9.28547934,2.22222222 C9.05702307,2.22222222 8.8651198,2.39222222 8.83770505,2.61888889 L8.49045152,5.12166667 C7.93301822,5.35777778 7.42127617,5.67888889 6.94608712,6.04722222 L4.67066266,5.10277778 C4.61583315,5.08388889 4.56100365,5.07444444 4.50617414,5.07444444 C4.35082388,5.07444444 4.19547361,5.15944444 4.11322935,5.31055556 L2.28557918,8.57833333 C2.16678192,8.78611111 2.22161143,9.04111111 2.39523819,9.18277778 L4.32340912,10.7411111 C4.28685612,11.0433333 4.25944137,11.355 4.25944137,11.6666667 C4.25944137,11.9783333 4.28685612,12.29 4.32340912,12.5922222 L2.39523819,14.1505556 C2.22161143,14.2922222 2.17592017,14.5472222 2.28557918,14.755 L4.11322935,18.0227778 C4.19547361,18.1738889 4.35082388,18.2588889 4.51531239,18.2588889 C4.5701419,18.2588889 4.6249714,18.2494444 4.67066266,18.2305556 L6.94608712,17.2861111 C7.42127617,17.6638889 7.93301822,17.9755556 8.49045152,18.2116667 L8.83770505,20.7144444 C8.8651198,20.9411111 9.05702307,21.1111111 9.28547934,21.1111111 L12.9407797,21.1111111 C13.169236,21.1111111 13.3611392,20.9411111 13.388554,20.7144444 L13.7358075,18.2116667 C14.2932408,17.9755556 14.8049829,17.6544444 15.2801719,17.2861111 L17.5555964,18.2305556 C17.6104259,18.2494444 17.6652554,18.2588889 17.7200849,18.2588889 C17.8754352,18.2588889 18.0307854,18.1738889 18.1130297,18.0227778 L19.9406799,14.755 C20.0503389,14.5472222 20.0046476,14.2922222 19.8310208,14.1505556 L17.9028499,12.5922222 Z M16.0934762,10.9772222 C16.1300292,11.27 16.1391675,11.4683333 16.1391675,11.6666667 C16.1391675,11.865 16.120891,12.0727778 16.0934762,12.3561111 L15.9655407,13.4233333 L16.7788451,14.0844444 L17.7657761,14.8777778 L17.1260986,16.0205556 L15.9655407,15.5388889 L15.0151626,15.1422222 L14.1927201,15.7844444 C13.7997753,16.0866667 13.425107,16.3133333 13.0504387,16.4738889 L12.0817841,16.88 L11.9355721,17.9472222 L11.7528071,19.2222222 L10.473452,19.2222222 L10.2998252,17.9472222 L10.1536132,16.88 L9.18495858,16.4738889 C8.7920138,16.3038889 8.42648376,16.0866667 8.06095373,15.8033333 L7.2293729,15.1422222 L6.26071831,15.5483333 L5.10016045,16.03 L4.46048289,14.8872222 L5.44741398,14.0938889 L6.26071831,13.4327778 L6.1327828,12.3655556 C6.10536804,12.0727778 6.08709154,11.8555556 6.08709154,11.6666667 C6.08709154,11.4777778 6.10536804,11.2605556 6.1327828,10.9772222 L6.26071831,9.91 L5.44741398,9.24888889 L4.46048289,8.45555556 L5.10016045,7.31277778 L6.26071831,7.79444444 L7.2110964,8.19111111 L8.03353898,7.54888889 C8.42648376,7.24666667 8.80115205,7.02 9.17582033,6.85944444 L10.1444749,6.45333333 L10.2906869,5.38611111 L10.473452,4.11111111 L11.7436688,4.11111111 L11.9172956,5.38611111 L12.0635076,6.45333333 L13.0321622,6.85944444 C13.425107,7.02944444 13.790637,7.24666667 14.1561671,7.53 L14.9877479,8.19111111 L15.9564025,7.785 L17.1169603,7.30333333 L17.7566379,8.44611111 L16.7788451,9.24888889 L15.9655407,9.91 L16.0934762,10.9772222 Z M11.1131295,7.88888889 C9.09357608,7.88888889 7.45782917,9.57944444 7.45782917,11.6666667 C7.45782917,13.7538889 9.09357608,15.4444444 11.1131295,15.4444444 C13.132683,15.4444444 14.7684299,13.7538889 14.7684299,11.6666667 C14.7684299,9.57944444 13.132683,7.88888889 11.1131295,7.88888889 Z M11.1131295,13.5555556 C10.1079219,13.5555556 9.28547934,12.7055556 9.28547934,11.6666667 C9.28547934,10.6277778 10.1079219,9.77777778 11.1131295,9.77777778 C12.1183371,9.77777778 12.9407797,10.6277778 12.9407797,11.6666667 C12.9407797,12.7055556 12.1183371,13.5555556 11.1131295,13.5555556 Z" id="Shape" fill="#FF7165" fill-rule="nonzero"></path>
                                    <path d="M31.0425753,27.2111111 C31.0631364,27.0333333 31.0785572,26.8555556 31.0785572,26.6666667 C31.0785572,26.4777778 31.0631364,26.3 31.0425753,26.1222222 L32.1271714,25.2055556 C32.2248365,25.1222222 32.2505378,24.9722222 32.1888546,24.85 L31.1608014,22.9277778 C31.114539,22.8388889 31.0271545,22.7888889 30.9346297,22.7888889 C30.9037881,22.7888889 30.8729465,22.7944444 30.8472452,22.8055556 L29.5673189,23.3611111 C29.3000251,23.1388889 29.0121702,22.9555556 28.698614,22.8166667 L28.5032838,21.3444444 C28.487863,21.2111111 28.3799175,21.1111111 28.2514108,21.1111111 L26.1953044,21.1111111 C26.0667977,21.1111111 25.9588521,21.2111111 25.9434313,21.3444444 L25.7481012,22.8166667 C25.434545,22.9555556 25.1466901,23.1444444 24.8793962,23.3611111 L23.59947,22.8055556 C23.5686284,22.7944444 23.5377868,22.7888889 23.5069452,22.7888889 C23.4195607,22.7888889 23.3321761,22.8388889 23.2859137,22.9277778 L22.2578605,24.85 C22.1910371,24.9722222 22.2218786,25.1222222 22.3195437,25.2055556 L23.4041399,26.1222222 C23.3835788,26.3 23.368158,26.4833333 23.368158,26.6666667 C23.368158,26.85 23.3835788,27.0333333 23.4041399,27.2111111 L22.3195437,28.1277778 C22.2218786,28.2111111 22.1961773,28.3611111 22.2578605,28.4833333 L23.2859137,30.4055556 C23.3321761,30.4944444 23.4195607,30.5444444 23.5120854,30.5444444 C23.542927,30.5444444 23.5737686,30.5388889 23.59947,30.5277778 L24.8793962,29.9722222 C25.1466901,30.1944444 25.434545,30.3777778 25.7481012,30.5166667 L25.9434313,31.9888889 C25.9588521,32.1222222 26.0667977,32.2222222 26.1953044,32.2222222 L28.2514108,32.2222222 C28.3799175,32.2222222 28.487863,32.1222222 28.5032838,31.9888889 L28.698614,30.5166667 C29.0121702,30.3777778 29.3000251,30.1888889 29.5673189,29.9722222 L30.8472452,30.5277778 C30.8780868,30.5388889 30.9089284,30.5444444 30.93977,30.5444444 C31.0271545,30.5444444 31.114539,30.4944444 31.1608014,30.4055556 L32.1888546,28.4833333 C32.2505378,28.3611111 32.2248365,28.2111111 32.1271714,28.1277778 L31.0425753,27.2111111 Z M30.0248026,26.2611111 C30.0453637,26.4333333 30.0505039,26.55 30.0505039,26.6666667 C30.0505039,26.7833333 30.0402234,26.9055556 30.0248026,27.0722222 L29.9528389,27.7 L30.4103226,28.0888889 L30.9654713,28.5555556 L30.6056527,29.2277778 L29.9528389,28.9444444 L29.4182512,28.7111111 L28.9556273,29.0888889 C28.7345958,29.2666667 28.5238449,29.4 28.313094,29.4944444 L27.7682258,29.7333333 L27.6859815,30.3611111 L27.5831762,31.1111111 L26.8635389,31.1111111 L26.7658739,30.3611111 L26.6836296,29.7333333 L26.1387614,29.4944444 C25.91773,29.3944444 25.7121193,29.2666667 25.5065087,29.1 L25.0387445,28.7111111 L24.4938763,28.95 L23.8410625,29.2333333 L23.4812438,28.5611111 L24.0363926,28.0944444 L24.4938763,27.7055556 L24.4219125,27.0777778 C24.4064917,26.9055556 24.3962112,26.7777778 24.3962112,26.6666667 C24.3962112,26.5555556 24.4064917,26.4277778 24.4219125,26.2611111 L24.4938763,25.6333333 L24.0363926,25.2444444 L23.4812438,24.7777778 L23.8410625,24.1055556 L24.4938763,24.3888889 L25.0284639,24.6222222 L25.4910879,24.2444444 C25.7121193,24.0666667 25.9228702,23.9333333 26.1336212,23.8388889 L26.6784894,23.6 L26.7607336,22.9722222 L26.8635389,22.2222222 L27.5780359,22.2222222 L27.675701,22.9722222 L27.7579453,23.6 L28.3028135,23.8388889 C28.5238449,23.9388889 28.7294555,24.0666667 28.9350662,24.2333333 L29.4028304,24.6222222 L29.9476986,24.3833333 L30.6005124,24.1 L30.960331,24.7722222 L30.4103226,25.2444444 L29.9528389,25.6333333 L30.0248026,26.2611111 Z M27.2233576,24.4444444 C26.0873588,24.4444444 25.1672511,25.4388889 25.1672511,26.6666667 C25.1672511,27.8944444 26.0873588,28.8888889 27.2233576,28.8888889 C28.3593564,28.8888889 29.279464,27.8944444 29.279464,26.6666667 C29.279464,25.4388889 28.3593564,24.4444444 27.2233576,24.4444444 Z M27.2233576,27.7777778 C26.6579283,27.7777778 26.1953044,27.2777778 26.1953044,26.6666667 C26.1953044,26.0555556 26.6579283,25.5555556 27.2233576,25.5555556 C27.7887868,25.5555556 28.2514108,26.0555556 28.2514108,26.6666667 C28.2514108,27.2777778 27.7887868,27.7777778 27.2233576,27.7777778 Z" id="Shape" fill="#FF7165" fill-rule="nonzero"></path>
                                </g>
                                <path d="M73.2956952,80.6334112 C75.7898262,80.1091311 80.6113974,81.0153716 80.916651,83.6995567 C81.1119922,85.4172496 79.0949718,86.3605558 76.6329837,86.8377766 L75.842784,86.9733444 L75.842784,86.9733444 L75.0353704,87.0800834 C74.9000541,87.0955907 74.7645359,87.1099867 74.6290735,87.1233163 C73.0562658,87.2780822 71.1418864,86.9161672 70.5305201,86.023344 C68.6554188,83.2849958 70.8015642,81.1576914 73.2956952,80.6334112 Z" id="Oval" fill="#D6DFFF"></path>
                                <g id="Group-6" transform="translate(0.000000, 35.555556)" stroke="#1F2A3B">
                                    <g id="Group-7">
                                        <circle id="Oval" cx="32.2222222" cy="32.2222222" r="31.7222222"></circle>
                                        <line x1="32.2222222" y1="0.677113232" x2="32.2222222" y2="6.00223474" id="Path-6" stroke-linecap="round"></line>
                                        <line x1="32.2222222" y1="59.2557372" x2="32.2222222" y2="63.6884674" id="Path-6" stroke-linecap="round"></line>
                                        <path d="M51.3513429,51.3371473 C51.3513429,51.3371473 52.3612216,52.3481617 54.380979,54.3701905" id="Path-6" stroke-linecap="round"></path>
                                        <line x1="54.1090147" y1="10.4045765" x2="50.9352778" y2="13.4757765" id="Path-6" stroke-linecap="round"></line>
                                        <line x1="13.0492349" y1="51.135322" x2="10.043327" y2="54.1322564" id="Path-6" stroke-linecap="round"></line>
                                        <line x1="10.1551339" y1="9.93549666" x2="13.5152083" y2="13.4697348" id="Path-6" stroke-linecap="round"></line>
                                        <line x1="63.836478" y1="32.291369" x2="58.6082856" y2="32.3278702" id="Path-6" stroke-linecap="round"></line>
                                        <line x1="6.68763103" y1="32.291369" x2="1.4594386" y2="32.3278702" id="Path-6" stroke-linecap="round"></line>
                                    </g>
                                    <polyline id="Path-5" stroke-linecap="round" points="32.2222222 17.7777778 32.2728916 34.083591 41.1111111 42.2222222"></polyline>
                                </g>
                            </g>
                        </g>
                    </g>
                </g>
            </g>
        </g>
    </g>
</svg>