<?xml version="1.0" encoding="UTF-8"?>
<svg width="99px" height="101px" viewBox="0 0 99 101" version="1.1" xmlns="http://www.w3.org/2000/svg" xmlns:xlink="http://www.w3.org/1999/xlink">
    <title>Illustration/Landing/Benefits_habits</title>
    <g id="Landing-page" stroke="none" stroke-width="1" fill="none" fill-rule="evenodd">
        <g id="Landing_buyer" transform="translate(-203.000000, -2194.000000)">
            <g id="Group-23" transform="translate(0.000000, 583.000000)">
                <g id="seller_or_buyer" transform="translate(0.000000, 347.000000)">
                    <g id="benefits" transform="translate(169.000000, 995.000000)">
                        <g id="Group-37" transform="translate(32.000000, 99.000000)">
                            <g id="Group-34" transform="translate(0.000000, 171.000000)">
                                <g id="Illustration/Landing/Benefits_habits" transform="translate(0.000000, 0.000000)">
                                    <path d="M42.922099,59.4013493 C64.4426344,59.5686403 102.514447,43.280132 100.093344,19.5188176 C98.1362843,0.311746566 69.3583197,-2.0196456 41.9748713,0.90758738 C28.7273775,2.32371657 13.6150225,8.80912855 10.218384,17.605855 C-0.199331346,44.5859985 21.4015637,59.2340583 42.922099,59.4013493 Z" id="Oval" fill="#D6DFFF"></path>
                                    <path d="M89.693823,62.7352699 C92.103467,62.7540014 96.3663496,60.9301849 96.0952598,58.2696419 C95.8761288,56.1190354 92.6538739,55.8579905 89.5877623,56.1857514 C88.1044468,56.3443147 86.4123236,57.0704832 86.0320037,58.0554484 C84.8655371,61.0764021 87.2841789,62.7165384 89.693823,62.7352699 Z" id="Oval" fill="#D6DFFF" transform="translate(90.918600, 59.402079) scale(-1, -1) rotate(30.000000) translate(-90.918600, -59.402079) "></path>
                                    <g id="woman-sitting-texting" transform="translate(38.597363, 56.805529) rotate(1.000000) translate(-38.597363, -56.805529) translate(3.912002, 14.401018)">
                                        <polygon id="Rectangle" fill="#1F161E" fill-rule="nonzero" transform="translate(64.739905, 54.106239) rotate(19.360000) translate(-64.739905, -54.106239) " points="61.971488 48.079711 67.5215785 48.0736269 67.5083229 60.1327671 61.9582325 60.1388511"></polygon>
                                        <path d="M32.7156819,20.7287437 C42.7347858,21.9441418 43.0986772,28.506716 43.7076556,31.1288843 C45.6548825,39.5010933 40.2342237,71.3154873 39.6064498,72.1920408 C37.5555038,75.0492666 32.103413,77.3867568 25.6062677,78.404069 C15.2291421,80.0289022 2.68741865,79.034559 0.861144565,77.058036 C-0.232558094,75.8743536 -0.777071519,66.7467237 2.32235945,56.8772924 C7.63875165,39.9484536 20.0631313,19.1938874 32.7156819,20.7287437 Z" id="Path" stroke="#1F2A3B" stroke-width="1.00514968" fill="#FFFFFF" fill-rule="nonzero" stroke-linecap="round"></path>
                                        <path d="M32.5204984,23.0263841 C32.3212648,23.6631964 37.5163761,25.273957 37.7156097,24.6408906 L39.7305009,18.1978484 L34.5391488,16.5833419 L32.5204984,23.0263841 Z" id="Path" fill="#F8CDBA" fill-rule="nonzero"></path>
                                        <path d="M37.6705002,19.722452 C37.1630183,19.5651219 33.4753163,19.9884148 33.227214,20.7825572 L34.5391488,16.5833419 C35.3473607,16.8343208 37.6705002,19.722452 37.6705002,19.722452 Z" id="Path" fill="#1F161E" fill-rule="nonzero"></path>
                                        <ellipse id="Oval" fill="#F8CDBA" fill-rule="nonzero" cx="40.5687859" cy="13.1557932" rx="7.62726538" ry="7.60054227"></ellipse>
                                        <ellipse id="Oval" fill="#FA9E9F" fill-rule="nonzero" transform="translate(46.899037, 16.762493) rotate(-72.670000) translate(-46.899037, -16.762493) " cx="46.8990371" cy="16.7624932" rx="1" ry="1.33783279"></ellipse>
                                        <ellipse id="Oval" fill="#FA9E9F" fill-rule="nonzero" transform="translate(38.879200, 14.270468) rotate(-72.670000) translate(-38.879200, -14.270468) " cx="38.8792002" cy="14.2704683" rx="1" ry="1.33783279"></ellipse>
                                        <path d="M44.2188966,14.4256719 C44.350466,14.8377269 45.1323641,16.6432771 43.6625461,16.819337" id="Path" stroke="#1F161E" stroke-width="0.628218552" stroke-linecap="round"></path>
                                        <path d="M40.5650267,17.6809066 C40.1891142,17.5497982 39.7380192,16.905494 39.5613403,16.3773144" id="Path" stroke="#1F161E" stroke-width="0.628218552" stroke-linecap="round"></path>
                                        <path d="M42.8768888,3.18406157 C40.8657568,2.9330826 35.0278351,1.20245149 33.7008638,-1.26318709e-13 C33.0730899,0.329644022 30.6334175,2.51353567 28.6448402,5.469094 L31.4679433,8.29728986 L27.9005334,6.65656167 C26.96038,8.19172797 26.3141561,9.88736175 25.9946568,11.6574113 C26.9156425,14.1334874 29.8064099,15.1523871 30.3514831,15.2198143 C33.8662653,15.661837 35.2157913,10.2189647 36.9863394,9.54469281 C39.9936397,8.39468469 43.5347358,11.3802107 47.9892994,11.1929129 C48.9779493,9.1813352 47.6923284,3.78716029 42.8768888,3.18406157 Z" id="Path" fill="#1F161E" fill-rule="nonzero"></path>
                                        <ellipse id="Oval" fill="#F8CDBA" fill-rule="nonzero" cx="33.5768127" cy="11.8971524" rx="1.7630298" ry="1.7568528"></ellipse>
                                        <path d="M21.5508893,39.455043 C21.1749767,41.8000107 19.9570201,63.9423495 22.8741014,66.0962735 C29.1217678,70.7075439 57.973055,65.0661359 62.3449178,63.4516294 C62.8185676,61.9082961 62.3449178,57.0048412 62.3449178,57.0048412 C60.6608296,56.937414 39.414253,56.7351325 38.1474278,55.1318638 C36.8806025,53.5285952 36.2194454,47.8743162 36.4224382,46.394664" id="Path" stroke="#1F2A3B" stroke-width="1.00514968" fill="#FFFFFF" fill-rule="nonzero" stroke-linecap="round"></path>
                                        <ellipse id="Oval" fill="#F8CDBA" fill-rule="nonzero" cx="63.7960351" cy="59.1112015" rx="5.57468804" ry="4.85362372"></ellipse>
                                        <line x1="39.6064498" y1="72.1920408" x2="45.2475611" y2="84.8090217" id="Path-2" stroke="#1F161E" stroke-linecap="round" stroke-linejoin="round"></line>
                                    </g>
                                    <g id="24-hours" transform="translate(71.111111, 7.777778)" fill="#FF6E61" fill-rule="nonzero">
                                        <polygon id="Path" points="15.8767238 1.83822059 14.7387306 2.97652309 13.8484858 3.8670099 16.0068723 4.58642856 16.8906635 4.88122523"></polygon>
                                        <g id="Group" stroke="#FF6E61" stroke-width="0.4">
                                            <path d="M8.31161474,7.50613503 L8.31161474,7.45334419 C8.31161474,6.02725623 7.15585616,4.87118354 5.73015573,4.87118354 C4.30445531,4.87118354 3.1486807,6.02725623 3.1486807,7.45334419 L3.1486807,7.74025093 C3.1486807,7.89870515 3.27711434,8.02715767 3.4355255,8.02715767 C3.59393666,8.02715767 3.72235428,7.89870515 3.72235428,7.74025093 L3.72235428,7.45334419 C3.7223543,6.34416467 4.62127762,5.44499701 5.73015573,5.44499701 C6.83903384,5.44499701 7.73795717,6.34416467 7.73795718,7.45334419 L7.73795718,7.50613503 C7.73728572,7.94217203 7.55690469,8.3586389 7.2393412,8.65734833 L3.23933462,12.4083671 C3.15347608,12.4888901 3.12550839,12.6137057 3.16879338,12.7231819 C3.21207837,12.8326582 3.31783046,12.9045723 3.4355255,12.9045723 L8.02478596,12.9045723 C8.18319712,12.9045723 8.31161474,12.7761198 8.31161474,12.6176656 C8.31161474,12.4592113 8.18319712,12.3307588 8.02478596,12.3307588 L4.16084378,12.3307588 L7.63168712,9.07594527 C8.06472077,8.66862011 8.31069316,8.10072146 8.31161474,7.50613503 L8.31161474,7.50613503 Z" id="Path"></path>
                                            <path d="M13.187704,12.9045723 C13.3461151,12.9045723 13.4745328,12.7761198 13.4745328,12.6176656 L13.4745328,10.0355049 L14.3350191,10.0355049 C14.4934302,10.0355049 14.6218479,9.90705235 14.6218479,9.74859813 C14.6218479,9.59014391 14.4934302,9.46169139 14.3350191,9.46169139 L13.4745328,9.46169139 L13.4745328,5.15809024 C13.4745388,5.03855586 13.4004528,4.93154254 13.2885863,4.88950039 C13.1767197,4.84745823 13.0505154,4.87919759 12.9718295,4.96916215 L8.95622656,9.55967004 C8.88211439,9.64439373 8.86438682,9.7646436 8.91089564,9.86715925 C8.95740445,9.9696749 9.05955412,10.0355099 9.17210107,10.0355049 L12.9008752,10.0355049 L12.9008752,12.6176656 C12.9008752,12.7761198 13.0292928,12.9045723 13.187704,12.9045723 Z M12.9008752,5.92169254 L12.9008752,9.46169139 L9.80419999,9.46169139 L12.9008752,5.92169254 Z" id="Shape"></path>
                                            <path d="M17.4804552,6.60230706 C17.4366513,6.4531035 17.2819897,6.36596561 17.1317223,6.40582743 C16.9814549,6.44568926 16.8902883,6.59803863 16.9261586,6.74934676 C17.9940214,10.7557788 15.9522947,14.9376376 12.1369365,16.5586176 C8.32157843,18.1795976 3.89526848,16.7457268 1.75426345,13.1952263 C-0.386741574,9.64472582 0.410001085,5.05956346 3.62316072,2.4399375 C6.83632035,-0.179688468 11.4867294,-0.0354819231 14.5314968,2.77819881 L13.6455544,3.66402338 C13.5754202,3.73443854 13.5466551,3.83611276 13.5695002,3.9328474 C13.5923453,4.02958203 13.6635547,4.1076332 13.7577762,4.13921267 L16.7999539,5.15342801 C16.9030304,5.18781229 17.0166817,5.16098401 17.093514,5.08413084 C17.1703463,5.00727767 17.1971672,4.89359549 17.1627923,4.79049098 L16.1488526,1.74748633 C16.1172817,1.65323928 16.0392517,1.58201046 15.9425434,1.55915918 C15.845835,1.53630791 15.7441884,1.56508084 15.6737924,1.63523407 L14.9373595,2.37222577 C11.3856237,-0.921947371 5.8513761,-0.766609185 2.48990849,2.7216074 C-0.871559111,6.20982399 -0.823507124,11.7475463 2.59798547,15.1768737 C5.44269184,18.0176427 9.83859855,18.596953 13.3217968,16.5901009 C16.8049951,14.5832487 18.5097131,10.4890505 17.4804552,6.60230706 L17.4804552,6.60230706 Z M15.7512362,2.3693567 L16.437474,4.42791258 L14.3794775,3.7414882 L15.7512362,2.3693567 Z" id="Shape"></path>
                                        </g>
                                    </g>
                                </g>
                            </g>
                        </g>
                    </g>
                </g>
            </g>
        </g>
    </g>
</svg>