<svg width="47" height="47" viewBox="0 0 47 47" fill="none" xmlns="http://www.w3.org/2000/svg">
<path d="M47 23.5C47 36.4787 36.4787 47 23.5 47C10.5213 47 0 36.4787 0 23.5C0 10.5213 10.5213 0 23.5 0C36.4787 0 47 10.5213 47 23.5Z" fill="#66DF9C"/>
<rect width="24" height="24" transform="translate(12 12)" fill="#66DF9C"/>
<path d="M24 13L15 17V23C15 28.55 18.84 33.74 24 35C29.16 33.74 33 28.55 33 23V17L24 13ZM24 23.99H31C30.47 28.11 27.72 31.78 24 32.93V24H17V18.3L24 15.19V23.99Z" fill="white"/>
</svg>
