<?xml version="1.0" encoding="UTF-8"?>
<svg width="380px" height="380px" viewBox="0 0 380 380" version="1.1" xmlns="http://www.w3.org/2000/svg" xmlns:xlink="http://www.w3.org/1999/xlink">
    <g id="Illustrations/Ligth/380px/congratulations" stroke="none" stroke-width="1" fill="none" fill-rule="evenodd">
        <g id="Group-5" transform="translate(114.000000, 18.000000)">
            <g id="Group" transform="translate(56.618764, 93.008643) rotate(-9.000000) translate(-56.618764, -93.008643) translate(13.118764, 6.008643)" fill-rule="nonzero">
                <ellipse id="Oval" fill="#FF6E61" transform="translate(42.069508, 46.689622) rotate(-64.385648) translate(-42.069508, -46.689622) " cx="42.0695076" cy="46.6896217" rx="35.1426497" ry="27.0796878"></ellipse>
                <path d="M12.0734876,131.940054 C11.2256528,136.472106 10.2540719,140.979315 9.00321695,145.43361 C7.27764107,151.675131 4.29710091,160.912581 0.0615964741,173.145961 C0.207083548,173.626814 0.441358891,173.753136 0.764422503,173.524927 C1.24901792,173.182615 6.24753871,159.59325 9.28558391,149.459391 C10.9877649,143.798967 12.1987818,138.038476 13.2564799,132.2468 C13.2176321,132.240647 12.0606876,131.938076 12.0734876,131.940054 Z" id="Path" fill="#000000"></path>
                <path d="M14.1328834,119.921395 C13.9060984,121.297441 13.6805278,122.673488 13.4517697,124.048759 C13.4785053,124.052976 14.641116,124.305468 14.6464155,124.272008 C15.9920656,116.365558 17.3404821,108.459808 19.5449169,100.728719 C22.0391584,91.9749864 25.9922958,83.7361793 32.486736,77.2293941 C33.1926534,76.6208458 32.1573079,75.5909949 31.5455128,76.2463546 C19.9684673,87.9023943 16.7212473,104.333197 14.1328834,119.921395 Z" id="Path" fill="#000000"></path>
                <ellipse id="Oval" stroke="#000000" stroke-width="1.5" transform="translate(46.489564, 44.352295) rotate(-64.385648) translate(-46.489564, -44.352295) " cx="46.4895643" cy="44.3522946" rx="35.1426497" ry="27.0796878"></ellipse>
            </g>
            <g id="woman-writing" transform="translate(29.000000, 93.000000)">
                <path d="M116.351056,245.77988 C116.40053,246.593447 116.900764,249.583625 116.2686,250.424677 C115.108718,251.947367 104.977611,251.870408 104.477378,251.430642 C103.977144,250.990876 103.636325,250.012397 104.043109,249.704561 C104.449892,249.396725 108.413282,248.341287 108.930007,247.934503 C109.446732,247.52772 110.084393,246.336778 109.738077,245.275843 L116.351056,245.77988 Z" id="Path" fill="#000000" fill-rule="nonzero"></path>
                <path d="M66.1407876,112.503105 C64.4147065,116.417021 49.9189239,159.05782 50.2542453,165.27501 C50.5895668,171.4922 84.1327089,235.555094 85.9852227,236.231234 C87.8377364,236.907374 95.5336392,234.543632 96.1548085,232.861528 C96.6759217,231.450372 88.0976289,204.315597 85.1225937,189.830182" id="Path" stroke="#000000" fill-rule="nonzero"></path>
                <path d="M66.1407876,112.503105 C67.0093252,117.11515 81.4336459,180.716289 81.4336459,180.716289 L107.880066,244.762692 C110.078896,245.834621 116.548951,245.95006 117.681348,245.609241 C118.813745,245.268423 113.37714,183.937574 111.227784,175.246701 C109.502112,168.268984 105.43699,126.755241 103.932428,111.150687" id="Path" stroke="#000000" fill-rule="nonzero"></path>
                <path d="M94.964384,234.005983 C95.261226,234.759082 96.9189017,238.452051 96.561592,239.447022 C95.9184344,241.250062 86.2545793,244.262458 85.6444041,243.993101 C85.034229,243.723745 84.4075626,242.893687 84.6989075,242.481406 C84.9902524,242.069126 88.4479116,239.859302 88.8217126,239.309595 C89.1955136,238.759888 89.4813614,236.989576 88.8217126,236.082559 L94.964384,234.005983 Z" id="Path" fill="#000000" fill-rule="nonzero"></path>
                <path d="M78.481529,34.6149353 L78.481529,42.3956432 C81.3731152,41.7718466 83.887173,41.9661139 86.0237022,42.978445 L86.0237022,33.3397392" id="Path" stroke="#000000" fill-rule="nonzero"></path>
                <circle id="Oval" stroke="#000000" fill-rule="nonzero" cx="80.9334122" cy="24.8302807" r="9.99917658"></circle>
                <ellipse id="Oval" fill="#FF6E61" fill-rule="nonzero" cx="70.8242941" cy="26.1715666" rx="1.67111032" ry="1"></ellipse>
                <ellipse id="Oval" fill="#FF6E61" fill-rule="nonzero" cx="81.3127103" cy="26.1715666" rx="1.67111032" ry="1"></ellipse>
                <path d="M74.8976256,24.3685265 C74.5842924,24.8137895 72.9791469,26.6827945 74.6722455,27.4413906" id="Path" stroke="#000000" stroke-width="0.62" stroke-linecap="round"></path>
                <path d="M78.0584428,29.6237287 C78.7326433,29.4414398 79.3182941,29.0217234 79.7075648,28.441858" id="Path" stroke="#000000" stroke-width="0.62" stroke-linecap="round"></path>
                <path d="M105.173895,109.545679 C116.261493,109.24334 123.123451,100.854806 123.123451,80.8839385 C123.123451,72.6383284 109.41375,47.8135447 106.692698,38.4355375 C105.285448,33.5926158 106.417845,19.3442014 99.2331696,12.0935616 C95.7700134,8.60291993 80.54312,9.42748094 76.6127125,11.0711059 C72.682305,12.7147309 73.1440591,17.667594 73.5453455,18.4426814 C74.485345,17.6511028 76.5467476,16.0459574 76.9150515,16.095431 C78.8445243,16.3318052 84.1107206,22.2576503 85.710369,24.9787017 C87.0076783,27.1775311 85.0067436,40.8322615 87.5408945,44.7351836 C90.0750453,48.6381058 93.7938407,49.5159008 93.7938407,49.5159008 C98.8436326,56.3939075 102.370123,67.3643265 104.37331,82.4271578 C105.960561,94.362378 106.227423,103.401885 105.173895,109.545679 Z" id="Path" fill="#000000" fill-rule="nonzero"></path>
                <path d="M73.0056466,44.5862892 C75.574624,42.1806237 78.7728286,40.9820333 82.7309552,41.4809161 C85.4342691,41.5867458 87.8740531,43.1303196 90.0593446,45.6757348 L90.3004253,44.8451251 C99.705918,52.9038347 109.490709,88.0191398 109.490709,92.3398396 C109.490709,104.521354 97.2102466,126.207309 97.2102466,126.207309 C97.2102466,126.207309 95.8596873,125.146024 94.4247603,124.029366 L94.0322762,123.724206 C93.1160385,123.012489 92.2122496,122.315381 91.6472083,121.892106 C91.985369,121.359919 93.0069754,115.558631 93.936817,109.54332 C83.1192512,112.042419 67.7717639,114.31975 66.1407876,112.503105 C64.78687,110.995058 61.988787,88.6770966 64.1128452,69.4371362 C61.2103677,70.593661 57.0743845,72.003153 52.9606028,73.3039845 L52.0526011,73.589467 C45.7061378,75.573448 39.6338995,77.2338818 38.479514,77.2338818 C37.3416198,77.2338818 30.5541568,71.4656685 23.5041406,65.1648347 L22.5835271,64.3403966 C14.5996466,57.1765472 6.57955714,49.6229614 6.30514323,49.2427838 C5.77742418,48.5116731 7.94876819,46.2688671 9.37251021,44.8451251 C10.0743406,45.2992507 16.0519055,48.7073515 22.4451391,52.1962528 L23.280997,52.6515489 C30.2594661,56.4455664 37.4793832,60.187457 38.699397,60.187457 C39.8471859,60.187457 46.8564559,57.0325415 54.3184328,53.5258864 L55.2531465,53.0859253 L55.2531465,53.0859253 L56.1902283,52.6435169 C56.5027228,52.4957748 56.8152207,52.3478275 57.1273308,52.1998779 L58.0621062,51.7562249 C64.5919123,48.6534437 70.77814,45.639059 72.9973333,44.5909795 Z" id="Combined-Shape" fill="#000000" fill-rule="nonzero"></path>
                <path d="M4.51584583,49.5048896 C7.09943913,49.5048896 9.5728373,47.4813249 9.5728373,45.3500881 C9.5728373,43.2188513 7.2616028,41.3105069 4.67800949,41.3105069 C2.09441619,41.3105069 -1.77806903e-11,43.0382156 -1.77806903e-11,45.1694524 C-1.77806903e-11,47.3006892 1.93225252,49.5048896 4.51584583,49.5048896 Z" id="Oval" stroke="#000000" fill-rule="nonzero"></path>
                <path d="M82.8189084,70.5604346 C84.3525919,72.4789132 95.6765631,92.9115352 95.6765631,95.9843992 C95.6765631,97.5070886 94.846505,103.630828 93.9339909,109.545679" id="Path" stroke="#FFFFFF" stroke-linecap="round" stroke-linejoin="round"></path>
                <path d="M86.5294329,41.4479337 C86.0621817,45.5047739 97.8973808,59.659738 102.509425,63.8045314 C107.115973,57.9996218 104.350945,43.6192777 104.350945,43.6192777 L94.9509494,39.2765897 L86.5294329,41.4479337 Z" id="Path" fill="#000000" fill-rule="nonzero"></path>
                <ellipse id="Oval" fill="#000000" fill-rule="nonzero" cx="97.2102466" cy="5.72795052" rx="4.85391584" ry="5.72795052"></ellipse>
                <path d="M69.0982131,50.754479 C66.8224247,55.7513188 64.8966921,62.6279215 64.0941194,69.5652282" id="Path" stroke="#FFFFFF" stroke-linecap="round" stroke-linejoin="round"></path>
                <path d="M86.0237022,42.6133133 C90.9325888,48.0092242 93.4615224,50.4128412 98.2053742,59.6009725 C102.949226,68.7891037 102.949226,69.5652282 104.94521,79.0148892 C106.319144,86.9253224 106.755253,86.380778 106.755253,96.697838 C106.755253,101.646173 106.120341,105.968161 105.173895,109.545679" id="Path-2" stroke="#FFFFFF" stroke-linecap="round"></path>
            </g>
        </g>
    </g>
</svg>
