<?xml version="1.0" encoding="UTF-8"?>
<svg width="269px" height="200px" viewBox="0 0 269 200" version="1.1" xmlns="http://www.w3.org/2000/svg" xmlns:xlink="http://www.w3.org/1999/xlink">
    <title>seller_manage-offer</title>
    <defs>
        <rect id="path-1" x="0" y="0" width="205.764025" height="199.146402"></rect>
        <rect id="path-3" x="43.2518007" y="24.0280538" width="204.271113" height="154.338462" rx="4"></rect>
        <filter x="-15.2%" y="-20.1%" width="131.3%" height="141.5%" filterUnits="objectBoundingBox" id="filter-5">
            <feMorphology radius="0.5" operator="dilate" in="SourceAlpha" result="shadowSpreadOuter1"></feMorphology>
            <feOffset dx="1" dy="1" in="shadowSpreadOuter1" result="shadowOffsetOuter1"></feOffset>
            <feGaussianBlur stdDeviation="10" in="shadowOffsetOuter1" result="shadowBlurOuter1"></feGaussianBlur>
            <feColorMatrix values="0 0 0 0 0   0 0 0 0 0   0 0 0 0 0  0 0 0 0.154103099 0" type="matrix" in="shadowBlurOuter1"></feColorMatrix>
        </filter>
        <ellipse id="path-6" cx="32.4627709" cy="32.3612903" rx="23.0375365" ry="23.0525379"></ellipse>
        <ellipse id="path-8" cx="25.9635543" cy="25.8890323" rx="18.4498302" ry="18.4168298"></ellipse>
        <ellipse id="path-10" cx="29.7348942" cy="29.6133207" rx="20.9959762" ry="21.2036095"></ellipse>
    </defs>
    <g id="A-Content" stroke="none" stroke-width="1" fill="none" fill-rule="evenodd">
        <g id="Landing_desktop_1440-seller" transform="translate(-291.000000, -1443.000000)">
            <g id="how-it-works_seller" transform="translate(-2.000000, 479.000000)">
                <g id="Group" transform="translate(180.250000, 222.141311)">
                    <g id="surface-left" transform="translate(2.000000, 709.858689)">
                        <g id="seller_manage-offer" transform="translate(110.750000, 31.941447)">
                            <g id="Group-17" transform="translate(0.000000, 0.362577)">
                                <g id="Group-18">
                                    <mask id="mask-2" fill="white">
                                        <use xlink:href="#path-1"></use>
                                    </mask>
                                    <use id="Rectangle" fill="#E0E5FF" xlink:href="#path-1"></use>
                                    <mask id="mask-4" fill="white">
                                        <use xlink:href="#path-3"></use>
                                    </mask>
                                    <g id="surface">
                                        <use fill="black" fill-opacity="1" filter="url(#filter-5)" xlink:href="#path-3"></use>
                                        <use fill="#FFFFFF" fill-rule="evenodd" xlink:href="#path-3"></use>
                                    </g>
                                    <g id="seller-2" mask="url(#mask-4)">
                                        <g transform="translate(71.719154, 52.406416) scale(-1, 1) translate(-71.719154, -52.406416) translate(39.256383, 20.045126)">
                                            <mask id="mask-7" fill="white">
                                                <use xlink:href="#path-6"></use>
                                            </mask>
                                            <use id="Oval" stroke="none" fill="#E6EBFF" fill-rule="evenodd" transform="translate(32.462771, 32.361290) rotate(51.000000) translate(-32.462771, -32.361290) " xlink:href="#path-6"></use>
                                            <g id="Illustrations/Ligth/380px/congratulations" stroke="none" stroke-width="1" fill="none" fill-rule="evenodd" mask="url(#mask-7)">
                                                <g transform="translate(-51.887129, -53.404943)" id="Group-5">
                                                    <g id="Group" transform="translate(40.868583, 66.941157) rotate(-9.000000) translate(-40.868583, -66.941157) translate(9.471206, 4.122881)" fill-rule="nonzero">
                                                        <ellipse id="Oval" fill="#FF6E61" transform="translate(30.660110, 33.273111) rotate(-64.385648) translate(-30.660110, -33.273111) " cx="30.6601104" cy="33.2731114" rx="25.5834539" ry="19.751243"></ellipse>
                                                        <path d="M8.76706074,95.2999232 C8.14825569,98.5973704 7.43913263,101.876741 6.52617718,105.117613 C5.26673948,109.658841 3.09134709,116.379858 0,125.280664 C0.106185945,125.630524 0.277175354,125.722434 0.512968227,125.556393 C0.866657535,125.307333 4.51490367,115.419934 6.73226699,108.046705 C7.97462959,103.928273 8.85850864,99.7370353 9.6304856,95.5231071 C9.60213196,95.5186304 8.75771845,95.2984843 8.76706074,95.2999232 Z" id="Path" fill="#000000"></path>
                                                        <path d="M10.270142,86.5553448 C10.1046195,87.5565337 9.93998335,88.5577226 9.77302078,89.5583469 C9.7925342,89.5614151 10.6410832,89.7451245 10.6449512,89.7207795 C11.6270943,83.9681765 12.6112565,78.2160826 14.2201966,72.5910697 C16.0406566,66.2219978 18.9259138,60.2275773 23.6659794,55.4933474 C24.1812039,55.0505777 23.4255413,54.3012751 22.9790133,54.778104 C14.5293313,63.2588468 12.1592985,75.2136287 10.270142,86.5553448 Z" id="Path" fill="#000000"></path>
                                                        <ellipse id="Oval" stroke="#000000" stroke-width="1.5" transform="translate(33.886156, 31.572511) rotate(-64.385648) translate(-33.886156, -31.572511) " cx="33.8861558" cy="31.5725106" rx="25.5834539" ry="19.751243"></ellipse>
                                                    </g>
                                                    <g id="woman-writing" transform="translate(20.979737, 68.515035)">
                                                        <path d="M84.9205814,176.98405 C84.9566905,177.575988 85.3217936,179.751592 84.8603996,180.363528 C84.0138417,181.471412 76.6195003,181.415418 76.2543971,181.095451 C75.889294,180.775485 75.6405424,180.063559 75.9374395,179.839583 C76.2343365,179.615606 79.1270767,178.847687 79.5042162,178.551718 C79.8813557,178.255749 80.3467619,177.38924 80.0939982,176.617321 L84.9205814,176.98405 Z" id="Path" fill="#000000" fill-rule="nonzero"></path>
                                                        <path d="M48.273856,80.0140607 C47.0140495,82.8617618 36.4340829,113.886505 36.6788224,118.410031 C36.9235619,122.933556 61.4055324,169.544663 62.7576176,170.036612 C64.1097028,170.52856 69.7266741,168.808741 70.1800439,167.584869 C70.5603863,166.558135 64.2993893,146.81532 62.1280148,136.27597" id="Path" stroke="#000000" fill-rule="nonzero"></path>
                                                        <path d="M48.273856,80.0140607 C48.9077713,83.3697085 59.4355803,129.644851 59.4355803,129.644851 L78.7379009,176.24396 C80.3427498,177.023878 85.0650178,177.10787 85.891515,176.859896 C86.7180122,176.611922 82.7500232,131.988605 81.1812834,125.665269 C79.9217756,120.588397 76.9547849,90.3836802 75.8566572,79.0300633" id="Path" stroke="#000000" fill-rule="nonzero"></path>
                                                        <path d="M69.3111946,168.417556 C69.5278492,168.965498 70.7377289,171.652442 70.476941,172.376366 C70.0075227,173.688229 62.9542116,175.879999 62.508866,175.684019 C62.0635204,175.48804 61.6061385,174.884103 61.818781,174.584135 C62.0314235,174.284166 64.5550484,172.676335 64.8278727,172.276377 C65.100697,171.876419 65.3093274,170.588369 64.8278727,169.928439 L69.3111946,168.417556 Z" id="Path" fill="#000000" fill-rule="nonzero"></path>
                                                        <path d="M57.2809331,23.3439098 L57.2809331,29.0050248 C59.3914011,28.5511607 61.2263242,28.6925064 62.7857025,29.4290618 L62.7857025,22.4160981" id="Path" stroke="#000000" stroke-width="0.6" fill-rule="nonzero"></path>
                                                        <ellipse id="Oval" stroke="#000000" stroke-width="0.6" fill-rule="nonzero" cx="59.0704772" cy="16.2247561" rx="7.29805053" ry="7.27523638"></ellipse>
                                                        <path d="M54.6651668,16.313202 C54.4364759,16.637168 53.2649361,17.9970253 54.5006698,18.5489673" id="Path" stroke="#000000" stroke-width="0.62" stroke-linecap="round"></path>
                                                        <path d="M56.4509594,20.0847331 C57.1561048,19.8946734 57.7686362,19.4570648 58.1757739,18.8524803" id="Path" stroke="#000000" stroke-width="0.62" stroke-linecap="round"></path>
                                                        <path d="M77.8712824,23.7405819 C78.12966,20.4284832 77.6706763,11.4309427 72.4268324,6.75590272 C69.8991954,4.50522007 58.7856165,5.03687739 55.916949,6.09664765 C53.0482815,7.1564179 53.3852998,10.3499062 53.6781847,10.8496641 C54.3642577,10.339273 55.8688035,9.30431347 56.1376157,9.33621291 C57.5458707,9.48862134 61.3894839,13.3094653 62.5570115,15.0639344 C63.5038724,16.4816873 58.5846004,28.2838056 60.4341888,30.800317 C61.6672477,32.4779912 64.8372567,32.9193197 69.9442156,32.1243027 C74.9144007,30.5670141 77.5567563,27.7724405 77.8712824,23.7405819 Z" id="Path" fill="#000000" fill-rule="nonzero"></path>
                                                        <path d="M58.9453857,27.1261272 C60.8204421,25.3756237 63.1547919,24.5034403 66.0438396,24.866438 C68.0166179,24.9434271 69.7971087,26.0662022 71.3919054,27.9177408 L71.5685321,27.3141811 C78.4332734,33.1775656 85.5748512,58.726884 85.5748512,61.870554 C85.5748512,70.7336237 76.6117699,86.5119676 76.6117699,86.5119676 C76.6117699,86.5119676 73.6708842,84.2082094 72.5515021,83.3722972 C72.7247023,83.1005718 73.1435498,80.9409216 73.6125161,78.1643848 L73.7358634,77.426913 C73.8968411,76.4553049 74.0616031,75.4258331 74.2225962,74.3875972 C66.3275495,76.2057812 55.1256634,77.8627936 53.9352544,76.5410142 C52.9470664,75.4437723 50.9048094,59.2052487 52.4551806,45.2064664 C50.4155518,46.0171203 47.5395078,46.9985094 44.6471912,47.9155187 L43.7946348,48.1838298 C39.1115367,49.6468223 34.5973979,50.8797076 33.7462548,50.8797076 C32.9157455,50.8797076 27.9618128,46.6828505 22.8162516,42.0984675 L22.1443279,41.4986199 C16.3171717,36.2863209 10.4635879,30.7904562 10.2633028,30.5138452 C9.87813904,29.9819011 11.4629274,28.3500723 12.502067,27.3141811 C13.0269949,27.6527784 17.5955865,30.2484156 22.3905183,32.8514208 L23.1489372,33.2621549 C28.083651,35.9280605 33.0451491,38.4770094 33.9067397,38.4770094 C34.8307079,38.4770094 40.9588846,35.6846243 46.9946535,32.8363216 L47.7984101,32.4564568 C52.6120841,30.1781625 57.2159577,27.9419183 58.8981633,27.1487955 Z" id="Combined-Shape" fill="#000000" fill-rule="nonzero"></path>
                                                        <path d="M3.2959585,34.1775956 C5.18163322,34.1775956 6.98688035,32.7052832 6.98688035,31.1546304 C6.98688035,29.6039775 5.29999083,28.2154975 3.41431611,28.2154975 C1.52864139,28.2154975 0,29.47255 0,31.0232028 C0,32.5738556 1.41028378,34.1775956 3.2959585,34.1775956 Z" id="Oval" stroke="#000000" fill-rule="nonzero"></path>
                                                        <path d="M60.4466351,49.4972638 C61.5660173,50.8931172 69.8309893,65.7595569 69.8309893,67.9953222 C69.8309893,69.1032059 69.2251588,73.5587382 68.5591465,77.8622865" id="Path" stroke="#FFFFFF" stroke-linecap="round" stroke-linejoin="round"></path>
                                                        <ellipse id="Oval" fill="#000000" fill-rule="nonzero" cx="71.6916244" cy="5.00433286" rx="4.25401416" ry="5.00433286"></ellipse>
                                                        <g id="Group-2" transform="translate(48.549420, 3.600015)">
                                                            <ellipse id="Oval" fill="#FF6E61" fill-rule="nonzero" transform="translate(18.350674, 1.499837) rotate(-51.070000) translate(-18.350674, -1.499837) " cx="18.3506741" cy="1.49983685" rx="1" ry="1.45385404"></ellipse>
                                                            <ellipse id="Oval" fill="#FF6E61" fill-rule="nonzero" transform="translate(19.679861, 1.877955) rotate(-100.070000) translate(-19.679861, -1.877955) " cx="19.6798613" cy="1.87795517" rx="1" ry="1.45551125"></ellipse>
                                                            <ellipse id="Oval" stroke="#000000" stroke-width="0.6" fill="#E6EBFF" cx="2.77243818" cy="10.5386858" rx="2.47243818" ry="2.46377137"></ellipse>
                                                            <ellipse id="Oval" stroke="#000000" stroke-width="0.6" fill="#E6EBFF" cx="9.49502113" cy="10.920907" rx="2.64473731" ry="2.63553188"></ellipse>
                                                            <path d="M8.76157063,11.2094005 C9.25326356,11.0926852 9.68062773,10.8250109 9.96497659,10.4556619" id="Path" stroke="#000000" stroke-width="0.62" stroke-linecap="round" transform="translate(9.363274, 10.832531) rotate(-143.000000) translate(-9.363274, -10.832531) "></path>
                                                            <path d="M2.43344062,10.9714371 C2.92513355,10.8547219 3.35249772,10.5870475 3.63684658,10.2176985" id="Path" stroke="#000000" stroke-width="0.62" stroke-linecap="round" transform="translate(3.035144, 10.594568) rotate(-143.000000) translate(-3.035144, -10.594568) "></path>
                                                        </g>
                                                    </g>
                                                </g>
                                            </g>
                                        </g>
                                    </g>
                                </g>
                                <g id="man-walking-texting" transform="translate(141.871486, 78.607835)">
                                    <path d="M8.85038302,44.2325306 C7.40641489,43.2226809 1.28354228,35.8022387 0.561558213,33.3083007 C-0.160425853,30.8143626 -0.703313096,21.413276 6.4381727,23.5501402 C13.5796585,25.6870044 10.3559157,33.2190322 15.3930138,37.9669993" id="Path" stroke="#000000" fill="#FFFFFF" fill-rule="nonzero"></path>
                                    <polygon id="Rectangle" fill="#1F161E" fill-rule="nonzero" transform="translate(8.848363, 26.410504) rotate(-38.600000) translate(-8.848363, -26.410504) " points="4.70644782 17.4161862 12.9628274 17.4287858 12.9902787 35.4048224 4.73389909 35.3922228"></polygon>
                                    <path d="M97.3242133,37.9669993 C99.0816009,39.596149 120.082706,74.9090681 120.082706,78.6862406 C120.082706,81.2043556 116.784128,88.2403076 110.186972,99.7940967 C101.611799,58.5760318 97.3242133,37.9669993 97.3242133,37.9669993 Z" id="Path" fill="#1F161E" fill-rule="nonzero"></path>
                                    <path d="M86.751904,29.5701832 C103.997436,29.5701832 113.138836,52.9952495 114.176105,99.8453821 L63.4525268,99.9611567 C63.1241826,53.033841 70.8906417,29.5701832 86.751904,29.5701832 Z" id="Path" fill="#E0E5FF" fill-rule="nonzero"></path>
                                    <path d="M82.1009834,32.6053114 C82.1009834,34.2233025 91.0558245,34.3460467 91.0558245,32.6053114 L91.0558245,21.7591914 L82.1009834,21.7591914 L82.1009834,32.6053114 Z" id="Path" stroke="#000000" fill="#FFFFFF" fill-rule="nonzero"></path>
                                    <path d="M91.0670181,28.2255767 C91.0670181,27.2603613 88.8283078,23.9295312 87.1492751,24.4930385 C89.2592595,23.7509943 90.3002598,21.2180012 91.0670181,21.7368743 L91.0670181,28.2255767 Z" id="Path" fill="#000000" fill-rule="nonzero"></path>
                                    <ellipse id="Oval" stroke="#000000" fill="#FFFFFF" fill-rule="nonzero" cx="82.6046932" cy="13.797559" rx="11.6468902" ry="11.6104813"></ellipse>
                                    <ellipse id="Oval" fill="#FA9E9F" fill-rule="nonzero" cx="70.8290771" cy="15.3541781" rx="1.94208117" ry="1.00984965"></ellipse>
                                    <ellipse id="Oval" fill="#FA9E9F" fill-rule="nonzero" cx="83.0412417" cy="15.3541781" rx="1.94208117" ry="1.00984965"></ellipse>
                                    <path d="M75.5583526,13.2619482 C75.2001589,13.7808212 73.3196423,15.9511611 75.3009009,16.827108" id="Path" stroke="#1F161E" stroke-width="0.69" stroke-linecap="round"></path>
                                    <path d="M79.2298375,19.360101 C79.789515,19.360101 80.712983,18.6403739 81.1887089,17.9875982" id="Path" stroke="#1F161E" stroke-width="0.69" stroke-linecap="round"></path>
                                    <path d="M93.7366801,7.0298926 C93.7366801,3.00165255 88.1007269,1.41502029e-14 84.1773872,1.41502029e-14 C77.9313855,1.41502029e-14 70.3197705,1.51756412 69.0660928,1.95832722 C66.9617051,2.68921288 66.6035115,4.9265041 66.6035115,5.6741276 C66.6035115,8.80968287 67.7228666,10.7624308 71.2152546,11.2534074 C71.4543818,10.1473527 71.8660856,9.08554036 72.4353518,8.10669361 C73.4016703,7.73637955 74.4682142,7.71859351 75.4464171,8.05648009 C76.3307076,8.36334048 83.7184516,11.8336525 89.1865014,11.8336525 C89.9140823,12.8546608 91.5147601,19.0867163 91.044631,21.731295 C92.6453088,21.8261427 95.5948096,16.6318332 95.7459225,13.9203032 C95.8152401,12.0334088 94.985022,10.2250531 93.5072123,9.04401262 C93.5799703,8.45818824 93.7366801,7.34791155 93.7366801,7.0298926 Z" id="Path" fill="#000000" fill-rule="nonzero"></path>
                                    <path d="M93.5519865,54.1190145 C87.1380815,63.8883335 52.4604593,79.2983044 48.8113615,79.2983044 C39.1345363,79.2983044 10.4846415,47.6024156 8.85038302,44.221372 C10.7364964,42.2128313 14.7549814,37.9558408 15.3818203,37.9558408 C16.0086591,37.9558408 43.2817471,56.7468553 48.4363775,56.7468553 C53.591008,56.7468553 78.0209339,39.6128869 81.1999025,38.8429463" id="Path" fill="#E0E5FF" fill-rule="nonzero"></path>
                                    <path d="M72.5584808,43.7471332 C76.7840465,41.130451 80.1477087,39.0940138 81.1999025,38.8429463" id="Path" stroke="#1F161E" stroke-linecap="round" stroke-linejoin="round"></path>
                                    <path d="M65.2994627,72.7817055 C76.4930141,67.4200176 89.8189371,59.8210385 93.5519865,54.130173" id="Path" stroke="#1F161E" stroke-linecap="round" stroke-linejoin="round"></path>
                                    <path d="M63.4917042,86.607161 C63.721172,84.4256626 75.0602396,67.8384636 77.2485789,66.5552292 C74.9259169,67.8440429 66.1333823,72.2907289 65.2994627,72.7817055 C64.8125432,74.0816777 63.4917042,86.607161 63.4917042,86.607161 Z" id="Path" fill="#1F161E" fill-rule="nonzero"></path>
                                </g>
                            </g>
                            <g id="movie-library" transform="translate(44.094267, 22.634053)">
                                <g id="seller-2" transform="translate(87.924591, -0.000000)">
                                    <mask id="mask-9" fill="white">
                                        <use xlink:href="#path-8"></use>
                                    </mask>
                                    <use id="Oval" fill="#E0E5FF" transform="translate(25.963554, 25.889032) rotate(51.000000) translate(-25.963554, -25.889032) " xlink:href="#path-8"></use>
                                    <g id="Illustrations/Ligth/380px/congratulations" mask="url(#mask-9)">
                                        <g transform="translate(-36.790735, -39.763883)" id="Group-5">
                                            <g id="Group" transform="translate(30.412663, 50.101968) rotate(-9.000000) translate(-30.412663, -50.101968) translate(7.095458, 3.057010)" fill-rule="nonzero">
                                                <ellipse id="Oval" fill="#FF6E61" transform="translate(22.717405, 24.845538) rotate(-64.385648) translate(-22.717405, -24.845538) " cx="22.7174048" cy="24.845538" rx="19.1372614" ry="14.6657748"></ellipse>
                                                <path d="M6.49589533,71.3467067 C6.03739584,73.8187852 5.51197583,76.2773118 4.83552757,78.7069762 C3.90235558,82.1115103 2.29051306,87.1502208 -9.08452866e-13,93.8231076 C0.0786777696,94.0853958 0.205371235,94.1543001 0.380080395,94.0298205 C0.642144135,93.843101 3.34528784,86.4305714 4.98822844,80.9029007 C5.90874874,77.8153346 6.56365304,74.6731859 7.13564423,71.5140265 C7.1146358,71.5106703 6.48897322,71.345628 6.49589533,71.3467067 Z" id="Path" fill="#000000"></path>
                                                <path d="M7.60959338,64.7909431 C7.48695062,65.5415291 7.36496454,66.2921151 7.24125473,67.0422777 C7.25571307,67.0445779 7.88443982,67.1823039 7.88730576,67.1640525 C8.61501813,62.8513569 9.3442266,58.5390429 10.5363601,54.3220008 C11.8852178,49.5471417 14.0230299,45.0531567 17.53515,41.50393 C17.9169021,41.1719879 17.356999,40.6102398 17.0261471,40.9677158 C10.7654114,47.3256833 9.00935136,56.2881192 7.60959338,64.7909431 Z" id="Path" fill="#000000"></path>
                                                <ellipse id="Oval" stroke="#000000" stroke-width="1.5" transform="translate(25.107722, 23.570607) rotate(-64.385648) translate(-25.107722, -23.570607) " cx="25.1077217" cy="23.5706067" rx="19.1372614" ry="14.6657748"></ellipse>
                                            </g>
                                            <g id="woman-writing" transform="translate(15.615507, 49.860838)">
                                                <path d="M62.9213398,134.064443 C62.9480946,134.508216 63.2186154,136.139255 62.8767485,136.59802 C62.2494971,137.428594 56.770709,137.386616 56.5001883,137.146739 C56.2296675,136.906862 56.0453567,136.373135 56.2653406,136.205221 C56.4853245,136.037307 58.6286811,135.461602 58.9081201,135.239716 C59.1875591,135.017829 59.5323987,134.368212 59.3451151,133.789508 L62.9213398,134.064443 Z" id="Path" fill="#000000" fill-rule="nonzero"></path>
                                                <path d="M35.7681924,61.3665615 C34.8347472,63.5014677 26.9955914,86.7605519 27.1769295,90.1518146 C27.3582675,93.5430772 45.4980207,128.487175 46.4998393,128.855986 C47.5016578,129.224797 51.6635153,127.935458 51.9994367,127.017928 C52.2812488,126.248191 47.6422047,111.447108 46.0333392,103.545814" id="Path" stroke="#000000" fill-rule="nonzero"></path>
                                                <path d="M35.7681924,61.3665615 C36.2378878,63.8822727 44.0383978,98.5744996 44.0383978,98.5744996 L58.3403238,133.509602 C59.529426,134.094303 63.028359,134.15727 63.6407466,133.971366 C64.2531342,133.785461 61.3130792,100.331599 60.1507318,95.591028 C59.217508,91.7849244 57.0191359,69.1406097 56.2054855,60.6288639" id="Path" stroke="#000000" fill-rule="nonzero"></path>
                                                <path d="M51.3556685,127.642189 C51.5161973,128.052978 52.4126497,130.067366 52.2194206,130.610088 C51.8716082,131.593584 46.6455043,133.236742 46.3155284,133.089817 C45.9855526,132.942892 45.6466585,132.490124 45.8042145,132.26524 C45.9617705,132.040355 47.8316337,130.834972 48.033781,130.535126 C48.2359284,130.23528 48.3905117,129.269636 48.033781,128.774889 L51.3556685,127.642189 Z" id="Path" fill="#000000" fill-rule="nonzero"></path>
                                                <path d="M42.4419263,18.8812527 L42.4419263,23.1253604 C44.0056635,22.7851009 45.3652376,22.891067 46.5206485,23.4432586 L46.5206485,18.1856772" id="Path" stroke="#000000" stroke-width="0.6" fill="#FFFFFF" fill-rule="nonzero"></path>
                                                <ellipse id="Oval" stroke="#000000" stroke-width="0.6" fill="#FFFFFF" fill-rule="nonzero" cx="43.7678771" cy="13.5440613" rx="5.40744199" ry="5.45420577"></ellipse>
                                                <ellipse id="Oval" fill="#FF6E61" fill-rule="nonzero" cx="38.30098" cy="14.2756865" rx="1" ry="1"></ellipse>
                                                <ellipse id="Oval" fill="#FF6E61" fill-rule="nonzero" cx="43.9729972" cy="14.2756865" rx="1" ry="1"></ellipse>
                                                <path d="M40.5037917,13.2921903 C40.3343446,13.5350659 39.4663001,14.5545436 40.3819087,14.9683316" id="Path" stroke="#000000" stroke-width="0.62" stroke-linecap="round"></path>
                                                <path d="M42.213126,16.1587218 C42.5777261,16.0592894 42.8944394,15.8303486 43.1049526,15.514052" id="Path" stroke="#000000" stroke-width="0.62" stroke-linecap="round"></path>
                                                <path d="M56.8768572,59.7533879 C62.8729047,59.5884724 66.5837744,55.0128165 66.5837744,44.1193973 C66.5837744,39.6217015 59.1697226,26.0806387 57.6982087,20.9652593 C56.9371833,18.3236127 57.5495709,10.5515943 53.6641797,6.5966205 C51.7913438,4.69259595 43.5568115,5.14236553 41.4312914,6.03890623 C39.3057713,6.93544692 39.5554827,9.63706286 39.7724939,10.0598463 C40.2808351,9.62806747 41.3956183,8.75251602 41.5947929,8.7795022 C42.63823,8.90843614 45.4861297,12.1407802 46.3512015,13.6250198 C47.0527718,14.8244054 45.9706888,22.2725896 47.341129,24.4014989 C48.7115692,26.5304083 50.7226518,27.0092152 50.7226518,27.0092152 C53.4535224,30.7609305 55.3606085,36.7449155 56.4439099,44.9611702 C57.3022771,51.4714209 57.4465929,56.4021602 56.8768572,59.7533879 Z" id="Path" fill="#000000" fill-rule="nonzero"></path>
                                                <path d="M39.4812647,24.3196835 C40.8704309,23.0078758 42.5997833,22.3543263 44.7399681,22.6264083 C46.2018071,22.6841315 47.5211482,23.5260057 48.7028779,24.9143015 L48.8334522,24.4614682 C53.9198366,28.8572162 59.2113412,48.0114034 59.2113412,50.368196 C59.2113412,57.0127919 52.5702057,68.8417319 52.5702057,68.8417319 C52.5702057,68.8417319 50.391176,67.1146167 49.5617773,66.4879378 C49.7446556,66.1976403 50.2971529,63.0330798 50.8000114,59.7518428 C49.5539471,60.0424621 48.1955054,60.3275836 46.8213059,60.5867483 L45.9976644,60.7386076 C41.1909706,61.6044757 36.4247108,62.1041414 35.7681924,61.3665615 C35.0360066,60.5439713 33.5228272,48.3702149 34.6715156,37.8754567 C30.560004,39.5282222 21.8670472,42.1284173 20.8092875,42.1284173 C20.1968282,42.1284173 16.5578857,39.0116532 12.7646877,35.5937587 L12.1648986,35.0519992 C7.86322487,31.1573388 3.5576002,27.0668443 3.40975039,26.8602393 C3.21517004,26.5883332 3.69913338,25.9331007 4.27085136,25.2975097 L4.50281841,25.045276 C4.69769051,24.8375462 4.89356069,24.6379687 5.06854788,24.4614682 C5.47925998,24.7295214 9.23089072,26.8843902 12.9929912,28.940152 L13.6976946,29.3239611 C17.0964943,31.168738 20.3329388,32.8301809 20.9281977,32.8301809 C22.18216,32.8301809 36.3728547,25.8068258 39.3839709,24.3668343 Z" id="Combined-Shape" fill="#000000" fill-rule="nonzero"></path>
                                                <path d="M2.44211852,27.003209 C3.83929666,27.003209 5.17688252,25.8994242 5.17688252,24.7369081 C5.17688252,23.574392 3.92699294,22.5334559 2.52981481,22.5334559 C1.13263667,22.5334559 0,23.4758615 0,24.6383776 C0,25.8008937 1.04494039,27.003209 2.44211852,27.003209 Z" id="Oval" stroke="#000000" fill-rule="nonzero"></path>
                                                <path d="M44.7875322,38.4882822 C45.6169309,39.5347461 51.7408069,50.6800363 51.7408069,52.3561776 C51.7408069,53.186752 51.2919209,56.5270408 50.7984435,59.7533879" id="Path" stroke="#FFFFFF" stroke-linecap="round" stroke-linejoin="round"></path>
                                                <path d="M46.794142,22.6084175 C46.5414578,24.8212839 52.9418001,32.5423283 55.4359419,34.8031701 C57.9271108,31.6367922 56.4318149,23.7928108 56.4318149,23.7928108 L51.3484032,21.4240243 L46.794142,22.6084175 Z" id="Path" fill="#000000" fill-rule="nonzero"></path>
                                                <ellipse id="Oval" fill="#000000" fill-rule="nonzero" cx="52.5702057" cy="3.12439935" rx="2.62494298" ry="3.12439935"></ellipse>
                                                <path d="M37.3675348,27.6848169 C36.1368141,30.4104205 35.0953996,34.16137 34.6613774,37.9454314" id="Path" stroke="#FFFFFF" stroke-width="0.5" stroke-linecap="round" stroke-linejoin="round"></path>
                                                <path d="M47.5026649,24.8572654 C50.1573355,27.8005487 51.5249543,29.1116388 54.0903759,34.1234473 C56.6557975,39.1352558 56.6557975,39.558605 57.7352032,44.713069 C58.4782111,49.0279373 58.714054,48.7309071 58.714054,54.3585073 C58.714054,57.0576534 58.3707006,59.4151486 57.8588736,61.3665615" id="Path-2" stroke="#FFFFFF" stroke-width="0.5" stroke-linecap="round"></path>
                                            </g>
                                        </g>
                                    </g>
                                </g>
                                <path d="M97.2256675,65.9778067 C102.781576,59.7009056 108.617984,55.7828069 114.734891,54.2235105" id="Path-3" stroke="#000000" stroke-linecap="round" transform="translate(105.980279, 60.100659) rotate(-41.000000) translate(-105.980279, -60.100659) "></path>
                                <path d="M65.7533962,71.4856901 C71.3220068,65.1863281 77.1639846,61.2473245 83.2793294,59.6686791" id="Path-3" stroke="#000000" stroke-linecap="round" transform="translate(74.516363, 65.577185) rotate(60.000000) translate(-74.516363, -65.577185) "></path>
                                <path d="M60.2444546,123.244987 C65.8210412,116.963117 71.6731802,113.036625 77.8008716,111.465512" id="Path-3" stroke="#000000" stroke-linecap="round" transform="translate(69.022663, 117.355249) rotate(13.000000) translate(-69.022663, -117.355249) "></path>
                                <g id="seller-1" transform="translate(0.000000, 83.527911)">
                                    <mask id="mask-11" fill="white">
                                        <use xlink:href="#path-10"></use>
                                    </mask>
                                    <use id="Oval" fill="#E0E5FF" transform="translate(29.734894, 29.613321) rotate(51.000000) translate(-29.734894, -29.613321) " xlink:href="#path-10"></use>
                                    <g id="avatar" mask="url(#mask-11)">
                                        <g transform="translate(35.532457, 40.427429) scale(-1, 1) translate(-35.532457, -40.427429) translate(14.600643, 12.708272)">
                                            <path d="M7.98674574,28.259899 C10.7784424,25.1877256 35.1778712,23.2584007 38.0511713,25.3925371 C43.5770218,29.491597 41.6762459,50.1741653 40.9685792,55.3230987 C40.9337086,55.5768146 2.82437257,55.3230987 0.0903013168,55.3851419 C-0.768682269,54.1562726 4.70113353,31.8686787 7.98674574,28.259899 Z" id="Path" stroke="none" fill="#000000" fill-rule="nonzero"></path>
                                            <path d="M17.438921,55.3379757 C12.0828847,54.0306727 10.3097313,51.8661483 13.1406473,43.8010001" id="Path" stroke="#FFFFFF" stroke-width="0.4" fill="none" stroke-linecap="round"></path>
                                            <path d="M36.6123738,41.9454074 C36.5393601,43.1128333 36.1442277,55.3230987 36.1442277,55.3230987" id="Path" stroke="#FFFFFF" stroke-width="0.4" fill="none" stroke-linecap="round"></path>
                                            <path d="M29.0790877,21.7141215 L29.1478064,26.0315492 C29.1478064,27.1006656 22.9888941,27.162109 22.9931467,26.0315492 L22.9931467,18.3168423" id="Path" stroke="#000000" stroke-width="0.6" fill="#FFFFFF" fill-rule="nonzero"></path>
                                            <ellipse id="Oval" stroke="#000000" stroke-width="0.6" fill="#FFFFFF" fill-rule="nonzero" cx="28.9674198" cy="14.0910353" rx="7.69284227" ry="7.32308624"></ellipse>
                                            <ellipse id="Oval" stroke="none" fill="#FF6E61" fill-rule="nonzero" transform="translate(36.343241, 16.269126) rotate(-84.070000) translate(-36.343241, -16.269126) " cx="36.3432415" cy="16.2691257" rx="1" ry="1.33506381"></ellipse>
                                            <ellipse id="Oval" stroke="none" fill="#FF6E61" fill-rule="nonzero" transform="translate(28.000577, 15.680275) rotate(-84.070000) translate(-28.000577, -15.680275) " cx="28.0005769" cy="15.6802748" rx="1" ry="1.33506381"></ellipse>
                                            <path d="M33.2537479,14.8242607 C33.4641989,15.184729 34.5851725,16.7290082 33.1764394,17.1714011" id="Path" stroke="#000000" stroke-width="0.6" fill="none" stroke-linecap="round"></path>
                                            <path d="M30.320319,18.5600235 C29.9251865,18.5108687 29.3582574,17.9865512 29.0790877,17.5318695" id="Path" stroke="#000000" stroke-width="0.6" fill="none" stroke-linecap="round"></path>
                                            <path d="M23.6975555,14.6235453 C23.6975555,16.8600876 21.1206048,18.3101534 20.2358517,18.3101534 C19.9578799,18.3422559 19.6789744,18.2577897 19.4713427,18.0786229 C19.263711,17.8994561 19.1477685,17.6432052 19.1535324,17.3762127 C19.1535324,16.4381758 19.7290514,15.6394107 20.9445131,14.6235453 C20.7211774,14.2753657 19.1535324,12.4402541 19.1535324,9.82685863 C19.1535324,7.08647996 20.9187436,4.78849426 22.0998461,4.78849426 C23.1379659,4.85435528 23.9989566,5.57960156 24.195766,6.5539699 C24.195766,2.72399374 28.4906839,0 31.0676347,0 C33.4513142,0 33.8636263,0.991287948 33.8636263,1.79414926 C33.8636263,3.5596249 32.4033542,5.44798748 31.8578996,5.91086161 C33.1936191,4.97282466 35.2938339,4.02659526 37.0805198,4.02659526 C38.2186731,4.02659526 39.6574706,4.3338126 39.6574706,5.82074452 C39.6574706,8.55293072 36.9144583,10.2232843 36.0168205,10.6656772 C35.6752026,10.0292926 35.2433488,9.47030262 34.7302285,8.94910717 C34.8977303,9.4652323 34.2931181,10.2856365 33.0261173,10.4945443 C32.2959812,10.6092388 23.6975555,9.50325636 23.6975555,14.6235453 Z" id="Path" stroke="none" fill="#000000" fill-rule="nonzero"></path>
                                        </g>
                                    </g>
                                </g>
                            </g>
                        </g>
                    </g>
                </g>
            </g>
        </g>
    </g>
</svg>