<svg width="144" height="80" viewBox="0 0 144 80" fill="none" xmlns="http://www.w3.org/2000/svg">
<path fill-rule="evenodd" clip-rule="evenodd" d="M108.602 0.396088C109.75 0.396088 110.79 0.859218 111.542 1.608C112.295 2.35678 112.76 3.39121 112.76 4.53381V75.4663C112.76 76.6089 112.295 77.6433 111.542 78.3921C110.79 79.1409 109.75 79.604 108.602 79.604H11.1839C10.0356 79.604 8.9961 79.1409 8.24363 78.3921C7.49117 77.6433 7.02576 76.6089 7.02576 75.4663V4.53381C7.02576 3.39121 7.49117 2.35678 8.24363 1.608C8.9961 0.859218 10.0356 0.396088 11.1839 0.396088H108.602Z" fill="white"/>
<path fill-rule="evenodd" clip-rule="evenodd" d="M10.965 0.792079C9.92628 0.792079 8.98663 1.21057 8.3057 1.88817C7.62478 2.56575 7.20442 3.50058 7.20442 4.53377V75.4662C7.20442 76.4994 7.62478 77.4342 8.3057 78.1118C8.98663 78.7894 9.92628 79.2079 10.965 79.2079H108.383C109.422 79.2079 110.362 78.7894 111.043 78.1118C111.723 77.4343 112.144 76.4994 112.144 75.4662V4.53377C112.144 3.50058 111.723 2.56575 111.043 1.88817C110.362 1.21057 109.422 0.792079 108.383 0.792079H10.965ZM7.7439 1.32774C8.5679 0.507768 9.7073 0 10.965 0H108.383C109.641 0 110.78 0.507768 111.604 1.32774C112.428 2.14771 112.939 3.28175 112.939 4.53377V75.4662C112.939 76.7182 112.428 77.8523 111.604 78.6723C110.78 79.4922 109.641 80 108.383 80H10.965C9.7073 80 8.5679 79.4922 7.7439 78.6723C6.91989 77.8523 6.40942 76.7182 6.40942 75.4662V4.53377C6.40942 3.28175 6.91989 2.14771 7.7439 1.32774Z" fill="#1F2A3B"/>
<path fill-rule="evenodd" clip-rule="evenodd" d="M0.446411 73.2673H117.311C116.739 77.4245 113.9 79.5292 108.793 79.5814C101.132 79.6596 16.9705 79.5032 9.08419 79.5814C3.82664 79.6335 0.947383 77.5288 0.446411 73.2673Z" fill="white"/>
<path fill-rule="evenodd" clip-rule="evenodd" d="M0 72.8712H117.767L117.705 73.321C117.408 75.4834 116.512 77.1537 114.99 78.2814C113.479 79.4016 111.399 79.9508 108.797 79.9773C104.966 80.0164 82.0375 79.9969 59.0729 79.9774L59.0229 79.9774C36.0369 79.9578 13.0288 79.9383 9.08851 79.9773C6.41266 80.0039 4.28159 79.4831 2.74681 78.3612C1.20015 77.2306 0.31244 75.529 0.0519734 73.3133L0 72.8712ZM0.903717 73.6633C1.20293 75.4821 1.98246 76.8201 3.21708 77.7226C4.56156 78.7054 6.4989 79.2109 9.0806 79.1853C13.0266 79.1462 36.0421 79.1657 59.0236 79.1853L59.0502 79.1853C82.0273 79.2049 104.963 79.2244 108.789 79.1853C111.294 79.1597 113.188 78.6305 114.516 77.646C115.733 76.744 116.516 75.4296 116.845 73.6633H0.903717Z" fill="#1F2A3B"/>
<path fill-rule="evenodd" clip-rule="evenodd" d="M106.976 13.0693H13.1665V12.2772H106.976V13.0693Z" fill="black"/>
<path fill-rule="evenodd" clip-rule="evenodd" d="M54.5062 73.2673H63.9508C63.4913 74.1174 62.8975 74.5424 62.1695 74.5424C61.0775 74.5424 57.5574 74.5424 56.3951 74.5424C55.6203 74.5424 54.9907 74.1174 54.5062 73.2673Z" fill="#1F2A3B"/>
<path d="M29.1068 38.5V29.5H29.6068V25.5H32.9334V25H40.5864V25.5H48.2395V25H55.8926V25.5H63.5456V25H71.1987V25.5H78.8518V25H86.5049V25.5H89.8314V29.5H90.3314V38.5H89.8314V47.5H90.3314V56.5H89.8314V60.5H86.5049V61H78.8518V60.5H71.1987V61H63.5456V60.5H55.8926V61H48.2395V60.5H40.5864V61H32.9333V60.5H29.6068V56.5H29.1068V47.5H29.6068V38.5H29.1068Z" fill="#DEE5FF" stroke="#6C8CFF" stroke-dasharray="8 8"/>
<g filter="url(#filter0_d_206_43)">
<path d="M136.471 9.10898H101.395C99.6652 9.10898 98.2631 10.9205 98.2631 13.1552V43.0825C98.2631 45.3172 99.6652 47.1288 101.395 47.1288H136.471C138.201 47.1288 139.603 45.3172 139.603 43.0825V13.1552C139.603 10.9205 138.201 9.10898 136.471 9.10898Z" fill="white"/>
</g>
<g filter="url(#filter1_d_206_43)">
<path fill-rule="evenodd" clip-rule="evenodd" d="M101.395 9.50497C99.9743 9.50497 98.6602 11.0374 98.6602 13.1552V43.0825C98.6602 45.2003 99.9743 46.7327 101.395 46.7327H136.471C137.891 46.7327 139.205 45.2003 139.205 43.0825V13.1552C139.205 11.0374 137.891 9.50497 136.471 9.50497H101.395ZM97.8652 13.1552C97.8652 10.8036 99.3555 8.71289 101.395 8.71289H136.471C138.51 8.71289 140 10.8036 140 13.1552V43.0825C140 45.4341 138.51 47.5248 136.471 47.5248H101.395C99.3555 47.5248 97.8652 45.4341 97.8652 43.0825V13.1552Z" fill="black"/>
</g>
<path d="M119.331 17.0297L107.009 19.4939V36.7437L119.331 39.2079V17.0297ZM121.796 19.4939V21.9582H124.26V24.4224H121.796V26.8867H124.26V29.3509H121.796V31.8152H124.26V34.2794H121.796V36.7437H130.421C131.101 36.7437 131.654 36.1917 131.654 35.5115V20.7261C131.654 20.0459 131.101 19.4939 130.421 19.4939H121.796ZM126.725 21.9582H129.189V24.4224H126.725V21.9582ZM109.69 23.5561H111.88L113.018 26.2851C113.111 26.5081 113.18 26.7667 113.252 27.0599H113.283C113.324 26.8838 113.406 26.6146 113.531 26.2634L114.799 23.5561H116.797L114.412 28.0779L116.867 32.6815H114.737L113.365 29.7071C113.313 29.6024 113.252 29.3915 113.201 29.0982H113.182C113.151 29.2387 113.089 29.449 112.997 29.7311L111.613 32.6815H109.473L112.012 28.114L109.69 23.5561ZM126.725 26.8867H129.189V29.3509H126.725V26.8867ZM126.725 31.8152H129.189V34.2794H126.725V31.8152Z" fill="black"/>
<path d="M15.5515 6.33656C15.5515 6.99274 15.0176 7.52468 14.359 7.52468C13.7004 7.52468 13.1665 6.99274 13.1665 6.33656C13.1665 5.68038 13.7004 5.14844 14.359 5.14844C15.0176 5.14844 15.5515 5.68038 15.5515 6.33656Z" fill="#1F2A3B"/>
<path d="M21.1173 6.33656C21.1173 6.99274 20.5834 7.52468 19.9248 7.52468C19.2662 7.52468 18.7323 6.99274 18.7323 6.33656C18.7323 5.68038 19.2662 5.14844 19.9248 5.14844C20.5834 5.14844 21.1173 5.68038 21.1173 6.33656Z" fill="#1F2A3B"/>
<path d="M26.682 6.33656C26.682 6.99274 26.1481 7.52468 25.4895 7.52468C24.8309 7.52468 24.297 6.99274 24.297 6.33656C24.297 5.68038 24.8309 5.14844 25.4895 5.14844C26.1481 5.14844 26.682 5.68038 26.682 6.33656Z" fill="#1F2A3B"/>
<g filter="url(#filter2_d_206_43)">
<path d="M122.727 44.5275C122.707 43.7743 123.5 43.2731 124.176 43.611L133.689 48.3673C134.385 48.7155 134.436 49.6875 133.778 50.1031L124.537 55.9481C123.88 56.3637 123.018 55.9049 122.998 55.1288L122.727 44.5275Z" fill="black"/>
</g>
<defs>
<filter id="filter0_d_206_43" x="94.2631" y="7.10898" width="49.3397" height="46.0198" filterUnits="userSpaceOnUse" color-interpolation-filters="sRGB">
<feFlood flood-opacity="0" result="BackgroundImageFix"/>
<feColorMatrix in="SourceAlpha" type="matrix" values="0 0 0 0 0 0 0 0 0 0 0 0 0 0 0 0 0 0 127 0" result="hardAlpha"/>
<feOffset dy="2"/>
<feGaussianBlur stdDeviation="2"/>
<feComposite in2="hardAlpha" operator="out"/>
<feColorMatrix type="matrix" values="0 0 0 0 0 0 0 0 0 0 0 0 0 0 0 0 0 0 0.25 0"/>
<feBlend mode="normal" in2="BackgroundImageFix" result="effect1_dropShadow_206_43"/>
<feBlend mode="normal" in="SourceGraphic" in2="effect1_dropShadow_206_43" result="shape"/>
</filter>
<filter id="filter1_d_206_43" x="93.8652" y="8.71289" width="50.1348" height="46.8119" filterUnits="userSpaceOnUse" color-interpolation-filters="sRGB">
<feFlood flood-opacity="0" result="BackgroundImageFix"/>
<feColorMatrix in="SourceAlpha" type="matrix" values="0 0 0 0 0 0 0 0 0 0 0 0 0 0 0 0 0 0 127 0" result="hardAlpha"/>
<feOffset dy="4"/>
<feGaussianBlur stdDeviation="2"/>
<feComposite in2="hardAlpha" operator="out"/>
<feColorMatrix type="matrix" values="0 0 0 0 0 0 0 0 0 0 0 0 0 0 0 0 0 0 0.06 0"/>
<feBlend mode="normal" in2="BackgroundImageFix" result="effect1_dropShadow_206_43"/>
<feBlend mode="normal" in="SourceGraphic" in2="effect1_dropShadow_206_43" result="shape"/>
</filter>
<filter id="filter2_d_206_43" x="118.726" y="43.5036" width="19.5164" height="20.6012" filterUnits="userSpaceOnUse" color-interpolation-filters="sRGB">
<feFlood flood-opacity="0" result="BackgroundImageFix"/>
<feColorMatrix in="SourceAlpha" type="matrix" values="0 0 0 0 0 0 0 0 0 0 0 0 0 0 0 0 0 0 127 0" result="hardAlpha"/>
<feOffset dy="4"/>
<feGaussianBlur stdDeviation="2"/>
<feComposite in2="hardAlpha" operator="out"/>
<feColorMatrix type="matrix" values="0 0 0 0 0 0 0 0 0 0 0 0 0 0 0 0 0 0 0.25 0"/>
<feBlend mode="normal" in2="BackgroundImageFix" result="effect1_dropShadow_206_43"/>
<feBlend mode="normal" in="SourceGraphic" in2="effect1_dropShadow_206_43" result="shape"/>
</filter>
</defs>
</svg>
