<?xml version="1.0" encoding="UTF-8"?>
<svg width="338px" height="287px" viewBox="0 0 338 287" version="1.1" xmlns="http://www.w3.org/2000/svg" xmlns:xlink="http://www.w3.org/1999/xlink">
    <title>illu-light</title>
    <defs>
        <path d="M8.58485523,0 L7.08144974,0.253304893 L5.57799825,0.506563781 L5.53355718,1.90930978 C4.93130249,2.17793442 4.36175752,2.5310247 3.84461253,2.96614233 L3.84461253,2.96614233 L2.56410247,2.39452713 L1.68015765,3.63671482 L0.796166814,4.8788565 L1.75579027,5.90136914 C1.51417071,6.53256113 1.36718395,7.18634171 1.3106895,7.84338865 L1.3106895,7.84338865 L0,8.34493786 L0.253304893,9.84838935 L0.506609786,11.3518408 L1.90930978,11.3963279 C2.17793442,11.9985826 2.53097869,12.5680816 2.96609633,13.0852266 L2.96609633,13.0852266 L2.39448113,14.3657366 L3.63671482,15.2497275 L4.87890251,16.1336723 L5.90132313,15.1740488 C6.53251513,15.4157144 7.18634171,15.5627012 7.84334265,15.6191956 L7.84334265,15.6191956 L8.34493786,16.9298851 L9.84838935,16.6765802 L11.3517948,16.4232753 L11.3962819,15.0205753 C11.9985366,14.7519507 12.5681276,14.3988604 13.0852726,13.9637428 L13.0852726,13.9637428 L14.3657366,14.535358 L15.2496814,13.2931703 L16.1336723,12.0509826 L15.1740488,11.028516 C15.4156684,10.39737 15.5626551,9.74354339 15.6191496,9.08654245 L15.6191496,9.08654245 L16.9298391,8.58490123 L16.6765802,7.08144974 L16.4232753,5.57804426 L15.0205753,5.53355718 C14.7519047,4.93134849 14.3988144,4.36171152 13.9636968,3.84461253 L13.9636968,3.84461253 L14.535358,2.56414848 L13.2931703,1.68020365 L12.0510286,0.79621282 L11.02847,1.75583628 C10.397324,1.51417071 9.74354339,1.36718395 9.08649645,1.31073551 L9.08649645,1.31073551 L8.58485523,0 Z M6.6420725,11.0264183 C5.22741381,10.0197182 4.89672192,8.05680983 5.9034228,6.64211362 L5.9034228,6.64211362 C6.91016237,5.22741741 8.8730724,4.89672578 10.2877698,5.90342584 L10.2877698,5.90342584 C11.7024285,6.91016458 12.0331591,8.87311168 11.0264195,10.2878079 L11.0264195,10.2878079 C10.4131673,11.1494942 9.44500262,11.6090654 8.46221277,11.6090654 L8.46221277,11.6090654 C7.83158831,11.6090654 7.19504414,11.419944 6.6420725,11.0264183 L6.6420725,11.0264183 Z" id="path-1"></path>
        <path d="M6.05989781,0 L4.99867041,0.178803454 L3.93741053,0.357574434 L3.90604036,1.34774808 C3.4809194,1.53736548 3.07888766,1.78660567 2.71384414,2.09374753 L2.71384414,2.09374753 L1.80995469,1.69025445 L1.18599363,2.56709281 L0.562000104,3.44389871 L1.23938137,4.16567233 C1.06882639,4.61121962 0.965071022,5.07271179 0.92519259,5.53650964 L0.92519259,5.53650964 L0,5.89054437 L0.178803454,6.95180425 L0.357606908,8.01306412 L1.34774808,8.04446676 C1.53736548,8.46958773 1.7865732,8.87158699 2.09371505,9.23663051 L2.09371505,9.23663051 L1.69022197,10.14052 L2.56709281,10.7645135 L3.44393118,11.3884745 L4.16563986,10.7110933 C4.61118715,10.8816807 5.07271179,10.9854361 5.53647716,11.0253145 L5.53647716,11.0253145 L5.89054437,11.9505071 L6.95180425,11.7717037 L8.01303165,11.5929002 L8.04443429,10.602759 C8.46955525,10.4131417 8.87161947,10.1639015 9.23666299,9.8567596 L9.23666299,9.8567596 L10.14052,10.2602527 L10.764481,9.38341431 L11.3884745,8.50657595 L10.7110933,7.7848348 C10.8816483,7.33931998 10.9854036,6.87779534 11.0252821,6.41402997 L11.0252821,6.41402997 L11.9504747,6.05993028 L11.7717037,4.99867041 L11.5929002,3.937443 L10.602759,3.90604036 C10.4131092,3.48095188 10.163869,3.07885519 9.85672713,2.71384414 L9.85672713,2.71384414 L10.2602527,1.80998716 L9.38341431,1.18602611 L8.50660842,0.562032579 L7.78480232,1.23941384 C7.33928751,1.06882639 6.87779534,0.965071022 6.41399749,0.925225065 L6.41399749,0.925225065 L6.05989781,0 Z M4.68852176,7.78335409 C3.68993916,7.07274229 3.45650959,5.68715988 4.16712198,4.68855079 L4.16712198,4.68855079 C4.87776168,3.6899417 6.26334522,3.45651232 7.26195514,4.16712412 L7.26195514,4.16712412 C8.26053774,4.87776323 8.49399462,6.26337295 7.78335492,7.26198204 L7.78335492,7.26198204 C7.35047102,7.87023122 6.66706067,8.19463443 5.97332666,8.19463443 L5.97332666,8.19463443 C5.52817999,8.19463443 5.07885468,8.06113696 4.68852176,7.78335409 L4.68852176,7.78335409 Z" id="path-3"></path>
        <path d="M4.29242761,0 L3.54072487,0.126652447 L2.78899913,0.25328189 L2.76677859,0.954654892 C2.46565124,1.08896721 2.18087876,1.26551235 1.92230627,1.48307117 L1.92230627,1.48307117 L1.28205124,1.19726357 L0.840078823,1.81835741 L0.398083407,2.43942825 L0.877895137,2.95068457 C0.757085357,3.26628057 0.683591974,3.59317085 0.655344752,3.92169433 L0.655344752,3.92169433 L0,4.17246893 L0.126652447,4.92419468 L0.253304893,5.67592042 L0.954654892,5.69816396 C1.08896721,5.99929131 1.26548935,6.28404079 1.48304816,6.54261328 L1.48304816,6.54261328 L1.19724056,7.18286831 L1.81835741,7.62486373 L2.43945125,8.06683614 L2.95066157,7.58702441 C3.26625756,7.70785719 3.59317085,7.78135058 3.92167132,7.8095978 L3.92167132,7.8095978 L4.17246893,8.46494255 L4.92419468,8.3382901 L5.67589742,8.21163766 L5.69814096,7.51028766 C5.9992683,7.37597534 6.28406379,7.1994302 6.54263628,6.98187138 L6.54263628,6.98187138 L7.18286831,7.26767898 L7.62484072,6.64658514 L8.06683614,6.02549129 L7.58702441,5.51425798 C7.70783419,5.19868499 7.78132757,4.8717717 7.8095748,4.54327123 L7.8095748,4.54327123 L8.46491955,4.29245062 L8.3382901,3.54072487 L8.21163766,2.78902213 L7.51028766,2.76677859 C7.37595233,2.46567425 7.1994072,2.18085576 6.98184838,1.92230627 L6.98184838,1.92230627 L7.26767898,1.28207424 L6.64658514,0.840101826 L6.0255143,0.39810641 L5.51423498,0.877918139 C5.19866198,0.757085357 4.8717717,0.683591974 4.54324822,0.655367754 L4.54324822,0.655367754 L4.29242761,0 Z M3.32103625,5.51320915 C2.61370691,5.00985912 2.44836096,4.02840492 2.9517114,3.32105681 L2.9517114,3.32105681 C3.45508119,2.6137087 4.4365362,2.44836289 5.14388489,2.95171292 L5.14388489,2.95171292 C5.85121423,3.45508229 6.01657953,4.43655584 5.51320974,5.14390395 L5.51320974,5.14390395 C5.20658364,5.57474712 4.72250131,5.80453272 4.23110638,5.80453272 L4.23110638,5.80453272 C3.91579416,5.80453272 3.59752207,5.70997202 3.32103625,5.51320915 L3.32103625,5.51320915 Z" id="path-5"></path>
    </defs>
    <g id="illustrations" stroke="none" stroke-width="1" fill="none" fill-rule="evenodd">
        <g id="illu-light">
            <g id="Group-5">
                <g id="Group-87" transform="translate(73.178942, 0.782007)">
                    <path d="M0.893722195,18.5726644 L0.893722195,4 C0.893722195,1.790861 2.6845832,4.05812251e-16 4.89372219,0 L232.668809,0 C234.877948,1.52910644e-14 236.668809,1.790861 236.668809,4 L236.668809,151.713081 L236.668809,151.713081" id="Rectangle" stroke="#000000"></path>
                    <line x1="210.86258" y1="173.411831" x2="9.23605467" y2="173.411831" id="Rectangle" stroke="#000000"></line>
                    <line x1="0.893722195" y1="83.4909664" x2="0.893722195" y2="15.0693244" id="Rectangle" stroke="#000000"></line>
                    <g id="Group-86" transform="translate(6.904214, 6.427914)" fill="#000000">
                        <path d="M6.22233114,3.49618119 C6.22233114,4.93010146 5.05887128,6.09356132 3.62495101,6.09356132 C2.18943039,6.09356132 1.02757089,4.93010146 1.02757089,3.49618119 C1.02757089,2.06226092 2.18943039,0.898801061 3.62495101,0.898801061 C5.05887128,0.898801061 6.22233114,2.06226092 6.22233114,3.49618119 Z" id="Stroke-80"></path>
                        <path d="M15.6064142,3.49618119 C15.6064142,4.93010146 14.4429543,6.09356132 13.0090341,6.09356132 C11.5735134,6.09356132 10.4116539,4.93010146 10.4116539,3.49618119 C10.4116539,2.06226092 11.5735134,0.898801061 13.0090341,0.898801061 C14.4429543,0.898801061 15.6064142,2.06226092 15.6064142,3.49618119 Z" id="Stroke-82"></path>
                        <path d="M24.9904972,3.49618119 C24.9904972,4.93010146 23.8270374,6.09356132 22.3931171,6.09356132 C20.9575965,6.09356132 19.795737,4.93010146 19.795737,3.49618119 C19.795737,2.06226092 20.9575965,0.898801061 22.3931171,0.898801061 C23.8270374,0.898801061 24.9904972,2.06226092 24.9904972,3.49618119 Z" id="Stroke-84"></path>
                    </g>
                    <g id="Group-14" transform="translate(100.821058, 64.445477)"></g>
                    <line x1="1.48022739" y1="18.5726644" x2="236.082304" y2="18.5726644" id="Line" stroke="#000000" stroke-linecap="square"></line>
                </g>
                <g id="Illustrations/100px/add_document" transform="translate(163.000000, 54.000000)">
                    <g id="Group-2" transform="translate(0.781646, 0.000000)">
                        <g id="Group" transform="translate(0.363087, 0.360598)" fill="#8DA4FA">
                            <polygon id="Rectangle" transform="translate(24.326827, 60.400166) rotate(90.000000) translate(-24.326827, -60.400166) " points="23.118824 39.7223629 25.5348306 39.7223629 25.5348306 81.0779693 23.118824 81.0779693"></polygon>
                            <polygon id="Rectangle-Copy" points="0 7.24801993 6.08170682 7.24801993 6.08170682 61.6081694 8.44006367e-17 61.6081694"></polygon>
                            <polygon id="Triangle" points="54.6061862 0.126790912 54.6061862 9.73780744 44.4795257 0.126790912"></polygon>
                        </g>
                        <rect id="Rectangle" stroke="#000000" stroke-width="2" fill-rule="nonzero" x="6.82603512" y="0" width="48.6355002" height="59.3183721" rx="1"></rect>
                    </g>
                    <line x1="7.37678006" y1="7.40116279" x2="0.78164557" y2="7.40116279" id="Line-3" stroke="#000000" stroke-width="2" stroke-linecap="round"></line>
                    <line x1="0.78164557" y1="7.01162791" x2="0.78164557" y2="66.2209302" id="Line" stroke="#000000" stroke-width="2" stroke-linecap="round"></line>
                    <line x1="49.2436709" y1="59.9883721" x2="49.2436709" y2="67" id="Line-Copy" stroke="#000000" stroke-width="2" stroke-linecap="round"></line>
                    <line x1="49.2436709" y1="66.6104651" x2="0.78164557" y2="66.6104651" id="Line-3-Copy" stroke="#000000" stroke-width="2" stroke-linecap="round"></line>
                    <line x1="46.1170886" y1="16.75" x2="17.1962025" y2="16.75" id="Line-3-Copy-2" stroke="#000000" stroke-width="2" stroke-linecap="round"></line>
                    <line x1="46.1170886" y1="22.9825581" x2="17.1962025" y2="22.9825581" id="Line-3-Copy-3" stroke="#000000" stroke-width="2" stroke-linecap="round"></line>
                    <line x1="46.1170886" y1="29.994186" x2="17.1962025" y2="29.994186" id="Line-3-Copy-4" stroke="#000000" stroke-width="2" stroke-linecap="round"></line>
                    <line x1="46.1170886" y1="37.005814" x2="17.1962025" y2="37.005814" id="Line-3-Copy-5" stroke="#000000" stroke-width="2" stroke-linecap="round"></line>
                    <line x1="46.1170886" y1="43.2383721" x2="17.1962025" y2="43.2383721" id="Line-3-Copy-6" stroke="#000000" stroke-width="2" stroke-linecap="round"></line>
                </g>
                <g id="woman-writing" transform="translate(77.412302, 160.325260) scale(-1, 1) translate(-77.412302, -160.325260) translate(15.412302, 34.325260)">
                    <path d="M116.351056,245.77988 C116.40053,246.593447 116.900764,249.583625 116.2686,250.424677 C115.108718,251.947367 104.977611,251.870408 104.477378,251.430642 C103.977144,250.990876 103.636325,250.012397 104.043109,249.704561 C104.449892,249.396725 108.413282,248.341287 108.930007,247.934503 C109.446732,247.52772 110.084393,246.336778 109.738077,245.275843 L116.351056,245.77988 Z" id="Path" fill="#000000" fill-rule="nonzero"></path>
                    <path d="M66.1407876,112.503105 C64.4147065,116.417021 49.9189239,159.05782 50.2542453,165.27501 C50.5895668,171.4922 84.1327089,235.555094 85.9852227,236.231234 C87.8377364,236.907374 95.5336392,234.543632 96.1548085,232.861528 C96.6759217,231.450372 88.0976289,204.315597 85.1225937,189.830182" id="Path" stroke="#000000" fill-rule="nonzero"></path>
                    <path d="M66.1407876,112.503105 C67.0093252,117.11515 81.4336459,180.716289 81.4336459,180.716289 L107.880066,244.762692 C110.078896,245.834621 116.548951,245.95006 117.681348,245.609241 C118.813745,245.268423 113.37714,183.937574 111.227784,175.246701 C109.502112,168.268984 105.43699,126.755241 103.932428,111.150687" id="Path" stroke="#000000" fill-rule="nonzero"></path>
                    <path d="M94.964384,234.005983 C95.261226,234.759082 96.9189017,238.452051 96.561592,239.447022 C95.9184344,241.250062 86.2545793,244.262458 85.6444041,243.993101 C85.034229,243.723745 84.4075626,242.893687 84.6989075,242.481406 C84.9902524,242.069126 88.4479116,239.859302 88.8217126,239.309595 C89.1955136,238.759888 89.4813614,236.989576 88.8217126,236.082559 L94.964384,234.005983 Z" id="Path" fill="#000000" fill-rule="nonzero"></path>
                    <path d="M86.0237022,33.5058211 C86.0237022,38.0098495 86.0237022,40.9731236 86.0237022,42.3956432 L77.2097304,42.3956432 L77.2097304,34.1785881" id="Path" stroke="#000000" fill-rule="nonzero"></path>
                    <circle id="Oval" stroke="#000000" fill-rule="nonzero" cx="80.9334122" cy="24.8302807" r="9.99917658"></circle>
                    <ellipse id="Oval" fill="#FF6E61" fill-rule="nonzero" cx="70.8242941" cy="26.1715666" rx="1.67111032" ry="1"></ellipse>
                    <ellipse id="Oval" fill="#FF6E61" fill-rule="nonzero" cx="81.3127103" cy="26.1715666" rx="1.67111032" ry="1"></ellipse>
                    <path d="M74.8976256,24.3685265 C74.5842924,24.8137895 72.9791469,26.6827945 74.6722455,27.4413906" id="Path" stroke="#000000" stroke-width="0.62" stroke-linecap="round"></path>
                    <path d="M78.0584428,29.6237287 C78.7326433,29.4414398 79.3182941,29.0217234 79.7075648,28.441858" id="Path" stroke="#000000" stroke-width="0.62" stroke-linecap="round"></path>
                    <path d="M100.66362,114.519782 C120.682943,114.519782 126.109315,99.8435003 123.123451,80.8839385 C120.682943,65.3872638 109.41375,47.8135447 106.692698,38.4355375 C105.285448,33.5926158 106.417845,19.3442014 99.2331696,12.0935616 C95.7700134,8.60291993 80.54312,9.42748094 76.6127125,11.0711059 C72.682305,12.7147309 72.7731054,18.4269591 73.1743918,19.2020465 C74.1143914,18.4104679 75.6156917,16.1858887 78.0584428,16.1858887 C82.9838206,16.1858887 86.9461586,20.4660427 85.710369,24.9787017 C84.4745794,29.4913607 82.4086507,40.8932944 86.3962599,44.4548329 C90.3838692,48.0163714 95.2005924,60.5759232 98.2053742,83.17017 C99.7926249,95.1053903 100.61204,105.555261 100.66362,114.519782 Z" id="Path" fill="#8DA4FA" fill-rule="nonzero"></path>
                    <path d="M73.0056466,44.5862892 C75.574624,42.1806237 78.7728286,40.9820333 82.7309552,41.4809161 C85.2045846,41.5777541 87.4575628,42.8784019 89.4968138,45.0488922 L89.5509776,44.8451251 C98.0142917,52.9038347 106.818908,88.0191398 106.818908,92.3398396 C106.818908,95.5348537 106.058728,99.3837049 104.937134,103.323617 C104.90475,104.819835 104.768681,105.780963 104.532348,106.060535 C104.422281,106.19074 104.232779,106.33101 103.971783,106.479659 C100.697625,116.534241 95.7686198,126.207309 95.7686198,126.207309 C95.7686198,126.207309 94.64957,125.230051 93.4182251,124.164381 L93.0464595,123.842916 C92.175844,123.090791 91.2995349,122.338896 90.762849,121.892106 C91.0627168,121.367646 91.9598378,115.72599 92.7866035,109.805197 C82.0633217,112.196588 67.714767,114.256265 66.1407876,112.503105 C64.78687,110.995058 61.988787,88.6770966 64.1128452,69.4371362 C61.2103677,70.593661 57.0743845,72.003153 52.9606028,73.3039845 L52.0526011,73.589467 C45.7061378,75.573448 39.6338995,77.2338818 38.479514,77.2338818 C37.3416198,77.2338818 30.5541568,71.4656685 23.5041406,65.1648347 L22.5835271,64.3403966 C14.5996466,57.1765472 6.57955714,49.6229614 6.30514323,49.2427838 C5.77742418,48.5116731 7.94876819,46.2688671 9.37251021,44.8451251 C10.0743406,45.2992507 16.0519055,48.7073515 22.4451391,52.1962528 L23.280997,52.6515489 C30.2594661,56.4455664 37.4793832,60.187457 38.699397,60.187457 C39.8471859,60.187457 46.8564559,57.0325415 54.3184328,53.5258864 L55.2531465,53.0859253 L55.2531465,53.0859253 L56.1902283,52.6435169 C56.5027228,52.4957748 56.8152207,52.3478275 57.1273308,52.1998779 L58.0621062,51.7562249 C64.5919123,48.6534437 70.77814,45.639059 72.9973333,44.5909795 Z" id="Combined-Shape" fill="#000000" fill-rule="nonzero"></path>
                    <path d="M4.51584583,49.5048896 C7.09943913,49.5048896 9.5728373,47.4813249 9.5728373,45.3500881 C9.5728373,43.2188513 7.2616028,41.3105069 4.67800949,41.3105069 C2.09441619,41.3105069 -1.77806903e-11,43.0382156 -1.77806903e-11,45.1694524 C-1.77806903e-11,47.3006892 1.93225252,49.5048896 4.51584583,49.5048896 Z" id="Oval" stroke="#000000" fill-rule="nonzero"></path>
                    <ellipse id="Oval" fill="#8DA4FA" fill-rule="nonzero" cx="97.2102466" cy="5.72795052" rx="4.85391584" ry="5.72795052"></ellipse>
                    <path d="M69.0982131,50.754479 C66.8224247,55.7513188 64.8966921,62.6279215 64.0941194,69.5652282" id="Path" stroke="#000000" stroke-linecap="round" stroke-linejoin="round"></path>
                    <line x1="7.33859304" y1="33.686066" x2="1.69309862" y2="51.5405605" id="Path" stroke="#000000" stroke-width="2" stroke-linecap="round"></line>
                </g>
                <g id="Group-10">
                    <g id="Group-3" transform="translate(6.534078, 31.791933)">
                        <mask id="mask-2" fill="white">
                            <use xlink:href="#path-1"></use>
                        </mask>
                        <g id="Clip-2"></g>
                        <path d="M8.58485523,0 L7.08144974,0.253304893 L5.57799825,0.506563781 L5.53355718,1.90930978 C4.93130249,2.17793442 4.36175752,2.5310247 3.84461253,2.96614233 L3.84461253,2.96614233 L2.56410247,2.39452713 L1.68015765,3.63671482 L0.796166814,4.8788565 L1.75579027,5.90136914 C1.51417071,6.53256113 1.36718395,7.18634171 1.3106895,7.84338865 L1.3106895,7.84338865 L0,8.34493786 L0.253304893,9.84838935 L0.506609786,11.3518408 L1.90930978,11.3963279 C2.17793442,11.9985826 2.53097869,12.5680816 2.96609633,13.0852266 L2.96609633,13.0852266 L2.39448113,14.3657366 L3.63671482,15.2497275 L4.87890251,16.1336723 L5.90132313,15.1740488 C6.53251513,15.4157144 7.18634171,15.5627012 7.84334265,15.6191956 L7.84334265,15.6191956 L8.34493786,16.9298851 L9.84838935,16.6765802 L11.3517948,16.4232753 L11.3962819,15.0205753 C11.9985366,14.7519507 12.5681276,14.3988604 13.0852726,13.9637428 L13.0852726,13.9637428 L14.3657366,14.535358 L15.2496814,13.2931703 L16.1336723,12.0509826 L15.1740488,11.028516 C15.4156684,10.39737 15.5626551,9.74354339 15.6191496,9.08654245 L15.6191496,9.08654245 L16.9298391,8.58490123 L16.6765802,7.08144974 L16.4232753,5.57804426 L15.0205753,5.53355718 C14.7519047,4.93134849 14.3988144,4.36171152 13.9636968,3.84461253 L13.9636968,3.84461253 L14.535358,2.56414848 L13.2931703,1.68020365 L12.0510286,0.79621282 L11.02847,1.75583628 C10.397324,1.51417071 9.74354339,1.36718395 9.08649645,1.31073551 L9.08649645,1.31073551 L8.58485523,0 Z M6.29747432,11.510651 C4.61538445,10.3136404 4.2221776,7.9796562 5.41918814,6.29752032 L5.41918814,6.29752032 C6.61624468,4.61538445 8.9502289,4.2221776 10.6323648,5.41918814 L10.6323648,5.41918814 C12.3144546,6.61624468 12.7077075,8.95027491 11.510651,10.6324108 L11.510651,10.6324108 C10.7814678,11.6569936 9.63027847,12.203444 8.46169918,12.203444 L8.46169918,12.203444 C7.71185965,12.203444 6.95498132,11.9785703 6.29747432,11.510651 L6.29747432,11.510651 Z" id="Fill-1" stroke="#FF6E61" stroke-width="2" fill="#FF6E61" mask="url(#mask-2)"></path>
                        <rect id="Rectangle" fill="#FF6E61" mask="url(#mask-2)" x="3.62784238" y="4.1115547" width="9.67424635" height="8.70682171"></rect>
                    </g>
                    <g id="Group-3" transform="translate(7.799432, 17.632758) rotate(-20.000000) translate(-7.799432, -17.632758) translate(1.824162, 11.657489)">
                        <mask id="mask-4" fill="white">
                            <use xlink:href="#path-3"></use>
                        </mask>
                        <g id="Clip-2"></g>
                        <path d="M6.05989781,0 L4.99867041,0.178803454 L3.93741053,0.357574434 L3.90604036,1.34774808 C3.4809194,1.53736548 3.07888766,1.78660567 2.71384414,2.09374753 L2.71384414,2.09374753 L1.80995469,1.69025445 L1.18599363,2.56709281 L0.562000104,3.44389871 L1.23938137,4.16567233 C1.06882639,4.61121962 0.965071022,5.07271179 0.92519259,5.53650964 L0.92519259,5.53650964 L0,5.89054437 L0.178803454,6.95180425 L0.357606908,8.01306412 L1.34774808,8.04446676 C1.53736548,8.46958773 1.7865732,8.87158699 2.09371505,9.23663051 L2.09371505,9.23663051 L1.69022197,10.14052 L2.56709281,10.7645135 L3.44393118,11.3884745 L4.16563986,10.7110933 C4.61118715,10.8816807 5.07271179,10.9854361 5.53647716,11.0253145 L5.53647716,11.0253145 L5.89054437,11.9505071 L6.95180425,11.7717037 L8.01303165,11.5929002 L8.04443429,10.602759 C8.46955525,10.4131417 8.87161947,10.1639015 9.23666299,9.8567596 L9.23666299,9.8567596 L10.14052,10.2602527 L10.764481,9.38341431 L11.3884745,8.50657595 L10.7110933,7.7848348 C10.8816483,7.33931998 10.9854036,6.87779534 11.0252821,6.41402997 L11.0252821,6.41402997 L11.9504747,6.05993028 L11.7717037,4.99867041 L11.5929002,3.937443 L10.602759,3.90604036 C10.4131092,3.48095188 10.163869,3.07885519 9.85672713,2.71384414 L9.85672713,2.71384414 L10.2602527,1.80998716 L9.38341431,1.18602611 L8.50660842,0.562032579 L7.78480232,1.23941384 C7.33928751,1.06882639 6.87779534,0.965071022 6.41399749,0.925225065 L6.41399749,0.925225065 L6.05989781,0 Z M4.44527599,8.12516538 C3.25791844,7.28021677 2.98036066,5.63269849 3.82530927,4.44530846 L3.82530927,4.44530846 C4.67029036,3.25791844 6.31780864,2.98036066 7.50519866,3.82530927 L7.50519866,3.82530927 C8.69255622,4.67029036 8.97014647,6.31784111 8.12516538,7.50523114 L8.12516538,7.50523114 C7.61044785,8.22846611 6.79784363,8.61419576 5.97296413,8.61419576 L5.97296413,8.61419576 C5.44366563,8.61419576 4.90939858,8.45546141 4.44527599,8.12516538 L4.44527599,8.12516538 Z" id="Fill-1" stroke="#FF6E61" stroke-width="2" fill="#FF6E61" mask="url(#mask-4)"></path>
                        <rect id="Rectangle" fill="#FF6E61" mask="url(#mask-4)" x="2.56082991" y="2.9022739" width="6.82887977" height="6.1459918"></rect>
                    </g>
                    <g id="Group-3" transform="translate(23.890286, 5.535615) rotate(15.000000) translate(-23.890286, -5.535615) translate(19.657803, 1.303132)">
                        <mask id="mask-6" fill="white">
                            <use xlink:href="#path-5"></use>
                        </mask>
                        <g id="Clip-2"></g>
                        <path d="M4.29242761,0 L3.54072487,0.126652447 L2.78899913,0.25328189 L2.76677859,0.954654892 C2.46565124,1.08896721 2.18087876,1.26551235 1.92230627,1.48307117 L1.92230627,1.48307117 L1.28205124,1.19726357 L0.840078823,1.81835741 L0.398083407,2.43942825 L0.877895137,2.95068457 C0.757085357,3.26628057 0.683591974,3.59317085 0.655344752,3.92169433 L0.655344752,3.92169433 L0,4.17246893 L0.126652447,4.92419468 L0.253304893,5.67592042 L0.954654892,5.69816396 C1.08896721,5.99929131 1.26548935,6.28404079 1.48304816,6.54261328 L1.48304816,6.54261328 L1.19724056,7.18286831 L1.81835741,7.62486373 L2.43945125,8.06683614 L2.95066157,7.58702441 C3.26625756,7.70785719 3.59317085,7.78135058 3.92167132,7.8095978 L3.92167132,7.8095978 L4.17246893,8.46494255 L4.92419468,8.3382901 L5.67589742,8.21163766 L5.69814096,7.51028766 C5.9992683,7.37597534 6.28406379,7.1994302 6.54263628,6.98187138 L6.54263628,6.98187138 L7.18286831,7.26767898 L7.62484072,6.64658514 L8.06683614,6.02549129 L7.58702441,5.51425798 C7.70783419,5.19868499 7.78132757,4.8717717 7.8095748,4.54327123 L7.8095748,4.54327123 L8.46491955,4.29245062 L8.3382901,3.54072487 L8.21163766,2.78902213 L7.51028766,2.76677859 C7.37595233,2.46567425 7.1994072,2.18085576 6.98184838,1.92230627 L6.98184838,1.92230627 L7.26767898,1.28207424 L6.64658514,0.840101826 L6.0255143,0.39810641 L5.51423498,0.877918139 C5.19866198,0.757085357 4.8717717,0.683591974 4.54324822,0.655367754 L4.54324822,0.655367754 L4.29242761,0 Z M3.14873716,5.75532548 C2.30769223,5.15682021 2.1110888,3.9898281 2.70959407,3.14876016 L2.70959407,3.14876016 C3.30812234,2.30769223 4.47511445,2.1110888 5.31618239,2.70959407 L5.31618239,2.70959407 C6.15722732,3.30812234 6.35385375,4.47513745 5.75532548,5.31620539 L5.75532548,5.31620539 C5.39073389,5.82849682 4.81513924,6.10172199 4.23084959,6.10172199 L4.23084959,6.10172199 C3.85592982,6.10172199 3.47749066,5.98928516 3.14873716,5.75532548 L3.14873716,5.75532548 Z" id="Fill-1" stroke="#FF6E61" stroke-width="2" fill="#FF6E61" mask="url(#mask-6)"></path>
                        <rect id="Rectangle" fill="#FF6E61" mask="url(#mask-6)" x="1.81392119" y="2.05577735" width="4.83712317" height="4.35341086"></rect>
                    </g>
                </g>
            </g>
            <g id="speech-modal-1" transform="translate(284.041522, 152.491349)">
                <path d="M4.75148656,0 C2.14319569,0 0.0287581567,2.24911508 0.0287581567,5.02353913 L0.0287581567,30.4335381 C0.0287581567,33.2079622 2.14319569,35.4570773 4.75148656,35.4570773 L37.8233668,35.4570773 L46.5977999,47.2443802 L46.543479,35.436684 L48.6108709,35.436684 C51.2191618,35.436684 53.3335993,33.1875689 53.3335993,30.4131449 L53.3335993,5.0133425 C53.3283127,2.24290131 51.2154228,0 48.6108709,0 L4.75148656,0 Z" id="Path" stroke="#000000" stroke-linecap="round" stroke-linejoin="round"></path>
                <path d="M2.42175921,9.48966255 C2.42175921,7.35159151 4.05122088,5.61834248 6.06126371,5.61834248 C8.07130654,5.61834248 9.70076821,7.35159151 9.70076821,9.48966255 C9.70076821,11.6277336 8.07130654,13.3609826 6.06126371,13.3609826 C4.05122088,13.3609826 2.42175921,11.6277336 2.42175921,9.48966255 Z" id="Path" fill="#FF6E61"></path>
                <path d="M3.59476959,9.48966255 C3.59476959,7.35159151 5.22423126,5.61834248 7.23427409,5.61834248 C9.24431692,5.61834248 10.8737786,7.35159151 10.8737786,9.48966255 C10.8737786,11.6277336 9.24431692,13.3609826 7.23427409,13.3609826 C5.22423126,13.3609826 3.59476959,11.6277336 3.59476959,9.48966255 Z" id="Path" stroke="#000000" stroke-linecap="round" stroke-linejoin="round"></path>
                <line x1="14.3790784" y1="9.48966255" x2="39.9642518" y2="9.48966255" id="Path" stroke="#000000" stroke-linecap="round" stroke-linejoin="round"></line>
                <line x1="6.97545068" y1="19.1934543" x2="44.8595291" y2="19.1934543" id="Path" stroke="#000000" stroke-linecap="round" stroke-linejoin="round"></line>
            </g>
        </g>
    </g>
</svg>