<?xml version="1.0" encoding="UTF-8"?>
<svg width="300px" height="200px" viewBox="0 0 300 200" version="1.1" xmlns="http://www.w3.org/2000/svg" xmlns:xlink="http://www.w3.org/1999/xlink">
    <title>Illustrations/Light/multi-sellers</title>
    <defs>
        <rect id="path-1" x="0" y="0" width="237" height="183" rx="4"></rect>
        <filter x="-16.2%" y="-21.0%" width="133.3%" height="143.2%" filterUnits="objectBoundingBox" id="filter-3">
            <feMorphology radius="3" operator="dilate" in="SourceAlpha" result="shadowSpreadOuter1"></feMorphology>
            <feOffset dx="1" dy="1" in="shadowSpreadOuter1" result="shadowOffsetOuter1"></feOffset>
            <feGaussianBlur stdDeviation="10" in="shadowOffsetOuter1" result="shadowBlurOuter1"></feGaussianBlur>
            <feColorMatrix values="0 0 0 0 0   0 0 0 0 0   0 0 0 0 0  0 0 0 0.171829757 0" type="matrix" in="shadowBlurOuter1"></feColorMatrix>
        </filter>
        <circle id="path-4" cx="23.5623859" cy="23.5623859" r="16.752897"></circle>
        <circle id="path-6" cx="35.5027842" cy="35.5027842" r="25.2425407"></circle>
        <circle id="path-8" cx="23.5623859" cy="23.5623859" r="16.752897"></circle>
    </defs>
    <g id="Illustrations/Light/multi-sellers" stroke="none" stroke-width="1" fill="none" fill-rule="evenodd">
        <g id="feature-multi-seller-deal" transform="translate(1.232010, 0.458349)">
            <rect id="Rectangle" fill="#E0E5FF" x="95.4490655" y="51.8862642" width="202.621622" height="147"></rect>
            <path d="M261.760801,187.296318 L259.710046,186.222624 C259.579389,186.154601 259.471239,186.05018 259.398674,185.92199 L258.32498,183.871234 C258.199981,183.627633 257.949195,183.474443 257.675395,183.474443 C257.401595,183.474443 257.150809,183.627633 257.02581,183.871234 L255.952116,185.92199 C255.886821,186.051909 255.781401,186.157329 255.651482,186.222624 L253.600726,187.296318 C253.357125,187.421317 253.203935,187.672103 253.203935,187.945903 C253.203935,188.219703 253.357125,188.470489 253.600726,188.595488 L255.651482,189.669182 C255.776816,189.740652 255.880646,189.844483 255.952116,189.969817 L257.02581,192.031309 C257.155881,192.268495 257.404886,192.415933 257.675395,192.415933 C257.945905,192.415933 258.19491,192.268495 258.32498,192.031309 L259.398674,189.969817 C259.477181,189.846352 259.583903,189.74331 259.710046,189.669182 L261.760801,188.595488 C261.997987,188.465418 262.145425,188.216413 262.145425,187.945903 C262.145425,187.675394 261.997987,187.426389 261.760801,187.296318 L261.760801,187.296318 Z" id="Path" fill="#809AFD" fill-rule="nonzero" transform="translate(257.674680, 187.945188) rotate(-21.000000) translate(-257.674680, -187.945188) "></path>
            <path d="M263.582718,186.866705 L261.531962,185.793011 C261.401306,185.724987 261.293156,185.620567 261.220591,185.492377 L260.146897,183.441621 C260.021898,183.198019 259.771112,183.04483 259.497312,183.04483 C259.223512,183.04483 258.972726,183.198019 258.847727,183.441621 L257.774033,185.492377 C257.708738,185.622296 257.603317,185.727716 257.473399,185.793011 L255.422643,186.866705 C255.179041,186.991704 255.025852,187.24249 255.025852,187.51629 C255.025852,187.79009 255.179041,188.040876 255.422643,188.165875 L257.473399,189.239569 C257.598733,189.311039 257.702563,189.41487 257.774033,189.540204 L258.847727,191.601696 C258.977797,191.838882 259.226803,191.98632 259.497312,191.98632 C259.767822,191.98632 260.016827,191.838882 260.146897,191.601696 L261.220591,189.540204 C261.299098,189.416739 261.40582,189.313697 261.531962,189.239569 L263.582718,188.165875 C263.819904,188.035805 263.967342,187.7868 263.967342,187.51629 C263.967342,187.245781 263.819904,186.996776 263.582718,186.866705 L263.582718,186.866705 Z" id="Path" stroke="#000000" stroke-width="0.5" fill-rule="nonzero" transform="translate(259.496597, 187.515575) rotate(-21.000000) translate(-259.496597, -187.515575) "></path>
            <g id="Group-10" transform="translate(261.321268, 91.150944) rotate(-21.000000) translate(-261.321268, -91.150944) translate(255.224797, 85.054474)" fill-rule="nonzero" stroke="#000000" stroke-width="0.5">
                <path d="M11.6521303,5.20018 L8.86874935,3.70636272 C8.69516107,3.62229837 8.55503476,3.48191642 8.47112349,3.30801145 L6.98002654,0.519552536 C6.80072099,0.198713674 6.46234237,2.27373675e-13 6.09530901,2.27373675e-13 C5.72827565,2.27373675e-13 5.38989703,0.198713674 5.21059148,0.519552536 L3.71949453,3.30801145 C3.62801663,3.48331317 3.48122149,3.62337312 3.30198738,3.70636272 L0.518606403,5.20018 C0.198351805,5.37981267 9.09494702e-13,5.71880862 9.09494702e-13,6.08651158 C9.09494702e-13,6.45421455 0.198351805,6.7932105 0.518606403,6.97284317 L3.30198738,8.46666044 C3.47810094,8.56337336 3.62295774,8.70849442 3.71949453,8.88492928 L5.21059148,11.6733882 C5.38989703,11.9942271 5.72827565,12.1929407 6.09530901,12.1929407 C6.46234237,12.1929407 6.80072099,11.9942271 6.98002654,11.6733882 L8.47112349,8.88492928 C8.56047158,8.7098962 8.69859861,8.56459822 8.86874935,8.46666044 L11.6521303,6.97284317 C11.9841143,6.80245242 12.1929407,6.46020784 12.1929407,6.08651158 C12.1929407,5.71281532 11.9841143,5.37057074 11.6521303,5.20018 Z" id="Path"></path>
            </g>
            <g id="Group-10" transform="translate(284.556198, 13.240806) rotate(-21.000000) translate(-284.556198, -13.240806) translate(278.053296, 6.534688)" fill-rule="nonzero">
                <path d="M11.6521303,6.41947407 L8.86874935,4.9256568 C8.69516107,4.84159245 8.55503476,4.70121049 8.47112349,4.52730552 L6.98002654,1.73884661 C6.80072099,1.41800775 6.46234237,1.21929407 6.09530901,1.21929407 C5.72827565,1.21929407 5.38989703,1.41800775 5.21059148,1.73884661 L3.71949453,4.52730552 C3.62801663,4.70260725 3.48122149,4.84266719 3.30198738,4.9256568 L0.518606403,6.41947407 C0.198351805,6.59910674 1.8189894e-12,6.93810269 1.8189894e-12,7.30580566 C1.8189894e-12,7.67350862 0.198351805,8.01250457 0.518606403,8.19213724 L3.30198738,9.68595451 C3.47810094,9.78266743 3.62295774,9.92778849 3.71949453,10.1042234 L5.21059148,12.8926823 C5.38989703,13.2135211 5.72827565,13.4122348 6.09530901,13.4122348 C6.46234237,13.4122348 6.80072099,13.2135211 6.98002654,12.8926823 L8.47112349,10.1042234 C8.56047158,9.92919027 8.69859861,9.78389229 8.86874935,9.68595451 L11.6521303,8.19213724 C11.9841143,8.0217465 12.1929407,7.67950191 12.1929407,7.30580566 C12.1929407,6.9321094 11.9841143,6.58986481 11.6521303,6.41947407 Z" id="Path" fill="#C7D3FF"></path>
                <path d="M12.464993,5.20018 L9.68161206,3.70636272 C9.50802378,3.62229837 9.36789747,3.48191642 9.28398621,3.30801145 L7.79288925,0.519552536 C7.6135837,0.198713674 7.27520509,0 6.90817173,0 C6.54113837,0 6.20275975,0.198713674 6.0234542,0.519552536 L4.53235725,3.30801145 C4.44087934,3.48331317 4.29408421,3.62337312 4.1148501,3.70636272 L1.33146912,5.20018 C1.01121452,5.37981267 0.812862715,5.71880862 0.812862715,6.08651158 C0.812862715,6.45421455 1.01121452,6.7932105 1.33146912,6.97284317 L4.1148501,8.46666044 C4.29096366,8.56337336 4.43582045,8.70849442 4.53235725,8.88492928 L6.0234542,11.6733882 C6.20275975,11.9942271 6.54113837,12.1929407 6.90817173,12.1929407 C7.27520509,12.1929407 7.6135837,11.9942271 7.79288925,11.6733882 L9.28398621,8.88492928 C9.37333429,8.7098962 9.51146132,8.56459822 9.68161206,8.46666044 L12.464993,6.97284317 C12.796977,6.80245242 13.0058034,6.46020784 13.0058034,6.08651158 C13.0058034,5.71281532 12.796977,5.37057074 12.464993,5.20018 Z" id="Path" stroke="#000000" stroke-width="0.5"></path>
            </g>
            <mask id="mask-2" fill="white">
                <use xlink:href="#path-1"></use>
            </mask>
            <g id="surface">
                <use fill="black" fill-opacity="1" filter="url(#filter-3)" xlink:href="#path-1"></use>
                <use fill="#FFFFFF" fill-rule="evenodd" xlink:href="#path-1"></use>
            </g>
            <path d="M124.571504,95.860432 L124.571372,130.768747 C124.96832,130.702907 125.377868,130.668465 125.796556,130.668465 C128.762163,130.668465 131.269189,132.396423 132.088642,134.770731 C133.666394,134.241095 135.383785,133.950323 137.179997,133.950323 C144.930228,133.950323 151.213032,139.363674 151.213032,146.041381 C151.213032,146.414447 151.193422,146.783566 151.155043,147.148016 C152.441113,147.421434 153.695804,147.765637 154.912629,148.175481 C158.08299,145.668582 162.293754,144.141357 166.91433,144.141357 C175.480267,144.141357 182.637753,149.390162 184.373132,156.394262 C190.594352,152.591785 198.179053,150.359616 206.36384,150.359616 C227.500834,150.359616 244.635753,165.24633 244.635753,183.610024 C244.635753,201.973717 227.500834,216.860432 206.36384,216.860432 C187.105247,216.860432 171.169023,204.502052 168.488679,188.415468 C162.936961,194.979488 153.969863,199.242034 143.853049,199.242034 C137.610919,199.242034 131.806481,197.6193 126.971642,194.834427 C122.525459,197.608428 117.070049,199.242034 111.174723,199.242034 C101.232123,199.242034 92.5408019,194.595473 87.82999,187.669474 C83.7155891,189.860615 78.871808,191.123752 73.6878749,191.123752 C71.0281029,191.123752 68.4578762,190.79123 66.0294434,190.171502 C63.4360676,205.275111 48.4330356,216.860432 30.3130402,216.860432 C10.3683896,216.860432 -5.79994435,202.824387 -5.79994435,185.510047 C-5.79994435,168.195708 10.3683896,154.159662 30.3130402,154.159662 C37.0331409,154.159662 43.3245282,155.753131 48.7131892,158.528568 C52.8121442,150.076529 62.450864,144.141357 73.6878749,144.141357 C79.7886091,144.141357 85.4182375,145.890785 89.946258,148.84279 C93.594311,144.821534 99.2419386,142.241334 105.581136,142.241334 C105.711809,142.241334 105.842188,142.242431 105.972262,142.244613 C105.529721,141.281806 105.286736,140.231479 105.286736,139.132205 C105.286736,134.45781 109.680305,130.668465 115.100047,130.668465 C115.112058,130.668465 115.124063,130.668483 115.136064,130.668521 L115.135725,95.860432 L124.571504,95.860432 Z" id="Combined-Shape" fill="#E6EBFF" fill-rule="nonzero" mask="url(#mask-2)"></path>
            <g id="doc-&amp;-pen" mask="url(#mask-2)">
                <g transform="translate(78.153476, 85.188322)">
                    <g id="document" transform="translate(-0.000000, 0.819601)">
                        <rect id="Rectangle" stroke="#3C64F7" fill="#E6EBFF" x="0.5" y="5.65244032" width="57.8121987" height="49.5709988"></rect>
                        <rect id="Rectangle" stroke="#3C64F7" fill="#FFFFFF" x="7.85704021" y="0.5" width="50.3201988" height="64.1803985"></rect>
                        <path d="M15.2826524,37.6507573 C17.660872,43.4217336 21.714979,45.4095791 27.4449733,43.6142937 C36.0399646,40.9213657 32.435671,28.0325776 27.4449733,34.2800627 C22.4542755,40.5275479 22.6427654,53.4712118 17.2930107,51.3948789 C13.7265076,50.010657 19.7111959,44.8314772 35.2470755,35.8573395 L27.4449733,49.318546 L36.0399646,42.1040592 L36.0399646,48.8313378 L39.8816075,46.2479113 L41.7069147,48.8313378 L45.6423611,46.9368969 L51.4645341,50.9992997" id="Path-4" stroke="#000000" stroke-width="0.5"></path>
                        <line x1="15.2826524" y1="9.35057833" x2="50.7516269" y2="9.35057833" id="Line-3" stroke="#3C64F7" stroke-width="0.5" stroke-linecap="square"></line>
                        <line x1="15.2826524" y1="14.9668593" x2="50.7516269" y2="14.9668593" id="Line-3" stroke="#3C64F7" stroke-width="0.5" stroke-linecap="square"></line>
                        <line x1="15.2826524" y1="20.5831403" x2="50.7516269" y2="20.5831403" id="Line-3" stroke="#3C64F7" stroke-width="0.5" stroke-linecap="square"></line>
                        <line x1="15.2826524" y1="26.1994213" x2="50.7516269" y2="26.1994213" id="Line-3" stroke="#3C64F7" stroke-width="0.5" stroke-linecap="square"></line>
                    </g>
                    <g id="pen" transform="translate(75.432861, 29.354079) scale(1, -1) rotate(49.000000) translate(-75.432861, -29.354079) translate(41.718862, 23.394553)">
                        <path d="M36.6793566,3.32781856 L37.9306789,3.33225669 L39.1710874,3.34106546 L41.0118171,3.36234523 L42.2237623,3.38179783 L43.4230484,3.40538582 L44.609049,3.43304044 L45.7811375,3.4646929 L46.9386871,3.50027433 L48.0810707,3.53971579 L49.207661,3.58294826 L50.3173255,3.62987901 L51.9509196,3.70716125 L53.0172863,3.76311721 L54.0650308,3.8225522 L55.0935228,3.88539645 L56.1021314,3.95158001 L57.0902245,4.02103265 L58.0571692,4.09368385 L59.0016626,4.16940514 L60.3778398,4.2888392 C60.4708497,5.12993315 60.3638612,5.9806081 60.3638612,6.85636895 C60.3638612,7.85672931 60.5034529,8.8243565 60.7640169,9.74073901 L60.7640169,9.74073901 L59.6164269,9.84432988 L58.7007774,9.92096234 L57.7636238,9.99460819 L56.8055703,10.0652 L55.8272202,10.1326707 L54.8291756,10.1969535 L53.8120381,10.2579817 L52.7753785,10.3157432 L52.7753785,10.3157432 L52.2518463,10.3432767 L51.1900966,10.3958563 L49.5645628,10.468224 L48.4609592,10.5119867 L47.3418588,10.5520986 L46.2078595,10.5884939 L45.0595591,10.6211071 L43.8975548,10.6498727 L42.722444,10.674725 L41.5348236,10.6955987 L40.3352906,10.7124284 L39.1244416,10.7251486 L37.9028733,10.7336942 L36.671181,10.7379997 L35.4223841,10.7380029 L34.1711138,10.7335477 L32.9307632,10.7247398 L31.0901182,10.703462 L29.8782279,10.6840112 L28.6789953,10.6604254 L27.4930469,10.6327733 L26.321009,10.6011238 L25.1635083,10.5655456 L24.0211719,10.5261078 L22.8946272,10.4828792 L21.7850062,10.4359527 L20.1514737,10.3586774 L19.0851455,10.3027264 L18.0374373,10.2432967 L17.0089793,10.180458 L16.0004023,10.1142803 L15.0123382,10.0448337 L14.0460601,9.97224053 L12.6360793,9.8573798 C12.6829172,8.82912526 12.8548936,7.75906923 12.8548936,6.64868305 C12.8548936,5.81045824 12.7568761,4.99521555 12.5718774,4.21399941 L12.5718774,4.21399941 L13.8553744,4.1085213 L14.8278853,4.03450846 L15.822094,3.96374763 L16.8373485,3.89631122 L17.8729977,3.83227138 L18.9283914,3.77170002 L20.0028802,3.71466888 L21.0958152,3.6612495 L22.206548,3.61151331 L23.3344309,3.56553159 L24.4788165,3.52337553 L25.6390577,3.48511622 L26.8145079,3.45082469 L28.0045206,3.42057186 L29.2084496,3.39442862 L30.4265584,3.37245185 C30.6304953,3.36914422 30.8349569,3.36601374 31.0390231,3.36307412 L31.0390231,3.36307412 L32.2749171,3.34751455 L33.5224672,3.3363122 L34.7805839,3.32953833 L36.6793566,3.32781856 Z" id="Path" stroke="#3C64F7" fill="#E6EBFF"></path>
                        <path d="M37.4927773,3.50887368 C37.2928042,5.2087459 37.1922345,6.55159498 37.1910681,7.53742092 C37.1899018,8.52324686 37.2871548,9.98379046 37.4828271,11.9190517 L36.2322487,11.9190517 L34.9792074,11.9145871 L33.7366283,11.9057583 L32.4920808,11.8844496 C32.3330695,9.92471049 32.2507872,8.47570095 32.2452339,7.53742092 C32.2396806,6.59914089 32.3055086,5.26805582 32.442718,3.54416569 L33.0820749,3.52858666 L34.3314233,3.51737141 L35.5917785,3.5105905 L37.4927773,3.50887368 Z" id="Path" fill="#E6EBFF"></path>
                        <path d="M36.6811312,2.82782171 C36.4811581,4.52769393 36.3805883,5.87054301 36.379422,6.85636895 C36.3782557,7.84219489 36.4755087,9.30273849 36.671181,11.2379997 L35.4206026,11.2379997 L34.1675613,11.2335351 L32.9249822,11.2247063 L31.6804347,11.2033976 C31.5214234,9.24365852 31.4391411,7.79464898 31.4335878,6.85636895 C31.4280345,5.91808892 31.4938625,4.58700385 31.6310718,2.86311372 L32.2704288,2.84753469 L33.5197771,2.83631944 L34.7801324,2.82953853 L36.6811312,2.82782171 Z" id="Path" stroke="#3C64F7"></path>
                        <path d="M61.5001432,4.82896767 L65.6329731,4.82962982 C65.9903577,4.82962982 66.313818,4.97521863 66.5479917,5.21032582 C66.7828839,5.4461544 66.9279985,5.77199523 66.9279985,6.13181083 L66.9279985,6.13181083 L66.9279985,7.93399184 C66.9279985,8.29380744 66.7828839,8.61964828 66.5479917,8.85547686 C66.313818,9.09058405 65.9903577,9.23617285 65.6329241,9.23617285 L65.6329241,9.23617285 L61.5827919,9.23656998 C61.3991369,8.46908357 61.3019172,7.66783392 61.3019172,6.84378358 C61.3019172,6.15410767 61.3700122,5.48040343 61.5001432,4.82896767 L61.5001432,4.82896767 Z" id="Path" stroke="#3C64F7" fill="#FFFFFF"></path>
                        <path d="M11.4667087,4.28679206 C11.9282873,4.96992788 12.0072447,5.70731534 12.0072447,6.46258252 C12.0072447,7.50873319 11.8505392,8.51813704 11.5587652,9.46820792 L11.5587652,9.46820792 L11.1884556,9.43623918 L10.6942092,9.38725564 L9.7346122,9.2766493 L6.55925559,8.72892875 C3.38460801,7.59023273 3.06875971,7.42384554 2.87935257,7.21363568 C2.78061014,7.10404829 2.70874404,6.99492095 2.70874404,6.87419176 C2.70874404,6.70823415 2.83296329,6.56495992 2.99577805,6.41971693 C3.26838225,6.1765335 3.67561796,5.95099831 4.19188693,5.73674924 C4.66510336,5.55272596 4.90747305,5.46899453 5.15907129,5.3905954 L5.15907129,5.3905954 L8.3868643,4.66562416 Z" id="Path" stroke="#3C64F7" fill="#FFFFFF"></path>
                        <path d="M3.331,6.366 L3.34198226,6.37974112 C3.44200008,6.53577743 3.44583669,6.70419437 3.44583669,6.86931326 C3.44583669,7.11965304 3.42045034,7.3640397 3.37201314,7.59998134 L3.35,7.689 L3.28383586,7.68319487 L3.10068828,7.66310651 L2.9217491,7.64152201 L2.74720865,7.61848921 L2.57574593,7.59382357 L2.49406976,7.58133409 L2.3313807,7.55490397 L2.17208212,7.52689119 L2.09696232,7.51291131 L1.94555197,7.48305216 L1.874718,7.46829066 L1.73368685,7.43720072 L1.59863203,7.40512989 L1.46979829,7.37216999 L1.34245519,7.3369648 C1.3028625,7.32558505 1.26417865,7.31403285 1.23184339,7.30402431 L1.23184339,7.30402431 L1.12030459,7.26807569 L1.07175496,7.25151726 L0.970936339,7.21483636 L0.923201639,7.19626902 L0.835312795,7.15982356 C0.808437697,7.14814137 0.782491109,7.13633678 0.766306885,7.12871042 L0.766306885,7.12871042 L0.688477807,7.08975341 C0.648635931,7.06869474 0.612048824,7.04810764 0.57977598,7.02708748 C0.658350485,6.9742533 0.758456042,6.92564698 0.871792845,6.87858907 L0.871792845,6.87858907 L0.969390528,6.8397981 C1.04993619,6.80918228 1.136605,6.7795674 1.22378318,6.75250887 L1.22378318,6.75250887 L1.34051505,6.71759336 L1.46390254,6.68342802 L1.59368661,6.65011863 L1.72962178,6.6177571 L1.87147387,6.58642458 L2.02074421,6.55586351 L2.09485685,6.54151277 L2.250535,6.51305765 L2.41137539,6.48586092 L2.57717583,6.45997791 L2.74773848,6.43546098 L2.92286915,6.41236009 L3.10237676,6.39072322 L3.28736674,6.37046718 L3.331,6.366 Z" id="Path" stroke="#3C64F7" fill="#FFFFFF"></path>
                        <path d="M60.5849875,3.67919435 C61.0381715,2.46994346 61.0381715,1.68299479 60.5849875,1.31834834 C59.9052114,0.77137867 43.0361064,-1.12140912 37.7631805,0.939004771 C36.8542622,1.29416772 36.7075433,1.67270667 37.3230239,2.07462161 C48.4111845,1.31754372 54.7270633,1.75709307 56.2706603,3.39326966 C57.2074991,3.39326966 58.6456081,3.48857789 60.5849875,3.67919435 Z" id="Path-49" stroke="#3C64F7" fill="#FFFFFF"></path>
                    </g>
                </g>
            </g>
            <g id="seller-1" mask="url(#mask-2)">
                <g transform="translate(203.370715, 74.466645) scale(-1, 1) translate(-203.370715, -74.466645) translate(179.808329, 50.904259)">
                    <mask id="mask-5" fill="white">
                        <use xlink:href="#path-4"></use>
                    </mask>
                    <use id="Oval" stroke="none" fill="#E6EBFF" fill-rule="evenodd" transform="translate(23.562386, 23.562386) rotate(51.000000) translate(-23.562386, -23.562386) " xlink:href="#path-4"></use>
                    <g id="avatar" stroke="none" stroke-width="1" fill="none" fill-rule="evenodd" mask="url(#mask-5)">
                        <g transform="translate(1.365049, 9.359038)">
                            <path d="M6.19636455,22.9883667 C8.36224922,20.489269 27.2920812,18.9198356 29.5212764,20.6558755 C33.8084023,23.9903068 32.3337215,40.8147994 31.7846917,45.0032634 C31.757638,45.2096518 2.19123566,45.0032634 0.0700585565,45.0537333 C-0.596367496,44.0540942 3.64728489,25.9239734 6.19636455,22.9883667 Z" id="Path" stroke="none" fill="#000000" fill-rule="nonzero"></path>
                            <path d="M13.5296546,45.0153653 C9.3742759,43.9519234 7.99860864,42.1911641 10.1949209,35.6304689" id="Path" stroke="#FFFFFF" stroke-width="0.4" fill="none" stroke-linecap="round"></path>
                            <path d="M28.4050127,34.1210139 C28.3483665,35.070671 28.0418105,45.0032634 28.0418105,45.0032634" id="Path" stroke="#FFFFFF" stroke-width="0.4" fill="none" stroke-linecap="round"></path>
                            <path d="M22.5604563,17.6636225 L22.6137703,21.1756878 C22.6137703,22.0453738 17.8354956,22.0953558 17.8387949,21.1756878 L17.8387949,14.9000634" id="Path" stroke="#000000" stroke-width="0.6" fill="none" fill-rule="nonzero"></path>
                            <circle id="Oval" stroke="#000000" stroke-width="0.6" fill="none" fill-rule="nonzero" cx="22.4738209" cy="11.4625281" r="5.90109442"></circle>
                            <ellipse id="Oval" stroke="none" fill="#FF6E61" fill-rule="nonzero" transform="translate(28.196212, 13.234323) rotate(-84.070000) translate(-28.196212, -13.234323) " cx="28.1962116" cy="13.2343229" rx="1" ry="1.03629251"></ellipse>
                            <ellipse id="Oval" stroke="none" fill="#FF6E61" fill-rule="nonzero" transform="translate(21.723714, 12.755315) rotate(-84.070000) translate(-21.723714, -12.755315) " cx="21.7237142" cy="12.7553148" rx="1" ry="1.03629251"></ellipse>
                            <path d="M25.7992869,12.0589794 C25.9625613,12.3522069 26.8322473,13.60842 25.7393085,13.9682901" id="Path" stroke="#000000" stroke-width="0.6" fill="none" stroke-linecap="round"></path>
                            <path d="M23.5234419,15.0978822 C23.2168859,15.0578967 22.7770447,14.631384 22.5604563,14.2615175" id="Path" stroke="#000000" stroke-width="0.6" fill="none" stroke-linecap="round"></path>
                            <path d="M18.385297,11.895705 C18.385297,13.7150482 16.3860189,14.8946223 15.6996001,14.8946223 C15.483941,14.9207364 15.2675574,14.8520264 15.1064703,14.7062809 C14.9453832,14.5605354 14.8554314,14.352085 14.8599032,14.1348966 C14.8599032,13.3718387 15.3064087,12.7220733 16.2494015,11.895705 C16.0761308,11.612474 14.8599032,10.1196796 14.8599032,7.9937805 C14.8599032,5.76458535 16.2294088,3.89526028 17.1457446,3.89526028 C17.9511501,3.94883575 18.6191333,4.53879636 18.7718242,5.33140842 C18.7718242,2.21586662 22.1039544,0 24.1032326,0 C25.9525649,0 26.2724494,0.806375523 26.2724494,1.45947305 C26.2724494,2.8956212 25.1395251,4.43173325 24.7163445,4.80826397 C25.7526371,4.04520614 27.3820488,3.27548405 28.7682149,3.27548405 C29.6512295,3.27548405 30.7674931,3.52539382 30.7674931,4.7349571 C30.7674931,6.95748799 28.6393793,8.31625788 27.9429641,8.67612795 C27.6779264,8.15845296 27.3428808,7.70373558 26.9447862,7.27976265 C27.0747393,7.69961107 26.6056624,8.36697909 25.622684,8.53691773 C25.0562218,8.63021738 18.385297,7.73054221 18.385297,11.895705 Z" id="Path" stroke="none" fill="#000000" fill-rule="nonzero"></path>
                        </g>
                    </g>
                </g>
            </g>
            <g id="seller-2" mask="url(#mask-2)">
                <g transform="translate(82.434375, 1.029031)">
                    <mask id="mask-7" fill="white">
                        <use xlink:href="#path-6"></use>
                    </mask>
                    <use id="Oval" stroke="none" fill="#E6EBFF" fill-rule="evenodd" transform="translate(35.502784, 35.502784) rotate(51.000000) translate(-35.502784, -35.502784) " xlink:href="#path-6"></use>
                    <g id="Illustrations/Ligth/380px/congratulations" stroke="none" stroke-width="1" fill="none" fill-rule="evenodd" mask="url(#mask-7)">
                        <g transform="translate(-50.708015, -54.187933)" id="Group-5">
                            <g id="Group" transform="translate(41.647568, 68.430396) rotate(-9.000000) translate(-41.647568, -68.430396) translate(9.651630, 4.214665)" fill-rule="nonzero">
                                <ellipse id="Oval" fill="#FF6E61" transform="translate(31.243938, 34.014087) rotate(-64.385648) translate(-31.243938, -34.014087) " cx="31.2439381" cy="34.0140868" rx="26.1374037" ry="20.1399859"></ellipse>
                                <path d="M8.93400251,97.4202202 C8.30341421,100.790994 7.58078808,104.14329 6.6504482,107.456231 C5.36702837,112.098444 3.15021231,118.96892 -1.6946954e-14,128.067658 C0.108207931,128.425298 0.282453308,128.519252 0.522736132,128.349519 C0.883160369,128.09492 4.60087615,117.98765 6.86046236,110.450459 C8.12648194,106.240443 9.02719175,101.956003 9.81386864,97.6483672 C9.7849751,97.6437909 8.92448232,97.4187493 8.93400251,97.4202202 Z" id="Path" fill="#000000"></path>
                                <path d="M10.4657053,88.4811842 C10.297031,89.5046371 10.1292598,90.5280899 9.95911797,91.5509656 C9.97900296,91.554102 10.84371,91.7418966 10.8476516,91.7170102 C11.8484966,85.8364837 12.8513992,79.9564776 14.4909766,74.2063784 C16.3461016,67.6956742 19.2862998,61.5679527 24.1166253,56.7284454 C24.6416607,56.2758296 23.8716088,55.5098644 23.4165781,55.9972968 C14.8059978,64.6666301 12.3908351,76.8872565 10.4657053,88.4811842 Z" id="Path" fill="#000000"></path>
                                <ellipse id="Oval" stroke="#000000" stroke-width="1.5" transform="translate(34.531414, 32.275669) rotate(-64.385648) translate(-34.531414, -32.275669) " cx="34.5314137" cy="32.2756688" rx="26.1374037" ry="20.1399859"></ellipse>
                            </g>
                            <g id="woman-writing" transform="translate(21.379398, 68.157612)">
                                <path d="M86.5376333,182.802029 C86.57443,183.40713 86.9464854,185.631114 86.4763055,186.256658 C85.6136276,187.389178 78.0784836,187.331939 77.7064281,187.004857 C77.3343727,186.677776 77.0808845,185.950019 77.383435,185.721062 C77.6859855,185.492105 80.6338091,184.707109 81.0181301,184.404558 C81.402451,184.102007 81.8767195,183.216229 81.6191426,182.427145 L86.5376333,182.802029 Z" id="Path" fill="#000000" fill-rule="nonzero"></path>
                                <path d="M49.1930834,83.6756687 C47.9092879,86.5866955 37.1278583,118.301352 37.377258,122.925469 C37.6266578,127.549586 62.5748123,175.197209 63.9526439,175.700097 C65.3304754,176.202985 71.0544047,174.444921 71.5164075,173.193834 C71.9039923,172.144268 65.5237738,151.962421 63.3110522,141.188703" id="Path" stroke="#000000" fill-rule="nonzero"></path>
                                <path d="M49.1930834,83.6756687 C49.8390697,87.1059377 60.5673486,134.410124 60.5673486,134.410124 L80.2372226,182.045481 C81.8726309,182.842743 86.68482,182.928602 87.5270553,182.675114 C88.3692906,182.421625 84.3257435,136.805998 82.7271318,130.342046 C81.4436406,125.152277 78.4201527,94.2758827 77.3011145,82.6697897" id="Path" stroke="#000000" fill-rule="nonzero"></path>
                                <path d="M70.6310136,174.045037 C70.8517937,174.605165 72.0847119,177.351859 71.8189581,178.091882 C71.3406011,179.432917 64.1529814,181.673426 63.6991556,181.473088 C63.2453297,181.272751 62.7792384,180.655384 62.99593,180.348745 C63.2126216,180.042106 65.7843012,178.398521 66.0623206,177.989669 C66.3403401,177.580817 66.5529431,176.264124 66.0623206,175.589518 L70.6310136,174.045037 Z" id="Path" fill="#000000" fill-rule="nonzero"></path>
                                <path d="M58.3716727,25.7453149 L58.3716727,31.532319 C60.5223281,31.0683621 62.3921917,31.2128509 63.9812635,31.9657855 L63.9812635,24.7968709" id="Path" stroke="#000000" fill-rule="nonzero"></path>
                                <circle id="Oval" stroke="#000000" fill-rule="nonzero" cx="60.1952932" cy="18.4678489" r="7.43701951"></circle>
                                <ellipse id="Oval" fill="#FF6E61" fill-rule="nonzero" cx="52.6765032" cy="19.465448" rx="1.24291035" ry="1"></ellipse>
                                <ellipse id="Oval" fill="#FF6E61" fill-rule="nonzero" cx="60.4774011" cy="19.465448" rx="1.24291035" ry="1"></ellipse>
                                <path d="M55.7060972,18.1244131 C55.4730515,18.4555833 54.2792034,19.8456804 55.5384679,20.4098963" id="Path" stroke="#000000" stroke-width="0.62" stroke-linecap="round"></path>
                                <path d="M58.0569967,22.0330391 C58.5584423,21.8974593 58.9940278,21.5852897 59.283553,21.1540071" id="Path" stroke="#000000" stroke-width="0.62" stroke-linecap="round"></path>
                                <path d="M78.2244724,81.4760444 C86.471019,81.2511758 91.574691,75.0120929 91.574691,60.1584965 C91.574691,54.0257151 81.3779199,35.5619548 79.3541021,28.5869381 C78.3074407,24.9849512 79.149676,14.387505 73.8059792,8.99474597 C71.2302111,6.3985352 59.9050082,7.01181334 56.9817157,8.23428108 C54.0584233,9.45674883 54.401859,13.1405062 54.7003211,13.7169876 C55.3994581,13.1282406 56.9326535,11.9343925 57.2065844,11.9711892 C58.6416552,12.1469956 62.5584582,16.5544211 63.7482178,18.578239 C64.7131087,20.2136473 63.2248871,30.3695332 65.1096953,33.2723831 C66.9945034,36.1752329 69.7604065,36.8281046 69.7604065,36.8281046 C73.5162559,41.9437128 76.1391294,50.1031067 77.6290268,61.3062861 C78.8095654,70.1832637 79.0080473,76.9065164 78.2244724,81.4760444 Z" id="Path" fill="#000000" fill-rule="nonzero"></path>
                                <path d="M54.2990576,33.1615054 C56.2097438,31.3723504 58.5884049,30.4809374 61.5322395,30.8519787 C63.5426552,30.9306827 65.3571079,32.0785048 66.9823172,33.971338 L67.1621328,33.3541535 C74.157592,39.3479251 81.4351592,65.4653966 81.4351592,68.678974 C81.4351592,77.7391363 72.3014035,93.8683513 72.3014035,93.8683513 C72.3014035,93.8683513 71.1756223,92.9836991 70.0414186,92.1020692 L69.6842723,91.8247955 C69.0929059,91.3662913 68.5317873,90.9345078 68.1638204,90.6588623 C68.4153393,90.2630293 69.1752098,85.9480029 69.8668081,81.4738947 C61.8214878,83.3329607 50.4061674,85.0268492 49.1930834,83.6756687 C48.1860929,82.5540431 46.1049931,65.9548792 47.6847576,51.6449397 C42.0290047,53.8985784 30.0743485,57.4437186 28.6196463,57.4437186 C27.7181274,57.4437186 22.0487157,52.5756971 16.4542239,47.5463407 L15.7698878,46.9300149 C15.4282363,46.6217688 15.0876065,46.3136382 14.74911,46.006703 L14.0752904,45.3947468 C9.15963438,40.9234513 4.86223259,36.8642304 4.68953347,36.6249702 C4.29703546,36.0811969 5.91200122,34.4130804 6.97092813,33.3541535 C7.54086794,33.7229381 12.7886097,36.7109051 18.0091153,39.5365291 L18.7723512,39.9485533 C23.4710377,42.4782404 27.9606278,44.7652153 28.7831871,44.7652153 C29.6310798,44.7652153 34.7795857,42.4504298 40.2871639,39.8636197 L41.0952567,39.4833574 C41.2302136,39.4197357 41.3652696,39.3560115 41.5003678,39.2922144 L42.7158417,38.7168722 C47.7047604,36.3500637 52.5163537,34.0051757 54.2538141,33.1835208 Z" id="Combined-Shape" fill="#000000" fill-rule="nonzero"></path>
                                <path d="M3.35871992,36.8199148 C5.28030152,36.8199148 7.11992405,35.3148618 7.11992405,33.7297264 C7.11992405,32.1445909 5.40091289,30.7252345 3.47933128,30.7252345 C1.55774968,30.7252345 0,32.0102407 0,33.5953762 C0,35.1805117 1.43713831,36.8199148 3.35871992,36.8199148 Z" id="Oval" stroke="#000000" fill-rule="nonzero"></path>
                                <path d="M61.5976558,52.4802542 C62.7383531,53.907148 71.1607062,69.1041802 71.1607062,71.3896634 C71.1607062,72.5221837 70.5433395,77.0767959 69.8646451,81.4760444" id="Path" stroke="#FFFFFF" stroke-linecap="round" stroke-linejoin="round"></path>
                                <path d="M64.3574074,30.8274476 C64.0098831,33.844776 72.8124686,44.3727173 76.2427377,47.455462 C79.6689182,43.137984 77.6123922,32.4424133 77.6123922,32.4424133 L70.6210214,29.2124818 L64.3574074,30.8274476 Z" id="Path" fill="#000000" fill-rule="nonzero"></path>
                                <ellipse id="Oval" fill="#000000" fill-rule="nonzero" cx="72.3014035" cy="4.26023877" rx="3.61016395" ry="4.26023877"></ellipse>
                                <path d="M51.3927077,37.7493134 C49.70006,41.4657789 48.267771,46.580343 47.670847,51.7400563" id="Path" stroke="#FFFFFF" stroke-width="0.5" stroke-linecap="round" stroke-linejoin="round"></path>
                                <path d="M65.3318605,33.8938382 C68.9829097,37.9071182 70.8638375,39.6948401 74.3921398,46.5286339 C77.9204422,53.3624277 77.9204422,53.9396806 79.4049818,60.9679906 C80.4268632,66.8514796 80.7512251,66.4464676 80.7512251,74.1199171 C80.7512251,77.8003066 80.2790006,81.0148422 79.5750694,83.6756687" id="Path-2" stroke="#FFFFFF" stroke-width="0.5" stroke-linecap="round"></path>
                            </g>
                        </g>
                    </g>
                </g>
            </g>
            <g id="seller-1" mask="url(#mask-2)">
                <g transform="translate(6.199360, 56.218587)">
                    <mask id="mask-9" fill="white">
                        <use xlink:href="#path-8"></use>
                    </mask>
                    <use id="Oval" stroke="none" fill="#E6EBFF" fill-rule="evenodd" transform="translate(23.562386, 23.562386) rotate(51.000000) translate(-23.562386, -23.562386) " xlink:href="#path-8"></use>
                    <g id="avatar" stroke="none" stroke-width="1" fill="none" fill-rule="evenodd" mask="url(#mask-9)">
                        <g transform="translate(1.365049, 9.359038)">
                            <path d="M6.19636455,22.9883667 C8.36224922,20.489269 27.2920812,18.9198356 29.5212764,20.6558755 C33.8084023,23.9903068 32.3337215,40.8147994 31.7846917,45.0032634 C31.757638,45.2096518 2.19123566,45.0032634 0.0700585565,45.0537333 C-0.596367496,44.0540942 3.64728489,25.9239734 6.19636455,22.9883667 Z" id="Path" stroke="none" fill="#000000" fill-rule="nonzero"></path>
                            <path d="M13.5296546,45.0153653 C9.3742759,43.9519234 7.99860864,42.1911641 10.1949209,35.6304689" id="Path" stroke="#FFFFFF" stroke-width="0.4" fill="none" stroke-linecap="round"></path>
                            <path d="M28.4050127,34.1210139 C28.3483665,35.070671 28.0418105,45.0032634 28.0418105,45.0032634" id="Path" stroke="#FFFFFF" stroke-width="0.4" fill="none" stroke-linecap="round"></path>
                            <path d="M22.5604563,17.6636225 L22.6137703,21.1756878 C22.6137703,22.0453738 17.8354956,22.0953558 17.8387949,21.1756878 L17.8387949,14.9000634" id="Path" stroke="#000000" stroke-width="0.6" fill="none" fill-rule="nonzero"></path>
                            <circle id="Oval" stroke="#000000" stroke-width="0.6" fill="none" fill-rule="nonzero" cx="22.4738209" cy="11.4625281" r="5.90109442"></circle>
                            <ellipse id="Oval" stroke="none" fill="#FF6E61" fill-rule="nonzero" transform="translate(28.196212, 13.234323) rotate(-84.070000) translate(-28.196212, -13.234323) " cx="28.1962116" cy="13.2343229" rx="1" ry="1.03629251"></ellipse>
                            <ellipse id="Oval" stroke="none" fill="#FF6E61" fill-rule="nonzero" transform="translate(21.723714, 12.755315) rotate(-84.070000) translate(-21.723714, -12.755315) " cx="21.7237142" cy="12.7553148" rx="1" ry="1.03629251"></ellipse>
                            <path d="M25.7992869,12.0589794 C25.9625613,12.3522069 26.8322473,13.60842 25.7393085,13.9682901" id="Path" stroke="#000000" stroke-width="0.6" fill="none" stroke-linecap="round"></path>
                            <path d="M23.5234419,15.0978822 C23.2168859,15.0578967 22.7770447,14.631384 22.5604563,14.2615175" id="Path" stroke="#000000" stroke-width="0.6" fill="none" stroke-linecap="round"></path>
                            <path d="M18.385297,11.895705 C18.385297,13.7150482 16.3860189,14.8946223 15.6996001,14.8946223 C15.483941,14.9207364 15.2675574,14.8520264 15.1064703,14.7062809 C14.9453832,14.5605354 14.8554314,14.352085 14.8599032,14.1348966 C14.8599032,13.3718387 15.3064087,12.7220733 16.2494015,11.895705 C16.0761308,11.612474 14.8599032,10.1196796 14.8599032,7.9937805 C14.8599032,5.76458535 16.2294088,3.89526028 17.1457446,3.89526028 C17.9511501,3.94883575 18.6191333,4.53879636 18.7718242,5.33140842 C18.7718242,2.21586662 22.1039544,0 24.1032326,0 C25.9525649,0 26.2724494,0.806375523 26.2724494,1.45947305 C26.2724494,2.8956212 25.1395251,4.43173325 24.7163445,4.80826397 C25.7526371,4.04520614 27.3820488,3.27548405 28.7682149,3.27548405 C29.6512295,3.27548405 30.7674931,3.52539382 30.7674931,4.7349571 C30.7674931,6.95748799 28.6393793,8.31625788 27.9429641,8.67612795 C27.6779264,8.15845296 27.3428808,7.70373558 26.9447862,7.27976265 C27.0747393,7.69961107 26.6056624,8.36697909 25.622684,8.53691773 C25.0562218,8.63021738 18.385297,7.73054221 18.385297,11.895705 Z" id="Path" stroke="none" fill="#000000" fill-rule="nonzero"></path>
                        </g>
                    </g>
                </g>
            </g>
            <path d="M48.1158907,54.0345994 C53.6954359,47.7306391 59.5525141,43.7919682 65.6871252,42.2185868" id="Path-3" stroke="#000000" stroke-linecap="round" mask="url(#mask-2)"></path>
            <path d="M48.3241319,39.2157594 C51.918518,36.0754382 55.691693,34.1133872 59.6436569,33.3296064" id="Path-3" stroke="#000000" stroke-linecap="round" mask="url(#mask-2)"></path>
            <path d="M158.932925,32.9940395 C163.475951,34.4576447 167.101086,36.681356 169.808329,39.6651733" id="Path-3" stroke="#000000" stroke-linecap="round" mask="url(#mask-2)"></path>
            <path d="M153.439944,47.9622832 C160.809158,49.9082753 166.609151,53.1141942 170.839922,57.5800398" id="Path-3" stroke="#000000" stroke-linecap="round" mask="url(#mask-2)"></path>
        </g>
    </g>
</svg>