<svg width="143" height="88" viewBox="0 0 143 88" fill="none" xmlns="http://www.w3.org/2000/svg">
<rect x="11.3" y="0.3" width="122.4" height="79.4" rx="1.7" fill="white" stroke="black" stroke-width="0.6"/>
<path d="M104 9.75C104 9.24583 103.55 8.83333 103 8.83333H95C94.45 8.83333 94 9.24583 94 9.75V15.25C94 15.7542 94.45 16.1667 95 16.1667H103C103.55 16.1667 104 15.7542 104 15.25V9.75ZM103 9.75L99 12.0371L95 9.75H103ZM103 15.25H95V10.6667L99 12.9583L103 10.6667V15.25Z" fill="black"/>
<path d="M124.002 9.29167C123.975 9.69958 123.906 10.0983 123.796 10.4788L124.346 11.0287C124.534 10.4787 124.653 9.89667 124.695 9.29167H124.002ZM119.483 14.8008C119.094 14.9108 118.695 14.9796 118.292 15.0071V15.69C118.897 15.6487 119.479 15.5296 120.033 15.3462L119.483 14.8008ZM123.562 8.375H125.167C125.419 8.375 125.625 8.58125 125.625 8.83333C125.625 13.1371 122.137 16.625 117.833 16.625C117.581 16.625 117.375 16.4187 117.375 16.1667V14.5671C117.375 14.315 117.581 14.1088 117.833 14.1088C118.402 14.1088 118.956 14.0171 119.47 13.8475C119.515 13.8292 119.566 13.8246 119.612 13.8246C119.731 13.8246 119.845 13.8704 119.937 13.9575L120.945 14.9658C122.242 14.3012 123.306 13.2425 123.966 11.9454L122.958 10.9371C122.829 10.8088 122.793 10.63 122.843 10.4696C123.013 9.95625 123.104 9.40625 123.104 8.83333C123.104 8.58125 123.31 8.375 123.562 8.375Z" fill="black"/>
<path fill-rule="evenodd" clip-rule="evenodd" d="M136.824 23.1354H52.2473V22.5354H136.824V23.1354Z" fill="black"/>
<mask id="mask0_206_73" style="mask-type:alpha" maskUnits="userSpaceOnUse" x="0" y="26" width="65" height="62">
<path d="M32.5729 87.1416C14.7921 87.1416 0.377939 73.5137 0.377939 56.7029C0.377939 39.892 14.7921 26.2641 32.5729 26.2641C50.3537 26.2641 64.7678 39.892 64.7678 56.7029C64.7678 73.5137 50.3537 87.1416 32.5729 87.1416Z" fill="white"/>
</mask>
<g mask="url(#mask0_206_73)">
<path d="M57.6094 75.8586C46.4195 88.9146 26.1392 90.9223 12.312 80.3428C-1.5153 69.7634 -3.65338 50.6031 7.53643 37.5471C18.7262 24.4911 39.0066 22.4835 52.8338 33.0629C66.6611 43.6423 68.7992 62.8026 57.6094 75.8586Z" fill="white"/>
<path fill-rule="evenodd" clip-rule="evenodd" d="M58.2806 73.8646C48.0807 85.7656 29.3115 87.3801 16.3582 77.4694C3.40485 67.5586 1.17401 49.8767 11.3739 37.9757C21.5738 26.0747 40.343 24.4601 53.2963 34.3709C66.2496 44.2816 68.4804 61.9636 58.2806 73.8646ZM15.8643 78.0456C29.1633 88.2209 48.4344 86.5637 58.9073 74.3441C69.3802 62.1246 67.0892 43.9699 53.7902 33.7946C40.4911 23.6193 21.2201 25.2766 10.7471 37.4961C0.274198 49.7157 2.56522 67.8703 15.8643 78.0456Z" fill="black"/>
<path fill-rule="evenodd" clip-rule="evenodd" d="M32.9704 63.5226V73.4078L33.5687 73.1408C35.6456 72.2139 38.112 72.0243 40.9944 72.61L41.5018 72.7131V64.7477H40.6633V71.7393C38.1115 71.291 35.8212 71.4299 33.8089 72.1798V63.5226H32.9704Z" fill="black"/>
<path d="M14.5247 71.4256L10.3948 80.7147L22.9789 89.9215L55.3369 84.1728L38.6874 71.5425L14.5247 71.4256Z" fill="white" stroke="black" stroke-width="0.6"/>
<path d="M47.959 54.4445C47.959 58.0907 45.0369 61.0466 41.4323 61.0466C37.8276 61.0466 34.9055 58.0907 34.9055 54.4445C34.9055 50.7983 37.8276 47.8425 41.4323 47.8425C45.0369 47.8425 47.959 50.7983 47.959 54.4445Z" fill="#4268EE"/>
<path d="M38.5816 64.9539C32.9489 64.9539 28.3826 60.653 28.3826 55.3476C28.3826 50.0422 32.9489 45.7413 38.5816 45.7413C44.2144 45.7413 48.7806 50.0422 48.7806 55.3476C48.7806 60.653 44.2144 64.9539 38.5816 64.9539Z" fill="white"/>
<path fill-rule="evenodd" clip-rule="evenodd" d="M38.5817 46.1374C43.9841 46.1374 48.3615 50.2621 48.3615 55.3476C48.3615 60.433 43.9841 64.5577 38.5817 64.5577C33.1792 64.5577 28.8019 60.433 28.8019 55.3476C28.8019 50.2621 33.1792 46.1374 38.5817 46.1374ZM49.2 55.3476C49.2 49.8222 44.4448 45.3452 38.5817 45.3452C32.7186 45.3452 27.9634 49.8222 27.9634 55.3476C27.9634 60.8729 32.7186 65.35 38.5817 65.35C44.4448 65.35 49.2 60.8729 49.2 55.3476Z" fill="black"/>
<path fill-rule="evenodd" clip-rule="evenodd" d="M43.8956 54.1101C43.7001 54.2405 43.6535 54.4959 43.7915 54.6806C43.8267 54.7277 43.8702 54.7828 43.9191 54.8447C44.134 55.1169 44.4526 55.5203 44.6217 55.9503C44.7229 56.2075 44.7446 56.4167 44.6965 56.5751C44.6546 56.713 44.5396 56.879 44.1986 57.0229C43.9802 57.1151 43.8822 57.3572 43.9797 57.5636C44.0773 57.77 44.3335 57.8626 44.552 57.7704C45.0745 57.5499 45.4025 57.2182 45.5293 56.8011C45.6498 56.4045 45.5661 56.0013 45.4339 55.6651C45.2144 55.1069 44.7895 54.574 44.5857 54.3184C44.5488 54.2722 44.5192 54.2351 44.4993 54.2085C44.3614 54.0238 44.091 53.9797 43.8956 54.1101Z" fill="black"/>
<path fill-rule="evenodd" clip-rule="evenodd" d="M39.59 58.4777C39.3916 58.604 39.339 58.8583 39.4727 59.0458C40.1001 59.9261 41.0437 60.5629 42.1297 60.8395C42.3607 60.8983 42.5985 60.7691 42.6607 60.5508C42.723 60.3325 42.5862 60.1079 42.3552 60.0491C41.4703 59.8237 40.7019 59.3049 40.1914 58.5886C40.0577 58.4011 39.7885 58.3514 39.59 58.4777Z" fill="black"/>
<path fill-rule="evenodd" clip-rule="evenodd" d="M39.1542 45.6468C39.1839 45.8513 39.2118 46.0439 39.2434 46.22L40.5315 46.0268C40.5094 45.9035 40.4881 45.7521 40.4639 45.5788C40.3434 44.7188 40.1474 43.3201 39.3895 42.1418C38.9181 41.4089 38.2241 40.7405 37.199 40.296C36.1795 39.854 34.8784 39.6533 33.2232 39.7815L33.3334 40.9706C34.8193 40.8555 35.8776 41.0438 36.6396 41.3742C37.396 41.7022 37.9058 42.1895 38.2642 42.7467C38.8707 43.6895 39.0281 44.776 39.1542 45.6468Z" fill="#4268EE"/>
<path d="M12.3077 65.2715C11.9466 60.8982 12.588 49.0178 19.9163 42.8448C23.4487 39.873 38.9799 40.575 42.9889 41.9743C46.9978 43.3736 46.5268 47.5903 46.1175 48.2502C45.1587 47.5763 43.0561 46.2097 42.6805 46.2519C40.7124 46.4531 35.341 51.4982 33.7094 53.8148C32.3861 55.6868 39.2608 71.2704 36.676 74.5932C34.9528 76.8085 30.5227 77.3912 23.3858 76.3414C16.4399 74.2852 12.7472 70.5952 12.3077 65.2715Z" fill="black"/>
<path d="M17.6471 46.9605C15.2479 45.7385 14.5651 42.5861 16.1219 39.9195C17.6788 37.2529 20.8857 36.0819 23.2848 37.3039C25.6839 38.526 26.3667 41.6783 24.8099 44.3449C23.2531 47.0115 20.0462 48.1825 17.6471 46.9605Z" fill="black"/>
<path fill-rule="evenodd" clip-rule="evenodd" d="M41.6059 53.0091C41.6694 52.7912 41.534 52.5658 41.3033 52.5058C40.5712 52.3151 39.7672 52.385 39.0374 52.6869C38.8182 52.7775 38.7184 53.0189 38.8143 53.226C38.9103 53.4331 39.1658 53.5275 39.3849 53.4368C39.949 53.2034 40.5492 53.1586 41.0731 53.295C41.3038 53.3551 41.5423 53.2271 41.6059 53.0091Z" fill="black"/>
<path fill-rule="evenodd" clip-rule="evenodd" d="M47.9378 52.7073C48.0013 52.4893 47.8659 52.2639 47.6352 52.2039C46.9031 52.0132 46.0991 52.0831 45.3693 52.385C45.1501 52.4756 45.0503 52.717 45.1462 52.9241C45.2422 53.1312 45.4977 53.2256 45.7168 53.1349C46.2809 52.9015 46.8811 52.8567 47.405 52.9931C47.6357 53.0532 47.8742 52.9252 47.9378 52.7073Z" fill="black"/>
<path d="M32.2947 54.4445C32.2947 58.0907 29.3726 61.0465 25.768 61.0465C22.1633 61.0465 19.2412 58.0907 19.2412 54.4445C19.2412 50.7983 22.1633 47.8424 25.768 47.8424C29.3726 47.8424 32.2947 50.7983 32.2947 54.4445Z" fill="#4268EE"/>
<path fill-rule="evenodd" clip-rule="evenodd" d="M42.9001 67.8726C42.9001 67.8726 42.9001 67.8726 42.9001 67.8726L42.9078 67.8638L42.9317 67.8361L43.0249 67.7278C43.1059 67.6331 43.223 67.4954 43.3668 67.3241C43.6546 66.9812 44.0482 66.5046 44.4717 65.9696C45.3306 64.8844 46.271 63.6102 46.7269 62.7227C46.9052 62.3755 46.9991 61.8801 47.0108 61.2764C47.0224 60.6823 46.9537 60.0386 46.8522 59.434C46.7511 58.8319 46.6202 58.2843 46.5142 57.8865C46.4614 57.6881 46.415 57.5283 46.3822 57.4189C46.3658 57.3643 46.3529 57.3224 46.3441 57.2947L46.3344 57.264L46.3322 57.2571L46.3317 57.2557C46.2186 56.9096 46.4042 56.5362 46.7463 56.4217C47.0885 56.3071 47.4578 56.4948 47.571 56.841L46.9514 57.0484C47.571 56.841 47.571 56.8408 47.571 56.841L47.5716 56.8426L47.5726 56.8457L47.576 56.8563L47.5881 56.8946C47.5985 56.9275 47.6132 56.975 47.6313 57.0355C47.6676 57.1564 47.7178 57.3296 47.7746 57.5429C47.888 57.9686 48.0292 58.5585 48.1391 59.2129C48.2485 59.8649 48.3296 60.5968 48.3159 61.3023C48.3024 61.9982 48.1961 62.7263 47.8852 63.3315C47.3627 64.3487 46.3451 65.7154 45.4907 66.7948C45.0574 67.3422 44.6555 67.8288 44.3619 68.1786C44.2151 68.3536 44.0951 68.4946 44.0116 68.5921L43.915 68.7046L43.8894 68.7342L43.8808 68.7441C43.6427 69.0178 43.2296 69.0453 42.959 68.8044C42.6884 68.5636 42.662 68.1464 42.9001 67.8726Z" fill="#4268EE"/>
<path d="M40.1268 68.3088C40.1268 67.9442 40.419 67.6486 40.7795 67.6486H43.3902C43.7507 67.6486 44.0429 67.9442 44.0429 68.3088C44.0429 68.6734 43.7507 68.969 43.3902 68.969H40.7795C40.419 68.969 40.1268 68.6734 40.1268 68.3088Z" fill="#4268EE"/>
<path fill-rule="evenodd" clip-rule="evenodd" d="M26.2386 50.685C26.2387 50.7677 26.2388 50.8488 26.2388 50.9282H24.9335C24.9335 50.8385 24.9332 50.7454 24.933 50.6493C24.9291 49.0726 24.9232 46.6619 25.8886 44.5163C26.4074 43.3632 27.2115 42.271 28.4532 41.4167C29.6948 40.5624 31.336 39.9721 33.4841 39.7687L33.6186 40.9557C31.6645 41.1407 30.2591 41.6677 29.2381 42.3702C28.2172 43.0726 27.5428 43.9767 27.0958 44.9702C26.2329 46.8881 26.2362 49.08 26.2386 50.685Z" fill="#4268EE"/>
</g>
<path d="M21.6997 9.03651C21.6997 9.69269 21.1303 10.2246 20.4278 10.2246C19.7253 10.2246 19.1558 9.69269 19.1558 9.03651C19.1558 8.38033 19.7253 7.84839 20.4278 7.84839C21.1303 7.84839 21.6997 8.38033 21.6997 9.03651Z" fill="#1F2A3B"/>
<path d="M27.6364 9.03651C27.6364 9.69269 27.0669 10.2246 26.3644 10.2246C25.6619 10.2246 25.0924 9.69269 25.0924 9.03651C25.0924 8.38033 25.6619 7.84839 26.3644 7.84839C27.0669 7.84839 27.6364 8.38033 27.6364 9.03651Z" fill="#1F2A3B"/>
<path d="M33.5721 9.03651C33.5721 9.69269 33.0026 10.2246 32.3001 10.2246C31.5976 10.2246 31.0281 9.69269 31.0281 9.03651C31.0281 8.38033 31.5976 7.84839 32.3001 7.84839C33.0026 7.84839 33.5721 8.38033 33.5721 9.03651Z" fill="#1F2A3B"/>
<rect x="68" y="49.5878" width="56" height="16" rx="2" fill="#DEE5FF"/>
<path d="M80.6162 58.6047C80.6162 59.1663 80.1612 59.6217 79.6 59.6217C79.0388 59.6217 78.5839 59.1663 78.5839 58.6047C78.5839 58.0431 79.0388 57.5878 79.6 57.5878C80.1612 57.5878 80.6162 58.0431 80.6162 58.6047Z" fill="#1F2A3B"/>
<path d="M84.7824 58.6047C84.7824 59.1663 84.3275 59.6217 83.7663 59.6217C83.2051 59.6217 82.7501 59.1663 82.7501 58.6047C82.7501 58.0431 83.2051 57.5878 83.7663 57.5878C84.3275 57.5878 84.7824 58.0431 84.7824 58.6047Z" fill="#1F2A3B"/>
<path d="M89.6092 58.6047C89.6092 59.1663 89.1543 59.6217 88.5931 59.6217C88.0319 59.6217 87.5769 59.1663 87.5769 58.6047C87.5769 58.0431 88.0319 57.5878 88.5931 57.5878C89.1543 57.5878 89.6092 58.0431 89.6092 58.6047Z" fill="#1F2A3B"/>
<rect x="81.626" y="31.0458" width="44" height="12" rx="2" fill="#6C8CFF"/>
<path d="M113.941 37.0458C113.941 37.5981 113.462 38.0458 112.871 38.0458C112.279 38.0458 111.8 37.5981 111.8 37.0458C111.8 36.4935 112.279 36.0458 112.871 36.0458C113.462 36.0458 113.941 36.4935 113.941 37.0458Z" fill="white"/>
<path d="M119.878 37.0458C119.878 37.5981 119.399 38.0458 118.808 38.0458C118.216 38.0458 117.737 37.5981 117.737 37.0458C117.737 36.4935 118.216 36.0458 118.808 36.0458C119.399 36.0458 119.878 36.4935 119.878 37.0458Z" fill="white"/>
<path d="M125.814 37.0458C125.814 37.5981 125.335 38.0458 124.743 38.0458C124.152 38.0458 123.673 37.5981 123.673 37.0458C123.673 36.4935 124.152 36.0458 124.743 36.0458C125.335 36.0458 125.814 36.4935 125.814 37.0458Z" fill="white"/>
</svg>
