<svg width="140" height="83" viewBox="0 0 140 83" fill="none" xmlns="http://www.w3.org/2000/svg">
<rect x="16.5334" y="0.671295" width="66.8534" height="81.2465" rx="1.5" fill="white" stroke="black"/>
<g filter="url(#filter0_d_255_649)">
<path d="M119.019 8.01752L83.9425 8.01752C82.2128 8.01752 80.8107 9.83575 80.8107 12.0786L80.8107 42.1162C80.8107 44.3591 82.2128 46.1773 83.9425 46.1773L119.019 46.1773C120.748 46.1773 122.15 44.3591 122.15 42.1162L122.15 12.0787C122.15 9.83575 120.748 8.01752 119.019 8.01752Z" fill="white"/>
<path d="M119.019 8.01752L83.9425 8.01752C82.2128 8.01752 80.8107 9.83575 80.8107 12.0786L80.8107 42.1162C80.8107 44.3591 82.2128 46.1773 83.9425 46.1773L119.019 46.1773C120.748 46.1773 122.15 44.3591 122.15 42.1162L122.15 12.0787C122.15 9.83575 120.748 8.01752 119.019 8.01752Z" stroke="black"/>
</g>
<path fill-rule="evenodd" clip-rule="evenodd" d="M98.3293 30.6703L94.2971 26.6382L92.9241 28.0016L98.3293 33.4067L109.933 21.8035L108.569 20.4401L98.3293 30.6703Z" fill="#3C64F7"/>
<path d="M104.811 65.1568C104.811 71.7842 110.183 77.1568 116.811 77.1568C123.438 77.1568 128.811 71.7842 128.811 65.1568C128.811 58.5294 123.438 53.1568 116.811 53.1568C110.183 53.1568 104.811 58.5294 104.811 65.1568Z" fill="#A4B2FF"/>
<path fill-rule="evenodd" clip-rule="evenodd" d="M119.144 66.6679L117.633 65.1568L119.144 63.6457L118.322 62.8231L116.81 64.3342L115.299 62.8231L114.477 63.6457L115.988 65.1568L114.477 66.6679L115.299 67.4905L116.81 65.9795L118.322 67.4905L119.144 66.6679ZM122.645 65.1568C122.645 61.9305 120.037 59.3225 116.81 59.3225C113.584 59.3225 110.976 61.9305 110.976 65.1568C110.976 68.3832 113.584 70.9911 116.81 70.9911C120.037 70.9911 122.645 68.3832 122.645 65.1568ZM112.143 65.1568C112.143 62.5839 114.238 60.4894 116.81 60.4894C119.383 60.4894 121.478 62.5839 121.478 65.1568C121.478 67.7297 119.383 69.8243 116.81 69.8243C114.238 69.8243 112.143 67.7297 112.143 65.1568Z" fill="black"/>
<path d="M77.4283 65.1568C77.4283 71.7842 82.8009 77.1568 89.4283 77.1568C96.0558 77.1568 101.428 71.7842 101.428 65.1568C101.428 58.5294 96.0558 53.1568 89.4283 53.1568C82.8009 53.1568 77.4283 58.5294 77.4283 65.1568Z" fill="#A4B2FF"/>
<path fill-rule="evenodd" clip-rule="evenodd" d="M93.9171 60.3993L84.7763 60.5588C84.1478 60.5698 83.641 60.9998 83.65 61.5143L83.797 69.9343L86.0495 68.0233L94.0477 67.8837C94.6819 67.8726 95.1831 67.4474 95.174 66.9282L95.076 61.3149C95.067 60.8003 94.5512 60.3882 93.9171 60.3993ZM94.0314 66.9482L86.0332 67.0878L84.9069 68.0433L84.7926 61.4944L93.9334 61.3348L94.0314 66.9482ZM92.2767 64.6392L91.1341 64.6591L91.1177 63.7236L92.2603 63.7036L92.2767 64.6392ZM89.9915 64.6791L88.8489 64.699L88.8325 63.7635L89.9751 63.7435L89.9915 64.6791ZM87.7063 64.719L86.5637 64.7389L86.5473 63.8033L87.6899 63.7834" fill="black"/>
<line x1="24.8435" y1="16.5546" x2="75.0769" y2="16.5546" stroke="black"/>
<line x1="24.8435" y1="28.2115" x2="75.0769" y2="28.2115" stroke="black"/>
<line x1="24.8435" y1="41.4226" x2="75.0769" y2="41.4226" stroke="black"/>
<path d="M27.703 60.353L33.1886 69.3029C43.0047 63.7212 59.288 52.8465 45.8918 54.0013C32.4956 55.1562 35.6907 64.2986 38.9627 68.7255L50.5112 61.7965V66.1271L54.8418 61.5078L55.1305 63.5287C65.2354 61.4115 81.4609 58.4474 65.5241 63.5287C49.5873 68.61 40.2138 71.9976 37.5192 73.0562" stroke="#3C64F7"/>
<defs>
<filter id="filter0_d_255_649" x="76.3107" y="5.51752" width="50.3397" height="47.1598" filterUnits="userSpaceOnUse" color-interpolation-filters="sRGB">
<feFlood flood-opacity="0" result="BackgroundImageFix"/>
<feColorMatrix in="SourceAlpha" type="matrix" values="0 0 0 0 0 0 0 0 0 0 0 0 0 0 0 0 0 0 127 0" result="hardAlpha"/>
<feOffset dy="2"/>
<feGaussianBlur stdDeviation="2"/>
<feComposite in2="hardAlpha" operator="out"/>
<feColorMatrix type="matrix" values="0 0 0 0 0 0 0 0 0 0 0 0 0 0 0 0 0 0 0.25 0"/>
<feBlend mode="normal" in2="BackgroundImageFix" result="effect1_dropShadow_255_649"/>
<feBlend mode="normal" in="SourceGraphic" in2="effect1_dropShadow_255_649" result="shape"/>
</filter>
</defs>
</svg>
