<svg width="155" height="82" viewBox="0 0 155 82" fill="none" xmlns="http://www.w3.org/2000/svg">
<rect x="18.1157" y="0.794556" width="124" height="79" rx="1.5" fill="white" stroke="black"/>
<path fill-rule="evenodd" clip-rule="evenodd" d="M61.1972 39.2316H61.6406L61.4928 39.5353L61.0494 39.0798L61.1972 39.2316ZM61.7884 38.0169L60.9016 37.7132H61.4928L61.7884 38.0169ZM43.4611 38.3206L43.3133 38.4724L42.7221 38.1687L41.9831 37.7132V37.4095L42.7221 37.5613L43.3133 38.0169L43.4611 38.3206ZM63.4142 37.2576L63.2664 37.7132L63.4142 37.5613L63.8576 38.0169H64.1532V38.3206L64.4488 38.4724L64.301 39.2316L64.0054 39.0798V38.6243L63.7098 39.0798H63.4142L63.7098 38.9279L63.4142 38.7761H62.5274V38.3206L63.2664 36.9539H63.562L63.4142 37.2576ZM40.5051 35.5873H40.9485L40.8007 36.1947L41.0963 36.6502L40.5051 35.7392V35.5873ZM56.6154 30.8801L56.4676 31.3356L56.172 31.0319L56.4676 30.7282L56.6154 30.8801ZM55.7286 30.5764L55.433 30.8801L55.1374 30.7282L55.7286 30.4245V30.5764ZM54.8418 28.4505V28.7542L56.3198 29.8172L56.0242 30.1209L55.5808 29.969L55.433 29.6653L54.694 30.2727L54.5462 29.969H54.2506L54.5462 28.4505H54.8418ZM57.5022 27.3876H57.2066L57.3544 26.4765L57.7978 26.6284V27.0839L57.5022 27.3876ZM51.738 25.7173L51.4424 26.021L51.1468 25.7173L50.8512 25.8692L50.4077 25.5655L50.8512 24.8062L51.4424 25.4136L51.738 25.7173ZM53.216 25.4136V26.3247L53.6594 25.5655L54.1028 27.3876L54.694 26.021V25.1099L55.5808 25.2618L56.0242 25.7173L55.7286 26.6284L56.0242 26.9321L55.2852 27.995L54.694 27.8432L53.8072 29.6653H53.3638L53.0682 30.4245H52.7726L52.0336 31.7912V32.8541L52.477 33.0059L52.6248 34.0689H53.6594L54.8418 34.9799L55.7286 35.1318L55.5808 35.5873L55.8764 36.6502L56.3198 37.1058L56.6154 36.9539L56.7632 36.3466L56.6154 35.5873L56.3198 35.2836L56.911 35.1318L57.3544 34.3726L57.2066 33.4615L56.7632 33.0059L57.0588 32.3985L56.911 30.8801L58.2412 30.7282L58.8324 31.3356V31.6393H59.4236L59.5714 32.8541L60.0148 33.3096L60.4582 33.0059L60.9016 32.0949L61.9362 34.0689L61.7884 34.3726L62.3796 34.9799L63.1186 35.2836L63.562 36.0429L63.4142 36.8021L62.2318 37.5613H60.3104L58.9802 39.0798H59.2758L60.3104 38.0169L61.0494 38.1687L60.7538 38.4724L60.9016 39.3835L61.7884 39.5353L62.084 39.0798V39.3835L62.3796 39.5353L61.345 39.9909L60.7538 40.5983L60.4582 40.4464V40.1427L60.9016 39.839H60.1626L60.0148 38.9279H59.5714L58.9802 39.839H57.7978L57.3544 40.2946L56.7632 40.4464L56.3198 41.0538L55.5808 41.3575V39.6872L53.8072 38.4724L53.5116 38.6243L52.0336 38.3206L51.8858 37.865V38.1687H43.6089L42.2787 37.2576L42.1309 36.4984L41.6875 36.3466V35.891L41.2441 35.2836L41.5397 34.6762L40.9485 34.2207L39.9139 32.3985L39.3227 33.0059L38.7315 32.2467L38.1403 32.0949V25.2618L39.4705 25.8692L40.2095 25.2618L40.6529 25.4136L41.0963 24.9581H41.9831V24.5025L42.7221 25.4136L43.1655 24.8062V25.5655L43.6089 25.4136V25.1099H44.0523L44.4957 25.5655L45.5303 26.021L45.8259 25.8692L46.2693 26.3247L45.8259 26.7802L46.4171 26.9321L47.4517 26.6284L47.7473 27.2358L48.0429 26.7802L47.7473 26.4765L47.8951 26.1728L48.3385 26.021H48.6341L49.0775 26.6284L49.9643 26.9321L50.8512 26.7802V26.3247L51.1468 26.1728L51.5902 26.4765V27.2358L51.738 26.6284H52.0336L52.1814 25.7173L51.4424 24.9581V23.8951L51.8858 23.1359L52.477 23.7433L52.9204 24.8062L52.6248 25.2618L53.216 25.4136ZM46.1215 21.9211L45.9737 22.3767L46.7127 22.073L47.1561 22.6804L47.4517 22.073L47.7473 22.3767L47.8951 23.4396V21.9211H48.4863L48.7819 22.3767L49.0775 24.047L50.1121 24.9581V25.2618L49.5209 25.4136L49.8165 25.7173L49.6687 26.021L48.3385 25.7173L47.7473 26.021L46.4171 26.1728L45.8259 25.5655L45.6781 25.7173L45.2347 24.9581L46.7127 24.6544L46.1215 24.3507L45.0869 24.5025L44.9391 24.1988L45.5303 23.7433L44.6435 23.5915L45.0869 22.3767L45.8259 21.7693L46.1215 21.9211ZM49.0775 21.6175L48.7819 22.3767L48.3385 21.6175L48.7819 21.4656L49.0775 21.6175ZM57.3544 21.9211L57.5022 22.2248L56.4676 22.3767L56.0242 21.7693V21.3138H56.911L57.3544 21.9211ZM54.3984 21.9211L54.694 22.5285L54.8418 21.7693L55.5808 21.3138L56.172 22.3767V22.9841L57.0588 22.3767L58.0934 23.2878V23.7433L58.6846 23.5915L58.9802 24.1988L59.7192 24.5025L59.867 24.8062L60.1626 25.7173L59.7192 26.021L60.3104 26.6284L60.9016 26.7802L61.1972 27.5395H61.7884L61.6406 28.1468L61.0494 28.9061L60.3104 27.995H59.867V28.4505L60.7538 29.3616V30.5764L59.7192 29.8172L60.4582 30.8801H59.7192L58.9802 30.4245L57.9456 29.2098L57.0588 29.5135L56.7632 29.2098L56.911 28.7542L58.0934 28.6024V27.995L58.5368 27.2358L58.389 26.6284L57.2066 25.8692L57.5022 25.7173L57.2066 25.1099L56.6154 24.8062L56.4676 25.1099L56.0242 25.2618L53.8072 24.6544L53.5116 24.1988L53.8072 23.8951H53.3638L53.5116 21.9211L53.8072 21.4656L54.5462 21.1619L54.3984 21.9211ZM50.2599 21.1619L50.7033 21.4656L51.1468 21.3138L51.2946 21.6175L50.999 22.073L51.4424 22.5285V23.4396L50.5555 23.7433L50.4077 23.2878L49.6687 22.5285V22.2248L50.2599 22.3767L49.9643 21.6175L50.2599 21.1619ZM52.477 22.3767L52.0336 23.1359L51.738 22.9841L51.5902 21.6175L52.0336 20.8582L53.216 21.1619L52.7726 22.073L52.477 22.3767ZM44.3479 23.7433L43.4611 24.1988L43.3133 23.7433L42.7221 23.2878L43.3133 21.3138L43.0177 20.7064L44.0523 20.5545L45.2347 20.8582L45.8259 21.6175L45.3825 21.7693L44.6435 22.5285L44.3479 23.2878V23.7433ZM52.3292 19.9471L52.1814 20.4027L51.2946 19.9471L51.4424 19.3398L51.8858 19.0361L52.1814 19.4916L52.3292 19.9471ZM50.8512 17.6694L51.1468 18.8842L50.999 19.7953L50.4077 19.9471L50.1121 19.7953V19.0361L49.6687 19.1879V18.2768H49.9643L50.4077 17.8213H50.8512V17.6694ZM47.8951 18.4287L48.0429 18.8842L48.3385 18.5805L48.6341 18.7324L48.4863 19.7953L46.2693 20.5545V20.2508L46.8605 19.6434H45.0869L45.8259 17.9731L46.7127 18.4287L47.1561 19.1879L47.7473 19.3398L47.3039 18.125L47.5995 17.6694L47.8951 17.8213V18.4287ZM52.0336 17.2139L52.3292 17.6694H52.9204L53.216 18.125L53.0682 18.5805L53.6594 19.1879L54.3984 19.3398L55.5808 18.8842L56.0242 19.0361L56.3198 19.4916L56.172 20.2508L55.7286 20.5545H53.955L52.6248 20.099L52.477 18.7324L52.1814 18.2768L51.5902 18.125L51.2946 17.6694V17.0621L52.0336 17.2139ZM45.5303 16.4547L45.3825 17.9731L44.0523 18.7324L43.6089 18.4287L44.6435 16.6065H45.2347L45.5303 16.4547ZM52.1814 16.6065H51.5902L51.4424 16.151H52.0336L52.3292 16.4547L52.1814 16.6065ZM47.3039 16.3028L46.8605 16.7584L46.4171 16.3028L46.5649 15.8473H47.4517L47.3039 16.3028ZM47.4517 14.9362L47.1561 15.2399H46.7127L47.1561 14.6325L47.4517 14.9362ZM51.5902 15.8473L51.1468 16.151L50.8512 14.6325H51.1468L51.738 15.2399L51.5902 15.8473ZM50.4077 15.3917L50.5555 15.9991L49.9643 15.8473L49.5209 15.3917H48.7819L49.0775 14.9362L48.7819 14.4807V13.8733L50.1121 14.6325L50.4077 15.3917ZM54.2506 13.2659L54.5462 13.8733L53.6594 15.5436L52.477 15.3917L52.1814 14.7844V14.177L52.477 13.7214H51.8858L51.4424 12.3548L51.738 10.9882L52.0336 10.8364L51.8858 10.3808H52.6248L53.0682 11.4437L53.955 12.203L54.2506 13.2659ZM59.7192 6.12912L61.1972 6.7365L61.7884 7.34389V7.95127L61.0494 9.0142L60.3104 9.31789L60.0148 9.77343H60.606L60.0148 10.9882L59.4236 11.5956L58.9802 13.1141L58.389 13.2659L58.0934 13.7214L57.2066 13.8733L57.65 14.0251V15.0881L57.3544 15.6954L56.911 15.9991L56.4676 17.0621V17.3658H56.911V17.6694L56.172 18.4287L55.433 18.125L54.5462 18.2768L53.5116 17.9731V17.3658L54.1028 17.0621L53.955 15.9991L54.8418 16.6065L54.3984 15.6954L53.955 15.3917L54.8418 13.8733L54.3984 13.1141L54.2506 12.203L55.2852 12.5067L55.7286 11.8993L55.1374 11.5956L54.1028 11.7474L53.5116 11.14L53.3638 10.3808L52.9204 9.77343V9.0142L54.2506 8.10312L54.694 7.34389H55.1374L55.433 8.10312L55.5808 6.7365L56.6154 6.12912L57.5022 5.97727L57.65 6.28096L58.5368 5.82542L59.128 5.97727L59.7192 6.12912Z" fill="#A4B2FF" stroke="#A4B2FF" stroke-width="0.3" stroke-linecap="round" stroke-linejoin="round"/>
<path fill-rule="evenodd" clip-rule="evenodd" d="M57.3856 47.887L56.8723 47.5833L57.129 47.4314L57.3856 47.7351V47.887ZM57.3856 46.9759H56.6157L57.129 46.824L57.3856 46.9759ZM57.6422 46.9759L57.3856 47.1277V46.824L57.6422 46.9759Z" fill="#A4B2FF" stroke="#A4B2FF" stroke-width="0.3" stroke-linecap="round" stroke-linejoin="round"/>
<path fill-rule="evenodd" clip-rule="evenodd" d="M53.6592 49.861L53.807 49.5573L53.9548 50.0128L53.6592 50.4684V50.0128V49.861Z" fill="#A4B2FF" stroke="#A4B2FF" stroke-width="0.3" stroke-linecap="round" stroke-linejoin="round"/>
<path fill-rule="evenodd" clip-rule="evenodd" d="M55.4328 52.746L54.546 52.1387L55.285 51.9868L55.5806 52.4424L55.4328 52.746Z" fill="#A4B2FF" stroke="#A4B2FF" stroke-width="0.3" stroke-linecap="round" stroke-linejoin="round"/>
<path fill-rule="evenodd" clip-rule="evenodd" d="M55.7286 48.0388H56.172L58.0934 48.9499L57.0588 49.1017L57.2066 48.9499L55.7286 48.3425L55.8764 48.1907L54.8418 48.4944L55.5808 48.0388H55.7286Z" fill="#A4B2FF" stroke="#A4B2FF" stroke-width="0.3" stroke-linecap="round" stroke-linejoin="round"/>
<path fill-rule="evenodd" clip-rule="evenodd" d="M58.8317 49.2536L59.1273 49.1017L59.8663 49.5573H59.2751L58.8317 49.861V49.4054V49.2536Z" fill="#A4B2FF" stroke="#A4B2FF" stroke-width="0.3" stroke-linecap="round" stroke-linejoin="round"/>
<path fill-rule="evenodd" clip-rule="evenodd" d="M66.223 7.34376L67.2576 5.8253L68.2922 5.97715L68.5878 5.06607L69.6224 4.76237L72.135 5.06607L73.9086 7.04007L73.3174 7.95115L70.657 8.40669L70.8048 8.71038L71.8394 8.55854L72.7262 9.31777L73.3174 8.55854L73.613 9.31777L73.1696 10.5325L75.3866 9.01407L76.2735 9.31777L76.4213 10.2288L75.091 12.051L74.2042 12.3547L74.7954 12.5065L74.2042 14.7842V16.4545L74.6476 17.3656H74.2042L73.613 17.8212L74.2042 18.5804L74.352 19.4915L73.9086 19.6433L74.352 20.7062H73.7608L74.0564 21.1618L73.9086 21.6173L73.1696 21.7692L73.4652 22.8321L72.874 22.5284L72.7262 22.8321L73.1696 22.9839L73.613 23.5913V24.3506L73.1696 24.5024L72.5784 23.5913V24.3506L72.2828 24.8061H73.4652L71.8394 26.3246L70.657 26.6283L69.3268 28.2986L68.2922 28.6023L67.8488 29.9689L67.4054 30.5763L67.5532 31.0318L67.2576 32.2466H66.8142L66.3708 31.791H65.7796L64.745 29.9689L64.5972 28.906L64.1538 28.1467L64.3016 27.5393L64.006 27.3875L64.3016 26.3246L64.8928 26.0209L65.0406 24.9579L64.3016 25.5653L63.8582 25.2616L64.006 24.1987L64.8928 24.5024L64.006 23.5913L63.5626 23.4395L63.8582 22.5284L63.1192 20.2507L62.6758 19.7952V19.1878L61.9367 18.4286L59.7197 18.5804L58.8329 17.3656L60.3109 16.7582L58.9807 16.4545L58.3895 15.8472V15.2398L60.6065 13.7213L60.7543 13.1139L59.8675 12.5065L60.1631 11.7473L61.1977 10.3807L61.6411 10.2288L61.4933 9.31777L62.2324 8.71038L63.1192 8.40669H64.006L64.3016 9.01407L65.1884 7.7993L65.7796 8.71038L66.8142 9.46961L66.223 8.40669V7.34376Z" fill="#A4B2FF" stroke="#A4B2FF" stroke-width="0.3" stroke-linecap="round" stroke-linejoin="round"/>
<path fill-rule="evenodd" clip-rule="evenodd" d="M53.3637 51.0756L52.7725 50.7719L52.9203 50.3164H53.2159L52.9203 50.0127L53.0681 49.8608H53.6593V50.4682H53.9549L53.3637 51.0756Z" fill="#A4B2FF" stroke="#A4B2FF" stroke-width="0.3" stroke-linecap="round" stroke-linejoin="round"/>
<path fill-rule="evenodd" clip-rule="evenodd" d="M54.1026 51.3794V51.0757L53.6592 50.9239V50.6202L53.9548 50.4684H55.1372L55.4328 50.772H54.8416L54.2504 51.3794H54.1026Z" fill="#A4B2FF" stroke="#A4B2FF" stroke-width="0.3" stroke-linecap="round" stroke-linejoin="round"/>
<path fill-rule="evenodd" clip-rule="evenodd" d="M58.3894 49.1017L58.8329 49.2536V49.5573H57.946H58.5372V49.2536H58.2416L58.3894 49.1017Z" fill="#A4B2FF" stroke="#A4B2FF" stroke-width="0.3" stroke-linecap="round" stroke-linejoin="round"/>
<path fill-rule="evenodd" clip-rule="evenodd" d="M57.0585 49.5573L57.3541 49.7091H56.7629L57.0585 49.5573Z" fill="#A4B2FF" stroke="#A4B2FF" stroke-width="0.3" stroke-linecap="round" stroke-linejoin="round"/>
<path fill-rule="evenodd" clip-rule="evenodd" d="M51.2948 47.1276L50.9992 48.1906L51.5904 49.4053L52.0338 49.709L52.7728 49.5572L53.5118 48.6461L54.2509 48.7979L53.9552 49.709L53.8074 49.5572L53.0684 49.8609L52.9206 50.0127L53.2162 50.3164H52.9206L52.7728 50.6201L52.0338 50.3164L51.147 50.4683L49.8168 49.709H49.3734L48.6344 48.9498L48.7822 48.4943L47.5998 47.2795V46.9758L46.713 46.0647L46.2696 45.1536H45.974V45.4573L46.5652 46.5202L47.0086 46.8239L47.1564 47.735L47.5998 48.0387L47.452 48.1906L45.974 46.5202V45.9129L45.235 44.8499L45.974 44.6981L47.1564 45.3055L48.4866 45.1536L48.93 45.4573L49.0778 45.9129L49.5212 46.0647L49.669 45.761H49.9646L50.5558 46.8239L51.147 47.1276H51.2948Z" stroke="#A4B2FF" stroke-width="0.3" stroke-linecap="round" stroke-linejoin="round"/>
<path fill-rule="evenodd" clip-rule="evenodd" d="M54.6937 51.9867L54.1025 51.3793L55.285 50.7719V51.9867L54.6937 51.8348V51.9867Z" fill="#A4B2FF" stroke="#A4B2FF" stroke-width="0.3" stroke-linecap="round" stroke-linejoin="round"/>
<path fill-rule="evenodd" clip-rule="evenodd" d="M60.4578 49.5573L60.6056 49.7091L60.1622 49.5573H60.4578Z" fill="#A4B2FF" stroke="#A4B2FF" stroke-width="0.3" stroke-linecap="round" stroke-linejoin="round"/>
<path fill-rule="evenodd" clip-rule="evenodd" d="M56.9108 53.0497L56.7629 52.5942H56.4673L56.1717 52.8979L56.3195 53.0497L55.5805 52.746L55.4327 52.8979V52.5942L56.9108 52.4424L57.0586 52.8979L56.9108 53.0497Z" fill="#A4B2FF" stroke="#A4B2FF" stroke-width="0.3" stroke-linecap="round" stroke-linejoin="round"/>
<path fill-rule="evenodd" clip-rule="evenodd" d="M53.955 51.2276H53.3638L53.5116 50.9239L54.1028 51.0757L53.955 51.2276Z" fill="#A4B2FF" stroke="#A4B2FF" stroke-width="0.3" stroke-linecap="round" stroke-linejoin="round"/>
<path fill-rule="evenodd" clip-rule="evenodd" d="M61.7881 51.9868H62.0837L61.9359 52.2905H61.6403L61.7881 52.1387V51.9868Z" fill="#A4B2FF" stroke="#A4B2FF" stroke-width="0.3" stroke-linecap="round" stroke-linejoin="round"/>
<path fill-rule="evenodd" clip-rule="evenodd" d="M33.8539 49.4054V49.1017L34.1495 49.2536L34.0017 49.4054H33.8539ZM33.7061 48.9499V48.798V48.9499ZM33.5583 48.6462H33.4105H33.5583ZM33.2627 48.6462L33.1149 48.4943L33.2627 48.6462ZM32.8193 48.4943V48.3425V48.4943ZM51.8856 37.8651L52.329 38.3206L53.5114 38.6243L53.807 38.4725L55.5807 39.6872V41.3575L56.3197 41.0539L56.7631 40.4465H57.3543L57.7977 39.9909L59.1279 39.6872L59.5713 38.7762L59.8669 38.928L60.1625 39.8391L59.2757 40.4465L59.1279 41.3575L58.0933 41.6612V42.1168L57.7977 42.4205L57.6499 42.1168L57.7977 42.4205L57.5021 43.0279L57.6499 42.7242L57.3543 42.2686L57.5021 42.7242H57.2065L57.5021 42.876L57.6499 43.6352L55.8763 45.1537V45.7611L56.3197 46.824L56.1719 47.4314L55.8763 47.2796L55.2851 45.7611L54.8417 45.9129L54.3982 45.6092H53.5114L53.3636 46.0648H53.068L52.9202 45.7611H52.1812L51.1466 46.6722L51.2944 47.1277H50.851L49.9642 45.7611H49.6686L49.5208 46.0648L48.634 45.1537L47.156 45.3056L45.9736 44.85H45.2346L44.939 44.2426L44.3478 44.0908L43.3132 42.4205V39.6872L43.0176 38.4725L43.461 38.6243L43.6088 38.928V38.1688H51.8856V37.8651ZM34.5929 33.9171L34.2973 34.2208L34.1495 34.0689V33.7652L34.5929 33.4615L34.8885 33.7652L34.5929 33.9171ZM30.8979 32.3986H30.4545L30.3067 32.0949H30.8979V32.3986ZM29.1243 29.8172L30.0111 30.1209L29.7155 30.4246L29.1243 30.1209V29.8172ZM34.0017 23.8952L34.2973 24.3507L34.8885 24.1989L36.2187 24.8063H37.4011L38.1401 25.2618V32.0949L38.7313 32.2468L39.3225 33.006L39.9137 32.3986L40.9484 34.2208L41.5396 34.6763L41.244 35.2837L40.2093 33.4615L39.1747 33.1578L38.2879 32.3986L37.2533 32.2468L36.3665 31.7912L36.0709 31.9431L35.9231 32.3986L35.0363 32.8541L35.1841 31.7912L35.4797 31.6394L35.3319 31.4875L34.2973 32.7023L34.5929 33.006L34.2973 33.4615L32.6715 34.8282L31.1935 35.4355L33.2627 33.7652L33.4105 33.006L32.5237 33.1578V32.8541L31.9325 33.1578L31.7847 32.2468L31.4891 32.3986L30.8979 31.9431L30.7501 31.3357L31.1935 30.2728L31.9325 29.9691L32.0803 30.1209L32.3759 29.8172L32.0803 29.3617L32.3759 29.058L31.7847 29.3617H31.0457L30.6023 29.2098L30.1589 28.4506L31.1935 27.8432H31.4891V28.1469H32.0803L30.6023 26.3248L30.7501 25.8692L31.6369 25.5655L31.9325 24.6544L33.1149 24.1989L33.5583 23.7434L34.0017 23.8952Z" fill="#A4B2FF" stroke="#A4B2FF" stroke-width="0.3" stroke-linecap="round" stroke-linejoin="round"/>
<path fill-rule="evenodd" clip-rule="evenodd" d="M60.606 75.6748L59.7192 75.523V74.3082L60.0148 74.9156L60.7538 75.3711L60.606 75.6748ZM60.7538 62.3123L61.0494 62.4642V62.1605H61.4928L62.084 62.9197L62.9708 63.2234L62.6752 63.9826L63.2664 64.1345L63.8577 63.8308L64.0055 63.3752L64.1533 63.6789L62.9708 65.0455L62.6752 66.564L63.1186 66.8677L63.2664 67.3232L62.9708 67.9306L62.5274 68.2343H61.6406V68.9936L60.7538 69.1454V69.4491H61.1972V69.7528L60.7538 70.0565L60.606 70.8157H60.3104L60.0148 71.2712L60.3104 71.7268H60.606L59.5714 73.3971L59.867 74.1563L58.6846 74.0045V73.3971H58.389L58.2412 72.6379L58.6846 72.1823L58.5368 72.0305L58.9802 70.6639L58.6846 70.0565V68.9936L58.8324 68.2343L59.128 68.0825L58.9802 67.3232L59.2758 67.1714L59.128 66.8677L59.4236 66.4122L59.128 65.5011L59.2758 64.7419L59.867 63.8308L59.7192 63.0715L60.1626 62.9197L60.4582 62.1605L60.7538 62.3123Z" fill="#A4B2FF" stroke="#A4B2FF" stroke-width="0.3" stroke-linecap="round" stroke-linejoin="round"/>
<path fill-rule="evenodd" clip-rule="evenodd" d="M62.9709 65.0455L64.1533 63.8307L64.0055 63.3751L63.8577 63.527L64.0055 62.9196H63.7099L63.5621 62.4641L62.9709 62.3122L62.8231 60.3382H62.2319L61.9363 59.4271L60.6061 58.8198L60.7539 58.3642L59.2759 58.8198L59.1281 58.2124L58.6847 58.3642L58.0935 57.605L58.3891 56.9976L59.1281 56.6939L59.4237 55.7828L59.2759 55.3273L59.5715 55.0236L59.4237 54.8718H60.0149L60.4583 55.1754L61.3451 54.7199L60.9017 54.4162L61.0495 54.1125H61.6407L62.2319 53.657V54.4162L62.5275 54.8718L63.5621 54.5681L64.3011 54.7199L64.7446 54.1125L65.3358 54.8718L65.0402 55.3273L65.6314 55.4791V55.7828L65.927 55.4791L66.8138 55.7828V56.0865L68.7352 56.3902L69.0308 56.8458L69.622 56.9976L69.7698 57.4531L69.4742 58.3642L68.5874 59.4271L68.4396 60.9456L67.7006 62.6159H66.8138L65.6314 63.527L65.7792 63.9825L64.3011 66.2602L64.1533 65.6528L63.1187 65.0455H62.9709Z" stroke="#A4B2FF" stroke-width="0.3" stroke-linecap="round" stroke-linejoin="round"/>
<path fill-rule="evenodd" clip-rule="evenodd" d="M59.7192 74.3083V75.5231L60.1626 75.6749L59.867 75.8268L58.9802 75.5231L57.9456 74.4602L58.9802 75.0675L59.5714 74.3083H59.7192ZM59.867 62.0088L60.1626 62.9198L59.7192 63.0717L59.867 63.8309L59.2758 64.742L59.128 65.5012L59.4236 66.4123L59.128 66.8678L59.2758 67.1715L58.9802 67.3234L59.128 68.0826L58.8324 68.2345L58.6846 68.9937V70.0566L58.9802 70.5122L58.5368 72.0306L58.6846 72.1825L58.2412 72.638L58.389 73.2454L58.6846 73.3972V74.0046L59.7192 74.1565H59.4236L58.9802 74.9157L57.7978 74.1565L57.65 72.3343L58.0934 71.5751L57.65 71.4232L57.9456 71.1195V70.3603L58.389 70.5122L58.5368 69.6011H58.2412V70.0566V67.6271L58.8324 66.4123V64.5901L59.2758 62.0088L59.128 61.0977L59.4236 60.9458L59.7192 61.7051L59.867 62.0088Z" fill="#A4B2FF" stroke="#A4B2FF" stroke-width="0.3" stroke-linecap="round" stroke-linejoin="round"/>
<path fill-rule="evenodd" clip-rule="evenodd" d="M57.6503 55.3273L56.6157 54.8718L57.2069 54.1125V53.5051L56.9113 53.0496L57.7981 51.9867L58.8327 51.5311L58.9805 51.683L58.3893 52.1385L58.5371 53.0496L59.4239 53.5051H60.1629L60.0151 54.4162L60.3107 55.0236L60.0151 54.7199L59.4239 54.8718L59.5717 55.0236L59.2761 55.3273V56.6939L59.1283 56.0865H58.3893L57.7981 55.3273H57.6503Z" fill="#A4B2FF" stroke="#A4B2FF" stroke-width="0.3" stroke-linecap="round" stroke-linejoin="round"/>
<path fill-rule="evenodd" clip-rule="evenodd" d="M56.3199 56.3902L56.4677 56.0865H56.1721L56.0243 55.631L56.6155 54.8717L57.6501 55.3273L57.7979 55.631L56.9111 56.2384L56.6155 56.8457L56.1721 56.6939L56.3199 56.542V56.3902Z" fill="#A4B2FF" stroke="#A4B2FF" stroke-width="0.3" stroke-linecap="round" stroke-linejoin="round"/>
<path fill-rule="evenodd" clip-rule="evenodd" d="M61.9363 73.8526L62.2319 73.5489L62.9709 73.7008L62.8231 74.0044L62.5275 74.1563L62.3797 73.8526L62.0841 74.1563L61.9363 73.8526Z" fill="#A4B2FF" stroke="#A4B2FF" stroke-width="0.3" stroke-linecap="round" stroke-linejoin="round"/>
<path fill-rule="evenodd" clip-rule="evenodd" d="M62.3797 52.7459L63.1187 53.5051L62.8231 54.1125L63.2665 54.7199L62.9709 54.8718L62.3797 54.7199L62.2319 54.4162L62.3797 53.9607L61.9363 53.5051L62.0841 52.8978L62.3797 52.7459Z" fill="#A4B2FF" stroke="#A4B2FF" stroke-width="0.3" stroke-linecap="round" stroke-linejoin="round"/>
<path fill-rule="evenodd" clip-rule="evenodd" d="M59.4234 60.7939L59.1278 61.0976L57.502 59.8828L56.6152 57.9088L55.8762 56.8459L56.3196 56.3903L56.1718 56.5422L56.6152 56.8459L56.9108 56.2385L57.7976 55.6311L57.6498 55.3274L58.3888 56.0867L58.8322 55.9348L59.2756 56.2385V56.694L58.3888 56.9977L58.0932 57.6051L58.6844 58.3644L59.1278 58.2125V58.668H59.4234L59.719 59.2754L59.4234 60.1865L59.5712 60.4902L59.4234 60.7939Z" fill="#A4B2FF" stroke="#A4B2FF" stroke-width="0.3" stroke-linecap="round" stroke-linejoin="round"/>
<path fill-rule="evenodd" clip-rule="evenodd" d="M61.4927 62.3124L61.7883 61.4014L62.8229 61.5532L62.9707 62.3124H63.5619V62.768L64.0053 62.9198L63.8575 63.8309L63.2663 64.1346L62.6751 63.9827L62.9707 63.3754L62.0839 62.9198L61.4927 62.3124Z" fill="#A4B2FF" stroke="#A4B2FF" stroke-width="0.3" stroke-linecap="round" stroke-linejoin="round"/>
<path fill-rule="evenodd" clip-rule="evenodd" d="M63.1181 53.5052H64.1527L63.8571 53.8089L64.0049 54.4163L63.4137 54.72L62.8225 54.1126L63.1181 53.8089V53.5052Z" fill="#A4B2FF" stroke="#A4B2FF" stroke-width="0.3" stroke-linecap="round" stroke-linejoin="round"/>
<path fill-rule="evenodd" clip-rule="evenodd" d="M62.9703 65.0455L64.1527 65.6529V66.564L63.5615 66.7158L62.8225 66.4121L62.9703 65.3492V65.0455Z" fill="#A4B2FF" stroke="#A4B2FF" stroke-width="0.3" stroke-linecap="round" stroke-linejoin="round"/>
<path fill-rule="evenodd" clip-rule="evenodd" d="M98.2953 43.635L98.8865 43.7869L99.6255 43.0277L100.364 43.1795L101.103 42.724H101.399V43.1795L102.434 43.0277L101.251 43.4832V44.2424H100.956L100.66 45.1535H100.217L99.4777 45.9127L98.1475 45.7609L98.4431 45.4572L98.1475 45.0017V44.0906L98.2953 43.635Z" fill="#A4B2FF" stroke="#A4B2FF" stroke-width="0.3" stroke-linecap="round" stroke-linejoin="round"/>
<path fill-rule="evenodd" clip-rule="evenodd" d="M93.1226 41.5093H93.4182L94.0094 42.2685L93.8616 42.4204L93.1226 41.6612V41.5093Z" fill="#A4B2FF" stroke="#A4B2FF" stroke-width="0.3" stroke-linecap="round" stroke-linejoin="round"/>
<path fill-rule="evenodd" clip-rule="evenodd" d="M93.5655 42.1167L93.8611 42.4204H93.5655L93.4177 42.1167H93.5655ZM94.1567 41.5093L94.6001 41.2056L94.8957 41.813L94.6001 42.7241L94.4523 42.1167L94.0089 42.4204L93.5655 41.813L93.7133 41.6612L93.4177 41.5093H94.0089V41.2056L94.1567 41.5093Z" fill="#A4B2FF" stroke="#A4B2FF" stroke-width="0.3" stroke-linecap="round" stroke-linejoin="round"/>
<path fill-rule="evenodd" clip-rule="evenodd" d="M58.9807 51.683L58.6851 51.8348L58.8329 52.5941V51.9867L59.2763 51.8348V51.5311L59.4241 51.8348L60.1631 52.1385L60.4587 51.9867L60.9021 52.2904L61.7889 51.9867L61.4933 52.1385L62.0846 52.4422V52.7459H62.3802L62.0846 52.8977L62.2324 53.2014L61.9368 53.3533V53.9607L60.9021 54.1125V54.4162L61.3455 54.7199L60.4587 55.1754L60.3109 55.0236L60.0153 54.5681L60.1631 53.5051H59.5719L59.2763 53.2014L58.5373 53.0496L58.3895 52.2904L58.6851 51.8348L58.9807 51.683Z" fill="#A4B2FF" stroke="#A4B2FF" stroke-width="0.3" stroke-linecap="round" stroke-linejoin="round"/>
<path fill-rule="evenodd" clip-rule="evenodd" d="M107.606 48.4942V48.9498L107.311 48.1905L106.72 48.4942L106.276 47.1276L106.424 46.9758L107.459 47.4313V47.735L107.163 47.8868L107.311 48.1905L107.459 47.8868L107.606 48.4942Z" fill="#A4B2FF" stroke="#A4B2FF" stroke-width="0.3" stroke-linecap="round" stroke-linejoin="round"/>
<path fill-rule="evenodd" clip-rule="evenodd" d="M95.4867 47.7351H96.2257L96.8169 47.1277L96.5213 48.3425L95.6345 48.0388L95.4867 47.7351Z" fill="#A4B2FF" stroke="#A4B2FF" stroke-width="0.3" stroke-linecap="round" stroke-linejoin="round"/>
<path fill-rule="evenodd" clip-rule="evenodd" d="M114.11 53.9607L114.406 53.657L114.258 54.1125L114.11 53.9607Z" fill="#A4B2FF" stroke="#A4B2FF" stroke-width="0.3" stroke-linecap="round" stroke-linejoin="round"/>
<path fill-rule="evenodd" clip-rule="evenodd" d="M107.311 46.5203V46.824L106.572 46.6722L106.72 46.3685H107.311V46.5203Z" fill="#A4B2FF" stroke="#A4B2FF" stroke-width="0.3" stroke-linecap="round" stroke-linejoin="round"/>
<path fill-rule="evenodd" clip-rule="evenodd" d="M112.928 49.5573L112.632 49.7092L112.484 49.2536L112.928 49.1018V49.4055V49.5573ZM118.101 37.7133L118.988 38.1688V38.6244L120.318 38.3207L119.727 39.8392L119.135 39.991L118.988 41.0539L118.692 40.7502V41.0539L117.953 41.3576L117.805 41.2058L117.362 41.8132L116.179 42.4205L116.475 41.8132L116.327 41.6613L114.997 42.4205L115.145 42.7242L116.475 43.1798L115.588 43.939L115.884 44.0909L116.327 45.1538V46.3686L115.884 46.6723L115.44 47.5833L114.554 48.1907H113.962L113.815 48.4944L113.076 48.6463L112.928 48.9499L112.337 48.4944H111.893V48.1907L111.45 48.0389L110.267 48.3426L110.415 48.6463H109.972L109.381 47.7352L109.085 47.887L109.528 46.5204L108.789 46.2167L108.642 45.913H108.198L107.607 46.5204L106.868 46.3686L106.572 46.6723V46.3686H105.686L104.651 45.6093L103.764 45.4575L103.468 45.1538L103.616 44.0909L102.729 43.6353L102.434 42.7242L101.99 42.2687L102.286 41.8132H102.877L103.025 41.5095L103.912 41.0539V40.7502H104.207L103.912 39.991L104.651 39.6873L104.799 38.9281L105.39 39.0799L105.686 38.3207L106.129 38.017L107.016 38.7762L107.164 39.8392L108.494 40.2947L108.789 40.9021H110.415L111.302 41.3576L111.598 41.0539L113.223 40.5984L113.371 39.8392L113.815 39.991L114.849 39.2318H115.736L115.293 38.4725L114.997 38.7762H114.554L114.406 38.4725L114.849 37.7133L115.145 37.8652L115.588 37.5615L116.032 36.6504V36.043H117.362L117.953 37.2578L118.101 37.7133Z" fill="#A4B2FF" stroke="#A4B2FF" stroke-width="0.3" stroke-linecap="round" stroke-linejoin="round"/>
<path fill-rule="evenodd" clip-rule="evenodd" d="M89.8707 43.787L90.4619 43.6352L89.8707 43.9389V43.787Z" stroke="#A4B2FF" stroke-width="0.3" stroke-linecap="round" stroke-linejoin="round"/>
<path fill-rule="evenodd" clip-rule="evenodd" d="M90.1662 43.9388H89.7228H90.1662Z" fill="#A4B2FF" stroke="#A4B2FF" stroke-width="0.3" stroke-linecap="round" stroke-linejoin="round"/>
<path fill-rule="evenodd" clip-rule="evenodd" d="M92.5309 41.3575L92.3831 40.9019L91.9397 40.5982L93.4177 40.9019L94.0089 41.5093L92.8265 41.3575H92.5309Z" fill="#A4B2FF" stroke="#A4B2FF" stroke-width="0.3" stroke-linecap="round" stroke-linejoin="round"/>
<path fill-rule="evenodd" clip-rule="evenodd" d="M116.031 58.5161L115.44 58.2124L116.031 58.3642V58.5161ZM117.066 58.5161H116.77L117.214 58.0605L117.361 58.2124L117.066 58.5161ZM115.144 57.7568L115.588 58.0605H114.849L115.144 57.9087V57.7568ZM116.622 57.7568V58.0605H115.736L116.327 57.9087L116.622 57.7568ZM112.484 57.4531L113.075 57.3013L114.553 57.9087L114.11 58.0605L111.449 57.4531L111.597 57.1494L112.336 57.3013L112.484 57.4531ZM120.17 57.3013L120.022 57.4531L120.17 57.1494V57.3013ZM117.953 56.3902L117.805 56.5421L117.509 56.2384H117.805L117.953 56.3902ZM118.839 56.2384L118.987 56.5421L118.1 56.3902L118.544 56.2384H118.839ZM120.022 55.631V56.2384L120.317 56.3902L120.909 55.7828L122.091 56.0865V58.0605L121.5 57.7568L121.056 57.9087V56.9976L119.874 56.3902L119.726 56.5421L119.431 56.2384L119.874 55.9347L118.987 55.7828L119.283 55.4791L120.022 55.631ZM117.361 54.8718L116.918 55.3273L116.179 55.1754L115.736 55.4791L116.031 55.7828L116.77 55.4791L116.179 55.9347L116.77 56.9976H116.475L116.622 56.6939H116.179L116.327 56.5421L116.031 56.3902V56.0865L115.883 56.9976H115.588L115.736 56.6939L115.44 56.2384L116.031 54.8718H117.361ZM118.396 55.0236V55.3273L118.248 55.1754L118.1 55.4791L118.248 55.631L117.953 55.0236L118.1 54.7199L118.396 54.8718V55.0236ZM115.144 54.7199L115.44 55.0236H115.144L114.997 55.631L114.701 55.7828V56.5421L113.814 56.2384L113.371 56.3902L112.484 55.4791V54.8718L112.78 54.7199L112.927 55.0236L114.258 54.8718L114.553 53.9607L115.144 54.1125V54.5681V54.7199ZM111.597 57.1494L110.563 56.6939V56.3902L110.267 56.2384L109.38 54.7199L108.493 53.8088L109.084 53.657L109.971 54.7199H110.415L111.006 55.3273L110.858 55.4791L111.154 55.9347L111.597 56.2384V56.6939V57.1494Z" fill="#A4B2FF" stroke="#A4B2FF" stroke-width="0.3" stroke-linecap="round" stroke-linejoin="round"/>
<path fill-rule="evenodd" clip-rule="evenodd" d="M103.321 43.787L103.616 44.0907L103.468 45.1536L104.207 45.6091L103.912 46.2165L104.503 46.5202L106.277 46.9758L106.572 46.3684V46.6721L107.311 46.8239V46.5202H107.607L108.198 45.9128H108.641L109.085 46.3684L108.346 46.9758L107.607 48.4942L107.459 47.8868L107.311 48.1905L107.163 47.8868L107.607 47.4313H107.163L106.424 46.9758L106.277 47.1276L106.572 47.4313L106.277 47.5831L106.572 48.4942L105.981 48.6461L105.833 49.1016L105.39 49.2535L103.912 50.6201V52.1385L103.173 52.8978L101.99 50.3164L101.695 48.6461L101.251 48.7979L100.365 47.8868L100.66 47.5831L101.251 47.735L100.808 46.8239L101.104 46.3684L101.399 46.5202L102.286 45.3055L102.434 44.8499L101.99 44.0907H103.025L103.321 43.787Z" fill="#A4B2FF" stroke="#A4B2FF" stroke-width="0.3" stroke-linecap="round" stroke-linejoin="round"/>
<path fill-rule="evenodd" clip-rule="evenodd" d="M96.0782 43.0277L96.965 42.724L98.2953 43.3313L98.1475 45.0017L98.4431 45.3054L98.1475 45.7609L98.8865 46.8238L98.4431 46.9757V47.4312L97.1128 47.1275L96.965 46.672L96.3738 46.9757L95.487 46.5201L95.0436 45.609H94.6002L93.5656 44.2424L93.8612 43.635L93.5656 43.4832L93.27 42.2684L93.4178 42.1166L93.5656 42.4203H93.8612L94.3046 42.1166L94.6002 42.724L95.1914 43.1795H96.0782V43.0277Z" fill="#A4B2FF" stroke="#A4B2FF" stroke-width="0.3" stroke-linecap="round" stroke-linejoin="round"/>
<path fill-rule="evenodd" clip-rule="evenodd" d="M93.5657 43.4833L93.8613 43.6352L93.5657 44.2425L94.6003 45.761H94.1569L94.0091 46.0647H93.4179L92.0877 45.0018H91.7921L91.6443 44.5462L92.3833 44.0907V43.3315L92.6789 43.0278H93.4179L93.5657 43.4833Z" fill="#A4B2FF" stroke="#A4B2FF" stroke-width="0.3" stroke-linecap="round" stroke-linejoin="round"/>
<path fill-rule="evenodd" clip-rule="evenodd" d="M90.7576 44.6981L90.462 45.0018V45.9129L90.3142 45.3055L90.462 44.6981H90.7576Z" fill="#A4B2FF" stroke="#A4B2FF" stroke-width="0.3" stroke-linecap="round" stroke-linejoin="round"/>
<path fill-rule="evenodd" clip-rule="evenodd" d="M90.7574 44.8499L91.6442 44.5462L91.792 45.0018L91.053 45.1536L91.3486 45.6092L90.4618 45.9129L90.7574 45.1536V44.8499Z" fill="#A4B2FF" stroke="#A4B2FF" stroke-width="0.3" stroke-linecap="round" stroke-linejoin="round"/>
<path fill-rule="evenodd" clip-rule="evenodd" d="M120.17 44.2426L120.022 44.5462L119.875 44.3944L119.431 44.6981L119.875 44.0907L120.17 44.2426ZM122.092 43.0278L121.944 43.6352L121.5 44.0907H120.909L120.466 44.5462L120.318 44.0907H119.727L118.988 44.3944L119.431 44.5462L119.136 45.1536H118.84L118.544 44.5462L119.579 43.787H120.466L120.761 43.0278L120.909 43.1796L121.5 42.7241L121.796 42.2686L121.648 41.813L122.092 41.3575V42.7241V43.0278ZM122.831 40.2945L123.274 40.1427L123.422 40.5982L122.978 40.7501L122.683 41.2056L122.239 40.9019L122.092 41.3575H121.796L121.648 40.9019L121.796 40.5982H122.092L122.387 39.6872L122.683 40.1427L122.831 40.2945Z" fill="#A4B2FF" stroke="#A4B2FF" stroke-width="0.3" stroke-linecap="round" stroke-linejoin="round"/>
<path fill-rule="evenodd" clip-rule="evenodd" d="M101.251 41.0538L100.512 41.6612L99.9208 41.5093L99.773 40.7501L99.4774 40.4464L98.5906 40.5983L97.556 39.6872L96.817 39.839V41.5093L96.2258 41.0538L95.7824 41.2057V40.902L95.339 40.7501L95.0434 40.1427H95.339V39.839L95.6346 39.6872L95.9302 39.839V39.0798L94.7478 39.2317L94.4522 38.6243L94.1566 38.7761L93.861 38.4724L94.3044 37.4095L94.6 37.7132V37.4095L95.1912 36.8021H95.6346L96.6692 37.4095L96.9648 37.1058L97.8516 37.4095L98.295 37.2576L98.4428 37.1058L97.9994 36.6503L98.4428 36.1947V35.5873L100.66 34.9799H101.251V35.5873H101.99V35.891L103.025 35.4355L102.877 35.5873L103.911 37.2576L104.059 36.954L104.503 37.2576L104.946 37.1058L105.537 37.865L105.981 37.7132L106.128 38.0169L105.389 39.0798L104.798 38.928L104.65 39.6872L103.911 39.9909L104.207 40.7501H103.911V41.0538L103.616 40.7501L102.138 40.5983L101.251 40.902V41.0538Z" stroke="#A4B2FF" stroke-width="0.3" stroke-linecap="round" stroke-linejoin="round"/>
<path fill-rule="evenodd" clip-rule="evenodd" d="M101.251 41.0538L101.547 40.7501L101.99 40.9019L102.138 40.5982L103.616 40.7501L103.911 41.0538L103.025 41.5093L102.877 41.813H102.286L101.99 42.2685L100.807 42.1167L101.842 41.6612L101.547 41.3575L101.251 41.5093V41.0538Z" fill="#A4B2FF" stroke="#A4B2FF" stroke-width="0.3" stroke-linecap="round" stroke-linejoin="round"/>
<path fill-rule="evenodd" clip-rule="evenodd" d="M110.858 52.1387L110.563 51.5313L110.711 50.9239H112.041V51.5313L111.597 51.835L111.745 51.9868L111.154 52.1387H110.858Z" fill="#A4B2FF" stroke="#A4B2FF" stroke-width="0.3" stroke-linecap="round" stroke-linejoin="round"/>
<path fill-rule="evenodd" clip-rule="evenodd" d="M118.248 42.5722L118.544 43.0278V43.9389L117.657 44.0907V42.8759L118.248 42.5722Z" fill="#A4B2FF" stroke="#A4B2FF" stroke-width="0.3" stroke-linecap="round" stroke-linejoin="round"/>
<path fill-rule="evenodd" clip-rule="evenodd" d="M94.4526 45.761V46.2165L94.157 46.0647V45.761H94.4526Z" fill="#A4B2FF" stroke="#A4B2FF" stroke-width="0.3" stroke-linecap="round" stroke-linejoin="round"/>
<path fill-rule="evenodd" clip-rule="evenodd" d="M90.7574 44.5461V44.0906L91.053 44.2424L90.9052 44.3943L90.7574 44.5461Z" fill="#A4B2FF" stroke="#A4B2FF" stroke-width="0.3" stroke-linecap="round" stroke-linejoin="round"/>
<path fill-rule="evenodd" clip-rule="evenodd" d="M111.45 50.9236L111.302 49.8607H110.119L110.267 49.2533H109.972L109.824 48.9496L110.267 48.6459V48.3423L111.154 48.7978L111.302 49.1015L111.006 49.4052L112.041 50.4681V50.9236L111.745 50.7718L111.597 51.0755L111.45 50.9236Z" fill="#A4B2FF" stroke="#A4B2FF" stroke-width="0.3" stroke-linecap="round" stroke-linejoin="round"/>
<path fill-rule="evenodd" clip-rule="evenodd" d="M104.503 53.0495L104.208 53.505L103.912 53.2013V52.2903L104.356 52.7458L104.503 53.0495Z" fill="#A4B2FF" stroke="#A4B2FF" stroke-width="0.3" stroke-linecap="round" stroke-linejoin="round"/>
<path fill-rule="evenodd" clip-rule="evenodd" d="M109.676 49.1017L109.232 49.5573L109.676 51.2276L109.38 52.2905L109.528 51.835L108.937 50.0128L108.493 50.4684L108.05 50.3165L108.198 49.7091L107.607 48.9499L107.902 47.7351L108.05 47.887L108.346 47.1277L109.085 46.3685L109.528 46.824L109.085 47.887L109.38 47.7351L109.824 48.4944L110.267 48.6462L109.824 48.9499L109.676 49.1017Z" fill="#A4B2FF" stroke="#A4B2FF" stroke-width="0.3" stroke-linecap="round" stroke-linejoin="round"/>
<path fill-rule="evenodd" clip-rule="evenodd" d="M106.276 38.017L107.606 37.2578L108.345 37.7133H109.084L109.38 37.4096L109.232 37.1059L109.528 36.6504L110.415 37.1059L110.562 37.4096H111.597L112.336 38.017H113.075L114.11 37.5615L114.849 37.7133L114.405 38.4725L114.553 38.7762H114.997L115.292 38.4725L115.736 39.0799L114.997 39.2318L113.814 39.991L113.518 39.8392L113.223 40.1428V40.5984L111.597 41.0539L111.301 41.3576L110.415 40.9021H108.789L108.493 40.2947L107.163 39.8392L107.015 38.7762L106.276 38.3207V38.017Z" fill="#A4B2FF" stroke="#A4B2FF" stroke-width="0.3" stroke-linecap="round" stroke-linejoin="round"/>
<path fill-rule="evenodd" clip-rule="evenodd" d="M110.119 53.5051L110.858 53.8088V54.4162L111.154 54.8718L110.858 55.0236L110.267 54.4162L109.971 53.3533L110.119 53.5051ZM115.44 53.9607H114.553L114.258 54.8718L113.962 55.0236L112.78 54.8718L114.11 53.9607L114.258 54.1125L114.849 53.2014L115.292 53.657H115.588L115.292 53.8088L115.44 53.9607Z" fill="#A4B2FF" stroke="#A4B2FF" stroke-width="0.3" stroke-linecap="round" stroke-linejoin="round"/>
<path fill-rule="evenodd" clip-rule="evenodd" d="M106.277 46.5204V46.8241L105.981 46.9759L103.912 46.2167L104.208 45.6093H104.651L105.095 46.0648L105.981 46.3685L106.277 46.5204Z" fill="#A4B2FF" stroke="#A4B2FF" stroke-width="0.3" stroke-linecap="round" stroke-linejoin="round"/>
<path fill-rule="evenodd" clip-rule="evenodd" d="M97.5564 48.7979L96.8174 49.709L96.0784 50.1645L95.7828 50.0127L95.635 49.4053L96.5218 49.1016V48.1905L96.8174 47.735L96.6696 47.4313L97.852 48.1905L97.7042 48.6461L97.5564 48.7979ZM96.8174 47.1276L96.9652 46.9758L96.8174 47.1276Z" fill="#A4B2FF" stroke="#A4B2FF" stroke-width="0.3" stroke-linecap="round" stroke-linejoin="round"/>
<path fill-rule="evenodd" clip-rule="evenodd" d="M102.434 43.0278L102.729 43.6352L103.32 43.787L103.025 44.0907H101.99L102.434 44.8499L101.842 46.0647L101.399 46.5202L101.103 46.3684L100.808 46.8239L101.251 47.735L100.66 47.5832L100.364 47.8869L99.9211 47.2795L98.4431 47.4313V46.9758L98.8865 46.8239L98.1475 45.761H99.7733L100.217 45.1536L100.66 45.0018L100.956 44.2425H101.251V43.4833L102.286 43.1796L102.434 43.0278Z" fill="#A4B2FF" stroke="#A4B2FF" stroke-width="0.3" stroke-linecap="round" stroke-linejoin="round"/>
<path fill-rule="evenodd" clip-rule="evenodd" d="M117.657 52.7461L117.805 53.2016L117.657 53.3534L117.509 53.0497L117.361 53.6571L117.066 53.5053L116.918 52.8979L116.474 53.2016L116.77 52.5942L117.213 52.7461L117.361 52.2905L117.657 52.5942V52.7461ZM116.918 52.1387L116.622 52.5942L116.474 52.2905L117.066 51.835L116.918 52.1387ZM115.292 52.4424L114.996 52.7461L115.588 51.835L115.735 52.1387L115.44 52.2905L115.292 52.4424ZM116.327 51.6831L116.77 51.835L116.327 52.1387V51.835V51.6831ZM117.361 51.5313L117.509 51.9868L117.213 51.835V52.2905L117.066 51.5313H117.361ZM116.179 51.3794L115.883 51.2276H116.179V51.3794ZM116.179 49.5573H116.474V50.3165L116.179 50.6202L117.066 51.3794L116.031 51.0757V50.7721L115.735 50.6202L116.031 49.5573H116.179Z" fill="#A4B2FF" stroke="#A4B2FF" stroke-width="0.3" stroke-linecap="round" stroke-linejoin="round"/>
<path fill-rule="evenodd" clip-rule="evenodd" d="M118.988 41.0536L118.692 41.2055V41.661L118.101 41.9647L117.953 42.2684L118.249 42.5721L117.362 42.8758V42.2684L117.067 41.9647L117.806 41.2055L118.249 41.3573L118.692 41.0536V40.75L118.988 41.0536Z" fill="#A4B2FF" stroke="#A4B2FF" stroke-width="0.3" stroke-linecap="round" stroke-linejoin="round"/>
<path fill-rule="evenodd" clip-rule="evenodd" d="M95.1918 47.5833L95.3396 47.1277V47.5833H95.1918Z" fill="#A4B2FF" stroke="#A4B2FF" stroke-width="0.3" stroke-linecap="round" stroke-linejoin="round"/>
<path fill-rule="evenodd" clip-rule="evenodd" d="M90.7574 44.8498V45.1535L90.4618 45.3053L90.6096 44.8498H90.7574Z" fill="#A4B2FF" stroke="#A4B2FF" stroke-width="0.3" stroke-linecap="round" stroke-linejoin="round"/>
<path fill-rule="evenodd" clip-rule="evenodd" d="M92.8266 50.3163L91.9398 48.9497L91.792 48.1904L91.2008 47.7349L90.4618 46.2164V45.9127L90.9052 46.0646L91.3486 45.609L91.053 45.1535L92.0876 45.0016L93.4178 46.0646L94.3046 46.2164L95.0436 46.8238L95.1914 47.583L95.6348 48.0386L96.6694 48.4941L96.5216 49.1015L94.748 49.557L94.3046 50.0126L92.9744 49.8607V50.1644L92.8266 50.3163Z" fill="#A4B2FF" stroke="#A4B2FF" stroke-width="0.3" stroke-linecap="round" stroke-linejoin="round"/>
<path fill-rule="evenodd" clip-rule="evenodd" d="M91.6443 44.5462L91.053 44.8499L90.7574 44.6981L91.053 44.2425L90.7574 43.787L91.053 43.1796L91.9399 43.3315L92.6789 43.0278L92.3833 44.0907L91.6443 44.5462Z" fill="#A4B2FF" stroke="#A4B2FF" stroke-width="0.3" stroke-linecap="round" stroke-linejoin="round"/>
<path fill-rule="evenodd" clip-rule="evenodd" d="M110.563 51.531L109.824 51.2273L109.528 52.2903L110.415 53.505L110.119 53.6569L109.38 52.7458L109.676 51.3792L109.38 50.7718L109.528 50.3163L109.085 49.557L109.824 48.9496L110.267 49.2533L110.119 49.8607H111.302L111.45 50.7718L110.711 50.9236L110.563 51.2273V51.531Z" fill="#A4B2FF" stroke="#A4B2FF" stroke-width="0.3" stroke-linecap="round" stroke-linejoin="round"/>
<path fill-rule="evenodd" clip-rule="evenodd" d="M101.251 41.813L100.808 41.9649L101.99 42.2685L102.138 42.5722H102.434V43.0278L101.399 43.1796L101.104 42.5722L100.365 43.1796L100.217 43.0278L100.512 42.7241L100.217 42.2685L100.66 41.9649V41.6612H101.104V41.9649L101.251 41.813Z" fill="#A4B2FF" stroke="#A4B2FF" stroke-width="0.3" stroke-linecap="round" stroke-linejoin="round"/>
<path fill-rule="evenodd" clip-rule="evenodd" d="M98.2953 43.6352V43.3315L97.1129 42.7241L96.0783 43.0278L95.7827 41.6612H96.3739L96.0783 41.0538L95.7827 41.2056V41.5093L95.9305 41.0538H96.2261L96.6695 41.5093H97.1129L97.2607 41.0538H97.9997V41.3575L98.4431 41.5093L98.5909 41.9649L99.9211 42.7241V43.0278L99.6255 42.8759L99.3299 43.4833L98.5909 43.787L98.2953 43.6352Z" fill="#A4B2FF" stroke="#A4B2FF" stroke-width="0.3" stroke-linecap="round" stroke-linejoin="round"/>
<path fill-rule="evenodd" clip-rule="evenodd" d="M117.214 58.0605L117.805 57.9087L117.362 58.0605H117.214Z" fill="#A4B2FF" stroke="#A4B2FF" stroke-width="0.3" stroke-linecap="round" stroke-linejoin="round"/>
<path fill-rule="evenodd" clip-rule="evenodd" d="M91.0528 41.5093H93.122L93.4176 42.1167V43.0278L91.9396 43.3315L91.0528 43.1796L90.905 43.6352V43.3315L90.4616 43.1796L90.166 43.4833L88.3924 43.3315L87.949 42.7241L88.2446 41.813L90.6094 41.2056L91.0528 41.5093ZM88.2446 41.6612L87.949 41.9649V41.2056L88.2446 41.0538L88.688 41.5093H88.3924L88.2446 41.6612Z" fill="#A4B2FF" stroke="#A4B2FF" stroke-width="0.3" stroke-linecap="round" stroke-linejoin="round"/>
<path fill-rule="evenodd" clip-rule="evenodd" d="M116.327 47.5831L116.031 48.4942L115.884 47.8868L116.179 47.2794L116.327 47.4313V47.5831Z" fill="#A4B2FF" stroke="#A4B2FF" stroke-width="0.3" stroke-linecap="round" stroke-linejoin="round"/>
<path fill-rule="evenodd" clip-rule="evenodd" d="M99.9211 43.0278V42.7241L98.5909 41.9649V41.5093H98.1475L97.9997 41.0538L97.5563 40.9019L97.1129 41.2056V41.5093H96.8173V39.839L97.5563 39.6872L98.5909 40.5982L99.4777 40.4464L99.7733 40.7501L99.9211 41.5093L100.512 41.6612L101.251 41.0538L101.103 41.3575H101.547L101.842 41.6612L101.399 41.9649H101.103V41.6612H100.66V41.9649L100.217 42.1167L100.512 42.7241L100.069 43.0278H99.9211Z" fill="#A4B2FF" stroke="#A4B2FF" stroke-width="0.3" stroke-linecap="round" stroke-linejoin="round"/>
<path fill-rule="evenodd" clip-rule="evenodd" d="M112.189 48.6462L111.597 49.1017V49.4054L112.484 50.6202L112.632 51.6831L111.45 52.7461L111.154 52.1387L111.745 51.9868L111.597 51.835L112.041 51.5313V50.6202L111.597 49.861L111.006 49.4054L111.302 49.1017L111.154 48.7981H110.858L110.563 48.3425L111.45 48.0388L111.893 48.1907V48.4944L112.189 48.6462Z" fill="#A4B2FF" stroke="#A4B2FF" stroke-width="0.3" stroke-linecap="round" stroke-linejoin="round"/>
<path fill-rule="evenodd" clip-rule="evenodd" d="M95.9305 50.1645L94.6003 51.0756L93.2701 51.5312L92.9745 51.3793V49.8608L94.1569 50.0127L94.7481 49.5572L95.6349 49.4053L95.7827 50.0127L95.9305 50.1645Z" fill="#A4B2FF" stroke="#A4B2FF" stroke-width="0.3" stroke-linecap="round" stroke-linejoin="round"/>
<path fill-rule="evenodd" clip-rule="evenodd" d="M84.9933 57.1496L85.2889 57.757H85.8801V57.4533L86.6191 57.6051L86.7669 58.668L87.2103 58.8199V59.1236L86.6191 59.2754V60.3383L87.0625 60.7939H84.2543L83.5153 60.4902L84.2543 58.8199L83.9587 58.3643L84.1065 57.9088L83.8109 57.3014L84.1065 57.1496H84.9933ZM83.8109 56.9977V56.694V56.9977Z" stroke="#A4B2FF" stroke-width="0.3" stroke-linecap="round" stroke-linejoin="round"/>
<path fill-rule="evenodd" clip-rule="evenodd" d="M88.8358 56.6939L88.688 56.2384L89.1314 56.0865L89.2792 56.2384L88.9836 56.6939H88.8358Z" fill="#A4B2FF" stroke="#A4B2FF" stroke-width="0.3" stroke-linecap="round" stroke-linejoin="round"/>
<path fill-rule="evenodd" clip-rule="evenodd" d="M80.8547 53.3533L80.7069 53.5051L80.5591 53.2014L80.4113 52.1385L80.8547 51.5311L81.2981 51.9867L81.0025 52.8977L80.8547 53.3533Z" fill="#A4B2FF" stroke="#A4B2FF" stroke-width="0.3" stroke-linecap="round" stroke-linejoin="round"/>
<path fill-rule="evenodd" clip-rule="evenodd" d="M79.229 52.4422H78.7856L78.49 52.1385L78.7856 51.2274L79.968 50.6201L80.707 51.3793V51.683L80.4114 51.9867L79.229 52.1385V52.4422Z" fill="#A4B2FF" stroke="#A4B2FF" stroke-width="0.3" stroke-linecap="round" stroke-linejoin="round"/>
<path fill-rule="evenodd" clip-rule="evenodd" d="M87.8008 61.0974L88.8354 62.3122L88.392 62.464L87.5052 63.527L87.0618 63.3751L86.4706 63.8307L86.0272 63.0714V62.1603H86.3228V60.9456L87.653 60.7937L87.8008 61.0974Z" stroke="#A4B2FF" stroke-width="0.3" stroke-linecap="round" stroke-linejoin="round"/>
<path fill-rule="evenodd" clip-rule="evenodd" d="M84.6976 53.0499H85.141L86.3234 52.4425L86.9146 51.8351L87.0624 52.5943L87.6536 52.898L88.2448 53.6572L86.7668 54.1128L85.88 53.8091L84.8454 54.5683L84.402 53.9609L84.5498 53.3535L84.6976 53.0499Z" stroke="#A4B2FF" stroke-width="0.3" stroke-linecap="round" stroke-linejoin="round"/>
<path fill-rule="evenodd" clip-rule="evenodd" d="M79.2291 53.8088L77.8989 53.9607L77.6033 53.3533V52.2904L78.4901 52.1385L78.7857 52.4422H79.2291V53.657V53.8088Z" fill="#A4B2FF" stroke="#A4B2FF" stroke-width="0.3" stroke-linecap="round" stroke-linejoin="round"/>
<path fill-rule="evenodd" clip-rule="evenodd" d="M83.9581 54.5681H82.9235L83.0713 54.4162L82.6279 53.9607L83.0713 53.2014H83.6625L84.4015 51.5311L84.6971 52.2904L84.2537 52.4422L84.6971 53.0496L84.4015 53.9607L84.8449 54.4162V54.8718L84.4015 54.7199L83.9581 54.5681Z" fill="#A4B2FF" stroke="#A4B2FF" stroke-width="0.3" stroke-linecap="round" stroke-linejoin="round"/>
<path fill-rule="evenodd" clip-rule="evenodd" d="M89.2794 54.2644L89.4272 54.7199L89.1316 54.8718L88.6882 56.2384L89.2794 57.9087H88.6882L88.5404 58.2124V58.9716L88.9838 59.4271L86.9146 58.6679L86.619 58.2124V57.605L86.0278 57.4531L85.88 57.7568H85.2888L84.9932 57.3013L83.8108 57.1495V56.8458H84.402L84.8454 56.5421V56.0865L85.4366 55.4791V54.5681L85.88 53.8088L86.619 54.1125L88.2448 53.657L88.3926 53.9607L88.9838 54.1125L89.2794 54.2644Z" fill="#A4B2FF" stroke="#A4B2FF" stroke-width="0.3" stroke-linecap="round" stroke-linejoin="round"/>
<path fill-rule="evenodd" clip-rule="evenodd" d="M83.9582 56.8459L83.3669 56.5422L83.8103 55.9348H84.4016V55.0237L83.9582 54.72L84.845 54.8719V54.5682L85.4362 54.2645V55.4793L84.845 56.0867L84.6972 56.694L84.106 56.8459H83.9582Z" fill="#A4B2FF" stroke="#A4B2FF" stroke-width="0.3" stroke-linecap="round" stroke-linejoin="round"/>
<path fill-rule="evenodd" clip-rule="evenodd" d="M92.9747 51.3794L92.8269 51.9868H92.5312V51.6831L92.8269 51.5313L92.9747 51.3794Z" fill="#A4B2FF" stroke="#A4B2FF" stroke-width="0.3" stroke-linecap="round" stroke-linejoin="round"/>
<path fill-rule="evenodd" clip-rule="evenodd" d="M90.4618 45.913L90.1662 46.5204L89.7228 45.7611L90.7574 47.7351L90.6096 47.887L91.053 48.3425L87.5057 48.4944L87.6535 45.1537L88.6882 45.4574L89.1316 45.1537H89.575V45.4574L90.314 45.3056L90.4618 45.913Z" fill="#A4B2FF" stroke="#A4B2FF" stroke-width="0.3" stroke-linecap="round" stroke-linejoin="round"/>
<path fill-rule="evenodd" clip-rule="evenodd" d="M83.6631 47.8867L81.7417 49.2534L81.0027 49.4052L80.7071 48.9497L77.6033 46.672V46.0646L79.0813 45.4572V45.1535L79.8203 44.698L79.5247 43.7869L81.0027 43.1795H82.6285L82.3329 44.5461L82.6285 44.698L83.0719 45.9127L82.9241 47.1275L83.5153 47.7349L83.6631 47.8867Z" fill="#A4B2FF" stroke="#A4B2FF" stroke-width="0.3" stroke-linecap="round" stroke-linejoin="round"/>
<path fill-rule="evenodd" clip-rule="evenodd" d="M92.6791 51.5313L92.2357 50.9239H90.9055L91.0533 50.0128L91.4967 49.7091L91.7923 50.4683L92.8269 51.5313H92.6791Z" fill="#A4B2FF" stroke="#A4B2FF" stroke-width="0.3" stroke-linecap="round" stroke-linejoin="round"/>
<path fill-rule="evenodd" clip-rule="evenodd" d="M91.3487 50.7719L92.3833 51.0756L92.679 51.3793L92.5311 51.8348L92.9746 52.4422L94.3048 52.8978L93.418 53.8088L92.679 54.1125L92.2355 53.9607L91.6443 54.2644L90.7575 53.8088L90.1663 52.8978H89.8707L90.9053 51.0756L91.3487 50.9238V50.7719Z" fill="#A4B2FF" stroke="#A4B2FF" stroke-width="0.3" stroke-linecap="round" stroke-linejoin="round"/>
<path fill-rule="evenodd" clip-rule="evenodd" d="M83.3674 56.5421L82.7762 55.631L83.0718 55.0236H83.5153V54.5681H83.9587L84.4021 55.0236V55.7828L84.2543 56.0865L83.8109 55.9347L83.5153 56.2384L83.6631 56.3902L83.3674 56.5421Z" fill="#A4B2FF" stroke="#A4B2FF" stroke-width="0.3" stroke-linecap="round" stroke-linejoin="round"/>
<path fill-rule="evenodd" clip-rule="evenodd" d="M80.4112 53.5053L79.5244 53.9608L79.2288 53.809V52.1387L80.1156 51.9868L80.4112 53.3534V53.5053Z" fill="#A4B2FF" stroke="#A4B2FF" stroke-width="0.3" stroke-linecap="round" stroke-linejoin="round"/>
<path fill-rule="evenodd" clip-rule="evenodd" d="M77.6034 53.0496H77.3078L76.8644 52.2904L76.1254 52.5941L75.682 51.9867L76.1254 51.5311H77.3078L77.7512 52.4422L77.6034 53.0496Z" fill="#A4B2FF" stroke="#A4B2FF" stroke-width="0.3" stroke-linecap="round" stroke-linejoin="round"/>
<path fill-rule="evenodd" clip-rule="evenodd" d="M75.0905 51.2276H75.9773H75.3861H75.0905Z" fill="#A4B2FF" stroke="#A4B2FF" stroke-width="0.3" stroke-linecap="round" stroke-linejoin="round"/>
<path fill-rule="evenodd" clip-rule="evenodd" d="M75.6817 51.9867L75.0905 51.5311H75.9773L75.8295 51.8348L75.6817 51.9867Z" fill="#A4B2FF" stroke="#A4B2FF" stroke-width="0.3" stroke-linecap="round" stroke-linejoin="round"/>
<path fill-rule="evenodd" clip-rule="evenodd" d="M82.9246 55.0236V54.5681H83.5158V55.0236H83.0724H82.9246Z" fill="#A4B2FF" stroke="#A4B2FF" stroke-width="0.3" stroke-linecap="round" stroke-linejoin="round"/>
<path fill-rule="evenodd" clip-rule="evenodd" d="M92.2352 55.631L92.5308 55.7828L92.0874 56.0865L91.9396 56.6939L90.3138 55.631L90.166 55.3273L90.6094 54.7199L90.166 53.9607L90.6094 53.657L91.4962 54.2644H91.9396L92.2352 53.9607V54.4162V55.631Z" stroke="#A4B2FF" stroke-width="0.3" stroke-linecap="round" stroke-linejoin="round"/>
<path fill-rule="evenodd" clip-rule="evenodd" d="M77.8992 53.9607L76.8646 53.5051L76.7168 53.2014L77.1602 52.7459L77.8992 53.8088V53.9607Z" fill="#A4B2FF" stroke="#A4B2FF" stroke-width="0.3" stroke-linecap="round" stroke-linejoin="round"/>
<path fill-rule="evenodd" clip-rule="evenodd" d="M84.5504 48.1905L84.2548 48.3424L82.9246 47.1276V45.6092L83.5158 44.5462L84.6982 44.8499L84.846 45.3055L85.7328 45.6092L86.324 44.6981L87.5064 45.0018V49.1016L84.846 48.0387L84.5504 48.1905Z" stroke="#A4B2FF" stroke-width="0.3" stroke-linecap="round" stroke-linejoin="round"/>
<path fill-rule="evenodd" clip-rule="evenodd" d="M78.6377 43.6352L79.3767 43.787L79.6723 44.6981L79.0811 45.4573L77.6031 46.0647L77.4553 46.6721L76.7163 46.8239L75.6817 48.6461H75.0905L75.8295 46.9758L77.3075 45.761L77.1597 45.3055L78.3421 43.6352H78.6377Z" fill="#A4B2FF" stroke="#A4B2FF" stroke-width="0.3" stroke-linecap="round" stroke-linejoin="round"/>
<path fill-rule="evenodd" clip-rule="evenodd" d="M88.6882 64.59L88.836 64.7419L88.3926 65.1974L88.097 64.8937L88.5404 64.4382L88.6882 64.59Z" fill="#A4B2FF" stroke="#A4B2FF" stroke-width="0.3" stroke-linecap="round" stroke-linejoin="round"/>
<path fill-rule="evenodd" clip-rule="evenodd" d="M94.8959 59.1236L95.1915 60.0346H94.8959L94.1569 63.2234L93.5657 63.3753L93.1223 63.0716L92.9745 62.4642L93.2701 61.5531L93.1223 60.7939L93.4179 60.3383L94.4525 59.7309L94.3047 59.5791L94.7481 58.9717L94.8959 59.1236Z" fill="#A4B2FF" stroke="#A4B2FF" stroke-width="0.3" stroke-linecap="round" stroke-linejoin="round"/>
<path fill-rule="evenodd" clip-rule="evenodd" d="M76.5687 50.7719L78.4901 50.4682L78.1945 47.4313H78.6379L81.4462 49.4053V50.1645L81.0028 50.6201L79.5247 50.7719L79.0813 51.2275H78.7857L78.4901 51.9867L78.0467 52.2904L77.3077 51.5312L76.7165 51.683L76.5687 51.0756V50.7719Z" stroke="#A4B2FF" stroke-width="0.3" stroke-linecap="round" stroke-linejoin="round"/>
<path fill-rule="evenodd" clip-rule="evenodd" d="M90.4619 58.8199L90.9053 58.9717L92.0877 58.5162L92.2355 59.7309L92.0877 60.3383L91.2009 60.7939L90.4619 61.5531L90.7575 62.616L90.6097 63.0716L89.8707 63.3753L89.7229 63.8308L89.4273 62.3123L89.7229 62.0086L89.8707 60.4902L89.1317 60.1865V59.8828L90.0185 59.5791L90.6097 60.4902L90.7575 59.8828L90.3141 59.1236L90.4619 58.8199Z" fill="#A4B2FF" stroke="#A4B2FF" stroke-width="0.3" stroke-linecap="round" stroke-linejoin="round"/>
<path fill-rule="evenodd" clip-rule="evenodd" d="M76.5685 50.7719L75.8295 50.1645L75.2383 50.3164L75.3861 49.709L75.0905 48.7979L76.2729 48.6461V48.1905L76.5685 48.0387V47.1276H77.6031V46.6721L78.6377 47.4313H78.1943L78.4899 50.3164L76.5685 50.7719Z" fill="#A4B2FF" stroke="#A4B2FF" stroke-width="0.3" stroke-linecap="round" stroke-linejoin="round"/>
<path fill-rule="evenodd" clip-rule="evenodd" d="M90.4619 58.8199L90.3141 59.1236L90.7575 59.8828L90.6097 60.3383H90.3141V59.731L89.8707 59.2754V58.2125H90.1663L90.3141 58.5162L90.4619 58.8199Z" fill="#A4B2FF" stroke="#A4B2FF" stroke-width="0.3" stroke-linecap="round" stroke-linejoin="round"/>
<path fill-rule="evenodd" clip-rule="evenodd" d="M84.9932 64.4379L84.6976 64.1342L84.402 62.4639L83.663 60.6418H85.5844L86.4712 60.9454L87.5058 60.6418L87.358 60.9454H86.3234V62.1602H86.0278V64.4379L85.4366 64.5898L85.141 64.2861L84.9932 64.4379Z" fill="#A4B2FF" stroke="#A4B2FF" stroke-width="0.3" stroke-linecap="round" stroke-linejoin="round"/>
<path fill-rule="evenodd" clip-rule="evenodd" d="M80.7074 51.6831L80.264 50.772L81.003 50.6202L81.4464 50.1647V49.4054L83.6635 47.887L84.1069 48.0388L84.2547 48.3425L84.5503 48.1907V48.6462L84.8459 48.9499L84.6981 50.1647L84.2547 50.4684L84.1069 50.9239L84.4025 51.5313L83.9591 51.0757L83.8113 51.3794L81.4464 51.0757L81.1508 51.5313H80.8552L80.7074 51.6831Z" fill="#A4B2FF" stroke="#A4B2FF" stroke-width="0.3" stroke-linecap="round" stroke-linejoin="round"/>
<path fill-rule="evenodd" clip-rule="evenodd" d="M82.6281 53.8089L82.1847 54.1125L81.4457 53.3533H80.8545L81.2979 51.9867L81.1501 51.5312L81.4457 51.0756L82.7759 51.3793H83.8105L83.9583 51.0756L84.4017 51.683L83.6627 53.2015H83.2193L82.7759 53.657L82.6281 53.8089Z" fill="#A4B2FF" stroke="#A4B2FF" stroke-width="0.3" stroke-linecap="round" stroke-linejoin="round"/>
<path fill-rule="evenodd" clip-rule="evenodd" d="M89.1314 55.631L89.2792 56.0865L88.688 56.2384L88.9836 55.7828L89.1314 55.631Z" fill="#A4B2FF" stroke="#A4B2FF" stroke-width="0.3" stroke-linecap="round" stroke-linejoin="round"/>
<path fill-rule="evenodd" clip-rule="evenodd" d="M77.4553 46.6721L77.6031 46.5202V47.1276H76.5685V48.0387H76.2729V48.6461H75.0905H75.6817L76.7163 46.8239L77.3075 46.6721H77.4553Z" fill="#A4B2FF" stroke="#A4B2FF" stroke-width="0.3" stroke-linecap="round" stroke-linejoin="round"/>
<path fill-rule="evenodd" clip-rule="evenodd" d="M90.166 52.4425L90.0182 51.5314L89.427 52.2906L88.9836 52.1388L88.688 52.4425H88.0968L87.5056 52.1388L87.3578 52.5943H87.0622L86.7666 51.3796L86.6188 51.5314L86.9144 50.4685H87.21V49.2537L87.5056 49.1019V48.4945H91.0528L91.2006 49.5574L91.4962 49.7092L90.166 52.4425Z" fill="#A4B2FF" stroke="#A4B2FF" stroke-width="0.3" stroke-linecap="round" stroke-linejoin="round"/>
<path fill-rule="evenodd" clip-rule="evenodd" d="M90.166 52.4422V52.7459L89.8704 52.8977H90.166L90.6094 53.657L89.5748 54.2644L88.5402 53.9607L87.3578 52.7459L87.8012 52.1385L87.949 52.4422H88.688L88.9836 52.1385L89.2792 52.2904L89.7226 51.9867L89.8704 51.5311L90.166 52.4422Z" fill="#A4B2FF" stroke="#A4B2FF" stroke-width="0.3" stroke-linecap="round" stroke-linejoin="round"/>
<path fill-rule="evenodd" clip-rule="evenodd" d="M75.0905 51.0757V50.4684L75.6817 50.1647L76.5685 50.7721L76.7163 51.5313H75.0905V51.2276H75.9773L75.5339 51.0757H75.0905Z" fill="#A4B2FF" stroke="#A4B2FF" stroke-width="0.3" stroke-linecap="round" stroke-linejoin="round"/>
<path fill-rule="evenodd" clip-rule="evenodd" d="M76.7164 53.2013L76.1252 52.5939L76.4208 52.2903L77.012 52.4421L76.8642 53.2013H76.7164Z" fill="#A4B2FF" stroke="#A4B2FF" stroke-width="0.3" stroke-linecap="round" stroke-linejoin="round"/>
<path fill-rule="evenodd" clip-rule="evenodd" d="M94.6002 52.4425L94.3045 52.898H94.0089L92.8265 52.2906V51.9869L92.9743 51.8351L93.2699 52.1388L94.4523 51.8351L94.6002 52.2906V52.4425Z" stroke="#A4B2FF" stroke-width="0.3" stroke-linecap="round" stroke-linejoin="round"/>
<path fill-rule="evenodd" clip-rule="evenodd" d="M94.8959 51.8347L95.3393 51.6829V52.1384L94.3047 54.1124L92.5311 55.7827L92.2355 55.6309V54.4161L93.4179 53.8087L94.6003 52.5939L94.7481 51.8347H94.8959Z" fill="#A4B2FF" stroke="#A4B2FF" stroke-width="0.3" stroke-linecap="round" stroke-linejoin="round"/>
<path fill-rule="evenodd" clip-rule="evenodd" d="M89.7229 63.8308H89.2795L89.4273 63.3752L89.5751 63.6789L89.7229 63.8308Z" fill="#A4B2FF" stroke="#A4B2FF" stroke-width="0.3" stroke-linecap="round" stroke-linejoin="round"/>
<path fill-rule="evenodd" clip-rule="evenodd" d="M84.4021 51.3794L84.1064 50.9239L84.2542 50.4684L84.6977 50.1647L84.8455 49.1017L84.5499 48.1907L84.8455 48.0388L87.2103 49.2536V50.4684H86.9147L86.6191 51.3794L86.9147 51.835L86.3235 52.4424L84.8455 53.0498L84.2542 52.4424L84.6977 52.2905L84.5499 51.5313L84.4021 51.3794Z" fill="#A4B2FF" stroke="#A4B2FF" stroke-width="0.3" stroke-linecap="round" stroke-linejoin="round"/>
<path fill-rule="evenodd" clip-rule="evenodd" d="M80.7072 53.5053H80.4116L80.2638 53.2016L80.116 51.9868H80.4116L80.5594 52.2905V53.2016L80.7072 53.5053Z" fill="#A4B2FF" stroke="#A4B2FF" stroke-width="0.3" stroke-linecap="round" stroke-linejoin="round"/>
<path fill-rule="evenodd" clip-rule="evenodd" d="M82.9242 45.6092L82.7764 45.0018L82.333 44.5462L82.6286 43.3315L82.9242 43.0278H83.2198V43.3315L83.3676 43.1796V43.9388L83.072 44.0907L83.5154 44.8499L83.072 45.4573L82.9242 45.6092Z" fill="#A4B2FF" stroke="#A4B2FF" stroke-width="0.3" stroke-linecap="round" stroke-linejoin="round"/>
<path fill-rule="evenodd" clip-rule="evenodd" d="M90.1661 55.631L91.792 56.6939L91.6442 57.1494L92.0876 58.5161L91.9398 58.6679L91.053 58.9716L89.4271 57.9087L88.8359 57.1494V56.6939L89.2793 56.3902L89.1315 55.631H89.5749H90.1661Z" fill="#A4B2FF" stroke="#A4B2FF" stroke-width="0.3" stroke-linecap="round" stroke-linejoin="round"/>
<path fill-rule="evenodd" clip-rule="evenodd" d="M89.575 55.631L88.9838 55.7828L89.2794 54.2644L90.1662 53.9607L90.6096 54.7199L90.1662 55.631H89.575Z" fill="#A4B2FF" stroke="#A4B2FF" stroke-width="0.3" stroke-linecap="round" stroke-linejoin="round"/>
<path fill-rule="evenodd" clip-rule="evenodd" d="M89.4276 64.7419L88.5408 65.9566L87.8017 66.4122L87.0627 66.2603L86.0281 66.7159L85.5847 66.4122V65.5011L84.9935 64.4382H86.0281V63.0715L86.3237 63.8308L86.7671 63.6789L86.9149 63.3752L87.5061 63.5271L88.393 62.4642L88.8364 62.3123H89.4276L89.5754 63.3752L89.2798 63.5271V63.8308H89.7232V64.4382L89.4276 64.7419ZM88.6886 64.59L88.5408 64.4382L88.0973 64.8937L88.393 65.1974L88.8364 64.7419L88.6886 64.59Z" fill="#A4B2FF" stroke="#A4B2FF" stroke-width="0.3" stroke-linecap="round" stroke-linejoin="round"/>
<path fill-rule="evenodd" clip-rule="evenodd" d="M89.8704 58.2124V59.579L89.1314 59.8827V60.1864H88.8358L88.0968 60.9456L87.5056 60.6419H86.7666L86.6188 59.2753H87.21V58.6679L88.9836 59.4271V59.1234L88.5402 58.6679L88.688 57.9087L89.7226 58.0605L89.8704 58.2124Z" fill="#A4B2FF" stroke="#A4B2FF" stroke-width="0.3" stroke-linecap="round" stroke-linejoin="round"/>
<path fill-rule="evenodd" clip-rule="evenodd" d="M89.4274 62.3123H88.8362L88.3928 62.0086V61.7049L87.9494 61.4012L87.6538 60.7938L87.9494 60.9457L88.8362 60.1865H89.4274L89.8708 60.4902L89.723 62.0086L89.4274 62.3123Z" fill="#A4B2FF" stroke="#A4B2FF" stroke-width="0.3" stroke-linecap="round" stroke-linejoin="round"/>
<path fill-rule="evenodd" clip-rule="evenodd" d="M86.1759 41.2056V42.1167L85.8802 41.813V41.0538H86.1759V41.2056Z" fill="#A4B2FF" stroke="#A4B2FF" stroke-width="0.3" stroke-linecap="round" stroke-linejoin="round"/>
<path fill-rule="evenodd" clip-rule="evenodd" d="M85.1416 38.4724L84.846 39.2316L82.9246 38.9279L83.8114 38.7761L84.107 38.3205L84.5504 38.1687L85.1416 38.3205V38.4724Z" fill="#A4B2FF" stroke="#A4B2FF" stroke-width="0.3" stroke-linecap="round" stroke-linejoin="round"/>
<path fill-rule="evenodd" clip-rule="evenodd" d="M81.1501 36.9539H81.5935L81.8891 37.2576L81.7413 37.865L80.8545 37.1058L81.1501 36.9539Z" fill="#A4B2FF" stroke="#A4B2FF" stroke-width="0.3" stroke-linecap="round" stroke-linejoin="round"/>
<path fill-rule="evenodd" clip-rule="evenodd" d="M86.9145 40.2946H88.2447L88.3925 41.2056H87.9491V41.5093H86.9145L86.7667 40.2946H86.9145Z" fill="#A4B2FF" stroke="#A4B2FF" stroke-width="0.3" stroke-linecap="round" stroke-linejoin="round"/>
<path fill-rule="evenodd" clip-rule="evenodd" d="M85.732 39.9907L85.8798 40.5981L85.5842 40.9018L84.8452 39.9907L85.5842 39.8389L85.732 39.9907Z" fill="#A4B2FF" stroke="#A4B2FF" stroke-width="0.3" stroke-linecap="round" stroke-linejoin="round"/>
<path fill-rule="evenodd" clip-rule="evenodd" d="M87.0623 35.7392L87.6535 35.5873L88.0969 34.98L87.9491 34.8281L88.5403 34.5244L89.2793 34.8281L89.4271 35.5873L89.8705 36.0429H89.4271L89.5749 36.6503H89.2793L89.1315 36.954L87.6535 36.6503L87.0623 36.954V35.891V35.7392Z" fill="#A4B2FF" stroke="#A4B2FF" stroke-width="0.3" stroke-linecap="round" stroke-linejoin="round"/>
<path fill-rule="evenodd" clip-rule="evenodd" d="M82.9241 38.7761L83.2197 39.2316L83.0719 39.3835H81.8895V39.0798L82.6285 38.6242L82.9241 38.7761Z" fill="#A4B2FF" stroke="#A4B2FF" stroke-width="0.3" stroke-linecap="round" stroke-linejoin="round"/>
<path fill-rule="evenodd" clip-rule="evenodd" d="M85.141 38.3204L84.1064 38.1686L83.8108 37.5612L84.402 37.1057L84.9932 37.2575L85.7322 37.8649L85.141 38.1686V38.3204Z" fill="#A4B2FF" stroke="#A4B2FF" stroke-width="0.3" stroke-linecap="round" stroke-linejoin="round"/>
<path fill-rule="evenodd" clip-rule="evenodd" d="M83.0719 35.1318L83.6631 35.5873H84.1065L84.4021 36.0429L84.2543 36.1947L84.5499 37.1058L83.8109 37.5613L84.1065 38.1687L83.9587 38.7761H82.3329L82.4807 38.1687L81.8895 37.865V36.8021L82.1851 36.4984V36.0429L82.7763 35.5873L82.6285 35.1318L82.9241 35.2836L83.0719 35.1318Z" fill="#A4B2FF" stroke="#A4B2FF" stroke-width="0.3" stroke-linecap="round" stroke-linejoin="round"/>
<path fill-rule="evenodd" clip-rule="evenodd" d="M83.9581 34.828L83.6625 35.2835L83.3669 34.9798V34.6761L83.8103 34.5243L83.9581 34.828ZM83.3669 34.3724L82.9235 34.828L83.0713 35.1317H82.6279V33.9169L83.2191 33.6132V34.2206L83.3669 34.3724Z" fill="#A4B2FF" stroke="#A4B2FF" stroke-width="0.3" stroke-linecap="round" stroke-linejoin="round"/>
<path fill-rule="evenodd" clip-rule="evenodd" d="M77.4551 41.2056L77.3073 40.7501L77.7507 40.4464L79.5243 40.5982L81.0023 41.0538L80.7067 41.5093L80.2633 41.6612L79.9677 42.2686L80.1155 42.4204L79.5243 43.3315L78.6375 43.4833L77.8985 43.1796V42.1167L78.1941 41.3575L77.6029 41.0538L77.4551 41.2056Z" fill="#A4B2FF" stroke="#A4B2FF" stroke-width="0.3" stroke-linecap="round" stroke-linejoin="round"/>
<path fill-rule="evenodd" clip-rule="evenodd" d="M87.3579 33.6132L87.0623 32.854L87.5057 32.5503H88.3925V33.6132L87.9491 33.7651L87.6535 33.4614L87.3579 33.6132Z" fill="#A4B2FF" stroke="#A4B2FF" stroke-width="0.3" stroke-linecap="round" stroke-linejoin="round"/>
<path fill-rule="evenodd" clip-rule="evenodd" d="M88.6883 25.7174L88.5405 26.3247L88.9839 26.9321L88.6883 27.5395L89.1317 28.4506L88.8361 29.058L89.1317 29.5135L88.9839 29.9691L89.4273 30.4246V30.7283L88.3927 31.9431L86.9147 32.3986L86.4713 31.7912L86.3235 30.5764L87.6537 28.9061V28.6024L87.0625 27.995V26.7803L86.3235 25.7174L86.4713 25.5655L86.7669 26.021L87.2103 25.8692L87.5059 26.1729L87.9493 25.11L88.3927 24.8063L88.6883 25.11V25.7174Z" fill="#A4B2FF" stroke="#A4B2FF" stroke-width="0.3" stroke-linecap="round" stroke-linejoin="round"/>
<path fill-rule="evenodd" clip-rule="evenodd" d="M64.4487 54.5681H63.8575V53.8089L64.1531 53.5052L64.7443 53.9607L64.5965 54.4163L64.4487 54.5681ZM82.9239 41.0538V41.3575L82.6283 41.0538L82.9239 40.7501V41.0538ZM81.1503 37.4095L82.4805 38.1687L82.3327 38.7761L81.8893 39.0798L82.3327 40.4464L82.0371 40.7501L81.4459 40.5982L81.0025 40.7501V41.0538H80.7069L79.5245 40.5982L79.8201 39.5353L79.5245 38.9279L78.7855 38.6242V38.3206H79.6723L79.5245 37.7132L79.8201 38.0169L80.5591 37.5613V37.2576H81.0025L81.1503 37.4095Z" fill="#A4B2FF" stroke="#A4B2FF" stroke-width="0.3" stroke-linecap="round" stroke-linejoin="round"/>
<path fill-rule="evenodd" clip-rule="evenodd" d="M87.2099 43.6352L87.9489 43.9389L87.0621 43.787L87.2099 43.6352ZM88.0967 41.3575L87.9489 41.6612H87.2099L87.3577 41.9649L86.9143 41.813V42.4204L87.2099 42.7241L86.9143 43.0278L87.0621 43.3315H86.7665L86.1753 42.2686L86.3231 41.6612L87.3577 41.3575L87.9489 41.5093V41.2056L88.0967 41.3575Z" fill="#A4B2FF" stroke="#A4B2FF" stroke-width="0.3" stroke-linecap="round" stroke-linejoin="round"/>
<path fill-rule="evenodd" clip-rule="evenodd" d="M78.4904 35.4352L78.3426 35.7389L78.047 35.5871V34.9797L78.4904 35.4352ZM79.2294 33.1575L78.9338 33.7649L79.525 33.6131L79.2294 34.676H79.525L80.1162 36.0426L80.5596 36.3463V36.9537L80.264 37.2574H79.2294L79.0816 37.5611L78.786 37.4092L78.4904 37.7129L78.3426 37.5611L79.0816 36.9537L78.4904 36.65L78.9338 36.4982L78.6382 36.1945L78.786 35.8908L79.2294 36.0426L79.0816 35.2834H78.6382L78.786 34.8279L78.6382 34.676L78.4904 34.9797L78.3426 34.2205V33.6131L78.6382 33.1575H78.9338H79.2294Z" fill="#A4B2FF" stroke="#A4B2FF" stroke-width="0.3" stroke-linecap="round" stroke-linejoin="round"/>
<path fill-rule="evenodd" clip-rule="evenodd" d="M85.7323 39.5353V39.9909L84.8455 39.839L85.5845 40.9019L84.8455 40.5982L84.4021 39.839L84.2543 39.9909V39.6872H84.5499L84.9933 39.2316L85.5845 39.5353H85.7323Z" fill="#A4B2FF" stroke="#A4B2FF" stroke-width="0.3" stroke-linecap="round" stroke-linejoin="round"/>
<path fill-rule="evenodd" clip-rule="evenodd" d="M84.9935 39.0798L85.1413 38.4724H86.9149L86.3237 39.3835L85.2891 39.5353L84.9935 39.0798Z" fill="#A4B2FF" stroke="#A4B2FF" stroke-width="0.3" stroke-linecap="round" stroke-linejoin="round"/>
<path fill-rule="evenodd" clip-rule="evenodd" d="M78.3422 35.7392L78.0466 36.4984L77.1598 36.8021L77.4554 36.1947L77.3076 35.7392L77.6032 35.2836L77.8988 35.1318L78.0466 35.5873L78.3422 35.7392Z" fill="#A4B2FF" stroke="#A4B2FF" stroke-width="0.3" stroke-linecap="round" stroke-linejoin="round"/>
<path fill-rule="evenodd" clip-rule="evenodd" d="M75.8293 27.8432L75.6815 28.4506L76.1249 28.9061L75.6815 29.3617L74.7947 29.9691L73.3167 29.6654L73.6123 29.3617L73.0211 29.058L73.4645 28.9061L72.8733 28.4506L73.0211 27.995H73.6123L74.0557 28.4506L74.4991 27.995L74.7947 28.2987L75.3859 27.8432H75.8293Z" fill="#A4B2FF" stroke="#A4B2FF" stroke-width="0.3" stroke-linecap="round" stroke-linejoin="round"/>
<path fill-rule="evenodd" clip-rule="evenodd" d="M84.6977 42.7241L84.5499 43.3315L83.8109 42.8759L84.5499 42.7241H84.6977ZM82.9241 41.5093L83.0719 41.813L82.7763 42.4204L82.4807 41.6612H82.7763L82.9241 41.5093ZM83.8109 39.0798L84.2543 39.2316V39.5353L83.8109 39.6872V40.2946L84.5499 41.2056L85.5845 41.813V42.1167L85.4367 41.813H85.1411L84.9933 42.1167L85.2889 42.2686L84.8455 42.7241V42.1167L83.6631 41.3575L83.0719 40.2946L82.7763 40.1427L82.4807 40.4464L82.1851 39.839V39.5353L82.9241 39.2316L83.0719 39.3835L83.6631 38.9279L83.8109 39.0798Z" fill="#A4B2FF" stroke="#A4B2FF" stroke-width="0.3" stroke-linecap="round" stroke-linejoin="round"/>
<path fill-rule="evenodd" clip-rule="evenodd" d="M86.3228 41.2056L86.0272 40.9019L86.3228 40.5982L86.6184 40.9019L86.4706 41.0538L86.3228 41.2056Z" stroke="#A4B2FF" stroke-width="0.3" stroke-linecap="round" stroke-linejoin="round"/>
<path fill-rule="evenodd" clip-rule="evenodd" d="M86.9147 35.4355L86.3235 34.5244L87.5059 34.3726L88.0971 34.9799L87.6537 35.5873H87.0625L86.9147 35.4355Z" fill="#A4B2FF" stroke="#A4B2FF" stroke-width="0.3" stroke-linecap="round" stroke-linejoin="round"/>
<path fill-rule="evenodd" clip-rule="evenodd" d="M81.8895 37.5612V37.8629V37.5612Z" fill="#A4B2FF" stroke="#A4B2FF" stroke-width="0.3" stroke-linecap="round" stroke-linejoin="round"/>
<path fill-rule="evenodd" clip-rule="evenodd" d="M86.3235 34.5244L86.4713 33.7652L86.7669 33.6133L87.0625 34.0689H87.3581V33.6133L87.6537 33.4615L88.3927 33.917L88.5405 34.5244L87.9493 34.8281L87.5059 34.3726H86.7669L86.3235 34.5244Z" fill="#A4B2FF" stroke="#A4B2FF" stroke-width="0.3" stroke-linecap="round" stroke-linejoin="round"/>
<path fill-rule="evenodd" clip-rule="evenodd" d="M88.097 38.4724L88.2448 38.3206L88.8361 38.6242L88.6883 38.7761L88.9839 39.2316H88.6883L88.5405 39.6872V39.0798L88.097 38.4724Z" fill="#A4B2FF" stroke="#A4B2FF" stroke-width="0.3" stroke-linecap="round" stroke-linejoin="round"/>
<path fill-rule="evenodd" clip-rule="evenodd" d="M86.1753 41.2056L86.7665 41.0538L86.9143 41.5093L86.3231 41.6612L86.1753 41.3575V41.2056Z" fill="#A4B2FF" stroke="#A4B2FF" stroke-width="0.3" stroke-linecap="round" stroke-linejoin="round"/>
<path fill-rule="evenodd" clip-rule="evenodd" d="M86.0279 40.9019H85.5845L85.8801 40.5982L86.0279 40.9019Z" fill="#A4B2FF" stroke="#A4B2FF" stroke-width="0.3" stroke-linecap="round" stroke-linejoin="round"/>
<path fill-rule="evenodd" clip-rule="evenodd" d="M88.5409 23.8953L89.4277 24.5026L88.9843 24.8063L89.4277 25.4137L88.8365 25.7174L88.3931 24.8063L87.9497 25.11L87.5063 26.1729L87.2107 25.8693L86.7673 26.0211L86.4717 25.5656L86.0283 25.7174V26.3248L85.4371 26.1729V26.6285H85.1415L84.1069 29.058L84.2547 29.3617L84.1069 29.6654H83.8113V32.2468L83.3678 33.006L83.22 32.5505L82.6288 33.3097L82.1854 33.4616L81.742 33.1579L81.5942 31.032L83.22 29.3617L84.5503 26.7803L85.8805 25.11L86.9151 24.8063L87.3585 24.0471H87.9497L88.5409 23.8953ZM87.5063 16.1511L86.7673 16.7585L86.3239 16.4548V15.5437L86.9151 15.24L87.0629 15.8474L87.5063 16.1511ZM85.5849 13.266L86.4717 14.4808L85.7327 15.0882L85.1415 17.5177L84.8459 17.6696L84.2547 16.7585L84.5503 16.3029L83.5156 14.6326L83.22 13.266L84.1069 12.6586L84.2547 13.266H84.5503L84.6981 12.6586H85.1415L85.5849 13.266ZM87.6541 11.8994L88.2453 12.6586L87.8019 13.5697L86.9151 13.7215L86.0283 13.4179V12.9623H85.5849L85.2893 12.2031L86.1761 11.5957L86.6195 12.0512L86.9151 11.4438L87.6541 11.8994Z" fill="#A4B2FF" stroke="#A4B2FF" stroke-width="0.3" stroke-linecap="round" stroke-linejoin="round"/>
<path fill-rule="evenodd" clip-rule="evenodd" d="M81.889 35.891H82.1846L81.889 37.2576L81.5934 36.954H81.15L81.5934 36.1947L81.889 35.891Z" fill="#A4B2FF" stroke="#A4B2FF" stroke-width="0.3" stroke-linecap="round" stroke-linejoin="round"/>
<path fill-rule="evenodd" clip-rule="evenodd" d="M84.5499 37.1058L84.2543 35.7392L85.2889 35.2836L87.0625 35.5873L87.2103 37.2576L86.7669 37.865L86.9147 38.1687L86.4713 37.865L86.0279 38.0169L85.2889 37.4095L85.1411 37.5613L84.6977 37.2576L84.5499 37.1058Z" fill="#A4B2FF" stroke="#A4B2FF" stroke-width="0.3" stroke-linecap="round" stroke-linejoin="round"/>
<path fill-rule="evenodd" clip-rule="evenodd" d="M86.9143 38.6242H88.2445L88.5401 39.0798L88.3923 39.5353L88.9835 39.839L88.5401 40.4464H87.0621L86.4709 39.9909L86.1753 39.3835L86.6187 39.0798V38.7761L86.9143 38.6242Z" fill="#A4B2FF" stroke="#A4B2FF" stroke-width="0.3" stroke-linecap="round" stroke-linejoin="round"/>
<path fill-rule="evenodd" clip-rule="evenodd" d="M122.83 37.2575L123.126 38.1686L122.682 38.0167L122.535 38.6241L122.83 39.3833L122.535 39.0796L122.387 39.5352L122.239 36.0427L122.535 35.4353L122.682 36.802L122.83 37.2575ZM86.9145 35.4353H86.0277V35.1316L86.4711 34.9798L86.9145 35.2835V35.4353ZM28.0897 27.843L28.2375 27.9949V27.3875L28.9765 27.5393L29.5677 28.2986L29.2721 28.6022H28.8287L28.6809 29.5133H28.3853L27.4985 28.6022L27.0551 28.7541V28.1467L26.6117 28.2986V29.0578V25.869L28.0897 27.2356V27.843ZM133.62 24.1987H133.324L133.62 23.5913V24.1987ZM27.0551 24.1987H26.6117V23.5913L27.3507 23.895L27.0551 24.1987ZM122.83 21.921L121.648 21.6173L122.387 21.1618L122.83 21.6173V21.921ZM124.899 19.7952L124.604 20.2507L124.16 20.0988L123.569 19.6433V19.1878L124.16 19.4915L124.899 19.7952ZM123.274 19.1878L122.978 20.0988L121.5 20.2507L120.909 19.4915L121.057 18.7322L121.352 18.4285L122.239 18.5804L123.274 19.1878ZM97.2606 24.3505L96.0782 24.1987L95.487 23.5913L95.7826 22.3765L96.3738 21.4655L96.0782 21.3136L96.6694 20.2507V19.7952L98.2952 18.2767L99.3298 18.1248L99.7732 17.5175L100.364 17.3656L100.66 17.973L98.443 19.4915L97.5562 20.7062L96.6694 22.6802V23.5913L97.2606 24.3505ZM111.893 17.3656L112.041 17.973L112.336 17.6693H113.075L113.814 18.2767L114.11 18.8841L113.962 19.4915L112.632 20.8581L113.519 21.1618L113.667 21.0099L113.814 21.7692L113.962 21.4655L114.406 21.3136L115.44 21.4655V21.921L116.77 22.0728V21.3136L117.805 21.4655L118.396 22.0728L118.544 22.6802L118.248 23.1358L119.135 24.1987L119.431 23.2876L119.874 23.7432L120.465 23.4395L121.057 23.7432L121.204 23.4395L121.648 23.5913L121.5 22.6802L121.943 22.2247L124.604 22.8321L124.752 23.4395L125.638 24.1987H127.412L127.708 24.5024L127.56 25.2616L128.003 25.4135L130.072 25.2616L130.516 26.0209L130.959 25.869L130.664 25.2616L130.811 24.8061L132.289 25.1098L133.176 25.5653L133.62 25.869V29.0578L133.176 29.3615L132.881 29.2096L133.472 30.7281L131.698 31.1836L130.811 32.0947V32.3984L130.368 31.9429L129.629 32.3984H128.742L128.299 33.3095V33.6132L128.594 33.765V34.5243H128.299L128.151 34.9798L128.299 35.2835L127.855 35.4353L127.708 36.0427L127.264 36.1946L126.673 37.1056L126.377 34.9798L126.673 33.765L127.264 33.4613L128.742 31.6392L129.038 30.7281H128.594L127.708 31.9429L127.412 31.1836L126.673 31.3355L125.934 32.3984L126.23 32.8539L125.047 33.0058V32.5503H124.604L124.308 32.8539H122.387L120.318 35.2835H120.761L120.909 35.739L121.648 35.5872L122.091 36.4983L121.796 38.3204L121.204 39.3833L119.874 40.9018H119.579L119.431 40.5981L118.987 40.9018L119.135 39.9907L119.726 39.8389L120.318 38.3204L118.987 38.6241V38.1686L118.101 37.713L117.362 36.0427L116.918 35.8909L116.031 36.0427V36.6501L115.145 37.8649L114.258 37.5612L113.223 38.0167H112.336L111.597 37.4093H110.563L110.415 37.1056L109.528 36.6501L109.232 37.1056L109.38 37.4093L109.085 37.713H108.346L107.607 37.2575L106.276 38.0167L105.981 37.713L105.537 37.8649L104.946 37.1056L104.503 37.2575L104.059 36.9538L103.912 37.2575L102.877 35.5872L103.025 35.4353L101.99 35.8909V35.5872H101.251V34.9798L98.443 35.5872V36.1946L97.9996 36.6501L98.443 37.1056L98.2952 37.2575L97.8518 37.4093L96.965 37.1056L96.6694 37.4093L96.3738 37.1056L95.1914 36.802L94.6002 37.4093V37.713L94.3046 37.4093L93.8612 38.4723L94.1568 38.776L94.4524 38.6241L94.6002 38.9278V39.5352L94.009 40.1426L94.6002 41.2055L94.3046 41.5092L93.5656 40.9018L91.9398 40.5981L91.053 39.8389L91.4964 39.3833L91.3486 39.2315L91.792 39.0796L91.4964 38.9278L91.6442 38.6241H91.9398L92.0876 38.0167L91.3486 37.713L91.2008 37.4093H90.6096L90.1662 36.4983L89.7228 36.6501L89.4272 36.3464V36.0427H89.7228L89.2794 35.2835V34.8279H88.8359L88.2447 33.765V33.0058L88.5403 32.7021L88.3925 32.5503L88.8359 32.2466L88.3925 31.9429L89.4272 30.7281V30.4244L88.9838 29.9689L89.1316 29.5133L88.8359 29.0578L89.1316 28.4504L88.6881 27.5393L88.9838 26.9319L88.5403 26.3245L88.6881 25.7172L89.7228 25.1098L90.1662 25.5653L90.9052 25.7172L92.3832 27.0838V27.6912L91.4964 28.2986L90.1662 27.6912L90.4618 28.2986V29.3615L91.053 29.817L91.2008 28.9059L91.9398 29.3615V28.6022L92.6788 27.843H92.9744L93.1222 28.1467L93.4178 27.6912L93.1222 27.2356L93.27 26.7801L92.9744 26.1727L93.8612 26.4764V27.6912L96.0782 26.0209H96.3738L96.0782 26.4764L96.3738 26.6282L97.5562 25.869L97.9996 26.4764L98.2952 25.869L97.9996 25.4135L98.1474 25.1098L99.4776 25.5653L100.512 26.6282L100.66 26.1727L100.069 25.4135L99.921 24.0469L100.512 23.1358L100.66 22.2247L100.956 22.0728L101.695 22.3765V25.869L101.99 26.3245L101.251 27.9949L101.695 28.1467L102.434 26.9319V25.869L101.99 25.2616L102.286 24.3505L101.842 23.5913L102.434 22.9839L102.286 22.2247L102.581 22.8321L102.434 23.7432L102.877 23.895L102.729 23.1358L103.173 22.8321H103.764L104.355 23.2876L104.059 22.5284V21.3136L105.981 21.0099L105.685 20.5544L105.981 19.6433H106.424L107.015 19.0359L108.641 18.4285L108.789 18.7322L109.528 18.1248H110.119L110.415 16.9101L111.154 16.3027L111.597 16.7582L111.302 17.2138L111.893 17.3656ZM111.302 15.3916L109.676 15.999L110.415 13.8731H110.711L111.45 14.7842L111.302 15.3916ZM95.3392 11.7473L94.6002 12.051L94.3046 12.6584L94.009 12.2028L94.1568 11.7473L93.4178 11.5954L94.4524 11.2918L94.6002 11.7473L95.0436 10.9881L95.487 11.4436L95.3392 11.7473ZM109.824 14.6324L109.232 14.7842L108.346 14.3287L107.902 13.7213L107.607 12.5065L107.163 12.051L108.641 10.3807L109.972 13.1139L109.824 14.6324Z" fill="#A4B2FF" stroke="#A4B2FF" stroke-width="0.3" stroke-linecap="round" stroke-linejoin="round"/>
<path fill-rule="evenodd" clip-rule="evenodd" d="M77.4551 41.2056H78.1941L77.8985 42.5722L78.0463 42.7241L77.7507 43.1796H77.4551L77.3073 42.5722L77.4551 41.3575V41.2056Z" fill="#A4B2FF" stroke="#A4B2FF" stroke-width="0.3" stroke-linecap="round" stroke-linejoin="round"/>
<path fill-rule="evenodd" clip-rule="evenodd" d="M86.3231 39.687L86.9143 40.2944L86.6187 41.0537L85.7319 40.1426L85.8797 39.3833L86.3231 39.5352V39.687Z" fill="#A4B2FF" stroke="#A4B2FF" stroke-width="0.3" stroke-linecap="round" stroke-linejoin="round"/>
<path fill-rule="evenodd" clip-rule="evenodd" d="M85.7317 37.865L86.7663 38.0169L86.6185 38.3206L85.4361 38.6243L85.1405 38.4724V38.1687H85.4361L85.5839 37.865H85.7317Z" fill="#A4B2FF" stroke="#A4B2FF" stroke-width="0.3" stroke-linecap="round" stroke-linejoin="round"/>
<path fill-rule="evenodd" clip-rule="evenodd" d="M84.2543 39.2316L84.9933 39.0798L84.5499 39.6872L84.2543 39.5353V39.2316Z" fill="#A4B2FF" stroke="#A4B2FF" stroke-width="0.3" stroke-linecap="round" stroke-linejoin="round"/>
<path fill-rule="evenodd" clip-rule="evenodd" d="M86.7664 28.4506L86.4708 29.3617L85.4362 30.5764L85.1406 31.4875L85.7318 32.2467L85.1406 33.006L84.845 34.5244L83.9582 34.98L83.3669 33.006L83.8103 32.2467L83.6625 30.2727L83.8103 29.6654H84.1059L84.2538 29.3617L84.1059 29.058L85.1406 26.6284H85.4362V26.1729L86.0274 26.3247V25.7173H86.323L87.062 26.7803L87.2098 28.2987L86.7664 28.4506Z" stroke="#A4B2FF" stroke-width="0.3" stroke-linecap="round" stroke-linejoin="round"/>
<path fill-rule="evenodd" clip-rule="evenodd" d="M89.5748 36.6501L90.166 36.4983L90.3138 37.1057L92.0874 37.8649L91.9396 38.4723L91.0528 39.2315L90.4616 39.3834V39.6871H91.0528L90.166 40.1426V39.8389H89.7226L90.166 39.5352L90.0182 39.3834L89.2792 39.2315L88.9836 39.8389L88.5402 39.6871L88.688 39.2315L88.9836 39.3834L88.688 38.4723L88.2446 38.3204L87.8012 38.6241H86.9144L86.6188 38.3204L87.21 37.4094V36.802L87.6534 36.6501L89.1314 36.9538L89.2792 36.6501H89.5748Z" fill="#A4B2FF" stroke="#A4B2FF" stroke-width="0.3" stroke-linecap="round" stroke-linejoin="round"/>
<path fill-rule="evenodd" clip-rule="evenodd" d="M123.273 68.9937H124.012L124.16 70.0566L124.012 69.9048L123.717 70.2085L123.125 68.9937H123.273ZM122.83 59.5792L123.421 60.3385L123.569 61.2495L124.308 61.7051L125.638 63.5272V65.5012L125.047 66.2605L124.603 67.7789H124.16L123.569 68.2345L123.125 68.0826L123.273 67.9308L122.83 68.2345L122.239 68.0826L121.943 67.9308L121.5 67.0197H121.204V66.5642L120.761 66.8679L121.056 65.9568L120.613 66.4123V66.716L119.726 65.6531L119.135 65.5012L117.066 65.9568L116.918 66.4123L116.179 66.2605L115.292 66.716L114.257 66.4123L114.553 66.1086V65.5012L113.814 63.6791V63.3754L114.11 63.6791L113.814 63.0717L114.11 62.1606V62.4643L114.553 61.8569L116.031 61.4014L116.474 60.9458L116.622 60.3385L116.77 60.6422L117.805 59.5792L118.691 59.8829L118.544 59.7311L118.987 59.1237H119.578L119.283 58.82L120.317 59.1237L120.761 58.9718L120.317 59.8829L121.795 60.794L122.239 60.0348L122.386 58.6682L122.83 59.4274V59.5792Z" fill="#A4B2FF" stroke="#A4B2FF" stroke-width="0.3" stroke-linecap="round" stroke-linejoin="round"/>
<path fill-rule="evenodd" clip-rule="evenodd" d="M131.551 68.9935H131.847L131.994 69.2972L131.403 70.0565L131.551 70.2083L131.108 70.3602L130.664 71.4231L129.63 71.2712L129.777 70.8157L130.96 69.7528L131.255 68.9935L131.551 68.8417V68.9935ZM131.994 67.1714L132.29 67.6269V67.3232L132.438 67.4751V67.7788H133.029L133.177 68.0825L133.029 68.3862H132.733L132.29 69.2972L131.994 69.1454L132.142 68.8417L131.847 68.538L132.142 67.9306L131.994 67.3232L131.403 66.564L131.994 66.8677V67.1714Z" fill="#A4B2FF" stroke="#A4B2FF" stroke-width="0.3" stroke-linecap="round" stroke-linejoin="round"/>
<path fill-rule="evenodd" clip-rule="evenodd" d="M129.334 61.8568L129.777 62.3123H129.481L128.89 61.7049L129.038 61.5531L129.334 61.8568Z" fill="#A4B2FF" stroke="#A4B2FF" stroke-width="0.3" stroke-linecap="round" stroke-linejoin="round"/>
<path fill-rule="evenodd" clip-rule="evenodd" d="M126.526 57.4531L126.082 57.1494V56.8458L126.526 57.3013V57.4531ZM125.343 56.9976L124.752 57.3013L124.161 57.1494L124.752 56.8458L124.9 56.9976L125.195 56.5421L125.343 56.8458V56.9976ZM123.865 57.605L124.9 58.5161H124.161L123.57 57.7568L123.126 57.605L122.535 58.2124L122.092 58.0605V56.0865L124.013 57.1494L123.865 57.4531V57.605ZM125.639 56.6939L125.491 56.8458V56.5421L124.9 56.2384L125.048 56.0865L125.639 56.5421V56.6939Z" fill="#A4B2FF" stroke="#A4B2FF" stroke-width="0.3" stroke-linecap="round" stroke-linejoin="round"/>
<path fill-rule="evenodd" clip-rule="evenodd" d="M128.299 58.5162L128.447 58.668H128.151L128.299 58.5162ZM128.003 58.3643L127.56 58.2125H127.855L128.003 58.3643ZM128.151 58.2125L128.003 58.0606L128.151 58.2125ZM127.708 57.9088L127.116 57.6051L127.56 57.7569L127.708 57.9088ZM126.969 57.6051L126.821 57.4532L126.969 57.6051Z" fill="#A4B2FF" stroke="#A4B2FF" stroke-width="0.3" stroke-linecap="round" stroke-linejoin="round"/>
<path fill-rule="evenodd" clip-rule="evenodd" d="M130.656 60.898L129.972 60.3904L130.656 60.898ZM129.972 59.8828V60.3904L129.63 59.8828H129.972Z" fill="#A4B2FF" stroke="#A4B2FF" stroke-width="0.3" stroke-linecap="round" stroke-linejoin="round"/>
<g filter="url(#filter0_d_255_106)">
<path d="M43.2337 21.0884L8.15756 21.0884C6.42791 21.0884 5.02576 22.9066 5.02576 25.1495L5.02576 55.187C5.02576 57.4299 6.42791 59.2482 8.15756 59.2482L43.2337 59.2482C44.9634 59.2482 46.3655 57.4299 46.3655 55.187L46.3655 25.1495C46.3655 22.9066 44.9634 21.0884 43.2337 21.0884Z" fill="white"/>
<path d="M43.2337 21.0884L8.15756 21.0884C6.42791 21.0884 5.02576 22.9066 5.02576 25.1495L5.02576 55.187C5.02576 57.4299 6.42791 59.2482 8.15756 59.2482L43.2337 59.2482C44.9634 59.2482 46.3655 57.4299 46.3655 55.187L46.3655 25.1495C46.3655 22.9066 44.9634 21.0884 43.2337 21.0884Z" stroke="black"/>
</g>
<path d="M29.3984 42.2493H28.6084L28.3284 41.9793C29.3084 40.8393 29.8984 39.3593 29.8984 37.7493C29.8984 34.1593 26.9884 31.2493 23.3984 31.2493C19.8084 31.2493 16.8984 34.1593 16.8984 37.7493C16.8984 41.3393 19.8084 44.2493 23.3984 44.2493C25.0084 44.2493 26.4884 43.6593 27.6284 42.6793L27.8984 42.9593V43.7493L32.8984 48.7393L34.3884 47.2493L29.3984 42.2493ZM23.3984 42.2493C20.9084 42.2493 18.8984 40.2393 18.8984 37.7493C18.8984 35.2593 20.9084 33.2493 23.3984 33.2493C25.8884 33.2493 27.8984 35.2593 27.8984 37.7493C27.8984 40.2393 25.8884 42.2493 23.3984 42.2493Z" fill="black"/>
<defs>
<filter id="filter0_d_255_106" x="0.525757" y="18.5884" width="50.3397" height="47.1598" filterUnits="userSpaceOnUse" color-interpolation-filters="sRGB">
<feFlood flood-opacity="0" result="BackgroundImageFix"/>
<feColorMatrix in="SourceAlpha" type="matrix" values="0 0 0 0 0 0 0 0 0 0 0 0 0 0 0 0 0 0 127 0" result="hardAlpha"/>
<feOffset dy="2"/>
<feGaussianBlur stdDeviation="2"/>
<feComposite in2="hardAlpha" operator="out"/>
<feColorMatrix type="matrix" values="0 0 0 0 0 0 0 0 0 0 0 0 0 0 0 0 0 0 0.25 0"/>
<feBlend mode="normal" in2="BackgroundImageFix" result="effect1_dropShadow_255_106"/>
<feBlend mode="normal" in="SourceGraphic" in2="effect1_dropShadow_255_106" result="shape"/>
</filter>
</defs>
</svg>
