<svg width="144" height="80" viewBox="0 0 144 80" fill="none" xmlns="http://www.w3.org/2000/svg">
<path fill-rule="evenodd" clip-rule="evenodd" d="M108.204 0.396088C109.348 0.396088 110.383 0.859218 111.133 1.608C111.883 2.35678 112.347 3.39121 112.347 4.53381V75.4663C112.347 76.6089 111.883 77.6433 111.133 78.3921C110.383 79.1409 109.348 79.604 108.204 79.604H11.1428C9.99883 79.604 8.96312 79.1409 8.21341 78.3921C7.4637 77.6433 7 76.6089 7 75.4663V4.53381C7 3.39121 7.4637 2.35678 8.21341 1.608C8.96312 0.859218 9.99883 0.396088 11.1428 0.396088H108.204Z" fill="white"/>
<path fill-rule="evenodd" clip-rule="evenodd" d="M10.9249 0.792079C9.88995 0.792079 8.95374 1.21057 8.27531 1.88817C7.59688 2.56575 7.17807 3.50058 7.17807 4.53377V75.4662C7.17807 76.4994 7.59688 77.4342 8.27531 78.1118C8.95374 78.7894 9.88995 79.2079 10.9249 79.2079H107.986C109.021 79.2079 109.957 78.7894 110.635 78.1118C111.314 77.4342 111.733 76.4994 111.733 75.4662V4.53377C111.733 3.50058 111.314 2.56575 110.635 1.88817C109.957 1.21057 109.021 0.792079 107.986 0.792079H10.9249ZM7.71557 1.32774C8.53655 0.507768 9.67176 0 10.9249 0H107.986C109.239 0 110.374 0.507768 111.195 1.32774C112.016 2.14771 112.525 3.28175 112.525 4.53377V75.4662C112.525 76.7182 112.016 77.8523 111.195 78.6723C110.374 79.4922 109.239 80 107.986 80H10.9249C9.67176 80 8.53655 79.4922 7.71557 78.6723C6.89458 77.8523 6.38599 76.7182 6.38599 75.4662V4.53377C6.38599 3.28175 6.89458 2.14771 7.71557 1.32774Z" fill="#1F2A3B"/>
<path fill-rule="evenodd" clip-rule="evenodd" d="M0.444824 73.2673H116.88C116.311 77.4245 113.482 79.5292 108.394 79.5814C100.761 79.6596 16.9083 79.5032 9.05092 79.5814C3.81266 79.6335 0.943958 77.5288 0.444824 73.2673Z" fill="white"/>
<path fill-rule="evenodd" clip-rule="evenodd" d="M0 72.8712H117.335L117.273 73.321C116.977 75.4834 116.084 77.1537 114.569 78.2814C113.063 79.4016 110.99 79.9508 108.398 79.9773C104.581 80.0164 81.7366 79.9969 58.8562 79.9774L58.8064 79.9774C35.9048 79.9578 12.981 79.9383 9.05517 79.9773C6.38914 80.0039 4.26588 79.4831 2.73673 78.3612C1.19575 77.2306 0.311294 75.529 0.0517827 73.3133L0 72.8712ZM0.900402 73.6633C1.19852 75.4821 1.97518 76.8201 3.20528 77.7226C4.54483 78.7054 6.47505 79.2109 9.04729 79.1853C12.9788 79.1462 35.9099 79.1657 58.807 79.1853L58.8336 79.1853C81.7264 79.2049 104.578 79.2244 108.39 79.1853C110.886 79.1597 112.772 78.6305 114.096 77.646C115.308 76.744 116.089 75.4296 116.416 73.6633H0.900402Z" fill="#1F2A3B"/>
<path fill-rule="evenodd" clip-rule="evenodd" d="M106.584 13.0693H13.1183V12.2772H106.584V13.0693Z" fill="black"/>
<path fill-rule="evenodd" clip-rule="evenodd" d="M54.3063 73.2673H63.7162C63.2584 74.1174 62.6668 74.5424 61.9415 74.5424C60.8535 74.5424 57.3463 74.5424 56.1883 74.5424C55.4162 74.5424 54.7889 74.1174 54.3063 73.2673Z" fill="#1F2A3B"/>
<path d="M29 38.5V29.5H29.5V25.5H32.8125V25H40.4375V25.5H48.0625V25H55.6875V25.5H63.3125V25H70.9375V25.5H78.5625V25H86.1875V25.5H89.5V29.5H90V38.5H89.5V47.5H90V56.5H89.5V60.5H86.1875V61H78.5625V60.5H70.9375V61H63.3125V60.5H55.6875V61H48.0625V60.5H40.4375V61H32.8125V60.5H29.5V56.5H29V47.5H29.5V38.5H29Z" fill="#DEE5FF" stroke="#6C8CFF" stroke-dasharray="8 8"/>
<g filter="url(#filter0_d_206_43)">
<path d="M135.97 9.10898H101.023C99.2996 9.10898 97.9026 10.9205 97.9026 13.1552V43.0825C97.9026 45.3172 99.2996 47.1288 101.023 47.1288H135.97C137.694 47.1288 139.091 45.3172 139.091 43.0825V13.1552C139.091 10.9205 137.694 9.10898 135.97 9.10898Z" fill="white"/>
</g>
<g filter="url(#filter1_d_206_43)">
<path fill-rule="evenodd" clip-rule="evenodd" d="M101.023 9.50497C99.6075 9.50497 98.2983 11.0374 98.2983 13.1552V43.0825C98.2983 45.2003 99.6075 46.7327 101.023 46.7327H135.97C137.385 46.7327 138.694 45.2003 138.694 43.0825V13.1552C138.694 11.0374 137.385 9.50497 135.97 9.50497H101.023ZM97.5062 13.1552C97.5062 10.8036 98.991 8.71289 101.023 8.71289H135.97C138.002 8.71289 139.486 10.8036 139.486 13.1552V43.0825C139.486 45.4341 138.002 47.5248 135.97 47.5248H101.023C98.991 47.5248 97.5062 45.4341 97.5062 43.0825V13.1552Z" fill="black"/>
</g>
<path d="M118.893 17.0297L106.616 19.4939V36.7437L118.893 39.2079V17.0297ZM121.349 19.4939V21.9582H123.804V24.4224H121.349V26.8867H123.804V29.3509H121.349V31.8152H123.804V34.2794H121.349V36.7437H129.943C130.621 36.7437 131.171 36.1917 131.171 35.5115V20.7261C131.171 20.0459 130.621 19.4939 129.943 19.4939H121.349ZM126.26 21.9582H128.715V24.4224H126.26V21.9582ZM109.287 23.5561H111.469L112.604 26.2851C112.696 26.5081 112.765 26.7667 112.836 27.0599H112.867C112.908 26.8838 112.99 26.6146 113.114 26.2634L114.378 23.5561H116.368L113.992 28.0779L116.438 32.6815H114.316L112.949 29.7071C112.897 29.6024 112.836 29.3915 112.786 29.0982H112.767C112.736 29.2387 112.674 29.449 112.582 29.7311L111.203 32.6815H109.072L111.601 28.114L109.287 23.5561ZM126.26 26.8867H128.715V29.3509H126.26V26.8867ZM126.26 31.8152H128.715V34.2794H126.26V31.8152Z" fill="black"/>
<path d="M15.4945 6.33656C15.4945 6.99274 14.9626 7.52468 14.3064 7.52468C13.6502 7.52468 13.1183 6.99274 13.1183 6.33656C13.1183 5.68038 13.6502 5.14844 14.3064 5.14844C14.9626 5.14844 15.4945 5.68038 15.4945 6.33656Z" fill="#1F2A3B"/>
<path d="M21.0398 6.33656C21.0398 6.99274 20.5079 7.52468 19.8517 7.52468C19.1955 7.52468 18.6636 6.99274 18.6636 6.33656C18.6636 5.68038 19.1955 5.14844 19.8517 5.14844C20.5079 5.14844 21.0398 5.68038 21.0398 6.33656Z" fill="#1F2A3B"/>
<path d="M26.584 6.33656C26.584 6.99274 26.0521 7.52468 25.3959 7.52468C24.7397 7.52468 24.2078 6.99274 24.2078 6.33656C24.2078 5.68038 24.7397 5.14844 25.3959 5.14844C26.0521 5.14844 26.584 5.68038 26.584 6.33656Z" fill="#1F2A3B"/>
<g filter="url(#filter2_d_206_43)">
<path d="M122.277 44.5326C122.257 43.7776 123.05 43.2746 123.725 43.6133L133.198 48.3667C133.892 48.7153 133.941 49.6883 133.285 50.1048L124.083 55.9464C123.427 56.3629 122.567 55.9045 122.547 55.1276L122.277 44.5326Z" fill="black"/>
</g>
<defs>
<filter id="filter0_d_206_43" x="93.9026" y="7.10898" width="49.1881" height="46.0198" filterUnits="userSpaceOnUse" color-interpolation-filters="sRGB">
<feFlood flood-opacity="0" result="BackgroundImageFix"/>
<feColorMatrix in="SourceAlpha" type="matrix" values="0 0 0 0 0 0 0 0 0 0 0 0 0 0 0 0 0 0 127 0" result="hardAlpha"/>
<feOffset dy="2"/>
<feGaussianBlur stdDeviation="2"/>
<feComposite in2="hardAlpha" operator="out"/>
<feColorMatrix type="matrix" values="0 0 0 0 0 0 0 0 0 0 0 0 0 0 0 0 0 0 0.25 0"/>
<feBlend mode="normal" in2="BackgroundImageFix" result="effect1_dropShadow_206_43"/>
<feBlend mode="normal" in="SourceGraphic" in2="effect1_dropShadow_206_43" result="shape"/>
</filter>
<filter id="filter1_d_206_43" x="93.5062" y="8.71289" width="49.9802" height="46.8119" filterUnits="userSpaceOnUse" color-interpolation-filters="sRGB">
<feFlood flood-opacity="0" result="BackgroundImageFix"/>
<feColorMatrix in="SourceAlpha" type="matrix" values="0 0 0 0 0 0 0 0 0 0 0 0 0 0 0 0 0 0 127 0" result="hardAlpha"/>
<feOffset dy="4"/>
<feGaussianBlur stdDeviation="2"/>
<feComposite in2="hardAlpha" operator="out"/>
<feColorMatrix type="matrix" values="0 0 0 0 0 0 0 0 0 0 0 0 0 0 0 0 0 0 0.06 0"/>
<feBlend mode="normal" in2="BackgroundImageFix" result="effect1_dropShadow_206_43"/>
<feBlend mode="normal" in="SourceGraphic" in2="effect1_dropShadow_206_43" result="shape"/>
</filter>
<filter id="filter2_d_206_43" x="118.276" y="43.5057" width="19.4728" height="20.5979" filterUnits="userSpaceOnUse" color-interpolation-filters="sRGB">
<feFlood flood-opacity="0" result="BackgroundImageFix"/>
<feColorMatrix in="SourceAlpha" type="matrix" values="0 0 0 0 0 0 0 0 0 0 0 0 0 0 0 0 0 0 127 0" result="hardAlpha"/>
<feOffset dy="4"/>
<feGaussianBlur stdDeviation="2"/>
<feComposite in2="hardAlpha" operator="out"/>
<feColorMatrix type="matrix" values="0 0 0 0 0 0 0 0 0 0 0 0 0 0 0 0 0 0 0.25 0"/>
<feBlend mode="normal" in2="BackgroundImageFix" result="effect1_dropShadow_206_43"/>
<feBlend mode="normal" in="SourceGraphic" in2="effect1_dropShadow_206_43" result="shape"/>
</filter>
</defs>
</svg>
