<?xml version="1.0" encoding="UTF-8"?>
<svg width="300px" height="200px" viewBox="0 0 300 200" version="1.1" xmlns="http://www.w3.org/2000/svg" xmlns:xlink="http://www.w3.org/1999/xlink">
    <title>Illustrations/Light/movie-genres</title>
    <defs>
        <rect id="path-1" x="0" y="0" width="86.7474759" height="67.2292938" rx="4"></rect>
        <filter x="-20.2%" y="-26.0%" width="142.7%" height="155.0%" filterUnits="objectBoundingBox" id="filter-2">
            <feMorphology radius="1.5" operator="dilate" in="SourceAlpha" result="shadowSpreadOuter1"></feMorphology>
            <feOffset dx="1" dy="1" in="shadowSpreadOuter1" result="shadowOffsetOuter1"></feOffset>
            <feGaussianBlur stdDeviation="4.5" in="shadowOffsetOuter1" result="shadowBlurOuter1"></feGaussianBlur>
            <feComposite in="shadowBlurOuter1" in2="SourceAlpha" operator="out" result="shadowBlurOuter1"></feComposite>
            <feColorMatrix values="0 0 0 0 0   0 0 0 0 0   0 0 0 0 0  0 0 0 0.0664489319 0" type="matrix" in="shadowBlurOuter1"></feColorMatrix>
        </filter>
        <rect id="path-3" x="-1.42108547e-14" y="0" width="86.7474759" height="67.2292938" rx="4"></rect>
        <filter x="-20.2%" y="-26.0%" width="142.7%" height="155.0%" filterUnits="objectBoundingBox" id="filter-4">
            <feMorphology radius="1.5" operator="dilate" in="SourceAlpha" result="shadowSpreadOuter1"></feMorphology>
            <feOffset dx="1" dy="1" in="shadowSpreadOuter1" result="shadowOffsetOuter1"></feOffset>
            <feGaussianBlur stdDeviation="4.5" in="shadowOffsetOuter1" result="shadowBlurOuter1"></feGaussianBlur>
            <feColorMatrix values="0 0 0 0 0   0 0 0 0 0   0 0 0 0 0  0 0 0 0.0664489319 0" type="matrix" in="shadowBlurOuter1"></feColorMatrix>
        </filter>
        <rect id="path-5" x="0" y="0" width="86.7474759" height="67.2292938" rx="4"></rect>
        <filter x="-20.2%" y="-26.0%" width="142.7%" height="155.0%" filterUnits="objectBoundingBox" id="filter-6">
            <feMorphology radius="1.5" operator="dilate" in="SourceAlpha" result="shadowSpreadOuter1"></feMorphology>
            <feOffset dx="1" dy="1" in="shadowSpreadOuter1" result="shadowOffsetOuter1"></feOffset>
            <feGaussianBlur stdDeviation="4.5" in="shadowOffsetOuter1" result="shadowBlurOuter1"></feGaussianBlur>
            <feColorMatrix values="0 0 0 0 0   0 0 0 0 0   0 0 0 0 0  0 0 0 0.0664489319 0" type="matrix" in="shadowBlurOuter1"></feColorMatrix>
        </filter>
        <rect id="path-7" x="0" y="0" width="86.7474759" height="67.2292938" rx="4"></rect>
        <filter x="-20.2%" y="-26.0%" width="142.7%" height="155.0%" filterUnits="objectBoundingBox" id="filter-8">
            <feMorphology radius="1.5" operator="dilate" in="SourceAlpha" result="shadowSpreadOuter1"></feMorphology>
            <feOffset dx="1" dy="1" in="shadowSpreadOuter1" result="shadowOffsetOuter1"></feOffset>
            <feGaussianBlur stdDeviation="4.5" in="shadowOffsetOuter1" result="shadowBlurOuter1"></feGaussianBlur>
            <feColorMatrix values="0 0 0 0 0   0 0 0 0 0   0 0 0 0 0  0 0 0 0.0664489319 0" type="matrix" in="shadowBlurOuter1"></feColorMatrix>
        </filter>
        <rect id="path-9" x="0" y="0" width="87.7419355" height="68" rx="4"></rect>
        <filter x="-19.9%" y="-25.7%" width="142.2%" height="154.4%" filterUnits="objectBoundingBox" id="filter-10">
            <feMorphology radius="1.5" operator="dilate" in="SourceAlpha" result="shadowSpreadOuter1"></feMorphology>
            <feOffset dx="1" dy="1" in="shadowSpreadOuter1" result="shadowOffsetOuter1"></feOffset>
            <feGaussianBlur stdDeviation="4.5" in="shadowOffsetOuter1" result="shadowBlurOuter1"></feGaussianBlur>
            <feColorMatrix values="0 0 0 0 0   0 0 0 0 0   0 0 0 0 0  0 0 0 0.0664489319 0" type="matrix" in="shadowBlurOuter1"></feColorMatrix>
        </filter>
        <rect id="path-11" x="0" y="0" width="86.7474759" height="67.2292938" rx="4"></rect>
        <filter x="-20.2%" y="-26.0%" width="142.7%" height="155.0%" filterUnits="objectBoundingBox" id="filter-12">
            <feMorphology radius="1.5" operator="dilate" in="SourceAlpha" result="shadowSpreadOuter1"></feMorphology>
            <feOffset dx="1" dy="1" in="shadowSpreadOuter1" result="shadowOffsetOuter1"></feOffset>
            <feGaussianBlur stdDeviation="4.5" in="shadowOffsetOuter1" result="shadowBlurOuter1"></feGaussianBlur>
            <feColorMatrix values="0 0 0 0 0   0 0 0 0 0   0 0 0 0 0  0 0 0 0.0664489319 0" type="matrix" in="shadowBlurOuter1"></feColorMatrix>
        </filter>
    </defs>
    <g id="Illustrations/Light/movie-genres" stroke="none" stroke-width="1" fill="none" fill-rule="evenodd">
        <g id="Group-20">
            <rect id="Rectangle" fill="#E0E5FF" x="30.1126734" y="0" width="237.081081" height="200"></rect>
            <g id="Group-4" transform="translate(0.000000, 27.931997)">
                <g id="Rectangle">
                    <use fill="black" fill-opacity="1" filter="url(#filter-2)" xlink:href="#path-1"></use>
                    <rect stroke="#3C64F7" stroke-width="1" stroke-linejoin="square" fill="#FFFFFF" fill-rule="evenodd" x="0.5" y="0.5" width="85.7474759" height="66.2292938" rx="4"></rect>
                </g>
                <g id="Illustrations/genre/Family" transform="translate(21.089954, 11.330863)" stroke="#1F2A3B">
                    <polyline id="Path-62" transform="translate(13.196675, 14.572185) rotate(-8.000000) translate(-13.196675, -14.572185) " points="9.5527538 23.352911 4.02855936 20.6024137 10.9594804 19.9941963 5.7708598 6.98058457 14.6975021 17.2281365 22.364791 5.79145815 20.6421787 17.2281365"></polyline>
                    <line x1="7.16848756" y1="18.2907655" x2="4.34346507" y2="16.4195941" id="Path-63" transform="translate(5.755976, 17.355180) rotate(-8.000000) translate(-5.755976, -17.355180) "></line>
                    <path d="M13.8328896,13.3921649 L13.2182063,7.71388132 M13.0661299,6.30903932 L12.8931771,4.71134661" id="Shape" transform="translate(13.332890, 9.051756) rotate(-8.000000) translate(-13.332890, -9.051756) "></path>
                    <path d="M24.8415621,11.3178726 L28.9061678,7.26075004 M29.9765966,6.19229197 L31.3862861,4.7851978" id="Shape" transform="translate(28.113924, 8.051535) rotate(-8.000000) translate(-28.113924, -8.051535) "></path>
                    <circle id="Oval" cx="33.8189189" cy="17.5648649" r="3.14594595"></circle>
                    <path d="M24.5479653,18.5435329 L30.5961199,20.2778134 C30.7637862,20.3258909 30.9172533,20.3994308 31.0535258,20.4930294 C31.1307856,20.5223216 31.2087835,20.5547134 31.2861324,20.5900338 C32.5861211,21.1836574 33.1587432,22.7187334 32.5651197,24.0187221 C32.4821541,24.20041 32.3784317,24.3718812 32.256024,24.5297107 L28.8727474,28.8912131 L31.6590574,30.770333 C31.8964927,30.9304852 32.0878302,31.1334045 32.2297297,31.3619078 C32.3248273,31.4820907 32.4077247,31.6147869 32.4752368,31.759567 L36.1314558,39.6003541 C36.5903818,40.5845239 36.1645875,41.7543841 35.1804177,42.2133101 C34.1962478,42.672236 33.0263876,42.2464417 32.5674617,41.2622719 L29.0727474,33.7692131 L24.8958812,30.9518836 C24.843741,30.9167147 24.7938239,30.8794834 24.7461651,30.8403717 C24.6294006,30.7943645 24.5133442,30.7393093 24.3999821,30.6757826 C23.2391652,30.0252756 22.8254773,28.5569074 23.4759842,27.3960905 C23.4855011,27.3791079 23.4952234,27.3622412 23.5051491,27.3454942 L26.4567474,22.3632131 L24.1117474,21.6902131 L20.9880127,24.6041394 C20.4056102,25.1472385 19.4932109,25.1153768 18.9501118,24.5329743 C18.4070127,23.9505719 18.4388744,23.0381726 19.0212768,22.4950735 L22.8559422,18.9191902 C23.0946534,18.6965884 23.3888027,18.5705778 23.6902386,18.5394768 C23.9617032,18.4643562 24.2570193,18.4601055 24.5479653,18.5435329 Z" id="Combined-Shape"></path>
                    <path d="M25.1640697,32.3636861 C24.6615847,33.0305062 23.9078573,34.0307363 22.9028874,35.3643764 C22.4605392,35.9513922 21.7527784,36.2204543 21.0726255,36.1303812 C20.7133648,36.1260126 20.3508443,36.0232158 20.0271161,35.8129843 L14.0906885,31.9578231 C13.1799667,31.3663935 12.9211292,30.1486591 13.5125589,29.2379373 C14.1039885,28.3272156 15.3217229,28.0683781 16.2324447,28.6598078 L20.7973757,31.6242727 C21.5191248,30.6664554 22.0604366,29.9480924 22.4213111,29.4691837" id="Path"></path>
                    <path d="M34.0142242,21.7117978 C34.5468063,22.17478 35.3456793,22.8692532 36.4108435,23.7952175 L39.1099963,21.2786496 C39.6923987,20.7355505 40.604798,20.7674122 41.1478971,21.3498147 C41.6909962,21.9322172 41.6591345,22.8446165 41.0767321,23.3877156 L37.2420667,26.9635989 C36.6763754,27.4911145 35.7993532,27.4761914 35.2518118,26.941207 C35.200495,26.9063691 35.1506368,26.8680386 35.1025929,26.8262747 C34.0184012,25.8838012 33.2052574,25.1769461 32.6631616,24.7057094" id="Path" transform="translate(37.099212, 24.121124) rotate(-9.000000) translate(-37.099212, -24.121124) "></path>
                </g>
            </g>
            <g id="Group-6" transform="translate(105.408893, 27.931997)">
                <g id="Rectangle">
                    <use fill="black" fill-opacity="1" filter="url(#filter-4)" xlink:href="#path-3"></use>
                    <use fill="#FFFFFF" fill-rule="evenodd" xlink:href="#path-3"></use>
                </g>
                <g id="Illustrations/genre/Family" transform="translate(27.203555, 19.319268)" stroke="#1F2A3B" stroke-width="1.1">
                    <path d="M1.43516317,8.99833067 C0.661091504,-4.7395676 15.5934517,0.02960345 17.2954252,5.1661777 L17.341955,5.31070253 L17.3538525,5.27282941 L17.3884458,5.1661777 C19.1399654,-0.119927277 34.9033829,-5.01692676 33.1404607,10.2456008 C32.6034197,14.8950422 27.3527481,20.6976275 17.3884458,27.6533566 L17.2954252,27.6533566 C16.9800648,27.4332146 16.6694259,27.2142277 16.3635084,26.9963958" id="Path"></path>
                    <path d="M11.0466194,13.1546442 C12.2572285,9.5260467 23.1525318,6.16454705 21.9340415,16.6413668 C21.713299,18.539354 20.3403683,20.7172814 17.8152493,23.1751492 C16.0942472,24.8503161 13.8380373,26.6555191 11.0466194,28.5907585 L10.9823257,28.5907585 C4.09523442,23.8160631 0.466093723,19.8329325 0.0949036053,16.6413668 C-0.090586335,15.0464878 0.00464590114,13.7722947 0.303701225,12.7709119 C1.96915146,7.19417425 9.95600675,10.0784256 10.9823257,13.1546442 L11.014486,13.2538519 L11.0227093,13.2278543 L11.0466194,13.1546442 Z" id="Path"></path>
                </g>
            </g>
            <g id="Group-13" transform="translate(210.817786, 27.931997)">
                <g id="Rectangle">
                    <use fill="black" fill-opacity="1" filter="url(#filter-6)" xlink:href="#path-5"></use>
                    <use fill="#FFFFFF" fill-rule="evenodd" xlink:href="#path-5"></use>
                </g>
                <g id="Group" transform="translate(23.453947, 13.694856)" stroke="#1F2A3B" stroke-width="1.001001">
                    <g id="Group" transform="translate(8.202267, 2.577855)">
                        <path d="M11.717524,3.54705673 C14.8150195,3.54705673 17.6192753,4.80256485 19.6491573,6.83244685 C21.6790393,8.86232884 22.9345475,11.6665847 22.9345475,14.7640802 L22.9345475,14.7640802 L22.9345475,22.966347 C22.9345475,26.0638425 21.6790393,28.8680984 19.6491573,30.8979804 C17.6192753,32.9278623 14.8150195,34.1833705 11.717524,34.1833705 C8.62002847,34.1833705 5.8157726,32.9278623 3.78589061,30.8979804 C1.75600862,28.8680984 0.500500501,26.0638425 0.500500501,22.966347 L0.500500501,22.966347 L0.500500501,14.7640802 C0.500500501,11.6665847 1.75600862,8.86232884 3.78589061,6.83244685 C5.8157726,4.80256485 8.62002847,3.54705673 11.717524,3.54705673 Z" id="Rectangle"></path>
                        <path d="M11.8346992,0.500500501 C12.505416,0.500500501 13.1126362,0.77236221 13.5521771,1.21190313 C13.991718,1.65144404 14.2635797,2.25866417 14.2635797,2.92938099 C14.9427493,3.90523003 15.3567445,4.1308473 15.7310661,4.28488772 L15.8792133,4.34429512 C16.0480741,4.41180172 16.2156535,4.48359286 16.3818018,4.55961975 C16.4220769,4.39146368 16.4731254,4.22161939 16.5353213,4.05073856 C16.8882893,3.08097357 17.4948263,2.36755952 18.2259737,1.95777312 C18.8205742,1.62451721 19.4952058,1.49466167 20.1690376,1.58802664 L20.1690376,1.58802664 L18.7557383,6.02942596 C21.304255,8.08566126 22.9345475,11.2344635 22.9345475,14.7640802 L22.9345475,14.7640802 L22.9345475,22.966347 C22.9345475,26.0638425 21.6790393,28.8680984 19.6491573,30.8979804 C17.6192753,32.9278623 14.8150195,34.1833705 11.717524,34.1833705 C8.62002847,34.1833705 5.8157726,32.9278623 3.78589061,30.8979804 C1.75600862,28.8680984 0.500500501,26.0638425 0.500500501,22.966347 L0.500500501,22.966347 L0.500500501,14.7640802 C0.500500501,11.2615643 2.10585107,8.13403332 4.62077099,6.07698174 L4.62077099,6.07698174 L2.99806575,1.61758639 C3.68973562,1.48048739 4.38841902,1.57647384 4.99907817,1.86122888 C5.75269035,2.21264401 6.37224218,2.8515525 6.67910818,3.69465991 C7.71775392,4.18435397 8.2985782,4.05465479 8.88181236,3.90793356 C9.40048958,2.56061111 9.65582369,1.81257252 10.1050531,1.28836584 C10.5382928,0.782817488 11.1537829,0.500500501 11.8346992,0.500500501 Z" id="Combined-Shape"></path>
                        <rect id="Rectangle" x="2.8440053" y="22.2950951" width="17.9813878" height="8.1386677"></rect>
                        <rect id="Rectangle" transform="translate(11.834699, 11.131648) scale(1, -1) translate(-11.834699, -11.131648) " x="6.35926249" y="9.40581872" width="10.9508735" height="3.45165811"></rect>
                        <line x1="21.0005322" y1="1.28244135" x2="21.9847501" y2="8.78814298" id="Path-58"></line>
                        <line x1="2.3435048" y1="1.28244135" x2="1.61610522" y2="8.78814298" id="Path-59"></line>
                        <line x1="2.3435048" y1="25.1494175" x2="21.3258936" y2="25.1494175" id="Path-60"></line>
                        <line x1="19.4282269" y1="25.1494175" x2="19.4282269" y2="26.3644289" id="Path-61"></line>
                    </g>
                </g>
            </g>
            <g id="Group-17" transform="translate(0.000000, 102.216216)">
                <g id="Rectangle">
                    <use fill="black" fill-opacity="1" filter="url(#filter-8)" xlink:href="#path-7"></use>
                    <use fill="#FFFFFF" fill-rule="evenodd" xlink:href="#path-7"></use>
                </g>
                <g id="Group" transform="translate(23.453947, 13.694856)" stroke="#1F2A3B" stroke-width="1.05">
                    <g id="Illustrations/genre/Family">
                        <path d="M20.0640369,1.91985621 L20.1451534,1.92073342 C24.602817,1.97857822 28.4722401,4.89224249 29.4156143,9.17704441 C30.3408034,13.3792503 31.2491978,13.554792 31.9522101,14.8832639 L32.0408261,15.048966 C32.0554047,15.0759527 32.0698866,15.1026332 32.0842701,15.1290211 L32.1693756,15.2839444 L32.2924139,15.5045773 L32.4844317,15.8463607 L32.5564184,15.9758859 L32.6255198,16.1022759 C33.0312977,16.8525055 33.2765603,17.4684232 33.2765603,18.5799712 C33.2765603,19.4446416 32.8053646,20.0497393 32.0893848,20.790926 L31.9523254,20.9315899 L31.7367045,21.1498341 L31.5100407,21.378515 L31.3533493,21.5377331 C29.818417,23.1053303 27.7117678,23.3674538 26.3815352,28.9974879 L26.2463807,29.5710351 L25.9913325,30.660005 L25.6423858,32.1539135 L25.4808375,32.8408824 L25.3772341,33.2775257 L25.2765552,33.6975486 L25.178499,34.1013354 C23.9033667,39.3126616 16.1705653,39.3126616 14.895433,34.1013354 L14.7973717,33.6975486 L14.6966979,33.2775257 L14.5930945,32.8408824 L14.4315462,32.1539135 L13.9575183,30.1250794 L13.7606413,29.2867234 C13.7381177,29.1911349 13.7153716,29.0947257 13.6923968,28.9974879 C12.3850993,23.4645233 10.3279273,23.1897623 8.80047867,21.6195887 L8.64170639,21.4573993 L8.19218416,21.0032991 C8.1684377,20.979231 8.14490955,20.9553319 8.12160664,20.9315899 L7.98454715,20.790926 C7.26856743,20.0497393 6.79737172,19.4446416 6.79737172,18.5799712 C6.79737172,17.4684232 7.04263433,16.8525055 7.44841222,16.1022759 L7.51751359,15.9758859 L7.58950028,15.8463607 L7.82190036,15.432492 L7.90455642,15.2839444 L7.98966187,15.1290211 C8.00404538,15.1026332 8.01852731,15.0759527 8.03310586,15.048966 L8.12172188,14.8832639 C8.82473422,13.554792 9.73312855,13.3792503 10.6583177,9.17704441 C11.6016919,4.89224249 15.471115,1.97857822 19.9287786,1.92073342 L20.0098241,1.91985621 L20.0368951,1.91985621 L20.0640369,1.91985621 Z" id="Path"></path>
                        <path d="M19.9550901,21.9828983 C20.4756015,21.9828983 20.9020617,22.097772 21.2422823,22.3245888 C21.6053199,22.566617 21.8650063,22.9311936 22.0524257,23.3811135 C22.5548915,24.5873354 22.5518578,26.3602075 22.324924,28.3392353 C22.0936515,30.3560995 21.7522796,32.1600365 21.2383042,33.3938882 C21.0365803,33.8781474 20.8128581,34.2693895 20.548787,34.5299616 C20.3722623,34.7041473 20.1791554,34.8151913 19.9550901,34.8151913 C19.7483072,34.8151913 19.5734443,34.7240927 19.4166793,34.5733757 C19.1786638,34.3445429 18.9825745,33.9974546 18.8018645,33.5636413 C18.2930121,32.3420878 17.9479385,30.4814449 17.5813379,28.3115848 C17.2474784,26.3355143 17.2414654,24.6213821 17.7320041,23.4437927 C17.9278895,22.9735492 18.2050989,22.5959228 18.5866458,22.3445358 C18.9512503,22.1043116 19.4063611,21.9828983 19.9550901,21.9828983 Z" id="Oval"></path>
                        <path d="" id="Oval" transform="translate(19.137188, 18.887103) scale(1, -1) translate(-19.137188, -18.887103) "></path>
                        <path d="" id="Oval" transform="translate(20.936744, 18.887103) scale(1, -1) translate(-20.936744, -18.887103) "></path>
                        <path d="M15.964402,7.7870117 C16.8345707,7.8242368 17.1680884,8.40004724 17.3968305,9.17708643 C17.7087045,10.2365249 17.8294958,11.6569141 17.7037053,13.2776114 C17.5806426,14.8631628 17.0515155,16.1969002 16.2622878,17.0567623 C15.8936824,17.4583571 15.469265,17.753335 15.0049143,17.9087645 C14.5737805,18.0530754 14.1095868,18.0747365 13.6304569,17.955276 C13.3796834,17.8927512 13.1928063,17.8092908 13.0748858,17.6806355 C12.9255929,16.564691 13.3996361,15.6121205 13.9090307,14.5157717 C14.2305536,13.8237716 14.5753165,13.0805912 14.8635084,12.3107038 C15.3371474,11.0454055 15.5457911,9.89787084 15.7084335,8.99535099 C15.7978037,8.49942647 15.8606972,8.08442193 15.964402,7.7870117 Z" id="Oval"></path>
                        <path d="M23.3768137,7.57915292 C23.9467509,8.02201669 24.01155,8.45781467 24.108419,8.99535099 C24.2710614,9.89787084 24.4797051,11.0454055 24.9533441,12.3107038 C25.241536,13.0805912 25.5862989,13.8237716 25.9078218,14.5157717 C26.4172164,15.6121205 26.8912596,16.564691 26.8794049,17.2655653 C26.6240462,17.8092908 26.4371691,17.8927512 26.1863955,17.955276 C25.7072657,18.0747365 25.2430719,18.0530754 24.8119382,17.9087645 C24.3475875,17.753335 23.9231701,17.4583571 23.5545647,17.0567623 C22.765337,16.1969002 22.2362099,14.8631628 22.1131472,13.2776114 C21.9873567,11.6569141 22.108148,10.2365249 22.4200219,9.17708643 C22.6438846,8.41662303 22.9470912,7.81247285 23.3768137,7.57915292 Z" id="Oval"></path>
                    </g>
                </g>
            </g>
            <g id="Group-18" transform="translate(104.911663, 102.216216)">
                <g id="Rectangle">
                    <use fill="black" fill-opacity="1" filter="url(#filter-10)" xlink:href="#path-9"></use>
                    <use fill="#FFFFFF" fill-rule="evenodd" xlink:href="#path-9"></use>
                </g>
                <g id="Group" transform="translate(23.722820, 13.012346)" stroke="#1F2A3B" stroke-width="0.95">
                    <g id="Group" transform="translate(3.555556, 4.740741)">
                        <path d="M7.34178474,0.475 C9.17018353,0.475 10.8318105,1.18565483 12.0625074,2.34475387 C13.2303384,3.44464438 14.0102621,4.9483296 14.1756886,6.63137411 L14.1984566,6.93019814 L14.272,8.294 L13.8186523,9.57590418 L13.7156299,9.84809037 C13.0636568,11.4644743 11.8077434,12.7745739 10.2262924,13.5036864 L10.2262924,13.5036864 L8.26061983,14.4099405 L18.5282804,14.4104547 L17.1500401,13.5344893 L16.9458829,13.3979902 C15.741257,12.5515551 14.9077735,11.2165478 14.7385552,9.68235462 L14.7385552,9.68235462 L14.59,8.337 L15.1112239,7.08717032 C15.513615,6.121397 16.1978227,5.30132945 17.0615276,4.72764228 C17.9001183,4.17063635 18.9081208,3.84619342 19.9922446,3.84619342 C21.4520684,3.84619342 22.7737994,4.43469523 23.7305032,5.38650823 C24.6863237,6.33744237 25.2777218,7.65108727 25.2777218,9.10222222 C25.2777218,10.8840213 24.3860803,12.4583216 23.0231806,13.4087863 L22.8344491,13.5344893 L21.4541604,14.4117566 L23.9222792,14.4096682 L23.9219467,18.7700665 L30.3922995,16.2072359 L33.1842593,16.2072359 L33.1842593,27.3935322 L30.1707972,27.3935322 L23.9219535,24.8330154 L23.9222842,29.8657407 L1.83040641,29.8657407 L1.83040641,14.4094377 L6.42590921,14.4110978 L4.45781693,13.5039353 C3.26288394,12.9531489 2.25391354,12.0706482 1.55034873,10.9752255 C0.869495774,9.91516426 0.475,8.65553168 0.475,7.3042524 C0.475,5.41868375 1.24339205,3.71173295 2.48537286,2.47610134 C3.72823704,1.23959087 5.4452949,0.475 7.34178474,0.475 Z" id="Combined-Shape"></path>
                        <rect id="Rectangle" x="1.83040641" y="14.4092661" width="22.091909" height="15.4564746"></rect>
                        <ellipse id="Oval" transform="translate(6.202857, 10.499294) rotate(67.000000) translate(-6.202857, -10.499294) " cx="6.20285661" cy="10.4992939" rx="1" ry="1"></ellipse>
                        <ellipse id="Oval" transform="translate(8.706614, 4.333957) rotate(67.000000) translate(-8.706614, -4.333957) " cx="8.70661393" cy="4.33395715" rx="1" ry="1"></ellipse>
                        <ellipse id="Oval" transform="translate(4.356227, 6.171147) rotate(67.000000) translate(-4.356227, -6.171147) " cx="4.35622685" cy="6.17114665" rx="1" ry="1"></ellipse>
                        <ellipse id="Oval" transform="translate(10.553244, 8.662104) rotate(67.000000) translate(-10.553244, -8.662104) " cx="10.5532437" cy="8.66210438" rx="1" ry="1"></ellipse>
                    </g>
                </g>
            </g>
            <g id="Group-19" transform="translate(210.817786, 102.216216)">
                <g id="Rectangle-Copy">
                    <use fill="black" fill-opacity="1" filter="url(#filter-12)" xlink:href="#path-11"></use>
                    <use fill="#FFFFFF" fill-rule="evenodd" xlink:href="#path-11"></use>
                </g>
                <g id="Illustrations/genre/Family-Copy" transform="translate(21.171471, 11.412380)" stroke="#1F2A3B">
                    <path d="M16.3251962,15.3885789 C17.3051284,15.3885789 18.1922906,15.7857749 18.8344697,16.427954 C19.13086,16.7243444 19.3750646,17.0729205 19.5521186,17.4587174 L19.633,17.652 L19.5459382,17.5724364 C19.4779755,17.5141791 19.4082761,17.4578933 19.336928,17.4036674 L19.118026,17.2472584 C18.3941475,16.7616394 17.5233895,16.478204 16.5863993,16.478204 C15.4523867,16.478204 14.4153349,16.893238 13.6187253,17.579572 C13.3080061,17.847278 13.0339208,18.1562913 12.8049464,18.4980732 L12.803,18.499 C12.8954361,17.7630273 13.2078465,17.1027119 13.6721456,16.5804287 L13.8159226,16.427954 C14.4581017,15.7857749 15.3452639,15.3885789 16.3251962,15.3885789 Z" id="Combined-Shape"></path>
                    <path d="M27.8616681,15.3885789 C28.8416004,15.3885789 29.7287625,15.7857749 30.3709416,16.427954 C30.667332,16.7243444 30.9115366,17.0729205 31.0885905,17.4587174 L31.171,17.653 L31.0824101,17.5724364 C31.0144474,17.5141791 30.944748,17.4578933 30.8734,17.4036674 L30.654498,17.2472584 C29.9306194,16.7616394 29.0598615,16.478204 28.1228713,16.478204 C26.9888587,16.478204 25.9518068,16.893238 25.1551972,17.579572 C24.8444781,17.847278 24.5703927,18.1562913 24.3414184,18.4980732 L24.339,18.501 C24.4319081,17.7630273 24.7443185,17.1027119 25.2086175,16.5804287 L25.3523946,16.427954 C25.9945737,15.7857749 26.8817359,15.3885789 27.8616681,15.3885789 Z" id="Combined-Shape" transform="translate(27.970503, 17.500610) scale(-1, 1) rotate(-360.000000) translate(-27.970503, -17.500610) "></path>
                    <path d="M14.413832,22.9971847 C14.9993826,23.6938974 15.8235352,24.2702762 16.8386562,24.7070036 C18.3285773,25.3480004 20.2333078,25.6902631 22.3447292,25.6902631 C25.6838969,25.6902631 28.5300774,24.7327223 30.0327527,23.3808232 C30.0513056,23.6007358 30.0607672,23.8232307 30.0607672,24.0479317 C30.0607672,26.2131173 29.1812592,28.173278 27.759431,29.5921732 C26.3372286,31.0114416 24.3724501,31.8891892 22.2022668,31.8891892 C20.0320835,31.8891892 18.0673049,31.0114416 16.6451026,29.5921732 C15.2232743,28.173278 14.3437663,26.2131173 14.3437663,24.0479317 C14.3437663,23.6915347 14.3675721,23.340687 14.413832,22.9971847 Z" id="Path"></path>
                    <path d="M37.4272573,6.46512278 C37.625824,7.19494871 37.6356582,8.04179678 37.6356582,8.89428405 C37.6356582,17.0204922 35.8933964,24.3798056 33.0655137,29.7059841 C31.6455507,32.3804149 29.9537584,34.5391946 28.0686145,36.0098914 C26.3016539,37.3883874 24.3663417,38.1580645 22.3328684,38.1580645 C20.299395,38.1580645 18.3640828,37.3883874 16.5971222,36.0098914 C14.7119783,34.5391946 13.020186,32.3804149 11.600223,29.7059841 C8.77234027,24.3798056 7.03007847,17.0204922 7.03007847,8.89428405 C7.03007847,8.0783033 7.04766564,7.2700602 7.08290868,6.47100356 C11.4985806,9.17393374 16.6919372,10.7319821 22.2492557,10.7319821 C27.8111167,10.7319821 33.0084209,9.17138083 37.4272573,6.46512278 Z" id="Combined-Shape"></path>
                </g>
            </g>
        </g>
    </g>
</svg>