<?xml version="1.0" encoding="UTF-8"?>
<svg width="300px" height="200px" viewBox="0 0 300 200" version="1.1" xmlns="http://www.w3.org/2000/svg" xmlns:xlink="http://www.w3.org/1999/xlink">
    <title>seller_manage-offer</title>
    <defs>
        <rect id="path-1" x="0" y="0" width="236" height="179" rx="4"></rect>
        <filter x="-16.3%" y="-21.5%" width="133.5%" height="144.1%" filterUnits="objectBoundingBox" id="filter-3">
            <feMorphology radius="3" operator="dilate" in="SourceAlpha" result="shadowSpreadOuter1"></feMorphology>
            <feOffset dx="1" dy="1" in="shadowSpreadOuter1" result="shadowOffsetOuter1"></feOffset>
            <feGaussianBlur stdDeviation="10" in="shadowOffsetOuter1" result="shadowBlurOuter1"></feGaussianBlur>
            <feColorMatrix values="0 0 0 0 0   0 0 0 0 0   0 0 0 0 0  0 0 0 0.171829757 0" type="matrix" in="shadowBlurOuter1"></feColorMatrix>
        </filter>
        <path d="M0.00686829213,1.50649233 L0,10.5454463 C0,11.3740171 0.618146292,12.0519386 1.37365843,12.0519386 L12.3629258,12.0519386 C13.118438,12.0519386 13.7365843,11.3740171 13.7365843,10.5454463 L13.7365843,0 L10.9892674,0 L12.3629258,3.01298465 L10.3024382,3.01298465 L8.92877977,0 L7.55512135,0 L8.92877977,3.01298465 L6.86829213,3.01298465 L5.49463371,0 L4.12097528,0 L5.49463371,3.01298465 L3.43414607,3.01298465 L2.06048764,0 L1.37365843,0 C0.618146292,0 0.00686829213,0.677921547 0.00686829213,1.50649233 Z M1.37365843,1.86051802 L2.58247784,4.51947698 L12.3629258,4.51947698 L12.3629258,10.5454463 L1.37365843,10.5454463 L1.37365843,1.86051802 Z" id="path-4"></path>
        <rect id="path-6" x="0" y="0" width="128.258065" height="56"></rect>
        <filter x="-5.5%" y="-8.9%" width="110.9%" height="125.0%" filterUnits="objectBoundingBox" id="filter-7">
            <feOffset dx="0" dy="2" in="SourceAlpha" result="shadowOffsetOuter1"></feOffset>
            <feGaussianBlur stdDeviation="2" in="shadowOffsetOuter1" result="shadowBlurOuter1"></feGaussianBlur>
            <feColorMatrix values="0 0 0 0 0   0 0 0 0 0   0 0 0 0 0  0 0 0 0.127957858 0" type="matrix" in="shadowBlurOuter1"></feColorMatrix>
        </filter>
    </defs>
    <g id="seller_manage-offer" stroke="none" stroke-width="1" fill="none" fill-rule="evenodd">
        <g id="library-page" transform="translate(0.395756, 1.123498)">
            <rect id="Rectangle" fill="#E0E5FF" x="60.4147897" y="14.3932831" width="239" height="186"></rect>
            <g id="feature-offers-deals">
                <mask id="mask-2" fill="white">
                    <use xlink:href="#path-1"></use>
                </mask>
                <g id="surface-2">
                    <use fill="black" fill-opacity="1" filter="url(#filter-3)" xlink:href="#path-1"></use>
                    <use fill="#FFFFFF" fill-rule="evenodd" xlink:href="#path-1"></use>
                </g>
                <g id="Group-56" mask="url(#mask-2)">
                    <g transform="translate(14.846439, 75.098169)">
                        <g id="offers-and-deals" stroke-width="1" fill-rule="evenodd" transform="translate(0.000000, 15.532921)">
                            <g id="table-celles" fill="#F4F6FD">
                                <rect id="Rectangle" x="0" y="0" width="64.7349398" height="22.7670213"></rect>
                                <rect id="Rectangle" x="0" y="23.9196004" width="64.7349398" height="22.7670213"></rect>
                                <rect id="Rectangle" x="0" y="47.8392007" width="64.7349398" height="22.7670213"></rect>
                                <rect id="Rectangle" x="67.1325301" y="0" width="120" height="22.7670213"></rect>
                                <rect id="Rectangle" x="67.1325301" y="23.9196004" width="120" height="22.7670213"></rect>
                                <rect id="Rectangle" x="67.1325301" y="47.8392007" width="120" height="22.7670213"></rect>
                            </g>
                        </g>
                        <g id="The-Deep-Ocean" stroke-width="1" fill-rule="evenodd" transform="translate(4.153561, 24.214322)">
                            <polygon id="Path" fill="#B5BBC5" fill-rule="nonzero" points="1.43589744 1.11538462 0 1.11538462 0 0.269230769 3.91025641 0.269230769 3.91025641 1.11538462 2.47435897 1.11538462 2.47435897 4.75641026 1.43589744 4.75641026"></polygon>
                            <path d="M6.49358974,1.25641026 C6.92094017,1.25641026 7.26602564,1.38461538 7.52884615,1.64102564 C7.79166667,1.8974359 7.92307692,2.27777778 7.92307692,2.78205128 L7.92307692,4.75641026 L6.92307692,4.75641026 L6.92307692,2.93589744 C6.92307692,2.66239316 6.86324786,2.45833333 6.74358974,2.32371795 C6.62393162,2.18910256 6.4508547,2.12179487 6.22435897,2.12179487 C5.97222222,2.12179487 5.77136752,2.19978632 5.62179487,2.35576923 C5.47222222,2.51175214 5.3974359,2.74358974 5.3974359,3.05128205 L5.3974359,4.75641026 L4.3974359,4.75641026 L4.3974359,0 L5.3974359,0 L5.3974359,1.66666667 C5.52991453,1.53418803 5.69017094,1.43269231 5.87820513,1.36217949 C6.06623932,1.29166667 6.27136752,1.25641026 6.49358974,1.25641026 Z" id="Path" fill="#B5BBC5" fill-rule="nonzero"></path>
                            <path d="M12.2051282,3.04487179 C12.2051282,3.05769231 12.1987179,3.1474359 12.1858974,3.31410256 L9.57692308,3.31410256 C9.62393162,3.52777778 9.73504274,3.6965812 9.91025641,3.82051282 C10.0854701,3.94444444 10.3034188,4.00641026 10.5641026,4.00641026 C10.7435897,4.00641026 10.9027778,3.97970085 11.0416667,3.92628205 C11.1805556,3.87286325 11.3098291,3.78846154 11.4294872,3.67307692 L11.9615385,4.25 C11.6367521,4.62179487 11.1623932,4.80769231 10.5384615,4.80769231 C10.1495726,4.80769231 9.80555556,4.73183761 9.50641026,4.58012821 C9.20726496,4.4284188 8.97649573,4.21794872 8.81410256,3.94871795 C8.6517094,3.67948718 8.57051282,3.37393162 8.57051282,3.03205128 C8.57051282,2.69444444 8.65064103,2.38995726 8.81089744,2.11858974 C8.97115385,1.84722222 9.19123932,1.63568376 9.47115385,1.48397436 C9.75106838,1.33226496 10.0641026,1.25641026 10.4102564,1.25641026 C10.7478632,1.25641026 11.0534188,1.32905983 11.3269231,1.47435897 C11.6004274,1.61965812 11.8151709,1.82799145 11.9711538,2.09935897 C12.1271368,2.3707265 12.2051282,2.68589744 12.2051282,3.04487179 Z M10.4166667,2.01282051 C10.1901709,2.01282051 10,2.07692308 9.84615385,2.20512821 C9.69230769,2.33333333 9.5982906,2.50854701 9.56410256,2.73076923 L11.2628205,2.73076923 C11.2286325,2.51282051 11.1346154,2.33867521 10.9807692,2.20833333 C10.8269231,2.07799145 10.6388889,2.01282051 10.4166667,2.01282051 Z" id="Shape" fill="#B5BBC5" fill-rule="nonzero"></path>
                            <path d="M14.7564103,0.269230769 L16.7948718,0.269230769 C17.2820513,0.269230769 17.7126068,0.362179487 18.0865385,0.548076923 C18.4604701,0.733974359 18.7510684,0.995726496 18.9583333,1.33333333 C19.1655983,1.67094017 19.2692308,2.06410256 19.2692308,2.51282051 C19.2692308,2.96153846 19.1655983,3.35470085 18.9583333,3.69230769 C18.7510684,4.02991453 18.4604701,4.29166667 18.0865385,4.4775641 C17.7126068,4.66346154 17.2820513,4.75641026 16.7948718,4.75641026 L14.7564103,4.75641026 L14.7564103,0.269230769 Z M16.7435897,3.90384615 C17.1923077,3.90384615 17.5502137,3.77884615 17.8173077,3.52884615 C18.0844017,3.27884615 18.2179487,2.94017094 18.2179487,2.51282051 C18.2179487,2.08547009 18.0844017,1.74679487 17.8173077,1.49679487 C17.5502137,1.24679487 17.1923077,1.12179487 16.7435897,1.12179487 L15.7948718,1.12179487 L15.7948718,3.90384615 L16.7435897,3.90384615 Z" id="Shape" fill="#B5BBC5" fill-rule="nonzero"></path>
                            <path d="M23.3589744,3.04487179 C23.3589744,3.05769231 23.3525641,3.1474359 23.3397436,3.31410256 L20.7307692,3.31410256 C20.7777778,3.52777778 20.8888889,3.6965812 21.0641026,3.82051282 C21.2393162,3.94444444 21.457265,4.00641026 21.7179487,4.00641026 C21.8974359,4.00641026 22.0566239,3.97970085 22.1955128,3.92628205 C22.3344017,3.87286325 22.4636752,3.78846154 22.5833333,3.67307692 L23.1153846,4.25 C22.7905983,4.62179487 22.3162393,4.80769231 21.6923077,4.80769231 C21.3034188,4.80769231 20.9594017,4.73183761 20.6602564,4.58012821 C20.3611111,4.4284188 20.1303419,4.21794872 19.9679487,3.94871795 C19.8055556,3.67948718 19.724359,3.37393162 19.724359,3.03205128 C19.724359,2.69444444 19.8044872,2.38995726 19.9647436,2.11858974 C20.125,1.84722222 20.3450855,1.63568376 20.625,1.48397436 C20.9049145,1.33226496 21.2179487,1.25641026 21.5641026,1.25641026 C21.9017094,1.25641026 22.207265,1.32905983 22.4807692,1.47435897 C22.7542735,1.61965812 22.9690171,1.82799145 23.125,2.09935897 C23.2809829,2.3707265 23.3589744,2.68589744 23.3589744,3.04487179 Z M21.5705128,2.01282051 C21.3440171,2.01282051 21.1538462,2.07692308 21,2.20512821 C20.8461538,2.33333333 20.7521368,2.50854701 20.7179487,2.73076923 L22.4166667,2.73076923 C22.3824786,2.51282051 22.2884615,2.33867521 22.1346154,2.20833333 C21.9807692,2.07799145 21.792735,2.01282051 21.5705128,2.01282051 Z" id="Shape" fill="#B5BBC5" fill-rule="nonzero"></path>
                            <path d="M27.4038462,3.04487179 C27.4038462,3.05769231 27.3974359,3.1474359 27.3846154,3.31410256 L24.775641,3.31410256 C24.8226496,3.52777778 24.9337607,3.6965812 25.1089744,3.82051282 C25.284188,3.94444444 25.5021368,4.00641026 25.7628205,4.00641026 C25.9423077,4.00641026 26.1014957,3.97970085 26.2403846,3.92628205 C26.3792735,3.87286325 26.508547,3.78846154 26.6282051,3.67307692 L27.1602564,4.25 C26.8354701,4.62179487 26.3611111,4.80769231 25.7371795,4.80769231 C25.3482906,4.80769231 25.0042735,4.73183761 24.7051282,4.58012821 C24.4059829,4.4284188 24.1752137,4.21794872 24.0128205,3.94871795 C23.8504274,3.67948718 23.7692308,3.37393162 23.7692308,3.03205128 C23.7692308,2.69444444 23.849359,2.38995726 24.0096154,2.11858974 C24.1698718,1.84722222 24.3899573,1.63568376 24.6698718,1.48397436 C24.9497863,1.33226496 25.2628205,1.25641026 25.6089744,1.25641026 C25.9465812,1.25641026 26.2521368,1.32905983 26.525641,1.47435897 C26.7991453,1.61965812 27.0138889,1.82799145 27.1698718,2.09935897 C27.3258547,2.3707265 27.4038462,2.68589744 27.4038462,3.04487179 Z M25.6153846,2.01282051 C25.3888889,2.01282051 25.1987179,2.07692308 25.0448718,2.20512821 C24.8910256,2.33333333 24.7970085,2.50854701 24.7628205,2.73076923 L26.4615385,2.73076923 C26.4273504,2.51282051 26.3333333,2.33867521 26.1794872,2.20833333 C26.025641,2.07799145 25.8376068,2.01282051 25.6153846,2.01282051 Z" id="Shape" fill="#B5BBC5" fill-rule="nonzero"></path>
                            <path d="M30.1089744,1.25641026 C30.4294872,1.25641026 30.7211538,1.33012821 30.9839744,1.4775641 C31.2467949,1.625 31.4529915,1.83226496 31.6025641,2.09935897 C31.7521368,2.36645299 31.8269231,2.67735043 31.8269231,3.03205128 C31.8269231,3.38675214 31.7521368,3.69764957 31.6025641,3.96474359 C31.4529915,4.23183761 31.2467949,4.43910256 30.9839744,4.58653846 C30.7211538,4.73397436 30.4294872,4.80769231 30.1089744,4.80769231 C29.6688034,4.80769231 29.3226496,4.66880342 29.0705128,4.39102564 L29.0705128,6 L28.0705128,6 L28.0705128,1.30769231 L29.025641,1.30769231 L29.025641,1.70512821 C29.2735043,1.40598291 29.6346154,1.25641026 30.1089744,1.25641026 Z M29.9358974,3.98717949 C30.1923077,3.98717949 30.4027778,3.90064103 30.5673077,3.7275641 C30.7318376,3.55448718 30.8141026,3.32264957 30.8141026,3.03205128 C30.8141026,2.74145299 30.7318376,2.50961538 30.5673077,2.33653846 C30.4027778,2.16346154 30.1923077,2.07692308 29.9358974,2.07692308 C29.6794872,2.07692308 29.4690171,2.16346154 29.3044872,2.33653846 C29.1399573,2.50961538 29.0576923,2.74145299 29.0576923,3.03205128 C29.0576923,3.32264957 29.1399573,3.55448718 29.3044872,3.7275641 C29.4690171,3.90064103 29.6794872,3.98717949 29.9358974,3.98717949 Z" id="Shape" fill="#B5BBC5" fill-rule="nonzero"></path>
                            <path d="M36.5512821,4.83333333 C36.0854701,4.83333333 35.6655983,4.73290598 35.2916667,4.53205128 C34.917735,4.33119658 34.625,4.05448718 34.4134615,3.70192308 C34.2019231,3.34935897 34.0961538,2.95299145 34.0961538,2.51282051 C34.0961538,2.07264957 34.2019231,1.67628205 34.4134615,1.32371795 C34.625,0.971153846 34.917735,0.694444444 35.2916667,0.493589744 C35.6655983,0.292735043 36.0854701,0.192307692 36.5512821,0.192307692 C37.017094,0.192307692 37.4358974,0.292735043 37.8076923,0.493589744 C38.1794872,0.694444444 38.4722222,0.971153846 38.6858974,1.32371795 C38.8995726,1.67628205 39.0064103,2.07264957 39.0064103,2.51282051 C39.0064103,2.95299145 38.8995726,3.34935897 38.6858974,3.70192308 C38.4722222,4.05448718 38.1794872,4.33119658 37.8076923,4.53205128 C37.4358974,4.73290598 37.017094,4.83333333 36.5512821,4.83333333 Z M36.5512821,3.94871795 C36.8162393,3.94871795 37.0555556,3.88782051 37.2692308,3.76602564 C37.482906,3.64423077 37.650641,3.47435897 37.7724359,3.25641026 C37.8942308,3.03846154 37.9551282,2.79059829 37.9551282,2.51282051 C37.9551282,2.23504274 37.8942308,1.98717949 37.7724359,1.76923077 C37.650641,1.55128205 37.482906,1.38141026 37.2692308,1.25961538 C37.0555556,1.13782051 36.8162393,1.07692308 36.5512821,1.07692308 C36.2863248,1.07692308 36.0470085,1.13782051 35.8333333,1.25961538 C35.6196581,1.38141026 35.4519231,1.55128205 35.3301282,1.76923077 C35.2083333,1.98717949 35.1474359,2.23504274 35.1474359,2.51282051 C35.1474359,2.79059829 35.2083333,3.03846154 35.3301282,3.25641026 C35.4519231,3.47435897 35.6196581,3.64423077 35.8333333,3.76602564 C36.0470085,3.88782051 36.2863248,3.94871795 36.5512821,3.94871795 Z" id="Shape" fill="#B5BBC5" fill-rule="nonzero"></path>
                            <path d="M41.3846154,4.80769231 C41.017094,4.80769231 40.6869658,4.73183761 40.3942308,4.58012821 C40.1014957,4.4284188 39.8728632,4.21794872 39.7083333,3.94871795 C39.5438034,3.67948718 39.4615385,3.37393162 39.4615385,3.03205128 C39.4615385,2.69017094 39.5438034,2.38461538 39.7083333,2.11538462 C39.8728632,1.84615385 40.1014957,1.63568376 40.3942308,1.48397436 C40.6869658,1.33226496 41.017094,1.25641026 41.3846154,1.25641026 C41.7478632,1.25641026 42.0651709,1.33226496 42.3365385,1.48397436 C42.607906,1.63568376 42.8055556,1.8525641 42.9294872,2.13461538 L42.1538462,2.55128205 C41.974359,2.23504274 41.715812,2.07692308 41.3782051,2.07692308 C41.1175214,2.07692308 40.9017094,2.16239316 40.7307692,2.33333333 C40.5598291,2.5042735 40.474359,2.73717949 40.474359,3.03205128 C40.474359,3.32692308 40.5598291,3.55982906 40.7307692,3.73076923 C40.9017094,3.9017094 41.1175214,3.98717949 41.3782051,3.98717949 C41.7200855,3.98717949 41.9786325,3.82905983 42.1538462,3.51282051 L42.9294872,3.93589744 C42.8055556,4.20940171 42.607906,4.42307692 42.3365385,4.57692308 C42.0651709,4.73076923 41.7478632,4.80769231 41.3846154,4.80769231 Z" id="Path" fill="#B5BBC5" fill-rule="nonzero"></path>
                            <path d="M46.8846154,3.04487179 C46.8846154,3.05769231 46.8782051,3.1474359 46.8653846,3.31410256 L44.2564103,3.31410256 C44.3034188,3.52777778 44.4145299,3.6965812 44.5897436,3.82051282 C44.7649573,3.94444444 44.982906,4.00641026 45.2435897,4.00641026 C45.4230769,4.00641026 45.582265,3.97970085 45.7211538,3.92628205 C45.8600427,3.87286325 45.9893162,3.78846154 46.1089744,3.67307692 L46.6410256,4.25 C46.3162393,4.62179487 45.8418803,4.80769231 45.2179487,4.80769231 C44.8290598,4.80769231 44.4850427,4.73183761 44.1858974,4.58012821 C43.8867521,4.4284188 43.6559829,4.21794872 43.4935897,3.94871795 C43.3311966,3.67948718 43.25,3.37393162 43.25,3.03205128 C43.25,2.69444444 43.3301282,2.38995726 43.4903846,2.11858974 C43.650641,1.84722222 43.8707265,1.63568376 44.150641,1.48397436 C44.4305556,1.33226496 44.7435897,1.25641026 45.0897436,1.25641026 C45.4273504,1.25641026 45.732906,1.32905983 46.0064103,1.47435897 C46.2799145,1.61965812 46.4946581,1.82799145 46.650641,2.09935897 C46.8066239,2.3707265 46.8846154,2.68589744 46.8846154,3.04487179 Z M45.0961538,2.01282051 C44.8696581,2.01282051 44.6794872,2.07692308 44.525641,2.20512821 C44.3717949,2.33333333 44.2777778,2.50854701 44.2435897,2.73076923 L45.9423077,2.73076923 C45.9081197,2.51282051 45.8141026,2.33867521 45.6602564,2.20833333 C45.5064103,2.07799145 45.3183761,2.01282051 45.0961538,2.01282051 Z" id="Shape" fill="#B5BBC5" fill-rule="nonzero"></path>
                            <path d="M48.9423077,1.25641026 C49.4764957,1.25641026 49.8867521,1.38354701 50.1730769,1.63782051 C50.4594017,1.89209402 50.6025641,2.27564103 50.6025641,2.78846154 L50.6025641,4.75641026 L49.6666667,4.75641026 L49.6666667,4.32692308 C49.4786325,4.6474359 49.1282051,4.80769231 48.6153846,4.80769231 C48.3504274,4.80769231 48.1207265,4.76282051 47.9262821,4.67307692 C47.7318376,4.58333333 47.5833333,4.45940171 47.4807692,4.30128205 C47.3782051,4.14316239 47.3269231,3.96367521 47.3269231,3.76282051 C47.3269231,3.44230769 47.4476496,3.19017094 47.6891026,3.00641026 C47.9305556,2.82264957 48.3034188,2.73076923 48.8076923,2.73076923 L49.6025641,2.73076923 C49.6025641,2.51282051 49.5363248,2.34508547 49.4038462,2.2275641 C49.2713675,2.11004274 49.0726496,2.05128205 48.8076923,2.05128205 C48.6239316,2.05128205 48.4433761,2.08012821 48.2660256,2.13782051 C48.0886752,2.19551282 47.9380342,2.27350427 47.8141026,2.37179487 L47.4551282,1.67307692 C47.6431624,1.54059829 47.8685897,1.43803419 48.1314103,1.36538462 C48.3942308,1.29273504 48.6645299,1.25641026 48.9423077,1.25641026 Z M48.8653846,4.13461538 C49.0363248,4.13461538 49.1880342,4.09508547 49.3205128,4.01602564 C49.4529915,3.93696581 49.5470085,3.82051282 49.6025641,3.66666667 L49.6025641,3.31410256 L48.9166667,3.31410256 C48.5064103,3.31410256 48.3012821,3.44871795 48.3012821,3.71794872 C48.3012821,3.84615385 48.3514957,3.94764957 48.4519231,4.0224359 C48.5523504,4.09722222 48.6901709,4.13461538 48.8653846,4.13461538 Z" id="Shape" fill="#B5BBC5" fill-rule="nonzero"></path>
                            <path d="M53.6025641,1.25641026 C54.0299145,1.25641026 54.375,1.38461538 54.6378205,1.64102564 C54.900641,1.8974359 55.0320513,2.27777778 55.0320513,2.78205128 L55.0320513,4.75641026 L54.0320513,4.75641026 L54.0320513,2.93589744 C54.0320513,2.66239316 53.9722222,2.45833333 53.8525641,2.32371795 C53.732906,2.18910256 53.5598291,2.12179487 53.3333333,2.12179487 C53.0811966,2.12179487 52.8803419,2.19978632 52.7307692,2.35576923 C52.5811966,2.51175214 52.5064103,2.74358974 52.5064103,3.05128205 L52.5064103,4.75641026 L51.5064103,4.75641026 L51.5064103,1.30769231 L52.4615385,1.30769231 L52.4615385,1.71153846 C52.5940171,1.56623932 52.758547,1.45405983 52.9551282,1.375 C53.1517094,1.29594017 53.3675214,1.25641026 53.6025641,1.25641026 Z" id="Path" fill="#B5BBC5" fill-rule="nonzero"></path>
                        </g>
                        <g id="Fools" stroke-width="1" fill-rule="evenodd" transform="translate(6.053953, 48.440098)">
                            <polygon id="Path" fill="#B5BBC5" fill-rule="nonzero" points="1.12496682 1.19440922 1.12496682 2.47909356 3.37490047 2.47909356 3.37490047 3.38184471 1.12496682 3.38184471 1.12496682 5.15262582 0 5.15262582 0 0.291658065 3.67350278 0.291658065 3.67350278 1.19440922"></polygon>
                            <path d="M6.13870785,5.20817974 C5.74520094,5.20817974 5.39220209,5.12600624 5.0797113,4.96165923 C4.76722052,4.79731223 4.52301476,4.56930969 4.34709402,4.27765163 C4.17117328,3.98599356 4.08321291,3.6549848 4.08321291,3.28462536 C4.08321291,2.91426591 4.17117328,2.58325715 4.34709402,2.29159908 C4.52301476,1.99994102 4.76722052,1.77193848 5.0797113,1.60759148 C5.39220209,1.44324447 5.74520094,1.36107097 6.13870785,1.36107097 C6.53221477,1.36107097 6.88405624,1.44324447 7.19423228,1.60759148 C7.50440832,1.77193848 7.7474567,1.99994102 7.92337744,2.29159908 C8.09929818,2.58325715 8.18725855,2.91426591 8.18725855,3.28462536 C8.18725855,3.6549848 8.09929818,3.98599356 7.92337744,4.27765163 C7.7474567,4.56930969 7.50440832,4.79731223 7.19423228,4.96165923 C6.88405624,5.12600624 6.53221477,5.20817974 6.13870785,5.20817974 Z M6.13870785,4.31931706 C6.41647744,4.31931706 6.64447997,4.22556983 6.82271546,4.03807536 C7.00095094,3.85058089 7.09006868,3.59943089 7.09006868,3.28462536 C7.09006868,2.96981982 7.00095094,2.71866982 6.82271546,2.53117535 C6.64447997,2.34368088 6.41647744,2.24993365 6.13870785,2.24993365 C5.86093827,2.24993365 5.63177836,2.34368088 5.45122813,2.53117535 C5.2706779,2.71866982 5.18040278,2.96981982 5.18040278,3.28462536 C5.18040278,3.59943089 5.2706779,3.85058089 5.45122813,4.03807536 C5.63177836,4.22556983 5.86093827,4.31931706 6.13870785,4.31931706 Z" id="Shape" fill="#B5BBC5" fill-rule="nonzero"></path>
                            <path d="M10.6871848,5.20817974 C10.2936779,5.20817974 9.94067906,5.12600624 9.62818828,4.96165923 C9.31569749,4.79731223 9.07149173,4.56930969 8.89557099,4.27765163 C8.71965026,3.98599356 8.63168989,3.6549848 8.63168989,3.28462536 C8.63168989,2.91426591 8.71965026,2.58325715 8.89557099,2.29159908 C9.07149173,1.99994102 9.31569749,1.77193848 9.62818828,1.60759148 C9.94067906,1.44324447 10.2936779,1.36107097 10.6871848,1.36107097 C11.0806917,1.36107097 11.4325332,1.44324447 11.7427093,1.60759148 C12.0528853,1.77193848 12.2959337,1.99994102 12.4718544,2.29159908 C12.6477752,2.58325715 12.7357355,2.91426591 12.7357355,3.28462536 C12.7357355,3.6549848 12.6477752,3.98599356 12.4718544,4.27765163 C12.2959337,4.56930969 12.0528853,4.79731223 11.7427093,4.96165923 C11.4325332,5.12600624 11.0806917,5.20817974 10.6871848,5.20817974 Z M10.6871848,4.31931706 C10.9649544,4.31931706 11.1929569,4.22556983 11.3711924,4.03807536 C11.5494279,3.85058089 11.6385457,3.59943089 11.6385457,3.28462536 C11.6385457,2.96981982 11.5494279,2.71866982 11.3711924,2.53117535 C11.1929569,2.34368088 10.9649544,2.24993365 10.6871848,2.24993365 C10.4094152,2.24993365 10.1802553,2.34368088 9.9997051,2.53117535 C9.81915487,2.71866982 9.72887975,2.96981982 9.72887975,3.28462536 C9.72887975,3.59943089 9.81915487,3.85058089 9.9997051,4.03807536 C10.1802553,4.22556983 10.4094152,4.31931706 10.6871848,4.31931706 Z" id="Shape" fill="#B5BBC5" fill-rule="nonzero"></path>
                            <polygon id="Path" fill="#B5BBC5" fill-rule="nonzero" points="13.4579364 0 14.5412378 0 14.5412378 5.15262582 13.4579364 5.15262582"></polygon>
                            <path d="M16.80506,5.20817974 C16.4948839,5.20817974 16.1916521,5.16998642 15.8953646,5.09359978 C15.599077,5.01721315 15.3629729,4.92115117 15.1870521,4.80541384 L15.5481526,4.027659 C15.7148143,4.13413734 15.9161973,4.22094033 16.1523014,4.28806798 C16.3884056,4.35519563 16.6198802,4.38875946 16.8467254,4.38875946 C17.3050452,4.38875946 17.5342051,4.27533688 17.5342051,4.04849172 C17.5342051,3.94201338 17.471707,3.86562674 17.3467106,3.81933181 C17.2217143,3.77303688 17.0295904,3.73368619 16.7703388,3.70127973 C16.4647922,3.6549848 16.2124848,3.60174563 16.0134166,3.54156222 C15.8143484,3.48137881 15.6418998,3.37490047 15.4960708,3.2221272 C15.3502417,3.06935393 15.2773272,2.85176775 15.2773272,2.56936867 C15.2773272,2.33326452 15.3456123,2.12377996 15.4821823,1.94091498 C15.6187523,1.75805001 15.8178206,1.61569309 16.0793869,1.51384424 C16.3409533,1.4119954 16.6499719,1.36107097 17.0064429,1.36107097 C17.270324,1.36107097 17.5330477,1.3900053 17.7946141,1.44787397 C18.0561805,1.50574263 18.2726093,1.58560139 18.4439005,1.68745024 L18.0828001,2.45826084 C17.754106,2.27308111 17.3953203,2.18049125 17.0064429,2.18049125 C16.7749683,2.18049125 16.6013623,2.2128977 16.4856249,2.27771061 C16.3698876,2.34252351 16.3120189,2.42585438 16.3120189,2.52770323 C16.3120189,2.64344056 16.3745171,2.72445669 16.4995134,2.77075162 C16.6245097,2.81704655 16.8235779,2.86102674 17.096718,2.90269217 C17.4022646,2.9536166 17.6522572,3.00801314 17.8466959,3.06588181 C18.0411346,3.12375047 18.2101111,3.22907144 18.3536254,3.38184471 C18.4971397,3.53461798 18.5688968,3.74757467 18.5688968,4.02071476 C18.5688968,4.25218941 18.4994544,4.45820186 18.3605696,4.63875209 C18.2216848,4.81930232 18.0191445,4.95934448 17.7529487,5.05887859 C17.4867528,5.15841269 17.1707899,5.20817974 16.80506,5.20817974 Z" id="Path" fill="#B5BBC5" fill-rule="nonzero"></path>
                        </g>
                        <g id="Gone-Forever" stroke-width="1" fill-rule="evenodd" transform="translate(5.872891, 72.374202)">
                            <path d="M3.5901719,2.43742812 L4.61791937,2.43742812 L4.61791937,4.40959218 C4.35403826,4.60866038 4.04849172,4.76143365 3.70127973,4.867912 C3.35406775,4.97439034 3.00454102,5.02762951 2.65269955,5.02762951 C2.1480848,5.02762951 1.69439447,4.91999379 1.29162858,4.70472236 C0.888862675,4.48945093 0.572899771,4.19084863 0.343739863,3.80891545 C0.114579954,3.42698227 0,2.99528204 0,2.51381475 C0,2.03234747 0.114579954,1.60064724 0.343739863,1.21871406 C0.572899771,0.836780878 0.891177422,0.538178573 1.29857281,0.322907144 C1.70596821,0.107635715 2.16428802,0 2.67353227,0 C3.09944563,0 3.4860083,0.0717571431 3.83322029,0.215271429 C4.18043227,0.358785715 4.47209034,0.567112905 4.70819448,0.840252998 L3.98599356,1.5069 C3.63878158,1.14117005 3.21981245,0.958305072 2.72908618,0.958305072 C2.41891015,0.958305072 2.14345531,1.02311798 1.90272166,1.15274378 C1.66198802,1.28236959 1.47449355,1.46523457 1.34023825,1.70133871 C1.20598295,1.93744286 1.1388553,2.20826821 1.1388553,2.51381475 C1.1388553,2.81473181 1.20598295,3.08324241 1.34023825,3.31934655 C1.47449355,3.5554507 1.66083065,3.73947305 1.89924954,3.87141361 C2.13766844,4.00335416 2.40965116,4.06932444 2.7151977,4.06932444 C3.03926222,4.06932444 3.33092029,3.99988204 3.5901719,3.86099725 L3.5901719,2.43742812 Z" id="Path" fill="#B5BBC5" fill-rule="nonzero"></path>
                            <path d="M7.36089403,4.99985255 C6.96738712,4.99985255 6.61438827,4.91767905 6.30189748,4.75333204 C5.9894067,4.58898504 5.74520094,4.3609825 5.5692802,4.06932444 C5.39335946,3.77766637 5.30539909,3.44665761 5.30539909,3.07629817 C5.30539909,2.70593872 5.39335946,2.37492996 5.5692802,2.0832719 C5.74520094,1.79161383 5.9894067,1.56361129 6.30189748,1.39926429 C6.61438827,1.23491728 6.96738712,1.15274378 7.36089403,1.15274378 C7.75440094,1.15274378 8.10624242,1.23491728 8.41641846,1.39926429 C8.7265945,1.56361129 8.96964288,1.79161383 9.14556362,2.0832719 C9.32148436,2.37492996 9.40944473,2.70593872 9.40944473,3.07629817 C9.40944473,3.44665761 9.32148436,3.77766637 9.14556362,4.06932444 C8.96964288,4.3609825 8.7265945,4.58898504 8.41641846,4.75333204 C8.10624242,4.91767905 7.75440094,4.99985255 7.36089403,4.99985255 Z M7.36089403,4.11098987 C7.63866362,4.11098987 7.86666615,4.01724264 8.04490164,3.82974817 C8.22313712,3.6422537 8.31225486,3.3911037 8.31225486,3.07629817 C8.31225486,2.76149263 8.22313712,2.51034263 8.04490164,2.32284816 C7.86666615,2.13535369 7.63866362,2.04160646 7.36089403,2.04160646 C7.08312444,2.04160646 6.85396454,2.13535369 6.6734143,2.32284816 C6.49286407,2.51034263 6.40258896,2.76149263 6.40258896,3.07629817 C6.40258896,3.3911037 6.49286407,3.6422537 6.6734143,3.82974817 C6.85396454,4.01724264 7.08312444,4.11098987 7.36089403,4.11098987 Z" id="Shape" fill="#B5BBC5" fill-rule="nonzero"></path>
                            <path d="M12.402412,1.15274378 C12.8653613,1.15274378 13.2391929,1.29162858 13.5239067,1.56939816 C13.8086205,1.84716775 13.9509775,2.25919263 13.9509775,2.80547282 L13.9509775,4.94429863 L12.8676761,4.94429863 L12.8676761,2.97213457 C12.8676761,2.67584701 12.8028632,2.45478872 12.6732374,2.30895968 C12.5436116,2.16313065 12.3561171,2.09021614 12.110754,2.09021614 C11.8376139,2.09021614 11.6200277,2.17470438 11.4579954,2.34368088 C11.2959632,2.51265738 11.214947,2.76380738 11.214947,3.09713088 L11.214947,4.94429863 L10.1316457,4.94429863 L10.1316457,1.2082977 L11.1663374,1.2082977 L11.1663374,1.6457848 C11.3098516,1.48838203 11.4880871,1.36685784 11.7010438,1.28121222 C11.9140005,1.19556659 12.1477899,1.15274378 12.402412,1.15274378 Z" id="Path" fill="#B5BBC5" fill-rule="nonzero"></path>
                            <path d="M18.5897295,3.09018664 C18.5897295,3.10407512 18.5827853,3.20129448 18.5688968,3.38184471 L15.7425913,3.38184471 C15.7935157,3.61331937 15.9138825,3.79618434 16.1036918,3.93043964 C16.293501,4.06469494 16.5296051,4.13182259 16.8120042,4.13182259 C17.0064429,4.13182259 17.1788915,4.10288826 17.32935,4.0450196 C17.4798086,3.98715093 17.6198507,3.89571844 17.7494765,3.77072213 L18.3258484,4.3957037 C17.974007,4.7984696 17.4601332,4.99985255 16.7842272,4.99985255 C16.3629434,4.99985255 15.9902692,4.91767905 15.6662047,4.75333204 C15.3421401,4.58898504 15.0921475,4.3609825 14.9162268,4.06932444 C14.740306,3.77766637 14.6523457,3.44665761 14.6523457,3.07629817 C14.6523457,2.71056821 14.7391487,2.38071683 14.9127547,2.08674402 C15.0863606,1.7927712 15.3247795,1.56361129 15.6280113,1.39926429 C15.9312431,1.23491728 16.2703535,1.15274378 16.6453424,1.15274378 C17.0110724,1.15274378 17.3420812,1.23144516 17.6383687,1.38884793 C17.9346563,1.5462507 18.1672883,1.77193848 18.3362648,2.0659113 C18.5052413,2.35988411 18.5897295,2.70130922 18.5897295,3.09018664 Z M16.6522867,1.97216406 C16.4069235,1.97216406 16.2009111,2.04160646 16.0342494,2.18049125 C15.8675876,2.31937604 15.7657388,2.50918526 15.7287028,2.7499189 L17.5689263,2.7499189 C17.5318904,2.51381475 17.4300415,2.32516291 17.2633798,2.18396337 C17.096718,2.04276383 16.8930203,1.97216406 16.6522867,1.97216406 Z" id="Shape" fill="#B5BBC5" fill-rule="nonzero"></path>
                            <polygon id="Path" fill="#B5BBC5" fill-rule="nonzero" points="22.4785038 0.98608203 22.4785038 2.27076637 24.7284374 2.27076637 24.7284374 3.17351752 22.4785038 3.17351752 22.4785038 4.94429863 21.3535369 4.94429863 21.3535369 0.0833308758 25.0270397 0.0833308758 25.0270397 0.98608203"></polygon>
                            <path d="M27.4922448,4.99985255 C27.0987379,4.99985255 26.745739,4.91767905 26.4332482,4.75333204 C26.1207574,4.58898504 25.8765517,4.3609825 25.7006309,4.06932444 C25.5247102,3.77766637 25.4367498,3.44665761 25.4367498,3.07629817 C25.4367498,2.70593872 25.5247102,2.37492996 25.7006309,2.0832719 C25.8765517,1.79161383 26.1207574,1.56361129 26.4332482,1.39926429 C26.745739,1.23491728 27.0987379,1.15274378 27.4922448,1.15274378 C27.8857517,1.15274378 28.2375932,1.23491728 28.5477692,1.39926429 C28.8579452,1.56361129 29.1009936,1.79161383 29.2769144,2.0832719 C29.4528351,2.37492996 29.5407955,2.70593872 29.5407955,3.07629817 C29.5407955,3.44665761 29.4528351,3.77766637 29.2769144,4.06932444 C29.1009936,4.3609825 28.8579452,4.58898504 28.5477692,4.75333204 C28.2375932,4.91767905 27.8857517,4.99985255 27.4922448,4.99985255 Z M27.4922448,4.11098987 C27.7700144,4.11098987 27.9980169,4.01724264 28.1762524,3.82974817 C28.3544879,3.6422537 28.4436056,3.3911037 28.4436056,3.07629817 C28.4436056,2.76149263 28.3544879,2.51034263 28.1762524,2.32284816 C27.9980169,2.13535369 27.7700144,2.04160646 27.4922448,2.04160646 C27.2144752,2.04160646 26.9853153,2.13535369 26.8047651,2.32284816 C26.6242148,2.51034263 26.5339397,2.76149263 26.5339397,3.07629817 C26.5339397,3.3911037 26.6242148,3.6422537 26.8047651,3.82974817 C26.9853153,4.01724264 27.2144752,4.11098987 27.4922448,4.11098987 Z" id="Shape" fill="#B5BBC5" fill-rule="nonzero"></path>
                            <path d="M31.2976881,1.70133871 C31.4273139,1.52078848 31.6020773,1.38421844 31.8219782,1.29162858 C32.0418791,1.19903871 32.2953439,1.15274378 32.5823724,1.15274378 L32.5823724,2.15271429 C32.4620056,2.14345531 32.3809895,2.13882581 32.3393241,2.13882581 C32.029148,2.13882581 31.7860996,2.22562881 31.6101789,2.3992348 C31.4342582,2.57284079 31.3462978,2.83324978 31.3462978,3.18046176 L31.3462978,4.94429863 L30.2629964,4.94429863 L30.2629964,1.2082977 L31.2976881,1.2082977 L31.2976881,1.70133871 Z" id="Path" fill="#B5BBC5" fill-rule="nonzero"></path>
                            <path d="M36.915578,3.09018664 C36.915578,3.10407512 36.9086337,3.20129448 36.8947453,3.38184471 L34.0684397,3.38184471 C34.1193642,3.61331937 34.239731,3.79618434 34.4295402,3.93043964 C34.6193494,4.06469494 34.8554536,4.13182259 35.1378526,4.13182259 C35.3322913,4.13182259 35.50474,4.10288826 35.6551985,4.0450196 C35.805657,3.98715093 35.9456992,3.89571844 36.075325,3.77072213 L36.6516969,4.3957037 C36.2998554,4.7984696 35.7859817,4.99985255 35.1100757,4.99985255 C34.6887918,4.99985255 34.3161176,4.91767905 33.9920531,4.75333204 C33.6679886,4.58898504 33.4179959,4.3609825 33.2420752,4.06932444 C33.0661545,3.77766637 32.9781941,3.44665761 32.9781941,3.07629817 C32.9781941,2.71056821 33.0649971,2.38071683 33.2386031,2.08674402 C33.4122091,1.7927712 33.650628,1.56361129 33.9538598,1.39926429 C34.2570916,1.23491728 34.5962019,1.15274378 34.9711909,1.15274378 C35.3369208,1.15274378 35.6679296,1.23144516 35.9642172,1.38884793 C36.2605047,1.5462507 36.4931367,1.77193848 36.6621132,2.0659113 C36.8310897,2.35988411 36.915578,2.70130922 36.915578,3.09018664 Z M34.9781351,1.97216406 C34.732772,1.97216406 34.5267595,2.04160646 34.3600978,2.18049125 C34.193436,2.31937604 34.0915872,2.50918526 34.0545512,2.7499189 L35.8947748,2.7499189 C35.8577388,2.51381475 35.75589,2.32516291 35.5892282,2.18396337 C35.4225665,2.04276383 35.2188688,1.97216406 34.9781351,1.97216406 Z" id="Shape" fill="#B5BBC5" fill-rule="nonzero"></path>
                            <polygon id="Path" fill="#B5BBC5" fill-rule="nonzero" points="41.3460029 1.2082977 39.7696605 4.94429863 38.6516379 4.94429863 37.0822397 1.2082977 38.2002623 1.2082977 39.234954 3.74988941 40.3043669 1.2082977"></polygon>
                            <path d="M45.4500485,3.09018664 C45.4500485,3.10407512 45.4431043,3.20129448 45.4292158,3.38184471 L42.6029103,3.38184471 C42.6538347,3.61331937 42.7742015,3.79618434 42.9640107,3.93043964 C43.1538199,4.06469494 43.3899241,4.13182259 43.6723232,4.13182259 C43.8667619,4.13182259 44.0392105,4.10288826 44.189669,4.0450196 C44.3401275,3.98715093 44.4801697,3.89571844 44.6097955,3.77072213 L45.1861674,4.3957037 C44.8343259,4.7984696 44.3204522,4.99985255 43.6445462,4.99985255 C43.2232623,4.99985255 42.8505881,4.91767905 42.5265236,4.75333204 C42.2024591,4.58898504 41.9524665,4.3609825 41.7765457,4.06932444 C41.600625,3.77766637 41.5126646,3.44665761 41.5126646,3.07629817 C41.5126646,2.71056821 41.5994676,2.38071683 41.7730736,2.08674402 C41.9466796,1.7927712 42.1850985,1.56361129 42.4883303,1.39926429 C42.7915621,1.23491728 43.1306725,1.15274378 43.5056614,1.15274378 C43.8713914,1.15274378 44.2024001,1.23144516 44.4986877,1.38884793 C44.7949752,1.5462507 45.0276073,1.77193848 45.1965838,2.0659113 C45.3655603,2.35988411 45.4500485,2.70130922 45.4500485,3.09018664 Z M43.5126057,1.97216406 C43.2672425,1.97216406 43.0612301,2.04160646 42.8945683,2.18049125 C42.7279066,2.31937604 42.6260577,2.50918526 42.5890218,2.7499189 L44.4292453,2.7499189 C44.3922093,2.51381475 44.2903605,2.32516291 44.1236987,2.18396337 C43.957037,2.04276383 43.7533393,1.97216406 43.5126057,1.97216406 Z" id="Shape" fill="#B5BBC5" fill-rule="nonzero"></path>
                            <path d="M47.2069411,1.70133871 C47.336567,1.52078848 47.5113303,1.38421844 47.7312312,1.29162858 C47.9511322,1.19903871 48.2045969,1.15274378 48.4916255,1.15274378 L48.4916255,2.15271429 C48.3712587,2.14345531 48.2902425,2.13882581 48.2485771,2.13882581 C47.9384011,2.13882581 47.6953527,2.22562881 47.5194319,2.3992348 C47.3435112,2.57284079 47.2555508,2.83324978 47.2555508,3.18046176 L47.2555508,4.94429863 L46.1722494,4.94429863 L46.1722494,1.2082977 L47.2069411,1.2082977 L47.2069411,1.70133871 Z" id="Path" fill="#B5BBC5" fill-rule="nonzero"></path>
                        </g>
                        <g id="International-Pictur" stroke-width="1" fill-rule="evenodd" transform="translate(76.407284, 23.901831)">
                            <polygon id="Path" fill="#B5BBC5" fill-rule="nonzero" points="0 0.60414885 1.12496682 0.60414885 1.12496682 5.46511661 0 5.46511661"></polygon>
                            <path d="M4.47209034,1.67356176 C4.93503965,1.67356176 5.30887121,1.81244655 5.59358504,2.09021614 C5.87829886,2.36798572 6.02065578,2.78001061 6.02065578,3.32629079 L6.02065578,5.46511661 L4.93735439,5.46511661 L4.93735439,3.49295254 C4.93735439,3.19666499 4.87254149,2.97560669 4.74291568,2.82977766 C4.61328987,2.68394863 4.4257954,2.61103411 4.18043227,2.61103411 C3.90729218,2.61103411 3.689706,2.69552236 3.52767374,2.86449886 C3.36564148,3.03347535 3.28462536,3.28462536 3.28462536,3.61794886 L3.28462536,5.46511661 L2.20132397,5.46511661 L2.20132397,1.72911567 L3.23601568,1.72911567 L3.23601568,2.16660277 C3.37952996,2.00920001 3.55776545,1.88767581 3.77072213,1.80203019 C3.98367881,1.71638457 4.21746821,1.67356176 4.47209034,1.67356176 Z" id="Path" fill="#B5BBC5" fill-rule="nonzero"></path>
                            <path d="M9.40944473,5.28456637 C9.30296639,5.36326776 9.17218321,5.42229379 9.01709519,5.46164449 C8.86200717,5.50099518 8.69881754,5.52067052 8.52752629,5.52067052 C8.08309495,5.52067052 7.73935509,5.40724794 7.4963067,5.18040278 C7.25325832,4.95355762 7.13173412,4.62023411 7.13173412,4.18043227 L7.13173412,2.64575531 L6.55536223,2.64575531 L6.55536223,1.81244655 L7.13173412,1.81244655 L7.13173412,0.902751155 L8.21503551,0.902751155 L8.21503551,1.81244655 L9.14556362,1.81244655 L9.14556362,2.64575531 L8.21503551,2.64575531 L8.21503551,4.16654379 C8.21503551,4.32394656 8.25554357,4.44547075 8.3365597,4.53111637 C8.41757583,4.61676199 8.53215578,4.65958481 8.68029956,4.65958481 C8.85159081,4.65958481 8.99741984,4.61328987 9.11778666,4.52070001 L9.40944473,5.28456637 Z" id="Path" fill="#B5BBC5" fill-rule="nonzero"></path>
                            <path d="M13.6801521,3.61100462 C13.6801521,3.6248931 13.6732079,3.72211245 13.6593194,3.90266268 L10.8330139,3.90266268 C10.8839383,4.13413734 11.0043051,4.31700232 11.1941143,4.45125762 C11.3839235,4.58551292 11.6200277,4.65264057 11.9024268,4.65264057 C12.0968655,4.65264057 12.2693141,4.62370623 12.4197726,4.56583757 C12.5702311,4.50796891 12.7102733,4.41653642 12.8398991,4.2915401 L13.416271,4.91652167 C13.0644295,5.31928757 12.5505558,5.52067052 11.8746498,5.52067052 C11.4533659,5.52067052 11.0806917,5.43849702 10.7566272,5.27415002 C10.4325627,5.10980301 10.1825701,4.88180047 10.0066493,4.59014241 C9.8307286,4.29848434 9.74276823,3.96747559 9.74276823,3.59711614 C9.74276823,3.23138618 9.82957123,2.9015348 10.0031772,2.60756199 C10.1767832,2.31358918 10.4152021,2.08442927 10.7184339,1.92008226 C11.0216657,1.75573526 11.3607761,1.67356176 11.735765,1.67356176 C12.101495,1.67356176 12.4325037,1.75226314 12.7287913,1.9096659 C13.0250788,2.06706867 13.2577109,2.29275646 13.4266874,2.58672927 C13.5956639,2.88070208 13.6801521,3.2221272 13.6801521,3.61100462 Z M11.7427093,2.49298203 C11.4973461,2.49298203 11.2913337,2.56242443 11.1246719,2.70130922 C10.9580102,2.84019402 10.8561613,3.03000323 10.8191254,3.27073688 L12.6593489,3.27073688 C12.6223129,3.03463273 12.5204641,2.84598088 12.3538023,2.70478134 C12.1871406,2.5635818 11.9834429,2.49298203 11.7427093,2.49298203 Z" id="Shape" fill="#B5BBC5" fill-rule="nonzero"></path>
                            <path d="M15.4370447,2.22215669 C15.5666706,2.04160646 15.7414339,1.90503641 15.9613348,1.81244655 C16.1812358,1.71985669 16.4347005,1.67356176 16.7217291,1.67356176 L16.7217291,2.67353227 C16.6013623,2.66427328 16.5203461,2.65964379 16.4786807,2.65964379 C16.1685047,2.65964379 15.9254563,2.74644678 15.7495355,2.92005277 C15.5736148,3.09365876 15.4856544,3.35406775 15.4856544,3.70127973 L15.4856544,5.46511661 L14.402353,5.46511661 L14.402353,1.72911567 L15.4370447,1.72911567 L15.4370447,2.22215669 Z" id="Path" fill="#B5BBC5" fill-rule="nonzero"></path>
                            <path d="M19.6660867,1.67356176 C20.129036,1.67356176 20.5028676,1.81244655 20.7875814,2.09021614 C21.0722952,2.36798572 21.2146521,2.78001061 21.2146521,3.32629079 L21.2146521,5.46511661 L20.1313507,5.46511661 L20.1313507,3.49295254 C20.1313507,3.19666499 20.0665378,2.97560669 19.936912,2.82977766 C19.8072862,2.68394863 19.6197918,2.61103411 19.3744286,2.61103411 C19.1012885,2.61103411 18.8837024,2.69552236 18.7216701,2.86449886 C18.5596378,3.03347535 18.4786217,3.28462536 18.4786217,3.61794886 L18.4786217,5.46511661 L17.3953203,5.46511661 L17.3953203,1.72911567 L18.430012,1.72911567 L18.430012,2.16660277 C18.5735263,2.00920001 18.7517618,1.88767581 18.9647185,1.80203019 C19.1776752,1.71638457 19.4114646,1.67356176 19.6660867,1.67356176 Z" id="Path" fill="#B5BBC5" fill-rule="nonzero"></path>
                            <path d="M23.7006899,1.67356176 C24.2793766,1.67356176 24.7238079,1.81128918 25.0339839,2.08674402 C25.34416,2.36219885 25.499248,2.77769586 25.499248,3.33323503 L25.499248,5.46511661 L24.485389,5.46511661 L24.485389,4.99985255 C24.2816913,5.34706453 23.9020729,5.52067052 23.3465337,5.52067052 C23.0595051,5.52067052 22.8106699,5.47206085 22.6000279,5.37484149 C22.389386,5.27762213 22.2285111,5.14336684 22.1174033,4.97207559 C22.0062955,4.80078435 21.9507415,4.60634564 21.9507415,4.38875946 C21.9507415,4.04154748 22.0815247,3.76840738 22.3430911,3.56933918 C22.6046574,3.37027098 23.0085807,3.27073688 23.5548609,3.27073688 L24.4159466,3.27073688 C24.4159466,3.03463273 24.3441895,2.85292512 24.2006752,2.72561406 C24.0571609,2.598303 23.8418895,2.53464747 23.5548609,2.53464747 C23.3557927,2.53464747 23.1601966,2.56589655 22.9680726,2.62839471 C22.7759487,2.69089286 22.6127591,2.77538111 22.4785038,2.88185946 L22.0896263,2.12493733 C22.293324,1.98142305 22.5375298,1.87031521 22.8222436,1.79161383 C23.1069574,1.71291245 23.3997729,1.67356176 23.7006899,1.67356176 Z M23.6173591,4.79152536 C23.8025388,4.79152536 23.9668858,4.74870255 24.1104001,4.66305693 C24.2539144,4.5774113 24.3557632,4.45125762 24.4159466,4.28459586 L24.4159466,3.90266268 L23.672913,3.90266268 C23.2284816,3.90266268 23.006266,4.04849172 23.006266,4.34014978 C23.006266,4.47903458 23.0606625,4.58898504 23.1694556,4.67000117 C23.2782487,4.75101729 23.4275498,4.79152536 23.6173591,4.79152536 Z" id="Shape" fill="#B5BBC5" fill-rule="nonzero"></path>
                            <path d="M28.8880369,5.28456637 C28.7815586,5.36326776 28.6507754,5.42229379 28.4956874,5.46164449 C28.3405994,5.50099518 28.1774098,5.52067052 28.0061185,5.52067052 C27.5616872,5.52067052 27.2179473,5.40724794 26.9748989,5.18040278 C26.7318505,4.95355762 26.6103263,4.62023411 26.6103263,4.18043227 L26.6103263,2.64575531 L26.0339545,2.64575531 L26.0339545,1.81244655 L26.6103263,1.81244655 L26.6103263,0.902751155 L27.6936277,0.902751155 L27.6936277,1.81244655 L28.6241558,1.81244655 L28.6241558,2.64575531 L27.6936277,2.64575531 L27.6936277,4.16654379 C27.6936277,4.32394656 27.7341358,4.44547075 27.8151519,4.53111637 C27.8961681,4.61676199 28.010748,4.65958481 28.1588918,4.65958481 C28.330183,4.65958481 28.4760121,4.61328987 28.5963789,4.52070001 L28.8880369,5.28456637 Z" id="Path" fill="#B5BBC5" fill-rule="nonzero"></path>
                            <path d="M29.49913,1.72911567 L30.5824314,1.72911567 L30.5824314,5.46511661 L29.49913,5.46511661 L29.49913,1.72911567 Z M30.0407807,1.2082977 C29.8417125,1.2082977 29.6796803,1.15042904 29.554684,1.03469171 C29.4296876,0.918954381 29.3671895,0.775440094 29.3671895,0.60414885 C29.3671895,0.432857605 29.4296876,0.289343319 29.554684,0.173605991 C29.6796803,0.0578686638 29.8417125,0 30.0407807,0 C30.2398489,0 30.4018812,0.0555539172 30.5268775,0.166661752 C30.6518738,0.277769586 30.714372,0.416654379 30.714372,0.583316131 C30.714372,0.763866362 30.6518738,0.913167514 30.5268775,1.03121959 C30.4018812,1.14927166 30.2398489,1.2082977 30.0407807,1.2082977 Z" id="Shape" fill="#B5BBC5" fill-rule="nonzero"></path>
                            <path d="M33.3670715,5.52067052 C32.9735646,5.52067052 32.6205658,5.43849702 32.308075,5.27415002 C31.9955842,5.10980301 31.7513784,4.88180047 31.5754577,4.59014241 C31.399537,4.29848434 31.3115766,3.96747559 31.3115766,3.59711614 C31.3115766,3.22675669 31.399537,2.89574793 31.5754577,2.60408987 C31.7513784,2.3124318 31.9955842,2.08442927 32.308075,1.92008226 C32.6205658,1.75573526 32.9735646,1.67356176 33.3670715,1.67356176 C33.7605784,1.67356176 34.1124199,1.75573526 34.422596,1.92008226 C34.732772,2.08442927 34.9758204,2.3124318 35.1517411,2.60408987 C35.3276619,2.89574793 35.4156222,3.22675669 35.4156222,3.59711614 C35.4156222,3.96747559 35.3276619,4.29848434 35.1517411,4.59014241 C34.9758204,4.88180047 34.732772,5.10980301 34.422596,5.27415002 C34.1124199,5.43849702 33.7605784,5.52067052 33.3670715,5.52067052 Z M33.3670715,4.63180785 C33.6448411,4.63180785 33.8728436,4.53806061 34.0510791,4.35056614 C34.2293146,4.16307167 34.3184324,3.91192167 34.3184324,3.59711614 C34.3184324,3.28231061 34.2293146,3.03116061 34.0510791,2.84366614 C33.8728436,2.65617167 33.6448411,2.56242443 33.3670715,2.56242443 C33.0893019,2.56242443 32.860142,2.65617167 32.6795918,2.84366614 C32.4990416,3.03116061 32.4087665,3.28231061 32.4087665,3.59711614 C32.4087665,3.91192167 32.4990416,4.16307167 32.6795918,4.35056614 C32.860142,4.53806061 33.0893019,4.63180785 33.3670715,4.63180785 Z" id="Shape" fill="#B5BBC5" fill-rule="nonzero"></path>
                            <path d="M38.4085895,1.67356176 C38.8715388,1.67356176 39.2453704,1.81244655 39.5300842,2.09021614 C39.814798,2.36798572 39.957155,2.78001061 39.957155,3.32629079 L39.957155,5.46511661 L38.8738536,5.46511661 L38.8738536,3.49295254 C38.8738536,3.19666499 38.8090407,2.97560669 38.6794149,2.82977766 C38.5497891,2.68394863 38.3622946,2.61103411 38.1169314,2.61103411 C37.8437914,2.61103411 37.6262052,2.69552236 37.4641729,2.86449886 C37.3021407,3.03347535 37.2211245,3.28462536 37.2211245,3.61794886 L37.2211245,5.46511661 L36.1378231,5.46511661 L36.1378231,1.72911567 L37.1725149,1.72911567 L37.1725149,2.16660277 C37.3160291,2.00920001 37.4942646,1.88767581 37.7072213,1.80203019 C37.920178,1.71638457 38.1539674,1.67356176 38.4085895,1.67356176 Z" id="Path" fill="#B5BBC5" fill-rule="nonzero"></path>
                            <path d="M42.4431927,1.67356176 C43.0218794,1.67356176 43.4663107,1.81128918 43.7764868,2.08674402 C44.0866628,2.36219885 44.2417508,2.77769586 44.2417508,3.33323503 L44.2417508,5.46511661 L43.2278918,5.46511661 L43.2278918,4.99985255 C43.0241941,5.34706453 42.6445757,5.52067052 42.0890365,5.52067052 C41.802008,5.52067052 41.5531727,5.47206085 41.3425308,5.37484149 C41.1318888,5.27762213 40.9710139,5.14336684 40.8599061,4.97207559 C40.7487983,4.80078435 40.6932444,4.60634564 40.6932444,4.38875946 C40.6932444,4.04154748 40.8240275,3.76840738 41.0855939,3.56933918 C41.3471603,3.37027098 41.7510835,3.27073688 42.2973637,3.27073688 L43.1584494,3.27073688 C43.1584494,3.03463273 43.0866923,2.85292512 42.943178,2.72561406 C42.7996637,2.598303 42.5843923,2.53464747 42.2973637,2.53464747 C42.0982955,2.53464747 41.9026994,2.56589655 41.7105755,2.62839471 C41.5184515,2.69089286 41.3552619,2.77538111 41.2210066,2.88185946 L40.8321291,2.12493733 C41.0358268,1.98142305 41.2800326,1.87031521 41.5647464,1.79161383 C41.8494603,1.71291245 42.1422757,1.67356176 42.4431927,1.67356176 Z M42.3598619,4.79152536 C42.5450416,4.79152536 42.7093886,4.74870255 42.8529029,4.66305693 C42.9964172,4.5774113 43.098266,4.45125762 43.1584494,4.28459586 L43.1584494,3.90266268 L42.4154158,3.90266268 C41.9709845,3.90266268 41.7487688,4.04849172 41.7487688,4.34014978 C41.7487688,4.47903458 41.8031653,4.58898504 41.9119584,4.67000117 C42.0207515,4.75101729 42.1700527,4.79152536 42.3598619,4.79152536 Z" id="Shape" fill="#B5BBC5" fill-rule="nonzero"></path>
                            <polygon id="Path" fill="#B5BBC5" fill-rule="nonzero" points="45.2208886 0.312490784 46.30419 0.312490784 46.30419 5.46511661 45.2208886 5.46511661"></polygon>
                            <path d="M51.4568158,0.60414885 C51.8873587,0.60414885 52.2611902,0.675905993 52.5783105,0.819420279 C52.8954308,0.962934565 53.1396366,1.16663226 53.3109278,1.43051337 C53.482219,1.69439447 53.5678647,2.00688526 53.5678647,2.36798572 C53.5678647,2.72445669 53.482219,3.0357901 53.3109278,3.30198595 C53.1396366,3.56818181 52.8954308,3.7718795 52.5783105,3.91307904 C52.2611902,4.05427858 51.8873587,4.12487835 51.4568158,4.12487835 L50.477678,4.12487835 L50.477678,5.46511661 L49.3527112,5.46511661 L49.3527112,0.60414885 L51.4568158,0.60414885 Z M51.3943177,3.20823872 C51.7322707,3.20823872 51.9892075,3.1353242 52.1651283,2.98949517 C52.341049,2.84366614 52.4290094,2.63649632 52.4290094,2.36798572 C52.4290094,2.09484563 52.341049,1.88536107 52.1651283,1.73953203 C51.9892075,1.593703 51.7322707,1.52078848 51.3943177,1.52078848 L50.477678,1.52078848 L50.477678,3.20823872 L51.3943177,3.20823872 Z" id="Shape" fill="#B5BBC5" fill-rule="nonzero"></path>
                            <path d="M54.359508,1.72911567 L55.4428094,1.72911567 L55.4428094,5.46511661 L54.359508,5.46511661 L54.359508,1.72911567 Z M54.9011587,1.2082977 C54.7020905,1.2082977 54.5400582,1.15042904 54.4150619,1.03469171 C54.2900656,0.918954381 54.2275674,0.775440094 54.2275674,0.60414885 C54.2275674,0.432857605 54.2900656,0.289343319 54.4150619,0.173605991 C54.5400582,0.0578686638 54.7020905,0 54.9011587,0 C55.1002269,0 55.2622591,0.0555539172 55.3872555,0.166661752 C55.5122518,0.277769586 55.5747499,0.416654379 55.5747499,0.583316131 C55.5747499,0.763866362 55.5122518,0.913167514 55.3872555,1.03121959 C55.2622591,1.14927166 55.1002269,1.2082977 54.9011587,1.2082977 Z" id="Shape" fill="#B5BBC5" fill-rule="nonzero"></path>
                            <path d="M58.2552264,5.52067052 C57.85709,5.52067052 57.4994617,5.43849702 57.1823414,5.27415002 C56.8652211,5.10980301 56.6175433,4.88180047 56.4393078,4.59014241 C56.2610723,4.29848434 56.1719545,3.96747559 56.1719545,3.59711614 C56.1719545,3.22675669 56.2610723,2.89574793 56.4393078,2.60408987 C56.6175433,2.3124318 56.8652211,2.08442927 57.1823414,1.92008226 C57.4994617,1.75573526 57.85709,1.67356176 58.2552264,1.67356176 C58.6487333,1.67356176 58.9924732,1.75573526 59.286446,1.92008226 C59.5804188,2.08442927 59.7945329,2.31937604 59.9287882,2.62492259 L59.0885352,3.07629817 C58.8940965,2.73371568 58.6140121,2.56242443 58.2482822,2.56242443 C57.9658831,2.56242443 57.7320937,2.65501429 57.546914,2.84019402 C57.3617343,3.02537374 57.2691444,3.27768112 57.2691444,3.59711614 C57.2691444,3.91655116 57.3617343,4.16885854 57.546914,4.35403826 C57.7320937,4.53921799 57.9658831,4.63180785 58.2482822,4.63180785 C58.6186416,4.63180785 58.898726,4.4605166 59.0885352,4.11793411 L59.9287882,4.57625393 C59.7945329,4.87254149 59.5804188,5.10401614 59.286446,5.2706779 C58.9924732,5.43733965 58.6487333,5.52067052 58.2552264,5.52067052 Z" id="Path" fill="#B5BBC5" fill-rule="nonzero"></path>
                            <path d="M62.9634209,5.28456637 C62.8569426,5.36326776 62.7261594,5.42229379 62.5710714,5.46164449 C62.4159834,5.50099518 62.2527937,5.52067052 62.0815025,5.52067052 C61.6370711,5.52067052 61.2933313,5.40724794 61.0502829,5.18040278 C60.8072345,4.95355762 60.6857103,4.62023411 60.6857103,4.18043227 L60.6857103,2.64575531 L60.1093384,2.64575531 L60.1093384,1.81244655 L60.6857103,1.81244655 L60.6857103,0.902751155 L61.7690117,0.902751155 L61.7690117,1.81244655 L62.6995398,1.81244655 L62.6995398,2.64575531 L61.7690117,2.64575531 L61.7690117,4.16654379 C61.7690117,4.32394656 61.8095198,4.44547075 61.8905359,4.53111637 C61.971552,4.61676199 62.086132,4.65958481 62.2342758,4.65958481 C62.405567,4.65958481 62.551396,4.61328987 62.6717629,4.52070001 L62.9634209,5.28456637 Z" id="Path" fill="#B5BBC5" fill-rule="nonzero"></path>
                            <path d="M67.3382919,1.72911567 L67.3382919,5.46511661 L66.3105444,5.46511661 L66.3105444,5.02068527 C66.1670301,5.18271753 65.9957389,5.30655647 65.7966707,5.39220209 C65.5976025,5.47784771 65.3823311,5.52067052 65.1508564,5.52067052 C64.6601301,5.52067052 64.2712527,5.37947098 63.9842241,5.0970719 C63.6971956,4.81467282 63.5536813,4.3957037 63.5536813,3.84016453 L63.5536813,1.72911567 L64.6369827,1.72911567 L64.6369827,3.68044702 C64.6369827,4.28228112 64.88929,4.58319817 65.3939048,4.58319817 C65.6531564,4.58319817 65.8614836,4.49870992 66.0188864,4.32973342 C66.1762891,4.16075692 66.2549905,3.90960692 66.2549905,3.57628342 L66.2549905,1.72911567 L67.3382919,1.72911567 Z" id="Path" fill="#B5BBC5" fill-rule="nonzero"></path>
                            <path d="M69.3798984,2.22215669 C69.5095242,2.04160646 69.6842875,1.90503641 69.9041884,1.81244655 C70.1240894,1.71985669 70.3775541,1.67356176 70.6645827,1.67356176 L70.6645827,2.67353227 C70.5442159,2.66427328 70.4631997,2.65964379 70.4215343,2.65964379 C70.1113583,2.65964379 69.8683099,2.74644678 69.6923891,2.92005277 C69.5164684,3.09365876 69.428508,3.35406775 69.428508,3.70127973 L69.428508,5.46511661 L68.3452066,5.46511661 L68.3452066,1.72911567 L69.3798984,1.72911567 L69.3798984,2.22215669 Z" id="Path" fill="#B5BBC5" fill-rule="nonzero"></path>
                            <path d="M74.9977882,3.61100462 C74.9977882,3.6248931 74.990844,3.72211245 74.9769555,3.90266268 L72.15065,3.90266268 C72.2015744,4.13413734 72.3219412,4.31700232 72.5117504,4.45125762 C72.7015597,4.58551292 72.9376638,4.65264057 73.2200629,4.65264057 C73.4145016,4.65264057 73.5869502,4.62370623 73.7374087,4.56583757 C73.8878673,4.50796891 74.0279094,4.41653642 74.1575352,4.2915401 L74.7339071,4.91652167 C74.3820657,5.31928757 73.8681919,5.52067052 73.1922859,5.52067052 C72.7710021,5.52067052 72.3983279,5.43849702 72.0742633,5.27415002 C71.7501988,5.10980301 71.5002062,4.88180047 71.3242855,4.59014241 C71.1483647,4.29848434 71.0604044,3.96747559 71.0604044,3.59711614 C71.0604044,3.23138618 71.1472073,2.9015348 71.3208133,2.60756199 C71.4944193,2.31358918 71.7328382,2.08442927 72.03607,1.92008226 C72.3393018,1.75573526 72.6784122,1.67356176 73.0534011,1.67356176 C73.4191311,1.67356176 73.7501398,1.75226314 74.0464274,1.9096659 C74.342715,2.06706867 74.575347,2.29275646 74.7443235,2.58672927 C74.9133,2.88070208 74.9977882,3.2221272 74.9977882,3.61100462 Z M73.0603454,2.49298203 C72.8149822,2.49298203 72.6089698,2.56242443 72.442308,2.70130922 C72.2756463,2.84019402 72.1737974,3.03000323 72.1367615,3.27073688 L73.976985,3.27073688 C73.9399491,3.03463273 73.8381002,2.84598088 73.6714385,2.70478134 C73.5047767,2.5635818 73.301079,2.49298203 73.0603454,2.49298203 Z" id="Shape" fill="#B5BBC5" fill-rule="nonzero"></path>
                            <path d="M76.9768965,5.52067052 C76.6667205,5.52067052 76.3634887,5.4824772 76.0672011,5.40609057 C75.7709136,5.32970393 75.5348094,5.23364195 75.3588887,5.11790462 L75.7199892,4.34014978 C75.8866509,4.44662812 76.0880339,4.53343112 76.324138,4.60055877 C76.5602422,4.66768642 76.7917168,4.70125024 77.018562,4.70125024 C77.4768818,4.70125024 77.7060417,4.58782766 77.7060417,4.3609825 C77.7060417,4.25450416 77.6435435,4.17811752 77.5185472,4.13182259 C77.3935509,4.08552766 77.2014269,4.04617697 76.9421753,4.01377052 C76.6366288,3.96747559 76.3843214,3.91423642 76.1852532,3.85405301 C75.986185,3.7938696 75.8137364,3.68739125 75.6679074,3.53461798 C75.5220783,3.38184471 75.4491638,3.16425853 75.4491638,2.88185946 C75.4491638,2.64575531 75.5174488,2.43627074 75.6540189,2.25340577 C75.7905889,2.07054079 75.9896571,1.92818388 76.2512235,1.82633503 C76.5127899,1.72448618 76.8218085,1.67356176 77.1782795,1.67356176 C77.4421606,1.67356176 77.7048843,1.70249609 77.9664507,1.76036475 C78.228017,1.81823342 78.4444458,1.89809217 78.6157371,1.99994102 L78.2546366,2.77075162 C77.9259426,2.5855719 77.5671569,2.49298203 77.1782795,2.49298203 C76.9468048,2.49298203 76.7731988,2.52538849 76.6574615,2.59020139 C76.5417242,2.65501429 76.4838555,2.73834517 76.4838555,2.84019402 C76.4838555,2.95593134 76.5463537,3.03694747 76.67135,3.08324241 C76.7963463,3.12953734 76.9954145,3.17351752 77.2685546,3.21518296 C77.5741011,3.26610738 77.8240938,3.32050393 78.0185325,3.37837259 C78.2129712,3.43624125 78.3819477,3.54156222 78.525462,3.69433549 C78.6689763,3.84710877 78.7407334,4.06006545 78.7407334,4.33320554 C78.7407334,4.5646802 78.671291,4.77069264 78.5324062,4.95124287 C78.3935214,5.1317931 78.1909811,5.27183527 77.9247852,5.37136937 C77.6585894,5.47090347 77.3426265,5.52067052 76.9768965,5.52067052 Z" id="Path" fill="#B5BBC5" fill-rule="nonzero"></path>
                        </g>
                        <g id="Country-Films" stroke-width="1" fill-rule="evenodd" transform="translate(76.518652, 47.627607)">
                            <path d="M2.63186683,5.54844748 C2.13651107,5.54844748 1.68860761,5.44081177 1.28815646,5.22554034 C0.887705302,5.01026891 0.572899771,4.7116666 0.343739863,4.32973342 C0.114579954,3.94780024 0,3.51610001 0,3.03463273 C0,2.55316545 0.114579954,2.12146521 0.343739863,1.73953203 C0.572899771,1.35759885 0.887705302,1.05899655 1.28815646,0.843725118 C1.68860761,0.628453688 2.13882581,0.520817974 2.63881107,0.520817974 C3.06009494,0.520817974 3.44087075,0.594889863 3.78113849,0.743033643 C4.12140623,0.891177422 4.40727743,1.1041341 4.63875209,1.38190369 L3.91655116,2.0485507 C3.58785715,1.66893226 3.18046176,1.47912305 2.69436498,1.47912305 C2.39344793,1.47912305 2.12493733,1.54509332 1.88883319,1.67703388 C1.65272904,1.80897443 1.46870669,1.99299678 1.33676613,2.22910093 C1.20482558,2.46520508 1.1388553,2.73371568 1.1388553,3.03463273 C1.1388553,3.33554978 1.20482558,3.60406038 1.33676613,3.84016453 C1.46870669,4.07626868 1.65272904,4.26029103 1.88883319,4.39223158 C2.12493733,4.52417213 2.39344793,4.59014241 2.69436498,4.59014241 C3.18046176,4.59014241 3.58785715,4.39801845 3.91655116,4.01377052 L4.63875209,4.68041752 C4.40727743,4.9628166 4.12024886,5.17808803 3.77766637,5.32623181 C3.43508388,5.47437559 3.0531507,5.54844748 2.63186683,5.54844748 Z" id="Path" fill="#B5BBC5" fill-rule="nonzero"></path>
                            <path d="M7.09701292,5.52067052 C6.70350601,5.52067052 6.35050716,5.43849702 6.03801638,5.27415002 C5.72552559,5.10980301 5.48131983,4.88180047 5.30539909,4.59014241 C5.12947836,4.29848434 5.04151799,3.96747559 5.04151799,3.59711614 C5.04151799,3.22675669 5.12947836,2.89574793 5.30539909,2.60408987 C5.48131983,2.3124318 5.72552559,2.08442927 6.03801638,1.92008226 C6.35050716,1.75573526 6.70350601,1.67356176 7.09701292,1.67356176 C7.49051984,1.67356176 7.84236131,1.75573526 8.15253735,1.92008226 C8.46271339,2.08442927 8.70576178,2.3124318 8.88168251,2.60408987 C9.05760325,2.89574793 9.14556362,3.22675669 9.14556362,3.59711614 C9.14556362,3.96747559 9.05760325,4.29848434 8.88168251,4.59014241 C8.70576178,4.88180047 8.46271339,5.10980301 8.15253735,5.27415002 C7.84236131,5.43849702 7.49051984,5.52067052 7.09701292,5.52067052 Z M7.09701292,4.63180785 C7.37478251,4.63180785 7.60278504,4.53806061 7.78102053,4.35056614 C7.95925601,4.16307167 8.04837376,3.91192167 8.04837376,3.59711614 C8.04837376,3.28231061 7.95925601,3.03116061 7.78102053,2.84366614 C7.60278504,2.65617167 7.37478251,2.56242443 7.09701292,2.56242443 C6.81924334,2.56242443 6.59008343,2.65617167 6.4095332,2.84366614 C6.22898297,3.03116061 6.13870785,3.28231061 6.13870785,3.59711614 C6.13870785,3.91192167 6.22898297,4.16307167 6.4095332,4.35056614 C6.59008343,4.53806061 6.81924334,4.63180785 7.09701292,4.63180785 Z" id="Shape" fill="#B5BBC5" fill-rule="nonzero"></path>
                            <path d="M13.6315424,1.72911567 L13.6315424,5.46511661 L12.603795,5.46511661 L12.603795,5.02068527 C12.4602807,5.18271753 12.2889894,5.30655647 12.0899212,5.39220209 C11.890853,5.47784771 11.6755816,5.52067052 11.4441069,5.52067052 C10.9533807,5.52067052 10.5645033,5.37947098 10.2774747,5.0970719 C9.99044611,4.81467282 9.84693183,4.3957037 9.84693183,3.84016453 L9.84693183,1.72911567 L10.9302332,1.72911567 L10.9302332,3.68044702 C10.9302332,4.28228112 11.1825406,4.58319817 11.6871553,4.58319817 C11.9464069,4.58319817 12.1547341,4.49870992 12.3121369,4.32973342 C12.4695397,4.16075692 12.548241,3.90960692 12.548241,3.57628342 L12.548241,1.72911567 L13.6315424,1.72911567 Z" id="Path" fill="#B5BBC5" fill-rule="nonzero"></path>
                            <path d="M16.9092236,1.67356176 C17.3721729,1.67356176 17.7460044,1.81244655 18.0307183,2.09021614 C18.3154321,2.36798572 18.457789,2.78001061 18.457789,3.32629079 L18.457789,5.46511661 L17.3744876,5.46511661 L17.3744876,3.49295254 C17.3744876,3.19666499 17.3096747,2.97560669 17.1800489,2.82977766 C17.0504231,2.68394863 16.8629286,2.61103411 16.6175655,2.61103411 C16.3444254,2.61103411 16.1268392,2.69552236 15.964807,2.86449886 C15.8027747,3.03347535 15.7217586,3.28462536 15.7217586,3.61794886 L15.7217586,5.46511661 L14.6384572,5.46511661 L14.6384572,1.72911567 L15.6731489,1.72911567 L15.6731489,2.16660277 C15.8166632,2.00920001 15.9948987,1.88767581 16.2078553,1.80203019 C16.420812,1.71638457 16.6546014,1.67356176 16.9092236,1.67356176 Z" id="Path" fill="#B5BBC5" fill-rule="nonzero"></path>
                            <path d="M21.8465779,5.28456637 C21.7400996,5.36326776 21.6093164,5.42229379 21.4542284,5.46164449 C21.2991404,5.50099518 21.1359508,5.52067052 20.9646595,5.52067052 C20.5202282,5.52067052 20.1764883,5.40724794 19.9334399,5.18040278 C19.6903915,4.95355762 19.5688673,4.62023411 19.5688673,4.18043227 L19.5688673,2.64575531 L18.9924954,2.64575531 L18.9924954,1.81244655 L19.5688673,1.81244655 L19.5688673,0.902751155 L20.6521687,0.902751155 L20.6521687,1.81244655 L21.5826968,1.81244655 L21.5826968,2.64575531 L20.6521687,2.64575531 L20.6521687,4.16654379 C20.6521687,4.32394656 20.6926768,4.44547075 20.7736929,4.53111637 C20.854709,4.61676199 20.969289,4.65958481 21.1174328,4.65958481 C21.288724,4.65958481 21.4345531,4.61328987 21.5549199,4.52070001 L21.8465779,5.28456637 Z" id="Path" fill="#B5BBC5" fill-rule="nonzero"></path>
                            <path d="M23.4923627,2.22215669 C23.6219885,2.04160646 23.7967519,1.90503641 24.0166528,1.81244655 C24.2365538,1.71985669 24.4900185,1.67356176 24.7770471,1.67356176 L24.7770471,2.67353227 C24.6566803,2.66427328 24.5756641,2.65964379 24.5339987,2.65964379 C24.2238227,2.65964379 23.9807743,2.74644678 23.8048535,2.92005277 C23.6289328,3.09365876 23.5409724,3.35406775 23.5409724,3.70127973 L23.5409724,5.46511661 L22.457671,5.46511661 L22.457671,1.72911567 L23.4923627,1.72911567 L23.4923627,2.22215669 Z" id="Path" fill="#B5BBC5" fill-rule="nonzero"></path>
                            <path d="M29.1588623,1.72911567 L27.4714121,5.69427651 C27.3001208,6.12481937 27.0883215,6.42805117 26.8360141,6.60397191 C26.5837068,6.77989265 26.2793176,6.86785302 25.9228466,6.86785302 C25.7284079,6.86785302 25.5362839,6.83776131 25.3464747,6.7775779 C25.1566655,6.71739449 25.0015775,6.63406361 24.8812107,6.52758527 L25.2770323,5.75677467 C25.3603632,5.83084656 25.4564252,5.88871522 25.5652183,5.93038066 C25.6740114,5.9720461 25.7816471,5.99287882 25.8881254,5.99287882 C26.0362692,5.99287882 26.156636,5.95700025 26.2492259,5.8852431 C26.3418157,5.81348596 26.4251466,5.69427651 26.4992185,5.52761476 L26.513107,5.49289356 L24.8950991,1.72911567 L26.0131217,1.72911567 L27.0617019,4.26376315 L28.1172263,1.72911567 L29.1588623,1.72911567 Z" id="Path" fill="#B5BBC5" fill-rule="nonzero"></path>
                            <polygon id="Path" fill="#B5BBC5" fill-rule="nonzero" points="32.7698669 1.5069 32.7698669 2.79158434 35.0198006 2.79158434 35.0198006 3.69433549 32.7698669 3.69433549 32.7698669 5.46511661 31.6449001 5.46511661 31.6449001 0.60414885 35.3184029 0.60414885 35.3184029 1.5069"></polygon>
                            <path d="M36.0058826,1.72911567 L37.089184,1.72911567 L37.089184,5.46511661 L36.0058826,5.46511661 L36.0058826,1.72911567 Z M36.5475333,1.2082977 C36.3484651,1.2082977 36.1864328,1.15042904 36.0614365,1.03469171 C35.9364402,0.918954381 35.873942,0.775440094 35.873942,0.60414885 C35.873942,0.432857605 35.9364402,0.289343319 36.0614365,0.173605991 C36.1864328,0.0578686638 36.3484651,0 36.5475333,0 C36.7466015,0 36.9086337,0.0555539172 37.0336301,0.166661752 C37.1586264,0.277769586 37.2211245,0.416654379 37.2211245,0.583316131 C37.2211245,0.763866362 37.1586264,0.913167514 37.0336301,1.03121959 C36.9086337,1.14927166 36.7466015,1.2082977 36.5475333,1.2082977 Z" id="Shape" fill="#B5BBC5" fill-rule="nonzero"></path>
                            <polygon id="Path" fill="#B5BBC5" fill-rule="nonzero" points="38.0960987 0.312490784 39.1794001 0.312490784 39.1794001 5.46511661 38.0960987 5.46511661"></polygon>
                            <path d="M44.970896,1.67356176 C45.4384748,1.67356176 45.8099916,1.81128918 46.0854464,2.08674402 C46.3609013,2.36219885 46.4986287,2.77538111 46.4986287,3.32629079 L46.4986287,5.46511661 L45.4153273,5.46511661 L45.4153273,3.49295254 C45.4153273,3.19666499 45.3539865,2.97560669 45.231305,2.82977766 C45.1086234,2.68394863 44.93386,2.61103411 44.7070149,2.61103411 C44.4523928,2.61103411 44.2510098,2.69320761 44.102866,2.85755462 C43.9547222,3.02190162 43.8806504,3.26610738 43.8806504,3.5901719 L43.8806504,5.46511661 L42.797349,5.46511661 L42.797349,3.49295254 C42.797349,2.90500692 42.5612448,2.61103411 42.0890365,2.61103411 C41.8390439,2.61103411 41.6399757,2.69320761 41.4918319,2.85755462 C41.3436881,3.02190162 41.2696162,3.26610738 41.2696162,3.5901719 L41.2696162,5.46511661 L40.1863149,5.46511661 L40.1863149,1.72911567 L41.2210066,1.72911567 L41.2210066,2.15965853 C41.3598914,2.00225577 41.5300252,1.88188895 41.7314082,1.79855807 C41.9327911,1.71522719 42.1538494,1.67356176 42.3945831,1.67356176 C42.6584642,1.67356176 42.8968831,1.72564355 43.1098398,1.82980715 C43.3227964,1.93397074 43.4940877,2.08558664 43.6237135,2.28465485 C43.7764868,2.09021614 43.9697681,1.93975761 44.2035575,1.83327927 C44.4373469,1.72680093 44.6931264,1.67356176 44.970896,1.67356176 Z" id="Path" fill="#B5BBC5" fill-rule="nonzero"></path>
                            <path d="M48.7277296,5.52067052 C48.4175536,5.52067052 48.1143218,5.4824772 47.8180342,5.40609057 C47.5217467,5.32970393 47.2856425,5.23364195 47.1097218,5.11790462 L47.4708223,4.34014978 C47.637484,4.44662812 47.838867,4.53343112 48.0749711,4.60055877 C48.3110753,4.66768642 48.5425499,4.70125024 48.7693951,4.70125024 C49.2277149,4.70125024 49.4568748,4.58782766 49.4568748,4.3609825 C49.4568748,4.25450416 49.3943766,4.17811752 49.2693803,4.13182259 C49.144384,4.08552766 48.95226,4.04617697 48.6930084,4.01377052 C48.3874619,3.96747559 48.1351545,3.91423642 47.9360863,3.85405301 C47.7370181,3.7938696 47.5645695,3.68739125 47.4187405,3.53461798 C47.2729114,3.38184471 47.1999969,3.16425853 47.1999969,2.88185946 C47.1999969,2.64575531 47.2682819,2.43627074 47.404852,2.25340577 C47.541422,2.07054079 47.7404902,1.92818388 48.0020566,1.82633503 C48.2636229,1.72448618 48.5726416,1.67356176 48.9291126,1.67356176 C49.1929937,1.67356176 49.4557174,1.70249609 49.7172838,1.76036475 C49.9788501,1.81823342 50.1952789,1.89809217 50.3665702,1.99994102 L50.0054697,2.77075162 C49.6767757,2.5855719 49.31799,2.49298203 48.9291126,2.49298203 C48.6976379,2.49298203 48.5240319,2.52538849 48.4082946,2.59020139 C48.2925573,2.65501429 48.2346886,2.73834517 48.2346886,2.84019402 C48.2346886,2.95593134 48.2971868,3.03694747 48.4221831,3.08324241 C48.5471794,3.12953734 48.7462476,3.17351752 49.0193877,3.21518296 C49.3249342,3.26610738 49.5749269,3.32050393 49.7693656,3.37837259 C49.9638043,3.43624125 50.1327808,3.54156222 50.2762951,3.69433549 C50.4198094,3.84710877 50.4915665,4.06006545 50.4915665,4.33320554 C50.4915665,4.5646802 50.4221241,4.77069264 50.2832393,4.95124287 C50.1443545,5.1317931 49.9418142,5.27183527 49.6756183,5.37136937 C49.4094225,5.47090347 49.0934596,5.52067052 48.7277296,5.52067052 Z" id="Path" fill="#B5BBC5" fill-rule="nonzero"></path>
                        </g>
                        <g id="Terra-Distribution" stroke-width="1" fill-rule="evenodd" transform="translate(76.923978, 72.353384)">
                            <polygon id="Path" fill="#B5BBC5" fill-rule="nonzero" points="1.55550968 1.52078848 0 1.52078848 0 0.60414885 4.23598619 0.60414885 4.23598619 1.52078848 2.68047651 1.52078848 2.68047651 5.46511661 1.55550968 5.46511661"></polygon>
                            <path d="M8.4233627,3.61100462 C8.4233627,3.6248931 8.41641846,3.72211245 8.40252998,3.90266268 L5.57622444,3.90266268 C5.62714886,4.13413734 5.74751568,4.31700232 5.9373249,4.45125762 C6.12713412,4.58551292 6.36323827,4.65264057 6.64563735,4.65264057 C6.84007606,4.65264057 7.01252467,4.62370623 7.1629832,4.56583757 C7.31344173,4.50796891 7.45348389,4.41653642 7.5831097,4.2915401 L8.15948159,4.91652167 C7.80764011,5.31928757 7.29376638,5.52067052 6.61786039,5.52067052 C6.19657652,5.52067052 5.82390232,5.43849702 5.4998378,5.27415002 C5.17577329,5.10980301 4.92578066,4.88180047 4.74985992,4.59014241 C4.57393918,4.29848434 4.48597881,3.96747559 4.48597881,3.59711614 C4.48597881,3.23138618 4.57278181,2.9015348 4.7463878,2.60756199 C4.91999379,2.31358918 5.15841269,2.08442927 5.46164449,1.92008226 C5.76487628,1.75573526 6.10398665,1.67356176 6.47897559,1.67356176 C6.84470555,1.67356176 7.17571431,1.75226314 7.47200186,1.9096659 C7.76828942,2.06706867 8.00092145,2.29275646 8.16989795,2.58672927 C8.33887445,2.88070208 8.4233627,3.2221272 8.4233627,3.61100462 Z M6.48591983,2.49298203 C6.2405567,2.49298203 6.03454426,2.56242443 5.86788251,2.70130922 C5.70122075,2.84019402 5.59937191,3.03000323 5.56233596,3.27073688 L7.40255947,3.27073688 C7.36552352,3.03463273 7.26367468,2.84598088 7.09701292,2.70478134 C6.93035117,2.5635818 6.72665348,2.49298203 6.48591983,2.49298203 Z" id="Shape" fill="#B5BBC5" fill-rule="nonzero"></path>
                            <path d="M10.1802553,2.22215669 C10.3098811,2.04160646 10.4846445,1.90503641 10.7045454,1.81244655 C10.9244463,1.71985669 11.1779111,1.67356176 11.4649397,1.67356176 L11.4649397,2.67353227 C11.3445728,2.66427328 11.2635567,2.65964379 11.2218913,2.65964379 C10.9117152,2.65964379 10.6686669,2.74644678 10.4927461,2.92005277 C10.3168254,3.09365876 10.228865,3.35406775 10.228865,3.70127973 L10.228865,5.46511661 L9.14556362,5.46511661 L9.14556362,1.72911567 L10.1802553,1.72911567 L10.1802553,2.22215669 Z" id="Path" fill="#B5BBC5" fill-rule="nonzero"></path>
                            <path d="M13.1732226,2.22215669 C13.3028484,2.04160646 13.4776118,1.90503641 13.6975127,1.81244655 C13.9174136,1.71985669 14.1708784,1.67356176 14.457907,1.67356176 L14.457907,2.67353227 C14.3375401,2.66427328 14.256524,2.65964379 14.2148586,2.65964379 C13.9046825,2.65964379 13.6616341,2.74644678 13.4857134,2.92005277 C13.3097927,3.09365876 13.2218323,3.35406775 13.2218323,3.70127973 L13.2218323,5.46511661 L12.1385309,5.46511661 L12.1385309,1.72911567 L13.1732226,1.72911567 L13.1732226,2.22215669 Z" id="Path" fill="#B5BBC5" fill-rule="nonzero"></path>
                            <path d="M16.6383982,1.67356176 C17.2170848,1.67356176 17.6615162,1.81128918 17.9716922,2.08674402 C18.2818683,2.36219885 18.4369563,2.77769586 18.4369563,3.33323503 L18.4369563,5.46511661 L17.4230973,5.46511661 L17.4230973,4.99985255 C17.2193996,5.34706453 16.8397812,5.52067052 16.284242,5.52067052 C15.9972134,5.52067052 15.7483782,5.47206085 15.5377362,5.37484149 C15.3270943,5.27762213 15.1662194,5.14336684 15.0551116,4.97207559 C14.9440037,4.80078435 14.8884498,4.60634564 14.8884498,4.38875946 C14.8884498,4.04154748 15.019233,3.76840738 15.2807994,3.56933918 C15.5423657,3.37027098 15.946289,3.27073688 16.4925692,3.27073688 L17.3536549,3.27073688 C17.3536549,3.03463273 17.2818977,2.85292512 17.1383835,2.72561406 C16.9948692,2.598303 16.7795977,2.53464747 16.4925692,2.53464747 C16.293501,2.53464747 16.0979049,2.56589655 15.9057809,2.62839471 C15.713657,2.69089286 15.5504673,2.77538111 15.416212,2.88185946 L15.0273346,2.12493733 C15.2310323,1.98142305 15.4752381,1.87031521 15.7599519,1.79161383 C16.0446657,1.71291245 16.3374812,1.67356176 16.6383982,1.67356176 Z M16.5550673,4.79152536 C16.7402471,4.79152536 16.9045941,4.74870255 17.0481083,4.66305693 C17.1916226,4.5774113 17.2934715,4.45125762 17.3536549,4.28459586 L17.3536549,3.90266268 L16.6106212,3.90266268 C16.1661899,3.90266268 15.9439742,4.04849172 15.9439742,4.34014978 C15.9439742,4.47903458 15.9983708,4.58898504 16.1071639,4.67000117 C16.215957,4.75101729 16.3652581,4.79152536 16.5550673,4.79152536 Z" id="Shape" fill="#B5BBC5" fill-rule="nonzero"></path>
                            <path d="M21.4577005,0.60414885 L23.6659687,0.60414885 C24.1937309,0.60414885 24.6601524,0.704840325 25.065233,0.906223274 C25.4703137,1.10760622 25.7851192,1.39116268 26.0096496,1.75689263 C26.23418,2.12262259 26.3464452,2.54853595 26.3464452,3.03463273 C26.3464452,3.5207295 26.23418,3.94664287 26.0096496,4.31237282 C25.7851192,4.67810278 25.4703137,4.96165923 25.065233,5.16304218 C24.6601524,5.36442513 24.1937309,5.46511661 23.6659687,5.46511661 L21.4577005,5.46511661 L21.4577005,0.60414885 Z M23.6104148,4.54153273 C24.0965116,4.54153273 24.4842316,4.40612006 24.773575,4.13529471 C25.0629183,3.86446937 25.2075899,3.49758204 25.2075899,3.03463273 C25.2075899,2.57168342 25.0629183,2.20479609 24.773575,1.93397074 C24.4842316,1.6631454 24.0965116,1.52773272 23.6104148,1.52773272 L22.5826673,1.52773272 L22.5826673,4.54153273 L23.6104148,4.54153273 Z" id="Shape" fill="#B5BBC5" fill-rule="nonzero"></path>
                            <path d="M27.1172558,1.72911567 L28.2005572,1.72911567 L28.2005572,5.46511661 L27.1172558,5.46511661 L27.1172558,1.72911567 Z M27.6589065,1.2082977 C27.4598383,1.2082977 27.2978061,1.15042904 27.1728098,1.03469171 C27.0478134,0.918954381 26.9853153,0.775440094 26.9853153,0.60414885 C26.9853153,0.432857605 27.0478134,0.289343319 27.1728098,0.173605991 C27.2978061,0.0578686638 27.4598383,0 27.6589065,0 C27.8579747,0 28.020007,0.0555539172 28.1450033,0.166661752 C28.2699996,0.277769586 28.3324978,0.416654379 28.3324978,0.583316131 C28.3324978,0.763866362 28.2699996,0.913167514 28.1450033,1.03121959 C28.020007,1.14927166 27.8579747,1.2082977 27.6589065,1.2082977 Z" id="Shape" fill="#B5BBC5" fill-rule="nonzero"></path>
                            <path d="M30.4643794,5.52067052 C30.1542033,5.52067052 29.8509715,5.4824772 29.554684,5.40609057 C29.2583964,5.32970393 29.0222922,5.23364195 28.8463715,5.11790462 L29.207472,4.34014978 C29.3741337,4.44662812 29.5755167,4.53343112 29.8116208,4.60055877 C30.047725,4.66768642 30.2791996,4.70125024 30.5060448,4.70125024 C30.9643646,4.70125024 31.1935245,4.58782766 31.1935245,4.3609825 C31.1935245,4.25450416 31.1310264,4.17811752 31.00603,4.13182259 C30.8810337,4.08552766 30.6889098,4.04617697 30.4296582,4.01377052 C30.1241116,3.96747559 29.8718042,3.91423642 29.672736,3.85405301 C29.4736678,3.7938696 29.3012192,3.68739125 29.1553902,3.53461798 C29.0095611,3.38184471 28.9366466,3.16425853 28.9366466,2.88185946 C28.9366466,2.64575531 29.0049317,2.43627074 29.1415017,2.25340577 C29.2780717,2.07054079 29.4771399,1.92818388 29.7387063,1.82633503 C30.0002727,1.72448618 30.3092913,1.67356176 30.6657623,1.67356176 C30.9296434,1.67356176 31.1923671,1.70249609 31.4539335,1.76036475 C31.7154999,1.81823342 31.9319287,1.89809217 32.1032199,1.99994102 L31.7421194,2.77075162 C31.4134254,2.5855719 31.0546397,2.49298203 30.6657623,2.49298203 C30.4342876,2.49298203 30.2606817,2.52538849 30.1449443,2.59020139 C30.029207,2.65501429 29.9713383,2.73834517 29.9713383,2.84019402 C29.9713383,2.95593134 30.0338365,3.03694747 30.1588328,3.08324241 C30.2838291,3.12953734 30.4828973,3.17351752 30.7560374,3.21518296 C31.061584,3.26610738 31.3115766,3.32050393 31.5060153,3.37837259 C31.700454,3.43624125 31.8694305,3.54156222 32.0129448,3.69433549 C32.1564591,3.84710877 32.2282162,4.06006545 32.2282162,4.33320554 C32.2282162,4.5646802 32.1587738,4.77069264 32.019889,4.95124287 C31.8810042,5.1317931 31.6784639,5.27183527 31.4122681,5.37136937 C31.1460722,5.47090347 30.8301093,5.52067052 30.4643794,5.52067052 Z" id="Path" fill="#B5BBC5" fill-rule="nonzero"></path>
                            <path d="M35.3045144,5.28456637 C35.198036,5.36326776 35.0672529,5.42229379 34.9121648,5.46164449 C34.7570768,5.50099518 34.5938872,5.52067052 34.422596,5.52067052 C33.9781646,5.52067052 33.6344248,5.40724794 33.3913764,5.18040278 C33.148328,4.95355762 33.0268038,4.62023411 33.0268038,4.18043227 L33.0268038,2.64575531 L32.4504319,2.64575531 L32.4504319,1.81244655 L33.0268038,1.81244655 L33.0268038,0.902751155 L34.1101052,0.902751155 L34.1101052,1.81244655 L35.0406333,1.81244655 L35.0406333,2.64575531 L34.1101052,2.64575531 L34.1101052,4.16654379 C34.1101052,4.32394656 34.1506132,4.44547075 34.2316294,4.53111637 C34.3126455,4.61676199 34.4272254,4.65958481 34.5753692,4.65958481 C34.7466605,4.65958481 34.8924895,4.61328987 35.0128563,4.52070001 L35.3045144,5.28456637 Z" id="Path" fill="#B5BBC5" fill-rule="nonzero"></path>
                            <path d="M36.9502992,2.22215669 C37.079925,2.04160646 37.2546884,1.90503641 37.4745893,1.81244655 C37.6944902,1.71985669 37.9479549,1.67356176 38.2349835,1.67356176 L38.2349835,2.67353227 C38.1146167,2.66427328 38.0336006,2.65964379 37.9919351,2.65964379 C37.6817591,2.65964379 37.4387107,2.74644678 37.26279,2.92005277 C37.0868692,3.09365876 36.9989089,3.35406775 36.9989089,3.70127973 L36.9989089,5.46511661 L35.9156075,5.46511661 L35.9156075,1.72911567 L36.9502992,1.72911567 L36.9502992,2.22215669 Z" id="Path" fill="#B5BBC5" fill-rule="nonzero"></path>
                            <path d="M38.9085748,1.72911567 L39.9918762,1.72911567 L39.9918762,5.46511661 L38.9085748,5.46511661 L38.9085748,1.72911567 Z M39.4502255,1.2082977 C39.2511573,1.2082977 39.089125,1.15042904 38.9641287,1.03469171 C38.8391324,0.918954381 38.7766342,0.775440094 38.7766342,0.60414885 C38.7766342,0.432857605 38.8391324,0.289343319 38.9641287,0.173605991 C39.089125,0.0578686638 39.2511573,0 39.4502255,0 C39.6492937,0 39.8113259,0.0555539172 39.9363222,0.166661752 C40.0613185,0.277769586 40.1238167,0.416654379 40.1238167,0.583316131 C40.1238167,0.763866362 40.0613185,0.913167514 39.9363222,1.03121959 C39.8113259,1.14927166 39.6492937,1.2082977 39.4502255,1.2082977 Z" id="Shape" fill="#B5BBC5" fill-rule="nonzero"></path>
                            <path d="M43.2070591,1.67356176 C43.5542711,1.67356176 43.870234,1.75342051 44.1549478,1.91313802 C44.4396616,2.07285554 44.6630347,2.29738595 44.8250669,2.58672927 C44.9870992,2.87607259 45.0681153,3.21286821 45.0681153,3.59711614 C45.0681153,3.98136407 44.9870992,4.31815969 44.8250669,4.60750301 C44.6630347,4.89684633 44.4396616,5.12137674 44.1549478,5.28109425 C43.870234,5.44081177 43.5542711,5.52067052 43.2070591,5.52067052 C42.6931854,5.52067052 42.3019932,5.35863826 42.0334826,5.03457375 L42.0334826,5.46511661 L40.9987909,5.46511661 L40.9987909,0.312490784 L42.0820923,0.312490784 L42.0820923,2.12493733 C42.3552324,1.82402028 42.7302213,1.67356176 43.2070591,1.67356176 Z M43.0195646,4.63180785 C43.2973342,4.63180785 43.5253368,4.53806061 43.7035722,4.35056614 C43.8818077,4.16307167 43.9709255,3.91192167 43.9709255,3.59711614 C43.9709255,3.28231061 43.8818077,3.03116061 43.7035722,2.84366614 C43.5253368,2.65617167 43.2973342,2.56242443 43.0195646,2.56242443 C42.7417951,2.56242443 42.5137925,2.65617167 42.335557,2.84366614 C42.1573215,3.03116061 42.0682038,3.28231061 42.0682038,3.59711614 C42.0682038,3.91192167 42.1573215,4.16307167 42.335557,4.35056614 C42.5137925,4.53806061 42.7417951,4.63180785 43.0195646,4.63180785 Z" id="Shape" fill="#B5BBC5" fill-rule="nonzero"></path>
                            <path d="M49.5540942,1.72911567 L49.5540942,5.46511661 L48.5263467,5.46511661 L48.5263467,5.02068527 C48.3828324,5.18271753 48.2115412,5.30655647 48.0124729,5.39220209 C47.8134047,5.47784771 47.5981333,5.52067052 47.3666587,5.52067052 C46.8759324,5.52067052 46.487055,5.37947098 46.2000264,5.0970719 C45.9129978,4.81467282 45.7694835,4.3957037 45.7694835,3.84016453 L45.7694835,1.72911567 L46.8527849,1.72911567 L46.8527849,3.68044702 C46.8527849,4.28228112 47.1050923,4.58319817 47.609707,4.58319817 C47.8689587,4.58319817 48.0772859,4.49870992 48.2346886,4.32973342 C48.3920914,4.16075692 48.4707928,3.90960692 48.4707928,3.57628342 L48.4707928,1.72911567 L49.5540942,1.72911567 Z" id="Path" fill="#B5BBC5" fill-rule="nonzero"></path>
                            <path d="M52.9706601,5.28456637 C52.8641817,5.36326776 52.7333985,5.42229379 52.5783105,5.46164449 C52.4232225,5.50099518 52.2600329,5.52067052 52.0887416,5.52067052 C51.6443103,5.52067052 51.3005704,5.40724794 51.057522,5.18040278 C50.8144736,4.95355762 50.6929495,4.62023411 50.6929495,4.18043227 L50.6929495,2.64575531 L50.1165776,2.64575531 L50.1165776,1.81244655 L50.6929495,1.81244655 L50.6929495,0.902751155 L51.7762508,0.902751155 L51.7762508,1.81244655 L52.706779,1.81244655 L52.706779,2.64575531 L51.7762508,2.64575531 L51.7762508,4.16654379 C51.7762508,4.32394656 51.8167589,4.44547075 51.897775,4.53111637 C51.9787912,4.61676199 52.0933711,4.65958481 52.2415149,4.65958481 C52.4128061,4.65958481 52.5586352,4.61328987 52.679002,4.52070001 L52.9706601,5.28456637 Z" id="Path" fill="#B5BBC5" fill-rule="nonzero"></path>
                            <path d="M53.5817531,1.72911567 L54.6650545,1.72911567 L54.6650545,5.46511661 L53.5817531,5.46511661 L53.5817531,1.72911567 Z M54.1234038,1.2082977 C53.9243356,1.2082977 53.7623034,1.15042904 53.6373071,1.03469171 C53.5123108,0.918954381 53.4498126,0.775440094 53.4498126,0.60414885 C53.4498126,0.432857605 53.5123108,0.289343319 53.6373071,0.173605991 C53.7623034,0.0578686638 53.9243356,0 54.1234038,0 C54.322472,0 54.4845043,0.0555539172 54.6095006,0.166661752 C54.7344969,0.277769586 54.7969951,0.416654379 54.7969951,0.583316131 C54.7969951,0.763866362 54.7344969,0.913167514 54.6095006,1.03121959 C54.4845043,1.14927166 54.322472,1.2082977 54.1234038,1.2082977 Z" id="Shape" fill="#B5BBC5" fill-rule="nonzero"></path>
                            <path d="M57.4496946,5.52067052 C57.0561877,5.52067052 56.7031889,5.43849702 56.3906981,5.27415002 C56.0782073,5.10980301 55.8340015,4.88180047 55.6580808,4.59014241 C55.4821601,4.29848434 55.3941997,3.96747559 55.3941997,3.59711614 C55.3941997,3.22675669 55.4821601,2.89574793 55.6580808,2.60408987 C55.8340015,2.3124318 56.0782073,2.08442927 56.3906981,1.92008226 C56.7031889,1.75573526 57.0561877,1.67356176 57.4496946,1.67356176 C57.8432015,1.67356176 58.195043,1.75573526 58.5052191,1.92008226 C58.8153951,2.08442927 59.0584435,2.3124318 59.2343642,2.60408987 C59.410285,2.89574793 59.4982453,3.22675669 59.4982453,3.59711614 C59.4982453,3.96747559 59.410285,4.29848434 59.2343642,4.59014241 C59.0584435,4.88180047 58.8153951,5.10980301 58.5052191,5.27415002 C58.195043,5.43849702 57.8432015,5.52067052 57.4496946,5.52067052 Z M57.4496946,4.63180785 C57.7274642,4.63180785 57.9554668,4.53806061 58.1337022,4.35056614 C58.3119377,4.16307167 58.4010555,3.91192167 58.4010555,3.59711614 C58.4010555,3.28231061 58.3119377,3.03116061 58.1337022,2.84366614 C57.9554668,2.65617167 57.7274642,2.56242443 57.4496946,2.56242443 C57.171925,2.56242443 56.9427651,2.65617167 56.7622149,2.84366614 C56.5816647,3.03116061 56.4913896,3.28231061 56.4913896,3.59711614 C56.4913896,3.91192167 56.5816647,4.16307167 56.7622149,4.35056614 C56.9427651,4.53806061 57.171925,4.63180785 57.4496946,4.63180785 Z" id="Shape" fill="#B5BBC5" fill-rule="nonzero"></path>
                            <path d="M62.4912126,1.67356176 C62.9541619,1.67356176 63.3279935,1.81244655 63.6127073,2.09021614 C63.8974212,2.36798572 64.0397781,2.78001061 64.0397781,3.32629079 L64.0397781,5.46511661 L62.9564767,5.46511661 L62.9564767,3.49295254 C62.9564767,3.19666499 62.8916638,2.97560669 62.762038,2.82977766 C62.6324122,2.68394863 62.4449177,2.61103411 62.1995546,2.61103411 C61.9264145,2.61103411 61.7088283,2.69552236 61.546796,2.86449886 C61.3847638,3.03347535 61.3037476,3.28462536 61.3037476,3.61794886 L61.3037476,5.46511661 L60.2204463,5.46511661 L60.2204463,1.72911567 L61.255138,1.72911567 L61.255138,2.16660277 C61.3986522,2.00920001 61.5768877,1.88767581 61.7898444,1.80203019 C62.0028011,1.71638457 62.2365905,1.67356176 62.4912126,1.67356176 Z" id="Path" fill="#B5BBC5" fill-rule="nonzero"></path>
                        </g>
                        <text id="Titles" font-family="Montserrat-Black, Montserrat" font-size="8" font-weight="800" letter-spacing="0.222222222">
                            <tspan x="1.44305932" y="8" fill="#53545A">Titles</tspan>
                        </text>
                        <text id="Sellers" font-family="Montserrat-Black, Montserrat" font-size="8" font-weight="800" letter-spacing="0.222222222">
                            <tspan x="67.9430593" y="8" fill="#53545A">Sellers</tspan>
                        </text>
                    </g>
                </g>
                <g id="Group-3" mask="url(#mask-2)">
                    <g transform="translate(17.385684, 41.436678)">
                        <g id="Group-10">
                            <text id="3-TITLES" font-family="Montserrat-Bold, Montserrat" font-size="12" font-weight="bold" letter-spacing="0.333333333" fill="#4268EE">
                                <tspan x="26.0328656" y="12">3 TITLES</tspan>
                            </text>
                            <g id="Icons/Light/18px/film" opacity="0.609483265" transform="translate(0.000000, 1.474031)">
                                <g id="Group">
                                    <polygon id="Path" fill="#849CFD" opacity="0.3" points="1.37365843 1.86051802 2.58247784 4.51947698 12.3629258 4.51947698 12.3629258 10.5454463 1.37365843 10.5454463"></polygon>
                                    <mask id="mask-5" fill="white">
                                        <use xlink:href="#path-4"></use>
                                    </mask>
                                    <use id="Shape" fill="#849CFD" xlink:href="#path-4"></use>
                                </g>
                            </g>
                        </g>
                        <g id="price" transform="translate(93.518721, 0.000000)">
                            <text id="$-40.000" font-family="Montserrat-Bold, Montserrat" font-size="12" font-weight="bold" letter-spacing="0.333333333" fill="#4268EE">
                                <tspan x="23.0055845" y="12">$ 40.000</tspan>
                            </text>
                            <g id="Icons/Light/18px/film" opacity="0.508884248" transform="translate(0.000000, 1.239405)" fill="#849CFD">
                                <g id="Group">
                                    <polygon id="Path" opacity="0.3" points="7.58510199 12.15675 1.37910945 6.075 1.37910945 1.35 6.20599253 1.35 6.20599253 1.34325 12.4119851 7.41825 7.58510199 12.15675"></polygon>
                                    <path d="M3.10299627,4.05 C3.67424211,4.05 4.13732836,3.59668831 4.13732836,3.0375 C4.13732836,2.47831169 3.67424211,2.025 3.10299627,2.025 C2.53175043,2.025 2.06866418,2.47831169 2.06866418,3.0375 C2.06866418,3.59668831 2.53175043,4.05 3.10299627,4.05 Z M13.3842572,6.4665 L7.1782647,0.3915 C6.930025,0.1485 6.58524763,0 6.20599253,0 L1.37910945,0 C0.620599253,0 0,0.6075 0,1.35 L0,6.075 C0,6.44625 0.15170204,6.78375 0.406837288,7.0335 L6.61282982,13.1085 C6.86106952,13.3515 7.20584689,13.5 7.58510199,13.5 C7.96435709,13.5 8.30913445,13.3515 8.55737415,13.10175 L13.3842572,8.37675 C13.6393925,8.13375 13.7910945,7.79625 13.7910945,7.425 C13.7910945,7.05375 13.6324969,6.7095 13.3842572,6.4665 Z M7.58510199,12.15675 L1.37910945,6.075 L1.37910945,1.35 L6.20599253,1.35 L6.20599253,1.34325 L12.4119851,7.41825 L7.58510199,12.15675 L7.58510199,12.15675 Z" id="Shape"></path>
                                </g>
                            </g>
                        </g>
                    </g>
                </g>
                <text id="My-Offer" mask="url(#mask-2)" font-family="Montserrat-Black, Montserrat" font-size="11" font-weight="800" letter-spacing="0.305555556" fill="#1F2A3B">
                    <tspan x="9.28949862" y="22.3316035">My Offer</tspan>
                </text>
            </g>
            <g id="Component/Table-Cells/Actions-Cell/Cross-App/Main/Hover" transform="translate(252.859976, 134.289049) rotate(90.000000) translate(-252.859976, -134.289049) translate(188.730943, 106.289049)">
                <g id="Rectangle">
                    <use fill="black" fill-opacity="1" filter="url(#filter-7)" xlink:href="#path-6"></use>
                    <use fill="#FFFFFF" fill-rule="evenodd" xlink:href="#path-6"></use>
                </g>
                <circle id="Oval" stroke="#3C64F7" fill="#E6EBFF" cx="23.5179422" cy="27.4198229" r="15.305"></circle>
                <g id="Icons/Light/24px/Check" transform="translate(17.767942, 19.741219)" fill="#3C64F7">
                    <polygon id="Path" transform="translate(5.750000, 7.542319) rotate(-90.000000) translate(-5.750000, -7.542319) " points="3.00149142 10.865399 -0.574571216 7.28933632 -1.79231916 8.49850858 3.00149142 13.2923192 13.2923192 3.00149142 12.0831469 1.79231916"></polygon>
                </g>
                <circle id="Oval" fill-opacity="0.529006638" fill="#E6EBFF" cx="63.5923639" cy="27.4212745" r="15.8064516"></circle>
                <g id="Group" transform="translate(56.818170, 20.647081)" fill="#96ACFF">
                    <path d="M8.52870968,4.06451613 L6.77419355,5.81903226 L5.01967742,4.06451613 L4.06451613,5.01967742 L5.81903226,6.77419355 L4.06451613,8.52870968 L5.01967742,9.48387097 L6.77419355,7.72935484 L8.52870968,9.48387097 L9.48387097,8.52870968 L7.72935484,6.77419355 L9.48387097,5.01967742 L8.52870968,4.06451613 Z M6.77419355,0 C3.02806452,0 0,3.02806452 0,6.77419355 C0,10.5203226 3.02806452,13.5483871 6.77419355,13.5483871 C10.5203226,13.5483871 13.5483871,10.5203226 13.5483871,6.77419355 C13.5483871,3.02806452 10.5203226,0 6.77419355,0 Z M6.77419355,12.1935484 C3.78677419,12.1935484 1.35483871,9.7616129 1.35483871,6.77419355 C1.35483871,3.78677419 3.78677419,1.35483871 6.77419355,1.35483871 C9.7616129,1.35483871 12.1935484,3.78677419 12.1935484,6.77419355 C12.1935484,9.7616129 9.7616129,12.1935484 6.77419355,12.1935484 Z" id="Shape"></path>
                </g>
                <circle id="Oval" fill-opacity="0.529006638" fill="#E6EBFF" cx="104.541791" cy="27.4212745" r="15.8064516"></circle>
                <path d="M110.201928,22.0291741 L98.8816546,22.0291741 C98.1033858,22.0291741 97.4666205,22.5505535 97.4666205,23.1877948 L97.4666205,33.615381 L100.296689,31.2981397 L110.201928,31.2981397 C110.987272,31.2981397 111.616962,30.7825535 111.616962,30.139519 L111.616962,23.1877948 C111.616962,22.5505535 110.987272,22.0291741 110.201928,22.0291741 M110.201928,30.139519 L100.296689,30.139519 L98.8816546,31.2981397 L98.8816546,23.1877948 L110.201928,23.1877948 M108.079376,27.2429673 L106.664342,27.2429673 L106.664342,26.0843466 L108.079376,26.0843466 M105.249308,27.2429673 L103.834274,27.2429673 L103.834274,26.0843466 L105.249308,26.0843466 M102.41924,27.2429673 L101.004206,27.2429673 L101.004206,26.0843466 L102.41924,26.0843466" id="Shape" fill="#A7BAFE" transform="translate(104.541791, 27.822278) rotate(-91.000000) translate(-104.541791, -27.822278) "></path>
            </g>
        </g>
    </g>
</svg>