<?xml version="1.0" encoding="UTF-8"?>
<svg width="523px" height="315px" viewBox="0 0 523 315" version="1.1" xmlns="http://www.w3.org/2000/svg" xmlns:xlink="http://www.w3.org/1999/xlink">
    <title>illu_exptertise</title>
    <defs>
        <rect id="path-1" x="0" y="0" width="85" height="51" rx="1"></rect>
        <rect id="path-3" x="0" y="0" width="84" height="50" rx="1"></rect>
        <path d="M0.0158333333,3.16666667 L0,22.1666667 C0,23.9083333 1.425,25.3333333 3.16666667,25.3333333 L28.5,25.3333333 C30.2416667,25.3333333 31.6666667,23.9083333 31.6666667,22.1666667 L31.6666667,0 L25.3333333,0 L28.5,6.33333333 L23.75,6.33333333 L20.5833333,0 L17.4166667,0 L20.5833333,6.33333333 L15.8333333,6.33333333 L12.6666667,0 L9.5,0 L12.6666667,6.33333333 L7.91666667,6.33333333 L4.75,0 L3.16666667,0 C1.425,0 0.0158333333,1.425 0.0158333333,3.16666667 Z M3.16666667,3.91083333 L5.95333333,9.5 L28.5,9.5 L28.5,22.1666667 L3.16666667,22.1666667 L3.16666667,3.91083333 Z" id="path-5"></path>
        <rect id="path-7" x="0" y="0" width="296.519084" height="156"></rect>
    </defs>
    <g id="A-Content" stroke="none" stroke-width="1" fill="none" fill-rule="evenodd">
        <g id="Landing_desktop_1440-buyer" transform="translate(-86.000000, -2611.000000)">
            <g id="illu_exptertise" transform="translate(86.891793, 2611.713143)">
                <g id="cloud" transform="translate(239.319356, 221.644961) scale(-1, 1) translate(-239.319356, -221.644961) translate(0.000000, 129.144961)" fill-rule="nonzero">
                    <path d="M222.690485,0.608893131 C240.623952,0.617162886 258.224255,5.45472231 273.642662,14.6134351 C288.793681,23.6709911 301.438499,36.3744175 310.425896,51.5671593 L310.63292,51.9203173 L311.040878,51.859428 C332.712804,48.5541943 354.872732,50.9982114 375.303459,58.946944 C389.37876,64.4527266 402.366491,72.4102884 413.663726,82.4502189 C436.54593,102.714182 452.023994,130.692822 457.217852,161.301879 L1.39436527,161.301879 C4.29537566,135.759451 16.1618957,112.073877 34.8834875,94.4575914 C53.8139749,76.7996906 78.2488563,67.0574005 103.688411,67.0574005 C111.13784,67.0556344 118.563992,67.888932 125.827766,69.5416845 L126.345325,69.6573742 L126.534082,69.1580818 C133.811467,49.4015983 146.773152,32.2408196 163.786163,19.8377382 C180.874019,7.34180899 201.496742,0.611166292 222.666129,0.621070994 M222.666129,0.0121778626 C178.624889,0.0121778626 140.983116,28.630155 125.961722,68.9327914 C118.653933,67.2707432 111.182821,66.4333578 103.688411,66.4363295 C50.4772406,66.4363295 6.61866833,108.175954 0.688049238,161.92295 L457.899812,161.92295 C447.426851,98.2509956 394.106079,49.819636 329.953099,49.819636 C323.593328,49.8160674 317.242505,50.2964501 310.955633,51.2566238 C292.688839,20.4953428 259.985189,0 222.666129,0 L222.666129,0.0121778626 Z" id="Shape" fill="#FFFFFF"></path>
                    <path d="M0.304446566,162.215219 L0.37142481,162.215219 C0.37142481,162.422243 0.328802291,162.629266 0.304446566,162.824112 L0.304446566,162.215219 Z" id="Path" fill="#000000"></path>
                    <path d="M0.712404963,161.910772 L0,161.910772 L0,174.362637 C-4.51710138e-05,170.20183 0.237811315,166.044424 0.712404963,161.910772 L0.712404963,161.910772 Z" id="Path" fill="#FFFFFF"></path>
                    <path d="M478.334266,172.103643 C478.021701,168.787206 477.587357,165.491064 477.031235,162.215219 L478.334266,162.215219 L478.334266,172.103643 Z" id="Path" fill="#000000"></path>
                    <path d="M478.029819,162.519666 L478.029819,166.781918 C477.843092,165.361167 477.640128,163.940416 477.420926,162.519666 L478.029819,162.519666 M478.638712,161.910772 L476.653721,161.910772 C477.964622,169.537259 478.622582,177.26167 478.620446,185 L478.620446,161.910772 L478.638712,161.910772 Z" id="Shape" fill="#FFFFFF"></path>
                </g>
                <g id="Group-8" transform="translate(374.713506, 114.280069) rotate(90.000000) translate(-374.713506, -114.280069) translate(260.433437, -32.219931)">
                    <g id="Group" stroke="#9EB1FF" stroke-width="0.5">
                        <path d="M181.368984,113.915009 L228.560137,122.365913 M209.190634,286.377034 L174.677701,248.493671 L137.523473,228.094937 L100.369244,195.774864 L53.0020041,211.934901 L97.9040342,255.646474 L68.2334771,286.244575 L53.0020041,211.934901 L11.2695291,183.853526 L63.9193605,154.447559 L40.4998703,113.915009 L68.2334771,74.3096745 L33.8085874,36.5587703" id="Shape"></path>
                        <path d="M40.4998703,113.915009 L87.6910235,122.392405 L114.632242,154.447559 L152.138643,183.853526 L100.281201,195.642405 L63.8313173,154.315099 M111.110514,293 L97.9040342,255.646474" id="Shape"></path>
                        <polyline id="Path" points="137.523473 228.094937 147.736483 276.310127 174.677701 248.493671 193.871118 211.934901 152.138643 183.853526 137.523473 228.094937 97.9040342 255.646474 100.369244 195.774864 114.632242 154.447559 140.869114 124.511754 181.368984 113.915009 147.64844 64.2427667 111.110514 81.0650995 97.9040342 43.7115732 68.2334771 74.3096745 87.6910235 122.392405 63.9193605 154.447559 53.0020041 211.934901 33.8085874 248.493671 68.3215203 286.377034"></polyline>
                        <path d="M137.523473,16.1600362 L147.824526,64.5076854 L174.677701,36.5587703 M152.138643,183.853526 L140.869114,124.511754 L87.6910235,122.392405 L111.110514,81.0650995 M204.788474,154.447559 L140.869114,124.511754 M114.632242,154.447559 L63.9193605,154.447559" id="Shape"></path>
                        <path d="M6.86736931,64.375226 L68.2334771,74.3096745 L111.110514,81.0650995 L140.869114,124.511754 L147.64844,64.2427667 L209.190634,74.4421338 L181.368984,113.915009 L204.788474,154.447559 L152.138643,183.853526 L174.677701,248.493671 M97.9040342,43.7115732 L147.64844,64.2427667 M147.736483,276.310127 L97.9040342,255.646474 M53.0020041,0 L68.3215203,74.4421338 M63.9193605,154.447559 L0,124.511754" id="Shape"></path>
                    </g>
                    <g id="Group" transform="translate(52.121572, 63.050633)" fill="#3C64F7" fill-rule="nonzero">
                        <ellipse id="Oval" cx="129.247412" cy="50.8643761" rx="1" ry="1.32459313"></ellipse>
                        <ellipse id="Oval" cx="88.7475418" cy="61.4611212" rx="1" ry="1.32459313"></ellipse>
                        <ellipse id="Oval" cx="100.017071" cy="120.802893" rx="1" ry="1.32459313"></ellipse>
                        <ellipse id="Oval" cx="122.556129" cy="185.443038" rx="1" ry="1.32459313"></ellipse>
                        <ellipse id="Oval" cx="85.4019004" cy="165.044304" rx="1" ry="1.32459313"></ellipse>
                        <ellipse id="Oval" cx="48.2476715" cy="132.724231" rx="1" ry="1.32459313"></ellipse>
                        <ellipse id="Oval" cx="45.782462" cy="192.595841" rx="1" ry="1.32459313"></ellipse>
                        <ellipse id="Oval" cx="0.880431962" cy="148.884268" rx="1" ry="1.32459313"></ellipse>
                        <ellipse id="Oval" cx="11.7977883" cy="91.3969259" rx="1" ry="1.32459313"></ellipse>
                        <ellipse id="Oval" cx="16.1999481" cy="11.3915009" rx="1" ry="1.32459313"></ellipse>
                        <ellipse id="Oval" cx="58.9889415" cy="18.0144665" rx="1" ry="1.32459313"></ellipse>
                        <ellipse id="Oval" cx="95.6149111" cy="1.32459313" rx="1" ry="1.32459313"></ellipse>
                        <ellipse id="Oval" cx="35.5694513" cy="59.3417722" rx="1" ry="1.32459313"></ellipse>
                        <ellipse id="Oval" cx="62.5106693" cy="91.3969259" rx="1" ry="1.32459313"></ellipse>
                    </g>
                </g>
                <g id="Mask" transform="translate(129.701529, 104.639117)">
                    <rect id="path-1" stroke="#1F2A3B" stroke-width="0.817919075" fill="#FFFFFF" fill-rule="nonzero" x="0" y="0" width="270.215909" height="158" rx="2.44834054"></rect>
                    <g id="Group-2-Copy" transform="translate(16.690168, 58.440724)">
                        <g id="Group-6">
                            <mask id="mask-2" fill="white">
                                <use xlink:href="#path-1"></use>
                            </mask>
                            <use id="Rectangle" fill="#F3F6FE" xlink:href="#path-1"></use>
                            <g id="Group-7" mask="url(#mask-2)" stroke="#1A49F5">
                                <g transform="translate(-1.051374, 27.865366)" id="Path-2">
                                    <path d="M87.3185759,5.06960385 C91.7184053,2.38837238 95.4532862,-0.0189759077 97.466902,0.578353483 C98.1274029,0.774287876 98.5673015,1.47248203 98.8880774,2.53934368 C99.2684724,3.80449147 99.4528358,5.59010234 99.4528358,7.89398168 C99.4528358,12.5346731 98.6964254,19.2358895 97.1881115,27.997895 L97.1881115,27.997895 L0.5,27.997895 L0.5,19.2230409 C5.16653535,15.0561409 9.21583793,12.9291819 12.6705593,12.9291819 C14.9918612,12.9291819 17.1713752,14.4504884 19.3074279,16.0906787 L19.8637379,16.5203292 L20.5866314,17.0812943 C22.9726305,18.928951 25.3282978,20.6021051 27.7191017,20.6021051 C29.9557088,20.6021051 32.2435717,18.160392 34.8170692,15.2494957 C37.9223454,11.7371018 41.496408,7.59058605 46.2373075,7.59058605 C50.2838451,7.59058605 53.100691,8.71182819 56.087755,9.89206815 C59.4264201,11.2112317 62.9703245,12.6066105 68.5442512,12.7178969 C74.5047981,12.8369024 81.484161,8.62506363 87.3185759,5.06960385 Z"></path>
                                </g>
                            </g>
                        </g>
                        <circle id="Oval" fill="#1A49F5" cx="64.3590267" cy="40.7755561" r="2.10274869"></circle>
                    </g>
                    <g id="Group-2-Copy" transform="translate(169.951145, 84.440724) scale(-1, -1) translate(-169.951145, -84.440724) translate(127.951145, 59.440724)">
                        <g id="Group-6">
                            <mask id="mask-4" fill="white">
                                <use xlink:href="#path-3"></use>
                            </mask>
                            <use id="Rectangle" fill="#F3F6FE" xlink:href="#path-3"></use>
                            <g id="Group-7" mask="url(#mask-4)" stroke="#1A49F5">
                                <g transform="translate(-1.030759, 3.382816)" id="Path-2">
                                    <path d="M103.843411,1.72219913 C105.242477,0.772786844 106.434691,0.214322018 107.31283,0.62480526 C108.091922,0.988989455 108.590144,2.26206873 108.969789,4.25172554 C109.395867,6.48473746 109.606383,9.63529087 109.606383,13.702772 C109.606383,21.8280525 108.762471,33.5831339 107.076486,48.9680854 L107.076486,48.9680854 L0.5,48.9680851 L0.5,33.1395879 C5.66335024,25.84325 10.1269734,22.0752016 13.9576776,22.0752016 C16.6027636,22.0752016 19.0507203,24.9302387 21.4678558,27.8639399 L21.4678558,27.8639399 L22.0313201,28.5510946 C24.9958058,32.1791252 27.7593943,35.394249 30.5349019,35.394249 C31.6558246,35.394249 32.8108605,34.5983057 33.978525,33.1796632 C35.3771846,31.4803754 36.8255397,28.9064579 38.377314,26.1406216 C40.4193362,22.5009821 42.6444989,18.5217775 45.2054132,15.8436322 C46.9393193,14.0303529 48.8240016,12.8081973 50.9342496,12.8081973 C55.3696207,12.8081973 58.4517298,14.7513655 61.723468,16.7884042 C65.4165147,19.0877566 69.3390602,21.5144592 75.50248,21.708368 C82.0776275,21.9152303 89.8005897,14.6111954 96.2483866,8.41956894 C99.1075783,5.67397264 101.710461,3.16962865 103.843411,1.72219913 Z"></path>
                                </g>
                            </g>
                        </g>
                        <circle id="Oval" fill="#1A49F5" cx="64.1609148" cy="22.9547588" r="2.06151832"></circle>
                    </g>
                </g>
                <path d="M70.9174378,84.6391166 C72.2492124,72.8975677 81.8120942,64.0521002 93.1929541,64.0521002 C94.8150941,64.0520312 96.4321592,64.2332808 98.0140312,64.5924731 L98.070843,64.6043639 L98.090661,64.5501945 C99.6741688,60.2519845 102.495076,56.5189722 106.197575,53.8220099 C113.219125,48.6893542 122.62639,48.2432461 130.102137,52.688416 C133.399396,54.6590988 136.151315,57.4232815 138.107318,60.7292697 L138.129779,60.7675846 L138.173378,60.7596574 C146.232563,59.5335212 154.41794,61.9739662 160.489852,67.4132458 C165.486649,71.8379613 168.85308,77.952498 169.976104,84.6391166 L70.9174378,84.6391166 Z" id="Path" stroke="#8DA4FA" fill="#FFFFFF" fill-rule="nonzero"></path>
                <path d="M27.9174378,94.6391166 C28.9067561,85.9168231 36.0106112,79.3459044 44.4649642,79.3459044 C45.6699825,79.3458532 46.8712308,79.4804957 48.0463357,79.7473243 L48.0885388,79.7561575 L48.1032608,79.7159173 C49.2795808,76.5229613 51.3751116,73.7498664 54.1255397,71.7464088 C59.3415484,67.9335788 66.3298026,67.6021842 71.8832143,70.9043105 C74.3326065,72.3682462 76.3768896,74.4216391 77.8299203,76.877516 L77.8466052,76.9059785 L77.8789936,76.9000897 C83.8658169,75.9892457 89.9463824,77.8021477 94.4569455,81.8427554 C98.1688521,85.1296869 100.669629,89.6719142 101.503875,94.6391166 L27.9174378,94.6391166 Z" id="Path" stroke="#8DA4FA" fill="#FFFFFF" fill-rule="nonzero"></path>
                <path d="M265.083197,303.716983 C265.958363,296.001108 272.242542,290.188372 279.721393,290.188372 C280.787371,290.188327 281.850014,290.307434 282.88953,290.543474 L282.926863,290.551288 L282.939886,290.515691 C283.980477,287.691153 285.834216,285.238031 288.267287,283.465741 C292.881448,280.092853 299.063366,279.799696 303.975999,282.720808 C306.142769,284.015828 307.951173,285.832291 309.236547,288.004798 L309.251306,288.029976 L309.279958,288.024767 C314.575994,287.21902 319.954955,288.822741 323.945069,292.397125 C327.228679,295.304795 329.440904,299.322919 330.178892,303.716983 L265.083197,303.716983 Z" id="Path" stroke="#8DA4FA" fill="#FFFFFF" fill-rule="nonzero"></path>
                <rect id="Rectangle" stroke="#000000" fill="#FFFFFF" x="359.96326" y="136.737295" width="127.412894" height="177" rx="5"></rect>
                <rect id="Rectangle" fill="#F3F6FE" fill-rule="nonzero" opacity="0.833244687" x="372.366605" y="211.332986" width="102" height="68"></rect>
                <g id="Group" transform="translate(373.121064, 157.330734)">
                    <g id="Group" transform="translate(3.166667, 6.333333)">
                        <polygon id="Path" fill="#8DA4FA" opacity="0.3" points="3.16666667 3.91083333 5.95333333 9.5 28.5 9.5 28.5 22.1666667 3.16666667 22.1666667"></polygon>
                        <mask id="mask-6" fill="white">
                            <use xlink:href="#path-5"></use>
                        </mask>
                        <use id="Shape" fill="#8DA4FA" xlink:href="#path-5"></use>
                    </g>
                </g>
                <g id="Icons/Light/24px/ArchipelContent" transform="translate(140.442554, 114.788416)" fill="#3C64F7">
                    <path d="M8.52259619,22.722582 L6.83653846,23.5827637 C6.43948267,23.0827911 6.07419133,22.53136 5.74638207,21.9373645 L8.52259619,22.722582 Z M27.6320975,12.96708 L10.5459925,21.6896017 L4.9211413,20.0988373 C4.46690947,18.8104707 4.23629946,17.4858926 4.23629946,16.1594086 C4.23629946,14.1855648 4.73627212,12.2288738 5.68412372,10.4869106 C5.97318034,10.5809334 6.27049572,10.6285801 6.57098755,10.6285801 C8.17318709,10.6285801 9.47680068,9.32433126 9.47680068,7.72213171 C9.47680068,7.30411137 9.38277787,6.89498507 9.1972734,6.50301159 C11.2460813,5.01961114 13.6487453,4.23629946 16.1587733,4.23629946 C21.5072737,4.23629946 26.1982497,7.81678981 27.6320975,12.96708 L27.6320975,12.96708 Z M26.1321796,22.6622296 C23.9118436,26.0616625 20.2030248,28.0825176 16.1587733,28.0825176 C13.0642792,28.0825176 10.1514779,26.9065972 7.91907138,24.7644018 L19.0487042,19.0830098 L26.1321796,22.6622296 Z M28.0818824,16.1594086 C28.0818824,17.9541008 27.6822854,19.6884405 26.8938914,21.3179575 L20.7512794,18.2126635 L27.9573657,14.533068 C28.0412238,15.1137224 28.0818824,15.6480007 28.0818824,16.1594086 L28.0818824,16.1594086 Z M16.1587733,2.69318182 C13.2796423,2.69318182 10.5301103,3.60228077 8.19542222,5.32454999 C7.70815535,4.99102312 7.14973607,4.81568328 6.57098755,4.81568328 C4.96815271,4.81568328 3.66453912,6.11929687 3.66453912,7.72213171 C3.66453912,8.43683214 3.9205607,9.11150935 4.39003947,9.64261118 C3.27891853,11.6405959 2.69318182,13.8901553 2.69318182,16.1594086 C2.69318182,23.5846696 8.73414752,29.6256353 16.1587733,29.6256353 C23.5840343,29.6256353 29.625,23.5846696 29.625,16.1594086 C29.625,8.73351223 23.5840343,2.69318182 16.1587733,2.69318182 L16.1587733,2.69318182 Z" id="Fill-1"></path>
                </g>
                <line x1="188.675299" y1="138.251137" x2="340.5" y2="138.251137" id="Path" stroke="#000000" stroke-width="0.63"></line>
                <circle id="Oval" fill="#FF6E61" fill-rule="nonzero" cx="426.577326" cy="297.743663" r="6.04508197"></circle>
                <circle id="Oval" stroke="#181616" stroke-width="0.5" fill-rule="nonzero" cx="423.675687" cy="297.743663" r="6.04508197"></circle>
                <line x1="425.532244" y1="171.095696" x2="468.5" y2="171.095696" id="Path" stroke="#000000" stroke-width="0.63"></line>
                <line x1="349.5" y1="231.403137" x2="461.629744" y2="231.403137" id="Path" stroke="#000000" stroke-width="0.63"></line>
                <line x1="349.5" y1="238.794272" x2="461.629744" y2="238.794272" id="Path" stroke="#000000" stroke-width="0.63"></line>
                <line x1="349.5" y1="246.185407" x2="461.629744" y2="246.185407" id="Path" stroke="#000000" stroke-width="0.63"></line>
                <g id="Group-2" transform="translate(0.398354, 129.639117)">
                    <mask id="mask-8" fill="white">
                        <use xlink:href="#path-7"></use>
                    </mask>
                    <g id="Rectangle"></g>
                    <g id="woman-sitting-laptop" mask="url(#mask-8)">
                        <g transform="translate(37.511450, 14.290076)">
                            <path d="M170.338653,165.390174 C170.793379,168.397925 178.512891,237.161112 179.763387,238.298042 C181.013883,239.434971 194.29296,241.955466 195.429775,240.060584 C195.657138,237.052833 195.971115,189.103278 196.674857,184.814226" id="Path" stroke="none" fill="#1F161E" fill-rule="nonzero"></path>
                            <path d="M20.9828752,151.043205 C15.62902,148.107641 26.7914562,206.181284 56.1699922,206.181284 C85.5485282,206.181284 134.999961,156.45114 143.006384,156.45114 C160.681143,156.45114 202.521332,195.016515 205.801854,195.016515 C208.313673,192.225323 213.33731,187.340736 213.33731,185.421791 C213.33731,183.502847 173.278131,110.228031 143.304121,110.228031 C131.681545,110.216003 33.0710033,157.678302 20.9828752,151.043205 Z" id="Path" stroke="none" fill="#1F161E" fill-rule="nonzero"></path>
                            <path d="M37.5154068,152.029747 C43.3889486,150.549934 50.6970422,146.71806 57.1660583,142.795954 C39.5670864,149.184416 25.1457818,153.329096 20.9828752,151.043205 C18.1462522,149.491206 19.9435019,165.03526 26.6128139,180.007841 C25.4056251,177.108369 23.6841631,155.512722 37.5154068,152.029747 Z" id="Path" stroke="none" fill="#1F161E" fill-rule="nonzero"></path>
                            <path d="M50.4642659,50.1512287 C55.0927251,50.2895852 79.1877802,49.5015547 85.7921314,56.4915664 C90.6912607,61.6709124 105.924576,106.269834 108.273992,121.928182 C98.0426615,127.703063 24.247157,166.972251 1.40801134,149.701749 C0.904564893,136.281167 3.24856823,82.9657847 18.1841461,54.9997222 C23.6462693,50.9573058 46.0144489,50.0188877 50.4642659,50.1512287 Z" id="Path" stroke="none" fill="#8DA4FA" fill-rule="nonzero"></path>
                            <path d="M59.851106,37.3863364 L45.7762592,37.3863364 L45.7762592,54.1996607 C45.7762592,58.4105111 59.851106,58.3744181 59.851106,54.1996607 L59.851106,37.3863364 Z" id="Path" stroke="none" fill="#FFE8E2" fill-rule="nonzero"></path>
                            <path d="M45.7762592,47.522455 C45.7762592,45.6576498 50.4263721,40.9715748 53.3008888,41.1339933 C53.3712631,39.1007541 46.7344315,36.0930038 46.7344315,36.0930038 L45.7762592,38.9623976 L45.7762592,47.522455 Z" id="Path" stroke="none" fill="#1F161E" fill-rule="nonzero"></path>
                            <path d="M74.5918013,37.3863364 C74.9081619,35.7615642 75.0681808,34.1039637 75.0681808,32.4415949 C75.0681808,20.0376326 66.3471892,9.97971554 55.5799313,9.97971554 C44.8126735,9.97971554 36.0916819,20.0376326 36.0916819,32.4415949 C36.0916819,34.1039637 36.2517008,35.7615642 36.5680613,37.3863364 L74.5918013,37.3863364 Z" id="Path" stroke="none" fill="#1F161E" fill-rule="nonzero"></path>
                            <path d="M69.4544823,22.2573523 C67.0671717,21.8543138 64.6852746,19.7669351 63.0233599,18.4014164 C53.5499054,26.1132882 47.481481,26.2215672 46.8264593,26.2215672 C46.1714376,26.2215672 43.5026301,30.4805417 42.2737877,30.9617817 L42.1655197,30.8895957 C43.169112,36.9944986 47.1839273,41.9493074 52.5427936,43.6965131 C57.9016598,45.4437187 63.6891473,43.6848544 67.5019729,39.1502972 C71.3147984,34.6157401 72.5016352,28.080107 70.5696432,22.2573523 C70.1993443,22.3084388 69.8247811,22.3084388 69.4544823,22.2573523 Z" id="Path" stroke="none" fill="#FFE8E2" fill-rule="nonzero"></path>
                            <ellipse id="Oval" stroke="none" fill="#1F161E" fill-rule="nonzero" cx="45.0237962" cy="6.38846167" rx="5.74903358" ry="6.38846167"></ellipse>
                            <path d="M47.5843357,25.8666527 C46.2938518,25.9345363 45.2789649,27.1169518 45.2789649,28.5525737 C45.2789649,29.9881956 46.2938518,31.1706112 47.5843357,31.2384948" id="Path" stroke="#1F161E" stroke-width="1" fill="none" stroke-linecap="round"></path>
                            <path d="M66.0115582,26.1914897 C66.7207139,27.2442023 68.5450306,29.0849455 66.0115582,31.0399832" id="Path" stroke="#1F161E" stroke-width="1" fill="none" stroke-linecap="round"></path>
                            <path d="M58.3299399,32.4837034 C58.3299399,33.271734 58.6330904,35.1545857 60.1542566,35.6418412" id="Path" stroke="#1F161E" stroke-width="1" fill="none" stroke-linecap="round"></path>
                            <ellipse id="Oval" stroke="none" fill="#FA9E9F" fill-rule="nonzero" cx="53.6148662" cy="31.3648203" rx="2.23032188" ry="1.28731713"></ellipse>
                            <ellipse id="Oval" stroke="none" fill="#FA9E9F" fill-rule="nonzero" cx="70.1961184" cy="31.3648203" rx="2.23032188" ry="1.28731713"></ellipse>
                            <path d="M85.2832715,96.6330021 L100.327117,92.3319191 C101.772496,95.0449099 108.809919,121.898105 108.809919,121.898105 L85.5864221,132.77413 C85.8895726,127.685016 86.8044377,104.429091 85.2832715,96.6330021 Z" id="Path" stroke="none" fill="#F8CDBA" fill-rule="nonzero"></path>
                            <path d="M32.5350764,92.4281671 C32.5350764,94.4493754 31.0030835,102.143201 30.0990452,105.758517" id="Path" stroke="#1F161E" stroke-width="1" fill="none" stroke-linecap="round"></path>
                            <path d="M85.2832715,96.6330021 C84.9205735,93.4508023 82.7985197,75.5185949 79.1877802,66.0802744" id="Path" stroke="#1F161E" stroke-width="1" fill="none" stroke-linecap="round"></path>
                            <path d="M85.2832715,96.6330021 L100.327117,92.3319191 C101.772496,95.0449099 108.809919,121.898105 108.809919,121.898105 L85.5864221,132.77413 C85.8895726,127.685016 86.8044377,104.429091 85.2832715,96.6330021 Z" id="Path" stroke="none" fill="#FFE8E2" fill-rule="nonzero"></path>
                            <polygon id="Path" stroke="none" fill="#8DA4FA" fill-rule="nonzero" points="165.03165 123.582445 120.866651 123.582445 131.381457 92.6206128 175.546456 92.6206128"></polygon>
                            <rect id="Rectangle" stroke="none" fill="#7396E5" fill-rule="nonzero" x="71.1434639" y="122.234973" width="50.9780125" height="1.34747214"></rect>
                            <path d="M30.0990452,105.758517 C29.1192193,109.843041 24.3391848,127.263931 26.3096634,130.259651 C28.2801419,133.25537 76.7842294,126.445823 89.7709823,121.95826 C93.0785713,120.75516 95.5308427,117.597022 96.9978748,117.193983 C100.888761,116.4646 104.65127,119.10168 105.735107,123.317763 C100.549067,126.108955 25.6708819,170.386054 1.40801134,151.479335 C-3.17714068,147.851989 4.87258901,101.541651 5.23528699,99.2918534 C9.33323277,99.8573104 30.0990452,105.758517 30.0990452,105.758517 Z" id="Path" stroke="none" fill="#FFE8E2" fill-rule="nonzero"></path>
                            <path d="M85.9761871,123.077143 C87.4378058,122.692151 88.7153688,122.31919 89.7655689,121.95826 C93.0731579,120.75516 95.5254293,117.597022 96.9924614,117.193983 C100.885218,116.461241 104.65107,119.09903 105.735107,123.317763" id="Path" stroke="#1F161E" stroke-width="1" fill="none" stroke-linecap="round"></path>
                        </g>
                    </g>
                </g>
            </g>
        </g>
    </g>
</svg>