<svg width="140" height="80" viewBox="0 0 140 80" fill="none" xmlns="http://www.w3.org/2000/svg">
<rect x="3.3" y="0.3" width="124.4" height="79.4" rx="1.7" fill="white" stroke="black" stroke-width="0.6"/>
<path d="M21.5138 12.4543L16.2535 7.43801C16.043 7.23736 15.7508 7.11473 15.4293 7.11473H11.3379C10.695 7.11473 10.1689 7.61637 10.1689 8.22947V12.131C10.1689 12.4376 10.2975 12.7163 10.5138 12.9225L15.7742 17.9388C15.9846 18.1395 16.2768 18.2621 16.5983 18.2621C16.9198 18.2621 17.212 18.1395 17.4224 17.9332L21.5138 14.0317C21.7301 13.831 21.8587 13.5523 21.8587 13.2458C21.8587 12.9392 21.7242 12.655 21.5138 12.4543ZM16.5983 17.1529L11.3379 12.131V8.22947H15.4293V8.2239L20.6897 13.2402L16.5983 17.1529Z" fill="black"/>
<path d="M12.7991 10.4589C13.2833 10.4589 13.6759 10.0846 13.6759 9.62289C13.6759 9.16115 13.2833 8.78684 12.7991 8.78684C12.3149 8.78684 11.9224 9.16115 11.9224 9.62289C11.9224 10.0846 12.3149 10.4589 12.7991 10.4589Z" fill="black"/>
<rect x="9" y="25" width="112" height="47" fill="#DEE5FF"/>
<rect x="103" y="32" width="7" height="40" fill="#6C8CFF"/>
<rect x="89" y="38" width="7" height="34" fill="#6C8CFF"/>
<rect x="75" y="43" width="7" height="29" fill="#6C8CFF"/>
<rect x="61" y="50" width="8" height="22" fill="#6C8CFF"/>
<rect x="48" y="56" width="7" height="16" fill="#6C8CFF"/>
<rect x="34" y="62" width="7" height="10" fill="#6C8CFF"/>
<rect x="20" y="68" width="7" height="4" fill="#6C8CFF"/>
<path d="M100.994 9.18478V17.5848H99.4343V10.4928H97.6583V9.18478H100.994Z" fill="#6C8CFF"/>
<path d="M105.289 12.4368C106.473 12.4368 107.349 12.6688 107.917 13.1328C108.485 13.5888 108.769 14.2128 108.769 15.0048C108.769 15.5088 108.645 15.9648 108.397 16.3728C108.149 16.7808 107.777 17.1048 107.281 17.3448C106.785 17.5848 106.173 17.7048 105.445 17.7048C104.845 17.7048 104.265 17.6208 103.705 17.4528C103.145 17.2768 102.673 17.0368 102.289 16.7328L102.949 15.5208C103.261 15.7768 103.633 15.9808 104.065 16.1328C104.505 16.2768 104.957 16.3488 105.421 16.3488C105.973 16.3488 106.405 16.2368 106.717 16.0128C107.037 15.7808 107.197 15.4648 107.197 15.0648C107.197 14.6328 107.025 14.3088 106.681 14.0928C106.345 13.8688 105.765 13.7568 104.941 13.7568H102.913L103.345 9.18478H108.277V10.4928H104.665L104.485 12.4368H105.289Z" fill="#6C8CFF"/>
<path d="M113.032 12.3748C112.506 12.3748 112.076 12.2014 111.742 11.8548C111.409 11.5081 111.242 11.0348 111.242 10.4348C111.242 10.0414 111.319 9.69812 111.472 9.40478C111.626 9.11145 111.836 8.88811 112.102 8.73478C112.376 8.57478 112.686 8.49478 113.032 8.49478C113.566 8.49478 113.999 8.67145 114.332 9.02478C114.666 9.37145 114.832 9.84145 114.832 10.4348C114.832 11.0348 114.666 11.5081 114.332 11.8548C113.999 12.2014 113.566 12.3748 113.032 12.3748ZM117.172 8.58478H118.612L113.832 15.5848H112.392L117.172 8.58478ZM113.032 11.4248C113.212 11.4248 113.356 11.3448 113.462 11.1848C113.569 11.0248 113.622 10.7748 113.622 10.4348C113.622 10.0948 113.569 9.84478 113.462 9.68478C113.356 9.52478 113.212 9.44478 113.032 9.44478C112.859 9.44478 112.716 9.52812 112.602 9.69478C112.496 9.85478 112.442 10.1014 112.442 10.4348C112.442 10.7681 112.496 11.0181 112.602 11.1848C112.716 11.3448 112.859 11.4248 113.032 11.4248ZM117.972 15.6748C117.439 15.6748 117.006 15.5014 116.672 15.1548C116.346 14.8081 116.182 14.3348 116.182 13.7348C116.182 13.1414 116.349 12.6714 116.682 12.3248C117.016 11.9714 117.446 11.7948 117.972 11.7948C118.506 11.7948 118.939 11.9714 119.272 12.3248C119.606 12.6714 119.772 13.1414 119.772 13.7348C119.772 14.3348 119.606 14.8081 119.272 15.1548C118.939 15.5014 118.506 15.6748 117.972 15.6748ZM117.972 14.7248C118.152 14.7248 118.296 14.6448 118.402 14.4848C118.509 14.3248 118.562 14.0748 118.562 13.7348C118.562 13.3948 118.509 13.1448 118.402 12.9848C118.296 12.8248 118.152 12.7448 117.972 12.7448C117.792 12.7448 117.649 12.8248 117.542 12.9848C117.436 13.1448 117.382 13.3948 117.382 13.7348C117.382 14.0748 117.436 14.3248 117.542 14.4848C117.649 14.6448 117.792 14.7248 117.972 14.7248Z" fill="#6C8CFF"/>
<path d="M93.5843 15.0213H91.8943V16.6713H90.3543V15.0213H88.6543V13.5613H90.3543V11.9113H91.8943V13.5613H93.5843V15.0213Z" fill="#6C8CFF"/>
</svg>
