<svg width="134" height="88" viewBox="0 0 134 88" fill="none" xmlns="http://www.w3.org/2000/svg">
<rect x="11.3" y="0.3" width="122.4" height="79.4" rx="1.7" fill="white" stroke="black" stroke-width="0.6"/>
<path d="M104 9.75C104 9.24583 103.55 8.83333 103 8.83333H95C94.45 8.83333 94 9.24583 94 9.75V15.25C94 15.7542 94.45 16.1667 95 16.1667H103C103.55 16.1667 104 15.7542 104 15.25V9.75ZM103 9.75L99 12.0371L95 9.75H103ZM103 15.25H95V10.6667L99 12.9583L103 10.6667V15.25Z" fill="black"/>
<path d="M124.002 9.29167C123.975 9.69958 123.906 10.0983 123.796 10.4788L124.346 11.0287C124.534 10.4787 124.653 9.89667 124.695 9.29167H124.002ZM119.483 14.8008C119.094 14.9108 118.695 14.9796 118.292 15.0071V15.69C118.897 15.6487 119.479 15.5296 120.033 15.3462L119.483 14.8008ZM123.562 8.375H125.167C125.419 8.375 125.625 8.58125 125.625 8.83333C125.625 13.1371 122.137 16.625 117.833 16.625C117.581 16.625 117.375 16.4187 117.375 16.1667V14.5671C117.375 14.315 117.581 14.1088 117.833 14.1088C118.402 14.1088 118.956 14.0171 119.47 13.8475C119.515 13.8292 119.566 13.8246 119.612 13.8246C119.731 13.8246 119.845 13.8704 119.937 13.9575L120.945 14.9658C122.242 14.3012 123.306 13.2425 123.966 11.9454L122.958 10.9371C122.829 10.8088 122.793 10.63 122.843 10.4696C123.013 9.95625 123.104 9.40625 123.104 8.83333C123.104 8.58125 123.31 8.375 123.562 8.375Z" fill="black"/>
<path fill-rule="evenodd" clip-rule="evenodd" d="M128 23.1354H49V22.5354H128V23.1354Z" fill="black"/>
<mask id="mask0_206_74" style="mask-type:alpha" maskUnits="userSpaceOnUse" x="0" y="26" width="61" height="62">
<path d="M30.6228 87.1416C14.0145 87.1416 0.550739 73.5137 0.550739 56.7029C0.550739 39.892 14.0145 26.2641 30.6228 26.2641C47.2311 26.2641 60.6948 39.892 60.6948 56.7029C60.6948 73.5137 47.2311 87.1416 30.6228 87.1416Z" fill="white"/>
</mask>
<g mask="url(#mask0_206_74)">
<path d="M54.0085 75.8586C43.5565 88.9146 24.6134 90.9223 11.6979 80.3428C-1.21759 69.7634 -3.21468 50.6031 7.23728 37.5471C17.6892 24.4911 36.6323 22.4835 49.5478 33.0629C62.4633 43.6423 64.4604 62.8026 54.0085 75.8586Z" fill="white"/>
<path fill-rule="evenodd" clip-rule="evenodd" d="M53.3998 75.36C43.2203 88.0756 24.7705 90.0315 12.1908 79.7271C-0.388913 69.4228 -2.3335 50.7613 7.84595 38.0457C18.0254 25.3301 36.4752 23.3742 49.0549 33.6786C61.6346 43.983 63.5792 62.6445 53.3998 75.36ZM11.6979 80.3428C24.6134 90.9223 43.5565 88.9146 54.0085 75.8586C64.4604 62.8026 62.4633 43.6423 49.5478 33.0629C36.6323 22.4835 17.6892 24.4911 7.23728 37.5471C-3.21468 50.6031 -1.21759 69.7634 11.6979 80.3428Z" fill="black"/>
<path fill-rule="evenodd" clip-rule="evenodd" d="M30.994 63.5226V73.4078L31.5529 73.1408C33.4928 72.2139 35.7966 72.0243 38.489 72.61L38.9629 72.7131V64.7477H38.1797V71.7393C35.7961 71.291 33.6568 71.4299 31.7772 72.1798V63.5226H30.994Z" fill="black"/>
<path d="M14.5244 71.4256L10.3945 80.7147L22.9787 89.9215L55.3366 84.1728L38.6872 71.5425L14.5244 71.4256Z" fill="white" stroke="black" stroke-width="0.6"/>
<path d="M47.9588 54.4445C47.9588 58.0907 45.0366 61.0466 41.432 61.0466C37.8274 61.0466 34.9053 58.0907 34.9053 54.4445C34.9053 50.7983 37.8274 47.8425 41.432 47.8425C45.0366 47.8425 47.9588 50.7983 47.9588 54.4445Z" fill="#4268EE"/>
<path d="M36.2352 64.9538C30.9739 64.9538 26.7087 60.653 26.7087 55.3476C26.7087 50.0422 30.9739 45.7413 36.2352 45.7413C41.4966 45.7413 45.7617 50.0422 45.7617 55.3476C45.7617 60.653 41.4966 64.9538 36.2352 64.9538Z" fill="white"/>
<path fill-rule="evenodd" clip-rule="evenodd" d="M36.2352 46.1374C41.2814 46.1374 45.3701 50.2621 45.3701 55.3476C45.3701 60.433 41.2814 64.5577 36.2352 64.5577C31.189 64.5577 27.1003 60.433 27.1003 55.3476C27.1003 50.2621 31.189 46.1374 36.2352 46.1374ZM46.1533 55.3476C46.1533 49.8222 41.7117 45.3452 36.2352 45.3452C30.7587 45.3452 26.3171 49.8222 26.3171 55.3476C26.3171 60.8729 30.7587 65.35 36.2352 65.35C41.7117 65.35 46.1533 60.8729 46.1533 55.3476Z" fill="black"/>
<path fill-rule="evenodd" clip-rule="evenodd" d="M41.1988 54.1101C41.0162 54.2405 40.9727 54.4959 41.1016 54.6806C41.1344 54.7277 41.1751 54.7828 41.2208 54.8447C41.4215 55.1169 41.7191 55.5203 41.877 55.9503C41.9716 56.2075 41.9919 56.4167 41.9469 56.5751C41.9077 56.713 41.8004 56.879 41.4819 57.0229C41.2778 57.1151 41.1863 57.3572 41.2774 57.5636C41.3685 57.77 41.6079 57.8626 41.8119 57.7704C42.2999 57.5499 42.6063 57.2182 42.7248 56.8011C42.8374 56.4045 42.7592 56.0013 42.6357 55.6651C42.4306 55.1069 42.0338 54.574 41.8434 54.3184C41.809 54.2722 41.7813 54.2351 41.7627 54.2085C41.6339 54.0238 41.3814 53.9797 41.1988 54.1101Z" fill="black"/>
<path fill-rule="evenodd" clip-rule="evenodd" d="M37.1772 58.4777C36.9918 58.604 36.9427 58.8583 37.0676 59.0458C37.6536 59.9261 38.535 60.5629 39.5494 60.8395C39.7652 60.8983 39.9872 60.7691 40.0454 60.5508C40.1036 60.3325 39.9758 60.1079 39.76 60.0491C38.9334 59.8237 38.2157 59.3049 37.7388 58.5886C37.614 58.4011 37.3625 58.3514 37.1772 58.4777Z" fill="black"/>
<path fill-rule="evenodd" clip-rule="evenodd" d="M39.1541 45.6468C39.1837 45.8513 39.2116 46.0439 39.2432 46.22L40.5314 46.0268C40.5092 45.9035 40.488 45.7521 40.4637 45.5788C40.3432 44.7188 40.1473 43.3201 39.3893 42.1418C38.9179 41.4089 38.224 40.7405 37.1989 40.296C36.1793 39.854 34.8782 39.6533 33.2231 39.7815L33.3333 40.9706C34.8192 40.8555 35.8774 41.0438 36.6395 41.3742C37.3959 41.7022 37.9057 42.1895 38.2641 42.7467C38.8706 43.6895 39.0279 44.776 39.1541 45.6468Z" fill="#4268EE"/>
<path d="M11.6937 65.2715C11.3564 60.8982 11.9556 49.0178 18.8006 42.8448C22.1001 39.873 36.6072 40.575 40.3518 41.9743C44.0964 43.3736 43.6565 47.5904 43.2742 48.2502C42.3786 47.5763 40.4146 46.2097 40.0638 46.2519C38.2255 46.4531 33.2082 51.4982 31.6842 53.8148C30.4482 55.6868 36.8696 71.2704 34.4552 74.5932C32.8456 76.8085 28.7077 77.3912 22.0413 76.3414C15.5535 74.2852 12.1043 70.5952 11.6937 65.2715Z" fill="black"/>
<path d="M16.6811 46.9605C14.4402 45.7385 13.8024 42.5861 15.2565 39.9195C16.7107 37.2529 19.7062 36.0819 21.9471 37.3039C24.188 38.526 24.8258 41.6783 23.3716 44.3449C21.9175 47.0115 18.922 48.1825 16.6811 46.9605Z" fill="black"/>
<path fill-rule="evenodd" clip-rule="evenodd" d="M39.0601 53.0092C39.1194 52.7912 38.9929 52.5658 38.7775 52.5058C38.0936 52.3151 37.3426 52.385 36.661 52.6869C36.4563 52.7776 36.363 53.0189 36.4526 53.226C36.5422 53.4331 36.7809 53.5275 36.9856 53.4368C37.5125 53.2034 38.0731 53.1586 38.5624 53.295C38.7779 53.3551 39.0007 53.2271 39.0601 53.0092Z" fill="black"/>
<path fill-rule="evenodd" clip-rule="evenodd" d="M44.9744 52.7073C45.0337 52.4893 44.9072 52.2639 44.6918 52.2039C44.0079 52.0132 43.2569 52.0831 42.5753 52.385C42.3706 52.4756 42.2773 52.717 42.3669 52.9241C42.4565 53.1312 42.6952 53.2256 42.8999 53.1349C43.4268 52.9015 43.9874 52.8567 44.4767 52.9931C44.6922 53.0532 44.915 52.9252 44.9744 52.7073Z" fill="black"/>
<path d="M32.2946 54.4445C32.2946 58.0907 29.3725 61.0465 25.7678 61.0465C22.1632 61.0465 19.2411 58.0907 19.2411 54.4445C19.2411 50.7983 22.1632 47.8424 25.7678 47.8424C29.3725 47.8424 32.2946 50.7983 32.2946 54.4445Z" fill="#4268EE"/>
<path fill-rule="evenodd" clip-rule="evenodd" d="M42.9001 67.8726C42.9001 67.8726 42.9001 67.8726 42.9001 67.8726L42.9078 67.8638L42.9317 67.8361L43.0249 67.7278C43.1059 67.6331 43.223 67.4954 43.3668 67.3241C43.6546 66.9812 44.0482 66.5046 44.4717 65.9696C45.3306 64.8844 46.271 63.6102 46.7269 62.7227C46.9052 62.3755 46.9991 61.8801 47.0108 61.2764C47.0224 60.6823 46.9537 60.0386 46.8522 59.434C46.7511 58.8319 46.6202 58.2843 46.5142 57.8865C46.4614 57.6881 46.415 57.5283 46.3822 57.4189C46.3658 57.3643 46.3529 57.3224 46.3441 57.2947L46.3344 57.264L46.3322 57.2571L46.3317 57.2557C46.2186 56.9096 46.4042 56.5362 46.7463 56.4217C47.0885 56.3071 47.4578 56.4948 47.571 56.841L46.9514 57.0484C47.571 56.841 47.571 56.8408 47.571 56.841L47.5716 56.8426L47.5726 56.8457L47.576 56.8563L47.5881 56.8946C47.5985 56.9275 47.6132 56.975 47.6313 57.0355C47.6676 57.1564 47.7178 57.3296 47.7746 57.5429C47.888 57.9686 48.0292 58.5585 48.1391 59.2129C48.2485 59.8649 48.3296 60.5968 48.3159 61.3023C48.3024 61.9982 48.1961 62.7263 47.8852 63.3315C47.3627 64.3487 46.3451 65.7154 45.4907 66.7948C45.0574 67.3422 44.6555 67.8288 44.3619 68.1786C44.2151 68.3536 44.0951 68.4946 44.0116 68.5921L43.915 68.7046L43.8894 68.7342L43.8808 68.7441C43.6427 69.0178 43.2296 69.0453 42.959 68.8044C42.6884 68.5636 42.662 68.1464 42.9001 67.8726Z" fill="#4268EE"/>
<path d="M40.1268 68.3088C40.1268 67.9442 40.419 67.6486 40.7795 67.6486H43.3902C43.7507 67.6486 44.0429 67.9442 44.0429 68.3088C44.0429 68.6734 43.7507 68.969 43.3902 68.969H40.7795C40.419 68.969 40.1268 68.6734 40.1268 68.3088Z" fill="#4268EE"/>
<path fill-rule="evenodd" clip-rule="evenodd" d="M26.2385 50.685C26.2386 50.7677 26.2387 50.8488 26.2387 50.9282H24.9334C24.9334 50.8385 24.9331 50.7454 24.9329 50.6493C24.929 49.0726 24.9231 46.6619 25.8885 44.5163C26.4072 43.3632 27.2114 42.271 28.4531 41.4167C29.6947 40.5624 31.3359 39.9721 33.4839 39.7687L33.6185 40.9557C31.6644 41.1407 30.259 41.6677 29.238 42.3702C28.217 43.0726 27.5427 43.9767 27.0957 44.9702C26.2328 46.8881 26.2361 49.08 26.2385 50.685Z" fill="#4268EE"/>
</g>
<path d="M20.4666 9.03651C20.4666 9.69269 19.9346 10.2246 19.2785 10.2246C18.6223 10.2246 18.0903 9.69269 18.0903 9.03651C18.0903 8.38033 18.6223 7.84839 19.2785 7.84839C19.9346 7.84839 20.4666 8.38033 20.4666 9.03651Z" fill="#1F2A3B"/>
<path d="M26.0119 9.03651C26.0119 9.69269 25.4799 10.2246 24.8237 10.2246C24.1676 10.2246 23.6356 9.69269 23.6356 9.03651C23.6356 8.38033 24.1676 7.84839 24.8237 7.84839C25.4799 7.84839 26.0119 8.38033 26.0119 9.03651Z" fill="#1F2A3B"/>
<path d="M31.556 9.03651C31.556 9.69269 31.0241 10.2246 30.3679 10.2246C29.7117 10.2246 29.1798 9.69269 29.1798 9.03651C29.1798 8.38033 29.7117 7.84839 30.3679 7.84839C31.0241 7.84839 31.556 8.38033 31.556 9.03651Z" fill="#1F2A3B"/>
</svg>
