<svg xmlns="http://www.w3.org/2000/svg" width="350" height="350" viewBox="0 0 350 350">
    <g fill="none" fill-rule="evenodd">
        <g>
            <path fill="#FFF" d="M21 0H245V191H21z" transform="translate(26.000000, 6.000000)"/>
            <g transform="translate(26.000000, 6.000000) translate(51.000000, 25.000000)">
                <path fill="#FFF" fill-rule="nonzero" stroke="#6F7CBD" stroke-width="2" d="M0 0H187V243H0z"/>
                <ellipse cx="22.691" cy="72.205" fill="#9EB1FF" fill-rule="nonzero" rx="9.112" ry="9.092"/>
                <ellipse cx="22.691" cy="103.494" fill="#9EB1FF" fill-rule="nonzero" rx="9.112" ry="9.092"/>
                <ellipse cx="25.261" cy="69.641" fill-rule="nonzero" stroke="#6F7CBD" stroke-width="2" rx="9.112" ry="9.092"/>
                <ellipse cx="25.261" cy="100.929" fill-rule="nonzero" stroke="#6F7CBD" stroke-width="2" rx="9.112" ry="9.092"/>
                <ellipse cx="25.261" cy="132.218" stroke="#6F7CBD" stroke-width="2" rx="9.112" ry="9.092"/>
                <ellipse cx="25.261" cy="163.5" stroke="#6F7CBD" stroke-width="2" rx="9.112" ry="9.092"/>
                <ellipse cx="25.261" cy="194.789" stroke="#6F7CBD" stroke-width="2" rx="9.112" ry="9.092"/>
                <path fill="#6F7CBD" fill-rule="nonzero" d="M26.142 29.139H134.107V39.802H26.142zM40.799 162.058H164.707V164.94299999999998H40.799zM40.799 193.34H164.707V196.225H40.799zM40.799 65.768H164.707V68.653H40.799z"/>
                <path stroke="#000" d="M41.179 73.52L133.053 73.52"/>
                <path fill="#6F7CBD" fill-rule="nonzero" d="M40.799 97.057H164.707V99.94200000000001H40.799z"/>
                <path stroke="#000" d="M41.179 104.802L133.053 104.802"/>
                <path fill="#6F7CBD" fill-rule="nonzero" d="M40.799 128.345H164.707V131.23H40.799z"/>
                <path stroke="#000" d="M41.179 136.091L133.053 136.091"/>
            </g>
            <g transform="translate(26.000000, 6.000000) translate(206.000000, 209.000000)">
                <circle cx="22.5" cy="48.5" r="9.5" fill="#FFF"/>
                <path fill="#879DEF" fill-rule="nonzero" d="M24.628 25c.306 0 .566.219.62.52l1.039 5.931c1.278.35 2.504.862 3.656 1.52l4.88-3.512c.25-.18.594-.154.813.067l3.78 3.775c.216.216.245.555.07.806l-3.474 4.954c.646 1.144 1.15 2.363 1.502 3.63l5.958.974c.303.052.527.315.528.621v5.343c0 .304-.22.567-.522.619l-5.96 1.044c-.348 1.269-.85 2.49-1.5 3.638l3.524 4.894c.18.25.153.593-.066.813l-3.776 3.78c-.218.216-.557.245-.806.07l-4.942-3.47c-1.148.66-2.373 1.173-3.652 1.529l-1.052 5.935c-.053.3-.314.519-.62.519h-5.344c-.307 0-.57-.224-.62-.525l-.983-5.908c-1.28-.352-2.511-.86-3.668-1.514l-4.905 3.435c-.254.175-.59.146-.806-.071l-3.78-3.78c-.217-.219-.245-.56-.065-.811l3.468-4.851c-.662-1.165-1.176-2.402-1.53-3.687L.52 50.248C.22 50.196 0 49.935 0 49.63v-5.342c0-.307.222-.57.525-.622l5.878-.976c.355-1.285.87-2.521 1.531-3.684l-3.426-4.897c-.174-.251-.145-.59.072-.807l3.778-3.774c.216-.222.559-.248.81-.067l4.869 3.475c1.152-.65 2.381-1.154 3.663-1.504l.963-5.903c.049-.305.312-.528.62-.528zM22 40.18c-3.762 0-6.823 3.06-6.823 6.82 0 3.763 3.061 6.823 6.823 6.823 3.762 0 6.82-3.06 6.82-6.823 0-3.76-3.06-6.82-6.82-6.82zM48.728.05c.301-.124.645-.01.818.266l2.494 4.03c1.014-.108 2.035-.1 3.048.022L57.6.343c.173-.274.514-.396.823-.26l3.993 1.671c.298.126.464.445.392.763l-1.056 4.656c.806.648 1.525 1.373 2.144 2.167l4.646-1.077c.32-.086.644.093.767.395l1.642 4.006c.123.3.013.643-.261.817l-4.06 2.556c.111 1.007.107 2.023-.01 3.026l4.059 2.54c.278.172.387.52.261.823l-1.668 3.989c-.126.297-.45.455-.762.393l-4.683-1.059c-.631.79-1.35 1.507-2.145 2.134l1.08 4.656c.073.317-.093.643-.395.767l-4.002 1.645c-.083.033-.17.049-.254.049-.222 0-.438-.112-.563-.312l-2.553-4.052c-1.007.12-2.035.122-3.047.003l-2.59 4.02c-.174.27-.52.383-.816.253l-3.99-1.666c-.302-.124-.469-.45-.393-.767l1.089-4.625c-.801-.637-1.523-1.361-2.156-2.162l-4.643 1.012c-.318.063-.637-.099-.759-.398l-1.64-4.012c-.123-.301-.01-.647.267-.82l4.022-2.482c-.117-1.03-.113-2.06.008-3.069l-3.981-2.572c-.271-.175-.378-.518-.253-.817l1.669-3.99c.124-.3.446-.473.767-.39l4.6 1.089c.647-.81 1.379-1.536 2.181-2.163l-1.005-4.637c-.069-.316.099-.636.4-.758zm4.787 12.094c-2.172 0-4.116 1.291-4.954 3.292-1.141 2.733.15 5.884 2.881 7.027.662.275 1.359.417 2.069.417 2.173 0 4.116-1.295 4.953-3.295 1.143-2.728-.15-5.88-2.879-7.025-.662-.276-1.359-.416-2.07-.416z"/>
            </g>
            <g fill="#879DEF" fill-rule="nonzero">
                <g>
                    <g>
                        <g transform="translate(26.000000, 6.000000) translate(0.000000, 8.000000) translate(0.000000, 0.000000) translate(0.000000, -0.000000) translate(0.000000, -0.000000)">
                            <path d="M60.552 51L48.133 39.525 60.8 39.525z"/>
                            <rect width="76" height="40.8" rx="20.4" transform="translate(38.000000, 20.400000) rotate(-180.000000) translate(-38.000000, -20.400000)"/>
                        </g>
                    </g>
                </g>
            </g>
            <g fill="#FFF">
                <path d="M11.87 13.07l-2.54-2.51.03-.03C11.1 8.59 12.34 6.36 13.07 4H16V2H9V0H7v2H0v1.99h11.17C10.5 5.92 9.44 7.75 8 9.35 7.07 8.32 6.3 7.19 5.69 6h-2c.73 1.63 1.73 3.17 2.98 4.56l-5.09 5.02L3 17l5-5 3.11 3.11.76-2.04zM17.5 8h-2L11 20h2l1.12-3h4.75L20 20h2L17.5 8zm-2.62 7l1.62-4.33L18.12 15h-3.24z" transform="translate(26.000000, 6.000000) translate(27.000000, 19.000000)"/>
            </g>
            <g>
                <g fill="#879DEF" fill-rule="nonzero">
                    <g>
                        <g transform="translate(26.000000, 6.000000) translate(245.000000, 75.000000) scale(-1, 1) translate(-245.000000, -75.000000) translate(212.000000, 53.000000) translate(0.000000, -0.000000) translate(0.000000, -0.000000) translate(0.000000, -0.000000)">
                            <path d="M52.584 44L41.8 34.1 52.8 34.1z"/>
                            <rect width="66" height="35.2" rx="17.6" transform="translate(33.000000, 17.600000) rotate(-180.000000) translate(-33.000000, -17.600000)"/>
                        </g>
                    </g>
                </g>
                <path stroke="#FFF" stroke-width="3" d="M9 18.5L36 18.5M20.545 24.732L54.477 24.5M39.5 18.5L54.456 18.5" transform="translate(26.000000, 6.000000) translate(245.000000, 75.000000) scale(-1, 1) translate(-245.000000, -75.000000) translate(212.000000, 53.000000)"/>
            </g>
        </g>
    </g>
</svg>
