<?xml version="1.0" encoding="UTF-8"?>
<svg width="105px" height="89px" viewBox="0 0 105 89" version="1.1" xmlns="http://www.w3.org/2000/svg" xmlns:xlink="http://www.w3.org/1999/xlink">
    <title>illu</title>
    <g id="Add-movie-form-blue" stroke="none" stroke-width="1" fill="none" fill-rule="evenodd">
        <g id="0-AddFilm-Overview" transform="translate(-360.000000, -457.000000)">
            <g id="page-content" transform="translate(304.000000, 156.000000)">
                <g id="form-group" transform="translate(0.000000, 102.000000)">
                    <g id="status_options" transform="translate(16.000000, 174.000000)">
                        <g id="illu" transform="translate(40.000000, 25.000000)">
                            <circle id="Oval-Copy-3" stroke="#606F87" stroke-width="1.5" cx="60.5" cy="44.5" r="43.75"></circle>
                            <rect id="Rectangle" fill="#E5EAFD" x="42" y="29" width="34" height="39"></rect>
                            <path d="M80.5202893,19.5963303 L45.2845801,19.5963303 C44.8425321,19.5963303 44.4837685,19.9574085 44.4837685,20.4023084 L44.4837685,24.4321989 L40.4797107,24.4321989 C40.0376627,24.4321989 39.6788991,24.7932771 39.6788991,25.238177 L39.6788991,68.7609944 C39.6788991,69.2058943 40.0376627,69.5669725 40.4797107,69.5669725 L75.7154199,69.5669725 C76.1574679,69.5669725 76.5162315,69.2058943 76.5162315,68.7609944 L76.5162315,64.7311039 L80.5202893,64.7311039 C80.9623373,64.7311039 81.3211009,64.3700257 81.3211009,63.9251258 L81.3211009,20.4023084 C81.3211009,19.9574085 80.9623373,19.5963303 80.5202893,19.5963303 Z M75.0747706,68.1788991 L41.0669725,68.1788991 L41.0669725,25.8426606 L44.3058104,25.8426606 L44.3058104,64.1081069 C44.3058104,64.5575224 44.6685602,64.9222653 45.1155199,64.9222653 L75.0747706,64.9222653 L75.0747706,68.1788991 Z M79.9330275,63.3206422 L45.9252294,63.3206422 L45.9252294,20.9844037 L79.9330275,20.9844037 L79.9330275,63.3206422 Z M52.1715596,31.3949541 C52.1715596,31.0118459 52.5269064,30.7009174 52.9647444,30.7009174 L73.5875491,30.7009174 C74.0253872,30.7009174 74.3807339,31.0118459 74.3807339,31.3949541 C74.3807339,31.7780624 74.0253872,32.0889908 73.5875491,32.0889908 L52.9647444,32.0889908 C52.5269064,32.0889908 52.1715596,31.7780624 52.1715596,31.3949541 Z M52.1715596,35.5591743 C52.1715596,35.1760661 52.4158606,34.8651376 52.7168742,34.8651376 L66.8950524,34.8651376 C67.1960661,34.8651376 67.440367,35.1760661 67.440367,35.5591743 C67.440367,35.9422826 67.1960661,36.253211 66.8950524,36.253211 L52.7168742,36.253211 C52.4158606,36.253211 52.1715596,35.9422826 52.1715596,35.5591743 Z" id="Shape" fill="#606F87" fill-rule="nonzero"></path>
                            <g id="feather" transform="translate(18.500000, 59.500000) scale(-1, 1) rotate(14.000000) translate(-18.500000, -59.500000) translate(3.000000, 47.000000)">
                                <ellipse id="Oval" fill="#E5EAFD" cx="19" cy="12.5" rx="12" ry="12.5"></ellipse>
                                <path d="M24.9916069,1.35302745 L24.9457084,0.0542969814 L23.6470265,0.00839854394 C19.8915081,-0.124413956 16.214896,1.32319347 13.5581084,3.97993175 L8.50903501,9.02905284 C7.14604644,10.3919923 6.08398567,12.0722657 5.43759881,13.8881349 C4.83071392,15.5931153 4.58349707,17.436963 4.71709085,19.2431153 L3.43271557,20.5274903 C3.00649478,19.9226075 2.73833066,19.2129884 2.66284236,18.471045 L1.1999026,18.6199708 C1.30966825,19.6984376 1.72334021,20.7260255 2.3815923,21.5786622 L0,23.9602052 L1.03979514,25 L5.75703247,20.2827638 C6.07534309,20.3062989 6.39467909,20.3183107 6.71445455,20.3183107 C8.2085955,20.3183107 9.70747277,20.0623536 11.1118676,19.5624513 C12.927786,18.9160646 14.6080109,17.8539552 15.9709507,16.4910157 L21.0200728,11.4418946 C23.6768605,8.78510753 25.1243706,5.10786143 24.9916069,1.35302745 Z M12.8515652,14.15542 C14.1501007,14.15542 15.4324252,13.9550294 16.6606481,13.569336 C14.7704621,15.0059571 12.4968288,15.8212892 10.125344,15.9144532 L11.9190455,14.1207521 C12.2304714,14.1437013 12.5413601,14.15542 12.8515652,14.15542 Z M9.08559764,14.8746583 C9.17758984,12.5328126 9.97451384,10.2859864 11.3782251,8.40976573 C10.9284691,9.93183604 10.7604027,11.5005372 10.879055,13.0812501 L9.08559764,14.8746583 Z M8.08071461,11.8623536 C7.68276531,13.3069337 7.53198402,14.8250978 7.64238444,16.3178224 L6.16030404,17.7999025 C6.24384898,15.6736329 6.90839991,13.6257325 8.08071461,11.8623536 Z M7.20009919,18.8396974 L8.68232607,17.3574708 C9.00063668,17.381006 9.31997269,17.3930177 9.63974814,17.3930177 C10.8186058,17.3930177 12.0002955,17.2330079 13.1363309,16.9201661 C11.3732446,18.0919435 9.32588089,18.7561525 7.20009919,18.8396974 L7.20009919,18.8396974 Z M20.9664107,9.28422862 C18.8814982,11.3516603 16.1814488,12.5413087 13.3680204,12.6717775 L18.6245157,7.41533214 L17.5847205,6.37553722 L12.324905,11.6353028 C12.4338894,9.06396495 13.3858427,6.54970714 15.0675325,4.57504893 L15.0664095,4.57617198 C17.372074,2.50610362 20.4152875,1.38413097 23.5243214,1.47573253 C23.6075734,4.3006837 22.6882861,7.07163097 20.9664107,9.28422862 L20.9664107,9.28422862 Z" id="Shape" fill="#606F87" fill-rule="nonzero"></path>
                            </g>
                            <polygon id="Triangle" fill="#E5EAFD" transform="translate(51.055707, 56.975143) rotate(89.000000) translate(-51.055707, -56.975143) " points="57.1114137 52 56.9377308 61.950286 45 61.7505156"></polygon>
                        </g>
                    </g>
                </g>
            </g>
        </g>
    </g>
</svg>