<svg xmlns="http://www.w3.org/2000/svg" width="380" height="380" viewBox="0 0 380 380">
    <g fill="none" fill-rule="evenodd">
        <g>
            <g fill-rule="nonzero">
                <g>
                    <path fill="#879DEF" d="M4.167 2.917C4.167 4.067 3.234 5 2.083 5 .933 5 0 4.067 0 2.917 0 1.767.933.833 2.083.833c1.15 0 2.084.933 2.084 2.084z" transform="translate(35 70) translate(2 104)"/>
                    <path stroke="#000" d="M5 2.083c0 1.15-.933 2.084-2.083 2.084-1.15 0-2.084-.933-2.084-2.084C.833.933 1.766 0 2.917 0 4.067 0 5 .933 5 2.083h0z" transform="translate(35 70) translate(2 104)"/>
                </g>
                <g>
                    <path fill="#879DEF" d="M5.33 3.432c-.107-.058-.194-.144-.252-.25l-.89-1.654c-.107-.19-.31-.309-.531-.309-.22 0-.424.118-.532.309l-.899 1.655c-.051.107-.136.194-.241.249l-1.673.956C.119 4.495 0 4.696 0 4.914c0 .219.12.42.312.527l1.673.88c.105.055.19.142.241.248l.9 1.646c.102.196.307.32.531.32.224 0 .429-.124.532-.32l.89-1.646c.057-.105.144-.191.25-.248l1.663-.88c.199-.102.323-.305.323-.527 0-.22-.124-.424-.323-.526L5.33 3.432z" transform="translate(35 70) translate(0 45.78)"/>
                    <path stroke="#000" d="M6.142 2.212c-.106-.057-.193-.143-.251-.248L5 .309C4.895.119 4.692 0 4.47 0c-.22 0-.424.118-.532.309L3.04 1.964c-.051.106-.136.194-.242.248l-1.672.957c-.193.107-.312.308-.312.526 0 .219.12.42.312.526l1.672.88c.106.055.19.143.242.25l.9 1.645c.102.196.307.32.53.32.224 0 .43-.124.533-.32L5.89 5.35c.058-.105.145-.191.251-.248l1.663-.88c.198-.103.323-.305.323-.527 0-.22-.125-.424-.323-.526l-1.663-.957z" transform="translate(35 70) translate(0 45.78)"/>
                </g>
                <g>
                    <path fill="#879DEF" d="M5.33 3.432c-.107-.058-.194-.144-.252-.25l-.89-1.654c-.107-.19-.31-.309-.531-.309-.22 0-.424.118-.532.309l-.899 1.655c-.051.107-.136.194-.241.249l-1.673.956C.119 4.495 0 4.696 0 4.914c0 .219.12.42.312.527l1.673.88c.105.055.19.142.241.248l.9 1.646c.102.196.307.32.531.32.224 0 .429-.124.532-.32l.89-1.646c.057-.105.144-.191.25-.248l1.663-.88c.199-.102.323-.305.323-.527 0-.22-.124-.424-.323-.526L5.33 3.432z" transform="translate(35 70) translate(250 214.78)"/>
                    <path stroke="#000" d="M6.142 2.212c-.106-.057-.193-.143-.251-.248L5 .309C4.895.119 4.692 0 4.47 0c-.22 0-.424.118-.532.309L3.04 1.964c-.051.106-.136.194-.242.248l-1.672.957c-.193.107-.312.308-.312.526 0 .219.12.42.312.526l1.672.88c.106.055.19.143.242.25l.9 1.645c.102.196.307.32.53.32.224 0 .43-.124.533-.32L5.89 5.35c.058-.105.145-.191.251-.248l1.663-.88c.198-.103.323-.305.323-.527 0-.22-.125-.424-.323-.526l-1.663-.957z" transform="translate(35 70) translate(250 214.78)"/>
                </g>
                <g>
                    <path fill="#879DEF" d="M5.33 3.432c-.107-.058-.194-.144-.252-.25l-.89-1.654c-.107-.19-.31-.309-.531-.309-.22 0-.424.118-.532.309l-.899 1.655c-.051.107-.136.194-.241.249l-1.673.956C.119 4.495 0 4.696 0 4.914c0 .219.12.42.312.527l1.673.88c.105.055.19.142.241.248l.9 1.646c.102.196.307.32.531.32.224 0 .429-.124.532-.32l.89-1.646c.057-.105.144-.191.25-.248l1.663-.88c.199-.102.323-.305.323-.527 0-.22-.124-.424-.323-.526L5.33 3.432z" transform="translate(35 70) translate(296 73.78)"/>
                    <path stroke="#000" d="M6.142 2.212c-.106-.057-.193-.143-.251-.248L5 .309C4.895.119 4.692 0 4.47 0c-.22 0-.424.118-.532.309L3.04 1.964c-.051.106-.136.194-.242.248l-1.672.957c-.193.107-.312.308-.312.526 0 .219.12.42.312.526l1.672.88c.106.055.19.143.242.25l.9 1.645c.102.196.307.32.53.32.224 0 .43-.124.533-.32L5.89 5.35c.058-.105.145-.191.251-.248l1.663-.88c.198-.103.323-.305.323-.527 0-.22-.125-.424-.323-.526l-1.663-.957z" transform="translate(35 70) translate(296 73.78)"/>
                </g>
                <g>
                    <path fill="#879DEF" d="M13.514 7.114l-3.227-1.688c-.202-.107-.369-.27-.478-.467l-1.73-3.15c-.202-.365-.593-.593-1.018-.593-.426 0-.817.228-1.02.594L4.314 4.959c-.11.198-.276.36-.479.467L.608 7.114C.233 7.31 0 7.693 0 8.108c0 .415.233.797.608.995l3.226 1.687c.203.107.37.27.479.467l1.729 3.15c.202.365.593.593 1.019.593.425 0 .816-.228 1.019-.593l1.729-3.15c.11-.197.276-.36.478-.467l3.227-1.642c.399-.189.653-.584.653-1.017 0-.433-.254-.829-.653-1.017z" transform="translate(35 70) translate(136)"/>
                    <path stroke="#000" d="M14.347 5.897L11.12 4.21c-.202-.107-.368-.27-.478-.467L8.912.593C8.712.228 8.32 0 7.895 0c-.425 0-.817.228-1.019.593l-1.729 3.15c-.11.197-.276.36-.478.467L1.44 5.897c-.374.198-.608.58-.608.995 0 .415.234.797.608.994l3.227 1.688c.202.107.368.27.478.467l1.73 3.15c.201.365.593.593 1.018.593.426 0 .817-.228 1.019-.594l1.729-3.149c.11-.198.276-.36.478-.467l3.227-1.642c.4-.19.653-.584.653-1.018 0-.433-.254-.828-.653-1.017h0z" transform="translate(35 70) translate(136)"/>
                </g>
                <g>
                    <path fill="#879DEF" d="M5.45 3.65l-1.3-.701c-.085-.037-.153-.105-.19-.19l-.702-1.3c-.084-.148-.242-.24-.413-.24-.17 0-.328.092-.412.24l-.693 1.3c-.043.081-.109.147-.19.19l-1.3.702c-.153.08-.25.239-.25.412 0 .174.097.333.25.413l1.3.693c.077.048.142.113.19.19l.693 1.299c.08.154.239.25.412.25.174 0 .333-.096.413-.25l.702-1.3c.043-.08.109-.147.19-.19l1.3-.692c.148-.084.24-.242.24-.413 0-.17-.092-.328-.24-.412z" transform="translate(35 70) translate(215 55.78)"/>
                    <path stroke="#000" d="M6.262 2.432l-1.3-.702c-.084-.038-.152-.105-.19-.19L4.072.24C3.986.092 3.829 0 3.658 0c-.17 0-.328.092-.413.24l-.692 1.3c-.043.08-.109.147-.19.19l-1.3.702c-.153.08-.25.239-.25.412 0 .174.097.333.25.413l1.3.692c.077.049.142.114.19.19l.692 1.3c.08.154.24.25.413.25.174 0 .333-.096.413-.25l.702-1.3c.042-.08.108-.147.19-.19l1.299-.692c.148-.084.24-.242.24-.413 0-.17-.092-.328-.24-.412z" transform="translate(35 70) translate(215 55.78)"/>
                </g>
                <g>
                    <path fill="#879DEF" d="M5.45 3.65l-1.3-.701c-.085-.037-.153-.105-.19-.19l-.702-1.3c-.084-.148-.242-.24-.413-.24-.17 0-.328.092-.412.24l-.693 1.3c-.043.081-.109.147-.19.19l-1.3.702c-.153.08-.25.239-.25.412 0 .174.097.333.25.413l1.3.693c.077.048.142.113.19.19l.693 1.299c.08.154.239.25.412.25.174 0 .333-.096.413-.25l.702-1.3c.043-.08.109-.147.19-.19l1.3-.692c.148-.084.24-.242.24-.413 0-.17-.092-.328-.24-.412z" transform="translate(35 70) translate(89 4.78)"/>
                    <path stroke="#000" d="M6.262 2.432l-1.3-.702c-.084-.038-.152-.105-.19-.19L4.072.24C3.986.092 3.829 0 3.658 0c-.17 0-.328.092-.413.24l-.692 1.3c-.043.08-.109.147-.19.19l-1.3.702c-.153.08-.25.239-.25.412 0 .174.097.333.25.413l1.3.692c.077.049.142.114.19.19l.692 1.3c.08.154.24.25.413.25.174 0 .333-.096.413-.25l.702-1.3c.042-.08.108-.147.19-.19l1.299-.692c.148-.084.24-.242.24-.413 0-.17-.092-.328-.24-.412z" transform="translate(35 70) translate(89 4.78)"/>
                </g>
                <g>
                    <path fill="#879DEF" d="M11.651 6.419L8.868 4.925c-.174-.084-.314-.224-.398-.398L6.98 1.739c-.18-.321-.518-.52-.885-.52s-.706.199-.885.52L3.72 4.527c-.092.175-.24.315-.418.398L.519 6.42c-.32.18-.519.518-.519.886s.198.707.519.886l2.783 1.494c.176.097.32.242.417.418l1.491 2.788c.18.321.518.52.885.52s.705-.199.884-.52l1.491-2.788c.09-.175.228-.32.398-.418l2.783-1.494c.332-.17.54-.512.54-.886s-.208-.716-.54-.886z" transform="translate(35 70) translate(262 8.78)"/>
                    <path stroke="#000" d="M12.464 5.2L9.68 3.706c-.174-.084-.314-.224-.398-.398L7.793.52C7.612.199 7.274 0 6.907 0s-.706.199-.885.52L4.532 3.308c-.092.175-.238.315-.418.398L1.331 5.2c-.32.18-.518.518-.518.886s.198.707.518.886l2.783 1.494c.177.097.321.242.418.418l1.49 2.788c.18.321.519.52.886.52s.705-.199.884-.52l1.491-2.788c.09-.175.228-.32.398-.418l2.783-1.494c.332-.17.54-.512.54-.886s-.208-.716-.54-.886z" transform="translate(35 70) translate(262 8.78)"/>
                </g>
                <g transform="translate(35 70) translate(72.831 201.215)">
                    <circle cx="3.251" cy="3.658" r="2.438" fill="#879DEF"/>
                    <circle cx="2.438" cy="2.438" r="2.438" stroke="#000"/>
                </g>
            </g>
            <g stroke="#6F7CBD" transform="translate(35 70) translate(18.677 5.38)">
                <path d="M120.535 86.254l9.43.053.154 15.807-17.612.158c.31-1.243.5-2.17.576-2.78.084-.684.105-1.626.06-2.826h0l7.392-10.412z" transform="rotate(-150 121.244 94.265)"/>
                <path d="M110.411 77.578c.927-.008 1.769.36 2.382.96.613.602.996 1.437 1.005 2.356h0l-.101 13.967c-.007.951-.395 1.812-1.019 2.437-.624.626-1.484 1.015-2.435 1.024-.927.01-1.77-.358-2.382-.96-.613-.601-.997-1.437-1.005-2.355h0l.101-13.967c.007-.952.395-1.812 1.019-2.438.623-.625 1.483-1.015 2.435-1.024z" transform="rotate(-150 110.327 87.95)"/>
                <ellipse cx="65.205" cy="65.037" rx="47.401" ry="46.943" transform="rotate(-150 65.205 65.037)"/>
                <ellipse cx="64.703" cy="65.529" rx="38.918" ry="38.542" transform="rotate(-150 64.703 65.529)"/>
            </g>
            <g>
                <g>
                    <path fill="#FFF" d="M111.978 69.006c-1.128.2-2.263.192-3.395-.009-8.12-1.413-16.05-12.581-18.68-27.198-2.276-12.644.07-24.23 5.354-29.794 1.677-1.77 3.65-2.929 5.864-3.321 9.193-1.632 19.077 10.548 22.074 27.206 2.998 16.658-2.024 31.484-11.217 33.116M97.873.256c-.643.112-1.275.258-1.893.443-.648.192-1.282.422-1.905.686l-1.233.591c-.556.289-1.101.61-1.629.96l-.004.007c-2.121 1.403-4.015 3.28-5.652 5.536-5.801 7.983-8.3 20.736-5.818 34.33 2.916 15.976 11.87 28.526 22.068 32.608 2.948 1.19 6.008 1.663 9.05 1.298l.95-.137c13.862-2.425 21.982-21.477 18.135-42.553C126.095 12.95 111.736-2.17 97.873.255" transform="translate(35 70) translate(61 82) translate(84.103 2)"/>
                    <path fill="#D3D5DC" stroke="#000" stroke-width=".855" d="M111.978 69.006c-1.128.2-2.263.192-3.395-.009-8.12-1.413-16.05-12.581-18.68-27.198-2.276-12.644.07-24.23 5.354-29.794 1.677-1.77 3.65-2.929 5.864-3.321 9.193-1.632 19.077 10.548 22.074 27.206 2.998 16.658-2.024 31.484-11.217 33.116zM97.873.256c-.643.112-1.275.258-1.893.443-.648.192-1.282.422-1.905.686l-1.233.591c-.556.289-1.101.61-1.629.96l-.004.007c-2.121 1.403-4.015 3.28-5.652 5.536-5.801 7.983-8.3 20.736-5.818 34.33 2.916 15.976 11.87 28.526 22.068 32.608 2.948 1.19 6.008 1.663 9.05 1.298l.95-.137c13.862-2.425 21.982-21.477 18.135-42.553C126.095 12.95 111.736-2.17 97.873.255z" transform="translate(35 70) translate(61 82) translate(84.103 2)"/>
                    <path fill="#FFF" d="M.651 51.634l-.089.033.101-.018c-.01-.007-.01-.007-.012-.015zM3.98 73.002l.088.002c.006-.01.014-.012.012-.02l-.1.018zM.335 51.243l-.07.012.062-.023c.001.006.001.006.008.01M40.177 76.427c.086.003.17 0 .256-.003l-.255.009v-.006z" transform="translate(35 70) translate(61 82) translate(84.103 2)"/>
                    <path stroke="#000" stroke-width=".855" d="M88.841 3.878l-.364.343c-1.035.995-2 2.113-2.89 3.343-5.856 8.08-8.4 20.983-5.893 34.746 2.949 16.195 12.03 28.88 22.33 33.013 1.368.553 2.76.955 4.162 1.194h0l-12.484 1.784c-5.713 1.005-11.463-.827-16.479-4.684-6.483-5.028-11.682-13.342-14.045-23.382-.191-.81-.363-1.63-.516-2.463 1.154-5.268.666-10.77-.226-16.363.764-4.578 2.234-8.752 4.294-12.262 2.494-4.208 5.722-7.393 9.571-9.231h0l12.54-6.038z" transform="translate(35 70) translate(61 82) translate(84.103 2)"/>
                </g>
                <g stroke="#000" stroke-width=".9">
                    <path fill="#D3D5DC" d="M134.142 71.417c-1.19.21-2.386.201-3.581-.009-8.566-1.481-16.93-13.184-19.704-28.501-2.4-13.25.073-25.39 5.648-31.222 1.769-1.855 3.85-3.069 6.185-3.48 9.697-1.71 20.123 11.054 23.284 28.51 3.163 17.456-2.135 32.992-11.832 34.702zM120.165.267c-.679.118-1.345.271-1.997.466-.683.2-1.352.442-2.009.718l-1.3.62c-.588.302-1.162.64-1.719 1.006l-.005.007c-2.237 1.47-4.235 3.437-5.96 5.8-6.12 8.367-8.756 21.73-6.139 35.975 3.077 16.742 12.52 29.894 23.279 34.17 3.109 1.248 6.337 1.744 9.546 1.36l1.003-.142c14.621-2.541 23.187-22.506 19.128-44.592C149.934 13.57 134.788-2.274 120.165.268z" transform="translate(35 70) translate(61 82)"/>
                    <path d="M97.98 77.704v.006l-38.456 1.536-.076.007c-.09.003-.179.006-.27.003-3.117.073-6.248-1.57-8.943-4.416-.127-.134-.254-.269-.376-.411-3.168-3.529-5.681-8.751-6.791-14.808-1.359-7.412-.304-14.354 2.43-18.905 1.387-2.322 3.217-4.02 5.38-4.848v-.006l35.99-15.932.001.006c-.025.035-.043.077-.069.112-4.617 7.819-6.468 18.73-4.363 30.217C84.607 62.1 90.502 71.95 97.92 77.658c.023.015.038.03.06.046zM27.555 75.22c-1.568 2.12-3.69 3.581-6.183 4.024-1.193.212-2.38.173-3.54-.072-5.023-1.084-9.456-6.23-10.676-13.018-1.221-6.788 1.144-13.141 5.479-15.887 1.002-.63 2.102-1.074 3.296-1.286 2.46-.438 4.937.18 7.122 1.596l-5.769 1.975-.066.024c-4.492.798-7.208 6.558-6.073 12.87 1.135 6.312 5.69 10.78 10.182 9.982l.065.001 6.163-.209z" transform="translate(35 70) translate(61 82)"/>
                    <path d="M17.832 79.171c1.16.247 2.347.285 3.54.073l-5.512.87-3.062.48C7.066 80.492 1.685 74.96.32 67.37c-1.503-8.357 2.424-16.046 8.775-17.175l6.835-1.213c-1.193.212-2.293.656-3.295 1.286-4.335 2.746-6.7 9.1-5.48 15.887 1.221 6.788 5.654 11.934 10.677 13.017z" transform="translate(35 70) translate(61 82)"/>
                    <path d="M43.068 59.62c1.11 6.057 3.623 11.28 6.79 14.809l-22.415.722-6.18.205c.005-.007.01-.008.01-.014l-.076.013c-4.504.785-9.07-3.61-10.209-9.818-1.138-6.209 1.585-11.874 6.09-12.659l.075-.013c-.008-.004-.008-.004-.009-.01l5.785-1.943h.005l22.564-10.195c-2.734 4.55-3.789 11.492-2.43 18.904zM110.506 4.283l-.378.353c-1.092 1.043-2.11 2.215-3.048 3.503-6.178 8.468-8.86 21.99-6.217 36.414 3.11 16.972 12.69 30.265 23.554 34.596 1.439.578 2.902.998 4.377 1.25h0l-13.155 1.866c-6.027 1.053-12.093-.866-17.385-4.909-7.404-5.703-13.228-15.458-15.375-27.17-2.084-11.366-.263-22.167 4.306-29.905 2.631-4.408 6.036-7.746 10.097-9.673h0l13.224-6.325z" transform="translate(35 70) translate(61 82)"/>
                </g>
            </g>
            <g fill-rule="nonzero">
                <path fill="#FF6E61" d="M13 39L19 39 19 32 13 32zM16 0C8.818 0 3 5.768 3 12.889h6.5c0-3.545 2.925-6.445 6.5-6.445s6.5 2.9 6.5 6.445c0 6.444-9.75 5.639-9.75 16.111h6.5c0-7.25 9.75-8.056 9.75-16.111C29 5.768 23.183 0 16 0z" transform="translate(35 70) translate(71 51)"/>
                <path stroke="#6F7CBD" d="M9 40L16 40 16 33 9 33zM13 1C5.817 1 0 6.768 0 13.889h6.5c0-3.545 2.925-6.445 6.5-6.445s6.5 2.9 6.5 6.445c0 6.444-9.75 5.639-9.75 16.111h6.5c0-7.25 9.75-8.056 9.75-16.111C26 6.768 20.183 1 13 1z" transform="translate(35 70) translate(71 51)"/>
            </g>
        </g>
    </g>
</svg>
