<svg xmlns="http://www.w3.org/2000/svg" width="380" height="380" viewBox="0 0 380 380">
    <g fill="none" fill-rule="evenodd">
        <g>
            <g fill-rule="nonzero">
                <g transform="translate(58 62.85) translate(224.831 129.365)">
                    <circle cx="3.251" cy="3.658" r="2.438" fill="#879DEF"/>
                    <circle cx="2.438" cy="2.438" r="2.438" stroke="#000"/>
                </g>
                <g>
                    <path fill="#879DEF" d="M4.064 2.845c0 1.122-.91 2.032-2.032 2.032C.91 4.877 0 3.967 0 2.845 0 1.723.91.813 2.032.813c1.122 0 2.032.91 2.032 2.032z" transform="translate(58 62.85) translate(24.037 130.082)"/>
                    <path stroke="#000" d="M4.877 2.032c0 1.122-.91 2.032-2.032 2.032-1.122 0-2.032-.91-2.032-2.032C.813.91 1.723 0 2.845 0c1.122 0 2.032.91 2.032 2.032h0z" transform="translate(58 62.85) translate(24.037 130.082)"/>
                </g>
                <g>
                    <path fill="#879DEF" d="M5.33 3.432c-.107-.058-.194-.144-.252-.25l-.89-1.654c-.107-.19-.31-.309-.531-.309-.22 0-.424.118-.532.309l-.899 1.655c-.051.107-.136.194-.241.249l-1.673.956C.119 4.495 0 4.696 0 4.914c0 .219.12.42.312.527l1.673.88c.105.055.19.142.241.248l.9 1.646c.102.196.307.32.531.32.224 0 .429-.124.532-.32l.89-1.646c.057-.105.144-.191.25-.248l1.663-.88c.199-.102.323-.305.323-.527 0-.22-.124-.424-.323-.526L5.33 3.432z" transform="translate(58 62.85) translate(14.995 177)"/>
                    <path stroke="#000" d="M6.142 2.212c-.106-.057-.193-.143-.251-.248L5 .309C4.895.119 4.692 0 4.47 0c-.22 0-.424.118-.532.309L3.04 1.964c-.051.106-.136.194-.242.248l-1.672.957c-.193.107-.312.308-.312.526 0 .219.12.42.312.526l1.672.88c.106.055.19.143.242.25l.9 1.645c.102.196.307.32.53.32.224 0 .43-.124.533-.32L5.89 5.35c.058-.105.145-.191.251-.248l1.663-.88c.198-.103.323-.305.323-.527 0-.22-.125-.424-.323-.526l-1.663-.957z" transform="translate(58 62.85) translate(14.995 177)"/>
                </g>
                <g>
                    <path fill="#879DEF" d="M5.33 3.432c-.107-.058-.194-.144-.252-.25l-.89-1.654c-.107-.19-.31-.309-.531-.309-.22 0-.424.118-.532.309l-.899 1.655c-.051.107-.136.194-.241.249l-1.673.956C.119 4.495 0 4.696 0 4.914c0 .219.12.42.312.527l1.673.88c.105.055.19.142.241.248l.9 1.646c.102.196.307.32.531.32.224 0 .429-.124.532-.32l.89-1.646c.057-.105.144-.191.25-.248l1.663-.88c.199-.102.323-.305.323-.527 0-.22-.124-.424-.323-.526L5.33 3.432z" transform="translate(58 62.85) translate(156.995)"/>
                    <path stroke="#000" d="M6.142 2.212c-.106-.057-.193-.143-.251-.248L5 .309C4.895.119 4.692 0 4.47 0c-.22 0-.424.118-.532.309L3.04 1.964c-.051.106-.136.194-.242.248l-1.672.957c-.193.107-.312.308-.312.526 0 .219.12.42.312.526l1.672.88c.106.055.19.143.242.25l.9 1.645c.102.196.307.32.53.32.224 0 .43-.124.533-.32L5.89 5.35c.058-.105.145-.191.251-.248l1.663-.88c.198-.103.323-.305.323-.527 0-.22-.125-.424-.323-.526l-1.663-.957z" transform="translate(58 62.85) translate(156.995)"/>
                </g>
                <g>
                    <path fill="#879DEF" d="M13.18 7.13l-3.147-1.69c-.197-.108-.36-.27-.466-.47L7.88 1.815c-.197-.366-.578-.595-.993-.595-.415 0-.797.229-.994.595L4.207 4.971c-.108.198-.27.36-.467.468L.593 7.131C.228 7.329 0 7.71 0 8.128c0 .416.228.799.593.997l3.147 1.692c.197.107.36.27.467.468l1.686 3.157c.197.366.579.595.994.595.415 0 .796-.229.993-.595l1.687-3.157c.107-.198.269-.361.466-.468L13.18 9.17c.39-.19.637-.585.637-1.02 0-.434-.247-.83-.637-1.02z" transform="translate(58 62.85) translate(0 9.932)"/>
                    <path stroke="#000" d="M13.993 5.912L10.846 4.22c-.197-.107-.36-.27-.467-.468L8.693.595C8.496.228 8.114 0 7.7 0c-.415 0-.796.228-.993.595L5.019 3.752c-.107.198-.269.36-.466.468L1.406 5.912c-.366.198-.593.58-.593.997 0 .416.227.799.593.997l3.147 1.691c.197.108.36.27.466.469l1.687 3.157c.197.366.578.594.993.594.415 0 .797-.228.994-.594l1.686-3.157c.108-.199.27-.361.467-.469l3.147-1.646c.39-.19.637-.585.637-1.02 0-.434-.247-.83-.637-1.02h0z" transform="translate(58 62.85) translate(0 9.932)"/>
                </g>
                <g>
                    <path fill="#879DEF" d="M5.45 3.65l-1.3-.701c-.085-.037-.153-.105-.19-.19l-.702-1.3c-.084-.148-.242-.24-.413-.24-.17 0-.328.092-.412.24l-.693 1.3c-.043.081-.109.147-.19.19l-1.3.702c-.153.08-.25.239-.25.412 0 .174.097.333.25.413l1.3.693c.077.048.142.113.19.19l.693 1.299c.08.154.239.25.412.25.174 0 .333-.096.413-.25l.702-1.3c.043-.08.109-.147.19-.19l1.3-.692c.148-.084.24-.242.24-.413 0-.17-.092-.328-.24-.412z" transform="translate(58 62.85) translate(197 80.932)"/>
                    <path stroke="#000" d="M6.262 2.432l-1.3-.702c-.084-.038-.152-.105-.19-.19L4.072.24C3.986.092 3.829 0 3.658 0c-.17 0-.328.092-.413.24l-.692 1.3c-.043.08-.109.147-.19.19l-1.3.702c-.153.08-.25.239-.25.412 0 .174.097.333.25.413l1.3.692c.077.049.142.114.19.19l.692 1.3c.08.154.24.25.413.25.174 0 .333-.096.413-.25l.702-1.3c.042-.08.108-.147.19-.19l1.299-.692c.148-.084.24-.242.24-.413 0-.17-.092-.328-.24-.412z" transform="translate(58 62.85) translate(197 80.932)"/>
                </g>
                <g>
                    <path fill="#879DEF" d="M5.45 3.65l-1.3-.701c-.085-.037-.153-.105-.19-.19l-.702-1.3c-.084-.148-.242-.24-.413-.24-.17 0-.328.092-.412.24l-.693 1.3c-.043.081-.109.147-.19.19l-1.3.702c-.153.08-.25.239-.25.412 0 .174.097.333.25.413l1.3.693c.077.048.142.113.19.19l.693 1.299c.08.154.239.25.412.25.174 0 .333-.096.413-.25l.702-1.3c.043-.08.109-.147.19-.19l1.3-.692c.148-.084.24-.242.24-.413 0-.17-.092-.328-.24-.412z" transform="translate(58 62.85) translate(71 29.932)"/>
                    <path stroke="#000" d="M6.262 2.432l-1.3-.702c-.084-.038-.152-.105-.19-.19L4.072.24C3.986.092 3.829 0 3.658 0c-.17 0-.328.092-.413.24l-.692 1.3c-.043.08-.109.147-.19.19l-1.3.702c-.153.08-.25.239-.25.412 0 .174.097.333.25.413l1.3.692c.077.049.142.114.19.19l.692 1.3c.08.154.24.25.413.25.174 0 .333-.096.413-.25l.702-1.3c.042-.08.108-.147.19-.19l1.299-.692c.148-.084.24-.242.24-.413 0-.17-.092-.328-.24-.412z" transform="translate(58 62.85) translate(71 29.932)"/>
                </g>
                <g>
                    <path fill="#879DEF" d="M11.651 6.419L8.868 4.925c-.174-.084-.314-.224-.398-.398L6.98 1.739c-.18-.321-.518-.52-.885-.52s-.706.199-.885.52L3.72 4.527c-.092.175-.24.315-.418.398L.519 6.42c-.32.18-.519.518-.519.886s.198.707.519.886l2.783 1.494c.176.097.32.242.417.418l1.491 2.788c.18.321.518.52.885.52s.705-.199.884-.52l1.491-2.788c.09-.175.228-.32.398-.418l2.783-1.494c.332-.17.54-.512.54-.886s-.208-.716-.54-.886z" transform="translate(58 62.85) translate(244 33.932)"/>
                    <path stroke="#000" d="M12.464 5.2L9.68 3.706c-.174-.084-.314-.224-.398-.398L7.793.52C7.612.199 7.274 0 6.907 0s-.706.199-.885.52L4.532 3.308c-.092.175-.238.315-.418.398L1.331 5.2c-.32.18-.518.518-.518.886s.198.707.518.886l2.783 1.494c.177.097.321.242.418.418l1.49 2.788c.18.321.519.52.886.52s.705-.199.884-.52l1.491-2.788c.09-.175.228-.32.398-.418l2.783-1.494c.332-.17.54-.512.54-.886s-.208-.716-.54-.886z" transform="translate(58 62.85) translate(244 33.932)"/>
                </g>
                <g>
                    <path fill="#879DEF" d="M11.651 6.419L8.868 4.925c-.174-.084-.314-.224-.398-.398L6.98 1.739c-.18-.321-.518-.52-.885-.52s-.706.199-.885.52L3.72 4.527c-.092.175-.24.315-.418.398L.519 6.42c-.32.18-.519.518-.519.886s.198.707.519.886l2.783 1.494c.176.097.32.242.417.418l1.491 2.788c.18.321.518.52.885.52s.705-.199.884-.52l1.491-2.788c.09-.175.228-.32.398-.418l2.783-1.494c.332-.17.54-.512.54-.886s-.208-.716-.54-.886z" transform="translate(58 62.85) translate(184 201.932)"/>
                    <path stroke="#000" d="M12.464 5.2L9.68 3.706c-.174-.084-.314-.224-.398-.398L7.793.52C7.612.199 7.274 0 6.907 0s-.706.199-.885.52L4.532 3.308c-.092.175-.238.315-.418.398L1.331 5.2c-.32.18-.518.518-.518.886s.198.707.518.886l2.783 1.494c.177.097.321.242.418.418l1.49 2.788c.18.321.519.52.886.52s.705-.199.884-.52l1.491-2.788c.09-.175.228-.32.398-.418l2.783-1.494c.332-.17.54-.512.54-.886s-.208-.716-.54-.886z" transform="translate(58 62.85) translate(184 201.932)"/>
                </g>
            </g>
            <path fill="#D3D5DC" stroke="#6F7CBD" d="M147.27 181.65c-.132 4.009-1.835 7.64-4.512 10.301-2.79 2.773-6.637 4.495-10.87 4.495-4.231 0-8.079-1.722-10.868-4.495-2.678-2.661-4.38-6.292-4.512-10.3h0z" transform="translate(58 62.85)"/>
            <path stroke="#6F7CBD" d="M145.756 68.964c-.75-.216-1.511-.415-2.284-.597v-5.37c0-6.555-5.323-11.846-11.916-11.846-6.594 0-11.917 5.291-11.917 11.846v5.37c-22.721 5.37-35.75 25.588-35.75 49.912v22.849c0 10.65-4.247 20.86-11.8 28.368L68 173.561h0v7.897h127.111v-7.897l-4.089-4.065c-7.553-7.508-11.8-17.718-11.8-28.368v-22.85h0c0-12.158-3.257-23.324-9.38-32.112M188.72 167.1l-114.603.38 114.603-.38z" transform="translate(58 62.85)"/>
            <path stroke="#6F7CBD" stroke-linecap="round" d="M120.063 68.267c3.75-.858 7.579-1.286 11.484-1.286 3.906 0 7.734.428 11.485 1.286" transform="translate(58 62.85)"/>
            <g transform="translate(58 62.85) translate(144.343 58.393)">
                <circle cx="19.95" cy="15" r="15" fill="#FF6E61"/>
                <circle cx="15" cy="17" r="15" stroke="#000"/>
                <text fill="#6F7CBD" font-family="Montserrat-Regular, Montserrat" font-size="21" letter-spacing=".656">
                    <tspan x="8.221" y="24">0</tspan>
                </text>
            </g>
        </g>
    </g>
</svg>
