<svg width="300" height="180" viewBox="0 0 300 180" fill="none" xmlns="http://www.w3.org/2000/svg">
<rect width="300" height="180" fill="white"/>
<path d="M69.3473 131.074H100.73L131.054 110.302H173.437L196.195 88.6357L240.005 66.2284L267.104 45.5495V161.732H54.2158L69.3473 131.074Z" fill="#C6D2FF"/>
<path d="M45.585 52.9194C46.2596 46.9718 51.1036 42.4912 56.8684 42.4912C57.6901 42.4912 58.5092 42.583 59.3105 42.7649L59.3393 42.771L59.3493 42.7435C60.1515 40.5663 61.5804 38.6754 63.4558 37.3092C67.0125 34.7093 71.7777 34.4834 75.5645 36.735C77.2347 37.7333 78.6287 39.1334 79.6195 40.8081L79.6308 40.8275L79.6529 40.8235C83.7352 40.2024 87.8815 41.4385 90.9572 44.1938C93.4882 46.4351 95.1935 49.5323 95.7623 52.9194H45.585Z" fill="white" stroke="#3C64F7"/>
<path d="M29.9473 55.9085C30.3677 52.2014 33.387 49.4086 36.9802 49.4086C37.4924 49.4086 38.0029 49.4658 38.5024 49.5793L38.5203 49.583L38.5266 49.5659C39.0265 48.2089 39.9171 47.0302 41.0861 46.1787C43.303 44.5582 46.2731 44.4174 48.6334 45.8208C49.6744 46.443 50.5433 47.3158 51.1609 48.3595L51.1679 48.3716L51.1817 48.3691C53.7262 47.982 56.3105 48.7525 58.2276 50.4698C59.8052 51.8668 60.8681 53.7974 61.2227 55.9085H29.9473Z" fill="white" stroke="#3C64F7"/>
<path d="M29.0517 148.219C28.806 148.713 29.0077 149.314 29.5023 149.559C29.997 149.805 30.5971 149.603 30.8428 149.109L29.0517 148.219ZM270.051 18.2679L258.581 19.599L265.469 28.8668L270.051 18.2679ZM237.883 42.1752L238.341 43.0642L238.414 43.0267L238.48 42.9778L237.883 42.1752ZM46.5569 115.23L46.5545 114.23L45.9364 114.232L45.6614 114.786L46.5569 115.23ZM117.002 91.0669L117.006 90.0669L116.692 90.0658L116.433 90.2446L117.002 91.0669ZM82.2117 115.145L82.2141 116.145L82.5251 116.144L82.7808 115.967L82.2117 115.145ZM165.24 91.2413L165.236 92.2413L165.65 92.2428L165.944 91.9516L165.24 91.2413ZM189.693 67.006L189.235 66.117L189.098 66.1875L188.989 66.2957L189.693 67.006ZM238.48 42.9778L263.424 24.439L262.231 22.8338L237.287 41.3726L238.48 42.9778ZM30.8428 149.109L47.4525 115.675L45.6614 114.786L29.0517 148.219L30.8428 149.109ZM46.5593 116.23L82.2141 116.145L82.2093 114.145L46.5545 114.23L46.5593 116.23ZM82.7808 115.967L117.571 91.8892L116.433 90.2446L81.6427 114.322L82.7808 115.967ZM116.999 92.0669L165.236 92.2413L165.243 90.2413L117.006 90.0669L116.999 92.0669ZM165.944 91.9516L190.397 67.7162L188.989 66.2957L164.536 90.5311L165.944 91.9516ZM190.151 67.8949L238.341 43.0642L237.425 41.2863L189.235 66.117L190.151 67.8949Z" fill="#08081C"/>
</svg>
