<?xml version="1.0" encoding="UTF-8"?>
<svg width="767px" height="482px" viewBox="0 0 767 482" version="1.1" xmlns="http://www.w3.org/2000/svg" xmlns:xlink="http://www.w3.org/1999/xlink">
    <g id="light/empty_still_photo" stroke="none" stroke-width="1" fill="none" fill-rule="evenodd">
        <g id="Group-13">
            <rect id="Rectangle" stroke="#879DEF" fill="#FDFDFD" x="0.5" y="0.5" width="766" height="481"></rect>
            <g id="Group" transform="translate(20.442623, 18.000000)" fill-rule="nonzero" stroke="#1F2A3B" stroke-width="2">
                <circle id="Oval" cx="714.057377" cy="287.5" r="4.5"></circle>
                <path d="M176.557377,120.5 C176.557377,122.432997 174.990374,124 173.057377,124 C171.12438,124 169.557377,122.432997 169.557377,120.5 C169.557377,118.567003 171.12438,117 173.057377,117 C174.990374,117 176.557377,118.567003 176.557377,120.5 L176.557377,120.5 Z" id="Path"></path>
                <path d="M130.028747,19.9319322 C129.839956,19.8302039 129.684849,19.6767192 129.582045,19.4899041 L128.001409,16.548717 C127.810145,16.2099192 127.448643,16 127.056463,16 C126.664282,16 126.30278,16.2099192 126.111517,16.548717 L124.5137,19.4899041 C124.422655,19.6793699 124.271932,19.8344817 124.084179,19.9319322 L121.111896,21.6320403 C120.769516,21.8213025 120.557377,22.1790224 120.557377,22.5670998 C120.557377,22.9551772 120.769516,23.3128971 121.111896,23.5021593 L124.084179,25.0662588 C124.271932,25.1637093 124.422655,25.318821 124.5137,25.5082869 L126.111517,28.4324729 C126.294899,28.7812197 126.659174,29 127.056463,29 C127.453752,29 127.818027,28.7812197 128.001409,28.4324729 L129.582045,25.5082869 C129.684849,25.3214717 129.839956,25.1679871 130.028747,25.0662588 L132.98385,23.5021593 C133.336284,23.3206957 133.557377,22.9602325 133.557377,22.5670998 C133.557377,22.1739671 133.336284,21.8135039 132.98385,21.6320403 L130.028747,19.9319322 Z" id="Path"></path>
                <path d="M119.450899,379.268387 L113.984973,376.329892 C113.641878,376.143318 113.360215,375.860752 113.174237,375.516558 L110.245129,370.033116 C109.902726,369.396703 109.239934,369 108.519046,369 C107.798159,369 107.135367,369.396703 106.792964,370.033116 L103.863855,375.516558 C103.677878,375.860752 103.396215,376.143318 103.05312,376.329892 L97.5871935,379.268387 C96.9528129,379.611886 96.557377,380.276803 96.557377,381 C96.557377,381.723197 96.9528129,382.388114 97.5871935,382.731613 L103.05312,385.670108 C103.396215,385.856682 103.677878,386.139248 103.863855,386.483442 L106.792964,391.966884 C107.135367,392.603297 107.798159,393 108.519046,393 C109.239934,393 109.902726,392.603297 110.245129,391.966884 L113.174237,386.483442 C113.360215,386.139248 113.641878,385.856682 113.984973,385.670108 L119.450899,382.810323 C120.127583,382.48154 120.557377,381.793635 120.557377,381.039355 C120.557377,380.285075 120.127583,379.59717 119.450899,379.268387 L119.450899,379.268387 Z" id="Path"></path>
                <path d="M14.8691275,197.838905 L11.1994826,195.917625 C10.9656848,195.795903 10.7721597,195.609051 10.6423114,195.379667 L8.72103134,191.710022 C8.4973566,191.274119 8.04859776,191 7.55865691,191 C7.06871605,191 6.61995721,191.274119 6.39628247,191.710022 L4.47500242,195.379667 C4.35816316,195.612145 4.1695221,195.800786 3.937044,195.917625 L0.267399098,197.838905 C-0.168504159,198.06258 -0.442622951,198.511339 -0.442622951,199.00128 C-0.442622951,199.491221 -0.168504159,199.93998 0.267399098,200.163654 L3.937044,202.084934 C4.1613182,202.212823 4.34711364,202.398619 4.47500242,202.622893 L6.39628247,206.31175 C6.62903158,206.736174 7.07460407,207 7.55865691,207 C8.04270974,207 8.48828223,206.736174 8.72103134,206.31175 L10.6423114,202.622893 C10.7827919,202.401963 10.9737615,202.217579 11.1994826,202.084934 L14.8691275,200.163654 C15.2935507,199.930905 15.557377,199.485333 15.557377,199.00128 C15.557377,198.517227 15.2935507,198.071655 14.8691275,197.838905 L14.8691275,197.838905 Z" id="Path"></path>
                <path d="M624.092513,130.701333 L621.579975,129.344196 C621.416121,129.272136 621.285241,129.141256 621.213181,128.977402 L619.856044,126.464864 C619.693223,126.177563 619.388498,126 619.058267,126 C618.728037,126 618.423312,126.177563 618.260491,126.464864 L616.921693,128.977402 C616.839044,129.133731 616.711229,129.261546 616.554899,129.344196 L614.042361,130.701333 C613.744407,130.855827 613.557377,131.163483 613.557377,131.49911 C613.557377,131.834736 613.744407,132.142392 614.042361,132.296886 L616.554899,133.635684 C616.702989,133.729063 616.828314,133.854388 616.921693,134.002478 L618.260491,136.515016 C618.414985,136.81297 618.722641,137 619.058267,137 C619.393894,137 619.70155,136.81297 619.856044,136.515016 L621.213181,134.002478 C621.295831,133.846148 621.423646,133.718333 621.579975,133.635684 L624.092513,132.296886 C624.379814,132.134065 624.557377,131.829341 624.557377,131.49911 C624.557377,131.168879 624.379814,130.864154 624.092513,130.701333 Z" id="Path"></path>
                <path d="M713.625935,8.95631189 L708.832095,6.38349836 C708.533123,6.23871366 708.291782,5.99693269 708.147261,5.69741476 L705.579133,0.894829517 C705.270314,0.34224616 704.687521,0 704.055377,0 C703.423232,0 702.84044,0.34224616 702.531621,0.894829517 L699.963492,5.69741476 C699.805939,5.99933833 699.553113,6.2405647 699.244417,6.38349836 L694.450577,8.95631189 C693.899,9.26569468 693.557377,9.84955013 693.557377,10.4828479 C693.557377,11.1161457 693.899,11.7000011 694.450577,12.0093839 L699.244417,14.5821975 C699.547738,14.7487669 699.797226,14.9987101 699.963492,15.3025852 L702.531621,20.1051705 C702.84044,20.6577538 703.423232,21 704.055377,21 C704.687521,21 705.270314,20.6577538 705.579133,20.1051705 L708.147261,15.3025852 C708.301146,15.0011244 708.539043,14.7508765 708.832095,14.5821975 L713.625935,12.0093839 C714.197714,11.7159186 714.557377,11.126468 714.557377,10.4828479 C714.557377,9.83922784 714.197714,9.24977723 713.625935,8.95631189 Z" id="Path"></path>
            </g>
            <path d="M567.173068,440.57695 C571.103778,440.572943 574.965323,441.6386 578.364522,443.665414 C584.470105,432.3963 595.873444,425.229787 608.424123,424.774236 C620.974802,424.318685 632.842458,430.640532 639.707678,441.438847 C643.54281,428.374975 655.797203,419.883054 669.030308,421.119157 C682.263412,422.355261 692.824431,432.978368 694.300989,446.538405 C695.455213,446.325055 696.625544,446.216897 697.798318,446.215193 C706.302763,446.278594 714.061459,451.211224 717.907962,459 L545,459 C547.323851,448.314219 556.510881,440.680945 567.173068,440.57695 L567.173068,440.57695 Z" id="Path" stroke="#1F2A3B" stroke-width="2" fill-rule="nonzero"></path>
            <path d="M94.2325791,243.45999 C98.3964099,239.43958 104.467918,238.11018 109.928471,240.023261 C113.067718,230.233387 122.299294,223.703558 132.566777,224.010367 C156.52565,224.010367 158.449906,247.576513 158.449906,247.576513 C175.277714,242.478068 178.560268,257.39574 178.560268,258 L88.007045,258 C87.8562825,252.474923 90.1314746,247.161112 94.2325791,243.45999 L94.2325791,243.45999 Z" id="Path" stroke="#1F2A3B" stroke-width="2" fill-rule="nonzero"></path>
        </g>
        <g id="Group" transform="translate(19.000000, 21.000000)" fill="#9EB1FF" fill-rule="nonzero">
            <circle id="Oval" cx="716.5" cy="287.5" r="4.5"></circle>
            <path d="M177,118.5 C177,120.432997 175.432997,122 173.5,122 C171.567003,122 170,120.432997 170,118.5 C170,116.567003 171.567003,115 173.5,115 C175.432997,115 177,116.567003 177,118.5 L177,118.5 Z" id="Path"></path>
            <path d="M130.47137,19.9319322 C130.282579,19.8302039 130.127472,19.6767192 130.024668,19.4899041 L128.444032,16.548717 C128.252768,16.2099192 127.891266,16 127.499086,16 C127.106905,16 126.745403,16.2099192 126.55414,16.548717 L124.956323,19.4899041 C124.865278,19.6793699 124.714555,19.8344817 124.526802,19.9319322 L121.554518,21.6320403 C121.212139,21.8213025 121,22.1790224 121,22.5670998 C121,22.9551772 121.212139,23.3128971 121.554518,23.5021593 L124.526802,25.0662588 C124.714555,25.1637093 124.865278,25.318821 124.956323,25.5082869 L126.55414,28.4324729 C126.737522,28.7812197 127.101797,29 127.499086,29 C127.896375,29 128.260649,28.7812197 128.444032,28.4324729 L130.024668,25.5082869 C130.127472,25.3214717 130.282579,25.1679871 130.47137,25.0662588 L133.426473,23.5021593 C133.778907,23.3206957 134,22.9602325 134,22.5670998 C134,22.1739671 133.778907,21.8135039 133.426473,21.6320403 L130.47137,19.9319322 Z" id="Path"></path>
            <path d="M118.893522,379.268387 L113.427596,376.329892 C113.084501,376.143318 112.802838,375.860752 112.61686,375.516558 L109.687751,370.033116 C109.345349,369.396703 108.682557,369 107.961669,369 C107.240782,369 106.57799,369.396703 106.235587,370.033116 L103.306478,375.516558 C103.120501,375.860752 102.838837,376.143318 102.495743,376.329892 L97.0298165,379.268387 C96.3954358,379.611886 96,380.276803 96,381 C96,381.723197 96.3954358,382.388114 97.0298165,382.731613 L102.495743,385.670108 C102.838837,385.856682 103.120501,386.139248 103.306478,386.483442 L106.235587,391.966884 C106.57799,392.603297 107.240782,393 107.961669,393 C108.682557,393 109.345349,392.603297 109.687751,391.966884 L112.61686,386.483442 C112.802838,386.139248 113.084501,385.856682 113.427596,385.670108 L118.893522,382.810323 C119.570206,382.48154 120,381.793635 120,381.039355 C120,380.285075 119.570206,379.59717 118.893522,379.268387 L118.893522,379.268387 Z" id="Path"></path>
            <path d="M15.3117505,197.838905 L11.6421056,195.917625 C11.4083077,195.795903 11.2147827,195.609051 11.0849343,195.379667 L9.16365429,191.710022 C8.93997955,191.274119 8.49122071,191 8.00127986,191 C7.51133901,191 7.06258016,191.274119 6.83890542,191.710022 L4.91762537,195.379667 C4.80078611,195.612145 4.61214505,195.800786 4.37966695,195.917625 L0.710022048,197.838905 C0.274118792,198.06258 0,198.511339 0,199.00128 C0,199.491221 0.274118792,199.93998 0.710022048,200.163654 L4.37966695,202.084934 C4.60394115,202.212823 4.7897366,202.398619 4.91762537,202.622893 L6.83890542,206.31175 C7.07165453,206.736174 7.51722702,207 8.00127986,207 C8.48533269,207 8.93090518,206.736174 9.16365429,206.31175 L11.0849343,202.622893 C11.2254149,202.401963 11.4163845,202.217579 11.6421056,202.084934 L15.3117505,200.163654 C15.7361736,199.930905 16,199.485333 16,199.00128 C16,198.517227 15.7361736,198.071655 15.3117505,197.838905 L15.3117505,197.838905 Z" id="Path"></path>
            <path d="M624.535136,128.701333 L622.022598,127.344196 C621.858744,127.272136 621.727864,127.141256 621.655804,126.977402 L620.298667,124.464864 C620.135846,124.177563 619.831121,124 619.50089,124 C619.170659,124 618.865935,124.177563 618.703114,124.464864 L617.364316,126.977402 C617.281667,127.133731 617.153852,127.261546 616.997522,127.344196 L614.484984,128.701333 C614.18703,128.855827 614,129.163483 614,129.49911 C614,129.834736 614.18703,130.142392 614.484984,130.296886 L616.997522,131.635684 C617.145612,131.729063 617.270937,131.854388 617.364316,132.002478 L618.703114,134.515016 C618.857608,134.81297 619.165264,135 619.50089,135 C619.836517,135 620.144173,134.81297 620.298667,134.515016 L621.655804,132.002478 C621.738454,131.846148 621.866269,131.718333 622.022598,131.635684 L624.535136,130.296886 C624.822437,130.134065 625,129.829341 625,129.49911 C625,129.168879 624.822437,128.864154 624.535136,128.701333 Z" id="Path"></path>
            <path d="M714.068558,8.95631189 L709.274718,6.38349836 C708.975746,6.23871366 708.734405,5.99693269 708.589884,5.69741476 L706.021756,0.894829517 C705.712937,0.34224616 705.130144,0 704.498,0 C703.865855,0 703.283063,0.34224616 702.974244,0.894829517 L700.406115,5.69741476 C700.248562,5.99933833 699.995736,6.2405647 699.687039,6.38349836 L694.8932,8.95631189 C694.341623,9.26569468 694,9.84955013 694,10.4828479 C694,11.1161457 694.341623,11.7000011 694.8932,12.0093839 L699.687039,14.5821975 C699.990361,14.7487669 700.239849,14.9987101 700.406115,15.3025852 L702.974244,20.1051705 C703.283063,20.6577538 703.865855,21 704.498,21 C705.130144,21 705.712937,20.6577538 706.021756,20.1051705 L708.589884,15.3025852 C708.743769,15.0011244 708.981666,14.7508765 709.274718,14.5821975 L714.068558,12.0093839 C714.640337,11.7159186 715,11.126468 715,10.4828479 C715,9.83922784 714.640337,9.24977723 714.068558,8.95631189 Z" id="Path"></path>
        </g>
        <g id="Illustrations/Dark/48px/image" transform="translate(272.000000, 156.000000)" fill-rule="nonzero" stroke-width="0.3">
            <g id="Group">
                <path d="M2.3139725,0 C1.00929863,0.247823167 -0.0219157648,1.5113 0.000353999481,2.83333333 L0.000353999481,107.666667 C-0.0198580093,109.163554 1.34382477,109.210761 2.84762277,109.210761 C4.35142077,109.210761 5.71502386,109.620347 5.69375754,108.123461 L5.69375754,5.66666667 L193.538652,5.66666667 L193.538652,141.666667 L5.69375754,141.666667 L5.69375754,107.666667 C5.71510355,106.16978 4.35142077,104.792981 2.84762277,104.792981 C1.34382477,104.792981 -0.0197783175,106.16978 0.000353999481,107.666667 L0.000353999481,144.5 C0.000353999481,145.983488 1.35743214,147.333186 2.84762277,147.333333 L19.9244314,147.333333 L19.9244314,167.166667 C19.9245794,168.650155 21.2803755,170 22.7705662,170 L219.153865,170 C220.644056,170 222,168.650155 222,167.166667 L222,22.6666667 C222,21.1831787 220.644056,19.8334807 219.153865,19.8333333 L199.230922,19.8333333 L199.230922,2.83333333 C199.230774,1.34984533 197.874978,0 196.384787,0 C131.706064,0 66.9539139,0 2.3139725,0 Z M199.230922,25.5 L216.30773,25.5 L216.30773,164.333333 L25.6167009,164.333333 L25.6167009,147.333333 L196.384787,147.333333 C197.874978,147.333186 199.230774,145.983488 199.230922,144.5 L199.230922,25.5 Z" id="Shape" stroke="#404B8A" fill="#1F2A3B"></path>
                <g id="Group-3" transform="translate(25.631083, 25.500000)" fill="#879DEF" stroke="#8DA4FA">
                    <path d="M59.7544484,0 C69.1519983,0 76.831257,7.64473 76.831257,17 C76.831257,26.35527 69.1519983,34 59.7544484,34 C50.3568985,34 42.6776398,26.35527 42.6776398,17 C42.6776398,7.64473 50.3568985,0 59.7544484,0 Z M59.7544484,5.66666667 C53.4332286,5.66666667 48.3699093,10.7072233 48.3699093,17 C48.3699093,23.2927767 53.4332286,28.3333333 59.7544484,28.3333333 C66.0756682,28.3333333 71.1389875,23.2927767 71.1389875,17 C71.1389875,10.7072233 66.0756682,5.66666667 59.7544484,5.66666667 Z" id="Path-2"></path>
                    <path d="M85.0138945,39.6666667 C84.382488,39.7346383 83.7768078,40.0202355 83.324002,40.4635417 L56.0188965,67.6458333 L44.5454157,57.375 C43.9288576,56.8174085 43.0577126,56.550568 42.2329312,56.6666667 C41.6732673,56.7462833 41.1392641,56.9964355 40.7209221,57.375 L0.875035367,94.2083333 C-0.229743074,95.225585 -0.299481915,97.1550793 0.729000192,98.2487432 C1.7574823,99.342407 3.69607861,99.4002127 4.78847067,98.3697832 L42.7665815,63.3072832 L69.2712115,87.0364498 C70.2954899,88.3320425 72.5268596,88.4014733 73.6304199,87.1720815 C74.7339773,85.9427208 74.4147463,83.7431418 73.0067634,82.875 L60.2880987,71.453125 L85.458603,46.3958333 L143.181774,101.203125 C144.274166,102.233546 146.212762,102.17574 147.241244,101.082085 C148.269726,99.9884127 148.199988,98.0589183 147.095209,97.0416667 L87.326379,40.375 C86.7098208,39.8174085 85.8386759,39.550568 85.0138945,39.6666667 Z" id="Path"></path>
                </g>
            </g>
        </g>
    </g>
</svg>
