<svg xmlns="http://www.w3.org/2000/svg" xmlns:xlink="http://www.w3.org/1999/xlink" width="380" height="380" viewBox="0 0 380 380">
    <defs>
        <path id="gy4i8fazva" d="M.403 6.033c-2.03 6.251 4.088 14.779 7.746 19.875.64.894 1.208 1.685 1.649 2.346.039.061.099.105.168.126.068.023.14.023.21-.003.746-.276 1.669-.582 2.713-.928 5.954-1.974 15.917-5.278 17.948-11.527 1.48-4.563-.984-9.469-5.496-10.935-2.911-.946-6.056-.273-8.345 1.754-.66-2.984-2.806-5.378-5.72-6.324C10.407.135 9.523 0 8.652 0 5.008 0 1.6 2.351.403 6.033z"/>
        <path id="s243w69a0b" d="M41.041 101.775c0 1.123.91 2.032 2.032 2.032 1.122 0 2.032-.909 2.032-2.032 0-1.121-.91-2.031-2.032-2.031-1.122 0-2.032.91-2.032 2.031z"/>
        <path id="mcc9vn747c" d="M3.126 187.377l-.9 1.654c-.051.107-.135.194-.242.249l-1.672.957c-.192.107-.312.308-.312.526 0 .218.12.42.312.526l1.672.88c.107.055.191.143.242.249l.9 1.646c.102.196.307.319.532.319.223 0 .427-.123.531-.319l.889-1.646c.058-.105.145-.191.252-.249l1.662-.88c.199-.101.323-.304.323-.526 0-.221-.124-.424-.323-.526l-1.662-.957c-.107-.057-.194-.143-.252-.249l-.889-1.654c-.108-.191-.311-.31-.531-.31-.222 0-.425.119-.532.31z"/>
        <path id="d5vgknmk5d" d="M277.125 262.378l-.899 1.654c-.051.106-.136.194-.241.248l-1.673.958c-.193.106-.313.308-.313.525 0 .219.12.42.313.526l1.673.88c.105.055.19.142.241.249l.899 1.646c.104.196.309.319.532.319.224 0 .428-.123.532-.319l.889-1.646c.058-.105.145-.191.251-.249l1.663-.88c.198-.101.323-.304.323-.526 0-.221-.125-.424-.323-.525l-1.663-.958c-.106-.058-.193-.143-.251-.248l-.889-1.654c-.108-.192-.311-.31-.532-.31-.22 0-.424.118-.532.31z"/>
        <path id="8b4nu8v9fe" d="M100.897 55.594l-1.687 3.158c-.106.198-.269.36-.466.468l-3.146 1.692c-.366.197-.594.58-.594.996 0 .417.228.799.594.997l3.146 1.692c.197.107.36.27.466.468l1.687 3.157c.198.367.579.594.994.594.416 0 .797-.227.994-.594l1.686-3.157c.107-.198.269-.361.467-.468l3.147-1.647c.39-.189.637-.585.637-1.019 0-.434-.247-.83-.637-1.019l-3.147-1.692c-.198-.108-.36-.27-.467-.468l-1.686-3.158c-.197-.366-.578-.594-.994-.594-.415 0-.796.228-.994.594z"/>
        <path id="euowzieuyf" d="M216.437 51.24l-.693 1.299c-.042.081-.109.147-.189.19l-1.299.703c-.155.079-.251.238-.251.412s.096.333.251.413l1.299.692c.077.049.142.113.189.189l.693 1.301c.08.153.239.25.413.25.173 0 .332-.097.413-.25l.702-1.301c.042-.08.109-.147.189-.189l1.299-.692c.15-.085.241-.243.241-.413 0-.171-.091-.329-.241-.412l-1.299-.703c-.085-.037-.153-.105-.189-.19l-.702-1.299c-.085-.149-.243-.241-.413-.241-.171 0-.329.092-.413.241z"/>
        <path id="imgseoc3qg" d="M90.437.24l-.693 1.299c-.042.082-.109.147-.189.19l-1.299.702c-.154.08-.251.239-.251.413 0 .173.097.333.251.413l1.299.692c.077.048.142.112.189.19l.693 1.299c.08.154.239.251.413.251.173 0 .332-.097.413-.251l.702-1.299c.042-.081.109-.148.189-.19l1.299-.692c.149-.085.241-.242.241-.413 0-.171-.092-.329-.241-.413l-1.299-.702c-.085-.037-.153-.105-.189-.19L91.263.24C91.178.091 91.021 0 90.85 0c-.171 0-.329.091-.413.24z"/>
        <path id="hnnxhcr21h" d="M266.214 4.518l-1.491 2.79c-.091.174-.237.315-.417.397l-2.782 1.494c-.321.18-.52.519-.52.886 0 .368.199.707.52.887l2.782 1.494c.176.096.322.242.417.417l1.491 2.788c.18.322.518.521.885.521s.706-.199.885-.521l1.491-2.788c.089-.174.228-.319.397-.417l2.784-1.494c.332-.171.54-.513.54-.887 0-.373-.208-.715-.54-.886l-2.784-1.494c-.174-.083-.313-.224-.397-.397l-1.491-2.79c-.179-.32-.518-.519-.885-.519s-.705.199-.885.519z"/>
    </defs>
    <g fill="none" fill-rule="evenodd">
        <g>
            <g>
                <path stroke="#121424" stroke-linejoin="round" d="M206 76.556L206 131.716 113 164.216 113.01 56.617 133 94.216z" transform="translate(76.004 129.178)"/>
                <path stroke="#121424" stroke-linejoin="round" d="M199 105.217L162.429 115.9 162.426 138.217 199 125.437zM113.01 56.617L113 164.217 20 131.717 20 76.556 93 94.217z" transform="translate(76.004 129.178)"/>
                <path stroke="#121424" stroke-linejoin="round" d="M26.387 104.217L48.62 109.494 48.618 135.217 26.387 127.448z" transform="translate(76.004 129.178)"/>
                <path fill="#D8D8D8" d="M26.387 117.449L48.62 124.217 48.62 109.495 26.387 104.217z" transform="translate(76.004 129.178)"/>
                <path stroke="#121424" stroke-linejoin="round" d="M26.387 104.217L48.62 109.494 48.618 124.217 26.387 117.448zM226 71.716L206 76.556 133 94.216 113.01 56.616 206 34.536zM113.01 56.617L93 94.217 20 76.556 0 71.717 20 34.536z" transform="translate(76.004 129.178)"/>
                <path stroke="#121424" stroke-linejoin="round" d="M165.996 24.822L206 34.536 113.01 56.617 20 34.536 49.93 27.416 113.01 12.396 149.71 21.136" transform="translate(76.004 129.178)"/>
                <g transform="translate(76.004 129.178) translate(148.863)">
                    <use fill="#FF6E61" xlink:href="#gy4i8fazva"/>
                </g>
                <path stroke="#000" stroke-linejoin="round" d="M170.204 4.987c-2.91-.946-6.056-.273-8.346 1.753-.659-2.983-2.806-5.377-5.718-6.323-4.513-1.466-9.392 1.054-10.874 5.617-2.03 6.25 4.088 14.78 7.746 19.874.64.893 1.207 1.684 1.648 2.346.04.061.1.105.17.127.067.022.14.022.21-.004.745-.276 1.667-.582 2.712-.929 5.954-1.973 15.917-5.277 17.948-11.526 1.48-4.563-.984-9.469-5.496-10.935z" transform="translate(76.004 129.178)"/>
            </g>
            <g transform="translate(41 44.22)">
                <use fill="#879DEF" xlink:href="#s243w69a0b"/>
                <use fill="#879DEF" xlink:href="#mcc9vn747c"/>
                <use fill="#879DEF" xlink:href="#d5vgknmk5d"/>
                <use fill="#879DEF" xlink:href="#8b4nu8v9fe"/>
                <use fill="#879DEF" xlink:href="#euowzieuyf"/>
                <use fill="#879DEF" xlink:href="#imgseoc3qg"/>
                <use fill="#879DEF" xlink:href="#hnnxhcr21h"/>
                <path fill="#879DEF" d="M242.648 101.872c0 1.346 1.093 2.438 2.439 2.438s2.438-1.092 2.438-2.438c0-1.347-1.092-2.439-2.438-2.439s-2.439 1.092-2.439 2.439z"/>
            </g>
            <g stroke="#1F2A3B">
                <path d="M243.461 104.31c1.347 0 2.438-1.09 2.438-2.438 0-1.347-1.09-2.438-2.438-2.438-1.347 0-2.438 1.091-2.438 2.439 0 1.346 1.091 2.438 2.438 2.438zM45.105 102.183c0 1.122-.91 2.032-2.032 2.032-1.122 0-2.032-.91-2.032-2.032 0-1.123.91-2.032 2.032-2.032 1.122 0 2.032.909 2.032 2.032zM5.33 189.28c-.106-.056-.194-.143-.251-.247l-.89-1.655c-.108-.191-.311-.31-.532-.31-.221 0-.424.119-.532.31l-.899 1.655c-.051.106-.136.193-.241.248l-1.673.957c-.192.106-.312.308-.312.526 0 .218.12.42.312.527l1.673.88c.105.054.19.14.241.249l.899 1.645c.104.195.309.32.532.32.224 0 .429-.125.532-.32l.89-1.645c.057-.106.145-.192.251-.25l1.663-.88c.198-.102.322-.305.322-.526 0-.221-.124-.423-.322-.526l-1.663-.957zM279.33 264.28c-.106-.056-.193-.143-.251-.247l-.89-1.655c-.108-.191-.312-.31-.531-.31-.221 0-.425.119-.533.31l-.899 1.655c-.05.106-.135.193-.241.248l-1.673.957c-.192.106-.312.308-.312.526 0 .218.12.42.313.527l1.672.88c.106.054.19.14.241.249l.9 1.645c.103.195.308.32.532.32.222 0 .428-.125.53-.32l.89-1.645c.059-.106.146-.192.252-.25l1.663-.88c.197-.102.322-.305.322-.526 0-.221-.125-.423-.322-.526l-1.663-.957zM108.185 60.912l-3.146-1.692c-.198-.107-.36-.27-.467-.468l-1.687-3.157c-.197-.367-.578-.595-.993-.595-.415 0-.797.228-.994.595l-1.687 3.157c-.107.198-.269.361-.466.468l-3.147 1.692c-.366.198-.593.581-.593.997 0 .416.227.799.593.997l3.147 1.692c.197.107.359.27.466.468l1.687 3.157c.197.366.579.594.994.594.415 0 .796-.228.993-.594l1.687-3.157c.107-.198.269-.361.467-.468l3.146-1.647c.39-.189.637-.585.637-1.019 0-.435-.247-.831-.637-1.02zM219.454 53.432l-1.3-.702c-.084-.037-.152-.105-.189-.19l-.702-1.299c-.084-.149-.242-.241-.413-.241-.17 0-.329.092-.413.241l-.692 1.299c-.043.081-.109.147-.19.19l-1.299.702c-.155.08-.25.239-.25.413 0 .173.095.332.25.412l1.3.693c.076.048.141.113.19.189l.691 1.3c.08.154.24.251.413.251.174 0 .333-.097.413-.251l.702-1.3c.042-.081.11-.147.19-.189l1.3-.693c.147-.084.24-.242.24-.412 0-.171-.093-.329-.24-.413zM93.454 2.432l-1.3-.702c-.084-.037-.152-.105-.189-.19L91.263.241C91.18.092 91.021 0 90.85 0c-.17 0-.329.092-.413.241l-.692 1.299c-.043.081-.109.147-.19.19l-1.299.702c-.155.08-.25.239-.25.413 0 .173.095.332.25.412l1.3.693c.076.048.141.113.19.189l.691 1.3c.08.154.24.251.413.251.174 0 .333-.097.413-.251l.702-1.3c.042-.081.11-.147.19-.189l1.3-.693c.147-.084.24-.242.24-.412 0-.171-.093-.329-.24-.413zM272.656 9.2l-2.783-1.494c-.174-.084-.314-.224-.398-.398l-1.49-2.788c-.18-.321-.518-.52-.885-.52s-.705.199-.885.52l-1.491 2.788c-.091.176-.238.315-.417.398L261.524 9.2c-.321.18-.52.519-.52.886 0 .368.199.707.52.887l2.783 1.494c.176.096.32.24.417.418l1.49 2.788c.18.32.519.519.886.519s.705-.2.885-.52l1.49-2.787c.09-.175.228-.321.398-.418l2.783-1.494c.332-.17.54-.513.54-.887 0-.373-.208-.716-.54-.886z" transform="translate(41.813 43)"/>
            </g>
        </g>
    </g>
</svg>
