<svg width="1434" height="875" viewBox="0 0 1434 875" fill="none" xmlns="http://www.w3.org/2000/svg">
<rect x="283.114" width="300.664" height="89.2018" rx="1" fill="#5160E2" fill-opacity="0.2"/>
<path d="M322.09 30.8095H354.911V34.9174H322.09V30.8095ZM326.193 22.5935H350.808V26.7015H326.193V22.5935ZM354.911 39.0254H322.09C319.833 39.0254 317.987 40.874 317.987 43.1334V59.5653C317.987 61.8247 319.833 63.6733 322.09 63.6733H354.911C357.167 63.6733 359.014 61.8247 359.014 59.5653V43.1334C359.014 40.874 357.167 39.0254 354.911 39.0254ZM354.911 59.5653H322.09V43.1334H354.911V59.5653ZM334.398 44.6328V58.0454L346.706 51.3494L334.398 44.6328Z" fill="#5160E2"/>
<path d="M394.475 44.6021L550.374 44.602" stroke="#5160E2" stroke-width="0.5" stroke-linecap="round"/>
<rect x="707.736" width="300.664" height="89.2018" rx="1" fill="#5160E2" fill-opacity="0.2"/>
<path d="M746.712 30.81H779.533V34.9179H746.712V30.81ZM750.815 22.594H775.43V26.702H750.815V22.594ZM779.533 39.0259H746.712C744.456 39.0259 742.609 40.8745 742.609 43.1339V59.5658C742.609 61.8252 744.456 63.6738 746.712 63.6738H779.533C781.789 63.6738 783.636 61.8252 783.636 59.5658V43.1339C783.636 40.8745 781.789 39.0259 779.533 39.0259ZM779.533 59.5658H746.712V43.1339H779.533V59.5658ZM759.02 44.6333V58.0459L771.328 51.3499L759.02 44.6333Z" fill="#5160E2"/>
<path d="M819.097 44.6021L974.996 44.602" stroke="#5160E2" stroke-width="0.5" stroke-linecap="round"/>
<rect x="1132.36" width="300.664" height="89.2018" rx="1" fill="#5160E2" fill-opacity="0.2"/>
<path d="M1171.33 30.81H1204.15V34.9179H1171.33V30.81ZM1175.44 22.594H1200.05V26.702H1175.44V22.594ZM1204.15 39.0259H1171.33C1169.08 39.0259 1167.23 40.8745 1167.23 43.1339V59.5658C1167.23 61.8252 1169.08 63.6738 1171.33 63.6738H1204.15C1206.41 63.6738 1208.26 61.8252 1208.26 59.5658V43.1339C1208.26 40.8745 1206.41 39.0259 1204.15 39.0259ZM1204.15 59.5658H1171.33V43.1339H1204.15V59.5658ZM1183.64 44.6333V58.0459L1195.95 51.3499L1183.64 44.6333Z" fill="#5160E2"/>
<path d="M1243.72 44.6021L1399.62 44.602" stroke="#5160E2" stroke-width="0.5" stroke-linecap="round"/>
<path d="M430.81 92.4297L430.81 184.859" stroke="#5160E2" stroke-opacity="0.5" stroke-width="0.5" stroke-linecap="round"/>
<path d="M430.81 443.662L430.81 536.092" stroke="#5160E2" stroke-opacity="0.5" stroke-width="0.5" stroke-linecap="round"/>
<path d="M1280.05 536.092H430.809" stroke="#5160E2" stroke-opacity="0.5" stroke-width="0.5" stroke-linecap="round"/>
<path d="M855.431 443.662L855.431 536.092" stroke="#5160E2" stroke-opacity="0.5" stroke-width="0.5" stroke-linecap="round"/>
<path d="M855.431 536.092L855.431 628.521" stroke="#5160E2" stroke-opacity="0.5" stroke-width="0.5" stroke-linecap="round"/>
<path d="M1280.05 443.662L1280.05 536.092" stroke="#5160E2" stroke-opacity="0.5" stroke-width="0.5" stroke-linecap="round"/>
<path d="M855.431 92.4297L855.431 184.859" stroke="#5160E2" stroke-opacity="0.5" stroke-width="0.5" stroke-linecap="round"/>
<path d="M1280.05 92.4297L1280.05 184.859" stroke="#5160E2" stroke-opacity="0.5" stroke-width="0.5" stroke-linecap="round"/>
<rect x="308.229" y="191.521" width="245.158" height="245.479" fill="#8A96EC" stroke="#8A96EC"/>
<path d="M344.653 271.127H516.964" stroke="white" stroke-linecap="round"/>
<path d="M375.424 289.613H486.195" stroke="white" stroke-linecap="round"/>
<path d="M400.039 338.908H461.579" stroke="white" stroke-linecap="round"/>
<path d="M375.424 357.394H486.195" stroke="white" stroke-linecap="round"/>
<rect x="732.852" y="191.521" width="245.158" height="245.479" fill="#8A96EC" fill-opacity="0.5" stroke="#8A96EC"/>
<path d="M769.276 271.126H941.587" stroke="#5160E2" stroke-linecap="round"/>
<path d="M800.047 289.612H910.818" stroke="#5160E2" stroke-linecap="round"/>
<path d="M824.662 338.908H886.202" stroke="#5160E2" stroke-linecap="round"/>
<path d="M800.047 357.394H910.818" stroke="#5160E2" stroke-linecap="round"/>
<rect x="732.852" y="629.021" width="245.158" height="245.479" fill="#8A96EC" fill-opacity="0.5" stroke="#8A96EC"/>
<path d="M769.276 708.627H941.587" stroke="#5160E2" stroke-linecap="round"/>
<path d="M800.047 727.113H910.818" stroke="#5160E2" stroke-linecap="round"/>
<path d="M824.662 776.408H886.202" stroke="#5160E2" stroke-linecap="round"/>
<path d="M800.047 794.894H910.818" stroke="#5160E2" stroke-linecap="round"/>
<rect x="1157.47" y="191.521" width="245.158" height="245.479" fill="#8A96EC" fill-opacity="0.5" stroke="#8A96EC"/>
<path d="M1193.9 271.127H1366.21" stroke="#5160E2" stroke-linecap="round"/>
<path d="M1224.67 289.613H1335.44" stroke="#5160E2" stroke-linecap="round"/>
<path d="M1249.28 338.908H1310.82" stroke="#5160E2" stroke-linecap="round"/>
<path d="M1224.67 357.394H1335.44" stroke="#5160E2" stroke-linecap="round"/>
<path d="M531.776 474.193L526.366 404.859L527.448 403.776L585.882 442.776V446.026L583.717 448.193L564.24 452.526L575.061 473.11L562.075 480.693L550.172 461.193H549.09L533.941 476.36L531.776 474.193Z" fill="white"/>
<path d="M564.748 482.478C563.843 482.893 562.843 482.96 561.944 482.726C560.958 482.465 560.086 481.848 559.546 480.937L549.491 463.75L539.931 474.391C538.599 475.871 537.086 476.99 535.626 477.573C534.505 478.022 533.39 478.163 532.356 477.949C531.214 477.707 530.234 477.057 529.518 475.932C528.951 475.041 528.572 473.848 528.457 472.32L523.126 403.481C523.12 403.427 523.12 403.373 523.12 403.326C523.113 402.898 523.194 402.475 523.37 402.094C523.565 401.651 523.883 401.249 524.295 400.954C524.471 400.82 524.66 400.733 524.863 400.68C525.261 400.546 525.674 400.499 526.072 400.546C526.457 400.586 526.836 400.7 527.18 400.894C527.295 400.948 527.41 401.015 527.511 401.095L584.863 440.031C586.134 440.895 586.985 441.813 587.485 442.745C588.113 443.917 588.188 445.083 587.823 446.189C587.499 447.187 586.809 448.072 585.863 448.809C584.634 449.767 582.897 450.51 580.931 450.913C580.911 450.919 580.884 450.919 580.863 450.926L566.856 453.8L576.836 471.04C577.363 471.952 577.465 473.01 577.201 473.982C576.944 474.927 576.343 475.798 575.451 476.367C575.417 476.394 575.377 476.414 575.336 476.434L564.971 482.371C564.904 482.411 564.829 482.444 564.748 482.478ZM562.877 479.242C562.978 479.269 563.079 479.269 563.174 479.235C563.208 479.215 563.242 479.195 563.282 479.181L573.512 473.325C573.607 473.258 573.667 473.158 573.701 473.051C573.721 472.963 573.721 472.883 573.694 472.829L562.465 453.439H562.471C562.377 453.278 562.309 453.097 562.269 452.903C562.066 451.931 562.701 450.98 563.681 450.779L580.14 447.402C580.161 447.395 580.181 447.388 580.208 447.388C581.627 447.093 582.83 446.597 583.634 445.974C584.026 445.666 584.289 445.365 584.384 445.07C584.444 444.889 584.417 444.668 584.282 444.42C584.053 443.991 583.586 443.522 582.83 443.006L526.89 405.042L532.086 472.059C532.153 472.97 532.336 473.613 532.593 474.015C532.741 474.25 532.924 474.384 533.113 474.424C533.417 474.491 533.816 474.417 534.275 474.237C535.214 473.861 536.248 473.077 537.214 471.999L548.444 459.502C548.572 459.362 548.721 459.241 548.89 459.141C549.755 458.645 550.87 458.933 551.37 459.797L562.688 479.128C562.728 479.181 562.789 479.222 562.877 479.242ZM563.275 479.181C563.512 479.068 563.782 479.001 564.066 479.001L563.275 479.181Z" fill="#5160E2"/>
<path d="M118.817 126.023L122.226 107.695L136.835 96.1213L118.523 92.7229L106.969 78.1113L103.559 96.439L88.9504 108.013L107.262 111.411L118.817 126.023Z" fill="#FF7165"/>
<path d="M147.246 165.038L143.837 183.365L129.228 194.939L147.54 198.338L159.095 212.949L162.504 194.622L177.113 183.048L158.801 179.649L147.246 165.038Z" fill="#FF7165"/>
<path d="M89.3078 157.186L66.198 127.963L59.38 164.618L30.1621 187.765L66.7854 194.563L89.8952 223.786L96.7132 187.131L125.931 163.983L89.3078 157.186ZM85.4385 180.332L82.7416 194.859L73.5871 183.275L59.0723 180.586L70.6546 171.417L73.3516 156.889L82.506 168.474L97.0208 171.162L85.4385 180.332Z" fill="#FF7165"/>
<path d="M615.43 309.503L608.702 326.888L592.215 335.557L609.578 342.294L618.236 358.802L624.964 341.417L641.45 332.748L624.087 326.011L615.43 309.503Z" fill="#FF7165"/>
</svg>
