<?xml version="1.0" encoding="UTF-8"?>
<svg width="380px" height="380px" viewBox="0 0 380 380" version="1.1" xmlns="http://www.w3.org/2000/svg" xmlns:xlink="http://www.w3.org/1999/xlink">
    <defs>
        <path d="M0.40281881,6.033 C-1.62718119,12.284 4.49081881,20.812 8.14881881,25.908 L8.14881881,25.908 C8.78881881,26.802 9.35681881,27.593 9.79781881,28.254 L9.79781881,28.254 C9.83681881,28.315 9.89681881,28.359 9.96581881,28.38 L9.96581881,28.38 C10.0338188,28.403 10.1068188,28.403 10.1768188,28.377 L10.1768188,28.377 C10.9218188,28.101 11.8448188,27.795 12.8888188,27.449 L12.8888188,27.449 C18.8428188,25.475 28.8058188,22.171 30.8368188,15.922 L30.8368188,15.922 C32.3168188,11.359 29.8528188,6.453 25.3408188,4.987 L25.3408188,4.987 C22.4298188,4.041 19.2848188,4.714 16.9958188,6.741 L16.9958188,6.741 C16.3358188,3.757 14.1898188,1.363 11.2768188,0.417 L11.2768188,0.417 C10.4068188,0.135 9.52181881,0 8.65081881,0 L8.65081881,0 C5.00781881,0 1.59981881,2.351 0.40281881,6.033 L0.40281881,6.033 Z" id="path-1"></path>
        <path d="M41.041,101.775 C41.041,102.898 41.951,103.807 43.073,103.807 L43.073,103.807 C44.195,103.807 45.105,102.898 45.105,101.775 L45.105,101.775 C45.105,100.654 44.195,99.744 43.073,99.744 L43.073,99.744 C41.951,99.744 41.041,100.654 41.041,101.775 L41.041,101.775 Z" id="path-3"></path>
        <path d="M3.126,187.377 L2.226,189.031 C2.175,189.138 2.091,189.225 1.984,189.28 L1.984,189.28 L0.312,190.237 C0.12,190.344 0,190.545 0,190.763 L0,190.763 C0,190.981 0.12,191.183 0.312,191.289 L0.312,191.289 L1.984,192.169 C2.091,192.224 2.175,192.312 2.226,192.418 L2.226,192.418 L3.126,194.064 C3.228,194.26 3.433,194.383 3.658,194.383 L3.658,194.383 C3.881,194.383 4.085,194.26 4.189,194.064 L4.189,194.064 L5.078,192.418 C5.136,192.313 5.223,192.227 5.33,192.169 L5.33,192.169 L6.992,191.289 C7.191,191.188 7.315,190.985 7.315,190.763 L7.315,190.763 C7.315,190.542 7.191,190.339 6.992,190.237 L6.992,190.237 L5.33,189.28 C5.223,189.223 5.136,189.137 5.078,189.031 L5.078,189.031 L4.189,187.377 C4.081,187.186 3.878,187.067 3.658,187.067 L3.658,187.067 C3.436,187.067 3.233,187.186 3.126,187.377 L3.126,187.377 Z" id="path-5"></path>
        <path d="M277.125,262.378 L276.226,264.032 C276.175,264.138 276.09,264.226 275.985,264.28 L275.985,264.28 L274.312,265.238 C274.119,265.344 273.999,265.546 273.999,265.763 L273.999,265.763 C273.999,265.982 274.119,266.183 274.312,266.289 L274.312,266.289 L275.985,267.169 C276.09,267.224 276.175,267.311 276.226,267.418 L276.226,267.418 L277.125,269.064 C277.229,269.26 277.434,269.383 277.657,269.383 L277.657,269.383 C277.881,269.383 278.085,269.26 278.189,269.064 L278.189,269.064 L279.078,267.418 C279.136,267.313 279.223,267.227 279.329,267.169 L279.329,267.169 L280.992,266.289 C281.19,266.188 281.315,265.985 281.315,265.763 L281.315,265.763 C281.315,265.542 281.19,265.339 280.992,265.238 L280.992,265.238 L279.329,264.28 C279.223,264.222 279.136,264.137 279.078,264.032 L279.078,264.032 L278.189,262.378 C278.081,262.186 277.878,262.068 277.657,262.068 L277.657,262.068 C277.437,262.068 277.233,262.186 277.125,262.378 L277.125,262.378 Z" id="path-7"></path>
        <path d="M100.897,55.594 L99.21,58.752 C99.104,58.95 98.941,59.112 98.744,59.22 L98.744,59.22 L95.598,60.912 C95.232,61.109 95.004,61.492 95.004,61.908 L95.004,61.908 C95.004,62.325 95.232,62.707 95.598,62.905 L95.598,62.905 L98.744,64.597 C98.941,64.704 99.104,64.867 99.21,65.065 L99.21,65.065 L100.897,68.222 C101.095,68.589 101.476,68.816 101.891,68.816 L101.891,68.816 C102.307,68.816 102.688,68.589 102.885,68.222 L102.885,68.222 L104.571,65.065 C104.678,64.867 104.84,64.704 105.038,64.597 L105.038,64.597 L108.185,62.95 C108.575,62.761 108.822,62.365 108.822,61.931 L108.822,61.931 C108.822,61.497 108.575,61.101 108.185,60.912 L108.185,60.912 L105.038,59.22 C104.84,59.112 104.678,58.95 104.571,58.752 L104.571,58.752 L102.885,55.594 C102.688,55.228 102.307,55 101.891,55 L101.891,55 C101.476,55 101.095,55.228 100.897,55.594 L100.897,55.594 Z" id="path-9"></path>
        <path d="M216.437,51.24 L215.744,52.539 C215.702,52.62 215.635,52.686 215.555,52.729 L215.555,52.729 L214.256,53.432 C214.101,53.511 214.005,53.67 214.005,53.844 L214.005,53.844 C214.005,54.018 214.101,54.177 214.256,54.257 L214.256,54.257 L215.555,54.949 C215.632,54.998 215.697,55.062 215.744,55.138 L215.744,55.138 L216.437,56.439 C216.517,56.592 216.676,56.689 216.85,56.689 L216.85,56.689 C217.023,56.689 217.182,56.592 217.263,56.439 L217.263,56.439 L217.965,55.138 C218.007,55.058 218.074,54.991 218.154,54.949 L218.154,54.949 L219.453,54.257 C219.603,54.172 219.694,54.014 219.694,53.844 L219.694,53.844 C219.694,53.673 219.603,53.515 219.453,53.432 L219.453,53.432 L218.154,52.729 C218.069,52.692 218.001,52.624 217.965,52.539 L217.965,52.539 L217.263,51.24 C217.178,51.091 217.02,50.999 216.85,50.999 L216.85,50.999 C216.679,50.999 216.521,51.091 216.437,51.24 L216.437,51.24 Z" id="path-11"></path>
        <path d="M90.437,0.24 L89.744,1.539 C89.702,1.621 89.635,1.686 89.555,1.729 L89.555,1.729 L88.256,2.431 C88.102,2.511 88.005,2.67 88.005,2.844 L88.005,2.844 C88.005,3.017 88.102,3.177 88.256,3.257 L88.256,3.257 L89.555,3.949 C89.632,3.997 89.697,4.061 89.744,4.139 L89.744,4.139 L90.437,5.438 C90.517,5.592 90.676,5.689 90.85,5.689 L90.85,5.689 C91.023,5.689 91.182,5.592 91.263,5.438 L91.263,5.438 L91.965,4.139 C92.007,4.058 92.074,3.991 92.154,3.949 L92.154,3.949 L93.453,3.257 C93.602,3.172 93.694,3.015 93.694,2.844 L93.694,2.844 C93.694,2.673 93.602,2.515 93.453,2.431 L93.453,2.431 L92.154,1.729 C92.069,1.692 92.001,1.624 91.965,1.539 L91.965,1.539 L91.263,0.24 C91.178,0.091 91.021,0 90.85,0 L90.85,0 C90.679,0 90.521,0.091 90.437,0.24 L90.437,0.24 Z" id="path-13"></path>
        <path d="M266.214,4.518 L264.723,7.308 C264.632,7.482 264.486,7.623 264.306,7.705 L264.306,7.705 L261.524,9.199 C261.203,9.379 261.004,9.718 261.004,10.085 L261.004,10.085 C261.004,10.453 261.203,10.792 261.524,10.972 L261.524,10.972 L264.306,12.466 C264.482,12.562 264.628,12.708 264.723,12.883 L264.723,12.883 L266.214,15.671 C266.394,15.993 266.732,16.192 267.099,16.192 L267.099,16.192 C267.466,16.192 267.805,15.993 267.984,15.671 L267.984,15.671 L269.475,12.883 C269.564,12.709 269.703,12.564 269.872,12.466 L269.872,12.466 L272.656,10.972 C272.988,10.801 273.196,10.459 273.196,10.085 L273.196,10.085 C273.196,9.712 272.988,9.37 272.656,9.199 L272.656,9.199 L269.872,7.705 C269.698,7.622 269.559,7.481 269.475,7.308 L269.475,7.308 L267.984,4.518 C267.805,4.198 267.466,3.999 267.099,3.999 L267.099,3.999 C266.732,3.999 266.394,4.198 266.214,4.518 L266.214,4.518 Z" id="path-15"></path>
    </defs>
    <g id="Illustrations/Light/empty_wishlist" stroke="none" stroke-width="1" fill="none" fill-rule="evenodd">
        <g id="flatenned" transform="translate(76.004100, 129.177541)">
            <polygon id="Stroke-1" stroke="#121424" stroke-linejoin="round" points="205.9998 76.5562588 205.9998 131.716259 112.9998 164.216259 113.0098 56.6172588 132.9998 94.2162588"></polygon>
            <polygon id="Stroke-2" stroke="#121424" stroke-linejoin="round" points="199.0002 105.217359 162.4292 115.900359 162.4262 138.217359 199.0002 125.437359"></polygon>
            <polygon id="Stroke-3" stroke="#121424" stroke-linejoin="round" points="113.01 56.6167588 113 164.216759 20 131.716759 20 76.5557588 93 94.2167588"></polygon>
            <polygon id="Stroke-4" stroke="#121424" stroke-linejoin="round" points="26.3875 104.217359 48.6205 109.494359 48.6185 135.217359 26.3875 127.448359"></polygon>
            <polygon id="Fill-5" fill="#D8D8D8" points="26.3875 117.449259 48.6195 124.217259 48.6205 109.495259 26.3875 104.217259"></polygon>
            <polygon id="Stroke-6" stroke="#121424" stroke-linejoin="round" points="26.3875 104.217359 48.6205 109.494359 48.6185 124.217359 26.3875 117.448359"></polygon>
            <polygon id="Stroke-7" stroke="#121424" stroke-linejoin="round" points="225.9997 71.7163588 205.9997 76.5563588 132.9997 94.2163588 113.0097 56.6163588 205.9997 34.5363588"></polygon>
            <polygon id="Stroke-8" stroke="#121424" stroke-linejoin="round" points="113.01 56.6167588 93 94.2167588 20 76.5557588 0 71.7167588 20 34.5357588"></polygon>
            <polyline id="Stroke-9" stroke="#121424" stroke-linejoin="round" points="165.9959 24.8224588 205.9998 34.5362588 113.0098 56.6172588 19.9998 34.5362588 49.9298 27.4162588 113.0098 12.3962588 149.7098 21.1362588"></polyline>
            <g id="Group-15" transform="translate(148.863081, 0.000359)">
                <mask id="mask-2" fill="white">
                    <use xlink:href="#path-1"></use>
                </mask>
                <use id="Clip-14" fill="#FF6E61" xlink:href="#path-1"></use>
            </g>
            <path d="M170.2044,4.98735881 C167.2934,4.04135881 164.1484,4.71435881 161.8584,6.74035881 C161.1994,3.75735881 159.0524,1.36335881 156.1404,0.417358806 C151.6274,-1.04864119 146.7484,1.47135881 145.2664,6.03435881 C143.2354,12.2843588 149.3544,20.8133588 153.0124,25.9083588 C153.6514,26.8013588 154.2194,27.5923588 154.6604,28.2543588 C154.7004,28.3153588 154.7604,28.3593588 154.8294,28.3813588 C154.8974,28.4033588 154.9704,28.4033588 155.0394,28.3773588 C155.7854,28.1013588 156.7074,27.7953588 157.7524,27.4483588 C163.7064,25.4753588 173.6694,22.1713588 175.7004,15.9223588 C177.1804,11.3593588 174.7164,6.45335881 170.2044,4.98735881 Z" id="Stroke-16" stroke="#000000" stroke-linejoin="round"></path>
        </g>
        <g id="Group-11" transform="translate(41.000000, 44.219900)">
            <mask id="mask-4" fill="white">
                <use xlink:href="#path-3"></use>
            </mask>
            <use id="Clip-24" fill="#879DEF" xlink:href="#path-3"></use>
            <mask id="mask-6" fill="white">
                <use xlink:href="#path-5"></use>
            </mask>
            <use id="Clip-29" fill="#879DEF" xlink:href="#path-5"></use>
            <mask id="mask-8" fill="white">
                <use xlink:href="#path-7"></use>
            </mask>
            <use id="Clip-34" fill="#879DEF" xlink:href="#path-7"></use>
            <mask id="mask-10" fill="white">
                <use xlink:href="#path-9"></use>
            </mask>
            <use id="Clip-39" fill="#879DEF" xlink:href="#path-9"></use>
            <mask id="mask-12" fill="white">
                <use xlink:href="#path-11"></use>
            </mask>
            <use id="Clip-44" fill="#879DEF" xlink:href="#path-11"></use>
            <mask id="mask-14" fill="white">
                <use xlink:href="#path-13"></use>
            </mask>
            <use id="Clip-49" fill="#879DEF" xlink:href="#path-13"></use>
            <mask id="mask-16" fill="white">
                <use xlink:href="#path-15"></use>
            </mask>
            <use id="Clip-54" fill="#879DEF" xlink:href="#path-15"></use>
            <path d="M242.648,101.872 C242.648,103.218 243.741,104.31 245.087,104.31 L245.087,104.31 C246.433,104.31 247.525,103.218 247.525,101.872 L247.525,101.872 C247.525,100.525 246.433,99.433 245.087,99.433 L245.087,99.433 C243.741,99.433 242.648,100.525 242.648,101.872 L242.648,101.872 Z" id="Clip-19" fill="#879DEF"></path>
        </g>
        <g id="Group-4" transform="translate(41.812500, 43.000000)" stroke="#1F2A3B">
            <path d="M243.4614,104.3105 C244.8084,104.3105 245.8994,103.2195 245.8994,101.8725 C245.8994,100.5255 244.8084,99.4345 243.4614,99.4345 C242.1144,99.4345 241.0234,100.5255 241.0234,101.8725 C241.0234,103.2195 242.1144,104.3105 243.4614,104.3105 Z" id="Stroke-21"></path>
            <path d="M45.1054,102.183 C45.1054,103.305 44.1954,104.215 43.0734,104.215 C41.9514,104.215 41.0414,103.305 41.0414,102.183 C41.0414,101.06 41.9514,100.151 43.0734,100.151 C44.1954,100.151 45.1054,101.06 45.1054,102.183 Z" id="Stroke-26"></path>
            <path d="M5.33,189.2807 C5.224,189.2237 5.136,189.1367 5.079,189.0327 L4.189,187.3777 C4.081,187.1867 3.878,187.0687 3.657,187.0687 C3.436,187.0687 3.233,187.1867 3.125,187.3777 L2.226,189.0327 C2.175,189.1387 2.09,189.2257 1.985,189.2807 L0.312,190.2377 C0.12,190.3437 0,190.5457 0,190.7637 C0,190.9817 0.12,191.1837 0.312,191.2907 L1.985,192.1707 C2.09,192.2247 2.175,192.3117 2.226,192.4197 L3.125,194.0647 C3.229,194.2597 3.434,194.3847 3.657,194.3847 C3.881,194.3847 4.086,194.2597 4.189,194.0647 L5.079,192.4197 C5.136,192.3137 5.224,192.2277 5.33,192.1707 L6.993,191.2907 C7.191,191.1877 7.315,190.9847 7.315,190.7637 C7.315,190.5427 7.191,190.3407 6.993,190.2377 L5.33,189.2807 Z" id="Stroke-31"></path>
            <path d="M279.3295,264.2807 C279.2235,264.2237 279.1365,264.1367 279.0785,264.0327 L278.1885,262.3777 C278.0815,262.1867 277.8775,262.0687 277.6575,262.0687 C277.4365,262.0687 277.2335,262.1867 277.1255,262.3777 L276.2265,264.0327 C276.1755,264.1387 276.0905,264.2257 275.9845,264.2807 L274.3125,265.2377 C274.1195,265.3437 274.0005,265.5457 274.0005,265.7637 C274.0005,265.9817 274.1195,266.1837 274.3125,266.2907 L275.9845,267.1707 C276.0905,267.2247 276.1755,267.3117 276.2265,267.4197 L277.1255,269.0647 C277.2285,269.2597 277.4335,269.3847 277.6575,269.3847 C277.8805,269.3847 278.0855,269.2597 278.1885,269.0647 L279.0785,267.4197 C279.1365,267.3137 279.2235,267.2277 279.3295,267.1707 L280.9925,266.2907 C281.1905,266.1877 281.3155,265.9847 281.3155,265.7637 C281.3155,265.5427 281.1905,265.3407 280.9925,265.2377 L279.3295,264.2807 Z" id="Stroke-36"></path>
            <path d="M108.185,60.912 L105.039,59.22 C104.841,59.113 104.679,58.95 104.572,58.752 L102.885,55.595 C102.688,55.228 102.307,55 101.892,55 C101.477,55 101.095,55.228 100.898,55.595 L99.211,58.752 C99.104,58.95 98.942,59.113 98.745,59.22 L95.598,60.912 C95.232,61.11 95.005,61.493 95.005,61.909 C95.005,62.325 95.232,62.708 95.598,62.906 L98.745,64.598 C98.942,64.705 99.104,64.868 99.211,65.066 L100.898,68.223 C101.095,68.589 101.477,68.817 101.892,68.817 C102.307,68.817 102.688,68.589 102.885,68.223 L104.572,65.066 C104.679,64.868 104.841,64.705 105.039,64.598 L108.185,62.951 C108.575,62.762 108.822,62.366 108.822,61.932 C108.822,61.497 108.575,61.101 108.185,60.912 Z" id="Stroke-41"></path>
            <path d="M219.4541,53.432 L218.1541,52.73 C218.0701,52.693 218.0021,52.625 217.9651,52.54 L217.2631,51.241 C217.1791,51.092 217.0211,51 216.8501,51 C216.6791,51 216.5211,51.092 216.4371,51.241 L215.7451,52.54 C215.7021,52.621 215.6361,52.687 215.5551,52.73 L214.2561,53.432 C214.1011,53.512 214.0051,53.671 214.0051,53.845 C214.0051,54.018 214.1011,54.177 214.2561,54.257 L215.5551,54.95 C215.6321,54.998 215.6971,55.063 215.7451,55.139 L216.4371,56.439 C216.5171,56.593 216.6771,56.69 216.8501,56.69 C217.0241,56.69 217.1831,56.593 217.2631,56.439 L217.9651,55.139 C218.0071,55.058 218.0741,54.992 218.1541,54.95 L219.4541,54.257 C219.6021,54.173 219.6941,54.015 219.6941,53.845 C219.6941,53.674 219.6021,53.516 219.4541,53.432 Z" id="Stroke-46"></path>
            <path d="M93.4541,2.432 L92.1541,1.73 C92.0701,1.693 92.0021,1.625 91.9651,1.54 L91.2631,0.241 C91.1791,0.092 91.0211,0 90.8501,0 C90.6791,0 90.5211,0.092 90.4371,0.241 L89.7451,1.54 C89.7021,1.621 89.6361,1.687 89.5551,1.73 L88.2561,2.432 C88.1011,2.512 88.0051,2.671 88.0051,2.845 C88.0051,3.018 88.1011,3.177 88.2561,3.257 L89.5551,3.95 C89.6321,3.998 89.6971,4.063 89.7451,4.139 L90.4371,5.439 C90.5171,5.593 90.6771,5.69 90.8501,5.69 C91.0241,5.69 91.1831,5.593 91.2631,5.439 L91.9651,4.139 C92.0071,4.058 92.0741,3.992 92.1541,3.95 L93.4541,3.257 C93.6021,3.173 93.6941,3.015 93.6941,2.845 C93.6941,2.674 93.6021,2.516 93.4541,2.432 Z" id="Stroke-51"></path>
            <path d="M272.6557,9.1996 L269.8727,7.7056 C269.6987,7.6216 269.5587,7.4816 269.4747,7.3076 L267.9847,4.5196 C267.8047,4.1986 267.4667,3.9996 267.0997,3.9996 C266.7327,3.9996 266.3947,4.1986 266.2147,4.5196 L264.7237,7.3076 C264.6327,7.4836 264.4857,7.6226 264.3067,7.7056 L261.5237,9.1996 C261.2027,9.3796 261.0047,9.7186 261.0047,10.0856 C261.0047,10.4536 261.2027,10.7926 261.5237,10.9726 L264.3067,12.4666 C264.4827,12.5626 264.6277,12.7076 264.7237,12.8846 L266.2147,15.6726 C266.3947,15.9926 266.7327,16.1916 267.0997,16.1916 C267.4667,16.1916 267.8047,15.9926 267.9847,15.6726 L269.4747,12.8846 C269.5647,12.7096 269.7027,12.5636 269.8727,12.4666 L272.6557,10.9726 C272.9877,10.8026 273.1967,10.4596 273.1967,10.0856 C273.1967,9.7126 272.9877,9.3696 272.6557,9.1996 Z" id="Stroke-56"></path>
        </g>
    </g>
</svg>
