<?xml version="1.0" encoding="UTF-8"?>
<svg width="380px" height="380px" viewBox="0 0 380 380" version="1.1" xmlns="http://www.w3.org/2000/svg" xmlns:xlink="http://www.w3.org/1999/xlink">
    <g id="Illustrations/Light/empty_results" stroke="none" stroke-width="1" fill="none" fill-rule="evenodd">
        <g id="flattened" transform="translate(35.000000, 70.000000)">
            <g id="stars" fill-rule="nonzero">
                <g id="Group-5" transform="translate(2.000000, 104.000000)">
                    <path d="M4.16666667,2.91666667 C4.16666667,4.0672599 3.23392656,5 2.08333333,5 C0.932740105,5 0,4.0672599 0,2.91666667 C0,1.76607344 0.932740105,0.833333333 2.08333333,0.833333333 C3.23392656,0.833333333 4.16666667,1.76607344 4.16666667,2.91666667 L4.16666667,2.91666667 Z" id="Path" fill="#879DEF"></path>
                    <path d="M5,2.08333333 C5,3.23392656 4.0672599,4.16666667 2.91666667,4.16666667 C1.76607344,4.16666667 0.833333333,3.23392656 0.833333333,2.08333333 C0.833333333,0.932740105 1.76607344,0 2.91666667,0 C4.0672599,0 5,0.932740105 5,2.08333333 L5,2.08333333 Z" id="Path" stroke="#000000"></path>
                </g>
                <g id="Group-7" transform="translate(0.000000, 45.780822)">
                    <path d="M5.32951674,3.4316668 C5.22328489,3.37442452 5.13600633,3.28805908 5.07815883,3.18293865 L4.18873855,1.5279398 C4.0811152,1.33729913 3.87769891,1.21917808 3.6570199,1.21917808 C3.43634089,1.21917808 3.23292459,1.33729913 3.12530125,1.5279398 L2.22621335,3.18293865 C2.1749825,3.28955063 2.09017113,3.37683165 1.98452305,3.4316668 L0.312026203,4.38831353 C0.119369925,4.49481089 0,4.69609901 0,4.91446923 C0,5.13283945 0.119369925,5.33412757 0.312026203,5.44062493 L1.98452305,6.32073992 C2.09017113,6.37557507 2.1749825,6.46285609 2.22621335,6.56946807 L3.12530125,8.21490045 C3.22848994,8.41113941 3.4334662,8.53424658 3.6570199,8.53424658 C3.88057359,8.53424658 4.08554985,8.41113941 4.18873855,8.21490045 L5.07815883,6.56946807 C5.13600633,6.46434764 5.22328489,6.3779822 5.32951674,6.32073992 L6.99234598,5.44062493 C7.19065974,5.33851582 7.31506849,5.13568406 7.31506849,4.91446923 C7.31506849,4.6932544 7.19065974,4.49042264 6.99234598,4.38831353 L5.32951674,3.4316668 Z" id="Path" fill="#879DEF"></path>
                    <path d="M6.14230213,2.21248871 C6.03607028,2.15524644 5.94879171,2.06888099 5.89094422,1.96376056 L5.00152393,0.308761721 C4.89390059,0.118121053 4.69048429,0 4.46980528,0 C4.24912627,0 4.04570998,0.118121053 3.93808663,0.308761721 L3.03899873,1.96376056 C2.98776789,2.07037255 2.90295652,2.15765357 2.79730844,2.21248871 L1.12481159,3.16913544 C0.932155313,3.27563281 0.812785388,3.47692093 0.812785388,3.69529115 C0.812785388,3.91366137 0.932155313,4.11494948 1.12481159,4.22144685 L2.79730844,5.10156184 C2.90295652,5.15639699 2.98776789,5.24367801 3.03899873,5.35028999 L3.93808663,6.99572237 C4.04127533,7.19196133 4.24625159,7.31506849 4.46980528,7.31506849 C4.69335898,7.31506849 4.89833524,7.19196133 5.00152393,6.99572237 L5.89094422,5.35028999 C5.94879171,5.24516956 6.03607028,5.15880412 6.14230213,5.10156184 L7.80513137,4.22144685 C8.00344512,4.11933774 8.12785388,3.91650597 8.12785388,3.69529115 C8.12785388,3.47407632 8.00344512,3.27124456 7.80513137,3.16913544 L6.14230213,2.21248871 Z" id="Path" stroke="#000000"></path>
                </g>
                <g id="Group-7" transform="translate(250.000000, 214.780822)">
                    <path d="M5.32951674,3.4316668 C5.22328489,3.37442452 5.13600633,3.28805908 5.07815883,3.18293865 L4.18873855,1.5279398 C4.0811152,1.33729913 3.87769891,1.21917808 3.6570199,1.21917808 C3.43634089,1.21917808 3.23292459,1.33729913 3.12530125,1.5279398 L2.22621335,3.18293865 C2.1749825,3.28955063 2.09017113,3.37683165 1.98452305,3.4316668 L0.312026203,4.38831353 C0.119369925,4.49481089 0,4.69609901 0,4.91446923 C0,5.13283945 0.119369925,5.33412757 0.312026203,5.44062493 L1.98452305,6.32073992 C2.09017113,6.37557507 2.1749825,6.46285609 2.22621335,6.56946807 L3.12530125,8.21490045 C3.22848994,8.41113941 3.4334662,8.53424658 3.6570199,8.53424658 C3.88057359,8.53424658 4.08554985,8.41113941 4.18873855,8.21490045 L5.07815883,6.56946807 C5.13600633,6.46434764 5.22328489,6.3779822 5.32951674,6.32073992 L6.99234598,5.44062493 C7.19065974,5.33851582 7.31506849,5.13568406 7.31506849,4.91446923 C7.31506849,4.6932544 7.19065974,4.49042264 6.99234598,4.38831353 L5.32951674,3.4316668 Z" id="Path" fill="#879DEF"></path>
                    <path d="M6.14230213,2.21248871 C6.03607028,2.15524644 5.94879171,2.06888099 5.89094422,1.96376056 L5.00152393,0.308761721 C4.89390059,0.118121053 4.69048429,0 4.46980528,0 C4.24912627,0 4.04570998,0.118121053 3.93808663,0.308761721 L3.03899873,1.96376056 C2.98776789,2.07037255 2.90295652,2.15765357 2.79730844,2.21248871 L1.12481159,3.16913544 C0.932155313,3.27563281 0.812785388,3.47692093 0.812785388,3.69529115 C0.812785388,3.91366137 0.932155313,4.11494948 1.12481159,4.22144685 L2.79730844,5.10156184 C2.90295652,5.15639699 2.98776789,5.24367801 3.03899873,5.35028999 L3.93808663,6.99572237 C4.04127533,7.19196133 4.24625159,7.31506849 4.46980528,7.31506849 C4.69335898,7.31506849 4.89833524,7.19196133 5.00152393,6.99572237 L5.89094422,5.35028999 C5.94879171,5.24516956 6.03607028,5.15880412 6.14230213,5.10156184 L7.80513137,4.22144685 C8.00344512,4.11933774 8.12785388,3.91650597 8.12785388,3.69529115 C8.12785388,3.47407632 8.00344512,3.27124456 7.80513137,3.16913544 L6.14230213,2.21248871 Z" id="Path" stroke="#000000"></path>
                </g>
                <g id="Group-7" transform="translate(296.000000, 73.780822)">
                    <path d="M5.32951674,3.4316668 C5.22328489,3.37442452 5.13600633,3.28805908 5.07815883,3.18293865 L4.18873855,1.5279398 C4.0811152,1.33729913 3.87769891,1.21917808 3.6570199,1.21917808 C3.43634089,1.21917808 3.23292459,1.33729913 3.12530125,1.5279398 L2.22621335,3.18293865 C2.1749825,3.28955063 2.09017113,3.37683165 1.98452305,3.4316668 L0.312026203,4.38831353 C0.119369925,4.49481089 0,4.69609901 0,4.91446923 C0,5.13283945 0.119369925,5.33412757 0.312026203,5.44062493 L1.98452305,6.32073992 C2.09017113,6.37557507 2.1749825,6.46285609 2.22621335,6.56946807 L3.12530125,8.21490045 C3.22848994,8.41113941 3.4334662,8.53424658 3.6570199,8.53424658 C3.88057359,8.53424658 4.08554985,8.41113941 4.18873855,8.21490045 L5.07815883,6.56946807 C5.13600633,6.46434764 5.22328489,6.3779822 5.32951674,6.32073992 L6.99234598,5.44062493 C7.19065974,5.33851582 7.31506849,5.13568406 7.31506849,4.91446923 C7.31506849,4.6932544 7.19065974,4.49042264 6.99234598,4.38831353 L5.32951674,3.4316668 Z" id="Path" fill="#879DEF"></path>
                    <path d="M6.14230213,2.21248871 C6.03607028,2.15524644 5.94879171,2.06888099 5.89094422,1.96376056 L5.00152393,0.308761721 C4.89390059,0.118121053 4.69048429,0 4.46980528,0 C4.24912627,0 4.04570998,0.118121053 3.93808663,0.308761721 L3.03899873,1.96376056 C2.98776789,2.07037255 2.90295652,2.15765357 2.79730844,2.21248871 L1.12481159,3.16913544 C0.932155313,3.27563281 0.812785388,3.47692093 0.812785388,3.69529115 C0.812785388,3.91366137 0.932155313,4.11494948 1.12481159,4.22144685 L2.79730844,5.10156184 C2.90295652,5.15639699 2.98776789,5.24367801 3.03899873,5.35028999 L3.93808663,6.99572237 C4.04127533,7.19196133 4.24625159,7.31506849 4.46980528,7.31506849 C4.69335898,7.31506849 4.89833524,7.19196133 5.00152393,6.99572237 L5.89094422,5.35028999 C5.94879171,5.24516956 6.03607028,5.15880412 6.14230213,5.10156184 L7.80513137,4.22144685 C8.00344512,4.11933774 8.12785388,3.91650597 8.12785388,3.69529115 C8.12785388,3.47407632 8.00344512,3.27124456 7.80513137,3.16913544 L6.14230213,2.21248871 Z" id="Path" stroke="#000000"></path>
                </g>
                <g id="Group-8" transform="translate(136.000000, 0.000000)">
                    <path d="M13.5135375,7.11360053 L10.2871226,5.42595132 C10.0846015,5.3187976 9.91834185,5.15651309 9.80856342,4.95883412 L8.07957551,1.80956014 C7.87746298,1.44405239 7.48623128,1.21621622 7.06070764,1.21621622 C6.635184,1.21621622 6.2439523,1.44405239 6.04183977,1.80956014 L4.31285186,4.95883412 C4.20307343,5.15651309 4.0368138,5.3187976 3.83429271,5.42595132 L0.60787778,7.11360053 C0.233416978,7.31088072 0,7.69275839 0,8.10810811 C0,8.52345782 0.233416978,8.9053355 0.60787778,9.10261568 L3.83429271,10.7902649 C4.0368138,10.8974186 4.20307343,11.0597031 4.31285186,11.2573821 L6.04183977,14.4066561 C6.2439523,14.7721638 6.635184,15 7.06070764,15 C7.48623128,15 7.87746298,14.7721638 8.07957551,14.4066561 L9.80856342,11.2573821 C9.91834185,11.0597031 10.0846015,10.8974186 10.2871226,10.7902649 L13.5135375,9.14782057 C13.9129688,8.95899247 14.1666667,8.56391194 14.1666667,8.13071055 C14.1666667,7.69750917 13.9129688,7.30242864 13.5135375,7.11360053 L13.5135375,7.11360053 Z" id="Path" fill="#879DEF"></path>
                    <path d="M14.3468708,5.89738432 L11.1204559,4.2097351 C10.9179348,4.10258138 10.7516752,3.94029688 10.6418968,3.74261791 L8.91290885,0.593343919 C8.71079632,0.227836169 8.31956461,0 7.89404098,0 C7.46851734,0 7.07728563,0.227836169 6.8751731,0.593343919 L5.1461852,3.74261791 C5.03640677,3.94029688 4.87014713,4.10258138 4.66762604,4.2097351 L1.44121111,5.89738432 C1.06675031,6.0946645 0.833333333,6.47654218 0.833333333,6.89189189 C0.833333333,7.30724161 1.06675031,7.68911928 1.44121111,7.88639947 L4.66762604,9.57404868 C4.87014713,9.6812024 5.03640677,9.84348691 5.1461852,10.0411659 L6.8751731,13.1904399 C7.07728563,13.5559476 7.46851734,13.7837838 7.89404098,13.7837838 C8.31956461,13.7837838 8.71079632,13.5559476 8.91290885,13.1904399 L10.6418968,10.0411659 C10.7516752,9.84348691 10.9179348,9.6812024 11.1204559,9.57404868 L14.3468708,7.93160436 C14.7463022,7.74277625 15,7.34769572 15,6.91449434 C15,6.48129295 14.7463022,6.08621242 14.3468708,5.89738432 L14.3468708,5.89738432 Z" id="Path" stroke="#000000"></path>
                </g>
                <g id="Group-9" transform="translate(215.000000, 55.780822)">
                    <path d="M5.44905758,3.65083473 L4.14950493,2.94888658 C4.06475488,2.9116153 3.9970605,2.84392092 3.95978921,2.75917087 L3.25784107,1.45961822 C3.17362569,1.31101843 3.01601375,1.21917808 2.84520939,1.21917808 C2.67440503,1.21917808 2.51679309,1.31101843 2.43257771,1.45961822 L1.74011535,2.75917087 C1.69736689,2.84002881 1.63125758,2.90613813 1.55039963,2.94888658 L0.250846983,3.65083473 C0.096736959,3.73074339 0,3.88987121 0,4.06346641 C0,4.23706161 0.096736959,4.39618943 0.250846983,4.47609809 L1.55039963,5.16856045 C1.62699556,5.21685887 1.69181693,5.28168023 1.74011535,5.35827617 L2.43257771,6.65782882 C2.51248637,6.81193884 2.67161419,6.9086758 2.84520939,6.9086758 C3.01880459,6.9086758 3.17793241,6.81193884 3.25784107,6.65782882 L3.95978921,5.35827617 C4.00253767,5.27741822 4.06864699,5.21130891 4.14950493,5.16856045 L5.44905758,4.47609809 C5.59765737,4.39188271 5.68949772,4.23427077 5.68949772,4.06346641 C5.68949772,3.89266205 5.59765737,3.73505011 5.44905758,3.65083473 Z" id="Path" fill="#879DEF"></path>
                    <path d="M6.26184297,2.43165665 L4.96229032,1.7297085 C4.87754027,1.69243721 4.80984589,1.62474283 4.7725746,1.53999279 L4.07062646,0.240440138 C3.98641107,0.0918403467 3.82879913,0 3.65799478,0 C3.48719042,0 3.32957848,0.0918403467 3.2453631,0.240440138 L2.55290074,1.53999279 C2.51015228,1.62085073 2.44404296,1.68696004 2.36318502,1.7297085 L1.06363237,2.43165665 C0.909522347,2.51156531 0.812785388,2.67069313 0.812785388,2.84428833 C0.812785388,3.01788353 0.909522347,3.17701135 1.06363237,3.25692001 L2.36318502,3.94938237 C2.43978095,3.99768079 2.50460232,4.06250215 2.55290074,4.13909808 L3.2453631,5.43865073 C3.32527176,5.59276076 3.48439958,5.68949772 3.65799478,5.68949772 C3.83158998,5.68949772 3.9907178,5.59276076 4.07062646,5.43865073 L4.7725746,4.13909808 C4.81532306,4.05824014 4.88143237,3.99213083 4.96229032,3.94938237 L6.26184297,3.25692001 C6.41044276,3.17270463 6.50228311,3.01509269 6.50228311,2.84428833 C6.50228311,2.67348397 6.41044276,2.51587203 6.26184297,2.43165665 Z" id="Path" stroke="#000000"></path>
                </g>
                <g id="Group-9" transform="translate(89.000000, 4.780822)">
                    <path d="M5.44905758,3.65083473 L4.14950493,2.94888658 C4.06475488,2.9116153 3.9970605,2.84392092 3.95978921,2.75917087 L3.25784107,1.45961822 C3.17362569,1.31101843 3.01601375,1.21917808 2.84520939,1.21917808 C2.67440503,1.21917808 2.51679309,1.31101843 2.43257771,1.45961822 L1.74011535,2.75917087 C1.69736689,2.84002881 1.63125758,2.90613813 1.55039963,2.94888658 L0.250846983,3.65083473 C0.096736959,3.73074339 0,3.88987121 0,4.06346641 C0,4.23706161 0.096736959,4.39618943 0.250846983,4.47609809 L1.55039963,5.16856045 C1.62699556,5.21685887 1.69181693,5.28168023 1.74011535,5.35827617 L2.43257771,6.65782882 C2.51248637,6.81193884 2.67161419,6.9086758 2.84520939,6.9086758 C3.01880459,6.9086758 3.17793241,6.81193884 3.25784107,6.65782882 L3.95978921,5.35827617 C4.00253767,5.27741822 4.06864699,5.21130891 4.14950493,5.16856045 L5.44905758,4.47609809 C5.59765737,4.39188271 5.68949772,4.23427077 5.68949772,4.06346641 C5.68949772,3.89266205 5.59765737,3.73505011 5.44905758,3.65083473 Z" id="Path" fill="#879DEF"></path>
                    <path d="M6.26184297,2.43165665 L4.96229032,1.7297085 C4.87754027,1.69243721 4.80984589,1.62474283 4.7725746,1.53999279 L4.07062646,0.240440138 C3.98641107,0.0918403467 3.82879913,0 3.65799478,0 C3.48719042,0 3.32957848,0.0918403467 3.2453631,0.240440138 L2.55290074,1.53999279 C2.51015228,1.62085073 2.44404296,1.68696004 2.36318502,1.7297085 L1.06363237,2.43165665 C0.909522347,2.51156531 0.812785388,2.67069313 0.812785388,2.84428833 C0.812785388,3.01788353 0.909522347,3.17701135 1.06363237,3.25692001 L2.36318502,3.94938237 C2.43978095,3.99768079 2.50460232,4.06250215 2.55290074,4.13909808 L3.2453631,5.43865073 C3.32527176,5.59276076 3.48439958,5.68949772 3.65799478,5.68949772 C3.83158998,5.68949772 3.9907178,5.59276076 4.07062646,5.43865073 L4.7725746,4.13909808 C4.81532306,4.05824014 4.88143237,3.99213083 4.96229032,3.94938237 L6.26184297,3.25692001 C6.41044276,3.17270463 6.50228311,3.01509269 6.50228311,2.84428833 C6.50228311,2.67348397 6.41044276,2.51587203 6.26184297,2.43165665 Z" id="Path" stroke="#000000"></path>
                </g>
                <g id="Group-10" transform="translate(262.000000, 8.780822)">
                    <path d="M11.6510219,6.41886339 L8.86790567,4.92518822 C8.6943339,4.84113187 8.55422092,4.70076327 8.47031764,4.52687484 L6.97936253,1.73868119 C6.80007404,1.41787285 6.46172761,1.21917808 6.09472917,1.21917808 C5.72773072,1.21917808 5.38938429,1.41787285 5.2100958,1.73868119 L3.7191407,4.52687484 C3.6276715,4.70215989 3.48089033,4.84220651 3.30167327,4.92518822 L0.518557069,6.41886339 C0.198332936,6.59847897 0,6.93744267 0,7.30511066 C0,7.67277865 0.198332936,8.01174235 0.518557069,8.19135793 L3.30167327,9.6850331 C3.47777007,9.78173681 3.62261309,9.92684407 3.7191407,10.1032621 L5.2100958,12.8914558 C5.38938429,13.2122641 5.72773072,13.4109589 6.09472917,13.4109589 C6.46172761,13.4109589 6.80007404,13.2122641 6.97936253,12.8914558 L8.47031764,10.1032621 C8.55965722,9.92824571 8.69777111,9.78296156 8.86790567,9.6850331 L11.6510219,8.19135793 C11.9829743,8.02098339 12.1917808,7.67877137 12.1917808,7.30511066 C12.1917808,6.93144995 11.9829743,6.58923792 11.6510219,6.41886339 Z" id="Path" fill="#879DEF"></path>
                    <path d="M12.4638073,5.19968531 L9.68069105,3.70601014 C9.50711929,3.62195379 9.36700631,3.48158519 9.28310303,3.30769676 L7.79214792,0.519503112 C7.61285943,0.19869477 7.274513,0 6.90751456,0 C6.54051611,0 6.20216968,0.19869477 6.02288119,0.519503112 L4.53192609,3.30769676 C4.44045688,3.48298181 4.29367571,3.62302843 4.11445866,3.70601014 L1.33134246,5.19968531 C1.01111832,5.37930089 0.812785388,5.71826459 0.812785388,6.08593258 C0.812785388,6.45360056 1.01111832,6.79256426 1.33134246,6.97217984 L4.11445866,8.46585501 C4.29055546,8.56255873 4.43539847,8.70766599 4.53192609,8.88408406 L6.02288119,11.6722777 C6.20216968,11.9930861 6.54051611,12.1917808 6.90751456,12.1917808 C7.274513,12.1917808 7.61285943,11.9930861 7.79214792,11.6722777 L9.28310303,8.88408406 C9.37244261,8.70906763 9.5105565,8.56378348 9.68069105,8.46585501 L12.4638073,6.97217984 C12.7957597,6.80180531 13.0045662,6.45959329 13.0045662,6.08593258 C13.0045662,5.71227187 12.7957597,5.37005984 12.4638073,5.19968531 Z" id="Path" stroke="#000000"></path>
                </g>
                <g id="Group-6" transform="translate(72.831050, 201.214612)">
                    <circle id="Oval" fill="#879DEF" cx="3.25114155" cy="3.65753425" r="2.43835616"></circle>
                    <circle id="Oval" stroke="#000000" cx="2.43835616" cy="2.43835616" r="2.43835616"></circle>
                </g>
            </g>
            <g id="magnifyer" transform="translate(18.676604, 5.380195)" stroke="#6F7CBD">
                <path d="M120.535267,86.2537407 L129.965199,86.3071527 L130.118958,102.113925 L112.507484,102.27175 C112.816548,101.028966 113.007701,100.102167 113.083003,99.4916906 C113.167363,98.8077888 113.188247,97.8658705 113.142299,96.665723 L113.142299,96.665723 L120.535267,86.2537407 Z" id="Rectangle" transform="translate(121.243585, 94.264909) rotate(-150.000000) translate(-121.243585, -94.264909) "></path>
                <path d="M110.411009,77.5784368 C111.33759,77.5696514 112.180013,77.9372688 112.792986,78.5387279 C113.40596,79.1401869 113.789485,79.9754876 113.798261,80.8936988 L113.798261,80.8936988 L113.696879,94.8607948 C113.689935,95.8123233 113.302184,96.6732071 112.678291,97.2984643 C112.054398,97.9237215 111.194363,98.313352 110.242852,98.3223738 C109.316271,98.3311593 108.473848,97.9635418 107.860874,97.3620828 C107.2479,96.7606237 106.864375,95.9253231 106.855599,95.0071119 L106.855599,95.0071119 L106.956981,81.0400159 C106.963925,80.0884873 107.351677,79.2276035 107.97557,78.6023463 C108.599463,77.9770892 109.459498,77.5874587 110.411009,77.5784368 Z" id="Rectangle" transform="translate(110.326930, 87.950405) rotate(-150.000000) translate(-110.326930, -87.950405) "></path>
                <ellipse id="Oval" transform="translate(65.204732, 65.037147) rotate(-150.000000) translate(-65.204732, -65.037147) " cx="65.2047317" cy="65.037147" rx="47.4007612" ry="46.9429113"></ellipse>
                <ellipse id="Oval" transform="translate(64.703398, 65.528942) rotate(-150.000000) translate(-64.703398, -65.528942) " cx="64.7033982" cy="65.5289417" rx="38.9183347" ry="38.5415624"></ellipse>
            </g>
            <g id="binoculars" transform="translate(61.000000, 82.000000)">
                <g id="right" transform="translate(84.102549, 2.000000)">
                    <path d="M111.977721,69.0056028 C110.850383,69.205935 109.715331,69.197686 108.582653,68.9973538 C100.462259,67.5838329 92.5335125,56.4158988 89.9032548,41.7987146 C87.6272186,29.1548031 89.9720817,17.5697064 95.256924,12.0045942 C96.9342843,10.2345998 98.9077193,9.07620794 101.120862,8.6837924 C110.314007,7.05226293 120.197795,19.231875 123.195328,35.8900914 C126.193454,52.5483078 121.170866,67.3740733 111.977721,69.0056028 M97.8733694,0.25540814 C97.2295793,0.367595922 96.5977891,0.513851199 95.9797986,0.699460304 C95.3324086,0.890943115 94.6976184,1.12119239 94.0754279,1.38492178 L92.842447,1.97640396 C92.2856555,2.26480292 91.7408639,2.586682 91.2134721,2.9361675 L91.2086721,2.94262858 C89.0877048,4.34585691 87.193534,6.2230933 85.5573593,8.47859636 C79.7560487,16.4621374 77.2570872,29.2151276 79.738649,42.8086451 C82.655204,58.7845376 91.608266,71.3354723 101.806909,75.4165232 C104.754663,76.6071234 107.815216,77.0799567 110.857169,76.7146122 L111.807555,76.5783422 C125.669141,74.1530891 133.789416,55.1011367 129.942275,34.0251053 C126.094534,12.9490739 111.735556,-2.16984501 97.8733694,0.25540814" id="Fill-1" fill="#FFFFFF"></path>
                    <path d="M111.977721,69.0056028 C110.850383,69.205935 109.715331,69.197686 108.582653,68.9973538 C100.462259,67.5838329 92.5335125,56.4158988 89.9032548,41.7987146 C87.6272186,29.1548031 89.9720817,17.5697064 95.256924,12.0045942 C96.9342843,10.2345998 98.9077193,9.07620794 101.120862,8.6837924 C110.314007,7.05226293 120.197795,19.231875 123.195328,35.8900914 C126.193454,52.5483078 121.170866,67.3740733 111.977721,69.0056028 Z M97.8733694,0.25540814 C97.2295793,0.367595922 96.5977891,0.513851199 95.9797986,0.699460304 C95.3324086,0.890943115 94.6976184,1.12119239 94.0754279,1.38492178 L92.842447,1.97640396 C92.2856555,2.26480292 91.7408639,2.586682 91.2134721,2.9361675 L91.2086721,2.94262858 C89.0877048,4.34585691 87.193534,6.2230933 85.5573593,8.47859636 C79.7560487,16.4621374 77.2570872,29.2151276 79.738649,42.8086451 C82.655204,58.7845376 91.608266,71.3354723 101.806909,75.4165232 C104.754663,76.6071234 107.815216,77.0799567 110.857169,76.7146122 L111.807555,76.5783422 C125.669141,74.1530891 133.789416,55.1011367 129.942275,34.0251053 C126.094534,12.9490739 111.735556,-2.16984501 97.8733694,0.25540814 Z" id="Stroke-3" stroke="#000000" stroke-width="0.855" fill="#D3D5DC"></path>
                    <path d="M0.651220619,51.6337642 L0.562370743,51.6670595 L0.66318118,51.6491313 C0.652929271,51.6423015 0.652929271,51.6423015 0.651220619,51.6337642 L0.651220619,51.6337642 Z M3.97955303,73.0020946 L4.06754858,73.003802 C4.07438318,72.9935573 4.08207211,72.9918499 4.08036346,72.9833126 L3.97955303,73.0020946 Z" id="Fill-13" fill="#FFFFFF"></path>
                    <path d="M0.335417248,51.2429487 L0.264613607,51.2553154 L0.327016816,51.2323486 C0.328216878,51.2382376 0.328216878,51.2382376 0.335417248,51.2429487" id="Fill-37" fill="#FFFFFF"></path>
                    <path d="M40.1771661,76.4266737 C40.2629705,76.4296182 40.3475748,76.4266737 40.4327792,76.4237292 L40.1783661,76.4325626 L40.1771661,76.4266737 Z" id="Fill-41" fill="#FFFFFF"></path>
                    <path d="M88.841,3.878 L88.4767869,4.22085737 C87.4416571,5.21579841 86.4771509,6.33447903 85.5874538,7.56358971 C79.7311613,15.6437224 77.1876893,28.5473479 79.6939158,42.3100161 C82.6429842,58.5053574 91.7235643,71.1905044 102.023854,75.3226267 C103.391632,75.8761936 104.783286,76.2781529 106.186058,76.5172637 L106.186058,76.5172637 L93.7021599,78.3007028 C87.9891923,79.3057594 82.2389901,77.4739865 77.2233208,73.6168615 C70.7402737,68.5891571 65.5412453,60.2746513 63.1777414,50.2354838 C62.9870455,49.4254884 62.8148158,48.60425 62.6619117,47.7718516 C63.8161248,42.5035907 63.3276085,37.0023433 62.435516,31.4093743 C63.1995124,26.8310442 64.6702736,22.6570472 66.7295312,19.1466251 C69.2236255,14.9394253 72.4515363,11.7542467 76.3013371,9.91568319 L76.3013371,9.91568319 L88.841,3.878 Z" id="Stroke-47" stroke="#000000" stroke-width="0.855"></path>
                </g>
                <g id="left" stroke="#000000" stroke-width="0.9">
                    <path d="M134.141951,71.4168324 C132.952817,71.626762 131.755546,71.6181178 130.560779,71.4081882 C121.995256,69.9269498 113.631886,58.2239929 110.856822,42.9065424 C108.456648,29.6568984 110.930048,17.516794 116.504585,11.6850736 C118.273892,9.83028395 120.355503,8.616397 122.689961,8.20518199 C132.387039,6.49549075 142.812618,19.2585921 145.974464,36.7148545 C149.136935,54.171117 143.839029,69.7071412 134.141951,71.4168324 Z M120.165426,0.267643991 C119.486341,0.385206359 118.819914,0.538468294 118.168043,0.732969385 C117.485161,0.933625573 116.815569,1.17490541 116.159268,1.4512693 L114.858691,2.07108765 C114.271374,2.37330295 113.696715,2.71060231 113.14041,3.07683063 L113.135347,3.08360123 C110.898101,4.5540541 108.900085,6.52122335 107.17421,8.88478091 C101.054851,17.2507898 98.4188884,30.6147382 101.036498,44.859481 C104.112948,61.6007315 113.556848,74.7529445 124.314615,79.0295064 C127.423975,80.2771447 130.652318,80.7726301 133.861042,80.389783 L134.86353,80.2469848 C149.485056,77.7055449 158.050512,57.7408697 153.992458,35.6551478 C149.933771,13.5694258 134.787584,-2.27379589 120.165426,0.267643991 Z" id="Stroke-51" fill="#D3D5DC"></path>
                    <path d="M97.9795905,77.7037166 L97.9808564,77.7098877 L59.5242365,79.2458594 L59.4482853,79.2526475 C59.3584097,79.255733 59.269167,79.2588185 59.1786585,79.255733 C56.0614951,79.3291684 52.9304072,77.6864377 50.2354057,74.8397372 C50.1081875,74.7058257 49.9809693,74.571297 49.8588144,74.428746 C46.6910168,70.9001457 44.1776653,65.6775951 43.0675121,59.62072 C41.7092516,52.2093017 42.7643402,45.2674995 45.4979502,40.716358 C46.8853253,38.3941959 48.7151161,36.6959258 50.8778262,35.8677723 L50.8771933,35.8616013 L86.8679312,19.929829 L86.8691971,19.936 C86.84388,19.9711749 86.8255251,20.0125209 86.8002081,20.0476958 C82.1830086,27.8670198 80.3316983,38.7780345 82.4374451,50.2654243 C84.6064845,62.0990094 90.5015628,71.9486053 97.9194625,77.6580509 C97.9416149,77.6728614 97.9574381,77.6889061 97.9795905,77.7037166 Z" id="Stroke-59"></path>
                    <path d="M27.5550223,75.2201382 C25.9870146,77.3407503 23.8641442,78.8013375 21.3719967,79.2436545 C20.1789473,79.4557157 18.9928417,79.4174443 17.8326169,79.1715035 C12.8091848,78.0879837 8.37596492,72.9420488 7.15577212,66.154208 C5.93494808,59.3663672 8.30021576,53.0126873 12.6349617,50.2671848 C13.6373757,49.6366478 14.7370011,49.193076 15.9306817,48.9810148 C18.3906358,48.5430895 20.8682647,49.161706 23.0529969,50.5771204 L17.2840667,52.5515482 L17.2184175,52.5760168 C12.7258607,53.3740697 10.0096219,59.1336018 11.1452282,65.4458734 C12.2802031,71.7575175 16.8346217,76.2258604 21.3271784,75.4278076 L21.3915652,75.4290624 L27.5550223,75.2201382 Z" id="Stroke-67"></path>
                    <path d="M17.8324276,79.171378 C18.9926523,79.4179463 20.1793892,79.4555903 21.3718073,79.243529 L15.8604243,80.1143603 L12.7976331,80.5949487 C7.06594624,80.4914277 1.68523054,74.9590143 0.320483082,67.3687289 C-1.1825066,59.0117607 2.74445637,51.3229735 9.09476138,50.1942809 L15.9304923,48.9808893 C14.7374429,49.1929505 13.6371863,49.6365223 12.6354036,50.2670593 C8.30002639,53.0131892 5.9347587,59.3668691 7.15558275,66.1540825 C8.37640679,72.9419233 12.8089954,78.0878582 17.8324276,79.171378 Z" id="Stroke-71"></path>
                    <path d="M43.0676386,59.6209051 C44.1777919,65.6771631 46.6911434,70.8997137 49.8583081,74.4289312 L27.4425798,75.1509428 L21.2626845,75.3564384 C21.2677479,75.3490331 21.2734443,75.3477989 21.2721784,75.342245 L21.1974931,75.3552042 C16.6929545,76.1401604 12.1263891,71.7451461 10.9883871,65.5370805 C9.85038507,59.3283978 12.5732353,53.6633837 17.0777739,52.8784275 L17.1530921,52.8654683 C17.145497,52.8605315 17.145497,52.8605315 17.1442312,52.8543604 L22.9285473,50.9123343 L22.9342436,50.9111001 L45.4980768,40.7165431 C42.7644668,45.2676846 41.7093782,52.2094868 43.0676386,59.6209051 Z" id="Stroke-79"></path>
                    <path d="M110.506,4.283 L110.128037,4.63602154 C109.036149,5.6786483 108.018757,6.85094454 107.08027,8.13895783 C100.902382,16.6069171 98.2191862,30.1298526 100.863057,44.5531839 C103.973892,61.5248788 113.552065,74.8184576 124.417487,79.148711 C125.855711,79.7269725 127.318967,80.147342 128.793919,80.3981382 L128.793919,80.3981382 L115.638865,82.2651355 C109.611984,83.3184462 103.545668,81.3989655 98.2542664,77.3564793 C90.849929,71.6528072 85.0260562,61.8983241 82.8788665,50.1867512 C80.7951129,38.8199505 82.6163563,28.0192122 87.185434,20.2813742 C89.8162467,15.8726471 93.2212201,12.5349929 97.2820223,10.6083766 L97.2820223,10.6083766 L110.506,4.283 Z" id="Stroke-95"></path>
                </g>
            </g>
            <g id="?" transform="translate(71.000000, 51.000000)" fill-rule="nonzero">
                <polygon id="Path" fill="#FF6E61" points="13 39 19 39 19 32 13 32"></polygon>
                <path d="M16,0 C8.8175,0 3,5.76777778 3,12.8888889 L9.5,12.8888889 C9.5,9.34444444 12.425,6.44444444 16,6.44444444 C19.575,6.44444444 22.5,9.34444444 22.5,12.8888889 C22.5,19.3333333 12.75,18.5277778 12.75,29 L19.25,29 C19.25,21.75 29,20.9444444 29,12.8888889 C29,5.76777778 23.1825,0 16,0 Z" id="Path" fill="#FF6E61"></path>
                <polygon id="Path" stroke="#6F7CBD" points="9 40 16 40 16 33 9 33"></polygon>
                <path d="M13,1 C5.8175,1 0,6.76777778 0,13.8888889 L6.5,13.8888889 C6.5,10.3444444 9.425,7.44444444 13,7.44444444 C16.575,7.44444444 19.5,10.3444444 19.5,13.8888889 C19.5,20.3333333 9.75,19.5277778 9.75,30 L16.25,30 C16.25,22.75 26,21.9444444 26,13.8888889 C26,6.76777778 20.1825,1 13,1 Z" id="Path" stroke="#6F7CBD"></path>
            </g>
        </g>
    </g>
</svg>
