<?xml version="1.0" encoding="UTF-8"?>
<svg width="380px" height="380px" viewBox="0 0 380 380" version="1.1" xmlns="http://www.w3.org/2000/svg" xmlns:xlink="http://www.w3.org/1999/xlink">
    <g id="Illustrations/Light/empty_selection" stroke="none" stroke-width="1" fill="none" fill-rule="evenodd">
        <g id="flatenned" transform="translate(47.000000, 62.849315)">
            <g id="Group-6" transform="translate(235.831050, 129.365297)" fill-rule="nonzero">
                <circle id="Oval" fill="#8DA4FA" cx="3.25114155" cy="3.65753425" r="2.43835616"></circle>
                <circle id="Oval" stroke="#000000" cx="2.43835616" cy="2.43835616" r="2.43835616"></circle>
            </g>
            <g id="Group-5" transform="translate(15.036530, 130.082192)" fill-rule="nonzero">
                <path d="M4.06392694,2.84474886 C4.06392694,3.9669713 3.15418591,4.87671233 2.03196347,4.87671233 C0.909741033,4.87671233 0,3.9669713 0,2.84474886 C0,1.72252642 0.909741033,0.812785388 2.03196347,0.812785388 C3.15418591,0.812785388 4.06392694,1.72252642 4.06392694,2.84474886 L4.06392694,2.84474886 Z" id="Path" fill="#879DEF"></path>
                <path d="M4.87671233,2.03196347 C4.87671233,3.15418591 3.9669713,4.06392694 2.84474886,4.06392694 C1.72252642,4.06392694 0.812785388,3.15418591 0.812785388,2.03196347 C0.812785388,0.909741033 1.72252642,0 2.84474886,0 C3.9669713,0 4.87671233,0.909741033 4.87671233,2.03196347 L4.87671233,2.03196347 Z" id="Path" stroke="#000000"></path>
            </g>
            <g id="Group-7" transform="translate(20.995434, 242.000000)" fill-rule="nonzero">
                <path d="M5.32951674,3.4316668 C5.22328489,3.37442452 5.13600633,3.28805908 5.07815883,3.18293865 L4.18873855,1.5279398 C4.0811152,1.33729913 3.87769891,1.21917808 3.6570199,1.21917808 C3.43634089,1.21917808 3.23292459,1.33729913 3.12530125,1.5279398 L2.22621335,3.18293865 C2.1749825,3.28955063 2.09017113,3.37683165 1.98452305,3.4316668 L0.312026203,4.38831353 C0.119369925,4.49481089 0,4.69609901 0,4.91446923 C0,5.13283945 0.119369925,5.33412757 0.312026203,5.44062493 L1.98452305,6.32073992 C2.09017113,6.37557507 2.1749825,6.46285609 2.22621335,6.56946807 L3.12530125,8.21490045 C3.22848994,8.41113941 3.4334662,8.53424658 3.6570199,8.53424658 C3.88057359,8.53424658 4.08554985,8.41113941 4.18873855,8.21490045 L5.07815883,6.56946807 C5.13600633,6.46434764 5.22328489,6.3779822 5.32951674,6.32073992 L6.99234598,5.44062493 C7.19065974,5.33851582 7.31506849,5.13568406 7.31506849,4.91446923 C7.31506849,4.6932544 7.19065974,4.49042264 6.99234598,4.38831353 L5.32951674,3.4316668 Z" id="Path" fill="#879DEF"></path>
                <path d="M6.14230213,2.21248871 C6.03607028,2.15524644 5.94879171,2.06888099 5.89094422,1.96376056 L5.00152393,0.308761721 C4.89390059,0.118121053 4.69048429,0 4.46980528,0 C4.24912627,0 4.04570998,0.118121053 3.93808663,0.308761721 L3.03899873,1.96376056 C2.98776789,2.07037255 2.90295652,2.15765357 2.79730844,2.21248871 L1.12481159,3.16913544 C0.932155313,3.27563281 0.812785388,3.47692093 0.812785388,3.69529115 C0.812785388,3.91366137 0.932155313,4.11494948 1.12481159,4.22144685 L2.79730844,5.10156184 C2.90295652,5.15639699 2.98776789,5.24367801 3.03899873,5.35028999 L3.93808663,6.99572237 C4.04127533,7.19196133 4.24625159,7.31506849 4.46980528,7.31506849 C4.69335898,7.31506849 4.89833524,7.19196133 5.00152393,6.99572237 L5.89094422,5.35028999 C5.94879171,5.24516956 6.03607028,5.15880412 6.14230213,5.10156184 L7.80513137,4.22144685 C8.00344512,4.11933774 8.12785388,3.91650597 8.12785388,3.69529115 C8.12785388,3.47407632 8.00344512,3.27124456 7.80513137,3.16913544 L6.14230213,2.21248871 Z" id="Path" stroke="#000000"></path>
            </g>
            <g id="Group-7" transform="translate(167.995434, 0.000000)" fill-rule="nonzero">
                <path d="M5.32951674,3.4316668 C5.22328489,3.37442452 5.13600633,3.28805908 5.07815883,3.18293865 L4.18873855,1.5279398 C4.0811152,1.33729913 3.87769891,1.21917808 3.6570199,1.21917808 C3.43634089,1.21917808 3.23292459,1.33729913 3.12530125,1.5279398 L2.22621335,3.18293865 C2.1749825,3.28955063 2.09017113,3.37683165 1.98452305,3.4316668 L0.312026203,4.38831353 C0.119369925,4.49481089 0,4.69609901 0,4.91446923 C0,5.13283945 0.119369925,5.33412757 0.312026203,5.44062493 L1.98452305,6.32073992 C2.09017113,6.37557507 2.1749825,6.46285609 2.22621335,6.56946807 L3.12530125,8.21490045 C3.22848994,8.41113941 3.4334662,8.53424658 3.6570199,8.53424658 C3.88057359,8.53424658 4.08554985,8.41113941 4.18873855,8.21490045 L5.07815883,6.56946807 C5.13600633,6.46434764 5.22328489,6.3779822 5.32951674,6.32073992 L6.99234598,5.44062493 C7.19065974,5.33851582 7.31506849,5.13568406 7.31506849,4.91446923 C7.31506849,4.6932544 7.19065974,4.49042264 6.99234598,4.38831353 L5.32951674,3.4316668 Z" id="Path" fill="#879DEF"></path>
                <path d="M6.14230213,2.21248871 C6.03607028,2.15524644 5.94879171,2.06888099 5.89094422,1.96376056 L5.00152393,0.308761721 C4.89390059,0.118121053 4.69048429,0 4.46980528,0 C4.24912627,0 4.04570998,0.118121053 3.93808663,0.308761721 L3.03899873,1.96376056 C2.98776789,2.07037255 2.90295652,2.15765357 2.79730844,2.21248871 L1.12481159,3.16913544 C0.932155313,3.27563281 0.812785388,3.47692093 0.812785388,3.69529115 C0.812785388,3.91366137 0.932155313,4.11494948 1.12481159,4.22144685 L2.79730844,5.10156184 C2.90295652,5.15639699 2.98776789,5.24367801 3.03899873,5.35028999 L3.93808663,6.99572237 C4.04127533,7.19196133 4.24625159,7.31506849 4.46980528,7.31506849 C4.69335898,7.31506849 4.89833524,7.19196133 5.00152393,6.99572237 L5.89094422,5.35028999 C5.94879171,5.24516956 6.03607028,5.15880412 6.14230213,5.10156184 L7.80513137,4.22144685 C8.00344512,4.11933774 8.12785388,3.91650597 8.12785388,3.69529115 C8.12785388,3.47407632 8.00344512,3.27124456 7.80513137,3.16913544 L6.14230213,2.21248871 Z" id="Path" stroke="#000000"></path>
            </g>
            <g id="Group-8" transform="translate(0.000000, 84.931507)" fill-rule="nonzero">
                <path d="M13.180327,7.13092437 L10.0334675,5.4391652 C9.83594008,5.33175053 9.67378,5.16907081 9.56670843,4.97091043 L7.8803531,1.81396698 C7.68322417,1.4475691 7.30163928,1.21917808 6.886608,1.21917808 C6.47157673,1.21917808 6.08999183,1.4475691 5.8928629,1.81396698 L4.20650757,4.97091043 C4.09943601,5.16907081 3.93727592,5.33175053 3.73974851,5.4391652 L0.592889013,7.13092437 C0.227661491,7.32868499 0,7.71149266 0,8.12785388 C0,8.5442151 0.227661491,8.92702277 0.592889013,9.12478339 L3.73974851,10.8165426 C3.93727592,10.9239572 4.09943601,11.086637 4.20650757,11.2847973 L5.8928629,14.4417408 C6.08999183,14.8081387 6.47157673,15.0365297 6.886608,15.0365297 C7.30163928,15.0365297 7.68322417,14.8081387 7.8803531,14.4417408 L9.56670843,11.2847973 C9.67378,11.086637 9.83594008,10.9239572 10.0334675,10.8165426 L13.180327,9.17009837 C13.5699093,8.98081041 13.8173516,8.58476773 13.8173516,8.15051137 C13.8173516,7.71625501 13.5699093,7.32021233 13.180327,7.13092437 L13.180327,7.13092437 Z" id="Path" fill="#879DEF"></path>
                <path d="M13.9931124,5.91174629 L10.8462529,4.21998712 C10.6487255,4.11257245 10.4865654,3.94989273 10.3794938,3.75173235 L8.69313849,0.594788897 C8.49600956,0.228391021 8.11442466,0 7.69939339,0 C7.28436212,0 6.90277722,0.228391021 6.70564829,0.594788897 L5.01929296,3.75173235 C4.91222139,3.94989273 4.75006131,4.11257245 4.5525339,4.21998712 L1.4056744,5.91174629 C1.04044688,6.10950691 0.812785388,6.49231458 0.812785388,6.9086758 C0.812785388,7.32503702 1.04044688,7.70784469 1.4056744,7.90560531 L4.5525339,9.59736448 C4.75006131,9.70477915 4.91222139,9.86745887 5.01929296,10.0656193 L6.70564829,13.2225627 C6.90277722,13.5889606 7.28436212,13.8173516 7.69939339,13.8173516 C8.11442466,13.8173516 8.49600956,13.5889606 8.69313849,13.2225627 L10.3794938,10.0656193 C10.4865654,9.86745887 10.6487255,9.70477915 10.8462529,9.59736448 L13.9931124,7.95092029 C14.3826947,7.76163233 14.630137,7.36558965 14.630137,6.93133329 C14.630137,6.49707692 14.3826947,6.10103425 13.9931124,5.91174629 L13.9931124,5.91174629 Z" id="Path" stroke="#000000"></path>
            </g>
            <g id="Group-9" transform="translate(208.000000, 80.931507)" fill-rule="nonzero">
                <path d="M5.44905758,3.65083473 L4.14950493,2.94888658 C4.06475488,2.9116153 3.9970605,2.84392092 3.95978921,2.75917087 L3.25784107,1.45961822 C3.17362569,1.31101843 3.01601375,1.21917808 2.84520939,1.21917808 C2.67440503,1.21917808 2.51679309,1.31101843 2.43257771,1.45961822 L1.74011535,2.75917087 C1.69736689,2.84002881 1.63125758,2.90613813 1.55039963,2.94888658 L0.250846983,3.65083473 C0.096736959,3.73074339 0,3.88987121 0,4.06346641 C0,4.23706161 0.096736959,4.39618943 0.250846983,4.47609809 L1.55039963,5.16856045 C1.62699556,5.21685887 1.69181693,5.28168023 1.74011535,5.35827617 L2.43257771,6.65782882 C2.51248637,6.81193884 2.67161419,6.9086758 2.84520939,6.9086758 C3.01880459,6.9086758 3.17793241,6.81193884 3.25784107,6.65782882 L3.95978921,5.35827617 C4.00253767,5.27741822 4.06864699,5.21130891 4.14950493,5.16856045 L5.44905758,4.47609809 C5.59765737,4.39188271 5.68949772,4.23427077 5.68949772,4.06346641 C5.68949772,3.89266205 5.59765737,3.73505011 5.44905758,3.65083473 Z" id="Path" fill="#879DEF"></path>
                <path d="M6.26184297,2.43165665 L4.96229032,1.7297085 C4.87754027,1.69243721 4.80984589,1.62474283 4.7725746,1.53999279 L4.07062646,0.240440138 C3.98641107,0.0918403467 3.82879913,0 3.65799478,0 C3.48719042,0 3.32957848,0.0918403467 3.2453631,0.240440138 L2.55290074,1.53999279 C2.51015228,1.62085073 2.44404296,1.68696004 2.36318502,1.7297085 L1.06363237,2.43165665 C0.909522347,2.51156531 0.812785388,2.67069313 0.812785388,2.84428833 C0.812785388,3.01788353 0.909522347,3.17701135 1.06363237,3.25692001 L2.36318502,3.94938237 C2.43978095,3.99768079 2.50460232,4.06250215 2.55290074,4.13909808 L3.2453631,5.43865073 C3.32527176,5.59276076 3.48439958,5.68949772 3.65799478,5.68949772 C3.83158998,5.68949772 3.9907178,5.59276076 4.07062646,5.43865073 L4.7725746,4.13909808 C4.81532306,4.05824014 4.88143237,3.99213083 4.96229032,3.94938237 L6.26184297,3.25692001 C6.41044276,3.17270463 6.50228311,3.01509269 6.50228311,2.84428833 C6.50228311,2.67348397 6.41044276,2.51587203 6.26184297,2.43165665 Z" id="Path" stroke="#000000"></path>
            </g>
            <g id="Group-9" transform="translate(72.000000, 9.931507)" fill-rule="nonzero">
                <path d="M5.44905758,3.65083473 L4.14950493,2.94888658 C4.06475488,2.9116153 3.9970605,2.84392092 3.95978921,2.75917087 L3.25784107,1.45961822 C3.17362569,1.31101843 3.01601375,1.21917808 2.84520939,1.21917808 C2.67440503,1.21917808 2.51679309,1.31101843 2.43257771,1.45961822 L1.74011535,2.75917087 C1.69736689,2.84002881 1.63125758,2.90613813 1.55039963,2.94888658 L0.250846983,3.65083473 C0.096736959,3.73074339 0,3.88987121 0,4.06346641 C0,4.23706161 0.096736959,4.39618943 0.250846983,4.47609809 L1.55039963,5.16856045 C1.62699556,5.21685887 1.69181693,5.28168023 1.74011535,5.35827617 L2.43257771,6.65782882 C2.51248637,6.81193884 2.67161419,6.9086758 2.84520939,6.9086758 C3.01880459,6.9086758 3.17793241,6.81193884 3.25784107,6.65782882 L3.95978921,5.35827617 C4.00253767,5.27741822 4.06864699,5.21130891 4.14950493,5.16856045 L5.44905758,4.47609809 C5.59765737,4.39188271 5.68949772,4.23427077 5.68949772,4.06346641 C5.68949772,3.89266205 5.59765737,3.73505011 5.44905758,3.65083473 Z" id="Path" fill="#879DEF"></path>
                <path d="M6.26184297,2.43165665 L4.96229032,1.7297085 C4.87754027,1.69243721 4.80984589,1.62474283 4.7725746,1.53999279 L4.07062646,0.240440138 C3.98641107,0.0918403467 3.82879913,0 3.65799478,0 C3.48719042,0 3.32957848,0.0918403467 3.2453631,0.240440138 L2.55290074,1.53999279 C2.51015228,1.62085073 2.44404296,1.68696004 2.36318502,1.7297085 L1.06363237,2.43165665 C0.909522347,2.51156531 0.812785388,2.67069313 0.812785388,2.84428833 C0.812785388,3.01788353 0.909522347,3.17701135 1.06363237,3.25692001 L2.36318502,3.94938237 C2.43978095,3.99768079 2.50460232,4.06250215 2.55290074,4.13909808 L3.2453631,5.43865073 C3.32527176,5.59276076 3.48439958,5.68949772 3.65799478,5.68949772 C3.83158998,5.68949772 3.9907178,5.59276076 4.07062646,5.43865073 L4.7725746,4.13909808 C4.81532306,4.05824014 4.88143237,3.99213083 4.96229032,3.94938237 L6.26184297,3.25692001 C6.41044276,3.17270463 6.50228311,3.01509269 6.50228311,2.84428833 C6.50228311,2.67348397 6.41044276,2.51587203 6.26184297,2.43165665 Z" id="Path" stroke="#000000"></path>
            </g>
            <g id="Group-10" transform="translate(255.000000, 33.931507)" fill-rule="nonzero">
                <path d="M11.6510219,6.41886339 L8.86790567,4.92518822 C8.6943339,4.84113187 8.55422092,4.70076327 8.47031764,4.52687484 L6.97936253,1.73868119 C6.80007404,1.41787285 6.46172761,1.21917808 6.09472917,1.21917808 C5.72773072,1.21917808 5.38938429,1.41787285 5.2100958,1.73868119 L3.7191407,4.52687484 C3.6276715,4.70215989 3.48089033,4.84220651 3.30167327,4.92518822 L0.518557069,6.41886339 C0.198332936,6.59847897 0,6.93744267 0,7.30511066 C0,7.67277865 0.198332936,8.01174235 0.518557069,8.19135793 L3.30167327,9.6850331 C3.47777007,9.78173681 3.62261309,9.92684407 3.7191407,10.1032621 L5.2100958,12.8914558 C5.38938429,13.2122641 5.72773072,13.4109589 6.09472917,13.4109589 C6.46172761,13.4109589 6.80007404,13.2122641 6.97936253,12.8914558 L8.47031764,10.1032621 C8.55965722,9.92824571 8.69777111,9.78296156 8.86790567,9.6850331 L11.6510219,8.19135793 C11.9829743,8.02098339 12.1917808,7.67877137 12.1917808,7.30511066 C12.1917808,6.93144995 11.9829743,6.58923792 11.6510219,6.41886339 Z" id="Path" fill="#879DEF"></path>
                <path d="M12.4638073,5.19968531 L9.68069105,3.70601014 C9.50711929,3.62195379 9.36700631,3.48158519 9.28310303,3.30769676 L7.79214792,0.519503112 C7.61285943,0.19869477 7.274513,0 6.90751456,0 C6.54051611,0 6.20216968,0.19869477 6.02288119,0.519503112 L4.53192609,3.30769676 C4.44045688,3.48298181 4.29367571,3.62302843 4.11445866,3.70601014 L1.33134246,5.19968531 C1.01111832,5.37930089 0.812785388,5.71826459 0.812785388,6.08593258 C0.812785388,6.45360056 1.01111832,6.79256426 1.33134246,6.97217984 L4.11445866,8.46585501 C4.29055546,8.56255873 4.43539847,8.70766599 4.53192609,8.88408406 L6.02288119,11.6722777 C6.20216968,11.9930861 6.54051611,12.1917808 6.90751456,12.1917808 C7.274513,12.1917808 7.61285943,11.9930861 7.79214792,11.6722777 L9.28310303,8.88408406 C9.37244261,8.70906763 9.5105565,8.56378348 9.68069105,8.46585501 L12.4638073,6.97217984 C12.7957597,6.80180531 13.0045662,6.45959329 13.0045662,6.08593258 C13.0045662,5.71227187 12.7957597,5.37005984 12.4638073,5.19968531 Z" id="Path" stroke="#000000"></path>
            </g>
            <g id="Group-10" transform="translate(265.000000, 231.931507)" fill-rule="nonzero">
                <path d="M11.6510219,6.41886339 L8.86790567,4.92518822 C8.6943339,4.84113187 8.55422092,4.70076327 8.47031764,4.52687484 L6.97936253,1.73868119 C6.80007404,1.41787285 6.46172761,1.21917808 6.09472917,1.21917808 C5.72773072,1.21917808 5.38938429,1.41787285 5.2100958,1.73868119 L3.7191407,4.52687484 C3.6276715,4.70215989 3.48089033,4.84220651 3.30167327,4.92518822 L0.518557069,6.41886339 C0.198332936,6.59847897 0,6.93744267 0,7.30511066 C0,7.67277865 0.198332936,8.01174235 0.518557069,8.19135793 L3.30167327,9.6850331 C3.47777007,9.78173681 3.62261309,9.92684407 3.7191407,10.1032621 L5.2100958,12.8914558 C5.38938429,13.2122641 5.72773072,13.4109589 6.09472917,13.4109589 C6.46172761,13.4109589 6.80007404,13.2122641 6.97936253,12.8914558 L8.47031764,10.1032621 C8.55965722,9.92824571 8.69777111,9.78296156 8.86790567,9.6850331 L11.6510219,8.19135793 C11.9829743,8.02098339 12.1917808,7.67877137 12.1917808,7.30511066 C12.1917808,6.93144995 11.9829743,6.58923792 11.6510219,6.41886339 Z" id="Path" fill="#879DEF"></path>
                <path d="M12.4638073,5.19968531 L9.68069105,3.70601014 C9.50711929,3.62195379 9.36700631,3.48158519 9.28310303,3.30769676 L7.79214792,0.519503112 C7.61285943,0.19869477 7.274513,0 6.90751456,0 C6.54051611,0 6.20216968,0.19869477 6.02288119,0.519503112 L4.53192609,3.30769676 C4.44045688,3.48298181 4.29367571,3.62302843 4.11445866,3.70601014 L1.33134246,5.19968531 C1.01111832,5.37930089 0.812785388,5.71826459 0.812785388,6.08593258 C0.812785388,6.45360056 1.01111832,6.79256426 1.33134246,6.97217984 L4.11445866,8.46585501 C4.29055546,8.56255873 4.43539847,8.70766599 4.53192609,8.88408406 L6.02288119,11.6722777 C6.20216968,11.9930861 6.54051611,12.1917808 6.90751456,12.1917808 C7.274513,12.1917808 7.61285943,11.9930861 7.79214792,11.6722777 L9.28310303,8.88408406 C9.37244261,8.70906763 9.5105565,8.56378348 9.68069105,8.46585501 L12.4638073,6.97217984 C12.7957597,6.80180531 13.0045662,6.45959329 13.0045662,6.08593258 C13.0045662,5.71227187 12.7957597,5.37005984 12.4638073,5.19968531 Z" id="Path" stroke="#000000"></path>
            </g>
            <g id="Group-12" transform="translate(35.000000, 27.150685)" stroke="#6F7CBD" stroke-linejoin="round">
                <path d="M42.0020452,40.0848727 C42.1415889,13.3616242 49.4219648,0 63.8431731,0 C78.2529802,0 84.533471,13.3405058 82.6846455,40.0215173" id="Path-36" stroke-width="2"></path>
                <path d="M37.0229896,40.2630971 C37.4800881,14.7543657 44.7534826,2 58.8431731,2 C72.894755,2 79.2161832,14.6854652 77.8074579,40.0563956" id="Path-36" stroke-width="2"></path>
                <polygon id="Rectangle" points="9 40 110.578778 40 113.556549 120.81975 31.5 156 40.3748643 164.927038 9 167"></polygon>
                <polygon id="Rectangle" points="3.13328393 40 9 40 9 167 -4.09272616e-12 157.868994"></polygon>
            </g>
            <g id="Group" transform="translate(60.917079, 140.150685)" stroke="#6F7CBD">
                <path d="M61.082921,77.7488671 C23.9561783,83.4170443 3.75630865,83.4170443 0.48331218,77.7488671 C-4.42618253,69.2466013 37.4346615,67 37.4346615,67" id="Path-33" stroke-width="2"></path>
                <polygon id="Path-31" fill="#D3D5DC" stroke-linejoin="round" points="74.082921 88 7.7014386 58.1785496 18.5295102 55.6789353 5.08292102 43 72.1020648 69.5070991 60.2573275 71.3012043"></polygon>
                <path d="M57.582921,64 C27.5772368,79.1492117 9.75478011,83.3674439 3.02888755,77.6504771 C-6.64957811,69.4238417 8.02762051,61.271663 30.582921,53.5" id="Path-32" stroke-width="2" stroke-linecap="round"></path>
                <polygon id="Rectangle" stroke-linejoin="round" points="105.943055 0 186.082921 16.1465932 72.3565219 69 5.08292102 42.9289413"></polygon>
                <polygon id="Path-30" stroke-linejoin="round" points="186.082921 16.1465932 189.082921 67.7289862 73.984666 88 60.082921 71.5856317 71.9928992 69.8220852"></polygon>
                <polyline id="Path-34" points="185.913174 17 162.224444 44.898305 72.082921 69"></polyline>
                <line x1="162.082921" y1="45" x2="188.857458" y2="66.4601308" id="Path-35" fill="#FFFFFF"></line>
            </g>
            <g id="undraw_cancel_u1it" transform="translate(142.818019, 88.393326) rotate(-360.000000) translate(-142.818019, -88.393326) translate(125.343146, 72.393326)">
                <circle id="Oval" fill="#FF6E61" cx="19.9497475" cy="15" r="15"></circle>
                <circle id="Oval" stroke="#000000" cx="15" cy="17" r="15"></circle>
            </g>
        </g>
    </g>
</svg>
