<svg xmlns="http://www.w3.org/2000/svg" width="380" height="380" viewBox="0 0 380 380">
    <g fill="none" fill-rule="evenodd">
        <g transform="translate(39.995 52.78)">
            <g fill-rule="nonzero" transform="translate(258.836 235.434)">
                <circle cx="3.251" cy="3.658" r="2.438" fill="#879DEF"/>
                <circle cx="2.438" cy="2.438" r="2.438" stroke="#000"/>
            </g>
            <g fill-rule="nonzero">
                <path fill="#879DEF" d="M4.064 2.845c0 1.122-.91 2.032-2.032 2.032C.91 4.877 0 3.967 0 2.845 0 1.723.91.813 2.032.813c1.122 0 2.032.91 2.032 2.032z" transform="translate(42.041 100.15)"/>
                <path stroke="#000" d="M4.877 2.032c0 1.122-.91 2.032-2.032 2.032-1.122 0-2.032-.91-2.032-2.032C.813.91 1.723 0 2.845 0c1.122 0 2.032.91 2.032 2.032h0z" transform="translate(42.041 100.15)"/>
            </g>
            <g fill-rule="nonzero">
                <path fill="#879DEF" d="M5.33 3.432c-.107-.058-.194-.144-.252-.25l-.89-1.654c-.107-.19-.31-.309-.531-.309-.22 0-.424.118-.532.309l-.899 1.655c-.051.107-.136.194-.241.249l-1.673.956C.119 4.495 0 4.696 0 4.914c0 .219.12.42.312.527l1.673.88c.105.055.19.142.241.248l.9 1.646c.102.196.307.32.531.32.224 0 .429-.124.532-.32l.89-1.646c.057-.105.144-.191.25-.248l1.663-.88c.199-.102.323-.305.323-.527 0-.22-.124-.424-.323-.526L5.33 3.432z" transform="translate(0 41.068)"/>
                <path stroke="#000" d="M6.142 2.212c-.106-.057-.193-.143-.251-.248L5 .309C4.895.119 4.692 0 4.47 0c-.22 0-.424.118-.532.309L3.04 1.964c-.051.106-.136.194-.242.248l-1.672.957c-.193.107-.312.308-.312.526 0 .219.12.42.312.526l1.672.88c.106.055.19.143.242.25l.9 1.645c.102.196.307.32.53.32.224 0 .43-.124.533-.32L5.89 5.35c.058-.105.145-.191.251-.248l1.663-.88c.198-.103.323-.305.323-.527 0-.22-.125-.424-.323-.526l-1.663-.957z" transform="translate(0 41.068)"/>
            </g>
            <g fill-rule="nonzero">
                <path fill="#879DEF" d="M5.33 3.432c-.107-.058-.194-.144-.252-.25l-.89-1.654c-.107-.19-.31-.309-.531-.309-.22 0-.424.118-.532.309l-.899 1.655c-.051.107-.136.194-.241.249l-1.673.956C.119 4.495 0 4.696 0 4.914c0 .219.12.42.312.527l1.673.88c.105.055.19.142.241.248l.9 1.646c.102.196.307.32.531.32.224 0 .429-.124.532-.32l.89-1.646c.057-.105.144-.191.25-.248l1.663-.88c.199-.102.323-.305.323-.527 0-.22-.124-.424-.323-.526L5.33 3.432z" transform="translate(296 70.068)"/>
                <path stroke="#000" d="M6.142 2.212c-.106-.057-.193-.143-.251-.248L5 .309C4.895.119 4.692 0 4.47 0c-.22 0-.424.118-.532.309L3.04 1.964c-.051.106-.136.194-.242.248l-1.672.957c-.193.107-.312.308-.312.526 0 .219.12.42.312.526l1.672.88c.106.055.19.143.242.25l.9 1.645c.102.196.307.32.53.32.224 0 .43-.124.533-.32L5.89 5.35c.058-.105.145-.191.251-.248l1.663-.88c.198-.103.323-.305.323-.527 0-.22-.125-.424-.323-.526l-1.663-.957z" transform="translate(296 70.068)"/>
            </g>
            <g fill-rule="nonzero">
                <path fill="#D2DCFF" d="M13.18 7.912L10.033 6.22c-.197-.107-.36-.27-.466-.468L7.88 2.595C7.683 2.228 7.302 2 6.887 2c-.415 0-.797.228-.994.595L4.207 5.752c-.108.198-.27.36-.467.468L.593 7.912C.228 8.11 0 8.492 0 8.909c0 .416.228.799.593.997l3.147 1.691c.197.108.36.27.467.469l1.686 3.157c.197.366.579.594.994.594.415 0 .796-.228.993-.594l1.687-3.157c.107-.199.269-.361.466-.469l3.147-1.646c.39-.19.637-.585.637-1.02 0-.434-.247-.83-.637-1.02z" transform="translate(96.005 54.22)"/>
                <path stroke="#000" d="M13.993 6.693L10.846 5c-.197-.108-.36-.27-.467-.468L8.693 1.376C8.496 1.009 8.114.78 7.7.78c-.415 0-.796.228-.993.595L5.019 4.533c-.107.198-.269.36-.466.468L1.406 6.693c-.366.197-.593.58-.593.996 0 .417.227.8.593.997l3.147 1.692c.197.108.36.27.466.468l1.687 3.157c.197.367.578.595.993.595.415 0 .797-.228.994-.595l1.686-3.157c.108-.198.27-.36.467-.468l3.147-1.646c.39-.19.637-.586.637-1.02 0-.434-.247-.83-.637-1.02h0z" transform="translate(96.005 54.22)"/>
            </g>
            <g fill-rule="nonzero">
                <path fill="#879DEF" d="M5.45 3.65l-1.3-.701c-.085-.037-.153-.105-.19-.19l-.702-1.3c-.084-.148-.242-.24-.413-.24-.17 0-.328.092-.412.24l-.693 1.3c-.043.081-.109.147-.19.19l-1.3.702c-.153.08-.25.239-.25.412 0 .174.097.333.25.413l1.3.693c.077.048.142.113.19.19l.693 1.299c.08.154.239.25.412.25.174 0 .333-.096.413-.25l.702-1.3c.043-.08.109-.147.19-.19l1.3-.692c.148-.084.24-.242.24-.413 0-.17-.092-.328-.24-.412z" transform="translate(89.005)"/>
                <path stroke="#000" d="M6.262 2.432l-1.3-.702c-.084-.038-.152-.105-.19-.19L4.072.24C3.986.092 3.829 0 3.658 0c-.17 0-.328.092-.413.24l-.692 1.3c-.043.08-.109.147-.19.19l-1.3.702c-.153.08-.25.239-.25.412 0 .174.097.333.25.413l1.3.692c.077.049.142.114.19.19l.692 1.3c.08.154.24.25.413.25.174 0 .333-.096.413-.25l.702-1.3c.042-.08.108-.147.19-.19l1.299-.692c.148-.084.24-.242.24-.413 0-.17-.092-.328-.24-.412z" transform="translate(89.005)"/>
            </g>
            <g fill-rule="nonzero">
                <path fill="#879DEF" d="M11.651 6.419L8.868 4.925c-.174-.084-.314-.224-.398-.398L6.98 1.739c-.18-.321-.518-.52-.885-.52s-.706.199-.885.52L3.72 4.527c-.092.175-.24.315-.418.398L.519 6.42c-.32.18-.519.518-.519.886s.198.707.519.886l2.783 1.494c.176.097.32.242.417.418l1.491 2.788c.18.321.518.52.885.52s.705-.199.884-.52l1.491-2.788c.09-.175.228-.32.398-.418l2.783-1.494c.332-.17.54-.512.54-.886s-.208-.716-.54-.886z" transform="translate(262.005 4)"/>
                <path stroke="#000" d="M12.464 5.2L9.68 3.706c-.174-.084-.314-.224-.398-.398L7.793.52C7.612.199 7.274 0 6.907 0s-.706.199-.885.52L4.532 3.308c-.092.175-.238.315-.418.398L1.331 5.2c-.32.18-.518.518-.518.886s.198.707.518.886l2.783 1.494c.177.097.321.242.418.418l1.49 2.788c.18.321.519.52.886.52s.705-.199.884-.52l1.491-2.788c.09-.175.228-.32.398-.418l2.783-1.494c.332-.17.54-.512.54-.886s-.208-.716-.54-.886z" transform="translate(262.005 4)"/>
            </g>
            <g fill-rule="nonzero">
                <path fill="#879DEF" d="M11.651 6.419L8.868 4.925c-.174-.084-.314-.224-.398-.398L6.98 1.739c-.18-.321-.518-.52-.885-.52s-.706.199-.885.52L3.72 4.527c-.092.175-.24.315-.418.398L.519 6.42c-.32.18-.519.518-.519.886s.198.707.519.886l2.783 1.494c.176.097.32.242.417.418l1.491 2.788c.18.321.518.52.885.52s.705-.199.884-.52l1.491-2.788c.09-.175.228-.32.398-.418l2.783-1.494c.332-.17.54-.512.54-.886s-.208-.716-.54-.886z" transform="translate(202.005 172)"/>
                <path stroke="#000" d="M12.464 5.2L9.68 3.706c-.174-.084-.314-.224-.398-.398L7.793.52C7.612.199 7.274 0 6.907 0s-.706.199-.885.52L4.532 3.308c-.092.175-.238.315-.418.398L1.331 5.2c-.32.18-.518.518-.518.886s.198.707.518.886l2.783 1.494c.177.097.321.242.418.418l1.49 2.788c.18.321.519.52.886.52s.705-.199.884-.52l1.491-2.788c.09-.175.228-.32.398-.418l2.783-1.494c.332-.17.54-.512.54-.886s-.208-.716-.54-.886z" transform="translate(202.005 172)"/>
            </g>
            <path stroke="#6F7CBD" d="M163.505 132.796v137.923h-13V134.653l13-1.857zM202.005 36.22c15.832 0 28.666 12.834 28.666 28.666v58.333l-57.333 8"/>
            <path stroke="#6F7CBD" d="M99.005 46.208L171.005 36.219 203.005 132.208 99.005 137.208" transform="rotate(-180 151.005 86.714)"/>
            <path fill="#D3D5DC" stroke="#6F7CBD" d="M96.338 41.22c19.146 0 34.667 15.52 34.667 34.666v61.333h0l-69.334-8V75.886c0-19.146 15.521-34.667 34.667-34.667z"/>
            <path stroke="#6F7CBD" d="M74.671 129.22c20.517 0 38.546 13.607 44.171 33.338l12.163 42.661h0l-69.334 8-13.008-50.432c-3.705-14.364 4.936-29.012 19.3-32.717 2.191-.565 4.445-.85 6.708-.85z" transform="matrix(1 0 0 -1 0 342.438)"/>
            <path fill="#FF6E61" d="M166.304 77.296L153.005 78.916 153.005 90.208 211.566 83.296 211.566 80.296 166.304 85.534z" transform="rotate(-180 182.285 83.752)"/>
            <path stroke="#6F7CBD" d="M149.792 94.198c2.162-.356 3.856-2.099 4.14-4.284.027-.213.041-.43.041-.65 0-.371-.04-.733-.117-1.081-.098-.444-.255-.866-.462-1.257-.839-1.583-2.504-2.662-4.42-2.662-1.418 0-2.698.59-3.608 1.538-.862.899-1.393 2.119-1.393 3.462 0 1.072.337 2.065.911 2.878.513.728 1.215 1.312 2.035 1.682" transform="rotate(-109 148.973 89.231)"/>
            <path stroke="#6F7CBD" d="M164.304 80.296L151.005 81.916 151.005 93.208 209.566 86.296 209.566 83.296 164.304 88.534z" transform="rotate(-180 180.285 86.752)"/>
            <path stroke="#6F7CBD" stroke-dasharray="4 3" d="M93.158 87.977c-1.13-21.544-4.702-35.388-10.717-41.533-9.024-9.218-18.133-1.939-14.322 3.005 2.438 3.162 8.592 3.778 10.037-1.791.814-3.138.134-8.239-3.548-15.954C67.798 17.43 53.98 13.096 33.155 18.7" transform="scale(-1 1) rotate(73 0 -33.197)"/>
            <ellipse cx="45.584" cy="6.677" fill="#6F7CBD" stroke="#6F7CBD" rx="1.5" ry="1" transform="rotate(-44 45.584 6.677)"/>
            <path fill="#FFF" stroke="#6F7CBD" d="M45.882 6.542l.021.098c.103.497.208 1.191.215 1.983.006.628-.18 1.124-.447 1.468-.15.194-.323.339-.496.426-.123.062-.244.105-.345.08-.096-.023-.177-.12-.252-.228-.112-.164-.197-.38-.238-.626-.07-.428-.002-.944.3-1.463.275-.472.573-.896.847-1.25.186-.242.361-.45.51-.62l-.115.132zM43.239 5.892c.778-.03 1.5.027 2.04.097-.313.4-.864.864-1.557 1.298-.545.34-1.077.45-1.52.41-.248-.023-.466-.09-.635-.189-.099-.735.043-.92.235-1.085.336-.289.823-.507 1.437-.531z"/>
        </g>
    </g>
</svg>
