<?xml version="1.0" encoding="UTF-8"?>
<svg width="247px" height="326px" viewBox="0 0 247 326" version="1.1" xmlns="http://www.w3.org/2000/svg" xmlns:xlink="http://www.w3.org/1999/xlink">
    <defs>
        <path d="M2,0 L222,0 C223.104569,-2.02906125e-16 224,0.8954305 224,2 L224,302 C224,303.104569 223.104569,304 222,304 L2,304 C0.8954305,304 1.3527075e-16,303.104569 0,302 L0,2 C-1.3527075e-16,0.8954305 0.8954305,2.02906125e-16 2,0 Z" id="path-1"></path>
    </defs>
    <g id="draft" stroke="none" stroke-width="1" fill="none" fill-rule="evenodd">
        <g id="Group">
            <rect id="Rectangle" fill="#FFFFFF" x="0" y="0" width="247" height="326" rx="2"></rect>
            <g transform="translate(10.000000, 13.000000)">
                <mask id="mask-2" fill="white">
                    <use xlink:href="#path-1"></use>
                </mask>
                <use id="Mask" fill="#FFFFFF" xlink:href="#path-1"></use>
                <g id="Oval-2" mask="url(#mask-2)" stroke="#1F2A3B" stroke-width="0.5">
                    <g transform="translate(11.703545, 17.998716)" id="Oval">
                        <ellipse cx="13.2287582" cy="12.8656929" rx="12.9787582" ry="12.6156929"></ellipse>
                    </g>
                </g>
                <ellipse id="Oval" fill="#D6DFFF" mask="url(#mask-2)" cx="28.6361656" cy="33.4927548" rx="13.2287582" ry="12.8656929"></ellipse>
                <g id="stars" mask="url(#mask-2)">
                    <g transform="translate(14.723232, 4.402135)" id="Group">
                        <g transform="translate(0.000000, 0.858209)">
                            <ellipse id="Accent-1" fill="#8DA4FA" fill-rule="nonzero" cx="193.204148" cy="136.743725" rx="1.16622222" ry="1.14293973"></ellipse>
                            <path d="M47.8151111,92.1690753 C47.8151111,92.6950988 47.3799982,93.1215251 46.8432593,93.1215251 C46.3065203,93.1215251 45.8714074,92.6950988 45.8714074,92.1690753 C45.8714074,91.6430518 46.3065203,91.2166256 46.8432593,91.2166256 C47.3799982,91.2166256 47.8151111,91.6430518 47.8151111,92.1690753 L47.8151111,92.1690753 Z" id="Accent-1" fill="#D6DFFF" fill-rule="nonzero"></path>
                            <path d="M35.0088646,66.1565697 C34.9580558,66.1297383 34.916312,66.0892559 34.8886446,66.0399824 L34.4632507,65.2642286 C34.4117764,65.1748689 34.314486,65.1195016 34.2089392,65.1195016 C34.1033923,65.1195016 34.006102,65.1748689 33.9546276,65.2642286 L33.52461,66.0399824 C33.5001072,66.089955 33.4595434,66.1308666 33.4090138,66.1565697 L32.6090884,66.6049822 C32.5169444,66.6549011 32.4598519,66.7492517 32.4598519,66.8516092 C32.4598519,66.9539666 32.5169444,67.0483172 32.6090884,67.0982361 L33.4090138,67.5107756 C33.4595434,67.5364787 33.5001072,67.5773903 33.52461,67.6273629 L33.9546276,68.3986325 C34.003981,68.4906163 34.1020174,68.5483208 34.2089392,68.5483208 C34.3158609,68.5483208 34.4138974,68.4906163 34.4632507,68.3986325 L34.8886446,67.6273629 C34.916312,67.5780894 34.9580558,67.537607 35.0088646,67.5107756 L35.8041661,67.0982361 C35.899016,67.0503741 35.9585185,66.9553 35.9585185,66.8516092 C35.9585185,66.7479183 35.899016,66.6528442 35.8041661,66.6049822 L35.0088646,66.1565697 Z" id="Accent-1" fill="#9EB1FF" fill-rule="nonzero"></path>
                            <path d="M171.126273,2.77103478 L169.621187,1.97805022 C169.526713,1.92770135 169.449155,1.85144788 169.397944,1.75856343 L168.59139,0.278797607 C168.497107,0.107054571 168.314602,0 168.1161,0 C167.917598,0 167.735093,0.107054571 167.640809,0.278797607 L166.834256,1.75856343 C166.783045,1.85144788 166.705487,1.92770135 166.611013,1.97805022 L165.105926,2.77103478 C164.931245,2.86373185 164.822358,3.04316671 164.822358,3.23832925 C164.822358,3.43349179 164.931245,3.61292665 165.105926,3.70562372 L166.611013,4.49860827 C166.705487,4.54895715 166.783045,4.62521062 166.834256,4.71809507 L167.640809,6.19786089 C167.735093,6.36960392 167.917598,6.4766585 168.1161,6.4766585 C168.314602,6.4766585 168.497107,6.36960392 168.59139,6.19786089 L169.397944,4.71809507 C169.449155,4.62521062 169.526713,4.54895715 169.621187,4.49860827 L171.126273,3.72686438 C171.312604,3.63813873 171.430951,3.45250017 171.430951,3.24894958 C171.430951,3.04539898 171.312604,2.85976043 171.126273,2.77103478 L171.126273,2.77103478 Z" id="Accent-1" fill="#9EB1FF" fill-rule="nonzero"></path>
                            <path d="M4.09220709,113.199832 L3.11146051,112.696603 C3.04897587,112.664721 2.99725451,112.615781 2.96255134,112.555699 L2.44907146,111.594532 C2.38929231,111.480359 2.26935736,111.408561 2.13841613,111.408561 C2.0074749,111.408561 1.88753994,111.480359 1.8277608,111.594532 L1.31428091,112.555699 C1.28305454,112.616591 1.23263847,112.666 1.17050655,112.696603 L0.189759967,113.199832 C0.0732607852,113.258418 0,113.375958 0,113.504286 C0,113.632613 0.0732607852,113.750153 0.189759967,113.808739 L1.17050655,114.311968 C1.2304459,114.345465 1.28010145,114.394129 1.31428091,114.452872 L1.8277608,115.419071 C1.88996515,115.530238 2.00904852,115.59934 2.13841613,115.59934 C2.26778373,115.59934 2.3868671,115.530238 2.44907146,115.419071 L2.96255134,114.452872 C3.00009607,114.395005 3.05113446,114.346711 3.11146051,114.311968 L4.09220709,113.808739 C4.2056381,113.747777 4.27614815,113.631071 4.27614815,113.504286 C4.27614815,113.377501 4.2056381,113.260795 4.09220709,113.199832 L4.09220709,113.199832 Z" id="Accent-1" fill="#9EB1FF" fill-rule="nonzero"></path>
                            <path d="M168.015372,95.2137743 L167.393819,94.8847476 C167.353285,94.8672773 167.320908,94.8355466 167.303082,94.7958214 L166.967352,94.1866773 C166.927074,94.1170236 166.851691,94.0739749 166.769998,94.0739749 C166.688305,94.0739749 166.612922,94.1170236 166.572644,94.1866773 L166.241451,94.7958214 C166.221005,94.8337223 166.189387,94.8647099 166.150714,94.8847476 L165.529161,95.2137743 C165.455453,95.2512302 165.409185,95.3258188 165.409185,95.4071887 C165.409185,95.4885586 165.455453,95.5631472 165.529161,95.6006031 L166.150714,95.9251836 C166.187348,95.9478226 166.218351,95.9782066 166.241451,96.0141097 L166.572644,96.6232538 C166.610863,96.6954904 166.686971,96.7408343 166.769998,96.7408343 C166.853026,96.7408343 166.929134,96.6954904 166.967352,96.6232538 L167.303082,96.0141097 C167.323527,95.9762089 167.355146,95.9452212 167.393819,95.9251836 L168.015372,95.6006031 C168.086445,95.5611285 168.13037,95.4872505 168.13037,95.4071887 C168.13037,95.327127 168.086445,95.2532489 168.015372,95.2137743 Z" id="Accent-1" fill="#9EB1FF" fill-rule="nonzero"></path>
                        </g>
                        <g transform="translate(1.185185, 0.000000)">
                            <ellipse id="Outline-1" stroke="#1F2A3B" stroke-width="0.5" fill-rule="nonzero" cx="192.021419" cy="137.59482" rx="1.16376618" ry="1.15005341"></ellipse>
                            <path d="M47.7144132,92.9344128 C47.7144132,93.4637103 47.2802167,93.8927906 46.7446081,93.8927906 C46.2089995,93.8927906 45.7748029,93.4637103 45.7748029,92.9344128 C45.7748029,92.4051153 46.2089995,91.9760349 46.7446081,91.9760349 C47.2802167,91.9760349 47.7144132,92.4051153 47.7144132,92.9344128 L47.7144132,92.9344128 Z" id="Outline-1" stroke="#1F2A3B" stroke-width="0.5" fill-rule="nonzero"></path>
                            <path d="M34.9351364,66.5683293 C34.8844346,66.5413309 34.8427788,66.5005965 34.8151696,66.4510164 L34.3906716,65.6704343 C34.3393057,65.5805184 34.2422202,65.5248065 34.1368957,65.5248065 C34.0315711,65.5248065 33.9344856,65.5805184 33.8831197,65.6704343 L33.4540076,66.4510164 C33.4295564,66.5013 33.3890781,66.5424662 33.3386549,66.5683293 L32.5404142,67.0195328 C32.4484642,67.0697624 32.3914919,67.1647001 32.3914919,67.2676947 C32.3914919,67.3706893 32.4484642,67.465627 32.5404142,67.5158566 L33.3386549,67.9309638 C33.3890781,67.9568269 33.4295564,67.9979931 33.4540076,68.0482768 L33.8831197,68.8243468 C33.9323691,68.9169031 34.0301991,68.9749667 34.1368957,68.9749667 C34.2435922,68.9749667 34.3414223,68.9169031 34.3906716,68.8243468 L34.8151696,68.0482768 C34.8427788,67.9986966 34.8844346,67.9579622 34.9351364,67.9309638 L35.7287631,67.5158566 C35.8234132,67.4676967 35.8827904,67.3720309 35.8827904,67.2676947 C35.8827904,67.1633585 35.8234132,67.0676926 35.7287631,67.0195328 L34.9351364,66.5683293 Z" id="Outline-1" stroke="#414D86" stroke-width="0.5" fill-rule="nonzero"></path>
                            <path d="M170.765884,2.78828175 L169.263967,1.99036164 C169.169692,1.93969939 169.092297,1.86297132 169.041195,1.76950876 L168.23634,0.280532848 C168.142255,0.107720881 167.960134,0 167.76205,0 C167.563966,0 167.381845,0.107720881 167.28776,0.280532848 L166.482905,1.76950876 C166.431803,1.86297132 166.354408,1.93969939 166.260133,1.99036164 L164.758216,2.78828175 C164.583902,2.88155576 164.475245,3.06210743 164.475245,3.25848466 C164.475245,3.4548619 164.583902,3.63541356 164.758216,3.72868758 L166.260133,4.52660769 C166.354408,4.57726994 166.431803,4.65399801 166.482905,4.74746057 L167.28776,6.23643648 C167.381845,6.40924845 167.563966,6.51696933 167.76205,6.51696933 C167.960134,6.51696933 168.142255,6.40924845 168.23634,6.23643648 L169.041195,4.74746057 C169.092297,4.65399801 169.169692,4.57726994 169.263967,4.52660769 L170.765884,3.75006044 C170.951822,3.66078256 171.06992,3.47398859 171.06992,3.26917109 C171.06992,3.06435359 170.951822,2.87755962 170.765884,2.78828175 L170.765884,2.78828175 Z" id="Outline-1" stroke="#414D86" stroke-width="0.5" fill-rule="nonzero"></path>
                            <path d="M4.08358896,113.90439 L3.10490782,113.398029 C3.04255477,113.365949 2.99094233,113.316703 2.95631225,113.256248 L2.44391375,112.289099 C2.3842605,112.174215 2.26457812,112.10197 2.13391266,112.10197 C2.00324719,112.10197 1.88356481,112.174215 1.82391156,112.289099 L1.31151306,113.256248 C1.28035245,113.317518 1.23004255,113.367236 1.16804148,113.398029 L0.189360335,113.90439 C0.0731064991,113.96334 0,114.081612 0,114.210738 C0,114.339864 0.0731064991,114.458136 0.189360335,114.517087 L1.16804148,115.023447 C1.2278546,115.057153 1.27740558,115.10612 1.31151306,115.165228 L1.82391156,116.137441 C1.88598491,116.2493 2.0048175,116.318832 2.13391266,116.318832 C2.26300781,116.318832 2.3818404,116.2493 2.44391375,116.137441 L2.95631225,115.165228 C2.99377791,115.107002 3.04470881,115.058406 3.10490782,115.023447 L4.08358896,114.517087 C4.19678109,114.455745 4.26714264,114.338312 4.26714264,114.210738 C4.26714264,114.083164 4.19678109,113.965732 4.08358896,113.90439 L4.08358896,113.90439 Z" id="Outline-1" stroke="#414D86" stroke-width="0.5" fill-rule="nonzero"></path>
                            <path d="M167.661534,95.8063865 L167.04129,95.4753119 C167.000841,95.4577328 166.968533,95.4258047 166.950744,95.3858322 L166.615722,94.7728968 C166.575528,94.7028095 166.500304,94.6594929 166.418783,94.6594929 C166.337262,94.6594929 166.262038,94.7028095 166.221844,94.7728968 L165.891349,95.3858322 C165.870947,95.423969 165.839394,95.4551495 165.800803,95.4753119 L165.180559,95.8063865 C165.107006,95.8440755 165.060836,95.9191283 165.060836,96.0010047 C165.060836,96.082881 165.107006,96.1579339 165.180559,96.1956229 L165.800803,96.5222235 C165.83736,96.5450035 165.868298,96.5755766 165.891349,96.6117031 L166.221844,97.2246386 C166.259983,97.2973248 166.33593,97.3429509 166.418783,97.3429509 C166.501636,97.3429509 166.577583,97.2973248 166.615722,97.2246386 L166.950744,96.6117031 C166.971147,96.5735664 167.002699,96.5423859 167.04129,96.5222235 L167.661534,96.1956229 C167.732457,96.1559026 167.77629,96.0815647 167.77629,96.0010047 C167.77629,95.9204446 167.732457,95.8461068 167.661534,95.8063865 Z" id="Outline-1" stroke="#414D86" stroke-width="0.5" fill-rule="nonzero"></path>
                            <path d="M105.53808,41.0052661 L104.209769,40.3007725 C104.126927,40.2611273 104.060055,40.1949222 104.02001,40.1129076 L103.308414,38.7978529 C103.222844,38.6465433 103.06136,38.5528287 102.886201,38.5528287 C102.711042,38.5528287 102.549558,38.6465433 102.463988,38.7978529 L101.752392,40.1129076 C101.708736,40.195581 101.638681,40.2616341 101.553146,40.3007725 L100.224834,41.0052661 C100.071999,41.089982 99.9773399,41.2498546 99.9773399,41.4232656 C99.9773399,41.5966766 100.071999,41.7565492 100.224834,41.8412651 L101.553146,42.5457587 C101.637192,42.5913691 101.706322,42.6598091 101.752392,42.7430169 L102.463988,44.0580715 C102.549558,44.2093811 102.711042,44.3030958 102.886201,44.3030958 C103.06136,44.3030958 103.222844,44.2093811 103.308414,44.0580715 L104.02001,42.7430169 C104.062649,42.6604702 104.128568,42.5919468 104.209769,42.5457587 L105.53808,41.8412651 C105.696513,41.7609078 105.796171,41.5995031 105.796171,41.4232656 C105.796171,41.2470281 105.696513,41.0856234 105.53808,41.0052661 Z" id="Outline-1" stroke="#1F2A3B" stroke-width="0.5" fill-rule="nonzero"></path>
                            <path d="M107.13557,41.3483469 L105.807259,40.6438534 C105.724417,40.6042081 105.657545,40.5380031 105.6175,40.4559884 L104.905904,39.1409338 C104.820334,38.9896242 104.65885,38.8959095 104.483691,38.8959095 C104.308532,38.8959095 104.147048,38.9896242 104.061478,39.1409338 L103.349882,40.4559884 C103.306226,40.5386618 103.236171,40.6047149 103.150636,40.6438534 L101.822324,41.3483469 C101.669489,41.4330628 101.57483,41.5929354 101.57483,41.7663464 C101.57483,41.9397575 101.669489,42.0996301 101.822324,42.184346 L103.150636,42.8888395 C103.234682,42.9344499 103.303812,43.0028899 103.349882,43.0860977 L104.061478,44.4011524 C104.147048,44.552462 104.308532,44.6461766 104.483691,44.6461766 C104.65885,44.6461766 104.820334,44.552462 104.905904,44.4011524 L105.6175,43.0860977 C105.660139,43.003551 105.726058,42.9350276 105.807259,42.8888395 L107.13557,42.184346 C107.294003,42.1039886 107.393661,41.9425839 107.393661,41.7663464 C107.393661,41.590109 107.294003,41.4287043 107.13557,41.3483469 Z" id="Accent-1" fill="#9EB1FF" fill-rule="nonzero"></path>
                        </g>
                    </g>
                </g>
                <g mask="url(#mask-2)" id="Combined-Shape-Copy" stroke="#1F2A3B" stroke-width="0.4">
                    <g transform="translate(49.303545, 233.537088)">
                        <path d="M100.283803,0.252313549 L171.22601,54.4791946 L0.613011136,54.4791946 L50.4476238,18.0875916 L62.8100991,29.2535604 L100.283803,0.252313549 Z" transform="translate(85.908497, 27.339597) scale(-1, 1) translate(-85.908497, -27.339597) "></path>
                    </g>
                </g>
                <g mask="url(#mask-2)" fill="#D6DFFF" id="Combined-Shape-Copy">
                    <g transform="translate(0.503545, 243.537088)">
                        <path d="M0,54.6791946 L50.4610022,17.8301722 L62.82,28.993 L100.283048,0 L171.816993,54.6791946 L0,54.6791946 Z" transform="translate(85.908497, 27.339597) scale(-1, 1) translate(-85.908497, -27.339597) "></path>
                    </g>
                </g>
            </g>
            <g id="Group-7" transform="translate(133.500000, 148.000000) scale(-1, -1) translate(-133.500000, -148.000000) translate(122.000000, 86.000000)"></g>
            <text id="?" font-family="Montserrat-ExtraLight, Montserrat" font-size="100" font-weight="300" letter-spacing="2.77777778" fill="#FF7165">
                <tspan x="99" y="213">?</tspan>
            </text>
        </g>
    </g>
</svg>
