<svg width="381" height="380" viewBox="0 0 381 380" fill="none" xmlns="http://www.w3.org/2000/svg">
<path fill-rule="evenodd" clip-rule="evenodd" d="M308.719 107.866V282.661C308.719 283.213 308.271 283.661 307.719 283.661H74.9701C74.4179 283.661 73.9701 283.213 73.9701 282.661V107.866C73.9701 107.314 74.4179 106.866 74.9701 106.866L307.719 106.866C308.271 106.866 308.719 107.314 308.719 107.866Z" stroke="black" stroke-width="1.5"/>
<path d="M327.045 107.05L225.567 76.0254L203.276 148.937L304.754 179.962L327.045 107.05Z" fill="#879DEF"/>
<path d="M325.596 94.1034L217.096 60.9316L192.766 140.51L301.266 173.682L325.596 94.1034Z" stroke="black" stroke-width="1.5"/>
<path d="M259.675 96.103C263.467 97.2625 265.612 101.331 264.445 105.149C263.277 108.968 259.224 111.141 255.432 109.982C251.639 108.822 249.494 104.754 250.662 100.935C251.829 97.1167 255.882 94.9436 259.675 96.103ZM258.826 98.8788C256.53 98.1769 254.125 99.4664 253.418 101.778C252.711 104.09 253.984 106.504 256.28 107.206C258.576 107.908 260.981 106.618 261.688 104.307C262.395 101.995 261.122 99.5807 258.826 98.8788Z" fill="black"/>
<path d="M265.991 116.257C265.724 116.205 265.441 116.244 265.201 116.365L250.677 123.843L247.234 118.287C247.05 117.986 246.725 117.77 246.373 117.713C246.134 117.675 245.884 117.708 245.667 117.808L224.82 127.585C224.243 127.854 223.978 128.619 224.265 129.186C224.553 129.754 225.34 130.02 225.914 129.744L245.778 120.443L253.732 133.279C253.993 133.927 254.899 134.234 255.502 133.88C256.105 133.525 256.243 132.603 255.773 132.078L251.96 125.905L265.348 119.011L282.287 148.221C282.608 148.771 283.41 148.991 283.966 148.681C284.521 148.371 284.729 147.589 284.401 147.043L266.852 116.831C266.668 116.53 266.343 116.314 265.991 116.257Z" fill="black"/>
<path d="M156.976 135.411L101.297 144.229L107.757 185.02L163.437 176.201L156.976 135.411Z" fill="#879DEF"/>
<path d="M152.956 129.838L94.1182 139.157L101.062 182.998L159.9 173.679L152.956 129.838Z" stroke="black" stroke-width="1.5"/>
<path d="M122.273 145.968C124.354 145.639 126.331 147.115 126.67 149.252C127.008 151.388 125.584 153.403 123.503 153.733C121.422 154.062 119.445 152.586 119.107 150.45C118.769 148.313 120.193 146.298 122.273 145.968ZM122.519 147.521C121.26 147.721 120.415 148.917 120.62 150.21C120.824 151.503 121.998 152.379 123.257 152.18C124.517 151.98 125.362 150.785 125.157 149.491C124.952 148.198 123.779 147.322 122.519 147.521Z" fill="black"/>
<path d="M130.011 154.3C129.872 154.338 129.746 154.424 129.66 154.539L124.485 161.61L121.54 159.714C121.382 159.611 121.176 159.582 120.995 159.638C120.872 159.675 120.761 159.751 120.68 159.85L113.028 169.532C112.816 169.8 112.869 170.235 113.139 170.444C113.409 170.653 113.847 170.597 114.056 170.327L121.351 161.108L128.154 165.487C128.431 165.742 128.935 165.678 129.139 165.363C129.344 165.048 129.194 164.565 128.846 164.421L125.58 162.312L130.35 155.794L145.278 166.033C145.561 166.225 145.994 166.143 146.187 165.861C146.379 165.579 146.295 165.149 146.011 164.96L130.556 154.377C130.398 154.274 130.193 154.245 130.011 154.3Z" fill="black"/>
<path d="M243.086 192.976C258.587 192.976 271.197 205.581 271.197 221.074C271.197 236.568 258.587 249.173 243.086 249.173C227.586 249.173 214.976 236.568 214.976 221.074C214.976 205.581 227.586 192.976 243.086 192.976ZM233.622 229.026C233.354 229.026 233.085 229.047 232.815 229.09C231.473 229.303 230.295 230.024 229.497 231.123C228.698 232.222 228.375 233.565 228.588 234.906C228.8 236.247 229.523 237.425 230.622 238.224C231.72 239.021 233.064 239.348 234.406 239.132C235.748 238.919 236.927 238.197 237.725 237.099C239.373 234.831 238.869 231.646 236.6 229.998C235.722 229.361 234.687 229.026 233.622 229.026ZM252.551 229.026C251.486 229.026 250.451 229.361 249.573 229.998C248.473 230.797 247.751 231.975 247.539 233.316C247.326 234.657 247.649 236 248.447 237.099C249.246 238.197 250.425 238.919 251.766 239.132C253.107 239.347 254.452 239.021 255.551 238.224C256.65 237.425 257.372 236.247 257.585 234.906C257.797 233.565 257.475 232.222 256.676 231.123C255.878 230.025 254.699 229.303 253.357 229.09C253.088 229.047 252.818 229.026 252.551 229.026ZM242.987 217.737C241.102 217.737 239.568 219.27 239.568 221.155C239.568 223.04 241.102 224.573 242.987 224.573C244.872 224.573 246.406 223.04 246.406 221.155C246.406 219.27 244.872 217.737 242.987 217.737ZM263.255 214.523C262.389 211.859 259.512 210.394 256.847 211.26C254.18 212.126 252.715 215 253.582 217.666C254.001 218.957 254.899 220.008 256.11 220.624C257.32 221.242 258.697 221.349 259.99 220.93C261.281 220.51 262.333 219.613 262.949 218.403C263.566 217.193 263.674 215.815 263.255 214.523ZM229.326 211.26C226.658 210.392 223.783 211.858 222.918 214.523C222.498 215.815 222.606 217.193 223.223 218.403C223.84 219.613 224.891 220.51 226.183 220.93C228.849 221.796 231.725 220.331 232.591 217.666C233.458 215 231.993 212.126 229.326 211.26ZM243.086 199.877C240.282 199.877 238.001 202.158 238.001 204.961C238.001 207.764 240.282 210.044 243.086 210.044C245.891 210.044 248.172 207.764 248.172 204.961C248.172 202.158 245.891 199.877 243.086 199.877Z" fill="#879DEF"/>
<path d="M241.212 204.215C243.279 204.215 244.96 205.896 244.96 207.962C244.96 210.027 243.279 211.708 241.212 211.708C239.145 211.708 237.464 210.027 237.464 207.962C237.464 205.896 239.145 204.215 241.212 204.215Z" fill="black"/>
<path d="M228.811 219.017C227.859 218.708 227.084 218.047 226.63 217.156C226.176 216.264 226.096 215.249 226.405 214.297C227.043 212.333 229.161 211.253 231.127 211.892C233.091 212.53 234.171 214.648 233.532 216.613C232.894 218.576 230.775 219.656 228.811 219.017Z" fill="black"/>
<path d="M236.749 236.388C236.161 237.197 235.292 237.729 234.303 237.886C233.314 238.045 232.324 237.804 231.514 237.217C230.704 236.629 230.171 235.76 230.015 234.772C229.858 233.784 230.096 232.795 230.685 231.986C231.273 231.176 232.142 230.644 233.131 230.488C233.329 230.456 233.528 230.44 233.725 230.44C234.51 230.44 235.273 230.687 235.92 231.156C237.592 232.371 237.964 234.717 236.749 236.388Z" fill="black"/>
<path d="M256.157 234.772C256.001 235.761 255.468 236.629 254.659 237.217C253.849 237.804 252.858 238.044 251.87 237.886C250.881 237.729 250.013 237.197 249.424 236.388C248.836 235.579 248.598 234.589 248.755 233.601C248.912 232.613 249.444 231.745 250.254 231.156C250.901 230.687 251.663 230.44 252.448 230.44C252.645 230.44 252.844 230.456 253.042 230.488C254.031 230.644 254.899 231.176 255.487 231.986C256.076 232.795 256.314 233.784 256.157 234.772Z" fill="black"/>
<path d="M259.767 214.296C260.076 215.248 259.996 216.263 259.542 217.154C259.088 218.045 258.313 218.706 257.361 219.016C256.409 219.325 255.394 219.246 254.502 218.791C253.611 218.337 252.949 217.562 252.64 216.611C252.001 214.647 253.08 212.53 255.046 211.892C257.009 211.253 259.129 212.333 259.767 214.296Z" fill="black"/>
<path d="M243.086 185.482C223.453 185.482 207.479 201.449 207.479 221.074C207.479 236.826 217.774 250.213 231.988 254.886H208.37C207.878 254.886 207.479 255.284 207.479 255.776C207.479 256.268 207.878 256.666 208.37 256.666H242.225C242.259 256.666 242.288 256.65 242.321 256.646C242.577 256.652 242.83 256.666 243.086 256.666C262.72 256.666 278.693 240.699 278.693 221.074C278.693 201.449 262.72 185.482 243.086 185.482ZM243.086 254.886C224.434 254.886 209.26 239.718 209.26 221.074C209.26 202.43 224.434 187.262 243.086 187.262C261.738 187.262 276.913 202.43 276.913 221.074C276.913 239.718 261.738 254.886 243.086 254.886Z" fill="black"/>
<path d="M241.212 226.694C239.145 226.694 237.464 225.014 237.464 222.948C237.464 220.881 239.145 219.201 241.212 219.201C243.279 219.201 244.96 220.881 244.96 222.948C244.96 225.014 243.279 226.694 241.212 226.694Z" fill="black"/>
<path d="M153.539 284.918L109.029 218.852C108.537 218.125 107.677 217.724 106.789 217.808L60.5047 222.198C59.185 222.294 58.1857 223.422 58.2728 224.717C58.2748 224.747 58.2773 224.776 58.2803 224.805L64.6249 301.42C64.7262 302.733 65.8924 303.708 67.2299 303.598C67.2493 303.596 67.269 303.594 67.2883 303.592L152.489 295.228L152.76 295.17C153.992 294.914 154.829 293.778 154.689 292.553L153.933 285.955C153.887 285.583 153.752 285.228 153.539 284.918Z" fill="#879DEF"/>
<path d="M158.289 205.597C157.852 204.298 156.457 203.598 155.174 204.034C155.167 204.036 155.16 204.038 155.153 204.041L135.037 210.885L75.6234 231.097C74.3502 231.525 73.6585 232.909 74.0714 234.204L97.7876 310.378C98.1703 311.604 99.4142 312.338 100.655 312.068L100.929 312.01L182.859 284.443C184.143 284.01 184.832 282.606 184.398 281.305C184.395 281.295 184.391 281.285 184.388 281.275L158.289 205.597Z" fill="white" stroke="#1F2A3B"/>
<path d="M124.759 226.636C123.597 226.885 122.452 226.145 122.203 224.982C122.083 224.422 122.191 223.837 122.504 223.356L130.797 210.59C131.427 209.582 132.755 209.276 133.764 209.906C134.772 210.536 135.078 211.864 134.448 212.872C134.435 212.893 134.422 212.914 134.408 212.935L126.115 225.701C125.805 226.18 125.317 226.516 124.759 226.636Z" fill="#455A64"/>
<path d="M124.759 226.636C123.597 226.885 122.452 226.145 122.203 224.982C122.083 224.422 122.191 223.837 122.504 223.356L130.797 210.59C131.427 209.582 132.755 209.276 133.764 209.906C134.772 210.536 135.078 211.864 134.448 212.872C134.435 212.893 134.422 212.914 134.408 212.935L126.115 225.701C125.805 226.18 125.317 226.516 124.759 226.636Z" fill="#1F2A3B"/>
<path d="M96.2083 257.871L160.72 235.231" stroke="#16192E" stroke-linecap="round"/>
<path d="M136.16 215.735C140.238 214.868 142.842 210.86 141.975 206.782C141.109 202.704 137.1 200.101 133.021 200.968C128.942 201.835 126.338 205.844 127.205 209.922C128.072 213.999 132.081 216.602 136.16 215.735Z" fill="#1F2A3B"/>
<path d="M100.122 269.526L143.423 254.226" stroke="#16192E" stroke-linecap="round"/>
</svg>
