<svg width="215" height="215" xmlns="http://www.w3.org/2000/svg" xmlns:xlink="http://www.w3.org/1999/xlink">
    <defs>
        <path id="a" d="M0 0h190.766v190.766H0z"/>
        <path d="M75.735 81.301c-.024.144-.017.443-.377.755-.103.09-.355.215-.756.377-49.584 0-74.452.005-74.602.013l.59 3.607c.112.68.757 1.23 1.442 1.23h99.862c.684 0 1.15-.55 1.038-1.23L88.862 0V0c-.053-.003-3.786 26.96-13.127 81.301z" id="c"/>
        <path d="M17.915 0H3.171c-.7 0-1.359.567-1.472 1.267L0 11.242h104.192l2.037-9.975c.113-.7-.362-1.267-1.061-1.267H17.915z" id="e"/>
        <path d="M4.631 0C3.24 0 2.17.878 1.956 2.194L.035 14.043c-.214 1.316.572 2.194 1.963 2.194h11.594c1.39 0 2.46-.878 2.674-2.194l1.92-11.849C18.402.878 17.617 0 16.226 0H4.63z" id="g"/>
        <path d="M4.63 0C3.24 0 2.17.878 1.957 2.194L.035 14.043c-.214 1.316.571 2.194 1.963 2.194H13.59c1.391 0 2.461-.878 2.675-2.194l1.921-11.849C18.4.878 17.616 0 16.224 0H4.631z" id="i"/>
        <path d="M4.63 0C3.24 0 2.17.878 1.957 2.194L.035 14.043c-.214 1.316.57 2.194 1.963 2.194H13.59c1.391 0 2.461-.878 2.675-2.194l1.922-11.849C18.4.878 17.616 0 16.224 0H4.631z" id="k"/>
        <path d="M4.63 0C3.24 0 2.17.877 1.957 2.194L.035 14.043c-.214 1.316.571 2.193 1.963 2.193h11.594c1.39 0 2.46-.877 2.674-2.193l1.92-11.85C18.402.878 17.617 0 16.226 0H4.63z" id="m"/>
        <path d="M4.63 0C3.24 0 2.17.878 1.957 2.194L.035 14.043c-.214 1.316.571 2.194 1.962 2.194h11.594c1.391 0 2.461-.878 2.674-2.194l1.922-11.849C18.401.878 17.615 0 16.224 0H4.631z" id="o"/>
        <path d="M4.631 0C3.24 0 2.17.877 1.957 2.194L.035 14.043c-.214 1.316.572 2.193 1.963 2.193h11.594c1.39 0 2.46-.877 2.674-2.193l1.922-11.85C18.401.878 17.616 0 16.224 0H4.631z" id="q"/>
        <path d="M4.631 0C3.24 0 2.17.878 1.957 2.194L.035 14.043c-.214 1.316.572 2.194 1.963 2.194h11.594c1.39 0 2.46-.878 2.675-2.194l1.92-11.849C18.401.878 17.616 0 16.225 0H4.63z" id="s"/>
        <path d="M4.63 0C3.24 0 2.17.878 1.957 2.194L.035 14.043c-.214 1.316.571 2.194 1.963 2.194H13.59c1.392 0 2.462-.878 2.675-2.194l1.921-11.849C18.4.878 17.616 0 16.224 0H4.631z" id="u"/>
        <path d="M4.63 0C3.24 0 2.17.877 1.957 2.194L.035 14.043c-.214 1.316.572 2.193 1.962 2.193h11.595c1.39 0 2.46-.877 2.673-2.193l1.922-11.85C18.4.878 17.615 0 16.225 0H4.63z" id="w"/>
        <path d="M4.631 0C3.24 0 2.17.877 1.956 2.194L.035 14.043c-.214 1.316.571 2.193 1.963 2.193h11.594c1.39 0 2.46-.877 2.674-2.193l1.921-11.85C18.401.878 17.616 0 16.225 0H4.63z" id="y"/>
        <path d="M4.63 0C3.24 0 2.17.878 1.956 2.194L.035 14.043c-.214 1.316.57 2.194 1.962 2.194h11.594c1.39 0 2.46-.878 2.675-2.194l1.921-11.849C18.4.878 17.615 0 16.224 0H4.63z" id="A"/>
        <path d="M4.63 0C3.24 0 2.17.878 1.957 2.194L.035 14.043c-.214 1.316.57 2.194 1.962 2.194h11.594c1.391 0 2.461-.878 2.675-2.194l1.92-11.849C18.402.878 17.617 0 16.225 0H4.631z" id="C"/>
        <path d="M0 2.643a2.643 2.643 0 1 0 5.286 0 2.643 2.643 0 0 0-5.286 0z" id="E"/>
        <path d="M0 2.643a2.643 2.643 0 1 0 5.286 0 2.643 2.643 0 0 0-5.286 0z" id="G"/>
        <path d="M0 2.643a2.643 2.643 0 1 0 5.285 0 2.642 2.642 0 1 0-5.285 0z" id="I"/>
        <path d="M0 2.643a2.643 2.643 0 1 0 5.286 0 2.643 2.643 0 0 0-5.286 0z" id="K"/>
        <path d="M.02 2.158a8.078 8.078 0 0 0 .09 1.91l3.417.24a1.36 1.36 0 0 0 1.447-1.264l.095-1.358c.052-.75-.51-1.4-1.257-1.452L.47 0a8.08 8.08 0 0 0-.45 2.158z" id="M"/>
        <path d="m6.89.01-.38.01-.374.016-.366.018-.358.022-.349.026-.171.014-.337.031-.327.034c-.053.006-.106.013-.16.018l-.312.04-.153.02-.297.045L3.02.35l-.276.051-.265.054c-.086.018-.171.037-.254.057l-.24.06-.117.03-.223.064A7.745 7.745 0 0 1 1.537.7L1.333.77a7.154 7.154 0 0 0-.19.071L.966.914c-.597.264-.94.578-.965.93-.03.438.432.883 1.267 1.3l.2.096c.172.08.358.158.555.235l.244.092.256.09.267.089.277.087.289.085.3.083.154.041.314.08.325.078.334.077.343.074.352.072.361.069.368.067.187.032.381.063.388.06.167.024a8.15 8.15 0 0 0 .409-2.04A8.096 8.096 0 0 0 7.475 0L6.89.01z" id="O"/>
        <path d="m2.64.004-.146.004-.143.006-.14.006-.137.01-.134.009-.066.005-.128.012L1.62.07 1.56.076l-.12.015L1.38.1l-.113.017-.11.018-.106.019-.101.02-.097.022L.76.22.716.231.63.255C.616.26.603.265.59.268L.51.295C.486.303.461.312.438.322L.37.35C.142.45.01.57 0 .707c-.01.167.166.337.487.498l.076.036c.066.03.137.06.212.09l.094.035.098.035.102.034.107.033.11.033.115.032.06.015.12.031.124.03.128.03.131.028.135.028.138.026.142.026.071.011.146.025.148.023.065.01c.083-.248.137-.51.156-.783A3.084 3.084 0 0 0 2.864 0L2.64.004z" id="Q"/>
        <path d="m2.64.004-.146.004-.143.006-.14.006-.137.01-.134.009-.066.005-.128.012L1.62.07 1.56.076l-.12.015L1.38.1l-.113.017-.11.018-.106.019-.101.02-.097.022L.76.22.716.231.63.255C.616.26.603.265.59.268L.51.295C.486.303.461.312.438.322L.37.35C.142.45.01.57 0 .707c-.01.167.166.337.487.498l.076.036c.066.03.137.06.212.09l.094.035.098.035.102.034.107.033.11.033.115.032.06.015.12.031.124.03.128.03.131.028.135.028.138.026.142.026.071.011.146.025.148.023.065.01c.083-.248.137-.51.156-.783A3.084 3.084 0 0 0 2.864 0L2.64.004z" id="S"/>
        <path d="M.065 3.262C.01 3.968-.01 4.974.004 6.281l.48.045.94.074.95.071 1.432.102c-.06-1.29-.066-2.308-.015-3.051.051-.742.201-1.838.45-3.285L3.3.171 2.356.11l-.937-.06L.48 0C.258 1.468.12 2.555.066 3.262z" id="U"/>
    </defs>
    <g fill="none" fill-rule="evenodd">
        <g transform="translate(11.882 11.882)">
            <mask id="b" fill="#fff">
                <use xlink:href="#a"/>
            </mask>
            <path d="M190.766 95.383c0 52.678-42.705 95.383-95.383 95.383S0 148.061 0 95.383 42.705 0 95.383 0s95.383 42.705 95.383 95.383" fill="#E9EBF2" mask="url(#b)"/>
        </g>
        <path d="M162.168 62.488h-14.435 12.737c-.685 0 13.922 89.335 14.606 89.335h1.699c.685 0 1.15-.55 1.04-1.23L163.61 63.718c-.11-.679-.756-1.23-1.442-1.23" fill="#FCFCFC"/>
        <path d="M162.168 62.488h-14.435 12.737c-.685 0 13.922 89.335 14.606 89.335h1.699c.685 0 1.15-.55 1.04-1.23L163.61 63.718c-.11-.679-.756-1.23-1.442-1.23z" stroke="#000"/>
        <g transform="translate(72.981 72.091)">
            <mask id="d" fill="#fff">
                <use xlink:href="#c"/>
            </mask>
            <path fill="#6565B7" mask="url(#d)" d="M-16.316 82.793H103.8V-.936H-16.316z"/>
        </g>
        <path d="M147.584 149.945c-49.585 0-74.453.004-74.603.012.132.757.329 1.892.59 3.406.111.642.757 1.163 1.442 1.163h99.861c.686 0 1.15-.521 1.04-1.163l-14.07-81.271c-.03-.172-3.757 25.292-13.128 76.784-.025.135-.017.418-.377.713-.103.084-.355.203-.755.356z" stroke="#000"/>
        <g transform="translate(59.811 60.18)">
            <mask id="f" fill="#fff">
                <use xlink:href="#e"/>
            </mask>
            <path fill="#FF6E61" mask="url(#f)" d="M-1.82 11.997h107.864V-.755H-1.82z"/>
        </g>
        <path d="M58.29 62.488h103.842c.712 0 1.196.567 1.08 1.267l-14.77 89.477c-.116.7-.787 1.267-1.5 1.267H48.477c-.712 0-4.45-.567-4.334-1.267L56.79 63.755c.115-.7.786-1.267 1.498-1.267z" stroke="#000"/>
        <path d="m55.232 73.73 15.585.093h89.034l1.702-.093-13.111 87.992c-.116.774-.789 1.402-1.503 1.402H42.859c-.714 0-1.199-.628-1.083-1.402l13.071-87.574.385-.418z" fill="#FCFCFC"/>
        <path d="m55.096 73.73 15.604.091h89.15l1.703-.091-13.128 86.321c-.116.76-.79 1.376-1.505 1.376H42.707c-.715 0-1.2-.616-1.084-1.376L54.71 74.14l.386-.41z" stroke="#000"/>
        <g transform="translate(58.746 79.808)">
            <mask id="h" fill="#fff">
                <use xlink:href="#g"/>
            </mask>
            <path d="M.035 14.043 1.956 2.194C2.17.877 3.24 0 4.631 0h11.593c1.392 0 2.177.877 1.963 2.194l-1.921 11.849c-.214 1.316-1.284 2.194-2.675 2.194H1.998c-1.392 0-2.176-.878-1.963-2.194z" stroke="#000" stroke-width="2" mask="url(#h)"/>
        </g>
        <g transform="translate(54.71 104.705)">
            <mask id="j" fill="#fff">
                <use xlink:href="#i"/>
            </mask>
            <path d="M.035 14.043 1.956 2.194C2.17.878 3.24 0 4.631 0h11.593c1.391 0 2.177.878 1.963 2.194l-1.922 11.85c-.213 1.316-1.283 2.193-2.674 2.193H1.997c-1.39 0-2.176-.877-1.962-2.194z" stroke="#000" stroke-width="2" mask="url(#j)"/>
        </g>
        <g transform="translate(79.419 104.705)">
            <mask id="l" fill="#fff">
                <use xlink:href="#k"/>
            </mask>
            <path d="M.035 14.043 1.956 2.194C2.169.878 3.24 0 4.631 0h11.593c1.391 0 2.177.878 1.963 2.194l-1.921 11.85c-.213 1.316-1.284 2.193-2.675 2.193H1.998c-1.391 0-2.177-.877-1.963-2.194z" stroke="#000" stroke-width="2" mask="url(#l)"/>
        </g>
        <g transform="translate(50.672 129.603)">
            <mask id="n" fill="#fff">
                <use xlink:href="#m"/>
            </mask>
            <path d="m.035 14.043 1.921-11.85C2.169.878 3.239 0 4.631 0h11.593c1.391 0 2.177.877 1.963 2.194l-1.922 11.849c-.213 1.316-1.283 2.194-2.674 2.194H1.997c-1.39 0-2.176-.878-1.962-2.194z" stroke="#000" stroke-width="2" mask="url(#n)"/>
        </g>
        <g transform="translate(83.634 79.808)">
            <mask id="p" fill="#fff">
                <use xlink:href="#o"/>
            </mask>
            <path d="M.035 14.043 1.956 2.194C2.17.877 3.24 0 4.631 0h11.593c1.392 0 2.177.877 1.963 2.194l-1.921 11.849c-.214 1.316-1.284 2.194-2.675 2.194H1.998c-1.392 0-2.177-.878-1.963-2.194z" stroke="#000" stroke-width="2" mask="url(#p)"/>
        </g>
        <g transform="translate(75.56 129.603)">
            <mask id="r" fill="#fff">
                <use xlink:href="#q"/>
            </mask>
            <path d="m.035 14.043 1.921-11.85C2.17.878 3.24 0 4.631 0h11.594c1.39 0 2.176.877 1.962 2.194l-1.921 11.849c-.213 1.316-1.283 2.194-2.675 2.194H1.998c-1.391 0-2.176-.878-1.963-2.194z" stroke="#000" stroke-width="2" mask="url(#r)"/>
        </g>
        <g transform="translate(108.521 79.808)">
            <mask id="t" fill="#fff">
                <use xlink:href="#s"/>
            </mask>
            <path d="M.035 14.043 1.956 2.194C2.17.877 3.24 0 4.631 0h11.593c1.392 0 2.177.877 1.964 2.194l-1.922 11.849c-.213 1.316-1.283 2.194-2.675 2.194H1.998c-1.391 0-2.176-.878-1.963-2.194z" stroke="#000" stroke-width="2" mask="url(#t)"/>
        </g>
        <g transform="translate(104.484 104.705)">
            <mask id="v" fill="#fff">
                <use xlink:href="#u"/>
            </mask>
            <path d="M.035 14.043 1.956 2.194C2.17.878 3.24 0 4.631 0h11.593c1.391 0 2.177.878 1.964 2.194l-1.922 11.85c-.213 1.316-1.284 2.193-2.675 2.193H1.998c-1.391 0-2.177-.877-1.963-2.194z" stroke="#000" stroke-width="2" mask="url(#v)"/>
        </g>
        <g transform="translate(100.447 129.603)">
            <mask id="x" fill="#fff">
                <use xlink:href="#w"/>
            </mask>
            <path d="m.035 14.043 1.921-11.85C2.17.878 3.24 0 4.631 0h11.593c1.391 0 2.177.877 1.963 2.194l-1.922 11.849c-.212 1.316-1.283 2.194-2.674 2.194H1.997c-1.39 0-2.176-.878-1.962-2.194z" stroke="#000" stroke-width="2" mask="url(#x)"/>
        </g>
        <g transform="translate(125.157 129.603)">
            <mask id="z" fill="#fff">
                <use xlink:href="#y"/>
            </mask>
            <path d="m.035 14.043 1.921-11.85C2.17.878 3.24 0 4.631 0h11.593c1.392 0 2.177.877 1.963 2.194l-1.921 11.849c-.214 1.316-1.283 2.194-2.675 2.194H1.998c-1.392 0-2.176-.878-1.963-2.194z" stroke="#000" stroke-width="2" mask="url(#z)"/>
        </g>
        <g transform="translate(133.41 79.808)">
            <mask id="B" fill="#fff">
                <use xlink:href="#A"/>
            </mask>
            <path d="M.034 14.043 1.956 2.194C2.169.877 3.239 0 4.63 0h11.594c1.391 0 2.177.877 1.963 2.194l-1.922 11.849c-.213 1.316-1.283 2.194-2.674 2.194H1.997c-1.391 0-2.176-.878-1.963-2.194z" stroke="#000" stroke-width="2" mask="url(#B)"/>
        </g>
        <g transform="translate(129.372 104.705)">
            <mask id="D" fill="#fff">
                <use xlink:href="#C"/>
            </mask>
            <path d="M.034 14.043 1.956 2.194C2.169.878 3.239 0 4.63 0h11.594c1.391 0 2.177.878 1.963 2.194l-1.922 11.85c-.213 1.316-1.283 2.193-2.674 2.193H1.997c-1.391 0-2.176-.877-1.963-2.194z" stroke="#000" stroke-width="2" mask="url(#D)"/>
        </g>
        <path stroke="#6F7CBD" d="M56.795 73.76h104.54"/>
        <g transform="translate(71.697 65.8)">
            <mask id="F" fill="#fff">
                <use xlink:href="#E"/>
            </mask>
            <path d="M2.643 5.286a2.643 2.643 0 1 0 0-5.285 2.643 2.643 0 0 0 0 5.285z" stroke="#6F7CBD" stroke-width="2" mask="url(#F)"/>
        </g>
        <path d="M80.002 62.026a6.041 6.041 0 1 0-6.04 6.04" stroke="#6F7CBD"/>
        <g transform="translate(95.86 65.8)">
            <mask id="H" fill="#fff">
                <use xlink:href="#G"/>
            </mask>
            <path d="M2.643 5.286a2.643 2.643 0 1 0 0-5.285 2.643 2.643 0 0 0 0 5.285z" stroke="#6F7CBD" stroke-width="2" mask="url(#H)"/>
        </g>
        <path d="M104.166 62.026a6.041 6.041 0 1 0-6.041 6.04" stroke="#6F7CBD"/>
        <g transform="translate(120.023 65.8)">
            <mask id="J" fill="#fff">
                <use xlink:href="#I"/>
            </mask>
            <path d="M2.642 5.286a2.643 2.643 0 1 0 0-5.285 2.643 2.643 0 0 0 0 5.285z" stroke="#6F7CBD" stroke-width="2" mask="url(#J)"/>
        </g>
        <path d="M128.329 62.026a6.041 6.041 0 1 0-6.041 6.04" stroke="#6F7CBD"/>
        <g transform="translate(143.43 65.8)">
            <mask id="L" fill="#fff">
                <use xlink:href="#K"/>
            </mask>
            <path d="M2.643 5.286a2.643 2.643 0 1 0 0-5.285 2.643 2.643 0 0 0 0 5.285z" stroke="#6F7CBD" stroke-width="2" mask="url(#L)"/>
        </g>
        <path d="M152.492 62.026a6.041 6.041 0 1 0-6.04 6.04" stroke="#6F7CBD"/>
        <path d="m54.357 179.902 1.432.101.945.063.936.059 1.39.08.915.05.906.046.897.041.886.038.875.035.864.03.852.027.84.023 1.238.028.807.014.795.01.78.007.764.004h.75l.734-.005.718-.007.354-.005.692-.013.676-.016a7.554 7.554 0 0 1-.184-2.27c.062-.878.27-1.71.6-2.474l-.653-.108-.67-.107-.689-.107-.704-.105-.72-.104-.735-.102-.75-.102-.765-.1-.778-.098-.395-.048-.799-.096-1.222-.14-.83-.091-.843-.09-.854-.087-.864-.085-.876-.084-.885-.08-.895-.079-.904-.075-.913-.074-.921-.07-.93-.07-.941-.065-.944-.063-.937-.058-1.39-.081-.915-.05-.906-.045-.896-.042-.886-.038-.876-.034-.864-.03-.852-.027-.84-.023-1.237-.029-.808-.014-.794-.01-.78-.007-.765-.003h-.75l-.734.004-.36.003-.71.01-.693.012c.27.87.386 1.804.318 2.768a7.568 7.568 0 0 1-.468 2.148l.696.109.714.109.73.107.748.106.763.104.778.103.794.102.807.1.823.097.835.097.849.094.862.092.873.09.885.088.896.086.907.083.917.081.463.039.932.077.94.075.95.07z" fill="#FAFAFC"/>
        <path d="m54.357 179.902 1.432.101.945.063.936.059 1.39.08.915.05.906.046.897.041.886.038.875.035.864.03.852.027.84.023 1.238.028.807.014.795.01.78.007.764.004h.75l.734-.005.718-.007.354-.005.692-.013.676-.016a7.554 7.554 0 0 1-.184-2.27c.062-.878.27-1.71.6-2.474l-.653-.108-.67-.107-.689-.107-.704-.105-.72-.104-.735-.102-.75-.102-.765-.1-.778-.098-.395-.048-.799-.096-1.222-.14-.83-.091-.843-.09-.854-.087-.864-.085-.876-.084-.885-.08-.895-.079-.904-.075-.913-.074-.921-.07-.93-.07-.941-.065-.944-.063-.937-.058-1.39-.081-.915-.05-.906-.045-.896-.042-.886-.038-.876-.034-.864-.03-.852-.027-.84-.023-1.237-.029-.808-.014-.794-.01-.78-.007-.765-.003h-.75l-.734.004-.36.003-.71.01-.693.012c.27.87.386 1.804.318 2.768a7.568 7.568 0 0 1-.468 2.148l.696.109.714.109.73.107.748.106.763.104.778.103.794.102.807.1.823.097.835.097.849.094.862.092.873.09.885.088.896.086.907.083.917.081.463.039.932.077.94.075.95.07z" stroke="#1F2A3B"/>
        <path d="M73.842 180.621c.278.935.236 1.528-.124 1.779-.541.376-13.349.913-17.213-.917-.666-.315-.757-.608-.272-.878 8.313 1.154 13.095 1.156 14.344.004.706.05 1.794.053 3.265.012" fill="#FAFAFC"/>
        <path d="M73.842 180.621c.278.935.236 1.528-.124 1.779-.541.376-13.349.913-17.213-.917-.666-.315-.757-.608-.272-.878 8.313 1.154 13.095 1.156 14.344.004.706.05 1.794.053 3.265.012z" stroke="#1F2A3B"/>
        <path d="M77.68 180.397a1.358 1.358 0 0 0 1.447-1.263l.095-1.358c.052-.75-.51-1.4-1.258-1.452l-3.342-.234a8.097 8.097 0 0 0-.45 2.159 8.108 8.108 0 0 0 .091 1.91l3.416.238z" fill="#FAFAFC"/>
        <g transform="translate(74.152 176.09)">
            <mask id="N" fill="#fff">
                <use xlink:href="#M"/>
            </mask>
            <path d="M3.527 4.307a1.358 1.358 0 0 0 1.447-1.263l.095-1.358c.052-.75-.51-1.4-1.257-1.452L.469 0A8.097 8.097 0 0 0 .02 2.16a8.108 8.108 0 0 0 .09 1.91l3.417.238z" stroke="#1F2A3B" stroke-width="2" mask="url(#N)"/>
        </g>
        <path d="M37.36 178.032a8.13 8.13 0 0 0 .146-4.737l-.585.01-.38.01-.374.015-.366.019-.358.022-.349.025-.172.015-.336.03-.326.035-.16.018-.313.04-.152.02-.298.044-.287.048-.276.05-.265.055c-.086.018-.17.037-.253.056l-.242.06-.116.03-.223.065c-.036.01-.072.022-.107.033l-.204.068a5.646 5.646 0 0 0-.19.072l-.178.074c-.597.263-.939.577-.964.93-.03.437.432.883 1.268 1.3l.2.096c.17.08.356.158.554.235l.244.091.255.09.267.09.278.086.29.085.299.083.154.042.314.08.325.079.334.076.343.073.353.072.36.07.368.066.188.032.38.063.387.06.168.024z" fill="#FAFAFC"/>
        <g transform="translate(30.031 173.295)">
            <mask id="P" fill="#fff">
                <use xlink:href="#O"/>
            </mask>
            <path d="M7.33 4.738A8.13 8.13 0 0 0 7.475 0L6.89.01l-.38.01-.374.016-.366.018-.358.022-.349.026-.172.014-.336.031-.326.034-.16.019-.313.039-.152.02-.298.045-.287.047-.276.05-.265.055c-.086.018-.17.037-.253.057l-.242.06-.116.03-.223.065L1.537.7 1.333.77a5.644 5.644 0 0 0-.19.071L.964.914c-.597.264-.939.577-.964.93-.03.438.432.883 1.268 1.3l.2.096c.17.08.356.158.554.235l.244.092.255.09.267.089.278.086.29.086.299.083.153.041.315.08.325.079.334.076.343.074.353.072.36.069.368.067.188.032.38.063.387.06.168.024z" stroke="#1F2A3B" stroke-width="2" mask="url(#P)"/>
        </g>
        <path d="M55.79 180.003c-.062-1.29-.067-2.308-.016-3.05.051-.743.201-1.839.45-3.286l-.941-.066-.945-.062-.936-.06-.939-.049c-.223 1.468-.361 2.555-.415 3.262-.054.706-.074 1.713-.062 3.019l.481.045.941.074.95.072 1.431.101z" stroke="#1F2A3B"/>
        <g>
            <g transform="translate(28.376 174.2)">
                <mask id="R" fill="#fff">
                    <use xlink:href="#Q"/>
                </mask>
                <path fill="#D8D8D8" mask="url(#R)" d="m-.856 2.572 4.664.326.253-3.617-4.664-.326z"/>
            </g>
            <g transform="translate(28.376 174.2)">
                <mask id="T" fill="#fff">
                    <use xlink:href="#S"/>
                </mask>
                <path d="M2.809 1.815c.083-.247.137-.51.156-.782A3.084 3.084 0 0 0 2.864 0L2.64.003l-.146.005-.143.006-.14.007-.137.008-.134.01-.066.005-.129.012L1.62.07l-.06.006-.12.016L1.38.1l-.114.017-.11.018-.106.019-.102.02a2.425 2.425 0 0 0-.096.022L.76.22.716.231.63.256.59.268.51.294C.486.304.46.312.438.322L.37.35C.141.452.01.571.001.707c-.012.167.165.338.486.498l.076.036c.066.03.136.06.212.09l.093.035.098.035.103.034.106.033.111.033.115.032.059.016.12.03.125.03.128.03.131.028.135.028.138.026.142.026.071.011.146.025.149.022.064.01z" stroke="#1F2A3B" stroke-width="2" mask="url(#T)"/>
            </g>
        </g>
        <g transform="translate(52.63 172.96)">
            <mask id="V" fill="#fff">
                <use xlink:href="#U"/>
            </mask>
            <path fill="#FF6E61" mask="url(#V)" d="m-1.07 7.066 5.816.407.557-7.966-5.817-.406z"/>
        </g>
    </g>
</svg>
