<svg width="215" height="215" viewBox="0 0 215 215" fill="none" xmlns="http://www.w3.org/2000/svg">
<mask id="mask0_656_286" style="mask-type:alpha" maskUnits="userSpaceOnUse" x="11" y="11" width="192" height="192">
<path d="M11.882 11.8821H202.648V202.648H11.882V11.8821Z" fill="white"/>
</mask>
<g mask="url(#mask0_656_286)">
<path fill-rule="evenodd" clip-rule="evenodd" d="M202.648 107.265C202.648 159.943 159.943 202.648 107.265 202.648C54.587 202.648 11.882 159.943 11.882 107.265C11.882 54.5871 54.587 11.8821 107.265 11.8821C159.943 11.8821 202.648 54.5871 202.648 107.265Z" fill="#E9EBF2"/>
</g>
<path fill-rule="evenodd" clip-rule="evenodd" d="M162.168 62.488H147.733H160.47C159.785 62.488 174.392 151.823 175.076 151.823H176.775C177.46 151.823 177.925 151.273 177.815 150.593L163.61 63.718C163.5 63.039 162.854 62.488 162.168 62.488" fill="#FCFCFC"/>
<path fill-rule="evenodd" clip-rule="evenodd" d="M162.168 62.488H147.733H160.47C159.785 62.488 174.392 151.823 175.076 151.823H176.775C177.46 151.823 177.925 151.273 177.815 150.593L163.61 63.718C163.5 63.039 162.854 62.488 162.168 62.488V62.488Z" stroke="black"/>
<mask id="mask1_656_286" style="mask-type:alpha" maskUnits="userSpaceOnUse" x="72" y="72" width="104" height="88">
<path d="M148.716 153.392C148.692 153.536 148.699 153.835 148.339 154.147C148.236 154.237 147.984 154.362 147.583 154.524C97.9991 154.524 73.1311 154.529 72.9811 154.537L73.5711 158.144C73.6831 158.824 74.3281 159.374 75.0131 159.374H174.875C175.559 159.374 176.025 158.824 175.913 158.144L161.843 72.0911C161.79 72.0881 158.057 99.0511 148.716 153.392Z" fill="white"/>
</mask>
<g mask="url(#mask1_656_286)">
<path fill-rule="evenodd" clip-rule="evenodd" d="M56.665 154.884H176.781V71.155H56.665V154.884Z" fill="#6565B7"/>
</g>
<path fill-rule="evenodd" clip-rule="evenodd" d="M147.584 149.945C97.9991 149.945 73.1311 149.949 72.9811 149.957C73.1131 150.714 73.3101 151.849 73.5711 153.363C73.6821 154.005 74.3281 154.526 75.0131 154.526H174.874C175.56 154.526 176.024 154.005 175.914 153.363L161.844 72.0922C161.814 71.9202 158.087 97.3842 148.716 148.876C148.691 149.011 148.699 149.294 148.339 149.589C148.236 149.673 147.984 149.792 147.584 149.945Z" stroke="black"/>
<mask id="mask2_656_286" style="mask-type:alpha" maskUnits="userSpaceOnUse" x="59" y="60" width="108" height="12">
<path d="M77.726 60.1802H62.982C62.282 60.1802 61.623 60.7472 61.51 61.4472L59.811 71.4222H164.003L166.04 61.4472C166.153 60.7472 165.678 60.1802 164.979 60.1802H77.726V60.1802Z" fill="white"/>
</mask>
<g mask="url(#mask2_656_286)">
<path fill-rule="evenodd" clip-rule="evenodd" d="M57.9911 72.1773H165.855V59.4253H57.9911V72.1773Z" fill="#FF6E61"/>
</g>
<path fill-rule="evenodd" clip-rule="evenodd" d="M58.29 62.488H162.132C162.844 62.488 163.328 63.055 163.212 63.755L148.442 153.232C148.326 153.932 147.655 154.499 146.942 154.499H48.477C47.765 154.499 44.027 153.932 44.143 153.232L56.79 63.755C56.905 63.055 57.576 62.488 58.288 62.488H58.29Z" stroke="black"/>
<path fill-rule="evenodd" clip-rule="evenodd" d="M55.232 73.73L70.817 73.823H159.851L161.553 73.73L148.442 161.722C148.326 162.496 147.653 163.124 146.939 163.124H42.859C42.145 163.124 41.66 162.496 41.776 161.722L54.847 74.148L55.232 73.73Z" fill="#FCFCFC"/>
<path fill-rule="evenodd" clip-rule="evenodd" d="M55.096 73.73L70.7 73.821H159.85L161.553 73.73L148.425 160.051C148.309 160.811 147.635 161.427 146.92 161.427H42.707C41.992 161.427 41.507 160.811 41.623 160.051L54.71 74.14L55.096 73.73V73.73Z" stroke="black"/>
<mask id="mask3_656_286" style="mask-type:alpha" maskUnits="userSpaceOnUse" x="58" y="79" width="19" height="18">
<path d="M63.3769 79.8081C61.9859 79.8081 60.9159 80.6861 60.7019 82.0021L58.7809 93.8511C58.5669 95.1671 59.3529 96.0451 60.7439 96.0451H72.3379C73.7279 96.0451 74.7979 95.1671 75.0119 93.8511L76.9319 82.0021C77.1479 80.6861 76.3629 79.8081 74.9719 79.8081H63.3759H63.3769Z" fill="white"/>
</mask>
<g mask="url(#mask3_656_286)">
<path fill-rule="evenodd" clip-rule="evenodd" d="M58.781 93.8511L60.702 82.0021C60.916 80.6851 61.986 79.8081 63.377 79.8081H74.97C76.362 79.8081 77.147 80.6851 76.933 82.0021L75.012 93.8511C74.798 95.1671 73.728 96.0451 72.337 96.0451H60.744C59.352 96.0451 58.568 95.1671 58.781 93.8511V93.8511Z" stroke="black" stroke-width="2"/>
</g>
<mask id="mask4_656_286" style="mask-type:alpha" maskUnits="userSpaceOnUse" x="54" y="104" width="19" height="17">
<path d="M59.34 104.705C57.95 104.705 56.88 105.583 56.667 106.899L54.745 118.748C54.531 120.064 55.316 120.942 56.708 120.942H68.3C69.691 120.942 70.761 120.064 70.975 118.748L72.896 106.899C73.11 105.583 72.326 104.705 70.934 104.705H59.341H59.34Z" fill="white"/>
</mask>
<g mask="url(#mask4_656_286)">
<path fill-rule="evenodd" clip-rule="evenodd" d="M54.7449 118.748L56.6659 106.899C56.8799 105.583 57.9499 104.705 59.3409 104.705H70.9339C72.3249 104.705 73.1109 105.583 72.8969 106.899L70.9749 118.749C70.7619 120.065 69.6919 120.942 68.3009 120.942H56.7069C55.3169 120.942 54.5309 120.065 54.7449 118.748V118.748Z" stroke="black" stroke-width="2"/>
</g>
<mask id="mask5_656_286" style="mask-type:alpha" maskUnits="userSpaceOnUse" x="79" y="104" width="19" height="17">
<path d="M84.0491 104.705C82.6591 104.705 81.5891 105.583 81.3761 106.899L79.4541 118.748C79.2401 120.064 80.0241 120.942 81.4171 120.942H93.0091C94.4001 120.942 95.4701 120.064 95.6841 118.748L97.6061 106.899C97.8191 105.583 97.0351 104.705 95.6431 104.705H84.0501H84.0491Z" fill="white"/>
</mask>
<g mask="url(#mask5_656_286)">
<path fill-rule="evenodd" clip-rule="evenodd" d="M79.454 118.748L81.375 106.899C81.588 105.583 82.659 104.705 84.05 104.705H95.643C97.034 104.705 97.82 105.583 97.606 106.899L95.685 118.749C95.472 120.065 94.401 120.942 93.01 120.942H81.417C80.026 120.942 79.24 120.065 79.454 118.748V118.748Z" stroke="black" stroke-width="2"/>
</g>
<mask id="mask6_656_286" style="mask-type:alpha" maskUnits="userSpaceOnUse" x="50" y="129" width="19" height="17">
<path d="M55.302 129.603C53.912 129.603 52.842 130.48 52.629 131.797L50.707 143.646C50.493 144.962 51.278 145.839 52.67 145.839H64.264C65.654 145.839 66.724 144.962 66.938 143.646L68.858 131.796C69.074 130.481 68.289 129.603 66.898 129.603H55.302Z" fill="white"/>
</mask>
<g mask="url(#mask6_656_286)">
<path fill-rule="evenodd" clip-rule="evenodd" d="M50.707 143.646L52.628 131.796C52.841 130.481 53.911 129.603 55.303 129.603H66.896C68.287 129.603 69.073 130.48 68.859 131.797L66.937 143.646C66.724 144.962 65.654 145.84 64.263 145.84H52.669C51.279 145.84 50.493 144.962 50.707 143.646V143.646Z" stroke="black" stroke-width="2"/>
</g>
<mask id="mask7_656_286" style="mask-type:alpha" maskUnits="userSpaceOnUse" x="83" y="79" width="19" height="18">
<path d="M88.264 79.8081C86.874 79.8081 85.804 80.6861 85.591 82.0021L83.669 93.8511C83.455 95.1671 84.24 96.0451 85.631 96.0451H97.225C98.616 96.0451 99.686 95.1671 99.899 93.8511L101.821 82.0021C102.035 80.6861 101.249 79.8081 99.858 79.8081H88.265H88.264Z" fill="white"/>
</mask>
<g mask="url(#mask7_656_286)">
<path fill-rule="evenodd" clip-rule="evenodd" d="M83.669 93.8511L85.59 82.0021C85.804 80.6851 86.874 79.8081 88.265 79.8081H99.858C101.25 79.8081 102.035 80.6851 101.821 82.0021L99.9 93.8511C99.686 95.1671 98.616 96.0451 97.225 96.0451H85.632C84.24 96.0451 83.455 95.1671 83.669 93.8511V93.8511Z" stroke="black" stroke-width="2"/>
</g>
<mask id="mask8_656_286" style="mask-type:alpha" maskUnits="userSpaceOnUse" x="75" y="129" width="19" height="17">
<path d="M80.191 129.603C78.8 129.603 77.73 130.48 77.517 131.797L75.595 143.646C75.381 144.962 76.167 145.839 77.558 145.839H89.152C90.542 145.839 91.612 144.962 91.826 143.646L93.748 131.796C93.961 130.481 93.176 129.603 91.784 129.603H80.191Z" fill="white"/>
</mask>
<g mask="url(#mask8_656_286)">
<path fill-rule="evenodd" clip-rule="evenodd" d="M75.595 143.646L77.516 131.796C77.73 130.481 78.8 129.603 80.191 129.603H91.785C93.175 129.603 93.961 130.48 93.747 131.797L91.826 143.646C91.613 144.962 90.543 145.84 89.151 145.84H77.558C76.167 145.84 75.382 144.962 75.595 143.646V143.646Z" stroke="black" stroke-width="2"/>
</g>
<mask id="mask9_656_286" style="mask-type:alpha" maskUnits="userSpaceOnUse" x="108" y="79" width="19" height="18">
<path d="M113.152 79.8081C111.761 79.8081 110.691 80.6861 110.478 82.0021L108.556 93.8511C108.342 95.1671 109.128 96.0451 110.519 96.0451H122.113C123.503 96.0451 124.573 95.1671 124.788 93.8511L126.708 82.0021C126.922 80.6861 126.137 79.8081 124.746 79.8081H113.151H113.152Z" fill="white"/>
</mask>
<g mask="url(#mask9_656_286)">
<path fill-rule="evenodd" clip-rule="evenodd" d="M108.556 93.8511L110.477 82.0021C110.691 80.6851 111.761 79.8081 113.152 79.8081H124.745C126.137 79.8081 126.922 80.6851 126.709 82.0021L124.787 93.8511C124.574 95.1671 123.504 96.0451 122.112 96.0451H110.519C109.128 96.0451 108.343 95.1671 108.556 93.8511V93.8511Z" stroke="black" stroke-width="2"/>
</g>
<mask id="mask10_656_286" style="mask-type:alpha" maskUnits="userSpaceOnUse" x="104" y="104" width="19" height="17">
<path d="M109.114 104.705C107.724 104.705 106.654 105.583 106.441 106.899L104.519 118.748C104.305 120.064 105.09 120.942 106.482 120.942H118.074C119.466 120.942 120.536 120.064 120.749 118.748L122.67 106.899C122.884 105.583 122.1 104.705 120.708 104.705H109.115H109.114Z" fill="white"/>
</mask>
<g mask="url(#mask10_656_286)">
<path fill-rule="evenodd" clip-rule="evenodd" d="M104.519 118.748L106.44 106.899C106.654 105.583 107.724 104.705 109.115 104.705H120.708C122.099 104.705 122.885 105.583 122.672 106.899L120.75 118.749C120.537 120.065 119.466 120.942 118.075 120.942H106.482C105.091 120.942 104.305 120.065 104.519 118.748V118.748Z" stroke="black" stroke-width="2"/>
</g>
<mask id="mask11_656_286" style="mask-type:alpha" maskUnits="userSpaceOnUse" x="100" y="129" width="19" height="17">
<path d="M105.077 129.603C103.687 129.603 102.617 130.48 102.404 131.797L100.482 143.646C100.268 144.962 101.054 145.839 102.444 145.839H114.039C115.429 145.839 116.499 144.962 116.712 143.646L118.634 131.796C118.847 130.481 118.062 129.603 116.672 129.603H105.077Z" fill="white"/>
</mask>
<g mask="url(#mask11_656_286)">
<path fill-rule="evenodd" clip-rule="evenodd" d="M100.482 143.646L102.403 131.796C102.617 130.481 103.687 129.603 105.078 129.603H116.671C118.062 129.603 118.848 130.48 118.634 131.797L116.712 143.646C116.5 144.962 115.429 145.84 114.038 145.84H102.444C101.054 145.84 100.268 144.962 100.482 143.646V143.646Z" stroke="black" stroke-width="2"/>
</g>
<mask id="mask12_656_286" style="mask-type:alpha" maskUnits="userSpaceOnUse" x="125" y="129" width="19" height="17">
<path d="M129.788 129.603C128.397 129.603 127.327 130.48 127.113 131.797L125.192 143.646C124.978 144.962 125.763 145.839 127.155 145.839H138.749C140.139 145.839 141.209 144.962 141.423 143.646L143.344 131.796C143.558 130.481 142.773 129.603 141.382 129.603H129.787H129.788Z" fill="white"/>
</mask>
<g mask="url(#mask12_656_286)">
<path fill-rule="evenodd" clip-rule="evenodd" d="M125.192 143.646L127.113 131.796C127.327 130.481 128.397 129.603 129.788 129.603H141.381C142.773 129.603 143.558 130.48 143.344 131.797L141.423 143.646C141.209 144.962 140.14 145.84 138.748 145.84H127.155C125.763 145.84 124.979 144.962 125.192 143.646V143.646Z" stroke="black" stroke-width="2"/>
</g>
<mask id="mask13_656_286" style="mask-type:alpha" maskUnits="userSpaceOnUse" x="133" y="79" width="19" height="18">
<path d="M138.04 79.8081C136.65 79.8081 135.58 80.6861 135.366 82.0021L133.445 93.8511C133.231 95.1671 134.015 96.0451 135.407 96.0451H147.001C148.391 96.0451 149.461 95.1671 149.676 93.8511L151.597 82.0021C151.81 80.6861 151.025 79.8081 149.634 79.8081H138.04Z" fill="white"/>
</mask>
<g mask="url(#mask13_656_286)">
<path fill-rule="evenodd" clip-rule="evenodd" d="M133.444 93.8511L135.366 82.0021C135.579 80.6851 136.649 79.8081 138.04 79.8081H149.634C151.025 79.8081 151.811 80.6851 151.597 82.0021L149.675 93.8511C149.462 95.1671 148.392 96.0451 147.001 96.0451H135.407C134.016 96.0451 133.231 95.1671 133.444 93.8511V93.8511Z" stroke="black" stroke-width="2"/>
</g>
<mask id="mask14_656_286" style="mask-type:alpha" maskUnits="userSpaceOnUse" x="129" y="104" width="19" height="17">
<path d="M134.002 104.705C132.612 104.705 131.542 105.583 131.329 106.899L129.407 118.748C129.193 120.064 129.977 120.942 131.369 120.942H142.963C144.354 120.942 145.424 120.064 145.638 118.748L147.558 106.899C147.774 105.583 146.989 104.705 145.597 104.705H134.003H134.002Z" fill="white"/>
</mask>
<g mask="url(#mask14_656_286)">
<path fill-rule="evenodd" clip-rule="evenodd" d="M129.406 118.748L131.328 106.899C131.541 105.583 132.611 104.705 134.002 104.705H145.596C146.987 104.705 147.773 105.583 147.559 106.899L145.637 118.749C145.424 120.065 144.354 120.942 142.963 120.942H131.369C129.978 120.942 129.193 120.065 129.406 118.748V118.748Z" stroke="black" stroke-width="2"/>
</g>
<path d="M56.795 73.76H161.335" stroke="#6F7CBD"/>
<mask id="mask15_656_286" style="mask-type:alpha" maskUnits="userSpaceOnUse" x="71" y="65" width="6" height="7">
<path d="M71.697 68.443C71.697 69.144 71.9755 69.8163 72.4711 70.3119C72.9668 70.8076 73.6391 71.086 74.34 71.086C75.041 71.086 75.7132 70.8076 76.2089 70.3119C76.7046 69.8163 76.983 69.144 76.983 68.443C76.983 67.7421 76.7046 67.0698 76.2089 66.5742C75.7132 66.0785 75.041 65.8 74.34 65.8C73.6391 65.8 72.9668 66.0785 72.4711 66.5742C71.9755 67.0698 71.697 67.7421 71.697 68.443V68.443Z" fill="white"/>
</mask>
<g mask="url(#mask15_656_286)">
<path fill-rule="evenodd" clip-rule="evenodd" d="M74.34 71.086C74.6913 71.0929 75.0405 71.0296 75.3671 70.8998C75.6937 70.7701 75.9911 70.5766 76.242 70.3305C76.4929 70.0845 76.6922 69.7908 76.8283 69.4668C76.9643 69.1428 77.0344 68.7949 77.0344 68.4435C77.0344 68.0921 76.9643 67.7442 76.8283 67.4202C76.6922 67.0962 76.4929 66.8026 76.242 66.5566C75.9911 66.3105 75.6937 66.117 75.3671 65.9872C75.0405 65.8575 74.6913 65.7942 74.34 65.801C73.6481 65.8145 72.989 66.0988 72.5044 66.5929C72.0199 67.087 71.7484 67.7515 71.7484 68.4435C71.7484 69.1356 72.0199 69.8001 72.5044 70.2942C72.989 70.7883 73.6481 71.0726 74.34 71.086V71.086Z" stroke="#6F7CBD" stroke-width="2"/>
</g>
<path d="M80.002 62.0261C80.0022 60.8313 79.6481 59.6631 78.9844 58.6696C78.3207 57.676 77.3772 56.9015 76.2733 56.4442C75.1694 55.9868 73.9547 55.8671 72.7828 56.1002C71.6108 56.3332 70.5343 56.9086 69.6894 57.7535C68.8445 58.5984 68.2691 59.6749 68.0361 60.8468C67.803 62.0188 67.9227 63.2335 68.3801 64.3374C68.8374 65.4413 69.6119 66.3847 70.6055 67.0485C71.5991 67.7122 72.7672 68.0663 73.962 68.0661" stroke="#6F7CBD"/>
<mask id="mask16_656_286" style="mask-type:alpha" maskUnits="userSpaceOnUse" x="95" y="65" width="7" height="7">
<path d="M95.86 68.443C95.86 69.144 96.1384 69.8163 96.6341 70.3119C97.1298 70.8076 97.802 71.086 98.503 71.086C99.204 71.086 99.8762 70.8076 100.372 70.3119C100.868 69.8163 101.146 69.144 101.146 68.443C101.146 67.7421 100.868 67.0698 100.372 66.5742C99.8762 66.0785 99.204 65.8 98.503 65.8C97.802 65.8 97.1298 66.0785 96.6341 66.5742C96.1384 67.0698 95.86 67.7421 95.86 68.443V68.443Z" fill="white"/>
</mask>
<g mask="url(#mask16_656_286)">
<path fill-rule="evenodd" clip-rule="evenodd" d="M98.503 71.086C98.8543 71.0929 99.2035 71.0296 99.5301 70.8998C99.8567 70.7701 100.154 70.5766 100.405 70.3305C100.656 70.0845 100.855 69.7908 100.991 69.4668C101.127 69.1428 101.197 68.7949 101.197 68.4435C101.197 68.0921 101.127 67.7442 100.991 67.4202C100.855 67.0962 100.656 66.8026 100.405 66.5566C100.154 66.3105 99.8567 66.117 99.5301 65.9872C99.2035 65.8575 98.8543 65.7942 98.503 65.801C97.811 65.8145 97.152 66.0988 96.6674 66.5929C96.1828 67.087 95.9114 67.7515 95.9114 68.4435C95.9114 69.1356 96.1828 69.8001 96.6674 70.2942C97.152 70.7883 97.811 71.0726 98.503 71.086V71.086Z" stroke="#6F7CBD" stroke-width="2"/>
</g>
<path d="M104.166 62.0261C104.166 60.8313 103.812 59.6632 103.148 58.6697C102.485 57.6761 101.541 56.9016 100.437 56.4443C99.3336 55.9869 98.119 55.8671 96.9471 56.1001C95.7752 56.3331 94.6987 56.9083 93.8537 57.7531C93.0088 58.598 92.4333 59.6744 92.2001 60.8462C91.967 62.0181 92.0865 63.2328 92.5437 64.3367C93.0009 65.4406 93.7752 66.3841 94.7687 67.048C95.7621 67.7118 96.9301 68.0661 98.125 68.0661" stroke="#6F7CBD"/>
<mask id="mask17_656_286" style="mask-type:alpha" maskUnits="userSpaceOnUse" x="120" y="65" width="6" height="7">
<path d="M120.023 68.443C120.016 68.7944 120.079 69.1436 120.209 69.4701C120.339 69.7967 120.532 70.0942 120.778 70.3451C121.025 70.596 121.318 70.7953 121.642 70.9313C121.966 71.0674 122.314 71.1374 122.665 71.1374C123.017 71.1374 123.365 71.0674 123.689 70.9313C124.013 70.7953 124.306 70.596 124.552 70.3451C124.798 70.0942 124.992 69.7967 125.122 69.4701C125.251 69.1436 125.315 68.7944 125.308 68.443C125.308 68.096 125.24 67.7524 125.107 67.4318C124.974 67.1112 124.779 66.8199 124.534 66.5745C124.289 66.3291 123.997 66.1345 123.677 66.0017C123.356 65.8689 123.012 65.8005 122.665 65.8005C122.318 65.8005 121.975 65.8689 121.654 66.0017C121.334 66.1345 121.042 66.3291 120.797 66.5745C120.552 66.8199 120.357 67.1112 120.224 67.4318C120.091 67.7524 120.023 68.096 120.023 68.443V68.443Z" fill="white"/>
</mask>
<g mask="url(#mask17_656_286)">
<path fill-rule="evenodd" clip-rule="evenodd" d="M122.665 71.086C123.016 71.0929 123.365 71.0296 123.692 70.8998C124.019 70.7701 124.316 70.5766 124.567 70.3305C124.818 70.0845 125.017 69.7908 125.153 69.4668C125.289 69.1428 125.359 68.7949 125.359 68.4435C125.359 68.0921 125.289 67.7442 125.153 67.4202C125.017 67.0962 124.818 66.8026 124.567 66.5566C124.316 66.3105 124.019 66.117 123.692 65.9872C123.365 65.8575 123.016 65.7942 122.665 65.801C121.973 65.8145 121.314 66.0988 120.829 66.5929C120.345 67.087 120.073 67.7515 120.073 68.4435C120.073 69.1356 120.345 69.8001 120.829 70.2942C121.314 70.7883 121.973 71.0726 122.665 71.086V71.086Z" stroke="#6F7CBD" stroke-width="2"/>
</g>
<path d="M128.329 62.0261C128.329 60.8313 127.975 59.6632 127.311 58.6697C126.648 57.6761 125.704 56.9016 124.601 56.4443C123.497 55.9869 122.282 55.8671 121.11 56.1001C119.938 56.3331 118.862 56.9083 118.017 57.7531C117.172 58.598 116.596 59.6744 116.363 60.8462C116.13 62.0181 116.25 63.2328 116.707 64.3367C117.164 65.4406 117.938 66.3841 118.932 67.048C119.925 67.7118 121.093 68.0661 122.288 68.0661" stroke="#6F7CBD"/>
<mask id="mask18_656_286" style="mask-type:alpha" maskUnits="userSpaceOnUse" x="143" y="65" width="6" height="7">
<path d="M143.43 68.443C143.43 69.144 143.709 69.8163 144.204 70.3119C144.7 70.8076 145.372 71.086 146.073 71.086C146.774 71.086 147.446 70.8076 147.942 70.3119C148.438 69.8163 148.716 69.144 148.716 68.443C148.716 67.7421 148.438 67.0698 147.942 66.5742C147.446 66.0785 146.774 65.8 146.073 65.8C145.372 65.8 144.7 66.0785 144.204 66.5742C143.709 67.0698 143.43 67.7421 143.43 68.443V68.443Z" fill="white"/>
</mask>
<g mask="url(#mask18_656_286)">
<path fill-rule="evenodd" clip-rule="evenodd" d="M146.073 71.086C146.424 71.0929 146.774 71.0296 147.1 70.8998C147.427 70.7701 147.724 70.5766 147.975 70.3305C148.226 70.0845 148.425 69.7908 148.561 69.4668C148.697 69.1428 148.767 68.7949 148.767 68.4435C148.767 68.0921 148.697 67.7442 148.561 67.4202C148.425 67.0962 148.226 66.8026 147.975 66.5566C147.724 66.3105 147.427 66.117 147.1 65.9872C146.774 65.8575 146.424 65.7942 146.073 65.801C145.381 65.8145 144.722 66.0988 144.237 66.5929C143.753 67.087 143.481 67.7515 143.481 68.4435C143.481 69.1356 143.753 69.8001 144.237 70.2942C144.722 70.7883 145.381 71.0726 146.073 71.086V71.086Z" stroke="#6F7CBD" stroke-width="2"/>
</g>
<path d="M152.492 62.0261C152.492 60.8313 152.138 59.6631 151.474 58.6696C150.811 57.676 149.867 56.9015 148.763 56.4442C147.659 55.9868 146.445 55.8671 145.273 56.1002C144.101 56.3332 143.024 56.9086 142.179 57.7535C141.334 58.5984 140.759 59.6749 140.526 60.8468C140.293 62.0188 140.413 63.2335 140.87 64.3374C141.327 65.4413 142.102 66.3847 143.095 67.0485C144.089 67.7122 145.257 68.0663 146.452 68.0661" stroke="#6F7CBD"/>
<path fill-rule="evenodd" clip-rule="evenodd" d="M54.357 179.902L55.789 180.003L56.734 180.066L57.67 180.125L59.06 180.205L59.975 180.255L60.881 180.301L61.778 180.342L62.664 180.38L63.539 180.415L64.403 180.445L65.255 180.472L66.095 180.495L67.333 180.523L68.14 180.537L68.935 180.547L69.715 180.554L70.479 180.558H71.229L71.963 180.553L72.681 180.546L73.035 180.541L73.727 180.528L74.403 180.512C74.2273 179.769 74.1653 179.004 74.219 178.242C74.281 177.364 74.489 176.532 74.819 175.768L74.166 175.66L73.496 175.553L72.807 175.446L72.103 175.341L71.383 175.237L70.648 175.135L69.898 175.033L69.133 174.933L68.355 174.835L67.96 174.787L67.161 174.691L65.939 174.551L65.109 174.46L64.266 174.37L63.412 174.283L62.548 174.198L61.672 174.114L60.787 174.034L59.892 173.955L58.988 173.88L58.075 173.806L57.154 173.736L56.224 173.666L55.283 173.601L54.339 173.538L53.402 173.48L52.012 173.399L51.097 173.349L50.191 173.304L49.295 173.262L48.409 173.224L47.533 173.19L46.669 173.16L45.817 173.133L44.977 173.11L43.74 173.081L42.932 173.067L42.138 173.057L41.358 173.05L40.593 173.047H39.843L39.109 173.051L38.749 173.054L38.039 173.064L37.346 173.076C37.616 173.946 37.732 174.88 37.664 175.844C37.6134 176.579 37.4558 177.303 37.196 177.992L37.892 178.101L38.606 178.21L39.336 178.317L40.084 178.423L40.847 178.527L41.625 178.63L42.419 178.732L43.226 178.832L44.049 178.929L44.884 179.026L45.733 179.12L46.595 179.212L47.468 179.302L48.353 179.39L49.249 179.476L50.156 179.559L51.073 179.64L51.536 179.679L52.468 179.756L53.408 179.831L54.358 179.901L54.357 179.902Z" fill="#FAFAFC"/>
<path fill-rule="evenodd" clip-rule="evenodd" d="M54.357 179.902L55.789 180.003L56.734 180.066L57.67 180.125L59.06 180.205L59.975 180.255L60.881 180.301L61.778 180.342L62.664 180.38L63.539 180.415L64.403 180.445L65.255 180.472L66.095 180.495L67.333 180.523L68.14 180.537L68.935 180.547L69.715 180.554L70.479 180.558H71.229L71.963 180.553L72.681 180.546L73.035 180.541L73.727 180.528L74.403 180.512C74.2273 179.769 74.1653 179.004 74.219 178.242C74.281 177.364 74.489 176.532 74.819 175.768L74.166 175.66L73.496 175.553L72.807 175.446L72.103 175.341L71.383 175.237L70.648 175.135L69.898 175.033L69.133 174.933L68.355 174.835L67.96 174.787L67.161 174.691L65.939 174.551L65.109 174.46L64.266 174.37L63.412 174.283L62.548 174.198L61.672 174.114L60.787 174.034L59.892 173.955L58.988 173.88L58.075 173.806L57.154 173.736L56.224 173.666L55.283 173.601L54.339 173.538L53.402 173.48L52.012 173.399L51.097 173.349L50.191 173.304L49.295 173.262L48.409 173.224L47.533 173.19L46.669 173.16L45.817 173.133L44.977 173.11L43.74 173.081L42.932 173.067L42.138 173.057L41.358 173.05L40.593 173.047H39.843L39.109 173.051L38.749 173.054L38.039 173.064L37.346 173.076C37.616 173.946 37.732 174.88 37.664 175.844C37.6134 176.579 37.4558 177.303 37.196 177.992L37.892 178.101L38.606 178.21L39.336 178.317L40.084 178.423L40.847 178.527L41.625 178.63L42.419 178.732L43.226 178.832L44.049 178.929L44.884 179.026L45.733 179.12L46.595 179.212L47.468 179.302L48.353 179.39L49.249 179.476L50.156 179.559L51.073 179.64L51.536 179.679L52.468 179.756L53.408 179.831L54.358 179.901L54.357 179.902Z" stroke="#1F2A3B"/>
<path fill-rule="evenodd" clip-rule="evenodd" d="M73.842 180.621C74.12 181.556 74.078 182.149 73.718 182.4C73.177 182.776 60.369 183.313 56.505 181.483C55.839 181.168 55.748 180.875 56.233 180.605C64.546 181.759 69.328 181.761 70.577 180.609C71.283 180.659 72.371 180.662 73.842 180.621Z" fill="#FAFAFC"/>
<path fill-rule="evenodd" clip-rule="evenodd" d="M73.842 180.621C74.12 181.556 74.078 182.149 73.718 182.4C73.177 182.776 60.369 183.313 56.505 181.483C55.839 181.168 55.748 180.875 56.233 180.605C64.546 181.759 69.328 181.761 70.577 180.609C71.283 180.659 72.371 180.662 73.842 180.621Z" stroke="#1F2A3B"/>
<path fill-rule="evenodd" clip-rule="evenodd" d="M77.68 180.397C77.858 180.409 78.0366 180.386 78.2056 180.329C78.3746 180.272 78.5308 180.183 78.6652 180.065C78.7995 179.948 78.9095 179.805 78.9887 179.646C79.068 179.486 79.115 179.312 79.127 179.134L79.222 177.776C79.274 177.026 78.712 176.376 77.964 176.324L74.622 176.09C74.3743 176.786 74.2229 177.512 74.172 178.249C74.1269 178.887 74.1575 179.528 74.263 180.159L77.679 180.397H77.68Z" fill="#FAFAFC"/>
<mask id="mask19_656_286" style="mask-type:alpha" maskUnits="userSpaceOnUse" x="74" y="176" width="6" height="5">
<path d="M74.172 178.248C74.1263 178.886 74.1565 179.527 74.262 180.158L77.679 180.398C78.0384 180.422 78.3927 180.302 78.6639 180.065C78.9352 179.828 79.1014 179.493 79.126 179.134L79.221 177.776C79.273 177.026 78.711 176.376 77.964 176.324L74.622 176.09C74.3742 176.785 74.2227 177.512 74.172 178.248V178.248Z" fill="white"/>
</mask>
<g mask="url(#mask19_656_286)">
<path fill-rule="evenodd" clip-rule="evenodd" d="M77.679 180.397C77.8569 180.409 78.0355 180.386 78.2045 180.329C78.3736 180.272 78.5297 180.183 78.6641 180.065C78.7985 179.948 78.9084 179.805 78.9877 179.646C79.0669 179.486 79.1139 179.312 79.126 179.134L79.221 177.776C79.273 177.026 78.711 176.376 77.964 176.324L74.621 176.09C74.3735 176.786 74.2224 177.513 74.172 178.25C74.1265 178.888 74.1567 179.529 74.262 180.16L77.679 180.398V180.397Z" stroke="#1F2A3B" stroke-width="2"/>
</g>
<path fill-rule="evenodd" clip-rule="evenodd" d="M37.36 178.032C37.878 176.503 37.9289 174.854 37.506 173.295L36.921 173.305L36.541 173.315L36.167 173.33L35.801 173.349L35.443 173.371L35.094 173.396L34.922 173.411L34.586 173.441L34.26 173.476L34.1 173.494L33.787 173.534L33.635 173.554L33.337 173.598L33.05 173.646L32.774 173.696L32.509 173.751C32.423 173.769 32.339 173.788 32.256 173.807L32.014 173.867L31.898 173.897L31.675 173.962C31.639 173.972 31.603 173.984 31.568 173.995L31.364 174.063C31.3003 174.086 31.2369 174.11 31.174 174.135L30.996 174.209C30.399 174.472 30.057 174.786 30.032 175.139C30.002 175.576 30.464 176.022 31.3 176.439L31.5 176.535C31.67 176.615 31.856 176.693 32.054 176.77L32.298 176.861L32.553 176.951L32.82 177.041L33.098 177.127L33.388 177.212L33.687 177.295L33.841 177.337L34.155 177.417L34.48 177.496L34.814 177.572L35.157 177.645L35.51 177.717L35.87 177.787L36.238 177.853L36.426 177.885L36.806 177.948L37.193 178.008L37.361 178.032H37.36Z" fill="#FAFAFC"/>
<mask id="mask20_656_286" style="mask-type:alpha" maskUnits="userSpaceOnUse" x="30" y="173" width="8" height="6">
<path d="M36.921 173.305L36.541 173.315L36.167 173.331L35.801 173.349L35.443 173.371L35.094 173.397L34.923 173.411L34.586 173.442L34.259 173.476C34.206 173.482 34.153 173.489 34.099 173.494L33.787 173.534L33.634 173.554L33.337 173.599L33.051 173.645L32.775 173.696L32.51 173.75C32.424 173.768 32.339 173.787 32.256 173.807L32.016 173.867L31.899 173.897L31.676 173.961C31.6401 173.973 31.6041 173.984 31.568 173.995L31.364 174.065C31.3003 174.088 31.237 174.112 31.174 174.136L30.997 174.209C30.4 174.473 30.057 174.787 30.032 175.139C30.002 175.577 30.464 176.022 31.299 176.439L31.499 176.535C31.671 176.615 31.857 176.693 32.054 176.77L32.298 176.862L32.554 176.952L32.821 177.041L33.098 177.128L33.387 177.213L33.687 177.296L33.841 177.337L34.155 177.417L34.48 177.495L34.814 177.572L35.157 177.646L35.509 177.718L35.87 177.787L36.238 177.854L36.425 177.886L36.806 177.949L37.194 178.009L37.361 178.033C37.5839 177.373 37.7214 176.688 37.77 175.993C37.8343 175.085 37.745 174.173 37.506 173.295L36.921 173.305Z" fill="white"/>
</mask>
<g mask="url(#mask20_656_286)">
<path fill-rule="evenodd" clip-rule="evenodd" d="M37.361 178.033C37.8789 176.503 37.9294 174.854 37.506 173.295L36.921 173.305L36.541 173.315L36.167 173.331L35.801 173.349L35.443 173.371L35.094 173.397L34.922 173.411L34.586 173.442L34.26 173.476L34.1 173.495L33.787 173.534L33.635 173.554L33.337 173.599L33.05 173.646L32.774 173.696L32.509 173.751C32.423 173.769 32.339 173.788 32.256 173.808L32.014 173.868L31.898 173.898L31.675 173.963L31.568 173.995L31.364 174.065C31.3003 174.088 31.2369 174.111 31.174 174.136L30.995 174.209C30.398 174.473 30.056 174.786 30.031 175.139C30.001 175.577 30.463 176.022 31.299 176.439L31.499 176.535C31.669 176.615 31.855 176.693 32.053 176.77L32.297 176.862L32.552 176.952L32.819 177.041L33.097 177.127L33.387 177.213L33.686 177.296L33.839 177.337L34.154 177.417L34.479 177.496L34.813 177.572L35.156 177.646L35.509 177.718L35.869 177.787L36.237 177.854L36.425 177.886L36.805 177.949L37.192 178.009L37.36 178.033H37.361Z" stroke="#1F2A3B" stroke-width="2"/>
</g>
<path fill-rule="evenodd" clip-rule="evenodd" d="M55.79 180.003C55.728 178.713 55.723 177.695 55.774 176.953C55.825 176.21 55.975 175.114 56.224 173.667L55.283 173.601L54.338 173.539L53.402 173.479L52.463 173.43C52.24 174.898 52.102 175.985 52.048 176.692C51.994 177.398 51.974 178.405 51.986 179.711L52.467 179.756L53.408 179.83L54.358 179.902L55.789 180.003H55.79Z" stroke="#1F2A3B"/>
<mask id="mask21_656_286" style="mask-type:alpha" maskUnits="userSpaceOnUse" x="28" y="174" width="4" height="3">
<path d="M31.016 174.204L30.87 174.208L30.727 174.214L30.587 174.22L30.45 174.23L30.316 174.239L30.25 174.244L30.122 174.256L29.996 174.27L29.936 174.276L29.816 174.291L29.756 174.3L29.643 174.317L29.533 174.335L29.427 174.354L29.326 174.374L29.229 174.396L29.136 174.42L29.092 174.431L29.006 174.455C28.992 174.46 28.979 174.465 28.966 174.468L28.886 174.495C28.862 174.503 28.837 174.512 28.814 174.522L28.746 174.55C28.518 174.65 28.386 174.77 28.376 174.907C28.366 175.074 28.542 175.244 28.863 175.405L28.939 175.441C29.005 175.471 29.076 175.501 29.151 175.531L29.245 175.566L29.343 175.601L29.445 175.635L29.552 175.668L29.662 175.701L29.777 175.733L29.837 175.748L29.957 175.779L30.081 175.809L30.209 175.839L30.34 175.867L30.475 175.895L30.613 175.921L30.755 175.947L30.826 175.958L30.972 175.983L31.12 176.006L31.185 176.016C31.268 175.768 31.322 175.506 31.341 175.233C31.3659 174.886 31.3318 174.536 31.24 174.2L31.016 174.204Z" fill="white"/>
</mask>
<g mask="url(#mask21_656_286)">
<path fill-rule="evenodd" clip-rule="evenodd" d="M27.52 176.772L32.184 177.098L32.437 173.481L27.773 173.155L27.52 176.772Z" fill="#D8D8D8"/>
</g>
<mask id="mask22_656_286" style="mask-type:alpha" maskUnits="userSpaceOnUse" x="28" y="174" width="4" height="3">
<path d="M31.016 174.204L30.87 174.208L30.727 174.214L30.587 174.22L30.45 174.23L30.316 174.239L30.25 174.244L30.122 174.256L29.996 174.27L29.936 174.276L29.816 174.291L29.756 174.3L29.643 174.317L29.533 174.335L29.427 174.354L29.326 174.374L29.229 174.396L29.136 174.42L29.092 174.431L29.006 174.455C28.992 174.46 28.979 174.465 28.966 174.468L28.886 174.495C28.862 174.503 28.837 174.512 28.814 174.522L28.746 174.55C28.518 174.65 28.386 174.77 28.376 174.907C28.366 175.074 28.542 175.244 28.863 175.405L28.939 175.441C29.005 175.471 29.076 175.501 29.151 175.531L29.245 175.566L29.343 175.601L29.445 175.635L29.552 175.668L29.662 175.701L29.777 175.733L29.837 175.748L29.957 175.779L30.081 175.809L30.209 175.839L30.34 175.867L30.475 175.895L30.613 175.921L30.755 175.947L30.826 175.958L30.972 175.983L31.12 176.006L31.185 176.016C31.268 175.768 31.322 175.506 31.341 175.233C31.3659 174.886 31.3318 174.536 31.24 174.2L31.016 174.204Z" fill="white"/>
</mask>
<g mask="url(#mask22_656_286)">
<path fill-rule="evenodd" clip-rule="evenodd" d="M31.185 176.015C31.268 175.768 31.322 175.505 31.341 175.233C31.366 174.886 31.3318 174.536 31.24 174.2L31.016 174.203L30.87 174.208L30.727 174.214L30.587 174.221L30.45 174.229L30.316 174.239L30.25 174.244L30.121 174.256L29.996 174.27L29.936 174.276L29.816 174.292L29.756 174.3L29.642 174.317L29.532 174.335L29.426 174.354L29.324 174.374C29.2919 174.381 29.2599 174.388 29.228 174.396L29.136 174.42L29.092 174.431L29.006 174.456L28.966 174.468L28.886 174.494C28.862 174.504 28.836 174.512 28.814 174.522L28.746 174.55C28.517 174.652 28.386 174.771 28.377 174.907C28.365 175.074 28.542 175.245 28.863 175.405L28.939 175.441C29.005 175.471 29.075 175.501 29.151 175.531L29.244 175.566L29.342 175.601L29.445 175.635L29.551 175.668L29.662 175.701L29.777 175.733L29.836 175.749L29.956 175.779L30.081 175.809L30.209 175.839L30.34 175.867L30.475 175.895L30.613 175.921L30.755 175.947L30.826 175.958L30.972 175.983L31.121 176.005L31.185 176.015Z" stroke="#1F2A3B" stroke-width="2"/>
</g>
<mask id="mask23_656_286" style="mask-type:alpha" maskUnits="userSpaceOnUse" x="52" y="172" width="5" height="8">
<path d="M52.6951 176.222C52.6401 176.928 52.6201 177.934 52.6341 179.241L53.1141 179.286L54.0541 179.36L55.0041 179.431L56.4361 179.533C56.3761 178.243 56.3701 177.225 56.4211 176.482C56.4721 175.74 56.6221 174.644 56.8711 173.197L55.9301 173.131L54.9861 173.07L54.0491 173.01L53.1101 172.96C52.8881 174.428 52.7501 175.515 52.6961 176.222H52.6951Z" fill="white"/>
</mask>
<g mask="url(#mask23_656_286)">
<path fill-rule="evenodd" clip-rule="evenodd" d="M51.5601 180.026L57.3761 180.433L57.9331 172.467L52.1161 172.061L51.5601 180.026Z" fill="#FF6E61"/>
</g>
</svg>
