<svg width="215" height="215" xmlns="http://www.w3.org/2000/svg" xmlns:xlink="http://www.w3.org/1999/xlink">
    <defs>
        <path id="a" d="M0 0h185.292v185.291H0z"/>
        <path d="M92.646 0C41.479 0 0 41.48 0 92.646c0 51.167 41.479 92.646 92.646 92.646s92.646-41.48 92.646-92.646C185.292 41.479 143.812 0 92.646 0z" id="c"/>
        <path d="M92.646 0C41.479 0 0 41.48 0 92.646c0 51.167 41.479 92.646 92.646 92.646s92.646-41.48 92.646-92.646C185.292 41.479 143.812 0 92.646 0z" id="e"/>
        <path id="g" d="m11.245 82.03 33.373 6.953 8.847-7.252L66.277.779l-13.733 9.16L0 0z"/>
        <path id="i" d="m11.245 82.03 33.373 6.953 8.847-7.252L66.277.779l-13.733 9.16L0 0z"/>
        <path id="k" d="m11.245 82.03 33.373 6.953 8.847-7.252L66.277.779l-13.733 9.16L0 0z"/>
        <path id="m" d="m11.245 82.03 33.373 6.953 8.847-7.252L66.277.779l-13.733 9.16L0 0z"/>
        <path id="o" d="m11.245 82.03 33.373 6.953 8.847-7.252L66.277.779l-13.733 9.16L0 0z"/>
        <path id="q" d="m11.245 82.03 33.373 6.953 8.847-7.252L66.277.779l-13.733 9.16L0 0z"/>
    </defs>
    <g fill="none" fill-rule="evenodd">
        <g transform="translate(14.71 14.71)">
            <mask id="b" fill="#fff">
                <use xlink:href="#a"/>
            </mask>
            <path d="M185.292 92.646c0 51.167-41.48 92.645-92.646 92.645C41.479 185.291 0 143.813 0 92.646 0 41.479 41.479 0 92.646 0c51.166 0 92.646 41.48 92.646 92.646" fill="#E9EBF2" mask="url(#b)"/>
        </g>
        <g transform="translate(14.71 14.71)">
            <mask id="d" fill="#fff">
                <use xlink:href="#c"/>
            </mask>
            <path fill="#FAFAFC" mask="url(#d)" d="m66.375 47.347-8.652 1.838L44.74 10.379l8.627-4.19z"/>
        </g>
        <g transform="translate(14.71 14.71)">
            <mask id="f" fill="#fff">
                <use xlink:href="#e"/>
            </mask>
            <path stroke="#090F23" stroke-width=".75" mask="url(#f)" d="m66.375 47.347-8.652 1.838L44.74 10.379l8.627-4.19z"/>
        </g>
        <path d="m93.432 184.467-37.715 7.598a2.502 2.502 0 0 1-2.947-1.958L40.23 127.86a2.501 2.501 0 0 1 1.958-2.947l37.715-7.599a2.502 2.502 0 0 1 2.947 1.959l12.54 62.247a2.502 2.502 0 0 1-1.958 2.947" fill="#FCFCFC"/>
        <path d="m82.669 119.31 12.54 62.244a2.3 2.3 0 0 1-.345 1.74 2.27 2.27 0 0 1-1.469.987l-37.712 7.6a2.317 2.317 0 0 1-2.728-1.813l-12.54-62.245a2.287 2.287 0 0 1 .339-1.737c.343-.514.867-.87 1.47-.989l15.899-3.203.19-.037.18-.04.531-.104.19-.037.006-.003.19-.037 20.531-4.14c.163-.034.328-.047.492-.045a2.332 2.332 0 0 1 2.236 1.858m-2.804-2.179-20.628 4.16-.184.035-.184.035-.51.102-.19.038-.182.04-15.833 3.19a2.653 2.653 0 0 0-1.709 1.145 2.656 2.656 0 0 0-.397 2.018l12.542 62.25a2.681 2.681 0 0 0 3.163 2.106l37.718-7.603a2.657 2.657 0 0 0 1.707-1.144c.394-.598.54-1.312.398-2.018l-12.542-62.25a2.7 2.7 0 0 0-3.169-2.104" fill="#151233"/>
        <path d="m82.219 123.608-38.025 7.66a.58.58 0 0 1-.684-.454l-.762-3.78a.582.582 0 0 1 .455-.685l38.025-7.66a.58.58 0 0 1 .684.454l.762 3.78a.581.581 0 0 1-.455.685" fill="#FF6E61"/>
        <path d="m81.49 121.692.741 3.665a1.06 1.06 0 0 1-.163.806 1.06 1.06 0 0 1-.677.462l-36.928 7.44a1.078 1.078 0 0 1-1.27-.84l-.735-3.667a1.108 1.108 0 0 1 .155-.81c.161-.239.404-.404.685-.46l36.929-7.439a1.063 1.063 0 0 1 .806.164c.241.153.401.397.456.68m-1.339-1.21-36.928 7.44c-.38.075-.704.298-.916.62-.22.32-.291.705-.216 1.084l.736 3.667c.138.68.734 1.152 1.398 1.163a1.45 1.45 0 0 0 .309-.024l36.933-7.443c.378-.08.705-.296.916-.62a1.45 1.45 0 0 0 .217-1.083l-.739-3.673a1.457 1.457 0 0 0-1.71-1.13" fill="#151233"/>
        <path d="m92.198 181.55-35.83 7.219a1.513 1.513 0 0 1-1.782-1.184l-10.119-50.229a1.513 1.513 0 0 1 1.184-1.782l35.83-7.219a1.513 1.513 0 0 1 1.783 1.185l10.119 50.228a1.513 1.513 0 0 1-1.185 1.782" fill="#B9C5EF"/>
        <path fill="#FCFCFC" d="m90.193 178.266-33.248 6.697-9.226-45.797 33.247-6.698z"/>
        <path d="m60.504 160.245.36 1.777a3.069 3.069 0 0 1-.793.56c-.333.17-.671.29-1.01.362a2.83 2.83 0 0 1-1.35-.04 2.213 2.213 0 0 1-1.045-.646 2.293 2.293 0 0 1-.564-1.137 2.364 2.364 0 0 1 .076-1.265c.14-.393.388-.73.728-1.002a2.933 2.933 0 0 1 1.251-.562c.255-.051.5-.076.73-.067.17 0 .342.02.504.05.323.062.62.193.876.382l-.665.876c-.368-.249-.758-.333-1.16-.248-.387.077-.678.263-.856.545-.185.284-.24.625-.158 1.023.08.392.254.687.534.881.274.196.613.26.99.178.217-.041.422-.127.605-.247l.076-.054-.227-1.144 1.098-.222zm-1.181 1.235c-.13.076-.278.131-.43.159-.3.063-.55.02-.772-.135-.213-.151-.353-.383-.417-.704-.07-.332-.032-.596.115-.82.143-.217.366-.36.68-.422.368-.07.71.02 1.045.276l.108.089 1.005-1.317-.105-.082a2.49 2.49 0 0 0-1.108-.526 3.41 3.41 0 0 0-1.339.018 3.213 3.213 0 0 0-1.37.62 2.44 2.44 0 0 0-.817 1.123c-.16.444-.192.925-.09 1.42.097.498.313.926.63 1.274.314.342.714.585 1.176.724.242.068.5.108.763.11.229.003.473-.021.716-.067.365-.076.73-.202 1.091-.389a3.4 3.4 0 0 0 .913-.66l.053-.059-.443-2.195-1.654.328.25 1.235zM66.28 159.314c.138.665.053 1.22-.251 1.66-.298.437-.8.726-1.48.863-.68.138-1.251.06-1.703-.225-.442-.29-.735-.768-.87-1.427l-.494-2.45 1.313-.263.48 2.4c.074.38.207.642.384.795.189.161.425.217.699.16.281-.056.478-.195.583-.417.107-.215.123-.498.046-.884l-.48-2.4 1.282-.256.491 2.444zm-2.107-2.409.54 2.68c.068.312.059.542-.018.695-.074.144-.2.233-.39.27-.19.038-.343.01-.465-.094-.125-.11-.222-.325-.29-.636l-.54-2.68-1.857.371.546 2.727c.044.222.11.429.188.615.184.434.451.767.808.993.34.218.735.328 1.185.337a3.57 3.57 0 0 0 .722-.07c.756-.156 1.313-.483 1.657-.982.348-.501.445-1.13.297-1.869l-.546-2.726-1.837.37zM70.924 157.649l.174.87-1.987.397.179.896 2.353-.474.188.92-3.64.732-.886-4.426 3.542-.712.187.914-2.267.458.172.829 1.985-.404zm.438-.66-.294-1.471-4.097.826 1.005 4.978 4.181-.847-.294-1.47-2.352.472-.072-.338 1.993-.4-.285-1.418-1.994.4-.052-.275 2.26-.457zM76.623 157.9c.053.26.028.52-.074.768-.11.244-.305.469-.578.662-.288.192-.658.34-1.109.431a5.117 5.117 0 0 1-1.13.094 3.028 3.028 0 0 1-.824-.121l.216-.985c.222.056.453.1.702.116.308.026.593.013.86-.043.25-.049.408-.108.512-.18.175-.124.18-.282.159-.365-.018-.093-.083-.249-.344-.295a4.47 4.47 0 0 0-.662-.04 6.132 6.132 0 0 1-.933-.06 1.374 1.374 0 0 1-.655-.277c-.196-.145-.317-.364-.382-.67a1.271 1.271 0 0 1 .077-.777c.107-.25.3-.466.582-.655.279-.196.651-.339 1.102-.43.305-.064.623-.085.943-.085.263.003.504.036.723.1l-.193.974a2.941 2.941 0 0 0-1.297-.048c-.314.06-.514.16-.61.299a.387.387 0 0 0-.054.278c.017.092.09.246.34.288.14.027.356.035.653.03.366-.004.678.013.933.047.243.04.466.13.662.275.195.144.322.36.38.668m-1.001-1.216a5.546 5.546 0 0 0-.977-.048 4.906 4.906 0 0 1-.602-.03c-.1-.022-.107-.055-.112-.066a.09.09 0 0 1 .013-.07c.022-.031.107-.116.433-.183.386-.077.83-.051 1.31.08l.147.044.303-1.517-.123-.04a3.067 3.067 0 0 0-.925-.142 4.147 4.147 0 0 0-.999.087c-.49.1-.897.258-1.213.469-.319.219-.547.485-.677.781-.128.302-.158.62-.093.94.074.38.24.657.49.843.231.179.496.287.777.331.27.036.6.06.977.064.284 0 .494.012.616.03.107.02.116.059.117.079.006.012.01.038-.045.076-.05.035-.155.087-.404.135-.24.052-.505.063-.785.04a2.992 2.992 0 0 1-.78-.154l-.15-.05-.34 1.533.118.042c.278.103.622.164 1.025.178l.087.005c.37.001.738-.034 1.111-.106.484-.097.892-.255 1.205-.472.322-.228.553-.488.677-.781.129-.302.161-.613.094-.94-.073-.374-.236-.66-.487-.837a1.663 1.663 0 0 0-.788-.32M81.092 154.776l-1.38.276.706 3.475-1.315.263-.696-3.472-1.38.277-.195-.953 4.07-.821.19.955zm-4.586-.35.3 1.503 1.377-.282.7 3.477 1.863-.374-.7-3.477 1.38-.276-.307-1.502-4.613.93z" fill="#96A4EA"/>
        <path fill="#FCFCFC" d="m51.057 138.493-3.338.673-.086-3.991 3.351-.676zM56.079 137.482l-3.339.672-.085-3.991 3.35-.676zM61.291 136.432l-3.338.672-.086-3.991 3.351-.676zM66.623 135.358l-3.338.672-.086-3.991 3.351-.676zM74.349 185.146l-3.339.673-.085-3.992 3.35-.675zM79.37 184.135l-3.339.673-.085-3.992 3.351-.676zM84.583 183.085l-3.339.672-.085-3.991 3.35-.676zM89.915 182.01l-3.34.673-.085-3.992 3.352-.675z"/>
        <path d="M59.762 127.974a.768.768 0 0 1-.603.907l-8.331 1.68a.771.771 0 0 1-.579-.11.793.793 0 0 1-.328-.493.728.728 0 0 1 .119-.575.748.748 0 0 1 .485-.331l8.333-1.675a.541.541 0 0 1 .162-.019.768.768 0 0 1 .742.616m-.118-.8a1.155 1.155 0 0 0-.861-.162l-8.334 1.674c-.3.063-.554.234-.723.49a1.127 1.127 0 0 0-.17.858c.062.3.233.554.489.722a1.092 1.092 0 0 0 .858.17l8.331-1.68a1.137 1.137 0 0 0 .896-1.342c-.063-.3-.236-.56-.486-.73M75.323 124.843a.773.773 0 0 1-.11.578.8.8 0 0 1-.493.329l-8.334 1.674a.765.765 0 0 1-.904-.597.753.753 0 0 1 .111-.579.787.787 0 0 1 .492-.328l8.33-1.68a.777.777 0 0 1 .907.603m-.123-.798a1.127 1.127 0 0 0-.858-.17l-8.332 1.68a1.101 1.101 0 0 0-.725.483c-.169.255-.23.565-.17.858.063.3.236.56.485.732.186.12.399.186.618.186a.892.892 0 0 0 .244-.024l8.334-1.675c.3-.063.554-.234.723-.49.17-.255.233-.558.17-.858a1.134 1.134 0 0 0-.489-.722" fill="#0C0E2B"/>
        <path d="M103.818 66.016a3.532 3.532 0 0 1-5.909 2.612 3.533 3.533 0 1 1-4.675-4.647 3.533 3.533 0 0 1 6.847-1.488 3.531 3.531 0 0 1 3.736 3.523" fill="#FAFAFC"/>
        <path d="M103.818 66.016a3.532 3.532 0 0 1-5.909 2.612 3.533 3.533 0 1 1-4.675-4.647 3.533 3.533 0 0 1 6.847-1.488 3.531 3.531 0 0 1 3.736 3.523z" stroke="#08081C"/>
        <path d="M99.087 72.84a3.532 3.532 0 0 1 2.67-5.882 3.533 3.533 0 1 1 6.582.355 3.534 3.534 0 0 1-4.118 5.67 3.532 3.532 0 0 1-5.133-.141" fill="#FAFAFC"/>
        <path d="M99.087 72.84a3.532 3.532 0 0 1 2.67-5.882 3.533 3.533 0 1 1 6.582.355 3.534 3.534 0 0 1-4.118 5.67 3.532 3.532 0 0 1-5.133-.141z" stroke="#08081C"/>
        <path d="M106.18 65.831a3.532 3.532 0 0 1-4.976-.45 3.515 3.515 0 0 1-.814-2.416 3.533 3.533 0 1 1 .577-6.566 3.534 3.534 0 0 1 5.527 4.307 3.532 3.532 0 0 1-.315 5.126" fill="#FF6E61"/>
        <path d="M114.34 58.647a3.532 3.532 0 0 1-5.908 2.612 3.532 3.532 0 1 1-4.675-4.647 3.534 3.534 0 0 1 3.52-3.836c1.535 0 2.842.979 3.327 2.348a3.531 3.531 0 0 1 3.736 3.523" fill="#FAFAFC"/>
        <path d="M114.34 58.647a3.532 3.532 0 0 1-5.908 2.612 3.532 3.532 0 1 1-4.675-4.647 3.534 3.534 0 0 1 3.52-3.836c1.535 0 2.842.979 3.327 2.348a3.531 3.531 0 0 1 3.736 3.523z" stroke="#08081C"/>
        <path d="M109.61 65.472a3.532 3.532 0 0 1 2.67-5.884 3.533 3.533 0 1 1 6.582.355 3.534 3.534 0 0 1-4.118 5.67 3.532 3.532 0 0 1-5.133-.141" fill="#DCE2FF"/>
        <path d="M116.702 58.462a3.532 3.532 0 0 1-4.976-.45 3.514 3.514 0 0 1-.813-2.416 3.534 3.534 0 1 1 .577-6.566 3.533 3.533 0 0 1 5.527 4.307 3.531 3.531 0 0 1-.315 5.125" fill="#FAFAFC"/>
        <path d="M116.702 58.462a3.532 3.532 0 0 1-4.976-.45 3.514 3.514 0 0 1-.813-2.416 3.534 3.534 0 1 1 .577-6.566 3.533 3.533 0 0 1 5.527 4.307 3.531 3.531 0 0 1-.315 5.125z" stroke="#08081C"/>
        <path d="M113.058 72.565a3.531 3.531 0 0 1-.375-6.449 3.533 3.533 0 1 1 5.991-2.748 3.534 3.534 0 0 1 2.358 4.642 3.529 3.529 0 0 1-3.365 2.292 3.53 3.53 0 0 1-4.61 2.264" fill="#FAFAFC"/>
        <path d="M113.058 72.565a3.531 3.531 0 0 1-.375-6.449 3.533 3.533 0 1 1 5.991-2.748 3.534 3.534 0 0 1 2.358 4.642 3.529 3.529 0 0 1-3.365 2.292 3.53 3.53 0 0 1-4.61 2.264z" stroke="#08081C"/>
        <path d="M108.325 65.742a3.53 3.53 0 0 1 4.574 4.563 3.533 3.533 0 1 1-2.64 6.04 3.534 3.534 0 0 1-3.865-5.844 3.532 3.532 0 0 1 1.932-4.758" fill="#FAFAFC"/>
        <path d="M108.325 65.742a3.53 3.53 0 0 1 4.574 4.563 3.533 3.533 0 1 1-2.64 6.04 3.534 3.534 0 0 1-3.865-5.844 3.532 3.532 0 0 1 1.932-4.758z" stroke="#08081C"/>
        <path d="M112.403 74.842a3.531 3.531 0 0 1 4.714-4.417 3.533 3.533 0 1 1 5.947 2.843 3.533 3.533 0 0 1-5.971 3.666 3.531 3.531 0 0 1-4.69-2.092" fill="#FAFAFC"/>
        <path d="M112.403 74.842a3.531 3.531 0 0 1 4.714-4.417 3.533 3.533 0 1 1 5.947 2.843 3.533 3.533 0 0 1-5.971 3.666 3.531 3.531 0 0 1-4.69-2.092z" stroke="#08081C"/>
        <path d="M125.9 53.597a3.532 3.532 0 0 1-5.595-3.23 3.534 3.534 0 1 1 .995-6.516 3.534 3.534 0 0 1 5.24 4.65 3.531 3.531 0 0 1-.641 5.095" fill="#FAFAFC"/>
        <path d="M125.9 53.597a3.532 3.532 0 0 1-5.595-3.23 3.534 3.534 0 1 1 .995-6.516 3.534 3.534 0 0 1 5.24 4.65 3.531 3.531 0 0 1-.641 5.095z" stroke="#08081C"/>
        <path d="M117.6 53.803a3.532 3.532 0 0 1 6.325-1.315 3.534 3.534 0 1 1 3.596 5.524 3.534 3.534 0 0 1-7.007.02 3.53 3.53 0 0 1-2.914-4.228" fill="#FAFAFC"/>
        <path d="M117.6 53.803a3.532 3.532 0 0 1 6.325-1.315 3.534 3.534 0 1 1 3.596 5.524 3.534 3.534 0 0 1-7.007.02 3.53 3.53 0 0 1-2.914-4.228z" stroke="#08081C"/>
        <path d="M127.442 55.395a3.532 3.532 0 0 1-1.1-6.366 3.534 3.534 0 1 1 5.642-3.408 3.533 3.533 0 0 1-.217 7.003 3.532 3.532 0 0 1-4.325 2.77" fill="#6565B7"/>
        <path d="M130.278 69.87a3.532 3.532 0 0 1-5.595-3.23 3.534 3.534 0 1 1 .995-6.516 3.534 3.534 0 0 1 5.24 4.65 3.531 3.531 0 0 1-.64 5.096" fill="#FAFAFC"/>
        <path d="M130.278 69.87a3.532 3.532 0 0 1-5.595-3.23 3.534 3.534 0 1 1 .995-6.516 3.534 3.534 0 0 1 5.24 4.65 3.531 3.531 0 0 1-.64 5.096z" stroke="#08081C"/>
        <path d="M121.977 70.076a3.53 3.53 0 0 1 6.325-1.315 3.534 3.534 0 1 1 3.596 5.524 3.534 3.534 0 0 1-7.007.02 2.632 2.632 0 0 1-.202-.035 3.532 3.532 0 0 1-2.712-4.194" fill="#FAFAFC"/>
        <path d="M121.977 70.076a3.53 3.53 0 0 1 6.325-1.315 3.534 3.534 0 1 1 3.596 5.524 3.534 3.534 0 0 1-7.007.02 2.632 2.632 0 0 1-.202-.035 3.532 3.532 0 0 1-2.712-4.194z" stroke="#08081C"/>
        <path d="M131.82 71.668a3.531 3.531 0 0 1-1.1-6.366 3.534 3.534 0 1 1 5.641-3.408 3.534 3.534 0 0 1 2.868 4.346 3.529 3.529 0 0 1-3.085 2.658 3.53 3.53 0 0 1-4.324 2.77" fill="#FF6E61"/>
        <path d="M138.193 54.166a3.532 3.532 0 0 1 5.945-2.53 3.533 3.533 0 1 1 4.609 4.712 3.534 3.534 0 0 1-6.867 1.392 2.462 2.462 0 0 1-.205.006 3.531 3.531 0 0 1-3.482-3.58" fill="#FAFAFC"/>
        <path d="M138.193 54.166a3.532 3.532 0 0 1 5.945-2.53 3.533 3.533 0 1 1 4.609 4.712 3.534 3.534 0 0 1-6.867 1.392 2.462 2.462 0 0 1-.205.006 3.531 3.531 0 0 1-3.482-3.58z" stroke="#08081C"/>
        <path d="M143.019 47.408a3.532 3.532 0 0 1-2.751 5.845 3.533 3.533 0 1 1-6.576-.447 3.534 3.534 0 0 1 .145-5.205 3.53 3.53 0 0 1 4.051-.406 3.53 3.53 0 0 1 5.13.213" fill="#FAFAFC"/>
        <path d="M143.019 47.408a3.532 3.532 0 0 1-2.751 5.845 3.533 3.533 0 1 1-6.576-.447 3.534 3.534 0 0 1 .145-5.205 3.53 3.53 0 0 1 4.051-.406 3.53 3.53 0 0 1 5.13.213z" stroke="#08081C"/>
        <path d="M128.164 53.222a3.532 3.532 0 0 1 5.75 2.947 3.533 3.533 0 1 1-.669 6.557 3.533 3.533 0 0 1-5.466-4.383 3.53 3.53 0 0 1 .386-5.121" fill="#FAFAFC"/>
        <path d="M128.164 53.222a3.532 3.532 0 0 1 5.75 2.947 3.533 3.533 0 1 1-.669 6.557 3.533 3.533 0 0 1-5.466-4.383 3.53 3.53 0 0 1 .386-5.121z" stroke="#08081C"/>
        <path d="M136.01 72.517a3.532 3.532 0 0 1 5.75 2.947 3.532 3.532 0 1 1-.669 6.557 3.533 3.533 0 0 1-5.466-4.383 3.53 3.53 0 0 1 .386-5.121" fill="#FAFAFC"/>
        <path d="M136.01 72.517a3.532 3.532 0 0 1 5.75 2.947 3.532 3.532 0 1 1-.669 6.557 3.533 3.533 0 0 1-5.466-4.383 3.53 3.53 0 0 1 .386-5.121z" stroke="#08081C"/>
        <path d="M134.325 78.728a3.532 3.532 0 0 1-6.45-.385 3.533 3.533 0 1 1-2.026-6.272 3.534 3.534 0 0 1 6.767 1.814c.064.025.125.054.187.086a3.531 3.531 0 0 1 1.522 4.757" fill="#FAFAFC"/>
        <path d="M134.325 78.728a3.532 3.532 0 0 1-6.45-.385 3.533 3.533 0 1 1-2.026-6.272 3.534 3.534 0 0 1 6.767 1.814c.064.025.125.054.187.086a3.531 3.531 0 0 1 1.522 4.757z" stroke="#08081C"/>
        <path d="M139.336 73.335a3.532 3.532 0 0 1 5.944-2.53 3.534 3.534 0 1 1 4.609 4.712 3.534 3.534 0 0 1-3.574 3.787 3.528 3.528 0 0 1-3.292-2.394 2.748 2.748 0 0 1-.206.005 3.532 3.532 0 0 1-3.481-3.58" fill="#FAFAFC"/>
        <path d="M139.336 73.335a3.532 3.532 0 0 1 5.944-2.53 3.534 3.534 0 1 1 4.609 4.712 3.534 3.534 0 0 1-3.574 3.787 3.528 3.528 0 0 1-3.292-2.394 2.748 2.748 0 0 1-.206.005 3.532 3.532 0 0 1-3.481-3.58z" stroke="#08081C"/>
        <path d="M135.982 61.644a3.532 3.532 0 0 1 5.945-2.53 3.534 3.534 0 1 1 4.609 4.712 3.534 3.534 0 0 1-3.574 3.787 3.528 3.528 0 0 1-3.293-2.395 2.748 2.748 0 0 1-.205.006 3.532 3.532 0 0 1-3.482-3.58" fill="#FAFAFC"/>
        <path d="M135.982 61.644a3.532 3.532 0 0 1 5.945-2.53 3.534 3.534 0 1 1 4.609 4.712 3.534 3.534 0 0 1-3.574 3.787 3.528 3.528 0 0 1-3.293-2.395 2.748 2.748 0 0 1-.205.006 3.532 3.532 0 0 1-3.482-3.58z" stroke="#08081C"/>
        <path d="M132.989 69.194a3.532 3.532 0 0 1 5.944-2.53 3.534 3.534 0 1 1 4.609 4.712 3.534 3.534 0 0 1-3.574 3.787 3.528 3.528 0 0 1-3.292-2.394 2.475 2.475 0 0 1-.205.006 3.532 3.532 0 0 1-3.482-3.58" fill="#FAFAFC"/>
        <path d="M132.989 69.194a3.532 3.532 0 0 1 5.944-2.53 3.534 3.534 0 1 1 4.609 4.712 3.534 3.534 0 0 1-3.574 3.787 3.528 3.528 0 0 1-3.292-2.394 2.475 2.475 0 0 1-.205.006 3.532 3.532 0 0 1-3.482-3.58z" stroke="#08081C"/>
        <path d="M145.682 59.363a3.531 3.531 0 0 1 5.945-2.53 3.533 3.533 0 1 1 4.609 4.712 3.534 3.534 0 0 1-6.867 1.393 3.532 3.532 0 0 1-3.687-3.575" fill="#FAFAFC"/>
        <path d="M145.682 59.363a3.531 3.531 0 0 1 5.945-2.53 3.533 3.533 0 1 1 4.609 4.712 3.534 3.534 0 0 1-6.867 1.393 3.532 3.532 0 0 1-3.687-3.575z" stroke="#08081C"/>
        <path d="M158.155 67.41a3.532 3.532 0 0 1-3.478 5.445 3.532 3.532 0 1 1-6.465-1.287 3.534 3.534 0 0 1 4.882-5.026 3.53 3.53 0 0 1 5.061.87" fill="#FAFAFC"/>
        <path d="M158.155 67.41a3.532 3.532 0 0 1-3.478 5.445 3.532 3.532 0 1 1-6.465-1.287 3.534 3.534 0 0 1 4.882-5.026 3.53 3.53 0 0 1 5.061.87z" stroke="#08081C"/>
        <path d="M154.596 63.159a3.532 3.532 0 0 1-3.478 5.444 3.533 3.533 0 1 1-6.465-1.287 3.534 3.534 0 0 1 4.882-5.026 3.53 3.53 0 0 1 5.061.87" fill="#FAFAFC"/>
        <path d="M154.596 63.159a3.532 3.532 0 0 1-3.478 5.444 3.533 3.533 0 1 1-6.465-1.287 3.534 3.534 0 0 1 4.882-5.026 3.53 3.53 0 0 1 5.061.87z" stroke="#08081C"/>
        <path d="M172.37 159.002a3.531 3.531 0 0 1-6.334 1.267 3.533 3.533 0 1 1-3.554-5.551c.013-.1.03-.2.052-.3.424-1.903 1.343-3.016 3.248-2.593 1.498.334 3.53 1.485 3.706 2.927.067.009.133.02.202.036a3.531 3.531 0 0 1 2.68 4.214" fill="#FAFAFC"/>
        <path d="M172.37 159.002a3.531 3.531 0 0 1-6.334 1.267 3.533 3.533 0 1 1-3.554-5.551c.013-.1.03-.2.052-.3.424-1.903 1.343-3.016 3.248-2.593 1.498.334 3.53 1.485 3.706 2.927.067.009.133.02.202.036a3.531 3.531 0 0 1 2.68 4.214z" stroke="#08081C"/>
        <path d="M159.343 168.707a2.549 2.549 0 0 1-2.51 3.928 2.548 2.548 0 1 1-4.664-.928 2.55 2.55 0 0 1 3.522-3.627 2.548 2.548 0 0 1 3.652.627" fill="#FAFAFC"/>
        <path d="M159.343 168.707a2.549 2.549 0 0 1-2.51 3.928 2.548 2.548 0 1 1-4.664-.928 2.55 2.55 0 0 1 3.522-3.627 2.548 2.548 0 0 1 3.652.627z" stroke="#08081C"/>
        <path d="M185.183 167.503a3.532 3.532 0 0 1-6.12 2.067 3.534 3.534 0 1 1-4.236-5.05 3.533 3.533 0 0 1 6.954-.863c.066 0 .134.004.204.01a3.531 3.531 0 0 1 3.198 3.836" fill="#FAFAFC"/>
        <path d="M185.183 167.503a3.532 3.532 0 0 1-6.12 2.067 3.534 3.534 0 1 1-4.236-5.05 3.533 3.533 0 0 1 6.954-.863c.066 0 .134.004.204.01a3.531 3.531 0 0 1 3.198 3.836z" stroke="#08081C"/>
        <path fill="#FAFAFC" d="m164.476 68.53-13.97 93.041-13.416 10.115-37.47-8.174-13.617-94.1 58.48 10.693z"/>
        <path d="M160.879 70.565c-.12.734-13.891 86.312-14.029 86.921-.137.61-10.91 8.997-11.42 8.997-.508 0-35.077-7.384-35.123-7.694-.045-.31-12.41-87.3-12.26-87.925-.808-5.8 10.983-5.323 11.723 2.404-.148-8.772 8.457-4.942 9.789 1.98 1.978-12.176 11.325-1.156 10.95 2.203 1.022-10.49 11.488-1.841 11.913 2.364.71-8.377 10.63-5.747 10.127 1.958-.048.73 18.447-11.941 18.33-11.208" fill="#FAFAFC"/>
        <path d="M160.879 70.565c-.12.734-13.891 86.312-14.029 86.921-.137.61-10.91 8.997-11.42 8.997-.508 0-35.077-7.384-35.123-7.694-.045-.31-12.41-87.3-12.26-87.925-.808-5.8 10.983-5.323 11.723 2.404-.148-8.772 8.457-4.942 9.789 1.98 1.978-12.176 11.325-1.156 10.95 2.203 1.022-10.49 11.488-1.841 11.913 2.364.71-8.377 10.63-5.747 10.127 1.958-.048.73 18.447-11.941 18.33-11.208z" stroke="#090F23"/>
        <g>
            <g transform="translate(91.319 74.676)">
                <mask id="h" fill="#fff">
                    <use xlink:href="#g"/>
                </mask>
                <path fill="#DCE2FF" mask="url(#h)" d="m15.121 96.672-4.57.85L-.369-5.816l6.184-.85z"/>
            </g>
            <g transform="translate(91.319 74.676)">
                <mask id="j" fill="#fff">
                    <use xlink:href="#i"/>
                </mask>
                <path fill="#DCE2FF" mask="url(#j)" d="m25.587 97.597-3.462-.354-2.06-103.956 7.21.353z"/>
            </g>
            <g transform="translate(91.319 74.676)">
                <mask id="l" fill="#fff">
                    <use xlink:href="#k"/>
                </mask>
                <path fill="#DCE2FF" mask="url(#l)" d="m30.9 99.31-2.49-.689L31.782-4.974l7.962.689z"/>
            </g>
            <g transform="translate(91.319 74.676)">
                <mask id="n" fill="#fff">
                    <use xlink:href="#m"/>
                </mask>
                <path fill="#DCE2FF" mask="url(#n)" d="m39.022 99.692-4.16-.688L43.703-4.591l6.2.688z"/>
            </g>
            <g transform="translate(91.319 74.676)">
                <mask id="p" fill="#fff">
                    <use xlink:href="#o"/>
                </mask>
                <path fill="#DCE2FF" mask="url(#p)" d="m19.187 95.418-2.268 1.044L9.383-8.992l6.214-.477z"/>
            </g>
            <g transform="translate(91.319 74.676)">
                <mask id="r" fill="#fff">
                    <use xlink:href="#q"/>
                </mask>
                <path fill="#6565B7" mask="url(#r)" d="M52.37 8.69 71.464-5.83l-18 93.718-8.847 1.096z"/>
            </g>
        </g>
        <g>
            <path d="M60.51 123.384c-.304.71-1.549 1.311-2.962 1.311-2.543 0-2.827-2.455-2.827-2.455l1.68-4.42 2.817-.262 1.162 3.647 1.522-.276c-.742-3.84-2.394-12.093-2.273-12.128l-4.685.987s-.429 2.236-.916 4.893c-.89.232-2.002.516-2.374.61-.653.169.036 1.923.541 1.953.228.013.818-.073 1.395-.172-.25 1.41-.763 5.129-.763 5.129s.292 4.218 5.161 4.03c2.008 0 3.505-1.063 3.89-3.11l-1.368.263z" fill="#FAFAFC"/>
            <path d="M60.51 123.384c-.304.71-1.549 1.311-2.962 1.311-2.543 0-2.827-2.455-2.827-2.455l1.68-4.42 2.817-.262 1.162 3.647 1.522-.276c-.742-3.84-2.394-12.093-2.273-12.128l-4.685.987s-.429 2.236-.916 4.893c-.89.232-2.002.516-2.374.61-.653.169.036 1.923.541 1.953.228.013.818-.073 1.395-.172-.25 1.41-.763 5.129-.763 5.129s.292 4.218 5.161 4.03c2.008 0 3.505-1.063 3.89-3.11l-1.368.263z" stroke="#090F23" stroke-width=".75"/>
            <path d="M58.928 114.158c0 .764-.51 1.382-1.142 1.382-.63 0-1.141-.618-1.141-1.382 0-.762.51-1.38 1.141-1.38s1.142.618 1.142 1.38" fill="#FAFAFC"/>
            <path d="M58.928 114.158c0 .764-.51 1.382-1.142 1.382-.63 0-1.141-.618-1.141-1.382 0-.762.51-1.38 1.141-1.38s1.142.618 1.142 1.38zM49.813 106.302l-.126-3.897 11.81-.888s.072 1.99.108 4.051c-3.142 3.929-8.31 4.4-11.792.734z" stroke="#090F23" stroke-width=".75"/>
            <path d="m61.127 110.168-7.4 1.49a.611.611 0 0 1-.719-.478l-.143-.71a.61.61 0 0 1 .479-.719l7.399-1.49a.611.611 0 0 1 .72.477l.142.71a.611.611 0 0 1-.478.72" fill="#FAFAFC"/>
            <path d="m61.127 110.168-7.4 1.49a.611.611 0 0 1-.719-.478l-.143-.71a.61.61 0 0 1 .479-.719l7.399-1.49a.611.611 0 0 1 .72.477l.142.71a.611.611 0 0 1-.478.72z" stroke="#090F23" stroke-width=".75"/>
            <path d="M59.108 104.67h-7.692c-1.9-13.576-1.435-26.74.195-39.704h7.713c-1.713 6.73-1.745 21.86-.216 39.703" fill="#FAFAFC"/>
            <path d="M59.108 104.67h-7.692c-1.9-13.576-1.435-26.74.195-39.704h7.713c-1.713 6.73-1.745 21.86-.216 39.703z" stroke="#090F23" stroke-width=".75"/>
            <path d="M81.086 62.058c-9.38 1.56-21.269 5.444-30.182 8.988l.745-8.717c8.052-3.844 18.516-6.99 26.997-8.11l2.44 7.839z" fill="#FAFAFC"/>
            <path d="M81.086 62.058c-9.38 1.56-21.269 5.444-30.182 8.988l.745-8.717c8.052-3.844 18.516-6.99 26.997-8.11l2.44 7.839z" stroke="#090F23" stroke-width=".75"/>
            <path d="m50.838 74.903.295-3.707c2.26-.93 4.753-1.894 7.385-2.877l-7.68 6.584z" fill="#B9C5EF"/>
        </g>
    </g>
</svg>
