<?xml version="1.0" encoding="UTF-8"?>
<svg width="170px" height="170px" viewBox="0 0 170 170" version="1.1" xmlns="http://www.w3.org/2000/svg" xmlns:xlink="http://www.w3.org/1999/xlink">
    <g id="illustrations/experts" stroke="none" stroke-width="1" fill="none" fill-rule="evenodd">
        <g id="illustrations/light/network-expert" transform="translate(20.000000, 40.000000)">
            <g id="Group-7" transform="translate(49.000000, 27.000000)" fill="#8EA6F9" fill-rule="nonzero">
                <g id="group-copy">
                    <path d="M15.991513,5.31182048 C17.597287,5.31182048 18.8990609,4.1289507 18.8990609,2.66984829 C18.8990609,1.21074589 17.597287,0.0278761062 15.991513,0.0278761062 C14.3857391,0.0278761062 13.0839652,1.21074589 13.0839652,2.66984829 C13.0839652,4.1289507 14.3856696,5.31182048 15.991513,5.31182048 Z M15.991513,1.3488622 C16.7944348,1.3488622 17.445287,1.94026549 17.445287,2.66984829 C17.445287,3.3994311 16.7944348,3.99083439 15.991513,3.99083439 C15.1885913,3.99083439 14.5377391,3.3994311 14.5377391,2.66984829 C14.5377391,1.94026549 15.1885913,1.3488622 15.991513,1.3488622 Z" id="Shape"></path>
                    <path d="M17.0476522,5.7403287 C17.0347826,5.74051833 17.0219826,5.74083439 17.0091826,5.74115044 L14.973913,5.74115044 C12.7868522,5.68609355 10.9648,7.25252845 10.9042087,9.23982301 C10.9038609,9.25145386 10.9035826,9.26314791 10.9033043,9.27477876 L10.9033043,9.80316056 C10.9033043,10.1664349 11.3030957,10.3646018 11.702887,10.3646018 L20.2801391,10.3646018 C20.6799304,10.3646018 21.0797217,10.1664349 21.0797217,9.80316056 L21.0797217,9.27477876 C21.0403478,7.28704172 19.2351304,5.70461441 17.0476522,5.7403287 Z M12.4297739,9.04355247 C12.5024696,8.0528445 13.6291478,7.06207332 14.9738435,7.06207332 L17.009113,7.06207332 C18.3538783,7.06207332 19.4805565,8.05278129 19.5531826,9.04355247 L12.4297739,9.04355247 Z" id="Shape"></path>
                    <path d="M4.17961739,16.8043616 C4.58107826,16.8043616 4.90650435,16.5086599 4.90650435,16.1438685 C4.9042087,13.0884956 6.42824348,10.1973451 9.04973913,8.28400759 C9.33732174,8.02945638 9.34330435,7.61131479 9.06316522,7.35 C8.81947826,7.12269279 8.43227826,7.08501896 8.14114783,7.2602402 C5.1730087,9.41959545 3.44758261,12.6888748 3.45271895,16.1438685 C3.45271895,16.5086599 3.77815652,16.8043616 4.17961739,16.8043616 Z" id="Path"></path>
                    <path d="M19.533913,25.6822377 C19.5282087,25.6840708 19.5225043,25.6859671 19.5168696,25.6879267 C17.2407652,26.3802149 14.7785043,26.3802149 12.5024,25.6879267 C12.1211826,25.5799621 11.7154783,25.7716814 11.5938087,26.1172566 C11.4557217,26.4402655 11.632,26.8038559 11.9874783,26.92933 C12.0014609,26.9342604 12.0155826,26.9388116 12.029913,26.9428571 C14.6113391,27.7355879 17.4079304,27.7355879 19.989287,26.9428571 C20.3745391,26.817952 20.5829565,26.4392541 20.4617739,26.0841972 C20.3277913,25.7404551 19.9123478,25.5604298 19.533913,25.6822377 Z" id="Path"></path>
                    <path d="M22.3881043,7.92073325 C25.3320348,9.8039823 27.0815304,12.8724399 27.0765217,16.1438685 C27.0765217,16.5086599 27.4019478,16.8043616 27.8034087,16.8043616 C28.2048696,16.8043616 28.5302957,16.5086599 28.5302957,16.1438685 C28.5202087,12.44311 26.5439304,8.97458913 23.224,6.83091024 C22.8928,6.62117573 22.4372174,6.69506953 22.2063304,6.9960177 C21.975513,7.29696587 22.0569043,7.71099874 22.3881043,7.92073325 Z" id="Path"></path>
                    <path d="M5.0882087,23.4753477 C6.69398261,23.4753477 7.99575652,22.2924779 7.99575652,20.8333755 C7.99575652,19.3742731 6.69398261,18.1914033 5.0882087,18.1914033 C3.48243478,18.1914033 2.18066087,19.3742099 2.18066087,20.8333755 C2.18066087,22.2925411 3.48243478,23.4753477 5.0882087,23.4753477 Z M5.0882087,19.5123894 C5.89113043,19.5123894 6.54198261,20.1037927 6.54198261,20.8333755 C6.54198261,21.5629583 5.89113043,22.1543616 5.0882087,22.1543616 C4.28528696,22.1543616 3.63443478,21.5629583 3.63443478,20.8333755 C3.63443478,20.1037927 4.28528696,19.5123894 5.0882087,19.5123894 Z" id="Shape"></path>
                    <path d="M6.14434783,23.9038559 C6.13147826,23.9040455 6.11867826,23.9043616 6.10587826,23.9046776 L4.07053913,23.9046776 C1.88347826,23.8496207 0.061426087,25.4160556 0.000834782608,27.4033502 C0.000486956521,27.414981 0.000208695652,27.4266751 -6.95652177e-05,27.4383059 L-6.95652177e-05,27.9666877 C-6.95652177e-05,28.3299621 0.399721739,28.528129 0.799513043,28.528129 L9.37676522,28.528129 C9.77655652,28.528129 10.1763478,28.3299621 10.1763478,27.9666877 L10.1763478,27.4383059 C10.137113,25.4505689 8.33189565,23.8681416 6.14434783,23.9038559 Z M1.52646957,27.2070796 C1.59916522,26.2163717 2.72584348,25.2256005 4.07053913,25.2256005 L6.1058087,25.2256005 C7.45057391,25.2256005 8.57725217,26.2163085 8.64987826,27.2070796 L1.52646957,27.2070796 Z" id="Shape"></path>
                    <path d="M23.9872,20.8333755 C23.9872,22.2924779 25.2889739,23.4753477 26.8947478,23.4753477 C28.5005217,23.4753477 29.8022957,22.2924779 29.8022957,20.8333755 C29.8022957,19.3742731 28.5005217,18.1914033 26.8947478,18.1914033 C25.2889739,18.1914033 23.9872,19.3742099 23.9872,20.8333755 Z M28.3485217,20.8333755 C28.3485217,21.5629583 27.6976696,22.1543616 26.8947478,22.1543616 C26.0918261,22.1543616 25.4409739,21.5629583 25.4409739,20.8333755 C25.4409739,20.1037927 26.0918261,19.5123894 26.8947478,19.5123894 C27.6976696,19.5123894 28.3485217,20.1037927 28.3485217,20.8333755 Z" id="Shape"></path>
                    <path d="M27.950887,23.9038559 C27.9380174,23.9040455 27.9252174,23.9043616 27.9124174,23.9046776 L25.8771478,23.9046776 C23.690087,23.8496207 21.8680348,25.4160556 21.8074435,27.4033502 C21.8070957,27.414981 21.8068174,27.4266751 21.8065391,27.4383059 L21.8065391,27.9666877 C21.8065391,28.3299621 22.2063304,28.528129 22.6061217,28.528129 L31.1833739,28.528129 C31.5831652,28.528129 31.9829565,28.3299621 31.9829565,27.9666877 L31.9829565,27.4383059 C31.9436522,25.4505689 30.1384348,23.8681416 27.950887,23.9038559 Z M23.3330087,27.2070796 C23.4057043,26.2163717 24.5323826,25.2256005 25.8770783,25.2256005 L27.9123478,25.2256005 C29.257113,25.2256005 30.3837913,26.2163085 30.4564174,27.2070796 L23.3330087,27.2070796 Z" id="Shape"></path>
                </g>
            </g>
            <g id="Group-6" opacity="0.665736607" transform="translate(23.000000, 21.000000)" fill="#8EA6F9">
                <path d="M80.4152949,14.5417889 C80.7451096,13.9903359 81.2757068,13.4756732 82,13 C81.7854876,14.1777859 81.3102532,15.0955412 80.6298073,15.6336977 C80.4730199,15.7570648 80.2768141,15.8891296 80,16 C80.0023621,15.5602173 80.106149,15.0580512 80.4152949,14.5417889 Z" id="Path"></path>
                <path d="M77.9500444,32.3593776 C79.2750222,30.6303374 81.3027556,29.507946 84,29 C83.8721778,29.1970738 83.7416889,29.3888391 83.6083556,29.5832587 C82.6083556,31.0113798 81.5777778,32.1181779 80.5388444,32.8776086 C79.5027556,33.6343851 78.5249778,34 77.5472,34 C77.3694222,34 77.1861333,33.9870608 77,33.9611824 C77.2277333,33.4532365 77.5361778,32.9009986 77.9500444,32.3593776 Z" id="Path"></path>
                <path d="M70.30244,1.85533242 C69.748467,1.3309612 69.3144481,0.711834666 69,0 C70.5210782,0.904854748 71.5270823,1.82447846 71.8861778,2.66411581 C71.9310169,2.76691363 71.9701073,2.87775395 72,3 C71.4161344,2.7212907 70.8263286,2.34884968 70.30244,1.85533242 Z" id="Path"></path>
                <path d="M72.8410368,23 C71.5597921,22.4049418 70.511779,21.6051191 69.727927,20.6185263 C68.738896,19.3750471 68.1629204,17.8310914 68,16 C70.7058089,17.7670249 72.4310385,19.6078892 72.8777208,21.2027258 C73.0039571,21.6474681 73.0882945,22.2412853 72.8410368,23 Z" id="Path"></path>
                <path d="M11.1198241,21.2100166 C11.5637707,19.6151801 13.2915482,17.7681108 16,16 C15.8370937,17.8300055 15.2611679,19.3752022 14.2722225,20.6185263 C13.4884383,21.604964 12.4403359,22.4049418 11.1593819,23 C10.9119658,22.2450083 10.9962958,21.6524321 11.1198241,21.2100166 Z" id="Path"></path>
                <path d="M12.1108696,2.66981868 C12.4705243,1.83018132 13.4744885,0.907048158 15,0 C14.6882992,0.711688438 14.2536445,1.3309612 13.6992967,1.8541626 C13.1748721,2.34884968 12.5844629,2.7212907 12,3 C12.0299233,2.87994736 12.0688619,2.77027686 12.1108696,2.66981868 Z" id="Path"></path>
                <path d="M3.37487081,15.6367969 C2.6920124,15.1002399 2.21674295,14.1801853 2,13 C2.72434667,13.4756732 3.25498302,13.9903359 3.58482209,14.5417889 C3.89399085,15.0580512 3.99778532,15.5603172 4,16 C3.72552783,15.8898294 3.52945519,15.7594641 3.37487081,15.6367969 Z" id="Path"></path>
                <path d="M6.4528,34 C5.47502222,34 4.49724444,33.6345509 3.46115556,32.8776086 C2.42222222,32.1181779 1.39164444,31.0113798 0.391644444,29.5832587 C0.258311111,29.3888391 0.127822222,29.1944196 0,29 C2.69724444,29.507946 4.72497778,30.6303374 6.04995556,32.3592117 C6.46382222,32.9009986 6.76942222,33.4530706 7,33.9610166 C6.81404444,33.9868949 6.63057778,34 6.4528,34 Z" id="Path"></path>
                <path d="M15.3670152,51 C12.4928836,51 8.99588533,49.664328 5.25220911,47.140082 C4.81268128,46.8429384 4.39541315,46.5459423 4,46.2533679 C5.30907251,46.0851929 6.55804384,46 7.74367622,46 C11.7212816,46 15.0096459,46.9556938 17.5170995,48.8418772 C18.1146712,49.2931934 18.608027,49.7515845 19,50.1707691 C17.8366273,50.7259971 16.6317707,51 15.3670152,51 Z" id="Path"></path>
                <path d="M19.9328451,38.9186192 C19.7536263,40.3702072 19.2080962,41.7414086 18.3147413,43 C17.5739021,42.2688069 17.3010514,41.5430986 17.1593197,40.9779922 C16.6884212,39.0713367 17.2688707,36.2833416 18.8013878,33.1232367 C18.8200457,33.0831291 18.8388748,33.04285 18.8602715,33 C19.8017261,35.0915962 20.1627312,37.070754 19.9328451,38.9186192 Z" id="Path"></path>
                <path d="M34.7798547,54 C33.8942997,53.7831854 33.0297177,53.4211391 32.315071,52.8307658 C30.3801923,51.2233271 29.9201232,48.4767633 30.010709,46 C32.2523749,47.2938029 33.7479343,48.7074516 34.4766375,50.2294338 C35.0518355,51.4286294 35.1529079,52.6946848 34.7798547,54 Z" id="Path"></path>
                <path d="M49.897982,52.7353271 C49.4644998,53.3453626 48.904814,53.7416505 48.3190644,54 C48.0331247,53.049251 47.8520498,51.7935555 48.1617671,50.4174489 C48.5118755,48.8767567 49.4120674,47.4004738 50.8553313,46 C51.1458436,48.3891274 51.0792361,51.0742238 49.897982,52.7353271 Z" id="Path"></path>
                <path d="M64.067245,38.9186892 C63.8371595,37.0706842 64.1982089,35.0943028 65.1397792,33 L65.1425183,33.0053133 C66.7154543,36.2083848 67.3172033,39.0364391 66.8411111,40.9699712 C66.7021011,41.5376388 66.4292169,42.2660771 65.6855476,43 C64.792083,41.7412587 64.2464858,40.3700809 64.067245,38.9186892 Z" id="Path"></path>
                <path d="M78.0106847,47.0623175 C76.4706779,48.2719497 74.9552243,49.2258826 73.5111501,49.8940337 C71.9218617,50.6267732 70.4556897,51 69.1485868,51 C68.0524654,51 67.0084317,50.7258678 66,50.1705253 C66.3398853,49.7511428 66.7644789,49.2926829 67.2851804,48.8410063 C69.4583069,46.9539328 72.3082226,46 75.7554806,46 C76.7830287,46 77.8654705,46.0828737 79,46.2511281 C78.6874739,46.5208364 78.3560067,46.7927567 78.0106847,47.0623175 Z" id="Path"></path>
            </g>
            <path d="M2,0 L20.0650541,0 L20.0650541,0 L129,0 C130.104569,-2.02906125e-16 131,0.8954305 131,2 L131,86 C131,87.1045695 130.104569,88 129,88 L2,88 C0.8954305,88 1.3527075e-16,87.1045695 0,86 L0,2 C-1.3527075e-16,0.8954305 0.8954305,2.02906125e-16 2,0 Z" id="Rectangle-2" stroke="#000000" stroke-width="2"></path>
            <polygon id="Path" fill="#000000" fill-rule="nonzero" points="130.944605 9.68510467 130.94525 11.6342833 1.00064434 11.6930134 1 9.74383478"></polygon>
            <circle id="Oval" fill="#000000" cx="7.49726248" cy="5.62431562" r="1.62431562"></circle>
            <circle id="Oval" fill="#000000" cx="13.994525" cy="5.62431562" r="1.62431562"></circle>
            <circle id="Oval" fill="#000000" cx="20.4917874" cy="5.62431562" r="1.62431562"></circle>
        </g>
    </g>
</svg>
