<?xml version="1.0" encoding="UTF-8"?>
<svg width="380px" height="380px" viewBox="0 0 380 380" version="1.1" xmlns="http://www.w3.org/2000/svg" xmlns:xlink="http://www.w3.org/1999/xlink">
    <g id="Illustrations/Light/380px/feature_key2" stroke="none" stroke-width="1" fill="none" fill-rule="evenodd">
        <g id="Group-7" transform="translate(21.000000, 20.000000)">
            <g id="example-scene-1" transform="translate(160.895833, 0.000000)">
                <g id="Middle_ground">
                    <rect id="Rectangle" stroke="#000000" fill-rule="nonzero" x="0.964665033" y="0.576402975" width="109.39951" height="169.231913" rx="2"></rect>
                    <ellipse id="Oval" stroke="#000000" fill-rule="nonzero" cx="55.6644199" cy="49.9164976" rx="28.619281" ry="28.5895876"></ellipse>
                    <g id="Group-14-Copy-2" transform="translate(43.916667, 34.100000)">
                        <polygon id="Clip-74" fill="#FF6E61" points="11.7703243 25.5501693 0 19.9896552 0 26.1877618 11.7703243 31.7482759 23.5416667 26.1877618 23.5416667 19.9896552"></polygon>
                        <path d="M23.0416667,13.7236497 L23.0416667,18.8157996 L11.7703336,24.1401207 L0.5,18.8158113 L0.5,13.7236789 L11.7703151,19.0479796 L23.0416667,13.7236497 Z" id="Clip-74" stroke="#000000"></path>
                        <polygon id="Fill-76" points="11.7708333 6.46724138 0 11.7590882 11.7708333 17.05 23.5416667 11.7590882"></polygon>
                        <path d="M23.0416667,6.66847732 L23.0416667,11.7606272 L11.7703336,17.0849483 L0.5,11.7606389 L0.5,6.66850647 L11.7703151,11.9928071 L23.0416667,6.66847732 Z" id="Clip-74" stroke="#000000"></path>
                        <polygon id="Fill-76" fill="#000000" points="11.7708333 0 0 5.29184679 11.7708333 10.5827586 23.5416667 5.29184679"></polygon>
                    </g>
                    <line x1="24.1041667" y1="103.887255" x2="91.1041667" y2="103.887255" id="Path" stroke="#000000" stroke-linecap="round"></line>
                    <line x1="24.1041667" y1="114.954192" x2="91.1041667" y2="114.954192" id="Path" stroke="#000000" stroke-linecap="round"></line>
                    <line x1="24.1041667" y1="126.021129" x2="91.1041667" y2="126.021129" id="Path" stroke="#000000" stroke-linecap="round"></line>
                    <line x1="24.1041667" y1="137.088066" x2="91.1041667" y2="137.088066" id="Path" stroke="#000000" stroke-linecap="round"></line>
                </g>
                <g id="Man" transform="translate(105.125000, 71.727586)">
                    <path d="M8.1763019,100.610248 C7.01073725,106.165097 -2.04549687,175.246985 0.723295065,191.704435 C3.492087,208.161884 48.6358344,242.646132 50.6122267,243.249019 C52.9157141,241.560013 56.3064477,236.023573 56.3064477,236.023573 C56.3064477,236.023573 23.2053328,197.69189 22.5741772,196.154757 C21.9430216,194.617624 27.8049471,106.568545 27.8049471,106.568545 L8.1763019,100.610248 Z" id="Path" stroke="#000000" fill-rule="nonzero"></path>
                    <polyline id="Path" stroke="#000000" fill-rule="nonzero" points="32.8537712 229.668983 27.7247752 250.939287 16.3501541 250.939287 19.0705557 217.058613"></polyline>
                    <polyline id="Path" stroke="#000000" fill-rule="nonzero" points="60.9676639 113.078712 36.8295936 213.180971 60.3358064 113.078712"></polyline>
                    <path d="M70.8875234,43.8773276 C75.2825775,52.4282059 71.140907,91.951857 68.4089709,93.4843879 C66.9347389,94.3081808 66.5339321,93.5073989 66.1054834,95.1825979 C65.6770347,96.8577969 61.4985085,113.329744 61.4985085,113.329744 C58.8448909,113.402688 20.1555154,107.580911 7.59690167,100.774265 C7.67061327,98.8827627 8.27873397,93.9630162 8.27873397,93.5856362 C6.61100904,94.2667611 4.59315401,94.4094291 4.04031702,93.5856362 C-0.861504314,86.1715 6.44515794,47.5176638 11.6878954,39.7399542 C13.9176713,36.4033628 30.0282627,34.5624848 37.50999,34.5394738 C42.1722486,34.5394738 66.4924693,35.3264492 70.8875234,43.8773276 Z M15.1661615,73.2301275 C12.9778484,74.3760741 10.0293844,79.5627479 10.6328982,80.7639208 C10.7975798,81.2054895 11.1537548,81.5486837 11.6014347,81.6971593 C12.0491147,81.8456348 12.5400369,81.783385 12.9363856,81.5278852 C13.5306854,81.145903 17.9672023,74.6430014 20.031127,74.9743595 C21.2151196,75.1630495 17.3544746,72.084181 15.1661615,73.2301275 Z" id="Combined-Shape" fill="#000000" fill-rule="nonzero"></path>
                    <path d="M43.5313062,25.0489296 L43.5313062,39.049625 C43.5313062,40.5499405 31.6867736,40.5499405 31.6867736,39.049625 L31.6867736,27.9053675" id="Path" stroke="#000000" fill-rule="nonzero"></path>
                    <path d="M35.114363,5.54564503 C41.0686967,5.54564503 45.9681196,10.0575688 46.5734904,15.8456357 C47.6488624,16.1869742 48.4285206,17.1931156 48.4285206,18.381167 C48.4285206,19.8502824 47.3979254,21.0682701 45.9272842,21.0682701 C45.9235857,21.0682701 45.919888,21.0682624 45.916191,21.068247 C44.2864827,25.4467442 40.0650513,28.5658246 35.114363,28.5658246 C28.7509136,28.5658246 23.5923187,23.4125819 23.5923187,17.0557348 C23.5923187,10.6988878 28.7509136,5.54564503 35.114363,5.54564503 Z" id="Combined-Shape" stroke="#000000" fill-rule="nonzero"></path>
                    <path d="M31.7333005,0.230109752 C25.4997553,0.230109752 21.6159264,4.05276247 21.6159264,8.95201837 C21.6159264,13.0260366 22.6257219,15.3310108 23.8151445,15.9143685 C24.5676363,11.9589189 26.2036992,10.1282192 27.5581845,9.34092349 C28.6116731,10.1282192 30.4127987,12.0348028 32.8207726,12.6229032 C35.2287465,13.2110037 41.4962753,13.0971778 46.5598171,16.6921787 C48.2152992,15.2219277 49.8659264,13.3106013 49.8659264,11.0577973 C49.8659264,8.80499327 48.8464213,5.97831707 42.8507606,4.34681268 C38.8892552,3.27020949 38.3358096,0.230109752 31.7333005,0.230109752 Z" id="Path" fill="#000000" fill-rule="nonzero"></path>
                    <ellipse id="Oval" fill="#FF6E61" fill-rule="nonzero" cx="24.3478626" cy="19.4258653" rx="2.01785502" ry="1.04930047"></ellipse>
                    <ellipse id="Oval" fill="#FF6E61" fill-rule="nonzero" cx="37.0400785" cy="19.4258653" rx="2.01785502" ry="1.04930047"></ellipse>
                    <path d="M29.2773257,17.249027 C28.8995538,17.7874838 26.9738383,20.0471616 29.0055142,20.9583962" id="Path" stroke="#000000" stroke-width="0.5" stroke-linecap="round"></path>
                    <path d="M33.0734731,23.6000562 C33.6815938,23.6000562 34.6168097,22.8452962 35.109756,22.1687735" id="Path" stroke="#000000" stroke-width="0.5" stroke-linecap="round"></path>
                    <path d="M53.7910394,57.1868756 C53.5837255,59.7272873 52.7728979,72.2820754 53.0769583,73.9342634 C49.2117063,75.2781043 13.8209248,92.0439009 7.69825512,93.8847789" id="Path" stroke="#FFFFFF" stroke-width="0.5" stroke-linecap="round"></path>
                    <path d="M12.687609,53.2243857 C11.8721744,56.0685422 9.12641735,68.9776993 11.0567399,74.9743595" id="Path" stroke="#FFFFFF" stroke-width="0.5" stroke-linecap="round"></path>
                    <path d="M21.7218868,88.012378 C23.5646768,89.3055948 41.2278187,97.1155198 65.6493929,94.170115" id="Path" stroke="#FFFFFF" stroke-width="0.5" stroke-linecap="round"></path>
                    <path d="M55.9286758,236.589643 C56.5598313,237.049862 62.1573059,240.832867 62.2033756,243.216804 C62.2494454,245.600741 56.98828,253.50271 55.9286758,253.728217 C54.8690715,253.953725 54.1135276,253.060899 54.1135276,251.463937 C54.1135276,249.866976 56.1129548,247.068841 55.8457502,245.826248 C55.5785457,244.583656 52.9940327,242.310171 51.6672239,242.268752" id="Path" fill="#000000" fill-rule="nonzero"></path>
                    <path d="M26.646743,250.939287 C26.646743,252.034609 27.2825056,258.910289 26.0109805,259.549994 C24.7394554,260.189699 10.7066098,260.567079 10.0708472,259.931976 C9.43508467,259.296873 9.04809878,257.957634 9.61014972,257.575652 C10.1722007,257.19367 15.5992171,256.107552 16.3363331,255.601311 C17.0734491,255.095069 18.0915906,252.379774 17.7184256,250.939287" id="Path" fill="#000000" fill-rule="nonzero"></path>
                </g>
            </g>
            <g id="Group-67" transform="translate(0.000000, 119.937931)"></g>
            <g id="Group-49" transform="translate(32.958333, 190.489655)">
                <path d="M101.027805,1.14447643 L17.2990796,1.14447643 C8.06740061,1.14447643 0.588337226,8.72354855 0.588337226,18.0687604 L0.588337226,105.927928 C0.588337226,115.27314 8.06740061,122.852212 17.2990796,122.852212 L101.027805,122.852212 C110.25985,122.852212 117.740592,115.272768 117.740592,105.927928 L117.740592,18.0687604 C117.740592,8.72392105 110.25985,1.14447643 101.027805,1.14447643 Z M17.2990796,2.3203385 L101.027805,2.3203385 C109.606009,2.3203385 116.563508,9.36963751 116.563508,18.0687604 L116.563508,105.927928 C116.563508,114.627051 109.606009,121.67635 101.027805,121.67635 L17.2990796,121.67635 C8.72128903,121.67635 1.76542056,114.627469 1.76542056,105.927928 L1.76542056,18.0687604 C1.76542056,9.36921964 8.72128903,2.3203385 17.2990796,2.3203385 Z" id="Fill-7" fill="#000000" fill-rule="nonzero"></path>
                <path d="M8.18584107,122.124858 C8.18584107,122.124858 8.18584107,121.06717 8.18584107,118.951794 C10.5661033,120.424769 12.3969529,121.332954 13.67839,121.67635 C15.703163,122.218944 8.18584107,122.124858 8.18584107,122.124858 Z" id="Fill-1" fill="#000000"></path>
                <path d="M103.182901,126.993515 C100.498777,126.993515 98.3202388,124.812291 98.3202388,122.124858 C101.690016,122.16833 104.025742,122.018828 105.327417,121.67635 C106.705755,121.313703 108.390049,120.39964 110.380298,118.934163 L110.380298,122.124858 C110.380298,124.812291 108.203815,126.993515 105.517636,126.993515 L103.182901,126.993515 Z" id="Fill-4" fill="#000000"></path>
                <g id="Group-9"></g>
                <path d="M14.125,103.065837 L14.125,19.2258777 C14.125,16.3983307 16.3924147,14.1103448 19.1879413,14.1103448 L99.6974754,14.1103448 C102.495041,14.1103448 104.760417,16.3983307 104.760417,19.2238183 L104.760417,103.065837 C104.760417,105.891324 102.495041,108.17931 99.6974754,108.17931 L19.1879413,108.17931 C16.3903757,108.17931 14.125,105.891324 14.125,103.065837" id="Fill-12" stroke="#000000"></path>
                <g id="Group" transform="translate(20.010417, 45.858621)" fill="#FF6E61">
                    <path d="M15.3030883,0 C23.7525476,0 30.6041667,6.84549072 30.6041667,15.2862069 C30.6041667,23.7289788 23.7525476,30.5724138 15.3030883,30.5724138 C6.85161911,30.5724138 0,23.7289788 0,15.2862069 C0,6.84549072 6.85161911,0 15.3030883,0 Z M15.3031562,8.23103448 C11.4023131,8.23103448 8.23958333,11.3898376 8.23958333,15.2862069 C8.23958333,19.1825762 11.4023131,22.3413793 15.3031562,22.3413793 C19.2018536,22.3413793 22.3645833,19.1825762 22.3645833,15.2862069 C22.3645833,11.3898376 19.2018536,8.23103448 15.3031562,8.23103448 Z" id="Combined-Shape"></path>
                </g>
                <path d="M35.3125,49.3862069 C41.8136816,49.3862069 47.0833333,54.6500736 47.0833333,61.1448276 C47.0833333,67.6395816 41.8136816,72.9034483 35.3125,72.9034483 C28.8091578,72.9034483 23.5416667,67.6395816 23.5416667,61.1448276 C23.5416667,54.6500736 28.8091578,49.3862069 35.3125,49.3862069 Z M35.3135728,54.0896552 C31.4127298,54.0896552 28.25,57.2484583 28.25,61.1448276 C28.25,65.0411969 31.4127298,68.2 35.3135728,68.2 C39.2122702,68.2 42.375,65.0411969 42.375,61.1448276 C42.375,57.2484583 39.2122702,54.0896552 35.3135728,54.0896552 Z" id="Fill-21" stroke="#000000"></path>
                <path d="M35.3125,52.9137931 L35.3125,52.9137931 C35.0794375,52.9137931 34.8934583,52.687517 34.8934583,52.4090234 L34.8934583,49.8909766 C34.8934583,49.612483 35.0794375,49.3862069 35.3125,49.3862069 C35.5432083,49.3862069 35.7315417,49.612483 35.7315417,49.8909766 L35.7315417,52.4090234 C35.7315417,52.687517 35.5432083,52.9137931 35.3125,52.9137931" id="Fill-24" fill="#000000"></path>
                <path d="M42.1007264,55.5812902 L42.1007264,55.5812902 C41.8677848,55.5814111 41.6820196,55.355114 41.6821643,55.0764757 L41.6834719,52.5571213 C41.6836165,52.2784831 41.8696167,52.051993 42.1025583,52.051872 C42.3331469,52.0517524 42.5212651,52.2780483 42.5211205,52.5566866 L42.5198128,55.0760409 C42.5196682,55.3546792 42.3313151,55.5811705 42.1007264,55.5812902" id="Fill-24" fill="#000000" transform="translate(42.101642, 53.816581) rotate(45.000000) translate(-42.101642, -53.816581) "></path>
                <path d="M27.9757264,69.6916351 L27.9757264,69.6916351 C27.7427848,69.6917559 27.5570196,69.4654588 27.5571643,69.1868205 L27.5584719,66.6674662 C27.5586165,66.3888279 27.7446167,66.1623378 27.9775583,66.1622169 C28.2081469,66.1620972 28.3962651,66.3883931 28.3961205,66.6670314 L28.3948128,69.1863858 C28.3946682,69.465024 28.2063151,69.6915153 27.9757264,69.6916351" id="Fill-24-Copy-3" fill="#000000" transform="translate(27.976642, 67.926926) rotate(45.000000) translate(-27.976642, -67.926926) "></path>
                <path d="M27.2432879,55.937046 L27.2419802,53.4176916 C27.2418356,53.1390534 27.4276008,52.9127563 27.6605424,52.9128771 C27.891131,52.9129968 28.0794842,53.1394881 28.0796288,53.4181264 L28.0809364,55.9374808 C28.0810811,56.216119 27.8929629,56.4424149 27.6623743,56.4422953 C27.4294327,56.4421744 27.2434325,56.2156843 27.2432879,55.937046 Z" id="Fill-24-Copy-3" fill="#000000" transform="translate(27.661458, 54.677586) rotate(-45.000000) translate(-27.661458, -54.677586) "></path>
                <path d="M41.2673101,69.9465178 L41.2660024,67.4271634 C41.2658578,67.1485252 41.451623,66.9222281 41.6845646,66.9223489 C41.9151532,66.9224686 42.1035064,67.1489599 42.103651,67.4275982 L42.1049586,69.9469526 C42.1051033,70.2255909 41.9169851,70.4518868 41.6863965,70.4517671 C41.4534549,70.4516462 41.2674547,70.2251561 41.2673101,69.9465178 Z" id="Fill-24-Copy-4" fill="#000000" transform="translate(41.685481, 68.687058) rotate(-45.000000) translate(-41.685481, -68.687058) "></path>
                <path d="M35.3125,72.9034483 L35.3125,72.9034483 C35.0794375,72.9034483 34.8934583,72.6771722 34.8934583,72.3986785 L34.8934583,69.8806318 C34.8934583,69.6021382 35.0794375,69.3758621 35.3125,69.3758621 C35.5432083,69.3758621 35.7315417,69.6021382 35.7315417,69.8806318 L35.7315417,72.3986785 C35.7315417,72.6771722 35.5432083,72.9034483 35.3125,72.9034483" id="Fill-24-Copy" fill="#000000"></path>
                <path d="M45.3177083,63.4983836 L45.3177083,63.4983836 C45.0848876,63.4983836 44.8991014,63.2718725 44.8991014,62.9930896 L44.8991014,60.4724276 C44.8991014,60.1936447 45.0848876,59.9671336 45.3177083,59.9671336 C45.5481773,59.9671336 45.7363152,60.1936447 45.7363152,60.4724276 L45.7363152,62.9930896 C45.7363152,63.2718725 45.5481773,63.4983836 45.3177083,63.4983836" id="Fill-24-Copy" fill="#000000" transform="translate(45.317708, 61.732759) rotate(90.000000) translate(-45.317708, -61.732759) "></path>
                <path d="M25.3072917,63.4983836 L25.3072917,63.4983836 C25.074471,63.4983836 24.8886848,63.2718725 24.8886848,62.9930896 L24.8886848,60.4724276 C24.8886848,60.1936447 25.074471,59.9671336 25.3072917,59.9671336 C25.5377606,59.9671336 25.7258986,60.1936447 25.7258986,60.4724276 L25.7258986,62.9930896 C25.7258986,63.2718725 25.5377606,63.4983836 25.3072917,63.4983836" id="Fill-24-Copy-2" fill="#000000" transform="translate(25.307292, 61.732759) rotate(90.000000) translate(-25.307292, -61.732759) "></path>
                <path d="M89.4583333,62.3206897 C89.4583333,57.7761333 85.7708065,54.0896552 81.21875,54.0896552 C76.6688177,54.0896552 72.9791667,57.7761333 72.9791667,62.3206897 C72.9791667,66.865246 76.6688177,70.5517241 81.21875,70.5517241 C85.7708065,70.5517241 89.4583333,66.865246 89.4583333,62.3206897" id="Fill-40" stroke="#000000"></path>
                <path d="M85.9270833,62.3196714 C85.9270833,59.7230502 83.8183394,57.6172414 81.2197456,57.6172414 C78.6191606,57.6172414 76.5104167,59.7230502 76.5104167,62.3196714 C76.5104167,64.9162925 78.6191606,67.0241379 81.2197456,67.0241379 C83.8183394,67.0241379 85.9270833,64.9162925 85.9270833,62.3196714" id="Fill-42" fill="#000000"></path>
                <path d="M81.21875,81.1344828 L81.21875,81.1344828 C79.9186878,81.1344828 78.8645833,79.7423135 78.8645833,78.0258555 L78.8645833,63.0775928 C78.8645833,61.3611348 79.9186878,59.9689655 81.21875,59.9689655 C82.5203399,59.9689655 83.5729167,61.3611348 83.5729167,63.0775928 L83.5729167,78.0258555 C83.5729167,79.7423135 82.5203399,81.1344828 81.21875,81.1344828" id="Fill-44" fill="#000000"></path>
                <polygon id="Fill-46" fill="#000000" points="11.7708333 38.8034483 15.3020833 38.8034483 15.3020833 22.3413793 11.7708333 22.3413793"></polygon>
                <polygon id="Fill-48" fill="#000000" points="11.7708333 101.124138 15.3020833 101.124138 15.3020833 84.662069 11.7708333 84.662069"></polygon>
            </g>
            <g id="Group-66" transform="translate(0.000000, 118.762069)">
                <g id="Group-6" transform="translate(0.795327, 194.307817)">
                    <g id="Group-5" transform="translate(0.000000, 12.953504)">
                        <path d="M59.765005,1.51100817 L59.765005,11.0799469 C59.765005,11.9079607 59.1040633,12.5886161 58.2586186,12.5886161 L1.50638641,12.5886161 C1.1000124,12.5886161 0.752025463,12.4365797 0.481109458,12.1816263 C0.179832176,11.9079607 -2.71819604e-13,11.515005 -2.71819604e-13,11.0799469 L-2.71819604e-13,1.51100817 C-2.71819604e-13,0.680655385 0.663277116,-1.56656297e-14 1.50638641,-1.56656297e-14 L58.2586186,-1.56656297e-14 C59.1040633,-1.56656297e-14 59.765005,0.680655385 59.765005,1.51100817" id="Fill-2" stroke="#000000"></path>
                        <polygon id="Fill-8" fill="#000000" points="0.873470569 12.5830024 3.63868221 12.5830024 3.63868221 0.00608145705 0.873470569 0.00608145705"></polygon>
                        <polygon id="Fill-9" fill="#000000" points="5.86439732 12.5830024 8.62960896 12.5830024 8.62960896 0.00608145705 5.86439732 0.00608145705"></polygon>
                        <polygon id="Fill-10" fill="#000000" points="10.8553241 12.5830024 13.6205357 12.5830024 13.6205357 0.00608145705 10.8553241 0.00608145705"></polygon>
                        <polygon id="Fill-11" fill="#000000" points="15.8485863 12.5830024 18.6137979 12.5830024 18.6137979 0.00608145705 15.8485863 0.00608145705"></polygon>
                        <polygon id="Fill-12" fill="#000000" points="20.8395131 12.5830024 23.6047247 12.5830024 23.6047247 0.00608145705 20.8395131 0.00608145705"></polygon>
                        <polygon id="Fill-13" fill="#000000" points="25.8304398 12.5830024 28.5956515 12.5830024 28.5956515 0.00608145705 25.8304398 0.00608145705"></polygon>
                        <polygon id="Fill-14" fill="#000000" points="30.8237021 12.5830024 33.5889137 12.5830024 33.5889137 0.00608145705 30.8237021 0.00608145705"></polygon>
                        <polygon id="Fill-15" fill="#000000" points="35.8146288 12.5830024 38.5798404 12.5830024 38.5798404 0.00608145705 35.8146288 0.00608145705"></polygon>
                        <polygon id="Fill-16" fill="#000000" points="40.8055556 12.5830024 43.5707672 12.5830024 43.5707672 0.00608145705 40.8055556 0.00608145705"></polygon>
                        <polygon id="Fill-17" fill="#000000" points="45.7988178 12.5830024 48.5640294 12.5830024 48.5640294 0.00608145705 45.7988178 0.00608145705"></polygon>
                        <polygon id="Fill-18" fill="#000000" points="50.7897445 12.5830024 53.5549562 12.5830024 53.5549562 0.00608145705 50.7897445 0.00608145705"></polygon>
                        <polygon id="Fill-19" fill="#000000" points="55.7830068 12.5830024 58.5482184 12.5830024 58.5482184 0.00608145705 55.7830068 0.00608145705"></polygon>
                    </g>
                    <g id="Group-4" transform="translate(7.161524, 0.000000)">
                        <path d="M59.7673404,11.0799469 C59.7673404,11.9079607 59.1040633,12.5862771 58.2586186,12.5862771 L1.50872189,12.5862771 C1.10234788,12.5862771 0.754360946,12.4365797 0.48344494,12.1792872 C0.182167659,11.9079607 -2.21637523e-13,11.515005 -2.21637523e-13,11.0799469 L-2.21637523e-13,1.50866915 C-2.21637523e-13,0.680655385 0.663277116,2.48561325e-13 1.50872189,2.48561325e-13 L58.2586186,2.48561325e-13 C59.1040633,2.48561325e-13 59.7673404,0.680655385 59.7673404,1.50866915 L59.7673404,11.0799469 Z" id="Fill-24" stroke="#000000"></path>
                        <polygon id="Fill-27" fill="#000000" points="0.872536376 12.5830024 3.63774802 12.5830024 3.63774802 0.00608145705 0.872536376 0.00608145705"></polygon>
                        <polygon id="Fill-28" fill="#000000" points="5.86579861 12.5830024 8.63101025 12.5830024 8.63101025 0.00608145705 5.86579861 0.00608145705"></polygon>
                        <polygon id="Fill-29" fill="#000000" points="10.8590608 12.5830024 13.6242725 12.5830024 13.6242725 0.00608145705 10.8590608 0.00608145705"></polygon>
                        <polygon id="Fill-30" fill="#000000" points="15.8476521 12.5830024 18.6128638 12.5830024 18.6128638 0.00608145705 15.8476521 0.00608145705"></polygon>
                        <polygon id="Fill-31" fill="#000000" points="20.8409144 12.5830024 23.606126 12.5830024 23.606126 0.00608145705 20.8409144 0.00608145705"></polygon>
                        <polygon id="Fill-32" fill="#000000" points="25.8341766 12.5830024 28.5993882 12.5830024 28.5993882 0.00608145705 25.8341766 0.00608145705"></polygon>
                        <polygon id="Fill-33" fill="#000000" points="30.8227679 12.5830024 33.5879795 12.5830024 33.5879795 0.00608145705 30.8227679 0.00608145705"></polygon>
                        <polygon id="Fill-34" fill="#000000" points="35.8160301 12.5830024 38.5812417 12.5830024 38.5812417 0.00608145705 35.8160301 0.00608145705"></polygon>
                        <polygon id="Fill-35" fill="#000000" points="40.8092923 12.5830024 43.574504 12.5830024 43.574504 0.00608145705 40.8092923 0.00608145705"></polygon>
                        <polygon id="Fill-36" fill="#000000" points="45.8002191 12.5830024 48.5654307 12.5830024 48.5654307 0.00608145705 45.8002191 0.00608145705"></polygon>
                        <polygon id="Fill-37" fill="#000000" points="50.7911458 12.5830024 53.5563575 12.5830024 53.5563575 0.00608145705 50.7911458 0.00608145705"></polygon>
                        <polygon id="Fill-38" fill="#000000" points="55.7844081 12.5830024 58.5496197 12.5830024 58.5496197 0.00608145705 55.7844081 0.00608145705"></polygon>
                    </g>
                </g>
                <g id="Group-2" transform="translate(86.555189, 60.417920)">
                    <path d="M59.9915468,1.5133472 L59.9915468,11.1173713 C59.9915468,11.9500631 59.3259342,12.6330575 58.4804894,12.6330575 L1.51339286,12.6330575 C1.10468337,12.6330575 0.756696429,12.4786821 0.485780423,12.2237287 C0.182167659,11.9500631 1.00364161e-13,11.5571074 1.00364161e-13,11.1173713 L1.00364161e-13,1.5133472 C1.00364161e-13,0.680655385 0.667948082,1.92165058e-13 1.51339286,1.92165058e-13 L58.4804894,1.92165058e-13 C59.3259342,1.92165058e-13 59.9915468,0.680655385 59.9915468,1.5133472" id="Fill-42" stroke="#000000"></path>
                    <polygon id="Fill-45" fill="#000000" points="0.879542824 12.6260404 3.64475446 12.6260404 3.64475446 0.00233902194 0.879542824 0.00233902194"></polygon>
                    <polygon id="Fill-46" fill="#000000" points="5.89148892 12.6260404 8.65670056 12.6260404 8.65670056 0.00233902194 5.89148892 0.00233902194"></polygon>
                    <polygon id="Fill-47" fill="#000000" points="10.9010995 12.6260404 13.6663112 12.6260404 13.6663112 0.00233902194 10.9010995 0.00233902194"></polygon>
                    <polygon id="Fill-48" fill="#000000" points="15.9130456 12.6260404 18.6782573 12.6260404 18.6782573 0.00233902194 15.9130456 0.00233902194"></polygon>
                    <polygon id="Fill-49" fill="#000000" points="20.9226563 12.6260404 23.6878679 12.6260404 23.6878679 0.00233902194 20.9226563 0.00233902194"></polygon>
                    <polygon id="Fill-50" fill="#000000" points="25.9346023 12.6260404 28.699814 12.6260404 28.699814 0.00233902194 25.9346023 0.00233902194"></polygon>
                    <polygon id="Fill-51" fill="#000000" points="30.944213 12.6260404 33.7094246 12.6260404 33.7094246 0.00233902194 30.944213 0.00233902194"></polygon>
                    <polygon id="Fill-52" fill="#000000" points="35.9561591 12.6260404 38.7213707 12.6260404 38.7213707 0.00233902194 35.9561591 0.00233902194"></polygon>
                    <polygon id="Fill-53" fill="#000000" points="40.9681052 12.6260404 43.7333168 12.6260404 43.7333168 0.00233902194 40.9681052 0.00233902194"></polygon>
                    <polygon id="Fill-54" fill="#000000" points="45.9753803 12.6260404 48.7405919 12.6260404 48.7405919 0.00233902194 45.9753803 0.00233902194"></polygon>
                    <polygon id="Fill-55" fill="#000000" points="50.9873264 12.6260404 53.752538 12.6260404 53.752538 0.00233902194 50.9873264 0.00233902194"></polygon>
                    <polygon id="Fill-56" fill="#000000" points="55.996937 12.6260404 58.7621486 12.6260404 58.7621486 0.00233902194 55.996937 0.00233902194"></polygon>
                </g>
                <g id="Group-3" transform="translate(74.644461, 0.065072)" stroke="#000000">
                    <path d="M29.9151992,59.9257421 C28.995019,59.9257421 28.0771743,59.8813007 27.1756779,59.799435 C24.3147115,59.5421425 21.5611772,58.8755213 18.9898107,57.8627248 C18.0439401,57.4931593 17.1167535,57.0651183 16.2199281,56.604331 C14.8863674,55.9166585 13.6041873,55.1237301 12.3944072,54.2442578 C4.88816551,48.8036928 0,39.9528338 0,29.9628711 C0,13.4189689 13.3939939,0 29.9151992,0 C31.4659598,0 32.9840236,0.119290119 34.4693907,0.348514269 C35.9640997,0.57773842 37.4307829,0.916896601 38.84375,1.35897175 C39.8176463,1.66538362 40.7681878,2.02091496 41.6953745,2.41620967 C44.3064443,3.53660118 46.7166625,5.01720206 48.8839906,6.79719776 C55.5658069,12.2892213 59.832734,20.6278345 59.832734,29.9628711 C59.832734,46.5067733 46.4364046,59.9257421 29.9151992,59.9257421 Z" id="Fill-60"></path>
                    <path d="M52.0530072,29.9628711 C52.0530072,42.2076509 42.1412182,52.1344601 29.9149657,52.1344601 C17.6887132,52.1344601 7.77692419,42.2076509 7.77692419,29.9628711 C7.77692419,17.7180912 17.6887132,7.79128209 29.9149657,7.79128209 C42.1412182,7.79128209 52.0530072,17.7180912 52.0530072,29.9628711" id="Fill-62"></path>
                </g>
            </g>
        </g>
        <g id="Group" transform="translate(116.000000, 157.000000)" fill-rule="nonzero" stroke-width="0.5">
            <path d="M9.65657686,24.055626 C11.4692552,23.2847861 13.1554675,22.2038035 14.6309033,20.9 C16.1183835,19.581141 17.4251981,17.9852615 18.2110935,16.1454834 C18.5995246,15.2391442 18.8554675,14.2876387 18.9397781,13.3030111 C18.9879556,12.7459588 18.9698891,12.1828843 18.9698891,11.6228209 C18.9698891,11.0296355 18.9698891,10.433439 18.9698891,9.84025357 C18.9698891,8.27147385 18.9698891,6.70269414 18.9698891,5.13391442 C18.9698891,4.60095087 18.9909667,4.06196513 18.9698891,3.52900158 C18.9698891,3.5229794 18.9698891,3.51695721 18.9698891,3.51093502 C18.9698891,3.37242472 18.8765452,3.26402536 18.7500792,3.22187005 C17.7082409,2.86053883 16.6633914,2.49920761 15.6215531,2.13787639 C13.977496,1.56275753 12.333439,0.990649762 10.6893819,0.42155309 C10.3280507,0.295087163 9.9637084,0.141521395 9.5933439,0.042155309 C9.47591125,0.00903328051 9.39160063,0.048177496 9.28621236,0.0843106181 C9.09952456,0.150554675 8.90982567,0.213787639 8.72313788,0.280031696 C7.14833597,0.82503962 5.57654517,1.37004754 4.00174326,1.91505547 C2.77020602,2.34263074 1.54167987,2.76719493 0.310142631,3.19477021 C0.289064976,3.20079239 0.270998415,3.20982567 0.249920761,3.21584786 C0.123454834,3.26101426 0.030110935,3.36640254 0.030110935,3.50491284 C0.030110935,3.92947702 0.030110935,4.3540412 0.030110935,4.77860539 C0.030110935,6.21489699 0.030110935,7.65118859 0.030110935,9.08748019 C0.030110935,10.2618067 0.0270998415,11.4361331 0.030110935,12.6104596 C0.0331220285,13.5830428 0.207765452,14.5526149 0.526941363,15.4709984 C1.18637084,17.3559429 2.39683043,19.0120444 3.82408875,20.3911252 C5.25435816,21.7732171 6.92852615,22.9264659 8.72614897,23.7755943 C8.93090333,23.8719493 9.14167987,23.9652932 9.34944532,24.055626 C9.5,24.118859 9.67163233,24.1007924 9.76196513,23.9472266 C9.83724247,23.8207607 9.80412044,23.5979398 9.65356577,23.5347068 C7.8800317,22.7819334 6.22393027,21.7340729 4.78161648,20.4573693 C3.33328051,19.1746434 2.05958796,17.6269414 1.30681458,15.8323296 C0.94548336,14.974168 0.710618067,14.0587956 0.647385103,13.1283677 C0.608240887,12.5532488 0.629318542,11.9751189 0.629318542,11.3969889 C0.629318542,10.8278922 0.629318542,10.2618067 0.629318542,9.69270998 C0.629318542,8.1570523 0.629318542,6.62139461 0.629318542,5.08573693 C0.629318542,4.71537242 0.629318542,4.34199683 0.629318542,3.97163233 C0.629318542,3.82408875 0.64437401,3.67052298 0.629318542,3.52599049 C0.629318542,3.5199683 0.629318542,3.51394612 0.629318542,3.50792393 C0.557052298,3.60427892 0.48177496,3.70063391 0.409508716,3.79698891 C1.44532488,3.43866878 2.47812995,3.08034865 3.51394612,2.72202853 C5.16101426,2.14992076 6.80808241,1.58082409 8.45515055,1.00871632 C8.83153724,0.879239303 9.20792393,0.749762282 9.58129952,0.617274168 C9.52709984,0.617274168 9.47591125,0.617274168 9.42171157,0.617274168 C10.4545166,0.975594295 11.4903328,1.33391442 12.5231379,1.69223455 C14.170206,2.26434231 15.8142631,2.83343899 17.4613312,3.40554675 C17.8377179,3.53502377 18.2110935,3.66450079 18.5874802,3.79698891 C18.5152139,3.70063391 18.4399366,3.60427892 18.3676704,3.50792393 C18.3676704,3.92345483 18.3676704,4.33597464 18.3676704,4.75150555 C18.3676704,6.15166403 18.3676704,7.5518225 18.3676704,8.95499208 C18.3676704,10.0931854 18.3676704,11.2343899 18.3676704,12.3725832 C18.3676704,13.3391442 18.2412044,14.2695721 17.9340729,15.1879556 C17.3198098,17.0247227 16.133439,18.6296355 14.7513471,19.966561 C13.3572108,21.3155309 11.7282092,22.4296355 9.97274168,23.2576862 C9.76798732,23.3540412 9.55721078,23.4473851 9.34944532,23.5377179 C9.19889065,23.6009509 9.16576862,23.8207607 9.24104596,23.9502377 C9.33438986,24.1007924 9.50602219,24.118859 9.65657686,24.055626 Z" id="Path" stroke="#000000" fill="#000000"></path>
            <path d="M4.61299525,11.1290016 C5.58256735,12.0985737 6.55213946,13.0681458 7.52472266,14.040729 C7.66323296,14.1792393 7.80174326,14.3177496 7.94025357,14.4562599 C8.05467512,14.5706815 8.2503962,14.5706815 8.36481775,14.4562599 C9.04833597,13.7727417 9.73486529,13.0862124 10.4183835,12.4026941 C11.5023772,11.3187005 12.5833597,10.2377179 13.6673534,9.15372425 C13.9172742,8.90380349 14.1671949,8.65388273 14.4171157,8.40396197 C14.6911252,8.12995246 14.266561,7.70237718 13.9925515,7.97939778 C13.3090333,8.66291601 12.622504,9.34944532 11.9389857,10.0329635 C10.8549921,11.1169572 9.77400951,12.1979398 8.69001585,13.2819334 C8.44009509,13.5318542 8.19017433,13.781775 7.94025357,14.0316957 C8.08177496,14.0316957 8.22329635,14.0316957 8.36481775,14.0316957 C7.39524564,13.0621236 6.42567353,12.0925515 5.45309033,11.1199683 C5.31458003,10.981458 5.17606973,10.8429477 5.03755943,10.7044374 C4.76354992,10.4274168 4.33898574,10.8549921 4.61299525,11.1290016 L4.61299525,11.1290016 Z" id="Path" stroke="#FF6E61" fill="#FF6E61"></path>
        </g>
    </g>
</svg>
