<?xml version="1.0" encoding="UTF-8"?>
<svg width="380px" height="380px" viewBox="0 0 380 380" version="1.1" xmlns="http://www.w3.org/2000/svg" xmlns:xlink="http://www.w3.org/1999/xlink">
    <defs>
        <rect id="path-1" x="0" y="0" width="62" height="46" rx="2"></rect>
    </defs>
    <g id="Illustrations/Ligth/380px/feature_key1" stroke="none" stroke-width="1" fill="none" fill-rule="evenodd">
        <g id="Group-8" transform="translate(25.000000, 42.000000)">
            <g id="Group-7" transform="translate(64.000000, 15.000000)">
                <g id="undraw_media_player_ylg8">
                    <polygon id="Triangle" fill="#FF6E61" transform="translate(160.889974, 9.435268) rotate(-90.000000) translate(-160.889974, -9.435268) " points="168.889395 17.8784441 152.389974 18.4352677 169.389974 0.435267704"></polygon>
                    <path d="M167.872141,1 C168.976711,1 169.872141,1.8954305 169.872141,3 L169.87139,30.9 L136,30.9 C134.945638,30.9 134.081835,31.7158778 134.005486,32.7507377 L134,32.9 L134,75.1 C134,76.2045695 134.895431,77.1 136,77.1 L136,77.1 L169.87139,77.1 L169.872141,159.013035 C160.029306,159.251444 150.40007,159.544955 140.984433,159.893567 C128.809007,160.758222 125.77472,161.365723 123.580969,162.113105 L123.407105,162.173201 C123.349643,162.193338 123.292621,162.213582 123.235883,162.23394 L123.066358,162.295366 L123.066358,162.295366 L122.897586,162.357524 C122.869467,162.367947 122.841341,162.378402 122.813187,162.388891 C121.062981,163.202235 119.665016,164.072605 118.619293,165 L69.0767224,165.000052 C69.6523909,166.505567 69.9691987,168.113217 69.9978677,169.755666 C70.1328095,177.486475 63.9751426,183.862926 56.2443337,183.997868 C48.5135248,184.13281 42.137074,177.975143 42.0021323,170.244334 C41.9698813,168.396679 42.2970673,166.626385 42.9192612,165.000171 L34.9671526,165 C33.8625831,165 32.9671526,164.104569 32.9671526,163 L32.9669699,109.014616 C30.5435259,109.868147 26.1901805,111.294172 21.5866985,112.777361 L20.6907459,113.06574 L19.34101,113.499168 L19.34101,113.499168 L18.441292,113.787473 L18.0865072,113.901035 L18.0865072,113.901035 L17.3791408,114.127253 C10.4411255,116.344772 4.09193764,118.337132 4.09193764,118.337132 C3.66788188,115.826952 3.26533696,114.048621 2.88430289,113.002139 C2.41722244,111.719336 1.62091799,110.144563 0.495389536,108.277817 L0.550061504,108.26321 L0.70952304,108.223639 C2.11882822,107.883873 8.73160368,106.468992 15.6122087,105.005605 L17.0217761,104.705924 C17.178462,104.672624 17.3351125,104.639334 17.4916696,104.606068 L18.4294274,104.406843 L19.3454867,104.212294 C24.5177873,103.113982 29.32986,102.094745 31.6247905,101.60322 L32.0032097,101.522049 L32.0032097,101.522049 L32,101.516614 C32.1975901,101.476072 32.5298316,101.403922 32.9658599,101.307357 L32.9671526,3 C32.9671526,1.8954305 33.8625831,1 34.9671526,1 L167.872141,1 Z" id="Rectangle-2" stroke="#000000"></path>
                    <line x1="50.6219512" y1="42.5" x2="133.7" y2="42.5" id="Line" stroke="#000000" stroke-linecap="round"></line>
                    <line x1="50.6219512" y1="52" x2="133.8" y2="52" id="Line-Copy" stroke="#000000" stroke-linecap="round"></line>
                    <line x1="50.6219512" y1="61.5" x2="133.5" y2="61.5" id="Line-Copy-2" stroke="#000000" stroke-linecap="round"></line>
                    <line x1="50.6219512" y1="71" x2="133.5" y2="71" id="Line-Copy-3" stroke="#000000" stroke-linecap="round"></line>
                    <line x1="50.6219512" y1="80.5" x2="151.378049" y2="80.5" id="Line-Copy-4" stroke="#000000" stroke-linecap="round"></line>
                    <line x1="50.6219512" y1="90" x2="117.5" y2="90" id="Line-Copy-5" stroke="#000000" stroke-linecap="round"></line>
                </g>
                <g id="Rectangle-2-Copy" transform="translate(134.000000, 31.000000)">
                    <mask id="mask-2" fill="white">
                        <use xlink:href="#path-1"></use>
                    </mask>
                    <use id="Rectangle" stroke="#000000" stroke-width="0.8" xlink:href="#path-1"></use>
                    <g id="Group-2" mask="url(#mask-2)">
                        <g transform="translate(25.000000, 10.000000)">
                            <path d="M4.44867762,1.07882241 C6.39203862,1.07882241 7.94867762,2.63546491 7.94867762,4.57882241 C7.94867762,6.52217991 6.39203862,8.07882241 4.44867762,8.07882241 C2.50531662,8.07882241 0.948677622,6.52217991 0.948677622,4.57882241 C0.948677622,2.63546491 2.50531662,1.07882241 4.44867762,1.07882241 Z" id="Path" stroke="none" fill="#FF746C" fill-rule="nonzero"></path>
                            <circle id="Oval" stroke="#000000" stroke-width="1" fill="none" cx="5" cy="4" r="4"></circle>
                        </g>
                    </g>
                    <polyline id="Path-4" stroke="#000000" stroke-linecap="round" stroke-linejoin="round" mask="url(#mask-2)" points="14.6077231 34.9887101 25.3921724 24.8539786 33.3011838 32"></polyline>
                    <polyline id="Path-5" stroke="#000000" stroke-linecap="round" stroke-linejoin="round" mask="url(#mask-2)" points="29.1069009 27.9817975 36.7855557 20.3589517 52.8529913 35.662265"></polyline>
                </g>
                <g id="Group-3" transform="translate(51.000000, 12.000000)" stroke-width="0.8">
                    <g id="Group-4" transform="translate(5.035714, 3.035714)" fill-rule="nonzero">
                        <circle id="Oval" stroke="#000000" cx="5.6948325" cy="5.6948325" r="5.6948325"></circle>
                        <polygon id="Path" stroke="#FF746C" fill="#FF746C" stroke-linejoin="round" points="4.52329905 7.93612779 4.52329905 3.62398432 7.39806137 5.78005605"></polygon>
                    </g>
                    <g id="Rectangle-2-Copy-2" stroke="#000000">
                        <path d="M18,0 C18.5522847,-1.01453063e-16 19,0.44771525 19,1 L19,16 C19,16.5522847 18.5522847,17 18,17 L17,17 L17,18 C17,18.5522847 16.5522847,19 16,19 L1,19 C0.44771525,19 6.76353751e-17,18.5522847 0,18 L0,3 C-6.76353751e-17,2.44771525 0.44771525,2 1,2 L2,2 L2,1 C2,0.44771525 2.44771525,1.01453063e-16 3,0 L18,0 Z" id="Rectangle-3"></path>
                        <rect id="Rectangle" x="2" y="0" width="17" height="17" rx="1"></rect>
                    </g>
                </g>
                <g id="Group-3-Copy" transform="translate(73.000000, 12.000000)" stroke-width="0.8">
                    <g id="Group-4" transform="translate(5.035714, 3.035714)" fill-rule="nonzero">
                        <circle id="Oval" stroke="#000000" cx="5.6948325" cy="5.6948325" r="5.6948325"></circle>
                        <polygon id="Path" stroke="#FF746C" fill="#FF746C" stroke-linejoin="round" points="4.52329905 7.93612779 4.52329905 3.62398432 7.39806137 5.78005605"></polygon>
                    </g>
                    <g id="Rectangle-2-Copy-2" stroke="#000000">
                        <path d="M18,0 C18.5522847,-1.01453063e-16 19,0.44771525 19,1 L19,16 C19,16.5522847 18.5522847,17 18,17 L17,17 L17,18 C17,18.5522847 16.5522847,19 16,19 L1,19 C0.44771525,19 6.76353751e-17,18.5522847 0,18 L0,3 C-6.76353751e-17,2.44771525 0.44771525,2 1,2 L2,2 L2,1 C2,0.44771525 2.44771525,1.01453063e-16 3,0 L18,0 Z" id="Rectangle-3"></path>
                        <rect id="Rectangle" x="2" y="0" width="17" height="17" rx="1"></rect>
                    </g>
                </g>
                <g id="Group-3-Copy-2" transform="translate(95.000000, 12.000000)" stroke-width="0.8">
                    <g id="Group-4" transform="translate(5.035714, 3.035714)" fill-rule="nonzero">
                        <circle id="Oval" stroke="#000000" cx="5.6948325" cy="5.6948325" r="5.6948325"></circle>
                        <polygon id="Path" stroke="#FF746C" fill="#FF746C" stroke-linejoin="round" points="4.52329905 7.93612779 4.52329905 3.62398432 7.39806137 5.78005605"></polygon>
                    </g>
                    <g id="Rectangle-2-Copy-2" stroke="#000000">
                        <path d="M18,0 C18.5522847,-1.01453063e-16 19,0.44771525 19,1 L19,16 C19,16.5522847 18.5522847,17 18,17 L17,17 L17,18 C17,18.5522847 16.5522847,19 16,19 L1,19 C0.44771525,19 6.76353751e-17,18.5522847 0,18 L0,3 C-6.76353751e-17,2.44771525 0.44771525,2 1,2 L2,2 L2,1 C2,0.44771525 2.44771525,1.01453063e-16 3,0 L18,0 Z" id="Rectangle-3"></path>
                        <rect id="Rectangle" x="2" y="0" width="17" height="17" rx="1"></rect>
                    </g>
                </g>
                <path d="M56,155.967742 C63.7498021,155.967742 70.0322581,162.250198 70.0322581,170 C70.0322581,173.721586 68.5538637,177.290746 65.9223048,179.922305 C63.290746,182.553864 59.7215862,184.032258 56,184.032258 C48.2501979,184.032258 41.9677419,177.749802 41.9677419,170 C41.9677419,162.250198 48.2501979,155.967742 56,155.967742 Z M56,158.870968 C49.8536052,158.870968 44.8709677,163.853605 44.8709677,170 C44.8709677,176.146395 49.8536052,181.129032 56,181.129032 C58.9516029,181.129032 61.7823158,179.956513 63.8694142,177.869414 C65.9565126,175.782316 67.1290323,172.951603 67.1290323,170 C67.1290323,163.853605 62.1463948,158.870968 56,158.870968 Z" id="Path-3" fill="#FF6E61" fill-rule="nonzero"></path>
                <path d="M56.483871,169.516129 L56.483871,163.225806 C58.366129,163.419355 59.8225806,164.735484 59.8225806,166.322581 C59.8225806,166.589815 60.0392171,166.806452 60.3064516,166.806452 C60.5736862,166.806452 60.7903226,166.589815 60.7903226,166.322581 C60.7903226,164.217742 58.9177419,162.475806 56.483871,162.253226 L56.483871,161.290323 C56.483871,161.023088 56.2672346,160.806452 56,160.806452 C55.7327654,160.806452 55.516129,161.023088 55.516129,161.290323 L55.516129,162.258065 C53.0967742,162.446774 51.1612903,164.193548 51.1612903,166.370968 C51.1612903,168.548387 53.0967742,170.241935 55.516129,170.445161 L55.516129,176.735484 C53.633871,176.541935 52.1774194,175.225806 52.1774194,173.63871 C52.1774194,173.371475 51.9607829,173.154839 51.6935484,173.154839 C51.4263138,173.154839 51.2096774,173.371475 51.2096774,173.63871 C51.2096774,175.743548 53.0822581,177.509677 55.516129,177.708065 L55.516129,178.675806 C55.516129,178.943041 55.7327654,179.159677 56,179.159677 C56.2672346,179.159677 56.483871,178.943041 56.483871,178.675806 L56.483871,177.741935 C58.9032258,177.553226 60.8387097,175.806452 60.8387097,173.629032 C60.8387097,171.451613 58.9032258,169.724194 56.483871,169.516129 Z M52.1290323,166.332258 C52.1290323,164.740323 53.5806452,163.429032 55.516129,163.230645 L55.516129,169.516129 C53.6145161,169.317742 52.1290323,167.991935 52.1290323,166.351613 L52.1290323,166.332258 Z M56.483871,176.774194 L56.483871,170.508065 C58.3854839,170.682258 59.8709677,172.008065 59.8709677,173.648387 C59.8709677,175.28871 58.4193548,176.556452 56.483871,176.774194 Z M56,155 C47.7157288,155 41,161.715729 41,170 C41,178.284271 47.7157288,185 56,185 C64.2842712,185 71,178.284271 71,170 C71,166.021753 69.4196474,162.206444 66.6066017,159.393398 C63.793556,156.580353 59.9782473,155 56,155 Z M56,184.032258 C48.2501979,184.032258 41.9677419,177.749802 41.9677419,170 C41.9677419,162.250198 48.2501979,155.967742 56,155.967742 C63.7498021,155.967742 70.0322581,162.250198 70.0322581,170 C70.0322581,173.721586 68.5538637,177.290746 65.9223048,179.922305 C63.290746,182.553864 59.7215862,184.032258 56,184.032258 Z M56,157.903226 C49.3191361,157.903226 43.9032258,163.319136 43.9032258,170 C43.9032258,176.680864 49.3191361,182.096774 56,182.096774 C62.6808639,182.096774 68.0967742,176.680864 68.0967742,170 C68.0967742,166.791736 66.8222963,163.714874 64.5537111,161.446289 C62.2851258,159.177704 59.208264,157.903226 56,157.903226 Z M56,181.129032 C49.8536052,181.129032 44.8709677,176.146395 44.8709677,170 C44.8709677,163.853605 49.8536052,158.870968 56,158.870968 C62.1463948,158.870968 67.1290323,163.853605 67.1290323,170 C67.1290323,172.951603 65.9565126,175.782316 63.8694142,177.869414 C61.7823158,179.956513 58.9516029,181.129032 56,181.129032 Z" id="Shape" fill="#000000" fill-rule="nonzero"></path>
            </g>
            <g id="Group" transform="translate(79.000000, 0.000000)" fill="#FF6E61" fill-rule="nonzero">
                <path d="M7.42049512,7.22954878 C7.51282683,7.22954878 7.59117561,7.29546829 7.6071561,7.38646829 L7.6071561,7.38646829 L7.92032927,9.17339756 C8.30541463,9.27904634 8.67496341,9.43308049 9.02187317,9.63150488 L9.02187317,9.63150488 L10.492522,8.57324146 C10.5677634,8.51864146 10.6714146,8.52663171 10.7373341,8.59343902 L10.7373341,8.59343902 L11.8759439,9.73071707 C11.9411976,9.79597073 11.9500756,9.89806829 11.8970293,9.97375366 L11.8970293,9.97375366 L10.8505293,11.4665976 C11.0451805,11.8110659 11.1972171,12.1783951 11.3030878,12.5603732 L11.3030878,12.5603732 L13.0982293,12.8537927 C13.1896732,12.8693293 13.2569244,12.9485659 13.2573683,13.0408976 L13.2573683,13.0408976 L13.2573683,14.6507098 C13.2573683,14.7425976 13.1910049,14.8218341 13.1002268,14.8373707 L13.1002268,14.8373707 L11.3041976,15.1520976 C11.1994366,15.5342976 11.0480659,15.9022927 10.8525268,16.2480927 L10.8525268,16.2480927 L11.9141195,17.7227366 C11.9682756,17.797978 11.9602854,17.9016293 11.8943659,17.9677707 L11.8943659,17.9677707 L10.7566439,19.1066024 C10.6909463,19.1718561 10.5888488,19.1807341 10.5136073,19.1281317 L10.5136073,19.1281317 L9.02475854,18.0825195 C8.67873659,18.2809439 8.30963171,18.4358659 7.92432439,18.5430683 L7.92432439,18.5430683 L7.60737805,20.3315512 C7.59139756,20.4218854 7.51260488,20.4878049 7.42071707,20.4878049 L7.42071707,20.4878049 L5.81046098,20.4878049 C5.71790732,20.4878049 5.63867073,20.4203317 5.62357805,20.3295537 L5.62357805,20.3295537 L5.32727317,18.5492829 C4.9417439,18.4434122 4.57064146,18.2902659 4.22217805,18.0931732 L4.22217805,18.0931732 L2.74420488,19.1283537 C2.66785366,19.1809561 2.56642195,19.172078 2.50139024,19.1068244 L2.50139024,19.1068244 L1.36278049,17.9679927 C1.29708293,17.9018512 1.28864878,17.7988659 1.34280488,17.7234024 L1.34280488,17.7234024 L2.38797317,16.2616317 C2.18843902,15.9107268 2.03351707,15.5380707 1.92698049,15.1507659 L1.92698049,15.1507659 L0.156697561,14.8375927 C0.0659195122,14.8213902 -2.07443818e-13,14.7428195 -2.07443818e-13,14.6509317 L-2.07443818e-13,14.6509317 L-2.07443818e-13,13.0411195 C-2.07443818e-13,12.9485659 0.0670292683,12.8693293 0.15825122,12.8537927 L0.15825122,12.8537927 L1.9292,12.5597073 C2.03618049,12.1724024 2.19110244,11.7999683 2.39063659,11.4497293 L2.39063659,11.4497293 L1.35834146,9.97397561 C1.30573902,9.89829024 1.31461707,9.79619268 1.37987073,9.73093902 L1.37987073,9.73093902 L2.51825854,8.59366098 C2.5835122,8.52685366 2.68671951,8.51886341 2.76262683,8.57346341 L2.76262683,8.57346341 L4.22928049,9.62062927 C4.57663415,9.42442439 4.94684878,9.27283171 5.3330439,9.16740488 L5.3330439,9.16740488 L5.6233561,7.3886878 C5.63800488,7.2968 5.71724146,7.22954878 5.81023902,7.22954878 L5.81023902,7.22954878 Z M6.62857317,11.8037415 C5.49529024,11.8037415 4.57286098,12.7257268 4.57286098,13.8587878 C4.57286098,14.9925146 5.49529024,15.9145 6.62857317,15.9145 C7.76207805,15.9145 8.68384146,14.9922927 8.68384146,13.8587878 C8.68384146,12.7255049 7.7618561,11.8037415 6.62857317,11.8037415 Z" id="Shape"></path>
                <path d="M14.6621829,0.0144268293 C14.7478561,-0.0210853659 14.8457366,0.0113195122 14.8947878,0.0898902439 L14.8947878,0.0898902439 L15.6043659,1.23693415 C15.8929024,1.20586098 16.1834366,1.20808049 16.4717512,1.24292683 L16.4717512,1.24292683 L17.1862122,0.0976585366 C17.2352634,0.0197536585 17.3322561,-0.0150926829 17.4203707,0.0235268293 L17.4203707,0.0235268293 L18.556539,0.499168293 C18.6413244,0.534902439 18.688378,0.625902439 18.6679585,0.716236585 L18.6679585,0.716236585 L18.3674366,2.04106341 C18.5969341,2.22528293 18.8013512,2.43169756 18.9775805,2.6576439 L18.9775805,2.6576439 L20.2993,2.35112927 C20.390522,2.32671463 20.4826317,2.37776341 20.5177,2.46365854 L20.5177,2.46365854 L20.9849073,3.60337805 C21.0197537,3.68860732 20.9884585,3.78626585 20.9105537,3.83598293 L20.9105537,3.83598293 L19.7555195,4.56309512 C19.7870366,4.84963415 19.7859268,5.13861463 19.7524122,5.42426585 L19.7524122,5.42426585 L20.9074463,6.14671707 C20.986461,6.19576829 21.0175341,6.29498049 20.9818,6.38087561 L20.9818,6.38087561 L20.5070463,7.51593415 C20.4713122,7.60049756 20.3792024,7.64555366 20.290422,7.62779756 L20.290422,7.62779756 L18.9578268,7.32660976 C18.7782683,7.55144634 18.5738512,7.75519756 18.347461,7.93364634 L18.347461,7.93364634 L18.6548634,9.25847317 C18.6757268,9.34880732 18.6284512,9.44136098 18.5423341,9.47687317 L18.5423341,9.47687317 L17.4037244,9.94474634 C17.3801976,9.95429024 17.355561,9.95872927 17.3315902,9.95872927 C17.2683341,9.95872927 17.2068537,9.92699024 17.1713415,9.86994878 L17.1713415,9.86994878 L16.4448951,8.71713415 C16.1583561,8.75109268 15.8658244,8.75175854 15.5779537,8.7178 L15.5779537,8.7178 L14.8410756,9.86195854 C14.7915805,9.93875366 14.6932561,9.97071463 14.6089146,9.93364878 L14.6089146,9.93364878 L13.4734122,9.45978293 C13.387739,9.42427073 13.3402415,9.33171707 13.3619927,9.24138293 L13.3619927,9.24138293 L13.6716146,7.92543415 C13.4436707,7.7441 13.2383659,7.53812927 13.0583634,7.31018537 L13.0583634,7.31018537 L11.7373098,7.59827805 C11.6467537,7.61603415 11.5559756,7.57009024 11.5213512,7.48486098 L11.5213512,7.48486098 L11.0548098,6.3435878 C11.0197415,6.25769268 11.0519244,6.15936829 11.1307171,6.11031707 L11.1307171,6.11031707 L12.2750976,5.40384634 C12.2418049,5.11109268 12.2426927,4.81789512 12.2773171,4.53069024 L12.2773171,4.53069024 L11.144478,3.79891707 C11.067461,3.7492 11.0370537,3.65154146 11.0725659,3.5663122 L11.0725659,3.5663122 L11.5473195,2.43125366 C11.5828317,2.34602439 11.6742756,2.29652927 11.7657195,2.32027805 L11.7657195,2.32027805 L13.0743439,2.6299 C13.2585634,2.39951463 13.4667537,2.1931 13.6951415,2.01465122 L13.6951415,2.01465122 L13.4090463,0.69515122 C13.3895146,0.605260976 13.4372341,0.514260976 13.5226854,0.479414634 L13.5226854,0.479414634 Z M16.0240756,3.45533659 C15.4061634,3.45533659 14.853061,3.8228878 14.6146854,4.39219268 C14.2899707,5.1696878 14.657522,6.06637073 15.4343512,6.39152927 C15.6227878,6.46987805 15.8209902,6.51005122 16.0229659,6.51005122 C16.641322,6.51005122 17.1939805,6.14183415 17.4323561,5.57252927 C17.7575146,4.79636585 17.3897415,3.89968293 16.6131341,3.57385854 C16.4246976,3.4952878 16.2264951,3.45533659 16.0240756,3.45533659 Z" id="Shape"></path>
            </g>
            <g id="man-trolley" transform="translate(0.000000, 95.000000)">
                <path d="M28.9559972,82.498441 C29.019427,84.5440535 29.4671269,112.790156 31.8457461,120.175768 C28.2381737,125.016258 2.06146993,158.971047 1.98218263,159.724276 C1.90289532,160.477506 6.34298441,164.568731 7.13585746,164.568731 C7.92873051,164.568731 48.0837862,131.91029 50.133363,129.773497 C52.1829399,127.636704 53.3588502,118.235391 53.3588502,118.235391" id="Path" stroke="#000000" fill-rule="nonzero"></path>
                <path d="M28.0938399,75.9267789 L60.465084,80.9245397 C65.2160583,87.1257092 81.0748169,116.875498 82.3329059,119.783604 C82.9218378,121.144935 85.3156645,132.331307 87.7537938,144.101349 L87.9976892,145.279957 C88.0383413,145.476602 88.0789894,145.673323 88.1196254,145.870078 L88.3632303,147.050672 C88.4443398,147.44411 88.5253356,147.837341 88.6061524,148.230022 L88.8480005,149.406076 C90.0941007,155.470303 91.2815302,161.320297 92.1674659,165.681478 C92.9079525,169.326659 93.4383347,171.936597 93.6173802,172.774099 C92.475534,174.097056 90.371804,174.750706 88.904652,174.68264 C88.087999,172.930716 83.7471187,163.921561 79.1086104,154.312694 L79.1086104,154.312694 L78.4666732,152.98299 L77.8228544,151.649569 C75.0877777,145.985275 72.352804,140.325617 70.2695626,136.014632 C68.3463463,132.034797 66.9786595,129.204557 66.6793527,128.5817 C62.4785585,126.149781 48.2629923,115.573435 38.2917281,101.779188 C32.5940758,93.8970561 28.2735574,84.9600917 28.0938399,75.9267789 L28.0938399,75.9267789 Z" id="Path" stroke="#000000" fill-rule="nonzero"></path>
                <path d="M3.04066815,160.604365 C2.64423163,161.000802 0.0634298441,163.327884 -2.01878445e-16,164.089042 C-0.107037862,165.464677 5.36775056,170.297238 5.85140312,170.301235 C6.33505568,170.305167 6.98521158,169.94441 6.91781737,169.583653 C6.85042316,169.222895 5.22106904,166.753096 5.14178174,166.281336 C5.06249443,165.809577 5.70075724,164.406192 6.39848552,164.001826" id="Path" fill="#000000" fill-rule="nonzero"></path>
                <path d="M88.8017817,174.65804 C89.0158575,175.201158 90.1338085,178.467795 90.8077506,178.820624 C92.0327394,179.462851 98.6254788,176.327038 98.8197327,175.883029 C99.0139866,175.43902 98.9386637,174.693719 98.5779065,174.622361 C98.2171492,174.551002 95.3073051,175.06637 94.8434744,174.959332 C94.3796437,174.852294 93.34098,173.706592 93.2577283,172.905791" id="Path" fill="#000000" fill-rule="nonzero"></path>
                <path d="M49.6207279,24.1288964 L49.5069933,24.3213808 C48.8964811,25.3362584 54.1413363,28.3888196 54.7082405,27.4453007 L54.7082405,27.4453007 L55.453318,26.2010925 C56.3881933,27.0355098 57.2085418,28.0648802 57.9202109,29.1953605 L57.9114477,29.1697996 C58.2801336,29.0746548 60.6547884,28.5751448 64.0720713,27.8853452 C64.8503776,28.8727487 67.1528784,32.7421279 68.0316307,38.4406459 L68.0919376,38.8507795 L61.6538085,41.0113586 C61.6538085,43.4728678 61.0910794,48.838642 60.5820528,54.9659925 C60.4940134,54.773676 60.4103293,54.5791389 60.3297105,54.3831626 C55.4971492,57.1820045 46.9499777,58.1532739 43.7229844,57.4991537 C47.0704802,64.7180284 53.2693224,69.9688735 59.8433856,73.7654764 C59.9588703,76.4109135 60.2335696,78.7239045 60.7380401,80.4607572 C57.5189755,80.9880178 31.6594209,78.81951 27.5880178,75.3427617 C27.5880178,51.3818132 41.7873439,25.4574082 49.6207279,24.1288964 Z" id="Combined-Shape" fill="#000000" fill-rule="nonzero"></path>
                <path d="M60.3297105,54.3831626 C65.268938,66.3899339 81.7140968,72.9943167 85.4641448,74.6870017 C85.9681915,74.5716323 86.5001077,74.510245 87.0495323,74.510245 C90.3140149,74.510245 92.9604009,76.6774062 92.9604009,79.350735 C92.9604009,82.0240638 90.3140149,84.1912249 87.0495323,84.1912249 C85.2453306,84.1912249 83.6299271,83.5292635 82.5457284,82.4857421 C75.4637695,80.6263445 51.6329943,74.55709 43.7229844,57.4991537 C46.9499777,58.1532739 55.4971492,57.1820045 60.3297105,54.3831626 Z" id="Combined-Shape" stroke="#000000" fill-rule="nonzero"></path>
                <path d="M112.289577,17.968507 C112.828731,20.1964803 108.789042,20.9774603 106.902004,21.5166139 C107.441158,23.340222 107.643341,24.7753222 106.319243,25.4809792 C105.211433,26.0791967 103.298744,26.7668452 98.645993,26.5795373 C98.7892179,27.2606651 98.8791982,27.8615322 98.8791982,28.2778174 C98.1814699,28.6720339 92.1373289,30.6668232 85.5866985,32.777361 L84.6907459,33.0657396 C84.2416544,33.2101482 83.7912311,33.3547811 83.34101,33.4991677 L82.441292,33.7874731 C75.1032213,36.1370075 68.0919376,38.3371323 68.0919376,38.3371323 C67.6678819,35.826952 67.265337,34.0486208 66.8843029,33.0021386 C66.4172224,31.7193364 65.620918,30.1445627 64.4953895,28.2778174 L64.5500615,28.2632104 L64.5500615,28.2632104 L64.709523,28.2236391 C66.1188282,27.8838733 72.7316037,26.468992 79.6122087,25.0056046 L81.0217761,24.7059243 C81.178462,24.6726236 81.3351125,24.639334 81.4916696,24.6060676 L82.4294274,24.4068434 C88.2492581,23.1706561 93.7776025,22.0002787 96.0032097,21.5220491 L96,21.5166139 C96.8726153,21.3375676 100.371419,20.5420705 103.837936,19.7494817 L104.553814,19.5857424 C108.12218,18.7692854 111.45979,18.0016517 111.623563,17.968507 C111.95657,17.9011128 112.23804,17.76236 112.289577,17.968507 Z" id="Combined-Shape" stroke="#000000" fill-rule="nonzero"></path>
                <path d="M57.8767058,22.2689433 L54.7082405,27.4453007 C54.1413363,28.3888196 48.8964811,25.3362584 49.5069933,24.3213808 L53.2354347,18.6582851" id="Path" stroke="#000000" fill-rule="nonzero"></path>
                <circle id="Oval" stroke="#000000" fill-rule="nonzero" cx="60.2107795" cy="14.5730067" r="7.88115813"></circle>
                <ellipse id="Oval" fill="#FF746C" fill-rule="nonzero" transform="translate(67.479651, 17.070786) rotate(-84.070000) translate(-67.479651, -17.070786) " cx="67.4796511" cy="17.0707856" rx="1" ry="1.31616927"></ellipse>
                <ellipse id="Oval" fill="#FF746C" fill-rule="nonzero" transform="translate(59.256688, 16.220749) rotate(-84.070000) translate(-59.256688, -16.220749) " cx="59.256688" cy="16.2207492" rx="1" ry="1.31616927"></ellipse>
                <path d="M64.4328285,15.3262361 C64.6429399,15.7226726 65.7450334,17.3084187 64.3575056,17.7524276" id="Path" stroke="#000000" stroke-width="0.3" stroke-linecap="round"></path>
                <path d="M61.5467706,19.1914922 C61.1503341,19.1399555 60.5953229,18.6008018 60.3217817,18.125078" id="Path" stroke="#000000" stroke-width="0.3" stroke-linecap="round"></path>
                <path d="M54.3994069,15.948375 C54.3994069,18.3813905 51.7472834,19.9908596 50.8536331,19.9908596 C50.5622034,20.0310514 50.2682796,19.9374068 50.0517421,19.7353756 C49.8352045,19.5333444 49.7185498,19.2439163 49.7334815,18.9457498 C49.7334815,17.9257227 50.3265029,17.0520109 51.5702006,15.948375 C51.3519358,15.567955 49.7334815,13.5655247 49.7334815,10.7353675 C49.7334815,7.74635357 51.5413732,5.24227057 52.7521252,5.24227057 C53.8200728,5.31029807 54.7075416,6.10286638 54.9100642,7.16945298 C54.9100642,2.99319436 59.3083064,0 61.9110114,0 C64.3531065,0 64.7937544,1.08273371 64.7937544,1.95644548 C64.7937544,3.87944744 63.3029645,5.93622346 62.7346523,6.44205658 C64.1018961,5.41784901 66.2351259,4.38946101 68.0883178,4.38946101 C69.2496514,4.38946101 70.7322049,4.72389613 70.7322049,6.34590648 C70.7322049,9.32655953 67.9853627,11.0489004 67.0670031,11.5296509 C66.7105071,10.8325475 66.2615625,10.188338 65.732705,9.61500982 C65.9015513,10.1793691 65.2220476,11.2035767 63.9248133,11.4335008 C63.2082458,11.5672749 54.3994069,10.3633084 54.3994069,15.948375 Z" id="Path" fill="#000000" fill-rule="nonzero"></path>
            </g>
            <g id="Group" transform="translate(249.500000, 214.500000) scale(-1, 1) translate(-249.500000, -214.500000) translate(160.000000, 154.000000)">
                <g id="Group-89" transform="translate(0.000000, 19.582119)">
                    <polygon id="Fill-1" fill="#000000" points="154.841848 96.3938421 152.709566 96.3938421 150.88224 87.5390643 156.669174 87.5392183"></polygon>
                    <polygon id="Fill-2" fill="#000000" points="24.9994431 96.3938421 22.8679653 96.3938421 21.0398348 87.5392183 26.826769 87.5390643"></polygon>
                    <polygon id="Fill-3" fill="#000000" points="138.394789 96.3938421 136.263311 96.3938421 134.435985 87.5390643 140.222115 87.5392183"></polygon>
                    <polygon id="Fill-4" fill="#000000" points="38.4004764 96.3938421 36.2689986 96.3938421 34.4416727 87.5392183 40.2278023 87.5390643"></polygon>
                    <g id="Group-59" transform="translate(0.000000, 0.107779)" stroke="#000000">
                        <path d="M162.271594,28.5693772 C162.40927,18.733821 160.679061,6.1680926 151.428748,3.33369114 C142.152544,0.491357993 93.1457344,-0.241991255 58.3943483,0.734692709" id="Fill-5"></path>
                        <path d="M50.8273195,0.983565813 C37.5152788,1.49096521 27.3124513,2.28364534 23.9963048,3.33369114 C14.9059523,6.21197584 13.09036,18.4491886 13.163745,28.1927881" id="Fill-5"></path>
                        <polyline id="Fill-13" points="133.249467 58.2051738 153.133844 58.2051738 150.12549 87.431285 129.979339 87.431285"></polyline>
                        <polyline id="Fill-13" points="120.316446 87.431285 28.3834593 87.431285 25.2143426 58.2051738 112.024344 58.2051738"></polyline>
                        <g id="Group-19" transform="translate(0.000000, 27.723644)">
                            <path d="M18.298685,59.7077953 L28.4258199,59.7077953 C28.4258199,59.7077953 24.3141356,13.5048029 21.8012608,6.07255611 C20.2467061,1.47351166 12.8167075,-2.08974665 4.41229594,3.24936506 C2.11989111,4.70562646 0.429353183,6.95047149 0.0463469703,9.5588043 C-0.345510226,12.234906 1.69987169,15.5709845 7.41036558,16.274857 L18.298685,59.7077953 Z" id="Fill-17"></path>
                        </g>
                        <path d="M160.375725,87.431439 L150.24859,87.431439 C150.24859,87.431439 154.360274,41.2284466 156.873149,33.7961998 C158.427704,29.1971554 165.857702,25.633897 174.262114,30.9730088 C176.555323,32.4292701 178.245057,34.6741152 178.628063,37.282448 C179.01992,39.9585497 176.974538,43.2946282 171.264044,43.9985007 L160.375725,87.431439 Z" id="Fill-22"></path>
                    </g>
                </g>
                <g id="woman-sitting-laptop" transform="translate(26.552674, 0.000000)">
                    <path d="M90.3984698,80.7509241 C90.6380288,82.1768706 94.329211,113.435879 94.9879983,113.974887 C95.6467856,114.513895 102.642479,115.708838 103.241376,114.810492 C103.361156,113.384545 103.879459,91.8305878 104.250205,89.7971881 L90.3984698,80.7509241 Z" id="Path" stroke="#000000" fill-rule="nonzero"></path>
                    <path d="M76.5523873,52.9998651 C92.3433185,52.9998651 113.447326,87.5682947 113.447326,88.4735787 C113.447326,89.3788628 110.80077,91.6832221 109.477491,92.9999989 C107.749244,92.9999989 85.7069636,74.8063439 76.3955332,74.8063439 C75.4703045,74.8063439 73.5037637,75.8560943 70.8339077,77.4950589 C70.6320424,77.6189794 70.4261565,77.7462684 70.216396,77.8767266 L11.6201371,77.8767245 C11.5763477,77.6890266 11.5365982,77.5060614 11.5008876,77.3282572 C11.0790546,75.2279332 11.0252018,74.1875215 11.7369396,74.181257 C28.0868209,74.0373505 70.4293731,52.9943907 76.5523873,52.9998651 Z" id="Combined-Shape" stroke="#000000" fill-rule="nonzero"></path>
                    <path d="M26.5522955,24.7712503 C26.672155,24.7720912 26.7786037,24.773771 26.8705353,24.7762315 C29.3089038,24.841825 42.0026793,24.468227 45.4819887,27.7821266 C46.7651458,29.0028982 49.3939624,34.8428981 51.8653542,41.3196014 L52.1610694,42.099607 C52.2593251,42.3604577 52.3572328,42.6220723 52.4546962,42.8841958 L52.7626772,43.7182326 L53.0669847,44.5538777 C53.0980766,44.6398617 53.1290993,44.7258424 53.1600495,44.8118109 L53.1393212,44.7737048 L45.2139107,46.8128083 C45.5737149,48.4722607 45.6748175,51.6091862 45.6625373,54.7807225 L45.6564862,55.645461 C45.6436318,56.929476 45.6142999,58.1976079 45.5781852,59.3535976 C42.4235183,60.0997092 37.6183234,60.9154737 32.7059455,61.5950109 L31.809988,61.7172802 C23.2936923,62.8636411 14.7370998,63.5644282 14.145389,62.7548898 C13.1073,61.3346471 15.6255214,53.0755652 16.1417141,51.1391299 C16.1417141,51.1391299 5.20185273,48.3414229 3.04296977,48.0733449 C3.04018955,48.0888644 3.03655198,48.1086259 3.03209002,48.1325082 C4.3714862,40.5271718 6.5180899,32.7139944 9.8646977,27.0748572 C12.5165667,25.3086967 22.7325933,24.7923297 26.1535916,24.771302 L26.5522955,24.7712503 Z" id="Combined-Shape" fill="#000000" fill-rule="nonzero"></path>
                    <path d="M24.400796,17.5212293 L24.400796,25.6955554 C24.400796,27.6918805 31.8157177,27.6747691 31.8157177,25.6955554 L31.8157177,20.4360267" id="Path" stroke="#000000" fill-rule="nonzero"></path>
                    <path d="M29.5655742,4.7312904 C35.2379892,4.7312904 39.8323888,9.4996554 39.8323888,15.3802587 C39.8323888,16.1683723 39.7480875,16.9542252 39.5814222,17.7245147 L39.5814222,17.7245147 L36.5255919,17.7249941 C37.9842046,15.6522827 38.3548211,12.9722502 37.4624657,10.5520039 C37.2673846,10.5762235 37.0700569,10.5762235 36.8749758,10.5520039 C35.617291,10.3609271 34.3624581,9.37132022 33.486927,8.72394052 C28.4961143,12.3800673 25.2991423,12.4314013 24.9540633,12.4314013 C24.6089842,12.4314013 23.203001,14.4505416 22.5556213,14.678693 L22.4985834,14.6444703 C22.70486,15.7736675 23.1526076,16.8198694 23.7896668,17.7251474 L19.5497261,17.7245147 C19.3830608,16.9542252 19.2987596,16.1683723 19.2987596,15.3802587 C19.2987596,9.4996554 23.8931591,4.7312904 29.5655742,4.7312904 Z" id="Combined-Shape" fill="#000000" fill-rule="nonzero"></path>
                    <path d="M33.4838586,9.34370481 C34.5248932,10.1086863 35.6659603,10.8740588 36.7998739,11.0463314 C37.4830445,12.2586435 37.5381969,13.5022562 37.2992223,14.6865163 C37.0370446,15.9857608 36.4208512,17.2135676 35.4810125,18.2194329 C34.5411738,19.2252981 33.3579639,19.9233083 32.0794816,20.27296 C30.8009993,20.6226116 29.4272445,20.6239047 28.106316,20.2363358 C26.7853875,19.8487668 25.6301092,19.1054391 24.7432183,18.120453 C23.9316242,17.2190921 23.3447799,16.1153644 23.061532,14.8966735 C23.4662308,14.6068105 23.9545266,14.1064352 24.3831462,13.6342851 C24.6383753,13.353135 24.8446356,12.9314013 24.9540633,12.9314013 L24.9540633,12.9314013 L25.0095503,12.931077 C25.5613896,12.9240823 28.6911527,12.7681594 33.4838586,9.34370481 Z" id="Path" stroke="#000000" fill-rule="nonzero"></path>
                    <circle id="Oval" fill="#000000" fill-rule="nonzero" cx="24.0043829" cy="3.02871031" r="3.02871031"></circle>
                    <path d="M25.3533283,12.2631397 C24.6734746,12.2953226 24.1388111,12.8558949 24.1388111,13.5365099 C24.1388111,14.2171249 24.6734746,14.7776971 25.3533283,14.8098801" id="Path" stroke="#000000" stroke-width="0.3" stroke-linecap="round"></path>
                    <path d="M35.0611719,12.4171419 C35.4347698,12.9162231 36.3958578,13.7889024 35.0611719,14.7157676" id="Path" stroke="#000000" stroke-width="0.3" stroke-linecap="round"></path>
                    <path d="M31.0143358,15.4002219 C31.0143358,15.7738199 31.1740418,16.6664624 31.9754237,16.8974657" id="Path" stroke="#000000" stroke-width="0.3" stroke-linecap="round"></path>
                    <ellipse id="Oval" fill="#FF6E61" fill-rule="nonzero" cx="28.530337" cy="14.8697698" rx="1.17497989" ry="1"></ellipse>
                    <ellipse id="Oval" fill="#FF6E61" fill-rule="nonzero" cx="37.2656851" cy="14.8697698" rx="1.17497989" ry="1"></ellipse>
                    <path d="M45.2139107,46.8128083 L52.64779,44.7737048 C53.4092454,46.0599085 58.1210422,59.4638054 58.1210422,59.4638054 L45.7647664,64.371215" id="Path" stroke="#000000" fill-rule="nonzero"></path>
                    <path d="M108.94231,92.7824706 C109.119128,93.0534005 111.480495,95.9623313 112.3161,95.996554 C113.151704,96.0307767 118.225222,92.5913938 118.002774,91.8527535 C117.780327,91.1141133 114.597614,91.5932313 114.050051,91.3365609 C113.502487,91.0798906 112.284729,89.8592804 112.0908,89.3145688" id="Path" fill="#000000" fill-rule="nonzero"></path>
                    <path d="M96.4652789,114.277188 C96.4053891,114.593748 96.0831252,118.326876 96.6620595,118.931477 C97.2409937,119.536078 103.278451,120.585575 103.629234,119.898269 C103.980017,119.210963 101.34772,117.348676 101.145235,116.784002 C100.942751,116.219327 100.639395,115.490634 100.884658,114.954478" id="Path" fill="#000000" fill-rule="nonzero"></path>
                    <rect id="Rectangle" fill="#FF6E61" fill-rule="nonzero" x="55.6210422" y="58.9504646" width="5" height="1"></rect>
                    <polygon id="Path" fill="#FF6E61" fill-rule="nonzero" points="62.1435703 58.5892887 68.5375143 41.6461927 95.3937902 41.6461927 88.9998462 58.5892887"></polygon>
                    <polygon id="Path" stroke="#000000" fill-rule="nonzero" points="86.9998462 59.5892887 60.1435703 59.5892887 66.5375143 42.6461927 93.3937902 42.6461927"></polygon>
                    <rect id="Rectangle" fill="#FF6E61" fill-rule="nonzero" x="37.7647664" y="58.9504646" width="8" height="1"></rect>
                    <path d="M16.1417141,51.0657849 C15.6255214,53.0022202 13.1073,61.2613022 14.145389,62.6815449 C15.183478,64.1017876 40.7364388,60.8734448 47.57813,58.7459326 C49.3206366,58.175554 50.6125441,56.6783102 51.3854071,56.4872334 C53.4352068,56.1414396 55.4173745,57.3916545 55.9883623,59.3904604 C53.2562489,60.7137387 13.8088656,80.8538067 1.02668146,71.8903072 C-1.38887186,70.1706158 3.43777196,49.066608 3.62884879,48 C5.78773175,48.2680779 16.1417141,51.0657849 16.1417141,51.0657849 Z" id="Path" stroke="#000000" fill-rule="nonzero"></path>
                    <path d="M45.578953,59.3497297 C46.3489641,59.1672085 47.0220109,58.9903911 47.5752781,58.8192776 C49.3177847,58.248899 50.6096922,56.7516552 51.3825552,56.5605784 C53.43334,56.2131923 55.4172692,57.4637433 55.9883623,59.4638054" id="Path" stroke="#000000" stroke-linecap="round"></path>
                </g>
            </g>
        </g>
        <g id="undraw_cancel_u1it" transform="translate(221.000000, 182.000000)" stroke="#000000">
            <circle id="Oval" cx="14" cy="14" r="14"></circle>
        </g>
        <line x1="227" y1="193.5" x2="242.5" y2="193.5" id="Line-Copy-5" stroke="#000000" stroke-linecap="round"></line>
        <line x1="227" y1="198.5" x2="242.5" y2="198.5" id="Line-Copy-6" stroke="#000000" stroke-linecap="round"></line>
    </g>
</svg>
