<svg width="125" height="106" viewBox="0 0 125 106" fill="none" xmlns="http://www.w3.org/2000/svg">
<g clip-path="url(#clip0_179_6221)">
<path d="M31.7158 12.0583V6.94334C31.7158 6.16795 32.3464 5.53937 33.1243 5.53937H113.327C114.105 5.53937 114.735 6.16795 114.735 6.94334V58.7897" stroke="#414D86"/>
<path d="M105.649 66.4058H34.6533" stroke="#414D86"/>
<path d="M31.7158 34.8442V10.8286" stroke="#414D86"/>
<path fill-rule="evenodd" clip-rule="evenodd" d="M36.023 9.02269C36.023 9.52598 35.6133 9.93435 35.1084 9.93435C34.603 9.93435 34.1938 9.52598 34.1938 9.02269C34.1938 8.51939 34.603 8.11102 35.1084 8.11102C35.6133 8.11102 36.023 8.51939 36.023 9.02269Z" fill="#414D86"/>
<path fill-rule="evenodd" clip-rule="evenodd" d="M39.3272 9.02269C39.3272 9.52598 38.9175 9.93435 38.4126 9.93435C37.9072 9.93435 37.498 9.52598 37.498 9.02269C37.498 8.51939 37.9072 8.11102 38.4126 8.11102C38.9175 8.11102 39.3272 8.51939 39.3272 9.02269Z" fill="#414D86"/>
<path fill-rule="evenodd" clip-rule="evenodd" d="M42.6314 9.02269C42.6314 9.52598 42.2217 9.93435 41.7168 9.93435C41.2114 9.93435 40.8022 9.52598 40.8022 9.02269C40.8022 8.51939 41.2114 8.11102 41.7168 8.11102C42.2217 8.11102 42.6314 8.51939 42.6314 9.02269Z" fill="#414D86"/>
<path d="M64.3021 52.6126C63.8466 52.6126 63.4761 52.2432 63.4761 51.7891C63.4761 51.3351 63.8466 50.9657 64.3021 50.9657C64.7576 50.9657 65.1282 51.3351 65.1282 51.7891C65.1282 52.2432 64.7576 52.6126 64.3021 52.6126Z" fill="#414D86"/>
<path d="M89.3528 52.081H60.6106C60.2633 52.081 60.2163 51.9889 60.2163 51.8752C60.2163 51.7615 60.2633 51.6693 60.6106 51.6693H89.3528C89.7 51.6693 89.7938 51.7615 89.7938 51.8752C89.7938 51.9889 89.7 52.081 89.3528 52.081Z" fill="#414D86"/>
<g filter="url(#filter0_f_179_6221)">
<path d="M56.6904 50.5431V53.164L59.3198 51.8535L56.6904 50.5431Z" fill="#FF6E61"/>
</g>
<path d="M56.6904 50.5431V53.164L59.3198 51.8535L56.6904 50.5431Z" fill="#FF6E61"/>
<path d="M56.9321 43.462H88.9995V22.1924H56.9321V43.462Z" stroke="#414D86" stroke-linejoin="round"/>
<path d="M73.3467 26.5654C76.4572 26.5654 78.9877 29.0879 78.9877 32.1885C78.9877 35.2891 76.4572 37.8117 73.3467 37.8117C70.2362 37.8117 67.7056 35.2891 67.7056 32.1885C67.7056 29.0879 70.2362 26.5654 73.3467 26.5654ZM71.4473 33.7799C71.3937 33.7799 71.3396 33.784 71.2855 33.7927C71.0162 33.8352 70.7798 33.9796 70.6196 34.1996C70.4593 34.4194 70.3945 34.6881 70.4371 34.9566C70.4798 35.225 70.6248 35.4607 70.8453 35.6205C71.0658 35.78 71.3354 35.8454 71.6048 35.8022C71.874 35.7597 72.1106 35.6152 72.2708 35.3953C72.6016 34.9416 72.5003 34.3042 72.045 33.9744C71.8688 33.8468 71.6611 33.7799 71.4473 33.7799ZM75.246 33.7799C75.0322 33.7799 74.8246 33.8468 74.6484 33.9744C74.4277 34.1342 74.2828 34.3699 74.2402 34.6384C74.1976 34.9068 74.2623 35.1755 74.4225 35.3953C74.5827 35.6152 74.8193 35.7597 75.0885 35.8022C75.3576 35.8452 75.6275 35.78 75.848 35.6205C76.0685 35.4607 76.2135 35.225 76.2562 34.9566C76.2988 34.6881 76.2341 34.4194 76.0738 34.1996C75.9135 33.9797 75.6771 33.8352 75.4078 33.7927C75.3538 33.784 75.2997 33.7799 75.246 33.7799ZM73.3267 31.5207C72.9484 31.5207 72.6406 31.8275 72.6406 32.2047C72.6406 32.5819 72.9484 32.8886 73.3267 32.8886C73.705 32.8886 74.0128 32.5819 74.0128 32.2047C74.0128 31.8275 73.705 31.5207 73.3267 31.5207ZM77.3939 30.8776C77.2202 30.3444 76.6429 30.0512 76.108 30.2245C75.5728 30.3979 75.2789 30.973 75.4528 31.5065C75.5371 31.7649 75.7172 31.9751 75.9601 32.0985C76.203 32.222 76.4794 32.2435 76.7387 32.1596C76.998 32.0756 77.2089 31.896 77.3327 31.654C77.4564 31.4118 77.4782 31.1361 77.3939 30.8776ZM70.5854 30.2245C70.0499 30.0509 69.4731 30.3442 69.2994 30.8776C69.2151 31.1361 69.2369 31.4118 69.3606 31.654C69.4844 31.896 69.6953 32.0756 69.9546 32.1596C70.4895 32.3331 71.0667 32.0399 71.2406 31.5065C71.4145 30.973 71.1205 30.3979 70.5854 30.2245ZM73.3467 27.9465C72.784 27.9465 72.3261 28.403 72.3261 28.9639C72.3261 29.5248 72.784 29.9811 73.3467 29.9811C73.9094 29.9811 74.3673 29.5248 74.3673 28.9639C74.3673 28.403 73.9094 27.9465 73.3467 27.9465Z" fill="#414D86"/>
<path d="M73.3467 26.2101C70.0396 26.2101 67.3491 28.8921 67.3491 32.1886C67.3491 35.4851 70.0396 38.167 73.3467 38.167C76.6537 38.167 79.3442 35.4851 79.3442 32.1886C79.3442 28.8921 76.6537 26.2101 73.3467 26.2101ZM73.3467 37.8117C70.2362 37.8117 67.7056 35.2892 67.7056 32.1886C67.7056 29.088 70.2362 26.5655 73.3467 26.5655C76.4572 26.5655 78.9878 29.088 78.9878 32.1886C78.9878 35.2892 76.4572 37.8117 73.3467 37.8117Z" fill="#414D86"/>
<path d="M73.3463 30.3365C74.1056 30.3365 74.7233 29.7207 74.7233 28.9639C74.7233 28.2069 74.1056 27.5912 73.3463 27.5912C72.587 27.5912 71.9692 28.2069 71.9692 28.9639C71.9692 29.7207 72.587 30.3365 73.3463 30.3365ZM73.3463 27.9465C73.909 27.9465 74.3668 28.403 74.3668 28.9639C74.3668 29.5248 73.909 29.9811 73.3463 29.9811C72.7835 29.9811 72.3257 29.5248 72.3257 28.9639C72.3257 28.403 72.7835 27.9465 73.3463 27.9465Z" fill="#414D86"/>
<path d="M71.5795 31.6162C71.814 30.8965 71.4174 30.1206 70.6954 29.8866C69.9728 29.6524 69.1949 30.0481 68.9602 30.768C68.8465 31.1167 68.8759 31.4885 69.0428 31.8152C69.2098 32.1421 69.4945 32.3843 69.8443 32.4976C69.9852 32.5432 70.1281 32.5649 70.2688 32.5649C70.8493 32.5649 71.3906 32.1957 71.5795 31.6162ZM69.9544 32.1596C69.6952 32.0756 69.4842 31.896 69.3605 31.654C69.2367 31.4118 69.215 31.1361 69.2992 30.8776C69.4729 30.3443 70.0497 30.0509 70.5852 30.2246C71.1203 30.3979 71.4143 30.973 71.2404 31.5065C71.0665 32.0399 70.4894 32.3331 69.9544 32.1596Z" fill="#414D86"/>
<path d="M72.2546 33.6871C71.9571 33.4716 71.5935 33.3838 71.2298 33.4417C70.8664 33.499 70.5473 33.694 70.3312 33.9907C70.115 34.2874 70.0276 34.65 70.0851 35.0123C70.1427 35.3743 70.3382 35.6924 70.6357 35.9079C70.8736 36.0801 71.1538 36.1704 71.4422 36.1704C71.5147 36.1704 71.5876 36.1648 71.6606 36.1532C72.0238 36.0959 72.343 35.9009 72.5592 35.6042C73.0055 34.992 72.8688 34.1319 72.2546 33.6871ZM72.2708 35.3953C72.1106 35.6152 71.874 35.7597 71.6048 35.8022C71.3354 35.8454 71.0658 35.78 70.8453 35.6205C70.6248 35.4608 70.4798 35.225 70.4371 34.9566C70.3945 34.6882 70.4593 34.4194 70.6196 34.1996C70.7798 33.9796 71.0162 33.8352 71.2855 33.7927C71.3396 33.7841 71.3937 33.7799 71.4473 33.7799C71.6611 33.7799 71.8688 33.8469 72.045 33.9744C72.5003 34.3042 72.6016 34.9416 72.2708 35.3953Z" fill="#414D86"/>
<path d="M75.4634 33.4417C75.0998 33.3841 74.7362 33.4716 74.4386 33.6871C74.141 33.9025 73.9454 34.2206 73.8879 34.5827C73.8303 34.9449 73.9177 35.3077 74.1339 35.6042C74.3501 35.9009 74.6693 36.0959 75.0325 36.1532C75.1054 36.1648 75.1784 36.1704 75.2509 36.1704C75.5392 36.1704 75.8195 36.0801 76.0573 35.9078C76.3549 35.6924 76.5504 35.3743 76.608 35.0122C76.6655 34.65 76.5781 34.2874 76.3619 33.9907C76.1458 33.694 75.8266 33.499 75.4634 33.4417ZM76.2559 34.9566C76.2133 35.225 76.0683 35.4607 75.8478 35.6205C75.6273 35.78 75.3574 35.8452 75.0883 35.8022C74.819 35.7597 74.5825 35.6152 74.4223 35.3953C74.2621 35.1755 74.1973 34.9068 74.24 34.6384C74.2826 34.37 74.4275 34.1342 74.6481 33.9744C74.8243 33.8469 75.032 33.7799 75.2457 33.7799C75.2994 33.7799 75.3536 33.784 75.4076 33.7927C75.6769 33.8352 75.9133 33.9798 76.0735 34.1996C76.2338 34.4194 76.2986 34.6881 76.2559 34.9566Z" fill="#414D86"/>
<path d="M75.9975 29.8866C75.2755 30.1206 74.8788 30.8965 75.1134 31.6162C75.2271 31.9649 75.4701 32.2488 75.7979 32.4152C75.9944 32.5149 76.2072 32.5654 76.4215 32.5654C76.5647 32.5654 76.7084 32.543 76.8485 32.4976C77.1983 32.3843 77.483 32.1421 77.65 31.8152C77.8169 31.4885 77.8463 31.1167 77.7326 30.7679C77.4979 30.0481 76.7196 29.6525 75.9975 29.8866ZM77.3936 30.8776C77.4778 31.1361 77.4561 31.4118 77.3323 31.654C77.2086 31.896 76.9976 32.0756 76.7384 32.1596C76.479 32.2436 76.2026 32.222 75.9597 32.0985C75.7168 31.9752 75.5367 31.7649 75.4525 31.5065C75.2786 30.973 75.5725 30.3979 76.1077 30.2245C76.6426 30.0512 77.2198 30.3444 77.3936 30.8776Z" fill="#414D86"/>
<path d="M73.3465 25.082C69.4154 25.082 66.2173 28.2701 66.2173 32.1886C66.2173 35.3337 68.2784 38.0066 71.1244 38.9398H66.3955C66.2971 38.9398 66.2173 39.0192 66.2173 39.1174C66.2173 39.2156 66.2971 39.2951 66.3955 39.2951H73.1741C73.1809 39.2951 73.1867 39.292 73.1933 39.2912C73.2444 39.2923 73.2951 39.2951 73.3465 39.2951C77.2775 39.2951 80.4757 36.107 80.4757 32.1886C80.4757 28.2701 77.2775 25.082 73.3465 25.082ZM73.3465 38.9398C69.612 38.9398 66.5737 35.9112 66.5737 32.1886C66.5737 28.466 69.612 25.4374 73.3465 25.4374C77.0809 25.4374 80.1192 28.466 80.1192 32.1886C80.1192 35.9112 77.081 38.9398 73.3465 38.9398Z" fill="#414D86"/>
<path d="M74.3688 32.2047C74.3688 31.6317 73.9012 31.1655 73.3263 31.1655C72.7514 31.1655 72.2837 31.6317 72.2837 32.2047C72.2837 32.7778 72.7514 33.244 73.3263 33.244C73.9012 33.244 74.3688 32.7778 74.3688 32.2047ZM73.3263 32.8887C72.948 32.8887 72.6402 32.5819 72.6402 32.2047C72.6402 31.8275 72.948 31.5208 73.3263 31.5208C73.7046 31.5208 74.0124 31.8275 74.0124 32.2047C74.0124 32.5819 73.7046 32.8887 73.3263 32.8887Z" fill="#414D86"/>
<path d="M31.9224 12.0582H114.529" stroke="#414D86" stroke-linecap="square"/>
<path d="M13.7541 103.58C13.7367 103.865 13.5605 104.915 13.7831 105.21C14.1915 105.745 17.7588 105.718 17.935 105.563C18.1111 105.409 18.2311 105.066 18.0879 104.957C17.9446 104.849 16.5491 104.479 16.3671 104.336C16.1852 104.193 15.9607 103.775 16.0826 103.403L13.7541 103.58Z" fill="#414D86"/>
<path d="M31.4334 56.8007C32.0412 58.1744 37.1454 73.1411 37.0273 75.3232C36.9092 77.5054 25.0982 99.9911 24.446 100.228C23.7937 100.466 21.0838 99.6361 20.8651 99.0457C20.6816 98.5504 23.7021 89.0262 24.7497 83.942" stroke="#414D86"/>
<path d="M31.4336 56.8006C31.1278 58.4194 26.0488 80.743 26.0488 80.743L16.7367 103.223C15.9624 103.599 13.6842 103.64 13.2855 103.52C12.8868 103.4 14.8011 81.8737 15.5579 78.8232C16.1655 76.3741 17.5969 61.8031 18.1267 56.326" stroke="#414D86"/>
<path d="M21.2843 99.4474C21.1798 99.7117 20.5961 101.008 20.7219 101.357C20.9483 101.99 24.3511 103.047 24.566 102.953C24.7808 102.858 25.0015 102.567 24.8989 102.422C24.7963 102.277 23.5788 101.502 23.4472 101.309C23.3156 101.116 23.2149 100.495 23.4472 100.176L21.2843 99.4474Z" fill="#414D86"/>
<path d="M24.4326 29.0731C24.4326 30.654 24.4326 31.6941 24.4326 32.1934H27.5361V29.3093" stroke="#414D86"/>
<path d="M20.4935 17.3128C19.5496 17.3128 18.7844 18.2129 18.7844 19.3233C18.7844 20.2945 19.3699 21.1049 20.1483 21.2927C20.0022 21.3717 19.8785 21.4598 19.7812 21.5576C17.2514 24.1025 17.6501 29.1036 17.1546 30.8034C16.1965 34.095 11.3691 42.8084 11.3691 45.7025C11.3691 52.7122 13.7853 55.6565 17.6894 55.7626C18.4179 54.0051 19.0616 51.0317 19.6205 46.8426C20.3258 41.5556 21.4293 37.6505 22.931 35.1273C22.931 35.1273 22.9309 35.1264 22.9308 35.1245L22.9307 35.1094C22.9331 35.012 22.9922 34.5045 23.8622 33.2521C24.3948 32.4853 24.414 30.6575 24.3944 29.0263C24.9277 29.3509 25.5543 29.5377 26.2248 29.5377C28.1693 29.5377 29.7456 27.9664 29.7456 26.0281C29.7456 25.1341 29.4103 24.3181 28.8581 23.6984C28.9833 23.2543 29.024 21.7314 27.7461 21.1987C26.7489 20.783 23.6863 20.5166 21.5965 20.8585C21.9674 20.4898 22.2026 19.9388 22.2026 19.3233C22.2026 18.2129 21.4374 17.3128 20.4935 17.3128Z" stroke="#414D86"/>
<g filter="url(#filter1_f_179_6221)">
<path d="M29.7846 26.8498C29.4597 26.8498 29.1962 26.6927 29.1962 26.4988C29.1962 26.305 29.4597 26.1478 29.7846 26.1478C30.1096 26.1478 30.373 26.305 30.373 26.4988C30.373 26.6927 30.1096 26.8498 29.7846 26.8498Z" fill="#FF6E61"/>
</g>
<g filter="url(#filter2_f_179_6221)">
<path d="M26.0913 26.8498C25.7663 26.8498 25.5029 26.6927 25.5029 26.4988C25.5029 26.305 25.7663 26.1478 26.0913 26.1478C26.4162 26.1478 26.6797 26.305 26.6797 26.4988C26.6797 26.6927 26.4162 26.8498 26.0913 26.8498Z" fill="#FF6E61"/>
</g>
<path d="M26.0913 26.8498C25.7663 26.8498 25.5029 26.6927 25.5029 26.4988C25.5029 26.305 25.7663 26.1478 26.0913 26.1478C26.4162 26.1478 26.6797 26.305 26.6797 26.4988C26.6797 26.6927 26.4162 26.8498 26.0913 26.8498Z" fill="#FF6E61"/>
<path d="M29.7846 26.8498C29.4597 26.8498 29.1962 26.6927 29.1962 26.4988C29.1962 26.305 29.4597 26.1478 29.7846 26.1478C30.1096 26.1478 30.373 26.305 30.373 26.4988C30.373 26.6927 30.1096 26.8498 29.7846 26.8498Z" fill="#FF6E61"/>
<path d="M28.3505 25.866C28.4608 26.0223 29.026 26.6783 28.4298 26.9445" stroke="#414D86" stroke-width="0.62" stroke-linecap="round"/>
<path d="M27.2373 27.7105C26.9999 27.6466 26.7937 27.4992 26.6566 27.2957" stroke="#414D86" stroke-width="0.62" stroke-linecap="round"/>
<path d="M20.4939 17.3128C19.55 17.3128 18.7848 18.2129 18.7848 19.3233C18.7848 20.2945 19.3703 21.1049 20.1487 21.2927C20.0026 21.3717 19.8789 21.4598 19.7816 21.5576C17.2518 24.1025 17.6505 29.1036 17.155 30.8034C16.1969 34.095 11.3695 42.8084 11.3695 45.7025C11.3695 52.7122 13.7857 55.6565 17.6898 55.7626C18.4183 54.0051 19.062 51.0317 19.6209 46.8426C20.3262 41.5556 21.4297 37.6505 22.9314 35.1273C22.9314 35.1273 22.9313 35.1264 22.9312 35.1245L22.9311 35.1094C22.9335 35.012 22.9926 34.5045 23.8626 33.2521C24.8413 31.8431 24.0864 26.8519 24.5432 26.0802C25.1064 25.1251 26.9607 23.0452 27.6401 22.9622C27.7698 22.9448 28.4956 23.5082 28.8266 23.7861C28.9679 23.514 29.1305 21.7756 27.7466 21.1987C26.7493 20.783 23.6868 20.5166 21.5969 20.8585C21.9679 20.4898 22.203 19.9388 22.203 19.3233C22.203 18.2129 21.4378 17.3128 20.4939 17.3128Z" fill="#414D86" stroke="#414D86"/>
<path d="M25.5922 31.8724C24.6702 31.9901 23.8249 32.642 23.0591 33.6556C19.8949 36.7511 17.3367 48.9276 17.133 50.2143C16.303 55.4569 20.4939 61.6108 20.4939 61.6108C20.4939 61.6108 20.9695 61.2383 21.4747 60.8463L21.6129 60.7392C21.9355 60.4894 22.2538 60.2447 22.4527 60.0961C22.3337 59.9094 21.9739 57.8731 21.6465 55.7618C25.4555 56.639 30.8596 57.4383 31.4339 56.8007C31.9106 56.2714 32.8958 48.4379 32.1479 41.6848C33.1699 42.0907 34.6263 42.5855 36.0748 43.042L36.3945 43.1422C38.6292 43.8386 40.7673 44.4214 41.1737 44.4214C41.5498 44.4214 43.6777 42.6383 45.99 40.591L46.2179 40.3888C46.2941 40.3212 46.3704 40.2533 46.4468 40.1853L46.7709 39.8959C46.8439 39.8306 46.917 39.7652 46.99 39.6997L47.2088 39.5033L47.427 39.3068C47.4633 39.2741 47.4996 39.2414 47.5359 39.2087L47.7528 39.0128C50.205 36.796 52.4174 34.7146 52.5027 34.5967C52.6886 34.3401 51.924 33.5529 51.4227 33.0532C51.3433 33.1044 51.0719 33.2628 50.6654 33.4947L50.4512 33.6167C49.5764 34.1137 48.2266 34.868 46.8196 35.6334L46.5253 35.7932C45.3592 36.4252 44.1739 37.053 43.2044 37.5383L43 37.6401C42.029 38.1209 41.3075 38.4382 41.0963 38.4382C40.6922 38.4382 38.2241 37.3309 35.5967 36.1001L35.2675 35.9456L34.9376 35.7904C34.8275 35.7385 34.7175 35.6866 34.6076 35.6346L34.2785 35.4789C31.9792 34.3899 29.801 33.3318 29.0196 32.964L29.0167 32.9623C28.1121 32.1179 26.986 31.6972 25.5922 31.8724Z" fill="#414D86"/>
<path d="M53.1326 34.6887C52.2229 34.6887 51.3519 33.9784 51.3519 33.2304C51.3519 32.4823 52.1658 31.8125 53.0755 31.8125C53.9852 31.8125 54.7227 32.4189 54.7227 33.167C54.7227 33.915 54.0423 34.6887 53.1326 34.6887Z" stroke="#414D86"/>
<path d="M25.561 42.079C25.021 42.7524 21.0337 49.9241 21.0337 51.0027C21.0337 51.5371 21.326 53.6865 21.6473 55.7626" stroke="#121424" stroke-linecap="round" stroke-linejoin="round"/>
<path d="M30.3923 35.1273C31.1936 36.8812 31.8717 39.2948 32.1543 41.7298" stroke="black" stroke-linecap="round" stroke-linejoin="round"/>
<path d="M52.1386 29.1364L54.1265 35.4032" stroke="#414D86" stroke-width="2" stroke-linecap="round"/>
<path d="M23.8105 32.5142C22.0821 34.4081 21.8137 35.0074 20.1433 38.2324C18.473 41.4573 18.8011 41.7663 18.0982 45.083C17.6145 47.8595 17.024 47.7145 17.024 51.3357C17.024 53.0725 17.3098 54.9418 17.6431 56.1974" stroke="#121424" stroke-linecap="round"/>
<g filter="url(#filter3_f_179_6221)">
<path fill-rule="evenodd" clip-rule="evenodd" d="M10.9574 16.4236L10.428 16.5126L9.89865 16.6014L9.88301 17.0938C9.67094 17.1881 9.4704 17.312 9.28831 17.4647L8.83742 17.2641L8.52618 17.7001L8.21491 18.1361L8.55281 18.495C8.46773 18.7165 8.41597 18.946 8.39608 19.1766L7.93457 19.3527L8.02376 19.8804L8.11295 20.4081L8.60686 20.4237C8.70145 20.6351 8.82576 20.835 8.97897 21.0165L8.7777 21.4659L9.2151 21.7762L9.65249 22.0865L10.0125 21.7496C10.2348 21.8345 10.465 21.8861 10.6963 21.9059L10.8729 22.3659L11.4023 22.277L11.9317 22.1881L11.9473 21.6958C12.1594 21.6015 12.36 21.4776 12.5421 21.3248L12.9929 21.5255L13.3042 21.0895L13.6154 20.6535L13.2775 20.2946C13.3626 20.0731 13.4144 19.8436 13.4343 19.613L13.8958 19.4369L13.8066 18.9092L13.7174 18.3815L13.2235 18.3659C13.1289 18.1545 13.0046 17.9546 12.8514 17.7731L13.0527 17.3236L12.6153 17.0134L12.1779 16.7031L11.8178 17.0399C11.5956 16.9551 11.3654 16.9035 11.134 16.8837L10.9574 16.4236ZM10.2733 20.2938C9.77521 19.9405 9.65877 19.2515 10.0132 18.755C10.3677 18.2584 11.0589 18.1424 11.557 18.4957C12.0551 18.8491 12.1716 19.538 11.8171 20.0346C11.6012 20.337 11.2603 20.4984 10.9142 20.4984C10.6922 20.4984 10.468 20.432 10.2733 20.2938Z" fill="#FF6E61"/>
</g>
<path fill-rule="evenodd" clip-rule="evenodd" d="M10.9574 16.4236L10.428 16.5126L9.89865 16.6014L9.88301 17.0938C9.67094 17.1881 9.4704 17.312 9.28831 17.4647L8.83742 17.2641L8.52618 17.7001L8.21491 18.1361L8.55281 18.495C8.46773 18.7165 8.41597 18.946 8.39608 19.1766L7.93457 19.3527L8.02376 19.8804L8.11295 20.4081L8.60686 20.4237C8.70145 20.6351 8.82576 20.835 8.97897 21.0165L8.7777 21.4659L9.2151 21.7762L9.65249 22.0865L10.0125 21.7496C10.2348 21.8345 10.465 21.8861 10.6963 21.9059L10.8729 22.3659L11.4023 22.277L11.9317 22.1881L11.9473 21.6958C12.1594 21.6015 12.36 21.4776 12.5421 21.3248L12.9929 21.5255L13.3042 21.0895L13.6154 20.6535L13.2775 20.2946C13.3626 20.0731 13.4144 19.8436 13.4343 19.613L13.8958 19.4369L13.8066 18.9092L13.7174 18.3815L13.2235 18.3659C13.1289 18.1545 13.0046 17.9546 12.8514 17.7731L13.0527 17.3236L12.6153 17.0134L12.1779 16.7031L11.8178 17.0399C11.5956 16.9551 11.3654 16.9035 11.134 16.8837L10.9574 16.4236ZM10.2733 20.2938C9.77521 19.9405 9.65877 19.2515 10.0132 18.755C10.3677 18.2584 11.0589 18.1424 11.557 18.4957C12.0551 18.8491 12.1716 19.538 11.8171 20.0346C11.6012 20.337 11.2603 20.4984 10.9142 20.4984C10.6922 20.4984 10.468 20.432 10.2733 20.2938Z" fill="#FF6E61"/>
<g filter="url(#filter4_f_179_6221)">
<path fill-rule="evenodd" clip-rule="evenodd" d="M7.68737 9.47164L7.35804 9.65783L7.02869 9.844L7.13777 10.1746C7.02008 10.2881 6.91721 10.4185 6.83356 10.5636L6.486 10.5388L6.38546 10.9029L6.28492 11.2671L6.59598 11.4241C6.59334 11.5916 6.6147 11.7564 6.65747 11.9142L6.39426 12.1419L6.58142 12.4708L6.76858 12.7996L7.09977 12.6913C7.21376 12.8089 7.34466 12.9117 7.49026 12.9954L7.46589 13.3421L7.83112 13.4429L8.19634 13.5438L8.35325 13.2337C8.52116 13.2366 8.68629 13.2156 8.84445 13.1732L9.07314 13.4361L9.40249 13.2499L9.73183 13.0637L9.62276 12.7332C9.74045 12.6196 9.84333 12.4892 9.92698 12.3441L10.2745 12.369L10.3751 12.0048L10.4756 11.6406L10.1645 11.4836C10.1672 11.3161 10.1458 11.1514 10.1031 10.9935L10.3663 10.7658L10.1791 10.4369L9.99196 10.1081L9.66077 10.2164C9.54678 10.0988 9.41585 9.996 9.27025 9.91234L9.29464 9.56567L8.92942 9.46482L8.56421 9.36394L8.40726 9.674C8.23937 9.67109 8.07425 9.69215 7.91608 9.73457L7.68737 9.47164ZM8.17293 12.2048C7.75701 12.0899 7.51266 11.6606 7.62715 11.2459C7.74166 10.8311 8.17166 10.5881 8.58759 10.7029C9.00352 10.8178 9.24788 11.2471 9.13338 11.6619C9.06362 11.9145 8.87678 12.1034 8.64739 12.1866C8.5002 12.2399 8.33552 12.2497 8.17293 12.2048Z" fill="#FF6E61"/>
</g>
<path fill-rule="evenodd" clip-rule="evenodd" d="M7.68737 9.47164L7.35804 9.65783L7.02869 9.844L7.13777 10.1746C7.02008 10.2881 6.91721 10.4185 6.83356 10.5636L6.486 10.5388L6.38546 10.9029L6.28492 11.2671L6.59598 11.4241C6.59334 11.5916 6.6147 11.7564 6.65747 11.9142L6.39426 12.1419L6.58142 12.4708L6.76858 12.7996L7.09977 12.6913C7.21376 12.8089 7.34466 12.9117 7.49026 12.9954L7.46589 13.3421L7.83112 13.4429L8.19634 13.5438L8.35325 13.2337C8.52116 13.2366 8.68629 13.2156 8.84445 13.1732L9.07314 13.4361L9.40249 13.2499L9.73183 13.0637L9.62276 12.7332C9.74045 12.6196 9.84333 12.4892 9.92698 12.3441L10.2745 12.369L10.3751 12.0048L10.4756 11.6406L10.1645 11.4836C10.1672 11.3161 10.1458 11.1514 10.1031 10.9935L10.3663 10.7658L10.1791 10.4369L9.99196 10.1081L9.66077 10.2164C9.54678 10.0988 9.41585 9.996 9.27025 9.91234L9.29464 9.56567L8.92942 9.46482L8.56421 9.36394L8.40726 9.674C8.23937 9.67109 8.07425 9.69215 7.91608 9.73457L7.68737 9.47164ZM8.17293 12.2048C7.75701 12.0899 7.51266 11.6606 7.62715 11.2459C7.74166 10.8311 8.17166 10.5881 8.58759 10.7029C9.00352 10.8178 9.24788 11.2471 9.13338 11.6619C9.06362 11.9145 8.87678 12.1034 8.64739 12.1866C8.5002 12.2399 8.33552 12.2497 8.17293 12.2048Z" fill="#FF6E61"/>
<g filter="url(#filter5_f_179_6221)">
<path fill-rule="evenodd" clip-rule="evenodd" d="M14.4527 5.77746L14.1856 5.75228L13.9185 5.7271L13.8469 5.96301C13.7323 5.98128 13.6194 6.01536 13.5116 6.06572L13.3201 5.91073L13.1131 6.08136L12.9062 6.25198L13.0226 6.46891C12.9527 6.56502 12.8978 6.66925 12.8582 6.77813L12.6126 6.8038L12.587 7.07029L12.5614 7.33678L12.7977 7.4079C12.8159 7.52222 12.8499 7.63482 12.9002 7.74226L12.7446 7.93354L12.9153 8.13978L13.0861 8.34601L13.3037 8.22959C13.3999 8.29918 13.5043 8.35375 13.6134 8.39311L13.6388 8.63816L13.9059 8.66333L14.173 8.68851L14.2446 8.4526C14.3592 8.43434 14.4722 8.40026 14.5799 8.3499L14.7715 8.50489L14.9784 8.33426L15.1854 8.16363L15.069 7.94671C15.1389 7.85061 15.1937 7.74637 15.2333 7.63749L15.479 7.61181L15.5046 7.34533L15.5302 7.07884L15.2938 7.00772C15.2757 6.8934 15.2417 6.78078 15.1913 6.67335L15.347 6.48207L15.1762 6.27584L15.0055 6.06961L14.7878 6.18603C14.6916 6.11643 14.5872 6.06187 14.4781 6.02252L14.4527 5.77746ZM13.619 7.55966C13.4245 7.32479 13.458 6.97686 13.6937 6.78253C13.9294 6.58821 14.2781 6.62108 14.4726 6.85595C14.667 7.09083 14.6336 7.43876 14.3979 7.63309C14.2543 7.75145 14.0688 7.78552 13.9017 7.74098C13.7946 7.7124 13.695 7.65147 13.619 7.55966Z" fill="#FF6E61"/>
</g>
<mask id="mask0_179_6221" style="mask-type:alpha" maskUnits="userSpaceOnUse" x="12" y="5" width="4" height="4">
<path d="M14.4533 5.7771L14.1862 5.75201L13.9192 5.72691L13.8475 5.9629C13.7329 5.98121 13.62 6.01533 13.5123 6.06574L13.3208 5.91078L13.1138 6.08152L12.9069 6.25224L13.0232 6.46917C12.9533 6.56533 12.8984 6.66959 12.8588 6.77851L12.6131 6.80427L12.5874 7.07082L12.5618 7.33737L12.798 7.40843C12.8162 7.52277 12.8501 7.63538 12.9004 7.74282L12.7447 7.93419L12.9154 8.14042L13.086 8.34663L13.3036 8.23011C13.3998 8.29968 13.5042 8.35422 13.6132 8.39355L13.6385 8.63864L13.9056 8.66373L14.1726 8.68882L14.2443 8.45284C14.3589 8.43453 14.4718 8.40042 14.5796 8.35L14.771 8.50496L14.978 8.33422L15.185 8.16349L15.0687 7.94657C15.1386 7.85042 15.1934 7.74615 15.2331 7.63723L15.4787 7.61146L15.5044 7.34491L15.5301 7.07837L15.2938 7.00732C15.2757 6.89298 15.2417 6.78035 15.1914 6.67291L15.3471 6.48155L15.1764 6.27533L15.0058 6.06911L14.7882 6.18563C14.692 6.11606 14.5876 6.06152 14.4786 6.02219L14.4533 5.7771ZM13.6191 7.55994C13.4248 7.32509 13.4583 6.97708 13.694 6.78263C13.9298 6.58819 14.2784 6.62095 14.4727 6.8558C14.6671 7.09065 14.6335 7.43867 14.3978 7.63312C14.2542 7.75155 14.0687 7.78569 13.9017 7.74119C13.7946 7.71264 13.6951 7.65174 13.6191 7.55994Z" fill="white"/>
</mask>
<g mask="url(#mask0_179_6221)">
<path d="M14.4527 5.77746L14.1856 5.75228L13.9185 5.7271L13.8469 5.96301C13.7323 5.98128 13.6194 6.01536 13.5116 6.06572L13.3201 5.91073L13.1131 6.08136L12.9062 6.25198L13.0226 6.46891C12.9527 6.56502 12.8978 6.66925 12.8582 6.77813L12.6126 6.8038L12.587 7.07029L12.5614 7.33678L12.7977 7.4079C12.8159 7.52222 12.8499 7.63482 12.9002 7.74226L12.7446 7.93354L12.9153 8.13978L13.0861 8.34601L13.3037 8.22959C13.3999 8.29918 13.5043 8.35375 13.6134 8.39311L13.6388 8.63816L13.9059 8.66333L14.173 8.68851L14.2446 8.4526C14.3592 8.43434 14.4722 8.40026 14.5799 8.3499L14.7715 8.50489L14.9784 8.33426L15.1854 8.16363L15.069 7.94671C15.1389 7.85061 15.1937 7.74637 15.2333 7.63749L15.479 7.61181L15.5046 7.34533L15.5302 7.07884L15.2938 7.00772C15.2757 6.8934 15.2417 6.78078 15.1913 6.67335L15.347 6.48207L15.1762 6.27584L15.0055 6.06961L14.7878 6.18603C14.6916 6.11643 14.5872 6.06187 14.4781 6.02252L14.4527 5.77746ZM13.619 7.55966C13.4245 7.32479 13.458 6.97686 13.6937 6.78253C13.9294 6.58821 14.2781 6.62108 14.4726 6.85595C14.667 7.09083 14.6336 7.43876 14.3979 7.63309C14.2543 7.75145 14.0688 7.78552 13.9017 7.74098C13.7946 7.7124 13.695 7.65147 13.619 7.55966Z" fill="#FF6E61"/>
</g>
<path fill-rule="evenodd" clip-rule="evenodd" d="M107.322 58.7883C106.403 58.7883 105.659 59.5778 105.659 60.5516V69.4703C105.659 70.4441 106.403 71.2335 107.322 71.2335H118.967L122.056 75.3708L122.037 71.2264H122.765C123.683 71.2264 124.428 70.4369 124.428 69.4631V60.548C124.426 59.5756 123.682 58.7883 122.765 58.7883H107.322Z" stroke="#414D86" stroke-linecap="round" stroke-linejoin="round"/>
<g filter="url(#filter6_f_179_6221)">
<path fill-rule="evenodd" clip-rule="evenodd" d="M106.501 62.1192C106.501 61.3687 107.075 60.7603 107.783 60.7603C108.491 60.7603 109.064 61.3687 109.064 62.1192C109.064 62.8696 108.491 63.478 107.783 63.478C107.075 63.478 106.501 62.8696 106.501 62.1192Z" fill="#FF6E61"/>
</g>
<path fill-rule="evenodd" clip-rule="evenodd" d="M106.501 62.1192C106.501 61.3687 107.075 60.7603 107.783 60.7603C108.491 60.7603 109.064 61.3687 109.064 62.1192C109.064 62.8696 108.491 63.478 107.783 63.478C107.075 63.478 106.501 62.8696 106.501 62.1192Z" fill="#FF6E61"/>
<path fill-rule="evenodd" clip-rule="evenodd" d="M106.915 62.1192C106.915 61.3687 107.488 60.7603 108.196 60.7603C108.904 60.7603 109.478 61.3687 109.478 62.1192C109.478 62.8696 108.904 63.478 108.196 63.478C107.488 63.478 106.915 62.8696 106.915 62.1192Z" stroke="#414D86" stroke-linecap="round" stroke-linejoin="round"/>
<path d="M110.711 62.1191H119.72" stroke="#414D86" stroke-linecap="round" stroke-linejoin="round"/>
<path d="M108.104 65.5251H121.444" stroke="#414D86" stroke-linecap="round" stroke-linejoin="round"/>
</g>
<defs>
<filter id="filter0_f_179_6221" x="48.6904" y="42.5431" width="18.6294" height="18.621" filterUnits="userSpaceOnUse" color-interpolation-filters="sRGB">
<feFlood flood-opacity="0" result="BackgroundImageFix"/>
<feBlend mode="normal" in="SourceGraphic" in2="BackgroundImageFix" result="shape"/>
<feGaussianBlur stdDeviation="4" result="effect1_foregroundBlur_179_6221"/>
</filter>
<filter id="filter1_f_179_6221" x="25.1963" y="22.1478" width="9.17676" height="8.70197" filterUnits="userSpaceOnUse" color-interpolation-filters="sRGB">
<feFlood flood-opacity="0" result="BackgroundImageFix"/>
<feBlend mode="normal" in="SourceGraphic" in2="BackgroundImageFix" result="shape"/>
<feGaussianBlur stdDeviation="2" result="effect1_foregroundBlur_179_6221"/>
</filter>
<filter id="filter2_f_179_6221" x="21.5029" y="22.1478" width="9.17676" height="8.70197" filterUnits="userSpaceOnUse" color-interpolation-filters="sRGB">
<feFlood flood-opacity="0" result="BackgroundImageFix"/>
<feBlend mode="normal" in="SourceGraphic" in2="BackgroundImageFix" result="shape"/>
<feGaussianBlur stdDeviation="2" result="effect1_foregroundBlur_179_6221"/>
</filter>
<filter id="filter3_f_179_6221" x="-0.0654297" y="8.42365" width="21.9614" height="21.9423" filterUnits="userSpaceOnUse" color-interpolation-filters="sRGB">
<feFlood flood-opacity="0" result="BackgroundImageFix"/>
<feBlend mode="normal" in="SourceGraphic" in2="BackgroundImageFix" result="shape"/>
<feGaussianBlur stdDeviation="4" result="effect1_foregroundBlur_179_6221"/>
</filter>
<filter id="filter4_f_179_6221" x="-1.71484" y="1.36395" width="20.1904" height="20.1798" filterUnits="userSpaceOnUse" color-interpolation-filters="sRGB">
<feFlood flood-opacity="0" result="BackgroundImageFix"/>
<feBlend mode="normal" in="SourceGraphic" in2="BackgroundImageFix" result="shape"/>
<feGaussianBlur stdDeviation="4" result="effect1_foregroundBlur_179_6221"/>
</filter>
<filter id="filter5_f_179_6221" x="4.56152" y="-2.27289" width="18.9688" height="18.9614" filterUnits="userSpaceOnUse" color-interpolation-filters="sRGB">
<feFlood flood-opacity="0" result="BackgroundImageFix"/>
<feBlend mode="normal" in="SourceGraphic" in2="BackgroundImageFix" result="shape"/>
<feGaussianBlur stdDeviation="4" result="effect1_foregroundBlur_179_6221"/>
</filter>
<filter id="filter6_f_179_6221" x="98.5015" y="52.7603" width="18.563" height="18.7176" filterUnits="userSpaceOnUse" color-interpolation-filters="sRGB">
<feFlood flood-opacity="0" result="BackgroundImageFix"/>
<feBlend mode="normal" in="SourceGraphic" in2="BackgroundImageFix" result="shape"/>
<feGaussianBlur stdDeviation="4" result="effect1_foregroundBlur_179_6221"/>
</filter>
<clipPath id="clip0_179_6221">
<rect width="125" height="106" fill="white"/>
</clipPath>
</defs>
</svg>
