<?xml version="1.0" encoding="UTF-8"?>
<svg width="170px" height="170px" viewBox="0 0 170 170" version="1.1" xmlns="http://www.w3.org/2000/svg" xmlns:xlink="http://www.w3.org/1999/xlink">
    <g id="Illustrations/Light/170px/filmpage" stroke="none" stroke-width="1" fill="none" fill-rule="evenodd">
        <g id="Group-3" transform="translate(27.000000, 47.000000)">
            <g id="Group-2" transform="translate(1.000000, 0.000000)">
                <path d="M2.07960214,-2.08425869e-13 L17.6482439,-2.08425869e-13 L17.6482439,-2.08425869e-13 L112.781116,-2.08425869e-13 C113.885685,-2.16477214e-13 114.781116,0.8954305 114.781116,2 L114.781116,74.78125 C114.781116,75.8858195 113.885685,76.78125 112.781116,76.78125 L2.07960214,76.78125 C0.975032635,76.78125 0.0796021351,75.8858195 0.0796021351,74.78125 L0.0796021351,2 C0.0796021351,0.8954305 0.975032635,-2.08222963e-13 2.07960214,-2.08425869e-13 Z" id="Rectangle-2" stroke="#000000" stroke-width="1.5"></path>
                <polygon id="Path-2" fill="#000000" fill-rule="nonzero" points="114.073508 8.55555556 114.074074 10.2666665 0.000565643071 10.3182235 3.43887984e-13 8.60711252"></polygon>
                <circle id="Oval" fill="#000000" cx="5.7037037" cy="4.99074074" r="1.42592593"></circle>
                <circle id="Oval" fill="#000000" cx="11.4074074" cy="4.99074074" r="1.42592593"></circle>
                <circle id="Oval" fill="#000000" cx="17.1111111" cy="4.99074074" r="1.42592593"></circle>
            </g>
            <rect id="Rectangle" stroke="#000000" stroke-width="1.5" stroke-linecap="round" stroke-linejoin="round" x="8" y="43" width="30" height="29"></rect>
            <polygon id="Triangle" fill="#8DA4FA" transform="translate(59.250000, 22.416667) rotate(90.000000) translate(-59.250000, -22.416667) " points="59.25 17.1666667 65.6666667 27.6666667 52.8333333 27.6666667"></polygon>
            <line x1="45" y1="44" x2="68.5" y2="44" id="Line-2" stroke="#000000" stroke-width="3" stroke-linecap="round" stroke-linejoin="round"></line>
            <line x1="45" y1="50" x2="103" y2="50" id="Line-2-Copy" stroke="#000000" stroke-width="1.5" stroke-linecap="round" stroke-linejoin="round"></line>
            <line x1="45" y1="54" x2="103" y2="54" id="Line-2-Copy-2" stroke="#000000" stroke-width="1.5" stroke-linecap="round" stroke-linejoin="round"></line>
            <line x1="45" y1="58" x2="103" y2="58" id="Line-2-Copy-3" stroke="#000000" stroke-width="1.5" stroke-linecap="round" stroke-linejoin="round"></line>
            <line x1="45" y1="62" x2="103" y2="62" id="Line-2-Copy-4" stroke="#000000" stroke-width="1.5" stroke-linecap="round" stroke-linejoin="round"></line>
            <line x1="45" y1="66" x2="65.5" y2="66" id="Line-2-Copy-5" stroke="#000000" stroke-width="1.5" stroke-linecap="round" stroke-linejoin="round"></line>
            <line x1="1.5" y1="36.5" x2="115.5" y2="36.5" id="Line" stroke="#000000" stroke-width="1.5" stroke-linecap="square"></line>
        </g>
    </g>
</svg>
