<?xml version="1.0" encoding="UTF-8"?>
<svg width="100px" height="100px" viewBox="0 0 100 100" version="1.1" xmlns="http://www.w3.org/2000/svg" xmlns:xlink="http://www.w3.org/1999/xlink">
    <g id="Illustrations/Light/100px/empty_organization" stroke="none" stroke-width="1" fill="none" fill-rule="evenodd">
        <g id="Group-4" transform="translate(14.000000, 12.000000)">
            <g id="Group-3" transform="translate(0.000000, 3.931034)" fill-rule="nonzero">
                <path d="M1.1460034,60.6548837 C1.1460034,58.7740025 2.67603309,57.2439729 4.55691428,57.2439729 C6.43779548,57.2439729 7.96782517,58.7740025 7.96782517,60.6548837 C7.96782517,62.5357649 6.43779548,64.0657946 4.55691428,64.0657946 C2.67603309,64.0657946 1.1460034,62.535765 1.1460034,60.6548837 Z" id="Path" fill="#879DEF"></path>
                <path d="M62.7027573,51.4868566 C62.7027573,49.6059753 64.232787,48.0759457 66.1136682,48.0759457 C67.9945494,48.0759457 69.5245791,49.6059754 69.5245791,51.4868566 C69.5245791,53.3677378 67.9945494,54.8977675 66.1136682,54.8977675 C64.232787,54.8977675 62.7027573,53.3677378 62.7027573,51.4868566 Z" id="Path" fill="#879DEF"></path>
                <g id="Group" transform="translate(-0.000000, 0.000000)">
                    <path d="M38.3333979,39.4198069 L51.2137854,39.4198069 C51.7114848,39.4198069 52.1142167,39.0166353 52.1142167,38.5193757 C52.1142167,38.0221161 51.7114848,37.6189445 51.2137854,37.6189445 L38.3333979,37.6189445 C37.8356986,37.6189445 37.4329667,38.0221161 37.4329667,38.5193757 C37.4329667,39.0166353 37.8356986,39.4198069 38.3333979,39.4198069 Z" id="Path" fill="#000000"></path>
                    <path d="M21.2630154,35.1168184 C20.7653161,35.1168184 20.3625842,35.51999 20.3625842,36.0172496 L20.3625842,38.3606571 C20.3625842,38.8579168 20.7653161,39.2610884 21.2630154,39.2610884 C21.7607148,39.2610884 22.1634467,38.8579168 22.1634467,38.3606571 L22.1634467,36.0172496 C22.1634467,35.51999 21.7607148,35.1168184 21.2630154,35.1168184 Z" id="Path" fill="#000000"></path>
                    <path d="M26.5732736,35.1168184 C26.0755743,35.1168184 25.6728423,35.51999 25.6728423,36.0172496 L25.6728423,38.3606571 C25.6728423,38.8579168 26.0755743,39.2610884 26.5732736,39.2610884 C27.0709729,39.2610884 27.4737048,38.8579168 27.4737048,38.3606571 L27.4737048,36.0172496 C27.4737048,35.51999 27.0709728,35.1168184 26.5732736,35.1168184 Z" id="Path" fill="#000000"></path>
                    <path d="M21.2630154,41.7790423 C20.7653161,41.7790423 20.3625842,42.1822139 20.3625842,42.6794736 L20.3625842,45.0228811 C20.3625842,45.5201407 20.7653161,45.9233123 21.2630154,45.9233123 C21.7607148,45.9233123 22.1634467,45.5201407 22.1634467,45.0228811 L22.1634467,42.6794736 C22.1634467,42.1822139 21.7607148,41.7790423 21.2630154,41.7790423 Z" id="Path" fill="#879DEF"></path>
                    <path d="M26.5732736,41.7790423 C26.0755743,41.7790423 25.6728423,42.1822139 25.6728423,42.6794736 L25.6728423,45.0228811 C25.6728423,45.5201407 26.0755743,45.9233123 26.5732736,45.9233123 C27.0709729,45.9233123 27.4737048,45.5201407 27.4737048,45.0228811 L27.4737048,42.6794736 C27.4737048,42.1822139 27.0709728,41.7790423 26.5732736,41.7790423 Z" id="Path" fill="#000000"></path>
                    <path d="M21.2630154,48.4412663 C20.7653161,48.4412663 20.3625842,48.8444379 20.3625842,49.3416975 L20.3625842,51.6855446 C20.3625842,52.1828042 20.7653161,52.5859758 21.2630154,52.5859758 C21.7607148,52.5859758 22.1634467,52.1828042 22.1634467,51.6855446 L22.1634467,49.3416975 C22.1634467,48.8444379 21.7607148,48.4412663 21.2630154,48.4412663 Z" id="Path" fill="#000000"></path>
                    <path d="M26.5732736,48.4412663 C26.0755743,48.4412663 25.6728423,48.8444379 25.6728423,49.3416975 L25.6728423,51.6855446 C25.6728423,52.1828042 26.0755743,52.5859758 26.5732736,52.5859758 C27.0709729,52.5859758 27.4737048,52.1828042 27.4737048,51.6855446 L27.4737048,49.3416975 C27.4737048,48.8444379 27.0709728,48.4412663 26.5732736,48.4412663 Z" id="Path" fill="#879DEF"></path>
                    <path d="M21.2630154,55.1034901 C20.7653161,55.1034901 20.3625842,55.5066617 20.3625842,56.0039213 L20.3625842,58.3477684 C20.3625842,58.8450281 20.7653161,59.2481997 21.2630154,59.2481997 C21.7607148,59.2481997 22.1634467,58.8450281 22.1634467,58.3477684 L22.1634467,56.0039213 C22.1634467,55.5066617 21.7607148,55.1034901 21.2630154,55.1034901 Z" id="Path" fill="#000000"></path>
                    <path d="M26.5732736,55.1034901 C26.0755743,55.1034901 25.6728423,55.5066617 25.6728423,56.0039213 L25.6728423,58.3477684 C25.6728423,58.8450281 26.0755743,59.2481997 26.5732736,59.2481997 C27.0709729,59.2481997 27.4737048,58.8450281 27.4737048,58.3477684 L27.4737048,56.0039213 C27.4737048,55.5066617 27.0709728,55.1034901 26.5732736,55.1034901 Z" id="Path" fill="#000000"></path>
                    <path d="M21.2630154,61.7661537 C20.7653161,61.7661537 20.3625842,62.1693253 20.3625842,62.666585 L20.3625842,65.0099925 C20.3625842,65.5072521 20.7653161,65.9104237 21.2630154,65.9104237 C21.7607148,65.9104237 22.1634467,65.5072521 22.1634467,65.0099925 L22.1634467,62.666585 C22.1634467,62.1693253 21.7607148,61.7661537 21.2630154,61.7661537 Z" id="Path" fill="#000000"></path>
                    <path d="M26.5732736,61.7661537 C26.0755743,61.7661537 25.6728423,62.1693253 25.6728423,62.666585 L25.6728423,65.0099925 C25.6728423,65.5072521 26.0755743,65.9104237 26.5732736,65.9104237 C27.0709729,65.9104237 27.4737048,65.5072521 27.4737048,65.0099925 L27.4737048,62.666585 C27.4737048,62.1693253 27.0709728,61.7661537 26.5732736,61.7661537 Z" id="Path" fill="#000000"></path>
                    <path d="M38.3333979,46.9024433 L51.2137854,46.9024433 C51.7114848,46.9024433 52.1142167,46.4992717 52.1142167,46.0020121 C52.1142167,45.5047524 51.7114848,45.1015808 51.2137854,45.1015808 L38.3333979,45.1015808 C37.8356986,45.1015808 37.4329667,45.5047524 37.4329667,46.0020121 C37.4329667,46.4992717 37.8356986,46.9024433 38.3333979,46.9024433 Z" id="Path" fill="#000000"></path>
                    <path d="M38.3333979,54.3850797 L51.2137854,54.3850797 C51.7114848,54.3850797 52.1142167,53.9819081 52.1142167,53.4846484 C52.1142167,52.9873888 51.7114848,52.5842172 51.2137854,52.5842172 L38.3333979,52.5842172 C37.8356986,52.5842172 37.4329667,52.9873888 37.4329667,53.4846484 C37.4329667,53.9819081 37.8356986,54.3850797 38.3333979,54.3850797 Z" id="Path" fill="#000000"></path>
                    <path d="M38.3333979,31.814944 L51.2137854,31.814944 C51.7114848,31.814944 52.1142167,31.4117724 52.1142167,30.9145128 C52.1142167,30.4172532 51.7114848,30.0140816 51.2137854,30.0140816 L38.3333979,30.0140816 C37.8356986,30.0140816 37.4329667,30.4172532 37.4329667,30.9145128 C37.4329667,31.4117724 37.8356986,31.814944 38.3333979,31.814944 Z" id="Path" fill="#000000"></path>
                    <path d="M72.0344992,50.8466663 C72.0344992,47.9730245 69.6963677,45.6348929 66.8227259,45.6348929 C63.949084,45.6348929 61.6109525,47.9730245 61.6109525,50.8466663 C61.6109525,52.8187777 62.71242,54.5383025 64.3322509,55.4233455 C62.71242,56.3083886 61.6109525,58.0279132 61.6109525,60.0000247 C61.6109525,62.5660669 63.4771051,64.6999746 65.9222946,65.1284818 L65.9222946,70.2336368 L57.784999,70.2336368 L57.784999,12.9436991 C57.784999,12.6416501 57.6337547,12.359386 57.3813877,12.1927535 C57.1290208,12.024802 56.809825,11.9971031 56.5319575,12.114933 L43.697295,17.5717639 L43.697295,9.56708193 C43.697295,9.06982229 43.2945631,8.66665069 42.7968638,8.66665069 L34.3139925,8.66665069 L34.3139925,0.900431241 C34.3139925,0.4031716 33.9112606,0 33.4135613,0 C32.915862,0 32.5131301,0.4031716 32.5131301,0.900431241 L32.5131301,8.66665069 L23.7374427,8.66665069 C23.2397434,8.66665069 22.8370115,9.06982229 22.8370115,9.56708193 L22.8370115,13.5293311 L18.6074468,13.5293311 C18.3322173,12.1716496 17.4467346,11.0003855 16.1989691,10.3611145 C16.0028791,7.34282326 13.4844855,4.94665616 10.4173916,4.94665616 C7.24565773,4.94665616 4.66131454,7.50857645 4.62350345,10.6715171 C4.61295148,10.6715171 4.60152023,10.6715171 4.59008899,10.6715171 C2.05938475,10.6715171 0,12.7304622 0,15.2616061 C0,15.7588658 0.402731919,16.1620374 0.900431241,16.1620374 C1.39813056,16.1620374 1.80086248,15.7588658 1.80086248,15.2616061 C1.80086248,13.7236625 3.05214531,12.4723797 4.5900889,12.4723797 C4.82398996,12.4723797 5.07196026,12.5132685 5.37181097,12.6016408 C5.67342023,12.6904529 6.00316806,12.6152704 6.23531049,12.4002749 C6.46833228,12.1865983 6.57121357,11.8665232 6.507902,11.5569999 C6.45250441,11.2861672 6.42436593,11.0113773 6.42436593,10.7405445 C6.42436593,8.53870869 8.2155558,6.74751882 10.4173916,6.74751882 C12.6192273,6.74751882 14.4104172,8.53870869 14.4060206,10.8135286 C14.4060206,10.8205633 14.4007446,10.9036597 14.3998653,10.9106944 C14.3805201,11.3107883 14.6276111,11.6757092 15.0066012,11.8062893 C16.1365369,12.1945123 16.8962757,13.2488259 16.8962757,14.4297625 C16.8962757,14.9270222 17.2990076,15.3301938 17.796707,15.3301938 L22.8370115,15.3301938 L22.8370115,28.9826306 L15.1499315,28.9826306 C14.6522322,28.9826306 14.2495002,29.3858022 14.2495002,29.8830618 L14.2495002,70.2336368 L6.11220461,70.2336368 L6.11220461,65.1284818 C8.55744918,64.6999746 10.4235467,62.5660669 10.4235467,60.0000247 C10.4235467,57.1263829 8.08541521,54.7882514 5.21177337,54.7882514 C2.33813152,54.7882514 0,57.1263828 0,60.0000247 C0,62.5660669 1.86609755,64.6999745 4.31134213,65.1284818 L4.31134213,70.2336368 L0.900431241,70.2336368 C0.402731919,70.2336368 0,70.6368084 0,71.134068 C0,71.6313276 0.402731919,72.0344992 0.900431241,72.0344992 L71.134068,72.0344992 C71.6317673,72.0344992 72.0344992,71.6313276 72.0344992,71.134068 C72.0344992,70.6368084 71.6317673,70.2336368 71.134068,70.2336368 L67.7231571,70.2336368 L67.7231571,65.1284818 C70.1683467,64.6999746 72.0344992,62.5660669 72.0344992,60.0000247 C72.0344992,58.0279132 70.9330318,56.3083885 69.3132008,55.4233454 C70.9330318,54.5383025 72.0344992,52.8187777 72.0344992,50.8466663 Z M1.80086248,60.0000247 C1.80086248,58.1191434 3.33089217,56.5891138 5.21177337,56.5891138 C7.09265456,56.5891138 8.62268425,58.1191435 8.62268425,60.0000247 C8.62268425,61.8809059 7.09265456,63.4109355 5.21177337,63.4109355 C3.33089217,63.4109355 1.80086248,61.8809059 1.80086248,60.0000247 Z M55.9841365,70.2336368 L50.9025036,70.2336368 L50.9025036,61.1862373 C50.9025036,60.6889776 50.4997717,60.285806 50.0020723,60.285806 L39.5451111,60.285806 C39.0474118,60.285806 38.6446799,60.6889776 38.6446799,61.1862373 L38.6446799,70.2336368 L33.5630469,70.2336368 L33.5630469,23.837686 L55.9841365,14.3048978 L55.9841365,70.2336368 Z M49.1016411,70.2336368 L40.4455424,70.2336368 L40.4455424,62.0866685 L49.1016411,62.0866685 L49.1016411,70.2336368 Z M24.637874,10.4675132 L41.8964325,10.4675132 L41.8964325,18.3373833 L32.3100054,22.4131757 C31.9776196,22.5547475 31.7621845,22.8809778 31.7621845,23.2419418 L31.7621845,28.9826306 L24.637874,28.9826306 L24.637874,10.4675132 L24.637874,10.4675132 Z M16.0503627,30.783493 L31.7621845,30.783493 L31.7621845,70.2336368 L16.0503627,70.2336368 L16.0503627,30.783493 Z M66.8227259,63.4109356 C64.9418446,63.4109356 63.411815,61.8809059 63.411815,60.0000247 C63.411815,58.1191436 64.9418447,56.5891139 66.8227259,56.5891139 C68.7036071,56.5891139 70.2336368,58.1191434 70.2336368,60.0000247 C70.2336368,61.8809059 68.7036071,63.4109356 66.8227259,63.4109356 Z M66.8227259,54.2575772 C64.9418446,54.2575772 63.411815,52.7275475 63.411815,50.8466663 C63.411815,48.9657851 64.9418447,47.4357554 66.8227259,47.4357554 C68.7036071,47.4357554 70.2336368,48.965785 70.2336368,50.8466663 C70.2336368,52.7275476 68.7036071,54.2575772 66.8227259,54.2575772 Z" id="Shape" fill="#000000"></path>
                </g>
            </g>
            <g id="Group-2" transform="translate(50.103448, 0.000000)">
                <circle id="Oval" fill="#879DEF" cx="16.8746846" cy="16.3952902" r="14.5735913"></circle>
                <circle id="Oval" stroke="#000000" stroke-width="1.5" cx="15.0529857" cy="14.5735913" r="14.5735913"></circle>
                <path d="M12.9276703,6.07232969 C16.4490081,6.07232969 19.3036165,8.92693802 19.3036165,12.4482759 C19.3021498,13.9904978 18.7537188,15.4046215 17.8418444,16.5071261 L22.7709167,21.4292515 C22.8858736,21.5432695 22.9505352,21.6984758 22.9505352,21.8603869 C22.9505352,22.022298 22.8858736,22.1775042 22.7709167,22.2915223 C22.6563204,22.4051881 22.5011857,22.468553 22.3397813,22.46763 C22.178377,22.468553 22.0232422,22.4051881 21.9086459,22.2915223 L16.9834807,17.3649627 C15.8814171,18.2753317 14.4684752,18.8227567 12.9276703,18.824222 C9.40633247,18.824222 6.55172414,15.9696137 6.55172414,12.4482759 C6.55172414,8.92693802 9.40633247,6.07232969 12.9276703,6.07232969 Z M12.9276703,7.28679563 C10.0770635,7.28679563 7.76619008,9.59766904 7.76619008,12.4482759 C7.76619008,15.2988827 10.0770635,17.6097561 12.9276703,17.6097561 C14.3169386,17.6097561 15.5780102,17.0608807 16.5058636,16.1681513 C16.5255459,16.1407419 16.5472252,16.1153219 16.5710681,16.0916737 L16.6376783,16.0366968 C17.5362289,15.1078934 18.0891505,13.8426555 18.0891505,12.4482759 C18.0858044,9.5990562 15.77689,7.29014175 12.9276703,7.28679563 Z" id="Combined-Shape" stroke="#000000" stroke-width="0.5" fill="#000000" fill-rule="nonzero"></path>
            </g>
        </g>
    </g>
</svg>
