<?xml version="1.0" encoding="UTF-8"?>
<svg width="48px" height="48px" viewBox="0 0 48 48" version="1.1" xmlns="http://www.w3.org/2000/svg" xmlns:xlink="http://www.w3.org/1999/xlink">
    <g id="Illustrations/Light/48px/image" stroke="none" stroke-width="1" fill="none" fill-rule="evenodd">
        <g id="Group-2" transform="translate(4.000000, 8.000000)" fill-rule="nonzero" stroke-width="0.3">
            <g id="Group">
                <path d="M0.416666667,0.185733333 C0.181588718,0.230588205 -0.00421692307,0.459271795 -0.000204326041,0.698553846 L-0.000204326041,19.6729128 C-0.00384615384,19.9438426 0.241864103,19.952387 0.512820513,19.952387 C0.783776923,19.952387 1.02947282,20.0265202 1.02564103,19.7555904 L1.02564103,1.21137436 L34.8717949,1.21137436 L34.8717949,25.826759 L1.02564103,25.826759 L1.02564103,19.6729128 C1.02948718,19.4019831 0.783776923,19.1527887 0.512820513,19.1527887 C0.241864103,19.1527887 -0.00383179486,19.4019831 -0.000204326041,19.6729128 L-0.000204326041,26.3395795 C-0.000204326041,26.6080841 0.244315897,26.8523733 0.512820513,26.8524 L3.58974359,26.8524 L3.58974359,30.4421436 C3.58977026,30.7106482 3.83405949,30.9549641 4.1025641,30.9549641 L39.4871795,30.9549641 C39.7556841,30.9549641 40,30.7106482 40,30.4421436 L40,4.28829744 C40,4.01979282 39.7556841,3.77550359 39.4871795,3.77547692 L35.8974359,3.77547692 L35.8974359,0.698553846 C35.8974092,0.430049231 35.65312,0.185733333 35.3846154,0.185733333 C23.7307133,0.185733333 12.063581,0.185733333 0.416666667,0.185733333 Z M35.8974359,4.80111795 L38.974359,4.80111795 L38.974359,29.9293231 L4.61538462,29.9293231 L4.61538462,26.8524 L35.3846154,26.8524 C35.65312,26.8523733 35.8974092,26.6080841 35.8974359,26.3395795 L35.8974359,4.80111795 Z" id="Shape" stroke="#000000" fill="#000000"></path>
                <path d="M15.3846154,4.80111795 C17.077879,4.80111795 18.4615385,6.18477949 18.4615385,7.87804103 C18.4615385,9.57130256 17.077879,10.9549641 15.3846154,10.9549641 C13.6913518,10.9549641 12.3076923,9.57130256 12.3076923,7.87804103 C12.3076923,6.18477949 13.6913518,4.80111795 15.3846154,4.80111795 Z M15.3846154,5.82675897 C14.2456492,5.82675897 13.3333333,6.73907692 13.3333333,7.87804103 C13.3333333,9.01700513 14.2456492,9.92932308 15.3846154,9.92932308 C16.5235815,9.92932308 17.4358974,9.01700513 17.4358974,7.87804103 C17.4358974,6.73907692 16.5235815,5.82675897 15.3846154,5.82675897 Z" id="Path-2" stroke="#8DA4FA" fill="#8DA4FA"></path>
                <path d="M19.9358974,11.9806051 C19.8221297,11.9929077 19.7129974,12.0445995 19.6314103,12.1248359 L14.7115385,17.0447077 L12.6442308,15.1857333 C12.5331385,15.0848118 12.3761744,15.0365149 12.2275641,15.0575282 C12.1267231,15.0719385 12.0305056,15.1172149 11.9551282,15.1857333 L4.77564103,21.8524 C4.57658051,22.0365179 4.56401487,22.3857477 4.74932821,22.5836959 C4.93464154,22.7816441 5.28394051,22.7921067 5.48076923,22.6056036 L12.3237179,16.2594497 L17.099359,20.5543215 C17.2839149,20.7888179 17.6859662,20.8013846 17.8848072,20.5788703 C18.0836477,20.3563615 18.0261282,19.9582477 17.7724359,19.8011179 L15.4807692,17.7338103 L20.0160256,13.1985538 L30.4166667,23.1184256 C30.6134954,23.3049272 30.9627944,23.2944646 31.1481077,23.0965179 C31.333421,22.8985682 31.3208554,22.5493385 31.1217949,22.3652205 L20.3525641,12.1088103 C20.2414718,12.0078887 20.0845077,11.9595918 19.9358974,11.9806051 Z" id="Path" stroke="#8DA4FA" fill="#8DA4FA"></path>
            </g>
        </g>
    </g>
</svg>
