<?xml version="1.0" encoding="UTF-8"?>
<svg width="380px" height="380px" viewBox="0 0 380 380" version="1.1" xmlns="http://www.w3.org/2000/svg" xmlns:xlink="http://www.w3.org/1999/xlink">
    <g id="Illustrations/Light/380px/import_bulk" stroke="none" stroke-width="1" fill="none" fill-rule="evenodd">
        <g id="box" transform="translate(167.000000, 228.000000)" stroke="#121424" stroke-linejoin="round" stroke-width="0.892036582">
            <polygon id="Stroke-1" points="179.566436 57.0515839 179.566436 106.100296 98.4999564 134.999555 98.5086732 39.321666 115.933608 72.7549969"></polygon>
            <polygon id="Stroke-2" points="173.465006 82.5372628 141.586703 92.0366716 141.584088 111.881126 173.465006 100.517048"></polygon>
            <polygon id="Stroke-3" points="98.5088476 39.3212214 98.5001308 135 17.4336515 106.100741 17.4336515 57.0511393 81.0664793 72.7554415"></polygon>
            <polygon id="Stroke-7" points="197 52.7479062 179.566349 57.0516729 115.933521 72.7550858 98.5085861 39.3208658 179.566349 19.6871536"></polygon>
            <polygon id="Stroke-8" points="98.5088476 39.3212214 81.0664793 72.7554415 17.4336515 57.0511393 0 52.7482619 17.4336515 19.6866201"></polygon>
            <polyline id="Stroke-9" points="144.695733 11.0494762 179.566436 19.6870647 98.5086732 39.321666 17.4334771 19.6870647 43.5229365 13.3559038 98.5086732 0 130.499424 7.77167774"></polyline>
        </g>
        <g id="man-trolley" transform="translate(18.000000, 22.000000)">
            <path d="M39.8549556,123.211978 C39.9422556,126.029497 40.5584356,164.934182 43.8321854,175.106733 C38.8669982,181.773768 2.83938159,228.541295 2.7302566,229.578753 C2.6211316,230.616211 8.73213124,236.251248 9.82338117,236.251248 C10.9146311,236.251248 66.1809841,191.269241 69.0018652,188.326136 C71.8227462,185.38303 73.4411794,172.434161 73.4411794,172.434161" id="Path" stroke="#000000" fill-rule="nonzero"></path>
            <path d="M38.4763828,113.93996 L83.3247406,120.869197 C86.0468254,124.400845 91.4882564,133.704761 97.0170195,143.607349 L97.5992034,144.651715 L97.5992034,144.651715 L98.4721966,146.223622 L99.2673682,147.661306 C99.7465645,148.529363 100.223706,149.396653 100.697056,150.259772 L101.169077,151.121375 C106.11068,160.150959 110.570407,168.595634 112.537494,172.514893 L112.717235,172.874348 C113.090067,173.622975 113.354043,174.173583 113.491498,174.491549 C114.212471,176.159336 116.897351,188.541078 119.845661,202.665626 L120.051763,203.653775 C120.120592,203.984025 120.189542,204.315105 120.258592,204.646902 L120.466019,205.64433 C120.604474,206.310565 120.743243,206.979217 120.882154,207.649383 L121.090605,208.655653 C121.16011,208.99138 121.229629,209.327372 121.299141,209.663517 L121.299141,209.663517 L121.734459,211.77122 L122.168354,213.876933 C123.99336,222.743488 125.748539,231.390102 127.038776,237.746256 C128.087166,242.910983 128.829291,246.565924 129.053235,247.604314 C127.429777,249.550954 124.33849,250.499917 122.240784,250.363551 C121.20925,248.134728 114.567823,234.346124 107.722655,220.157331 L107.070291,218.805164 C103.26326,210.914634 99.4463156,203.009931 96.5464387,197.004568 C93.8993743,191.522754 92.0169265,187.624389 91.6049684,186.766468 C85.8934262,183.495494 66.2965085,168.907842 52.5515533,149.878932 C44.6390696,138.924663 38.6571399,126.494373 38.4763828,113.93996 L38.4763828,113.93996 Z" id="Path" stroke="#000000" fill-rule="nonzero"></path>
            <path d="M4.18707526,230.790941 C3.64145029,231.336972 0.0894317525,234.542172 0.00213175773,235.590551 C-0.145186984,237.485277 7.38989382,244.141391 8.05555628,244.146896 C8.72121874,244.152311 9.61604369,243.655424 9.52328744,243.158536 C9.4305312,242.661648 7.18801258,239.259877 7.07888759,238.6101 C6.96976259,237.960324 7.84821879,236.027375 8.80851873,235.470424" id="Path" fill="#000000" fill-rule="nonzero"></path>
            <path d="M122.222124,250.147728 C122.516762,250.89579 124.055424,255.395083 124.982987,255.88105 C126.668968,256.76562 135.742711,252.446517 136.010067,251.834963 C136.277424,251.223409 136.173755,250.196871 135.677236,250.098585 C135.180717,250.0003 131.17583,250.71014 130.537449,250.562712 C129.899068,250.415283 128.46953,248.837255 128.354949,247.734273" id="Path" fill="#000000" fill-rule="nonzero"></path>
            <path d="M68.2973093,42.8166907 L68.1397777,43.0819776 C67.2995153,44.4798161 74.5181336,48.6842522 75.2983773,47.3846992 L75.2983773,47.3846992 L76.3251884,45.6721929 C77.6105888,46.820607 78.7386553,48.2370014 79.7174136,49.7924773 L79.707027,49.7599326 C80.2144582,49.6288853 83.4827518,48.9408866 88.186039,47.9907933 C89.2620526,49.3569002 92.4547415,54.7282325 93.6518552,62.6350372 L93.7186762,63.0940016 L84.8577267,66.0698688 C84.8577267,69.4604674 84.0831169,76.8518277 83.3824915,85.2920809 C83.2617809,85.026071 83.146445,84.757771 83.0353393,84.4874833 C76.384171,88.3424598 64.6204967,89.6802349 60.1791094,88.7792843 C64.7864663,98.7224372 73.3184017,105.95479 82.3667327,111.184033 C82.5249586,114.827469 82.9030324,118.01318 83.597333,120.405381 C79.1668583,121.131602 43.5757417,118.144814 37.9721733,113.356125 C37.9721733,80.3525673 57.5162453,44.6444824 68.2973093,42.8166907 Z" id="Combined-Shape" fill="#000000" fill-rule="nonzero"></path>
            <path d="M82.8316569,83.9597354 C89.3704958,100.217679 110.94573,109.254487 116.337109,111.71761 C116.984979,111.579452 117.665281,111.506676 118.365966,111.506676 C122.926701,111.506676 126.623908,114.589972 126.623908,118.393411 C126.623908,122.19685 122.926701,125.280146 118.365966,125.280146 C115.493086,125.280146 112.962849,124.056712 111.483525,122.200508 C100.794279,119.321397 70.776346,110.767353 60.5603725,88.2339392 C64.8880941,89.1311957 76.3507079,87.7989058 82.8316569,83.9597354 Z" id="Combined-Shape" stroke="#000000" fill-rule="nonzero"></path>
            <path d="M87.8708528,48.7350938 C119.150916,42.9951436 137.918568,40.5040427 144.173808,41.2617913 C149.565814,41.9149691 157.469771,51.9051786 155.433048,53.7209291 C154.028787,54.9728359 144.173808,50.429026 138.328565,53.1966431 C136.936854,53.855593 136.702778,56.792856 134.135193,56.2503517 C131.567608,55.7078475 136.458824,51.7938426 131.140687,52.3298806 C125.82255,52.8659185 90.7776408,63.3921383 90.7776408,63.3921383 C91.6018299,59.2717712 91.716508,56.4924514 91.121675,55.0541786 C90.3925149,53.2911104 89.3089075,51.1847488 87.8708528,48.7350938 Z" id="Combined-Shape" stroke="#000000" fill-rule="nonzero"></path>
            <path d="M78.8849413,39.3186249 L75.8124493,47.9907933 C75.2334058,50.0332843 67.4482709,46.3381062 68.0718562,44.1411411 L72.7346388,31.1169374" id="Path" stroke="#000000" fill-rule="nonzero"></path>
            <ellipse id="Oval" stroke="#000000" fill-rule="nonzero" cx="85.6436503" cy="26.7388664" rx="14.1780519" ry="14.1558704"></ellipse>
            <ellipse id="Oval" fill="#FF746C" fill-rule="nonzero" transform="translate(98.771476, 31.981781) rotate(-84.070000) translate(-98.771476, -31.981781) " cx="98.771476" cy="31.9817814" rx="1.04860037" ry="2.62552124"></ellipse>
            <ellipse id="Oval" fill="#FF746C" fill-rule="nonzero" transform="translate(84.068311, 29.884615) rotate(-84.070000) translate(-84.068311, -29.884615) " cx="84.0683112" cy="29.8846154" rx="1.04860037" ry="2.62552124"></ellipse>
            <path d="M93.6351591,28.3117409 C93.9554282,28.9970893 95.6353298,31.7384827 93.5203457,32.5060729" id="Path" stroke="#000000" stroke-width="0.881264667" stroke-linecap="round"></path>
            <path d="M88.2692154,35.6518219 C87.5894574,35.5504718 86.6377963,34.4901946 86.1687633,33.5546559" id="Path" stroke="#000000" stroke-width="0.881264667" stroke-linecap="round"></path>
            <path d="M74.8506508,29.2655909 C74.8506508,33.7302237 69.9431659,36.683632 68.2895569,36.683632 C67.750296,36.7573849 67.2064199,36.585545 66.8057391,36.2148137 C66.4050583,35.8440824 66.1892007,35.3129759 66.2168304,34.7658344 C66.2168304,32.894064 67.3141562,31.2907852 69.6154922,29.2655909 C69.2116154,28.5675126 66.2168304,24.8930125 66.2168304,19.6996167 C66.2168304,14.2147156 69.56215,9.61967262 71.8025235,9.61967262 C73.778652,9.74450445 75.4208226,11.1988834 75.7955702,13.1560913 C75.7955702,5.49257225 83.93407,0 88.750111,0 C93.2689597,0 94.0843337,1.98683828 94.0843337,3.59011705 C94.0843337,7.11886459 91.3257785,10.8930902 90.2741746,11.8213042 C92.8041203,9.94186261 96.751445,8.0547498 100.180588,8.0547498 C102.329518,8.0547498 105.072832,8.66844502 105.072832,11.6448669 C105.072832,17.1144255 99.9900802,20.2749559 98.2907493,21.1571428 C97.6310896,19.877944 96.8003634,18.6958064 95.8217662,17.6437377 C96.1341993,18.6793483 94.8768468,20.55879 92.4764466,20.9807054 C91.1505112,21.2261835 74.8506508,19.0168807 74.8506508,29.2655909 Z" id="Path" fill="#000000" fill-rule="nonzero"></path>
            <g id="Group-5" transform="translate(112.698205, 13.000000)" stroke-width="1.12922449">
                <g id="Group-2">
                    <g id="Group-3-Copy" transform="translate(37.102889, 59.370140) rotate(24.000000) translate(-37.102889, -59.370140) translate(21.970250, 44.546610)">
                        <g id="Group-4" transform="translate(8.021437, 4.736842)" fill-rule="nonzero">
                            <ellipse id="Oval" stroke="#000000" cx="9.07135221" cy="8.88605442" rx="9.07135221" ry="8.88605442"></ellipse>
                            <polygon id="Path" stroke="#FF746C" fill="#FF746C" stroke-linejoin="round" points="7.20520558 12.3833078 7.20520558 5.6547619 11.7844415 9.01903483"></polygon>
                        </g>
                        <g id="Rectangle-2-Copy-2" stroke="#000000">
                            <path d="M29.5613064,0 C29.9500995,1.88946352e-15 30.2652786,0.315179098 30.2652786,0.703972219 L30.2652786,25.8223436 C30.2652786,26.2111367 29.9500995,26.5263158 29.5613064,26.5263158 L27.079,26.526 L27.0794598,28.9430866 C27.0794598,29.3318797 26.7642807,29.6470588 26.3754876,29.6470588 L0.703972219,29.6470588 C0.315179098,29.6470588 1.60192566e-15,29.3318797 0,28.9430866 L0,3.82471525 C-4.76134251e-17,3.43592213 0.315179098,3.12074303 0.703972219,3.12074303 L3.185,3.12 L3.1858188,0.703972219 C3.1858188,0.315179098 3.5009979,1.62573237e-15 3.88979102,0 L29.5613064,0 Z" id="Rectangle-3"></path>
                            <rect id="Rectangle" x="3.1858188" y="0" width="27.0794598" height="26.5263158" rx="0.703972219"></rect>
                        </g>
                    </g>
                    <g id="Group-3-Copy" transform="translate(19.853626, 86.585786) rotate(24.000000) translate(-19.853626, -86.585786) translate(4.720987, 71.762257)">
                        <g id="Group-4" transform="translate(8.021437, 4.736842)" fill-rule="nonzero">
                            <ellipse id="Oval" stroke="#000000" cx="9.07135221" cy="8.88605442" rx="9.07135221" ry="8.88605442"></ellipse>
                            <polygon id="Path" stroke="#FF746C" fill="#FF746C" stroke-linejoin="round" points="7.20520558 12.3833078 7.20520558 5.6547619 11.7844415 9.01903483"></polygon>
                        </g>
                        <g id="Rectangle-2-Copy-2" stroke="#000000">
                            <path d="M29.5613064,0 C29.9500995,-7.14201377e-17 30.2652786,0.315179098 30.2652786,0.703972219 L30.2652786,25.8223436 C30.2652786,26.2111367 29.9500995,26.5263158 29.5613064,26.5263158 L27.079,26.526 L27.0794598,28.9430866 C27.0794598,29.3318797 26.7642807,29.6470588 26.3754876,29.6470588 L0.703972219,29.6470588 C0.315179098,29.6470588 -1.7443118e-16,29.3318797 0,28.9430866 L0,3.82471525 C6.34088773e-17,3.43592213 0.315179098,3.12074303 0.703972219,3.12074303 L3.185,3.12 L3.1858188,0.703972219 C3.1858188,0.315179098 3.5009979,1.62573237e-15 3.88979102,0 L29.5613064,0 Z" id="Rectangle-3"></path>
                            <rect id="Rectangle" x="3.1858188" y="0" width="27.0794598" height="26.5263158" rx="0.703972219"></rect>
                        </g>
                    </g>
                    <g id="Group-3-Copy-2" transform="translate(85.556905, 44.823529) rotate(-26.000000) translate(-85.556905, -44.823529) translate(70.424266, 30.000000)">
                        <g id="Group-4" transform="translate(8.021437, 4.736842)" fill-rule="nonzero">
                            <ellipse id="Oval" stroke="#000000" cx="9.07135221" cy="8.88605442" rx="9.07135221" ry="8.88605442"></ellipse>
                            <polygon id="Path" stroke="#FF746C" fill="#FF746C" stroke-linejoin="round" points="7.20520558 12.3833078 7.20520558 5.6547619 11.7844415 9.01903483"></polygon>
                        </g>
                        <g id="Rectangle-2-Copy-2" stroke="#000000">
                            <path d="M29.5613064,0 C29.9500995,1.88946352e-15 30.2652786,0.315179098 30.2652786,0.703972219 L30.2652786,25.8223436 C30.2652786,26.2111367 29.9500995,26.5263158 29.5613064,26.5263158 L27.079,26.526 L27.0794598,28.9430866 C27.0794598,29.3318797 26.7642807,29.6470588 26.3754876,29.6470588 L0.703972219,29.6470588 C0.315179098,29.6470588 -1.7443118e-16,29.3318797 0,28.9430866 L0,3.82471525 C-4.76134251e-17,3.43592213 0.315179098,3.12074303 0.703972219,3.12074303 L3.185,3.12 L3.1858188,0.703972219 C3.1858188,0.315179098 3.5009979,1.62573237e-15 3.88979102,0 L29.5613064,0 Z" id="Rectangle-3"></path>
                            <rect id="Rectangle" x="3.1858188" y="0" width="27.0794598" height="26.5263158" rx="0.703972219"></rect>
                        </g>
                    </g>
                    <g id="Group-3" transform="translate(128.301795, 0.000000)">
                        <g id="Group-4" transform="translate(7.156015, 4.154135)" fill-rule="nonzero">
                            <ellipse id="Oval" stroke="#000000" cx="8.09265671" cy="7.79292868" rx="8.09265671" ry="7.79292868"></ellipse>
                            <polygon id="Path" stroke="#FF746C" fill="#FF746C" stroke-linejoin="round" points="6.42784602 10.8599643 6.42784602 4.95913643 10.5130346 7.90955039"></polygon>
                        </g>
                        <g id="Rectangle-2-Copy-2" stroke="#000000">
                            <path d="M26.2960278,0 C26.6848209,-7.14201377e-17 27,0.315179098 27,0.703972219 L27,22.5591857 C27,22.9479788 26.6848209,23.2631579 26.2960278,23.2631579 L24.157,23.263 L24.1578947,25.2960278 C24.1578947,25.6848209 23.8427156,26 23.4539225,26 L0.703972219,26 C0.315179098,26 1.61379365e-15,25.6848209 0,25.2960278 L0,3.44081432 C-1.58635728e-16,3.0520212 0.315179098,2.73684211 0.703972219,2.73684211 L2.842,2.736 L2.84210526,0.703972219 C2.84210526,0.315179098 3.15728436,-1.50624467e-16 3.54607748,0 L26.2960278,0 Z" id="Rectangle-3"></path>
                            <rect id="Rectangle" x="2.84210526" y="0" width="24.1578947" height="23.2631579" rx="0.703972219"></rect>
                        </g>
                    </g>
                    <g id="Group-3" transform="translate(144.169155, 77.823529) rotate(36.000000) translate(-144.169155, -77.823529) translate(129.036516, 63.000000)">
                        <g id="Group-4" transform="translate(8.021437, 4.736842)" fill-rule="nonzero">
                            <ellipse id="Oval" stroke="#000000" cx="9.07135221" cy="8.88605442" rx="9.07135221" ry="8.88605442"></ellipse>
                            <polygon id="Path" stroke="#FF746C" fill="#FF746C" stroke-linejoin="round" points="7.20520558 12.3833078 7.20520558 5.6547619 11.7844415 9.01903483"></polygon>
                        </g>
                        <g id="Rectangle-2-Copy-2" stroke="#000000">
                            <path d="M29.5613064,0 C29.9500995,3.96021648e-17 30.2652786,0.315179098 30.2652786,0.703972219 L30.2652786,25.8223436 C30.2652786,26.2111367 29.9500995,26.5263158 29.5613064,26.5263158 L27.079,26.526 L27.0794598,28.9430866 C27.0794598,29.3318797 26.7642807,29.6470588 26.3754876,29.6470588 L0.703972219,29.6470588 C0.315179098,29.6470588 -1.7443118e-16,29.3318797 0,28.9430866 L0,3.82471525 C6.34088773e-17,3.43592213 0.315179098,3.12074303 0.703972219,3.12074303 L3.185,3.12 L3.1858188,0.703972219 C3.1858188,0.315179098 3.5009979,-1.50624467e-16 3.88979102,0 L29.5613064,0 Z" id="Rectangle-3"></path>
                            <rect id="Rectangle" x="3.1858188" y="0" width="27.0794598" height="26.5263158" rx="0.703972219"></rect>
                        </g>
                    </g>
                    <g id="Group-3" transform="translate(139.169155, 136.823529) rotate(15.000000) translate(-139.169155, -136.823529) translate(124.036516, 122.000000)">
                        <g id="Group-4" transform="translate(8.021437, 4.736842)" fill-rule="nonzero">
                            <ellipse id="Oval" stroke="#000000" cx="9.07135221" cy="8.88605442" rx="9.07135221" ry="8.88605442"></ellipse>
                            <polygon id="Path" stroke="#FF746C" fill="#FF746C" stroke-linejoin="round" points="7.20520558 12.3833078 7.20520558 5.6547619 11.7844415 9.01903483"></polygon>
                        </g>
                        <g id="Rectangle-2-Copy-2" stroke="#000000">
                            <path d="M29.5613064,0 C29.9500995,3.96021648e-17 30.2652786,0.315179098 30.2652786,0.703972219 L30.2652786,25.8223436 C30.2652786,26.2111367 29.9500995,26.5263158 29.5613064,26.5263158 L27.079,26.526 L27.0794598,28.9430866 C27.0794598,29.3318797 26.7642807,29.6470588 26.3754876,29.6470588 L0.703972219,29.6470588 C0.315179098,29.6470588 -1.7443118e-16,29.3318797 0,28.9430866 L0,3.82471525 C6.34088773e-17,3.43592213 0.315179098,3.12074303 0.703972219,3.12074303 L3.185,3.12 L3.1858188,0.703972219 C3.1858188,0.315179098 3.5009979,-1.50624467e-16 3.88979102,0 L29.5613064,0 Z" id="Rectangle-3"></path>
                            <rect id="Rectangle" x="3.1858188" y="0" width="27.0794598" height="26.5263158" rx="0.703972219"></rect>
                        </g>
                    </g>
                    <g id="Group-3" transform="translate(55.169155, 133.823529) rotate(15.000000) translate(-55.169155, -133.823529) translate(40.036516, 119.000000)">
                        <g id="Group-4" transform="translate(8.021437, 4.736842)" fill-rule="nonzero">
                            <ellipse id="Oval" stroke="#000000" cx="9.07135221" cy="8.88605442" rx="9.07135221" ry="8.88605442"></ellipse>
                            <polygon id="Path" stroke="#FF746C" fill="#FF746C" stroke-linejoin="round" points="7.20520558 12.3833078 7.20520558 5.6547619 11.7844415 9.01903483"></polygon>
                        </g>
                        <g id="Rectangle-2-Copy-2" stroke="#000000">
                            <path d="M29.5613064,0 C29.9500995,3.96021648e-17 30.2652786,0.315179098 30.2652786,0.703972219 L30.2652786,25.8223436 C30.2652786,26.2111367 29.9500995,26.5263158 29.5613064,26.5263158 L27.079,26.526 L27.0794598,28.9430866 C27.0794598,29.3318797 26.7642807,29.6470588 26.3754876,29.6470588 L0.703972219,29.6470588 C0.315179098,29.6470588 -1.7443118e-16,29.3318797 0,28.9430866 L0,3.82471525 C6.34088773e-17,3.43592213 0.315179098,3.12074303 0.703972219,3.12074303 L3.185,3.12 L3.1858188,0.703972219 C3.1858188,0.315179098 3.5009979,-1.50624467e-16 3.88979102,0 L29.5613064,0 Z" id="Rectangle-3"></path>
                            <rect id="Rectangle" x="3.1858188" y="0" width="27.0794598" height="26.5263158" rx="0.703972219"></rect>
                        </g>
                    </g>
                    <g id="Group-3" transform="translate(93.169155, 169.823529) rotate(15.000000) translate(-93.169155, -169.823529) translate(78.036516, 155.000000)">
                        <g id="Group-4" transform="translate(8.021437, 4.736842)" fill-rule="nonzero">
                            <ellipse id="Oval" stroke="#000000" cx="9.07135221" cy="8.88605442" rx="9.07135221" ry="8.88605442"></ellipse>
                            <polygon id="Path" stroke="#FF746C" fill="#FF746C" stroke-linejoin="round" points="7.20520558 12.3833078 7.20520558 5.6547619 11.7844415 9.01903483"></polygon>
                        </g>
                        <g id="Rectangle-2-Copy-2" stroke="#000000">
                            <path d="M29.5613064,0 C29.9500995,3.96021648e-17 30.2652786,0.315179098 30.2652786,0.703972219 L30.2652786,25.8223436 C30.2652786,26.2111367 29.9500995,26.5263158 29.5613064,26.5263158 L27.079,26.526 L27.0794598,28.9430866 C27.0794598,29.3318797 26.7642807,29.6470588 26.3754876,29.6470588 L0.703972219,29.6470588 C0.315179098,29.6470588 -1.7443118e-16,29.3318797 0,28.9430866 L0,3.82471525 C6.34088773e-17,3.43592213 0.315179098,3.12074303 0.703972219,3.12074303 L3.185,3.12 L3.1858188,0.703972219 C3.1858188,0.315179098 3.5009979,-1.50624467e-16 3.88979102,0 L29.5613064,0 Z" id="Rectangle-3"></path>
                            <rect id="Rectangle" x="3.1858188" y="0" width="27.0794598" height="26.5263158" rx="0.703972219"></rect>
                        </g>
                    </g>
                    <g id="Rectangle-2-Copy-2" transform="translate(174.557821, 183.944477) rotate(39.000000) translate(-174.557821, -183.944477) translate(159.425182, 169.120948)">
                        <path d="M29.5613064,0 C29.9500995,3.96021648e-17 30.2652786,0.315179098 30.2652786,0.703972219 L30.2652786,25.8223436 C30.2652786,26.2111367 29.9500995,26.5263158 29.5613064,26.5263158 L27.079,26.526 L27.0794598,28.9430866 C27.0794598,29.3318797 26.7642807,29.6470588 26.3754876,29.6470588 L0.703972219,29.6470588 C0.315179098,29.6470588 -1.7443118e-16,29.3318797 0,28.9430866 L0,3.82471525 C6.34088773e-17,3.43592213 0.315179098,3.12074303 0.703972219,3.12074303 L3.185,3.12 L3.1858188,0.703972219 C3.1858188,0.315179098 3.5009979,-1.50624467e-16 3.88979102,0 L29.5613064,0 Z" id="Rectangle-3" stroke="#000000"></path>
                        <g id="Group-4" transform="translate(8.021437, 4.736842)" fill-rule="nonzero">
                            <ellipse id="Oval" stroke="#000000" cx="9.07135221" cy="8.88605442" rx="9.07135221" ry="8.88605442"></ellipse>
                            <polygon id="Path" stroke="#FF746C" fill="#FF746C" stroke-linejoin="round" points="7.20520558 12.3833078 7.20520558 5.6547619 11.7844415 9.01903483"></polygon>
                        </g>
                        <rect id="Rectangle" stroke="#000000" x="3.1858188" y="0" width="27.0794598" height="26.5263158" rx="0.703972219"></rect>
                    </g>
                    <g id="Group-3" transform="translate(93.169155, 99.823529) rotate(-3.000000) translate(-93.169155, -99.823529) translate(78.036516, 85.000000)">
                        <g id="Group-4" transform="translate(8.021437, 4.736842)" fill-rule="nonzero">
                            <ellipse id="Oval" stroke="#000000" cx="9.07135221" cy="8.88605442" rx="9.07135221" ry="8.88605442"></ellipse>
                            <polygon id="Path" stroke="#FF746C" fill="#FF746C" stroke-linejoin="round" points="7.20520558 12.3833078 7.20520558 5.6547619 11.7844415 9.01903483"></polygon>
                        </g>
                        <g id="Rectangle-2-Copy-2" stroke="#000000">
                            <path d="M29.5613064,0 C29.9500995,3.96021648e-17 30.2652786,0.315179098 30.2652786,0.703972219 L30.2652786,25.8223436 C30.2652786,26.2111367 29.9500995,26.5263158 29.5613064,26.5263158 L27.079,26.526 L27.0794598,28.9430866 C27.0794598,29.3318797 26.7642807,29.6470588 26.3754876,29.6470588 L0.703972219,29.6470588 C0.315179098,29.6470588 -1.7443118e-16,29.3318797 0,28.9430866 L0,3.82471525 C6.34088773e-17,3.43592213 0.315179098,3.12074303 0.703972219,3.12074303 L3.185,3.12 L3.1858188,0.703972219 C3.1858188,0.315179098 3.5009979,-1.50624467e-16 3.88979102,0 L29.5613064,0 Z" id="Rectangle-3"></path>
                            <rect id="Rectangle" x="3.1858188" y="0" width="27.0794598" height="26.5263158" rx="0.703972219"></rect>
                        </g>
                    </g>
                </g>
            </g>
        </g>
        <g id="Group-9" transform="translate(221.000000, 34.000000)" fill-rule="nonzero">
            <path d="M5.44905758,3.65083473 L4.14950493,2.94888658 C4.06475488,2.9116153 3.9970605,2.84392092 3.95978921,2.75917087 L3.25784107,1.45961822 C3.17362569,1.31101843 3.01601375,1.21917808 2.84520939,1.21917808 C2.67440503,1.21917808 2.51679309,1.31101843 2.43257771,1.45961822 L1.74011535,2.75917087 C1.69736689,2.84002881 1.63125758,2.90613813 1.55039963,2.94888658 L0.250846983,3.65083473 C0.096736959,3.73074339 0,3.88987121 0,4.06346641 C0,4.23706161 0.096736959,4.39618943 0.250846983,4.47609809 L1.55039963,5.16856045 C1.62699556,5.21685887 1.69181693,5.28168023 1.74011535,5.35827617 L2.43257771,6.65782882 C2.51248637,6.81193884 2.67161419,6.9086758 2.84520939,6.9086758 C3.01880459,6.9086758 3.17793241,6.81193884 3.25784107,6.65782882 L3.95978921,5.35827617 C4.00253767,5.27741822 4.06864699,5.21130891 4.14950493,5.16856045 L5.44905758,4.47609809 C5.59765737,4.39188271 5.68949772,4.23427077 5.68949772,4.06346641 C5.68949772,3.89266205 5.59765737,3.73505011 5.44905758,3.65083473 Z" id="Path" fill="#879DEF"></path>
            <path d="M6.26184297,2.43165665 L4.96229032,1.7297085 C4.87754027,1.69243721 4.80984589,1.62474283 4.7725746,1.53999279 L4.07062646,0.240440138 C3.98641107,0.0918403467 3.82879913,0 3.65799478,0 C3.48719042,0 3.32957848,0.0918403467 3.2453631,0.240440138 L2.55290074,1.53999279 C2.51015228,1.62085073 2.44404296,1.68696004 2.36318502,1.7297085 L1.06363237,2.43165665 C0.909522347,2.51156531 0.812785388,2.67069313 0.812785388,2.84428833 C0.812785388,3.01788353 0.909522347,3.17701135 1.06363237,3.25692001 L2.36318502,3.94938237 C2.43978095,3.99768079 2.50460232,4.06250215 2.55290074,4.13909808 L3.2453631,5.43865073 C3.32527176,5.59276076 3.48439958,5.68949772 3.65799478,5.68949772 C3.83158998,5.68949772 3.9907178,5.59276076 4.07062646,5.43865073 L4.7725746,4.13909808 C4.81532306,4.05824014 4.88143237,3.99213083 4.96229032,3.94938237 L6.26184297,3.25692001 C6.41044276,3.17270463 6.50228311,3.01509269 6.50228311,2.84428833 C6.50228311,2.67348397 6.41044276,2.51587203 6.26184297,2.43165665 Z" id="Path" stroke="#000000"></path>
        </g>
        <g id="Group-10" transform="translate(62.000000, 270.000000)" fill-rule="nonzero">
            <path d="M11.6510219,6.41886339 L8.86790567,4.92518822 C8.6943339,4.84113187 8.55422092,4.70076327 8.47031764,4.52687484 L6.97936253,1.73868119 C6.80007404,1.41787285 6.46172761,1.21917808 6.09472917,1.21917808 C5.72773072,1.21917808 5.38938429,1.41787285 5.2100958,1.73868119 L3.7191407,4.52687484 C3.6276715,4.70215989 3.48089033,4.84220651 3.30167327,4.92518822 L0.518557069,6.41886339 C0.198332936,6.59847897 0,6.93744267 0,7.30511066 C0,7.67277865 0.198332936,8.01174235 0.518557069,8.19135793 L3.30167327,9.6850331 C3.47777007,9.78173681 3.62261309,9.92684407 3.7191407,10.1032621 L5.2100958,12.8914558 C5.38938429,13.2122641 5.72773072,13.4109589 6.09472917,13.4109589 C6.46172761,13.4109589 6.80007404,13.2122641 6.97936253,12.8914558 L8.47031764,10.1032621 C8.55965722,9.92824571 8.69777111,9.78296156 8.86790567,9.6850331 L11.6510219,8.19135793 C11.9829743,8.02098339 12.1917808,7.67877137 12.1917808,7.30511066 C12.1917808,6.93144995 11.9829743,6.58923792 11.6510219,6.41886339 Z" id="Path" fill="#879DEF"></path>
            <path d="M14.4638073,5.19968531 L11.6806911,3.70601014 C11.5071193,3.62195379 11.3670063,3.48158519 11.283103,3.30769676 L9.79214792,0.519503112 C9.61285943,0.19869477 9.274513,0 8.90751456,0 C8.54051611,0 8.20216968,0.19869477 8.02288119,0.519503112 L6.53192609,3.30769676 C6.44045688,3.48298181 6.29367571,3.62302843 6.11445866,3.70601014 L3.33134246,5.19968531 C3.01111832,5.37930089 2.81278539,5.71826459 2.81278539,6.08593258 C2.81278539,6.45360056 3.01111832,6.79256426 3.33134246,6.97217984 L6.11445866,8.46585501 C6.29055546,8.56255873 6.43539847,8.70766599 6.53192609,8.88408406 L8.02288119,11.6722777 C8.20216968,11.9930861 8.54051611,12.1917808 8.90751456,12.1917808 C9.274513,12.1917808 9.61285943,11.9930861 9.79214792,11.6722777 L11.283103,8.88408406 C11.3724426,8.70906763 11.5105565,8.56378348 11.6806911,8.46585501 L14.4638073,6.97217984 C14.7957597,6.80180531 15.0045662,6.45959329 15.0045662,6.08593258 C15.0045662,5.71227187 14.7957597,5.37005984 14.4638073,5.19968531 Z" id="Path" stroke="#000000"></path>
        </g>
        <g id="Group-7" transform="translate(314.000000, 15.000000)" fill-rule="nonzero">
            <path d="M5.32951674,3.4316668 C5.22328489,3.37442452 5.13600633,3.28805908 5.07815883,3.18293865 L4.18873855,1.5279398 C4.0811152,1.33729913 3.87769891,1.21917808 3.6570199,1.21917808 C3.43634089,1.21917808 3.23292459,1.33729913 3.12530125,1.5279398 L2.22621335,3.18293865 C2.1749825,3.28955063 2.09017113,3.37683165 1.98452305,3.4316668 L0.312026203,4.38831353 C0.119369925,4.49481089 0,4.69609901 0,4.91446923 C0,5.13283945 0.119369925,5.33412757 0.312026203,5.44062493 L1.98452305,6.32073992 C2.09017113,6.37557507 2.1749825,6.46285609 2.22621335,6.56946807 L3.12530125,8.21490045 C3.22848994,8.41113941 3.4334662,8.53424658 3.6570199,8.53424658 C3.88057359,8.53424658 4.08554985,8.41113941 4.18873855,8.21490045 L5.07815883,6.56946807 C5.13600633,6.46434764 5.22328489,6.3779822 5.32951674,6.32073992 L6.99234598,5.44062493 C7.19065974,5.33851582 7.31506849,5.13568406 7.31506849,4.91446923 C7.31506849,4.6932544 7.19065974,4.49042264 6.99234598,4.38831353 L5.32951674,3.4316668 Z" id="Path" fill="#879DEF"></path>
            <path d="M6.14230213,2.21248871 C6.03607028,2.15524644 5.94879171,2.06888099 5.89094422,1.96376056 L5.00152393,0.308761721 C4.89390059,0.118121053 4.69048429,0 4.46980528,0 C4.24912627,0 4.04570998,0.118121053 3.93808663,0.308761721 L3.03899873,1.96376056 C2.98776789,2.07037255 2.90295652,2.15765357 2.79730844,2.21248871 L1.12481159,3.16913544 C0.932155313,3.27563281 0.812785388,3.47692093 0.812785388,3.69529115 C0.812785388,3.91366137 0.932155313,4.11494948 1.12481159,4.22144685 L2.79730844,5.10156184 C2.90295652,5.15639699 2.98776789,5.24367801 3.03899873,5.35028999 L3.93808663,6.99572237 C4.04127533,7.19196133 4.24625159,7.31506849 4.46980528,7.31506849 C4.69335898,7.31506849 4.89833524,7.19196133 5.00152393,6.99572237 L5.89094422,5.35028999 C5.94879171,5.24516956 6.03607028,5.15880412 6.14230213,5.10156184 L7.80513137,4.22144685 C8.00344512,4.11933774 8.12785388,3.91650597 8.12785388,3.69529115 C8.12785388,3.47407632 8.00344512,3.27124456 7.80513137,3.16913544 L6.14230213,2.21248871 Z" id="Path" stroke="#000000"></path>
        </g>
        <g id="Group-7" transform="translate(153.000000, 65.000000)" fill-rule="nonzero">
            <path d="M5.32951674,3.4316668 C5.22328489,3.37442452 5.13600633,3.28805908 5.07815883,3.18293865 L4.18873855,1.5279398 C4.0811152,1.33729913 3.87769891,1.21917808 3.6570199,1.21917808 C3.43634089,1.21917808 3.23292459,1.33729913 3.12530125,1.5279398 L2.22621335,3.18293865 C2.1749825,3.28955063 2.09017113,3.37683165 1.98452305,3.4316668 L0.312026203,4.38831353 C0.119369925,4.49481089 0,4.69609901 0,4.91446923 C0,5.13283945 0.119369925,5.33412757 0.312026203,5.44062493 L1.98452305,6.32073992 C2.09017113,6.37557507 2.1749825,6.46285609 2.22621335,6.56946807 L3.12530125,8.21490045 C3.22848994,8.41113941 3.4334662,8.53424658 3.6570199,8.53424658 C3.88057359,8.53424658 4.08554985,8.41113941 4.18873855,8.21490045 L5.07815883,6.56946807 C5.13600633,6.46434764 5.22328489,6.3779822 5.32951674,6.32073992 L6.99234598,5.44062493 C7.19065974,5.33851582 7.31506849,5.13568406 7.31506849,4.91446923 C7.31506849,4.6932544 7.19065974,4.49042264 6.99234598,4.38831353 L5.32951674,3.4316668 Z" id="Path" fill="#879DEF"></path>
            <path d="M6.14230213,2.21248871 C6.03607028,2.15524644 5.94879171,2.06888099 5.89094422,1.96376056 L5.00152393,0.308761721 C4.89390059,0.118121053 4.69048429,0 4.46980528,0 C4.24912627,0 4.04570998,0.118121053 3.93808663,0.308761721 L3.03899873,1.96376056 C2.98776789,2.07037255 2.90295652,2.15765357 2.79730844,2.21248871 L1.12481159,3.16913544 C0.932155313,3.27563281 0.812785388,3.47692093 0.812785388,3.69529115 C0.812785388,3.91366137 0.932155313,4.11494948 1.12481159,4.22144685 L2.79730844,5.10156184 C2.90295652,5.15639699 2.98776789,5.24367801 3.03899873,5.35028999 L3.93808663,6.99572237 C4.04127533,7.19196133 4.24625159,7.31506849 4.46980528,7.31506849 C4.69335898,7.31506849 4.89833524,7.19196133 5.00152393,6.99572237 L5.89094422,5.35028999 C5.94879171,5.24516956 6.03607028,5.15880412 6.14230213,5.10156184 L7.80513137,4.22144685 C8.00344512,4.11933774 8.12785388,3.91650597 8.12785388,3.69529115 C8.12785388,3.47407632 8.00344512,3.27124456 7.80513137,3.16913544 L6.14230213,2.21248871 Z" id="Path" stroke="#000000"></path>
        </g>
        <g id="Group-7" transform="translate(77.000000, 348.000000)" fill-rule="nonzero">
            <path d="M5.32951674,3.4316668 C5.22328489,3.37442452 5.13600633,3.28805908 5.07815883,3.18293865 L4.18873855,1.5279398 C4.0811152,1.33729913 3.87769891,1.21917808 3.6570199,1.21917808 C3.43634089,1.21917808 3.23292459,1.33729913 3.12530125,1.5279398 L2.22621335,3.18293865 C2.1749825,3.28955063 2.09017113,3.37683165 1.98452305,3.4316668 L0.312026203,4.38831353 C0.119369925,4.49481089 0,4.69609901 0,4.91446923 C0,5.13283945 0.119369925,5.33412757 0.312026203,5.44062493 L1.98452305,6.32073992 C2.09017113,6.37557507 2.1749825,6.46285609 2.22621335,6.56946807 L3.12530125,8.21490045 C3.22848994,8.41113941 3.4334662,8.53424658 3.6570199,8.53424658 C3.88057359,8.53424658 4.08554985,8.41113941 4.18873855,8.21490045 L5.07815883,6.56946807 C5.13600633,6.46434764 5.22328489,6.3779822 5.32951674,6.32073992 L6.99234598,5.44062493 C7.19065974,5.33851582 7.31506849,5.13568406 7.31506849,4.91446923 C7.31506849,4.6932544 7.19065974,4.49042264 6.99234598,4.38831353 L5.32951674,3.4316668 Z" id="Path" fill="#879DEF"></path>
            <path d="M6.14230213,2.21248871 C6.03607028,2.15524644 5.94879171,2.06888099 5.89094422,1.96376056 L5.00152393,0.308761721 C4.89390059,0.118121053 4.69048429,0 4.46980528,0 C4.24912627,0 4.04570998,0.118121053 3.93808663,0.308761721 L3.03899873,1.96376056 C2.98776789,2.07037255 2.90295652,2.15765357 2.79730844,2.21248871 L1.12481159,3.16913544 C0.932155313,3.27563281 0.812785388,3.47692093 0.812785388,3.69529115 C0.812785388,3.91366137 0.932155313,4.11494948 1.12481159,4.22144685 L2.79730844,5.10156184 C2.90295652,5.15639699 2.98776789,5.24367801 3.03899873,5.35028999 L3.93808663,6.99572237 C4.04127533,7.19196133 4.24625159,7.31506849 4.46980528,7.31506849 C4.69335898,7.31506849 4.89833524,7.19196133 5.00152393,6.99572237 L5.89094422,5.35028999 C5.94879171,5.24516956 6.03607028,5.15880412 6.14230213,5.10156184 L7.80513137,4.22144685 C8.00344512,4.11933774 8.12785388,3.91650597 8.12785388,3.69529115 C8.12785388,3.47407632 8.00344512,3.27124456 7.80513137,3.16913544 L6.14230213,2.21248871 Z" id="Path" stroke="#000000"></path>
        </g>
        <g id="Group-7" transform="translate(356.000000, 166.000000)" fill-rule="nonzero">
            <path d="M5.32951674,3.4316668 C5.22328489,3.37442452 5.13600633,3.28805908 5.07815883,3.18293865 L4.18873855,1.5279398 C4.0811152,1.33729913 3.87769891,1.21917808 3.6570199,1.21917808 C3.43634089,1.21917808 3.23292459,1.33729913 3.12530125,1.5279398 L2.22621335,3.18293865 C2.1749825,3.28955063 2.09017113,3.37683165 1.98452305,3.4316668 L0.312026203,4.38831353 C0.119369925,4.49481089 0,4.69609901 0,4.91446923 C0,5.13283945 0.119369925,5.33412757 0.312026203,5.44062493 L1.98452305,6.32073992 C2.09017113,6.37557507 2.1749825,6.46285609 2.22621335,6.56946807 L3.12530125,8.21490045 C3.22848994,8.41113941 3.4334662,8.53424658 3.6570199,8.53424658 C3.88057359,8.53424658 4.08554985,8.41113941 4.18873855,8.21490045 L5.07815883,6.56946807 C5.13600633,6.46434764 5.22328489,6.3779822 5.32951674,6.32073992 L6.99234598,5.44062493 C7.19065974,5.33851582 7.31506849,5.13568406 7.31506849,4.91446923 C7.31506849,4.6932544 7.19065974,4.49042264 6.99234598,4.38831353 L5.32951674,3.4316668 Z" id="Path" fill="#879DEF"></path>
            <path d="M6.14230213,2.21248871 C6.03607028,2.15524644 5.94879171,2.06888099 5.89094422,1.96376056 L5.00152393,0.308761721 C4.89390059,0.118121053 4.69048429,0 4.46980528,0 C4.24912627,0 4.04570998,0.118121053 3.93808663,0.308761721 L3.03899873,1.96376056 C2.98776789,2.07037255 2.90295652,2.15765357 2.79730844,2.21248871 L1.12481159,3.16913544 C0.932155313,3.27563281 0.812785388,3.47692093 0.812785388,3.69529115 C0.812785388,3.91366137 0.932155313,4.11494948 1.12481159,4.22144685 L2.79730844,5.10156184 C2.90295652,5.15639699 2.98776789,5.24367801 3.03899873,5.35028999 L3.93808663,6.99572237 C4.04127533,7.19196133 4.24625159,7.31506849 4.46980528,7.31506849 C4.69335898,7.31506849 4.89833524,7.19196133 5.00152393,6.99572237 L5.89094422,5.35028999 C5.94879171,5.24516956 6.03607028,5.15880412 6.14230213,5.10156184 L7.80513137,4.22144685 C8.00344512,4.11933774 8.12785388,3.91650597 8.12785388,3.69529115 C8.12785388,3.47407632 8.00344512,3.27124456 7.80513137,3.16913544 L6.14230213,2.21248871 Z" id="Path" stroke="#000000"></path>
        </g>
        <g id="Group" transform="translate(237.947808, 328.828381) rotate(18.000000) translate(-237.947808, -328.828381) translate(221.119799, 313.945903)" fill="#121424">
            <path d="M23.460279,-0.655848243 C23.7528763,-0.676685559 24.0593177,-0.546031592 24.3797801,-0.263535222 C24.6791234,0.0087707336 24.8900976,0.348218421 25.012546,0.754210653 L33.5695259,28.3947912 C33.6919742,28.7798594 33.684432,29.100916 33.5467422,29.3576922 C33.3937523,29.6238542 33.1630071,29.746374 32.8546841,29.7259642 L14.1590937,28.457181 C13.8507706,28.4359187 13.5350957,28.2888809 13.2122461,28.0165007 C12.9114912,27.7561393 12.7069118,27.452355 12.5983511,27.104604 L11.199834,22.6049402 L5.4195833,22.395304 C5.11463003,22.3844079 4.80520353,22.2555583 4.49147372,22.0092202 C4.19031274,21.7442942 3.98937987,21.4486468 3.88850522,21.1216701 L0.0644389265,8.58779873 C-0.036435724,8.25351602 -0.0188520741,7.94809133 0.117019961,7.67103162 C0.276742592,7.41236847 0.504502514,7.27334555 0.800469643,7.25464198 L6.41039205,6.91652777 L5.011875,2.25415881 C4.90331431,1.89070173 4.91725144,1.57075144 5.05352952,1.29391378 C5.15395761,1.10067029 5.37553347,0.941650056 5.71824122,0.816941673 L23.460279,-0.655848243 Z M9.31279389,16.4751923 L12.0034184,19.9725161 L14.4720534,20.0276057 L10.199823,14.8979978 L11.27996,9.76766828 L8.96628715,9.85188304 L8.45523499,13.0829079 L8.42954429,13.1784293 L8.42224313,13.2893671 C8.0171403,12.7380771 7.59282697,12.1830904 7.14936908,11.6246227 C6.75487169,11.0765406 6.34572529,10.5247715 5.92198078,9.96948285 L3.47300544,10.0696862 L7.54567636,14.9511114 L6.23867285,19.8513016 L8.69351663,19.9016472 L9.31279389,16.4751923 Z M22.0041705,27.0206727 L20.7365546,22.9637126 L12.9325231,22.6689302 L14.142648,26.561718 L22.0041705,27.0206727 Z M20.1027467,20.9236424 L18.5207622,15.7979152 L15.9483554,15.7944445 L17.5063812,20.8511718 L20.1027467,20.9236424 Z M17.8869543,13.7308322 L16.2998993,8.52095906 L13.7611268,8.61726025 L15.3241463,13.755489 L17.8869543,13.7308322 Z M15.6660914,6.42680148 L14.3984756,2.21530604 L6.88189857,2.79019086 L8.09202347,6.82124536 L15.6660914,6.42680148 Z M31.5971828,27.5790897 L30.2594137,23.3379895 L22.4692437,23.0306206 L23.7496239,27.1224096 L31.5971828,27.5790897 Z M29.5905292,21.204271 L27.9209935,15.8402069 L20.2311391,15.80215 L21.8290536,20.9728561 L29.5905292,21.204271 Z M27.252109,13.6757971 L25.5772222,8.21760174 L17.9879129,8.46008906 L19.590949,13.7167205 L27.252109,13.6757971 Z M24.9083376,6.02243052 L23.5705686,1.60575119 L16.0673426,2.09687545 L17.3477228,6.3469312 L24.9083376,6.02243052 Z" id="Shape"></path>
        </g>
    </g>
</svg>
