<?xml version="1.0" encoding="UTF-8"?>
<svg width="170px" height="170px" viewBox="0 0 170 170" version="1.1" xmlns="http://www.w3.org/2000/svg" xmlns:xlink="http://www.w3.org/1999/xlink">
    <title>illustrations/light/increase-investment</title>
    <defs>
        <filter x="-441.8%" y="-331.3%" width="983.6%" height="762.7%" filterUnits="objectBoundingBox" id="filter-1">
            <feGaussianBlur stdDeviation="10" in="SourceGraphic"></feGaussianBlur>
        </filter>
    </defs>
    <g id="illustrations/light/increase-investment" stroke="none" stroke-width="1" fill="none" fill-rule="evenodd">
        <g transform="translate(21.000000, 41.000000)" id="Group-3">
            <g id="Group-2">
                <path d="M2,0 L20.0129745,0 L20.0129745,0 L128.659985,0 C129.764554,-2.02906125e-16 130.659985,0.8954305 130.659985,2 L130.659985,85.4638587 C130.659985,86.5684282 129.764554,87.4638587 128.659985,87.4638587 L2,87.4638587 C0.8954305,87.4638587 -6.97015661e-15,86.5684282 0,85.4638587 L0,2 C-5.7935996e-16,0.8954305 0.8954305,2.02906125e-16 2,0 Z" id="Rectangle-2" stroke="#000000" stroke-width="2"></path>
                <polygon id="Path-2" fill="#000000" fill-rule="nonzero" points="130.944605 9.68510467 130.94525 11.6342833 1.00064434 11.6930134 1 9.74383478"></polygon>
                <circle id="Oval" fill="#000000" cx="7.49726248" cy="5.62431562" r="1.62431562"></circle>
                <circle id="Oval" fill="#000000" cx="13.994525" cy="5.62431562" r="1.62431562"></circle>
                <circle id="Oval" fill="#000000" cx="20.4917874" cy="5.62431562" r="1.62431562"></circle>
            </g>
            <g id="multimedia" transform="translate(42.000000, 25.000000)" fill-rule="nonzero">
                <path d="M19.8514286,14.0442743 L19.8514286,23.0985829 L26.64216,18.5714286 L19.8514286,14.0442743 Z M21.3942857,16.9271543 L23.8606971,18.5714286 L21.3942857,20.2157029 L21.3942857,16.9271543 Z" id="Shape" fill="#8DA4FA" filter="url(#filter-1)"></path>
                <g id="return-on-investment" fill="#8BA3F4">
                    <path d="M24,32.1133603 C18.1710923,32.1133603 8.30769231,32.8909603 8.30769231,35.805668 C8.30769231,38.7203757 18.1710923,39.4979757 24,39.4979757 C29.8289077,39.4979757 39.6923077,38.7203757 39.6923077,35.805668 C39.6923077,32.8909603 29.8289077,32.1133603 24,32.1133603 Z M24,38.0210526 C15.2703692,38.0210526 10.1633077,36.5633296 9.87378462,35.8292988 C10.1633077,35.0480065 15.2703692,33.5902834 24,33.5902834 C32.6417538,33.5902834 37.7331231,35.0192065 38.1160154,35.805668 C37.7331231,36.5921296 32.6417538,38.0210526 24,38.0210526 Z" id="Shape"></path>
                    <path d="M28.251871,29.2849687 L30.2415484,26.7195491 C30.4714839,26.7963953 30.7122581,26.8476261 30.9677419,26.8476261 C31.7566452,26.8476261 32.4534194,26.4494233 32.8730323,25.8447449 L37.1790968,27.0222764 C37.2696774,28.2230946 38.2621935,29.1762974 39.483871,29.1762974 C40.7643871,29.1762974 41.8064516,28.1315002 41.8064516,26.8476261 C41.8064516,26.2476051 41.5726452,25.7050247 41.1994839,25.2912974 L44.1677419,19.7630317 C44.4046452,19.8220247 44.6485161,19.8616121 44.9032258,19.8616121 C46.6110968,19.8616121 48,18.4690666 48,16.756717 C48,15.0443673 46.6110968,13.6518219 44.9032258,13.6518219 C43.1953548,13.6518219 41.8064516,15.0443673 41.8064516,16.756717 C41.8064516,17.6555841 42.1950968,18.4589757 42.8051613,19.0263953 L39.836129,24.554661 C39.7207742,24.5368079 39.6046452,24.5189547 39.483871,24.5189547 C38.6949677,24.5189547 37.9989677,24.9171575 37.5785806,25.5218358 L33.2725161,24.3443044 C33.1819355,23.1434862 32.1886452,22.1902834 30.9677419,22.1902834 C29.6872258,22.1902834 28.6451613,23.2350806 28.6451613,24.5189547 C28.6451613,24.9808079 28.7837419,25.4085072 29.016,25.7710037 L26.348129,29.209675 C25.5646452,29.1879407 24.7811613,29.1762974 24,29.1762974 C12.3654194,29.1762974 0,31.6245072 0,36.1623114 L0,40.819654 C0,45.3574582 12.3654194,47.805668 24,47.805668 C35.6345806,47.805668 48,45.3574582 48,40.819654 L48,36.1623114 C48,32.1764023 38.4580645,29.80271 28.251871,29.2849687 Z M44.9032258,15.2042694 C45.7571613,15.2042694 46.4516129,15.9005421 46.4516129,16.756717 C46.4516129,17.6128918 45.7571613,18.3091645 44.9032258,18.3091645 C44.0492903,18.3091645 43.3548387,17.6128918 43.3548387,16.756717 C43.3548387,15.9005421 44.0492903,15.2042694 44.9032258,15.2042694 Z M39.483871,26.0714023 C39.9112258,26.0714023 40.2580645,26.4191505 40.2580645,26.8476261 C40.2580645,27.2761016 39.9112258,27.6238498 39.483871,27.6238498 C39.0565161,27.6238498 38.7096774,27.2761016 38.7096774,26.8476261 C38.7096774,26.4191505 39.0565161,26.0714023 39.483871,26.0714023 Z M30.9677419,23.742731 C31.3950968,23.742731 31.7419355,24.0904792 31.7419355,24.5189547 C31.7419355,24.9474303 31.3950968,25.2951785 30.9677419,25.2951785 C30.5403871,25.2951785 30.1935484,24.9474303 30.1935484,24.5189547 C30.1935484,24.0904792 30.5403871,23.742731 30.9677419,23.742731 Z M1.5483871,40.819654 L1.5483871,38.762661 C2.33109677,39.3735491 3.38322581,39.9238918 4.64516129,40.4105841 L4.64516129,43.3936121 C2.63148387,42.5444233 1.5483871,41.6253743 1.5483871,40.819654 Z M41.8064516,40.9454023 L41.8064516,43.9734512 C40.8975484,44.2746261 39.8609032,44.558724 38.7096774,44.8195351 L38.7096774,41.745689 C39.8136774,41.5089407 40.8510968,41.2411435 41.8064516,40.9454023 Z M37.1612903,45.1424442 C36.1966452,45.3256331 35.1615484,45.4901925 34.0645161,45.6345701 L34.0645161,42.5273463 C35.1305806,42.390731 36.1664516,42.2316051 37.1612903,42.0515212 L37.1612903,45.1424442 Z M32.516129,45.8200876 C31.5298065,45.925654 30.4954839,46.0133673 29.4193548,46.0824512 L29.4193548,42.9721226 C30.4660645,42.9038149 31.5011613,42.8153254 32.516129,42.7089827 L32.516129,45.8200876 Z M27.8709677,46.1678358 C26.8730323,46.2120806 25.8387097,46.2384722 24.7741935,46.2477869 L24.7741935,43.143668 C25.8061935,43.1343533 26.8412903,43.1048568 27.8709677,43.0575072 L27.8709677,46.1678358 Z M23.2258065,46.2477869 C22.1612903,46.2384722 21.1269677,46.2120806 20.1290323,46.1678358 L20.1290323,43.056731 C21.1587097,43.1040806 22.1938065,43.1335771 23.2258065,43.1428918 L23.2258065,46.2477869 Z M18.5806452,46.0824512 C17.5045161,46.0133673 16.4701935,45.925654 15.483871,45.8200876 L15.483871,42.7089827 C16.4988387,42.8161016 17.5339355,42.9045911 18.5806452,42.9721226 L18.5806452,46.0824512 Z M13.9354839,45.6345701 C12.8384516,45.4901925 11.8033548,45.3256331 10.8387097,45.1424442 L10.8387097,42.0515212 C11.8335484,42.2323813 12.8694194,42.390731 13.9354839,42.5273463 L13.9354839,45.6345701 Z M9.29032258,44.8203114 C8.13909677,44.5595002 7.10245161,44.2746261 6.19354839,43.9742275 L6.19354839,40.9461785 C7.14890323,41.2419198 8.18632258,41.509717 9.29032258,41.7472414 L9.29032258,44.8203114 Z M43.3548387,43.3943883 L43.3548387,40.4113603 C44.6167742,39.924668 45.6689032,39.3743254 46.4516129,38.7634372 L46.4516129,40.819654 C46.4516129,41.6253743 45.3685161,42.5444233 43.3548387,43.3943883 Z M24,41.5958778 C10.0892903,41.5958778 1.5483871,38.4312135 1.5483871,36.1623114 C1.5483871,33.8934093 10.0892903,30.7287449 24,30.7287449 C37.9107097,30.7287449 46.4516129,33.8934093 46.4516129,36.1623114 C46.4516129,38.4312135 37.9107097,41.5958778 24,41.5958778 Z" id="Shape"></path>
                    <path d="M17.7692308,14.5748988 L19.1538462,14.5748988 L19.1538462,13.1243493 C20.2989231,13.1243493 21.2307692,12.1481296 21.2307692,10.9485252 C21.2307692,9.74892076 20.2989231,8.77270098 19.1538462,8.77270098 L17.7692308,8.77270098 C17.3870769,8.77270098 17.0769231,8.44777791 17.0769231,8.04742626 C17.0769231,7.64707461 17.3870769,7.32215153 17.7692308,7.32215153 L19.8461538,7.32215153 L19.8461538,8.04742626 L21.2307692,8.04742626 L21.2307692,5.87160208 L19.1538462,5.87160208 L19.1538462,4.42105263 L17.7692308,4.42105263 L17.7692308,5.87160208 C16.6241538,5.87160208 15.6923077,6.84782186 15.6923077,8.04742626 C15.6923077,9.24703065 16.6241538,10.2232504 17.7692308,10.2232504 L19.1538462,10.2232504 C19.536,10.2232504 19.8461538,10.5481735 19.8461538,10.9485252 C19.8461538,11.3488768 19.536,11.6737999 19.1538462,11.6737999 L17.0769231,11.6737999 L17.0769231,10.9485252 L15.6923077,10.9485252 L15.6923077,13.1243493 L17.7692308,13.1243493 L17.7692308,14.5748988 Z" id="Path"></path>
                    <path d="M15.1338462,17.6518219 L16.3227692,22.4772065 C16.5153626,23.2595142 17.2053626,23.805668 18,23.805668 C18.7946374,23.805668 19.4846374,23.2595142 19.6772308,22.4764372 L20.8661538,17.6518219 L26.3406593,17.6518219 C27.5947912,17.6518219 28.6153846,16.6164372 28.6153846,15.3441296 L28.6153846,3.03643725 C28.6153846,1.76412955 27.5947912,0.728744939 26.3406593,0.728744939 L9.65934066,0.728744939 C8.40520879,0.728744939 7.38461538,1.76412955 7.38461538,3.03643725 L7.38461538,15.3441296 C7.38461538,16.6164372 8.40520879,17.6518219 9.65934066,17.6518219 L15.1338462,17.6518219 Z M8.9010989,3.03643725 C8.9010989,2.61182186 9.24079121,2.26720648 9.65934066,2.26720648 L26.3406593,2.26720648 C26.7592088,2.26720648 27.0989011,2.61182186 27.0989011,3.03643725 L27.0989011,15.3441296 C27.0989011,15.7687449 26.7592088,16.1133603 26.3406593,16.1133603 L19.6832967,16.1133603 L18.207,22.1033603 C18.1592308,22.295668 17.8415275,22.2948988 17.7937582,22.1041296 L16.3167033,16.1133603 L9.65934066,16.1133603 C9.24079121,16.1133603 8.9010989,15.7687449 8.9010989,15.3441296 L8.9010989,3.03643725 Z" id="Shape"></path>
                </g>
            </g>
        </g>
    </g>
</svg>