<?xml version="1.0" encoding="UTF-8"?>
<svg width="170px" height="170px" viewBox="0 0 170 170" version="1.1" xmlns="http://www.w3.org/2000/svg" xmlns:xlink="http://www.w3.org/1999/xlink">
    <title>illustrations/light/investment-share</title>
    <g id="illustrations/light/investment-share" stroke="none" stroke-width="1" fill="none" fill-rule="evenodd">
        <g id="Illustrations/light/investment-share" transform="translate(20.000000, 40.000000)">
            <g id="Group-3" transform="translate(43.000000, 26.000000)" fill="#8BA3F4" fill-rule="nonzero">
                <g id="circular-cake-graphic-with-quarter-part-cutted">
                    <path d="M5.89826551,36.7369164 C7.74752323,38.7093624 9.91592463,40.30374 12.343208,41.4754225 C14.8459167,42.6835604 17.5249323,43.3927925 20.3059293,43.5835552 C20.4101106,43.5907835 20.515549,43.5944762 20.6194946,43.5944762 C21.0857964,43.5944762 21.5359131,43.5239222 21.9599452,43.3932639 C22.4027551,45.4519775 24.2364563,47 26.4252854,47 C26.5299382,47 26.6360051,46.9963073 26.7405007,46.9890791 C31.9846081,46.6281383 36.9247355,44.3771692 40.651064,40.6508528 C44.3773926,36.9245364 46.628369,31.9844252 46.989311,26.7403349 C47.0760502,25.4815992 46.6317475,24.2306418 45.7708766,23.3084123 C45.1314108,22.6235363 44.2952889,22.1558218 43.3906556,21.9605021 C43.5543916,21.4295405 43.622353,20.8683303 43.5836975,20.3055487 C43.3929341,17.5249537 42.6836997,14.8459468 41.4754007,12.3432463 C40.3036358,9.91604941 38.7092531,7.74765508 36.7368005,5.8984034 C32.6794645,2.09477624 27.380988,0 21.8177369,0 L21.8177369,0 L21.8175798,0 C18.8700184,0 16.010689,0.576216673 13.3189454,1.71262218 C10.7188908,2.81037229 8.38549632,4.38196517 6.38373789,6.38379563 C4.38197946,8.38562609 2.81038147,10.7189344 1.71262777,13.3189805 C0.576218554,16.0107153 0,18.870114 0,21.8177443 C0,27.3815272 2.09478308,32.6797507 5.89826551,36.7369164 Z M43.6313883,26.509424 C43.0004078,35.6753075 35.6754239,43.0004246 26.5093533,43.6312459 C26.4811474,43.6332101 26.4531771,43.6341529 26.4252854,43.6341529 C25.7672775,43.6341529 25.2235861,43.1001272 25.2235861,42.4316719 L25.2235861,26.4256706 C25.2235861,25.7618508 25.7617777,25.2235038 26.4257569,25.2235038 L42.4318889,25.2235038 C43.1287095,25.2235038 43.6791577,25.814177 43.6313883,26.509424 Z M21.8177369,3.36592562 C21.8183655,3.36592562 21.8171869,3.36592562 21.8177369,3.36592562 C31.576761,3.36592562 39.5676883,10.9439527 40.2256962,20.5361454 C40.2733871,21.2296639 39.7211318,21.8177443 39.0259611,21.8177443 L24.6648883,21.8177443 C23.092426,21.8177443 21.8177369,23.0925078 21.8177369,24.6649649 L21.8177369,39.0259909 C21.8177369,39.693032 21.2761669,40.2286291 20.6194946,40.2286291 C20.5919172,40.2286291 20.5641041,40.2275292 20.5362124,40.2257221 C10.9434384,39.5675592 3.36585804,31.5777579 3.36585804,21.8179014 C3.36585804,11.6098153 11.609696,3.36592562 21.8177369,3.36592562 Z" id="Shape"></path>
                    <path d="M26.420408,47 C24.281823,47 22.4016879,45.4927596 21.9332621,43.409872 C21.4098519,43.5658043 20.8620479,43.6274555 20.3085179,43.5891784 C17.5271416,43.3983418 14.8477334,42.6889599 12.34473,41.4807204 C9.91726153,40.3090324 7.74863514,38.7145704 5.89901205,36.7416511 C2.09497404,32.6840401 0,27.3849325 0,21.8206302 C0,18.8725854 0.576276697,16.0128603 1.71282894,13.3207545 C2.81071174,10.7204198 4.38251094,8.38676989 6.38453713,6.38467213 C8.38656332,4.38257436 10.7201427,2.81078055 13.3206433,1.71290151 C16.0129152,0.576274722 18.8725716,0 21.8203912,0 C27.3845557,0 32.6836815,2.0950453 36.7414632,5.89914871 C38.7143109,7.74876546 40.3087784,9.91738442 41.4807057,12.3448446 C42.6890278,14.847761 43.3984905,17.5270031 43.5893278,20.308213 C43.6269775,20.8564074 43.5657182,21.4031114 43.4073539,21.9338928 C44.3159682,22.1386912 45.1295953,22.6042132 45.7623466,23.2819851 C46.6293893,24.2107545 47.0764803,25.4702132 46.9892583,26.7376725 C46.6282128,31.9823451 44.3769922,36.9231537 40.6502146,40.6499969 C36.9234371,44.3768401 31.9825331,46.628053 26.7378426,46.9890189 C26.6324232,46.9963135 26.5255136,47 26.420408,47 Z M21.9918545,43.3099436 L22.0008748,43.3517504 C22.4457695,45.4202056 24.3044913,46.9215633 26.4204864,46.9215633 C26.523788,46.9215633 26.6287367,46.9179552 26.7325088,46.910739 C31.9582961,46.5511065 36.8813949,44.3078942 40.5947597,40.5945421 C44.3081245,36.88119 46.5513445,31.9581081 46.9109782,26.7323388 C46.9967883,25.4865281 46.5572273,24.2484826 45.7050876,23.3355574 C45.0735913,22.6591974 44.2589445,22.1978325 43.3492321,22.0014269 L43.3074252,21.9924067 L43.3200535,21.9515411 C43.4848497,21.41723 43.5490896,20.866212 43.5111261,20.3136251 C43.3209948,17.5423767 42.6141205,14.8727823 41.4101908,12.3789646 C40.2424991,9.96028931 38.6536791,7.79935715 36.6879692,5.95640753 C32.6446199,2.16595211 27.3646327,0.0784367391 21.8205481,0.0784367391 C18.8831606,0.0784367391 16.033701,0.652672106 13.3511553,1.78514175 C10.7600672,2.87909895 8.43480208,4.44524532 6.4399921,6.4401269 C4.44510367,8.43500849 2.87903037,10.7602656 1.78506943,13.351188 C0.652674343,16.0335676 0.0784370079,18.8830959 0.0784370079,21.8205518 C0.0784370079,27.3649311 2.1658811,32.6449002 5.95627107,36.6880003 C7.79930544,38.6537819 9.96016657,40.2425181 12.3788501,41.4100489 C14.8728333,42.6139744 17.5425937,43.3207679 20.3139301,43.5108201 C20.8721662,43.5497247 21.4244412,43.4846222 21.9509888,43.3225719 L21.9918545,43.3099436 Z M26.420408,43.6397701 C25.7373001,43.6397701 25.1814954,43.0836536 25.1814954,42.4000774 L25.1814954,26.4207881 C25.1814954,25.7373688 25.737457,25.1814092 26.4208786,25.1814092 L42.4003012,25.1814092 C42.7473849,25.1814092 43.0689767,25.321105 43.3059349,25.5749263 C43.5432068,25.8290613 43.6607839,26.1601428 43.6370175,26.5071469 C43.3316622,30.9422739 41.4271332,35.121148 38.2742008,38.2741481 C35.1212684,41.4271481 30.9422231,43.3316706 26.5070809,43.6368679 C26.4780592,43.6388289 26.4492728,43.6397701 26.420408,43.6397701 Z M26.4208786,25.2598459 C25.7807542,25.2598459 25.2599325,25.7806658 25.2599325,26.4207881 L25.2599325,42.4001559 C25.2599325,43.0674956 25.8273458,43.6065129 26.5015903,43.5585881 C30.9179076,43.2546457 35.0790693,41.3582022 38.2186674,38.2186933 C41.3582655,35.0791844 43.2546371,30.9180369 43.5586589,26.5018132 C43.5810134,26.1766929 43.4708879,25.8665541 43.2485974,25.6284986 C43.0266991,25.3908353 42.7253441,25.2598459 42.4003012,25.2598459 L26.4208786,25.2598459 L26.4208786,25.2598459 Z M20.6243053,40.2398512 C20.5959895,40.2398512 20.5672816,40.2387531 20.5385736,40.2368706 C15.8818469,39.9173978 11.5533791,37.8598452 8.3504823,34.4434546 C5.13252561,31.0109845 3.36031985,26.5280895 3.36031985,21.8206302 C3.36031985,16.8813119 5.27818313,12.243269 8.76070785,8.76075626 C12.2431541,5.27824348 16.8812913,3.36030834 21.8205481,3.36030834 L21.820705,3.36030834 C26.5276314,3.36030834 31.0104633,5.13258646 34.443102,8.35061055 C37.8598965,11.5537317 39.9174561,15.8821062 40.2368516,20.5384248 C40.260618,20.8832327 40.1435116,21.2124317 39.9071809,21.4656255 C39.6733602,21.7161525 39.3426697,21.8597701 39.0000569,21.8597701 L24.6629484,21.8597701 C23.1172687,21.8597701 21.8597666,23.1172679 21.8597666,24.6630207 L21.8597666,39.0000801 C21.8597666,39.6837347 21.3055307,40.2398512 20.6243053,40.2398512 Z M21.8205481,3.43874508 C16.9021555,3.43874508 12.2838629,5.3485228 8.81616281,8.81621104 C5.34846269,12.2838993 3.43875686,16.9022545 3.43875686,21.8206302 C3.43875686,26.5080882 5.20343267,30.971923 8.40774131,34.3898823 C11.5970685,37.7917621 15.9071036,39.8405298 20.5439074,40.1586692 C20.5708113,40.1603948 20.5977151,40.1614929 20.6243837,40.1614929 C21.2623904,40.1614929 21.781408,39.6404376 21.781408,39.0000801 L21.781408,24.6630207 C21.781408,23.0740493 23.0740499,21.7813334 24.6630268,21.7813334 L39.0001353,21.7813334 C39.3258058,21.7813334 39.6276314,21.6501872 39.8500003,21.4120532 C40.0712711,21.1750174 40.180926,20.8666041 40.1587284,20.5437585 C39.8406663,15.9072844 37.7918132,11.5973425 34.389608,8.40779094 C30.9714016,5.20341484 26.5077084,3.43874508 21.8205481,3.43874508 Z" id="Shape"></path>
                </g>
            </g>
            <path d="M2,0 L20.0129745,0 L20.0129745,0 L128.659985,0 C129.764554,-2.02906125e-16 130.659985,0.8954305 130.659985,2 L130.659985,85.4638587 C130.659985,86.5684282 129.764554,87.4638587 128.659985,87.4638587 L2,87.4638587 C0.8954305,87.4638587 -6.97015661e-15,86.5684282 0,85.4638587 L0,2 C-5.7935996e-16,0.8954305 0.8954305,2.02906125e-16 2,0 Z" id="Rectangle-2" stroke="#000000" stroke-width="2"></path>
            <polygon id="Path" fill="#000000" fill-rule="nonzero" points="130.944605 9.68510467 130.94525 11.6342833 1.00064434 11.6930134 1 9.74383478"></polygon>
            <circle id="Oval" fill="#000000" cx="7.49726248" cy="5.62431562" r="1.62431562"></circle>
            <circle id="Oval" fill="#000000" cx="13.994525" cy="5.62431562" r="1.62431562"></circle>
            <circle id="Oval" fill="#000000" cx="20.4917874" cy="5.62431562" r="1.62431562"></circle>
        </g>
    </g>
</svg>