<?xml version="1.0" encoding="UTF-8"?>
<svg width="548px" height="283px" viewBox="0 0 548 283" version="1.1" xmlns="http://www.w3.org/2000/svg" xmlns:xlink="http://www.w3.org/1999/xlink">
    <title>Group 6</title>
    <g id="A-Market" stroke="none" stroke-width="1" fill="none" fill-rule="evenodd">
        <g id="Landing_desktop_1440-v" transform="translate(-168.000000, -1236.000000)">
            <g id="Group-23" transform="translate(0.000000, 583.000000)">
                <g id="seller_or_buyer" transform="translate(0.000000, 347.000000)">
                    <g id="Group-38" transform="translate(80.000000, 72.000000)">
                        <g id="Group-6" transform="translate(88.000000, 234.000000)">
                            <path d="M210.740962,283 C355.658777,283 453.28863,209.105294 453.28863,121.822513 C453.28863,34.539733 355.658777,15.1774137 209.589289,2.3090612 C63.519802,-10.5592913 0.288629738,30.4720412 0.288629738,122.561189 C0.288629738,214.650336 65.8231473,283 210.740962,283 Z" id="Oval" fill="#FFFFFF"></path>
                            <g id="screen" transform="translate(60.000000, 10.000000)">
                                <g id="Group-14">
                                    <g id="Mask" fill="#D6DFFF" fill-rule="nonzero" stroke="#879DEF" stroke-width="0.817919075">
                                        <rect id="path-1" x="0" y="0" width="368" height="216" rx="2.44834054"></rect>
                                    </g>
                                    <g id="Group" transform="translate(24.638487, 24.126457)">
                                        <rect id="Rectangle" fill="#D6DFFF" fill-rule="nonzero" x="0" y="0" width="318.933333" height="122.727273" rx="0.979336217"></rect>
                                        <ellipse id="Oval" stroke="#1F2A3B" stroke-width="0.979336217" cx="159.456374" cy="63.6168025" rx="20.8535916" ry="20.2090808"></ellipse>
                                        <path d="M161.039912,58.4589804 L167.096513,68.1495434 C167.330682,68.5242126 167.216783,69.0177729 166.842114,69.2519412 C166.714969,69.331407 166.568051,69.3735426 166.418115,69.3735426 L154.304911,69.3735426 C153.863083,69.3735426 153.504911,69.0153704 153.504911,68.5735426 C153.504911,68.4236068 153.547047,68.2766887 153.626512,68.1495434 L159.683114,58.4589804 C159.917283,58.0843112 160.410843,57.9704126 160.785512,58.2045809 C160.888527,58.2689655 160.975527,58.3559651 161.039912,58.4589804 Z" id="Triangle" fill="#1F2A3B" transform="translate(160.361513, 63.373543) rotate(90.000000) translate(-160.361513, -63.373543) "></path>
                                        <polygon id="Path" points="84.0182056 132.914969 84.0182056 140.407489 89.0043327 136.661229"></polygon>
                                        <rect id="Rectangle" stroke="#1F2A3B" stroke-width="0.817919075" x="7.17669055" y="4.52778465" width="318.933333" height="122.727273" rx="0.979336217"></rect>
                                    </g>
                                </g>
                                <line x1="14.6395551" y1="18.6236916" x2="355.625113" y2="18.7962933" id="Path" stroke="#1F2A3B" stroke-width="0.817919075"></line>
                                <ellipse id="Oval" fill="#1F2A3B" fill-rule="nonzero" cx="16.5311337" cy="8.96602322" rx="1.88331627" ry="1.88657694"></ellipse>
                                <ellipse id="Oval" fill="#1F2A3B" fill-rule="nonzero" cx="25.9477151" cy="8.96602322" rx="1.88331627" ry="1.88657694"></ellipse>
                                <ellipse id="Oval" fill="#1F2A3B" fill-rule="nonzero" cx="35.3642965" cy="8.96602322" rx="1.88331627" ry="1.88657694"></ellipse>
                                <g id="Group-4" transform="translate(33.344020, 162.589489)">
                                    <g id="Group-17">
                                        <g id="Rectangle-2-Copy-2">
                                            <path d="M43.2142382,0 C43.7353422,0 44.1577806,0.409616298 44.1577806,0.91490361 L44.1577806,37.3954812 C44.1577806,37.9007686 43.7353422,38.3103848 43.2142382,38.3103848 L39.5089475,38.3097589 L39.5095931,41.9025853 C39.5095931,42.4078726 39.0871549,42.8174889 38.5660508,42.8174889 L0.943542319,42.8174889 C0.422438285,42.8174889 0,42.4078726 0,41.9025853 L0,5.42200771 C0,4.9167204 0.422438285,4.5071041 0.943542319,4.5071041 L4.64788947,4.50681518 L4.64818743,0.91490361 C4.64818743,0.409616298 5.07062571,0 5.59172975,0 L43.2142382,0 Z" id="Rectangle-3" stroke="#1F2A3B" stroke-width="0.817919075"></path>
                                            <rect id="Rectangle" stroke="#1F2A3B" stroke-width="0.817919075" x="4.64818743" y="0" width="39.5095931" height="38.3103848" rx="0.489668109"></rect>
                                            <path d="M19.5694045,11.2472098 C18.6919803,11.2472098 17.9806875,11.9488078 17.9806875,12.8142728 L17.9806875,25.3507773 C17.9806875,26.2162423 18.6919803,26.9178403 19.5694045,26.9178403 L29.1017063,26.9178403 C29.9791305,26.9178403 30.6904233,26.2162423 30.6904233,25.3507773 L30.6904233,15.9483989 L25.9242724,11.2472098 L19.5694045,11.2472098 L19.5694045,11.2472098 Z M19.5694045,12.8142728 L25.1299139,12.8142728 L25.1299139,16.7319305 L29.1017063,16.7319305 L29.1017063,25.3507773 L19.5694045,25.3507773 L19.5694045,12.8142728 L19.5694045,12.8142728 Z M21.1581214,19.082525 L21.1581214,20.6495881 L27.5129893,20.6495881 L27.5129893,19.082525 L21.1581214,19.082525 L21.1581214,19.082525 Z M21.1581214,22.2166512 L21.1581214,23.7837142 L25.1299139,23.7837142 L25.1299139,22.2166512 L21.1581214,22.2166512 Z" id="Shape" fill="#1F2A3B"></path>
                                        </g>
                                        <g id="Rectangle-2-Copy-2" transform="translate(51.130062, 0.000000)">
                                            <path d="M43.2142382,0 C43.7353422,0 44.1577806,0.409616298 44.1577806,0.91490361 L44.1577806,37.3954812 C44.1577806,37.9007686 43.7353422,38.3103848 43.2142382,38.3103848 L39.5089475,38.3097589 L39.5095931,41.9025853 C39.5095931,42.4078726 39.0871549,42.8174889 38.5660508,42.8174889 L0.943542319,42.8174889 C0.422438285,42.8174889 0,42.4078726 0,41.9025853 L0,5.42200771 C0,4.9167204 0.422438285,4.5071041 0.943542319,4.5071041 L4.64788947,4.50681518 L4.64818743,0.91490361 C4.64818743,0.409616298 5.07062571,0 5.59172975,0 L43.2142382,0 Z" id="Rectangle-3" stroke="#1F2A3B" stroke-width="0.817919075"></path>
                                            <rect id="Rectangle" stroke="#1F2A3B" stroke-width="0.817919075" x="4.64818743" y="0" width="39.5095931" height="38.3103848" rx="0.489668109"></rect>
                                            <g id="Group" transform="translate(15.872398, 11.174542)">
                                                <polygon id="Path" opacity="0.3" points="14.9583814 11.6550315 4.98612712 11.6550315 4.98612712 1.6650045 14.9583814 1.6650045"></polygon>
                                                <path d="M1.66204237,3.330009 L0,3.330009 L0,14.9850405 C0,15.900793 0.747919068,16.650045 1.66204237,16.650045 L13.296339,16.650045 L13.296339,14.9850405 L1.66204237,14.9850405 L1.66204237,3.330009 Z M14.9583814,0 L4.98612712,0 C4.07200381,0 3.32408474,0.749252024 3.32408474,1.6650045 L3.32408474,11.6550315 C3.32408474,12.570784 4.07200381,13.320036 4.98612712,13.320036 L14.9583814,13.320036 C15.8725047,13.320036 16.6204237,12.570784 16.6204237,11.6550315 L16.6204237,1.6650045 C16.6204237,0.749252024 15.8725047,0 14.9583814,0 Z M14.9583814,11.6550315 L4.98612712,11.6550315 L4.98612712,1.6650045 L14.9583814,1.6650045 L14.9583814,11.6550315 Z M8.31021186,2.91375787 L8.31021186,10.4062781 L13.296339,6.66001799 L8.31021186,2.91375787 Z" id="Shape" fill="#1F2A3B"></path>
                                            </g>
                                        </g>
                                        <g id="Rectangle-2-Copy-2" transform="translate(102.260123, 0.000000)">
                                            <path d="M43.2142382,0 C43.7353422,0 44.1577806,0.409616298 44.1577806,0.91490361 L44.1577806,37.3954812 C44.1577806,37.9007686 43.7353422,38.3103848 43.2142382,38.3103848 L39.5089475,38.3097589 L39.5095931,41.9025853 C39.5095931,42.4078726 39.0871549,42.8174889 38.5660508,42.8174889 L0.943542319,42.8174889 C0.422438285,42.8174889 0,42.4078726 0,41.9025853 L0,5.42200771 C0,4.9167204 0.422438285,4.5071041 0.943542319,4.5071041 L4.64788947,4.50681518 L4.64818743,0.91490361 C4.64818743,0.409616298 5.07062571,0 5.59172975,0 L43.2142382,0 Z" id="Rectangle-3" stroke="#1F2A3B" stroke-width="0.817919075"></path>
                                            <rect id="Rectangle" stroke="#1F2A3B" stroke-width="0.817919075" x="4.64818743" y="0" width="39.5095931" height="38.3103848" rx="0.489668109"></rect>
                                            <path d="M30.3352509,11.2472098 C30.5342071,11.2472098 30.712062,11.3220261 30.8688154,11.4716589 C31.0135108,11.6153063 31.0858585,11.7888803 31.0858585,11.9923809 L31.0858585,26.2134781 C31.0858585,26.4169787 31.0135108,26.5905527 30.8688154,26.7342001 C30.712062,26.8838329 30.5342071,26.9586493 30.3352509,26.9586493 L18.2712674,26.9586493 C18.0723112,26.9586493 17.8944564,26.8838329 17.737703,26.7342001 C17.5930075,26.5905527 17.5206598,26.4169787 17.5206598,26.2134781 L17.5206598,23.5919122 L13.7495345,23.5919122 C13.5505783,23.5919122 13.3727234,23.5200885 13.21597,23.3764411 C13.0712746,23.220823 12.9989268,23.0442563 12.9989268,22.8467411 L12.9989268,15.3591179 C12.9989268,15.1616027 13.0712746,14.985036 13.21597,14.829418 C13.3727234,14.6857705 13.5505783,14.6139468 13.7495345,14.6139468 L17.5206598,14.6139468 L17.5206598,11.9923809 C17.5206598,11.7888803 17.5930075,11.6153063 17.737703,11.4716589 C17.8944564,11.3220261 18.0723112,11.2472098 18.2712674,11.2472098 M17.5206598,20.0545938 L18.5877887,22.0477022 L20.2065691,22.0477022 L18.4250064,19.1567973 L20.1703953,16.3107823 L18.6239626,16.3107823 L17.6382248,18.1153533 L17.602051,18.1692211 L17.5749206,18.2320669 C17.4181672,17.9148454 17.2493558,17.5946313 17.0684865,17.2714246 C16.917762,16.9542031 16.7579942,16.633989 16.5891828,16.3107823 L14.9523155,16.3107823 L16.6615305,19.1747532 L14.80762,22.0477022 L16.4173569,22.0477022 M23.7425643,25.8364036 L23.7425643,23.5919122 L18.651093,23.5919122 L18.651093,25.8364036 M23.7425643,22.4696665 L23.7425643,19.6685413 L22.0423927,19.6685413 L22.0423927,22.4696665 M23.7425643,18.5462956 L23.7425643,15.7361925 L22.0423927,15.7361925 L22.0423927,18.5462956 M23.7425643,14.6139468 L23.7425643,12.3694554 L18.651093,12.3694554 L18.651093,14.6139468 M29.9554253,25.8364036 L29.9554253,23.5919122 L24.8729975,23.5919122 L24.8729975,25.8364036 M29.9554253,22.4696665 L29.9554253,19.6685413 L24.8729975,19.6685413 L24.8729975,22.4696665 M29.9554253,18.5462956 L29.9554253,15.7361925 L24.8729975,15.7361925 L24.8729975,18.5462956 M29.9554253,14.6139468 L29.9554253,12.3694554 L24.8729975,12.3694554 L24.8729975,14.6139468 L29.9554253,14.6139468 Z" id="Shape" fill="#1F2A3B"></path>
                                        </g>
                                    </g>
                                    <g id="Group-17" transform="translate(154.808598, 0.000000)">
                                        <g id="Rectangle-2-Copy-2">
                                            <path d="M43.2142382,0 C43.7353422,0 44.1577806,0.409616298 44.1577806,0.91490361 L44.1577806,37.3954812 C44.1577806,37.9007686 43.7353422,38.3103848 43.2142382,38.3103848 L39.5089475,38.3097589 L39.5095931,41.9025853 C39.5095931,42.4078726 39.0871549,42.8174889 38.5660508,42.8174889 L0.943542319,42.8174889 C0.422438285,42.8174889 0,42.4078726 0,41.9025853 L0,5.42200771 C0,4.9167204 0.422438285,4.5071041 0.943542319,4.5071041 L4.64788947,4.50681518 L4.64818743,0.91490361 C4.64818743,0.409616298 5.07062571,0 5.59172975,0 L43.2142382,0 Z" id="Rectangle-3" stroke="#1F2A3B" stroke-width="0.817919075"></path>
                                            <rect id="Rectangle" stroke="#1F2A3B" stroke-width="0.817919075" x="4.64818743" y="0" width="39.5095931" height="38.3103848" rx="0.489668109"></rect>
                                            <path d="M17.3509616,14.0875115 L15.6889192,14.0875115 L15.6889192,25.742543 C15.6889192,26.6582955 16.4368383,27.4075475 17.3509616,27.4075475 L28.9852582,27.4075475 L28.9852582,25.742543 L17.3509616,25.742543 L17.3509616,14.0875115 Z M30.6473006,10.7575025 L20.6750463,10.7575025 C19.760923,10.7575025 19.013004,11.5067546 19.013004,12.422507 L19.013004,22.412534 C19.013004,23.3282865 19.760923,24.0775385 20.6750463,24.0775385 L30.6473006,24.0775385 C31.5614239,24.0775385 32.3093429,23.3282865 32.3093429,22.412534 L32.3093429,12.422507 C32.3093429,11.5067546 31.5614239,10.7575025 30.6473006,10.7575025 Z M30.6473006,22.412534 L20.6750463,22.412534 L20.6750463,12.422507 L30.6473006,12.422507 L30.6473006,22.412534 Z M23.9991311,13.6712604 L23.9991311,21.1637807 L28.9852582,17.4175205 L23.9991311,13.6712604 Z" id="Shape" fill="#1F2A3B"></path>
                                        </g>
                                        <g id="Rectangle-2-Copy-2" transform="translate(51.130062, 0.000000)">
                                            <path d="M43.2142382,0 C43.7353422,0 44.1577806,0.409616298 44.1577806,0.91490361 L44.1577806,37.3954812 C44.1577806,37.9007686 43.7353422,38.3103848 43.2142382,38.3103848 L39.5089475,38.3097589 L39.5095931,41.9025853 C39.5095931,42.4078726 39.0871549,42.8174889 38.5660508,42.8174889 L0.943542319,42.8174889 C0.422438285,42.8174889 0,42.4078726 0,41.9025853 L0,5.42200771 C0,4.9167204 0.422438285,4.5071041 0.943542319,4.5071041 L4.64788947,4.50681518 L4.64818743,0.91490361 C4.64818743,0.409616298 5.07062571,0 5.59172975,0 L43.2142382,0 Z" id="Rectangle-3" stroke="#1F2A3B" stroke-width="0.817919075"></path>
                                            <rect id="Rectangle" stroke="#1F2A3B" stroke-width="0.817919075" x="4.64818743" y="0" width="39.5095931" height="38.3103848" rx="0.489668109"></rect>
                                            <g id="Group-3" transform="translate(17.841980, 11.247210)" fill="#1F2A3B">
                                                <polygon id="Path" opacity="0.3" points="1.58871697 1.56706306 7.14922638 1.56706306 7.14922638 5.4847207 11.1210188 5.4847207 11.1210188 14.1035675 1.58871697 14.1035675"></polygon>
                                                <path d="M1.58871697,0 C0.711292817,0 0,0.701598029 0,1.56706306 L0,14.1035675 C0,14.9690325 0.711292817,15.6706306 1.58871697,15.6706306 L11.1210188,15.6706306 C11.998443,15.6706306 12.7097358,14.9690325 12.7097358,14.1035675 L12.7097358,4.70118917 L7.94358487,0 L1.58871697,0 L1.58871697,0 Z M1.58871697,1.56706306 L7.14922638,1.56706306 L7.14922638,5.4847207 L11.1210188,5.4847207 L11.1210188,14.1035675 L1.58871697,14.1035675 L1.58871697,1.56706306 L1.58871697,1.56706306 Z M3.17743395,7.83531529 L3.17743395,9.40237834 L9.53230184,9.40237834 L9.53230184,7.83531529 L3.17743395,7.83531529 L3.17743395,7.83531529 Z M3.17743395,10.9694414 L3.17743395,12.5365045 L7.14922638,12.5365045 L7.14922638,10.9694414 L3.17743395,10.9694414 Z" id="Shape"></path>
                                            </g>
                                        </g>
                                        <g id="Rectangle-2-Copy-2" transform="translate(102.260123, 0.000000)">
                                            <path d="M43.2142382,0 C43.7353422,0 44.1577806,0.409616298 44.1577806,0.91490361 L44.1577806,37.3954812 C44.1577806,37.9007686 43.7353422,38.3103848 43.2142382,38.3103848 L39.5089475,38.3097589 L39.5095931,41.9025853 C39.5095931,42.4078726 39.0871549,42.8174889 38.5660508,42.8174889 L0.943542319,42.8174889 C0.422438285,42.8174889 0,42.4078726 0,41.9025853 L0,5.42200771 C0,4.9167204 0.422438285,4.5071041 0.943542319,4.5071041 L4.64788947,4.50681518 L4.64818743,0.91490361 C4.64818743,0.409616298 5.07062571,0 5.59172975,0 L43.2142382,0 Z" id="Rectangle-3" stroke="#1F2A3B" stroke-width="0.817919075"></path>
                                            <rect id="Rectangle" stroke="#1F2A3B" stroke-width="0.817919075" x="4.64818743" y="0" width="39.5095931" height="38.3103848" rx="0.489668109"></rect>
                                            <path d="M32.9318425,11.2472098 C33.1307988,11.2472098 33.3086536,11.3220261 33.465407,11.4716589 C33.6101024,11.6153063 33.6824502,11.7888803 33.6824502,11.9923809 L33.6824502,26.2134781 C33.6824502,26.4169787 33.6101024,26.5905527 33.465407,26.7342001 C33.3086536,26.8838329 33.1307988,26.9586493 32.9318425,26.9586493 L20.8678591,26.9586493 C20.6689028,26.9586493 20.491048,26.8838329 20.3342946,26.7342001 C20.1895991,26.5905527 20.1172514,26.4169787 20.1172514,26.2134781 L20.1172514,23.5919122 L16.3461261,23.5919122 C16.1471699,23.5919122 15.9693151,23.5200885 15.8125617,23.3764411 C15.6678662,23.220823 15.5955185,23.0442563 15.5955185,22.8467411 L15.5955185,15.3591179 C15.5955185,15.1616027 15.6678662,14.985036 15.8125617,14.829418 C15.9693151,14.6857705 16.1471699,14.6139468 16.3461261,14.6139468 L20.1172514,14.6139468 L20.1172514,11.9923809 C20.1172514,11.7888803 20.1895991,11.6153063 20.3342946,11.4716589 C20.491048,11.3220261 20.6689028,11.2472098 20.8678591,11.2472098 M20.1172514,20.0545938 L21.1843804,22.0477022 L22.8031608,22.0477022 L21.021598,19.1567973 L22.7669869,16.3107823 L21.2205542,16.3107823 L20.2348165,18.1153533 L20.1986426,18.1692211 L20.1715122,18.2320669 C20.0147588,17.9148454 19.8459474,17.5946313 19.6650781,17.2714246 C19.5143537,16.9542031 19.3545858,16.633989 19.1857744,16.3107823 L17.5489071,16.3107823 L19.2581221,19.1747532 L17.4042116,22.0477022 L19.0139486,22.0477022 M26.3391559,25.8364036 L26.3391559,23.5919122 L21.2476846,23.5919122 L21.2476846,25.8364036 M26.3391559,22.4696665 L26.3391559,19.6685413 L24.6389843,19.6685413 L24.6389843,22.4696665 M26.3391559,18.5462956 L26.3391559,15.7361925 L24.6389843,15.7361925 L24.6389843,18.5462956 M26.3391559,14.6139468 L26.3391559,12.3694554 L21.2476846,12.3694554 L21.2476846,14.6139468 M32.5520169,25.8364036 L32.5520169,23.5919122 L27.4695891,23.5919122 L27.4695891,25.8364036 M32.5520169,22.4696665 L32.5520169,19.6685413 L27.4695891,19.6685413 L27.4695891,22.4696665 M32.5520169,18.5462956 L32.5520169,15.7361925 L27.4695891,15.7361925 L27.4695891,18.5462956 M32.5520169,14.6139468 L32.5520169,12.3694554 L27.4695891,12.3694554 L27.4695891,14.6139468 L32.5520169,14.6139468 Z" id="Shape" fill="#1F2A3B"></path>
                                        </g>
                                    </g>
                                </g>
                            </g>
                            <g id="people-left" transform="translate(0.000000, 61.000000)">
                                <g id="man-standing-left" transform="translate(75.801370, 106.919118) scale(-1, 1) translate(-75.801370, -106.919118) translate(32.602740, 0.000000)">
                                    <path d="M60.6980518,204.738736 C60.80191,205.620181 61.6426664,210.757436 61.0590825,211.719995 C60.0106098,213.466662 49.9314245,214.153432 49.4022425,213.704598 C48.8730605,213.255764 48.4625735,212.228313 48.8483324,211.860594 C49.2340912,211.492875 53.1015706,210.054443 53.5911875,209.567756 C54.0808045,209.081068 54.5803127,206.809861 54.1500433,205.679665" id="Path" fill="#1F2A3B" fill-rule="nonzero"></path>
                                    <path d="M12.0034161,199.430694 C12.1072915,200.30698 12.9432417,205.4511 12.364507,206.413933 C11.3158594,208.155685 1.2349928,208.84265 0.705722566,208.399098 C0.176452337,207.955545 -0.234103074,206.922395 0.151720084,206.554571 C0.537543242,206.186747 4.40566772,204.742499 4.89536634,204.255674 C5.38506497,203.768849 5.88465649,201.496997 5.45431528,200.37189" id="Path" fill="#1F2A3B" fill-rule="nonzero"></path>
                                    <path d="M28.0369989,78.0483729 C27.2987221,80.2413508 15.2682785,146.148169 14.5101822,149.721548 C13.7520859,153.294927 2.20226547,198.226499 3.20315081,199.714591 C4.20403614,201.202683 11.2449177,203.190069 13.0038993,202.196376 C14.762881,201.202683 45.4187106,133.665817 47.6880447,125.246348 C49.9573788,116.82688 47.6880447,72.795995 47.6880447,72.795995 L28.0369989,78.0483729 Z" id="Path" fill="#FFFFFF" fill-rule="nonzero"></path>
                                    <path d="M38.4860523,77.8932487 C38.9653222,81.4865617 46.2257512,140.729907 48.3620713,150.091048 C50.4983913,159.452189 48.5405228,204.697703 50.1210938,205.404665 C52.1605401,207.013611 62.755464,207.013611 62.755464,207.013611 C64.6776422,205.404665 71.4740972,82.2861591 71.4740972,82.2861591 C71.4740972,82.2861591 54.5874813,67.7861419 38.4860523,77.8932487 Z" id="Path" fill="#FFFFFF" fill-rule="nonzero"></path>
                                    <path d="M43.9840598,31.6666212 C43.9840598,32.8844691 51.0578569,32.9547296 51.0529291,31.6666212 L51.0529291,23.50704 L43.9840598,23.50704 L43.9840598,31.6666212 Z" id="Path" fill="#F8CDBA" fill-rule="nonzero"></path>
                                    <path d="M51.0529265,26.5402065 C51.0529265,25.8726973 49.5612436,23.0217867 48.6966376,23.4093727 C49.7639352,22.8925913 50.6507105,21.6867682 51.0434254,22.0614346 L51.0529265,26.5402065 Z" id="Path" fill="#1F161E" fill-rule="nonzero"></path>
                                    <ellipse id="Oval" fill="#F8CDBA" fill-rule="nonzero" cx="45.1622042" cy="17.0615613" rx="9.81787049" ry="9.47864522"></ellipse>
                                    <ellipse id="Oval" fill="#FA9E9F" fill-rule="nonzero" transform="translate(35.905994, 19.788887) rotate(-5.767889) translate(-35.905994, -19.788887) " cx="35.905994" cy="19.7888869" rx="1.56292762" ry="1"></ellipse>
                                    <ellipse id="Oval" fill="#FA9E9F" fill-rule="nonzero" transform="translate(45.975135, 18.810551) rotate(-5.930000) translate(-45.975135, -18.810551) " cx="45.975135" cy="18.8105507" rx="1.57068814" ry="1"></ellipse>
                                    <path d="M40.7600554,18.9572904 C40.518038,19.1902037 39.259548,20.1880254 40.8423412,20.4738736" id="Path" stroke="#1F161E" stroke-width="0.974177237" stroke-linecap="round"></path>
                                    <path d="M43.1986301,22.7487484 C43.698696,22.7124954 44.416182,22.328818 44.7694895,21.9904568" id="Path" stroke="#1F161E" stroke-width="0.974177237" stroke-linecap="round"></path>
                                    <ellipse id="Oval" fill="#F8CDBA" fill-rule="nonzero" cx="53.0165006" cy="16.3032697" rx="1.9635741" ry="1.89572904"></ellipse>
                                    <path d="M51.3142418,17.5617402 C51.3142418,20.2374875 54.2748553,21.9804055 55.2913325,21.9804055 C55.6183581,22.0245844 55.948186,21.9217124 56.1913473,21.6996943 C56.4345086,21.4776763 56.5657948,21.1595288 56.5495933,20.8315526 C56.5495933,19.7121573 55.8834552,18.7498702 54.491967,17.537192 C54.7337504,17.1198736 56.5495933,14.9154506 56.5495933,11.8076559 C56.5495933,8.51820498 54.521573,5.76390354 53.1646253,5.76390354 C51.9704435,5.8433779 50.9807866,6.71507732 50.7566597,7.88486293 C50.7566597,3.28945091 45.8223039,0 42.8616906,0 C40.1181888,0 39.649425,1.18813003 39.649425,2.15532679 C39.649425,4.26646693 41.3221716,6.52980554 41.9537691,7.06495502 C40.4191845,5.94065015 38.0062846,4.80652603 35.9486583,4.80652603 C34.6459883,4.80652603 32.9880448,5.17474815 32.9880448,6.96185282 C32.9880448,10.2365749 36.0720171,12.1316914 37.1032975,12.6619312 C37.4964392,11.8980864 37.9946684,11.1924939 38.5836042,10.5655199 C38.3960987,11.1841331 39.1559894,12.308438 40.6116244,12.5637386 C41.4455305,12.7453949 51.3142418,11.4197952 51.3142418,17.5617402 Z" id="Path" fill="#FFFFFF" fill-rule="nonzero"></path>
                                    <path d="M66.1810283,31.7579171 C75.5221812,36.8230288 86.3972603,66.9570544 86.3972603,69.2668616 C86.3972603,71.5766687 66.522467,106.160826 65.3299794,106.160826 C64.3107594,105.129403 59.9943619,100.243459 59.9943619,100.243459 C61.0747353,98.6696901 68.1481232,83.5324629 68.3978322,82.8981138 C66.6753501,83.1692863 30.3605356,84.3072417 27.3028752,83.0336997 C24.2452146,81.7601584 25.4377022,49.0257838 24.6274222,47.9362522 C23.8171422,46.8467204 24.5662613,37.0841386 29.6250158,33.3659416 C34.6837703,29.6477446 62.2876073,29.6418044 66.1810283,31.7579171 Z" id="Path" fill="#1F2A3B" fill-rule="nonzero"></path>
                                    <path d="M62.0489415,50.8055382 C62.9043563,52.2940902 71.5672859,66.7108135 71.4733386,67.9190538 C71.3793914,69.1272941 70.2322454,77.4786511 68.8922603,81.1372027" id="Path" stroke="#FFFFFF" stroke-width="0.974177237" stroke-linecap="round"></path>
                                    <path d="M43.7877836,30.3606194 C40.1498345,32.6974876 37.8103701,36.7748075 37.2117849,42.3526375 C36.6131997,47.9304673 38.1458326,53.766143 41.8096837,59.8596644 C56.4321326,47.0979483 57.6846901,37.034249 51.2741264,30.2116937" id="Path-6" stroke="#D6DFFF" stroke-width="0.974177237"></path>
                                    <g id="Group-12" transform="translate(39.622527, 62.121603) rotate(180.000000) translate(-39.622527, -62.121603) translate(34.076580, 58.624615)">
                                        <path d="M2.07753208,0.0107968522 L10.4379834,1.38306261 C10.8656279,1.45325522 11.1533635,1.84485371 11.0806588,2.25772231 C11.0728832,2.30187734 11.061071,2.34528046 11.0453606,2.38742262 L9.51506789,6.49231638 C9.37379151,6.8712794 8.95029865,7.07749569 8.55066745,6.96192296 L0.560256489,4.65110829 C0.174399522,4.53951904 -0.0566121232,4.1671286 0.0120155897,3.79329161 L0.0389833646,3.68938825 L0.0389833646,3.68938825 L1.20542927,0.50545895 C1.33284091,0.157750802 1.70091108,-0.0510208746 2.07753208,0.0107968522 Z" id="Rectangle" fill="#FFFFFF" fill-rule="nonzero"></path>
                                        <ellipse id="Oval" fill="#879DEF" fill-rule="nonzero" opacity="0.526646205" cx="2.36255999" cy="3.06010988" rx="1.17814446" ry="1.13743742"></ellipse>
                                        <line x1="5.50427854" y1="2.30181827" x2="8.64599708" y2="3.06010988" id="Line-2" stroke="#879DEF" stroke-width="0.974177237" stroke-linecap="square"></line>
                                        <line x1="5.50427854" y1="3.06010988" x2="8.64599708" y2="3.8184015" id="Line-2" stroke="#879DEF" stroke-width="0.974177237" stroke-linecap="square"></line>
                                        <line x1="5.50427854" y1="3.8184015" x2="8.64599708" y2="4.57669311" id="Line-2" stroke="#879DEF" stroke-width="0.974177237" stroke-linecap="square"></line>
                                    </g>
                                </g>
                                <g id="woman-standing" transform="translate(46.128182, 117.673543) scale(-1, 1) translate(-46.128182, -117.673543) translate(0.000000, 13.347087)">
                                    <path d="M76.3198412,201.655407 C76.3606535,202.394986 76.77331,206.722524 76.2518211,207.487089 C75.2950011,208.871301 66.9375686,208.801341 66.5249118,208.401569 C66.1122551,208.001796 65.8311043,207.112302 66.1666713,206.832462 C66.5022383,206.552621 69.7717495,205.593167 70.1980103,205.223377 C70.6242711,204.853587 71.1502951,202.989647 70.8646097,202.025197" id="Path" fill="#1A1D34" fill-rule="nonzero"></path>
                                    <path d="M68.9290674,192.74949 C69.1891197,193.376772 70.8842748,197.025996 70.571249,197.854741 C70.0078026,199.356555 61.5416584,201.865682 61.0071066,201.641326 C60.4725548,201.416969 59.9235557,200.725586 60.1787922,200.382183 C60.4340286,200.038781 63.4631552,198.198143 63.7906284,197.740274 C64.1181016,197.282403 64.0988384,195.501288 63.5209446,194.745803" id="Path" fill="#1A1D34" fill-rule="nonzero"></path>
                                    <path d="M44.9203978,92.8759916 C43.2933675,96.1328057 29.6294225,131.614692 29.9455016,136.788085 C30.2615807,141.961479 61.8798564,195.26893 63.626064,195.831554 C65.3722716,196.394178 72.6265464,194.427282 73.2120703,193.027584 C73.7975942,191.627886 62.1959355,159.814489 61.8798564,151.667881" id="Path" fill="#879DEF" fill-rule="nonzero"></path>
                                    <path d="M39.3061572,93.6227927 C40.0358328,97.4399933 52.1904868,150.073178 52.1904868,150.073178 L74.623202,203.041342 C76.5002669,203.922922 82.0320641,204.000345 83.0012604,203.714901 C83.970456,203.429457 79.4942337,152.651244 77.6808704,145.459605 C75.8675078,138.267965 71.2004828,88.3143925 71.2004828,88.3143925 C71.2004828,88.3143925 45.8650932,88.8028366 39.3061572,93.6227927 Z" id="Path" fill="#879DEF" fill-rule="nonzero" transform="translate(61.221583, 146.088741) rotate(6.000000) translate(-61.221583, -146.088741) "></path>
                                    <path d="M65.3934639,52.4268348 C61.755684,54.0892695 38.5670367,65.2681428 36.5611884,65.2408699 C34.55534,65.2135971 13.0495304,52.8548581 11.7841649,52.0255408 C10.6062628,53.2046228 8.81067076,55.0628333 9.26175443,55.6826652 C9.7128381,56.3024972 34.4978993,79.5216856 36.5729149,79.5499965 C38.6479304,79.5781122 59.5777893,73.462688 61.1860324,71.7265158" id="Path" fill="#1F2A3B" fill-rule="nonzero" transform="translate(37.292037, 65.787769) rotate(-26.000000) translate(-37.292037, -65.787769) "></path>
                                    <path d="M57.1289308,33.8549509 C36.0420538,30.4418456 41.0658284,90.6836117 43.1420748,92.9666406 C45.2183211,95.2496694 73.6601151,89.7639951 75.5092723,87.6044971 C77.3584295,85.4449983 71.9268203,34.4268519 57.1289308,33.8549509 Z" id="Path" fill="#1F2A3B" fill-rule="nonzero"></path>
                                    <path d="M53.5546866,37.676221 C53.5546866,39.124538 60.7702536,39.2352373 60.7702536,37.676221 L60.7702536,27.9900249 L53.5546866,27.9900249 L53.5546866,37.676221 Z" id="Path" fill="#F8CDBA" fill-rule="nonzero"></path>
                                    <ellipse id="Oval" fill="#F8CDBA" fill-rule="nonzero" cx="55.5225685" cy="20.0383133" rx="8.52748828" ry="8.58784855"></ellipse>
                                    <ellipse id="Oval" fill="#FA9E9F" fill-rule="nonzero" cx="47.9790212" cy="22.2647925" rx="1" ry="1"></ellipse>
                                    <g id="big-cup-of-coffee" transform="translate(1.612744, 55.790437)" fill="#8699F0" fill-rule="nonzero">
                                        <path d="M1.1387133,7.47788902 L1.99332013,7.47788902 L2.01019453,7.62595835 L2.01019453,7.62595835 L2.22901743,9.57326157 L2.35040426,10.6534576 L2.35748062,10.6611069 L2.39286244,11.0271824 L2.69551301,13.7164715 L2.70150069,13.7230281 L3.30734617,19.1294718 L8.80840133,19.1294718 L8.80840133,19.1026991 L8.81711073,19.1092556 L9.08437949,16.5877056 L9.09689917,16.5986332 L9.37069999,14.1442881 L10.1224274,7.47898178 L10.9781228,7.47898178 L10.9781228,5.1344593 L1.1387133,5.1344593 L1.1387133,7.47788902 Z M8.87317725,16.6833223 L8.65435439,18.688542 L2.89256248,13.6132054 L2.61712868,11.167056 L8.87317725,16.6833223 Z" id="Shape" transform="translate(6.058418, 12.131966) rotate(10.000000) translate(-6.058418, -12.131966) "></path>
                                        <polygon id="Path" transform="translate(7.713315, 2.735102) rotate(10.000000) translate(-7.713315, -2.735102) " points="11.9716057 2.74130847 11.9713998 1.85471766 11.0035315 1.85449267 11.003293 0.827344772 4.42200638 0.825814912 4.42224484 1.85296281 3.4511104 1.85273706 3.45131623 2.73932788 2.79318756 2.7391749 2.79362935 4.64210152 12.6334422 4.64438885 12.6330004 2.74146222"></polygon>
                                    </g>
                                    <ellipse id="Oval" fill="#FA9E9F" fill-rule="nonzero" cx="56.5065095" cy="22.2647925" rx="1" ry="1"></ellipse>
                                    <path d="M50.930844,20.3563818 C50.7230393,20.6329136 49.6584956,21.7936643 50.7813705,22.2647925" id="Path" stroke="#1F161E" stroke-width="0.817919075" stroke-linecap="round"></path>
                                    <path d="M53.5546866,24.1732033 C54.0910314,24.0750871 54.5569325,23.8491765 54.8666079,23.5370664" id="Path" stroke="#1F161E" stroke-width="0.817919075" stroke-linecap="round"></path>
                                    <ellipse id="Oval" fill="#F8CDBA" fill-rule="nonzero" cx="61.7541946" cy="20.6744502" rx="1.6399016" ry="1.59034233"></ellipse>
                                    <path d="M75.4540862,90.3314444 C85.231984,90.0795594 92.2563642,83.6129904 92.2563642,66.974857 C92.2563642,60.1052725 80.1660925,39.4232436 77.7664594,31.6102362 C76.5254373,27.5755003 77.5240726,15.7048584 71.1880722,9.66420374 C68.1339939,6.75607967 54.7057452,7.44303809 51.2396087,8.81237531 C47.7734723,10.1817125 48.1806827,14.3080429 48.534568,14.9537838 C49.3635321,14.2943037 51.1814358,12.9570245 51.5062346,12.9982421 C53.2077924,13.1951702 57.8519305,18.1321115 59.2626238,20.3990744 C60.4066911,22.2309636 58.6421126,33.6069954 60.8769222,36.8585987 C63.1117319,40.1102021 71.0232489,38.4019654 71.0232489,38.4019654" id="Path" fill="#879DEF" fill-rule="nonzero"></path>
                                    <path d="M58.1464111,58.8441489 C59.4288601,60.4341259 68.8978384,77.3680642 68.8978384,79.914761 C68.8978384,82.4614579 66.0893211,100.511569 65.5285369,101.386284 C66.810986,102.338448 70.1802874,104.962594 70.1802874,104.962594 C70.1802874,104.962594 80.449073,86.9899311 80.449073,76.8942605 C80.449073,73.3133953 72.2671396,44.2108935 64.402372,37.5320789" id="Path" fill="#1F2A3B" fill-rule="nonzero"></path>
                                    <path d="M57.4904504,59.1607345 C58.8206006,60.757266 68.6417813,77.7610124 68.6417813,80.3182077 C68.6417813,81.5853686 67.9218792,86.6814602 67.1304637,91.6037176" id="Path" stroke="#FFFFFF" stroke-width="0.817919075" stroke-linecap="round" stroke-linejoin="round"></path>
                                    <path d="M60.1261117,34.2450388 C59.7154299,37.6119168 70.1177542,49.3594925 74.1714232,52.7993652 C78.2202613,47.9817186 75.7899925,36.047094 75.7899925,36.047094 L67.5280441,32.4429835 L60.1261117,34.2450388 Z" id="Path" fill="#879DEF" fill-rule="nonzero"></path>
                                    <ellipse id="Oval" fill="#879DEF" fill-rule="nonzero" cx="69.9537026" cy="4.77102698" rx="3.93576383" ry="4.77102698"></ellipse>
                                    <ellipse id="Oval" fill="#F8CDBA" fill-rule="nonzero" transform="translate(5.008738, 66.754183) rotate(-26.000000) translate(-5.008738, -66.754183) " cx="5.00873841" cy="66.7541829" rx="3.89476919" ry="3.44033376"></ellipse>
                                </g>
                            </g>
                            <g id="people-right" transform="translate(358.000000, 122.000000)">
                                <g id="stool-right" transform="translate(121.631122, 106.927494)">
                                    <ellipse id="Oval" fill="#1F2A3B" fill-rule="nonzero" cx="17.7705808" cy="3.74321263" rx="17.7705808" ry="3.74321263"></ellipse>
                                    <line x1="17.7705808" y1="3.74321263" x2="7.77462911" y2="33.154169" id="Path" stroke="#1F2A3B" stroke-width="1.5949422" stroke-linecap="round"></line>
                                    <line x1="17.7705808" y1="3.74321263" x2="27.7665325" y2="33.154169" id="Path" stroke="#1F2A3B" stroke-width="1.5949422" stroke-linecap="round"></line>
                                    <line x1="11.106613" y1="23.5287651" x2="22.213226" y2="16.5770845" id="Path" stroke="#1F2A3B" stroke-width="0.817919075" stroke-linecap="round"></line>
                                    <line x1="13.8832663" y1="16.5770845" x2="24.9898793" y2="23.5287651" id="Path" stroke="#1F2A3B" stroke-width="0.817919075" stroke-linecap="round"></line>
                                </g>
                                <g id="woman-sitting-watching" transform="translate(112.845245, 77.381115) scale(-1, 1) translate(-112.845245, -77.381115) translate(66.170250, 3.096254)">
                                    <polygon id="Rectangle" fill="#1F161E" fill-rule="nonzero" transform="translate(74.237255, 58.006447) rotate(19.360000) translate(-74.237255, -58.006447) " points="71.2925439 51.6300597 77.2835947 51.5834138 77.1819654 64.3828334 71.1909147 64.4294793"></polygon>
                                    <path d="M83.1291888,129.847513 C83.3649205,130.328147 84.6194921,133.219078 85.3147008,133.514579 C86.5732689,134.045058 93.0898518,131.001036 93.265652,130.598727 C93.4414514,130.196418 93.3415654,129.530649 92.9739838,129.473686 C92.6064022,129.416721 89.6977125,129.986362 89.2262492,129.904476 C88.7547859,129.82259 87.6640274,128.836399 87.5361724,128.124347" id="Path" fill="#1F2A3B" fill-rule="nonzero"></path>
                                    <path d="M0,81.9755191 C0,101.804574 7.00282522,105.968675 13.9689651,105.968675 C31.6146172,105.968675 54.5714925,93.2193272 55.8677081,92.7272729 C55.4600931,94.8129956 52.8880427,147.683131 52.8880427,147.987912 C53.4994652,148.417541 58.1870373,148.788418 59.7645073,148.417541 C60.1721222,147.132324 72.5676935,84.2485157 72.5676935,82.5924229 C72.5676935,80.9363293 71.4997423,78.4173052 67.4602779,78.053772 C65.7523712,77.8995461 41.9924944,77.0109109 41.9924944,77.0109109" id="Path" fill="#879DEF" fill-rule="nonzero"></path>
                                    <path d="M59.29962,65.0844424 C64.6331892,72.6743378 88.4494239,125.655802 88.2381934,126.894153 C88.026963,128.132504 82.5512195,130.757011 81.3935138,130.049951 C76.4824059,127.073914 46.329257,77.0684876 45.1553031,76.3134928 C43.9813492,75.5584979 42.2224493,75.8501097 41.1744213,76.0578332 C38.4487358,71.603763 44.5500466,66.3148043 59.29962,65.0844424 Z" id="Path" fill="#879DEF" fill-rule="nonzero"></path>
                                    <path d="M35.6946946,23.852937 C43.6262549,23.852937 45.9068823,31.242327 46.5631196,34.0322801 C48.6614588,42.9402017 42.8201362,76.7903039 42.1436445,77.7229449 C36.403593,85.6185123 3.59172479,86.3199861 0.391554924,82.900301 C-2.80861494,79.480616 14.0226582,23.852937 35.6946946,23.852937 Z" id="Path" fill="#1F2A3B" fill-rule="nonzero"></path>
                                    <g id="Group-32" transform="translate(28.277552, 0.000000)">
                                        <path d="M6.47818587,26.1148657 C6.29945141,26.7762606 10.9600362,28.4492005 11.1387706,27.7916962 L12.9463491,21.0999363 L8.28913671,19.4231058 L6.47818587,26.1148657 Z" id="Path" fill="#F8CDBA" fill-rule="nonzero"></path>
                                        <path d="M12.2649623,21.2855621 C11.6812871,21.1068247 7.43991367,21.5877136 7.15456133,22.489912 L8.66346985,17.7193246 C9.59302676,18.0044533 12.2649623,21.2855621 12.2649623,21.2855621 Z" id="Path" fill="#1F161E" fill-rule="nonzero"></path>
                                        <ellipse id="Oval" fill="#F8CDBA" fill-rule="nonzero" cx="15.842243" cy="14.1413841" rx="8.68768162" ry="8.34852795"></ellipse>
                                        <ellipse id="Oval" fill="#FA9E9F" fill-rule="nonzero" transform="translate(21.848008, 18.547705) rotate(-72.670000) translate(-21.848008, -18.547705) " cx="21.8480077" cy="18.5477047" rx="1" ry="1.44474896"></ellipse>
                                        <ellipse id="Oval" fill="#FA9E9F" fill-rule="nonzero" transform="translate(13.170646, 15.909061) rotate(-72.670000) translate(-13.170646, -15.909061) " cx="13.1706455" cy="15.9090609" rx="1" ry="1.44474896"></ellipse>
                                        <path d="M19.1598499,17.3785684 C19.2520845,17.7305232 19.8002216,19.2727252 18.7698292,19.4231058" id="Path" stroke="#1F161E" stroke-width="0.817919075" stroke-linecap="round"></path>
                                        <path d="M18.5661351,3.48726613 C16.3544045,3.2123875 9.93418451,1.3169558 8.47485569,0 C7.78446507,0.361034611 5.10144974,2.75288891 2.9145236,5.98989241 L6.0192146,9.08740527 L2.09597655,7.29043754 C1.0620484,8.97179113 0.351367446,10.8288929 0,12.7674967 C1.01284864,15.4793589 4.19195302,16.5952841 4.79139406,16.6691321 C8.6567551,17.1532467 10.1408884,11.1920729 12.0880381,10.4535931 C15.3952989,9.1940746 19.2895984,12.4638994 24.1884784,12.2587661 C25.2757404,10.0556345 23.8618864,4.14779536 18.5661351,3.48726613 Z" id="Path" fill="#1F2A3B" fill-rule="nonzero"></path>
                                    </g>
                                    <path d="M41.9052878,20.1046183 C41.3948857,19.9675325 40.7824032,19.2938535 40.5425142,18.7415934" id="Path" stroke="#1F161E" stroke-width="0.817919075" stroke-linecap="round"></path>
                                    <ellipse id="Oval" fill="#F8CDBA" fill-rule="nonzero" cx="35.60246" cy="13.2894935" rx="2.21450708" ry="2.04453746"></ellipse>
                                    <path d="M27.1944827,45.8525196 C26.7878901,48.2831324 25.4705298,71.2341748 28.625689,73.4667664 C35.3832596,78.2464538 66.5892485,72.3990051 71.3179214,70.7255321 C71.8302282,69.1258317 71.3179214,64.0432882 71.3179214,64.0432882 C69.4963862,63.9733983 46.5157673,63.7637289 45.14555,62.1019041 C43.7753327,60.4400794 43.6126956,46.8542737 43.8322557,45.3205803" id="Path" fill="#1F2A3B" fill-rule="nonzero"></path>
                                    <ellipse id="Oval" fill="#F8CDBA" fill-rule="nonzero" cx="74.6118539" cy="62.8695268" rx="4.42901416" ry="4.25945304"></ellipse>
                                    <path d="M45.6529152,61.67688 C44.2995444,59.9438483 44.1566666,45.8865889 44.3709833,44.2983116" id="Path" stroke="#1F2A3B" stroke-width="0.817919075" stroke-linecap="round" stroke-linejoin="round"></path>
                                    <path d="M43.2680614,75.1891392 C36.5179203,75.5288726 30.6169349,75.1891392 28.0479156,73.4553273 C26.5823678,72.475177 26.0263216,67.5041354 25.8926982,62.0176362" id="Path" stroke="#1F2A3B" stroke-width="0.817919075" stroke-linecap="round" stroke-linejoin="round"></path>
                                </g>
                                <g id="table" transform="translate(37.343047, 78.497927)" fill="#1F2A3B" fill-rule="nonzero">
                                    <path d="M140.260221,2.72755364 C141.151058,2.7123695 141.924402,3.36034684 141.987536,4.17512236 C141.9908,4.21724108 141.992091,4.25937471 141.991403,4.30140741 L140.783707,78.1805306 C140.768876,79.0878015 139.994078,79.797846 139.000081,79.8153615 C138.109245,79.8305458 137.3359,79.1825685 137.272766,78.3677932 C137.269502,78.3256743 137.268212,78.2835404 137.268899,78.2415082 L138.476596,4.36238512 C138.491427,3.4551135 139.266224,2.74506909 140.260221,2.72755364 Z" id="Rectangle" transform="translate(139.630151, 41.271458) rotate(165.270000) translate(-139.630151, -41.271458) "></path>
                                    <path d="M130.835543,1.18132692 C131.82954,1.1988389 132.604337,1.90894001 132.619168,2.81628353 L133.826821,76.7012641 C133.840113,77.5144405 133.126991,78.2176641 132.234019,78.2719579 C132.187858,78.2752362 132.141689,78.2752362 132.095638,78.2752362 C131.101642,78.2577241 130.326844,77.5476236 130.312014,76.6402797 L129.104361,2.75529914 C129.091069,1.94212303 129.804191,1.23889941 130.697162,1.18460521 C130.743324,1.18132692 130.789493,1.18132692 130.835543,1.18132692 Z" id="Rectangle" transform="translate(131.465591, 39.728282) rotate(14.730000) translate(-131.465591, -39.728282) "></path>
                                    <rect id="Rectangle" x="10.8548367" y="0" width="141.802117" height="4.78517455" rx="1.27207226"></rect>
                                    <path d="M11.4974114,2.73056099 C12.4914082,2.74807288 13.2662051,3.45817262 13.2810356,4.36551446 L14.4886925,78.2503557 C14.5019839,79.0635303 13.7888622,79.7667527 12.8958905,79.8210471 C12.8497296,79.8243254 12.8035603,79.8243254 12.7575098,79.8243254 C11.763513,79.8068134 10.9887162,79.0967135 10.9738855,78.1893716 L9.76622863,4.30453031 C9.75293726,3.49135573 10.466059,2.78813339 11.3590306,2.73383927 C11.4051916,2.73056099 11.4513608,2.73056099 11.4974114,2.73056099 Z" id="Rectangle" transform="translate(12.127461, 41.277443) rotate(14.730000) translate(-12.127461, -41.277443) "></path>
                                    <path d="M33.5111326,2.73217427 C34.4019688,2.71698982 35.1753144,3.36497265 35.2384483,4.17975525 C35.2417119,4.22187434 35.243002,4.26400833 35.2423148,4.3060414 L34.034635,78.1858082 C34.0198041,79.0930878 33.2450071,79.8031387 32.2510102,79.8206546 C31.360174,79.8358392 30.5868285,79.1878564 30.5236946,78.3730732 C30.5204309,78.3309547 30.5191408,78.2888204 30.519828,78.2467871 L31.7275078,4.36702038 C31.7423387,3.45974086 32.5171357,2.7496901 33.5111326,2.73217427 Z" id="Rectangle" transform="translate(32.881071, 41.276414) rotate(165.270000) translate(-32.881071, -41.276414) "></path>
                                </g>
                                <g id="big-cup-of-coffee" transform="translate(159.619573, 65.279460)" fill="#879DEF" fill-rule="nonzero">
                                    <path d="M0,4.81524295 L0.607554343,4.81524295 L0.619550639,4.92015011 L0.619550639,4.92015011 L0.775115508,6.29981498 L0.861411448,7.06513414 L0.866442151,7.07055368 L0.891595677,7.32991828 L1.10675505,9.23528038 L1.1110118,9.2399257 L1.54171752,13.0703925 L5.45251,13.0703925 L5.45251,13.0514241 L5.45870166,13.0560694 L5.64870751,11.2695506 L5.65760796,11.2772928 L5.85225756,9.53838855 L6.38667318,4.81601717 L6.99500146,4.81601717 L6.99500146,3.15492234 L0,3.15492234 L0,4.81524295 Z M5.49856029,11.337295 L5.34299544,12.7579937 L1.24684083,9.16211634 L1.05103032,7.42901879 L5.49856029,11.337295 Z" id="Shape"></path>
                                    <polygon id="Path" points="6.52482409 1.35593992 6.52482409 0.727764361 5.83677845 0.727764361 5.83677845 0 1.15822303 0 1.15822303 0.727764361 0.467855544 0.727764361 0.467855544 1.35593992 0 1.35593992 0 2.70421915 6.99500146 2.70421915 6.99500146 1.35593992"></polygon>
                                </g>
                                <g id="man-sitting-computer">
                                    <g id="Group-18">
                                        <path d="M106.599386,76.3743762 L70.7164136,76.3743762 L77.2173176,54.5991472 C77.550821,53.520106 78.5738059,52.7836129 79.7307936,52.7895818 L110.179539,52.7895818 C110.990498,52.7768333 111.75997,53.1379988 112.255003,53.7637382 C112.750035,54.3894776 112.912426,55.2062224 112.693015,55.9667101 L106.599386,76.3743762 Z" id="Path" fill="#FF7165" fill-rule="nonzero"></path>
                                        <ellipse id="Oval" fill="#FFFFFF" fill-rule="nonzero" cx="92.9169178" cy="66.345492" rx="1.80772213" ry="1.75517175"></ellipse>
                                        <rect id="Rectangle" fill="#FF7165" fill-rule="nonzero" x="60.0163746" y="75.8234194" width="46.9356974" height="2.84337823"></rect>
                                        <ellipse id="Oval" fill="#1F2A3B" fill-rule="nonzero" cx="32.8613714" cy="116.514853" rx="24.4792393" ry="5.27002854"></ellipse>
                                        <line x1="32.8613714" y1="116.514853" x2="19.110951" y2="158.429525" id="Path" stroke="#1F2A3B" stroke-width="1.5949422" stroke-linecap="round"></line>
                                        <line x1="32.8613714" y1="116.514853" x2="46.6117918" y2="158.429525" id="Path" stroke="#1F2A3B" stroke-width="1.5949422" stroke-linecap="round"></line>
                                        <line x1="23.6258986" y1="144.667006" x2="38.9549992" y2="135.094065" id="Path" stroke="#1F2A3B" stroke-width="0.817919075" stroke-linecap="round"></line>
                                        <line x1="26.7056825" y1="135.094065" x2="42.0386619" y2="144.667006" id="Path" stroke="#1F2A3B" stroke-width="0.817919075" stroke-linecap="round"></line>
                                        <path d="M56.9527286,79.6019868 L63.6010278,77.2786405 C63.313995,65.4654656 60.4785769,39.0699894 56.4523607,35.144857 C55.5059283,34.226852 36.7867382,32.6250655 33.4470734,32.6250655 C13.5176912,32.6250655 7.60636796,34.8388553 6.10526424,36.304641 C1.45067905,40.8379989 0,61.8425571 0,69.1979302 C0,76.5533034 21.3335155,80.3688794 21.3335155,80.3688794 L46.3402744,82.042444 C46.3402744,82.042444 51.8249273,82.5940028 56.5687253,82.8660046 C56.6734535,81.4493302 56.9527286,79.6019868 56.9527286,79.6019868 Z" id="Path" fill="#879DEF" fill-rule="nonzero"></path>
                                        <path d="M70.4075063,61.4763477 C68.4549741,61.4763477 66.8438357,61.9205241 62.4236862,62.7515639 L62.1930957,70.8441721 C66.3856494,69.2279429 67.3589208,66.9812699 68.5747614,66.9812699 C71.6113682,66.9812699 73.1985492,68.4800071 74.9923632,68.4800071 C76.24414,68.4800071 78.4961402,67.5400725 78.4961402,66.2619906 C78.4961402,63.5854693 72.8272087,61.4763477 70.4075063,61.4763477 Z" id="Path" fill="#F8CDBA" fill-rule="nonzero"></path>
                                        <path d="M76.7618674,86.4511351 C78.5810344,85.9260212 96.6718558,83.0511161 100.612737,86.8289143 C104.55362,90.6067125 116.958089,144.769006 116.958089,146.015679 L106.970126,146.015679 L93.4873432,117.753971" id="Path" fill="#1F2A3B" fill-rule="nonzero"></path>
                                        <path d="M10.8956082,81.6344418 C10.4417861,83.8444537 7.71497495,86.216911 7.71497495,98.2567545 C7.71497495,114.905511 21.7175187,115.256846 26.7444707,115.256846 C42.4071499,115.256846 67.7474874,110.723488 69.4580475,109.892373 C70.594542,111.743494 91.5130235,153.337052 91.6099944,154.266391 L101.241107,154.266391 C101.241107,154.266391 95.2716012,92.0384983 84.5001149,84.9815716 C81.0014185,82.7148926 18.9286464,80.2895461 10.8956082,81.6344418 Z" id="Path" fill="#1F2A3B" fill-rule="nonzero"></path>
                                        <path d="M36.9729216,35.1373014 C36.9729216,36.5615313 28.4821825,36.6030871 28.4821825,35.1373014 L28.4821825,23.554572 L36.9729216,23.554572 L36.9729216,35.1373014 Z" id="Path" fill="#F8CDBA" fill-rule="nonzero"></path>
                                        <ellipse id="Oval" fill="#F8CDBA" fill-rule="nonzero" cx="35.8480636" cy="17.8538744" rx="10.2788756" ry="10.0111653"></ellipse>
                                        <g id="Group-21" transform="translate(31.092821, 18.253786)">
                                            <ellipse id="Oval" fill="#FA9E9F" fill-rule="nonzero" cx="13.3771437" cy="1.75517175" rx="1.80772213" ry="1.05310305"></ellipse>
                                            <ellipse id="Oval" fill="#FA9E9F" fill-rule="nonzero" cx="1.80772213" cy="1.75517175" rx="1.80772213" ry="1.05310305"></ellipse>
                                            <path d="M8.67706619,0 C8.90694935,0.508934559 10.0787927,2.64471976 8.84246998,3.51034349" id="Path" stroke="#1F161E" stroke-width="0.817919075" stroke-linecap="round"></path>
                                            <path d="M5.78471081,5.61654959 C5.13687555,5.61654959 4.14058344,4.87610414 3.61544426,4.21241219" id="Path" stroke="#1F161E" stroke-width="0.817919075" stroke-linecap="round"></path>
                                        </g>
                                        <path d="M46.456639,9.99605413 C45.1843857,11.964287 42.5235145,12.8671808 39.6415505,12.8671808 C37.1862568,12.8671808 33.6099839,12.1720659 31.0654773,13.5849624 C29.6884959,14.3405221 28.1098157,16.0594203 27.7917524,19.5009944 C27.7917524,20.090331 27.1052011,22.3758989 27.1052011,23.1125696 C27.1052011,23.6150168 26.5233779,23.9436852 25.5536727,23.9436852 C25.0533047,23.9436852 24.0642054,23.1541254 24.0642054,21.9490078 C24.0642054,20.5550002 24.6343921,20.0601087 24.6343921,18.8776578 C24.6343921,17.6952069 23.1488037,16.5580896 23.1488037,13.2714052 C23.1488037,8.53782404 26.2518604,5.62136377 28.4472732,5.62136377 C30.4487447,5.62136377 31.0771137,6.07469956 31.3292371,6.26736727 C31.3292371,1.96445508 37.1474686,0 39.4553671,0 C42.0929654,0 43.3341881,1.05400571 43.3341881,2.39512408 C43.3341881,4.53335788 42.2869064,6.35047883 41.755508,6.75848104 C42.9583346,5.70460995 44.5206783,5.12422732 46.1385757,5.13025 C49.1601772,5.13025 50.1764283,7.0644827 50.1764283,8.38671205 C50.1764283,11.2616165 46.6350648,13.9249643 45.3162656,13.9249643 C44.9845029,13.2413 44.5952962,12.585509 44.1526193,11.964287" id="Path" fill="#FFFFFF" fill-rule="nonzero"></path>
                                        <path d="M0,67.9512569 C0,85.3631289 0.166789302,90.4140448 7.34260814,90.4140448 C23.8819008,90.4140448 48.8847809,77.1917513 53.3415463,77.1917513 C57.2785496,77.1917513 59.3343247,79.1713177 61.6577384,79.1713177 C63.2752068,79.1713177 66.1920802,77.9284223 66.1920802,76.2473018 C66.1920802,72.7150604 58.849472,69.9346009 55.7192635,69.9346009 C48.6714458,69.9346009 20.5461148,76.5533034 19.8595635,76.5533034 C19.1730122,76.5533034 18.0171235,76.2624129 18.0171235,75.136629 C18.0171235,73.0928402 19.3902261,68.3705924 19.5686519,67.9588125 L0,67.9512569 Z" id="Path" fill="#F8CDBA" fill-rule="nonzero"></path>
                                    </g>
                                    <path d="M92.3153694,153.154661 C92.3153694,154.073172 91.7646546,159.867158 92.8621226,160.401987 C93.9595906,160.936816 106.023816,161.262365 106.57057,160.72366 C107.117322,160.184955 107.446166,159.061038 106.966767,158.739365 C106.487368,158.417692 101.816195,157.506933 101.182278,157.076743 C100.548361,156.646555 99.6727643,154.36384 99.9936847,153.154661" id="Path" fill="#1F2A3B" fill-rule="nonzero"></path>
                                    <path d="M106.654044,145.309322 C106.654044,146.231341 106.103329,152.019139 107.200797,152.557629 C108.298265,153.096119 120.362491,153.41379 120.909244,152.879173 C121.455997,152.344557 121.784841,151.217215 121.305442,150.895671 C120.826042,150.574126 116.154869,149.659856 115.520953,149.229838 C114.887036,148.799822 114.011439,146.518019 114.332359,145.309322" id="Path" fill="#1F2A3B" fill-rule="nonzero"></path>
                                </g>
                            </g>
                        </g>
                    </g>
                </g>
            </g>
        </g>
    </g>
</svg>