<?xml version="1.0" encoding="UTF-8"?>
<svg width="170px" height="170px" viewBox="0 0 170 170" version="1.1" xmlns="http://www.w3.org/2000/svg" xmlns:xlink="http://www.w3.org/1999/xlink">
    <g id="Illustrations/170px/licensed_rights_contractform" stroke="none" stroke-width="1" fill="none" fill-rule="evenodd">
        <circle id="Oval" stroke="#000000" stroke-width="2" cx="85" cy="85" r="84"></circle>
        <g id="undraw_cancel_u1it" transform="translate(7.000000, 5.000000)">
            <circle id="Oval" fill="#FF6E61" cx="24.5814755" cy="22.131728" r="19"></circle>
            <circle id="Oval" stroke="#000000" stroke-width="2" cx="19.631728" cy="19.2530483" r="19"></circle>
            <text id="2" font-family="Montserrat-SemiBold, Montserrat" font-size="20" font-weight="500" fill="#000000">
                <tspan x="14" y="26">2</tspan>
            </text>
        </g>
        <g id="Group" transform="translate(45.000000, 45.000000)" fill-rule="nonzero">
            <path d="M9.79794577,31.1086188 C10.2612226,31.1990143 9.60828625,31.8794727 9.51789077,32.5009416 C9.37099812,33.4500942 10.252354,34.3766478 11.0433145,35.2015066 C11.8794727,36.094162 12.6365348,36.8964218 12.4444444,37.8568738 C11.4613936,42.6817326 13.2354049,44.0037665 14.7043315,45.0885122 C16.2184557,46.2071563 17.472693,47.13371 16.3427495,50.1393597 C14.4444444,55.2015066 15.6873823,56.2297552 16.6365348,57.0094162 C18.7269303,58.7495292 17.5897556,58.6731753 19.0247838,60.0065086 C19.2055748,60.0404069 19.5570984,60.3958035 20.6418441,59.5370464 L20.7926676,57.7402207 C20.6005772,52.8362659 22.7156309,51.2919021 24.0037665,50.3992467 C24.4105461,50.1280603 24.7156309,49.913371 24.7156309,49.7551789 C24.7834275,48.1280603 25.8116761,46.4670433 26.5800377,45.212806 C28.1619586,42.6478343 25.8907721,43.9811676 23.7777778,39.393597 C23.0207156,37.7664783 22.3992467,36.4218456 19.8229755,36.2184557 C16.1393597,35.9246704 16.6591337,34.9642185 14.6478343,34.9077213 C13.2354049,34.8625235 12.7947269,35.1224105 12.613936,35.2354049 C12.1561302,34.6222316 12.4090766,35.1385321 12.0474947,34.4153682 C10.9966472,32.3588711 11.1361777,33.4254776 10.5988701,31.6158192 C10.5395554,31.4160467 10.3427495,30.6704331 10.5348399,30.613936 C12.1054614,30.0602637 9.18777628,30.9956245 9.79794577,31.1086188 Z" id="Path" fill="#FF6E61"></path>
            <path d="M1.74387947,26.5122411 C2.98681733,26.8512241 5.87947269,27.7664783 6.24105461,29.0433145 C6.88512241,31.2806026 7.73258004,31.4500942 8.34274953,31.5630885 C8.80602637,31.653484 9.55137881,31.3774991 10.1393597,31.0433145 C10.2847336,30.9606898 10.3427495,30.6704331 10.5348399,30.613936 C12.1054614,30.0602637 12.1845574,29.4161959 11.9698682,28.7947269 C11.5856874,27.6760829 10.5461394,26.4670433 11.8229755,25.472693 C13.2580038,24.354049 12.8286252,23.5856874 12.5348399,23.0546139 C12.4218456,22.8625235 12.3314501,22.6817326 12.2749529,22.5009416 C12.0828625,21.9020716 12.2184557,21.4500942 13.1563089,21.1563089 C16.7269303,20.2184557 15.13371,15.8229755 16.8060264,13.2806026 C18.3088512,11.0546139 18.9642185,10.7495292 17.13371,8.18455744 C10.2184557,12.5235405 4.66197422,17.9835273 1.74387947,26.5122411 Z" id="Path" fill="#FF6E61"></path>
            <path d="M65.3785311,69.0847458 L65.5932203,69.2542373 C74.0451977,61.8418079 78.8700565,51.2542373 78.8700565,40 C78.8700565,37.2768362 78.5875706,34.6214689 78.0564972,32.0677966 C77.740113,31.9322034 77.5254237,31.819209 77.2316384,31.6497175 C76.6214689,33.6497175 75.3107345,33.8418079 73.5367232,33.4124294 C75.4689266,37.3559322 71.6045198,37.8079096 71.6045198,40.8813559 C71.6045198,43.480226 68.9039548,47.7853107 66.6327684,49.0282486 C66.7344633,50.079096 67.0621469,52.1355932 66.8587571,53.0282486 C66.6779661,53.8418079 65.4689266,55.1412429 64.9378531,55.9096045 C64.5875706,56.3954802 62.3841808,59.8418079 61.3220339,58.3389831 C60.4519774,57.1186441 62.1129944,54.5084746 61.9322034,52.4067797 C61.7966102,50.7909605 61.2655367,50.180791 60.9265537,49.7853107 C60.4519774,49.2090395 60.2033898,48.9717514 60.5649718,48.180791 C61.2881356,46.6553672 61.0282486,46.1016949 60.8474576,45.7175141 C60.6327684,45.2429379 60.4745763,44.8926554 60.9152542,44.2711864 C61.5819209,43.3333333 61.8983051,43.4576271 60.0903955,43.6271186 C55.9548023,44.0338983 54.779661,41.4915254 52.3502825,43.1751412 C51.5480226,43.740113 50.8926554,44.1920904 49.9887006,43.4915254 C49.1751412,42.8587571 48.3841808,42.440678 47.6610169,42.0564972 C43.9774011,40.1016949 42.9265537,37.0508475 44.9152542,33.2768362 L45.1073446,32.9152542 C44.9152542,32.8248588 44.7570621,32.7118644 44.6214689,32.5762712 C43.4124294,31.3559322 45.1864407,27.8644068 45.9661017,27.4689266 C49.6271186,25.6610169 47.3898305,23.2429379 52.1468927,22.6553672 C54.6553672,22.3389831 55.2316384,19.3446328 58.0225989,20.5423729 C60.3502825,21.5367232 61.2881356,20.8813559 61.9096045,20.4519774 C63.920904,19.0282486 64.6327684,22.0225989 67.7853107,21.5932203 C68.5423729,21.4463277 66.8022599,20.2033898 65.9435028,20.6101695 C63.6158192,21.7062147 64.3954802,18.3276836 61.9322034,18.9830508 C61.2090395,19.1751412 60.440678,19.3785311 59.3898305,18.7457627 C56.700565,17.1186441 56.6779661,17.1412429 56.5310734,17.3446328 C54.8474576,19.6497175 51.9887006,17.9661017 52.079096,20.5988701 C52.0564972,21.220339 51.8305085,21.6158192 50.8587571,21.5819209 C49.2768362,21.5141243 49.4124294,23.220339 48.4745763,23.3672316 C46.1016949,23.7288136 47.2429379,22.1242938 48.2146893,21.2768362 C49.0056497,20.5988701 50.0564972,19.6949153 49.9096045,19.2881356 C49.2542373,17.3898305 49.9096045,16.6327684 50.8248588,16.3163842 C51.2429379,16.1694915 51.7062147,16.1468927 52.1016949,16.1468927 C51.8870056,16.1016949 51.6045198,16 51.299435,15.7740113 C50.1468927,14.9039548 49.6949153,13.4576271 49.4011299,12.4519774 C49.4011299,12.5536723 49.3785311,12.6666667 49.3333333,12.7909605 C49.2768362,12.9717514 49.1186441,13.1073446 48.9378531,13.1525424 C47.2429379,13.7288136 46,13.5028249 45.3107345,13.0056497 C44.6666667,12.519774 44.3389831,11.7627119 44.7570621,11.0169492 C45.039548,10.4858757 45.7062147,10.0564972 46.7457627,10 C47.1977401,9.97740113 47.2881356,9.67231638 47.2655367,9.31073446 C47.2316384,8.6440678 46.7344633,7.42372881 47.1186441,6.8700565 C47.4463277,6.38418079 48.079096,6.39548023 49.3333333,7.26553672 C53.0621469,9.85310734 53.0508475,11.0282486 53.0508475,11.7062147 C53.0282486,11.9661017 54.8022599,13.8418079 54.8700565,13.3672316 C54.9378531,12.8135593 55.0169492,12.1242938 55.819209,11.7966102 C58.5536723,10.6779661 57.1864407,9.70621469 56.5762712,7.83050847 C56.2711864,6.9039548 56.3502825,6.04519774 57.6045198,5.34463277 C52.3163842,2.65536723 46.3389831,1.1299435 40,1.1299435 C32.8700565,1.1299435 26.1242938,3.07344633 20.3276836,6.48587571 C22.5423729,9.60451977 21.8305085,10.0338983 19.9661017,12.779661 C18.1581921,15.5367232 20.440678,19.6271186 15.7514124,21.1073446 C15.4689266,21.2090395 17.3220339,23.2316384 14.7344633,25.2542373 C14.3163842,25.5706215 15.0960452,26.8361582 15.2655367,27.3220339 C15.6497175,28.4632768 15.5932203,29.6045198 13.4011299,30.4632768 C13.1864407,31.5254237 13.1977401,31.6497175 13.2881356,31.7062147 C13.8870056,31.9774011 14.259887,32.4180791 14.5988701,32.9717514 C14.9830508,32.8135593 15.6610169,32.6327684 16.9039548,32.6666667 C18.960452,32.7344633 18.5084746,33.7062147 22.1242938,33.9887006 C25.3672316,34.2372881 26.1129944,35.8531073 27.0169492,37.8079096 C27.0960452,39.2090395 29.1525424,41.0847458 30.3163842,41.9887006 C31.1073446,42.5084746 30.5310734,43.4350282 29.7627119,44.6892655 C29.0508475,45.8418079 28.1242938,47.3559322 28.0677966,48.6892655 C28.0338983,49.4124294 27.5367232,49.7627119 26.8700565,50.2146893 C25.7740113,50.9717514 24.0564972,52.1581921 24.2259887,56.4519774 C24.259887,57.0847458 23.6949153,57.480226 23.039548,57.9661017 C22.2146893,58.5762712 21.1638418,59.2768362 22.0451977,60.3954802 C22.3954802,60.8474576 22.4067797,61.4463277 22.1920904,61.8757062 C21.819209,62.6666667 20.9491525,62.7909605 20.3276836,62.2033898 C18.6101695,60.6101695 19.740113,58.0903955 18.1355932,56.7683616 C16.9265537,55.7627119 15.3333333,54.4519774 17.5141243,48.6327684 C18.3389831,46.4293785 17.3898305,45.7175141 16.259887,44.8813559 C14.5310734,43.6045198 12.440678,42.0451977 13.559322,36.519774 C13.7514124,35.6045198 10.5875706,33.8305085 10.5988701,31.6158192 C8.55367232,31.1864407 7.97740113,30.3163842 7.37853107,28.2372881 C7.16384181,27.4915254 4.42937853,26.700565 3.55932203,26.440678 C1.98870056,30.6440678 1.1299435,35.2090395 1.1299435,40 C1.1299435,53.6158192 8.21468927,66.1242938 19.7740113,73.1864407 C19.5367232,72.4519774 19.3785311,71.6045198 19.6045198,70.9717514 C19.920904,70.0564972 20.8022599,69.559322 22.7909605,70.2372881 C22.9717514,70.3050847 23.1186441,70.4632768 23.1638418,70.6553672 C23.7627119,73.5254237 24.3050847,73.6836158 25.3333333,73.9887006 C26.8022599,74.4293785 30.1129944,76.3728814 30.5536723,77.7062147 C33.5706215,78.4632768 36.7344633,78.8700565 40,78.8700565 C41.6158192,78.8700565 43.2090395,78.7683616 44.779661,78.5762712 C47.5254237,75.5141243 47.1186441,75.2090395 46.7231638,74.9152542 C45.3559322,73.8870056 45.9096045,71.3559322 47.8079096,72.3389831 C48.3276836,72.6101695 49.1299435,73.0282486 50.1468927,71.4689266 C50.9378531,70.259887 51.6271186,70.440678 52.5310734,70.6892655 C56.1355932,71.6610169 55.7627119,67.1525424 59.9322034,69.9774011 C60.7118644,70.5084746 61.4350282,70.9943503 62.2824859,69.6949153 C62.7683616,68.9491525 63.4689266,68.5649718 64.3728814,68.6892655 C64.7570621,68.7570621 65.0508475,68.8926554 65.3785311,69.0847458 Z M64.7118644,70 C64.1242938,69.6497175 63.6158192,69.7288136 63.220339,70.3050847 C61.7514124,72.5649718 60.5762712,71.7740113 59.299435,70.9152542 C55.9887006,68.6666667 56.4632768,72.9152542 52.2485876,71.7740113 C51.7853107,71.6497175 51.4350282,71.559322 51.0960452,72.0903955 C49.5141243,74.4971751 48.1581921,73.7966102 47.2881356,73.3446328 C47.0508475,73.1864407 47.0282486,73.740113 47.4011299,74.0112994 C48.2033898,74.6214689 49.0056497,75.2316384 46.4745763,78.3276836 C53.3220339,77.1751412 59.5706215,74.2372881 64.7118644,70 Z M28.5084746,77.1412429 C26.9265537,75.6384181 25.8305085,75.3107345 25.0056497,75.0734463 C23.6158192,74.6553672 22.8474576,74.4293785 22.1355932,71.2090395 C21.1638418,70.9265537 20.7683616,71.0508475 20.6666667,71.3333333 C20.4067797,72.0903955 21.1073446,73.6158192 21.3446328,74.1016949 C23.6045198,75.3446328 26,76.3615819 28.5084746,77.1412429 Z M76.6214689,30.519774 C76.960452,30.4067797 77.3559322,30.4971751 77.740113,30.6553672 C75.1525424,20.180791 68.2711864,11.2542373 58.8700565,6.01129944 C57.6271186,6.47457627 57.480226,6.96045198 57.6497175,7.48022599 C58.440678,9.89830508 60.1129944,11.1977401 56.2824859,12.8135593 C56.0338983,12.9378531 56.0112994,13.2542373 55.9887006,13.5028249 C55.9435028,13.819209 55.9096045,14.1016949 55.6949153,14.3276836 C55.2429379,14.8361582 54.440678,14.6101695 52.259887,12.6214689 C51.9322034,12.3163842 51.920904,12.0677966 51.920904,11.7288136 C51.920904,10.3276836 49.6723164,8.88135593 48.6892655,8.1920904 C47.9887006,7.71751412 47.9548023,6.96045198 48.2033898,8.10169492 C48.2824859,8.46327684 48.3728814,8.85875706 48.3841808,9.25423729 C48.5310734,11.8079096 46.2259887,10.6779661 45.740113,11.5480226 C45.6271186,11.7514124 45.7853107,11.9548023 45.9435028,12.079096 C46.6214689,12.5423729 47.6271186,12.3841808 48.3615819,12.1581921 C48.8135593,10.9378531 49.2090395,10.5536723 49.7062147,10.7231638 C50.1129944,10.8700565 50.259887,11.3446328 50.440678,12 C50.6892655,12.8700565 51.0734463,14.1920904 51.9774011,14.8700565 C53.1299435,15.740113 54.5084746,17.2316384 52.2259887,17.2655367 C51.8983051,17.2655367 51.480226,17.2768362 51.1864407,17.3785311 C50.4858757,17.6271186 50.9039548,18.6440678 51.0282486,19.1412429 C51.6723164,17.4237288 54.4632768,18.2711864 55.6158192,16.6779661 C56.2937853,15.7740113 56.3954802,15.6158192 59.9661017,17.7853107 C60.6101695,18.1694915 61.1412429,18.0225989 61.6497175,17.8870056 C62.6892655,17.6158192 63.6497175,17.3559322 64.9491525,19.3446328 C65.1864407,19.7175141 65.3107345,19.6610169 65.4689266,19.5819209 C67.7175141,18.519774 71.2768362,22.259887 67.9322034,22.7118644 C64.6440678,23.1638418 63.6723164,20.5762712 62.5536723,21.3672316 C61.7288136,21.9435028 60.4745763,22.8135593 57.5819209,21.5706215 C55.8079096,20.8135593 54.779661,23.4689266 52.2824859,23.7740113 C48.519774,24.2372881 50.180791,26.6440678 46.4632768,28.4745763 C46.1581921,28.960452 44.8700565,31.220339 45.4237288,31.7853107 C45.5028249,31.8644068 45.6271186,31.920904 45.8079096,31.9661017 C45.9887006,32 46.1581921,32.1129944 46.2372881,32.3050847 C46.440678,32.8022599 46.2146893,33.220339 45.9096045,33.8079096 C44.2259887,37.0056497 45.0847458,39.4124294 48.1920904,41.0621469 C48.9491525,41.4689266 49.7966102,41.920904 50.6779661,42.6101695 C50.9265537,42.8022599 51.2881356,42.5536723 51.7062147,42.259887 C55.0508475,39.9322034 55.5367232,42.9378531 59.9887006,42.5084746 C60.9152542,42.4180791 61.6723164,42.3502825 62.1242938,42.6666667 C62.6779661,43.0621469 62.6892655,43.7288136 61.8305085,44.9265537 C61.7627119,45.0169492 61.8079096,45.1073446 61.8757062,45.2429379 C62.1355932,45.8305085 62.519774,46.6666667 61.5819209,48.6553672 C61.5367232,48.7683616 61.6158192,48.8700565 61.740113,49.0169492 C62.6327684,49.9548023 62.9491525,51.0282486 63.0621469,52.3050847 L63.1073446,52.3050847 C63.2429379,52.3276836 63.3898305,52.3502825 63.5254237,52.440678 C64.4293785,53.0169492 62.1581921,55.2655367 62.2033898,57.3898305 L62.2033898,57.4350282 C62.5762712,57.1638418 63.1412429,56.4971751 64.0112994,55.2655367 C64.3389831,54.7909605 65.6723164,53.1977401 65.7627119,52.7909605 C65.920904,52.1016949 65.5706215,49.6384181 65.480226,48.7231638 C65.4576271,48.4745763 65.6045198,48.2372881 65.8531073,48.1468927 C67.7966102,47.4689266 70.4745763,42.9943503 70.4745763,40.8813559 C70.4745763,37.2316384 74.4067797,37.039548 72.2146893,33.3333333 C71.5028249,32.1355932 72.440678,31.8983051 73.3898305,32.1920904 C74.8361582,32.5875706 75.8757062,32.7683616 76.259887,30.9378531 C76.2937853,30.7457627 76.4293785,30.5875706 76.6214689,30.519774 Z M50.9378531,20.2937853 L50.9152542,19.920904 C50.8474576,20.1016949 50.7457627,20.2824859 50.6214689,20.4519774 L50.9039548,20.4519774 C50.960452,20.4632768 50.960452,20.7457627 50.9378531,20.2937853 Z M3.96610169,25.4011299 C5.20903955,25.740113 8.10169492,26.6553672 8.46327684,27.9322034 C9.10734463,30.1694915 9.95480226,30.3389831 10.5649718,30.4519774 C11.0282486,30.5423729 11.8305085,30.7683616 11.740113,31.3898305 C11.5932203,32.3389831 12.4745763,33.2655367 13.2655367,34.0903955 C14.1016949,34.9830508 14.8587571,35.7853107 14.6666667,36.7457627 C13.6836158,41.5706215 15.4576271,42.8926554 16.9265537,43.9774011 C18.440678,45.0960452 19.6949153,46.0225989 18.5649718,49.0282486 C16.6666667,54.0903955 17.9096045,55.1186441 18.8587571,55.8983051 C20.9491525,57.6384181 19.6497175,60.0451977 21.0847458,61.3785311 C21.2655367,61.4124294 21.220339,61.1638418 21.1638418,61.0960452 C19.8305085,59.4011299 20.7683616,58.2937853 21.8531073,57.4350282 L23.1073446,56.4971751 C22.9152542,51.5932203 24.9378531,50.180791 26.2259887,49.2881356 C26.6327684,49.0169492 26.9378531,48.8022599 26.9378531,48.6440678 C27.0056497,47.0169492 28.0338983,45.3559322 28.8022599,44.1016949 C30.3841808,41.5367232 28.1129944,42.8700565 26,38.2824859 C25.2429379,36.6553672 24.6214689,35.3107345 22.0451977,35.1073446 C18.3615819,34.8135593 18.8813559,33.8531073 16.8700565,33.7966102 C15.4576271,33.7514124 15.0169492,34.0112994 14.8361582,34.1242938 C14.2146893,34.4519774 14.1355932,34.5310734 13.7740113,33.8079096 C12.7231638,31.7514124 11.6045198,33.6045198 12.3615819,29.9322034 C12.4067797,29.7175141 12.5649718,29.559322 12.7570621,29.5028249 C14.3276836,28.9491525 14.4067797,28.3050847 14.1920904,27.6836158 C13.8079096,26.5649718 12.7683616,25.3559322 14.0451977,24.3615819 C15.480226,23.2429379 15.0508475,22.4745763 14.7570621,21.9435028 C14.6440678,21.7514124 14.5536723,21.5706215 14.4971751,21.3898305 C14.3050847,20.7909605 14.440678,20.3389831 15.3785311,20.0451977 C18.9491525,19.1073446 17.3559322,14.7118644 19.0282486,12.1694915 C20.5310734,9.94350282 21.1864407,9.63841808 19.3559322,7.07344633 C12.440678,11.4124294 7.02824859,17.819209 3.96610169,25.4011299 Z M40,0 C62.0903955,0 80,17.9096045 80,40 C80,62.0903955 62.0903955,80 40,80 C17.9096045,80 0,62.0903955 0,40 C0,17.9096045 17.920904,0 40,0 Z" id="Shape" stroke="#000000" stroke-width="0.5" fill="#000000"></path>
        </g>
    </g>
</svg>
