<?xml version="1.0" encoding="UTF-8"?>
<svg width="48px" height="48px" viewBox="0 0 48 48" version="1.1" xmlns="http://www.w3.org/2000/svg" xmlns:xlink="http://www.w3.org/1999/xlink">
    <title>Illustrations/Light/48px/list-offer</title>
    <g id="Illustrations/Light/48px/list-offer" stroke="none" stroke-width="1" fill="none" fill-rule="evenodd">
        <circle id="Oval" fill="#8DA4FA" opacity="0.237180437" cx="24" cy="24" r="24"></circle>
        <g id="Group" transform="translate(8.203919, 7.231988)">
            <rect id="Rectangle" stroke="#000000" stroke-width="0.5" fill="#FFFFFF" x="0.25" y="0.25" width="24.2261905" height="33"></rect>
            <path d="M2.14759122,18.5302184 C3.73492749,22.3820409 6.44083018,23.708823 10.2652993,22.5105646 C16.002003,20.7131771 13.596327,12.1105904 10.2652993,16.2804574 C6.93427163,20.4503244 7.0600787,29.0895378 3.48939947,27.7036951 C1.10894665,26.7797999 5.10341057,23.3229704 15.4727912,17.3332065 L10.2652993,26.3178523 L16.002003,21.5025627 L16.002003,25.9926665 L18.5660971,24.2683655 L19.7843934,25.9926665 L22.4110964,24.7282271 L22.4466288,24.7898714" id="Path-4" stroke="#4D65FF" stroke-width="0.5"></path>
            <line x1="4.86309524" y1="4.4" x2="19.8630952" y2="4.4" id="Line-7" stroke="#000000" stroke-width="0.5" stroke-linecap="square"></line>
            <line x1="4.88295904" y1="10.2694069" x2="19.882959" y2="10.2694069" id="Line-7" stroke="#000000" stroke-width="0.5" stroke-linecap="square"></line>
            <g id="pen" transform="translate(28.656474, 16.928364) scale(1, -1) rotate(90.000000) translate(-28.656474, -16.928364) translate(12.048814, 13.992676)">
                <path d="M18.0685725,1.59299583 L18.6851439,1.59518295 L19.2963808,1.59952411 L20.20334,1.61000949 L20.8005169,1.61959491 L21.3914592,1.63121809 L21.9758587,1.64484517 L22.5534072,1.66044229 L23.1237962,1.67797557 L23.6867171,1.69741108 L24.2418614,1.71871489 L24.7887183,1.74184354 L25.5936721,1.779925 L26.1191649,1.80749985 L26.63549,1.83678966 C28.556011,2.16405262 29.1079315,2.39457367 29.4241819,2.61596056 C29.7863081,2.86946224 29.7830125,3.09877408 29.7819421,3.33087332 C29.7818155,3.87911408 29.8555564,4.37510303 29.992513,4.83847642 L29.992513,4.83847642 L29.373631,4.89530917 L26.5106164,5.09935618 L26.0004731,5.12778293 L25.21852,5.16729968 L24.4175505,5.20295777 L23.8737345,5.22452212 L23.3222876,5.24428728 L22.763504,5.26222096 L22.1976776,5.27829085 L21.6251025,5.2924647 L21.0460725,5.30471026 L20.4608815,5.31499533 L19.8698232,5.32328769 L19.2731913,5.32955517 L18.6712795,5.3337656 L18.0643809,5.33588682 L17.4490532,5.33588809 L16.8325081,5.33369256 L16.2212997,5.3293518 L15.3143822,5.31886741 L14.7172325,5.30928288 L14.1263165,5.29766079 L13.5419427,5.28403497 L12.9644191,5.26843928 L12.3940543,5.25090761 L11.8311566,5.23147387 L11.2760348,5.210172 L10.7291993,5.18704543 L9.92427594,5.1489674 L9.39880205,5.12139501 L8.88249489,5.0921078 C7.48151614,4.77242451 6.94875862,4.50980256 6.64312192,4.25466077 C6.27239615,3.94518342 6.28312946,3.65375846 6.28559784,3.36008819 C6.28600853,2.86088014 6.23380088,2.43478308 6.13585276,2.03712206 L6.13585276,2.03712206 L8.29129256,1.87312571 L8.80166243,1.84156721 L9.32175276,1.81171852 L9.85124425,1.78361486 L10.3898179,1.75729139 L10.9371547,1.73278321 L11.4929363,1.71012537 L12.056844,1.68935289 L12.6285596,1.67050073 L13.2077649,1.65360384 L13.7941417,1.63869712 L14.3873722,1.62581547 L14.9869565,1.61499628 L15.8983468,1.60269973 L16.5130618,1.59718021 L17.1330228,1.59384272 L18.0685725,1.59299583 Z" id="Path" stroke="#000000" stroke-width="0.4" fill="#E6EBFF"></path>
                <path d="M18.4691027,1.72848621 C18.3705951,2.56585054 18.321054,3.22734376 18.3204795,3.71296584 C18.319905,4.19858792 18.3678122,4.91805795 18.4642012,5.87137594 L17.848161,5.87137594 L17.2309074,5.86917663 L16.6188077,5.86482755 L16.0057382,5.85433076 C15.9274086,4.88895491 15.886876,4.1751666 15.8841404,3.71296584 C15.8814048,3.25076508 15.9138319,2.59506686 15.9814219,1.7458712 L16.2963718,1.73819691 L16.9118062,1.73267222 L17.5326626,1.72933192 L18.4691027,1.72848621 Z" id="Path" fill="#E6EBFF"></path>
                <path d="M18.0692824,1.39299709 C17.9707748,2.23036143 17.9212337,2.89185464 17.9206591,3.37747672 C17.9200846,3.8630988 17.9679918,4.58256883 18.0643809,5.53588682 L17.4483406,5.53588682 L16.8310871,5.53368751 L16.2189873,5.52933843 L15.6059179,5.51884165 C15.5275882,4.55346579 15.4870556,3.83967748 15.48432,3.37747672 C15.4815844,2.91527596 15.5140116,2.25957775 15.5816015,1.41038209 L15.8965515,1.40270779 L16.5119858,1.39718311 L17.1328422,1.3938428 L18.0692824,1.39299709 Z" id="Path" stroke="#000000" stroke-width="0.4"></path>
                <path d="M32.3310837,2.3327942 C32.5199399,2.3327942 32.6908808,2.40970949 32.8146315,2.53395345 C32.9386695,2.65848598 33.0153209,2.83054473 33.0153209,3.02055629 L33.0153209,3.02055629 L33.0153209,3.90831837 C33.0153209,4.09832993 32.9386695,4.27038868 32.8146315,4.39492121 C32.6908808,4.51916517 32.5199399,4.59608046 32.3310641,4.59608046 L32.3310641,4.59608046 L30.2995544,4.59627966 C30.2026711,4.20397779 30.1512849,3.79365302 30.1512849,3.37127711 C30.1512849,3.01527616 30.1877883,2.66783667 30.2574135,2.33246196 L30.2574135,2.33246196 Z" id="Path" stroke="#000000" stroke-width="0.4" fill="#FFFFFF"></path>
                <path d="M5.39163465,2.08920116 C5.92134712,2.41398268 5.9611223,2.79542152 5.9611223,3.18349584 C5.9611223,3.71670578 5.87922229,4.23071052 5.72703729,4.71341354 L5.72703729,4.71341354 L5.5069088,4.69440768 L5.26164795,4.67008025 L5.02142214,4.64370451 L4.7864529,4.61533267 L4.55696282,4.58501755 L4.33256994,4.55271906 L4.22349113,4.53601883 L4.00868146,4.50108237 L3.79946021,4.46426685 L3.69829423,4.44541298 L3.49885121,4.40605313 L3.4027934,4.38600267 L3.2144545,4.34442055 L3.03332415,4.3013349 L2.8596467,4.25681615 L2.69167642,4.21035553 C2.63769642,4.19484056 2.58495619,4.17908827 2.53565603,4.16379072 L2.53565603,4.16379072 L2.38466865,4.1150463 L2.31413506,4.09088484 L2.17581606,4.04044617 L2.11204874,4.01569835 L1.98544371,3.96312943 C1.94592323,3.94595049 1.90777241,3.92858233 1.87454922,3.91275082 L1.87454922,3.91275082 L1.76626152,3.85842682 C1.60048556,3.77080494 1.47043921,3.68041375 1.38398307,3.58446207 C1.32632606,3.52047255 1.28803678,3.45594121 1.28803678,3.38625631 C1.28803678,3.29340793 1.35232877,3.21041771 1.44491018,3.12782813 C1.58244747,3.00513454 1.78768414,2.89078706 2.04552729,2.78381235 L2.04552729,2.78381235 L2.17702058,2.73160338 C2.28871378,2.68914822 2.40887957,2.64802599 2.53488936,2.60894699 L2.53488936,2.60894699 L2.69363113,2.56156966 L2.86030268,2.51550611 L3.03465328,2.47083251 L3.21643765,2.42761945 L3.40541499,2.38593325 L3.60203875,2.34570472 L3.70185031,2.32640387 L3.90778003,2.28880483 L4.12008599,2.25294286 L4.33854021,2.21887394 L4.56291645,2.18665285 L4.79298993,2.15633344 L5.02853711,2.12796872 L5.26985305,2.10155929 Z" id="Path" stroke="#000000" stroke-width="0.4" fill="#FFFFFF"></path>
                <path d="M1.66040788,3.08741139 C1.73883199,3.18018893 1.74373606,3.28248349 1.74373606,3.38385314 C1.74373606,3.48929616 1.73482136,3.59264868 1.71767927,3.69318257 L1.686,3.837 L1.61257598,3.83080002 L1.52185937,3.82084705 L1.43319973,3.8101495 L1.34668849,3.79873001 L1.26181257,3.78651831 L1.22115306,3.78029873 L1.14042167,3.76717921 L1.06148897,3.75329634 L1.02400514,3.74631776 L0.948920216,3.73150754 L0.913505574,3.72412389 L0.843299254,3.70864048 L0.775987225,3.69264852 L0.711682697,3.67618829 L0.650504298,3.65930559 L0.592577139,3.64205358 L0.536839673,3.62408103 L0.512075511,3.61562392 L0.461502342,3.59721194 L0.439678633,3.58877891 L0.393020291,3.56942359 L0.356709135,3.55301213 L0.31751028,3.53337865 C0.269307521,3.5079008 0.230295705,3.48292374 0.2,3.46154015 C0.2,3.45553309 0.216370592,3.456809 0.218861608,3.45458682 C0.263464314,3.41479786 0.330892804,3.37920624 0.412368781,3.34538574 L0.412368781,3.34538574 L0.461074608,3.32603288 C0.501602551,3.310628 0.545209535,3.295721 0.589609994,3.28194326 L0.589609994,3.28194326 L0.648018276,3.26448368 L0.709639564,3.24743016 L0.77435486,3.23082856 L0.842050591,3.21471916 L0.912617707,3.19913798 L0.986641356,3.18398552 L1.02362283,3.17682737 L1.10091462,3.16270415 L1.18072208,3.14921327 L1.26294897,3.13638042 L1.34750076,3.12423007 L1.4342844,3.11278575 L1.52320807,3.10207018 L1.61469857,3.09205363 Z" id="Path" stroke="#3C64F7" stroke-width="0.4" fill="#3C64F7"></path>
                <path d="M29.8444244,1.8123869 C30.0676648,1.21670473 30.0676648,0.829050443 29.8444244,0.649424041 C29.5095638,0.379984438 21.1997704,-0.552410938 18.6023045,0.462557773 C18.1545675,0.637512565 18.0822931,0.823982472 18.3854815,1.02196749 C23.8475569,0.64902768 26.9587858,0.865551572 27.7191684,1.67153917 C28.1806591,1.67153917 28.8890778,1.71848841 29.8444244,1.8123869 Z" id="Path-49" stroke="#000000" stroke-width="0.4" fill="#FFFFFF"></path>
            </g>
        </g>
    </g>
</svg>