<?xml version="1.0" encoding="UTF-8"?>
<svg width="100px" height="100px" viewBox="0 0 100 100" version="1.1" xmlns="http://www.w3.org/2000/svg" xmlns:xlink="http://www.w3.org/1999/xlink">
    <title>Illustration/Landing/live_screenings</title>
    <g id="Illustration/Landing/live_screenings" stroke="none" stroke-width="1" fill="none" fill-rule="evenodd">
        <g id="Group-2" transform="translate(0.000000, 16.000000)">
            <g id="Group-44">
                <path d="M91,0.5 C91.9664983,0.5 92.8414983,0.891750844 93.4748737,1.52512627 C94.1082492,2.15850169 94.5,3.03350169 94.5,4 L94.5,4 L94.5,64 C94.5,64.9664983 94.1082492,65.8414983 93.4748737,66.4748737 C92.8414983,67.1082492 91.9664983,67.5 91,67.5 L91,67.5 L9,67.5 C8.03350169,67.5 7.15850169,67.1082492 6.52512627,66.4748737 C5.89175084,65.8414983 5.5,64.9664983 5.5,64 L5.5,64 L5.5,4 C5.5,3.03350169 5.89175084,2.15850169 6.52512627,1.52512627 C7.15850169,0.891750844 8.03350169,0.5 9,0.5 L9,0.5 Z" id="Rectangle" stroke="#1F2A3B" fill="#FFFFFF"></path>
                <path d="M0,62 L99,62 C98.516,65.6963534 96.1106667,67.5677106 91.784,67.6140715 C85.294,67.6836128 13.9981653,67.5445301 7.31737591,67.6140715 C2.86351631,67.6604324 0.424391008,65.7890752 0,62 Z" id="Path-3" stroke="#1F2A3B" fill="#FFFFFF"></path>
                <rect id="Rectangle-2" stroke="#000000" fill="#FFFFFF" x="73.6" y="5.10051737" width="26.4" height="18.7926829" rx="2"></rect>
                <polygon id="Triangle" fill="#8DA4FA" transform="translate(88.306712, 14.417782) rotate(90.000000) translate(-88.306712, -14.417782) " points="88.3067125 10.8952065 92.7053365 17.9403583 83.9080885 17.9403583"></polygon>
                <g id="Group-5" transform="translate(41.600000, 26.344420)" fill-rule="nonzero">
                    <g id="Group">
                        <path d="M15.4053296,0.360406433 C12.8594525,3.43604748 10.3135772,6.51166443 7.7676782,9.58730593 C6.77167329,8.43751652 5.77562201,7.28772713 4.77959434,6.13791504 C4.28502239,5.56700693 3.47575812,6.41090816 3.96829312,6.97948273 C5.10261605,8.28889227 6.23692101,9.59832636 7.37124963,10.907784 C7.56739809,11.1341949 7.98817366,11.1425975 8.18255566,10.907784 C10.8605879,7.67249786 13.5385859,4.4372362 16.2166129,1.20195051 C16.6953051,0.62366418 15.8873272,-0.221878936 15.4053296,0.360406433 Z" id="Path" fill="#8DA4FA"></path>
                        <path d="M14.0074084,5.72611611 C14.9792046,8.97694452 13.7201325,12.5172617 10.7426509,14.0875017 C8.08309643,15.4900994 4.73534476,14.8106752 2.7777139,12.4775348 C0.814589126,10.137826 0.617200935,6.62481064 2.31753402,4.0695434 C4.30086997,1.08894644 8.13435912,0.329545309 11.1352695,2.07259258 C11.7802345,2.44719958 12.3593705,1.41958939 11.7143547,1.04493516 C6.31194883,-2.0929732 -0.628923447,2.2281912 0.0456430299,8.78956949 C0.666743352,14.8308364 7.58180112,18.0948045 12.33775,14.4580386 C15.0698456,12.3688517 16.1100627,8.74255955 15.1137601,5.40973052 C14.8957645,4.68048755 13.7878496,4.9916598 14.0074084,5.72611611 Z" id="Path" stroke="#000000" stroke-width="0.5" fill="#1F2A3B"></path>
                    </g>
                </g>
                <path d="M43.56,62 L55.44,62 C54.862016,63.0731707 54.1151594,63.6097561 53.1994303,63.6097561 C51.8258367,63.6097561 47.3979866,63.6097561 45.936,63.6097561 C44.9613423,63.6097561 44.1693423,63.0731707 43.56,62 Z" id="Path-3" fill="#1F2A3B"></path>
            </g>
            <g id="Group" transform="translate(9.000000, 3.045455)" fill="#8DA4FA" fill-rule="nonzero">
                <path d="M7.23338352,7.30909091 C7.32338703,7.30909091 7.39976021,7.37369625 7.41533774,7.46288207 L7.41533774,7.46288207 L7.72061409,9.2141871 C8.09598933,9.31772967 8.45621974,9.46869299 8.79438199,9.66316159 L8.79438199,9.66316159 L10.2279476,8.62599572 C10.3012918,8.57248423 10.4023294,8.58031518 10.4665867,8.64579063 L10.4665867,8.64579063 L11.5764859,9.76039589 C11.6400941,9.82434865 11.6487483,9.92441079 11.5970395,9.9985873 L11.5970395,9.9985873 L10.5769276,11.4616698 C10.7666706,11.7992708 10.9148735,12.159277 11.0180746,12.5336399 L11.0180746,12.5336399 L12.7679507,12.8212098 C12.8570888,12.8364367 12.9226442,12.9140936 12.9230769,13.0045846 L12.9230769,13.0045846 L12.9230769,14.5823036 C12.9230769,14.6723595 12.8583869,14.7500164 12.7698979,14.7652433 L12.7698979,14.7652433 L11.0191564,15.0736957 C10.917037,15.4482761 10.7694832,15.8089349 10.5788748,16.147841 L10.5788748,16.147841 L11.6136989,17.5930864 C11.6664894,17.6668279 11.6587006,17.7684127 11.5944433,17.8332356 L11.5944433,17.8332356 L10.4854096,18.9493635 C10.4213686,19.0133163 10.3218455,19.0220173 10.2485013,18.9704636 L10.2485013,18.9704636 L8.7971946,17.9456967 C8.45989777,18.1401653 8.10010006,18.2919988 7.72450847,18.397064 L7.72450847,18.397064 L7.41555409,20.1498917 C7.39997656,20.238425 7.32317068,20.3030303 7.23359987,20.3030303 L7.23359987,20.3030303 L5.66394721,20.3030303 C5.57372734,20.3030303 5.49648875,20.2369023 5.48177663,20.147934 L5.48177663,20.147934 L5.19294323,18.4031547 C4.81713528,18.2993946 4.45539038,18.1493014 4.11571365,17.956138 L4.11571365,17.956138 L2.67500834,18.9706811 C2.60058235,19.0222349 2.5017083,19.0135338 2.4383164,18.9495811 L2.4383164,18.9495811 L1.32841728,17.8334531 C1.26437631,17.7686302 1.25615484,17.667698 1.30894536,17.593739 L1.30894536,17.593739 L2.3277592,16.1611102 C2.13325641,15.8172009 1.98224089,15.4519741 1.87839068,15.0723905 L1.87839068,15.0723905 L0.152746351,14.7654608 C0.0642573177,14.7495814 0,14.672577 0,14.5825211 L0,14.5825211 L0,13.0048021 C0,12.9140936 0.0653390908,12.8364367 0.154260834,12.8212098 L0.154260834,12.8212098 L1.88055423,12.5329874 C1.98483715,12.1534038 2.13585266,11.7883945 2.33035545,11.4451378 L2.33035545,11.4451378 L1.32409018,9.99880482 C1.27281414,9.92462832 1.28146833,9.82456618 1.34507658,9.76061342 L1.34507658,9.76061342 L2.45475935,8.64600815 C2.5183676,8.58053271 2.6189725,8.57270176 2.69296577,8.62621325 L2.69296577,8.62621325 L4.122637,9.6525028 C4.46123196,9.46020946 4.82211144,9.31163893 5.19856845,9.20831389 L5.19856845,9.20831389 L5.48156028,7.46505734 C5.49583968,7.37500141 5.57307828,7.30909091 5.66373085,7.30909091 L5.66373085,7.30909091 Z M6.46143028,11.7920924 C5.35672367,11.7920924 4.45755393,12.6956971 4.45755393,13.8061694 C4.45755393,14.9172942 5.35672367,15.8208989 6.46143028,15.8208989 C7.56635325,15.8208989 8.46487393,14.9170767 8.46487393,13.8061694 C8.46487393,12.6954796 7.5661369,11.7920924 6.46143028,11.7920924 Z" id="Shape"></path>
                <path d="M14.8324202,0.0140346836 C14.9158046,-0.0207172845 15.0110701,0.0109938864 15.0588109,0.0878826158 L15.0588109,0.0878826158 L15.7494322,1.21037118 C16.0302603,1.17996321 16.3130327,1.18213521 16.5936448,1.21623558 L16.5936448,1.21623558 L17.2890186,0.0954846088 C17.3367594,0.0192474788 17.4311608,-0.0148528899 17.5169214,0.0229398754 L17.5169214,0.0229398754 L18.6227363,0.488399048 C18.7052566,0.523368216 18.7510532,0.612420134 18.7311792,0.700820453 L18.7311792,0.700820453 L18.4386859,1.99728606 C18.6620523,2.1775619 18.8610082,2.37955771 19.0325294,2.60066711 L19.0325294,2.60066711 L20.3189384,2.30071418 C20.4077233,2.27682221 20.4973723,2.32677816 20.5315038,2.41083448 L20.5315038,2.41083448 L20.9862294,3.52615546 C21.0201448,3.60956018 20.9896857,3.70512809 20.9138621,3.75378085 L20.9138621,3.75378085 L19.7896854,4.4653274 C19.8203604,4.74573234 19.8192803,5.02852648 19.7866611,5.30806262 L19.7866611,5.30806262 L20.9108378,6.01504797 C20.9877415,6.06304913 21.0179846,6.16013744 20.9832051,6.24419376 L20.9832051,6.24419376 L20.5211347,7.35495354 C20.4863552,7.43770667 20.3967062,7.48179822 20.3102976,7.46442224 L20.3102976,7.46442224 L19.0133035,7.16968211 C18.838542,7.38970551 18.639586,7.58909493 18.4192439,7.76372357 L18.4192439,7.76372357 L18.7184339,9.06018917 C18.73874,9.14858949 18.6927273,9.23916181 18.6089109,9.27391378 L18.6089109,9.27391378 L17.5007198,9.73177096 C17.4778215,9.74111055 17.4538431,9.74545455 17.4305128,9.74545455 C17.3689466,9.74545455 17.3091086,9.71439497 17.2745451,9.65857463 L17.2745451,9.65857463 L16.5675062,8.53043886 C16.2886222,8.56367043 16.0039057,8.56432203 15.7237256,8.53109046 L15.7237256,8.53109046 L15.0065337,9.65075543 C14.9583608,9.72590656 14.8626632,9.75718333 14.780575,9.72091097 L14.780575,9.72091097 L13.6754081,9.25718939 C13.5920238,9.22243743 13.5457952,9.13186511 13.5669653,9.04346479 L13.5669653,9.04346479 L13.8683155,7.75568717 C13.6464612,7.57823494 13.4466412,7.37667352 13.2714476,7.15360933 L13.2714476,7.15360933 L11.9856867,7.43553467 C11.8975498,7.45291065 11.809197,7.40795029 11.7754976,7.32454557 L11.7754976,7.32454557 L11.3214201,6.20770419 C11.2872886,6.12364787 11.3186118,6.02742836 11.3952995,5.9794272 L11.3952995,5.9794272 L12.5091072,5.28808024 C12.4767039,5.0015937 12.477568,4.71467277 12.5112674,4.43361622 L12.5112674,4.43361622 L11.4086928,3.71750848 C11.3337333,3.66885573 11.3041383,3.57328781 11.3387018,3.48988309 L11.3387018,3.48988309 L11.8007721,2.37912331 C11.8353356,2.29571859 11.9243365,2.24728303 12.0133375,2.27052341 L12.0133375,2.27052341 L13.2870012,2.57351713 C13.4662992,2.34806374 13.6689275,2.14606793 13.8912138,1.97143929 L13.8912138,1.97143929 L13.6127619,0.680186472 C13.593752,0.592220553 13.6401966,0.503168634 13.723365,0.469068266 L13.723365,0.469068266 Z M16.1579291,3.38128319 C15.5565248,3.38128319 15.0181988,3.74096606 14.7861916,4.29808355 C14.4701519,5.05893445 14.8278837,5.93642164 15.5839596,6.25461935 C15.767362,6.33129088 15.9602693,6.37060405 16.156849,6.37060405 C16.7586854,6.37060405 17.2965793,6.01026958 17.5285866,5.45315209 C17.8450583,4.69360439 17.4871104,3.81611719 16.7312506,3.49726788 C16.5478482,3.42037915 16.3549409,3.38128319 16.1579291,3.38128319 Z" id="Shape"></path>
            </g>
        </g>
    </g>
</svg>