<?xml version="1.0" encoding="UTF-8"?>
<svg width="170px" height="170px" viewBox="0 0 170 170" version="1.1" xmlns="http://www.w3.org/2000/svg" xmlns:xlink="http://www.w3.org/1999/xlink">
    <title>Illustrations/Light/170px/matching</title>
    <g id="Illustrations/Light/170px/matching" stroke="none" stroke-width="1" fill="none" fill-rule="evenodd">
        <path d="M139.738717,112.347826 C139.738717,113.800575 138.451935,114.978261 136.864608,114.978261 L63.9667458,114.978261 C63.2738041,114.97053 62.6095409,115.231077 62.1377672,115.695652 L45.6769596,130.473913 L45.6769596,117.130435 C45.6769596,115.809754 44.5071573,114.73913 43.064133,114.73913 L32.8741093,114.73913 C31.3834626,114.744779 30.1355017,113.706455 30,112.347826 L30,50.4130435 C30,48.9602945 31.2867825,47.7826087 32.8741093,47.7826087 L137.125891,47.7826087 C138.713217,47.7826087 140,48.9602945 140,50.4130435 L139.738717,112.347826 Z" id="Path" stroke="#000000" stroke-width="2" fill-rule="nonzero"></path>
        <g id="Group" transform="translate(50.000000, 60.000000)">
            <path d="M35.0008044,6.2044741 C38.8119608,9.95800928 41.1764706,15.1883508 41.1764706,20.9734633 C41.1764706,26.7585759 38.8119608,31.9889174 35.0008044,35.7424526 C31.1880392,31.9889174 28.8235294,26.7585759 28.8235294,20.9734633 C28.8235294,15.262337 31.1279461,10.0918824 34.8536839,6.34920946 Z" id="Combined-Shape" fill="#8DA4FA"></path>
            <path d="M49.4117647,0 C60.7823331,0 70,9.2595654 70,20.6818182 C70,32.104071 60.7823331,41.3636364 49.4117647,41.3636364 C43.8006364,41.3636364 38.7137844,39.1087396 35.0001971,35.4517938 C31.2871303,39.1083342 26.1998681,41.3636364 20.5882353,41.3636364 C9.21766692,41.3636364 0,32.104071 0,20.6818182 C0,9.2595654 9.21766692,0 20.5882353,0 C26.1998681,0 31.2871303,2.25530218 35.0008044,5.91282894 C38.7137844,2.25489672 43.8006364,0 49.4117647,0 Z" id="Combined-Shape" stroke="#000000" stroke-width="2"></path>
        </g>
    </g>
</svg>