<?xml version="1.0" encoding="UTF-8"?>
<svg width="1194px" height="320px" viewBox="0 0 1194 320" version="1.1" xmlns="http://www.w3.org/2000/svg" xmlns:xlink="http://www.w3.org/1999/xlink">
    <defs>
        <filter x="-672.5%" y="-1212.2%" width="1445.0%" height="2524.3%" filterUnits="objectBoundingBox" id="filter-1">
            <feGaussianBlur stdDeviation="10" in="SourceGraphic"></feGaussianBlur>
        </filter>
        <filter x="-672.5%" y="-1212.2%" width="1445.0%" height="2524.3%" filterUnits="objectBoundingBox" id="filter-2">
            <feGaussianBlur stdDeviation="10" in="SourceGraphic"></feGaussianBlur>
        </filter>
    </defs>
    <g id="illus-light" stroke="none" stroke-width="1" fill="none" fill-rule="evenodd">
        <g id="illustrations/full/screening_now" transform="translate(0.000000, 1.000000)">
            <g id="woman-sitting-laptop" transform="translate(417.664069, 45.000000)">
                <path d="M133.51557,93 C161.686502,93 199.335931,155.619397 199.335931,157.259295 C199.335931,158.899192 194.614489,163.073475 192.253768,165.45878 C189.170585,165.45878 149.847282,132.501474 133.235744,132.501474 C125.94842,132.501474 82.1289621,172.359914 54.2916677,174.875691 C52.8102529,168.626709 51.0352142,161.361987 49.1719367,154.085656 L48.5946203,151.841949 C45.9515565,141.619841 43.1753893,131.578777 40.8329295,124.50936 C72.3470935,115.299103 125.414464,92.9923764 133.51557,93 Z" id="Path-3" stroke="#414D86" fill-rule="nonzero"></path>
                <path d="M46.2713613,41.0100141 C50.5999695,41.127177 73.1340459,40.459858 79.3105395,46.3791303 C83.8922828,50.7650972 98.1387197,88.5322961 100.335931,101.792077 C92.7268628,105.680925 48.0843523,110.722719 19.2133892,108 C11.7787418,107.298865 5.01365353,112.306585 0.639658126,109.311687 C3.46883842,87.5 3.57898899,69.5 16.082483,45.1158089 C21.190747,41.6926152 42.1098221,40.8979453 46.2713613,41.0100141 Z" id="Path" stroke="#414D86" fill="#414D86" fill-rule="nonzero"></path>
                <path d="M68.8959314,32 C69.1881326,30.5771857 69.3359314,29.1256236 69.3359314,27.6698859 C69.3359314,16.8077261 61.2809314,8 51.3359314,8 C41.3909314,8 33.3359314,16.8077261 33.3359314,27.6698859 C33.3359314,29.1256236 33.4837301,30.5771857 33.7759314,32 L68.8959314,32 Z" id="Path" fill="#414D86" fill-rule="nonzero"></path>
                <path d="M55.6238192,31.0877329 L42.6613128,31.0877329 L42.6613128,45.3352657 C42.6613128,48.9035208 55.6238192,48.8729358 55.6238192,45.3352657 L55.6238192,31.0877329 Z" id="Path" stroke="#414D86" fill="#D6DFFF" fill-rule="nonzero"></path>
                <path d="M64.468237,18.2675022 C62.2695965,17.9259692 60.0759416,16.1571341 58.5453687,15 C49.8206048,21.5350043 44.2317703,21.6267594 43.6285152,21.6267594 C43.0252601,21.6267594 40.5673695,25.2357946 39.435643,25.6435952 L39.3359314,25.5824251 C40.2602094,30.7556914 43.9577324,34.9543733 48.8930854,36.4349473 C53.8284385,37.9155213 59.1585386,36.4250678 62.6700352,32.5825051 C66.1815317,28.7399425 67.2745723,23.2016774 65.4952664,18.2675022 C65.1542324,18.3107926 64.809271,18.3107926 64.468237,18.2675022 Z" id="Path" stroke="#414D86" fill="#D6DFFF" fill-rule="nonzero"></path>
                <circle id="Oval" fill="#414D86" fill-rule="nonzero" cx="41.8359314" cy="5.5" r="5.5"></circle>
                <path d="M44.3359314,22 C42.656613,22.0631847 41.3359314,23.1637527 41.3359314,24.5 C41.3359314,25.8362473 42.656613,26.9368153 44.3359314,27" id="Path" stroke="#414D86" stroke-linecap="round"></path>
                <path d="M60.3359314,22 C61.4263343,22.8684864 64.2314168,24.3870968 60.3359314,26" id="Path" stroke="#414D86" stroke-linecap="round"></path>
                <path d="M53.3359314,27 C53.3359314,27.7485714 53.6682756,29.5371429 55.3359314,30" id="Path" stroke="#414D86" stroke-linecap="round"></path>
                <ellipse id="Oval" fill="#FF746C" fill-rule="nonzero" cx="49.3359314" cy="25.5" rx="2" ry="1.5"></ellipse>
                <ellipse id="Oval" fill="#FF746C" fill-rule="nonzero" cx="66.3359314" cy="26.5" rx="2" ry="1.5"></ellipse>
                <path d="M79.3359314,81.6159453 L93.4035798,78 C94.7551675,80.280827 101.335931,102.856463 101.335931,102.856463 L79.6194104,112 C79.9028895,107.721553 80.7583888,88.1701621 79.3359314,81.6159453 Z" id="Path" stroke="#414D86" fill="#D6DFFF" fill-rule="nonzero"></path>
                <path d="M4.23774146,83 C5.91363543,83.2102 10.5668438,84.2867491 15.2767702,85.432735 L16.0204883,85.6141409 L16.0204883,85.6141409 L16.7625943,85.7960039 C22.3159565,87.1599469 27.5177299,88.5036277 27.5177299,88.5036277 C26.6003169,91.9798725 22.1247607,106.80639 23.9697239,109.355977 C25.814687,111.905565 71.2291649,106.110117 83.3886886,102.290855 C86.4855911,101.266924 88.7816579,98.5791061 90.1552431,98.2360893 C93.798288,97.6153282 97.3211327,99.8596856 98.3359314,103.447897 C95.3436254,104.911801 67.5709281,119.203773 41.3793962,126.191673 C39.4677623,120.220477 37.8023261,115.994357 36.6678662,114.910663 C31.8820319,110.338993 20.7989859,112.297421 17.1362867,113.187629 C16.6595218,112.678982 16.1742942,112.259339 15.6812924,111.930469 C14.53372,111.174947 8.51522282,110.404422 6.21724894e-14,109.703868 C1.28697972,98.0059625 4.03573432,84.1389845 4.23774146,83 Z" id="Path-6" stroke="#414D86" fill="#D6DFFF" fill-rule="nonzero"></path>
                <path d="M30.3359314,79 C30.3359314,80.66787 28.4492647,87.0166968 27.3359314,90" id="Path" stroke="#121424" stroke-linecap="round"></path>
                <path d="M79.3359314,82 C79.0384181,79.396141 77.2977431,64.722977 74.3359314,57" id="Path" stroke="#121424" stroke-linecap="round"></path>
            </g>
            <g id="Group-3" transform="translate(534.000000, 0.000000)">
                <path d="M270,0 C271.104569,-2.02906125e-16 272,0.8954305 272,2 L272,148 C272,149.104569 271.104569,150 270,150 L42.0210396,150.000382 C33.6867652,142.902702 25.0621489,138 17.179639,138 C14.7920134,137.997753 8.49840298,139.933837 0.00180680101,142.901683 L0,2 C-1.3527075e-16,0.8954305 0.8954305,2.02906125e-16 2,0 L270,0 Z" id="Rectangle-2" stroke="#414D86" fill-rule="nonzero"></path>
                <path d="M264,6 C265.104569,6 266,6.8954305 266,8 L266,142 C266,143.104569 265.104569,144 264,144 L34.3118089,143.999947 C28.5954441,140.287669 22.8961795,138 17.5412894,138 C15.7215718,137.998278 11.6204675,139.134941 6.00023686,141.002007 L6,8 C6,6.8954305 6.8954305,6 8,6 L264,6 Z" id="Rectangle-2" stroke="#414D86" fill-rule="nonzero"></path>
                <g id="Group-4-Copy" transform="translate(193.000000, 26.000000)" fill="#FF746C" fill-rule="nonzero" stroke="#FF746C" stroke-linejoin="round" stroke-width="0.8">
                    <polygon id="Path" points="0 24 0 0 15 12"></polygon>
                </g>
                <g id="Group-4" transform="translate(64.000000, 26.000000)" fill="#414D86" fill-rule="nonzero" stroke="#414D86" stroke-linejoin="round" stroke-width="0.8">
                    <polygon id="Path" points="0 24 0 0 15 12"></polygon>
                </g>
                <line x1="6.5" y1="75.5" x2="265.5" y2="75.5" id="Line" stroke="#414D86" stroke-linecap="square"></line>
                <rect id="Rectangle" stroke="#404B8A" stroke-linecap="round" stroke-linejoin="round" x="15" y="84" width="112" height="51"></rect>
                <line x1="136.5" y1="6.5" x2="136.5" y2="74.5" id="Line-2" stroke="#414D86" stroke-linecap="square"></line>
                <line x1="145" y1="85" x2="189" y2="85" id="Line-2" stroke="#404B8A" stroke-width="3" stroke-linecap="round" stroke-linejoin="round"></line>
                <line x1="144.966102" y1="93.5" x2="257.033898" y2="93.5" id="Line-2-Copy" stroke="#404B8A" stroke-width="1.5" stroke-linecap="round" stroke-linejoin="round"></line>
                <line x1="144.966102" y1="99" x2="257.033898" y2="99" id="Line-2-Copy-2" stroke="#404B8A" stroke-width="1.5" stroke-linecap="round" stroke-linejoin="round"></line>
                <line x1="144.966102" y1="104.5" x2="257.033898" y2="104.5" id="Line-2-Copy-3" stroke="#404B8A" stroke-width="1.5" stroke-linecap="round" stroke-linejoin="round"></line>
                <line x1="144.966102" y1="110" x2="257.033898" y2="110" id="Line-2-Copy-4" stroke="#404B8A" stroke-width="1.5" stroke-linecap="round" stroke-linejoin="round"></line>
                <line x1="145" y1="116" x2="184" y2="116" id="Line-2-Copy-5" stroke="#404B8A" stroke-width="1.5" stroke-linecap="round" stroke-linejoin="round"></line>
            </g>
            <g id="man-sitting-laptop" transform="translate(324.000000, 45.000000)">
                <path d="M74.3103049,105.712159 L83,102.665012 C82.6254878,87.146402 78.9259146,52.471464 73.667561,47.3151365 C72.4377439,46.1042184 48.0134756,44 43.6509146,44 C17.647622,44 9.9397561,46.9131514 7.97609756,48.8337469 C1.89786585,54.7841191 0,82.3870968 0,92.0496278 C0,101.712159 27.8353659,106.719603 27.8353659,106.719603 L60.4634756,108.923077 C60.4634756,108.923077 67.6247561,109.64268 73.8143293,110 C73.9459146,108.138958 74.3103049,105.712159 74.3103049,105.712159 Z" id="Path" stroke="#414D86" fill="#414D86" fill-rule="nonzero"></path>
                <path d="M110.740155,113.496111 C113.151145,112.80329 125.114121,109.926344 130.331935,114.910663 C135.549749,119.894983 152,191.355175 152,193 L138.762689,193 L120.883322,155.732242" id="Path" stroke="#414D86" fill-rule="nonzero"></path>
                <path d="M14.1151342,107.504892 C13.5279748,110.410573 10,113.529835 10,129.359592 C10,151.254029 28.1116088,151.710991 34.6205466,151.710991 C54.8800547,151.710991 87.6706483,145.750618 89.8837875,144.66285 C91.3541952,147.091702 118.41873,201.783091 118.539173,203 L131,203 C131,203 123.276596,121.223683 109.345361,111.930469 C104.818713,108.950282 24.5033387,105.736648 14.1151342,107.504892 Z" id="Path" stroke="#414D86" fill-rule="nonzero"></path>
                <path d="M86.6091109,92 C83.3704996,92 80.7072006,92.7586418 73.3868479,94.1780361 L73,108 C79.943424,105.239523 81.5602498,101.402264 83.5738428,101.402264 C88.6028655,101.402264 91.2314475,103.962068 94.202241,103.962068 C96.275349,103.962068 100,102.356684 100,100.173753 C100,95.6023249 90.6114989,92 86.6091109,92 Z" id="Path" stroke="#414D86" fill="#D6DFFF" fill-rule="nonzero"></path>
                <path d="M48.4226415,46.5829873 C48.4226415,48.4451455 37.6890566,48.4993353 37.6890566,46.5829873 L37.6890566,31.483741 L48.4226415,31.483741 L48.4226415,46.5829873 Z" id="Path" stroke="#414D86" fill="#D6DFFF" fill-rule="nonzero"></path>
                <ellipse id="Oval" stroke="#414D86" fill="#D6DFFF" fill-rule="nonzero" cx="47" cy="24.0548133" rx="13" ry="13.0548133"></ellipse>
                <path d="M60.1921422,13.3690683 C58.5460281,15.9974775 55.1032406,17.2032161 51.3743906,17.2032161 C48.1975911,17.2032161 43.5704044,16.2749488 40.2731574,18.1617531 C38.4965586,19.1707394 36.4539719,21.4661832 36.0374247,26.0621157 C36.0374247,26.849125 35.154144,29.9013085 35.154144,30.8850702 C35.154144,31.561091 34.4013479,32 33.1466877,32 C32.4992831,32 31.2245483,30.9405644 31.2245483,29.3312313 C31.2245483,27.4696516 31.9572699,26.8087656 31.9572699,25.229702 C31.9572699,23.6506385 30,22.1119344 30,17.7228441 C30,11.401545 34.0149125,7.50685795 36.8554631,7.50685795 C39.4400631,7.50685795 40.2581015,8.11224972 40.5843132,8.36954123 C40.5843132,2.62336434 48.1122742,0 51.1234586,0 C54.5361342,0 56.1420992,1.4125808 56.1420992,3.19848652 C56.1420992,6.05896264 54.7920849,8.48052972 54.1045311,9.02538231 C55.6592782,7.61877738 57.6788891,6.84374435 59.7705764,6.85101687 C63.6851161,6.85101687 65,9.43402176 65,11.1997478 C65,15.0439855 60.4129624,18.6006621 58.7066246,18.6006621 C58.2790273,17.6852097 57.7753779,16.8076443 57.2010324,15.9772978" id="Path" fill="#414D86" fill-rule="nonzero"></path>
                <circle id="Oval" fill="#6F7CBD" fill-rule="nonzero" cx="36.5" cy="25.5" r="2.5"></circle>
                <g id="Group-2" transform="translate(44.000000, 24.000000)" fill="#FF746C" fill-rule="nonzero">
                    <ellipse id="Oval" filter="url(#filter-1)" cx="2.23046058" cy="1.23744731" rx="2.23046058" ry="1.23744731"></ellipse>
                    <ellipse id="Oval" filter="url(#filter-2)" cx="16.2548634" cy="1.23744731" rx="2.23046058" ry="1.23744731"></ellipse>
                </g>
                <ellipse id="Oval" fill="#FF746C" fill-rule="nonzero" cx="60" cy="25.5" rx="2" ry="1.5"></ellipse>
                <ellipse id="Oval" fill="#FF746C" fill-rule="nonzero" cx="45" cy="25.5" rx="2" ry="1.5"></ellipse>
                <path d="M54,22 C54.636563,22.5756824 57.8814818,25.0124069 54.4502519,26" id="Path" stroke="#414D86" stroke-linecap="round"></path>
                <path d="M50,29 C49.1060948,29 47.731377,27.9517685 47,27" id="Path" stroke="#414D86" stroke-linecap="round"></path>
                <path d="M68,64 C68.8583691,66.1212225 73,86.5317651 73,93" id="Path" stroke="#121424" stroke-linecap="round"></path>
                <path d="M0,90 C0,113.254289 0.211661295,120 9.53987694,120 C31.0285379,120 63.5135072,102.34107 69.3039555,102.34107 C74.4140639,102.34107 77.0850278,104.979818 80.1087606,104.979818 C82.2102549,104.979818 86,103.319879 86,101.074672 C86,96.3622603 76.4601231,92.6488396 72.3932025,92.6488396 C63.2413712,92.6488396 26.6945209,101.48335 25.8075593,101.48335 C24.9205977,101.48335 23.4137709,101.094854 23.4137709,99.5913219 C23.4137709,96.8617558 25.1927337,90.5600404 25.4295927,90.0050454 L0,90 Z" id="Path" stroke="#414D86" fill="#D6DFFF" fill-rule="nonzero"></path>
                <path d="M31,70 C30.4847973,71.7470588 26.46875,89.8049774 26,92" id="Path" stroke="#121424" stroke-linecap="round"></path>
                <path d="M73,111 L73,109.831173 L97.676,109.831 L108.734186,80 L157,80 L145.508872,111 L73,111 Z" id="Combined-Shape" fill="#FF746C" fill-rule="nonzero"></path>
            </g>
            <g id="Group-5" transform="translate(1089.000000, 26.000000)">
                <g id="plant-3" transform="translate(29.909091, 29.909091)" fill-rule="nonzero" stroke="#414D86">
                    <path d="M16.4227444,8.46237854 C20.1693349,9.12362861 19.5008643,29.8934748 12.3093824,28.6369165 C5.51819414,27.4444683 11.851904,7.66191794 16.4227444,8.46237854 Z" id="Path" fill="#6F7CBD"></path>
                    <path d="M0.830608632,11.0906099 C3.53872485,9.48438879 14.8744838,24.4457281 9.68930096,27.521031 C4.79069127,30.427258 -2.46677361,13.0462546 0.830608632,11.0906099 Z" id="Path" fill="#6F7CBD"></path>
                    <path d="M7.97029023,38.8181818 C7.38604884,38.8180158 6.8953255,38.3833928 6.83082527,37.8089824 L5.94640964,29.9513848 C5.9104041,29.6307357 6.01411339,29.3100885 6.23159011,29.0696669 C6.44906683,28.8292453 6.75973759,28.6916996 7.08587459,28.6916996 L15.8236075,28.6916996 C16.1488663,28.6913875 16.4589098,28.8279341 16.6763225,29.0672459 C16.8937352,29.3065577 16.9979962,29.6260469 16.9630724,29.9459395 L16.1171894,37.8035371 C16.0544164,38.3803893 15.5623969,38.8178072 14.9758896,38.8181818 L7.97029023,38.8181818 Z" id="Path"></path>
                    <path d="M18.3134162,0.0440805632 C21.0461335,0.84348426 18.9517427,17.4695621 13.7185986,15.9334158 C8.7781782,14.4884129 14.9876974,-0.928115857 18.3134162,0.0440805632 Z" id="Path" fill="#6F7CBD"></path>
                    <path d="M22.6210092,13.7438092 C24.4704429,15.2702245 16.9469463,26.9314713 13.3923346,24.0024519 C10.0356123,21.248537 20.3628505,11.8866411 22.6210092,13.7438092 Z" id="Path" fill="#6F7CBD"></path>
                    <path d="M11.5090236,1.68774704 C15.6304758,1.68774704 19.4037167,27.0039526 11.5090236,27.0039526 C4.05387596,27.0039526 6.49135532,1.68774704 11.5090236,1.68774704 Z" id="Path" fill="#6F7CBD"></path>
                    <rect id="Rectangle" fill="#414D86" x="4.24242424" y="27.0039526" width="15.2727273" height="2.53162055" rx="1.26581028"></rect>
                </g>
                <g id="plant-4" transform="translate(45.818182, 0.000000)" stroke="#414D86">
                    <path d="M18.6666667,46.5243902 L18.6666667,46.1777107 L17.867095,45.1376722 L16.0347433,42.7975855 L14.0691296,40.3222938 C14.0691296,40.3222938 12.17681,38.9598433 11.690404,38.7241013 C9.91802011,37.8712697 8.17228865,37.2195122 6.08673925,37.2195122 C4.80409305,37.2195122 0.00999464573,37.4205863 0,38.2595507 C0,39.5041302 6.71307038,44.2155047 11.6370992,46.5035895 C13.7826165,46.5243902 18.6666667,46.5243902 18.6666667,46.5243902 Z" id="Path" fill="#6F7CBD" fill-rule="nonzero"></path>
                    <path d="M18.3759955,46.5243902 C11.3141778,41.0458172 -3.0986788,11.0962845 0.595777759,0 C8.46672621,4.05240483 17.102045,18.025375 21.1752436,29.8243082 C21.3908474,30.5918569 21.5632786,31.3711183 21.69171,32.1583542 L23.3444026,39.8109642 L23.7575758,46.5243902 L18.3759955,46.5243902 Z" id="Path" fill="#6F7CBD" fill-rule="nonzero"></path>
                    <path d="M23.4823452,46.5243902 C21.1351709,44.5893199 20.3855675,38.8598591 20.3652163,36.7216408 C20.3279057,32.7309887 20.9316586,29.7905082 24.2930022,25.4004465 C27.6543458,21.0103848 26.7487164,13.7246041 31.2259854,8.81462139 C35.7032543,3.9046387 38.6473979,2.53769401 43.9454995,2.53769401 C49.2436011,2.53769401 50.9225769,11.25584 50.9090909,13.4491492 C50.8479558,22.2912499 45.3565176,23.5411263 42.0121333,27.765915 C39.5801622,30.8303502 39.3902175,33.3369893 38.6541816,34.7693546 C34.6992607,42.4786471 31.497335,45.3915822 29.1230257,46.5243902" id="Path" fill="#6F7CBD" fill-rule="nonzero"></path>
                    <path d="M24.6060606,45.6784922 C24.6724192,30.4797156 39.9979317,7.65207558 43.2727273,4.22949002" id="Path" stroke-width="0.4" stroke-linecap="round" stroke-linejoin="round"></path>
                    <path d="M25.4545455,38.9113082 C23.5550065,36.8756377 21.8264632,31.1048591 22.086674,29.6064302" id="Path" stroke-width="0.4" stroke-linecap="round" stroke-linejoin="round"></path>
                    <path d="M21.2121212,44.8325942 C18.7296328,40.4458428 6.95152851,19.1056273 2.54545455,3.38359202" id="Path" stroke-width="0.4" stroke-linecap="round" stroke-linejoin="round"></path>
                    <polyline id="Path" fill-rule="nonzero" points="28.238434 46.5243902 35.6363636 46.5243902 29.4427481 69.3636364 12.8817083 69.3636364 6.78787879 46.5243902 28.238434 46.5243902"></polyline>
                    <path d="M2.54545455,38.9113082 C6.04644937,39.1533135 10.4518957,39.3146503 13.5757576,41.4490022" id="Path" stroke-width="0.4" stroke-linecap="round" stroke-linejoin="round"></path>
                </g>
                <g id="bookshelf-copy" transform="translate(0.000000, 67.454545)" fill="#414D86" fill-rule="nonzero">
                    <rect id="Rectangle" x="0" y="0.186136364" width="105" height="2.8175" rx="1.23"></rect>
                    <rect id="Rectangle" x="25.4032258" y="1.59488636" width="9.51774194" height="4.3575" rx="2.17875"></rect>
                    <rect id="Rectangle" x="69.2407258" y="1.59488636" width="9.51774194" height="4.3575" rx="2.17875"></rect>
                </g>
            </g>
            <g id="bookshelf" transform="translate(0.000000, 8.000000)" fill-rule="nonzero">
                <rect id="Rectangle" fill="#414D86" x="0" y="63.94" width="148.46" height="3.22" rx="1.23"></rect>
                <rect id="Rectangle" stroke="#414D86" x="51.47" y="0" width="13.99" height="63.94" rx="2.56"></rect>
                <rect id="Rectangle" stroke="#414D86" x="65.46" y="14.99" width="7" height="48.95" rx="2.13"></rect>
                <rect id="Rectangle" stroke="#414D86" x="72.46" y="14.99" width="7" height="48.95" rx="2.06"></rect>
                <rect id="Rectangle" stroke="#414D86" transform="translate(91.512228, 41.306093) rotate(-24.660000) translate(-91.512228, -41.306093) " x="88.0122285" y="16.8310932" width="7" height="48.95" rx="2.2"></rect>
                <circle id="Oval" fill="#6F7CBD" cx="58.46" cy="43.85" r="3.91"></circle>
                <rect id="Rectangle" fill="#6F7CBD" x="53.99" y="50.09" width="8.96" height="1.88" rx="0.94"></rect>
                <rect id="Rectangle" fill="#6F7CBD" x="53.99" y="54.91" width="8.96" height="1.88" rx="0.94"></rect>
                <rect id="Rectangle" fill="#6F7CBD" x="68.23" y="21.65" width="1.46" height="35.62" rx="0.73"></rect>
                <rect id="Rectangle" fill="#414D86" x="30.23" y="65.55" width="11.24" height="4.98" rx="2.49"></rect>
                <rect id="Rectangle" fill="#414D86" x="106.99" y="65.55" width="11.24" height="4.98" rx="2.49"></rect>
            </g>
            <g id="woman-writing" transform="translate(789.000000, 0.000000)">
                <path d="M147.619104,311.016898 C147.681966,312.039396 148.317573,315.79748 147.514334,316.854522 C146.040564,318.768252 133.167782,318.671529 132.532176,318.118827 C131.896569,317.566125 131.463518,316.336364 131.980385,315.949473 C132.497252,315.562581 137.533213,314.236097 138.189774,313.724848 C138.846335,313.213599 139.656558,311.716813 139.216523,310.38342 L147.619104,311.016898 Z" id="Path" fill="#414D86" fill-rule="nonzero"></path>
                <path d="M84.481383,141.513424 C82.3246343,146.469025 63.4430914,201.204266 63.8620777,209.076154 C64.2810639,216.948042 106.193423,298.061202 108.50815,298.917296 C110.822877,299.77339 120.438954,296.780541 121.215109,294.650746 C121.866243,292.864013 111.147614,258.507349 107.43029,240.166658" id="Path" stroke="#414D86" fill-rule="nonzero"></path>
                <path d="M84.481383,141.513424 C85.5678234,147.328305 103.191778,228.351029 103.191778,228.351029 L136.2732,309.100945 C139.023682,310.452437 147.116976,310.597983 148.533474,310.168277 C149.949972,309.738572 143.149405,232.412436 140.460809,221.454954 C138.302193,212.657426 133.217194,160.316761 131.33516,140.642487" id="Path" stroke="#414D86" fill-rule="nonzero"></path>
                <path d="M120.749409,295.834197 C121.129733,296.807761 123.253606,301.581826 122.795808,302.868068 C121.971772,305.198937 109.590101,309.093194 108.808324,308.744985 C108.026546,308.396776 107.223639,307.323723 107.59692,306.79075 C107.970202,306.257777 112.400276,303.401041 112.879203,302.69041 C113.35813,301.979779 113.724368,299.69122 112.879203,298.518679 L120.749409,295.834197 Z" id="Path" fill="#414D86" fill-rule="nonzero"></path>
                <path d="M109.119171,42.0310881 C109.119171,47.7643711 109.119171,51.5363918 109.119171,53.3471503 L97.8031088,53.3471503 L97.8031088,42.8874689" id="Path" stroke="#414D86" fill="#D6DFFF" fill-rule="nonzero"></path>
                <path d="M123.49182,0 C126.85482,0 129.581069,3.23570777 129.581069,7.22715558 C129.581069,10.7186788 127.494972,13.6319178 124.721384,14.3069054 C125.242162,14.5905819 125.682866,14.9073879 126.029582,15.2588698 C135.042775,24.4072558 133.62218,42.3849787 135.387579,48.4954624 C136.825635,53.480243 140.71022,61.9239447 144.724786,70.8054186 L145.260629,71.9919441 L145.260629,71.9919441 L146.119351,73.8999145 C151.168842,85.1500808 156,96.5400946 156,102.054095 C156,127.252038 147.391656,137.836145 133.482237,138.217617 C130.886732,131.899768 128.593375,121.211301 126.602165,106.152216 C124.129049,87.4485866 120.282102,73.5559743 115.061323,64.4743793 L114.807632,64.038702 C114.808307,64.0286383 114.808457,64.025466 114.808588,64.0216373 L114.808518,63.9691276 C114.798025,63.6068009 114.574599,61.778228 111.48998,57.2977276 C109.592345,54.541357 109.523996,47.9712748 109.593607,42.1075744 C107.694404,43.273886 105.461434,43.9455449 103.07249,43.9455449 C96.1446341,43.9455449 90.5284974,38.2970301 90.5284974,31.3292339 C90.5284974,28.1161774 91.7227152,25.1836535 93.6890819,22.9561642 C93.2443856,21.3616973 93.0980019,15.8842478 97.652161,13.9688017 C101.205035,12.4744889 112.115847,11.5167472 119.561616,12.7458985 C118.240614,11.4208387 117.40257,9.44015366 117.40257,7.22715558 C117.40257,3.23570777 120.12882,0 123.49182,0 Z" id="Oval-2" stroke="#414D86" fill="#D6DFFF" fill-rule="nonzero"></path>
                <ellipse id="Oval" fill="#FF6E61" fill-rule="nonzero" cx="104.056995" cy="32.7357513" rx="2.02072539" ry="1.21243523"></ellipse>
                <ellipse id="Oval" fill="#FF6E61" fill-rule="nonzero" cx="90.1243523" cy="32.7357513" rx="2.02072539" ry="1.21243523"></ellipse>
                <path d="M95.3782383,30.7150259 C94.8661145,31.3006386 92.242603,33.7587661 95.0098686,34.7564767" id="Path" stroke="#414D86" stroke-linecap="round"></path>
                <path d="M98.611399,37.1813472 C99.602744,36.9320096 100.463885,36.3579153 101.036269,35.5647668" id="Path" stroke="#414D86" stroke-linecap="round"></path>
                <path d="M123.21777,0 C126.60912,0 129.358353,3.23570777 129.358353,7.22715558 C129.358353,10.718585 127.254782,13.6317612 124.457925,14.3068509 C124.983241,14.5908483 125.427434,14.9075356 125.776926,15.2588698 C134.866101,24.4072558 133.43353,42.3849787 135.213813,48.4954624 C136.728444,53.7017888 140.934405,62.6813285 145.170094,71.9919441 L145.747622,73.2633024 C145.940026,73.687557 146.132242,74.1121724 146.324019,74.5368253 L146.897785,75.8105732 L146.897785,75.8105732 L147.46742,77.0826067 C152.003978,87.2468437 156,97.0602833 156,102.054095 C156,127.252038 147.319086,137.836145 133.292408,138.217617 C130.675023,131.899768 128.362332,121.211301 126.354336,106.152216 C123.820146,87.1469152 119.855492,73.1090771 114.460373,64.038702 L114.460373,64.038702 L114.461337,64.0216373 C114.467801,63.8340309 114.428242,62.0704346 111.114752,57.2977276 C107.598395,52.2328142 110.310723,34.2908418 108.669525,31.5165019 C106.645845,28.0832562 99.9836943,20.60641 97.5427603,20.3081685 C97.076827,20.2457458 94.4689916,22.271014 93.2798186,23.2697764 C92.7721599,22.2918215 92.1880048,16.0426208 97.1602777,13.9688017 C100.743134,12.4744758 111.746088,11.5167304 119.254631,12.7459308 C117.922271,11.4207814 117.077186,9.44012164 117.077186,7.22715558 C117.077186,3.23570777 119.826419,0 123.21777,0 Z" id="Path-5" stroke="#414D86" fill="#414D86" fill-rule="nonzero"></path>
                <path d="M92.6581187,55.8076595 C95.9117566,52.7588284 99.9623992,51.2397393 104.975606,51.8719501 C108.292161,52.2968769 111.332322,54.6504777 114.086639,58.3099249 C125.466906,69.4820511 134.668709,113.444544 135.401402,118.089893 C138.386664,137.016733 123.31304,159.233161 123.31304,159.233161 C123.31304,159.233161 118.210026,155.220959 116.267678,153.765143 C116.695943,153.090784 117.989757,145.73973 119.167359,138.117451 C105.467776,141.284032 86.0304198,144.169842 83.9648329,141.867852 C82.2501652,139.956944 78.7065505,111.677139 81.3964608,87.2973216 C79.0741824,88.2225544 76.1282754,89.2764039 72.959922,90.342607 L71.9558511,90.6784521 C70.608531,91.1264337 69.2294446,91.5744573 67.8482195,92.0139884 L66.8123626,92.341911 L66.8123626,92.341911 L65.7784813,92.6658488 C57.8667295,95.1320524 50.3740512,97.1763887 48.9329545,97.1763887 C47.3978732,97.1763887 37.7441561,88.8827237 28.2180105,80.3141921 L27.052742,79.2641556 C17.5507483,70.6865449 8.51290585,62.1613654 8.18542184,61.7074155 C7.51708711,60.7809871 10.267006,57.9390113 12.0701174,56.1349138 C12.9601165,56.7111105 20.5490601,61.0402136 28.6577562,65.4672093 L29.6952562,66.0326078 L29.6952562,66.0326078 L31.255845,66.8790034 C39.5785853,71.3792166 47.7577993,75.5759791 49.2114273,75.5759791 C50.7256232,75.5759791 60.2946448,71.2381348 70.1760781,66.5772596 L71.3628542,66.016661 C80.4653695,61.7107905 89.5701829,57.2674321 92.6483694,55.8128728 Z" id="Combined-Shape" fill="#414D86" fill-rule="nonzero"></path>
                <path d="M5.71948568,62.238342 C8.99170211,62.238342 12.1243523,59.6434965 12.1243523,56.9105817 C12.1243523,54.1776668 9.19708839,51.7305699 5.92487196,51.7305699 C2.65265553,51.7305699 0,53.9460352 0,56.67895 C0,59.4118648 2.44726925,62.238342 5.71948568,62.238342 Z" id="Oval" stroke="#414D86" fill="#D6DFFF" fill-rule="nonzero"></path>
                <path d="M105.07772,89.7202073 C107.006005,92.1465594 121.243523,117.988252 121.243523,121.874587 C121.243523,123.800373 120.199899,131.545234 119.052604,139.025907" id="Path" stroke="#121424" stroke-linecap="round" stroke-linejoin="round"></path>
                <path d="M88.1036269,63.8549223 C85.1628389,70.0815746 82.6743952,78.6506336 81.6373057,87.2953368" id="Path" stroke="#000000" stroke-linecap="round" stroke-linejoin="round"></path>
                <path d="M111.544041,54.1554404 C117.72002,61.0070865 118.678842,63.1751969 124.647187,74.8421469 C130.615532,86.509097 129.44326,87.6266631 131.954452,99.6256997 C133.683029,109.670248 135.792746,109.145507 135.792746,122.245953 C135.792746,128.529274 134.771639,135.291518 133.580895,139.834197" id="Path-2" stroke="#121424" stroke-linecap="round"></path>
            </g>
            <g id="Man" transform="translate(257.500000, 148.674757) scale(-1, 1) translate(-257.500000, -148.674757) translate(216.000000, 0.000000)">
                <path d="M9.16510589,115.23301 C7.82588721,121.5721 -2.57960838,200.407059 0.601697662,219.187993 C3.7830037,237.968926 55.6525842,277.321705 57.9234333,278.009709 C60.5701105,276.082247 64.4660194,269.764165 64.4660194,269.764165 C64.4660194,269.764165 26.4332675,226.020765 25.7080779,224.266618 C24.9828884,222.51247 31.7181647,122.032507 31.7181647,122.032507 L9.16510589,115.23301 Z" id="Path" stroke="#414D86" fill-rule="nonzero"></path>
                <polyline id="Path" stroke="#414D86" fill-rule="nonzero" points="36.2621359 262.290779 30.5021433 286.067961 17.7281553 286.067961 20.7832354 248.194175"></polyline>
                <path d="M41.9029126,244.165049 L69.7751417,128.353533 L41.9029126,244.165049 Z" id="Path" stroke="#414D86" fill-rule="nonzero"></path>
                <path d="M42.5871919,38.6796117 C47.924639,38.6796117 75.7669148,39.5810659 80.7984607,49.3758145 C85.8300067,59.1705631 81.0885394,104.443599 77.9609642,106.199063 C76.2732339,107.14269 75.8143822,106.225421 75.3238856,108.144306 C74.833389,110.063191 70.0497284,128.931262 70.0497284,128.931262 C67.0118138,129.014817 22.7194417,122.346164 8.34208923,114.549376 C8.42647574,112.382723 9.12266449,106.747315 9.12266449,106.315039 C7.21341959,107.095245 4.90333874,107.258667 4.27043987,106.315039 C-1.34126338,97.8223912 7.02354993,53.5456994 13.0255408,44.6365901 C15.5782329,40.8146349 34.0219606,38.70597 42.5871919,38.6796117 Z" id="Combined-Shape" fill="#414D86" fill-rule="nonzero"></path>
                <path d="M22.3246336,86.1866343 C23.6034712,86.4111889 19.4335648,82.7471142 17.0699544,84.1108729 C14.706344,85.4746317 11.52169,91.6471463 12.1735488,93.0766284 C12.3514225,93.6021268 12.7361293,94.0105526 13.2196712,94.1872492 C13.703213,94.3639458 14.2334611,94.2898641 14.6615598,93.9858009 C15.3034666,93.5312147 20.0953757,85.7922944 22.3246336,86.1866343 Z" id="Path" fill="#D6DFFF" fill-rule="nonzero"></path>
                <path d="M49.961165,26.592233 L49.961165,43.8673406 C49.961165,45.5458379 36.2621359,45.5458379 36.2621359,43.8673406 L36.2621359,31.39956" id="Path" stroke="#414D86" fill="#D6DFFF" fill-rule="nonzero"></path>
                <path d="M35.7185951,0 C40.3545376,0 42.3767316,1.3096275 44.299849,2.60243872 L44.6598864,2.84431991 C45.740199,3.56742928 46.8388918,4.25898692 48.4035224,4.68291433 C55.2445204,6.53881587 56.407767,9.75427318 56.407767,12.3169279 C56.407767,14.561209 54.9633064,16.5075675 53.3356713,18.0799049 C54.1955222,18.6129278 54.7676991,19.5636926 54.7676991,20.6475541 C54.7676991,22.3187316 53.5917988,23.7042414 51.9138097,23.7042414 C51.9094617,23.7042414 51.9051146,23.7042321 51.9007684,23.7042135 C50.0414941,28.6850598 45.2249492,32.2330097 39.5763586,32.2330097 C32.315717,32.2330097 26.429804,26.3709899 26.429804,19.1398219 C26.429804,18.5200075 26.4730475,17.9102522 26.5566935,17.3133852 L26.5890137,17.1016233 C26.5320503,17.3432317 26.4788661,17.5924793 26.429804,17.8495925 C25.072683,17.1859998 24.1747573,14.5558789 24.1747573,9.92152012 C24.1747573,4.34842045 28.6061729,0 35.7185951,0 Z" id="Combined-Shape" stroke="#414D86" fill="#D6DFFF" fill-rule="nonzero"></path>
                <path d="M35.7185951,0 C28.6061729,0 24.1747573,4.30377077 24.1747573,9.81964572 C24.1747573,14.4064188 25.072683,17.0095336 26.429804,17.6663125 C27.2883908,13.2130311 29.409367,11.1438829 30.9548233,10.2574983 C32.1568448,11.1438829 34.2119138,13.2904286 36.9593915,13.9525472 C39.7068692,14.6146658 46.8580662,14.4865138 52.6355244,18.5339806 C54.5244153,16.8786841 56.407767,14.7267987 56.407767,12.1904574 C56.407767,9.65411607 55.2445204,6.47167516 48.4035224,4.63483006 C43.8834785,3.42272589 43.2520017,0 35.7185951,0 Z" id="Path" stroke="#414D86" fill="#414D86" fill-rule="nonzero"></path>
                <ellipse id="Oval" fill="#FF6E61" fill-rule="nonzero" cx="26.9951456" cy="22.1601942" rx="2.01456311" ry="1.20873786"></ellipse>
                <ellipse id="Oval" fill="#FF6E61" fill-rule="nonzero" cx="40.6941748" cy="22.1601942" rx="2.01456311" ry="1.20873786"></ellipse>
                <path d="M32.2330097,19.3398058 C31.7206366,19.924679 29.1087834,22.3791467 31.864351,23.368932" id="Path" stroke="#414D86" stroke-linecap="round"></path>
                <path d="M36.2621359,26.592233 C36.984097,26.592233 38.0943856,25.7423594 38.6796117,24.9805825" id="Path" stroke="#414D86" stroke-linecap="round"></path>
                <path d="M61.2427184,66.0776699 C61.003508,68.9783982 60.0679291,83.3138818 60.4187712,85.2004062 C55.9588245,86.7348494 16.1830743,104.591906 9.11839116,106.693883" id="Path" stroke="#121424" stroke-linecap="round"></path>
                <path d="M13.6990291,60.4368932 C12.5587678,63.5981289 8.71924384,77.9464561 11.4185065,84.6116505" id="Path" stroke="#121424" stroke-linecap="round"></path>
                <path d="M26.3495458,100.383792 C28.479257,101.912583 48.3294006,110.683711 76.5533981,107.201768" id="Path" stroke="#121424" stroke-linecap="round"></path>
                <path d="M63.7139642,270.757282 C64.4380235,271.275566 70.8594253,275.535863 70.9122764,278.220575 C70.9651274,280.905288 64.9295382,289.804229 63.7139642,290.058188 C62.4983902,290.312147 61.6316331,289.306676 61.6316331,287.508229 C61.6316331,285.709783 63.9253684,282.558615 63.6188324,281.159247 C63.3122963,279.759879 60.3473528,277.199555 58.8252427,277.15291" id="Path" fill="#414D86" fill-rule="nonzero"></path>
                <path d="M29.6322216,286.873786 C29.6322216,288.10494 30.3654711,295.833274 28.898972,296.55231 C27.4324729,297.271345 11.2478489,297.695524 10.5145993,296.981662 C9.78134975,296.267799 9.33502394,294.762481 9.98325905,294.333129 C10.6314942,293.903777 16.8906823,292.682969 17.7408267,292.113949 C18.5909711,291.544928 19.7652331,288.492909 19.3348475,286.873786" id="Path" fill="#414D86" fill-rule="nonzero"></path>
            </g>
        </g>
    </g>
</svg>
