<?xml version="1.0" encoding="UTF-8"?>
<svg width="350px" height="298px" viewBox="0 0 350 298" version="1.1" xmlns="http://www.w3.org/2000/svg" xmlns:xlink="http://www.w3.org/1999/xlink">
    <g id="illustrations/light/moodboard" stroke="none" stroke-width="1" fill="none" fill-rule="evenodd">
        <g id="Illustrations/100px/add_title" transform="translate(30.772756, 21.246861)">
            <g id="presentation-deck" transform="translate(26.836516, 0.000000)">
                <path d="M29.976821,17.8945036 L204.771788,17.8945036 C205.324073,17.8945036 205.771788,18.3422189 205.771788,18.8945036 L205.771788,251.643113 C205.771788,252.195398 205.324073,252.643113 204.771788,252.643113 L29.976821,252.643113 C29.4245363,252.643113 28.976821,252.195398 28.976821,251.643113 L28.976821,18.8945036 C28.976821,18.3422189 29.4245363,17.8945036 29.976821,17.8945036 Z" id="board" stroke="#000000" stroke-width="1.5" transform="translate(117.374305, 135.268808) rotate(90.000000) translate(-117.374305, -135.268808) "></path>
                <g id="Group-2" transform="translate(186.705577, 59.983461) rotate(17.000000) translate(-186.705577, -59.983461) translate(127.016178, 15.508131)">
                    <g id="Group">
                        <rect id="Rectangle" fill="#879DEF" x="13.264311" y="12.7072371" width="106.114488" height="76.2434223"></rect>
                        <rect id="Rectangle" stroke="#000000" stroke-width="1.5" x="0.75" y="0.75" width="113.457362" height="83.2149137"></rect>
                    </g>
                    <g id="Group" transform="translate(26.528622, 21.178728)" fill="#000000" fill-rule="nonzero">
                        <g id="Group-3" transform="translate(0.059916, 0.141110)">
                            <path d="M25.1625433,0.616082326 C29.1283113,0.616082326 32.3689601,3.87922387 32.3689601,7.87250685 C32.3689601,11.8657898 29.1283113,15.1289314 25.1625433,15.1289314 C21.1967752,15.1289314 17.9561264,11.8657898 17.9561264,7.87250685 C17.9561264,3.87922387 21.1967752,0.616082326 25.1625433,0.616082326 Z M25.1625433,3.51865213 C22.7617428,3.51865213 20.8386931,5.45505079 20.8386931,7.87250685 C20.8386931,10.2899629 22.7617428,12.2263616 25.1625433,12.2263616 C27.5633437,12.2263616 29.4863934,10.2899629 29.4863934,7.87250685 C29.4863934,5.45505079 27.5633437,3.51865213 25.1625433,3.51865213 Z" id="Path-2"></path>
                            <path d="M37.0956252,18.0427089 C36.8250197,18.07121 36.5654397,18.1909631 36.3713781,18.3768448 L24.6690703,29.7745907 L19.7518139,25.4679505 C19.4875719,25.2341481 19.1142203,25.1222598 18.7607389,25.1709409 C18.5208805,25.2043248 18.2920196,25.3092155 18.1127284,25.4679505 L1.03574491,40.9124531 C0.562263587,41.3389946 0.532375207,42.1480466 0.973157766,42.6066283 C1.41394032,43.0652101 2.24477582,43.0894484 2.71294864,42.6573813 L18.9894485,27.9554029 L30.348692,37.9052267 C30.7876729,38.4484788 31.743984,38.4775917 32.2169433,37.9620981 C32.6899013,37.4466176 32.5530866,36.5243171 31.9496592,36.1602985 L26.4987471,31.3710176 L37.2862165,20.8643007 L62.0249716,43.8454236 C62.4931444,44.2774871 63.3239799,44.2532487 63.7647625,43.7946706 C64.205545,43.3360853 64.1756567,42.5270333 63.7021753,42.1004918 L38.0867001,18.3397186 C37.8224582,18.1059161 37.4491066,17.9940278 37.0956252,18.0427089 Z" id="Path"></path>
                        </g>
                    </g>
                </g>
                <g id="Group-2" transform="translate(54.378608, 97.372425) rotate(-9.000000) translate(-54.378608, -97.372425) translate(22.668615, 73.281621)">
                    <g id="Group" transform="translate(0.000000, 0.000000)">
                        <rect id="Rectangle" fill="#879DEF" x="7.04666524" y="6.88308674" width="56.3733219" height="41.2985204"></rect>
                        <rect id="Rectangle" stroke="#000000" stroke-width="1.5" x="0.75" y="0.75" width="59.5710988" height="44.3872449"></rect>
                    </g>
                    <g id="Group" transform="translate(14.093330, 11.471811)" fill="#000000" fill-rule="nonzero">
                        <g id="Group-3" transform="translate(0.031830, 0.076434)">
                            <path d="M13.3676011,0.33371126 C15.4744154,0.33371126 17.1960101,2.10124626 17.1960101,4.26427454 C17.1960101,6.42730282 15.4744154,8.19483782 13.3676011,8.19483782 C11.2607868,8.19483782 9.53919215,6.42730282 9.53919215,4.26427454 C9.53919215,2.10124626 11.2607868,0.33371126 13.3676011,0.33371126 Z M13.3676011,1.90593657 C12.0921758,1.90593657 11.0705557,2.95481918 11.0705557,4.26427454 C11.0705557,5.57372991 12.0921758,6.62261251 13.3676011,6.62261251 C14.6430264,6.62261251 15.6646465,5.57372991 15.6646465,4.26427454 C15.6646465,2.95481918 14.6430264,1.90593657 13.3676011,1.90593657 Z" id="Path-2"></path>
                            <path d="M19.7070509,9.773134 C19.5632917,9.78857207 19.4253899,9.85343833 19.3222946,9.95412426 L13.1054436,16.1279033 L10.4931511,13.7951399 C10.3527726,13.6684969 10.1544295,13.6078907 9.96664255,13.6342596 C9.83921776,13.6523426 9.71763543,13.7091584 9.62238695,13.7951399 L0.550239484,22.1609121 C0.298702531,22.3919554 0.282824329,22.8301919 0.516990063,23.0785903 C0.751155798,23.3269888 1.19253716,23.3401179 1.44125397,23.1060816 L10.0881445,15.1425099 L16.1227426,20.5319978 C16.3559512,20.8262593 16.8639915,20.8420288 17.1152511,20.5628031 C17.3665101,20.2835846 17.2938273,19.7840051 16.9732564,19.5868283 L14.0774594,16.9926346 L19.8083025,11.3014962 L32.9507662,23.7496044 C33.199483,23.9836388 33.6408643,23.9705097 33.8750301,23.7221132 C34.1091958,23.4737128 34.0933176,23.0354764 33.8417806,22.8044331 L20.2335594,9.93401423 C20.0931809,9.80737124 19.8948379,9.74676508 19.7070509,9.773134 Z" id="Path"></path>
                        </g>
                    </g>
                </g>
            </g>
            <g id="Group" transform="translate(160.346450, 125.486952)" fill-rule="nonzero">
                <path d="M35.60704,7.49299075 C51.1072336,7.49299075 63.7174797,20.0979635 63.7174797,35.5917061 C63.7174797,51.0854486 51.1072425,63.6904214 35.60704,63.6904214 C20.1068375,63.6904214 7.49617408,51.0854486 7.49617408,35.5917061 C7.49617408,20.0979635 20.1068464,7.49299075 35.60704,7.49299075 Z M26.1422103,43.5436155 C25.8746361,43.5436155 25.6053299,43.5644252 25.3355886,43.6077757 C23.9938183,43.8201869 22.8155395,44.5415116 22.0171509,45.640837 C21.2183271,46.7392923 20.8956784,48.0822434 21.1081782,49.4234545 C21.320678,50.7646656 22.0431738,51.9428883 23.1420872,52.7413703 C24.2410005,53.5381211 25.5845116,53.8649677 26.926717,53.6490941 C28.2684962,53.4366829 29.4472013,52.7144882 30.2455899,51.6160328 C31.8939688,49.3488895 31.3891774,46.1636176 29.1206536,44.5154995 C28.2424732,43.8782658 27.2073027,43.5436155 26.1422103,43.5436155 Z M45.0714345,43.5436155 C44.0063421,43.5436155 42.9716068,43.8782747 42.0934265,44.5154995 C40.9940779,45.3139815 40.2720173,46.4922042 40.0595175,47.8334153 C39.8470177,49.1746264 40.1696664,50.5175686 40.968055,51.6160328 C41.7664436,52.7144971 42.9451576,53.4366829 44.2869278,53.6490941 C45.6278366,53.8641065 46.9726443,53.5381211 48.0715577,52.7413703 C49.1704799,51.9428883 49.8929668,50.7646656 50.1054666,49.4234545 C50.3179664,48.0822434 49.9953177,46.7392923 49.196494,45.640837 C48.3981054,44.5423727 47.2198266,43.8201869 45.8780563,43.6077757 C45.6087501,43.5644252 45.3390088,43.5436155 45.0714345,43.5436155 Z M35.5073003,32.2547118 C33.6221395,32.2547118 32.0882525,33.7875244 32.0882525,35.6723346 C32.0882525,37.5571448 33.6221395,39.0899575 35.5073003,39.0899575 C37.3924611,39.0899575 38.9263481,37.5571448 38.9263481,35.6723346 C38.9263481,33.7875244 37.3924611,32.2547118 35.5073003,32.2547118 Z M55.7752573,29.0408266 C54.909218,26.3766129 52.0326993,24.9114228 49.367366,25.7775272 C46.7003007,26.6436406 45.2357964,29.5176643 46.1022709,32.183618 C46.522057,33.474545 47.419759,34.5253175 48.6301268,35.1417415 C49.8404947,35.7590267 51.2178266,35.8665374 52.5101622,35.4469173 C53.8020626,35.0273062 54.8532732,34.1299783 55.4699543,32.9205499 C56.0866353,31.7102515 56.1950523,30.3326235 55.7752573,29.0408266 Z M21.846723,25.7775272 C19.178361,24.9096827 16.3040005,26.3757429 15.4383964,29.0408266 C15.0186014,30.3326235 15.1270184,31.7102515 15.7436995,32.9205499 C16.3603806,34.1299783 17.4115911,35.0272973 18.7034915,35.4469173 C21.3692512,36.3139007 24.2453436,34.8487106 25.1118181,32.183618 C25.9782925,29.5176643 24.513353,26.6436406 21.846723,25.7775272 Z M35.60704,14.3941278 C32.8029414,14.3941278 30.5214062,16.6751383 30.5214062,19.4780771 C30.5214062,22.2810159 32.8029414,24.5611653 35.60704,24.5611653 C38.4111386,24.5611653 40.6926739,22.281007 40.6926739,19.4780771 C40.6926739,16.6751471 38.4111475,14.3941278 35.60704,14.3941278 Z" id="Path-3" fill="#879DEF"></path>
                <path d="M33.7327833,18.7324769 C35.7993967,18.7324769 37.4808704,20.4135622 37.4808704,22.4792896 C37.4808704,24.545017 35.7993902,26.2254676 33.7327833,26.2254676 C31.6661765,26.2254676 29.9846963,24.5450235 29.9846963,22.4792896 C29.9846963,20.4135556 31.6661765,18.7324769 33.7327833,18.7324769 Z" id="Shape" fill="#000000"></path>
                <path d="M21.3313886,33.5345832 C20.3795406,33.2253814 19.6050283,32.5641817 19.1506693,31.6730006 C18.6963102,30.7811784 18.6164306,29.7660575 18.9257277,28.8141821 C19.5634886,26.8503848 21.6812636,25.7701017 23.6472627,26.4095828 C25.6119858,27.0477883 26.6913258,29.1655455 26.0529236,31.1299839 C25.4145214,33.0937878 23.2954704,34.1734298 21.3313886,33.5345832 Z" id="Shape" fill="#000000"></path>
                <path d="M29.2701309,50.9052203 C28.6816883,51.7144967 27.8129379,52.2465667 26.8239957,52.4030587 C25.8347394,52.5621015 24.8445208,52.3213003 24.03458,51.7343019 C23.2246391,51.146028 22.6921323,50.2779837 22.5355119,49.2898593 C22.3788915,48.301735 22.6166958,47.3123286 23.2054592,46.5030522 C23.7939019,45.6931348 24.6623381,45.1617058 25.6512737,45.0052139 C25.8500833,44.9732758 26.0485721,44.9579445 26.2457845,44.9579445 C27.030798,44.9579445 27.793758,45.2044949 28.4410102,45.6739707 C30.1129983,46.8882058 30.4850487,49.2349243 29.2701309,50.9052203 Z" id="Shape" fill="#000000"></path>
                <path d="M48.6781547,49.2900007 C48.5215772,50.2781573 47.9892227,51.1462299 47.1794972,51.734523 C46.3697782,52.3215406 45.3788753,52.5617151 44.3908453,52.4033016 C43.4021806,52.2468046 42.5336615,51.7147238 41.94538,50.9054144 C41.3570985,50.096105 41.1193593,49.106673 41.2759368,48.1185164 C41.4325144,47.1303598 41.9645547,46.2622871 42.7745943,45.673994 C43.4216693,45.2045094 44.1840996,44.9579445 44.9688982,44.9579445 C45.1660565,44.9579445 45.3648117,44.9732763 45.5632462,45.0052154 C46.551911,45.1617125 47.4201093,45.6937933 48.0083908,46.5031026 C48.596993,47.3124055 48.8347322,48.3018441 48.6781547,49.2900007 Z" id="Shape" fill="#000000"></path>
                <path d="M52.2879188,28.8132923 C52.597228,29.7650408 52.5173452,30.7800265 52.0629685,31.6717299 C51.6085918,32.5627923 50.8340495,33.2239105 49.8821645,33.5330646 C48.9299588,33.8422252 47.915127,33.7630153 47.023316,33.3082222 C46.131505,32.8540636 45.4700693,32.0798931 45.1607667,31.1287856 C44.5223398,29.1646088 45.601401,27.0471338 47.5665211,26.4090133 C49.5303651,25.7708993 51.6498125,26.8503976 52.2879188,28.8132923 Z" id="Shape" fill="#000000"></path>
                <path d="M35.6068313,0 C15.973091,0 0,15.9667419 0,35.5917061 C0,51.3435986 10.2943355,64.7301909 24.5086538,69.4038268 L0.890170783,69.4038268 C0.398573968,69.4038268 0,69.8018044 0,70.2936195 C0,70.7854346 0.398573968,71.1834121 0.890170783,71.1834121 L34.745778,71.1834121 C34.7798983,71.1834121 34.8088021,71.1677696 34.8418898,71.1640235 C35.0971373,71.1694513 35.3503286,71.1834121 35.6068224,71.1834121 C55.2405627,71.1834121 71.2136537,55.2166703 71.2136537,35.5917061 C71.2136537,15.9667419 55.2405805,0 35.6068313,0 Z M35.6068313,69.4038268 C16.9549761,69.4038268 1.78034157,54.2356383 1.78034157,35.5917061 C1.78034157,16.9477739 16.9549761,1.7795853 35.6068313,1.7795853 C54.2586866,1.7795853 69.4333211,16.9477739 69.4333211,35.5917061 C69.4333211,54.2356383 54.2586955,69.4038268 35.6068313,69.4038268 Z" id="Shape" fill="#000000"></path>
                <path d="M33.7327833,41.2114491 C31.6662001,41.2114491 29.9846963,39.5311363 29.9846963,37.4649538 C29.9846963,35.3987712 31.6662001,33.7184584 33.7327833,33.7184584 C35.7993666,33.7184584 37.4808704,35.3987712 37.4808704,37.4649538 C37.4808704,39.5311363 35.7993666,41.2114491 33.7327833,41.2114491 Z" id="Shape" fill="#000000"></path>
            </g>
            <g id="post-it" transform="translate(71.458729, 196.469460) rotate(-12.000000) translate(-71.458729, -196.469460) translate(9.304133, 145.186343)">
                <path d="M90.4225479,86.3812665 L60.6208772,12.5048671 C60.2913504,11.6914083 59.5336209,11.1205796 58.6471344,11.0178081 L12.4616436,5.68910585 C11.1508286,5.50858547 9.93891724,6.40403802 9.75478328,7.68912861 C9.75068129,7.71817273 9.74703507,7.74744027 9.74384463,7.7767078 L0.0207513268,84.0362889 C-0.153127645,85.3412636 0.784861669,86.5376579 2.11595875,86.7081245 C2.13532928,86.7105821 2.15492769,86.7128163 2.17429822,86.714827 L87.252618,96.2473534 L87.5297305,96.2473534 C88.7879033,96.2526925 89.8423436,95.3161313 89.9606178,94.0882353 L90.5925528,87.4775703 C90.624913,87.1040182 90.5665735,86.7284554 90.4225479,86.3812665 Z" id="Path" fill="#879DEF" fill-rule="nonzero"></path>
                <path d="M111.560511,9.78121703 C111.403183,8.41947334 110.18435,7.4445384 108.838551,7.60396319 C108.831421,7.60489414 108.824521,7.60559235 108.81739,7.60652329 L87.7177167,10.1189183 L25.3999265,17.5367093 C24.0656279,17.6900829 23.1011884,18.9005476 23.2359753,20.2525163 L30.5963533,99.6933058 C30.7157295,100.972428 31.7799941,101.948061 33.0498893,101.942499 L33.3295837,101.942499 L119.200583,92.0122894 C120.546843,91.8561229 121.512892,90.6251774 121.358554,89.2629682 C121.357404,89.2524951 121.356254,89.2422546 121.354874,89.2317815 L111.560511,9.78121703 Z" id="Path-5" stroke="#1F2A3B" fill="#FFFFFF" fill-rule="nonzero"></path>
                <path d="M74.3891326,23.3888137 C73.1999859,23.3910297 72.2342962,22.4288114 72.2320724,21.2399632 C72.2310665,20.6668298 72.4587625,20.1169043 72.8646994,19.7120784 L83.6304032,8.94907719 C84.4566088,8.09401867 85.8195555,8.07020538 86.6750306,8.89620362 C87.5303038,9.72220185 87.5539212,11.0848063 86.7279174,11.9400666 C86.7105576,11.9580275 86.6929959,11.9755848 86.6750306,11.9929402 L75.9093267,22.7559414 C75.5066196,23.1597583 74.9597857,23.3873972 74.3891326,23.3888137 Z" id="Path" fill="#455A64" fill-rule="nonzero"></path>
                <path d="M74.3891326,23.3888137 C73.1999859,23.3910297 72.2342962,22.4288114 72.2320724,21.2399632 C72.2310665,20.6668298 72.4587625,20.1169043 72.8646994,19.7120784 L83.6304032,8.94907719 C84.4566088,8.09401867 85.8195555,8.07020538 86.6750306,8.89620362 C87.5303038,9.72220185 87.5539212,11.0848063 86.7279174,11.9400666 C86.7105576,11.9580275 86.6929959,11.9755848 86.6750306,11.9929402 L75.9093267,22.7559414 C75.5066196,23.1597583 74.9597857,23.3873972 74.3891326,23.3888137 Z" id="Path" fill="#1F2A3B" fill-rule="nonzero"></path>
                <path d="M35.9823662,102.566234 C34.7127251,102.571796 33.6486733,101.596163 33.5293211,100.317042 L26.1704156,20.8762775 C26.0356557,19.5243092 26.9999023,18.3138449 28.3339338,18.1604713 L90.6392567,10.7426827 C91.975588,10.5176262 93.23925,11.4318165 93.461397,12.7842503 C93.6837739,14.1366841 92.7804683,15.415573 91.444137,15.6403968 C91.3675584,15.6531973 91.2905199,15.6625068 91.2132514,15.6678598 L31.2871546,22.822423 L38.1898079,97.3280024 L119.093615,87.9689558 L109.890153,13.4682639 L105.548399,13.9646916 C104.212068,14.1897481 102.948406,13.2755578 102.726259,11.923124 C102.503882,10.5706902 103.407188,9.29180126 104.743519,9.06697747 C104.820098,9.05417695 104.897136,9.04486747 104.974405,9.03951453 L111.734709,8.23028853 C113.078859,8.05922695 114.305497,9.02322295 114.474522,10.3835698 C114.475441,10.3907846 114.476361,10.3977667 114.477051,10.4049816 L124.289232,89.8457457 C124.460556,91.2058598 123.510108,92.4489072 122.166188,92.6222962 C122.155839,92.6236926 122.145721,92.6248563 122.135372,92.62602 L36.2815517,102.556203 L35.9823662,102.566234 Z" id="Path" fill-rule="nonzero"></path>
                <line x1="39.9678039" y1="48.0053729" x2="107.776618" y2="39.2724265" id="Line-5" stroke="#16192E" stroke-linecap="round"></line>
                <ellipse id="Oval-Copy" fill="#1F2A3B" fill-rule="nonzero" cx="87.8072118" cy="7.54844874" rx="7.55010339" ry="7.54844874"></ellipse>
                <line x1="41.3720592" y1="60.2197234" x2="86.9085784" y2="54.2564953" id="Line-5-Copy" stroke="#16192E" stroke-linecap="round"></line>
            </g>
        </g>
    </g>
</svg>
