<svg width="300" height="180" viewBox="0 0 300 180" fill="none" xmlns="http://www.w3.org/2000/svg">
<g clip-path="url(#clip0_312_15736)">
<rect width="300" height="180" fill="white"/>
<mask id="mask0_312_15736" style="mask-type:alpha" maskUnits="userSpaceOnUse" x="0" y="7" width="300" height="152">
<rect y="7.02808" width="300" height="151.176" rx="2" fill="#C6D2FF"/>
</mask>
<g mask="url(#mask0_312_15736)">
<rect x="12.6543" y="13.653" width="273.712" height="153.16" fill="#C6D2FF"/>
<rect x="-11.5986" y="96.4392" width="48.463" height="52" rx="18.5" fill="white" stroke="black"/>
<rect x="37.8643" y="96.4392" width="48.4631" height="52" rx="18.5" fill="white" stroke="black"/>
<rect x="87.3271" y="96.4392" width="48.4631" height="52" rx="18.5" fill="white" stroke="black"/>
<rect x="136.79" y="96.4392" width="48.463" height="52" rx="18.5" fill="white" stroke="black"/>
<rect x="186.253" y="96.4392" width="48.4631" height="52" rx="18.5" fill="white" stroke="black"/>
<rect x="235.716" y="96.4392" width="48.463" height="52" rx="18.5" fill="white" stroke="black"/>
<rect x="285.179" y="96.4392" width="48.4631" height="52" rx="18.5" fill="white" stroke="black"/>
<rect x="-18.8496" y="109.388" width="53.3638" height="57.5182" rx="18.5" fill="white" stroke="black"/>
<rect x="35.5146" y="109.388" width="53.3638" height="57.5182" rx="18.5" fill="white" stroke="black"/>
<rect x="89.8779" y="109.388" width="53.3638" height="57.5182" rx="18.5" fill="white" stroke="black"/>
<rect x="144.242" y="109.388" width="53.3638" height="57.5182" rx="18.5" fill="white" stroke="black"/>
<rect x="198.605" y="109.388" width="53.3638" height="57.5182" rx="18.5" fill="white" stroke="black"/>
<rect x="252.97" y="109.388" width="53.3638" height="57.5182" rx="18.5" fill="white" stroke="black"/>
<rect x="-50.1855" y="126.454" width="59.8309" height="64.4795" rx="18.5" fill="#F8F9FF" stroke="black"/>
<rect x="10.6455" y="126.454" width="59.8309" height="64.4795" rx="18.5" fill="#F8F9FF" stroke="black"/>
<rect x="71.4766" y="126.454" width="59.8309" height="64.4795" rx="18.5" fill="#F8F9FF" stroke="black"/>
<rect x="132.308" y="126.454" width="59.8309" height="64.4795" rx="18.5" fill="#F8F9FF" stroke="black"/>
<rect x="193.138" y="126.454" width="59.8309" height="64.4795" rx="18.5" fill="#F8F9FF" stroke="black"/>
<rect x="253.969" y="126.454" width="59.8309" height="64.4795" rx="18.5" fill="#F8F9FF" stroke="black"/>
</g>
<g clip-path="url(#clip1_312_15736)">
<path fill-rule="evenodd" clip-rule="evenodd" d="M120.855 64.1352C120.855 66.3441 119.067 68.1348 116.859 68.1348C115.822 68.1348 114.876 67.7379 114.169 67.0912C113.55 68.4972 112.144 69.4826 110.505 69.4826C108.3 69.4826 106.509 67.6924 106.509 65.4868C106.509 63.858 107.482 62.4578 108.879 61.8323C108.87 61.7196 108.864 61.6037 108.864 61.4878C108.864 59.2822 110.654 57.4921 112.863 57.4921C114.599 57.4921 116.078 58.599 116.627 60.1484C116.703 60.1427 116.78 60.1395 116.859 60.1395C119.067 60.1395 120.855 61.9302 120.855 64.1352Z" fill="#FAFAFC"/>
<path fill-rule="evenodd" clip-rule="evenodd" d="M120.855 64.1352C120.855 66.3441 119.067 68.1348 116.859 68.1348C115.822 68.1348 114.876 67.7379 114.169 67.0912C113.55 68.4972 112.144 69.4826 110.505 69.4826C108.3 69.4826 106.509 67.6924 106.509 65.4868C106.509 63.858 107.482 62.4578 108.879 61.8323C108.87 61.7196 108.864 61.6037 108.864 61.4878C108.864 59.2822 110.654 57.4921 112.863 57.4921C114.599 57.4921 116.078 58.599 116.627 60.1484C116.703 60.1427 116.78 60.1395 116.859 60.1395C119.067 60.1395 120.855 61.9302 120.855 64.1352Z" stroke="#08081C"/>
<path fill-rule="evenodd" clip-rule="evenodd" d="M115.502 71.8578C114.031 70.2098 114.173 67.6834 115.82 66.2134C116.594 65.5225 117.564 65.189 118.523 65.2005C118.048 63.7388 118.442 62.0671 119.664 60.9768C121.309 59.5081 123.838 59.6521 125.306 61.2976C126.39 62.5134 126.596 64.2056 125.971 65.6026C126.052 65.6807 126.134 65.7626 126.212 65.8497C127.68 67.4951 127.536 70.0235 125.888 71.4935C124.593 72.6491 122.752 72.8079 121.311 72.0178C121.257 72.0729 121.202 72.126 121.144 72.1785C119.495 73.6492 116.97 73.5032 115.502 71.8578Z" fill="#FAFAFC"/>
<path fill-rule="evenodd" clip-rule="evenodd" d="M115.502 71.8578C114.031 70.2098 114.173 67.6834 115.82 66.2134C116.594 65.5225 117.564 65.189 118.523 65.2005C118.048 63.7388 118.442 62.0671 119.664 60.9768C121.309 59.5081 123.838 59.6521 125.306 61.2976C126.39 62.5134 126.596 64.2056 125.971 65.6026C126.052 65.6807 126.134 65.7626 126.212 65.8497C127.68 67.4951 127.536 70.0235 125.888 71.4935C124.593 72.6491 122.752 72.8079 121.311 72.0178C121.257 72.0729 121.202 72.126 121.144 72.1785C119.495 73.6492 116.97 73.5032 115.502 71.8578Z" stroke="#08081C"/>
<path fill-rule="evenodd" clip-rule="evenodd" d="M123.527 63.9263C121.831 65.34 119.311 65.1133 117.897 63.4173C117.233 62.6202 116.932 61.64 116.976 60.6822C115.499 61.1073 113.841 60.6579 112.793 59.3991C111.381 57.7051 111.61 55.1831 113.304 53.7714C114.555 52.7284 116.254 52.5793 117.628 53.2522C117.71 53.1728 117.795 53.094 117.884 53.0198C119.578 51.608 122.1 51.8372 123.514 53.5332C124.625 54.8669 124.722 56.712 123.883 58.1257C123.937 58.1808 123.988 58.2371 124.039 58.2979C125.452 59.9946 125.221 62.5139 123.527 63.9263Z" fill="#3C64F7"/>
<path fill-rule="evenodd" clip-rule="evenodd" d="M132.762 55.7964C132.762 58.0052 130.975 59.7954 128.767 59.7954C127.729 59.7954 126.784 59.3991 126.076 58.7524C125.457 60.1584 124.051 61.1437 122.413 61.1437C120.207 61.1437 118.417 59.3536 118.417 57.148C118.417 55.5185 119.39 54.119 120.787 53.4934C120.778 53.3808 120.771 53.2649 120.771 53.149C120.771 50.9434 122.562 49.1526 124.771 49.1526C126.506 49.1526 127.985 50.2602 128.534 51.8096C128.611 51.8038 128.687 51.8006 128.767 51.8006C130.975 51.8006 132.762 53.5914 132.762 55.7964Z" fill="#FAFAFC"/>
<path fill-rule="evenodd" clip-rule="evenodd" d="M132.762 55.7964C132.762 58.0052 130.975 59.7954 128.767 59.7954C127.729 59.7954 126.784 59.3991 126.076 58.7524C125.457 60.1584 124.051 61.1437 122.413 61.1437C120.207 61.1437 118.417 59.3536 118.417 57.148C118.417 55.5185 119.39 54.119 120.787 53.4934C120.778 53.3808 120.771 53.2649 120.771 53.149C120.771 50.9434 122.562 49.1526 124.771 49.1526C126.506 49.1526 127.985 50.2602 128.534 51.8096C128.611 51.8038 128.687 51.8006 128.767 51.8006C130.975 51.8006 132.762 53.5914 132.762 55.7964Z" stroke="#08081C"/>
<path fill-rule="evenodd" clip-rule="evenodd" d="M127.409 63.519C125.938 61.871 126.08 59.3446 127.728 57.8746C128.502 57.1838 129.472 56.8502 130.43 56.8618C129.956 55.4001 130.349 53.7284 131.571 52.6381C133.216 51.1693 135.745 51.3134 137.213 52.9588C138.297 54.1747 138.504 55.8668 137.878 57.2638C137.959 57.3419 138.041 57.4239 138.119 57.511C139.587 59.1564 139.443 61.6841 137.795 63.1547C136.5 64.3103 134.659 64.4691 133.218 63.6791C133.165 63.7341 133.11 63.7866 133.051 63.8398C131.403 65.3104 128.878 65.1644 127.409 63.519Z" fill="#3C64F7"/>
<path fill-rule="evenodd" clip-rule="evenodd" d="M135.434 55.5873C133.738 57.0009 131.218 56.7743 129.804 55.0783C129.14 54.2812 128.839 53.301 128.883 52.3438C127.406 52.7683 125.749 52.3188 124.7 51.0607C123.288 49.3667 123.517 46.8447 125.211 45.4324C126.462 44.3894 128.162 44.2409 129.536 44.9138C129.617 44.8344 129.702 44.7556 129.791 44.6807C131.485 43.269 134.007 43.4982 135.421 45.1948C136.532 46.5278 136.629 48.373 135.79 49.7873C135.844 49.8417 135.895 49.8987 135.946 49.9595C137.359 51.6555 137.128 54.1755 135.434 55.5873Z" fill="#FAFAFC"/>
<path fill-rule="evenodd" clip-rule="evenodd" d="M135.434 55.5873C133.738 57.0009 131.218 56.7743 129.804 55.0783C129.14 54.2812 128.839 53.301 128.883 52.3438C127.406 52.7683 125.749 52.3188 124.7 51.0607C123.288 49.3667 123.517 46.8447 125.211 45.4324C126.462 44.3894 128.162 44.2409 129.536 44.9138C129.617 44.8344 129.702 44.7556 129.791 44.6807C131.485 43.269 134.007 43.4982 135.421 45.1948C136.532 46.5278 136.629 48.373 135.79 49.7873C135.844 49.8417 135.895 49.8987 135.946 49.9595C137.359 51.6555 137.128 54.1755 135.434 55.5873Z" stroke="#08081C"/>
<path fill-rule="evenodd" clip-rule="evenodd" d="M131.311 71.5464C129.243 70.7724 128.192 68.4707 128.967 66.4021C129.33 65.4308 130.033 64.6843 130.887 64.2483C129.787 63.1752 129.357 61.5132 129.932 59.9792C130.705 57.9137 133.009 56.8644 135.075 57.6371C136.6 58.2082 137.57 59.6104 137.666 61.1386C137.775 61.1694 137.886 61.2046 137.994 61.2449C140.06 62.0183 141.109 64.3226 140.335 66.3912C139.727 68.0168 138.171 69.0136 136.527 68.9848C136.506 69.0584 136.482 69.1308 136.454 69.2051C135.68 71.2737 133.377 72.3198 131.311 71.5464Z" fill="#FAFAFC"/>
<path fill-rule="evenodd" clip-rule="evenodd" d="M131.311 71.5464C129.243 70.7724 128.192 68.4707 128.967 66.4021C129.33 65.4308 130.033 64.6843 130.887 64.2483C129.787 63.1752 129.357 61.5132 129.932 59.9792C130.705 57.9137 133.009 56.8644 135.075 57.6371C136.6 58.2082 137.57 59.6104 137.666 61.1386C137.775 61.1694 137.886 61.2046 137.994 61.2449C140.06 62.0183 141.109 64.3226 140.335 66.3912C139.727 68.0168 138.171 69.0136 136.527 68.9848C136.506 69.0584 136.482 69.1308 136.454 69.2051C135.68 71.2737 133.377 72.3198 131.311 71.5464Z" stroke="#08081C"/>
<path fill-rule="evenodd" clip-rule="evenodd" d="M125.955 63.8254C128.014 63.0257 130.33 64.0444 131.129 66.1034C131.505 67.0695 131.477 68.0946 131.131 68.9883C132.666 69.0568 134.094 70.0114 134.686 71.5378C135.485 73.5943 134.464 75.9113 132.408 76.7097C130.889 77.2993 129.232 76.8986 128.143 75.8229C128.041 75.8722 127.936 75.9203 127.827 75.9619C125.772 76.7603 123.455 75.7391 122.655 73.6807C122.026 72.0621 122.524 70.2823 123.769 69.2099C123.736 69.1407 123.705 69.0709 123.676 68.9967C122.877 66.9383 123.9 64.6238 125.955 63.8254Z" fill="#FAFAFC"/>
<path fill-rule="evenodd" clip-rule="evenodd" d="M125.955 63.8254C128.014 63.0257 130.33 64.0444 131.129 66.1034C131.505 67.0695 131.477 68.0946 131.131 68.9883C132.666 69.0568 134.094 70.0114 134.686 71.5378C135.485 73.5943 134.464 75.9113 132.408 76.7097C130.889 77.2993 129.232 76.8986 128.143 75.8229C128.041 75.8722 127.936 75.9203 127.827 75.9619C125.772 76.7603 123.455 75.7391 122.655 73.6807C122.026 72.0621 122.524 70.2823 123.769 69.2099C123.736 69.1407 123.705 69.0709 123.676 68.9967C122.877 66.9383 123.9 64.6238 125.955 63.8254Z" stroke="#08081C"/>
<path fill-rule="evenodd" clip-rule="evenodd" d="M130.57 74.1224C129.84 72.0378 130.936 69.7572 133.021 69.028C133.999 68.6855 135.023 68.7476 135.904 69.124C136.025 67.5919 137.027 66.1981 138.573 65.6565C140.654 64.9285 142.935 66.0265 143.664 68.1086C144.202 69.6458 143.746 71.2893 142.634 72.3406C142.68 72.4443 142.724 72.5513 142.763 72.6607C143.491 74.7428 142.392 77.024 140.307 77.7532C138.669 78.3269 136.907 77.7705 135.877 76.4894C135.807 76.5201 135.736 76.5483 135.661 76.5746C133.576 77.3038 131.298 76.2039 130.57 74.1224Z" fill="#FAFAFC"/>
<path fill-rule="evenodd" clip-rule="evenodd" d="M130.57 74.1224C129.84 72.0378 130.936 69.7572 133.021 69.028C133.999 68.6855 135.023 68.7476 135.904 69.124C136.025 67.5919 137.027 66.1981 138.573 65.6565C140.654 64.9285 142.935 66.0265 143.664 68.1086C144.202 69.6458 143.746 71.2893 142.634 72.3406C142.68 72.4443 142.724 72.5513 142.763 72.6607C143.491 74.7428 142.392 77.024 140.307 77.7532C138.669 78.3269 136.907 77.7705 135.877 76.4894C135.807 76.5201 135.736 76.5483 135.661 76.5746C133.576 77.3038 131.298 76.2039 130.57 74.1224Z" stroke="#08081C"/>
<path fill-rule="evenodd" clip-rule="evenodd" d="M145.844 50.082C144.06 51.3849 141.56 50.9976 140.257 49.2145C139.645 48.3771 139.408 47.3796 139.512 46.4269C138.012 46.7566 136.386 46.2022 135.42 44.8794C134.119 43.0989 134.509 40.5968 136.289 39.2952C137.605 38.3342 139.309 38.2939 140.638 39.0532C140.724 38.9796 140.814 38.9059 140.907 38.8381C142.688 37.5365 145.19 37.9264 146.493 39.7095C147.517 41.1109 147.496 42.9587 146.569 44.316C146.619 44.3743 146.666 44.4338 146.712 44.4978C148.016 46.2809 147.624 48.7811 145.844 50.082Z" fill="#FAFAFC"/>
<path fill-rule="evenodd" clip-rule="evenodd" d="M145.844 50.082C144.06 51.3849 141.56 50.9976 140.257 49.2145C139.645 48.3771 139.408 47.3796 139.512 46.4269C138.012 46.7566 136.386 46.2022 135.42 44.8794C134.119 43.0989 134.509 40.5968 136.289 39.2952C137.605 38.3342 139.309 38.2939 140.638 39.0532C140.724 38.9796 140.814 38.9059 140.907 38.8381C142.688 37.5365 145.19 37.9264 146.493 39.7095C147.517 41.1109 147.496 42.9587 146.569 44.316C146.619 44.3743 146.666 44.4338 146.712 44.4978C148.016 46.2809 147.624 48.7811 145.844 50.082Z" stroke="#08081C"/>
<path fill-rule="evenodd" clip-rule="evenodd" d="M136.45 50.315C136.914 48.1554 139.036 46.7796 141.196 47.2425C142.21 47.4601 143.052 48.0466 143.608 48.8271C144.508 47.5818 146.09 46.9134 147.692 47.2565C149.848 47.7188 151.222 49.8457 150.761 52.002C150.419 53.5943 149.174 54.7596 147.677 55.0778C147.662 55.1904 147.644 55.3044 147.619 55.4184C147.157 57.5747 145.031 58.95 142.871 58.4871C141.174 58.1228 139.959 56.7302 139.748 55.0995C139.672 55.0899 139.597 55.0765 139.519 55.0598C137.36 54.5969 135.987 52.4713 136.45 50.315Z" fill="#FAFAFC"/>
<path fill-rule="evenodd" clip-rule="evenodd" d="M136.45 50.315C136.914 48.1554 139.036 46.7796 141.196 47.2425C142.21 47.4601 143.052 48.0466 143.608 48.8271C144.508 47.5818 146.09 46.9134 147.692 47.2565C149.848 47.7188 151.222 49.8457 150.761 52.002C150.419 53.5943 149.174 54.7596 147.677 55.0778C147.662 55.1904 147.644 55.3044 147.619 55.4184C147.157 57.5747 145.031 58.95 142.871 58.4871C141.174 58.1228 139.959 56.7302 139.748 55.0995C139.672 55.0899 139.597 55.0765 139.519 55.0598C137.36 54.5969 135.987 52.4713 136.45 50.315Z" stroke="#08081C"/>
<path fill-rule="evenodd" clip-rule="evenodd" d="M147.588 52.1162C145.446 51.581 144.142 49.4118 144.678 47.2696C144.93 46.2631 145.544 45.4423 146.343 44.9128C145.128 43.9704 144.513 42.3672 144.91 40.7788C145.446 38.6391 147.617 37.3362 149.757 37.8708C151.337 38.2658 152.459 39.5495 152.727 41.0566C152.839 41.0752 152.953 41.0976 153.065 41.1258C155.204 41.6604 156.508 43.8321 155.972 45.9744C155.551 47.6582 154.118 48.8247 152.482 48.9816C152.469 49.0571 152.454 49.132 152.434 49.2089C151.898 51.3511 149.728 52.6508 147.588 52.1162Z" fill="#3C64F7"/>
<path fill-rule="evenodd" clip-rule="evenodd" d="M150.797 68.4965C149.014 69.7994 146.514 69.412 145.21 67.6289C144.598 66.7915 144.361 65.794 144.466 64.8413C142.965 65.171 141.34 64.6166 140.373 63.2939C139.073 61.5133 139.461 59.0113 141.243 57.7096C142.558 56.7486 144.263 56.7089 145.591 57.4676C145.677 57.394 145.767 57.3204 145.861 57.2525C147.641 55.9509 150.143 56.3408 151.447 58.1239C152.47 59.5254 152.449 61.3731 151.522 62.7304C151.572 62.7887 151.619 62.8482 151.666 62.9123C152.969 64.6953 152.577 67.1955 150.797 68.4965Z" fill="#FAFAFC"/>
<path fill-rule="evenodd" clip-rule="evenodd" d="M150.797 68.4965C149.014 69.7994 146.514 69.412 145.21 67.6289C144.598 66.7915 144.361 65.794 144.466 64.8413C142.965 65.171 141.34 64.6166 140.373 63.2939C139.073 61.5133 139.461 59.0113 141.243 57.7096C142.558 56.7486 144.263 56.7089 145.591 57.4676C145.677 57.394 145.767 57.3204 145.861 57.2525C147.641 55.9509 150.143 56.3408 151.447 58.1239C152.47 59.5254 152.449 61.3731 151.522 62.7304C151.572 62.7887 151.619 62.8482 151.666 62.9123C152.969 64.6953 152.577 67.1955 150.797 68.4965Z" stroke="#08081C"/>
<path fill-rule="evenodd" clip-rule="evenodd" d="M141.403 68.7295C141.866 66.5699 143.989 65.1941 146.149 65.6576C147.163 65.8746 148.004 66.4611 148.561 67.2416C149.461 65.9963 151.043 65.3279 152.644 65.671C154.8 66.1339 156.176 68.2602 155.713 70.4165C155.371 72.0088 154.127 73.1741 152.629 73.4923C152.615 73.6049 152.597 73.7189 152.572 73.8329C152.11 75.9892 149.983 77.3644 147.824 76.9016C146.127 76.5373 144.912 75.1447 144.701 73.514C144.625 73.5044 144.55 73.491 144.473 73.475C142.313 73.0114 140.94 70.8858 141.403 68.7295Z" fill="#FAFAFC"/>
<path fill-rule="evenodd" clip-rule="evenodd" d="M141.403 68.7295C141.866 66.5699 143.989 65.1941 146.149 65.6576C147.163 65.8746 148.004 66.4611 148.561 67.2416C149.461 65.9963 151.043 65.3279 152.644 65.671C154.8 66.1339 156.176 68.2602 155.713 70.4165C155.371 72.0088 154.127 73.1741 152.629 73.4923C152.615 73.6049 152.597 73.7189 152.572 73.8329C152.11 75.9892 149.983 77.3644 147.824 76.9015C146.127 76.5373 144.912 75.1447 144.701 73.514C144.625 73.5044 144.55 73.491 144.473 73.475C142.313 73.0114 140.94 70.8858 141.403 68.7295Z" stroke="#08081C"/>
<path fill-rule="evenodd" clip-rule="evenodd" d="M152.542 70.5308C150.399 69.9955 149.095 67.8264 149.631 65.6841C149.883 64.6777 150.497 63.8569 151.296 63.3274C150.082 62.3856 149.467 60.7818 149.864 59.1933C150.399 57.0536 152.571 55.7507 154.711 56.2853C156.29 56.6804 157.413 57.9641 157.68 59.4712C157.792 59.4898 157.906 59.5122 158.019 59.5397C160.158 60.0749 161.462 62.2466 160.926 64.3889C160.505 66.0727 159.072 67.2393 157.435 67.3961C157.422 67.4717 157.407 67.5466 157.387 67.6234C156.852 69.7657 154.681 71.0654 152.542 70.5308Z" fill="#3C64F7"/>
<path fill-rule="evenodd" clip-rule="evenodd" d="M159.754 50.7257C159.785 48.5175 161.598 46.7517 163.805 46.7825C164.842 46.7972 165.782 47.207 166.481 47.8632C167.12 46.4662 168.54 45.5001 170.177 45.5231C172.383 45.5538 174.148 47.3689 174.118 49.5746C174.094 51.2034 173.103 52.5895 171.697 53.1952C171.704 53.3085 171.709 53.4244 171.707 53.5402C171.676 55.7452 169.861 57.511 167.653 57.4803C165.917 57.456 164.454 56.3279 163.926 54.7708C163.849 54.7759 163.773 54.7785 163.694 54.7772C161.486 54.7465 159.724 52.9307 159.754 50.7257Z" fill="#FAFAFC"/>
<path fill-rule="evenodd" clip-rule="evenodd" d="M159.754 50.7257C159.785 48.5175 161.598 46.7517 163.805 46.7825C164.842 46.7972 165.782 47.207 166.481 47.8632C167.12 46.4662 168.54 45.5001 170.177 45.5231C172.383 45.5538 174.148 47.3689 174.118 49.5746C174.094 51.2034 173.103 52.5895 171.697 53.1952C171.704 53.3085 171.709 53.4244 171.707 53.5402C171.676 55.7452 169.861 57.511 167.653 57.4803C165.917 57.456 164.454 56.3279 163.926 54.7708C163.849 54.7759 163.773 54.7785 163.694 54.7772C161.486 54.7465 159.724 52.9307 159.754 50.7257Z" stroke="#08081C"/>
<path fill-rule="evenodd" clip-rule="evenodd" d="M165.214 43.0788C166.662 44.7466 166.485 47.2704 164.817 48.718C164.033 49.398 163.06 49.7181 162.101 49.6931C162.555 51.1612 162.138 52.8271 160.901 53.9002C159.235 55.3458 156.709 55.1666 155.264 53.5006C154.197 52.2701 154.014 50.5754 154.66 49.1873C154.578 49.1079 154.498 49.0247 154.422 48.937C152.977 47.2711 153.156 44.7453 154.823 43.2977C156.135 42.1606 157.978 42.0275 159.408 42.838C159.462 42.7836 159.518 42.7311 159.577 42.6792C161.246 41.2317 163.769 41.4128 165.214 43.0788Z" fill="#FAFAFC"/>
<path fill-rule="evenodd" clip-rule="evenodd" d="M165.214 43.0788C166.662 44.7466 166.485 47.2704 164.817 48.718C164.033 49.398 163.06 49.7181 162.101 49.6931C162.555 51.1612 162.138 52.8271 160.901 53.9002C159.235 55.3458 156.709 55.1666 155.264 53.5006C154.197 52.2701 154.014 50.5754 154.66 49.1873C154.578 49.1079 154.498 49.0247 154.422 48.937C152.977 47.2711 153.156 44.7453 154.823 43.2977C156.135 42.1606 157.978 42.0275 159.408 42.838C159.462 42.7836 159.518 42.7311 159.577 42.6792C161.246 41.2317 163.769 41.4128 165.214 43.0788Z" stroke="#08081C"/>
<path fill-rule="evenodd" clip-rule="evenodd" d="M148.406 49.6574C150.122 48.2675 152.638 48.5293 154.028 50.2452C154.681 51.0512 154.969 52.0353 154.911 52.9925C156.394 52.5885 158.045 53.061 159.076 54.3338C160.464 56.0471 160.2 58.5658 158.486 59.9538C157.221 60.9795 155.52 61.1044 154.154 60.4122C154.073 60.4904 153.987 60.5685 153.896 60.6415C152.182 62.0295 149.664 61.7657 148.274 60.0492C147.182 58.7009 147.111 56.8544 147.969 55.4523C147.916 55.3966 147.866 55.3396 147.816 55.2775C146.426 53.5616 146.692 51.0455 148.406 49.6574Z" fill="#FAFAFC"/>
<path fill-rule="evenodd" clip-rule="evenodd" d="M148.406 49.6574C150.122 48.2675 152.638 48.5293 154.028 50.2452C154.681 51.0512 154.969 52.0353 154.911 52.9925C156.394 52.5885 158.045 53.061 159.076 54.3338C160.464 56.0471 160.2 58.5658 158.486 59.9538C157.221 60.9795 155.52 61.1044 154.154 60.4122C154.073 60.4904 153.987 60.5685 153.896 60.6415C152.182 62.0295 149.664 61.7657 148.274 60.0492C147.182 58.7009 147.111 56.8544 147.969 55.4523C147.916 55.3966 147.866 55.3396 147.816 55.2775C146.426 53.5616 146.692 51.0455 148.406 49.6574Z" stroke="#08081C"/>
<path fill-rule="evenodd" clip-rule="evenodd" d="M157.284 71.491C159 70.1011 161.516 70.3629 162.906 72.0788C163.56 72.8849 163.846 73.8689 163.789 74.8261C165.272 74.4221 166.923 74.8939 167.954 76.1674C169.342 77.8807 169.078 80.3994 167.364 81.7874C166.099 82.8131 164.398 82.938 163.033 82.2459C162.951 82.324 162.865 82.4021 162.775 82.4751C161.061 83.8631 158.543 83.5993 157.153 81.8828C156.06 80.5345 155.989 78.688 156.847 77.2859C156.794 77.2302 156.744 77.1732 156.694 77.1111C155.304 75.3953 155.57 72.8791 157.284 71.491Z" fill="#FAFAFC"/>
<path fill-rule="evenodd" clip-rule="evenodd" d="M157.284 71.491C159 70.1011 161.516 70.3629 162.906 72.0788C163.56 72.8849 163.846 73.8689 163.789 74.8261C165.272 74.4221 166.923 74.8939 167.954 76.1674C169.342 77.8807 169.078 80.3994 167.364 81.7874C166.099 82.8131 164.398 82.938 163.033 82.2459C162.951 82.324 162.865 82.4021 162.775 82.4751C161.061 83.8631 158.543 83.5993 157.153 81.8828C156.06 80.5345 155.989 78.688 156.847 77.2859C156.794 77.2302 156.744 77.1732 156.694 77.1111C155.304 75.3953 155.57 72.8791 157.284 71.491Z" stroke="#08081C"/>
<path fill-rule="evenodd" clip-rule="evenodd" d="M155.376 78.5194C154.365 80.4824 151.955 81.2552 149.992 80.2436C149.07 79.7685 148.412 78.9829 148.079 78.084C146.884 79.0508 145.182 79.2819 143.727 78.5322C141.766 77.5213 140.994 75.1095 142.005 73.149C142.751 71.7014 144.258 70.9024 145.786 70.9863C145.83 70.8819 145.877 70.7763 145.93 70.6732C146.94 68.7128 149.352 67.9413 151.315 68.9529C152.858 69.748 153.666 71.4101 153.444 73.0389C153.515 73.0684 153.584 73.1004 153.655 73.1369C155.618 74.1484 156.387 76.559 155.376 78.5194Z" fill="#FAFAFC"/>
<path fill-rule="evenodd" clip-rule="evenodd" d="M155.376 78.5194C154.365 80.4824 151.955 81.2552 149.992 80.2436C149.07 79.7685 148.412 78.9829 148.079 78.084C146.884 79.0508 145.182 79.2819 143.727 78.5322C141.766 77.5213 140.994 75.1095 142.005 73.149C142.751 71.7014 144.258 70.9024 145.786 70.9863C145.83 70.8819 145.877 70.7763 145.93 70.6732C146.94 68.7128 149.352 67.9413 151.315 68.9529C152.858 69.748 153.666 71.4101 153.444 73.0389C153.515 73.0684 153.584 73.1004 153.655 73.1369C155.618 74.1484 156.387 76.559 155.376 78.5194Z" stroke="#08081C"/>
<path fill-rule="evenodd" clip-rule="evenodd" d="M161.046 72.4174C161.077 70.2092 162.89 68.4434 165.098 68.4741C166.134 68.4888 167.075 68.8986 167.773 69.5549C168.412 68.1572 169.832 67.1917 171.469 67.2148C173.675 67.2455 175.44 69.0606 175.41 71.2662C175.386 72.895 174.395 74.2811 172.989 74.8868C172.996 75.0001 173.001 75.116 173 75.2319C172.968 77.4369 171.153 79.2027 168.945 79.172C167.209 79.1476 165.746 78.0195 165.219 76.4624C165.141 76.4676 165.065 76.4695 164.986 76.4688C162.778 76.4375 161.016 74.6224 161.046 72.4174Z" fill="#FAFAFC"/>
<path fill-rule="evenodd" clip-rule="evenodd" d="M161.046 72.4174C161.077 70.2092 162.89 68.4434 165.098 68.4741C166.134 68.4888 167.075 68.8986 167.773 69.5548C168.412 68.1572 169.832 67.1917 171.469 67.2148C173.675 67.2455 175.44 69.0606 175.41 71.2662C175.386 72.895 174.395 74.2811 172.989 74.8868C172.996 75.0001 173.001 75.116 173 75.2319C172.968 77.4369 171.153 79.2027 168.945 79.172C167.209 79.1476 165.746 78.0195 165.219 76.4624C165.141 76.4676 165.065 76.4695 164.986 76.4688C162.778 76.4375 161.016 74.6224 161.046 72.4174Z" stroke="#08081C"/>
<path fill-rule="evenodd" clip-rule="evenodd" d="M157.252 59.1874C157.283 56.9792 159.096 55.2134 161.304 55.2441C162.34 55.2589 163.281 55.6686 163.979 56.3249C164.618 54.9272 166.038 53.9617 167.676 53.9848C169.881 54.0155 171.646 55.8306 171.616 58.0362C171.593 59.665 170.601 61.0512 169.195 61.6568C169.203 61.7701 169.207 61.886 169.206 62.0019C169.175 64.2069 167.359 65.9727 165.151 65.942C163.415 65.9176 161.952 64.7895 161.425 63.2325C161.347 63.2376 161.271 63.2395 161.192 63.2389C158.984 63.2075 157.222 61.3924 157.252 59.1874Z" fill="#FAFAFC"/>
<path fill-rule="evenodd" clip-rule="evenodd" d="M157.252 59.1874C157.283 56.9792 159.096 55.2134 161.304 55.2441C162.34 55.2589 163.281 55.6686 163.979 56.3249C164.618 54.9272 166.038 53.9617 167.676 53.9848C169.881 54.0155 171.646 55.8306 171.616 58.0362C171.593 59.665 170.601 61.0512 169.195 61.6568C169.203 61.7701 169.207 61.886 169.206 62.0019C169.175 64.2069 167.359 65.9727 165.151 65.942C163.415 65.9176 161.952 64.7895 161.425 63.2325C161.347 63.2376 161.271 63.2395 161.192 63.2389C158.984 63.2075 157.222 61.3924 157.252 59.1874Z" stroke="#08081C"/>
<path fill-rule="evenodd" clip-rule="evenodd" d="M153.865 67.7318C153.895 65.5236 155.708 63.7578 157.916 63.7886C158.953 63.8033 159.893 64.2131 160.592 64.8693C161.231 63.4723 162.651 62.5062 164.288 62.5292C166.493 62.5599 168.259 64.375 168.229 66.5807C168.205 68.2095 167.213 69.5956 165.807 70.2012C165.815 70.3146 165.819 70.4305 165.818 70.5463C165.787 72.7513 163.972 74.5171 161.763 74.4864C160.028 74.4621 158.564 73.334 158.037 71.7769C157.96 71.782 157.883 71.7846 157.805 71.7833C155.597 71.7526 153.834 69.9368 153.865 67.7318Z" fill="#FAFAFC"/>
<path fill-rule="evenodd" clip-rule="evenodd" d="M153.865 67.7318C153.895 65.5236 155.708 63.7578 157.916 63.7886C158.953 63.8033 159.893 64.2131 160.592 64.8693C161.231 63.4723 162.651 62.5062 164.288 62.5292C166.493 62.5599 168.259 64.375 168.229 66.5807C168.205 68.2095 167.213 69.5956 165.807 70.2012C165.815 70.3146 165.819 70.4305 165.818 70.5463C165.787 72.7513 163.972 74.5171 161.763 74.4864C160.028 74.4621 158.564 73.334 158.037 71.7769C157.96 71.782 157.883 71.7846 157.805 71.7833C155.597 71.7526 153.834 69.9368 153.865 67.7318Z" stroke="#08081C"/>
<path fill-rule="evenodd" clip-rule="evenodd" d="M168.229 56.6071C168.26 54.3988 170.072 52.6331 172.28 52.6644C173.317 52.6785 174.257 53.0883 174.956 53.7445C175.595 52.3475 177.015 51.382 178.652 51.4051C180.858 51.4352 182.623 53.2509 182.593 55.4559C182.569 57.0847 181.577 58.4714 180.171 59.0765C180.179 59.1898 180.184 59.3057 180.182 59.4216C180.151 61.6272 178.336 63.3924 176.128 63.3616C174.392 63.3373 172.928 62.2092 172.401 60.6528C172.324 60.6579 172.248 60.6598 172.169 60.6585C169.961 60.6278 168.198 58.8121 168.229 56.6071Z" fill="#FAFAFC"/>
<path fill-rule="evenodd" clip-rule="evenodd" d="M168.229 56.6071C168.26 54.3988 170.072 52.6331 172.28 52.6644C173.317 52.6785 174.257 53.0883 174.956 53.7445C175.595 52.3475 177.015 51.382 178.652 51.4051C180.858 51.4352 182.623 53.2509 182.593 55.4559C182.569 57.0847 181.577 58.4714 180.171 59.0765C180.179 59.1898 180.184 59.3057 180.182 59.4216C180.151 61.6272 178.336 63.3924 176.128 63.3616C174.392 63.3373 172.928 62.2092 172.401 60.6528C172.324 60.6579 172.248 60.6598 172.169 60.6585C169.961 60.6278 168.198 58.8121 168.229 56.6071Z" stroke="#08081C"/>
<path fill-rule="evenodd" clip-rule="evenodd" d="M182.342 65.7133C183.563 67.5533 183.065 70.0336 181.224 71.2552C180.36 71.8289 179.353 72.0216 178.406 71.8743C178.668 73.3879 178.041 74.9866 176.676 75.8925C174.839 77.1122 172.356 76.6109 171.137 74.7734C170.237 73.416 170.272 71.7117 171.091 70.4178C171.02 70.3288 170.952 70.2353 170.887 70.1393C169.667 68.3018 170.169 65.8195 172.009 64.598C173.455 63.6382 175.3 63.7426 176.615 64.7298C176.674 64.6825 176.736 64.6377 176.803 64.5941C178.643 63.3725 181.123 63.8758 182.342 65.7133Z" fill="#FAFAFC"/>
<path fill-rule="evenodd" clip-rule="evenodd" d="M182.342 65.7133C183.563 67.5533 183.065 70.0336 181.224 71.2552C180.36 71.8289 179.353 72.0216 178.406 71.8743C178.668 73.3879 178.041 74.9866 176.676 75.8925C174.839 77.1122 172.356 76.6109 171.137 74.7734C170.237 73.416 170.272 71.7117 171.091 70.4178C171.02 70.3288 170.952 70.2353 170.887 70.1393C169.667 68.3018 170.169 65.8195 172.009 64.598C173.455 63.6382 175.3 63.7426 176.615 64.7298C176.674 64.6825 176.736 64.6377 176.803 64.5941C178.643 63.3725 181.123 63.8758 182.342 65.7133Z" stroke="#08081C"/>
<path fill-rule="evenodd" clip-rule="evenodd" d="M178.315 60.9021C179.537 62.7422 179.038 65.2225 177.198 66.4441C176.334 67.0177 175.327 67.2104 174.38 67.0625C174.642 68.5767 174.014 70.1754 172.65 71.0813C170.812 72.301 168.33 71.7997 167.11 69.9622C166.21 68.6049 166.245 66.9005 167.064 65.6066C166.994 65.5176 166.925 65.4241 166.861 65.3281C165.641 63.4906 166.142 61.0084 167.982 59.7868C169.429 58.8271 171.273 58.9314 172.588 59.9187C172.648 59.8713 172.71 59.8265 172.777 59.783C174.616 58.5614 177.096 59.0646 178.315 60.9021Z" fill="#FAFAFC"/>
<path fill-rule="evenodd" clip-rule="evenodd" d="M178.315 60.9021C179.537 62.7422 179.038 65.2225 177.198 66.4441C176.334 67.0177 175.327 67.2104 174.38 67.0625C174.642 68.5767 174.014 70.1754 172.65 71.0813C170.812 72.301 168.33 71.7997 167.11 69.9622C166.21 68.6049 166.245 66.9005 167.064 65.6066C166.994 65.5176 166.925 65.4241 166.861 65.3281C165.641 63.4906 166.142 61.0084 167.982 59.7868C169.429 58.8271 171.273 58.9314 172.588 59.9187C172.648 59.8713 172.71 59.8265 172.777 59.783C174.616 58.5614 177.096 59.0646 178.315 60.9021Z" stroke="#08081C"/>
<path fill-rule="evenodd" clip-rule="evenodd" d="M198.428 169.357C197.949 171.513 195.815 172.873 193.659 172.393C192.647 172.169 191.81 171.576 191.26 170.791C190.35 172.029 188.763 172.686 187.164 172.33C185.012 171.852 183.652 169.715 184.131 167.562C184.485 165.972 185.739 164.816 187.238 164.51C187.254 164.397 187.273 164.283 187.298 164.17C187.777 162.017 188.817 160.757 190.973 161.237C192.668 161.614 194.967 162.916 195.166 164.548C195.242 164.558 195.318 164.572 195.395 164.589C197.551 165.068 198.907 167.204 198.428 169.357Z" fill="#FAFAFC"/>
<path fill-rule="evenodd" clip-rule="evenodd" d="M183.686 180.34C184.567 181.668 184.207 183.457 182.88 184.338C182.257 184.752 181.53 184.891 180.846 184.785C181.035 185.877 180.583 187.031 179.598 187.684C178.273 188.564 176.482 188.202 175.603 186.876C174.952 185.897 174.978 184.667 175.569 183.735C175.518 183.67 175.468 183.603 175.422 183.533C174.542 182.208 174.904 180.417 176.231 179.536C177.274 178.843 178.605 178.918 179.554 179.631C179.597 179.597 179.642 179.565 179.69 179.533C181.017 178.652 182.806 179.015 183.686 180.34Z" fill="#FAFAFC"/>
<path fill-rule="evenodd" clip-rule="evenodd" d="M189.496 66.9803L173.686 172.265L158.505 183.711L116.104 174.461L100.696 67.9791L166.872 80.0778L189.496 66.9803Z" fill="#FAFAFC"/>
<path fill-rule="evenodd" clip-rule="evenodd" d="M185.424 69.283C185.29 70.1128 169.706 166.953 169.55 167.642C169.395 168.333 157.203 177.823 156.628 177.823C156.053 177.823 116.934 169.468 116.882 169.117C116.831 168.766 102.839 70.3279 103.008 69.6211C102.094 63.0579 115.437 63.5977 116.274 72.3415C116.107 62.4151 125.844 66.7489 127.351 74.5817C129.589 60.8036 140.166 73.2743 139.743 77.0748C140.899 65.204 152.743 74.9914 153.223 79.7504C154.026 70.2703 165.252 73.2468 164.682 81.9656C164.629 82.7922 185.558 68.4533 185.424 69.283Z" fill="#FAFAFC"/>
<path fill-rule="evenodd" clip-rule="evenodd" d="M185.424 69.283C185.29 70.1128 169.706 166.953 169.55 167.642C169.395 168.333 157.203 177.823 156.628 177.823C156.053 177.823 116.934 169.468 116.882 169.117C116.831 168.766 102.839 70.3279 103.008 69.6211C102.094 63.0579 115.437 63.5977 116.274 72.3415C116.107 62.4151 125.844 66.7489 127.351 74.5817C129.589 60.8036 140.166 73.2743 139.743 77.0748C140.899 65.204 152.743 74.9914 153.223 79.7504C154.026 70.2703 165.252 73.2468 164.682 81.9656C164.629 82.7922 185.558 68.4533 185.424 69.283Z" stroke="#090F23"/>
<mask id="mask1_312_15736" style="mask-type:alpha" maskUnits="userSpaceOnUse" x="106" y="73" width="76" height="102">
<path d="M119.435 166.758L157.2 174.627L167.211 166.42L181.71 74.8154L166.169 85.1803L106.711 73.9344L119.435 166.758Z" fill="white"/>
</mask>
<g mask="url(#mask1_312_15736)">
<path fill-rule="evenodd" clip-rule="evenodd" d="M123.822 183.327L118.65 184.289L106.293 67.3537L113.291 66.3921L123.822 183.327Z" fill="#DCE2FF"/>
</g>
<mask id="mask2_312_15736" style="mask-type:alpha" maskUnits="userSpaceOnUse" x="106" y="73" width="76" height="102">
<path d="M119.435 166.758L157.2 174.627L167.211 166.42L181.71 74.8154L166.169 85.1803L106.711 73.9344L119.435 166.758Z" fill="white"/>
</mask>
<g mask="url(#mask2_312_15736)">
<path fill-rule="evenodd" clip-rule="evenodd" d="M135.665 184.374L131.747 183.975L129.417 66.3381L137.576 66.737L135.665 184.374Z" fill="#DCE2FF"/>
</g>
<mask id="mask3_312_15736" style="mask-type:alpha" maskUnits="userSpaceOnUse" x="106" y="73" width="76" height="102">
<path d="M119.435 166.758L157.2 174.627L167.211 166.42L181.71 74.8154L166.169 85.1803L106.711 73.9344L119.435 166.758Z" fill="white"/>
</mask>
<g mask="url(#mask3_312_15736)">
<path fill-rule="evenodd" clip-rule="evenodd" d="M141.676 186.313L138.859 185.534L142.675 68.3064L151.684 69.0856L141.676 186.313Z" fill="#DCE2FF"/>
</g>
<mask id="mask4_312_15736" style="mask-type:alpha" maskUnits="userSpaceOnUse" x="106" y="73" width="76" height="102">
<path d="M119.435 166.758L157.2 174.627L167.211 166.42L181.71 74.8154L166.169 85.1803L106.711 73.9344L119.435 166.758Z" fill="white"/>
</mask>
<g mask="url(#mask4_312_15736)">
<path fill-rule="evenodd" clip-rule="evenodd" d="M150.868 186.746L146.159 185.966L156.166 68.739L163.181 69.5182L150.868 186.746Z" fill="#DCE2FF"/>
</g>
<mask id="mask5_312_15736" style="mask-type:alpha" maskUnits="userSpaceOnUse" x="106" y="73" width="76" height="102">
<path d="M119.435 166.758L157.2 174.627L167.211 166.42L181.71 74.8154L166.169 85.1803L106.711 73.9344L119.435 166.758Z" fill="white"/>
</mask>
<g mask="url(#mask5_312_15736)">
<path fill-rule="evenodd" clip-rule="evenodd" d="M128.423 181.909L125.856 183.09L117.328 63.7595L124.36 63.2191L128.423 181.909Z" fill="#DCE2FF"/>
</g>
<mask id="mask6_312_15736" style="mask-type:alpha" maskUnits="userSpaceOnUse" x="106" y="73" width="76" height="102">
<path d="M119.435 166.758L157.2 174.627L167.211 166.42L181.71 74.8154L166.169 85.1803L106.711 73.9344L119.435 166.758Z" fill="white"/>
</mask>
<g mask="url(#mask6_312_15736)">
<path fill-rule="evenodd" clip-rule="evenodd" d="M165.972 83.769L187.58 67.3358L167.212 173.386L157.2 174.627L165.972 83.769Z" fill="#AFC0FF"/>
</g>
</g>
</g>
<defs>
<clipPath id="clip0_312_15736">
<rect width="300" height="180" fill="white"/>
</clipPath>
<clipPath id="clip1_312_15736">
<rect width="210" height="210" fill="white" transform="translate(47.709)"/>
</clipPath>
</defs>
</svg>
