<?xml version="1.0" encoding="UTF-8"?>
<svg width="248px" height="216px" viewBox="0 0 248 216" version="1.1" xmlns="http://www.w3.org/2000/svg" xmlns:xlink="http://www.w3.org/1999/xlink">
    <title>no-sats-promo</title>
    <defs>
        <rect id="path-1" x="0" y="0" width="64.630303" height="47.5763611" rx="2"></rect>
    </defs>
    <g id="illustrations" stroke="none" stroke-width="1" fill="none" fill-rule="evenodd">
        <g id="no-sats-promo" transform="translate(0.000000, 1.000000)">
            <rect id="Rectangle" x="0" y="0" width="247" height="215"></rect>
            <g id="example-scene-1" transform="translate(0.000000, 0.710994)">
                <g id="Middle_ground" transform="translate(0.097905, 0.084851)">
                    <g id="Group-7" transform="translate(85.917938, 92.110048) scale(-1, 1) translate(-85.917938, -92.110048) translate(0.813771, 0.000000)">
                        <g id="undraw_media_player_ylg8">
                            <polygon id="Triangle" fill="#FF6E61" transform="translate(133.418143, 8.825281) rotate(-90.000000) translate(-133.418143, -8.825281) " points="141.691653 17.6266529 124.626902 18.2070994 142.209384 -0.556536996"></polygon>
                            <path d="M140.781372,0.100904265 C141.885328,0.102476429 142.780504,0.996949401 142.782943,2.10090365 L142.805293,31.0249043 L107.387382,31.0255389 C106.33302,31.0255389 105.469217,31.8414167 105.392868,32.8762766 L105.387382,33.0255389 L105.387382,76.8087537 C105.387382,77.9133232 106.282813,78.8087537 107.387382,78.8087537 L107.387382,78.8087537 L142.842293,78.8079043 L142.914655,169.720974 L2.06829259,169.720974 C0.963723086,169.720974 0.0682925859,168.825544 0.0682925859,167.720974 L0.0682925859,2.10090427 C0.0682925859,0.996334766 0.963723086,0.100904265 2.06829259,0.100904265 L140.781372,0.100904265 Z" id="Rectangle-2" stroke="#000000"></path>
                            <ellipse id="Oval" fill="#FFFFFF" cx="115.114583" cy="169.535885" rx="14.78125" ry="14.6842105"></ellipse>
                            <g id="attach_money-24px" transform="translate(114.682510, 169.896010) scale(-1, 1) translate(-114.682510, -169.896010) translate(103.932510, 159.216584)">
                                <polygon id="Path" points="0 0 21.5 0 21.5 21.3588517 0 21.3588517"></polygon>
                                <path d="M10.5708333,9.70047847 C8.53729167,9.1754067 7.88333333,8.63253589 7.88333333,7.78708134 C7.88333333,6.81703349 8.788125,6.14066986 10.3020833,6.14066986 C11.8966667,6.14066986 12.4879167,6.89712919 12.5416667,8.00956938 L14.5214583,8.00956938 C14.45875,6.47885167 13.518125,5.07272727 11.6458333,4.61885167 L11.6458333,2.66985646 L8.95833333,2.66985646 L8.95833333,4.59215311 C7.22041667,4.96593301 5.82291667,6.08727273 5.82291667,7.80488038 C5.82291667,9.86066986 7.53395833,10.8841148 10.0333333,11.4803828 C12.2729167,12.0143541 12.7208333,12.797512 12.7208333,13.6251675 C12.7208333,14.2392344 12.281875,15.2181818 10.3020833,15.2181818 C8.45666667,15.2181818 7.73104167,14.3994258 7.6325,13.3492823 L5.66166667,13.3492823 C5.76916667,15.2982775 7.23833333,16.3929187 8.95833333,16.757799 L8.95833333,18.6889952 L11.6458333,18.6889952 L11.6458333,16.7755981 C13.3927083,16.4463158 14.78125,15.4406699 14.78125,13.6162679 C14.78125,11.0888038 12.604375,10.2255502 10.5708333,9.70047847 Z" id="Path" fill="#000000" fill-rule="nonzero"></path>
                            </g>
                            <path d="M115.28411,154.766823 C123.362692,154.766823 129.911676,161.264571 129.911676,169.279949 C129.911676,173.129069 128.370562,176.820539 125.627361,179.542278 C122.884161,182.264017 119.163582,183.793074 115.28411,183.793074 C107.205529,183.793074 100.656544,177.295327 100.656544,169.279949 C100.656544,161.264571 107.205529,154.766823 115.28411,154.766823 Z M115.28411,157.769539 C108.876959,157.769539 103.682937,162.922925 103.682937,169.279949 C103.682937,175.636973 108.876959,180.790359 115.28411,180.790359 C118.360933,180.790359 121.311736,179.577658 123.487378,177.419038 C125.66302,175.260417 126.885283,172.332699 126.885283,169.279949 C126.885283,162.922925 121.691261,157.769539 115.28411,157.769539 Z" id="Path-3" fill="#FF6E61" fill-rule="nonzero"></path>
                            <path d="M104.510467,167.857732 L104.510467,162.259646 C106.196656,162.431895 107.501394,163.603187 107.501394,165.015627 C107.501394,165.253453 107.695464,165.446249 107.934862,165.446249 C108.174259,165.446249 108.368329,165.253453 108.368329,165.015627 C108.368329,163.142421 106.690809,161.592182 104.510467,161.394096 L104.510467,160.537158 C104.510467,160.299332 104.316396,160.106536 104.076999,160.106536 C103.837601,160.106536 103.643531,160.299332 103.643531,160.537158 L103.643531,161.398402 C101.476192,161.566345 99.7423213,163.12089 99.7423213,165.058689 C99.7423213,166.996488 101.476192,168.503665 103.643531,168.684527 L103.643531,174.282613 C101.957342,174.110364 100.652604,172.939072 100.652604,171.526632 C100.652604,171.288806 100.458533,171.09601 100.219136,171.09601 C99.9797382,171.09601 99.7856681,171.288806 99.7856681,171.526632 C99.7856681,173.399838 101.463188,174.971608 103.643531,175.148163 L103.643531,176.009407 C103.643531,176.247233 103.837601,176.440029 104.076999,176.440029 C104.316396,176.440029 104.510467,176.247233 104.510467,176.009407 L104.510467,175.178307 C106.677805,175.010364 108.411676,173.455819 108.411676,171.518019 C108.411676,169.58022 106.677805,168.0429 104.510467,167.857732 Z" id="Path"></path>
                            <line x1="12.4487457" y1="17.2144436" x2="85.0112457" y2="17.2144436" id="Line" stroke="#000000" stroke-linecap="round"></line>
                            <line x1="12.4487457" y1="27.0399965" x2="85.0112457" y2="27.0399965" id="Line-Copy" stroke="#000000" stroke-linecap="round"></line>
                            <line x1="12.4487457" y1="36.8655493" x2="84.9046302" y2="36.8655493" id="Line-Copy-2" stroke="#000000" stroke-linecap="round"></line>
                            <line x1="12.4487457" y1="46.6911021" x2="85.0112457" y2="46.6911021" id="Line-Copy-3" stroke="#000000" stroke-linecap="round"></line>
                            <line x1="12.0991522" y1="56.5166549" x2="84.6720929" y2="56.4271104" id="Line-Copy-4" stroke="#000000" stroke-linecap="round"></line>
                            <line x1="12.4487457" y1="66.3422078" x2="84.6720929" y2="66.2165841" id="Line-Copy-5" stroke="#000000" stroke-linecap="round"></line>
                        </g>
                        <g id="Rectangle-2-Copy" transform="translate(137.319768, 55.157674) scale(-1, 1) translate(-137.319768, -55.157674) translate(104.621852, 31.128966)">
                            <mask id="mask-2" fill="white">
                                <use xlink:href="#path-1"></use>
                            </mask>
                            <use id="Rectangle" stroke="#000000" stroke-width="0.8" xlink:href="#path-1"></use>
                            <g id="Group-2" mask="url(#mask-2)">
                                <g transform="translate(27.000497, 10.342687)">
                                    <path d="M3.69751869,1.11579227 C5.72332531,1.11579227 7.34600354,2.72577892 7.34600354,4.73573279 C7.34600354,6.74568666 5.72332531,8.3556733 3.69751869,8.3556733 C1.67171207,8.3556733 0.0490338405,6.74568666 0.0490338405,4.73573279 C0.0490338405,2.72577892 1.67171207,1.11579227 3.69751869,1.11579227 Z" id="Path" stroke="none" fill="#FF746C" fill-rule="nonzero"></path>
                                    <ellipse id="Oval" stroke="#000000" stroke-width="1" fill="none" cx="4.2722305" cy="4.13707487" rx="4.16969697" ry="4.13707487"></ellipse>
                                </g>
                            </g>
                            <polyline id="Path-4" stroke="#000000" stroke-linecap="round" stroke-linejoin="round" mask="url(#mask-2)" points="15.2274447 36.1877284 26.4694161 25.7056926 34.7139613 33.096599"></polyline>
                            <polyline id="Path-5" stroke="#000000" stroke-linecap="round" stroke-linejoin="round" mask="url(#mask-2)" points="30.3417392 28.9406979 38.346155 21.0566269 55.0952394 36.8843651"></polyline>
                        </g>
                        <g id="Group-3" transform="translate(41.090981, 116.047238) scale(-1, 1) translate(-41.090981, -116.047238) translate(24.518064, 99.583123)" stroke-width="0.8">
                            <g id="Group-4" transform="translate(8.377221, 5.346379)" fill-rule="nonzero">
                                <ellipse id="Oval" stroke="#000000" cx="9.32867799" cy="9.25569403" rx="9.32867799" ry="9.25569403"></ellipse>
                                <polygon id="Path" stroke="#FF746C" fill="#FF746C" stroke-linejoin="round" points="7.40959464 12.8984251 7.40959464 5.88998711 12.1187291 9.39420612"></polygon>
                            </g>
                            <g id="Rectangle-2-Copy-2" transform="translate(0.314721, 0.006667)" stroke="#000000">
                                <path d="M30.8619236,0 C31.4142083,-2.06356265e-15 31.8619236,0.44771525 31.8619236,1 L31.8619236,27.285001 C31.8619236,27.8372858 31.4142083,28.285001 30.8619236,28.285001 L28.508,28.285 L28.5080369,30.6126482 C28.5080369,31.164933 28.0603216,31.6126482 27.5080369,31.6126482 L1,31.6126482 C0.44771525,31.6126482 6.76353751e-17,31.164933 0,30.6126482 L0,4.32764718 C-6.76353751e-17,3.77536243 0.44771525,3.32764718 1,3.32764718 L3.353,3.327 L3.35388669,1 C3.35388669,0.44771525 3.80160194,1.01453063e-16 4.35388669,0 L30.8619236,0 Z" id="Rectangle-3"></path>
                                <rect id="Rectangle" x="3.35388669" y="0" width="28.5080369" height="28.285001" rx="1"></rect>
                            </g>
                        </g>
                        <g id="Group-3-Copy" transform="translate(76.924314, 116.047238) scale(-1, 1) translate(-76.924314, -116.047238) translate(60.351397, 99.583123)" stroke-width="0.8">
                            <g id="Group-4" transform="translate(8.377221, 5.346379)" fill-rule="nonzero">
                                <ellipse id="Oval" stroke="#000000" cx="9.32867799" cy="9.25569403" rx="9.32867799" ry="9.25569403"></ellipse>
                                <polygon id="Path" stroke="#FF746C" fill="#FF746C" stroke-linejoin="round" points="7.40959464 12.8984251 7.40959464 5.88998711 12.1187291 9.39420612"></polygon>
                            </g>
                            <g id="Rectangle-2-Copy-2" transform="translate(0.314721, 0.006667)" stroke="#000000">
                                <path d="M30.8619236,0 C31.4142083,-1.01453063e-16 31.8619236,0.44771525 31.8619236,1 L31.8619236,27.285001 C31.8619236,27.8372858 31.4142083,28.285001 30.8619236,28.285001 L28.508,28.285 L28.5080369,30.6126482 C28.5080369,31.164933 28.0603216,31.6126482 27.5080369,31.6126482 L1,31.6126482 C0.44771525,31.6126482 1.91872266e-15,31.164933 0,30.6126482 L0,4.32764718 C-1.78657678e-16,3.77536243 0.44771525,3.32764718 1,3.32764718 L3.353,3.327 L3.35388669,1 C3.35388669,0.44771525 3.80160194,1.01453063e-16 4.35388669,0 L30.8619236,0 Z" id="Rectangle-3"></path>
                                <rect id="Rectangle" x="3.35388669" y="0" width="28.5080369" height="28.285001" rx="1"></rect>
                            </g>
                        </g>
                        <g id="Group-3-Copy-2" transform="translate(114.549314, 116.047238) scale(-1, 1) translate(-114.549314, -116.047238) translate(97.976397, 99.583123)" stroke-width="0.8">
                            <g id="Group-4" transform="translate(8.377221, 5.346379)" fill-rule="nonzero">
                                <ellipse id="Oval" stroke="#000000" cx="9.32867799" cy="9.25569403" rx="9.32867799" ry="9.25569403"></ellipse>
                                <polygon id="Path" stroke="#FF746C" fill="#FF746C" stroke-linejoin="round" points="7.40959464 12.8984251 7.40959464 5.88998711 12.1187291 9.39420612"></polygon>
                            </g>
                            <g id="Rectangle-2-Copy-2" transform="translate(0.314721, 0.006667)" stroke="#000000">
                                <path d="M30.8619236,0 C31.4142083,-2.06356265e-15 31.8619236,0.44771525 31.8619236,1 L31.8619236,27.285001 C31.8619236,27.8372858 31.4142083,28.285001 30.8619236,28.285001 L28.508,28.285 L28.5080369,30.6126482 C28.5080369,31.164933 28.0603216,31.6126482 27.5080369,31.6126482 L1,31.6126482 C0.44771525,31.6126482 2.02974496e-15,31.164933 0,30.6126482 L0,4.32764718 C-6.76353751e-17,3.77536243 0.44771525,3.32764718 1,3.32764718 L3.353,3.327 L3.35388669,1 C3.35388669,0.44771525 3.80160194,1.01453063e-16 4.35388669,0 L30.8619236,0 Z" id="Rectangle-3"></path>
                                <rect id="Rectangle" x="3.35388669" y="0" width="28.5080369" height="28.285001" rx="1"></rect>
                            </g>
                        </g>
                    </g>
                </g>
            </g>
            <g id="Man" transform="translate(156.000000, 34.000000)">
                <path d="M8.07895214,129.528605 C6.56264969,136.725149 0.606617072,180.351266 5.35197139,180.351266 C8.51554094,180.351266 17.7286229,180.351266 32.9912173,180.351266 C32.9912173,151.532318 32.9912173,137.122845 32.9912173,137.122845 L8.07895214,129.528605 Z" id="Path" stroke="#000000" fill="#FFFFFF" fill-rule="nonzero"></path>
                <path d="M75.8147467,144.686241 C70.0056189,168.462924 67.0333807,180.351266 66.8980323,180.351266 C66.7626838,180.351266 69.4577757,168.462924 74.9833078,144.686241" id="Path" stroke="#000000" fill-rule="nonzero"></path>
                <path d="M88.5196395,55.9789698 C94.1459432,67.0101452 88.8440071,117.998162 85.3467345,119.975224 C83.4595047,121.037969 82.9464141,120.004909 82.397938,122.166022 C82.164678,123.085116 81.0631294,127.456779 79.874026,132.178106 L79.6805543,132.946302 L79.6805543,132.946302 L79.3890871,134.103657 L79.3890871,134.103657 L79.1950149,134.874313 C77.8070589,140.385951 76.500345,145.576992 76.500345,145.576992 C73.1033315,145.671094 23.5753457,138.160633 7.49850723,129.379627 C7.59286872,126.93947 8.37135099,120.592685 8.37135099,120.10584 C6.23642233,120.984535 3.65327661,121.168586 2.94556545,120.10584 C-3.32947347,110.541135 6.02410898,60.6752345 12.7355698,50.6414958 C15.5900048,46.3370813 36.2138874,43.9622319 45.7915784,43.9325463 C51.7599425,43.9325463 82.8933358,44.9477944 88.5196395,55.9789698 Z M17.1882525,93.8459434 C14.3868958,95.3242871 10.6124363,102.015425 11.385021,103.565014 C11.5958373,104.134666 12.0517927,104.577408 12.6248876,104.768951 C13.1979826,104.960494 13.8264339,104.880188 14.3338175,104.550577 C15.094607,104.057796 20.773989,95.6686403 23.4161107,96.0961132 C24.9317921,96.3395352 19.9896091,92.3675996 17.1882525,93.8459434 Z" id="Combined-Shape" fill="#000000" fill-rule="nonzero"></path>
                <path d="M53.5108252,32.3414133 L53.5108252,50.4979361 C53.5108252,52.4435904 38.3441585,52.4435904 38.3441585,50.4979361 L38.3441585,36.0457279" id="Path" stroke="#000000" fill-rule="nonzero"></path>
                <path d="M41.6461815,6.48427043 C49.3466775,6.48427043 55.6828158,12.4267608 56.4650268,20.0497479 C57.8560452,20.4985136 58.8637663,21.8232232 58.8637663,23.3873673 C58.8637663,25.3220452 57.5310227,26.926013 55.6292207,26.926013 C55.6245529,26.926013 55.619886,26.9260033 55.61522,26.925984 C53.5073584,32.6920344 48.0482986,36.7995414 41.6461815,36.7995414 C33.4171044,36.7995414 26.7461193,30.0132368 26.7461193,21.6419059 C26.7461193,13.270575 33.4171044,6.48427043 41.6461815,6.48427043 Z" id="Combined-Shape" stroke="#000000" fill-rule="nonzero"></path>
                <path d="M37.1697434,0.242891116 C29.0984758,0.242891116 24.0696487,5.21195073 24.0696487,11.5804849 C24.0696487,16.8762941 25.3771437,19.8725261 26.9172221,20.6308317 C27.8915573,15.4891497 30.0099507,13.1094264 31.7637542,12.086022 C33.1278236,13.1094264 35.4599422,15.5877911 38.577815,16.3522618 C41.6956878,17.1167325 49.8109576,16.9687704 56.367291,21.6419059 C58.5108285,19.7307291 60.6480801,17.2461993 60.6480801,14.3177833 C60.6480801,11.3893673 59.3280129,7.71497579 51.5647611,5.59418608 C46.4353574,4.19471148 45.7187495,0.242891116 37.1697434,0.242891116 Z" id="Path" fill="#000000" fill-rule="nonzero"></path>
                <ellipse id="Oval" fill="#FF6E61" fill-rule="nonzero" cx="28.530433" cy="24.7625955" rx="2.67647059" ry="1.33743842"></ellipse>
                <ellipse id="Oval" fill="#FF6E61" fill-rule="nonzero" cx="44.5892565" cy="24.7625955" rx="2.67647059" ry="1.33743842"></ellipse>
                <path d="M34.775531,22.5335315 C34.2082651,23.1806791 31.3165926,25.8964867 34.3673763,26.9916596" id="Path" stroke="#000000" stroke-width="0.5" stroke-linecap="round"></path>
                <path d="M39.2363154,30.5581621 C40.0356233,30.5581621 41.2648621,29.6177981 41.9127859,28.7749108" id="Path" stroke="#000000" stroke-width="0.5" stroke-linecap="round"></path>
                <path d="M66.8931781,74.2478172 C66.6283399,77.5191238 65.5925284,93.686016 65.9809577,95.8135506 C61.0431972,97.5440244 15.8323791,119.133463 8.01082516,121.503975" id="Path" stroke="#FFFFFF" stroke-width="0.5" stroke-linecap="round"></path>
                <path d="M13.3637663,68.8980635 C12.4169494,72.6290809 9.22879757,89.563553 11.4701325,97.4300832" id="Path" stroke="#FFFFFF" stroke-width="0.5" stroke-linecap="round"></path>
                <path d="M24.9618056,114.37097 C27.3196821,115.893382 49.9199289,125.087451 81.1676879,121.620035" id="Path" stroke="#FFFFFF" stroke-width="0.5" stroke-linecap="round"></path>
                <line x1="67.785335" y1="179.905453" x2="32.9912173" y2="179.905453" id="Path-2" stroke="#000000"></line>
            </g>
        </g>
    </g>
</svg>