<?xml version="1.0" encoding="UTF-8"?>
<svg width="247px" height="220px" viewBox="0 0 247 220" version="1.1" xmlns="http://www.w3.org/2000/svg" xmlns:xlink="http://www.w3.org/1999/xlink">
    <title>no-views</title>
    <defs>
        <path d="M9.07602434,0 L7.48660385,0.268096596 L5.89713473,0.536144501 L5.85015103,2.02080366 C5.21343927,2.3051146 4.61130868,2.67882353 4.06457605,3.13934979 L4.06457605,3.13934979 L2.7108036,2.5343552 L1.77628525,3.84908027 L0.841718258,5.16375664 L1.85624508,6.24597875 C1.60080163,6.91402912 1.44540525,7.60598711 1.38567856,8.30140222 L1.38567856,8.30140222 L0,8.83223933 L0.267797338,10.4234847 L0.535594675,12.01473 L2.01854797,12.0618149 C2.30254155,12.6992381 2.6757847,13.3019929 3.1357969,13.8493365 L3.1357969,13.8493365 L2.53147763,15.2046218 L3.84478379,16.1402331 L5.15804131,17.0757958 L6.23895814,16.0601353 C6.9062628,16.3159128 7.59749705,16.4714829 8.29208727,16.5312763 L8.29208727,16.5312763 L8.82238047,17.9185033 L10.4118496,17.6504067 L12.0012701,17.3823102 L12.0483024,15.8976997 C12.6850142,15.6133887 13.2871934,15.2396798 13.833926,14.7791536 L13.833926,14.7791536 L15.1876499,15.3841481 L16.1221682,14.0694231 L17.0567352,12.754698 L16.0422084,11.6725246 C16.2976518,11.0045229 16.4530482,10.3125162 16.5127749,9.61714981 L16.5127749,9.61714981 L17.8984534,9.08621533 L17.6307047,7.49497 L17.3629074,5.90377336 L15.8799541,5.85668847 C15.5959119,5.21931389 15.2226201,4.61641304 14.7626079,4.06911814 L14.7626079,4.06911814 L15.3669758,2.71388157 L14.0537183,1.77831891 L12.7405094,0.842707555 L11.6594467,1.85836809 C10.9921907,1.6025905 10.301005,1.44702046 9.60636618,1.38727572 L9.60636618,1.38727572 L9.07602434,0 Z M7.02208833,11.6703044 C5.52649215,10.6048183 5.17688023,8.5272861 6.24117793,7.0299789 L6.24117793,7.0299789 C7.30551654,5.53267171 9.3807314,5.18266939 10.8763685,6.24815555 L10.8763685,6.24815555 C12.3719647,7.31368266 12.7216175,9.39125578 11.6572789,10.888563 L11.6572789,10.888563 C11.0089404,11.8005674 9.98538372,12.2869752 8.94636508,12.2869752 L8.94636508,12.2869752 C8.27966043,12.2869752 7.60669737,12.08681 7.02208833,11.6703044 L7.02208833,11.6703044 Z" id="path-1"></path>
        <path d="M6.32703098,0 L5.21902242,0.186349227 L4.11097996,0.37266461 L4.07822693,1.40462507 C3.63436573,1.6022446 3.21461157,1.8620031 2.83347616,2.18210681 L2.83347616,2.18210681 L1.88974134,1.76158571 L1.23827475,2.67542797 L0.586774263,3.58923639 L1.29401593,4.34146994 C1.11594252,4.80581999 1.0076134,5.28678782 0.965977046,5.77015863 L0.965977046,5.77015863 L-8.13931853e-13,6.13913416 L0.18668549,7.24518079 L0.373370981,8.35122742 L1.40715968,8.3839553 C1.60513581,8.827017 1.86532914,9.24598123 2.18601046,9.62643014 L2.18601046,9.62643014 L1.76473055,10.5684651 L2.68025572,11.2187921 L3.59574699,11.8690852 L4.34927012,11.1631174 C4.81445808,11.3409039 5.29632771,11.4490379 5.78053684,11.4905993 L5.78053684,11.4905993 L6.15021209,12.4548364 L7.25825456,12.2684872 L8.36626312,12.082138 L8.39905005,11.0502113 C8.84291125,10.8525918 9.26269931,10.5928333 9.64383472,10.2727296 L9.64383472,10.2727296 L10.5875356,10.6932507 L11.2390022,9.77940844 L11.8905027,8.86556618 L11.183261,8.11336647 C11.3613345,7.64905026 11.4696636,7.16804859 11.5112999,6.68471163 L11.5112999,6.68471163 L12.477277,6.31566841 L12.2906254,5.20962178 L12.1039399,4.10360899 L11.0701512,4.07088111 C10.8721412,3.62785325 10.6119139,3.20878748 10.2912326,2.82837242 L10.2912326,2.82837242 L10.7125464,1.88637133 L9.79705516,1.23607818 L8.8815978,0.585751194 L8.12797296,1.29171896 C7.6628189,1.11393246 7.18098317,1.00579846 6.69674013,0.964270947 L6.69674013,0.964270947 L6.32703098,0 Z M4.89520177,8.11182328 C3.85259952,7.37122259 3.60887988,5.92716654 4.35081757,4.88641465 L4.35081757,4.88641465 C5.09278378,3.84566276 6.53944679,3.60238231 7.58207755,4.34298299 L7.58207755,4.34298299 C8.6246798,5.08361214 8.86842796,6.52769666 8.12646175,7.56844855 L8.12646175,7.56844855 C7.67449541,8.20236675 6.96095888,8.54046026 6.2366436,8.54046026 L6.2366436,8.54046026 C5.77187391,8.54046026 5.30274139,8.401329 4.89520177,8.11182328 L4.89520177,8.11182328 Z" id="path-3"></path>
        <path d="M4.48164695,-1.62968281e-12 L3.69680755,0.131997369 L2.91194414,0.263970765 L2.88874407,0.994942757 C2.57434239,1.13492326 2.27701653,1.31891886 2.00704561,1.54565899 L2.00704561,1.54565899 L1.33856678,1.24778988 L0.877111283,1.89509481 L0.41563177,2.54237577 L0.91659462,3.07520787 C0.790459288,3.40412249 0.713726161,3.74480804 0.684233741,4.08719569 L0.684233741,4.08719569 L-2.03482963e-13,4.34855336 L0.132235556,5.13200306 L0.264471111,5.91545275 L0.996738109,5.938635 C1.1369712,6.25247037 1.32127481,6.54923671 1.54842408,6.81872135 L1.54842408,6.81872135 L1.25001747,7.4859961 L1.89851447,7.94664438 L2.54698745,8.40726869 L3.080733,7.90720819 C3.41024114,8.0331403 3.75156546,8.10973521 4.09454693,8.13917451 L4.09454693,8.13917451 L4.35640023,8.82217579 L5.14126364,8.69017842 L5.92610304,8.55818105 L5.94932712,7.82723303 C6.2637288,7.68725253 6.56107868,7.50325692 6.8310496,7.2765168 L6.8310496,7.2765168 L7.49950441,7.57438591 L7.96095991,6.92708098 L8.42243942,6.27977604 L7.92147657,5.74696792 C8.04761191,5.41807727 8.12434503,5.07736775 8.15383745,4.73500407 L8.15383745,4.73500407 L8.83807119,4.47359845 L8.70585965,3.69014876 L8.5736241,2.90672303 L7.8413571,2.88354079 C7.70109999,2.56972939 7.51677237,2.27289113 7.2896231,2.00343047 L7.2896231,2.00343047 L7.58805372,1.33617969 L6.93958074,0.87555538 L6.29113178,0.414907096 L5.75731418,0.914967598 C5.42783005,0.789035491 5.08652975,0.712440577 4.74352426,0.683025254 L4.74352426,0.683025254 L4.48164695,-1.62968281e-12 Z M3.46743459,5.74587482 C2.72892466,5.22128267 2.55628991,4.19840963 3.08182911,3.46121038 L3.08182911,3.46121038 C3.60738851,2.72401112 4.63210814,2.55168747 5.37063827,3.07627962 L5.37063827,3.07627962 C6.10914819,3.60089193 6.28180314,4.62378513 5.75624374,5.36098439 L5.75624374,5.36098439 C5.43610091,5.81000978 4.93067921,6.04949269 4.41762255,6.04949269 L4.41762255,6.04949269 C4.08841069,6.04949269 3.75610849,5.95094138 3.46743459,5.74587482 L3.46743459,5.74587482 Z" id="path-5"></path>
    </defs>
    <g id="illustrations" stroke="none" stroke-width="1" fill="none" fill-rule="evenodd">
        <g id="no-views">
            <rect id="Rectangle" x="0" y="0" width="247" height="216"></rect>
            <g id="Group-5">
                <g id="Group-87" transform="translate(28.797821, 0.700622)">
                    <path d="M0.799816602,18.9744939 L0.799816602,4 C0.799816602,1.790861 2.5906776,4.05812251e-16 4.7998166,0 L213.171,0 C215.380139,-4.05812251e-16 217.171,1.790861 217.171,4 L217.171,154.995475 L217.171,154.995475" id="Rectangle" stroke="#000000"></path>
                    <line x1="188.706729" y1="155.364446" x2="39.6641351" y2="155.638745" id="Rectangle" stroke="#000000"></line>
                    <line x1="0.799816602" y1="74.8018613" x2="0.799816602" y2="13.5010237" id="Rectangle" stroke="#000000"></line>
                    <g id="Group-86" transform="translate(6.178771, 5.758946)" fill="#000000">
                        <path d="M5.56853548,3.13232523 C5.56853548,4.41701398 4.52732321,5.45938978 3.24406848,5.45938978 C1.95938154,5.45938978 0.919601481,4.41701398 0.919601481,3.13232523 C0.919601481,1.84763648 1.95938154,0.805260679 3.24406848,0.805260679 C4.52732321,0.805260679 5.56853548,1.84763648 5.56853548,3.13232523 Z" id="Stroke-80"></path>
                        <path d="M13.9666098,3.13232523 C13.9666098,4.41701398 12.9253975,5.45938978 11.6421428,5.45938978 C10.3574559,5.45938978 9.3176758,4.41701398 9.3176758,3.13232523 C9.3176758,1.84763648 10.3574559,0.805260679 11.6421428,0.805260679 C12.9253975,0.805260679 13.9666098,1.84763648 13.9666098,3.13232523 Z" id="Stroke-82"></path>
                        <path d="M22.3646841,3.13232523 C22.3646841,4.41701398 21.3234719,5.45938978 20.0402171,5.45938978 C18.7555302,5.45938978 17.7157501,4.41701398 17.7157501,3.13232523 C17.7157501,1.84763648 18.7555302,0.805260679 20.0402171,0.805260679 C21.3234719,0.805260679 22.3646841,1.84763648 22.3646841,3.13232523 Z" id="Stroke-84"></path>
                    </g>
                    <g id="Group-14" transform="translate(64.274642, 42.507712)" fill-rule="nonzero">
                        <polygon id="Path" stroke="#000000" stroke-linejoin="round" points="0.613678439 71.6742081 108.004983 71.6742081 108.004983 0 0.613678439 0"></polygon>
                        <g id="eye-close-up" transform="translate(39.376812, 25.778091)" fill="#000000">
                            <path d="M15.2137681,0 C8.50250764,0 2.71828899,3.92201832 0.0612043453,9.58176257 C-0.0204014484,9.75326998 -0.0204014484,9.95390128 0.0612043453,10.1286447 C2.71828899,15.7883566 8.50254029,19.7104072 15.2137681,19.7104072 C21.9249959,19.7104072 27.7092472,15.7883889 30.3663319,10.1286447 C30.4479377,9.95713726 30.4479377,9.75650596 30.3663319,9.58176257 C27.7092472,3.92201832 21.9250286,0 15.2137681,0 Z M15.2137681,16.6556663 C11.4239951,16.6556663 8.35561721,13.6105685 8.35561721,9.85682161 C8.35561721,6.09983872 11.4272593,3.05800933 15.2137681,3.05800933 C19.0035412,3.05800933 22.071919,6.10307471 22.071919,9.85682161 C22.071919,13.6105685 19.0002769,16.6556663 15.2137681,16.6556663 Z" id="Shape"></path>
                            <ellipse id="Oval" cx="15.2137681" cy="9.85520362" rx="4.47463768" ry="4.47963801"></ellipse>
                        </g>
                    </g>
                    <line x1="1.32469625" y1="16.6397626" x2="211.276554" y2="16.6397626" id="Line" stroke="#000000" stroke-linecap="square"></line>
                </g>
                <g id="woman-writing" transform="translate(63.339995, 126.732585) scale(-1, 1) translate(-63.339995, -126.732585) translate(0.339995, 34.232585)">
                    <path d="M67.6475312,115.767415 C65.8763474,119.726477 51.0017874,162.859122 51.3458708,169.148025 C51.6899543,175.436929 83.3399946,184.767415 83.3399946,184.767415" id="Path" stroke="#000000" fill-rule="nonzero"></path>
                    <path d="M67.3399946,115.142112 C68.2249495,119.830135 82.9219213,184.47903 82.9219213,184.47903 C104.53397,184.671286 115.339995,184.767415 115.339995,184.767415 C115.339995,184.767415 107.378981,129.629036 105.845979,113.767415" id="Path" stroke="#000000" fill-rule="nonzero"></path>
                    <path d="M87.3399946,34.7674146 C87.3399946,39.3272646 87.3399946,42.3272646 87.3399946,43.7674146 L78.3399946,43.7674146 L78.3399946,35.4485196" id="Path" stroke="#000000" fill-rule="nonzero"></path>
                    <circle id="Oval" stroke="#000000" fill-rule="nonzero" cx="82.3399946" cy="25.7674146" r="10"></circle>
                    <ellipse id="Oval" fill="#FF6E61" fill-rule="nonzero" cx="71.8399946" cy="27.7674146" rx="1.5" ry="1"></ellipse>
                    <ellipse id="Oval" fill="#FF6E61" fill-rule="nonzero" cx="82.8399946" cy="27.7674146" rx="1.5" ry="1"></ellipse>
                    <path d="M76.3399946,25.7674146 C76.0232001,26.2021194 74.4003228,28.0268063 76.1121249,28.7674146" id="Path" stroke="#000000" stroke-width="0.62" stroke-linecap="round"></path>
                    <path d="M79.3399946,30.7674146 C80.1576425,30.6131769 80.8679002,30.2580481 81.3399946,29.7674146" id="Path" stroke="#000000" stroke-width="0.62" stroke-linecap="round"></path>
                    <path d="M106.971255,112.767415 C118.317786,112.458687 125.339995,103.89291 125.339995,83.5000732 C125.339995,75.0802397 111.310124,49.7309276 108.525527,40.1547703 C107.085412,35.2095214 108.244255,20.6600491 100.891793,13.2562088 C97.3477597,9.69181259 81.7652656,10.5337959 77.7430694,12.2121494 C73.7208733,13.8905029 74.193411,18.9480162 74.6040688,19.7394806 C75.5660206,18.9311766 77.675564,17.2921157 78.0524691,17.3426347 C80.0270018,17.5840032 85.4161821,23.6350569 87.0531878,26.413602 C88.3807938,28.6588909 86.3331303,42.6021352 88.9264623,46.5875231 C91.5197944,50.5729109 95.3254365,51.4692531 95.3254365,51.4692531 C100.493159,58.4925868 104.102004,69.6948023 106.151974,85.0758995 C107.776292,97.2633017 108.049386,106.493807 106.971255,112.767415 Z" id="Path" fill="#000000" fill-rule="nonzero"></path>
                    <path d="M74.2439799,46.0270196 C76.8558256,43.5893411 80.107241,42.3748969 84.1310383,42.8805159 C86.8794447,42.987784 89.3599534,44.552185 91.5817505,47.131984 L91.8275734,46.2908048 C101.390951,54.4598954 111.339995,90.0561783 111.339995,94.436059 C111.339995,106.784425 98.8533865,128.767415 98.8533865,128.767415 C98.8533865,128.767415 94.7563929,125.557731 93.1969642,124.393106 C93.5408081,123.853619 94.5795972,117.972653 95.5250623,111.874823 C84.526756,114.408373 68.9207824,116.717084 67.2623797,114.875503 C65.88575,113.346817 63.0407453,90.7236542 65.2003227,71.2203109 C57.467133,74.2918154 41.1253874,79.1231934 39.13677,79.1231934 C37.8791662,79.1231934 29.8346941,72.214851 22.0375507,65.2138679 L21.1035308,64.3737414 C13.6480726,57.6561518 6.67986108,51.1044386 6.42230383,50.7486987 C5.88572622,50.0075738 8.09351951,47.7340479 9.54116119,46.2908048 C10.2475647,46.7465006 16.2104415,50.1364444 22.6363819,53.6354772 L23.4767801,54.0922593 C23.6171529,54.1684153 23.757646,54.2445649 23.8982101,54.3206789 L24.7420544,54.7767047 C25.0233576,54.9284164 25.3045513,55.0797538 25.5852414,55.2304848 L26.4254071,55.680626 C32.5697667,58.9649136 38.2797363,61.8432822 39.360344,61.8432822 C40.478773,61.8432822 47.0707675,58.9061118 54.2959595,55.5327404 L55.2415689,55.0904673 L55.2415689,55.0904673 L56.1919732,54.64448 C56.6679762,54.4207634 57.1448822,54.1961165 57.6213485,53.971233 L58.5732969,53.5213561 C65.3856903,50.2979245 71.9238522,47.1209093 74.2340229,46.0331781 Z" id="Combined-Shape" fill="#000000" fill-rule="nonzero"></path>
                    <path d="M5.05734822,50.7674146 C7.75622758,50.7674146 10.3399946,48.7918517 10.3399946,46.711171 C10.3399946,44.6304903 7.92562737,42.7674146 5.22674801,42.7674146 C2.52786865,42.7674146 0.339994646,44.4541395 0.339994646,46.5348203 C0.339994646,48.615501 2.35846886,50.7674146 5.05734822,50.7674146 Z" id="Oval" stroke="#000000" fill-rule="nonzero"></path>
                    <path d="M84.3399946,72.7674146 C85.8906573,74.7358297 97.3399946,95.7002967 97.3399946,98.853145 C97.3399946,100.415469 96.5007471,106.698605 95.5781306,112.767415" id="Path" stroke="#FFFFFF" stroke-linecap="round" stroke-linejoin="round"></path>
                    <path d="M88.3536878,42.9805477 C87.8778695,47.1154648 99.9300659,61.5428516 104.626672,65.7674146 C109.31768,59.8507852 106.501956,45.1936808 106.501956,45.1936808 L96.929612,40.7674146 L88.3536878,42.9805477 Z" id="Path" fill="#000000" fill-rule="nonzero"></path>
                    <ellipse id="Oval" fill="#000000" fill-rule="nonzero" cx="98.3399946" cy="6.76741455" rx="5" ry="6"></ellipse>
                    <path d="M70.3399946,52.7674146 C68.066068,57.8145264 66.1419108,64.7603132 65.3399946,71.7674146" id="Path" stroke="#000000" stroke-linecap="round" stroke-linejoin="round"></path>
                    <path d="M87.3399946,44.7674146 C92.3124455,50.2493953 94.8741258,52.6913523 99.6794049,62.0260428 C104.484684,71.3607333 104.484684,72.1492378 106.506514,81.7496297 C107.898238,89.7862416 108.339995,89.2330113 108.339995,99.7146381 C108.339995,104.741904 107.696861,109.132831 106.73816,112.767415" id="Path-2" stroke="#FFFFFF" stroke-linecap="round"></path>
                </g>
                <g id="Group-10" transform="translate(223.284420, 161.714932) scale(-1, 1) translate(-223.284420, -161.714932) translate(207.623188, 136.180995)">
                    <g id="Group-3" transform="translate(6.264493, 33.149321)">
                        <mask id="mask-2" fill="white">
                            <use xlink:href="#path-1"></use>
                        </mask>
                        <g id="Clip-2"></g>
                        <path d="M9.07602434,0 L7.48660385,0.268096596 L5.89713473,0.536144501 L5.85015103,2.02080366 C5.21343927,2.3051146 4.61130868,2.67882353 4.06457605,3.13934979 L4.06457605,3.13934979 L2.7108036,2.5343552 L1.77628525,3.84908027 L0.841718258,5.16375664 L1.85624508,6.24597875 C1.60080163,6.91402912 1.44540525,7.60598711 1.38567856,8.30140222 L1.38567856,8.30140222 L0,8.83223933 L0.267797338,10.4234847 L0.535594675,12.01473 L2.01854797,12.0618149 C2.30254155,12.6992381 2.6757847,13.3019929 3.1357969,13.8493365 L3.1357969,13.8493365 L2.53147763,15.2046218 L3.84478379,16.1402331 L5.15804131,17.0757958 L6.23895814,16.0601353 C6.9062628,16.3159128 7.59749705,16.4714829 8.29208727,16.5312763 L8.29208727,16.5312763 L8.82238047,17.9185033 L10.4118496,17.6504067 L12.0012701,17.3823102 L12.0483024,15.8976997 C12.6850142,15.6133887 13.2871934,15.2396798 13.833926,14.7791536 L13.833926,14.7791536 L15.1876499,15.3841481 L16.1221682,14.0694231 L17.0567352,12.754698 L16.0422084,11.6725246 C16.2976518,11.0045229 16.4530482,10.3125162 16.5127749,9.61714981 L16.5127749,9.61714981 L17.8984534,9.08621533 L17.6307047,7.49497 L17.3629074,5.90377336 L15.8799541,5.85668847 C15.5959119,5.21931389 15.2226201,4.61641304 14.7626079,4.06911814 L14.7626079,4.06911814 L15.3669758,2.71388157 L14.0537183,1.77831891 L12.7405094,0.842707555 L11.6594467,1.85836809 C10.9921907,1.6025905 10.301005,1.44702046 9.60636618,1.38727572 L9.60636618,1.38727572 L9.07602434,0 Z M6.6577745,12.1828138 C4.87944648,10.915904 4.46374291,8.44562709 5.72923854,6.66526313 L5.72923854,6.66526313 C6.99478281,4.88489917 9.4623023,4.46873106 11.240679,5.73564086 L11.240679,5.73564086 C13.019007,7.00259935 13.4347592,9.47292495 12.1692149,11.2532889 L12.1692149,11.2532889 C11.3983127,12.3377021 10.1812598,12.9160624 8.94582211,12.9160624 L8.94582211,12.9160624 C8.15308168,12.9160624 7.35289973,12.6780572 6.6577745,12.1828138 L6.6577745,12.1828138 Z" id="Fill-1" stroke="#FF6E61" stroke-width="2" fill="#FF6E61" mask="url(#mask-2)"></path>
                        <rect id="Rectangle" fill="#FF6E61" mask="url(#mask-2)" x="3.83540373" y="4.35164835" width="10.2277433" height="9.21525533"></rect>
                    </g>
                    <g id="Group-3" transform="translate(8.182563, 18.409447) rotate(-20.000000) translate(-8.182563, -18.409447) translate(1.918070, 12.137954)">
                        <mask id="mask-4" fill="white">
                            <use xlink:href="#path-3"></use>
                        </mask>
                        <g id="Clip-2"></g>
                        <path d="M6.32703098,0 L5.21902242,0.186349227 L4.11097996,0.37266461 L4.07822693,1.40462507 C3.63436573,1.6022446 3.21461157,1.8620031 2.83347616,2.18210681 L2.83347616,2.18210681 L1.88974134,1.76158571 L1.23827475,2.67542797 L0.586774263,3.58923639 L1.29401593,4.34146994 C1.11594252,4.80581999 1.0076134,5.28678782 0.965977046,5.77015863 L0.965977046,5.77015863 L-8.13931853e-13,6.13913416 L0.18668549,7.24518079 L0.373370981,8.35122742 L1.40715968,8.3839553 C1.60513581,8.827017 1.86532914,9.24598123 2.18601046,9.62643014 L2.18601046,9.62643014 L1.76473055,10.5684651 L2.68025572,11.2187921 L3.59574699,11.8690852 L4.34927012,11.1631174 C4.81445808,11.3409039 5.29632771,11.4490379 5.78053684,11.4905993 L5.78053684,11.4905993 L6.15021209,12.4548364 L7.25825456,12.2684872 L8.36626312,12.082138 L8.39905005,11.0502113 C8.84291125,10.8525918 9.26269931,10.5928333 9.64383472,10.2727296 L9.64383472,10.2727296 L10.5875356,10.6932507 L11.2390022,9.77940844 L11.8905027,8.86556618 L11.183261,8.11336647 C11.3613345,7.64905026 11.4696636,7.16804859 11.5112999,6.68471163 L11.5112999,6.68471163 L12.477277,6.31566841 L12.2906254,5.20962178 L12.1039399,4.10360899 L11.0701512,4.07088111 C10.8721412,3.62785325 10.6119139,3.20878748 10.2912326,2.82837242 L10.2912326,2.82837242 L10.7125464,1.88637133 L9.79705516,1.23607818 L8.8815978,0.585751194 L8.12797296,1.29171896 C7.6628189,1.11393246 7.18098317,1.00579846 6.69674013,0.964270947 L6.69674013,0.964270947 L6.32703098,0 Z M4.6412332,8.46805952 C3.40153441,7.58745281 3.11174129,5.87040679 3.99393704,4.63290713 L3.99393704,4.63290713 C4.87616669,3.39540747 6.59631107,3.10613634 7.83604378,3.98674305 L7.83604378,3.98674305 C9.07574257,4.8673836 9.36556959,6.58446346 8.48333994,7.82196312 L8.48333994,7.82196312 C7.94593256,8.57571968 7.09750702,8.9777277 6.23626508,8.9777277 L6.23626508,8.9777277 C5.68363399,8.9777277 5.1258153,8.81229453 4.6412332,8.46805952 L4.6412332,8.46805952 Z" id="Fill-1" stroke="#FF6E61" stroke-width="2" fill="#FF6E61" mask="url(#mask-4)"></path>
                        <rect id="Rectangle" fill="#FF6E61" mask="url(#mask-4)" x="2.67371674" y="3.0247542" width="7.12991131" height="6.40536184"></rect>
                    </g>
                    <g id="Group-3" transform="translate(24.979386, 5.849829) rotate(15.000000) translate(-24.979386, -5.849829) translate(20.504748, 1.370191)">
                        <mask id="mask-6" fill="white">
                            <use xlink:href="#path-5"></use>
                        </mask>
                        <g id="Clip-2"></g>
                        <path d="M4.48164695,-1.62968281e-12 L3.69680755,0.131997369 L2.91194414,0.263970765 L2.88874407,0.994942757 C2.57434239,1.13492326 2.27701653,1.31891886 2.00704561,1.54565899 L2.00704561,1.54565899 L1.33856678,1.24778988 L0.877111283,1.89509481 L0.41563177,2.54237577 L0.91659462,3.07520787 C0.790459288,3.40412249 0.713726161,3.74480804 0.684233741,4.08719569 L0.684233741,4.08719569 L-2.03482963e-13,4.34855336 L0.132235556,5.13200306 L0.264471111,5.91545275 L0.996738109,5.938635 C1.1369712,6.25247037 1.32127481,6.54923671 1.54842408,6.81872135 L1.54842408,6.81872135 L1.25001747,7.4859961 L1.89851447,7.94664438 L2.54698745,8.40726869 L3.080733,7.90720819 C3.41024114,8.0331403 3.75156546,8.10973521 4.09454693,8.13917451 L4.09454693,8.13917451 L4.35640023,8.82217579 L5.14126364,8.69017842 L5.92610304,8.55818105 L5.94932712,7.82723303 C6.2637288,7.68725253 6.56107868,7.50325692 6.8310496,7.2765168 L6.8310496,7.2765168 L7.49950441,7.57438591 L7.96095991,6.92708098 L8.42243942,6.27977604 L7.92147657,5.74696792 C8.04761191,5.41807727 8.12434503,5.07736775 8.15383745,4.73500407 L8.15383745,4.73500407 L8.83807119,4.47359845 L8.70585965,3.69014876 L8.5736241,2.90672303 L7.8413571,2.88354079 C7.70109999,2.56972939 7.51677237,2.27289113 7.2896231,2.00343047 L7.2896231,2.00343047 L7.58805372,1.33617969 L6.93958074,0.87555538 L6.29113178,0.414907096 L5.75731418,0.914967598 C5.42783005,0.789035491 5.08652975,0.712440577 4.74352426,0.683025254 L4.74352426,0.683025254 L4.48164695,-1.62968281e-12 Z M3.28754019,5.99820882 C2.4094202,5.37444574 2.20415008,4.15820481 2.82903873,3.28164255 L2.82903873,3.28164255 C3.4539514,2.40508029 4.67238701,2.20017991 5.55053101,2.82394299 L5.55053101,2.82394299 C6.42865099,3.44773005 6.63394513,4.66399495 6.00903246,5.54055721 L6.00903246,5.54055721 C5.6283689,6.07446811 5.02740081,6.35922379 4.41735443,6.35922379 L4.41735443,6.35922379 C4.02590741,6.35922379 3.63078584,6.24204196 3.28754019,5.99820882 L3.28754019,5.99820882 Z" id="Fill-1" stroke="#FF6E61" stroke-width="2" fill="#FF6E61" mask="url(#mask-6)"></path>
                        <rect id="Rectangle" fill="#FF6E61" mask="url(#mask-6)" x="1.89388269" y="2.14253423" width="5.05035384" height="4.53713131"></rect>
                    </g>
                </g>
            </g>
        </g>
    </g>
</svg>