<?xml version="1.0" encoding="UTF-8"?>
<svg width="380px" height="380px" viewBox="0 0 380 380" version="1.1" xmlns="http://www.w3.org/2000/svg" xmlns:xlink="http://www.w3.org/1999/xlink">
    <g id="Illustrations/Light/380px/no_wishlist" stroke="none" stroke-width="1" fill="none" fill-rule="evenodd">
        <g id="AddContentDashboard" transform="translate(52.000000, 70.000000)">
            <g id="imac" transform="translate(0.903414, 0.647467)">
                <path d="M268.886979,0.562533404 C272.200688,0.562533404 274.886979,3.2488249 274.886979,6.5625334 L274.886979,178.582533 C274.886979,188.523659 266.828105,196.582533 256.886979,196.582533 L18.306193,196.582533 C8.3650675,196.582533 0.306192993,188.523659 0.306192993,178.582533 L0.306192993,6.5625334 C0.306192993,3.2488249 2.99248449,0.562533404 6.30619299,0.562533404 L268.886979,0.562533404 Z M264.000516,11.4525334 L9.98304889,11.4525334 L9.98304889,156.652533 L264.000516,156.652533 L264.000516,11.4525334 Z" id="Combined-Shape" stroke="#000000"></path>
                <path d="M113.336199,239.775193 C110.576689,239.775193 107.951143,238.587148 106.131508,236.515488 C104.311872,234.443828 103.474743,231.68947 103.834362,228.957326 L108.103074,196.516353 L167.548841,196.516353 L171.589889,229.039423 C171.924057,231.760079 171.074022,234.493238 169.255225,236.546179 C167.436428,238.59912 164.823456,239.775193 162.078566,239.775193 L113.336199,239.775193 Z" id="Path" fill="#000000" fill-rule="nonzero"></path>
                <ellipse id="Oval" fill="#000000" fill-rule="nonzero" cx="138.45836" cy="182.770828" rx="7.58882134" ry="7.57819107"></ellipse>
            </g>
            <circle id="Oval" fill="#FF6E61" cx="121" cy="56" r="1"></circle>
            <circle id="Oval" fill="#FF6E61" cx="137" cy="63" r="1"></circle>
            <circle id="Oval" fill="#FF6E61" cx="154" cy="72" r="1"></circle>
            <circle id="Oval" fill="#FF6E61" cx="168" cy="87" r="1"></circle>
            <circle id="Oval" fill="#FF6E61" cx="178" cy="98" r="1"></circle>
            <path d="M134.266376,128.623 C134.629258,128.623 134.871179,128.986 134.871179,129.228 L134.871179,129.228 L134.629258,132.132 C134.629258,132.495 134.387336,132.737 134.024454,132.737 L134.024454,132.737 L133.919339,132.729861 C133.615607,132.68739 133.419651,132.4587 133.419651,132.132 L133.419651,132.132 L133.661572,129.228 C133.661572,128.865 133.903493,128.623 134.266376,128.623 Z M139.467686,47.19 C149.507424,47.19 158.095633,54.934 159.184279,64.856 C171.038428,66.913 181.078166,70.301 180.957205,73.931 C180.957205,77.924 157.974672,81.191 155.79738,81.554 C155.313537,82.038 154.829694,82.401 154.345852,82.643 C154.345852,82.764 154.224891,82.764 154.10393,82.764 C152.168559,83.732 148.660699,84.458 144.306114,84.821 L144.306114,84.821 L146.967249,93.533 C147.08821,93.775 146.967249,94.138 146.604367,94.259 L146.604367,94.259 L146.483406,94.259 C146.241485,94.259 145.999563,94.017 145.878603,93.775 L145.878603,93.775 L142.00786,80.949 C141.765939,80.949 141.403057,80.828 141.040175,80.828 L141.040175,80.828 L145.273799,125.477 C145.273799,125.719 145.031878,126.082 144.668996,126.082 L144.668996,126.082 L144.563881,126.074861 C144.260148,126.03239 144.064192,125.8037 144.064192,125.477 L144.064192,125.477 L139.709607,80.586 L139.709607,80.586 L138.620961,80.586 L137.774236,90.992 C137.774236,91.355 137.532314,91.597 137.169432,91.597 L137.169432,91.597 L137.064317,91.589861 C136.760585,91.54739 136.564629,91.3187 136.564629,90.992 L136.564629,90.992 L137.411354,80.707 C136.927511,80.828 136.564629,80.828 136.322707,80.949 L136.322707,80.949 L129.306987,108.053 C129.186026,108.416 128.944105,108.537 128.702183,108.537 L128.702183,108.537 L128.581223,108.537 C128.218341,108.416 127.976419,108.174 128.09738,107.811 L128.09738,107.811 L134.145415,84.7 C131.363319,84.579 129.065066,84.216 127.371616,83.853 C126.162009,83.611 125.315284,83.127 124.58952,82.643 L124.58952,82.643 L124.383604,82.5535364 C123.823435,82.2919506 123.178311,81.8497778 122.533188,81.312 C118.057642,80.707 97.9781659,77.924 97.9781659,74.294 C97.9781659,73.689 98.2200873,73.084 98.8248908,72.479 C101.486026,69.817 109.711354,66.913 119.751092,65.098 C120.718777,55.055 129.306987,47.19 139.467686,47.19 Z M137.048472,93.654 C137.411354,93.654 137.653275,94.017 137.653275,94.259 L137.653275,94.259 L135.234061,125.356 C135.234061,125.719 134.99214,125.961 134.629258,125.961 L134.629258,125.961 L134.524143,125.953861 C134.22041,125.91139 134.024454,125.6827 134.024454,125.356 L134.024454,125.356 L136.443668,94.259 C136.443668,93.896 136.68559,93.654 137.048472,93.654 Z M126.766812,113.014 C126.887773,112.651 127.129694,112.409 127.492576,112.53 C127.855459,112.651 128.09738,113.014 127.976419,113.256 L127.976419,113.256 L126.40393,119.306 C126.282969,119.669 126.041048,119.79 125.799127,119.79 L125.799127,119.79 L125.678166,119.79 C125.315284,119.669 125.073362,119.427 125.194323,119.064 L125.194323,119.064 Z M153.015284,115.555 C153.257205,115.434 153.620087,115.555 153.741048,115.918 L153.741048,115.918 L154.345852,117.975 C154.466812,118.217 154.345852,118.58 153.982969,118.701 L153.982969,118.701 L153.862009,118.701 C153.620087,118.701 153.378166,118.459 153.257205,118.217 L153.257205,118.217 L152.652402,116.281 C152.531441,116.039 152.652402,115.676 153.015284,115.555 Z M148.660699,100.914 C148.90262,100.793 149.265502,100.914 149.386463,101.277 L149.386463,101.277 L152.773362,112.651 C152.894323,113.014 152.652402,113.256 152.41048,113.498 L152.41048,113.498 L152.28952,113.498 C152.047598,113.498 151.805677,113.256 151.684716,113.014 L151.684716,113.014 L148.297817,101.64 C148.176856,101.398 148.297817,101.035 148.660699,100.914 Z M139.467686,77.561 C129.548908,77.561 124.347598,79.497 124.347598,80.586 C124.347598,80.707 125.315284,81.917 127.613537,82.522 C129.186026,82.885 131.484279,83.248 134.387336,83.369 L134.387336,83.369 L134.871179,81.554 C134.629258,81.433 134.508297,81.191 134.508297,80.949 C134.508297,79.497 138.016157,79.376 139.467686,79.376 C141.161135,79.376 144.064192,79.618 144.064192,80.949 C144.064192,81.312 143.822271,81.554 143.459389,81.554 L143.459389,81.554 L143.822271,83.369 C148.297817,83.006 151.926638,82.28 153.741048,81.312 L153.741048,81.312 L153.982969,81.07 C154.345852,80.828 154.587773,80.586 154.587773,80.465 C154.587773,80.102 153.741048,79.255 150.475109,78.529 C147.572052,77.924 143.70131,77.561 139.467686,77.561 Z M158.216594,77.077 C156.886026,75.141 149.749345,73.205 139.709607,73.326 C134.629258,73.447 129.91179,73.931 126.282969,74.899 C122.654148,75.867 121.323581,76.956 121.081659,77.682 C121.444541,78.166 122.291266,79.255 123.379913,80.223 C124.347598,77.561 133.419651,76.472 139.588646,76.472 C143.822271,76.472 147.813974,76.835 150.837991,77.44 C153.620087,78.045 155.192576,78.771 155.918341,79.86 C156.765066,78.892 157.732751,77.803 158.216594,77.077 Z M139.467686,64.372 C132.814847,64.372 126.282969,64.977 120.476856,66.066 L120.476856,66.066 L120.234934,66.066 L120.234934,66.066 L119.705191,66.1669931 C109.679675,68.1019581 101.930244,70.9456379 99.6716157,73.205 C99.3087336,73.568 99.0668122,73.931 99.0668122,74.173 C99.0668122,75.383 108.380786,78.045 121.081659,79.739 C120.234934,78.892 119.751092,78.287 119.751092,78.166 C119.630131,78.045 119.630131,77.924 119.630131,77.803 C119.630131,75.746 122.89607,74.415 125.678166,73.689 C129.427948,72.721 134.266376,72.116 139.467686,72.116 C148.297817,71.995 157.974672,73.689 159.30524,76.835 C159.30524,77.077 159.30524,77.319 159.184279,77.44 C159.184279,77.44 158.337555,78.65 157.248908,79.86 C169.5869,78.045 179.868559,75.141 179.868559,73.81 C179.868559,70.664 161.119651,64.372 139.467686,64.372 Z M103.058515,72.116 C103.542358,71.874 103.90524,71.753 104.389083,71.874 C104.872926,71.995 105.235808,72.237 105.235808,72.6 C105.477729,73.084 105.477729,73.447 105.477729,73.931 C105.477729,74.415 105.114847,74.778 104.751965,75.02 C104.510044,75.141 104.268122,75.262 103.90524,75.262 L103.90524,75.262 L103.542358,75.262 C102.695633,75.02 102.09083,74.173 102.332751,73.205 C102.332751,72.721 102.695633,72.358 103.058515,72.116 Z M172.731878,72.721 C172.973799,71.874 173.820524,71.269 174.78821,71.511 C175.272052,71.632 175.634934,71.632 175.876856,72.116 C176.118777,72.6 176.239738,72.963 176.118777,73.447 C175.876856,74.294 175.151092,74.778 174.425328,74.778 L174.425328,74.778 L174.062445,74.778 C173.578603,74.778 173.215721,74.536 172.973799,74.052 C172.731878,73.568 172.610917,73.205 172.731878,72.721 Z M104.147162,72.842 L104.026201,72.842 C103.90524,72.842 103.90524,72.963 103.784279,72.963 C103.663319,73.084 103.542358,73.205 103.542358,73.326 C103.421397,73.447 103.421397,73.568 103.542358,73.689 C103.663319,73.81 103.784279,73.931 103.90524,73.931 C104.026201,74.052 104.147162,74.052 104.268122,73.931 C104.389083,73.81 104.510044,73.689 104.510044,73.568 L104.510044,73.568 L104.510044,73.084 C104.389083,72.963 104.268122,72.842 104.147162,72.842 L104.147162,72.842 Z M174.546288,72.6 L174.425328,72.6 C174.304367,72.6 174.304367,72.721 174.183406,72.721 C174.062445,72.842 173.941485,72.963 173.941485,73.084 C173.820524,73.205 173.820524,73.326 173.941485,73.447 C174.062445,73.568 174.183406,73.689 174.304367,73.689 C174.546288,73.689 174.78821,73.568 174.90917,73.326 L174.90917,73.326 L174.90917,72.842 C174.78821,72.721 174.667249,72.6 174.546288,72.6 L174.546288,72.6 Z M119.267249,68.002 C119.751092,67.76 120.113974,67.639 120.597817,67.76 C121.081659,67.881 121.323581,68.002 121.565502,68.486 C121.807424,68.97 121.928384,69.333 121.807424,69.817 C121.807424,70.301 121.444541,70.664 121.081659,70.906 C120.839738,71.027 120.597817,71.148 120.234934,71.148 L120.234934,71.148 L119.872052,71.148 C119.38821,71.148 119.025328,70.785 118.783406,70.422 C118.541485,69.938 118.541485,69.575 118.541485,69.091 C118.541485,68.607 118.904367,68.244 119.267249,68.002 Z M158.216594,68.97 C158.458515,68.123 159.30524,67.518 160.272926,67.76 C160.635808,67.881 160.99869,68.123 161.240611,68.365 C161.482533,68.849 161.603493,69.212 161.482533,69.696 C161.482533,70.18 161.119651,70.543 160.756769,70.785 C160.514847,70.906 160.272926,71.027 159.910044,71.027 L159.910044,71.027 L159.547162,71.027 C159.063319,71.027 158.700437,70.785 158.458515,70.301 C158.216594,69.817 158.095633,69.454 158.216594,68.97 Z M120.355895,68.849 L120.234934,68.849 C120.113974,68.849 120.113974,68.97 119.993013,68.97 C119.872052,69.091 119.872052,69.212 119.751092,69.333 C119.630131,69.454 119.630131,69.575 119.751092,69.696 C119.872052,69.817 119.993013,69.938 120.113974,69.938 C120.234934,70.059 120.355895,70.059 120.476856,69.938 C120.597817,69.817 120.718777,69.696 120.718777,69.575 L120.718777,69.575 L120.718777,69.091 C120.597817,68.97 120.476856,68.849 120.355895,68.849 L120.355895,68.849 Z M159.910044,68.97 L159.789083,68.97 C159.547162,68.97 159.30524,69.091 159.30524,69.333 C159.184279,69.454 159.184279,69.575 159.30524,69.696 C159.426201,69.817 159.547162,69.938 159.668122,69.938 C159.789083,70.059 159.910044,70.059 160.031004,69.938 C160.151965,69.817 160.272926,69.696 160.272926,69.575 C160.393886,69.454 160.272926,69.333 160.151965,69.212 C160.151965,69.091 160.031004,68.97 159.910044,68.97 L159.910044,68.97 Z M137.895197,67.034 C138.137118,66.187 138.983843,65.582 139.951528,65.824 C140.435371,65.945 140.677293,65.945 140.919214,66.429 C141.161135,66.913 141.282096,67.276 141.161135,67.76 C140.919214,68.607 140.19345,69.091 139.467686,69.091 L139.467686,69.091 L139.104803,69.091 C138.258079,68.849 137.653275,67.881 137.895197,67.034 Z M139.709607,66.913 L139.588646,66.913 C139.346725,66.913 139.104803,67.034 139.104803,67.276 C138.983843,67.518 139.225764,67.76 139.467686,67.881 C139.709607,68.002 139.951528,67.76 140.072489,67.518 L140.072489,67.518 L140.072489,67.155 C139.951528,67.034 139.830568,66.913 139.709607,66.913 L139.709607,66.913 Z M139.467686,48.4 C130.032751,48.4 122.049345,55.539 120.960699,64.856 C126.887773,63.767 133.29869,63.162 139.467686,63.162 C145.39476,63.162 151.805677,63.767 157.974672,64.735 C156.765066,55.539 148.781659,48.4 139.467686,48.4 Z M153.499127,58.564 C153.741048,58.443 154.224891,58.564 154.345852,58.806 C154.708734,59.411 155.071616,60.016 155.313537,60.621 C155.555459,60.984 155.313537,61.347 155.071616,61.468 L155.071616,61.468 L154.829694,61.468 C154.587773,61.468 154.345852,61.347 154.224891,61.105 C153.862009,60.5 153.620087,59.895 153.257205,59.411 C153.136245,59.169 153.257205,58.685 153.499127,58.564 Z M145.152838,51.425 C145.39476,51.183 145.757642,51.062 145.999563,51.183 C148.418777,52.393 150.59607,54.087 152.41048,56.144 C152.531441,56.386 152.531441,56.749 152.28952,56.991 C152.168559,57.112 152.047598,57.112 151.926638,57.112 C151.684716,57.112 151.563755,56.991 151.442795,56.87 C149.749345,54.934 147.693013,53.361 145.39476,52.272 C145.152838,52.151 145.031878,51.788 145.152838,51.425 Z" id="Combined-Shape" fill="#000000" fill-rule="nonzero" transform="translate(139.468226, 89.963500) rotate(37.000000) translate(-139.468226, -89.963500) "></path>
            <g id="video" transform="translate(11.000000, 15.000000)" fill="#000000">
                <rect id="Rectangle" x="0" y="5.83333333" width="254" height="1.16666667"></rect>
                <g id="Group-4" transform="translate(3.030039, 0.177677)" fill-rule="nonzero">
                    <ellipse id="Oval" cx="1.88093058" cy="1.81296682" rx="1.88093058" ry="1.81296682"></ellipse>
                    <ellipse id="Oval" cx="8.36039043" cy="1.81296682" rx="1.88093058" ry="1.81296682"></ellipse>
                    <ellipse id="Oval" cx="14.8398503" cy="1.81296682" rx="1.88093058" ry="1.81296682"></ellipse>
                </g>
            </g>
            <g id="undraw_cancel_u1it" transform="translate(245.494026, 38.626757) rotate(45.000000) translate(-245.494026, -38.626757) translate(233.994026, 27.626757)">
                <ellipse id="Oval" fill="#FF6E61" cx="12.9487536" cy="10.1548662" rx="10.0329114" ry="10.0139155"></ellipse>
                <ellipse id="Oval" stroke="#000000" stroke-width="0.8" cx="10.0329114" cy="11.2239155" rx="10.0329114" ry="10.0139155"></ellipse>
            </g>
        </g>
        <path d="M298.310689,104 C297.354052,104 296.484507,104.513385 295.999542,105.352677 C295.515493,104.513843 294.646406,104 293.689311,104 C292.206454,104 291,105.243583 291,106.771819 C291,108.865237 293.642098,110.84681 295.221214,112.030345 C295.497616,112.23799 295.742849,112.421801 295.93766,112.578566 C295.955537,112.593234 295.977539,112.600568 296,112.600568 C296.022461,112.600568 296.044004,112.593234 296.06234,112.578566 C296.257151,112.421801 296.501925,112.23799 296.778786,112.030345 C298.357902,110.846351 301,108.864778 301,106.771819 C300.999083,105.243583 299.793088,104 298.310689,104 Z M296.659149,111.871746 C296.409333,112.059223 296.184727,112.227906 295.999542,112.374587 C295.814356,112.227906 295.589751,112.059223 295.339934,111.871746 C293.790612,110.710213 291.19802,108.765768 291.19802,106.771819 C291.19802,105.352677 292.315548,104.198478 293.689311,104.198478 C294.632197,104.198478 295.482948,104.73799 295.911074,105.606619 C295.927118,105.640539 295.961496,105.662083 295.999542,105.662083 C296.037587,105.662083 296.071507,105.640539 296.088467,105.606619 C296.517052,104.73799 297.368262,104.198478 298.310689,104.198478 C299.683993,104.198478 300.801522,105.352677 300.801522,106.771819 C300.801063,108.766227 298.208471,110.710213 296.659149,111.871746 Z" id="Shape" stroke="#000000" stroke-width="0.5" fill="#000000" fill-rule="nonzero" stroke-linejoin="round"></path>
    </g>
</svg>
