<?xml version="1.0" encoding="UTF-8"?>
<svg width="24px" height="24px" viewBox="0 0 24 24" version="1.1" xmlns="http://www.w3.org/2000/svg" xmlns:xlink="http://www.w3.org/1999/xlink">
    <title>Group</title>
    <g id="Existing-org" stroke="none" stroke-width="1" fill="none" fill-rule="evenodd">
        <g id="waiting" transform="translate(-515.000000, -399.000000)" fill-rule="nonzero">
            <g id="Group-12" transform="translate(303.000000, 137.000000)">
                <g id="content" transform="translate(36.000000, 36.000000)">
                    <g id="lines" transform="translate(176.000000, 166.000000)">
                        <g id="Group-3" transform="translate(0.000000, 57.000000)">
                            <g id="Group" transform="translate(0.000000, 3.000000)">
                                <path d="M12.3066603,13 L16.6933397,13 C16.8628414,13 17,12.776123 17,12.5 C17,12.223877 16.8628414,12 16.6933397,12 L12.3066603,12 C12.1371586,12 12,12.223877 12,12.5 C12,12.776123 12.1371586,13 12.3066603,13 Z" id="Path" fill="#000000"></path>
                                <path d="M7.5,12 C7.2236328,12 7,12.0972841 7,12.2172714 L7,12.7827286 C7,12.9027159 7.2236328,13 7.5,13 C7.7763672,13 8,12.9027159 8,12.7827286 L8,12.2172714 C8,12.0972841 7.7763672,12 7.5,12 Z" id="Path" fill="#000000"></path>
                                <path d="M8.5,12 C8.2236328,12 8,12.0972841 8,12.2172714 L8,12.7827286 C8,12.9027159 8.2236328,13 8.5,13 C8.7763672,13 9,12.9027159 9,12.7827286 L9,12.2172714 C9,12.0972841 8.77636715,12 8.5,12 Z" id="Path" fill="#000000"></path>
                                <path d="M7.5,14 C7.2236328,14 7,14.0972841 7,14.2172714 L7,14.7827286 C7,14.9027159 7.2236328,15 7.5,15 C7.7763672,15 8,14.9027159 8,14.7827286 L8,14.2172714 C8,14.0972841 7.7763672,14 7.5,14 Z" id="Path" fill="#879DEF"></path>
                                <path d="M8.5,14 C8.2236328,14 8,14.0972841 8,14.2172714 L8,14.7827286 C8,14.9027159 8.2236328,15 8.5,15 C8.7763672,15 9,14.9027159 9,14.7827286 L9,14.2172714 C9,14.0972841 8.77636715,14 8.5,14 Z" id="Path" fill="#000000"></path>
                                <path d="M7.5,16 C7.2236328,16 7,16.0972738 7,16.2172483 L7,16.7827517 C7,16.9027262 7.2236328,17 7.5,17 C7.7763672,17 8,16.9027262 8,16.7827517 L8,16.2172483 C8,16.0972738 7.7763672,16 7.5,16 Z" id="Path" fill="#000000"></path>
                                <path d="M8.5,16 C8.2236328,16 8,16.0972738 8,16.2172483 L8,16.7827517 C8,16.9027262 8.2236328,17 8.5,17 C8.7763672,17 9,16.9027262 9,16.7827517 L9,16.2172483 C9,16.0972738 8.77636715,16 8.5,16 Z" id="Path" fill="#879DEF"></path>
                                <path d="M7.5,19 C7.2236328,19 7,19.0972738 7,19.2172483 L7,19.7827517 C7,19.9027262 7.2236328,20 7.5,20 C7.7763672,20 8,19.9027262 8,19.7827517 L8,19.2172483 C8,19.0972738 7.7763672,19 7.5,19 Z" id="Path" fill="#000000"></path>
                                <path d="M8.5,19 C8.2236328,19 8,19.0972738 8,19.2172483 L8,19.7827517 C8,19.9027262 8.2236328,20 8.5,20 C8.7763672,20 9,19.9027262 9,19.7827517 L9,19.2172483 C9,19.0972738 8.77636715,19 8.5,19 Z" id="Path" fill="#000000"></path>
                                <path d="M7.5,21 C7.2236328,21 7,21.0972841 7,21.2172714 L7,21.7827286 C7,21.9027159 7.2236328,22 7.5,22 C7.7763672,22 8,21.9027159 8,21.7827286 L8,21.2172714 C8,21.0972841 7.7763672,21 7.5,21 Z" id="Path" fill="#000000"></path>
                                <path d="M8.5,21 C8.2236328,21 8,21.0972841 8,21.2172714 L8,21.7827286 C8,21.9027159 8.2236328,22 8.5,22 C8.7763672,22 9,21.9027159 9,21.7827286 L9,21.2172714 C9,21.0972841 8.77636715,21 8.5,21 Z" id="Path" fill="#000000"></path>
                                <path d="M12.3066603,16 L16.6933397,16 C16.8628414,16 17,15.776123 17,15.5 C17,15.223877 16.8628414,15 16.6933397,15 L12.3066603,15 C12.1371586,15 12,15.223877 12,15.5 C12,15.776123 12.1371586,16 12.3066603,16 Z" id="Path" fill="#000000"></path>
                                <path d="M12.3066603,18 L16.6933397,18 C16.8628414,18 17,17.7761231 17,17.5 C17,17.2238769 16.8628414,17 16.6933397,17 L12.3066603,17 C12.1371586,17 12,17.2238769 12,17.5 C12,17.7761231 12.1371586,18 12.3066603,18 Z" id="Path" fill="#000000"></path>
                                <path d="M12.3066603,11 L16.6933397,11 C16.8628414,11 17,10.776123 17,10.5 C17,10.223877 16.8628414,10 16.6933397,10 L12.3066603,10 C12.1371586,10 12,10.223877 12,10.5 C12,10.776123 12.1371586,11 12.3066603,11 Z" id="Path" fill="#000000"></path>
                                <path d="M24,16.9407715 C24,15.9833496 23.2209961,15.2043457 22.2635742,15.2043457 C21.3061524,15.2043457 20.5271485,15.9833496 20.5271485,16.9407715 C20.5271485,17.5978271 20.8941284,18.1707275 21.4338135,18.4656006 C20.8941284,18.7604737 20.5271485,19.333374 20.5271485,19.9904297 C20.5271485,20.8453675 21.1489014,21.5563294 21.9635742,21.6990967 L21.9635742,23.4 L19.2524414,23.4 L19.2524414,4.3125 C19.2524414,4.21186524 19.2020508,4.11782226 19.1179688,4.06230468 C19.0338867,4.00634766 18.9275391,3.99711912 18.8349609,4.03637694 L14.5587891,5.85444945 L14.5587891,3.1875 C14.5587891,3.02182617 14.4246094,2.8875 14.2587891,2.8875 L11.4325195,2.8875 L11.4325195,0.3 C11.4325195,0.13432617 11.2983399,0 11.1325195,0 C10.9666992,0 10.8325195,0.13432617 10.8325195,0.3 L10.8325195,2.8875 L7.90869141,2.8875 C7.74287109,2.8875 7.60869141,3.02182617 7.60869141,3.1875 L7.60869141,4.50761718 L6.19951173,4.50761718 C6.1078125,4.05527343 5.81279298,3.66503904 5.39707032,3.45205077 C5.3317383,2.44643553 4.4926758,1.64809569 3.4708008,1.64809569 C2.41406253,1.64809569 1.55302737,2.50166013 1.54042971,3.55546875 C1.53691407,3.55546875 1.53310548,3.55546875 1.52929689,3.55546875 C0.68613282,3.55546875 0,4.24145508 0,5.08476564 C0,5.25043947 0.13417968,5.38476564 0.3,5.38476564 C0.46582032,5.38476564 0.6,5.25043947 0.6,5.08476564 C0.6,4.5723633 1.01689452,4.15546878 1.52929686,4.15546878 C1.60722654,4.15546878 1.68984372,4.16909184 1.78974609,4.19853519 C1.89023436,4.22812503 2.00009766,4.2030762 2.07744141,4.13144535 C2.15507814,4.06025394 2.18935548,3.95361333 2.16826173,3.85048833 C2.14980471,3.76025397 2.14042971,3.66870123 2.14042971,3.57846684 C2.14042971,2.84487309 2.73720705,2.24809575 3.4708008,2.24809575 C4.20439455,2.24809575 4.80117189,2.84487309 4.79970705,3.60278325 C4.79970705,3.605127 4.79794923,3.63281256 4.79765628,3.63515631 C4.79121096,3.76845708 4.87353519,3.89003913 4.99980471,3.93354498 C5.37626955,4.06289067 5.62939455,4.41416022 5.62939455,4.80761724 C5.62939455,4.97329107 5.76357423,5.10761724 5.92939455,5.10761724 L7.60869141,5.10761724 L7.60869141,9.65625 L5.04755859,9.65625 C4.88173827,9.65625 4.74755859,9.79057617 4.74755859,9.95625 L4.74755859,23.4 L2.03642577,23.4 L2.03642577,21.6990967 C2.85111693,21.5563294 3.47285154,20.8453674 3.47285154,19.9904297 C3.47285154,19.0330078 2.69384763,18.2540039 1.73642577,18.2540039 C0.77900391,18.2540039 0,19.0330078 0,19.9904297 C0,20.8453674 0.62173461,21.5563293 1.43642577,21.6990967 L1.43642577,23.4 L0.3,23.4 C0.13417968,23.4 0,23.5343262 0,23.7 C0,23.8656738 0.13417968,24 0.3,24 L23.7,24 C23.8658203,24 24,23.8656738 24,23.7 C24,23.5343262 23.8658203,23.4 23.7,23.4 L22.5635742,23.4 L22.5635742,21.6990967 C23.3782471,21.5563294 24,20.8453674 24,19.9904297 C24,19.333374 23.63302,18.7604736 23.093335,18.4656006 C23.63302,18.1707275 24,17.5978271 24,16.9407715 Z M0.6,19.9904297 C0.6,19.3637695 1.10976564,18.8540039 1.73642577,18.8540039 C2.3630859,18.8540039 2.87285154,19.3637695 2.87285154,19.9904297 C2.87285154,20.6170898 2.3630859,21.1268554 1.73642577,21.1268554 C1.10976564,21.1268554 0.6,20.6170898 0.6,19.9904297 Z M18.6524414,23.4 L16.959375,23.4 L16.959375,20.3856445 C16.959375,20.2199707 16.8251953,20.0856445 16.659375,20.0856445 L13.1753906,20.0856445 C13.0095703,20.0856445 12.8753906,20.2199707 12.8753906,20.3856445 L12.8753906,23.4 L11.1823242,23.4 L11.1823242,7.94208984 L18.6524414,4.76601561 L18.6524414,23.4 Z M16.359375,23.4 L13.4753906,23.4 L13.4753906,20.6856445 L16.359375,20.6856445 L16.359375,23.4 Z M8.20869141,3.4875 L13.9587891,3.4875 L13.9587891,6.10953369 L10.7648438,7.46748048 C10.6541016,7.51464846 10.5823242,7.62333984 10.5823242,7.74360354 L10.5823242,9.65625 L8.20869141,9.65625 L8.20869141,3.4875 L8.20869141,3.4875 Z M5.34755859,10.25625 L10.5823242,10.25625 L10.5823242,23.4 L5.34755859,23.4 L5.34755859,10.25625 Z M22.2635742,21.1268555 C21.6369141,21.1268555 21.1271485,20.6170898 21.1271485,19.9904297 C21.1271485,19.3637696 21.6369141,18.8540039 22.2635742,18.8540039 C22.8902344,18.8540039 23.4,19.3637695 23.4,19.9904297 C23.4,20.6170898 22.8902344,21.1268555 22.2635742,21.1268555 Z M22.2635742,18.0771973 C21.6369141,18.0771973 21.1271485,17.5674316 21.1271485,16.9407715 C21.1271485,16.3141114 21.6369141,15.8043457 22.2635742,15.8043457 C22.8902344,15.8043457 23.4,16.3141113 23.4,16.9407715 C23.4,17.5674317 22.8902344,18.0771973 22.2635742,18.0771973 Z" id="Shape" fill="#000000"></path>
                                <path d="M17.2824698,4 C17.4386005,4 17.5649395,3.85921007 17.5649395,3.68556404 C17.5649395,3.13038805 17.970714,2.67884695 18.4691738,2.67884695 C18.5450324,2.67884695 18.6258563,2.69373968 18.7229553,2.72552104 C18.8172958,2.75607415 18.9207393,2.72981998 18.9941152,2.65504931 C19.0672153,2.58012513 19.0994897,2.46804588 19.0793527,2.35980501 C19.0614224,2.26415384 19.0523194,2.16543199 19.0523194,2.06671017 C19.0523194,1.2738648 19.6316031,0.628871915 20.3438462,0.628871915 C21.0560894,0.628871915 21.6353731,1.2738648 21.6342697,2.09235022 C21.6339938,2.09542087 21.6323387,2.12919818 21.6323387,2.1321153 C21.6276493,2.27060223 21.705163,2.39588531 21.8226748,2.44087053 C22.1890028,2.58089279 22.4350605,2.96150155 22.4350605,3.38786322 C22.4350605,3.56150925 22.5613995,3.70229917 22.7175302,3.70229917 C22.873661,3.70229917 23,3.56150925 23,3.38786322 C23,2.77019921 22.6844283,2.21179903 22.1967266,1.93574636 C22.1357639,0.857022213 21.3280769,0 20.3438462,0 C19.3251345,0 18.4953795,0.918128439 18.4873799,2.05012858 C17.6716933,2.04521551 17,2.77710819 17,3.68556404 C17,3.85921007 17.126339,4 17.2824698,4 Z" id="Path" fill="#000000"></path>
                            </g>
                        </g>
                    </g>
                </g>
            </g>
        </g>
    </g>
</svg>