<?xml version="1.0" encoding="UTF-8"?>
<svg width="170px" height="170px" viewBox="0 0 170 170" version="1.1" xmlns="http://www.w3.org/2000/svg" xmlns:xlink="http://www.w3.org/1999/xlink">
    <g id="Illustrations/Light/170px/package_deal" stroke="none" stroke-width="1" fill="none" fill-rule="evenodd">
        <g id="Group-6" transform="translate(27.000000, 47.000000)">
            <g id="Group-4">
                <g id="Group" transform="translate(9.777778, 71.944444)" fill="#8DA4FA">
                    <polygon id="Rectangle" transform="translate(47.222222, 1.388889) rotate(90.000000) translate(-47.222222, -1.388889) " points="45.8333333 -45.8333333 48.6111111 -45.8333333 48.6111111 48.6111111 45.8333333 48.6111111"></polygon>
                </g>
                <g id="Group-2" transform="translate(7.000000, 15.000000)" fill="#000000" fill-rule="nonzero">
                    <path d="M93.333,15.9989225 L93.3333333,53.1893004 L100,53.1893004 L100,54.3209877 C100,56.1316872 99.3333333,57.8292181 98.1111111,59.0740741 C96.8518519,60.3566529 95.2952675,61.0335696 93.6285627,61.104824 L93.3333333,61.1111111 L6.66666667,61.1111111 C3.07801418,61.1111111 0.12796137,58.184196 0.00405176759,54.5584193 L0,54.3209877 L0,53.1893004 L6.66666667,53.1893004 L6.66666667,3.39506173 C6.66666667,1.53532236 8.01641975,0.0985825332 9.81262963,0.00486625514 L10,-2.27373675e-13 L71,-7.75007634e-05 L71,2.2629225 L10,2.26337449 C9.37777778,2.26337449 8.9491358,2.65770462 8.89474897,3.26234415 L8.88888889,3.39506173 L8.88888889,53.1893004 L91.1111111,53.1893004 L91.111,15.9989225 L93.333,15.9989225 Z M41.1111111,55.4526749 L2.33333333,55.4526749 C2.88888889,57.3765432 4.55555556,58.8477366 6.66666667,58.8477366 L6.66666667,58.8477366 L93.3333333,58.8477366 C94.5555556,58.8477366 95.6666667,58.3950617 96.5555556,57.4897119 C97.1111111,56.9238683 97.4444444,56.244856 97.6666667,55.4526749 L97.6666667,55.4526749 L58.8888889,55.4526749 C58.8888889,56.6975309 57.8888889,57.7160494 56.6666667,57.7160494 L56.6666667,57.7160494 L43.3333333,57.7160494 C42.1111111,57.7160494 41.1111111,56.6975309 41.1111111,55.4526749 L41.1111111,55.4526749 Z" id="Shape"></path>
                </g>
                <g id="Group-3" transform="translate(78.000000, 4.000000)">
                    <path d="M36,0 C37.1045695,-4.2495073e-16 38,0.8954305 38,2 L38,20.2857143 C38,21.3902838 37.1045695,22.2857143 36,22.2857143 L34.02,22.285 L34.0204082,23.4693878 C34.0204082,24.5739573 33.1249777,25.4693878 32.0204082,25.4693878 L31.836,25.469 L31.8367347,25.6530612 C31.8367347,26.7576307 30.9413042,27.6530612 29.8367347,27.6530612 L2,27.6530612 C0.8954305,27.6530612 1.3527075e-16,26.7576307 4.03896783e-28,25.6530612 L4.03896783e-28,7.36734694 C-1.3527075e-16,6.26277744 0.8954305,5.36734694 2,5.36734694 L2.183,5.367 L2.18367347,5.18367347 C2.18367347,4.07910397 3.07910397,3.18367347 4.18367347,3.18367347 L6.163,3.183 L6.16326531,2 C6.16326531,0.8954305 7.05869581,2.02906125e-16 8.16326531,0 L36,0 Z" id="Combined-Shape" stroke="#000000" stroke-width="2"></path>
                    <path d="M34.0204082,23.3381882 L34.0204082,23.877551 C34.0204082,24.7566982 33.3077186,25.4693878 32.4285714,25.4693878 L4.18367347,25.4693878 C3.07910397,25.4693878 2.18367347,24.5739573 2.18367347,23.4693878 L2.18367347,5.18367347 C2.18367347,4.07910397 3.07910397,3.18367347 4.18367347,3.18367347 L5.59554087,3.18367347 C5.99990743,3.18367347 6.39477643,3.30624575 6.72806549,3.5352233" id="Rectangle" stroke="#000000" stroke-width="2"></path>
                    <rect id="Rectangle-2" stroke="#000000" stroke-width="2" x="6.16326531" y="-2.30926389e-14" width="31.8367347" height="22.2857143" rx="2"></rect>
                    <path d="M3.18326531,4.99967347 L3.18367347,22.4693878 C3.18367347,23.5739573 4.07910397,24.4693878 5.18367347,24.4693878 L5.18367347,24.4693878 L31.9992653,24.4686735 L32,25.2857143 C32,26.3902838 31.1045695,27.2857143 30,27.2857143 L2.16326531,27.2857143 C1.05869581,27.2857143 0.163265306,26.3902838 0.163265306,25.2857143 L0.163265306,7 C0.163265306,5.8954305 1.05869581,5 2.16326531,5 L3.18326531,4.99967347 Z" id="Rectangle-3" fill="#000000"></path>
                    <polygon id="Triangle" fill="#8DA4FA" transform="translate(23.386054, 11.341837) rotate(90.000000) translate(-23.386054, -11.341837) " points="23.3860544 6.36734694 29.4659864 16.3163265 17.3061224 16.3163265"></polygon>
                </g>
                <g id="Group" fill="#8DA4FA" fill-rule="nonzero">
                    <path d="M6.7137813,6.54102033 C6.79731951,6.54102033 6.8682065,6.60066179 6.88266504,6.68299512 L6.88266504,6.68299512 L7.1660122,8.29974065 C7.51442276,8.39532764 7.84877642,8.53469187 8.16264715,8.7142187 L8.16264715,8.7142187 L9.49323415,7.75674228 C9.56130976,7.70734228 9.65508943,7.71457154 9.71473089,7.77501626 L9.71473089,7.77501626 L10.7449016,8.80398211 C10.8039407,8.86302114 10.8119732,8.95539512 10.7639789,9.02387236 L10.7639789,9.02387236 L9.81714553,10.3745407 C9.99325854,10.6862024 10.1308154,11.018548 10.2266033,11.3641472 L10.2266033,11.3641472 L11.8507789,11.629622 C11.9335138,11.6436789 11.9943602,11.7153691 11.9947618,11.7989073 L11.9947618,11.7989073 L11.9947618,13.2554041 C11.9947618,13.3385407 11.9347187,13.4102309 11.8525862,13.4242878 L11.8525862,13.4242878 L10.2276073,13.7090407 C10.1328236,14.0548407 9.99586911,14.3877886 9.81895285,14.7006553 L9.81895285,14.7006553 L10.7794415,16.0348569 C10.8284398,16.1029325 10.8212106,16.1967122 10.7615691,16.2565545 L10.7615691,16.2565545 L9.73220163,17.286926 C9.67276098,17.345965 9.58038699,17.3539976 9.51231138,17.3064049 L9.51231138,17.3064049 L8.16525772,16.3603748 C7.85219024,16.5399016 7.51823821,16.6800691 7.16962683,16.7770618 L7.16962683,16.7770618 L6.88286585,18.395213 C6.86840732,18.4769439 6.7971187,18.5365854 6.71398211,18.5365854 L6.71398211,18.5365854 L5.25708374,18.5365854 C5.17334472,18.5365854 5.10165447,18.4755382 5.08799919,18.3934057 L5.08799919,18.3934057 L4.81991382,16.7826846 C4.47110163,16.6868967 4.13534228,16.5483358 3.82006585,16.3700138 L3.82006585,16.3700138 L2.48285203,17.3066057 C2.41377236,17.3541984 2.32200081,17.3461659 2.2631626,17.2871268 L2.2631626,17.2871268 L1.23299187,16.2567553 C1.17355122,16.196913 1.16592033,16.1037358 1.2149187,16.0354593 L1.2149187,16.0354593 L2.16054715,14.7129049 C1.98001626,14.3954195 1.83984878,14.0582545 1.74345854,13.7078358 L1.74345854,13.7078358 L0.141773984,13.4244886 C0.0596414634,13.4098293 -1.87687264e-13,13.3387415 -1.87687264e-13,13.2556049 L-1.87687264e-13,13.2556049 L-1.87687264e-13,11.7991081 C-1.87687264e-13,11.7153691 0.0606455285,11.6436789 0.143179675,11.629622 L0.143179675,11.629622 L1.74546667,11.3635447 C1.84225854,11.013126 1.98242602,10.6761618 2.16295691,10.3592789 L2.16295691,10.3592789 L1.22897561,9.02407317 C1.18138293,8.95559593 1.18941545,8.86322195 1.24845447,8.80418293 L1.24845447,8.80418293 L2.27842439,7.77521707 C2.33746341,7.71477236 2.43084146,7.70754309 2.49951951,7.75694309 L2.49951951,7.75694309 L3.82649187,8.70437886 C4.14076423,8.52686016 4.47572033,8.38970488 4.82513496,8.2943187 L4.82513496,8.2943187 L5.08779837,6.68500325 C5.10105203,6.60186667 5.17274228,6.54102033 5.25688293,6.54102033 L5.25688293,6.54102033 Z M5.99728049,10.6795756 C4.97192927,10.6795756 4.13735041,11.5137528 4.13735041,12.5389033 C4.13735041,13.5646561 4.97192927,14.3988333 5.99728049,14.3988333 C7.02283252,14.3988333 7.85680894,13.5644553 7.85680894,12.5389033 C7.85680894,11.513552 7.02263171,10.6795756 5.99728049,10.6795756 Z" id="Shape"></path>
                    <path d="M13.2657846,0.0130528455 C13.3432984,-0.0190772358 13.4318569,0.0102414634 13.4762366,0.0813292683 L13.4762366,0.0813292683 L14.1182358,1.11913089 C14.3792927,1.09101707 14.6421569,1.0930252 14.903013,1.12455285 L14.903013,1.12455285 L15.5494301,0.0883577236 C15.5938098,0.0178723577 15.681565,-0.0136552846 15.7612878,0.0212861789 L15.7612878,0.0212861789 L16.7892496,0.451628455 C16.8659602,0.48395935 16.9085325,0.566292683 16.8900577,0.648023577 L16.8900577,0.648023577 L16.6181569,1.84667642 C16.8257976,2.01335122 17.0107463,2.20010732 17.1701919,2.40453496 L17.1701919,2.40453496 L18.3660333,2.1272122 C18.4485675,2.10512276 18.5319049,2.15130976 18.5636333,2.22902439 L18.5636333,2.22902439 L18.9863447,3.26019919 C19.0178724,3.33731138 18.9895577,3.42566911 18.9190724,3.47065122 L18.9190724,3.47065122 L17.8740415,4.12851463 C17.9025569,4.38776423 17.9015528,4.64922276 17.8712301,4.90766911 L17.8712301,4.90766911 L18.916261,5.56131545 C18.9877504,5.60569512 19.0158642,5.69545854 18.9835333,5.77317317 L18.9835333,5.77317317 L18.5539943,6.80013089 C18.5216634,6.87664065 18.438326,6.91740569 18.3580008,6.90134065 L18.3580008,6.90134065 L17.1523195,6.6288374 C16.9898618,6.83226098 16.804913,7.01660732 16.6000837,7.17806098 L16.6000837,7.17806098 L16.8782098,8.37671382 C16.8970862,8.45844472 16.854313,8.54218374 16.7763976,8.57431382 L16.7763976,8.57431382 L15.7462268,8.99762764 C15.7249407,9.0062626 15.7026504,9.01027886 15.6809626,9.01027886 C15.6237309,9.01027886 15.5681057,8.9815626 15.5359756,8.92995366 L15.5359756,8.92995366 L14.8787146,7.88693089 C14.619465,7.91765528 14.3547935,7.91825772 14.094339,7.88753333 L14.094339,7.88753333 L13.4276398,8.92272439 C13.3828585,8.99220569 13.2938984,9.02112276 13.2175894,8.98758699 L13.2175894,8.98758699 L12.1902301,8.55885122 C12.1127163,8.52672114 12.0697423,8.44298211 12.089422,8.36125122 L12.089422,8.36125122 L12.3695561,7.17063089 C12.1633211,7.00656667 11.9775691,6.8202122 11.8147098,6.61397724 L11.8147098,6.61397724 L10.6194707,6.87463252 C10.537539,6.89069756 10.4554065,6.84912927 10.4240797,6.77201707 L10.4240797,6.77201707 L10.0019707,5.73943659 C9.97024228,5.66172195 9.99936016,5.57276179 10.0706488,5.52838211 L10.0706488,5.52838211 L11.1060407,4.88919431 C11.0759187,4.62432195 11.076722,4.35904797 11.1080488,4.09919593 L11.1080488,4.09919593 L10.0830992,3.43711545 C10.0134171,3.39213333 9.98590569,3.30377561 10.0180358,3.22666341 L10.0180358,3.22666341 L10.4475748,2.19970569 C10.4797049,2.1225935 10.5624398,2.0778122 10.6451748,2.09929919 L10.6451748,2.09929919 L11.8291683,2.37943333 C11.9958431,2.17098943 12.1842057,1.98423333 12.3908423,1.82277967 L12.3908423,1.82277967 L12.1319943,0.628946341 C12.1143228,0.547617073 12.1574976,0.46528374 12.2348106,0.433756098 L12.2348106,0.433756098 Z M14.4979732,3.12625691 C13.9389098,3.12625691 13.4384837,3.45880325 13.2228106,3.97388862 C12.9290211,4.67733659 13.2615675,5.48862114 13.964413,5.7828122 C14.1349033,5.85369919 14.3142293,5.89004634 14.4969691,5.89004634 C15.0564341,5.89004634 15.5564585,5.55689756 15.7721317,5.0418122 C16.0663228,4.33956911 15.7335756,3.52828455 15.0309309,3.23349106 C14.8604407,3.16240325 14.6811146,3.12625691 14.4979732,3.12625691 Z" id="Shape"></path>
                </g>
            </g>
            <g id="Group-5" transform="translate(42.000000, 27.000000)">
                <line x1="29.8507463" y1="0.438981563" x2="-1.27479726e-13" y2="0.438981563" id="Line-3-Copy-2" stroke="#000000" stroke-width="2" stroke-linecap="round"></line>
                <line x1="20.0877963" y1="7.28709394" x2="-2.2570181e-13" y2="7.28709394" id="Line-3-Copy-3" stroke="#000000" stroke-width="2" stroke-linecap="round"></line>
                <g id="Group" transform="translate(5.381914, 16.698859)" fill-rule="nonzero">
                    <path d="M17.2004735,0.522537095 C14.2170238,3.99719931 11.2335761,7.47183431 8.25010075,10.946497 C7.0829075,9.64753861 5.9156599,8.34858023 4.74843998,7.04959619 C4.16886348,6.40462078 3.22050691,7.35800633 3.79769637,8.00034544 C5.12698105,9.47963246 6.45624467,10.9589472 7.78553602,12.4382886 C8.0153975,12.6940731 8.50849387,12.7035659 8.73628527,12.4382886 C11.8746043,8.78326955 15.0128833,5.12827819 18.1511961,1.47325968 C18.7121636,0.819948833 17.7653144,-0.135291611 17.2004735,0.522537095 Z" id="Path" fill="#8DA4FA"></path>
                    <path d="M16.4997846,6.58437214 C17.6386083,10.2569498 16.1631331,14.2565733 12.6738968,16.0305299 C9.55723149,17.6150949 5.634085,16.847525 3.33998634,14.2116925 C1.03944949,11.5684394 0.808135207,7.59965964 2.80071304,4.71288242 C5.12493486,1.34559492 9.61730495,0.487672175 13.1339968,2.45685531 C13.8898152,2.88006231 14.5684902,1.71913414 13.8126123,1.2958738 C7.4816679,-2.24913404 -0.652166803,2.63264067 0.138340787,10.0452655 C0.866192726,16.8703018 8.96977605,20.5577239 14.5431536,16.4491387 C17.7448282,14.0889092 18.9638326,9.99215669 17.7962905,6.22693997 C17.5408269,5.40308797 16.2424891,5.75463045 16.4997846,6.58437214 Z" id="Path" fill="#000000"></path>
                </g>
            </g>
        </g>
    </g>
</svg>
