<?xml version="1.0" encoding="UTF-8"?>
<svg width="48px" height="48px" viewBox="0 0 48 48" version="1.1" xmlns="http://www.w3.org/2000/svg" xmlns:xlink="http://www.w3.org/1999/xlink">
    <g id="Illustrations/Light/48px/pdf" stroke="none" stroke-width="1" fill="none" fill-rule="evenodd">
        <path d="M37.6202849,39.430808 C37.6202849,41.4736826 35.8402723,41.5995563 35.4810612,41.6039104 L12.5169823,41.6039104 C10.5049303,41.6039104 10.3836281,39.7910126 10.3797151,39.430808 L10.3797151,8.56919199 C10.3797151,6.52433829 12.162858,6.40044375 12.5169823,6.39608962 L28.0299734,6.39608962 L28.0381906,6.40440204 L28.0381906,12.5282757 C28.0381906,13.7573254 28.7726561,16.0840095 31.5543904,16.0840095 L37.5686336,16.0840095 L37.6202849,16.136259 L37.6202849,39.430808 L37.6202849,39.430808 Z M36.1943966,14.6879199 L31.5547817,14.6879199 C29.543121,14.6879199 29.4214275,12.8849179 29.4186884,12.5282757 L29.4186884,7.80563744 L36.1943966,14.6879199 Z M39,39.430808 L39,15.5599317 L29.4186884,5.82728305 L29.4186884,5.78215852 L29.3729066,5.78215852 L28.6036156,5 L12.5169823,5 C11.3004383,5 9,5.74613806 9,8.56919199 L9,39.4312038 C9,40.6653993 9.73524808,43 12.5169823,43 L35.483409,43 C36.6995617,42.9996042 39,42.2538619 39,39.430808" id="Shape" fill="#000000" fill-rule="nonzero"></path>
        <path d="M22.717718,15.9533859 C23.6196588,15.9533859 24.2829081,16.9528547 24.3670371,18.4407767 C24.4711222,20.296424 23.89748,21.9533651 23.2604476,23.4943282 C23.5214431,23.9946563 23.8207857,24.5068593 24.1537799,25.019854 C24.9078103,26.1812169 25.917358,27.2301643 27.0857724,28.0681347 C28.398967,27.7578046 29.4214275,27.6188686 30.3699327,27.6188686 C31.2558303,27.6188686 32.035295,27.7439506 32.7529347,28.0012396 C32.7713257,28.0079687 34.6276413,28.7236279 34.7043356,29.8390746 C34.7195962,30.0496557 34.6835968,30.5761086 34.0356081,30.9173134 C33.3160119,31.2969136 32.2524652,31.3990375 31.0550947,31.2228935 C29.6335107,31.0142915 28.1759274,30.4454849 26.8204727,29.5734732 C26.401393,29.6815346 25.9889654,29.7951376 25.5878854,29.9047822 C25.2091094,30.009677 24.8397245,30.1106134 24.4844264,30.20205 L24.4844264,30.20205 L24.0117389,30.3235695 C22.6918923,30.660816 21.3297856,31.0095416 20.0518078,31.47662 C19.5442949,32.5619837 19.0266082,33.5028698 18.4733135,34.3463818 C18.1986226,34.7659608 16.7496478,36.8587098 15.2439349,36.8587098 C14.7880733,36.858314 14.3732979,36.6730659 14.043434,36.3211737 C13.7327438,35.9898647 13.5801377,35.5762232 13.6032243,35.1253737 C13.6509626,34.1678628 14.4832525,33.2507266 15.1738926,32.6506495 C16.2280482,31.7331174 17.4927219,30.9857918 19.0324777,30.3694857 C19.5814681,29.1400402 20.0686336,27.8476578 20.541321,26.5948584 C20.9212709,25.5870772 21.3137424,24.5464422 21.7363437,23.5426193 C20.5632337,21.0516661 20.3601503,18.9640629 21.1329629,17.3324549 C21.5661293,16.4169019 22.0990765,15.9533859 22.717718,15.9533859 Z M18.0467992,32.3656524 C17.304899,32.7654399 16.6529973,33.2111436 16.0762248,33.7130551 C15.4407576,34.2660285 15.002113,34.8625431 14.9852872,35.1974146 C14.9825481,35.2556015 14.991548,35.2983511 15.0478948,35.3581213 C15.1351542,35.451537 15.1950227,35.4594535 15.2443262,35.4594535 C15.7463609,35.4594535 16.7234309,34.4841304 17.3209422,33.5733274 C17.5686336,33.1949146 17.8100642,32.7939396 18.0467992,32.3656524 Z M32.2900297,29.32133 C31.3728283,28.9923959 30.3002817,28.9298549 28.9178275,29.1333111 C29.6929879,29.4855991 30.4818438,29.72468 31.2550477,29.8382829 C31.9758178,29.9439693 32.6476757,29.928532 33.1054938,29.7919709 C32.8644545,29.6075145 32.5075912,29.3993083 32.2900297,29.32133 Z M22.5870246,25.1302903 C22.3287682,25.7838043 22.0791204,26.4460266 21.8345594,27.093999 C21.5043043,27.9695732 21.1670058,28.8649389 20.8038817,29.7508047 C21.759039,29.4563077 22.7263265,29.2089145 23.672484,28.966667 L23.672484,28.966667 L24.1428236,28.8459391 C24.4914697,28.7568775 24.8534199,28.6571286 25.2255439,28.5546088 C25.2807169,28.5391715 25.3358898,28.5245258 25.3922367,28.5090884 C24.4597746,27.7099093 23.6450931,26.7864397 22.9971044,25.7877626 C22.8546721,25.5680774 22.7181093,25.3491839 22.5870246,25.1302903 Z M22.6985444,17.4207248 C22.6269369,17.5002865 22.5161997,17.6526807 22.3812021,17.9376777 C21.8545156,19.049562 22.0509469,20.4266518 22.4719831,21.6739096 C22.8139771,20.6653368 23.0471905,19.6140144 22.9857568,18.52113 C22.9552356,17.9812189 22.8092816,17.594098 22.6985444,17.4207248 Z" id="Combined-Shape" fill="#8DA4FA" fill-rule="nonzero"></path>
    </g>
</svg>
