<svg xmlns="http://www.w3.org/2000/svg" width="250" height="250" viewBox="0 0 250 250">
    <g fill="none" fill-rule="evenodd">
        <g>
            <g>
                <g>
                    <g fill-rule="nonzero" transform="translate(-596.000000, -110.000000) translate(596.000000, 110.000000) translate(75.029291, 12.022933) translate(37.219896, 61.009069) rotate(-9.000000) translate(-37.219896, -61.009069) translate(8.601475, 3.772227)">
                        <ellipse cx="27.677" cy="30.717" fill="#FF6E61" rx="23.12" ry="17.816" transform="translate(27.677308, 30.716856) rotate(-64.385648) translate(-27.677308, -30.716856)"/>
                        <path fill="#000" d="M7.943 86.803c-.558 2.981-1.197 5.947-2.02 8.877-1.135 4.106-3.096 10.184-5.882 18.232.095.316.25.4.462.25.319-.226 3.607-9.166 5.606-15.833 1.12-3.724 1.917-7.514 2.612-11.325-.025-.004-.786-.203-.778-.201zM9.298 78.896L8.85 81.61c.017.003.782.169.786.147.885-5.202 1.772-10.403 3.222-15.49C14.5 60.51 17.1 55.09 21.373 50.809c.464-.4-.217-1.077-.62-.646-7.616 7.669-9.752 18.478-11.455 28.734z"/>
                        <ellipse cx="30.585" cy="29.179" stroke="#000" stroke-width="1.5" rx="23.12" ry="17.816" transform="translate(30.585240, 29.179141) rotate(-64.385648) translate(-30.585240, -29.179141)"/>
                    </g>
                    <g transform="translate(-596.000000, -110.000000) translate(596.000000, 110.000000) translate(75.029291, 12.022933) translate(19.049656, 61.003383)">
                        <path fill="#000" fill-rule="nonzero" d="M76.547 161.697c.032.536.361 2.503-.054 3.056-.764 1.002-7.429.951-7.758.662-.329-.29-.553-.933-.286-1.136.268-.202 2.876-.897 3.215-1.164.34-.268.76-1.051.532-1.75l4.35.332z"/>
                        <path fill-rule="nonzero" stroke="#000" d="M43.514 74.015c-1.136 2.575-10.673 30.628-10.452 34.719.22 4.09 22.288 46.236 23.507 46.681 1.219.445 6.282-1.11 6.69-2.217.344-.928-5.3-18.78-7.257-28.31"/>
                        <path fill-rule="nonzero" stroke="#000" d="M43.514 74.015c.571 3.034 10.06 44.877 10.06 44.877l17.4 42.136c1.446.705 5.703.781 6.448.557.745-.224-2.832-40.573-4.246-46.291-1.135-4.59-3.81-31.902-4.8-42.169"/>
                        <path fill="#000" fill-rule="nonzero" d="M62.477 153.951c.195.496 1.285 2.925 1.05 3.58-.423 1.186-6.78 3.168-7.182 2.99-.401-.176-.814-.723-.622-.994.192-.271 2.466-1.725 2.712-2.086.246-.362.434-1.527 0-2.124l4.042-1.366z"/>
                        <path fill-rule="nonzero" stroke="#000" d="M51.633 22.773v5.119c1.902-.41 3.556-.283 4.962.383v-6.341"/>
                        <circle cx="53.246" cy="16.336" r="6.578" fill-rule="nonzero" stroke="#000"/>
                        <ellipse cx="46.595" cy="17.218" fill="#FF6E61" fill-rule="nonzero" rx="1.099" ry="1"/>
                        <ellipse cx="53.495" cy="17.218" fill="#FF6E61" fill-rule="nonzero" rx="1.099" ry="1"/>
                        <path stroke="#000" stroke-linecap="round" stroke-width=".62" d="M49.275 16.032c-.206.293-1.262 1.522-.149 2.022M51.354 19.49c.444-.12.83-.397 1.085-.778"/>
                        <path fill="#000" fill-rule="nonzero" d="M69.193 72.07c7.295-.2 11.81-5.718 11.81-18.857 0-5.425-9.02-21.757-10.81-27.926-.926-3.187-.181-12.56-4.908-17.33-2.278-2.297-12.296-1.755-14.882-.673-2.586 1.081-2.282 4.34-2.018 4.85.619-.521 1.975-1.577 2.217-1.545 1.27.156 4.734 4.054 5.786 5.844.854 1.447-.463 10.43 1.205 12.998 1.667 2.568 4.113 3.145 4.113 3.145 3.323 4.525 5.643 11.743 6.96 21.652 1.045 7.853 1.22 13.8.527 17.842z"/>
                        <path fill="#000" fill-rule="nonzero" d="M48.03 29.332c1.69-1.582 3.795-2.37 6.398-2.042 1.779.07 3.384 1.085 4.822 2.76l.158-.547c6.188 5.302 12.625 28.404 12.625 31.247 0 8.014-8.079 22.281-8.079 22.281s-2.65-2.083-3.66-2.839c.223-.35.895-4.167 1.507-8.125-7.117 1.645-17.214 3.143-18.287 1.948-.891-.992-2.732-15.675-1.335-28.332-5.002 1.993-15.577 5.129-16.864 5.129-.813 0-6.018-4.484-11.063-9.027l-.643-.58c-4.168-3.768-8.093-7.448-9.174-8.512l-.197-.198c-.049-.05-.079-.083-.09-.098-.347-.481 1.081-1.957 2.018-2.894.465.3 4.442 2.568 8.677 4.878l.75.408.75.406c4.25 2.293 8.374 4.402 9.117 4.402.715 0 4.888-1.861 9.498-4.018l.794-.372c5.048-2.373 10.406-4.987 12.209-5.84z"/>
                        <path fill-rule="nonzero" stroke="#000" d="M2.971 32.569c1.7 0 3.327-1.331 3.327-2.733 0-1.403-1.52-2.658-3.22-2.658-1.7 0-3.078 1.137-3.078 2.539 0 1.402 1.271 2.852 2.971 2.852z"/>
                        <path stroke="#FFF" stroke-linecap="round" stroke-linejoin="round" d="M54.486 46.421c1.01 1.262 8.46 14.705 8.46 16.727 0 1.001-.547 5.03-1.147 8.922"/>
                        <path fill="#000" fill-rule="nonzero" d="M56.927 27.268c-.307 2.67 7.48 11.982 10.513 14.709 3.031-3.82 1.212-13.28 1.212-13.28l-6.184-2.857-5.54 1.428z"/>
                        <ellipse cx="63.954" cy="3.768" fill="#000" fill-rule="nonzero" rx="3.193" ry="3.768"/>
                        <path stroke="#FFF" stroke-linecap="round" stroke-linejoin="round" d="M45.46 33.391c-1.498 3.287-2.765 7.812-3.293 12.376"/>
                        <path stroke="#FFF" stroke-linecap="round" d="M56.595 28.035c3.23 3.55 4.893 5.131 8.014 11.176 3.12 6.045 3.12 6.556 4.434 12.772.904 5.205 1.19 4.846 1.19 11.634 0 3.255-.417 6.099-1.04 8.453"/>
                    </g>
                </g>
            </g>
        </g>
    </g>
</svg>
