<?xml version="1.0" encoding="UTF-8"?>
<svg width="250px" height="250px" viewBox="0 0 250 250" version="1.1" xmlns="http://www.w3.org/2000/svg" xmlns:xlink="http://www.w3.org/1999/xlink">
    <title>Illustrations/Light/250px/profil_user</title>
    <g id="Illustrations/Light/250px/profil_user" stroke="none" stroke-width="1" fill="none" fill-rule="evenodd">
        <rect fill="#F4F4F4" x="0" y="0" width="250" height="250"></rect>
        <g id="avatar" transform="translate(30.000000, 23.000000)">
            <path d="M31.7696335,115.963351 C42.6937173,103.358639 138.170209,95.4428796 149.413613,104.198953 C171.036612,121.016841 163.598757,205.874622 160.829612,227 C160.693162,228.040962 11.5689441,227 0.870352152,227.254555 C-2.49090439,222.21267 18.9128272,130.769686 31.7696335,115.963351 Z" id="Path" fill="#000000" fill-rule="nonzero"></path>
            <path d="M68.7565869,227.061038 C47.7980815,221.697351 40.8596214,212.8166 51.9371728,179.726387" id="Path" stroke="#FFFFFF" stroke-linecap="round"></path>
            <path d="M143.783508,172.113141 C143.497801,176.902932 141.951623,227 141.951623,227" id="Path" stroke="#FFFFFF" stroke-linecap="round"></path>
            <path d="M114.305288,89.106911 L114.574188,106.820733 C114.574188,111.207173 90.4739791,111.459267 90.4907503,106.820733 L90.4907503,77.5441885" id="Path" stroke="#000000" fill-rule="nonzero"></path>
            <circle id="Oval" stroke="#000000" fill-rule="nonzero" cx="113.868325" cy="57.8304188" r="30.7764921"></circle>
            <ellipse id="Oval" fill="#FF6E61" fill-rule="nonzero" transform="translate(142.730376, 66.766829) rotate(-84.070000) translate(-142.730376, -66.766829) " cx="142.730376" cy="66.7668293" rx="2.7226178" ry="5.22675393"></ellipse>
            <ellipse id="Oval" fill="#FF6E61" fill-rule="nonzero" transform="translate(110.085008, 64.350854) rotate(-84.070000) translate(-110.085008, -64.350854) " cx="110.085008" cy="64.3508538" rx="2.7226178" ry="5.22675393"></ellipse>
            <path d="M130.640995,60.8387435 C131.464503,62.3176963 135.850942,68.6536649 130.338482,70.4687435" id="Path" stroke="#000000" stroke-width="0.69" stroke-linecap="round"></path>
            <path d="M119.162304,76.1660733 C117.616126,75.9643979 115.397696,73.8131937 114.305288,71.9476963" id="Path" stroke="#000000" stroke-width="0.69" stroke-linecap="round"></path>
            <path d="M93.2470157,60.0152356 C93.2470157,69.191466 83.1632461,75.1408901 79.7011518,75.1408901 C78.6134309,75.2726022 77.522056,74.9260489 76.7095802,74.1909518 C75.8971043,73.4558546 75.4434142,72.4044918 75.4659686,71.3090576 C75.4659686,67.4604188 77.7180105,64.1831937 82.4741885,60.0152356 C81.6002618,58.5867016 75.4659686,51.0574869 75.4659686,40.3350785 C75.4659686,29.0916754 82.3733508,19.6633508 86.9950785,19.6633508 C91.0573065,19.9335697 94.4264171,22.9091571 95.1965445,26.9068586 C95.1965445,11.1929843 112.002827,0.0168062827 122.086597,0.0168062827 C131.414084,0.0168062827 133.027487,4.0839267 133.027487,7.37795812 C133.027487,14.621466 127.313351,22.3691623 125.178953,24.2682723 C130.405707,20.4196335 138.623979,16.5373822 145.615393,16.5373822 C150.069058,16.5373822 155.699162,17.7978534 155.699162,23.898534 C155.699162,35.1083246 144.965584,41.9615594 141.453071,43.7766379 C140.116299,41.1656379 138.426428,38.8721775 136.418556,36.733783 C137.074001,38.8513746 134.708115,42.2173822 129.750262,43.0745026 C126.893194,43.5450785 93.2470157,39.0073822 93.2470157,60.0152356 Z" id="Path" fill="#000000" fill-rule="nonzero"></path>
        </g>
    </g>
</svg>