<?xml version="1.0" encoding="UTF-8"?>
<svg width="100px" height="100px" viewBox="0 0 100 100" version="1.1" xmlns="http://www.w3.org/2000/svg" xmlns:xlink="http://www.w3.org/1999/xlink">

    <g id="Illustrations/100px/sale" stroke="none" stroke-width="1" fill="none" fill-rule="evenodd">
        <g id="Group" transform="translate(12.000000, 12.000000)" stroke-width="1.5">
            <g id="noun_devices_597285" stroke="#000000" stroke-linecap="round" stroke-linejoin="round">
                <path d="M75.5514135,66.1084312 C75.5514135,67.262479 74.6060764,68.2059273 73.4510842,68.2059273 L27.2816154,68.2059273 C26.1275676,68.2059273 25.1850637,67.262479 25.1850637,66.1084312 L25.1850637,66.1046536 C25.1850637,64.953439 26.1275676,64.0062131 27.2816154,64.0062131 L73.4520286,64.0062131 C74.6070208,64.0062131 75.5523579,64.953439 75.5523579,66.1046536 L75.5523579,66.1084312 L75.5514135,66.1084312 Z" id="Path"></path>
                <path d="M71.3545325,61.9096614 C71.3545325,63.060876 70.4101398,64.0071575 69.256092,64.0071575 L31.4803852,64.0071575 C30.3263374,64.0071575 29.3828891,63.060876 29.3828891,61.9096614 L29.3828891,38.8211494 C29.3828891,37.6671016 30.3263374,36.7236533 31.4803852,36.7236533 L69.256092,36.7236533 C70.4101398,36.7236533 71.3545325,37.6671016 71.3545325,38.8211494 L71.3545325,61.9096614 Z" id="Path"></path>
                <rect id="Rectangle" x="32.5305499" y="39.8722585" width="35.6763218" height="20.9881827"></rect>
                <path d="M20.9862939,73.4539174 C20.9862939,74.6089096 20.0428456,75.5514135 18.8878534,75.5514135 L10.4931469,75.5514135 C9.33626592,75.5514135 8.39376204,74.6089096 8.39376204,73.4539174 L8.39376204,56.6645045 C8.39376204,55.5095123 9.33626592,54.566064 10.4931469,54.566064 L18.8878534,54.566064 C20.0428456,54.566064 20.9862939,55.5095123 20.9862939,56.6645045 L20.9862939,73.4539174 Z" id="Path"></path>
                <path d="M20.9862939,58.7657782 L20.9862939,56.6645045 C20.9862939,55.5095123 20.0428456,54.566064 18.8878534,54.566064 L10.4931469,54.566064 C9.33626592,54.566064 8.39376204,55.5095123 8.39376204,56.6645045 L8.39376204,58.7657782 L20.9862939,58.7657782 Z" id="Path"></path>
                <path d="M8.39470643,71.3535881 L8.39470643,73.4548618 C8.39470643,74.609854 9.33721031,75.5523579 10.4940913,75.5523579 L18.8878534,75.5523579 C20.0428456,75.5523579 20.9862939,74.609854 20.9862939,73.4548618 L20.9862939,71.3535881 L8.39470643,71.3535881 Z" id="Path"></path>
                <path d="M50.3672942,29.3810003 L50.3672942,33.5788257 L60.8604411,33.5788257 C62.014489,33.5788257 62.9579372,32.6325443 62.9579372,31.4784964 L62.9579372,29.3810003 L50.3672942,29.3810003 L50.3672942,29.3810003 Z" id="Path"></path>
                <path d="M60.8604411,-4.84149119e-13 L39.8732029,-4.84149119e-13 C38.7200994,-4.84149119e-13 37.7757067,0.942503883 37.7757067,2.10032929 L37.7757067,15.7392482 L45.6453308,15.7392482 C48.2490214,15.7392482 50.3672942,17.8546878 50.3672942,20.4602672 L50.3672942,33.5788257 L60.8604411,33.5788257 C62.014489,33.5788257 62.9579372,32.6325443 62.9579372,31.4784964 L62.9579372,2.10032929 C62.9579372,0.942503883 62.014489,-4.84149119e-13 60.8604411,-4.84149119e-13 Z" id="Path"></path>
                <path d="M29.3819447,59.8121653 L29.3819447,50.369183 L18.8850202,50.369183 C18.8850202,51.8169369 18.7008636,53.21936 18.3759925,54.566064 L18.8878534,54.566064 C20.0428456,54.566064 20.9862939,55.5095123 20.9862939,56.6645045 L20.9862939,59.8121653 L29.3819447,59.8121653 L29.3819447,59.8121653 Z" id="Path"></path>
                <path d="M29.3819447,45.6443865 L9.70625879e-13,45.6443865 C9.70625879e-13,48.252799 2.11732836,50.369183 4.72101895,50.369183 L29.3819447,50.369183 L29.3819447,45.6443865 L29.3819447,45.6443865 Z" id="Path"></path>
                <path d="M29.3819447,38.8211494 C29.3819447,37.6671016 30.325393,36.7236533 31.4794408,36.7236533 L50.3672942,36.7236533 L50.3672942,20.4612116 C50.3672942,17.8556322 48.2490214,15.7401926 45.6453308,15.7401926 L4.72101895,15.7401926 C2.11732836,15.7401926 1.5362424e-12,17.8556322 1.5362424e-12,20.4612116 L1.5362424e-12,45.6453308 L29.3819447,45.6453308 L29.3819447,38.8211494 Z" id="Path"></path>
            </g>
            <path d="M39.4348763,16.250042 C39.7844868,16.2472096 40.1012786,16.38778 40.3299597,16.6164612 C40.5563782,16.8428796 40.6964209,17.1556738 40.6964209,17.5011767 L40.6964209,17.5011767 L40.6964209,21.6195548 C43.1061906,22.3605507 45.1954371,23.6953894 46.7359564,25.4164696 C48.3849254,27.2587108 49.4070003,29.5424699 49.536768,32.0236495 C49.5490476,32.3723639 49.4231325,32.6982748 49.1887628,32.9388946 C48.954393,33.1795145 48.6319082,33.3139616 48.3024425,33.311114 L48.3024425,33.311114 L42.1353656,33.3111039 C41.8353468,33.3126623 41.5567646,33.2056254 41.3404996,33.0242741 C41.1242345,32.8429228 40.9702867,32.5872569 40.9190282,32.2885587 C40.7967585,31.5583958 40.2264427,30.9163319 39.4629225,30.438298 C38.6118836,29.9054694 37.5024814,29.57716 36.3279914,29.57716 C35.1171211,29.57716 33.8604316,29.8554127 32.9574081,30.4146003 C32.3275294,30.804646 31.8588889,31.3394293 31.8588889,32.0590335 C31.8588889,32.6108461 32.4633104,33.153574 33.2721876,33.7121518 C34.3357464,34.4466024 35.8657477,35.1543226 37.7209729,35.7523241 C41.9055156,37.1015162 44.6525586,38.7941129 46.4330618,40.5531479 C48.8786149,42.9692139 49.5507807,45.5326854 49.5507807,47.6397275 C49.5507807,50.2426353 48.5942306,52.5836558 46.9423192,54.4406969 C45.4001147,56.174408 43.2465653,57.4866483 40.6964057,58.1789611 L40.6964057,58.1789611 L40.6964057,62.1988233 C40.6964057,62.5443262 40.5563629,62.8571204 40.3299445,63.0835388 C40.1035261,63.3099573 39.7907319,63.45 39.445229,63.45 L39.445229,63.45 L33.3386934,63.45 C32.9931905,63.45 32.6803964,63.3099573 32.4539779,63.0835388 C32.2275595,62.8571204 32.0875168,62.5443262 32.0875168,62.1988233 L32.0875168,62.1988233 L32.0875168,58.0744427 C29.6817989,57.33155 27.5965069,55.9964829 26.0590357,54.2762308 C24.4134391,52.434999 23.393617,50.1535104 23.2640273,47.6750912 C23.2517445,47.3263967 23.3776576,47.0004852 23.6120268,46.7598657 C23.8463961,46.5192461 24.1688815,46.3848008 24.4983382,46.3876521 L24.4983382,46.3876521 L30.6654259,46.3876621 C30.9654481,46.386108 31.2440315,46.4931508 31.4602953,46.6745081 C31.6765591,46.8558654 31.8305033,47.1115372 31.8817555,47.4102404 C32.0040083,48.1404106 32.5742259,48.7824928 33.3376778,49.2605263 C34.1885906,49.7933232 35.2978529,50.1216061 36.4722917,50.1216061 C37.6833964,50.1216061 38.9401933,49.8433638 39.8432816,49.2841884 C40.4732219,48.8941412 40.9418918,48.3593515 40.9418918,47.6397275 C40.9418918,47.0879802 40.3373927,46.545227 39.5284108,45.9865574 C38.4647825,45.2520332 36.9346817,44.5441494 35.0793848,43.9459634 C30.8949978,42.5973043 28.1480484,40.904941 26.3675999,39.1459611 C23.9221797,36.7300277 23.25,34.1663656 23.25,32.0590335 C23.25,29.4589896 24.2044622,27.1202453 25.853001,25.2641664 C27.3922149,23.5311756 29.5417584,22.2185934 32.087532,21.5242775 L32.087532,21.5242775 L32.087532,17.5011767 C32.087532,17.0521027 32.3289552,16.62792 32.7399265,16.4021504 L32.7399265,16.4021504 Z" id="Path" stroke="#FFFFFF" fill="#8DA4FA" fill-rule="nonzero"></path>
        </g>
    </g>
</svg>
