<?xml version="1.0" encoding="UTF-8"?>
<svg width="170px" height="170px" viewBox="0 0 170 170" version="1.1" xmlns="http://www.w3.org/2000/svg" xmlns:xlink="http://www.w3.org/1999/xlink">
    <g id="Illustrations/170px/sales_statistics" stroke="none" stroke-width="1" fill="none" fill-rule="evenodd">
        <g id="Group" transform="translate(35.000000, 35.000000)" fill-rule="nonzero">
            <path d="M8,16.6875 L8,8.25 C8,7.3125 8.625,6.6875 9.5625,6.6875 L17.375,6.6875 C18.3125,6.6875 18.9375,7.3125 18.9375,8.25 L18.9375,16.6875 C18.9375,17.625 18.3125,18.25 17.375,18.25 L9.5625,18.25 C8.625,18.25 8,17.625 8,16.6875 Z" id="Path" fill="#8DA4FA"></path>
            <path d="M8,32.625 L8,24.1875 C8,23.25 8.625,22.625 9.5625,22.625 L17.375,22.625 C18.3125,22.625 18.9375,23.25 18.9375,24.1875 L18.9375,32.625 C18.9375,33.40625 18.3125,34.1875 17.375,34.1875 L9.5625,34.1875 C8.625,34.1875 8,33.40625 8,32.625 Z" id="Path" fill="#8DA4FA"></path>
            <path d="M10,14.6875 L10,6.25 C10,5.3125 10.625,4.6875 11.5625,4.6875 L19.375,4.6875 C20.3125,4.6875 20.9375,5.3125 20.9375,6.25 L20.9375,14.6875 C20.9375,15.625 20.3125,16.25 19.375,16.25 L11.5625,16.25 C10.625,16.25 10,15.625 10,14.6875 Z" id="Path" stroke="#000000" stroke-width="2"></path>
            <path d="M10,30.625 L10,22.1875 C10,21.25 10.625,20.625 11.5625,20.625 L19.375,20.625 C20.3125,20.625 20.9375,21.25 20.9375,22.1875 L20.9375,30.625 C20.9375,31.40625 20.3125,32.1875 19.375,32.1875 L11.5625,32.1875 C10.625,32.1875 10,31.40625 10,30.625 Z" id="Path" stroke="#000000" stroke-width="2"></path>
            <path d="M28.4375,26.40625 C28.4375,25.625 29.21875,24.84375 30,24.84375 L50.46875,24.84375 C51.25,24.84375 52.03125,25.625 52.03125,26.40625 C52.03125,27.34375 51.25,27.96875 50.46875,27.96875 L30,27.96875 C29.21875,27.96875 28.4375,27.1875 28.4375,26.40625 Z" id="Path" fill="#000000"></path>
            <path d="M28.4375,10.46875 C28.4375,9.6875 29.21875,8.90625 30,8.90625 L50.46875,8.90625 C51.25,8.90625 52.03125,9.6875 52.03125,10.46875 C52.03125,11.25 51.25,12.03125 50.46875,12.03125 L30,12.03125 C29.21875,12.03125 28.4375,11.40625 28.4375,10.46875 Z" id="Path" fill="#000000"></path>
            <path d="M75.15625,29.84375 C75.15625,29.0625 75.9375,28.28125 76.71875,28.28125 L87.03125,28.4375 C87.5,28.4375 87.8125,28.59375 88.125,28.90625 C88.4375,29.21875 88.59375,29.6875 88.59375,30.15625 L87.8125,40.78125 C87.8125,41.5625 87.03125,42.1875 86.25,42.1875 C85.3125,42.1875 84.6875,41.40625 84.6875,40.46875 L85.15625,33.90625 L52.5,61.875 C52.1875,62.03125 51.875,62.1875 51.5625,62.1875 C51.40625,62.1875 51.40625,62.1875 51.25,62.1875 C50.78125,62.1875 50.46875,61.875 50.15625,61.40625 L38.75,41.40625 L15.625,59.84375 C15,60.3125 13.90625,60.3125 13.4375,59.53125 C12.8125,58.90625 12.96875,57.8125 13.59375,57.34375 L38.125,37.65625 C38.59375,37.5 39.0625,37.5 39.53125,37.5 C40,37.65625 40.3125,37.8125 40.625,38.28125 L51.875,58.28125 L83.125,31.5625 L76.5625,31.40625 C75.78125,31.40625 75.15625,30.78125 75.15625,29.84375 Z" id="Path" fill="#000000"></path>
            <path d="M100,98.4227129 C100,99.2113565 99.375,100 98.4375,100 L1.5625,100 C0.78125,100 0,99.3690852 0,98.4227129 L0,1.57728707 C0,0.630914826 0.625,-2.77555756e-16 1.5625,-2.77555756e-16 C2.5,-2.77555756e-16 3.125,0.630914826 3.125,1.57728707 L3.125,96.8454259 L13.125,96.8454259 L13.125,77.7602524 C13.125,76.8138801 13.75,76.1829653 14.6875,76.1829653 C15.625,76.1829653 16.25,76.8138801 16.25,77.7602524 L16.25,96.8454259 L25.3125,96.8454259 L25.3125,71.2933754 C25.3125,70.5047319 26.09375,69.7160883 26.875,69.7160883 C27.65625,69.7160883 28.4375,70.5047319 28.4375,71.2933754 L28.4375,96.8454259 L37.5,96.8454259 L37.5,64.511041 C37.5,63.5646688 38.125,62.9337539 39.0625,62.9337539 C39.84375,62.9337539 40.625,63.5646688 40.625,64.511041 L40.625,96.8454259 L49.6875,96.8454259 L49.6875,77.7602524 C49.6875,76.8138801 50.46875,76.1829653 51.25,76.1829653 C52.03125,76.1829653 52.8125,76.8138801 52.8125,77.7602524 L52.8125,96.8454259 L61.875,96.8454259 L61.875,71.2933754 C61.875,70.5047319 62.65625,69.7160883 63.4375,69.7160883 C64.375,69.7160883 65,70.5047319 65,71.2933754 L65,96.8454259 L74.0625,96.8454259 L74.0625,64.511041 C74.0625,63.5646688 74.84375,62.9337539 75.625,62.9337539 C76.5625,62.9337539 77.1875,63.5646688 77.1875,64.511041 L77.1875,96.8454259 L86.25,96.8454259 L86.25,52.9968454 C86.25,52.0504732 86.875,51.4195584 87.8125,51.4195584 C88.75,51.4195584 89.375,52.0504732 89.375,52.9968454 L89.375,96.8454259 L98.4375,96.8454259 C99.375,96.8454259 100,97.4763407 100,98.4227129 Z" id="Path" fill="#000000"></path>
            <path d="M86.25,96.8454259 L86.25,52.9968454 C86.25,52.0504732 86.875,51.4195584 87.8125,51.4195584 C88.75,51.4195584 89.375,52.0504732 89.375,52.9968454 L89.375,96.8454259 L86.25,96.8454259 Z" id="Path" fill="#8DA4FA"></path>
            <path d="M37.5,96.8454259 L37.5,64.511041 C37.5,63.5646688 38.125,62.9337539 39.0625,62.9337539 C39.84375,62.9337539 40.625,63.5646688 40.625,64.511041 L40.625,96.8454259 L37.5,96.8454259 Z" id="Path" fill="#8DA4FA"></path>
        </g>
    </g>
</svg>
