<?xml version="1.0" encoding="UTF-8"?>
<svg width="350px" height="298px" viewBox="0 0 350 298" version="1.1" xmlns="http://www.w3.org/2000/svg" xmlns:xlink="http://www.w3.org/1999/xlink">
    <g id="illustrations/scenario-light" stroke="none" stroke-width="1" fill="none" fill-rule="evenodd">
        <g fill="#FFFFFF" id="Rectangle">
            <rect x="0" y="0" width="350" height="298"></rect>
        </g>
        <g id="Group-17" transform="translate(84.000000, 35.000000)">
            <rect id="Rectangle" stroke="#1F2A3B" stroke-width="1.5" fill="#D6DFFF" x="0.75" y="29.75" width="157.5" height="197.5" rx="3"></rect>
            <g id="Group-18" transform="translate(22.000000, 0.000000)" stroke="#1F2A3B" stroke-width="1.5">
                <rect id="Rectangle" fill="#FFFFFF" x="0.75" y="0.75" width="157.5" height="197.5" rx="3"></rect>
                <line x1="31.3645161" y1="29.5" x2="143.635484" y2="29.5" id="Line-6" stroke-linecap="square" stroke-linejoin="round"></line>
                <line x1="31.3645161" y1="53.5" x2="117.390323" y2="53.5" id="Line-6" stroke-linecap="square" stroke-linejoin="round"></line>
            </g>
            <g id="Group" transform="translate(63.000000, 100.000000)" fill-rule="nonzero">
                <path d="M38.0002275,8 C54.5422058,8 68,21.4578816 68,38 C68,54.5421184 54.5422153,68 38.0002275,68 C21.4582397,68 8,54.5421184 8,38 C8,21.4578816 21.4582492,8 38.0002275,8 Z M27.8992564,46.4899712 C27.6136982,46.4899712 27.3262917,46.5121889 27.0384207,46.5584727 C25.6064686,46.7852567 24.3489964,47.5553894 23.4969473,48.7291 C22.6444337,49.9018818 22.3000995,51.335703 22.5268816,52.7676664 C22.7536637,54.1996298 23.5247192,55.4575764 24.6974917,56.3100872 C25.8702642,57.1607497 27.3040741,57.5097122 28.7364906,57.2792316 C30.1684522,57.0524477 31.4263794,56.2813861 32.2784285,55.1086043 C34.0375967,52.688056 33.4988777,49.2872543 31.077884,47.5276172 C30.1406803,46.8472654 29.0359348,46.4899712 27.8992564,46.4899712 Z M48.1007341,46.4899712 C46.9640557,46.4899712 45.8597747,46.8472749 44.9225709,47.5276172 C43.749334,48.380128 42.9787429,49.6380746 42.7519608,51.070038 C42.5251786,52.5020014 42.8695129,53.9358131 43.721562,55.1086043 C44.5736111,56.2813956 45.8315478,57.0524477 47.2634999,57.2792316 C48.6945326,57.5087928 50.1297263,57.1607497 51.3024988,56.3100872 C52.4752808,55.4575764 53.2463268,54.1996298 53.4731089,52.7676664 C53.6998911,51.335703 53.3555568,49.9018818 52.5030432,48.7291 C51.6509941,47.5563088 50.3935219,46.7852567 48.9615698,46.5584727 C48.6741633,46.5121889 48.3862923,46.4899712 48.1007341,46.4899712 Z M37.8937841,34.4372098 C35.8819196,34.4372098 34.2449385,36.0737394 34.2449385,38.0860842 C34.2449385,40.0984291 35.8819196,41.7349587 37.8937841,41.7349587 C39.9056487,41.7349587 41.5426298,40.0984291 41.5426298,38.0860842 C41.5426298,36.0737394 39.9056487,34.4372098 37.8937841,34.4372098 Z M59.5239723,31.0058587 C58.5997256,28.1613724 55.529873,26.597041 52.6853997,27.52175 C49.8390781,28.4464684 48.2761429,31.5149614 49.2008541,34.3613055 C49.6488545,35.7395824 50.606892,36.8614548 51.8986099,37.5195889 C53.1903279,38.1786423 54.6602318,38.2934277 56.0394267,37.8454142 C57.4181571,37.3974103 58.5400207,36.4393652 59.1981495,35.1481015 C59.8562784,33.8559089 59.9719822,32.3850644 59.5239723,31.0058587 Z M23.3150647,27.52175 C20.4673593,26.5951832 17.3998099,28.1604435 16.4760277,31.0058587 C16.0280178,32.3850644 16.1437216,33.8559089 16.8018505,35.1481015 C17.4599793,36.4393652 18.5818429,37.3974008 19.9605733,37.8454142 C22.8055016,38.7710616 25.8748992,37.2067302 26.7996104,34.3613055 C27.7243215,31.5149614 26.1609219,28.4464684 23.3150647,27.52175 Z M38.0002275,15.3680988 C35.0076624,15.3680988 32.5727827,17.8034527 32.5727827,20.7960509 C32.5727827,23.788649 35.0076624,26.2230835 38.0002275,26.2230835 C40.9927926,26.2230835 43.4276722,23.7886396 43.4276722,20.7960509 C43.4276722,17.8034621 40.992802,15.3680988 38.0002275,15.3680988 Z" id="Path-3" fill="#879DEF"></path>
                <path d="M38,0 C17.0466596,0 0,17.047123 0,38 C0,54.817736 10.9862289,69.110125 26.1559068,74.1 L0.950000119,74.1 C0.425362553,74.1 0,74.5249065 0,75.05 C0,75.5750935 0.425362553,76 0.950000119,76 L37.0810791,76 C37.1174926,76 37.1483391,75.983299 37.1836506,75.9792995 C37.4560537,75.9850945 37.7262622,76 38,76 C58.9533404,76 76,58.952877 76,38 C76,17.047123 58.9533594,0 38,0 Z M38.0000048,74.1 C18.0945383,74.1 1.90000024,57.905464 1.90000024,38 C1.90000024,18.094536 18.0945383,1.9 38.0000048,1.9 C57.9054712,1.9 74.1000093,18.094536 74.1000093,38 C74.1000093,57.905464 57.9054807,74.1 38.0000048,74.1 Z" id="Shape" fill="#1F2A3B"></path>
            </g>
        </g>
    </g>
</svg>
