<?xml version="1.0" encoding="UTF-8"?>
<svg width="1242px" height="744px" viewBox="0 0 1242 744" version="1.1" xmlns="http://www.w3.org/2000/svg" xmlns:xlink="http://www.w3.org/1999/xlink">
    <title>flatened</title>
    <g id="Event-Dashboard" stroke="none" stroke-width="1" fill="none" fill-rule="evenodd">
        <g id="Event-From-Mail/Check-emails" transform="translate(-99.000000, -69.000000)" fill-rule="nonzero">
            <g id="flatened" transform="translate(99.656510, 70.325485)">
                <g id="Group-3" transform="translate(0.000000, 325.800554)">
                    <path d="M15.6288089,11.4210526 C15.6288089,15.736829 12.1301808,19.2354571 7.81440443,19.2354571 C3.49862804,19.2354571 0,15.736829 0,11.4210526 C0,7.10527623 3.49862804,3.6066482 7.81440443,3.6066482 C12.1301808,3.6066482 15.6288089,7.10527623 15.6288089,11.4210526 L15.6288089,11.4210526 Z" id="Path" fill="#879DEF"></path>
                    <path d="M20.4376731,7.81440443 C20.4376731,12.1301808 16.9390451,15.6288089 12.6232687,15.6288089 C8.3074923,15.6288089 4.80886427,12.1301808 4.80886427,7.81440443 C4.80886427,3.49862804 8.3074923,0 12.6232687,0 C16.9390451,0 20.4376731,3.49862804 20.4376731,7.81440443 L20.4376731,7.81440443 Z" id="Path" stroke="#000000"></path>
                </g>
                <g id="Group-3" transform="translate(1220.249307, 698.487535)">
                    <path d="M15.6288089,11.4210526 C15.6288089,15.736829 12.1301808,19.2354571 7.81440443,19.2354571 C3.49862804,19.2354571 0,15.736829 0,11.4210526 C0,7.10527623 3.49862804,3.6066482 7.81440443,3.6066482 C12.1301808,3.6066482 15.6288089,7.10527623 15.6288089,11.4210526 L15.6288089,11.4210526 Z" id="Path" fill="#879DEF"></path>
                    <path d="M20.4376731,7.81440443 C20.4376731,12.1301808 16.9390451,15.6288089 12.6232687,15.6288089 C8.3074923,15.6288089 4.80886427,12.1301808 4.80886427,7.81440443 C4.80886427,3.49862804 8.3074923,0 12.6232687,0 C16.9390451,0 20.4376731,3.49862804 20.4376731,7.81440443 L20.4376731,7.81440443 Z" id="Path" stroke="#000000"></path>
                </g>
                <path d="M1003.85042,10.2188366 C1003.85042,14.534613 1000.35179,18.033241 996.036011,18.033241 C991.720235,18.033241 988.221607,14.534613 988.221607,10.2188366 C988.221607,5.90306017 991.720235,2.40443213 996.036011,2.40443213 C1000.35179,2.40443213 1003.85042,5.90306017 1003.85042,10.2188366 L1003.85042,10.2188366 Z" id="Path" fill="#879DEF"></path>
                <g id="Group-2" transform="translate(3.121884, 723.349030)">
                    <path d="M20.6918809,7.70129011 L16.592436,5.49741878 C16.3351151,5.35748863 16.1238676,5.14556416 15.9843844,4.88741868 L13.7875527,0.774837353 C13.5307509,0.297527233 13.0336565,0 12.4929912,0 C11.9523259,0 11.4552315,0.297527233 11.1984297,0.774837353 L9.00159797,4.88741868 C8.86211479,5.14556416 8.65086725,5.35748863 8.39354634,5.49741878 L4.29410149,7.70129011 C3.818316,7.95891482 3.52173913,8.45760214 3.52173913,9 C3.52173913,9.54239786 3.818316,10.0410852 4.29410149,10.2987099 L8.39354634,12.5025812 C8.65086725,12.6425114 8.86211479,12.8544358 9.00159797,13.1125813 L11.1984297,17.2251626 C11.4552315,17.7024728 11.9523259,18 12.4929912,18 C13.0336565,18 13.5307509,17.7024728 13.7875527,17.2251626 L15.9843844,13.1125813 C16.1238676,12.8544358 16.3351151,12.6425114 16.592436,12.5025812 L20.6918809,10.3577422 C21.1993936,10.1111549 21.5217391,9.59522618 21.5217391,9.02951613 C21.5217391,8.46380609 21.1993936,7.9478774 20.6918809,7.70129011 L20.6918809,7.70129011 Z" id="Path" fill="#879DEF"></path>
                    <path d="M17.1701418,7.70129011 L13.0706969,5.49741878 C12.813376,5.35748863 12.6021285,5.14556416 12.4626453,4.88741868 L10.2658136,0.774837353 C10.0090118,0.297527233 9.51191739,0 8.97125206,0 C8.43058673,0 7.93349233,0.297527233 7.67669053,0.774837353 L5.47985884,4.88741868 C5.34037566,5.14556416 5.12912812,5.35748863 4.87180721,5.49741878 L0.772362356,7.70129011 C0.296576867,7.95891482 0,8.45760214 0,9 C0,9.54239786 0.296576867,10.0410852 0.772362356,10.2987099 L4.87180721,12.5025812 C5.12912812,12.6425114 5.34037566,12.8544358 5.47985884,13.1125813 L7.67669053,17.2251626 C7.93349233,17.7024728 8.43058673,18 8.97125206,18 C9.51191739,18 10.0090118,17.7024728 10.2658136,17.2251626 L12.4626453,13.1125813 C12.6021285,12.8544358 12.813376,12.6425114 13.0706969,12.5025812 L17.1701418,10.3577422 C17.6776545,10.1111549 18,9.59522618 18,9.02951613 C18,8.46380609 17.6776545,7.9478774 17.1701418,7.70129011 L17.1701418,7.70129011 Z" id="Path" stroke="#000000"></path>
                </g>
                <g id="Group-2" transform="translate(1203.418283, 164.703601)">
                    <path d="M31.7861427,11.8304521 L25.4887191,8.44494217 C25.0934317,8.22998638 24.7689206,7.90443543 24.5546515,7.50788138 L21.1799556,1.190278 C20.7854656,0.457050914 20.0218466,0 19.1912955,0 C18.3607443,0 17.5971253,0.457050914 17.2026354,1.190278 L13.8279395,7.50788138 C13.6136703,7.90443543 13.2891593,8.22998638 12.8938719,8.44494217 L6.5964483,11.8304521 C5.86556329,12.2262062 5.4099723,12.9922722 5.4099723,13.8254848 C5.4099723,14.6586974 5.86556329,15.4247634 6.5964483,15.8205174 L12.8938719,19.2060274 C13.2891593,19.4209832 13.6136703,19.7465341 13.8279395,20.1430881 L17.2026354,26.4606915 C17.5971253,27.1939186 18.3607443,27.6509695 19.1912955,27.6509695 C20.0218466,27.6509695 20.7854656,27.1939186 21.1799556,26.4606915 L24.5546515,20.1430881 C24.7689206,19.7465341 25.0934317,19.4209832 25.4887191,19.2060274 L31.7861427,15.9112007 C32.565766,15.532402 33.0609418,14.7398504 33.0609418,13.8708264 C33.0609418,13.0018025 32.565766,12.2092509 31.7861427,11.8304521 L31.7861427,11.8304521 Z" id="Path" fill="#879DEF"></path>
                    <path d="M26.3761704,11.8304521 L20.0787468,8.44494217 C19.6834594,8.22998638 19.3589483,7.90443543 19.1446792,7.50788138 L15.7699833,1.190278 C15.3754933,0.457050914 14.6118743,0 13.7813232,0 C12.9507721,0 12.187153,0.457050914 11.7926631,1.190278 L8.41796721,7.50788138 C8.20369803,7.90443543 7.87918696,8.22998638 7.48389959,8.44494217 L1.186476,11.8304521 C0.455590995,12.2262062 0,12.9922722 0,13.8254848 C0,14.6586974 0.455590995,15.4247634 1.186476,15.8205174 L7.48389959,19.2060274 C7.87918696,19.4209832 8.20369803,19.7465341 8.41796721,20.1430881 L11.7926631,26.4606915 C12.187153,27.1939186 12.9507721,27.6509695 13.7813232,27.6509695 C14.6118743,27.6509695 15.3754933,27.1939186 15.7699833,26.4606915 L19.1446792,20.1430881 C19.3589483,19.7465341 19.6834594,19.4209832 20.0787468,19.2060274 L26.3761704,15.9112007 C27.1557937,15.532402 27.6509695,14.7398504 27.6509695,13.8708264 C27.6509695,13.0018025 27.1557937,12.2092509 26.3761704,11.8304521 L26.3761704,11.8304521 Z" id="Path" stroke="#000000"></path>
                </g>
                <g id="Group-2" transform="translate(156.288089, 548.210526)">
                    <path d="M31.7861427,11.8304521 L25.4887191,8.44494217 C25.0934317,8.22998638 24.7689206,7.90443543 24.5546515,7.50788138 L21.1799556,1.190278 C20.7854656,0.457050914 20.0218466,0 19.1912955,0 C18.3607443,0 17.5971253,0.457050914 17.2026354,1.190278 L13.8279395,7.50788138 C13.6136703,7.90443543 13.2891593,8.22998638 12.8938719,8.44494217 L6.5964483,11.8304521 C5.86556329,12.2262062 5.4099723,12.9922722 5.4099723,13.8254848 C5.4099723,14.6586974 5.86556329,15.4247634 6.5964483,15.8205174 L12.8938719,19.2060274 C13.2891593,19.4209832 13.6136703,19.7465341 13.8279395,20.1430881 L17.2026354,26.4606915 C17.5971253,27.1939186 18.3607443,27.6509695 19.1912955,27.6509695 C20.0218466,27.6509695 20.7854656,27.1939186 21.1799556,26.4606915 L24.5546515,20.1430881 C24.7689206,19.7465341 25.0934317,19.4209832 25.4887191,19.2060274 L31.7861427,15.9112007 C32.565766,15.532402 33.0609418,14.7398504 33.0609418,13.8708264 C33.0609418,13.0018025 32.565766,12.2092509 31.7861427,11.8304521 L31.7861427,11.8304521 Z" id="Path" fill="#879DEF"></path>
                    <path d="M26.3761704,11.8304521 L20.0787468,8.44494217 C19.6834594,8.22998638 19.3589483,7.90443543 19.1446792,7.50788138 L15.7699833,1.190278 C15.3754933,0.457050914 14.6118743,0 13.7813232,0 C12.9507721,0 12.187153,0.457050914 11.7926631,1.190278 L8.41796721,7.50788138 C8.20369803,7.90443543 7.87918696,8.22998638 7.48389959,8.44494217 L1.186476,11.8304521 C0.455590995,12.2262062 0,12.9922722 0,13.8254848 C0,14.6586974 0.455590995,15.4247634 1.186476,15.8205174 L7.48389959,19.2060274 C7.87918696,19.4209832 8.20369803,19.7465341 8.41796721,20.1430881 L11.7926631,26.4606915 C12.187153,27.1939186 12.9507721,27.6509695 13.7813232,27.6509695 C14.6118743,27.6509695 15.3754933,27.1939186 15.7699833,26.4606915 L19.1446792,20.1430881 C19.3589483,19.7465341 19.6834594,19.4209832 20.0787468,19.2060274 L26.3761704,15.9112007 C27.1557937,15.532402 27.6509695,14.7398504 27.6509695,13.8708264 C27.6509695,13.0018025 27.1557937,12.2092509 26.3761704,11.8304521 L26.3761704,11.8304521 Z" id="Path" stroke="#000000"></path>
                </g>
                <path d="M1006.25485,7.81440443 C1006.25485,12.1301808 1002.75622,15.6288089 998.440443,15.6288089 C994.124667,15.6288089 990.626039,12.1301808 990.626039,7.81440443 C990.626039,3.49862804 994.124667,0 998.440443,0 C1002.75622,0 1006.25485,3.49862804 1006.25485,7.81440443 L1006.25485,7.81440443 Z" id="Path" stroke="#000000" stroke-width="2"></path>
            </g>
        </g>
    </g>
</svg>