<svg width="47" height="47" viewBox="0 0 47 47" fill="none" xmlns="http://www.w3.org/2000/svg">
<path d="M47 23.5C47 36.4787 36.4787 47 23.5 47C10.5213 47 0 36.4787 0 23.5C0 10.5213 10.5213 0 23.5 0C36.4787 0 47 10.5213 47 23.5Z" fill="#F4BE60"/>
<rect width="24" height="24" transform="translate(12 12)" fill="#F4BE60"/>
<path d="M26.17 17L31 21.83V31H17V17H26.17ZM26.17 15H17C15.9 15 15 15.9 15 17V31C15 32.1 15.9 33 17 33H31C32.1 33 33 32.1 33 31V21.83C33 21.3 32.79 20.79 32.41 20.42L27.58 15.59C27.21 15.21 26.7 15 26.17 15ZM19 27H29V29H19V27ZM19 23H29V25H19V23ZM19 19H26V21H19V19Z" fill="white"/>
</svg>
