<?xml version="1.0" encoding="UTF-8"?>
<svg width="248px" height="228px" viewBox="0 0 248 228" version="1.1" xmlns="http://www.w3.org/2000/svg" xmlns:xlink="http://www.w3.org/1999/xlink">
    <title>Illustrations/380px/wait</title>
    <defs>
        <path d="M9.75331689,0 L8.04528691,0.284871201 L6.33720466,0.569690664 L6.28671483,2.14724384 C5.60248886,2.4493439 4.95542466,2.84643552 4.36789245,3.33577657 L4.36789245,3.33577657 L2.9130956,2.69292792 L1.9088394,4.08991436 L0.904530948,5.48684905 L1.99476619,6.636785 C1.72026043,7.34663477 1.55326769,8.08188807 1.48908394,8.82081478 L1.48908394,8.82081478 L0,9.38486597 L0.287781544,11.0756743 L0.575563088,12.7664827 L2.16918083,12.8165137 C2.47436725,13.49382 2.87546343,14.1342887 3.36980376,14.7158792 L3.36980376,14.7158792 L2.72038754,16.1559637 L4.13169834,17.1501155 L5.54295687,18.1442156 L6.70453642,17.065006 C7.42163827,17.3367874 8.16445543,17.5020913 8.91087901,17.565626 L8.91087901,17.565626 L9.48074501,19.0396508 L11.1888273,18.7547796 L12.8968572,18.4699084 L12.9473993,16.8924069 C13.6316253,16.5903069 14.2787418,16.1932152 14.866274,15.7038742 L14.866274,15.7038742 L16.3210186,16.3467228 L17.3252748,14.9497364 L18.3295832,13.55275 L17.239348,12.4028658 C17.5138537,11.6930677 17.6808465,10.9577627 17.7450302,10.2188877 L17.7450302,10.2188877 L19.2341142,9.65473306 L18.9463849,7.96392469 L18.6586033,6.27316807 L17.0649856,6.22313711 C16.7597469,5.54588248 16.3585985,4.90525857 15.8642581,4.32371983 L15.8642581,4.32371983 L16.5137266,2.88368712 L15.1024681,1.889587 L13.6912618,0.895435139 L12.5295255,1.9746448 C11.8124759,1.70286339 11.069711,1.53755945 10.3232351,1.47407653 L10.3232351,1.47407653 L9.75331689,0 Z M7.5461072,12.4005067 C5.93890311,11.2683539 5.56320162,9.06083205 6.70692187,7.46983945 L6.70692187,7.46983945 C7.85068607,5.87884686 10.0807625,5.50694516 11.6880106,6.639098 L11.6880106,6.639098 C13.2952147,7.77129435 13.6709601,9.97885967 12.5271959,11.5698523 L12.5271959,11.5698523 C11.8304756,12.5389201 10.7305366,13.0557621 9.61398189,13.0557621 L9.61398189,13.0557621 C8.89752483,13.0557621 8.17434233,12.8430728 7.5461072,12.4005067 L7.5461072,12.4005067 Z" id="path-1"></path>
        <path d="M4.87665844,0 L4.02264345,0.142435601 L3.16860233,0.284845332 L3.14335742,1.07362192 C2.80124443,1.22467195 2.47771233,1.42321776 2.18394623,1.66788829 L2.18394623,1.66788829 L1.4565478,1.34646396 L0.954419702,2.04495718 L0.452265474,2.74342453 L0.997383093,3.3183925 C0.860130217,3.67331739 0.776633847,4.04094403 0.744541971,4.41040739 L0.744541971,4.41040739 L-5.3270404e-13,4.69243299 L0.143890772,5.53783717 L0.287781544,6.38324135 L1.08459041,6.40825683 C1.23718362,6.74691001 1.43773171,7.06714436 1.68490188,7.3579396 L1.68490188,7.3579396 L1.36019377,8.07798183 L2.06584917,8.57505775 L2.77147843,9.07210781 L3.35226821,8.53250298 C3.71081914,8.66839369 4.08222772,8.75104566 4.45543951,8.78281299 L4.45543951,8.78281299 L4.7403725,9.51982538 L5.59441363,9.37738978 L6.44842862,9.23495418 L6.47369966,8.44620346 C6.81581265,8.29515343 7.13937089,8.09660762 7.43313699,7.8519371 L7.43313699,7.8519371 L8.16050928,8.17336142 L8.66263738,7.47486821 L9.16479161,6.77637499 L8.61967399,6.20143289 C8.75692686,5.84653387 8.84042323,5.47888135 8.87251511,5.10944386 L8.87251511,5.10944386 L9.61705708,4.82736653 L9.47319244,3.98196235 L9.32930167,3.13658403 L8.5324928,3.11156856 C8.37987346,2.77294124 8.17929923,2.45262929 7.93212907,2.16185992 L7.93212907,2.16185992 L8.25686331,1.44184356 L7.55123405,0.944793498 L6.84563091,0.44771757 L6.26476274,0.987322399 C5.90623795,0.851431696 5.5348555,0.768779727 5.16161757,0.737038266 L5.16161757,0.737038266 L4.87665844,0 Z M3.7730536,6.20025335 C2.96945155,5.63417693 2.78160081,4.53041602 3.35346093,3.73491973 L3.35346093,3.73491973 C3.92534304,2.93942343 5.04038126,2.75347258 5.84400529,3.319549 L5.84400529,3.319549 C6.64760733,3.88564717 6.83548006,4.98942983 6.26359795,5.78492613 L6.26359795,5.78492613 C5.9152378,6.26946005 5.36526832,6.52788104 4.80699095,6.52788104 L4.80699095,6.52788104 C4.44876241,6.52788104 4.08717116,6.42153638 3.7730536,6.20025335 L3.7730536,6.20025335 Z" id="path-3"></path>
    </defs>
    <g id="Existing-org" stroke="none" stroke-width="1" fill="none" fill-rule="evenodd">
        <g id="request-sent-1" transform="translate(-596.000000, -172.000000)">
            <g id="Illustrations/380px/wait" transform="translate(596.500000, 173.000000)">
                <g id="tree-3" transform="translate(179.106788, 113.677530) rotate(6.000000) translate(-179.106788, -113.677530) translate(123.106788, 5.677530)" stroke="#000000">
                    <path d="M96.4228815,18.8493059 C97.8480455,22.605223 99.7760438,25.8300508 101.766529,28.9457368 L102.310608,29.7930804 C106.670334,36.5552533 111.136957,42.9804765 111.136957,53.4511722 C111.136957,90.1032772 88.608387,119.469796 78.4924602,119.469796 C76.1776596,119.469796 74.0139674,119.219539 71.9949569,118.760033 C67.930578,130.441629 60.9934088,138.285003 56.0269201,140.073523 C47.8964109,143.005062 39.4793057,139.295786 31.967881,133.21128 L31.9685686,127.916113 L26.1734768,127.916746 C18.1156527,119.737522 11.7058002,109.891695 8.80728506,105.045791 C-1.53964693,87.874781 1.67730829,63.8372463 0.529739471,56.5104479 C-0.617829349,49.1836495 3.60089701,26.8416111 10.3875438,24.4604017 C26.7711951,18.7124116 41.5954111,31.1320989 51.6362603,43.1845499 C50.1869202,31.6356324 45.6334199,3.59009326 68.1265828,0.411167462 C84.2177446,-1.86791348 93.5413751,11.3161962 96.4228815,18.8493059 Z" id="Path-3" fill-rule="nonzero"></path>
                    <path d="M68.1265828,0.411167462 C84.2177446,-1.86791348 93.5413751,11.3161962 96.4228815,18.8493059 C101.087055,31.1413983 111.136957,37.7451287 111.136957,53.4511722 C111.136957,90.1032772 88.608387,119.469796 78.4924602,119.469796 C56.1949768,119.469796 47.9183094,96.2493234 47.9183094,86.4604839 C47.9183094,69.8437421 52.3561123,49.8037086 51.8279147,44.8018732 C50.7149269,34.5273279 44.4991733,3.75039467 68.1265828,0.411167462 Z" id="Path" fill-rule="nonzero"></path>
                    <path d="M23.6907966,52.3096303 C29.3037004,59.6039489 61.9131499,120.665575 67.7715298,195.749178" id="Path" stroke-linecap="round" stroke-linejoin="round"></path>
                    <path d="M43.7702138,50.3712606 C43.1891601,52.6252988 38.3650627,66.1726229 34.4733539,70.773078" id="Path" stroke-linecap="round" stroke-linejoin="round"></path>
                    <path d="M20.0121359,93.7994005 C23.9319621,96.2723481 34.4386165,99.0007675 45.8973044,99.0642928" id="Path" stroke-linecap="round" stroke-linejoin="round"></path>
                    <path d="M62.7494042,114.925494 C61.7019276,116.202042 58.6774571,119.921482 54.0723349,121.7261" id="Path" stroke-linecap="round" stroke-linejoin="round"></path>
                    <path d="M75.0345282,45.3305438 C81.5447355,89.594937 66.6143073,196.659426 66.0582754,215.548758" id="Path" stroke-linecap="round" stroke-linejoin="round"></path>
                    <path d="M90.7922979,49.1497526 C89.0498405,51.8567564 81.9387306,58.2811247 76.5371126,60.2780166" id="Path" stroke-linecap="round" stroke-linejoin="round"></path>
                    <path d="M59.7551198,82.4967484 C63.1912779,84.0670833 69.6492065,86.8244066 75.869677,86.8244066" id="Path" stroke-linecap="round" stroke-linejoin="round"></path>
                </g>
                <g id="sitting-leaning" transform="translate(25.500000, 124.000000)">
                    <path d="M6.61088426,96.0073859 C5.80248427,96.0276586 2.27968798,96.3885124 1.45511999,95.7154593 C-0.0404199996,94.4990981 0.363779997,84.285719 0.824567992,83.79512 C1.28535599,83.304521 2.27564598,82.9842125 2.57475398,83.4099389 C2.87386197,83.8356653 3.78735396,87.8699298 4.19155396,88.4010742 C4.59575396,88.9322186 6.03753203,89.6458171 7.12078802,89.3255087" id="Path" fill="#000000" fill-rule="nonzero"></path>
                    <path d="M100.924422,68.8787968 C99.8128723,67.5610723 64.7690074,41.9441872 57.2710975,42.0901505 C49.7731875,42.2361138 29.3002919,84.3918225 29.7166179,85.9284921 C36.4818569,85.1213942 38.2310299,84.708871 44.2343787,84.1365494 C45.8915987,82.7377341 55.1732995,73.3668503 58.0512035,67.1512448 C59.1829634,68.7973869 64.7224816,75.8526905 67.5074196,77.600196" id="Path" stroke="#000000" fill-rule="nonzero"></path>
                    <path d="M6.67738394,96.2790399 C7.30793593,96.7818026 117.153327,98.8090711 126.231659,96.2790399 C135.309991,93.7490087 137.706897,94.00039 137.581595,88.6889463 C137.506907,85.522988 124.758708,68.4216111 103.397735,67.6089636 C100.997231,68.4353395 99.8603037,69.7772534 99.9869531,71.634705 C85.5219825,72.3299543 68.8352594,76.1766446 49.9267835,83.1747758 C38.6091836,85.0317538 7.48578393,88.5348739 7.48578393,88.5348739 C6.97649193,90.391852 6.06299994,93.8138813 6.67738394,96.2790399 Z" id="Path" stroke="#000000" fill-rule="nonzero"></path>
                    <path d="M143.490999,20.386213 C149.412529,23.0176076 156.696213,57.0230109 155.705923,58.1380087 C154.715633,59.2530064 146.320399,63.0885986 146.320399,63.0885986 C146.158719,71.3679635 139.166059,91.1865412 137.068261,92.0501577 C122.323045,87.8415481 113.252797,74.7251203 113.252797,71.1328003 C113.252797,69.3450669 112.367599,68.2297517 105.045099,67.6089636 C100.787144,68.0712749 101.358945,69.3818814 100.924422,68.8787968 C100.521177,68.4636113 100.297524,68.5193958 99.7969791,68.2297517 C99.7969791,68.2297517 105.859979,62.9588534 110.601245,59.536824 C110.435523,58.0731361 109.166335,30.644192 110.803345,28.0655064 C114.061197,22.952735 136.110307,17.1060924 143.490999,20.386213 Z" id="Path" fill="#000000" fill-rule="nonzero"></path>
                    <path d="M146.372945,63.0804895 C144.756145,63.846797 130.071559,70.1962022 123.644779,71.5423086" id="Path" stroke="#FFFFFF" stroke-width="0.68" stroke-linecap="round"></path>
                    <path d="M137.169311,41.1454433 C137.933249,42.7672582 142.634095,52.1129664 142.060131,53.0738917 C141.486167,54.034817 113.052434,68.319143 110.69999,69.081396" id="Path" stroke="#FFFFFF" stroke-width="0.68" stroke-linecap="round"></path>
                    <path d="M114.970647,38.7411028 C114.821093,42.2036775 114.918101,59.1354248 115.492065,65.3875211" id="Path" stroke="#FFFFFF" stroke-width="0.68" stroke-linecap="round"></path>
                    <path d="M113.075241,68.6241751 C113.317761,69.1309923 114.299675,72.7059608 114.477523,73.7682495 C114.655371,74.8305382 107.743551,76.2334081 105.334519,76.1158265 C102.925487,75.998245 99.9869531,73.7560859 99.9869531,71.1044186" id="Path" stroke="#000000" fill-rule="nonzero"></path>
                    <path d="M120.944011,19.027943 L122.104777,24.039351 C122.347297,25.1948941 128.701321,23.9542057 128.446675,22.7135173 L126.837959,15.0017876" id="Path" stroke="#000000" fill-rule="nonzero"></path>
                    <ellipse id="Oval" stroke="#000000" fill-rule="nonzero" cx="119.679577" cy="10.5904511" rx="8.41140192" ry="8.43749188"></ellipse>
                    <ellipse id="Oval" fill="#FF6E61" fill-rule="nonzero" transform="translate(111.589886, 13.444034) rotate(-11.790000) translate(-111.589886, -13.444034) " cx="111.589886" cy="13.4440342" rx="1.40275569" ry="1"></ellipse>
                    <ellipse id="Oval" fill="#FF6E61" fill-rule="nonzero" transform="translate(120.222822, 11.635591) rotate(-11.790000) translate(-120.222822, -11.635591) " cx="120.222822" cy="11.6355914" rx="1.40275569" ry="1"></ellipse>
                    <path d="M114.627077,11.2513407 C114.449229,11.6567944 113.450855,13.4894452 114.970647,13.8219173" id="Path" stroke="#000000" stroke-width="0.69" stroke-linecap="round"></path>
                    <path d="M118.115323,15.0463875 C118.519523,14.9490786 119.057109,14.3125163 119.299629,13.7773173" id="Path" stroke="#000000" stroke-width="0.69" stroke-linecap="round"></path>
                    <path d="M118.745875,0.539253445 C121.518687,-0.0405453718 125.948719,1.26096106 126.546935,4.12751885 C126.569166,4.24104589 126.594428,4.50053627 126.621207,4.78435388 L126.653971,5.12882735 C126.67062,5.29911792 126.687596,5.46065068 126.704573,5.58715224 C127.925397,6.20732983 128.78036,7.3718818 129.008513,8.72536402 C129.307621,10.6837055 127.989929,14.8152789 126.846043,14.989624 C126.820125,14.0982448 126.374485,12.7331078 125.834959,11.4559673 C126.316431,11.1209569 126.631817,10.5622046 126.631817,9.92956156 C126.631817,8.90398091 125.80299,8.07258353 124.780581,8.07258353 C124.518844,8.07258353 124.269794,8.12706999 124.044088,8.22535223 C120.180486,9.0285978 114.460162,7.65886125 113.794425,7.56982092 C113.052526,7.47543829 112.301195,7.64626819 111.672375,8.05231084 C111.408683,8.83628465 111.272212,9.6576494 111.268175,10.4850332 C108.745967,10.6431601 107.646543,9.42679895 107.181713,7.1968035 C107.068537,6.66160459 106.975571,5.02357157 108.353893,4.18833691 C109.178461,3.66935615 114.332011,1.46368792 118.745875,0.539253445 Z" id="Path-2" fill="#000000" fill-rule="nonzero"></path>
                </g>
                <g id="Group" transform="translate(35.500000, 79.000000)">
                    <g id="Group-3" transform="translate(21.033891, 27.320573)">
                        <mask id="mask-2" fill="white">
                            <use xlink:href="#path-1"></use>
                        </mask>
                        <g id="Clip-2"></g>
                        <path d="M9.75331689,0 L8.04528691,0.284871201 L6.33720466,0.569690664 L6.28671483,2.14724384 C5.60248886,2.4493439 4.95542466,2.84643552 4.36789245,3.33577657 L4.36789245,3.33577657 L2.9130956,2.69292792 L1.9088394,4.08991436 L0.904530948,5.48684905 L1.99476619,6.636785 C1.72026043,7.34663477 1.55326769,8.08188807 1.48908394,8.82081478 L1.48908394,8.82081478 L0,9.38486597 L0.287781544,11.0756743 L0.575563088,12.7664827 L2.16918083,12.8165137 C2.47436725,13.49382 2.87546343,14.1342887 3.36980376,14.7158792 L3.36980376,14.7158792 L2.72038754,16.1559637 L4.13169834,17.1501155 L5.54295687,18.1442156 L6.70453642,17.065006 C7.42163827,17.3367874 8.16445543,17.5020913 8.91087901,17.565626 L8.91087901,17.565626 L9.48074501,19.0396508 L11.1888273,18.7547796 L12.8968572,18.4699084 L12.9473993,16.8924069 C13.6316253,16.5903069 14.2787418,16.1932152 14.866274,15.7038742 L14.866274,15.7038742 L16.3210186,16.3467228 L17.3252748,14.9497364 L18.3295832,13.55275 L17.239348,12.4028658 C17.5138537,11.6930677 17.6808465,10.9577627 17.7450302,10.2188877 L17.7450302,10.2188877 L19.2341142,9.65473306 L18.9463849,7.96392469 L18.6586033,6.27316807 L17.0649856,6.22313711 C16.7597469,5.54588248 16.3585985,4.90525857 15.8642581,4.32371983 L15.8642581,4.32371983 L16.5137266,2.88368712 L15.1024681,1.889587 L13.6912618,0.895435139 L12.5295255,1.9746448 C11.8124759,1.70286339 11.069711,1.53755945 10.3232351,1.47407653 L10.3232351,1.47407653 L9.75331689,0 Z M7.15460669,12.9450834 C5.24357207,11.598904 4.79684689,8.97406369 6.15677932,7.08230369 L6.15677932,7.08230369 C7.51676403,5.19054368 10.1684206,4.74833624 12.0795075,6.09451564 L12.0795075,6.09451564 C13.9905421,7.44074678 14.4373195,10.0656388 13.0773348,11.9573988 L13.0773348,11.9573988 C12.2489045,13.109663 10.9410299,13.7242108 9.6133984,13.7242108 L9.6133984,13.7242108 C8.76150022,13.7242108 7.9016052,13.4713139 7.15460669,12.9450834 L7.15460669,12.9450834 Z" id="Fill-1" stroke="#FF6E61" stroke-width="2" fill="#FF6E61" mask="url(#mask-2)"></path>
                        <rect id="Rectangle" fill="#FF6E61" mask="url(#mask-2)" x="4.12161829" y="4.62392775" width="10.9909821" height="9.791847"></rect>
                    </g>
                    <g id="Group-3" transform="translate(21.389955, 6.591774) rotate(15.000000) translate(-21.389955, -6.591774) translate(16.389955, 1.591774)">
                        <mask id="mask-4" fill="white">
                            <use xlink:href="#path-3"></use>
                        </mask>
                        <g id="Clip-2"></g>
                        <path d="M4.87665844,0 L4.02264345,0.142435601 L3.16860233,0.284845332 L3.14335742,1.07362192 C2.80124443,1.22467195 2.47771233,1.42321776 2.18394623,1.66788829 L2.18394623,1.66788829 L1.4565478,1.34646396 L0.954419702,2.04495718 L0.452265474,2.74342453 L0.997383093,3.3183925 C0.860130217,3.67331739 0.776633847,4.04094403 0.744541971,4.41040739 L0.744541971,4.41040739 L-5.3270404e-13,4.69243299 L0.143890772,5.53783717 L0.287781544,6.38324135 L1.08459041,6.40825683 C1.23718362,6.74691001 1.43773171,7.06714436 1.68490188,7.3579396 L1.68490188,7.3579396 L1.36019377,8.07798183 L2.06584917,8.57505775 L2.77147843,9.07210781 L3.35226821,8.53250298 C3.71081914,8.66839369 4.08222772,8.75104566 4.45543951,8.78281299 L4.45543951,8.78281299 L4.7403725,9.51982538 L5.59441363,9.37738978 L6.44842862,9.23495418 L6.47369966,8.44620346 C6.81581265,8.29515343 7.13937089,8.09660762 7.43313699,7.8519371 L7.43313699,7.8519371 L8.16050928,8.17336142 L8.66263738,7.47486821 L9.16479161,6.77637499 L8.61967399,6.20143289 C8.75692686,5.84653387 8.84042323,5.47888135 8.87251511,5.10944386 L8.87251511,5.10944386 L9.61705708,4.82736653 L9.47319244,3.98196235 L9.32930167,3.13658403 L8.5324928,3.11156856 C8.37987346,2.77294124 8.17929923,2.45262929 7.93212907,2.16185992 L7.93212907,2.16185992 L8.25686331,1.44184356 L7.55123405,0.944793498 L6.84563091,0.44771757 L6.26476274,0.987322399 C5.90623795,0.851431696 5.5348555,0.768779727 5.16161757,0.737038266 L5.16161757,0.737038266 L4.87665844,0 Z M3.57730334,6.47254169 C2.62178604,5.79945199 2.39842344,4.48703185 3.07838966,3.54115184 L3.07838966,3.54115184 C3.75838201,2.59527184 5.0842103,2.37416812 6.03975374,3.04725782 L6.03975374,3.04725782 C6.99527105,3.72037339 7.21865977,5.03281941 6.53866742,5.97869941 L6.53866742,5.97869941 C6.12445225,6.55483149 5.47051495,6.86210539 4.8066992,6.86210539 L4.8066992,6.86210539 C4.38075011,6.86210539 3.9508026,6.73565693 3.57730334,6.47254169 L3.57730334,6.47254169 Z" id="Fill-1" stroke="#FF6E61" stroke-width="2" fill="#FF6E61" mask="url(#mask-4)"></path>
                        <rect id="Rectangle" fill="#FF6E61" mask="url(#mask-4)" x="2.06080915" y="2.31196388" width="5.49549106" height="4.8959235"></rect>
                    </g>
                </g>
                <line x1="0.895833333" y1="221.25" x2="228.5" y2="221.5" id="Line-4" stroke="#000000" stroke-width="2" stroke-linecap="round"></line>
                <g id="Group" transform="translate(39.500000, 95.000000)" fill-rule="nonzero">
                    <path d="M10.5875,3.82083333 L11.2583333,3.15 C11.375,3.03333333 11.375,2.85833333 11.2583333,2.74166667 C11.1416667,2.625 10.9666667,2.625 10.85,2.74166667 L10.1791667,3.4125 C10.0625,3.52916667 10.0625,3.70416667 10.1791667,3.82083333 C10.3541667,3.96666667 10.5291667,3.87916667 10.5875,3.82083333 Z" id="Path" fill="#FF6E61"></path>
                    <path d="M11.7833333,7.29166667 L12.7458333,7.29166667 C12.9208333,7.29166667 13.0375,7.175 13.0375,7 C13.0375,6.825 12.9208333,6.70833333 12.7458333,6.70833333 L11.7833333,6.70833333 C11.6083333,6.70833333 11.4916667,6.825 11.4916667,7 C11.4916667,7.175 11.6375,7.29166667 11.7833333,7.29166667 Z" id="Path" fill="#000000"></path>
                    <path d="M10.5875,10.1791667 C10.4708333,10.0625 10.2958333,10.0625 10.1791667,10.1791667 C10.0625,10.2958333 10.0625,10.4708333 10.1791667,10.5875 L10.85,11.2583333 C11.025,11.4041667 11.2,11.3166667 11.2583333,11.2583333 C11.375,11.1416667 11.375,10.9666667 11.2583333,10.85 L10.5875,10.1791667 Z" id="Path" fill="#000000"></path>
                    <path d="M7,14 C10.85,14 14,10.85 14,7 C14,3.15 10.85,0 7,0 C3.15,0 0,3.15 0,7 C0,10.85 3.15,14 7,14 Z M7,0.583333333 C10.5291667,0.583333333 13.4166667,3.47083333 13.4166667,7 C13.4166667,10.5291667 10.5291667,13.4166667 7,13.4166667 C3.47083333,13.4166667 0.583333333,10.5291667 0.583333333,7 C0.583333333,3.47083333 3.47083333,0.583333333 7,0.583333333 Z" id="Shape" fill="#000000"></path>
                    <path d="M8.95416667,9.3625 C9.12916667,9.5375 9.30416667,9.42083333 9.3625,9.3625 C9.47916667,9.24583333 9.47916667,9.07083333 9.3625,8.95416667 L7.29166667,6.88333333 L7.29166667,4.375 C7.29166667,4.2 7.175,4.08333333 7,4.08333333 C6.825,4.08333333 6.70833333,4.2 6.70833333,4.375 L6.70833333,7 C6.70833333,7.0875 6.7375,7.14583333 6.79583333,7.20416667 L8.95416667,9.3625 Z" id="Path" fill="#000000"></path>
                    <path d="M7,2.50833333 C7.175,2.50833333 7.29166667,2.39166667 7.29166667,2.21666667 L7.29166667,1.225 C7.29166667,1.05 7.175,0.933333333 7,0.933333333 C6.825,0.933333333 6.70833333,1.05 6.70833333,1.225 L6.70833333,2.1875 C6.70833333,2.3625 6.825,2.50833333 7,2.50833333 Z" id="Path" fill="#000000"></path>
                    <path d="M7,13.0666667 C7.175,13.0666667 7.29166667,12.95 7.29166667,12.775 L7.29166667,11.8125 C7.29166667,11.6375 7.175,11.5208333 7,11.5208333 C6.825,11.5208333 6.70833333,11.6375 6.70833333,11.8125 L6.70833333,12.775 C6.70833333,12.9208333 6.825,13.0666667 7,13.0666667 Z" id="Path" fill="#FF6E61"></path>
                    <path d="M3.12083333,11.2875 L3.79166667,10.6166667 C3.90833333,10.5 3.90833333,10.325 3.79166667,10.2083333 C3.675,10.0916667 3.5,10.0916667 3.38333333,10.2083333 L2.7125,10.8791667 C2.59583333,10.9958333 2.59583333,11.1708333 2.7125,11.2875 C2.8875,11.4333333 3.0625,11.3458333 3.12083333,11.2875 Z" id="Path" fill="#000000"></path>
                    <path d="M2.1875,6.70833333 L1.225,6.70833333 C1.05,6.70833333 0.933333333,6.825 0.933333333,7 C0.933333333,7.175 1.05,7.29166667 1.225,7.29166667 L2.1875,7.29166667 C2.3625,7.29166667 2.47916667,7.175 2.47916667,7 C2.47916667,6.825 2.3625,6.70833333 2.1875,6.70833333 Z" id="Path" fill="#000000"></path>
                    <path d="M3.4125,3.82083333 C3.47083333,3.87916667 3.675,3.99583333 3.82083333,3.82083333 C3.9375,3.70416667 3.9375,3.52916667 3.82083333,3.4125 L3.15,2.74166667 C3.03333333,2.625 2.85833333,2.625 2.74166667,2.74166667 C2.625,2.85833333 2.625,3.03333333 2.74166667,3.15 L3.4125,3.82083333 Z" id="Path" fill="#000000"></path>
                </g>
            </g>
        </g>
    </g>
</svg>