<svg width="47" height="47" viewBox="0 0 47 47" fill="none" xmlns="http://www.w3.org/2000/svg">
<path d="M47 23.5C47 36.4787 36.4787 47 23.5 47C10.5213 47 0 36.4787 0 23.5C0 10.5213 10.5213 0 23.5 0C36.4787 0 47 10.5213 47 23.5Z" fill="#3A90F3"/>
<rect width="24" height="24" transform="translate(12 12)" fill="#3A90F3"/>
<path d="M24 14C18.67 18.55 16 22.48 16 25.8C16 30.78 19.8 34 24 34C28.2 34 32 30.78 32 25.8C32 22.48 29.33 18.55 24 14ZM24 32C20.65 32 18 29.43 18 25.8C18 23.46 19.95 20.36 24 16.66C28.05 20.36 30 23.45 30 25.8C30 29.43 27.35 32 24 32ZM19.83 26C20.2 26 20.5 26.26 20.57 26.62C20.98 28.84 22.85 29.6 24.21 29.49C24.64 29.47 25 29.81 25 30.24C25 30.64 24.68 30.97 24.28 30.99C22.15 31.12 19.66 29.9 19.09 26.87C19.01 26.42 19.37 26 19.83 26Z" fill="white"/>
</svg>
