<?xml version="1.0" encoding="UTF-8"?>
<svg width="48px" height="48px" viewBox="0 0 48 48" version="1.1" xmlns="http://www.w3.org/2000/svg" xmlns:xlink="http://www.w3.org/1999/xlink">
    <defs>
        <filter color-interpolation-filters="auto" id="filter-1">
            <feColorMatrix in="SourceGraphic" type="matrix" values="0 0 0 0 0.552941 0 0 0 0 0.643137 0 0 0 0 0.980392 0 0 0 1.000000 0"></feColorMatrix>
        </filter>
    </defs>
    <g id="Illustrations/Light/48px/xls" stroke="none" stroke-width="1" fill="none" fill-rule="evenodd">
        <g id="Illustrations/Dark/48px/xls" transform="translate(9.000000, 5.000000)">
            <path d="M28.6202849,34.430808 C28.6202849,36.4736826 26.8402723,36.5995563 26.4810612,36.6039104 L3.51698231,36.6039104 C1.50493035,36.6039104 1.38362811,34.7910126 1.37971514,34.430808 L1.37971514,3.56919199 C1.37971514,1.52433829 3.16285804,1.40044375 3.51698231,1.39608962 L19.0299734,1.39608962 L19.0381906,1.40440204 L19.0381906,7.52827575 C19.0381906,8.75732544 19.7726561,11.0840095 22.5543904,11.0840095 L28.5686336,11.0840095 L28.6202849,11.136259 L28.6202849,34.430808 L28.6202849,34.430808 Z M27.1943966,9.68791992 L22.5547817,9.68791992 C20.543121,9.68791992 20.4214275,7.88491787 20.4186884,7.52827575 L20.4186884,2.80563744 L27.1943966,9.68791992 Z M30,34.430808 L30,10.5599317 L20.4186884,0.827283049 L20.4186884,0.782158519 L20.3729066,0.782158519 L19.6036156,0 L3.51698231,0 C2.30043825,0 0,0.746138061 0,3.56919199 L0,34.4312038 C0,35.6653993 0.735248083,38 3.51698231,38 L26.483409,38 C27.6995617,37.9996042 30,37.2538619 30,34.430808" id="Shape" fill="#1F2A3B" fill-rule="nonzero"></path>
            <g filter="url(#filter-1)" id="xls">
                <g transform="translate(5.000000, 23.000000)">
                    <path d="M7.75,0 C8.164,0 8.5,0.336 8.5,0.75 L8.5,7.5 L12.25,7.5 C12.664,7.5 13,7.836 13,8.25 C13,8.664 12.664,9 12.25,9 L7.75,9 C7.336,9 7,8.664 7,8.25 L7,0.75 C7,0.336 7.336,0 7.75,0 Z M5.6352236,0.106568327 C5.99068632,0.319602622 6.1061742,0.780176765 5.89319654,1.135734 L3.875,4.499 L5.892554,7.86287879 C6.10698387,8.21841669 5.99002212,8.67896578 5.63463835,8.89198849 C5.51467758,8.96549632 5.38122123,9 5.24926438,9 C4.99584726,9 4.74692867,8.87098625 4.60597477,8.63546114 L3,5.958 L1.39366848,8.63694155 C1.25268327,8.87097923 1.00370938,9 0.75023597,9 C0.618249814,9 0.484763815,8.96549445 0.3647764,8.89348285 C0.00931368322,8.68044856 -0.106174204,8.21987441 0.106803458,7.86431718 L2.125,4.499 L0.107446004,1.13466158 C-0.106983868,0.779123686 0.00997788035,0.318574593 0.365361653,0.105551886 C0.716246897,-0.104470502 1.17959536,0.00804149148 1.39402523,0.362079231 L3,3.04 L4.60633152,0.363109625 C4.82230886,0.00755238743 5.28576025,-0.104965726 5.6352236,0.106568327 Z M20.25,0 C20.664,0 21,0.336 21,0.75 C21,1.164 20.664,1.5 20.25,1.5 L17.625,1.5 C17.0055,1.5 16.5,2.004 16.5,2.625 C16.5,3.246 17.0055,3.75 17.625,3.75 L18.375,3.75 C19.8225,3.75 21,4.9275 21,6.375 C21,7.8225 19.8225,9 18.375,9 L15.75,9 C15.336,9 15,8.664 15,8.25 C15,7.836 15.336,7.5 15.75,7.5 L18.375,7.5 C18.9945,7.5 19.5,6.996 19.5,6.375 C19.5,5.754 18.9945,5.25 18.375,5.25 L17.625,5.25 C16.1775,5.25 15,4.0725 15,2.625 C15,1.1775 16.1775,0 17.625,0 L20.25,0 Z" id="Combined-Shape" fill="#879DEF" fill-rule="nonzero"></path>
                </g>
            </g>
        </g>
    </g>
</svg>
