<svg width="24" height="24" viewBox="0 0 24 24" fill="none" xmlns="http://www.w3.org/2000/svg">
<path d="M2.928 15L5.424 9.4H6.704L9.208 15H7.848L5.8 10.056H6.312L4.256 15H2.928ZM4.176 13.8L4.52 12.816H7.4L7.752 13.8H4.176ZM12.4309 15.096C11.9882 15.096 11.5775 15.024 11.1989 14.88C10.8255 14.736 10.5002 14.5333 10.2229 14.272C9.95088 14.0107 9.73754 13.704 9.58288 13.352C9.43354 13 9.35888 12.616 9.35888 12.2C9.35888 11.784 9.43354 11.4 9.58288 11.048C9.73754 10.696 9.95354 10.3893 10.2309 10.128C10.5082 9.86667 10.8335 9.664 11.2069 9.52C11.5802 9.376 11.9855 9.304 12.4229 9.304C12.8655 9.304 13.2709 9.376 13.6389 9.52C14.0122 9.664 14.3349 9.86667 14.6069 10.128C14.8842 10.3893 15.1002 10.696 15.2549 11.048C15.4095 11.3947 15.4869 11.7787 15.4869 12.2C15.4869 12.616 15.4095 13.0027 15.2549 13.36C15.1002 13.712 14.8842 14.0187 14.6069 14.28C14.3349 14.536 14.0122 14.736 13.6389 14.88C13.2709 15.024 12.8682 15.096 12.4309 15.096ZM12.4229 13.992C12.6735 13.992 12.9029 13.9493 13.1109 13.864C13.3242 13.7787 13.5109 13.656 13.6709 13.496C13.8309 13.336 13.9535 13.1467 14.0389 12.928C14.1295 12.7093 14.1749 12.4667 14.1749 12.2C14.1749 11.9333 14.1295 11.6907 14.0389 11.472C13.9535 11.2533 13.8309 11.064 13.6709 10.904C13.5162 10.744 13.3322 10.6213 13.1189 10.536C12.9055 10.4507 12.6735 10.408 12.4229 10.408C12.1722 10.408 11.9402 10.4507 11.7269 10.536C11.5189 10.6213 11.3349 10.744 11.1749 10.904C11.0149 11.064 10.8895 11.2533 10.7989 11.472C10.7135 11.6907 10.6709 11.9333 10.6709 12.2C10.6709 12.4613 10.7135 12.704 10.7989 12.928C10.8895 13.1467 11.0122 13.336 11.1669 13.496C11.3269 13.656 11.5135 13.7787 11.7269 13.864C11.9402 13.9493 12.1722 13.992 12.4229 13.992ZM15.6467 15L18.1428 9.4H19.4228L21.9268 15H20.5668L18.5188 10.056H19.0308L16.9748 15H15.6467ZM16.8947 13.8L17.2388 12.816H20.1188L20.4708 13.8H16.8947Z" fill="#B7BCD9"/>
</svg>
