<svg width="24" height="24" viewBox="0 0 24 24" fill="none" xmlns="http://www.w3.org/2000/svg">
<path d="M2.928 15L5.424 9.4H6.704L9.208 15H7.848L5.8 10.056H6.312L4.256 15H2.928ZM4.176 13.8L4.52 12.816H7.4L7.752 13.8H4.176ZM9.789 15V9.4H12.213C12.7143 9.4 13.1463 9.48267 13.509 9.648C13.8717 9.808 14.1517 10.04 14.349 10.344C14.5463 10.648 14.645 11.0107 14.645 11.432C14.645 11.848 14.5463 12.208 14.349 12.512C14.1517 12.8107 13.8717 13.04 13.509 13.2C13.1463 13.36 12.7143 13.44 12.213 13.44H10.509L11.085 12.872V15H9.789ZM13.349 15L11.949 12.968H13.333L14.749 15H13.349ZM11.085 13.016L10.509 12.408H12.141C12.541 12.408 12.8397 12.3227 13.037 12.152C13.2343 11.976 13.333 11.736 13.333 11.432C13.333 11.1227 13.2343 10.8827 13.037 10.712C12.8397 10.5413 12.541 10.456 12.141 10.456H10.509L11.085 9.84V13.016ZM17.5118 15.096C17.0638 15.096 16.6345 15.0373 16.2238 14.92C15.8131 14.7973 15.4825 14.64 15.2318 14.448L15.6718 13.472C15.9118 13.6427 16.1945 13.784 16.5198 13.896C16.8505 14.0027 17.1838 14.056 17.5198 14.056C17.7758 14.056 17.9811 14.032 18.1358 13.984C18.2958 13.9307 18.4131 13.8587 18.4878 13.768C18.5625 13.6773 18.5998 13.5733 18.5998 13.456C18.5998 13.3067 18.5411 13.1893 18.4238 13.104C18.3065 13.0133 18.1518 12.9413 17.9598 12.888C17.7678 12.8293 17.5545 12.776 17.3198 12.728C17.0905 12.6747 16.8585 12.6107 16.6238 12.536C16.3945 12.4613 16.1838 12.3653 15.9918 12.248C15.7998 12.1307 15.6425 11.976 15.5198 11.784C15.4025 11.592 15.3438 11.3467 15.3438 11.048C15.3438 10.728 15.4291 10.4373 15.5998 10.176C15.7758 9.90933 16.0371 9.69867 16.3838 9.544C16.7358 9.384 17.1758 9.304 17.7038 9.304C18.0558 9.304 18.4025 9.34667 18.7438 9.432C19.0851 9.512 19.3865 9.63467 19.6478 9.8L19.2478 10.784C18.9865 10.6347 18.7251 10.5253 18.4638 10.456C18.2025 10.3813 17.9465 10.344 17.6958 10.344C17.4451 10.344 17.2398 10.3733 17.0798 10.432C16.9198 10.4907 16.8051 10.568 16.7358 10.664C16.6665 10.7547 16.6318 10.8613 16.6318 10.984C16.6318 11.128 16.6905 11.2453 16.8078 11.336C16.9251 11.4213 17.0798 11.4907 17.2718 11.544C17.4638 11.5973 17.6745 11.6507 17.9038 11.704C18.1385 11.7573 18.3705 11.8187 18.5998 11.888C18.8345 11.9573 19.0478 12.0507 19.2398 12.168C19.4318 12.2853 19.5865 12.44 19.7038 12.632C19.8265 12.824 19.8878 13.0667 19.8878 13.36C19.8878 13.6747 19.7998 13.9627 19.6238 14.224C19.4478 14.4853 19.1838 14.696 18.8318 14.856C18.4851 15.016 18.0451 15.096 17.5118 15.096Z" fill="#B7BCD9"/>
</svg>
