<svg width="24" height="24" viewBox="0 0 24 24" fill="none" xmlns="http://www.w3.org/2000/svg">
<path d="M2.928 15L5.424 9.4H6.704L9.208 15H7.848L5.8 10.056H6.312L4.256 15H2.928ZM4.176 13.8L4.52 12.816H7.4L7.752 13.8H4.176ZM12.1598 15.096C11.3651 15.096 10.7438 14.8747 10.2958 14.432C9.84781 13.9893 9.62381 13.3573 9.62381 12.536V9.4H10.9198V12.488C10.9198 13.0213 11.0291 13.4053 11.2478 13.64C11.4665 13.8747 11.7731 13.992 12.1678 13.992C12.5625 13.992 12.8691 13.8747 13.0878 13.64C13.3065 13.4053 13.4158 13.0213 13.4158 12.488V9.4H14.6958V12.536C14.6958 13.3573 14.4718 13.9893 14.0238 14.432C13.5758 14.8747 12.9545 15.096 12.1598 15.096ZM15.9765 15V9.4H18.5205C19.1285 9.4 19.6645 9.51733 20.1285 9.752C20.5925 9.98133 20.9552 10.304 21.2165 10.72C21.4778 11.136 21.6085 11.6293 21.6085 12.2C21.6085 12.7653 21.4778 13.2587 21.2165 13.68C20.9552 14.096 20.5925 14.4213 20.1285 14.656C19.6645 14.8853 19.1285 15 18.5205 15H15.9765ZM17.2725 13.936H18.4565C18.8298 13.936 19.1525 13.8667 19.4245 13.728C19.7018 13.584 19.9152 13.3813 20.0645 13.12C20.2192 12.8587 20.2965 12.552 20.2965 12.2C20.2965 11.8427 20.2192 11.536 20.0645 11.28C19.9152 11.0187 19.7018 10.8187 19.4245 10.68C19.1525 10.536 18.8298 10.464 18.4565 10.464H17.2725V13.936Z" fill="#B7BCD9"/>
</svg>
