<svg width="24" height="24" viewBox="0 0 24 24" fill="none" xmlns="http://www.w3.org/2000/svg">
<path d="M3.664 15V9.4H6.4C7.104 9.4 7.632 9.53333 7.984 9.8C8.34133 10.0667 8.52 10.4187 8.52 10.856C8.52 11.1493 8.448 11.4053 8.304 11.624C8.16 11.8373 7.96267 12.0027 7.712 12.12C7.46133 12.2373 7.17333 12.296 6.848 12.296L7 11.968C7.352 11.968 7.664 12.0267 7.936 12.144C8.208 12.256 8.41867 12.424 8.568 12.648C8.72267 12.872 8.8 13.1467 8.8 13.472C8.8 13.952 8.61067 14.328 8.232 14.6C7.85333 14.8667 7.296 15 6.56 15H3.664ZM4.952 14.024H6.464C6.8 14.024 7.05333 13.9707 7.224 13.864C7.4 13.752 7.488 13.576 7.488 13.336C7.488 13.1013 7.4 12.928 7.224 12.816C7.05333 12.6987 6.8 12.64 6.464 12.64H4.856V11.696H6.24C6.55467 11.696 6.79467 11.6427 6.96 11.536C7.13067 11.424 7.216 11.256 7.216 11.032C7.216 10.8133 7.13067 10.6507 6.96 10.544C6.79467 10.432 6.55467 10.376 6.24 10.376H4.952V14.024ZM9.78119 15V9.4H12.5172C13.2212 9.4 13.7492 9.53333 14.1012 9.8C14.4585 10.0667 14.6372 10.4187 14.6372 10.856C14.6372 11.1493 14.5652 11.4053 14.4212 11.624C14.2772 11.8373 14.0799 12.0027 13.8292 12.12C13.5785 12.2373 13.2905 12.296 12.9652 12.296L13.1172 11.968C13.4692 11.968 13.7812 12.0267 14.0532 12.144C14.3252 12.256 14.5359 12.424 14.6852 12.648C14.8399 12.872 14.9172 13.1467 14.9172 13.472C14.9172 13.952 14.7279 14.328 14.3492 14.6C13.9705 14.8667 13.4132 15 12.6772 15H9.78119ZM11.0692 14.024H12.5812C12.9172 14.024 13.1705 13.9707 13.3412 13.864C13.5172 13.752 13.6052 13.576 13.6052 13.336C13.6052 13.1013 13.5172 12.928 13.3412 12.816C13.1705 12.6987 12.9172 12.64 12.5812 12.64H10.9732V11.696H12.3572C12.6719 11.696 12.9119 11.6427 13.0772 11.536C13.2479 11.424 13.3332 11.256 13.3332 11.032C13.3332 10.8133 13.2479 10.6507 13.0772 10.544C12.9119 10.432 12.6719 10.376 12.3572 10.376H11.0692V14.024ZM15.8984 15V9.4H18.4424C19.0504 9.4 19.5864 9.51733 20.0504 9.752C20.5144 9.98133 20.877 10.304 21.1384 10.72C21.3997 11.136 21.5304 11.6293 21.5304 12.2C21.5304 12.7653 21.3997 13.2587 21.1384 13.68C20.877 14.096 20.5144 14.4213 20.0504 14.656C19.5864 14.8853 19.0504 15 18.4424 15H15.8984ZM17.1944 13.936H18.3784C18.7517 13.936 19.0744 13.8667 19.3464 13.728C19.6237 13.584 19.837 13.3813 19.9864 13.12C20.141 12.8587 20.2184 12.552 20.2184 12.2C20.2184 11.8427 20.141 11.536 19.9864 11.28C19.837 11.0187 19.6237 10.8187 19.3464 10.68C19.0744 10.536 18.7517 10.464 18.3784 10.464H17.1944V13.936Z" fill="#B7BCD9"/>
</svg>
