<svg width="24" height="24" viewBox="0 0 24 24" fill="none" xmlns="http://www.w3.org/2000/svg">
<path d="M3.664 15V9.4H6.4C7.104 9.4 7.632 9.53333 7.984 9.8C8.34133 10.0667 8.52 10.4187 8.52 10.856C8.52 11.1493 8.448 11.4053 8.304 11.624C8.16 11.8373 7.96267 12.0027 7.712 12.12C7.46133 12.2373 7.17333 12.296 6.848 12.296L7 11.968C7.352 11.968 7.664 12.0267 7.936 12.144C8.208 12.256 8.41867 12.424 8.568 12.648C8.72267 12.872 8.8 13.1467 8.8 13.472C8.8 13.952 8.61067 14.328 8.232 14.6C7.85333 14.8667 7.296 15 6.56 15H3.664ZM4.952 14.024H6.464C6.8 14.024 7.05333 13.9707 7.224 13.864C7.4 13.752 7.488 13.576 7.488 13.336C7.488 13.1013 7.4 12.928 7.224 12.816C7.05333 12.6987 6.8 12.64 6.464 12.64H4.856V11.696H6.24C6.55467 11.696 6.79467 11.6427 6.96 11.536C7.13067 11.424 7.216 11.256 7.216 11.032C7.216 10.8133 7.13067 10.6507 6.96 10.544C6.79467 10.432 6.55467 10.376 6.24 10.376H4.952V14.024ZM12.5012 15.096C12.0585 15.096 11.6479 15.024 11.2692 14.88C10.8959 14.736 10.5705 14.5333 10.2932 14.272C10.0212 14.0107 9.80785 13.704 9.65319 13.352C9.50385 13 9.42919 12.616 9.42919 12.2C9.42919 11.784 9.50385 11.4 9.65319 11.048C9.80785 10.696 10.0239 10.3893 10.3012 10.128C10.5785 9.86667 10.9039 9.664 11.2772 9.52C11.6505 9.376 12.0559 9.304 12.4932 9.304C12.9359 9.304 13.3412 9.376 13.7092 9.52C14.0825 9.664 14.4052 9.86667 14.6772 10.128C14.9545 10.3893 15.1705 10.696 15.3252 11.048C15.4799 11.3947 15.5572 11.7787 15.5572 12.2C15.5572 12.616 15.4799 13.0027 15.3252 13.36C15.1705 13.712 14.9545 14.0187 14.6772 14.28C14.4052 14.536 14.0825 14.736 13.7092 14.88C13.3412 15.024 12.9385 15.096 12.5012 15.096ZM12.4932 13.992C12.7439 13.992 12.9732 13.9493 13.1812 13.864C13.3945 13.7787 13.5812 13.656 13.7412 13.496C13.9012 13.336 14.0239 13.1467 14.1092 12.928C14.1999 12.7093 14.2452 12.4667 14.2452 12.2C14.2452 11.9333 14.1999 11.6907 14.1092 11.472C14.0239 11.2533 13.9012 11.064 13.7412 10.904C13.5865 10.744 13.4025 10.6213 13.1892 10.536C12.9759 10.4507 12.7439 10.408 12.4932 10.408C12.2425 10.408 12.0105 10.4507 11.7972 10.536C11.5892 10.6213 11.4052 10.744 11.2452 10.904C11.0852 11.064 10.9599 11.2533 10.8692 11.472C10.7839 11.6907 10.7412 11.9333 10.7412 12.2C10.7412 12.4613 10.7839 12.704 10.8692 12.928C10.9599 13.1467 11.0825 13.336 11.2372 13.496C11.3972 13.656 11.5839 13.7787 11.7972 13.864C12.0105 13.9493 12.2425 13.992 12.4932 13.992ZM16.5312 15V9.4H19.2672C19.9712 9.4 20.4992 9.53333 20.8512 9.8C21.2085 10.0667 21.3872 10.4187 21.3872 10.856C21.3872 11.1493 21.3152 11.4053 21.1712 11.624C21.0272 11.8373 20.8299 12.0027 20.5792 12.12C20.3285 12.2373 20.0405 12.296 19.7152 12.296L19.8672 11.968C20.2192 11.968 20.5312 12.0267 20.8032 12.144C21.0752 12.256 21.2859 12.424 21.4352 12.648C21.5899 12.872 21.6672 13.1467 21.6672 13.472C21.6672 13.952 21.4779 14.328 21.0992 14.6C20.7205 14.8667 20.1632 15 19.4272 15H16.5312ZM17.8192 14.024H19.3312C19.6672 14.024 19.9205 13.9707 20.0912 13.864C20.2672 13.752 20.3552 13.576 20.3552 13.336C20.3552 13.1013 20.2672 12.928 20.0912 12.816C19.9205 12.6987 19.6672 12.64 19.3312 12.64H17.7232V11.696H19.1072C19.4219 11.696 19.6619 11.6427 19.8272 11.536C19.9979 11.424 20.0832 11.256 20.0832 11.032C20.0832 10.8133 19.9979 10.6507 19.8272 10.544C19.6619 10.432 19.4219 10.376 19.1072 10.376H17.8192V14.024Z" fill="#B7BCD9"/>
</svg>
