<svg width="24" height="24" viewBox="0 0 24 24" fill="none" xmlns="http://www.w3.org/2000/svg">
<path d="M4.664 15V9.4H7.4C8.104 9.4 8.632 9.53333 8.984 9.8C9.34133 10.0667 9.52 10.4187 9.52 10.856C9.52 11.1493 9.448 11.4053 9.304 11.624C9.16 11.8373 8.96267 12.0027 8.712 12.12C8.46133 12.2373 8.17333 12.296 7.848 12.296L8 11.968C8.352 11.968 8.664 12.0267 8.936 12.144C9.208 12.256 9.41867 12.424 9.568 12.648C9.72267 12.872 9.8 13.1467 9.8 13.472C9.8 13.952 9.61067 14.328 9.232 14.6C8.85333 14.8667 8.296 15 7.56 15H4.664ZM5.952 14.024H7.464C7.8 14.024 8.05333 13.9707 8.224 13.864C8.4 13.752 8.488 13.576 8.488 13.336C8.488 13.1013 8.4 12.928 8.224 12.816C8.05333 12.6987 7.8 12.64 7.464 12.64H5.856V11.696H7.24C7.55467 11.696 7.79467 11.6427 7.96 11.536C8.13067 11.424 8.216 11.256 8.216 11.032C8.216 10.8133 8.13067 10.6507 7.96 10.544C7.79467 10.432 7.55467 10.376 7.24 10.376H5.952V14.024ZM10.7812 15V9.4H13.2052C13.7065 9.4 14.1385 9.48267 14.5012 9.648C14.8639 9.808 15.1439 10.04 15.3412 10.344C15.5385 10.648 15.6372 11.0107 15.6372 11.432C15.6372 11.848 15.5385 12.208 15.3412 12.512C15.1439 12.8107 14.8639 13.04 14.5012 13.2C14.1385 13.36 13.7065 13.44 13.2052 13.44H11.5012L12.0772 12.872V15H10.7812ZM14.3412 15L12.9412 12.968H14.3252L15.7412 15H14.3412ZM12.0772 13.016L11.5012 12.408H13.1332C13.5332 12.408 13.8319 12.3227 14.0292 12.152C14.2265 11.976 14.3252 11.736 14.3252 11.432C14.3252 11.1227 14.2265 10.8827 14.0292 10.712C13.8319 10.5413 13.5332 10.456 13.1332 10.456H11.5012L12.0772 9.84V13.016ZM16.664 15V9.4H17.96V13.944H20.768V15H16.664Z" fill="#B7BCD9"/>
</svg>
