<svg width="24" height="24" viewBox="0 0 24 24" fill="none" xmlns="http://www.w3.org/2000/svg">
<path d="M6.344 15.096C5.912 15.096 5.50933 15.0267 5.136 14.888C4.768 14.744 4.448 14.5413 4.176 14.28C3.904 14.0187 3.69067 13.712 3.536 13.36C3.38667 13.008 3.312 12.6213 3.312 12.2C3.312 11.7787 3.38667 11.392 3.536 11.04C3.69067 10.688 3.904 10.3813 4.176 10.12C4.45333 9.85867 4.776 9.65867 5.144 9.52C5.512 9.376 5.91467 9.304 6.352 9.304C6.83733 9.304 7.27467 9.38933 7.664 9.56C8.05867 9.72533 8.38933 9.97067 8.656 10.296L7.824 11.064C7.632 10.8453 7.41867 10.6827 7.184 10.576C6.94933 10.464 6.69333 10.408 6.416 10.408C6.15467 10.408 5.91467 10.4507 5.696 10.536C5.47733 10.6213 5.288 10.744 5.128 10.904C4.968 11.064 4.84267 11.2533 4.752 11.472C4.66667 11.6907 4.624 11.9333 4.624 12.2C4.624 12.4667 4.66667 12.7093 4.752 12.928C4.84267 13.1467 4.968 13.336 5.128 13.496C5.288 13.656 5.47733 13.7787 5.696 13.864C5.91467 13.9493 6.15467 13.992 6.416 13.992C6.69333 13.992 6.94933 13.9387 7.184 13.832C7.41867 13.72 7.632 13.552 7.824 13.328L8.656 14.096C8.38933 14.4213 8.05867 14.6693 7.664 14.84C7.27467 15.0107 6.83467 15.096 6.344 15.096ZM8.69362 15L11.1896 9.4H12.4696L14.9736 15H13.6136L11.5656 10.056H12.0776L10.0216 15H8.69362ZM9.94162 13.8L10.2856 12.816H13.1656L13.5176 13.8H9.94162ZM15.5546 15V9.4H18.0986C18.7066 9.4 19.2426 9.51733 19.7066 9.752C20.1706 9.98133 20.5333 10.304 20.7946 10.72C21.056 11.136 21.1866 11.6293 21.1866 12.2C21.1866 12.7653 21.056 13.2587 20.7946 13.68C20.5333 14.096 20.1706 14.4213 19.7066 14.656C19.2426 14.8853 18.7066 15 18.0986 15H15.5546ZM16.8506 13.936H18.0346C18.408 13.936 18.7306 13.8667 19.0026 13.728C19.28 13.584 19.4933 13.3813 19.6426 13.12C19.7973 12.8587 19.8746 12.552 19.8746 12.2C19.8746 11.8427 19.7973 11.536 19.6426 11.28C19.4933 11.0187 19.28 10.8187 19.0026 10.68C18.7306 10.536 18.408 10.464 18.0346 10.464H16.8506V13.936Z" fill="#B7BCD9"/>
</svg>
