<svg xmlns="http://www.w3.org/2000/svg" width="24" height="24" viewBox="0 0 24 24">
  <path fill="#B7BCD9" fill-rule="evenodd" d="M6.13439008,15 C7.14334941,15 7.97863542,14.6353591 8.52446589,13.9640884 L7.6643694,13.1685083 C7.27567195,13.6243094 6.7877326,13.8563536 6.2088215,13.8563536 C5.12543074,13.8563536 4.356306,13.0939227 4.356306,12 C4.356306,10.9060773 5.12543074,10.1436464 6.2088215,10.1436464 C6.7877326,10.1436464 7.27567195,10.3756906 7.6643694,10.8232044 L8.52446589,10.0276243 C7.97863542,9.36464088 7.14334941,9 6.14266023,9 C4.33976568,9 3,10.2513812 3,12 C3,13.7486188 4.33976568,15 6.13439008,15 Z M11.0241213,14.9005525 L11.0241213,12.5220994 L13.6540317,12.5220994 L13.6540317,14.9005525 L14.9937974,14.9005525 L14.9937974,9.09944751 L13.6540317,9.09944751 L13.6540317,11.3867403 L11.0241213,11.3867403 L11.0241213,9.09944751 L9.68435562,9.09944751 L9.68435562,14.9005525 L11.0241213,14.9005525 Z M17.9648518,14.9005525 L17.9648518,12.7872928 L20.6443832,12.7872928 L20.6443832,11.7099448 L17.9648518,11.7099448 L17.9648518,10.1767956 L21,10.1767956 L21,9.09944751 L16.6250861,9.09944751 L16.6250861,14.9005525 L17.9648518,14.9005525 Z"/>
</svg>
