<svg width="24" height="24" viewBox="0 0 24 24" fill="none" xmlns="http://www.w3.org/2000/svg">
<path d="M7.344 15.096C6.912 15.096 6.50933 15.0267 6.136 14.888C5.768 14.744 5.448 14.5413 5.176 14.28C4.904 14.0187 4.69067 13.712 4.536 13.36C4.38667 13.008 4.312 12.6213 4.312 12.2C4.312 11.7787 4.38667 11.392 4.536 11.04C4.69067 10.688 4.904 10.3813 5.176 10.12C5.45333 9.85867 5.776 9.65867 6.144 9.52C6.512 9.376 6.91467 9.304 7.352 9.304C7.83733 9.304 8.27467 9.38933 8.664 9.56C9.05867 9.72533 9.38933 9.97067 9.656 10.296L8.824 11.064C8.632 10.8453 8.41867 10.6827 8.184 10.576C7.94933 10.464 7.69333 10.408 7.416 10.408C7.15467 10.408 6.91467 10.4507 6.696 10.536C6.47733 10.6213 6.288 10.744 6.128 10.904C5.968 11.064 5.84267 11.2533 5.752 11.472C5.66667 11.6907 5.624 11.9333 5.624 12.2C5.624 12.4667 5.66667 12.7093 5.752 12.928C5.84267 13.1467 5.968 13.336 6.128 13.496C6.288 13.656 6.47733 13.7787 6.696 13.864C6.91467 13.9493 7.15467 13.992 7.416 13.992C7.69333 13.992 7.94933 13.9387 8.184 13.832C8.41867 13.72 8.632 13.552 8.824 13.328L9.656 14.096C9.38933 14.4213 9.05867 14.6693 8.664 14.84C8.27467 15.0107 7.83467 15.096 7.344 15.096ZM10.5312 15V9.4H11.8272V13.944H14.6352V15H10.5312ZM15.3593 15V9.4H17.7833C18.2846 9.4 18.7166 9.48267 19.0793 9.648C19.442 9.808 19.722 10.04 19.9193 10.344C20.1166 10.648 20.2153 11.0107 20.2153 11.432C20.2153 11.848 20.1166 12.208 19.9193 12.512C19.722 12.816 19.442 13.0507 19.0793 13.216C18.7166 13.376 18.2846 13.456 17.7833 13.456H16.0793L16.6553 12.872V15H15.3593ZM16.6553 13.016L16.0793 12.4H17.7113C18.1113 12.4 18.41 12.3147 18.6073 12.144C18.8046 11.9733 18.9033 11.736 18.9033 11.432C18.9033 11.1227 18.8046 10.8827 18.6073 10.712C18.41 10.5413 18.1113 10.456 17.7113 10.456H16.0793L16.6553 9.84V13.016Z" fill="#B7BCD9"/>
</svg>
