<svg width="24" height="24" viewBox="0 0 24 24" fill="none" xmlns="http://www.w3.org/2000/svg">
<path d="M6.344 15.096C5.912 15.096 5.50933 15.0267 5.136 14.888C4.768 14.744 4.448 14.5413 4.176 14.28C3.904 14.0187 3.69067 13.712 3.536 13.36C3.38667 13.008 3.312 12.6213 3.312 12.2C3.312 11.7787 3.38667 11.392 3.536 11.04C3.69067 10.688 3.904 10.3813 4.176 10.12C4.45333 9.85867 4.776 9.65867 5.144 9.52C5.512 9.376 5.91467 9.304 6.352 9.304C6.83733 9.304 7.27467 9.38933 7.664 9.56C8.05867 9.72533 8.38933 9.97067 8.656 10.296L7.824 11.064C7.632 10.8453 7.41867 10.6827 7.184 10.576C6.94933 10.464 6.69333 10.408 6.416 10.408C6.15467 10.408 5.91467 10.4507 5.696 10.536C5.47733 10.6213 5.288 10.744 5.128 10.904C4.968 11.064 4.84267 11.2533 4.752 11.472C4.66667 11.6907 4.624 11.9333 4.624 12.2C4.624 12.4667 4.66667 12.7093 4.752 12.928C4.84267 13.1467 4.968 13.336 5.128 13.496C5.288 13.656 5.47733 13.7787 5.696 13.864C5.91467 13.9493 6.15467 13.992 6.416 13.992C6.69333 13.992 6.94933 13.9387 7.184 13.832C7.41867 13.72 7.632 13.552 7.824 13.328L8.656 14.096C8.38933 14.4213 8.05867 14.6693 7.664 14.84C7.27467 15.0107 6.83467 15.096 6.344 15.096ZM12.134 15.096C11.6913 15.096 11.2807 15.024 10.902 14.88C10.5287 14.736 10.2033 14.5333 9.926 14.272C9.654 14.0107 9.44067 13.704 9.286 13.352C9.13667 13 9.062 12.616 9.062 12.2C9.062 11.784 9.13667 11.4 9.286 11.048C9.44067 10.696 9.65667 10.3893 9.934 10.128C10.2113 9.86667 10.5367 9.664 10.91 9.52C11.2833 9.376 11.6887 9.304 12.126 9.304C12.5687 9.304 12.974 9.376 13.342 9.52C13.7153 9.664 14.038 9.86667 14.31 10.128C14.5873 10.3893 14.8033 10.696 14.958 11.048C15.1127 11.3947 15.19 11.7787 15.19 12.2C15.19 12.616 15.1127 13.0027 14.958 13.36C14.8033 13.712 14.5873 14.0187 14.31 14.28C14.038 14.536 13.7153 14.736 13.342 14.88C12.974 15.024 12.5713 15.096 12.134 15.096ZM12.126 13.992C12.3767 13.992 12.606 13.9493 12.814 13.864C13.0273 13.7787 13.214 13.656 13.374 13.496C13.534 13.336 13.6567 13.1467 13.742 12.928C13.8327 12.7093 13.878 12.4667 13.878 12.2C13.878 11.9333 13.8327 11.6907 13.742 11.472C13.6567 11.2533 13.534 11.064 13.374 10.904C13.2193 10.744 13.0353 10.6213 12.822 10.536C12.6087 10.4507 12.3767 10.408 12.126 10.408C11.8753 10.408 11.6433 10.4507 11.43 10.536C11.222 10.6213 11.038 10.744 10.878 10.904C10.718 11.064 10.5927 11.2533 10.502 11.472C10.4167 11.6907 10.374 11.9333 10.374 12.2C10.374 12.4613 10.4167 12.704 10.502 12.928C10.5927 13.1467 10.7153 13.336 10.87 13.496C11.03 13.656 11.2167 13.7787 11.43 13.864C11.6433 13.9493 11.8753 13.992 12.126 13.992ZM16.164 15V9.4H18.588C19.0893 9.4 19.5213 9.48267 19.884 9.648C20.2467 9.808 20.5267 10.04 20.724 10.344C20.9213 10.648 21.02 11.0107 21.02 11.432C21.02 11.848 20.9213 12.208 20.724 12.512C20.5267 12.816 20.2467 13.0507 19.884 13.216C19.5213 13.376 19.0893 13.456 18.588 13.456H16.884L17.46 12.872V15H16.164ZM17.46 13.016L16.884 12.4H18.516C18.916 12.4 19.2147 12.3147 19.412 12.144C19.6093 11.9733 19.708 11.736 19.708 11.432C19.708 11.1227 19.6093 10.8827 19.412 10.712C19.2147 10.5413 18.916 10.456 18.516 10.456H16.884L17.46 9.84V13.016Z" fill="#B7BCD9"/>
</svg>
