<svg width="24" height="24" viewBox="0 0 24 24" fill="none" xmlns="http://www.w3.org/2000/svg">
<g clip-path="url(#clip0_1633_150)">
<path d="M10.804 21.52L15.823 1.78H17.104L12.085 21.52H10.804ZM7.633 21.52L12.652 1.78H13.933L8.914 21.52H7.633ZM12.778 19.168C11.658 19.168 10.622 18.986 9.67 18.622C8.732 18.244 7.913 17.719 7.213 17.047C6.527 16.361 5.988 15.563 5.596 14.653C5.204 13.743 5.008 12.742 5.008 11.65C5.008 10.558 5.204 9.557 5.596 8.647C5.988 7.737 6.527 6.946 7.213 6.274C7.913 5.588 8.732 5.063 9.67 4.699C10.622 4.321 11.658 4.132 12.778 4.132C13.926 4.132 14.976 4.328 15.928 4.72C16.894 5.098 17.713 5.665 18.385 6.421L17.02 7.744C16.46 7.156 15.83 6.722 15.13 6.442C14.43 6.148 13.681 6.001 12.883 6.001C12.057 6.001 11.287 6.141 10.573 6.421C9.873 6.701 9.264 7.093 8.746 7.597C8.228 8.101 7.822 8.703 7.528 9.403C7.248 10.089 7.108 10.838 7.108 11.65C7.108 12.462 7.248 13.218 7.528 13.918C7.822 14.604 8.228 15.199 8.746 15.703C9.264 16.207 9.873 16.599 10.573 16.879C11.287 17.159 12.057 17.299 12.883 17.299C13.681 17.299 14.43 17.159 15.13 16.879C15.83 16.585 16.46 16.137 17.02 15.535L18.385 16.858C17.713 17.614 16.894 18.188 15.928 18.58C14.976 18.972 13.926 19.168 12.778 19.168Z" fill="#B7BCD9"/>
</g>
<defs>
<clipPath id="clip0_1633_150">
<rect width="24" height="24" fill="white"/>
</clipPath>
</defs>
</svg>
