<svg width="24" height="24" viewBox="0 0 24 24" fill="none" xmlns="http://www.w3.org/2000/svg">
<path d="M6.344 15.096C5.912 15.096 5.50933 15.0267 5.136 14.888C4.768 14.744 4.448 14.5413 4.176 14.28C3.904 14.0187 3.69067 13.712 3.536 13.36C3.38667 13.008 3.312 12.6213 3.312 12.2C3.312 11.7787 3.38667 11.392 3.536 11.04C3.69067 10.688 3.904 10.3813 4.176 10.12C4.45333 9.85867 4.776 9.65867 5.144 9.52C5.512 9.376 5.91467 9.304 6.352 9.304C6.83733 9.304 7.27467 9.38933 7.664 9.56C8.05867 9.72533 8.38933 9.97067 8.656 10.296L7.824 11.064C7.632 10.8453 7.41867 10.6827 7.184 10.576C6.94933 10.464 6.69333 10.408 6.416 10.408C6.15467 10.408 5.91467 10.4507 5.696 10.536C5.47733 10.6213 5.288 10.744 5.128 10.904C4.968 11.064 4.84267 11.2533 4.752 11.472C4.66667 11.6907 4.624 11.9333 4.624 12.2C4.624 12.4667 4.66667 12.7093 4.752 12.928C4.84267 13.1467 4.968 13.336 5.128 13.496C5.288 13.656 5.47733 13.7787 5.696 13.864C5.91467 13.9493 6.15467 13.992 6.416 13.992C6.69333 13.992 6.94933 13.9387 7.184 13.832C7.41867 13.72 7.632 13.552 7.824 13.328L8.656 14.096C8.38933 14.4213 8.05867 14.6693 7.664 14.84C7.27467 15.0107 6.83467 15.096 6.344 15.096ZM11.9879 15.096C11.1933 15.096 10.5719 14.8747 10.1239 14.432C9.67594 13.9893 9.45194 13.3573 9.45194 12.536V9.4H10.7479V12.488C10.7479 13.0213 10.8573 13.4053 11.0759 13.64C11.2946 13.8747 11.6013 13.992 11.9959 13.992C12.3906 13.992 12.6973 13.8747 12.9159 13.64C13.1346 13.4053 13.2439 13.0213 13.2439 12.488V9.4H14.5239V12.536C14.5239 13.3573 14.2999 13.9893 13.8519 14.432C13.4039 14.8747 12.7826 15.096 11.9879 15.096ZM18.4846 15.096C18.0526 15.096 17.65 15.0267 17.2766 14.888C16.9086 14.744 16.5886 14.5413 16.3166 14.28C16.0446 14.0187 15.8313 13.712 15.6766 13.36C15.5273 13.008 15.4526 12.6213 15.4526 12.2C15.4526 11.7787 15.5273 11.392 15.6766 11.04C15.8313 10.688 16.0446 10.3813 16.3166 10.12C16.594 9.85867 16.9166 9.65867 17.2846 9.52C17.6526 9.376 18.0553 9.304 18.4926 9.304C18.978 9.304 19.4153 9.38933 19.8046 9.56C20.1993 9.72533 20.53 9.97067 20.7966 10.296L19.9646 11.064C19.7726 10.8453 19.5593 10.6827 19.3246 10.576C19.09 10.464 18.834 10.408 18.5566 10.408C18.2953 10.408 18.0553 10.4507 17.8366 10.536C17.618 10.6213 17.4286 10.744 17.2686 10.904C17.1086 11.064 16.9833 11.2533 16.8926 11.472C16.8073 11.6907 16.7646 11.9333 16.7646 12.2C16.7646 12.4667 16.8073 12.7093 16.8926 12.928C16.9833 13.1467 17.1086 13.336 17.2686 13.496C17.4286 13.656 17.618 13.7787 17.8366 13.864C18.0553 13.9493 18.2953 13.992 18.5566 13.992C18.834 13.992 19.09 13.9387 19.3246 13.832C19.5593 13.72 19.7726 13.552 19.9646 13.328L20.7966 14.096C20.53 14.4213 20.1993 14.6693 19.8046 14.84C19.4153 15.0107 18.9753 15.096 18.4846 15.096Z" fill="#B7BCD9"/>
</svg>
