<svg width="24" height="24" viewBox="0 0 24 24" fill="none" xmlns="http://www.w3.org/2000/svg">
<path d="M6.344 15.096C5.912 15.096 5.50933 15.0267 5.136 14.888C4.768 14.744 4.448 14.5413 4.176 14.28C3.904 14.0187 3.69067 13.712 3.536 13.36C3.38667 13.008 3.312 12.6213 3.312 12.2C3.312 11.7787 3.38667 11.392 3.536 11.04C3.69067 10.688 3.904 10.3813 4.176 10.12C4.45333 9.85867 4.776 9.65867 5.144 9.52C5.512 9.376 5.91467 9.304 6.352 9.304C6.83733 9.304 7.27467 9.38933 7.664 9.56C8.05867 9.72533 8.38933 9.97067 8.656 10.296L7.824 11.064C7.632 10.8453 7.41867 10.6827 7.184 10.576C6.94933 10.464 6.69333 10.408 6.416 10.408C6.15467 10.408 5.91467 10.4507 5.696 10.536C5.47733 10.6213 5.288 10.744 5.128 10.904C4.968 11.064 4.84267 11.2533 4.752 11.472C4.66667 11.6907 4.624 11.9333 4.624 12.2C4.624 12.4667 4.66667 12.7093 4.752 12.928C4.84267 13.1467 4.968 13.336 5.128 13.496C5.288 13.656 5.47733 13.7787 5.696 13.864C5.91467 13.9493 6.15467 13.992 6.416 13.992C6.69333 13.992 6.94933 13.9387 7.184 13.832C7.41867 13.72 7.632 13.552 7.824 13.328L8.656 14.096C8.38933 14.4213 8.05867 14.6693 7.664 14.84C7.27467 15.0107 6.83467 15.096 6.344 15.096ZM11.9879 15.096C11.1933 15.096 10.5719 14.8747 10.1239 14.432C9.67594 13.9893 9.45194 13.3573 9.45194 12.536V9.4H10.7479V12.488C10.7479 13.0213 10.8573 13.4053 11.0759 13.64C11.2946 13.8747 11.6013 13.992 11.9959 13.992C12.3906 13.992 12.6973 13.8747 12.9159 13.64C13.1346 13.4053 13.2439 13.0213 13.2439 12.488V9.4H14.5239V12.536C14.5239 13.3573 14.2999 13.9893 13.8519 14.432C13.4039 14.8747 12.7826 15.096 11.9879 15.096ZM15.8046 15V9.4H18.2286C18.73 9.4 19.162 9.48267 19.5246 9.648C19.8873 9.808 20.1673 10.04 20.3646 10.344C20.562 10.648 20.6606 11.0107 20.6606 11.432C20.6606 11.848 20.562 12.208 20.3646 12.512C20.1673 12.816 19.8873 13.0507 19.5246 13.216C19.162 13.376 18.73 13.456 18.2286 13.456H16.5246L17.1006 12.872V15H15.8046ZM17.1006 13.016L16.5246 12.4H18.1566C18.5566 12.4 18.8553 12.3147 19.0526 12.144C19.25 11.9733 19.3486 11.736 19.3486 11.432C19.3486 11.1227 19.25 10.8827 19.0526 10.712C18.8553 10.5413 18.5566 10.456 18.1566 10.456H16.5246L17.1006 9.84V13.016Z" fill="#B7BCD9"/>
</svg>
