<svg width="24" height="24" viewBox="0 0 24 24" fill="none" xmlns="http://www.w3.org/2000/svg">
<path d="M6.344 15.096C5.912 15.096 5.50933 15.0267 5.136 14.888C4.768 14.744 4.448 14.5413 4.176 14.28C3.904 14.0187 3.69067 13.712 3.536 13.36C3.38667 13.008 3.312 12.6213 3.312 12.2C3.312 11.7787 3.38667 11.392 3.536 11.04C3.69067 10.688 3.904 10.3813 4.176 10.12C4.45333 9.85867 4.776 9.65867 5.144 9.52C5.512 9.376 5.91467 9.304 6.352 9.304C6.83733 9.304 7.27467 9.38933 7.664 9.56C8.05867 9.72533 8.38933 9.97067 8.656 10.296L7.824 11.064C7.632 10.8453 7.41867 10.6827 7.184 10.576C6.94933 10.464 6.69333 10.408 6.416 10.408C6.15467 10.408 5.91467 10.4507 5.696 10.536C5.47733 10.6213 5.288 10.744 5.128 10.904C4.968 11.064 4.84267 11.2533 4.752 11.472C4.66667 11.6907 4.624 11.9333 4.624 12.2C4.624 12.4667 4.66667 12.7093 4.752 12.928C4.84267 13.1467 4.968 13.336 5.128 13.496C5.288 13.656 5.47733 13.7787 5.696 13.864C5.91467 13.9493 6.15467 13.992 6.416 13.992C6.69333 13.992 6.94933 13.9387 7.184 13.832C7.41867 13.72 7.632 13.552 7.824 13.328L8.656 14.096C8.38933 14.4213 8.05867 14.6693 7.664 14.84C7.27467 15.0107 6.83467 15.096 6.344 15.096ZM11.1878 15L8.77175 9.4H10.1718L12.2838 14.36H11.4598L13.6038 9.4H14.8918L12.4678 15H11.1878ZM16.5513 11.656H19.2473V12.664H16.5513V11.656ZM16.6473 13.96H19.6953V15H15.3593V9.4H19.5913V10.44H16.6473V13.96Z" fill="#B7BCD9"/>
</svg>
