<svg width="24" height="24" viewBox="0 0 24 24" fill="none" xmlns="http://www.w3.org/2000/svg">
<path d="M2.664 15V9.4H5.208C5.816 9.4 6.352 9.51733 6.816 9.752C7.28 9.98133 7.64267 10.304 7.904 10.72C8.16533 11.136 8.296 11.6293 8.296 12.2C8.296 12.7653 8.16533 13.2587 7.904 13.68C7.64267 14.096 7.28 14.4213 6.816 14.656C6.352 14.8853 5.816 15 5.208 15H2.664ZM3.96 13.936H5.144C5.51733 13.936 5.84 13.8667 6.112 13.728C6.38933 13.584 6.60267 13.3813 6.752 13.12C6.90667 12.8587 6.984 12.552 6.984 12.2C6.984 11.8427 6.90667 11.536 6.752 11.28C6.60267 11.0187 6.38933 10.8187 6.112 10.68C5.84 10.536 5.51733 10.464 5.144 10.464H3.96V13.936ZM11.9934 15.096C11.5507 15.096 11.14 15.024 10.7614 14.88C10.388 14.736 10.0627 14.5333 9.78537 14.272C9.51338 14.0107 9.30004 13.704 9.14538 13.352C8.99604 13 8.92138 12.616 8.92138 12.2C8.92138 11.784 8.99604 11.4 9.14538 11.048C9.30004 10.696 9.51604 10.3893 9.79338 10.128C10.0707 9.86667 10.396 9.664 10.7694 9.52C11.1427 9.376 11.548 9.304 11.9854 9.304C12.428 9.304 12.8334 9.376 13.2014 9.52C13.5747 9.664 13.8974 9.86667 14.1694 10.128C14.4467 10.3893 14.6627 10.696 14.8174 11.048C14.972 11.3947 15.0494 11.7787 15.0494 12.2C15.0494 12.616 14.972 13.0027 14.8174 13.36C14.6627 13.712 14.4467 14.0187 14.1694 14.28C13.8974 14.536 13.5747 14.736 13.2014 14.88C12.8334 15.024 12.4307 15.096 11.9934 15.096ZM11.9854 13.992C12.236 13.992 12.4654 13.9493 12.6734 13.864C12.8867 13.7787 13.0734 13.656 13.2334 13.496C13.3934 13.336 13.516 13.1467 13.6014 12.928C13.692 12.7093 13.7374 12.4667 13.7374 12.2C13.7374 11.9333 13.692 11.6907 13.6014 11.472C13.516 11.2533 13.3934 11.064 13.2334 10.904C13.0787 10.744 12.8947 10.6213 12.6814 10.536C12.468 10.4507 12.236 10.408 11.9854 10.408C11.7347 10.408 11.5027 10.4507 11.2894 10.536C11.0814 10.6213 10.8974 10.744 10.7374 10.904C10.5774 11.064 10.452 11.2533 10.3614 11.472C10.276 11.6907 10.2334 11.9333 10.2334 12.2C10.2334 12.4613 10.276 12.704 10.3614 12.928C10.452 13.1467 10.5747 13.336 10.7294 13.496C10.8894 13.656 11.076 13.7787 11.2894 13.864C11.5027 13.9493 11.7347 13.992 11.9854 13.992ZM16.0234 15V9.4H18.4474C18.9487 9.4 19.3807 9.48267 19.7434 9.648C20.106 9.808 20.386 10.04 20.5834 10.344C20.7807 10.648 20.8794 11.0107 20.8794 11.432C20.8794 11.848 20.7807 12.208 20.5834 12.512C20.386 12.816 20.106 13.0507 19.7434 13.216C19.3807 13.376 18.9487 13.456 18.4474 13.456H16.7434L17.3194 12.872V15H16.0234ZM17.3194 13.016L16.7434 12.4H18.3754C18.7754 12.4 19.074 12.3147 19.2714 12.144C19.4687 11.9733 19.5674 11.736 19.5674 11.432C19.5674 11.1227 19.4687 10.8827 19.2714 10.712C19.074 10.5413 18.7754 10.456 18.3754 10.456H16.7434L17.3194 9.84V13.016Z" fill="#B7BCD9"/>
</svg>
