<svg width="24" height="24" viewBox="0 0 24 24" fill="none" xmlns="http://www.w3.org/2000/svg">
<path d="M5.864 11.92H8.552V12.96H5.864V11.92ZM5.96 15H4.664V9.4H8.896V10.44H5.96V15ZM10.6882 15.096C10.3095 15.096 9.96019 15.0267 9.64019 14.888C9.32552 14.744 9.06685 14.5413 8.86419 14.28L9.58419 13.416C9.73885 13.6187 9.90152 13.7733 10.0722 13.88C10.2429 13.9813 10.4269 14.032 10.6242 14.032C11.1522 14.032 11.4162 13.7227 11.4162 13.104V10.44H9.44819V9.4H12.7042V13.032C12.7042 13.7253 12.5335 14.2427 12.1922 14.584C11.8509 14.9253 11.3495 15.096 10.6882 15.096ZM13.9843 15V9.4H16.5283C17.1363 9.4 17.6723 9.51733 18.1363 9.752C18.6003 9.98133 18.963 10.304 19.2243 10.72C19.4856 11.136 19.6163 11.6293 19.6163 12.2C19.6163 12.7653 19.4856 13.2587 19.2243 13.68C18.963 14.096 18.6003 14.4213 18.1363 14.656C17.6723 14.8853 17.1363 15 16.5283 15H13.9843ZM15.2803 13.936H16.4643C16.8376 13.936 17.1603 13.8667 17.4323 13.728C17.7096 13.584 17.923 13.3813 18.0723 13.12C18.227 12.8587 18.3043 12.552 18.3043 12.2C18.3043 11.8427 18.227 11.536 18.0723 11.28C17.923 11.0187 17.7096 10.8187 17.4323 10.68C17.1603 10.536 16.8376 10.464 16.4643 10.464H15.2803V13.936Z" fill="#B7BCD9"/>
</svg>
