<svg width="24" height="24" viewBox="0 0 24 24" fill="none" xmlns="http://www.w3.org/2000/svg">
<path d="M6.368 15.096C5.92533 15.096 5.51733 15.0267 5.144 14.888C4.776 14.744 4.45333 14.5413 4.176 14.28C3.904 14.0187 3.69067 13.712 3.536 13.36C3.38667 13.008 3.312 12.6213 3.312 12.2C3.312 11.7787 3.38667 11.392 3.536 11.04C3.69067 10.688 3.90667 10.3813 4.184 10.12C4.46133 9.85867 4.78667 9.65867 5.16 9.52C5.53333 9.376 5.944 9.304 6.392 9.304C6.888 9.304 7.33333 9.38667 7.728 9.552C8.128 9.71733 8.464 9.95733 8.736 10.272L7.904 11.04C7.70133 10.8267 7.48 10.6693 7.24 10.568C7 10.4613 6.73867 10.408 6.456 10.408C6.184 10.408 5.936 10.4507 5.712 10.536C5.488 10.6213 5.29333 10.744 5.128 10.904C4.968 11.064 4.84267 11.2533 4.752 11.472C4.66667 11.6907 4.624 11.9333 4.624 12.2C4.624 12.4613 4.66667 12.7013 4.752 12.92C4.84267 13.1387 4.968 13.3307 5.128 13.496C5.29333 13.656 5.48533 13.7787 5.704 13.864C5.928 13.9493 6.17333 13.992 6.44 13.992C6.696 13.992 6.944 13.952 7.184 13.872C7.42933 13.7867 7.66667 13.6453 7.896 13.448L8.632 14.384C8.328 14.6133 7.97333 14.7893 7.568 14.912C7.168 15.0347 6.768 15.096 6.368 15.096ZM7.448 14.216V12.112H8.632V14.384L7.448 14.216ZM10.9959 15V10.456H9.20388V9.4H14.0839V10.456H12.2919V15H10.9959ZM17.4151 15.096C16.9777 15.096 16.5697 15.024 16.1911 14.88C15.8177 14.736 15.4924 14.5333 15.2151 14.272C14.9431 14.0107 14.7297 13.704 14.5751 13.352C14.4257 13 14.3511 12.616 14.3511 12.2C14.3511 11.784 14.4257 11.4 14.5751 11.048C14.7297 10.696 14.9457 10.3893 15.2231 10.128C15.5004 9.86667 15.8257 9.664 16.1991 9.52C16.5724 9.376 16.9777 9.304 17.4151 9.304C17.8577 9.304 18.2631 9.376 18.6311 9.52C19.0044 9.664 19.3271 9.86667 19.5991 10.128C19.8764 10.384 20.0924 10.688 20.2471 11.04C20.4017 11.392 20.4791 11.7787 20.4791 12.2C20.4791 12.616 20.4017 13.0027 20.2471 13.36C20.0924 13.712 19.8764 14.0187 19.5991 14.28C19.3271 14.536 19.0044 14.736 18.6311 14.88C18.2631 15.024 17.8577 15.096 17.4151 15.096ZM19.2471 16.288C19.0284 16.288 18.8204 16.264 18.6231 16.216C18.4311 16.168 18.2391 16.0907 18.0471 15.984C17.8604 15.8773 17.6631 15.7333 17.4551 15.552C17.2524 15.3707 17.0311 15.1467 16.7911 14.88L18.1511 14.536C18.2951 14.7333 18.4284 14.8907 18.5511 15.008C18.6737 15.1253 18.7911 15.208 18.9031 15.256C19.0204 15.304 19.1431 15.328 19.2711 15.328C19.6124 15.328 19.9164 15.1893 20.1831 14.912L20.7591 15.6C20.3804 16.0587 19.8764 16.288 19.2471 16.288ZM17.4151 13.992C17.6657 13.992 17.8951 13.9493 18.1031 13.864C18.3164 13.7787 18.5031 13.656 18.6631 13.496C18.8231 13.336 18.9457 13.1467 19.0311 12.928C19.1217 12.704 19.1671 12.4613 19.1671 12.2C19.1671 11.9333 19.1217 11.6907 19.0311 11.472C18.9457 11.2533 18.8231 11.064 18.6631 10.904C18.5031 10.744 18.3164 10.6213 18.1031 10.536C17.8951 10.4507 17.6657 10.408 17.4151 10.408C17.1644 10.408 16.9324 10.4507 16.7191 10.536C16.5057 10.6213 16.3191 10.744 16.1591 10.904C16.0044 11.064 15.8817 11.2533 15.7911 11.472C15.7057 11.6907 15.6631 11.9333 15.6631 12.2C15.6631 12.4613 15.7057 12.704 15.7911 12.928C15.8817 13.1467 16.0044 13.336 16.1591 13.496C16.3191 13.656 16.5057 13.7787 16.7191 13.864C16.9324 13.9493 17.1644 13.992 17.4151 13.992Z" fill="#B7BCD9"/>
</svg>
