<svg width="24" height="24" viewBox="0 0 24 24" fill="none" xmlns="http://www.w3.org/2000/svg">
<path d="M4.696 15.096C4.31733 15.096 3.968 15.0267 3.648 14.888C3.33333 14.744 3.07467 14.5413 2.872 14.28L3.592 13.416C3.74667 13.6187 3.90933 13.7733 4.08 13.88C4.25067 13.9813 4.43467 14.032 4.632 14.032C5.16 14.032 5.424 13.7227 5.424 13.104V10.44H3.456V9.4H6.712V13.032C6.712 13.7253 6.54133 14.2427 6.2 14.584C5.85867 14.9253 5.35733 15.096 4.696 15.096ZM7.99213 15V9.4H9.06413L11.4481 13.352H10.8801L13.2241 9.4H14.2881L14.3041 15H13.0881L13.0801 11.264H13.3041L11.4321 14.408H10.8481L8.93613 11.264H9.20813V15H7.99213ZM15.6328 15V9.4H18.1768C18.7848 9.4 19.3208 9.51733 19.7848 9.752C20.2488 9.98133 20.6114 10.304 20.8728 10.72C21.1341 11.136 21.2648 11.6293 21.2648 12.2C21.2648 12.7653 21.1341 13.2587 20.8728 13.68C20.6114 14.096 20.2488 14.4213 19.7848 14.656C19.3208 14.8853 18.7848 15 18.1768 15H15.6328ZM16.9288 13.936H18.1128C18.4861 13.936 18.8088 13.8667 19.0807 13.728C19.3581 13.584 19.5714 13.3813 19.7208 13.12C19.8754 12.8587 19.9528 12.552 19.9528 12.2C19.9528 11.8427 19.8754 11.536 19.7208 11.28C19.5714 11.0187 19.3581 10.8187 19.0807 10.68C18.8088 10.536 18.4861 10.464 18.1128 10.464H16.9288V13.936Z" fill="#B7BCD9"/>
</svg>
