<svg width="24" height="24" viewBox="0 0 24 24" fill="none" xmlns="http://www.w3.org/2000/svg">
<path d="M2.664 15V9.4H3.736L6.12 13.352H5.552L7.896 9.4H8.96L8.976 15H7.76L7.752 11.264H7.976L6.104 14.408H5.52L3.608 11.264H3.88V15H2.664ZM9.66463 15L12.0726 11.68V12.624L9.76863 9.4H11.2406L12.8326 11.648L12.2166 11.656L13.7846 9.4H15.1926L12.9046 12.568V11.64L15.3286 15H13.8326L12.1846 12.624H12.7766L11.1526 15H9.66463ZM15.8359 15V9.4H16.9079L20.2119 13.432H19.6919V9.4H20.9719V15H19.9079L16.5959 10.968H17.1159V15H15.8359Z" fill="#B7BCD9"/>
</svg>
