<svg width="24" height="24" viewBox="0 0 24 24" fill="none" xmlns="http://www.w3.org/2000/svg">
<path d="M4.664 15V9.4H5.736L9.04 13.432H8.52V9.4H9.8V15H8.736L5.424 10.968H5.944V15H4.664ZM11.1249 15V9.4H12.4209V15H11.1249ZM16.4699 15.096C16.0273 15.096 15.6166 15.024 15.2379 14.88C14.8646 14.736 14.5393 14.5333 14.2619 14.272C13.9899 14.0107 13.7766 13.704 13.6219 13.352C13.4726 13 13.3979 12.616 13.3979 12.2C13.3979 11.784 13.4726 11.4 13.6219 11.048C13.7766 10.696 13.9926 10.3893 14.2699 10.128C14.5473 9.86667 14.8726 9.664 15.2459 9.52C15.6193 9.376 16.0246 9.304 16.4619 9.304C16.9046 9.304 17.3099 9.376 17.6779 9.52C18.0513 9.664 18.3739 9.86667 18.6459 10.128C18.9233 10.3893 19.1393 10.696 19.2939 11.048C19.4486 11.3947 19.5259 11.7787 19.5259 12.2C19.5259 12.616 19.4486 13.0027 19.2939 13.36C19.1393 13.712 18.9233 14.0187 18.6459 14.28C18.3739 14.536 18.0513 14.736 17.6779 14.88C17.3099 15.024 16.9073 15.096 16.4699 15.096ZM16.4619 13.992C16.7126 13.992 16.9419 13.9493 17.1499 13.864C17.3633 13.7787 17.5499 13.656 17.7099 13.496C17.8699 13.336 17.9926 13.1467 18.0779 12.928C18.1686 12.7093 18.2139 12.4667 18.2139 12.2C18.2139 11.9333 18.1686 11.6907 18.0779 11.472C17.9926 11.2533 17.8699 11.064 17.7099 10.904C17.5553 10.744 17.3713 10.6213 17.1579 10.536C16.9446 10.4507 16.7126 10.408 16.4619 10.408C16.2113 10.408 15.9793 10.4507 15.7659 10.536C15.5579 10.6213 15.3739 10.744 15.2139 10.904C15.0539 11.064 14.9286 11.2533 14.8379 11.472C14.7526 11.6907 14.7099 11.9333 14.7099 12.2C14.7099 12.4613 14.7526 12.704 14.8379 12.928C14.9286 13.1467 15.0513 13.336 15.2059 13.496C15.3659 13.656 15.5526 13.7787 15.7659 13.864C15.9793 13.9493 16.2113 13.992 16.4619 13.992Z" fill="#B7BCD9"/>
</svg>
