<svg width="24" height="24" viewBox="0 0 24 24" fill="none" xmlns="http://www.w3.org/2000/svg">
<path d="M3.664 15V9.4H6.088C6.58933 9.4 7.02133 9.48267 7.384 9.648C7.74667 9.808 8.02667 10.04 8.224 10.344C8.42133 10.648 8.52 11.0107 8.52 11.432C8.52 11.848 8.42133 12.208 8.224 12.512C8.02667 12.816 7.74667 13.0507 7.384 13.216C7.02133 13.376 6.58933 13.456 6.088 13.456H4.384L4.96 12.872V15H3.664ZM4.96 13.016L4.384 12.4H6.016C6.416 12.4 6.71467 12.3147 6.912 12.144C7.10933 11.9733 7.208 11.736 7.208 11.432C7.208 11.1227 7.10933 10.8827 6.912 10.712C6.71467 10.5413 6.416 10.456 6.016 10.456H4.384L4.96 9.84V13.016ZM8.428 15L10.924 9.4H12.204L14.708 15H13.348L11.3 10.056H11.812L9.756 15H8.428ZM9.676 13.8L10.02 12.816H12.9L13.252 13.8H9.676ZM15.289 15V9.4H18.025C18.729 9.4 19.257 9.53333 19.609 9.8C19.9663 10.0667 20.145 10.4187 20.145 10.856C20.145 11.1493 20.073 11.4053 19.929 11.624C19.785 11.8373 19.5877 12.0027 19.337 12.12C19.0863 12.2373 18.7983 12.296 18.473 12.296L18.625 11.968C18.977 11.968 19.289 12.0267 19.561 12.144C19.833 12.256 20.0437 12.424 20.193 12.648C20.3477 12.872 20.425 13.1467 20.425 13.472C20.425 13.952 20.2357 14.328 19.857 14.6C19.4783 14.8667 18.921 15 18.185 15H15.289ZM16.577 14.024H18.089C18.425 14.024 18.6783 13.9707 18.849 13.864C19.025 13.752 19.113 13.576 19.113 13.336C19.113 13.1013 19.025 12.928 18.849 12.816C18.6783 12.6987 18.425 12.64 18.089 12.64H16.481V11.696H17.865C18.1797 11.696 18.4197 11.6427 18.585 11.536C18.7557 11.424 18.841 11.256 18.841 11.032C18.841 10.8133 18.7557 10.6507 18.585 10.544C18.4197 10.432 18.1797 10.376 17.865 10.376H16.577V14.024Z" fill="#B7BCD9"/>
</svg>
