<svg width="24" height="24" viewBox="0 0 24 24" fill="none" xmlns="http://www.w3.org/2000/svg">
<path d="M3.664 15V9.4H6.088C6.58933 9.4 7.02133 9.48267 7.384 9.648C7.74667 9.808 8.02667 10.04 8.224 10.344C8.42133 10.648 8.52 11.0107 8.52 11.432C8.52 11.848 8.42133 12.208 8.224 12.512C8.02667 12.816 7.74667 13.0507 7.384 13.216C7.02133 13.376 6.58933 13.456 6.088 13.456H4.384L4.96 12.872V15H3.664ZM4.96 13.016L4.384 12.4H6.016C6.416 12.4 6.71467 12.3147 6.912 12.144C7.10933 11.9733 7.208 11.736 7.208 11.432C7.208 11.1227 7.10933 10.8827 6.912 10.712C6.71467 10.5413 6.416 10.456 6.016 10.456H4.384L4.96 9.84V13.016ZM10.6373 11.656H13.3333V12.664H10.6373V11.656ZM10.7333 13.96H13.7812V15H9.44525V9.4H13.6773V10.44H10.7333V13.96ZM14.8124 15V9.4H15.8844L19.1884 13.432H18.6684V9.4H19.9484V15H18.8844L15.5724 10.968H16.0924V15H14.8124Z" fill="#B7BCD9"/>
</svg>
