<svg width="24" height="24" viewBox="0 0 24 24" fill="none" xmlns="http://www.w3.org/2000/svg">
<path d="M3.664 15V9.4H6.088C6.58933 9.4 7.02133 9.48267 7.384 9.648C7.74667 9.808 8.02667 10.04 8.224 10.344C8.42133 10.648 8.52 11.0107 8.52 11.432C8.52 11.848 8.42133 12.208 8.224 12.512C8.02667 12.816 7.74667 13.0507 7.384 13.216C7.02133 13.376 6.58933 13.456 6.088 13.456H4.384L4.96 12.872V15H3.664ZM4.96 13.016L4.384 12.4H6.016C6.416 12.4 6.71467 12.3147 6.912 12.144C7.10933 11.9733 7.208 11.736 7.208 11.432C7.208 11.1227 7.10933 10.8827 6.912 10.712C6.71467 10.5413 6.416 10.456 6.016 10.456H4.384L4.96 9.84V13.016ZM12.2274 15.096C11.7847 15.096 11.3767 15.0267 11.0034 14.888C10.6354 14.744 10.3127 14.5413 10.0354 14.28C9.76338 14.0187 9.55004 13.712 9.39538 13.36C9.24604 13.008 9.17138 12.6213 9.17138 12.2C9.17138 11.7787 9.24604 11.392 9.39538 11.04C9.55004 10.688 9.76604 10.3813 10.0434 10.12C10.3207 9.85867 10.646 9.65867 11.0194 9.52C11.3927 9.376 11.8034 9.304 12.2514 9.304C12.7474 9.304 13.1927 9.38667 13.5874 9.552C13.9874 9.71733 14.3234 9.95733 14.5954 10.272L13.7634 11.04C13.5607 10.8267 13.3394 10.6693 13.0994 10.568C12.8594 10.4613 12.598 10.408 12.3154 10.408C12.0434 10.408 11.7954 10.4507 11.5714 10.536C11.3474 10.6213 11.1527 10.744 10.9874 10.904C10.8274 11.064 10.702 11.2533 10.6114 11.472C10.526 11.6907 10.4834 11.9333 10.4834 12.2C10.4834 12.4613 10.526 12.7013 10.6114 12.92C10.702 13.1387 10.8274 13.3307 10.9874 13.496C11.1527 13.656 11.3447 13.7787 11.5634 13.864C11.7874 13.9493 12.0327 13.992 12.2994 13.992C12.5554 13.992 12.8034 13.952 13.0434 13.872C13.2887 13.7867 13.526 13.6453 13.7554 13.448L14.4914 14.384C14.1874 14.6133 13.8327 14.7893 13.4274 14.912C13.0274 15.0347 12.6274 15.096 12.2274 15.096ZM13.3074 14.216V12.112H14.4914V14.384L13.3074 14.216ZM16.8553 13.72L16.7833 12.224L19.4633 9.4H20.9033L18.4873 12L17.7673 12.768L16.8553 13.72ZM15.6953 15V9.4H16.9833V15H15.6953ZM19.5273 15L17.5353 12.56L18.3833 11.64L21.0393 15H19.5273Z" fill="#B7BCD9"/>
</svg>
