<svg width="24" height="24" viewBox="0 0 24 24" fill="none" xmlns="http://www.w3.org/2000/svg">
<g clip-path="url(#clip0_1633_195)">
<path d="M11.791 21.52V1.78H13.156V21.52H11.791ZM12.841 19.168C11.707 19.168 10.664 18.986 9.712 18.622C8.76 18.244 7.934 17.719 7.234 17.047C6.534 16.361 5.988 15.563 5.596 14.653C5.204 13.743 5.008 12.742 5.008 11.65C5.008 10.558 5.204 9.557 5.596 8.647C5.988 7.737 6.534 6.946 7.234 6.274C7.948 5.588 8.781 5.063 9.733 4.699C10.685 4.321 11.735 4.132 12.883 4.132C14.045 4.132 15.109 4.321 16.075 4.699C17.041 5.077 17.86 5.644 18.532 6.4L17.23 7.702C16.628 7.114 15.97 6.687 15.256 6.421C14.556 6.141 13.793 6.001 12.967 6.001C12.127 6.001 11.343 6.141 10.615 6.421C9.901 6.701 9.278 7.093 8.746 7.597C8.228 8.101 7.822 8.703 7.528 9.403C7.248 10.089 7.108 10.838 7.108 11.65C7.108 12.448 7.248 13.197 7.528 13.897C7.822 14.583 8.228 15.185 8.746 15.703C9.278 16.207 9.901 16.599 10.615 16.879C11.329 17.159 12.106 17.299 12.946 17.299C13.73 17.299 14.479 17.18 15.193 16.942C15.921 16.69 16.593 16.277 17.209 15.703L18.406 17.299C17.678 17.915 16.824 18.384 15.844 18.706C14.878 19.014 13.877 19.168 12.841 19.168ZM16.39 17.026V11.566H18.406V17.299L16.39 17.026Z" fill="#B7BCD9"/>
</g>
<defs>
<clipPath id="clip0_1633_195">
<rect width="24" height="24" fill="white"/>
</clipPath>
</defs>
</svg>
