<svg width="24" height="24" viewBox="0 0 24 24" fill="none" xmlns="http://www.w3.org/2000/svg">
<path d="M5.504 15.096C5.056 15.096 4.62667 15.0373 4.216 14.92C3.80533 14.7973 3.47467 14.64 3.224 14.448L3.664 13.472C3.904 13.6427 4.18667 13.784 4.512 13.896C4.84267 14.0027 5.176 14.056 5.512 14.056C5.768 14.056 5.97333 14.032 6.128 13.984C6.288 13.9307 6.40533 13.8587 6.48 13.768C6.55467 13.6773 6.592 13.5733 6.592 13.456C6.592 13.3067 6.53333 13.1893 6.416 13.104C6.29867 13.0133 6.144 12.9413 5.952 12.888C5.76 12.8293 5.54667 12.776 5.312 12.728C5.08267 12.6747 4.85067 12.6107 4.616 12.536C4.38667 12.4613 4.176 12.3653 3.984 12.248C3.792 12.1307 3.63467 11.976 3.512 11.784C3.39467 11.592 3.336 11.3467 3.336 11.048C3.336 10.728 3.42133 10.4373 3.592 10.176C3.768 9.90933 4.02933 9.69867 4.376 9.544C4.728 9.384 5.168 9.304 5.696 9.304C6.048 9.304 6.39467 9.34667 6.736 9.432C7.07733 9.512 7.37867 9.63467 7.64 9.8L7.24 10.784C6.97867 10.6347 6.71733 10.5253 6.456 10.456C6.19467 10.3813 5.93867 10.344 5.688 10.344C5.43733 10.344 5.232 10.3733 5.072 10.432C4.912 10.4907 4.79733 10.568 4.728 10.664C4.65867 10.7547 4.624 10.8613 4.624 10.984C4.624 11.128 4.68267 11.2453 4.8 11.336C4.91733 11.4213 5.072 11.4907 5.264 11.544C5.456 11.5973 5.66667 11.6507 5.896 11.704C6.13067 11.7573 6.36267 11.8187 6.592 11.888C6.82667 11.9573 7.04 12.0507 7.232 12.168C7.424 12.2853 7.57867 12.44 7.696 12.632C7.81867 12.824 7.88 13.0667 7.88 13.36C7.88 13.6747 7.792 13.9627 7.616 14.224C7.44 14.4853 7.176 14.696 6.824 14.856C6.47733 15.016 6.03733 15.096 5.504 15.096ZM8.76556 15V9.4H11.5016C12.2056 9.4 12.7336 9.53333 13.0856 9.8C13.4429 10.0667 13.6216 10.4187 13.6216 10.856C13.6216 11.1493 13.5496 11.4053 13.4056 11.624C13.2616 11.8373 13.0642 12.0027 12.8136 12.12C12.5629 12.2373 12.2749 12.296 11.9496 12.296L12.1016 11.968C12.4536 11.968 12.7656 12.0267 13.0376 12.144C13.3096 12.256 13.5202 12.424 13.6696 12.648C13.8242 12.872 13.9016 13.1467 13.9016 13.472C13.9016 13.952 13.7122 14.328 13.3336 14.6C12.9549 14.8667 12.3976 15 11.6616 15H8.76556ZM10.0536 14.024H11.5656C11.9016 14.024 12.1549 13.9707 12.3256 13.864C12.5016 13.752 12.5896 13.576 12.5896 13.336C12.5896 13.1013 12.5016 12.928 12.3256 12.816C12.1549 12.6987 11.9016 12.64 11.5656 12.64H9.95756V11.696H11.3416C11.6562 11.696 11.8962 11.6427 12.0616 11.536C12.2322 11.424 12.3176 11.256 12.3176 11.032C12.3176 10.8133 12.2322 10.6507 12.0616 10.544C11.8962 10.432 11.6562 10.376 11.3416 10.376H10.0536V14.024ZM14.8828 15V9.4H17.4268C18.0348 9.4 18.5708 9.51733 19.0348 9.752C19.4988 9.98133 19.8614 10.304 20.1228 10.72C20.3841 11.136 20.5148 11.6293 20.5148 12.2C20.5148 12.7653 20.3841 13.2587 20.1228 13.68C19.8614 14.096 19.4988 14.4213 19.0348 14.656C18.5708 14.8853 18.0348 15 17.4268 15H14.8828ZM16.1788 13.936H17.3628C17.7361 13.936 18.0588 13.8667 18.3307 13.728C18.6081 13.584 18.8214 13.3813 18.9708 13.12C19.1254 12.8587 19.2028 12.552 19.2028 12.2C19.2028 11.8427 19.1254 11.536 18.9708 11.28C18.8214 11.0187 18.6081 10.8187 18.3307 10.68C18.0588 10.536 17.7361 10.464 17.3628 10.464H16.1788V13.936Z" fill="#B7BCD9"/>
</svg>
