<svg width="24" height="24" viewBox="0 0 24 24" fill="none" xmlns="http://www.w3.org/2000/svg">
<path d="M6.504 15.096C6.056 15.096 5.62667 15.0373 5.216 14.92C4.80533 14.7973 4.47467 14.64 4.224 14.448L4.664 13.472C4.904 13.6427 5.18667 13.784 5.512 13.896C5.84267 14.0027 6.176 14.056 6.512 14.056C6.768 14.056 6.97333 14.032 7.128 13.984C7.288 13.9307 7.40533 13.8587 7.48 13.768C7.55467 13.6773 7.592 13.5733 7.592 13.456C7.592 13.3067 7.53333 13.1893 7.416 13.104C7.29867 13.0133 7.144 12.9413 6.952 12.888C6.76 12.8293 6.54667 12.776 6.312 12.728C6.08267 12.6747 5.85067 12.6107 5.616 12.536C5.38667 12.4613 5.176 12.3653 4.984 12.248C4.792 12.1307 4.63467 11.976 4.512 11.784C4.39467 11.592 4.336 11.3467 4.336 11.048C4.336 10.728 4.42133 10.4373 4.592 10.176C4.768 9.90933 5.02933 9.69867 5.376 9.544C5.728 9.384 6.168 9.304 6.696 9.304C7.048 9.304 7.39467 9.34667 7.736 9.432C8.07733 9.512 8.37867 9.63467 8.64 9.8L8.24 10.784C7.97867 10.6347 7.71733 10.5253 7.456 10.456C7.19467 10.3813 6.93867 10.344 6.688 10.344C6.43733 10.344 6.232 10.3733 6.072 10.432C5.912 10.4907 5.79733 10.568 5.728 10.664C5.65867 10.7547 5.624 10.8613 5.624 10.984C5.624 11.128 5.68267 11.2453 5.8 11.336C5.91733 11.4213 6.072 11.4907 6.264 11.544C6.456 11.5973 6.66667 11.6507 6.896 11.704C7.13067 11.7573 7.36267 11.8187 7.592 11.888C7.82667 11.9573 8.04 12.0507 8.232 12.168C8.424 12.2853 8.57867 12.44 8.696 12.632C8.81867 12.824 8.88 13.0667 8.88 13.36C8.88 13.6747 8.792 13.9627 8.616 14.224C8.44 14.4853 8.176 14.696 7.824 14.856C7.47733 15.016 7.03733 15.096 6.504 15.096ZM10.8474 15V10.456H9.05544V9.4H13.9354V10.456H12.1434V15H10.8474ZM14.6328 15V9.4H15.7048L19.0088 13.432H18.4887V9.4H19.7688V15H18.7048L15.3928 10.968H15.9128V15H14.6328Z" fill="#B7BCD9"/>
</svg>
