<svg width="24" height="24" viewBox="0 0 24 24" fill="none" xmlns="http://www.w3.org/2000/svg">
<path d="M5.824 15V10.456H4.032V9.4H8.912V10.456H7.12V15H5.824ZM10.8474 15V10.456H9.05544V9.4H13.9354V10.456H12.1434V15H10.8474ZM14.6328 15V9.4H17.1768C17.7848 9.4 18.3208 9.51733 18.7848 9.752C19.2488 9.98133 19.6114 10.304 19.8728 10.72C20.1341 11.136 20.2648 11.6293 20.2648 12.2C20.2648 12.7653 20.1341 13.2587 19.8728 13.68C19.6114 14.096 19.2488 14.4213 18.7848 14.656C18.3208 14.8853 17.7848 15 17.1768 15H14.6328ZM15.9288 13.936H17.1128C17.4861 13.936 17.8088 13.8667 18.0807 13.728C18.3581 13.584 18.5714 13.3813 18.7208 13.12C18.8754 12.8587 18.9528 12.552 18.9528 12.2C18.9528 11.8427 18.8754 11.536 18.7208 11.28C18.5714 11.0187 18.3581 10.8187 18.0807 10.68C17.8088 10.536 17.4861 10.464 17.1128 10.464H15.9288V13.936Z" fill="#B7BCD9"/>
</svg>
