<svg width="24" height="24" viewBox="0 0 24 24" fill="none" xmlns="http://www.w3.org/2000/svg">
<path d="M6.152 15.096C5.35733 15.096 4.736 14.8747 4.288 14.432C3.84 13.9893 3.616 13.3573 3.616 12.536V9.4H4.912V12.488C4.912 13.0213 5.02133 13.4053 5.24 13.64C5.45867 13.8747 5.76533 13.992 6.16 13.992C6.55467 13.992 6.86133 13.8747 7.08 13.64C7.29867 13.4053 7.408 13.0213 7.408 12.488V9.4H8.688V12.536C8.688 13.3573 8.464 13.9893 8.016 14.432C7.568 14.8747 6.94667 15.096 6.152 15.096ZM11.2826 15V12.712L11.5786 13.496L9.11456 9.4H10.4906L12.3786 12.544H11.5866L13.4826 9.4H14.7546L12.2906 13.496L12.5786 12.712V15H11.2826ZM17.7067 15.096C16.912 15.096 16.2907 14.8747 15.8427 14.432C15.3947 13.9893 15.1707 13.3573 15.1707 12.536V9.4H16.4667V12.488C16.4667 13.0213 16.576 13.4053 16.7947 13.64C17.0134 13.8747 17.32 13.992 17.7147 13.992C18.1094 13.992 18.416 13.8747 18.6347 13.64C18.8534 13.4053 18.9627 13.0213 18.9627 12.488V9.4H20.2427V12.536C20.2427 13.3573 20.0187 13.9893 19.5707 14.432C19.1227 14.8747 18.5014 15.096 17.7067 15.096Z" fill="#B7BCD9"/>
</svg>
