<svg width="24" height="24" viewBox="0 0 24 24" fill="none" xmlns="http://www.w3.org/2000/svg">
<path d="M6.344 15L3.928 9.4H5.328L7.44 14.36H6.616L8.76 9.4H10.048L7.624 15H6.344ZM11.7076 11.656H14.4036V12.664H11.7076V11.656ZM11.8036 13.96H14.8516V15H10.5156V9.4H14.7476V10.44H11.8036V13.96ZM17.7228 15.096C17.2748 15.096 16.8454 15.0373 16.4348 14.92C16.0241 14.7973 15.6934 14.64 15.4428 14.448L15.8828 13.472C16.1228 13.6427 16.4054 13.784 16.7308 13.896C17.0614 14.0027 17.3948 14.056 17.7308 14.056C17.9868 14.056 18.1921 14.032 18.3468 13.984C18.5068 13.9307 18.6241 13.8587 18.6988 13.768C18.7734 13.6773 18.8108 13.5733 18.8108 13.456C18.8108 13.3067 18.7521 13.1893 18.6348 13.104C18.5174 13.0133 18.3628 12.9413 18.1708 12.888C17.9788 12.8293 17.7654 12.776 17.5308 12.728C17.3014 12.6747 17.0694 12.6107 16.8348 12.536C16.6054 12.4613 16.3948 12.3653 16.2028 12.248C16.0108 12.1307 15.8534 11.976 15.7308 11.784C15.6134 11.592 15.5548 11.3467 15.5548 11.048C15.5548 10.728 15.6401 10.4373 15.8108 10.176C15.9868 9.90933 16.2481 9.69867 16.5948 9.544C16.9468 9.384 17.3868 9.304 17.9148 9.304C18.2668 9.304 18.6134 9.34667 18.9548 9.432C19.2961 9.512 19.5974 9.63467 19.8588 9.8L19.4588 10.784C19.1974 10.6347 18.9361 10.5253 18.6748 10.456C18.4134 10.3813 18.1574 10.344 17.9068 10.344C17.6561 10.344 17.4508 10.3733 17.2908 10.432C17.1308 10.4907 17.0161 10.568 16.9468 10.664C16.8774 10.7547 16.8428 10.8613 16.8428 10.984C16.8428 11.128 16.9014 11.2453 17.0188 11.336C17.1361 11.4213 17.2908 11.4907 17.4828 11.544C17.6748 11.5973 17.8854 11.6507 18.1148 11.704C18.3494 11.7573 18.5814 11.8187 18.8108 11.888C19.0454 11.9573 19.2588 12.0507 19.4508 12.168C19.6428 12.2853 19.7974 12.44 19.9148 12.632C20.0374 12.824 20.0988 13.0667 20.0988 13.36C20.0988 13.6747 20.0108 13.9627 19.8348 14.224C19.6588 14.4853 19.3948 14.696 19.0428 14.856C18.6961 15.016 18.2561 15.096 17.7228 15.096Z" fill="#B7BCD9"/>
</svg>
