<svg width="24" height="24" viewBox="0 0 24 24" fill="none" xmlns="http://www.w3.org/2000/svg">
<path d="M4.024 15L6.432 11.68V12.624L4.128 9.4H5.6L7.192 11.648L6.576 11.656L8.144 9.4H9.552L7.264 12.568V11.64L9.688 15H8.192L6.544 12.624H7.136L5.512 15H4.024ZM9.34206 15L11.8381 9.4H13.1181L15.6221 15H14.2621L12.2141 10.056H12.7261L10.6701 15H9.34206ZM10.5901 13.8L10.9341 12.816H13.8141L14.1661 13.8H10.5901ZM17.4031 11.92H20.0911V12.96H17.4031V11.92ZM17.4991 15H16.2031V9.4H20.4351V10.44H17.4991V15Z" fill="#B7BCD9"/>
</svg>
