<svg width="24" height="24" viewBox="0 0 24 24" fill="none" xmlns="http://www.w3.org/2000/svg">
<path d="M3.024 15L5.432 11.68V12.624L3.128 9.4H4.6L6.192 11.648L5.576 11.656L7.144 9.4H8.552L6.264 12.568V11.64L8.688 15H7.192L5.544 12.624H6.136L4.512 15H3.024ZM11.8518 15.096C11.4198 15.096 11.0171 15.0267 10.6438 14.888C10.2758 14.744 9.95581 14.5413 9.68381 14.28C9.41181 14.0187 9.19848 13.712 9.04381 13.36C8.89448 13.008 8.81981 12.6213 8.81981 12.2C8.81981 11.7787 8.89448 11.392 9.04381 11.04C9.19848 10.688 9.41181 10.3813 9.68381 10.12C9.96115 9.85867 10.2838 9.65867 10.6518 9.52C11.0198 9.376 11.4225 9.304 11.8598 9.304C12.3451 9.304 12.7825 9.38933 13.1718 9.56C13.5665 9.72533 13.8971 9.97067 14.1638 10.296L13.3318 11.064C13.1398 10.8453 12.9265 10.6827 12.6918 10.576C12.4571 10.464 12.2011 10.408 11.9238 10.408C11.6625 10.408 11.4225 10.4507 11.2038 10.536C10.9851 10.6213 10.7958 10.744 10.6358 10.904C10.4758 11.064 10.3505 11.2533 10.2598 11.472C10.1745 11.6907 10.1318 11.9333 10.1318 12.2C10.1318 12.4667 10.1745 12.7093 10.2598 12.928C10.3505 13.1467 10.4758 13.336 10.6358 13.496C10.7958 13.656 10.9851 13.7787 11.2038 13.864C11.4225 13.9493 11.6625 13.992 11.9238 13.992C12.2011 13.992 12.4571 13.9387 12.6918 13.832C12.9265 13.72 13.1398 13.552 13.3318 13.328L14.1638 14.096C13.8971 14.4213 13.5665 14.6693 13.1718 14.84C12.7825 15.0107 12.3425 15.096 11.8518 15.096ZM15.039 15V9.4H17.583C18.191 9.4 18.727 9.51733 19.191 9.752C19.655 9.98133 20.0177 10.304 20.279 10.72C20.5403 11.136 20.671 11.6293 20.671 12.2C20.671 12.7653 20.5403 13.2587 20.279 13.68C20.0177 14.096 19.655 14.4213 19.191 14.656C18.727 14.8853 18.191 15 17.583 15H15.039ZM16.335 13.936H17.519C17.8923 13.936 18.215 13.8667 18.487 13.728C18.7643 13.584 18.9777 13.3813 19.127 13.12C19.2817 12.8587 19.359 12.552 19.359 12.2C19.359 11.8427 19.2817 11.536 19.127 11.28C18.9777 11.0187 18.7643 10.8187 18.487 10.68C18.215 10.536 17.8923 10.464 17.519 10.464H16.335V13.936Z" fill="#B7BCD9"/>
</svg>
