<svg width="24" height="24" viewBox="0 0 24 24" fill="none" xmlns="http://www.w3.org/2000/svg">
<path d="M3.024 15L5.432 11.68V12.624L3.128 9.4H4.6L6.192 11.648L5.576 11.656L7.144 9.4H8.552L6.264 12.568V11.64L8.688 15H7.192L5.544 12.624H6.136L4.512 15H3.024ZM11.8918 15.096C11.4491 15.096 11.0385 15.024 10.6598 14.88C10.2865 14.736 9.96115 14.5333 9.68381 14.272C9.41181 14.0107 9.19848 13.704 9.04381 13.352C8.89448 13 8.81981 12.616 8.81981 12.2C8.81981 11.784 8.89448 11.4 9.04381 11.048C9.19848 10.696 9.41448 10.3893 9.69181 10.128C9.96915 9.86667 10.2945 9.664 10.6678 9.52C11.0411 9.376 11.4465 9.304 11.8838 9.304C12.3265 9.304 12.7318 9.376 13.0998 9.52C13.4731 9.664 13.7958 9.86667 14.0678 10.128C14.3451 10.3893 14.5611 10.696 14.7158 11.048C14.8705 11.3947 14.9478 11.7787 14.9478 12.2C14.9478 12.616 14.8705 13.0027 14.7158 13.36C14.5611 13.712 14.3451 14.0187 14.0678 14.28C13.7958 14.536 13.4731 14.736 13.0998 14.88C12.7318 15.024 12.3291 15.096 11.8918 15.096ZM11.8838 13.992C12.1345 13.992 12.3638 13.9493 12.5718 13.864C12.7851 13.7787 12.9718 13.656 13.1318 13.496C13.2918 13.336 13.4145 13.1467 13.4998 12.928C13.5905 12.7093 13.6358 12.4667 13.6358 12.2C13.6358 11.9333 13.5905 11.6907 13.4998 11.472C13.4145 11.2533 13.2918 11.064 13.1318 10.904C12.9771 10.744 12.7931 10.6213 12.5798 10.536C12.3665 10.4507 12.1345 10.408 11.8838 10.408C11.6331 10.408 11.4011 10.4507 11.1878 10.536C10.9798 10.6213 10.7958 10.744 10.6358 10.904C10.4758 11.064 10.3505 11.2533 10.2598 11.472C10.1745 11.6907 10.1318 11.9333 10.1318 12.2C10.1318 12.4613 10.1745 12.704 10.2598 12.928C10.3505 13.1467 10.4731 13.336 10.6278 13.496C10.7878 13.656 10.9745 13.7787 11.1878 13.864C11.4011 13.9493 11.6331 13.992 11.8838 13.992ZM17.1218 11.92H19.8098V12.96H17.1218V11.92ZM17.2178 15H15.9218V9.4H20.1538V10.44H17.2178V15Z" fill="#B7BCD9"/>
</svg>
