<svg width="24" height="24" viewBox="0 0 24 24" fill="none" xmlns="http://www.w3.org/2000/svg">
<path d="M3.304 15V14.16L6.768 9.984L6.928 10.456H3.368V9.4H8.08V10.24L4.624 14.416L4.464 13.944H8.2V15H3.304ZM8.29519 15L10.7912 9.4H12.0712L14.5752 15H13.2152L11.1672 10.056H11.6792L9.62319 15H8.29519ZM9.54319 13.8L9.88719 12.816H12.7672L13.1192 13.8H9.54319ZM15.1562 15V9.4H17.5802C18.0815 9.4 18.5135 9.48267 18.8762 9.648C19.2389 9.808 19.5189 10.04 19.7162 10.344C19.9135 10.648 20.0122 11.0107 20.0122 11.432C20.0122 11.848 19.9135 12.208 19.7162 12.512C19.5189 12.8107 19.2389 13.04 18.8762 13.2C18.5135 13.36 18.0815 13.44 17.5802 13.44H15.8762L16.4522 12.872V15H15.1562ZM18.7162 15L17.3162 12.968H18.7002L20.1162 15H18.7162ZM16.4522 13.016L15.8762 12.408H17.5082C17.9082 12.408 18.2069 12.3227 18.4042 12.152C18.6015 11.976 18.7002 11.736 18.7002 11.432C18.7002 11.1227 18.6015 10.8827 18.4042 10.712C18.2069 10.5413 17.9082 10.456 17.5082 10.456H15.8762L16.4522 9.84V13.016Z" fill="#B7BCD9"/>
</svg>
