<svg xmlns="http://www.w3.org/2000/svg" width="24" height="24" viewBox="0 0 24 24">
  <g fill="#B7BCD9" fill-rule="evenodd" transform="translate(2 2)">
    <polygon points="2.222 17.778 2.222 5.556 17.778 5.556 17.778 17.778" opacity=".3"/>
    <path d="M19.4888889,2.47777778 L17.9444444,0.611111111 C17.6444444,0.233333333 17.1888889,0 16.6666667,0 L3.33333333,0 C2.81111111,0 2.35555556,0.233333333 2.04444444,0.611111111 L0.511111111,2.47777778 C0.188888889,2.85555556 0,3.35555556 0,3.88888889 L0,17.7777778 C0,19 1,20 2.22222222,20 L17.7777778,20 C19,20 20,19 20,17.7777778 L20,3.88888889 C20,3.35555556 19.8111111,2.85555556 19.4888889,2.47777778 Z M3.6,2.22222222 L16.4,2.22222222 L17.3,3.3 L2.71111111,3.3 L3.6,2.22222222 Z M2.22222222,17.7777778 L2.22222222,5.55555556 L17.7777778,5.55555556 L17.7777778,17.7777778 L2.22222222,17.7777778 Z M11.6111111,7.77777778 L8.38888889,7.77777778 L8.38888889,11.1111111 L5.55555556,11.1111111 L10,15.5555556 L14.4444444,11.1111111 L11.6111111,11.1111111 L11.6111111,7.77777778 Z"/>
  </g>
</svg>
