<svg xmlns="http://www.w3.org/2000/svg" width="24" height="24" viewBox="0 0 24 24">
  <path fill="#B7BCD9" fill-rule="evenodd" d="M6.32901658,16.8741538 L5.07692308,17.5129385 C4.78206308,17.1416507 4.51079188,16.7321492 4.26735546,16.2910386 L6.32901658,16.8741538 Z M20.5200387,9.62956148 L7.83162315,16.107046 L3.65451843,14.9257189 C3.31719859,13.9689571 3.14594391,12.9853042 3.14594391,12.0002359 C3.14594391,10.5344279 3.51723162,9.08135777 4.22112141,7.78774798 C4.43577949,7.85757083 4.65657066,7.89295403 4.87972071,7.89295403 C6.06953978,7.89295403 7.03762414,6.9243979 7.03762414,5.73457882 C7.03762414,5.42415021 6.96780129,5.12032647 6.8300427,4.82924068 C8.3515203,3.72764371 10.1357771,3.14594391 11.9997641,3.14594391 C15.9716463,3.14594391 19.4552403,5.80487345 20.5200387,9.62956148 L20.5200387,9.62956148 Z M19.4061755,16.829335 C17.7573184,19.3538084 15.0030901,20.8545279 11.9997641,20.8545279 C9.70174321,20.8545279 7.53865025,19.9812705 5.88082938,18.3904418 L14.1458731,14.171349 L19.4061755,16.829335 Z M20.8540561,12.0002359 C20.8540561,13.3330031 20.557309,14.6209516 19.971835,15.831057 L15.4102328,13.5250159 L20.761588,10.7924893 C20.8238624,11.2236926 20.8540561,11.6204562 20.8540561,12.0002359 L20.8540561,12.0002359 Z M11.9997641,2 C9.86167528,2 7.81982875,2.67511146 6.08605194,3.9540962 C5.72419975,3.70641379 5.30950865,3.57620362 4.87972071,3.57620362 C3.68942986,3.57620362 2.72134551,4.54428797 2.72134551,5.73457882 C2.72134551,6.26532682 2.91147123,6.76635294 3.2601137,7.16075767 C2.43497747,8.64449319 2,10.315052 2,12.0002359 C2,17.5143538 6.48611799,22.0004718 11.9997641,22.0004718 C17.513882,22.0004718 22,17.5143538 22,12.0002359 C22,6.48564622 17.513882,2 11.9997641,2 L11.9997641,2 Z"/>
</svg>
