<svg xmlns="http://www.w3.org/2000/svg" width="24" height="24" viewBox="0 0 24 24">
  <path fill="#B7BCD9" fill-rule="evenodd" d="M17,9.5 L5.5,9.5 C3.29,9.5 1.5,7.71 1.5,5.5 C1.5,3.29 3.29,1.5 5.5,1.5 L18,1.5 C19.38,1.5 20.5,2.62 20.5,4 C20.5,5.38 19.38,6.5 18,6.5 L7.5,6.5 C6.95,6.5 6.5,6.05 6.5,5.5 C6.5,4.95 6.95,4.5 7.5,4.5 L17,4.5 L17,3 L7.5,3 C6.12,3 5,4.12 5,5.5 C5,6.88 6.12,8 7.5,8 L18,8 C20.21,8 22,6.21 22,4 C22,1.79 20.21,0 18,0 L5.5,0 C2.46,0 0,2.46 0,5.5 C0,8.54 2.46,11 5.5,11 L17,11 L17,9.5 Z" transform="translate(1 6)"/>
</svg>
