<svg xmlns="http://www.w3.org/2000/svg" width="24" height="24" viewBox="0 0 24 24">
  <g fill="#B7BCD9" fill-rule="evenodd" transform="translate(2 4)">
    <path d="M18.4210526,6.98773006 C18.4656842,6.98773006 18.5027368,7.01442945 18.5195789,7.03028221 L16.3107368,15.0476074 C16.144,15.3471411 15.8181053,15.5398773 15.4736842,15.5398773 L4.52631579,15.5398773 C4.18357895,15.5398773 3.85515789,15.3463067 3.71705263,15.1143558 L1.53936842,7.29727607 L1.48294737,7.04947239 C1.49894737,7.01359509 1.536,6.98773006 1.57894737,6.98773006 L18.4210526,6.98773006 Z M9.99991579,10.0121031 C9.30349474,10.0121031 8.73675789,10.5736245 8.73675789,11.2636368 C8.73675789,11.9536491 9.30349474,12.5151706 9.99991579,12.5151706 C10.6963368,12.5151706 11.2630737,11.9536491 11.2630737,11.2636368 C11.2630737,10.5736245 10.6963368,10.0121031 9.99991579,10.0121031 Z" opacity=".3"/>
    <path d="M9.99991579,12.5151706 C9.30349474,12.5151706 8.73675789,11.9536491 8.73675789,11.2636368 C8.73675789,10.5736245 9.30349474,10.0121031 9.99991579,10.0121031 C10.6963368,10.0121031 11.2630737,10.5736245 11.2630737,11.2636368 C11.2630737,11.9536491 10.6963368,12.5151706 9.99991579,12.5151706 M10,0 C10.2863158,0 10.5465263,0.141840491 10.6989474,0.367116564 L10.6989474,0.367116564 L14.3427368,5.52760736 L18.4210526,5.52760736 C19.2917895,5.52760736 20,6.22930061 20,7.09202454 L20,7.09202454 L19.9595789,7.42993865 L17.6909474,15.5482209 C17.232,16.4776933 16.4109474,17 15.4736842,17 L15.4736842,17 L4.52631579,17 C3.60757895,17 2.77894737,16.4952147 2.36210526,15.6833865 L2.36210526,15.6833865 L2.31831579,15.5757546 L0,7.09202454 C0,6.22930061 0.708210526,5.52760736 1.57894737,5.52760736 L1.57894737,5.52760736 L5.65726316,5.52760736 L9.30947368,0.358773006 C9.46021053,0.141840491 9.71368421,0 10,0 Z M18.4210526,6.98773006 L1.57894737,6.98773006 C1.536,6.98773006 1.49894737,7.01359509 1.48294737,7.04947239 L1.48294737,7.04947239 L1.53936842,7.29727607 L3.71705263,15.1143558 C3.85515789,15.3463067 4.18357895,15.5398773 4.52631579,15.5398773 L4.52631579,15.5398773 L15.4736842,15.5398773 C15.8181053,15.5398773 16.144,15.3471411 16.3107368,15.0476074 L16.3107368,15.0476074 L18.5195789,7.03028221 C18.5027368,7.01442945 18.4656842,6.98773006 18.4210526,6.98773006 L18.4210526,6.98773006 Z M9.99991579,8.8648638 C11.3346526,8.8648638 12.4209684,9.94118282 12.4209684,11.2636368 C12.4209684,12.5860908 11.3346526,13.6624098 9.99991579,13.6624098 C8.66433684,13.6624098 7.57886316,12.5860908 7.57886316,11.2636368 C7.57886316,9.94118282 8.66433684,8.8648638 9.99991579,8.8648638 Z M10,2.28613497 L7.696,5.52760736 L12.3031579,5.52760736 L10,2.28613497 Z"/>
  </g>
</svg>
