<svg xmlns="http://www.w3.org/2000/svg" width="24" height="24" viewBox="0 0 24 24">
  <path fill="#B7BCD9" fill-rule="evenodd" d="M16.7368421,13.5789474 L18.8421053,13.5789474 L18.8421053,16.7368421 L22,16.7368421 L22,18.8421053 L18.8421053,18.8421053 L18.8421053,22 L16.7368421,22 L16.7368421,18.8421053 L13.5789474,18.8421053 L13.5789474,16.7368421 L16.7368421,16.7368421 L16.7368421,13.5789474 L16.7368421,13.5789474 Z M18.8421053,2 C20.0105263,2 20.9473684,2.93684211 20.9473684,4.10526316 L20.9473684,12.3157895 C20.3052632,11.9473684 19.6,11.6842105 18.8421053,11.5578947 L18.8421053,4.10526316 L4.10526316,4.10526316 L4.10526316,18.8421053 L11.5578947,18.8421053 C11.6842105,19.6 11.9473684,20.3052632 12.3157895,20.9473684 L4.10526316,20.9473684 C2.93684211,20.9473684 2,20.0105263 2,18.8421053 L2,4.10526316 C2,2.93684211 2.93684211,2 4.10526316,2 L18.8421053,2 Z M6.21052632,6.21052632 L16.7368421,6.21052632 L16.7368421,8.31578947 L6.21052632,8.31578947 L6.21052632,6.21052632 L6.21052632,6.21052632 Z M6.21052632,10.4210526 L16.7368421,10.4210526 L16.7368421,11.5578947 C15.8421053,11.7052632 15.0210526,12.0421053 14.2947368,12.5263158 L6.21052632,12.5263158 L6.21052632,10.4210526 L6.21052632,10.4210526 Z M6.21052632,14.6315789 L11.4736842,14.6315789 L11.4736842,16.7368421 L6.21052632,16.7368421 L6.21052632,14.6315789 Z"/>
</svg>
