<svg xmlns="http://www.w3.org/2000/svg" width="24" height="24" viewBox="0 0 24 24">
  <g fill="#B7BCD9" fill-rule="evenodd" transform="translate(1 2.45)">
    <path d="M5.11,5.4767624 L6.86,7.21305483 C6.63,7.75874674 6.5,8.354047 6.5,8.97911227 C6.5,11.4396867 8.52,13.4438642 11,13.4438642 C11.63,13.4438642 12.23,13.3148825 12.77,13.0866841 L13.75,14.0590078 C12.87,14.2971279 11.95,14.4360313 11,14.4360313 C7.21,14.4360313 3.83,12.3227154 2.18,8.97911227 C2.88,7.56031332 3.9,6.38955614 5.11,5.4767624 Z M11,1.53785901 C16,1.53785901 20.27,4.62349869 22,8.97911227 C21.31,10.7253264 20.21,12.2532637 18.82,13.4736292 L18.82,13.4736292 L17.41,12.0746736 C15.5804142,10.2594188 14.2037475,8.89353538 13.28,7.9770235 C13.2233382,7.73969427 13.1595612,7.33983561 13.0886688,6.77744751 C12.9286143,6.58751628 12.5657247,6.56405031 12,6.70704961 C11.1131876,5.8271835 10.1165209,4.83832362 9.01,3.74046997 L9.01,3.74046997 L7.36,2.10339426 C8.51,1.73629243 9.73,1.53785901 11,1.53785901 Z" opacity=".3"/>
    <path d="M11,3.52219321 C14.79,3.52219321 18.17,5.63550914 19.82,8.97911227 C19.23,10.1895561 18.4,11.2313316 17.41,12.0746736 L18.82,13.4736292 C20.21,12.2532637 21.31,10.7253264 22,8.97911227 C20.27,4.62349869 16,1.53785901 11,1.53785901 C9.73,1.53785901 8.51,1.73629243 7.36,2.10339426 L9.01,3.74046997 C9.66,3.61148825 10.32,3.52219321 11,3.52219321 Z M13.28,7.9770235 L15.35,10.0308094 C15.43,9.69347258 15.490037,9.33629243 15.490037,8.9691906 C15.5,6.50861619 13.48,4.51436031 11,4.51436031 C10.63,4.51436031 10.28,4.57389034 9.93,4.65326371 L12,6.70704961 C12.58,6.95509138 13.03,7.41148825 13.28,7.9770235 Z M1.01,1.40887728 L3.69,4.06788512 C2.06,5.33785901 0.77,7.02454308 0,8.97911227 C1.73,13.3347258 6,16.4203655 11,16.4203655 C12.52,16.4203655 13.98,16.1326371 15.32,15.6067885 L18.74,19 L20.15,17.6010444 L2.42,4.61852778e-14 L1.01,1.40887728 Z M8.51,8.85013055 L11.12,11.4396867 C11.08,11.4496084 11.04,11.45953 11,11.45953 C9.62,11.45953 8.5,10.3483029 8.5,8.97911227 C8.5,8.92950392 8.51,8.8997389 8.51,8.85013055 L8.51,8.85013055 Z M5.11,5.4767624 L6.86,7.21305483 C6.63,7.75874674 6.5,8.354047 6.5,8.97911227 C6.5,11.4396867 8.52,13.4438642 11,13.4438642 C11.63,13.4438642 12.23,13.3148825 12.77,13.0866841 L13.75,14.0590078 C12.87,14.2971279 11.95,14.4360313 11,14.4360313 C7.21,14.4360313 3.83,12.3227154 2.18,8.97911227 C2.88,7.56031332 3.9,6.38955614 5.11,5.4767624 Z"/>
  </g>
</svg>
