<?xml version="1.0" encoding="UTF-8"?>
<svg width="40px" height="40px" viewBox="0 0 40 40" version="1.1" xmlns="http://www.w3.org/2000/svg" xmlns:xlink="http://www.w3.org/1999/xlink">
    <!-- Generator: Sketch 59 (86127) - https://sketch.com -->
    <title></title>
    <desc>Created with Sketch.</desc>
    <g id="icon/40px/Building" stroke="none" stroke-width="1" fill="none" fill-rule="evenodd">
        <circle id="Oval" cx="20" cy="20" r="20"/>
        <path d="M20,15 L20,11 L10,11 L10,29 L30,29 L30,15 L20,15 Z M14,27 L12,27 L12,25 L14,25 L14,27 Z M14,23 L12,23 L12,21 L14,21 L14,23 Z M14,19 L12,19 L12,17 L14,17 L14,19 Z M14,15 L12,15 L12,13 L14,13 L14,15 Z M18,27 L16,27 L16,25 L18,25 L18,27 Z M18,23 L16,23 L16,21 L18,21 L18,23 Z M18,19 L16,19 L16,17 L18,17 L18,19 Z M18,15 L16,15 L16,13 L18,13 L18,15 Z M28,27 L20,27 L20,25 L22,25 L22,23 L20,23 L20,21 L22,21 L22,19 L20,19 L20,17 L28,17 L28,27 Z M26,19 L24,19 L24,21 L26,21 L26,19 Z M26,23 L24,23 L24,25 L26,25 L26,23 Z" id="Shape" fill="#5F697A"/>
    </g>
</svg>
