<svg xmlns="http://www.w3.org/2000/svg" width="24" height="24" viewBox="0 0 24 24">
  <path fill="#B7BCD9" fill-rule="evenodd" d="M7,15.3333333 L9.2,15.3333333 C9.2,16.5333333 10.707,17.5555556 12.5,17.5555556 C14.293,17.5555556 15.8,16.5333333 15.8,15.3333333 C15.8,14.1111111 14.656,13.6666667 12.236,13.0777778 C9.904,12.4888889 7,11.7555556 7,8.66666667 C7,6.67777778 8.617,4.98888889 10.85,4.42222222 L10.85,2 L14.15,2 L14.15,4.42222222 C16.383,4.98888889 18,6.67777778 18,8.66666667 L15.8,8.66666667 C15.8,7.46666667 14.293,6.44444444 12.5,6.44444444 C10.707,6.44444444 9.2,7.46666667 9.2,8.66666667 C9.2,9.88888889 10.344,10.3333333 12.764,10.9222222 C15.096,11.5111111 18,12.2444444 18,15.3333333 C18,17.3222222 16.383,19.0111111 14.15,19.5777778 L14.15,22 L10.85,22 L10.85,19.5777778 C8.617,19.0111111 7,17.3222222 7,15.3333333 Z"/>
</svg>
