<svg width="22" height="16" viewBox="0 0 22 16" fill="none" xmlns="http://www.w3.org/2000/svg">
<path d="M21.5 0.649902L15.5 4.3999V3.4999C15.5 2.90317 15.2629 2.33087 14.841 1.90891C14.419 1.48696 13.8467 1.2499 13.25 1.2499H2.75C2.15326 1.2499 1.58097 1.48696 1.15901 1.90891C0.737053 2.33087 0.5 2.90317 0.5 3.4999V12.4999C0.5 13.0966 0.737053 13.6689 1.15901 14.0909C1.58097 14.5128 2.15326 14.7499 2.75 14.7499H13.25C13.8467 14.7499 14.419 14.5128 14.841 14.0909C15.2629 13.6689 15.5 13.0966 15.5 12.4999V11.5999L21.5 15.3499V0.649902ZM14 12.4999C14 12.6988 13.921 12.8896 13.7803 13.0302C13.6397 13.1709 13.4489 13.2499 13.25 13.2499H2.75C2.55109 13.2499 2.36032 13.1709 2.21967 13.0302C2.07902 12.8896 2 12.6988 2 12.4999V3.4999C2 3.30099 2.07902 3.11022 2.21967 2.96957C2.36032 2.82892 2.55109 2.7499 2.75 2.7499H13.25C13.4489 2.7499 13.6397 2.82892 13.7803 2.96957C13.921 3.11022 14 3.30099 14 3.4999V12.4999ZM20 12.6499L15.5 9.8374V6.1624L20 3.3499V12.6499Z" fill="black"/>
<path d="M7.25 5H4.25V6.5H7.25V5Z" fill="black"/>
</svg>
