<svg xmlns="http://www.w3.org/2000/svg" width="24" height="24" viewBox="0 0 24 24">
  <g fill="#B7BCD9" fill-rule="evenodd" transform="translate(5 2)">
    <path d="M8.57142857,9.9475983e-14 L1.9047619,9.9475983e-14 C0.852790953,9.9475983e-14 3.04645198e-13,0.852790953 3.04645198e-13,1.9047619 L3.04645198e-13,15.2380952 C3.04645198e-13,16.2900662 0.852790953,17.1428571 1.9047619,17.1428571 L2.85714286,17.1428571 L10.4761905,17.1428571 L11.4285714,17.1428571 C12.4805424,17.1428571 13.3333333,16.2900662 13.3333333,15.2380952 L13.3333333,4.76190476" opacity=".3"/>
    <path d="M8.57142857,10.4761905 L8.57142857,8.57142857 L6.66666667,9.52380952 L4.76190476,8.57142857 L4.76190476,10.4761905 L2.85714286,11.4285714 L4.76190476,12.3809524 L4.76190476,14.2857143 L6.66666667,13.3333333 L8.57142857,14.2857143 L8.57142857,12.3809524 L10.4761905,11.4285714 M8.57142857,0 L1.9047619,0 C0.852790953,0 3.04645198e-13,0.852790953 3.04645198e-13,1.9047619 L3.04645198e-13,15.2380952 C3.04645198e-13,16.2900662 0.852790953,17.1428571 1.9047619,17.1428571 L2.85714286,17.1428571 L2.85714286,15.2380952 L1.9047619,15.2380952 L1.9047619,1.9047619 L7.61904762,1.9047619 L7.61904762,5.71428571 L11.4285714,5.71428571 L11.4285714,15.2380952 L10.4761905,15.2380952 L10.4761905,17.1428571 L11.4285714,17.1428571 C12.4805424,17.1428571 13.3333333,16.2900662 13.3333333,15.2380952 L13.3333333,4.76190476 M8.57142857,10.4761905 L8.57142857,8.57142857 L6.66666667,9.52380952 L4.76190476,8.57142857 L4.76190476,10.4761905 L2.85714286,11.4285714 L4.76190476,12.3809524 L4.76190476,14.2857143 L6.66666667,13.3333333 L8.57142857,14.2857143 L8.57142857,12.3809524 L10.4761905,11.4285714 M4.76190476,20 L6.66666667,19.047619 L8.57142857,20 L8.57142857,15.2380952 L4.76190476,15.2380952 M8.57142857,10.4761905 L8.57142857,8.57142857 L6.66666667,9.52380952 L4.76190476,8.57142857 L4.76190476,10.4761905 L2.85714286,11.4285714 L4.76190476,12.3809524 L4.76190476,14.2857143 L6.66666667,13.3333333 L8.57142857,14.2857143 L8.57142857,12.3809524 L10.4761905,11.4285714 L8.57142857,10.4761905 Z"/>
  </g>
</svg>
