<svg xmlns="http://www.w3.org/2000/svg" width="24" height="24" viewBox="0 0 24 24">
  <g fill="#B7BCD9" fill-rule="evenodd" transform="translate(3 3)">
    <path d="M2,16 L16,16 L16,2 L2,2 L2,16 Z M4.41,8.6 L6.99,11.18 L13.58,4.59 L14.99,6 L6.99,14 L3,10.01 L4.41,8.6 Z" opacity=".3"/>
    <path d="M16,0 L2,0 C0.9,0 0,0.9 0,2 L0,16 C0,17.1 0.9,18 2,18 L16,18 C17.1,18 18,17.1 18,16 L18,2 C18,0.9 17.1,0 16,0 Z M16,16 L2,16 L2,2 L16,2 L16,16 Z M14.99,6 L13.58,4.58 L6.99,11.17 L4.41,8.6 L2.99,10.01 L6.99,14 L14.99,6 Z"/>
  </g>
</svg>
