<svg xmlns="http://www.w3.org/2000/svg" width="24" height="24" viewBox="0 0 24 24">
  <g fill="#B7BCD9" fill-rule="evenodd" transform="translate(2 4)">
    <polygon points="3.76 6 18 6 18 14 2 14 2 2.47" opacity=".3"/>
    <path d="M3,9.05941988e-14 L5,4 L8,4 L6,9.05941988e-14 L8,9.05941988e-14 L10,4 L13,4 L11,9.05941988e-14 L13,9.05941988e-14 L15,4 L18,4 L16,9.05941988e-14 L20,9.05941988e-14 L20,14 C20,15.104 19.104,16 18,16 L18,16 L2,16 C0.896,16 0,15.104 0,14 L0,14 L0,2 C0,0.896 0.896,9.05941988e-14 2,9.05941988e-14 L2,9.05941988e-14 L3,9.05941988e-14 Z M2,2.47 L2,14 L18,14 L18,6 L3.76,6 L2,2.47 Z M15.2162656,8.1208 L15.2162656,9.98934339 L17.084,9.98934339 L17.084,11.2535479 L15.2162656,11.2535479 L15.2162656,13.1208 L13.9504428,13.1208 L13.9504428,11.2535479 L12.084,11.2535479 L12.084,9.98934339 L13.9504428,9.98934339 L13.9504428,8.1208 L15.2162656,8.1208 Z"/>
  </g>
</svg>
