<?xml version="1.0" encoding="UTF-8"?>
<svg width="16px" height="16px" viewBox="0 0 16 16" version="1.1" xmlns="http://www.w3.org/2000/svg" xmlns:xlink="http://www.w3.org/1999/xlink">
    <!-- Generator: Sketch 56.3 (81716) - https://sketch.com -->
    <title></title>
    <desc>Created with Sketch.</desc>
    <g id="Icons" stroke="none" stroke-width="1" fill="none" fill-rule="evenodd">
        <g id="Artboard" transform="translate(-1000.000000, -707.000000)" fill="#9EB1FF">
            <g id="Group-2-Copy-20" transform="translate(992.000000, 699.000000)">
                <g id="icon/32px/MagnifyingGlass">
                    <path d="M18.7105775,13.9376822 L18.4580903,14.1883254 C19.3500286,15.2284032 19.89251,16.5767538 19.89251,18.054085 C19.89251,21.3380596 17.2304174,24 13.946255,24 C10.6620926,24 8,21.3380596 8,18.054085 C8,14.7701103 10.6620926,12.1081699 13.946255,12.1081699 C15.4236707,12.1081699 16.7711835,12.6497056 17.8113208,13.5406781 L18.0638079,13.2900349 L18.0638079,12.565548 L22.6360206,8 L24,9.36390144 L19.4369354,13.9376822 L18.7105775,13.9376822 Z M9.82961692,18.054085 C9.82961692,20.327254 11.6720412,22.1704877 13.946255,22.1704877 C16.219554,22.1704877 18.0628931,20.327254 18.0628931,18.054085 C18.0628931,15.7800011 16.219554,13.9376822 13.946255,13.9376822 C11.6720412,13.9376822 9.82961692,15.7800011 9.82961692,18.054085 Z" id="Mask" transform="translate(16.000000, 16.000000) scale(1, -1) translate(-16.000000, -16.000000) "/>
                </g>
            </g>
        </g>
    </g>
</svg>
