<svg xmlns="http://www.w3.org/2000/svg" width="24" height="24" viewBox="0 0 24 24">
  <path fill="#B7BCD9" fill-rule="evenodd" d="M7.76731302,11.5238095 L15.3019391,11.5238095 L15.3019391,13.4285714 L7.76731302,13.4285714 L7.76731302,11.5238095 L7.76731302,11.5238095 Z M9.65096953,19.1428571 L5.88365651,19.1428571 L5.88365651,3.9047619 L12.4764543,3.9047619 L12.4764543,8.66666667 L17.1855956,8.66666667 L17.1855956,11.6190476 L19.0692521,9.71428571 L19.0692521,7.71428571 L13.4182825,2 L5.88365651,2 C4.84334175,2 4,2.85279095 4,3.9047619 L4,19.1428571 C4,20.1948281 4.84334175,21.047619 5.88365651,21.047619 L9.65096953,21.047619 L9.65096953,19.1428571 L9.65096953,19.1428571 Z M11.5591583,17.2380952 L12.4764543,16.3142395 L12.4764543,15.3333333 L7.76731302,15.3333333 L7.76731302,17.2380952 L11.5591583,17.2380952 Z M19.2576177,12.4761905 C19.3518006,12.4761905 19.5401662,12.5714286 19.634349,12.6666667 L20.8587258,13.9047619 C21.0470914,14.0952381 21.0470914,14.4761905 20.8587258,14.6666667 L19.9168975,15.6190476 L17.9390582,13.6190476 L18.8808864,12.6666667 C18.9750693,12.5714286 19.0692521,12.4761905 19.2576177,12.4761905 L19.2576177,12.4761905 Z M19.2576177,16.1904762 L13.5124654,22 L11.534626,22 L11.534626,20 L17.2797784,14.1904762 L19.2576177,16.1904762 Z"/>
</svg>
