<?xml version="1.0" encoding="UTF-8"?>
<svg width="38px" height="38px" viewBox="0 0 38 38" version="1.1" xmlns="http://www.w3.org/2000/svg" xmlns:xlink="http://www.w3.org/1999/xlink">
    <title>icons/24px/check_circle copy</title>
    <defs>
        <filter x="-60.0%" y="-60.0%" width="220.0%" height="220.0%" filterUnits="objectBoundingBox" id="filter-1">
            <feOffset dx="0" dy="2" in="SourceAlpha" result="shadowOffsetOuter1"></feOffset>
            <feGaussianBlur stdDeviation="2" in="shadowOffsetOuter1" result="shadowBlurOuter1"></feGaussianBlur>
            <feColorMatrix values="0 0 0 0 0   0 0 0 0 0   0 0 0 0 0  0 0 0 0.5 0" type="matrix" in="shadowBlurOuter1" result="shadowMatrixOuter1"></feColorMatrix>
            <feMerge>
                <feMergeNode in="shadowMatrixOuter1"></feMergeNode>
                <feMergeNode in="SourceGraphic"></feMergeNode>
            </feMerge>
        </filter>
    </defs>
    <g id="Component" stroke="none" stroke-width="1" fill="none" fill-rule="evenodd">
        <g id="credit-cards" transform="translate(-441.000000, -3.000000)">
            <g id="Component/credit-card_director_description_filled" transform="translate(41.000000, 12.000000)">
                <g id="icons/24px/check_circle-copy" filter="url(#filter-1)" transform="translate(409.000000, 0.000000)">
                    <g id="group">
                        <path d="M10,0 C4.5,0 0,4.5 0,10 C0,15.5 4.5,20 10,20 C15.5,20 20,15.5 20,10 C20,4.5 15.5,0 10,0" id="Path" fill="#B7BCD9" opacity="0.3"></path>
                        <path d="M10,0 C4.5,0 0,4.5 0,10 C0,15.5 4.5,20 10,20 C15.5,20 20,15.5 20,10 C20,4.5 15.5,0 10,0" id="Path-Copy" fill="#43455A" opacity="0.3"></path>
                        <path d="M10,0 C4.5,0 0,4.5 0,10 C0,15.5 4.5,20 10,20 C15.5,20 20,15.5 20,10 C20,4.5 15.5,0 10,0 M10,18 C5.59,18 2,14.41 2,10 C2,5.59 5.59,2 10,2 C14.41,2 18,5.59 18,10 C18,14.41 14.41,18 10,18" id="Shape" fill="#9EB1FF"></path>
                    </g>
                    <g id="hourglass_bottom-24px" transform="translate(6.000000, 4.000000)" fill="#9EB1FF" fill-rule="nonzero">
                        <path d="M7.5,11.8333333 L7.49416667,8.33333333 L5.16666667,6 L7.49416667,3.66083333 L7.5,0.166666667 L0.5,0.166666667 L0.5,3.66666667 L2.83333333,6 L0.5,8.3275 L0.5,11.8333333 L7.5,11.8333333 Z M1.66666667,3.375 L1.66666667,1.33333333 L6.33333333,1.33333333 L6.33333333,3.375 L4,5.70833333 L1.66666667,3.375 Z" id="Shape" transform="translate(4.000000, 6.000000) scale(-1, -1) translate(-4.000000, -6.000000) "></path>
                        <polygon id="Triangle" transform="translate(4.000000, 10.375000) scale(-1, 1) translate(-4.000000, -10.375000) " points="4 9.5 6.625 11.25 1.375 11.25"></polygon>
                        <polygon id="Triangle" transform="translate(4.000000, 7.312500) scale(-1, 1) translate(-4.000000, -7.312500) " points="4 6.875 4.4375 7.75 3.5625 7.75"></polygon>
                        <polygon id="Triangle-Copy" transform="translate(4.000000, 8.625000) scale(-1, 1) translate(-4.000000, -8.625000) " points="4 8.1875 4.4375 9.0625 3.5625 9.0625"></polygon>
                    </g>
                </g>
            </g>
        </g>
    </g>
</svg>