<?xml version="1.0" encoding="UTF-8"?>
<svg width="24px" height="24px" viewBox="0 0 42 42" version="1.1" xmlns="http://www.w3.org/2000/svg" xmlns:xlink="http://www.w3.org/1999/xlink">
    <title>Estimated</title>
    <defs>
        <filter x="-50.0%" y="-50.0%" width="200.0%" height="200.0%" filterUnits="objectBoundingBox" id="filter-1">
            <feOffset dx="0" dy="2" in="SourceAlpha" result="shadowOffsetOuter1"></feOffset>
            <feGaussianBlur stdDeviation="2" in="shadowOffsetOuter1" result="shadowBlurOuter1"></feGaussianBlur>
            <feColorMatrix values="0 0 0 0 0   0 0 0 0 0   0 0 0 0 0  0 0 0 0.5 0" type="matrix" in="shadowBlurOuter1" result="shadowMatrixOuter1"></feColorMatrix>
            <feMerge>
                <feMergeNode in="shadowMatrixOuter1"></feMergeNode>
                <feMergeNode in="SourceGraphic"></feMergeNode>
            </feMerge>
        </filter>
    </defs>
    <g id="Component" stroke="none" stroke-width="1" fill="none" fill-rule="evenodd">
        <g id="credit-cards" transform="translate(-800.000000, -70.000000)">
            <g id="icons/24px/check_circle-copy" filter="url(#filter-1)" transform="translate(809.000000, 79.000000)">
                <g id="group">
                    <path d="M12,0 C5.4,0 0,5.4 0,12 C0,18.6 5.4,24 12,24 C18.6,24 24,18.6 24,12 C24,5.4 18.6,0 12,0" id="Path" fill="#B7BCD9" opacity="0.3"></path>
                    <path d="M12,0 C5.4,0 0,5.4 0,12 C0,18.6 5.4,24 12,24 C18.6,24 24,18.6 24,12 C24,5.4 18.6,0 12,0" id="Path-Copy" fill="#43455A" opacity="0.3"></path>
                    <path d="M12,0 C5.4,0 0,5.4 0,12 C0,18.6 5.4,24 12,24 C18.6,24 24,18.6 24,12 C24,5.4 18.6,0 12,0 M12,21.6 C6.708,21.6 2.4,17.292 2.4,12 C2.4,6.708 6.708,2.4 12,2.4 C17.292,2.4 21.6,6.708 21.6,12 C21.6,17.292 17.292,21.6 12,21.6" id="Shape" fill="#9EB1FF"></path>
                </g>
                <g id="hourglass_bottom-24px" transform="translate(7.200000, 4.800000)" fill="#9EB1FF" fill-rule="nonzero">
                    <path d="M9,14.2 L8.993,10 L6.2,7.2 L8.993,4.393 L9,0.2 L0.6,0.2 L0.6,4.4 L3.4,7.2 L0.6,9.993 L0.6,14.2 L9,14.2 Z M2,4.05 L2,1.6 L7.6,1.6 L7.6,4.05 L4.8,6.85 L2,4.05 Z" id="Shape" transform="translate(4.800000, 7.200000) scale(-1, -1) translate(-4.800000, -7.200000) "></path>
                    <polygon id="Triangle" transform="translate(4.800000, 12.450000) scale(-1, 1) translate(-4.800000, -12.450000) " points="4.8 11.4 7.95 13.5 1.65 13.5"></polygon>
                    <polygon id="Triangle" transform="translate(4.800000, 8.775000) scale(-1, 1) translate(-4.800000, -8.775000) " points="4.8 8.25 5.325 9.3 4.275 9.3"></polygon>
                    <polygon id="Triangle-Copy" transform="translate(4.800000, 10.350000) scale(-1, 1) translate(-4.800000, -10.350000) " points="4.8 9.825 5.325 10.875 4.275 10.875"></polygon>
                </g>
            </g>
        </g>
    </g>
</svg>