<?xml version="1.0" encoding="UTF-8"?>
<svg width="40px" height="40px" viewBox="0 0 40 40" version="1.1" xmlns="http://www.w3.org/2000/svg" xmlns:xlink="http://www.w3.org/1999/xlink">
    <!-- Generator: Sketch 59 (86127) - https://sketch.com -->
    <title></title>
    <desc>Created with Sketch.</desc>
    <g id="icon/40px/Group" stroke="none" stroke-width="1" fill="none" fill-rule="evenodd">
        <circle id="Oval" cx="20" cy="20" r="20"/>
        <path d="M17,21.75 C14.66,21.75 10,22.92 10,25.25 L10,27 L24,27 L24,25.25 C24,22.92 19.34,21.75 17,21.75 Z M12.34,25 C13.18,24.42 15.21,23.75 17,23.75 C18.79,23.75 20.82,24.42 21.66,25 L12.34,25 Z M17,20 C18.93,20 20.5,18.43 20.5,16.5 C20.5,14.57 18.93,13 17,13 C15.07,13 13.5,14.57 13.5,16.5 C13.5,18.43 15.07,20 17,20 Z M17,15 C17.83,15 18.5,15.67 18.5,16.5 C18.5,17.33 17.83,18 17,18 C16.17,18 15.5,17.33 15.5,16.5 C15.5,15.67 16.17,15 17,15 Z M24.04,21.81 C25.2,22.65 26,23.77 26,25.25 L26,27 L30,27 L30,25.25 C30,23.23 26.5,22.08 24.04,21.81 L24.04,21.81 Z M23,20 C24.93,20 26.5,18.43 26.5,16.5 C26.5,14.57 24.93,13 23,13 C22.46,13 21.96,13.13 21.5,13.35 C22.13,14.24 22.5,15.33 22.5,16.5 C22.5,17.67 22.13,18.76 21.5,19.65 C21.96,19.87 22.46,20 23,20 Z" id="group" fill="#5F697A"/>
    </g>
</svg>
