<svg xmlns="http://www.w3.org/2000/svg" width="24" height="24" viewBox="0 0 24 24">
  <g fill="#B7BCD9" fill-rule="evenodd">
    <path d="M19.6573298,3.98240694 C17.0183445,2.19739197 13.7595976,3.03039896 12.0002741,5.07324941 C10.2409506,3.03039896 6.98220368,2.18747522 4.34321844,3.98240694 C2.94375657,4.93441492 2.06409483,6.54092838 2.00411789,8.2366926 C1.8641717,12.0843915 5.30284944,15.1685007 10.5508315,19.8987904 L10.650793,19.9880411 C11.4105009,20.6722968 12.5800512,20.6722968 13.339759,19.9781244 L13.4497168,19.8789569 C18.6976988,15.158584 22.1263803,12.0744748 21.9964303,8.22677585 C21.9364534,6.54092838 21.0567916,4.93441492 19.6573298,3.98240694 L19.6573298,3.98240694 Z M12.1002357,18.4211946 L12.0002741,18.5203621 L11.9003125,18.4211946 C7.14214218,14.1470755 4.00334913,11.3208018 4.00334913,8.45486109 C4.00334913,6.47151113 5.50277257,4.98399867 7.50200381,4.98399867 C9.04141186,4.98399867 10.5408353,5.96575689 11.0706316,7.32435162 L12.9399128,7.32435162 C13.4597129,5.96575689 14.9591363,4.98399867 16.4985444,4.98399867 C18.4977756,4.98399867 19.9971991,6.47151113 19.9971991,8.45486109 C19.9971991,11.3208018 16.858406,14.1470755 12.1002357,18.4211946 Z"/>
  </g>
</svg>
