<?xml version="1.0" encoding="UTF-8"?>
<svg width="72px" height="72px" viewBox="0 0 72 72" version="1.1" xmlns="http://www.w3.org/2000/svg" xmlns:xlink="http://www.w3.org/1999/xlink">
    <!-- Generator: Sketch 59 (86127) - https://sketch.com -->
    <title>heart</title>
    <desc>Created with Sketch.</desc>
    <g id="icon/72px/Heart" stroke="none" stroke-width="1" fill="none" fill-rule="evenodd">
        <circle id="Oval" cx="36" cy="36" r="36"></circle>
        <path d="M54.3775914,17.3577766 C48.0440269,13.0737407 40.2230342,15.0729575 36.0006578,19.9757986 C31.7782815,15.0729575 23.9572888,13.0499405 17.6237243,17.3577766 C14.2650158,19.6425958 12.1538276,23.4982281 12.0098829,27.5680622 C11.6740121,36.8025396 19.9268387,44.2044017 32.5219955,55.5570969 L32.7619032,55.7712986 C34.5852021,57.4135124 37.3921228,57.4135124 39.2154217,55.7474984 L39.4793202,55.5094965 C52.074477,44.1806015 60.3033128,36.7787394 59.9914328,27.544262 C59.8474881,23.4982281 57.7362999,19.6425958 54.3775914,17.3577766 L54.3775914,17.3577766 Z M36.2405656,52.0108671 L36.0006578,52.2488691 L35.7607501,52.0108671 C24.3411412,41.7529811 16.8080379,34.9699243 16.8080379,28.0916666 C16.8080379,23.3316267 20.4066542,19.7615968 25.2048091,19.7615968 C28.8993885,19.7615968 32.4980047,22.1178165 33.7695158,25.3784439 L38.2557907,25.3784439 C39.503311,22.1178165 43.1019272,19.7615968 46.7965066,19.7615968 C51.5946615,19.7615968 55.1932778,23.3316267 55.1932778,28.0916666 C55.1932778,34.9699243 47.6601745,41.7529811 36.2405656,52.0108671 Z" id="Shape" fill="#5F697A" fill-rule="nonzero"></path>
    </g>
</svg>