<svg xmlns="http://www.w3.org/2000/svg" width="24" height="24" viewBox="0 0 24 24">
  <g fill="#B7BCD9" fill-rule="evenodd" transform="translate(2 6)">
    <path d="M5.83333333,1.64285714 C7.59166667,1.64285714 9.16666667,2.74357143 9.75833333,4.37821429 L9.75833333,4.37821429 L9.95,4.92857143 L18.3333333,4.92857143 L18.3333333,6.57142857 L16.6666667,6.57142857 L16.6666667,9.85714286 L15,9.85714286 L15,6.57142857 L9.95,6.57142857 L9.75833333,7.12178571 C9.16666667,8.75642857 7.59166667,9.85714286 5.83333333,9.85714286 C3.53214688,9.85714286 1.66666667,8.01831237 1.66666667,5.75 C1.66666667,3.48168763 3.53214688,1.64285714 5.83333333,1.64285714 Z M5.83333333,4.92857143 C5.37309604,4.92857143 5,5.29633753 5,5.75 C5,6.20366247 5.37309604,6.57142857 5.83333333,6.57142857 C6.29357062,6.57142857 6.66666667,6.20366247 6.66666667,5.75 C6.66666667,5.29633753 6.29357062,4.92857143 5.83333333,4.92857143 Z" opacity=".3"/>
    <path d="M18.3333333,11.5 L13.3333333,11.5 L13.3333333,8.21428571 L11.1,8.21428571 C10.15,10.2021429 8.1,11.5 5.83333333,11.5 C2.61666667,11.5 0,8.92071429 0,5.75 C0,2.57928571 2.61666667,0 5.83333333,0 C8.1,0 10.1416667,1.29785714 11.1,3.28571429 L20,3.28571429 L20,8.21428571 L18.3333333,8.21428571 L18.3333333,11.5 L18.3333333,11.5 Z M15,9.85714286 L16.6666667,9.85714286 L16.6666667,6.57142857 L18.3333333,6.57142857 L18.3333333,4.92857143 L9.95,4.92857143 L9.75833333,4.37821429 C9.16666667,2.74357143 7.59166667,1.64285714 5.83333333,1.64285714 C3.53214688,1.64285714 1.66666667,3.48168763 1.66666667,5.75 C1.66666667,8.01831237 3.53214688,9.85714286 5.83333333,9.85714286 C7.59166667,9.85714286 9.16666667,8.75642857 9.75833333,7.12178571 L9.95,6.57142857 L15,6.57142857 L15,9.85714286 L15,9.85714286 Z M5.83333333,8.21428571 C4.45262146,8.21428571 3.33333333,7.11098742 3.33333333,5.75 C3.33333333,4.38901258 4.45262146,3.28571429 5.83333333,3.28571429 C7.21404521,3.28571429 8.33333333,4.38901258 8.33333333,5.75 C8.33333333,7.11098742 7.21404521,8.21428571 5.83333333,8.21428571 L5.83333333,8.21428571 Z M5.83333333,4.92857143 C5.37309604,4.92857143 5,5.29633753 5,5.75 C5,6.20366247 5.37309604,6.57142857 5.83333333,6.57142857 C6.29357062,6.57142857 6.66666667,6.20366247 6.66666667,5.75 C6.66666667,5.29633753 6.29357062,4.92857143 5.83333333,4.92857143 Z"/>
  </g>
</svg>
