<svg xmlns="http://www.w3.org/2000/svg" width="24" height="24" viewBox="0 0 24 24">
  <path fill="#5D6E84" fill-rule="evenodd" d="M19,3 C20.1045695,3 21,3.8954305 21,5 L21,19 C21,20.1045695 20.1045695,21 19,21 L5,21 C3.8954305,21 3,20.1045695 3,19 L3,5 C3,3.8954305 3.8954305,3 5,3 L19,3 M18.5,18.5 L18.5,13.2 C18.5,11.3995517 17.0404483,9.94 15.24,9.94 C14.39,9.94 13.4,10.46 12.92,11.24 L12.92,10.13 L10.13,10.13 L10.13,18.5 L12.92,18.5 L12.92,13.57 C12.92,12.8 13.54,12.17 14.31,12.17 C15.0831986,12.17 15.71,12.7968014 15.71,13.57 L15.71,18.5 L18.5,18.5 M6.88,8.56 C7.80783838,8.56 8.56,7.80783838 8.56,6.88 C8.56,5.95 7.81,5.19 6.88,5.19 C5.94663877,5.19 5.19,5.94663877 5.19,6.88 C5.19,7.81 5.95,8.56 6.88,8.56 M8.27,18.5 L8.27,10.13 L5.5,10.13 L5.5,18.5 L8.27,18.5 Z"/>
</svg>
