<svg xmlns="http://www.w3.org/2000/svg" width="24" height="24" viewBox="0 0 24 24">
  <g fill="#B7BCD9" fill-rule="evenodd" transform="translate(2 4)">
    <polygon points="0 0 0 16 20 16 20 0" opacity=".3"/>
    <path d="M0,0 L0,16 L20,16 L20,0 L0,0 Z M4.70588235,2.28571429 L4.70588235,4.57142857 L2.35294118,4.57142857 L2.35294118,2.28571429 L4.70588235,2.28571429 Z M2.35294118,9.14285714 L2.35294118,6.85714286 L4.70588235,6.85714286 L4.70588235,9.14285714 L2.35294118,9.14285714 Z M2.35294118,11.4285714 L4.70588235,11.4285714 L4.70588235,13.7142857 L2.35294118,13.7142857 L2.35294118,11.4285714 Z M17.6470588,13.7142857 L7.05882353,13.7142857 L7.05882353,11.4285714 L17.6470588,11.4285714 L17.6470588,13.7142857 Z M17.6470588,9.14285714 L7.05882353,9.14285714 L7.05882353,6.85714286 L17.6470588,6.85714286 L17.6470588,9.14285714 Z M17.6470588,4.57142857 L7.05882353,4.57142857 L7.05882353,2.28571429 L17.6470588,2.28571429 L17.6470588,4.57142857 Z"/>
  </g>
</svg>
