<svg xmlns="http://www.w3.org/2000/svg" width="24" height="24" viewBox="0 0 24 24">
  <path fill="#B7BCD9" fill-rule="evenodd" d="M6.86486486,4.53333333 L22,4.53333333 L22,6.66666667 L6.86486486,6.66666667 L6.86486486,4.53333333 L6.86486486,4.53333333 Z M6.86486486,13.0666667 L6.86486486,10.9333333 L22,10.9333333 L22,13.0666667 L6.86486486,13.0666667 L6.86486486,13.0666667 Z M3.62162162,4 C4.51721851,4 5.24324324,4.7163444 5.24324324,5.6 C5.24324324,6.4836556 4.51721851,7.2 3.62162162,7.2 C2.72602473,7.2 2,6.4836556 2,5.6 C2,4.7163444 2.72602473,4 3.62162162,4 L3.62162162,4 Z M3.62162162,10.4 C4.51721851,10.4 5.24324324,11.1163444 5.24324324,12 C5.24324324,12.8836556 4.51721851,13.6 3.62162162,13.6 C2.72602473,13.6 2,12.8836556 2,12 C2,11.1163444 2.72602473,10.4 3.62162162,10.4 L3.62162162,10.4 Z M6.86486486,19.4666667 L6.86486486,17.3333333 L22,17.3333333 L22,19.4666667 L6.86486486,19.4666667 L6.86486486,19.4666667 Z M3.62162162,16.8 C4.51721851,16.8 5.24324324,17.5163444 5.24324324,18.4 C5.24324324,19.2836556 4.51721851,20 3.62162162,20 C2.72602473,20 2,19.2836556 2,18.4 C2,17.5163444 2.72602473,16.8 3.62162162,16.8 Z"/>
</svg>
