<svg xmlns="http://www.w3.org/2000/svg" width="24" height="24" viewBox="0 0 24 24">
  <g fill="#B7BCD9" fill-rule="evenodd">
    <path d="M9.87777778,15.9888889 L11.4444444,17.5555556 L17,12 L11.4444444,6.44444444 L9.87777778,8.01111111 L12.7444444,10.8888889 L2,10.8888889 L2,13.1111111 L12.7444444,13.1111111 L9.87777778,15.9888889 Z M19.7777778,2 L4.22222222,2 C2.98888889,2 2,3 2,4.22222222 L2,8.66666667 L4.22222222,8.66666667 L4.22222222,4.22222222 L19.7777778,4.22222222 L19.7777778,19.7777778 L4.22222222,19.7777778 L4.22222222,15.3333333 L2,15.3333333 L2,19.7777778 C2,21 2.98888889,22 4.22222222,22 L19.7777778,22 C21,22 22,21 22,19.7777778 L22,4.22222222 C22,3 21,2 19.7777778,2 Z"/>
  </g>
</svg>
