<svg xmlns="http://www.w3.org/2000/svg" width="60" height="24" viewBox="0 0 60 24">
  <g fill="#B7BCD9" fill-rule="evenodd" transform="translate(2 2)">
    <path d="M8.81423769,2.07669325 C10.7078592,2.07669325 12.4052741,2.4342529 13.8594842,3.14021573 C15.3027431,3.8388534 16.4370909,4.84377456 17.231043,6.12567854 C18.02317,7.40941381 18.4251653,8.9380843 18.4251653,10.6686547 C18.4251653,12.4005985 18.02317,13.9301847 17.231043,15.2134621 C16.4370909,16.4962817 15.3027431,17.5007451 13.8594842,18.1993827 C12.4052741,18.9053456 10.7078592,19.263363 8.81423769,19.263363 L5.15384452,19.263363 L5.15384452,3.64931474 C5.92817601,3.50189579 6.52135865,2.86735332 6.62265599,2.07669325 L8.81423769,2.07669325 Z M2.99739749,2.07669325 C3.09595707,2.85224516 3.66860646,3.47671553 4.41966694,3.64061611 L4.41966694,19.263363 L0.735090175,19.263363 L0.735090175,2.07669325 L2.99739749,2.07669325 Z" opacity=".3"/>
    <path d="M4.80569195,4.39304112e-06 C5.64572982,-0.00182248409 6.3484231,0.566335672 6.56835697,1.33914064 L6.56835697,1.33914064 L8.81423769,1.33914064 C10.819195,1.33914064 12.6242954,1.72233837 14.1798028,2.47683042 C15.748999,3.23727418 16.9855567,4.3337599 17.8547974,5.73744476 C18.720844,7.13929833 19.1597992,8.79890616 19.1597992,10.6686547 C19.1597992,12.5397767 18.720844,14.2003001 17.8547974,15.6021537 C16.9855567,17.0053807 15.748999,18.1023243 14.1798028,18.8632259 C12.6242954,19.6172601 10.819195,20.0000044 8.81423769,20.0000044 L8.81423769,20.0000044 L0,20.0000044 L0,1.33914064 L3.05169652,1.33914064 C3.27026151,0.569540432 3.96793555,0.00138227586 4.80569195,4.39304112e-06 Z M2.99739749,2.07669325 L0.735090175,2.07669325 L0.735090175,19.263363 L4.41966694,19.263363 L4.41966694,3.64061611 C3.66860646,3.47671553 3.09595707,2.85224516 2.99739749,2.07669325 L2.99739749,2.07669325 Z M8.81423769,2.07669325 L6.62265599,2.07669325 C6.52135865,2.86735332 5.92817601,3.50189579 5.15384452,3.64931474 L5.15384452,3.64931474 L5.15384452,19.263363 L8.81423769,19.263363 C10.7078592,19.263363 12.4052741,18.9053456 13.8594842,18.1993827 C15.3027431,17.5007451 16.4370909,16.4962817 17.231043,15.2134621 C18.02317,13.9301847 18.4251653,12.4005985 18.4251653,10.6686547 C18.4251653,8.9380843 18.02317,7.40941381 17.231043,6.12567854 C16.4370909,4.84377456 15.3027431,3.8388534 13.8594842,3.14021573 C12.4052741,2.4342529 10.7078592,2.07669325 8.81423769,2.07669325 L8.81423769,2.07669325 Z M52.5627348,12.7830637 L53.8262138,15.7648639 L55.0969935,12.7830637 L56,12.7830637 L54.119611,17.1374168 C53.7513815,18.0503156 53.2403319,18.3300454 52.5695792,18.3300454 C52.1716905,18.3300454 51.7496183,18.194072 51.4940934,17.9605823 L51.87008,17.2665229 C52.0516851,17.4391221 52.3072099,17.5448792 52.5627348,17.5448792 C52.8940045,17.5448792 53.0892984,17.3873881 53.269991,16.987251 L53.3375225,16.8279286 L51.584896,12.7830637 L52.5627348,12.7830637 Z M32.7705117,12.7374646 C33.944557,12.7374646 34.8014777,13.5606301 34.8014777,14.8210164 C34.8014777,14.8960993 34.794177,15.0091815 34.7868763,15.1002883 L31.6347951,15.1002883 C31.7474998,15.6881328 32.236191,16.0662945 32.9361465,16.0662945 C33.3878779,16.0662945 33.7419623,15.9225381 34.02669,15.6277002 L34.5299826,16.2095931 C34.1690538,16.6394887 33.6055303,16.8665689 32.9137881,16.8665689 C31.5668072,16.8665689 30.695285,15.9976211 30.695285,14.798583 C30.695285,13.5986293 31.5759331,12.7374646 32.7705117,12.7374646 Z M46.0333453,12.7374646 C47.2060218,12.7374646 48.0629425,13.5606301 48.0629425,14.8210164 C48.0629425,14.8960993 48.0556418,15.0091815 48.0483411,15.1002883 L44.8976287,15.1002883 C45.0103334,15.6881328 45.4990247,16.0662945 46.1989802,16.0662945 C46.6493427,16.0662945 47.0034271,15.9225381 47.2895236,15.6277002 L47.7928163,16.2095931 C47.4318875,16.6394887 46.8669951,16.8665689 46.1752529,16.8665689 C44.8296409,16.8665689 43.9562935,15.9976211 43.9562935,14.798583 C43.9562935,13.5986293 44.8369416,12.7374646 46.0333453,12.7374646 Z M38.8186474,12.7830179 L38.8186474,16.8132325 L37.8791374,16.8132325 L37.8791374,12.7830179 L38.8186474,12.7830179 Z M40.3755237,12.7830637 L41.6257702,15.7717313 L42.9111513,12.7830637 L43.8141578,12.7830637 L42.0911904,16.8132783 L41.1211087,16.8132783 L39.3981413,12.7830637 L40.3755237,12.7830637 Z M51.2913619,12.7374646 L51.2913619,13.635713 C51.2092289,13.6210627 51.1403284,13.6132797 51.0727969,13.6132797 C50.3596088,13.6132797 49.9078774,14.0358502 49.9078774,14.8590157 L49.9078774,16.8130036 L48.9669985,16.8130036 L48.9669985,12.7832469 L49.862248,12.7832469 L49.862248,13.372007 C50.1337431,12.9494365 50.6224344,12.7374646 51.2913619,12.7374646 Z M36.6453175,11.2131434 L36.6453175,16.8127747 L35.7044386,16.8127747 L35.7044386,11.2131434 L36.6453175,11.2131434 Z M27.204177,11.5296363 C28.9107179,11.5296363 30.0770062,12.5867493 30.0770062,14.1712742 C30.0770062,15.7562569 28.9107179,16.812912 27.204177,16.812912 L24.9026284,16.812912 L24.9026284,11.5296363 L27.204177,11.5296363 Z M27.1585476,12.360127 L25.8800109,12.360127 L25.8800109,15.9828792 L27.1585476,15.9828792 C28.3321366,15.9828792 29.092323,15.2659286 29.092323,14.1712742 C29.092323,13.0770776 28.3321366,12.360127 27.1585476,12.360127 Z M46.0333453,13.4924144 C45.4228235,13.4924144 44.9793054,13.8856843 44.8898717,14.4735288 L47.1690619,14.4735288 C47.0928608,13.8930094 46.6493427,13.4924144 46.0333453,13.4924144 Z M32.7705117,13.4924144 C32.1613587,13.4924144 31.7178406,13.8856843 31.627038,14.4735288 L33.9062283,14.4735288 C33.831396,13.8930094 33.3878779,13.4924144 32.7705117,13.4924144 Z M38.3518583,10.9874367 C38.6981857,10.9874367 38.9537106,11.2204686 38.9537106,11.5299568 C38.9537106,11.8623362 38.7054865,12.118717 38.3518583,12.118717 C38.0068998,12.118717 37.7500061,11.8696614 37.7500061,11.5533058 C37.7500061,11.2364924 38.0068998,10.9874367 38.3518583,10.9874367 Z M33.7405478,4.96248802 C34.9145931,4.96248802 35.7715139,5.78565351 35.7715139,7.04603981 C35.7715139,7.12112276 35.7642132,7.23466283 35.7569125,7.32576957 L32.6048312,7.32576957 C32.7179922,7.91315629 33.2062271,8.29131796 33.9061826,8.29131796 C34.357914,8.29131796 34.7119984,8.14756159 34.9967261,7.85272367 L35.5000187,8.43461652 C35.1390899,8.86451217 34.5755664,9.09159231 33.8842805,9.09159231 C32.5368433,9.09159231 31.6653211,8.22264454 31.6653211,7.02406432 C31.6653211,5.8236528 32.5459692,4.96248802 33.7405478,4.96248802 Z M45.551681,4.96271693 C46.7097561,4.96271693 47.3791399,5.51485129 47.3791399,6.67634786 L47.3791399,9.03825594 L46.4911911,9.03825594 L46.4911911,8.54838549 C46.2653254,8.89541521 45.8304769,9.09136339 45.2290809,9.09136339 C44.3101041,9.09136339 43.7306103,8.58501132 43.7306103,7.88362672 C43.7306103,7.21245842 44.182798,6.68367303 45.4006476,6.68367303 L46.4396298,6.68367303 L46.4396298,6.62369823 C46.4396298,6.07247952 46.1079038,5.74834094 45.4389763,5.74834094 C44.9877012,5.74834094 44.5213684,5.89896466 44.2193016,6.14756247 L43.8506158,5.46128602 C44.2809013,5.12890663 44.9046557,4.96271693 45.551681,4.96271693 Z M40.608827,3.43839576 L40.608827,9.03802703 L39.7062768,9.03802703 L39.7062768,8.51748245 C39.3905211,8.90296929 38.9241883,9.09159231 38.3752662,9.09159231 C37.2098905,9.09159231 36.3443002,8.27529416 36.3443002,7.02406432 C36.3443002,5.77100318 37.2098905,4.96248802 38.3752662,4.96248802 C38.8949855,4.96248802 39.3526487,5.13600288 39.6684044,5.50729721 L39.6684044,3.43839576 L40.608827,3.43839576 Z M25.7067559,3.75493447 L27.7979529,7.25636363 L29.8512774,3.75493447 L30.6570932,3.75493447 L30.6643939,9.03821016 L29.7385727,9.03821016 L29.7308157,5.53678101 L28.0005476,8.43479964 L27.5647865,8.43479964 L25.8345183,5.58210547 L25.8345183,9.03821016 L24.902309,9.03821016 L24.902309,3.75493447 L25.7067559,3.75493447 Z M42.7843015,5.00827031 L42.7843015,9.03848485 L41.8434226,9.03848485 L41.8434226,5.00827031 L42.7843015,5.00827031 Z M46.4396298,7.30997469 L45.4695481,7.30997469 C44.8298234,7.30997469 44.6564316,7.55124733 44.6564316,7.84562742 C44.6564316,8.1857898 44.9416155,8.40508694 45.4225497,8.40508694 C45.8820381,8.40508694 46.2808394,8.19311496 46.4396298,7.77786964 L46.4396298,7.30997469 Z M38.4879709,5.76322019 C37.8117427,5.76322019 37.2920235,6.25354846 37.2920235,7.02406432 C37.2920235,7.79274888 37.8117427,8.28445062 38.4879709,8.28445062 C39.1646554,8.28445062 39.6843747,7.79274888 39.6843747,7.02406432 C39.6843747,6.25354846 39.1646554,5.76322019 38.4879709,5.76322019 Z M33.7405478,5.7174379 C33.1313948,5.7174379 32.6878767,6.11070773 32.5970742,6.69855227 L34.8762644,6.69855227 C34.8014321,6.1180329 34.357914,5.7174379 33.7405478,5.7174379 Z M42.3170561,3.21314691 C42.6638398,3.21314691 42.9189083,3.44572092 42.9189083,3.75475135 C42.9189083,4.08758856 42.6706842,4.34351153 42.3170561,4.34351153 C41.9720976,4.34351153 41.7152039,4.09537155 41.7152039,3.77810031 C41.7152039,3.46174472 41.9720976,3.21314691 42.3170561,3.21314691 Z"/>
  </g>
</svg>
