<svg xmlns="http://www.w3.org/2000/svg" width="67" height="24" viewBox="0 0 67 24">
  <path fill="#B7BCD9" fill-rule="evenodd" d="M20.0788909,2 C21.110816,2.0004553 21.9466162,2.83911945 21.9466162,3.87401826 C21.9466162,4.78006693 21.3042168,5.53586632 20.4516188,5.70933594 L20.4516188,5.70933594 L20.4488949,22 L2,21.9968129 L2.00453993,3.49520796 L18.247939,3.49885037 C18.4213642,2.64334009 19.1749918,2 20.0788909,2 Z M19.6666657,5.69795342 L16.303489,13.1621554 C16.7397758,13.5054522 17.0248831,14.0326906 17.0248831,14.6318665 C17.0248831,15.66631 16.1881749,16.5049742 15.1562498,16.5049742 C14.6250785,16.5049742 14.1488404,16.2800555 13.8088,15.923555 L13.8088,15.923555 L3.86590934,21.247843 L19.7016231,21.2505748 L19.7043471,5.70888064 C19.6916353,5.70614884 19.6793775,5.70114053 19.6666657,5.69795342 L19.6666657,5.69795342 Z M2.74908769,14.9346416 L2.74772571,20.9969722 L13.4120105,15.2861338 C13.381139,15.2032691 13.3588934,15.1163066 13.3389177,15.0293441 L13.3389177,15.0293441 L2.74908769,14.9346416 Z M39.5707882,15.4364742 C40.1578006,15.4364742 40.6067992,15.5771621 40.9177841,15.8589933 C41.228315,16.1412799 41.3840345,16.5665308 41.3840345,17.1352016 L41.3840345,19.4763585 L40.5037429,19.4763585 L40.5037429,18.9900972 C40.3893368,19.1649327 40.2263535,19.2983359 40.0157009,19.3907619 C39.8036864,19.4822774 39.5489966,19.5291734 39.2507235,19.5291734 C38.9524504,19.5291734 38.6904967,19.4772691 38.4680404,19.3752817 C38.2433141,19.2737496 38.0707969,19.1307852 37.9491269,18.9486648 C37.8270029,18.7669998 37.7666219,18.5616591 37.7666219,18.3321875 C37.7666219,17.9734104 37.8991877,17.6847497 38.1661353,17.4671159 C38.431267,17.2513033 38.8498481,17.1424864 39.4223327,17.1424864 L40.4515338,17.1424864 L40.4515338,17.082842 C40.4515338,16.802832 40.3684531,16.5883853 40.2018379,16.4395019 C40.0352226,16.2887973 39.7877967,16.2145833 39.4586521,16.2145833 C39.2361957,16.2145833 39.0160094,16.2496415 38.7990009,16.3197578 C38.5833545,16.3889635 38.3994875,16.4868532 38.2510319,16.6111503 L37.8855679,15.9300203 C38.0939505,15.7715756 38.3459164,15.6490996 38.6396495,15.5639584 C38.9315667,15.4792724 39.2434596,15.4364742 39.5707882,15.4364742 Z M55.9438476,15.4364286 C56.3324652,15.4364286 56.6793155,15.5220252 56.9848525,15.6945842 C57.2908435,15.8666879 57.5291896,16.1084527 57.7007987,16.4212443 C57.8728619,16.7322148 57.9582125,17.0923578 57.9582125,17.5016732 C57.9582125,17.5663259 57.9532186,17.6578414 57.9432308,17.7775855 L54.8179461,17.7775855 C54.8724252,18.0721652 55.0158869,18.3052792 55.2474231,18.4773829 C55.4775973,18.6494866 55.7649745,18.7364491 56.1081929,18.7364491 C56.5453877,18.7364491 56.9072198,18.5907528 57.1896031,18.3011815 L57.6903569,18.8780477 C57.5110299,19.0929497 57.2844876,19.2541262 57.0107301,19.3638537 C56.7378806,19.4740365 56.4282576,19.5291279 56.0864013,19.5291279 C55.6482985,19.5291279 55.2633128,19.4407995 54.9296283,19.2664193 C54.5968517,19.0929497 54.338984,18.8489084 54.157387,18.5370273 C53.9762439,18.2256016 53.8858994,17.8727434 53.8858994,17.4784529 C53.8858994,17.0900813 53.97352,16.7399549 54.1501231,16.4280738 C54.3271802,16.1171034 54.5718822,15.8726068 54.884683,15.6982266 C55.1983919,15.524757 55.552052,15.4364286 55.9438476,15.4364286 Z M63.3815166,15.4366107 C63.6557281,15.4366107 63.9281236,15.4680265 64.2023351,15.5304027 C64.4747306,15.5932342 64.6990029,15.6756437 64.8728821,15.7812735 L64.515136,16.4915428 C64.1764575,16.2916657 63.7969198,16.1924101 63.3737987,16.1924101 C63.1004952,16.1924101 62.8934746,16.2329319 62.750467,16.3157967 C62.6097293,16.3977508 62.5389064,16.5065677 62.5389064,16.6408815 C62.5389064,16.7911307 62.6147232,16.8972158 62.7668107,16.9595921 C62.9179902,17.021513 63.1527044,17.0802468 63.4714071,17.1348829 C63.7896559,17.1840554 64.0502476,17.2414233 64.2545442,17.306076 C64.4579329,17.3720946 64.633174,17.4809115 64.7807216,17.6361691 C64.9264532,17.7909714 65,18.0095158 65,18.2940788 C65,18.6678808 64.8392866,18.9670135 64.515136,19.1919321 C64.1923473,19.4163954 63.7519745,19.5288547 63.1953797,19.5288547 C62.871229,19.5288547 62.5561582,19.4865117 62.2478972,19.4018258 C61.9396363,19.3166845 61.6926643,19.2101441 61.5087974,19.0794728 L61.8665435,18.3682928 C62.0458705,18.4884923 62.261063,18.585016 62.5121209,18.6569536 C62.7640867,18.7288911 63.0115127,18.7657705 63.2548527,18.7657705 C63.8109935,18.7657705 64.0901989,18.6187083 64.0901989,18.3250393 C64.0901989,18.1843513 64.0193761,18.0878275 63.8772764,18.0327361 C63.7356308,17.9781 63.5081805,17.9252851 63.1953797,17.875202 C62.8662351,17.8251189 62.5997414,17.767751 62.3927208,17.7035536 C62.1870622,17.6384456 62.0081892,17.5250757 61.8561017,17.3625333 C61.7049221,17.2013568 61.6281974,16.9755276 61.6281974,16.6859562 C61.6281974,16.3071459 61.7861868,16.0043709 62.1017116,15.7771758 C62.4181444,15.5499806 62.8444434,15.4366107 63.3815166,15.4366107 Z M49.5510425,15.4366563 C49.944654,15.4366563 50.2887803,15.5163339 50.5852375,15.6756892 C50.8807866,15.8359551 51.1036969,16.0654267 51.2521525,16.3645594 L50.5362063,16.7834362 C50.4218001,16.5994946 50.2792465,16.4601726 50.1076373,16.3686571 C49.9360281,16.2757757 49.7485292,16.2288797 49.5437786,16.2288797 C49.1955663,16.2288797 48.906827,16.3427049 48.6789228,16.5699001 C48.4501105,16.7970952 48.3361584,17.0998702 48.3361584,17.4782252 C48.3361584,17.8579461 48.4492026,18.1611765 48.6757448,18.3879163 C48.9009251,18.6151114 49.1905724,18.7275707 49.5437786,18.7275707 C49.7485292,18.7275707 49.9360281,18.682496 50.1076373,18.5900699 C50.2792465,18.4980991 50.4218001,18.3587771 50.5362063,18.1748355 L51.2521525,18.593257 C51.097795,18.8928449 50.8735227,19.1236825 50.5775196,19.2857696 C50.2819704,19.4478567 49.9396601,19.5289002 49.5510425,19.5289002 C49.1383632,19.5289002 48.7683593,19.4410272 48.4405767,19.2661916 C48.1114321,19.092722 47.8562883,18.8486808 47.6724213,18.5367997 C47.4881004,18.2258292 47.3954859,17.8725158 47.3954859,17.4782252 C47.3954859,17.0853006 47.4881004,16.7338084 47.6724213,16.4246591 C47.8562883,16.1141439 48.1105241,15.8728345 48.4369448,15.697999 C48.7620034,15.5245293 49.1333693,15.4366563 49.5510425,15.4366563 Z M52.9898089,15.4821408 L52.9898089,19.4764951 L52.0582163,19.4764951 L52.0582163,15.4821408 L52.9898089,15.4821408 Z M44.8375103,15.4365197 C45.34008,15.4365197 45.7423174,15.5840372 46.0464924,15.8772509 C46.3497595,16.1713752 46.500939,16.6089193 46.500939,17.1866961 L46.500939,19.476404 L45.5693463,19.476404 L45.5693463,17.3064402 C45.5693463,16.9581351 45.4867196,16.6945159 45.3219203,16.5174039 C45.158937,16.3402918 44.9251309,16.2524188 44.6218638,16.2524188 C44.2781915,16.2524188 44.0071579,16.3562274 43.8083092,16.5624787 C43.6090065,16.7687299 43.5100361,17.066952 43.5100361,17.4566895 L43.5100361,19.476404 L42.5770814,19.476404 L42.5770814,15.4820498 L43.4650909,15.4820498 L43.4650909,15.9974503 C43.6194483,15.8125982 43.8133031,15.6737314 44.0471093,15.5785735 C44.2809155,15.4843263 44.5437771,15.4365197 44.8375103,15.4365197 Z M30.0087974,14.2396704 L30.0087974,15.0555695 L27.1663501,15.0555695 L27.1663501,16.6482118 L29.6882786,16.6482118 L29.6882786,17.4713957 L27.1663501,17.4713957 L27.1663501,19.4765406 L26.197076,19.4765406 L26.197076,14.2396704 L30.0087974,14.2396704 Z M31.7170805,15.4821408 L31.7170805,19.4764951 L30.7841258,19.4764951 L30.7841258,15.4821408 L31.7170805,15.4821408 Z M35.1994757,15.4365197 C35.7020454,15.4365197 36.1042828,15.5840372 36.4084578,15.8772509 C36.7117248,16.1713752 36.8629043,16.6089193 36.8629043,17.1866961 L36.8629043,19.476404 L35.9313116,19.476404 L35.9313116,17.3064402 C35.9313116,16.9581351 35.848685,16.6945159 35.6838857,16.5174039 C35.5209024,16.3402918 35.2870962,16.2524188 34.9838292,16.2524188 C34.6401569,16.2524188 34.3691233,16.3562274 34.1702746,16.5624787 C33.9709719,16.7687299 33.8720015,17.066952 33.8720015,17.4566895 L33.8720015,19.476404 L32.9395008,19.476404 L32.9395008,15.4820498 L33.8270562,15.4820498 L33.8270562,15.9974503 C33.9818677,15.8125982 34.1752685,15.6737314 34.4095287,15.5785735 C34.6428808,15.4843263 34.9057425,15.4365197 35.1994757,15.4365197 Z M61.1581335,15.4366107 L61.1581335,16.3267239 C61.0786848,16.3121543 61.005592,16.3048694 60.9411251,16.3048694 C60.5783851,16.3048694 60.2946397,16.4100439 60.0912511,16.6222141 C59.8865004,16.8348396 59.7857141,17.1398912 59.7857141,17.5382794 L59.7857141,19.4764951 L58.8532134,19.4764951 L58.8532134,15.4821408 L59.7407688,15.4821408 L59.7407688,16.0653812 C60.0099864,15.6465044 60.4821386,15.4366107 61.1581335,15.4366107 Z M40.4515338,17.7630614 L39.4895236,17.7630614 C38.9524504,17.7630614 38.6832328,17.9397182 38.6832328,18.2943975 C38.6832328,18.4642247 38.7504237,18.5985385 38.8857135,18.6982494 C39.0191873,18.7984156 39.2057782,18.847588 39.4445783,18.847588 C39.6783845,18.847588 39.8867671,18.7947731 40.0679101,18.6873221 C40.2490531,18.5803265 40.377079,18.4264348 40.4515338,18.227013 L40.4515338,17.7630614 Z M55.9438476,16.1853985 C55.6455745,16.1853985 55.3936086,16.2728163 55.18795,16.4503836 C54.9809294,16.6274956 54.8556275,16.8628862 54.8102282,17.1574658 L57.0702031,17.1574658 C57.0316137,16.8678945 56.9094897,16.6334145 56.7051931,16.454026 C56.5018044,16.2741822 56.2471146,16.1853985 55.9438476,16.1853985 Z M31.2540081,13.7010039 C31.4233473,13.7010039 31.564993,13.7529082 31.6793991,13.8535297 C31.7938052,13.9564277 31.8510083,14.0848225 31.8510083,14.2396248 C31.8510083,14.4044437 31.7947132,14.5428552 31.6825771,14.6548592 C31.5704409,14.7673185 31.4283412,14.8233205 31.2540081,14.8233205 C31.0851229,14.8233205 30.9434772,14.769595 30.8295251,14.6625993 C30.715119,14.554693 30.6579159,14.4217452 30.6579159,14.2619346 C30.6579159,14.1030346 30.715119,13.9687208 30.8295251,13.8626357 C30.9434772,13.7551847 31.0851229,13.7010039 31.2540081,13.7010039 Z M52.5280985,13.7010039 C52.6965298,13.7010039 52.8386294,13.7529082 52.9534895,13.8535297 C53.0678957,13.9564277 53.1250987,14.0848225 53.1250987,14.2396248 C53.1250987,14.4044437 53.0692576,14.5428552 52.9571215,14.6548592 C52.8449853,14.7673185 52.7010697,14.8233205 52.5280985,14.8233205 C52.3587593,14.8233205 52.2166597,14.769595 52.1022535,14.6625993 C51.9878474,14.554693 51.9306444,14.4217452 51.9306444,14.2619346 C51.9306444,14.1030346 51.9878474,13.9687208 52.1022535,13.8626357 C52.2166597,13.7551847 52.3587593,13.7010039 52.5280985,13.7010039 Z M2.75135765,4.24463314 L2.74908769,14.1843058 L13.3234819,14.2794637 C13.4878272,13.4134815 14.2450868,12.7578482 15.1567038,12.7578482 C15.3228651,12.7578482 15.4808545,12.7860769 15.634304,12.827054 L15.634304,12.827054 L18.9861309,5.38743825 C18.613857,5.11698955 18.3428235,4.71632481 18.247939,4.24782025 L18.247939,4.24782025 L2.75135765,4.24463314 Z M34.9609026,7.73055296 C35.3490662,7.73055296 35.6963705,7.81660482 36.0019075,7.98870854 C36.3074445,8.16081226 36.5462445,8.402577 36.7178537,8.71536868 C36.8894629,9.02633915 36.9752675,9.38693742 36.9752675,9.79625287 C36.9752675,9.86045029 36.9702736,9.95196576 36.9602857,10.0717099 L33.8345471,10.0717099 C33.8894802,10.3662895 34.0329418,10.5994036 34.264478,10.7715073 C34.4946523,10.943611 34.7815755,11.0305735 35.1252479,11.0305735 C35.5624427,11.0305735 35.9238208,10.8853325 36.2062041,10.5957611 L36.7069579,11.172172 C36.5280848,11.387074 36.3015426,11.5482505 36.0277851,11.657978 C35.7549355,11.7681608 35.4453126,11.8232522 35.1030023,11.8232522 C34.6648995,11.8232522 34.2799138,11.7349239 33.9466833,11.5605436 C33.6139067,11.387074 33.356039,11.1430328 33.1744419,10.831607 C32.9928449,10.5197259 32.9029544,10.1673231 32.9029544,9.77303253 C32.9029544,9.38420561 32.990575,9.03407927 33.1671781,8.72265349 C33.3437812,8.41122772 33.5884831,8.16673117 33.901284,7.99235095 C34.2154468,7.81888133 34.568653,7.73055296 34.9609026,7.73055296 Z M46.672412,7.73055296 C47.2594243,7.73055296 47.7075149,7.87124092 48.0180458,8.15352744 C48.3299387,8.43535866 48.4842962,8.86060965 48.4842962,9.4297357 L48.4842962,11.7704373 L47.6040046,11.7704373 L47.6040046,11.2846313 C47.4895985,11.4594668 47.3279772,11.5924147 47.1159627,11.6852961 C46.9053101,11.7768115 46.6492583,11.8232522 46.3509852,11.8232522 C46.0527121,11.8232522 45.7921204,11.7718032 45.5683021,11.6693605 C45.3435758,11.5678284 45.1710586,11.4253193 45.0493886,11.2427436 C44.9272646,11.0610786 44.8668836,10.8561932 44.8668836,10.6262663 C44.8668836,10.2674892 45.0008114,9.97928381 45.2663971,9.76165001 C45.5315287,9.54583741 45.9514718,9.43656521 46.5225944,9.43656521 L47.5531575,9.43656521 L47.5531575,9.3773761 C47.5531575,9.09736608 47.4687149,8.88246409 47.3020996,8.73358071 C47.1363923,8.58287614 46.8880584,8.5086621 46.5602758,8.5086621 C46.3364575,8.5086621 46.1162711,8.54417556 45.9006246,8.61383659 C45.6836162,8.68349762 45.5011112,8.780932 45.3512937,8.90568443 L44.9858297,8.22409907 C45.1951202,8.06565438 45.4461781,7.94317846 45.7399113,7.8580372 C46.0331905,7.77335124 46.3437214,7.73055296 46.672412,7.73055296 Z M41.7713355,6.22032008 L41.7713355,11.7704373 L40.8760622,11.7704373 L40.8760622,11.2541262 C40.7226127,11.4448972 40.5314819,11.5860405 40.3063016,11.6802878 C40.0797593,11.7754456 39.8300634,11.8232522 39.5563059,11.8232522 C39.1726822,11.8232522 38.8294638,11.7376557 38.5234729,11.5691943 C38.2170279,11.3993671 37.9768658,11.1589683 37.8029867,10.8461766 C37.6286536,10.5347508 37.541941,10.1768844 37.541941,9.77303253 C37.541941,9.36963599 37.6286536,9.01313543 37.8029867,8.70307556 C37.9768658,8.39392629 38.2170279,8.15443804 38.5234729,7.98506613 C38.8294638,7.81660482 39.1726822,7.73055296 39.5563059,7.73055296 C39.8191676,7.73055296 40.0602376,7.77608305 40.27997,7.86486671 C40.4987944,7.95592688 40.6849313,8.09024063 40.8397428,8.26962916 L40.8397428,6.22032008 L41.7713355,6.22032008 Z M26.9945593,6.53425001 L29.0683972,10.004553 L31.1040998,6.53425001 L31.9031266,6.53425001 L31.9108445,11.770665 L30.9937796,11.770665 L30.9846997,8.29990666 L29.2690619,11.1723997 L28.836861,11.1723997 L27.1216772,8.34407084 L27.1216772,11.770665 L26.1973484,11.770665 L26.1973484,6.53425001 L26.9945593,6.53425001 Z M43.9276639,7.77617411 L43.9276639,11.7705284 L42.9947092,11.7705284 L42.9947092,7.77617411 L43.9276639,7.77617411 Z M47.5531575,10.0571403 L46.5897853,10.0571403 C46.0527121,10.0571403 45.7848565,10.2342523 45.7848565,10.5884763 C45.7848565,10.7583035 45.8520474,10.8926173 45.9859752,10.9923282 C46.119449,11.0929497 46.307402,11.1416669 46.545748,11.1416669 C46.7800082,11.1416669 46.9870288,11.088852 47.1681718,10.9818563 C47.3493148,10.8744053 47.4773407,10.7205136 47.5531575,10.5210918 L47.5531575,10.0571403 Z M39.668442,8.52368703 C39.4446237,8.52368703 39.243051,8.57468072 39.064632,8.67757871 C38.8853049,8.7800214 38.7432052,8.92480707 38.639241,9.11466752 C38.5348227,9.30498327 38.4826135,9.52352767 38.4826135,9.77303253 C38.4826135,10.023448 38.5348227,10.2415371 38.639241,10.4309422 C38.7432052,10.621258 38.8853049,10.766499 39.064632,10.869397 C39.243051,10.9722949 39.4446237,11.0219227 39.668442,11.0219227 C39.8922604,11.0219227 40.0929251,10.9722949 40.2722521,10.869397 C40.4515792,10.766499 40.5936788,10.621258 40.6976431,10.4309422 C40.8020614,10.2415371 40.8542706,10.023448 40.8542706,9.77303253 C40.8542706,9.52352767 40.8020614,9.30498327 40.6976431,9.11466752 C40.5936788,8.92480707 40.4515792,8.7800214 40.2722521,8.67757871 C40.0929251,8.57468072 39.8922604,8.52368703 39.668442,8.52368703 Z M34.9609026,8.47952284 C34.6626295,8.47952284 34.4102096,8.56739591 34.204551,8.74450793 C33.9975304,8.92161996 33.8722285,9.15701049 33.8272832,9.45159014 L36.0868041,9.45159014 C36.0482147,9.1620188 35.9265447,8.92753887 35.7217941,8.74815034 C35.5188594,8.56830651 35.2641696,8.47952284 34.9609026,8.47952284 Z M43.4654994,5.99594782 C43.6343847,5.99594782 43.7755764,6.04694152 43.8899825,6.1484736 C44.0043886,6.25091629 44.0615917,6.37885583 44.0615917,6.53411342 C44.0615917,6.69938762 44.0057506,6.83688847 43.8936144,6.94934778 C43.7819322,7.06135179 43.6389246,7.11826439 43.4654994,7.11826439 C43.2961602,7.11826439 43.1545146,7.06408359 43.0401084,6.95663259 C42.9257023,6.8491816 42.8684993,6.71623375 42.8684993,6.55596786 C42.8684993,6.39706786 42.9257023,6.26320942 43.0401084,6.15666902 C43.1545146,6.04921802 43.2961602,5.99594782 43.4654994,5.99594782 Z"/>
</svg>
