<svg xmlns="http://www.w3.org/2000/svg" width="67" height="24" viewBox="0 0 67 24">
  <g fill="#B7BCD9" fill-rule="evenodd" transform="translate(2 2)">
    <path d="M18.0788909,0 C17.1749918,0 16.4213642,0.643340087 16.247939,1.49885037 L0.0045399254,1.49520796 L-4.36983782e-13,19.9968129 L18.4488949,20 L18.4516188,3.70933594 C19.3042168,3.53586632 19.9466162,2.78006693 19.9466162,1.87401826 C19.9466162,0.839119448 19.110816,0.00045530084 18.0788909,0 L18.0788909,0 Z" opacity=".3"/>
    <path d="M18.0788909,0 C19.110816,0.00045530084 19.9466162,0.839119448 19.9466162,1.87401826 C19.9466162,2.78006693 19.3042168,3.53586632 18.4516188,3.70933594 L18.4516188,3.70933594 L18.4488949,20 L3.55271368e-15,19.9968129 L0.0045399254,1.49520796 L16.247939,1.49885037 C16.4213642,0.643340087 17.1749918,0 18.0788909,0 Z M17.6666657,3.69795342 L14.303489,11.1621554 C14.7397758,11.5054522 15.0248831,12.0326906 15.0248831,12.6318665 C15.0248831,13.66631 14.1881749,14.5049742 13.1562498,14.5049742 C12.6250785,14.5049742 12.1488404,14.2800555 11.8088,13.923555 L11.8088,13.923555 L1.86590934,19.247843 L17.7016231,19.2505748 L17.7043471,3.70888064 C17.6916353,3.70614884 17.6793775,3.70114053 17.6666657,3.69795342 L17.6666657,3.69795342 Z M0.749087691,12.9346416 L0.747725714,18.9969722 L11.4120105,13.2861338 C11.381139,13.2032691 11.3588934,13.1163066 11.3389177,13.0293441 L11.3389177,13.0293441 L0.749087691,12.9346416 Z M37.5707882,13.4364742 C38.1578006,13.4364742 38.6067992,13.5771621 38.9177841,13.8589933 C39.228315,14.1412799 39.3840345,14.5665308 39.3840345,15.1352016 L39.3840345,17.4763585 L38.5037429,17.4763585 L38.5037429,16.9900972 C38.3893368,17.1649327 38.2263535,17.2983359 38.0157009,17.3907619 C37.8036864,17.4822774 37.5489966,17.5291734 37.2507235,17.5291734 C36.9524504,17.5291734 36.6904967,17.4772691 36.4680404,17.3752817 C36.2433141,17.2737496 36.0707969,17.1307852 35.9491269,16.9486648 C35.8270029,16.7669998 35.7666219,16.5616591 35.7666219,16.3321875 C35.7666219,15.9734104 35.8991877,15.6847497 36.1661353,15.4671159 C36.431267,15.2513033 36.8498481,15.1424864 37.4223327,15.1424864 L38.4515338,15.1424864 L38.4515338,15.082842 C38.4515338,14.802832 38.3684531,14.5883853 38.2018379,14.4395019 C38.0352226,14.2887973 37.7877967,14.2145833 37.4586521,14.2145833 C37.2361957,14.2145833 37.0160094,14.2496415 36.7990009,14.3197578 C36.5833545,14.3889635 36.3994875,14.4868532 36.2510319,14.6111503 L35.8855679,13.9300203 C36.0939505,13.7715756 36.3459164,13.6490996 36.6396495,13.5639584 C36.9315667,13.4792724 37.2434596,13.4364742 37.5707882,13.4364742 Z M53.9438476,13.4364286 C54.3324652,13.4364286 54.6793155,13.5220252 54.9848525,13.6945842 C55.2908435,13.8666879 55.5291896,14.1084527 55.7007987,14.4212443 C55.8728619,14.7322148 55.9582125,15.0923578 55.9582125,15.5016732 C55.9582125,15.5663259 55.9532186,15.6578414 55.9432308,15.7775855 L52.8179461,15.7775855 C52.8724252,16.0721652 53.0158869,16.3052792 53.2474231,16.4773829 C53.4775973,16.6494866 53.7649745,16.7364491 54.1081929,16.7364491 C54.5453877,16.7364491 54.9072198,16.5907528 55.1896031,16.3011815 L55.6903569,16.8780477 C55.5110299,17.0929497 55.2844876,17.2541262 55.0107301,17.3638537 C54.7378806,17.4740365 54.4282576,17.5291279 54.0864013,17.5291279 C53.6482985,17.5291279 53.2633128,17.4407995 52.9296283,17.2664193 C52.5968517,17.0929497 52.338984,16.8489084 52.157387,16.5370273 C51.9762439,16.2256016 51.8858994,15.8727434 51.8858994,15.4784529 C51.8858994,15.0900813 51.97352,14.7399549 52.1501231,14.4280738 C52.3271802,14.1171034 52.5718822,13.8726068 52.884683,13.6982266 C53.1983919,13.524757 53.552052,13.4364286 53.9438476,13.4364286 Z M61.3815166,13.4366107 C61.6557281,13.4366107 61.9281236,13.4680265 62.2023351,13.5304027 C62.4747306,13.5932342 62.6990029,13.6756437 62.8728821,13.7812735 L62.515136,14.4915428 C62.1764575,14.2916657 61.7969198,14.1924101 61.3737987,14.1924101 C61.1004952,14.1924101 60.8934746,14.2329319 60.750467,14.3157967 C60.6097293,14.3977508 60.5389064,14.5065677 60.5389064,14.6408815 C60.5389064,14.7911307 60.6147232,14.8972158 60.7668107,14.9595921 C60.9179902,15.021513 61.1527044,15.0802468 61.4714071,15.1348829 C61.7896559,15.1840554 62.0502476,15.2414233 62.2545442,15.306076 C62.4579329,15.3720946 62.633174,15.4809115 62.7807216,15.6361691 C62.9264532,15.7909714 63,16.0095158 63,16.2940788 C63,16.6678808 62.8392866,16.9670135 62.515136,17.1919321 C62.1923473,17.4163954 61.7519745,17.5288547 61.1953797,17.5288547 C60.871229,17.5288547 60.5561582,17.4865117 60.2478972,17.4018258 C59.9396363,17.3166845 59.6926643,17.2101441 59.5087974,17.0794728 L59.8665435,16.3682928 C60.0458705,16.4884923 60.261063,16.585016 60.5121209,16.6569536 C60.7640867,16.7288911 61.0115127,16.7657705 61.2548527,16.7657705 C61.8109935,16.7657705 62.0901989,16.6187083 62.0901989,16.3250393 C62.0901989,16.1843513 62.0193761,16.0878275 61.8772764,16.0327361 C61.7356308,15.9781 61.5081805,15.9252851 61.1953797,15.875202 C60.8662351,15.8251189 60.5997414,15.767751 60.3927208,15.7035536 C60.1870622,15.6384456 60.0081892,15.5250757 59.8561017,15.3625333 C59.7049221,15.2013568 59.6281974,14.9755276 59.6281974,14.6859562 C59.6281974,14.3071459 59.7861868,14.0043709 60.1017116,13.7771758 C60.4181444,13.5499806 60.8444434,13.4366107 61.3815166,13.4366107 Z M47.5510425,13.4366563 C47.944654,13.4366563 48.2887803,13.5163339 48.5852375,13.6756892 C48.8807866,13.8359551 49.1036969,14.0654267 49.2521525,14.3645594 L48.5362063,14.7834362 C48.4218001,14.5994946 48.2792465,14.4601726 48.1076373,14.3686571 C47.9360281,14.2757757 47.7485292,14.2288797 47.5437786,14.2288797 C47.1955663,14.2288797 46.906827,14.3427049 46.6789228,14.5699001 C46.4501105,14.7970952 46.3361584,15.0998702 46.3361584,15.4782252 C46.3361584,15.8579461 46.4492026,16.1611765 46.6757448,16.3879163 C46.9009251,16.6151114 47.1905724,16.7275707 47.5437786,16.7275707 C47.7485292,16.7275707 47.9360281,16.682496 48.1076373,16.5900699 C48.2792465,16.4980991 48.4218001,16.3587771 48.5362063,16.1748355 L49.2521525,16.593257 C49.097795,16.8928449 48.8735227,17.1236825 48.5775196,17.2857696 C48.2819704,17.4478567 47.9396601,17.5289002 47.5510425,17.5289002 C47.1383632,17.5289002 46.7683593,17.4410272 46.4405767,17.2661916 C46.1114321,17.092722 45.8562883,16.8486808 45.6724213,16.5367997 C45.4881004,16.2258292 45.3954859,15.8725158 45.3954859,15.4782252 C45.3954859,15.0853006 45.4881004,14.7338084 45.6724213,14.4246591 C45.8562883,14.1141439 46.1105241,13.8728345 46.4369448,13.697999 C46.7620034,13.5245293 47.1333693,13.4366563 47.5510425,13.4366563 Z M50.9898089,13.4821408 L50.9898089,17.4764951 L50.0582163,17.4764951 L50.0582163,13.4821408 L50.9898089,13.4821408 Z M42.8375103,13.4365197 C43.34008,13.4365197 43.7423174,13.5840372 44.0464924,13.8772509 C44.3497595,14.1713752 44.500939,14.6089193 44.500939,15.1866961 L44.500939,17.476404 L43.5693463,17.476404 L43.5693463,15.3064402 C43.5693463,14.9581351 43.4867196,14.6945159 43.3219203,14.5174039 C43.158937,14.3402918 42.9251309,14.2524188 42.6218638,14.2524188 C42.2781915,14.2524188 42.0071579,14.3562274 41.8083092,14.5624787 C41.6090065,14.7687299 41.5100361,15.066952 41.5100361,15.4566895 L41.5100361,17.476404 L40.5770814,17.476404 L40.5770814,13.4820498 L41.4650909,13.4820498 L41.4650909,13.9974503 C41.6194483,13.8125982 41.8133031,13.6737314 42.0471093,13.5785735 C42.2809155,13.4843263 42.5437771,13.4365197 42.8375103,13.4365197 Z M28.0087974,12.2396704 L28.0087974,13.0555695 L25.1663501,13.0555695 L25.1663501,14.6482118 L27.6882786,14.6482118 L27.6882786,15.4713957 L25.1663501,15.4713957 L25.1663501,17.4765406 L24.197076,17.4765406 L24.197076,12.2396704 L28.0087974,12.2396704 Z M29.7170805,13.4821408 L29.7170805,17.4764951 L28.7841258,17.4764951 L28.7841258,13.4821408 L29.7170805,13.4821408 Z M33.1994757,13.4365197 C33.7020454,13.4365197 34.1042828,13.5840372 34.4084578,13.8772509 C34.7117248,14.1713752 34.8629043,14.6089193 34.8629043,15.1866961 L34.8629043,17.476404 L33.9313116,17.476404 L33.9313116,15.3064402 C33.9313116,14.9581351 33.848685,14.6945159 33.6838857,14.5174039 C33.5209024,14.3402918 33.2870962,14.2524188 32.9838292,14.2524188 C32.6401569,14.2524188 32.3691233,14.3562274 32.1702746,14.5624787 C31.9709719,14.7687299 31.8720015,15.066952 31.8720015,15.4566895 L31.8720015,17.476404 L30.9395008,17.476404 L30.9395008,13.4820498 L31.8270562,13.4820498 L31.8270562,13.9974503 C31.9818677,13.8125982 32.1752685,13.6737314 32.4095287,13.5785735 C32.6428808,13.4843263 32.9057425,13.4365197 33.1994757,13.4365197 Z M59.1581335,13.4366107 L59.1581335,14.3267239 C59.0786848,14.3121543 59.005592,14.3048694 58.9411251,14.3048694 C58.5783851,14.3048694 58.2946397,14.4100439 58.0912511,14.6222141 C57.8865004,14.8348396 57.7857141,15.1398912 57.7857141,15.5382794 L57.7857141,17.4764951 L56.8532134,17.4764951 L56.8532134,13.4821408 L57.7407688,13.4821408 L57.7407688,14.0653812 C58.0099864,13.6465044 58.4821386,13.4366107 59.1581335,13.4366107 Z M38.4515338,15.7630614 L37.4895236,15.7630614 C36.9524504,15.7630614 36.6832328,15.9397182 36.6832328,16.2943975 C36.6832328,16.4642247 36.7504237,16.5985385 36.8857135,16.6982494 C37.0191873,16.7984156 37.2057782,16.847588 37.4445783,16.847588 C37.6783845,16.847588 37.8867671,16.7947731 38.0679101,16.6873221 C38.2490531,16.5803265 38.377079,16.4264348 38.4515338,16.227013 L38.4515338,15.7630614 Z M53.9438476,14.1853985 C53.6455745,14.1853985 53.3936086,14.2728163 53.18795,14.4503836 C52.9809294,14.6274956 52.8556275,14.8628862 52.8102282,15.1574658 L55.0702031,15.1574658 C55.0316137,14.8678945 54.9094897,14.6334145 54.7051931,14.454026 C54.5018044,14.2741822 54.2471146,14.1853985 53.9438476,14.1853985 Z M29.2540081,11.7010039 C29.4233473,11.7010039 29.564993,11.7529082 29.6793991,11.8535297 C29.7938052,11.9564277 29.8510083,12.0848225 29.8510083,12.2396248 C29.8510083,12.4044437 29.7947132,12.5428552 29.6825771,12.6548592 C29.5704409,12.7673185 29.4283412,12.8233205 29.2540081,12.8233205 C29.0851229,12.8233205 28.9434772,12.769595 28.8295251,12.6625993 C28.715119,12.554693 28.6579159,12.4217452 28.6579159,12.2619346 C28.6579159,12.1030346 28.715119,11.9687208 28.8295251,11.8626357 C28.9434772,11.7551847 29.0851229,11.7010039 29.2540081,11.7010039 Z M50.5280985,11.7010039 C50.6965298,11.7010039 50.8386294,11.7529082 50.9534895,11.8535297 C51.0678957,11.9564277 51.1250987,12.0848225 51.1250987,12.2396248 C51.1250987,12.4044437 51.0692576,12.5428552 50.9571215,12.6548592 C50.8449853,12.7673185 50.7010697,12.8233205 50.5280985,12.8233205 C50.3587593,12.8233205 50.2166597,12.769595 50.1022535,12.6625993 C49.9878474,12.554693 49.9306444,12.4217452 49.9306444,12.2619346 C49.9306444,12.1030346 49.9878474,11.9687208 50.1022535,11.8626357 C50.2166597,11.7551847 50.3587593,11.7010039 50.5280985,11.7010039 Z M0.751357654,2.24463314 L0.749087691,12.1843058 L11.3234819,12.2794637 C11.4878272,11.4134815 12.2450868,10.7578482 13.1567038,10.7578482 C13.3228651,10.7578482 13.4808545,10.7860769 13.634304,10.827054 L13.634304,10.827054 L16.9861309,3.38743825 C16.613857,3.11698955 16.3428235,2.71632481 16.247939,2.24782025 L16.247939,2.24782025 L0.751357654,2.24463314 Z M32.9609026,5.73055296 C33.3490662,5.73055296 33.6963705,5.81660482 34.0019075,5.98870854 C34.3074445,6.16081226 34.5462445,6.402577 34.7178537,6.71536868 C34.8894629,7.02633915 34.9752675,7.38693742 34.9752675,7.79625287 C34.9752675,7.86045029 34.9702736,7.95196576 34.9602857,8.07170988 L31.8345471,8.07170988 C31.8894802,8.36628953 32.0329418,8.59940356 32.264478,8.77150727 C32.4946523,8.94361099 32.7815755,9.03057345 33.1252479,9.03057345 C33.5624427,9.03057345 33.9238208,8.88533248 34.2062041,8.59576115 L34.7069579,9.17217201 C34.5280848,9.38707401 34.3015426,9.54825051 34.0277851,9.65797801 C33.7549355,9.76816081 33.4453126,9.82325221 33.1030023,9.82325221 C32.6648995,9.82325221 32.2799138,9.73492385 31.9466833,9.56054363 C31.6139067,9.38707401 31.356039,9.14303276 31.1744419,8.83160698 C30.9928449,8.51972591 30.9029544,8.16732306 30.9029544,7.77303253 C30.9029544,7.38420561 30.990575,7.03407927 31.1671781,6.72265349 C31.3437812,6.41122772 31.5884831,6.16673117 31.901284,5.99235095 C32.2154468,5.81888133 32.568653,5.73055296 32.9609026,5.73055296 Z M44.672412,5.73055296 C45.2594243,5.73055296 45.7075149,5.87124092 46.0180458,6.15352744 C46.3299387,6.43535866 46.4842962,6.86060965 46.4842962,7.4297357 L46.4842962,9.77043732 L45.6040046,9.77043732 L45.6040046,9.28463132 C45.4895985,9.45946684 45.3279772,9.59241469 45.1159627,9.68529606 C44.9053101,9.77681153 44.6492583,9.82325221 44.3509852,9.82325221 C44.0527121,9.82325221 43.7921204,9.77180322 43.5683021,9.66936053 C43.3435758,9.56782844 43.1710586,9.42531928 43.0493886,9.24274364 C42.9272646,9.06107861 42.8668836,8.85619323 42.8668836,8.62626631 C42.8668836,8.26748924 43.0008114,7.97928381 43.2663971,7.76165001 C43.5315287,7.54583741 43.9514718,7.43656521 44.5225944,7.43656521 L45.5531575,7.43656521 L45.5531575,7.3773761 C45.5531575,7.09736608 45.4687149,6.88246409 45.3020996,6.73358071 C45.1363923,6.58287614 44.8880584,6.5086621 44.5602758,6.5086621 C44.3364575,6.5086621 44.1162711,6.54417556 43.9006246,6.61383659 C43.6836162,6.68349762 43.5011112,6.780932 43.3512937,6.90568443 L42.9858297,6.22409907 C43.1951202,6.06565438 43.4461781,5.94317846 43.7399113,5.8580372 C44.0331905,5.77335124 44.3437214,5.73055296 44.672412,5.73055296 Z M39.7713355,4.22032008 L39.7713355,9.77043732 L38.8760622,9.77043732 L38.8760622,9.25412616 C38.7226127,9.44489722 38.5314819,9.58604048 38.3063016,9.68028775 C38.0797593,9.77544563 37.8300634,9.82325221 37.5563059,9.82325221 C37.1726822,9.82325221 36.8294638,9.73765566 36.5234729,9.56919435 C36.2170279,9.39936713 35.9768658,9.15896829 35.8029867,8.84617661 C35.6286536,8.53475084 35.541941,8.17688438 35.541941,7.77303253 C35.541941,7.36963599 35.6286536,7.01313543 35.8029867,6.70307556 C35.9768658,6.39392629 36.2170279,6.15443804 36.5234729,5.98506613 C36.8294638,5.81660482 37.1726822,5.73055296 37.5563059,5.73055296 C37.8191676,5.73055296 38.0602376,5.77608305 38.27997,5.86486671 C38.4987944,5.95592688 38.6849313,6.09024063 38.8397428,6.26962916 L38.8397428,4.22032008 L39.7713355,4.22032008 Z M24.9945593,4.53425001 L27.0683972,8.00455301 L29.1040998,4.53425001 L29.9031266,4.53425001 L29.9108445,9.77066497 L28.9937796,9.77066497 L28.9846997,6.29990666 L27.2690619,9.17239966 L26.836861,9.17239966 L25.1216772,6.34407084 L25.1216772,9.77066497 L24.1973484,9.77066497 L24.1973484,4.53425001 L24.9945593,4.53425001 Z M41.9276639,5.77617411 L41.9276639,9.77052838 L40.9947092,9.77052838 L40.9947092,5.77617411 L41.9276639,5.77617411 Z M45.5531575,8.05714026 L44.5897853,8.05714026 C44.0527121,8.05714026 43.7848565,8.23425228 43.7848565,8.58847634 C43.7848565,8.75830355 43.8520474,8.8926173 43.9859752,8.99232818 C44.119449,9.09294967 44.307402,9.14166686 44.545748,9.14166686 C44.7800082,9.14166686 44.9870288,9.08885196 45.1681718,8.98185626 C45.3493148,8.87440526 45.4773407,8.72051358 45.5531575,8.52109181 L45.5531575,8.05714026 Z M37.668442,6.52368703 C37.4446237,6.52368703 37.243051,6.57468072 37.064632,6.67757871 C36.8853049,6.7800214 36.7432052,6.92480707 36.639241,7.11466752 C36.5348227,7.30498327 36.4826135,7.52352767 36.4826135,7.77303253 C36.4826135,8.02344799 36.5348227,8.2415371 36.639241,8.43094225 C36.7432052,8.621258 36.8853049,8.76649896 37.064632,8.86939695 C37.243051,8.97229494 37.4446237,9.02192274 37.668442,9.02192274 C37.8922604,9.02192274 38.0929251,8.97229494 38.2722521,8.86939695 C38.4515792,8.76649896 38.5936788,8.621258 38.6976431,8.43094225 C38.8020614,8.2415371 38.8542706,8.02344799 38.8542706,7.77303253 C38.8542706,7.52352767 38.8020614,7.30498327 38.6976431,7.11466752 C38.5936788,6.92480707 38.4515792,6.7800214 38.2722521,6.67757871 C38.0929251,6.57468072 37.8922604,6.52368703 37.668442,6.52368703 Z M32.9609026,6.47952284 C32.6626295,6.47952284 32.4102096,6.56739591 32.204551,6.74450793 C31.9975304,6.92161996 31.8722285,7.15701049 31.8272832,7.45159014 L34.0868041,7.45159014 C34.0482147,7.1620188 33.9265447,6.92753887 33.7217941,6.74815034 C33.5188594,6.56830651 33.2641696,6.47952284 32.9609026,6.47952284 Z M41.4654994,3.99594782 C41.6343847,3.99594782 41.7755764,4.04694152 41.8899825,4.1484736 C42.0043886,4.25091629 42.0615917,4.37885583 42.0615917,4.53411342 C42.0615917,4.69938762 42.0057506,4.83688847 41.8936144,4.94934778 C41.7819322,5.06135179 41.6389246,5.11826439 41.4654994,5.11826439 C41.2961602,5.11826439 41.1545146,5.06408359 41.0401084,4.95663259 C40.9257023,4.8491816 40.8684993,4.71623375 40.8684993,4.55596786 C40.8684993,4.39706786 40.9257023,4.26320942 41.0401084,4.15666902 C41.1545146,4.04921802 41.2961602,3.99594782 41.4654994,3.99594782 Z"/>
  </g>
</svg>
