<?xml version="1.0" encoding="UTF-8"?>
<svg width="40px" height="40px" viewBox="0 0 40 40" version="1.1" xmlns="http://www.w3.org/2000/svg" xmlns:xlink="http://www.w3.org/1999/xlink">
    <!-- Generator: Sketch 59 (86127) - https://sketch.com -->
    <title>icon/40px/LogOut</title>
    <desc>Created with Sketch.</desc>
    <g id="icon/40px/LogOut" stroke="none" stroke-width="1" fill="none" fill-rule="evenodd">
        <circle id="Oval" cx="20" cy="20" r="20"/>
        <path d="M17.8777778,23.9888889 L19.4444444,25.5555556 L25,20 L19.4444444,14.4444444 L17.8777778,16.0111111 L20.7444444,18.8888889 L10,18.8888889 L10,21.1111111 L20.7444444,21.1111111 L17.8777778,23.9888889 Z M27.7777778,10 L12.2222222,10 C10.9888889,10 10,11 10,12.2222222 L10,16.6666667 L12.2222222,16.6666667 L12.2222222,12.2222222 L27.7777778,12.2222222 L27.7777778,27.7777778 L12.2222222,27.7777778 L12.2222222,23.3333333 L10,23.3333333 L10,27.7777778 C10,29 10.9888889,30 12.2222222,30 L27.7777778,30 C29,30 30,29 30,27.7777778 L30,12.2222222 C30,11 29,10 27.7777778,10 Z" id="Shape" fill="#e45141"/>
    </g>
</svg>