<svg xmlns="http://www.w3.org/2000/svg" width="66" height="24" viewBox="0 0 66 24">
  <g fill="#B7BCD9" fill-rule="evenodd" transform="translate(2 2)">
    <path d="M10.3203689,5.15143483e-14 C7.98676448,5.15143483e-14 5.83889881,0.761788783 4.1085961,2.03233881 C3.75667013,1.76713348 3.31955572,1.60340978 2.83914884,1.60340978 C1.68980329,1.60340978 0.756920152,2.50727285 0.756920152,3.62221771 C0.756920152,4.17833705 0.990140937,4.68168595 1.36720448,5.04566673 C0.501354861,6.50835532 -1.61648472e-13,8.19700967 -1.61648472e-13,9.99932346 C-1.61648472e-13,15.5145119 4.62950241,20 10.3203689,20 C16.0126319,20 20.6421343,15.5145119 20.6421343,9.99932346 C20.6421343,4.48548813 16.0126319,5.15143483e-14 10.3203689,5.15143483e-14 L10.3203689,5.15143483e-14 Z" opacity=".3"/>
    <path d="M10.3203689,-5.68434189e-14 C16.0126319,-5.68434189e-14 20.6421343,4.48548813 20.6421343,9.99932346 C20.6421343,15.5145119 16.0126319,20 10.3203689,20 C4.62950241,20 -2.87769808e-13,15.5145119 -2.87769808e-13,9.99932346 C-2.87769808e-13,8.19700967 0.501354861,6.50835532 1.36720448,5.04566673 C0.990140937,4.68168595 0.756920152,4.17833705 0.756920152,3.62221771 C0.756920152,2.50727285 1.68980329,1.60340978 2.83914884,1.60340978 C3.31955572,1.60340978 3.75667013,1.76713348 4.1085961,2.03233881 C5.83889881,0.761788783 7.98676448,-5.68434189e-14 10.3203689,-5.68434189e-14 Z M12.5757675,12.0073067 L3.57791408,16.4589676 C5.29844107,18.1449158 7.68511365,19.1935593 10.3203689,19.1935593 C13.7167338,19.1935593 16.6927428,17.4507814 18.3699773,14.8460862 L18.3699773,14.8460862 L12.5757675,12.0073067 Z M57.6581831,10.7657127 L57.6581831,17.9167851 L26.6356291,17.9167851 L26.6356291,10.7657127 L57.6581831,10.7657127 Z M55.4249894,12.003924 L54.3817802,12.003924 L54.3817802,12.9930316 L53.645808,12.9930316 L53.645808,13.8021785 L54.3817802,13.8021785 L54.3817802,15.8818754 C54.3817802,16.8371558 54.9403929,17.3391516 55.917965,17.3391516 C56.2399653,17.3391516 56.5619656,17.267576 56.805695,17.1244248 L56.9206748,17.0468845 L56.6287996,16.3270415 C56.469595,16.4488194 56.2601153,16.5056491 56.0436529,16.5056491 C55.6792851,16.5056491 55.466112,16.3177823 55.4303646,15.9674636 L55.4249894,15.8575198 L55.4249894,13.8021785 L56.6204204,13.8021785 L56.6204204,12.9930316 L55.4249894,12.9930316 L55.4249894,12.003924 Z M50.9796895,12.9110344 C49.6515879,12.9110344 48.6754123,13.8351938 48.6754123,15.1219809 C48.6754123,16.4074149 49.6432087,17.3383398 51.1388941,17.3383398 C51.8371599,17.3383398 52.4188557,17.1381721 52.8199782,16.755119 L52.9348338,16.6347338 L52.3748246,16.01096 C52.0578119,16.3262296 51.6653865,16.4818348 51.1640317,16.4818348 C50.4393248,16.4818348 49.9177792,16.1282277 49.7492719,15.5684283 L49.7186214,15.4453691 L53.2197262,15.4453691 C53.2281054,15.3479467 53.2350881,15.2261687 53.2350881,15.1449834 C53.2350881,13.7932481 52.28405,12.9110344 50.9796895,12.9110344 Z M37.0780549,12.9115757 C36.4399951,12.9115757 35.8206936,13.0516287 35.3564857,13.3336353 L35.1899441,13.4460456 L35.5991278,14.1821257 C35.9342954,13.9155673 36.4524087,13.7545498 36.9537635,13.7545498 C37.6471881,13.7545498 38.0133649,14.0562945 38.0591065,14.5772756 L38.0640062,14.69224 L38.0640062,14.7571883 L36.9104711,14.7571883 C35.5586284,14.7571883 35.0572736,15.3241323 35.0572736,16.0439754 C35.0572736,16.7962925 35.6996781,17.338881 36.7191462,17.338881 C37.3272723,17.338881 37.7818953,17.1655515 38.0483904,16.8534567 L38.1226605,16.7556999 L38.1226605,17.2820513 L39.1086119,17.2820513 L39.1086119,14.7490698 C39.1086119,13.5028753 38.3642605,12.9115757 37.0780549,12.9115757 Z M28.3899522,11.6168054 L27.4961719,11.6168054 L27.4961719,17.2821866 L28.5323984,17.2821866 L28.5323984,13.5760774 L30.4526294,16.6340572 L30.9372259,16.6340572 L32.8588534,13.5273662 L32.8672326,17.2821866 L33.8950799,17.2821866 L33.8867007,11.6168054 L32.9929205,11.6168054 L30.7123843,15.3716257 L28.3899522,11.6168054 Z M43.0268607,12.9110344 C42.3501776,12.9110344 41.8408476,13.0989013 41.5271998,13.4736183 L41.4390042,13.5916379 L41.4390042,12.9597456 L40.4460702,12.9597456 L40.4460702,17.28151 L41.4892794,17.28151 L41.4892794,15.1869292 C41.4892794,14.3033624 41.9906342,13.8500778 42.7852607,13.8500778 C42.8346049,13.8500778 42.8845697,13.853686 42.9397068,13.8609025 L43.0268607,13.8744334 L43.0268607,12.9110344 Z M44.9575657,11.2769095 L43.91296,11.2769095 L43.91296,17.281916 L44.9575657,17.281916 L44.9575657,16.1399093 L45.7340373,15.4281848 L47.2786013,17.281916 L48.5494451,17.281916 L46.5105089,14.77329 L48.3734821,12.9601515 L47.1207932,12.9601515 L44.9575657,14.9018334 L44.9575657,11.2769095 Z M38.0640062,15.4283201 L38.0640062,15.9303159 C37.8894397,16.375482 37.4453427,16.6028009 36.9356086,16.6028009 C36.4021335,16.6028009 36.0851209,16.3673635 36.0851209,16.0033827 C36.0851209,15.7093759 36.2500897,15.465537 36.8427907,15.4322029 L36.9872803,15.4283201 L38.0640062,15.4283201 Z M1.83085299,14.0802381 C2.1534518,14.7094243 2.54029106,15.302077 2.99695691,15.8392531 L2.99695691,15.8392531 L4.86970585,14.9123875 Z M50.9796895,13.7215344 C51.6196734,13.7215344 52.0917756,14.0951792 52.2188686,14.6510496 L52.2407576,14.7728841 L49.7102422,14.7728841 C49.8107925,14.1423449 50.3037682,13.7215344 50.9796895,13.7215344 Z M10.3203689,0.806440701 C8.19345117,0.806440701 6.2355138,1.49516271 4.65045038,2.64528787 C4.81803418,2.93620188 4.92137752,3.26500237 4.92137752,3.62221771 C4.92137752,4.73580949 3.98989091,5.63831946 2.83914884,5.63831946 C2.5640321,5.63831946 2.30288068,5.58419593 2.06128071,5.48947974 C1.28201605,6.82362492 0.832332861,8.36073337 0.832332861,9.99932346 C0.832332861,11.0993843 1.04320914,12.1480279 1.40910043,13.1263108 L1.40910043,13.1263108 L5.96039707,14.3738583 L19.4913922,7.6801299 C18.4272351,3.73317096 14.7250297,0.806440701 10.3203689,0.806440701 Z M19.6715448,8.4973953 L13.4932888,11.552669 L18.7805576,14.1424802 C19.4327379,12.8962858 19.8098014,11.4904269 19.8098014,9.99932346 C19.8098014,9.48785603 19.7553367,8.98721331 19.6715448,8.4973953 L19.6715448,8.4973953 Z M52.5009314,4.57289764 C53.8038954,4.57289764 54.7647092,5.44834585 54.7647092,6.78384412 C54.7647092,8.12610784 53.8038954,9.00155605 52.5009314,9.00155605 C51.932543,9.00155605 51.4311882,8.81482985 51.0722795,8.41837494 L51.0722795,10.5143089 L50.0276739,10.5143089 L50.0276739,4.62160882 L51.0220044,4.62160882 L51.0220044,5.18855287 C51.3739304,4.77721399 51.8906471,4.57289764 52.5009314,4.57289764 Z M39.1263478,4.57289764 C39.9949905,4.57289764 40.6876702,4.92199445 41.0298205,5.57688925 L40.2282113,6.03017387 C39.9614737,5.61883499 39.5606692,5.43210879 39.1179686,5.43210879 C38.3484797,5.43210879 37.7633329,5.95034165 37.7633329,6.78384412 C37.7633329,7.62546512 38.3484797,8.13557946 39.1179686,8.13557946 C39.5606692,8.13557946 39.9614737,7.94885326 40.2282113,7.53616129 L41.0298205,7.98944591 C40.6876702,8.63622218 39.9949905,9.00155605 39.1263478,9.00155605 C37.7144543,9.00155605 36.7117446,8.07874975 36.7117446,6.78384412 C36.7117446,5.4889385 37.7144543,4.57289764 39.1263478,4.57289764 Z M57.6963084,4.57303295 C59.000669,4.57303295 59.951707,5.4552466 59.951707,6.80698194 C59.951707,6.88816724 59.9447244,7.0099452 59.9363452,7.10736757 L56.4352403,7.10736757 C56.5609282,7.73790677 57.104179,8.1438333 57.8806506,8.1438333 C58.3820055,8.1438333 58.7744309,7.98822813 59.0914435,7.67295853 L59.6514527,8.29673229 C59.2506481,8.75813544 58.6236054,9.00033827 57.855513,9.00033827 C56.3598276,9.00033827 55.3920312,8.06941344 55.3920312,6.78397943 C55.3920312,5.49719234 56.3682068,4.57303295 57.6963084,4.57303295 Z M48.6589332,4.62269129 L48.6589332,8.94445572 L47.6143275,8.94445572 L47.6143275,4.62269129 L48.6589332,4.62269129 Z M42.9360862,2.93917868 L42.9360862,5.12441648 C43.2782364,4.76855423 43.8047288,4.57370949 44.4219958,4.57370949 C45.4917391,4.57370949 46.284969,5.16500913 46.284969,6.46803329 L46.284969,8.9441851 L45.2403634,8.9441851 L45.2403634,6.59792977 C45.2403634,5.82802246 44.847938,5.45592314 44.1803958,5.45592314 C43.4360445,5.45592314 42.9360862,5.89297071 42.9360862,6.7589473 L42.9360862,8.9441851 L41.8914805,8.9441851 L41.8914805,2.93917868 L42.9360862,2.93917868 Z M30.370653,3.27866856 L33.0087013,8.94404979 L31.8733211,8.94404979 L31.2881743,7.63290711 L28.3652336,7.63290711 L27.788466,8.94404979 L26.6698442,8.94404979 L29.3009098,3.27866856 L30.370653,3.27866856 Z M36.2345497,4.57316826 L36.2345497,5.53656721 C36.1423787,5.52033015 36.0669659,5.51221162 35.9915532,5.51221162 C35.1983233,5.51221162 34.6969684,5.96549625 34.6969684,6.84906299 L34.6969684,8.94364387 L33.6523627,8.94364387 L33.6523627,4.62187944 L34.6466933,4.62187944 L34.6466933,5.25377173 C34.9483441,4.80048711 35.4915949,4.57316826 36.2345497,4.57316826 Z M62,2.9380962 L62,8.94310263 L60.9553943,8.94310263 L60.9553943,2.9380962 L62,2.9380962 Z M52.3836227,5.43210879 C51.6322887,5.43210879 51.0555211,5.95846019 51.0555211,6.78384412 C51.0555211,7.60787497 51.6322887,8.13557946 52.3836227,8.13557946 C53.1363533,8.13557946 53.7033451,7.60787497 53.7033451,6.78384412 C53.7033451,5.95846019 53.1363533,5.43210879 52.3836227,5.43210879 Z M29.8260057,4.33137136 L28.7325214,6.80752317 L30.9292657,6.80752317 L29.8260057,4.33137136 Z M57.6963084,5.38353291 C57.0203871,5.38353291 56.5274114,5.80434341 56.4268612,6.43488262 L58.9573765,6.43488262 C58.8749811,5.81246194 58.3820055,5.38353291 57.6963084,5.38353291 Z M48.1394234,2.69724647 C48.5248661,2.69724647 48.8083621,2.94621474 48.8083621,3.2777214 C48.8083621,3.63493674 48.5332453,3.90961369 48.1394234,3.90961369 C47.7553772,3.90961369 47.4718813,3.64305527 47.4718813,3.30343008 C47.4718813,2.96380488 47.7553772,2.69724647 48.1394234,2.69724647 Z"/>
  </g>
</svg>
