<svg xmlns="http://www.w3.org/2000/svg" width="24" height="24" viewBox="0 0 24 24">
  <g fill="#606F87" fill-rule="evenodd" transform="translate(5 3)">
    <path d="M13.9993048,0 L0.000695215709,0 L0.000695215709,1.71444769 L4.25277287,4.83474247 C1.19443009,6.11348881 -0.523513583,9.32396936 0.142552801,12.5158916 C0.808619185,15.7078139 3.67481803,18 7,18 C10.325182,18 13.1913808,15.7078139 13.8574472,12.5158916 C14.5235136,9.32396936 12.8055699,6.11348881 9.74722713,4.83474247 L13.9993048,1.71444769" opacity=".3"/>
    <path d="M9.57224451,15.0014173 L7,13.51842 L4.42775549,15.0014173 L5.11018771,12.1382896 L2.84416278,10.2181082 L5.82761645,9.96951329 L7,7.28640266 L8.17238355,9.96951329 L11.1558372,10.2181082 L8.88981229,12.1382896 M13.9993048,0 L0.000695215709,0 L0.000695215709,1.71444769 L4.25277287,4.83474247 C1.19443009,6.11348881 -0.523513583,9.32396936 0.142552801,12.5158916 C0.808619185,15.7078139 3.67481803,18 7,18 C10.325182,18 13.1913808,15.7078139 13.8574472,12.5158916 C14.5235136,9.32396936 12.8055699,6.11348881 9.74722713,4.83474247 L13.9993048,1.71444769 M12.2494792,11.14391 C12.2507793,13.8531591 10.1068636,16.0988827 7.34778244,16.2783725 C4.58870131,16.4578623 2.16057076,14.5095694 1.79627772,11.8239345 C1.43198468,9.13829954 3.25644881,6.63625311 5.96760254,6.10343376 C6.64874544,5.96623812 7.35125456,5.96623812 8.03239746,6.10343376 C10.4838586,6.58521553 12.2483024,8.69417106 12.2494792,11.14391 M7.55119525,4.28611921 L6.44880475,4.28611921 L2.94915236,1.71444769 L11.1208407,1.71444769 L7.55119525,4.28611921 Z"/>
  </g>
</svg>
