<svg xmlns="http://www.w3.org/2000/svg" width="24" height="24" viewBox="0 0 24 24">
  <g fill="#B7BCD9" fill-rule="evenodd" transform="translate(3 2)">
    <path d="M17.7023657,5.7153087 C16.8387494,4.30729295 15.610505,3.20674917 14.0507804,2.44366371 C12.5144804,1.69131962 10.7337691,1.31000067 8.75814743,1.31000067 L6.74142222,1.31000067 C6.4497197,0.530355584 5.70676219,0 4.8785038,0 L4.87452604,0 C4.04936146,0.00223778728 3.30772988,0.532593372 3.0169113,1.31000067 L0,1.31000067 L0,20 L8.75814743,20 C10.7333271,20 12.5140385,19.6182335 14.0507804,18.8654419 C15.610063,18.1028039 16.8387494,17.0022602 17.7023657,15.594692 C18.5633302,14.1875713 19,12.5248954 19,10.6536577 C19,8.78331506 18.5633302,7.12153423 17.7023657,5.7153087" opacity=".3"/>
    <path d="M4.28007165,3.95461767 L4.28007165,18.8314275 L1.15310893,18.8314275 L1.15310893,2.47767807 L2.93868199,2.47767807 C3.09646654,3.17631526 3.60871386,3.74068521 4.28007165,3.95461767 M17.8460071,10.6536577 C17.8460071,12.3055922 17.4681198,13.7610491 16.7225104,14.9788529 C15.9755751,16.1962092 14.9077671,17.1495066 13.5486985,17.8141294 C12.170625,18.4894936 10.5587476,18.8314275 8.75814743,18.8314275 L5.43362255,18.8314275 L5.43362255,3.9680444 C6.12884691,3.76530087 6.65877317,3.19556023 6.82009351,2.47767807 L8.75814743,2.47767807 C10.5587476,2.47767807 12.170625,2.82005953 13.5486985,3.49542373 C14.9082091,4.15959899 15.9760171,5.11379148 16.7225104,6.33114776 C17.4681198,7.54850404 17.8460071,9.00306577 17.8460071,10.6536577 M17.7023657,5.7153087 C16.8387494,4.30729295 15.610505,3.20674917 14.0507804,2.44366371 C12.5144804,1.69131962 10.7337691,1.31000067 8.75814743,1.31000067 L6.74142222,1.31000067 C6.4497197,0.530355584 5.70676219,0 4.8785038,0 L4.87452604,0 C4.04936146,0.00223778728 3.30772988,0.532593372 3.0169113,1.31000067 L0,1.31000067 L0,20 L8.75814743,20 C10.7333271,20 12.5140385,19.6182335 14.0507804,18.8654419 C15.610063,18.1028039 16.8387494,17.0022602 17.7023657,15.594692 C18.5633302,14.1875713 19,12.5248954 19,10.6536577 C19,8.78331506 18.5633302,7.12153423 17.7023657,5.7153087"/>
  </g>
</svg>
