<svg width="22" height="22" viewBox="0 0 22 22" fill="none" xmlns="http://www.w3.org/2000/svg">
<path d="M10.9448 16.06C13.5298 16.06 15.6198 13.97 15.6198 11.385V4.675C15.6198 2.09 13.5298 0 10.9448 0C8.35978 0 6.26978 2.09 6.26978 4.675V11.385C6.26978 13.97 8.35978 16.06 10.9448 16.06ZM7.36978 10.78H9.56978C9.89978 10.78 10.1198 10.56 10.1198 10.23C10.1198 9.9 9.89978 9.68 9.56978 9.68H7.36978V8.58H9.56978C9.89978 8.58 10.1198 8.36 10.1198 8.03C10.1198 7.7 9.89978 7.48 9.56978 7.48H7.36978V6.38H9.56978C9.89978 6.38 10.1198 6.16 10.1198 5.83C10.1198 5.5 9.89978 5.28 9.56978 5.28H7.36978V4.675C7.36978 2.695 8.96478 1.1 10.9448 1.1C12.9248 1.1 14.5198 2.695 14.5198 4.675V5.28H12.3198C11.9898 5.28 11.7698 5.5 11.7698 5.83C11.7698 6.105 12.0448 6.38 12.3198 6.38H14.5198V7.48H12.3198C11.9898 7.48 11.7698 7.7 11.7698 8.03C11.7698 8.305 12.0448 8.58 12.3198 8.58H14.5198V9.68H12.3198C11.9898 9.68 11.7698 9.9 11.7698 10.23C11.7698 10.505 12.0448 10.78 12.3198 10.78H14.5198V11.385C14.5198 13.365 12.9248 14.96 10.9448 14.96C8.96478 14.96 7.36978 13.365 7.36978 11.385V10.78Z" fill="black"/>
<path d="M17.8198 11.33C17.8198 11.055 17.5448 10.78 17.2698 10.78C16.9948 10.78 16.7198 11.055 16.7198 11.33C16.7198 14.52 14.1348 17.105 10.9448 17.105C7.75482 17.105 5.16982 14.52 5.16982 11.33C5.16982 11.055 4.89482 10.78 4.61982 10.78C4.34482 10.78 4.06982 11.055 4.06982 11.33C4.06982 14.96 6.87482 17.93 10.3948 18.205V20.9H6.81982C6.54482 20.9 6.26982 21.12 6.26982 21.45C6.26982 21.78 6.54482 22 6.81982 22H15.0698C15.3448 22 15.6198 21.78 15.6198 21.45C15.6198 21.12 15.3448 20.9 15.0698 20.9H11.4948V18.205C15.0148 17.93 17.8198 14.96 17.8198 11.33Z" fill="black"/>
</svg>
