<svg xmlns="http://www.w3.org/2000/svg" width="24" height="24" viewBox="0 0 24 24">
  <path fill="#B7BCD9" fill-rule="evenodd" d="M12,2 C12,0.8954305 12.8954305,0 14,0 C15.1045695,0 16,0.8954305 16,2 C16,3.1045695 15.1045695,4 14,4 C12.8954305,4 12,3.1045695 12,2 M6,2 C6,0.8954305 6.8954305,0 8,0 C9.1045695,0 10,0.8954305 10,2 C10,3.1045695 9.1045695,4 8,4 C6.8954305,4 6,3.1045695 6,2 M0,2 C0,0.8954305 0.8954305,0 2,0 C3.1045695,0 4,0.8954305 4,2 C4,3.1045695 3.1045695,4 2,4 C0.8954305,4 0,3.1045695 0,2 Z" transform="translate(4 10)"/>
</svg>
