<svg xmlns="http://www.w3.org/2000/svg" width="24" height="24" viewBox="0 0 24 24">
  <path fill="#B7BCD9" fill-rule="evenodd" d="M5.47826087,10.1818182 C4.51776565,10.1818182 3.73913043,10.9958459 3.73913043,12 C3.73913043,13.0090909 4.52173913,13.8181818 5.47826087,13.8181818 C6.44347826,13.8181818 7.2173913,13.0090909 7.2173913,12 C7.2173913,10.9958459 6.43875609,10.1818182 5.47826087,10.1818182 L5.47826087,10.1818182 Z M5.47826087,15.6363636 C3.55727044,15.6363636 2,14.0083082 2,12 C2,9.99169182 3.55727044,8.36363636 5.47826087,8.36363636 C6.40075301,8.36363636 7.28546227,8.74675215 7.93776272,9.42870261 C8.59006316,10.1106531 8.95652174,11.0355764 8.95652174,12 C8.95652174,14.0083082 7.3992513,15.6363636 5.47826087,15.6363636 L5.47826087,15.6363636 Z M10.2608696,11.0909091 L13.3043478,11.0909091 L13.3043478,8.36363636 L16.7826087,12 L13.3043478,15.6363636 L13.3043478,12.9090909 L10.2608696,12.9090909 L10.2608696,11.0909091 L10.2608696,11.0909091 Z M5.47826087,6.54545455 C5.08695652,6.54545455 4.70434783,6.59090909 4.33913043,6.67272727 C6.02608696,3.86363636 9.02608696,2 12.4347826,2 C17.7217391,2 22,6.47272727 22,12 C22,17.5272727 17.7217391,22 12.4347826,22 C9.02608696,22 6.02608696,20.1363636 4.33913043,17.3272727 C4.70434783,17.4090909 5.08695652,17.4545455 5.47826087,17.4545455 C6.17391304,17.4545455 6.83478261,17.3090909 7.43478261,17.0545455 C8.70434783,18.4272727 10.4695652,19.2727273 12.4347826,19.2727273 C16.2767635,19.2727273 19.3913043,16.0166164 19.3913043,12 C19.3913043,7.98338364 16.2767635,4.72727273 12.4347826,4.72727273 C10.4695652,4.72727273 8.70434783,5.57272727 7.43478261,6.94545455 C6.83478261,6.69090909 6.17391304,6.54545455 5.47826087,6.54545455 Z"/>
</svg>
