<svg xmlns="http://www.w3.org/2000/svg" width="24" height="24" viewBox="0 0 24 24">
  <path fill="#B7BCD9" fill-rule="evenodd" d="M13.1572438,3 C18.0424028,3 22,7.05 22,12 C22,16.95 18.0424028,21 13.1572438,21 C10.0565371,21 7.34452297,19.362 5.76325088,16.887 L7.1590106,15.762 C8.40459364,17.823 10.6219081,19.2 13.1660777,19.2 C17.0691502,19.2 20.2332155,15.9764502 20.2332155,12 C20.2332155,8.0235498 17.0691502,4.8 13.1660777,4.8 C9.56183746,4.8 6.59363958,7.554 6.16077739,11.1 L8.59893993,11.1 L5.295053,14.457 L2,11.1 L4.37632509,11.1 C4.8180212,6.555 8.58127208,3 13.1572438,3 L13.1572438,3 Z M15.7720848,10.416 C16.2137809,10.425 16.5759717,10.785 16.5759717,11.244 L16.5759717,15.393 C16.5759717,15.843 16.2137809,16.221 15.7632509,16.221 L10.8780919,16.221 C10.4275618,16.221 10.065371,15.843 10.065371,15.393 L10.065371,11.244 C10.065371,10.785 10.4275618,10.425 10.869258,10.416 L10.869258,9.507 C10.869258,8.13 11.9734982,7.014 13.3162544,7.014 C14.6678445,7.014 15.7720848,8.13 15.7720848,9.507 L15.7720848,10.416 L15.7720848,10.416 Z M13.3162544,8.274 C12.6537102,8.274 12.1060071,8.823 12.1060071,9.507 L12.1060071,10.416 L14.5353357,10.416 L14.5353357,9.507 C14.5353357,8.823 13.9876325,8.274 13.3162544,8.274 Z"/>
</svg>
