<svg xmlns="http://www.w3.org/2000/svg" width="24" height="24" viewBox="0 0 24 24">
  <g fill="#B7BCD9" fill-rule="evenodd" transform="translate(4 2)">
    <polygon points="14 18 14 7 9 7 9 2 2 2 2 18" opacity=".3"/>
    <path d="M10,0 L16,6 L16,18 C16,19.1045695 15.1045695,20 14,20 L2,20 C0.8954305,20 0,19.1045695 0,18 L0,2 C0,0.8954305 0.8954305,0 2,0 L10,0 L10,0 Z M14,18 L14,7 L9,7 L9,2 L2,2 L2,18 L14,18 L14,18 Z M6.92,10.31 C6.68,9.54 6.15,7.08 7.55,7.04 C8.95,7 8.03,10.16 8.03,10.16 C8.42,11.65 10.05,12.72 10.05,12.72 C10.55,12.57 13.4,12.24 13,13.72 C12.57,15.2 9.5,13.81 9.5,13.81 C7.55,13.95 6.09,14.47 6.09,14.47 C4.96,16.58 3.64,17.5 3.1,16.61 C2.43,15.5 5.23,14.07 5.23,14.07 C6.68,11.72 6.9,10.35 6.92,10.31 L6.92,10.31 Z M7.57,11.15 C7.17,12.45 6.37,13.84 6.37,13.84 C7.22,13.5 9.08,13.11 9.08,13.11 C7.94,12.11 7.59,11.16 7.57,11.15 L7.57,11.15 Z M10.71,13.32 C10.71,13.32 12.46,13.97 12.5,13.71 C12.57,13.44 11.17,13.2 10.71,13.32 L10.71,13.32 Z M5.05,14.81 C4.28,15.11 3.54,16.39 3.72,16.39 C3.9,16.4 4.63,15.79 5.05,14.81 L5.05,14.81 Z M7.57,9.26 C7.57,9.21 8,7.58 7.57,7.53 C7.27,7.5 7.56,9.22 7.57,9.26 Z"/>
  </g>
</svg>
