<svg xmlns="http://www.w3.org/2000/svg" width="24" height="24" viewBox="0 0 24 24">
  <g fill="#B7BCD9" fill-rule="evenodd" transform="translate(3 3)">
    <path d="M2,16 L16,16 L16,2 L2,2 L2,16 Z M6,10.14 L8.14,12.72 L11.14,8.85 L15,14 L3,14 L6,10.14 Z" opacity=".3"/>
    <path d="M0,2 L0,16 C0,17.1 0.9,18 2,18 L16,18 C17.1,18 18,17.1 18,16 L18,2 C18,0.9 17.1,0 16,0 L2,0 C0.9,0 0,0.9 0,2 Z M16,16 L2,16 L2,2 L16,2 L16,16 Z M11.14,8.86 L8.14,12.72 L6,10.14 L3,14 L15,14 L11.14,8.86 Z"/>
  </g>
</svg>
