<?xml version="1.0" encoding="UTF-8"?>
<svg width="40px" height="40px" viewBox="0 0 40 40" version="1.1" xmlns="http://www.w3.org/2000/svg" xmlns:xlink="http://www.w3.org/1999/xlink">
    <!-- Generator: Sketch 59 (86127) - https://sketch.com -->
    <title>icon/40px/Profil</title>
    <desc>Created with Sketch.</desc>
    <g id="icon/40px/Profil" stroke="none" stroke-width="1" fill="none" fill-rule="evenodd">
        <circle id="Oval" cx="20" cy="20" r="20"/>
        <path d="M20,10 C14.48,10 10,14.48 10,20 C10,25.52 14.48,30 20,30 C25.52,30 30,25.52 30,20 C30,14.48 25.52,10 20,10 Z M15.07,26.28 C15.5,25.38 18.12,24.5 20,24.5 C21.88,24.5 24.51,25.38 24.93,26.28 C23.57,27.36 21.86,28 20,28 C18.14,28 16.43,27.36 15.07,26.28 Z M26.36,24.83 C24.93,23.09 21.46,22.5 20,22.5 C18.54,22.5 15.07,23.09 13.64,24.83 C12.62,23.49 12,21.82 12,20 C12,15.59 15.59,12 20,12 C24.41,12 28,15.59 28,20 C28,21.82 27.38,23.49 26.36,24.83 L26.36,24.83 Z M20,14 C18.06,14 16.5,15.56 16.5,17.5 C16.5,19.44 18.06,21 20,21 C21.94,21 23.5,19.44 23.5,17.5 C23.5,15.56 21.94,14 20,14 Z M20,19 C19.17,19 18.5,18.33 18.5,17.5 C18.5,16.67 19.17,16 20,16 C20.83,16 21.5,16.67 21.5,17.5 C21.5,18.33 20.83,19 20,19 Z" id="Shape" fill="#5F697A"/>
    </g>
</svg>