<?xml version="1.0" encoding="UTF-8"?>
<svg width="16px" height="16px" viewBox="0 0 16 16" version="1.1" xmlns="http://www.w3.org/2000/svg" xmlns:xlink="http://www.w3.org/1999/xlink">
    <title>icons/24px/refresh/background</title>
    <g id="Dark" stroke="none" stroke-width="1" fill="none" fill-rule="evenodd">
        <g id="Projects" transform="translate(-1343.000000, -357.000000)" fill="#B7BCD9">
            <g id="Group" transform="translate(1339.000000, 353.000000)">
                <g id="Path-2" transform="translate(3.010000, 4.000000)">
                    <path d="M8.982,0 C4.566,0 0.99,3.584 0.99,8 C0.99,12.416 4.566,16 8.982,16 C13.406,16 16.99,12.416 16.99,8 C16.99,3.584 13.406,0 8.982,0 Z" id="Path" opacity="0.3"></path>
                    <path d="M14.64,2.35 C13.19,0.9 11.2,0 8.99,0 C4.57,0 1,3.58 1,8 C1,12.42 4.57,16 8.99,16 C12.72,16 15.83,13.45 16.72,10 L14.64,10 C13.82,12.33 11.6,14 8.99,14 C5.68,14 2.99,11.31 2.99,8 C2.99,4.69 5.68,2 8.99,2 C10.65,2 12.13,2.69 13.21,3.78 L9.99,7 L16.99,7 L16.99,0 L14.64,2.35 Z" id="Path"></path>
                </g>
            </g>
        </g>
    </g>
</svg>