<?xml version="1.0" encoding="UTF-8"?>
<svg width="24px" height="24px" viewBox="0 0 24 24" version="1.1" xmlns="http://www.w3.org/2000/svg" xmlns:xlink="http://www.w3.org/1999/xlink">
    <!-- Generator: sketchtool 62 (101010) - https://sketch.com -->
    <title>0887EBB1-B14C-4207-A7D6-7760A66BA8A2</title>
    <desc>Created with sketchtool.</desc>
    <g id="Asset-Artboard-Page" stroke="none" stroke-width="1" fill="none" fill-rule="evenodd">
        <g id="Icons/24px/Pencil-Icons/24px/remove_member" fill="#FF3F33">
            <path d="M2.41818182,9.27 L3.70909091,8.0275 L5.63636364,9.89125 L7.56363636,8.0275 L8.85454545,9.27 L6.91818182,11.125 L8.85454545,12.98 L7.56363636,14.2225 L5.63636364,12.35875 L3.70909091,14.2225 L2.41818182,12.98 L4.35454545,11.125 L2.41818182,9.27 M14.7272727,5 C16.7355809,5 18.3636364,6.56700338 18.3636364,8.5 C18.3636364,10.4329966 16.7355809,12 14.7272727,12 C12.7189645,12 11.0909091,10.4329966 11.0909091,8.5 C11.0909091,6.56700338 12.7189645,5 14.7272727,5 M14.7272727,6.6625 C13.6729109,6.6625 12.8181818,7.48517677 12.8181818,8.5 C12.8181818,9.51482323 13.6729109,10.3375 14.7272727,10.3375 C15.7818182,10.3375 16.6363636,9.515 16.6363636,8.5 C16.6363636,7.485 15.7818182,6.6625 14.7272727,6.6625 M14.7272727,12.875 C17.1545455,12.875 22,14.03875 22,16.375 L22,19 L7.45454545,19 L7.45454545,16.375 C7.45454545,14.03875 12.3,12.875 14.7272727,12.875 M14.7272727,14.5375 C12,14.5375 9.18181818,15.815 9.18181818,16.375 L9.18181818,17.3375 L20.2727273,17.3375 L20.2727273,16.375 C20.2727273,15.815 17.4272727,14.5375 14.7272727,14.5375 Z" id="Shape"></path>
        </g>
    </g>
</svg>