<svg xmlns="http://www.w3.org/2000/svg" width="24" height="24" viewBox="0 0 24 24">
  <g fill="#B7BCD9" fill-rule="evenodd" transform="translate(3 3)">
    <path d="M2,16 L16,16 L16,2 L2,2 L2,16 Z M8,4 L14,4 L14,6 L8,6 L8,4 Z M8,8 L14,8 L14,10 L8,10 L8,8 Z M8,12 L14,12 L14,14 L8,14 L8,12 Z M4,4 L6,4 L6,6 L4,6 L4,4 Z M4,8 L6,8 L6,10 L4,10 L4,8 Z M4,12 L6,12 L6,14 L4,14 L4,12 Z" opacity=".3"/>
    <path d="M8,4 L14,4 L14,6 L8,6 L8,4 Z M8,8 L14,8 L14,10 L8,10 L8,8 Z M8,12 L14,12 L14,14 L8,14 L8,12 Z M4,4 L6,4 L6,6 L4,6 L4,4 Z M4,8 L6,8 L6,10 L4,10 L4,8 Z M4,12 L6,12 L6,14 L4,14 L4,12 Z M17.1,0 L0.9,0 C0.4,0 0,0.4 0,0.9 L0,17.1 C0,17.5 0.4,18 0.9,18 L17.1,18 C17.5,18 18,17.5 18,17.1 L18,0.9 C18,0.4 17.5,0 17.1,0 L17.1,0 Z M16,16 L2,16 L2,2 L16,2 L16,16 Z"/>
  </g>
</svg>
