<svg xmlns="http://www.w3.org/2000/svg" width="24" height="24" viewBox="0 0 24 24">
  <path fill="#B7BCD9" fill-rule="evenodd" d="M4.54545455,11.7 C5.54960864,11.7 6.36363636,12.5058875 6.36363636,13.5 L6.36363636,15.3 L7.27272727,15.3 L7.27272727,13.5 C7.27272727,12.5058875 8.086755,11.7 9.09090909,11.7 L10.9090909,11.7 C11.913245,11.7 12.7272727,12.5058875 12.7272727,13.5 L12.7272727,15.3 L13.6363636,15.3 L13.6363636,13.5 C13.6363636,12.5058875 14.4503914,11.7 15.4545455,11.7 L17.2727273,11.7 C18.2768814,11.7 19.0909091,12.5058875 19.0909091,13.5 L19.0909091,15.3 L20,15.3 L20,18 L-8.34887715e-14,18 L-8.34887715e-14,15.3 L0.909090909,15.3 L0.909090909,13.5 C0.909090909,12.5058875 1.72311864,11.7 2.72727273,11.7 L4.54545455,11.7 Z M9.09090909,4.5 L12.7272727,7.2 L9.09090909,9.9 L9.09090909,4.5 Z M2.72727273,0 L17.2727273,0 C18.2768814,0 19.0909091,0.80588745 19.0909091,1.8 L19.0909091,10.386 C18.5545455,10.071 17.9363636,9.9 17.2727273,9.9 L17.2727273,1.8 L2.72727273,1.8 L2.72727273,9.9 C2.06363636,9.9 1.44545455,10.071 0.909090909,10.386 L0.909090909,1.8 C0.909090909,0.80588745 1.72311864,0 2.72727273,0 Z" transform="translate(2 3)"/>
</svg>
