<svg xmlns="http://www.w3.org/2000/svg" width="24" height="24" viewBox="0 0 24 24">
  <path fill="#B7BCD9" fill-rule="evenodd" d="M5.68140228,18 L5.68140228,14.9657143 L7.2469415,13.2857143 L10.9775882,18 L14.1253213,18 L9.01233679,11.3485714 L13.8421918,6 L10.8443508,6 L5.68140228,11.6057143 L5.68140228,6 L3,6 L3,18 L5.68140228,18 Z M18.0354683,18 L18.0354683,13.6457143 C18.0354683,11.88 18.9847846,11.0742857 20.4170865,11.0742857 C20.6169425,11.0742857 20.7834893,11.0914286 21,11.1085714 L21,8.64 C19.6176622,8.64 18.5517631,9.10285714 17.9188856,9.99428571 L17.9188856,8.77714286 L15.4373394,8.77714286 L15.4373394,18 L18.0354683,18 Z"/>
</svg>
