<svg xmlns="http://www.w3.org/2000/svg" width="24" height="24" viewBox="0 0 24 24">
  <g fill="#B7BCD9" fill-rule="evenodd" transform="translate(2 2)">
    <path d="M12.0556397,0 C12.3125946,0 12.5284368,0.18 12.5695496,0.42 L12.9498429,3.07 C13.5973694,3.32 14.1523921,3.66 14.6868584,4.05 L17.2461298,3.05 C17.4722502,2.96 17.7497616,3.05 17.8730999,3.27 L19.9287396,6.73 C20.0623562,6.95 20.000687,7.22 19.8054012,7.37 L17.6367014,9 L17.7086488,10 L17.6367014,11 L19.8054012,12.63 C20.000687,12.78 20.0623562,13.05 19.9287396,13.27 L17.8730999,16.73 C17.7497616,16.95 17.4722502,17.04 17.2461298,16.95 L14.6868584,15.95 C14.1523921,16.34 13.5973694,16.68 12.9498429,16.93 L12.5695496,19.58 C12.5284368,19.82 12.3125946,20 12.0556397,20 L7.94436033,20 C7.68740537,20 7.47156321,19.82 7.43045041,19.58 L7.05015707,16.93 C6.40263058,16.68 5.84760787,16.34 5.31314155,15.94 L2.75387017,16.95 C2.5277498,17.03 2.25023845,16.95 2.12690007,16.73 L0.0712603977,13.27 C-0.0623561808,13.05 -0.000686990737,12.78 0.194598778,12.63 L2.36329863,10.97 L2.29135124,10 L2.36329863,9 L0.194598778,7.37 C-0.000686990737,7.22 -0.0623561808,6.95 0.0712603977,6.73 L2.12690007,3.27 C2.25023845,3.05 2.5277498,2.96 2.75387017,3.05 L5.31314155,4.05 C5.84760787,3.66 6.40263058,3.32 7.05015707,3.07 L7.43045041,0.42 C7.47156321,0.18 7.68740537,0 7.94436033,0 L12.0556397,0 Z M10,8 C8.86470156,8 7.94436033,8.8954305 7.94436033,10 C7.94436033,11.1045695 8.86470156,12 10,12 C11.1352984,12 12.0556397,11.1045695 12.0556397,10 C12.0556397,8.8954305 11.1352984,8 10,8 Z" opacity=".3"/>
    <path d="M10,6 C12.2705969,6 14.1112793,7.790861 14.1112793,10 C14.1112793,12.209139 12.2705969,14 10,14 C7.72940312,14 5.88872066,12.209139 5.88872066,10 C5.88872066,7.790861 7.72940312,6 10,6 M10,8 C8.86470156,8 7.94436033,8.8954305 7.94436033,10 C7.94436033,11.1045695 8.86470156,12 10,12 C11.1352984,12 12.0556397,11.1045695 12.0556397,10 C12.0556397,8.8954305 11.1352984,8 10,8 M7.94436033,20 C7.68740537,20 7.47156321,19.82 7.43045041,19.58 L7.05015707,16.93 C6.40263058,16.68 5.84760787,16.34 5.31314155,15.94 L2.75387017,16.95 C2.5277498,17.03 2.25023845,16.95 2.12690007,16.73 L0.0712603977,13.27 C-0.0623561808,13.05 -0.000686990737,12.78 0.194598778,12.63 L2.36329863,10.97 L2.29135124,10 L2.36329863,9 L0.194598778,7.37 C-0.000686990737,7.22 -0.0623561808,6.95 0.0712603977,6.73 L2.12690007,3.27 C2.25023845,3.05 2.5277498,2.96 2.75387017,3.05 L5.31314155,4.05 C5.84760787,3.66 6.40263058,3.32 7.05015707,3.07 L7.43045041,0.42 C7.47156321,0.18 7.68740537,0 7.94436033,0 L12.0556397,0 C12.3125946,0 12.5284368,0.18 12.5695496,0.42 L12.9498429,3.07 C13.5973694,3.32 14.1523921,3.66 14.6868584,4.05 L17.2461298,3.05 C17.4722502,2.96 17.7497616,3.05 17.8730999,3.27 L19.9287396,6.73 C20.0623562,6.95 20.000687,7.22 19.8054012,7.37 L17.6367014,9 L17.7086488,10 L17.6367014,11 L19.8054012,12.63 C20.000687,12.78 20.0623562,13.05 19.9287396,13.27 L17.8730999,16.73 C17.7497616,16.95 17.4722502,17.04 17.2461298,16.95 L14.6868584,15.95 C14.1523921,16.34 13.5973694,16.68 12.9498429,16.93 L12.5695496,19.58 C12.5284368,19.82 12.3125946,20 12.0556397,20 L7.94436033,20 M9.22913512,2 L8.84884179,4.61 C7.61545798,4.86 6.52596896,5.5 5.73454769,6.39 L3.25750188,5.35 L2.48663701,6.65 L4.65533686,8.2 C4.24420893,9.37 4.24420893,10.64 4.65533686,11.8 L2.47635881,13.36 L3.24722369,14.66 L5.74482588,13.62 C6.53624716,14.5 7.61545798,15.14 8.83856359,15.38 L9.21885693,18 L10.7811431,18 L11.1614364,15.39 C12.384542,15.14 13.4637528,14.5 14.2551741,13.62 L16.7527763,14.66 L17.5236412,13.36 L15.3446631,11.81 C15.7557911,10.64 15.7557911,9.37 15.3446631,8.2 L17.513363,6.65 L16.7424981,5.35 L14.2654523,6.39 C13.474031,5.5 12.384542,4.86 11.1511582,4.62 L10.7708649,2 L9.22913512,2 Z"/>
  </g>
</svg>
