<?xml version="1.0" encoding="UTF-8"?>
<svg width="72px" height="72px" viewBox="0 0 72 72" version="1.1" xmlns="http://www.w3.org/2000/svg" xmlns:xlink="http://www.w3.org/1999/xlink">
    <!-- Generator: Sketch 59 (86127) - https://sketch.com -->
    <title></title>
    <desc>Created with Sketch.</desc>
    <g id="icon/72px/Star" stroke="none" stroke-width="1" fill="none" fill-rule="evenodd">
        <circle id="Oval" cx="36" cy="36" r="36"></circle>
        <path d="M57.4484469,28.395813 L43.875851,27.2153034 L38.5758084,14.7075228 C37.6223616,12.4308257 34.3694254,12.4308257 33.4159786,14.7075228 L28.115936,27.2434108 L14.5713827,28.395813 C12.1036379,28.5925646 11.094106,31.6843755 12.9729571,33.3146031 L23.2645742,42.2527474 L20.1798933,55.519427 C19.6190423,57.936661 22.2269997,59.8479623 24.3582338,58.5550232 L35.9958935,51.5281802 L47.6335532,58.5831306 C49.7647872,59.8760697 52.3727447,57.9647684 51.8118936,55.5475344 L48.7272128,42.2527474 L59.0188299,33.3146031 C60.897681,31.6843755 59.9161916,28.5925646 57.4484469,28.395813 L57.4484469,28.395813 Z M35.9958935,46.2721016 L25.4518934,52.6524751 L28.2561487,40.6225198 L18.946021,32.5275967 L31.2286594,31.4595166 L35.9958935,20.1322456 L40.7911701,31.4876239 L53.0738086,32.5557041 L43.7636808,40.6506272 L46.5679361,52.6805824 L35.9958935,46.2721016 Z" id="Shape" fill="#5F697A" fill-rule="nonzero"></path>
    </g>
</svg>
