<svg xmlns="http://www.w3.org/2000/svg" width="24" height="24" viewBox="0 0 24 24">
  <g fill="#B7BCD9" fill-rule="evenodd">
  <path d="M20.9368529,9.35914016 L15.2816046,8.87153836 L13.0732535,3.70528118 C12.675984,2.76490627 11.3205939,2.76490627 10.9233244,3.70528118 L8.71497332,8.88314793 L3.07140944,9.35914016 C2.04318248,9.44040713 1.62254418,10.7174595 2.40539879,11.3908143 L6.69357259,15.0826565 L5.40828889,20.562372 C5.17460095,21.5607948 6.26124989,22.3502453 7.14926409,21.8162052 L11.998289,18.9138136 L16.8473138,21.8278148 C17.735328,22.3618549 18.821977,21.5724043 18.588289,20.5739816 L17.3030053,15.0826565 L21.5911791,11.3908143 C22.3740337,10.7174595 21.9650798,9.44040713 20.9368529,9.35914016 L20.9368529,9.35914016 Z M11.998289,16.7428246 L7.60495558,19.3781962 L8.77339531,14.4093017 L4.89417541,11.0657465 L10.0119414,10.6245829 L11.998289,5.94592755 L13.9963209,10.6361925 L19.1140869,11.077356 L15.234867,14.4209112 L16.4033067,19.3898058 L11.998289,16.7428246 Z"/>
  </g>
</svg>
