<svg xmlns="http://www.w3.org/2000/svg" width="24" height="24" viewBox="0 0 24 24">
  <g fill="#B7BCD9" fill-rule="evenodd" transform="translate(2 2)">
    <path d="M2.22222222,0 C0.988888889,0 0,0.988888889 0,2.22222222 L0,17.7777778 C0,19.0111111 0.988888889,20 2.22222222,20 L17.7777778,20 C19.0111111,20 20,19.0111111 20,17.7777778 L20,2.22222222 C20,0.988888889 19.0111111,0 17.7777778,0 L2.22222222,0 L2.22222222,0 Z" opacity=".3"/>
    <path d="M2.22222222,0 C0.988888889,0 0,0.988888889 0,2.22222222 L0,17.7777778 C0,19.0111111 0.988888889,20 2.22222222,20 L17.7777778,20 C19.0111111,20 20,19.0111111 20,17.7777778 L20,2.22222222 C20,0.988888889 19.0111111,0 17.7777778,0 L2.22222222,0 L2.22222222,0 Z M2.22222222,2.22222222 L17.7777778,2.22222222 L17.7777778,17.7777778 L2.22222222,17.7777778 L2.22222222,2.22222222 L2.22222222,2.22222222 Z M4.44444444,4.44444444 L4.44444444,6.66666667 L15.5555556,6.66666667 L15.5555556,4.44444444 L4.44444444,4.44444444 L4.44444444,4.44444444 Z M4.44444444,8.88888889 L4.44444444,11.1111111 L15.5555556,11.1111111 L15.5555556,8.88888889 L4.44444444,8.88888889 L4.44444444,8.88888889 Z M4.44444444,13.3333333 L4.44444444,15.5555556 L12.2222222,15.5555556 L12.2222222,13.3333333 L4.44444444,13.3333333 Z"/>
  </g>
</svg>
