<svg xmlns="http://www.w3.org/2000/svg" width="24" height="24" viewBox="0 0 24 24">
  <g fill="#B7BCD9" fill-rule="evenodd" transform="translate(1 3)">
    <polygon points="14 12 9.66 16.34 11 11 2 11 2 9 5 2 14 2" opacity=".3"/>
    <path d="M14,0 L5,0 C4.17,0 3.46,0.5 3.16,1.22 L0.14,8.27 C0.05,8.5 0,8.74 0,9 L0,11 C0,12.1 0.9,13 2,13 L8.31,13 L7.36,17.57 L7.33,17.89 C7.33,18.3 7.5,18.68 7.77,18.95 L8.83,20 L15.42,13.41 C15.78,13.05 16,12.55 16,12 L16,2 C16,0.9 15.1,0 14,0 Z M14,12 L9.66,16.34 L11,11 L2,11 L2,9 L5,2 L14,2 L14,12 Z M18,0 L22,0 L22,12 L18,12 L18,0 Z"/>
  </g>
</svg>
