<svg xmlns="http://www.w3.org/2000/svg" width="24" height="24" viewBox="0 0 24 24">
  <path fill="#B7BCD9" fill-rule="evenodd" d="M22,9.91164584 L14.4661575,9.91164584 L17.5108077,6.77810072 C14.4772693,3.77789794 9.56582628,3.66677932 6.53228792,6.66698209 C3.49874956,9.67829673 3.49874956,14.5341805 6.53228792,17.556607 C9.56582628,20.5568098 14.4772693,20.5568098 17.5108077,17.556607 C19.0220209,16.0565056 19.7776276,14.3119432 19.7776276,12.1117945 L22,12.1117945 C22,14.3119432 21.0221561,17.1676918 19.0664684,19.1011558 C15.1662048,22.9680838 8.83244338,22.9680838 4.93217977,19.1011558 C1.04302803,15.2453397 1.00969244,8.97824942 4.90995605,5.12243326 C8.81021965,1.2666171 15.066198,1.2666171 18.9664616,5.12243326 L22,2 L22,9.91164584 L22,9.91164584 Z M12.5549172,7.55593106 L12.5549172,12.2784725 L16.4440689,14.5897398 L15.6440149,15.9342751 L10.8881379,13.1118621 L10.8881379,7.55593106 L12.5549172,7.55593106 Z"/>
</svg>
