<svg xmlns="http://www.w3.org/2000/svg" width="24" height="24" viewBox="0 0 24 24">
  <g fill="#B7BCD9" fill-rule="evenodd" transform="translate(2 3)">
    <path d="M2.10526316,2.11111111 L16.8421053,2.11111111 L16.8421053,4.22222222 L10.5263158,4.22222222 C9.36361105,4.22222222 8.42105263,5.16739886 8.42105263,6.33333333 L8.42105263,12.6666667 C8.42105263,13.8326011 9.36361105,14.7777778 10.5263158,14.7777778 L16.8421053,14.7777778 L16.8421053,16.8888889 L2.10526316,16.8888889 L2.10526316,2.11111111" opacity=".3"/>
    <path d="M2.10526316,0 C0.936842105,0 0,0.95 0,2.11111111 L0,16.8888889 C0,18.0548234 0.942558421,19 2.10526316,19 L16.8421053,19 C18.00481,19 18.9473684,18.0548234 18.9473684,16.8888889 L18.9473684,14.4822222 C19.5684211,14.1127778 20,13.4477778 20,12.6666667 L20,6.33333333 C20,5.55222222 19.5684211,4.88722222 18.9473684,4.51777778 L18.9473684,2.11111111 C18.9473684,0.945176639 18.00481,0 16.8421053,0 L2.10526316,0 M2.10526316,2.11111111 L16.8421053,2.11111111 L16.8421053,4.22222222 L10.5263158,4.22222222 C9.36361105,4.22222222 8.42105263,5.16739886 8.42105263,6.33333333 L8.42105263,12.6666667 C8.42105263,13.8326011 9.36361105,14.7777778 10.5263158,14.7777778 L16.8421053,14.7777778 L16.8421053,16.8888889 L2.10526316,16.8888889 L2.10526316,2.11111111 M10.5263158,6.33333333 L17.8947368,6.33333333 L17.8947368,12.6666667 L10.5263158,12.6666667 L10.5263158,6.33333333 M13.6842105,7.91666667 C12.812182,7.91666667 12.1052632,8.62554915 12.1052632,9.5 C12.1052632,10.3744509 12.812182,11.0833333 13.6842105,11.0833333 C14.5562391,11.0833333 15.2631579,10.3744509 15.2631579,9.5 C15.2631579,8.62554915 14.5562391,7.91666667 13.6842105,7.91666667 Z"/>
  </g>
</svg>
