<?xml version="1.0" encoding="UTF-8"?>
<svg width="40px" height="40px" viewBox="0 0 40 40" version="1.1" xmlns="http://www.w3.org/2000/svg" xmlns:xlink="http://www.w3.org/1999/xlink">
    <!-- Generator: Sketch 59 (86127) - https://sketch.com -->
    <title></title>
    <desc>Created with Sketch.</desc>
    <g id="icon/40px/Wallet" stroke="none" stroke-width="1" fill="none" fill-rule="evenodd">
        <circle id="Oval" cx="20" cy="20" r="20"/>
        <path d="M12.1052632,10.5 C10.9368421,10.5 10,11.45 10,12.6111111 L10,27.3888889 C10,28.5548234 10.9425584,29.5 12.1052632,29.5 L26.8421053,29.5 C28.00481,29.5 28.9473684,28.5548234 28.9473684,27.3888889 L28.9473684,24.9822222 C29.5684211,24.6127778 30,23.9477778 30,23.1666667 L30,16.8333333 C30,16.0522222 29.5684211,15.3872222 28.9473684,15.0177778 L28.9473684,12.6111111 C28.9473684,11.4451766 28.00481,10.5 26.8421053,10.5 L12.1052632,10.5 M12.1052632,12.6111111 L26.8421053,12.6111111 L26.8421053,14.7222222 L20.5263158,14.7222222 C19.3636111,14.7222222 18.4210526,15.6673989 18.4210526,16.8333333 L18.4210526,23.1666667 C18.4210526,24.3326011 19.3636111,25.2777778 20.5263158,25.2777778 L26.8421053,25.2777778 L26.8421053,27.3888889 L12.1052632,27.3888889 L12.1052632,12.6111111 M20.5263158,16.8333333 L27.8947368,16.8333333 L27.8947368,23.1666667 L20.5263158,23.1666667 L20.5263158,16.8333333 M23.6842105,18.4166667 C22.812182,18.4166667 22.1052632,19.1255491 22.1052632,20 C22.1052632,20.8744509 22.812182,21.5833333 23.6842105,21.5833333 C24.5562391,21.5833333 25.2631579,20.8744509 25.2631579,20 C25.2631579,19.1255491 24.5562391,18.4166667 23.6842105,18.4166667 Z" id="Shape" fill="#5F697A"/>
    </g>
</svg>
