<svg xmlns="http://www.w3.org/2000/svg" width="24" height="24" viewBox="0 0 24 24">
  <g fill="#B7BCD9" fill-rule="evenodd" transform="translate(3 3)">
    <path d="M9,0 C4.02943725,0 0,4.02943725 0,9 C0,11.3869484 0.948211563,13.6761336 2.63603897,15.363961 C4.32386638,17.0517884 6.61305159,18 9,18 C11.3869484,18 13.6761336,17.0517884 15.363961,15.363961 C17.0517884,13.6761336 18,11.3869484 18,9 C18,6.61305159 17.0517884,4.32386638 15.363961,2.63603897 C13.6761336,0.948211563 11.3869484,0 9,0 Z" opacity=".3"/>
    <path d="M14.31,13.851 C14.076,13.131 13.401,12.6 12.6,12.6 L11.7,12.6 L11.7,9.9 C11.7,9.40294373 11.2970563,9 10.8,9 L5.4,9 L5.4,7.2 L7.2,7.2 C7.69705627,7.2 8.1,6.79705627 8.1,6.3 L8.1,4.5 L9.9,4.5 C10.8941125,4.5 11.7,3.69411255 11.7,2.7 L11.7,2.331 C14.337,3.393 16.2,5.976 16.2,9 C16.2,10.872 15.48,12.573 14.31,13.851 M8.1,16.137 C4.545,15.696 1.8,12.672 1.8,9 C1.8,8.442 1.872,7.902 1.989,7.389 L6.3,11.7 L6.3,12.6 C6.3,13.5941125 7.10588745,14.4 8.1,14.4 M9,0 C4.02943725,0 0,4.02943725 0,9 C0,11.3869484 0.948211563,13.6761336 2.63603897,15.363961 C4.32386638,17.0517884 6.61305159,18 9,18 C11.3869484,18 13.6761336,17.0517884 15.363961,15.363961 C17.0517884,13.6761336 18,11.3869484 18,9 C18,6.61305159 17.0517884,4.32386638 15.363961,2.63603897 C13.6761336,0.948211563 11.3869484,0 9,0 Z"/>
  </g>
</svg>
