<svg xmlns="http://www.w3.org/2000/svg" width="24" height="24" viewBox="0 0 24 24">
  <g fill="#B7BCD9" fill-rule="evenodd" transform="translate(2 2)">
    <path d="M16.9937232,17.8143364 L8.35609863,9.20814407 C7.79912707,9.61752954 7.17824074,9.86316083 6.52996237,9.95413538 C5.28818971,10.1360845 3.98250228,9.76308882 3.03291142,8.81695351 C2.16549669,7.96179274 1.76374671,6.81551342 1.82766148,5.68742901 L4.64904201,8.49854259 L8.5204509,4.64122169 L5.69907037,1.8119132 C6.84953621,1.76642593 7.97261002,2.16671394 8.84002474,3.02187471 C9.82613833,4.00439984 10.2004963,5.35992063 9.97222923,6.62446687 C9.86266105,7.27038617 9.58874061,7.87081819 9.16872927,8.40756804 L17.8063538,17.004663 L16.9937232,17.8143364 Z" opacity=".3"/>
    <path d="M19.7329276,16.3678411 L11.4422689,8.09825457 C12.2914223,5.96945011 11.8714109,3.45855255 10.1274508,1.73003611 C8.02739411,-0.362378531 4.75861019,-0.553425085 2.43028645,1.13870153 L5.93646808,4.64122169 L4.63991133,5.90576793 L1.14286038,2.43963759 C-0.555446344,4.75039115 -0.363702037,8.01637747 1.73635467,10.0996947 C3.4346614,11.7918213 5.90907604,12.2375966 8.02739411,11.446118 L16.3454448,19.7338994 C16.7015414,20.0887002 17.2767743,20.0887002 17.6328709,19.7338994 L19.7329276,17.6414848 C20.0890241,17.2775866 20.0890241,16.7226419 19.7329276,16.3678411 L19.7329276,16.3678411 Z M16.9937232,17.8143364 L8.35609863,9.20814407 C7.79912707,9.61752954 7.17824074,9.86316083 6.52996237,9.95413538 C5.28818971,10.1360845 3.98250228,9.76308882 3.03291142,8.81695351 C2.16549669,7.96179274 1.76374671,6.81551342 1.82766148,5.68742901 L4.64904201,8.49854259 L8.5204509,4.64122169 L5.69907037,1.8119132 C6.84953621,1.76642593 7.97261002,2.16671394 8.84002474,3.02187471 C9.82613833,4.00439984 10.2004963,5.35992063 9.97222923,6.62446687 C9.86266105,7.27038617 9.58874061,7.87081819 9.16872927,8.40756804 L17.8063538,17.004663 L16.9937232,17.8143364 Z"/>
  </g>
</svg>
