<svg xmlns="http://www.w3.org/2000/svg" width="380" height="380" viewBox="0 0 380 380">
  <g fill="none" fill-rule="evenodd" transform="translate(114 18)">
    <g fill-rule="nonzero" transform="rotate(-9 88.233 6.66)">
      <ellipse cx="42.07" cy="46.69" fill="#FF6E61" rx="35.143" ry="27.08" transform="rotate(-64.386 42.07 46.69)"/>
      <path fill="#000" d="M12.0734876 131.940054C11.2256528 136.472106 10.2540719 140.979315 9.00321695 145.43361 7.27764107 151.675131 4.29710091 160.912581.0615964741 173.145961.207083548 173.626814.441358891 173.753136.764422503 173.524927 1.24901792 173.182615 6.24753871 159.59325 9.28558391 149.459391 10.9877649 143.798967 12.1987818 138.038476 13.2564799 132.2468 13.2176321 132.240647 12.0606876 131.938076 12.0734876 131.940054zM14.1328834 119.921395C13.9060984 121.297441 13.6805278 122.673488 13.4517697 124.048759 13.4785053 124.052976 14.641116 124.305468 14.6464155 124.272008 15.9920656 116.365558 17.3404821 108.459808 19.5449169 100.728719 22.0391584 91.9749864 25.9922958 83.7361793 32.486736 77.2293941 33.1926534 76.6208458 32.1573079 75.5909949 31.5455128 76.2463546 19.9684673 87.9023943 16.7212473 104.333197 14.1328834 119.921395z"/>
      <ellipse cx="46.49" cy="44.352" stroke="#000" stroke-width="1.5" rx="35.143" ry="27.08" transform="rotate(-64.386 46.49 44.352)"/>
    </g>
    <g transform="translate(29 93)">
      <path fill="#000" fill-rule="nonzero" d="M116.351056,245.77988 C116.40053,246.593447 116.900764,249.583625 116.2686,250.424677 C115.108718,251.947367 104.977611,251.870408 104.477378,251.430642 C103.977144,250.990876 103.636325,250.012397 104.043109,249.704561 C104.449892,249.396725 108.413282,248.341287 108.930007,247.934503 C109.446732,247.52772 110.084393,246.336778 109.738077,245.275843 L116.351056,245.77988 Z"/>
      <path stroke="#000" d="M66.1407876,112.503105 C64.4147065,116.417021 49.9189239,159.05782 50.2542453,165.27501 C50.5895668,171.4922 84.1327089,235.555094 85.9852227,236.231234 C87.8377364,236.907374 95.5336392,234.543632 96.1548085,232.861528 C96.6759217,231.450372 88.0976289,204.315597 85.1225937,189.830182"/>
      <path stroke="#000" d="M66.1407876,112.503105 C67.0093252,117.11515 81.4336459,180.716289 81.4336459,180.716289 L107.880066,244.762692 C110.078896,245.834621 116.548951,245.95006 117.681348,245.609241 C118.813745,245.268423 113.37714,183.937574 111.227784,175.246701 C109.502112,168.268984 105.43699,126.755241 103.932428,111.150687"/>
      <path fill="#000" fill-rule="nonzero" d="M94.964384,234.005983 C95.261226,234.759082 96.9189017,238.452051 96.561592,239.447022 C95.9184344,241.250062 86.2545793,244.262458 85.6444041,243.993101 C85.034229,243.723745 84.4075626,242.893687 84.6989075,242.481406 C84.9902524,242.069126 88.4479116,239.859302 88.8217126,239.309595 C89.1955136,238.759888 89.4813614,236.989576 88.8217126,236.082559 L94.964384,234.005983 Z"/>
      <path stroke="#000" d="M78.481529,34.6149353 L78.481529,42.3956432 C81.3731152,41.7718466 83.887173,41.9661139 86.0237022,42.978445 L86.0237022,33.3397392"/>
      <circle cx="80.933" cy="24.83" r="9.999" stroke="#000"/>
      <ellipse cx="70.824" cy="26.172" fill="#FF6E61" fill-rule="nonzero" rx="1.671" ry="1"/>
      <ellipse cx="81.313" cy="26.172" fill="#FF6E61" fill-rule="nonzero" rx="1.671" ry="1"/>
      <path stroke="#000" stroke-linecap="round" stroke-width=".62" d="M74.8976256 24.3685265C74.5842924 24.8137895 72.9791469 26.6827945 74.6722455 27.4413906M78.0584428 29.6237287C78.7326433 29.4414398 79.3182941 29.0217234 79.7075648 28.441858"/>
      <path fill="#000" fill-rule="nonzero" d="M105.173895,109.545679 C116.261493,109.24334 123.123451,100.854806 123.123451,80.8839385 C123.123451,72.6383284 109.41375,47.8135447 106.692698,38.4355375 C105.285448,33.5926158 106.417845,19.3442014 99.2331696,12.0935616 C95.7700134,8.60291993 80.54312,9.42748094 76.6127125,11.0711059 C72.682305,12.7147309 73.1440591,17.667594 73.5453455,18.4426814 C74.485345,17.6511028 76.5467476,16.0459574 76.9150515,16.095431 C78.8445243,16.3318052 84.1107206,22.2576503 85.710369,24.9787017 C87.0076783,27.1775311 85.0067436,40.8322615 87.5408945,44.7351836 C90.0750453,48.6381058 93.7938407,49.5159008 93.7938407,49.5159008 C98.8436326,56.3939075 102.370123,67.3643265 104.37331,82.4271578 C105.960561,94.362378 106.227423,103.401885 105.173895,109.545679 Z"/>
      <path fill="#000" fill-rule="nonzero" d="M73.0056466,44.5862892 C75.574624,42.1806237 78.7728286,40.9820333 82.7309552,41.4809161 C85.4342691,41.5867458 87.8740531,43.1303196 90.0593446,45.6757348 L90.3004253,44.8451251 C99.705918,52.9038347 109.490709,88.0191398 109.490709,92.3398396 C109.490709,104.521354 97.2102466,126.207309 97.2102466,126.207309 C97.2102466,126.207309 93.1808918,123.040995 91.6472083,121.892106 C91.985369,121.359919 93.0069754,115.558631 93.936817,109.54332 C83.1192512,112.042419 67.7717639,114.31975 66.1407876,112.503105 C64.78687,110.995058 61.988787,88.6770966 64.1128452,69.4371362 C56.5074141,72.467738 40.4353103,77.2338818 38.479514,77.2338818 C36.005831,77.2338818 6.83286228,49.9738946 6.30514323,49.2427838 C5.77742418,48.5116731 7.94876819,46.2688671 9.37251021,44.8451251 C10.8677142,45.81261 36.30817,60.187457 38.699397,60.187457 C41.0427994,60.187457 67.8192156,47.0364982 72.9973333,44.5909795 Z"/>
      <path stroke="#000" d="M4.51584583,49.5048896 C7.09943913,49.5048896 9.5728373,47.4813249 9.5728373,45.3500881 C9.5728373,43.2188513 7.2616028,41.3105069 4.67800949,41.3105069 C2.09441619,41.3105069 -1.77806903e-11,43.0382156 -1.77806903e-11,45.1694524 C-1.77806903e-11,47.3006892 1.93225252,49.5048896 4.51584583,49.5048896 Z"/>
      <path stroke="#FFF" stroke-linecap="round" stroke-linejoin="round" d="M82.8189084,70.5604346 C84.3525919,72.4789132 95.6765631,92.9115352 95.6765631,95.9843992 C95.6765631,97.5070886 94.846505,103.630828 93.9339909,109.545679"/>
      <path fill="#000" fill-rule="nonzero" d="M86.5294329,41.4479337 C86.0621817,45.5047739 97.8973808,59.659738 102.509425,63.8045314 C107.115973,57.9996218 104.350945,43.6192777 104.350945,43.6192777 L94.9509494,39.2765897 L86.5294329,41.4479337 Z"/>
      <ellipse cx="97.21" cy="5.728" fill="#000" fill-rule="nonzero" rx="4.854" ry="5.728"/>
      <path stroke="#000" stroke-linecap="round" stroke-linejoin="round" d="M69.0982131,50.754479 C66.8224247,55.7513188 64.8966921,62.6279215 64.0941194,69.5652282"/>
      <path stroke="#FFF" stroke-linecap="round" d="M86.0237022,42.6133133 C90.9325888,48.0092242 93.4615224,50.4128412 98.2053742,59.6009725 C102.949226,68.7891037 102.949226,69.5652282 104.94521,79.0148892 C106.319144,86.9253224 106.755253,86.380778 106.755253,96.697838 C106.755253,101.646173 106.120341,105.968161 105.173895,109.545679"/>
    </g>
  </g>
</svg>
