<?xml version="1.0" encoding="UTF-8"?>
<svg width="114px" height="89px" viewBox="0 0 114 89" version="1.1" xmlns="http://www.w3.org/2000/svg" xmlns:xlink="http://www.w3.org/1999/xlink">
    <title>illu</title>
    <defs>
        <filter x="0.0%" y="0.0%" width="100.0%" height="100.0%" filterUnits="objectBoundingBox" id="filter-1">
            <feGaussianBlur stdDeviation="0" in="SourceGraphic"></feGaussianBlur>
        </filter>
        <filter x="-45.0%" y="-45.0%" width="190.0%" height="190.0%" filterUnits="objectBoundingBox" id="filter-2">
            <feGaussianBlur stdDeviation="3" in="SourceGraphic"></feGaussianBlur>
        </filter>
    </defs>
    <g id="Add-movie-form-blue" stroke="none" stroke-width="1" fill="none" fill-rule="evenodd">
        <g id="0-AddFilm-Overview" transform="translate(-351.000000, -457.000000)">
            <g id="page-content" transform="translate(304.000000, 156.000000)">
                <g id="form-group" transform="translate(0.000000, 102.000000)">
                    <g id="status_options" transform="translate(16.000000, 174.000000)">
                        <g id="illu" transform="translate(39.000000, 25.000000)">
                            <circle id="Oval-Copy-3" stroke="#404B8A" stroke-width="1.5" cx="61.5" cy="44.5" r="43.75"></circle>
                            <rect id="Rectangle" fill="#1B203C" filter="url(#filter-1)" x="41" y="44" width="26" height="26"></rect>
                            <path d="M81.5202893,19.5963303 L46.2845801,19.5963303 C45.8425321,19.5963303 45.4837685,19.9574085 45.4837685,20.4023084 L45.4837685,24.4321989 L41.4797107,24.4321989 C41.0376627,24.4321989 40.6788991,24.7932771 40.6788991,25.238177 L40.6788991,68.7609944 C40.6788991,69.2058943 41.0376627,69.5669725 41.4797107,69.5669725 L76.7154199,69.5669725 C77.1574679,69.5669725 77.5162315,69.2058943 77.5162315,68.7609944 L77.5162315,64.7311039 L81.5202893,64.7311039 C81.9623373,64.7311039 82.3211009,64.3700257 82.3211009,63.9251258 L82.3211009,20.4023084 C82.3211009,19.9574085 81.9623373,19.5963303 81.5202893,19.5963303 Z M76.0747706,68.1788991 L42.0669725,68.1788991 L42.0669725,25.8426606 L45.3058104,25.8426606 L45.3058104,64.1081069 C45.3058104,64.5575224 45.6685602,64.9222653 46.1155199,64.9222653 L76.0747706,64.9222653 L76.0747706,68.1788991 Z M80.9330275,63.3206422 L46.9252294,63.3206422 L46.9252294,20.9844037 L80.9330275,20.9844037 L80.9330275,63.3206422 Z M53.1715596,31.3949541 C53.1715596,31.0118459 53.5269064,30.7009174 53.9647444,30.7009174 L74.5875491,30.7009174 C75.0253872,30.7009174 75.3807339,31.0118459 75.3807339,31.3949541 C75.3807339,31.7780624 75.0253872,32.0889908 74.5875491,32.0889908 L53.9647444,32.0889908 C53.5269064,32.0889908 53.1715596,31.7780624 53.1715596,31.3949541 Z M53.1715596,35.5591743 C53.1715596,35.1760661 53.4158606,34.8651376 53.7168742,34.8651376 L67.8950524,34.8651376 C68.1960661,34.8651376 68.440367,35.1760661 68.440367,35.5591743 C68.440367,35.9422826 68.1960661,36.253211 67.8950524,36.253211 L53.7168742,36.253211 C53.4158606,36.253211 53.1715596,35.9422826 53.1715596,35.5591743 Z" id="Shape" fill="#414D86" fill-rule="nonzero"></path>
                            <g id="feather" transform="translate(16.224926, 60.831874) scale(-1, 1) rotate(14.000000) translate(-16.224926, -60.831874) translate(3.224926, 47.831874)">
                                <g id="Group-10" transform="translate(2.696061, 2.668965)" fill="#8DA4FA">
                                    <circle id="Oval" filter="url(#filter-2)" cx="10" cy="10" r="10"></circle>
                                    <circle id="Oval-Copy" cx="10" cy="10" r="10"></circle>
                                </g>
                                <path d="M25.144416,1.59755749 L25.0985175,0.298827021 L23.7998356,0.252928583 C20.0443172,0.120116083 16.3677051,1.56772351 13.7109174,4.22446179 L8.66184409,9.27358288 C7.29885552,10.6365223 6.23679474,12.3167958 5.59040789,14.1326649 C4.98352299,15.8376454 4.73630614,17.681493 4.86989992,19.4876454 L3.58552465,20.7720204 C3.15930385,20.1671376 2.89113973,19.4575184 2.81565144,18.7155751 L1.35271167,18.8645008 C1.46247732,19.9429676 1.87614928,20.9705555 2.53440138,21.8231923 L0.152809074,24.2047352 L1.19260422,25.24453 L5.90984155,20.5272938 C6.22815216,20.550829 6.54748817,20.5628407 6.86726363,20.5628407 C8.36140457,20.5628407 9.86028184,20.3068837 11.2646767,19.8069813 C13.080595,19.1605946 14.76082,18.0984852 16.1237597,16.7355458 L21.1728819,11.6864247 C23.8296696,9.02963757 25.2771797,5.35239147 25.144416,1.59755749 Z M13.0043743,14.3999501 C14.3029097,14.3999501 15.5852342,14.1995594 16.8134571,13.8138661 C14.9232712,15.2504872 12.6496379,16.0658192 10.278153,16.1589833 L12.0718546,14.3652821 C12.3832804,14.3882313 12.6941692,14.3999501 13.0043743,14.3999501 Z M9.23840671,15.1191883 C9.33039892,12.7773426 10.1273229,10.5305165 11.5310342,8.65429577 C11.0812782,10.1763661 10.9132118,11.7450673 11.0318641,13.3257801 L9.23840671,15.1191883 Z M8.23352368,12.1068837 C7.83557438,13.5514637 7.6847931,15.0696278 7.79519351,16.5623524 L6.31311312,18.0444325 C6.39665806,15.918163 7.06120898,13.8702626 8.23352368,12.1068837 Z M7.35290826,19.0842274 L8.83513514,17.6020008 C9.15344575,17.625536 9.47278176,17.6375477 9.79255722,17.6375477 C10.9714149,17.6375477 12.1531046,17.477538 13.28914,17.1646962 C11.5260537,18.3364735 9.47868996,19.0006825 7.35290826,19.0842274 L7.35290826,19.0842274 Z M21.1192198,9.52875866 C19.0343072,11.5961903 16.3342578,12.7858387 13.5208295,12.9163075 L18.7773248,7.65986218 L17.7375296,6.62006726 L12.477714,11.8798329 C12.5866984,9.30849499 13.5386518,6.79423718 15.2203416,4.81957897 L15.2192185,4.82070202 C17.5248831,2.75063366 20.5680966,1.62866101 23.6771305,1.72026257 C23.7603825,4.54521374 22.8410951,7.31616101 21.1192198,9.52875866 L21.1192198,9.52875866 Z" id="Shape" fill="#121424" fill-rule="nonzero"></path>
                            </g>
                            <polygon id="Triangle" fill="#FF746B" transform="translate(52.055707, 56.975143) rotate(89.000000) translate(-52.055707, -56.975143) " points="58.1114137 52 57.9377308 61.950286 46 61.7505156"></polygon>
                        </g>
                    </g>
                </g>
            </g>
        </g>
    </g>
</svg>