<svg xmlns="http://www.w3.org/2000/svg" width="380" height="380" viewBox="0 0 380 380">
  <defs>
    <filter id="feature_key2-a" width="201.9%" height="304.1%" x="-51%" y="-102.1%" filterUnits="objectBoundingBox">
      <feGaussianBlur in="SourceGraphic" stdDeviation="4"/>
    </filter>
    <filter id="feature_key2-b" width="397.3%" height="671.8%" x="-148.7%" y="-285.9%" filterUnits="objectBoundingBox">
      <feGaussianBlur in="SourceGraphic" stdDeviation="2"/>
    </filter>
    <filter id="feature_key2-c" width="397.3%" height="671.8%" x="-148.7%" y="-285.9%" filterUnits="objectBoundingBox">
      <feGaussianBlur in="SourceGraphic" stdDeviation="2"/>
    </filter>
    <filter id="feature_key2-d" width="178.4%" height="178.5%" x="-39.2%" y="-39.3%" filterUnits="objectBoundingBox">
      <feGaussianBlur in="SourceGraphic" stdDeviation="4"/>
    </filter>
    <filter id="feature_key2-e" width="225.2%" height="287.9%" x="-62.6%" y="-94%" filterUnits="objectBoundingBox">
      <feGaussianBlur in="SourceGraphic" stdDeviation="2"/>
    </filter>
  </defs>
  <g fill="none" fill-rule="evenodd">
    <g transform="translate(21 20)">
      <g transform="translate(160.896)">
        <rect width="109.4" height="169.232" x=".965" y=".576" stroke="#B1B8DB" rx="2"/>
        <ellipse cx="55.664" cy="49.916" stroke="#B1B8DB" rx="28.619" ry="28.59"/>
        <g transform="translate(43.917 34.1)">
          <polygon fill="#FF6E61" points="11.77 25.55 0 19.99 0 26.188 11.77 31.748 23.542 26.188 23.542 19.99" filter="url(#feature_key2-a)"/>
          <polygon fill="#FF6E61" points="11.77 25.55 0 19.99 0 26.188 11.77 31.748 23.542 26.188 23.542 19.99"/>
          <path stroke="#B1B8DB" d="M23.0416667,13.7236497 L11.7703151,19.0479796 L0.5,13.7236789 L0.5,18.8158113 L11.7703336,24.1401207 L23.0416667,18.8157996 L23.0416667,13.7236497 Z"/>
          <polygon points="11.771 6.467 0 11.759 11.771 17.05 23.542 11.759"/>
          <path stroke="#B1B8DB" d="M23.0416667,6.66847732 L11.7703151,11.9928071 L0.5,6.66850647 L0.5,11.7606389 L11.7703336,17.0849483 L23.0416667,11.7606272 L23.0416667,6.66847732 Z"/>
          <polygon fill="#B1B8DB" points="11.771 0 0 5.292 11.771 10.583 23.542 5.292"/>
        </g>
        <line x1="24.104" x2="91.104" y1="103.887" y2="103.887" stroke="#B1B8DB" stroke-linecap="round"/>
        <line x1="24.104" x2="91.104" y1="114.954" y2="114.954" stroke="#B1B8DB" stroke-linecap="round"/>
        <line x1="24.104" x2="91.104" y1="126.021" y2="126.021" stroke="#B1B8DB" stroke-linecap="round"/>
        <line x1="24.104" x2="91.104" y1="137.088" y2="137.088" stroke="#B1B8DB" stroke-linecap="round"/>
        <g transform="translate(105.125 71.728)">
          <path stroke="#B1B8DB" d="M8.1763019,100.610248 C7.01073725,106.165097 -2.04549687,175.246985 0.723295065,191.704435 C3.492087,208.161884 48.6358344,242.646132 50.6122267,243.249019 C52.9157141,241.560013 56.3064477,236.023573 56.3064477,236.023573 C56.3064477,236.023573 23.2053328,197.69189 22.5741772,196.154757 C21.9430216,194.617624 27.8049471,106.568545 27.8049471,106.568545 L8.1763019,100.610248 Z"/>
          <polyline stroke="#B1B8DB" points="32.854 229.669 27.725 250.939 16.35 250.939 19.071 217.059"/>
          <polyline stroke="#B1B8DB" points="60.968 113.079 36.83 213.181 60.336 113.079"/>
          <path fill="#B1B8DB" fill-rule="nonzero" d="M70.8875234,43.8773276 C75.2825775,52.4282059 71.140907,91.951857 68.4089709,93.4843879 C66.9347389,94.3081808 66.5339321,93.5073989 66.1054834,95.1825979 C65.6770347,96.8577969 61.4985085,113.329744 61.4985085,113.329744 C58.8448909,113.402688 20.1555154,107.580911 7.59690167,100.774265 C7.67061327,98.8827627 8.27873397,93.9630162 8.27873397,93.5856362 C6.61100904,94.2667611 4.59315401,94.4094291 4.04031702,93.5856362 C-0.861504314,86.1715 6.44515794,47.5176638 11.6878954,39.7399542 C13.9176713,36.4033628 30.0282627,34.5624848 37.50999,34.5394738 C42.1722486,34.5394738 66.4924693,35.3264492 70.8875234,43.8773276 Z M15.1661615,73.2301275 C12.9778484,74.3760741 10.0293844,79.5627479 10.6328982,80.7639208 C10.7975798,81.2054895 11.1537548,81.5486837 11.6014347,81.6971593 C12.0491147,81.8456348 12.5400369,81.783385 12.9363856,81.5278852 C13.5306854,81.145903 17.9672023,74.6430014 20.031127,74.9743595 C21.2151196,75.1630495 17.3544746,72.084181 15.1661615,73.2301275 Z"/>
          <path stroke="#B1B8DB" d="M43.5313062,25.0489296 L43.5313062,39.049625 C43.5313062,40.5499405 31.6867736,40.5499405 31.6867736,39.049625 L31.6867736,27.9053675"/>
          <path stroke="#B1B8DB" d="M31.7333005,0.230109752 C38.3358096,0.230109752 38.8892552,3.27020949 42.8507606,4.34681268 C48.8464213,5.97831707 49.8659264,8.80499327 49.8659264,11.0577973 C49.8659264,13.0310226 48.5995713,14.7422674 47.1727958,16.1246037 C47.9269245,16.592343 48.4285206,17.4282388 48.4285206,18.381167 C48.4285206,19.8502824 47.3979254,21.0682701 45.9272842,21.0682701 C45.9236084,21.0682701 45.9199334,21.0682625 45.9162591,21.0682473 C44.286205,25.4469493 40.0648885,28.5658246 35.114363,28.5658246 C28.7509136,28.5658246 23.5923187,23.4125819 23.5923187,17.0557348 C23.5923187,16.4511992 23.638973,15.857549 23.728881,15.2781811 L23.666057,15.5568551 L23.666057,15.5568551 L23.5923187,15.9215072 C22.4028961,15.3381495 21.6159264,13.0260366 21.6159264,8.95201837 C21.6159264,4.05276247 25.4997553,0.230109752 31.7333005,0.230109752 Z"/>
          <path stroke="#B1B8DB" d="M31.7333005,0.230109752 C25.4997553,0.230109752 21.6159264,4.05276247 21.6159264,8.95201837 C21.6159264,13.0260366 22.4028961,15.3381495 23.5923187,15.9215072 C24.3448105,11.9660576 26.2036992,10.1282192 27.5581845,9.34092349 C28.6116731,10.1282192 30.4127987,12.0348028 32.8207726,12.6229032 C35.2287465,13.2110037 41.4962753,13.0971778 46.5598171,16.6921787 C48.2152992,15.2219277 49.8659264,13.3106013 49.8659264,11.0577973 C49.8659264,8.80499327 48.8464213,5.97831707 42.8507606,4.34681268 C38.8892552,3.27020949 38.3358096,0.230109752 31.7333005,0.230109752 Z"/>
          <ellipse cx="24.348" cy="19.426" fill="#FF6E61" fill-rule="nonzero" filter="url(#feature_key2-b)" rx="2.018" ry="1.049"/>
          <ellipse cx="37.04" cy="19.426" fill="#FF6E61" fill-rule="nonzero" filter="url(#feature_key2-c)" rx="2.018" ry="1.049"/>
          <ellipse cx="24.348" cy="19.426" fill="#FF6E61" fill-rule="nonzero" rx="2.018" ry="1.049"/>
          <ellipse cx="37.04" cy="19.426" fill="#FF6E61" fill-rule="nonzero" rx="2.018" ry="1.049"/>
          <path stroke="#B1B8DB" stroke-linecap="round" stroke-width=".5" d="M29.2773257 17.249027C28.8995538 17.7874838 26.9738383 20.0471616 29.0055142 20.9583962M33.0734731 23.6000562C33.6815938 23.6000562 34.6168097 22.8452962 35.109756 22.1687735"/>
          <path stroke="#121424" stroke-linecap="round" stroke-width=".5" d="M53.7910394 57.1868756C53.5837255 59.7272873 52.7728979 72.2820754 53.0769583 73.9342634 49.2117063 75.2781043 13.8209248 92.0439009 7.69825512 93.8847789M12.687609 53.2243857C11.8721744 56.0685422 9.12641735 68.9776993 11.0567399 74.9743595M21.7218868 88.012378C23.5646768 89.3055948 41.2278187 97.1155198 65.6493929 94.170115"/>
          <path fill="#B1B8DB" fill-rule="nonzero" d="M55.9286758 236.589643C56.5598313 237.049862 62.1573059 240.832867 62.2033756 243.216804 62.2494454 245.600741 56.98828 253.50271 55.9286758 253.728217 54.8690715 253.953725 54.1135276 253.060899 54.1135276 251.463937 54.1135276 249.866976 56.1129548 247.068841 55.8457502 245.826248 55.5785457 244.583656 52.9940327 242.310171 51.6672239 242.268752M26.646743 250.939287C26.646743 252.034609 27.2825056 258.910289 26.0109805 259.549994 24.7394554 260.189699 10.7066098 260.567079 10.0708472 259.931976 9.43508467 259.296873 9.04809878 257.957634 9.61014972 257.575652 10.1722007 257.19367 15.5992171 256.107552 16.3363331 255.601311 17.0734491 255.095069 18.0915906 252.379774 17.7184256 250.939287"/>
        </g>
      </g>
      <g transform="translate(32.958 190.49)">
        <path fill="#B1B8DB" fill-rule="nonzero" d="M101.027805,1.14447643 L17.2990796,1.14447643 C8.06740061,1.14447643 0.588337226,8.72354855 0.588337226,18.0687604 L0.588337226,105.927928 C0.588337226,115.27314 8.06740061,122.852212 17.2990796,122.852212 L101.027805,122.852212 C110.25985,122.852212 117.740592,115.272768 117.740592,105.927928 L117.740592,18.0687604 C117.740592,8.72392105 110.25985,1.14447643 101.027805,1.14447643 Z M17.2990796,2.3203385 L101.027805,2.3203385 C109.606009,2.3203385 116.563508,9.36963751 116.563508,18.0687604 L116.563508,105.927928 C116.563508,114.627051 109.606009,121.67635 101.027805,121.67635 L17.2990796,121.67635 C8.72128903,121.67635 1.76542056,114.627469 1.76542056,105.927928 L1.76542056,18.0687604 C1.76542056,9.36921964 8.72128903,2.3203385 17.2990796,2.3203385 Z"/>
        <path fill="#B1B8DB" d="M8.18584107 122.124858C8.18584107 122.124858 8.18584107 121.06717 8.18584107 118.951794 10.5661033 120.424769 12.3969529 121.332954 13.67839 121.67635 15.703163 122.218944 8.18584107 122.124858 8.18584107 122.124858zM103.182901 126.993515C100.498777 126.993515 98.3202388 124.812291 98.3202388 122.124858 101.690016 122.16833 104.025742 122.018828 105.327417 121.67635 106.705755 121.313703 108.390049 120.39964 110.380298 118.934163L110.380298 122.124858C110.380298 124.812291 108.203815 126.993515 105.517636 126.993515L103.182901 126.993515z"/>
        <path stroke="#B1B8DB" d="M14.125,103.065837 L14.125,19.2258777 C14.125,16.3983307 16.3924147,14.1103448 19.1879413,14.1103448 L99.6974754,14.1103448 C102.495041,14.1103448 104.760417,16.3983307 104.760417,19.2238183 L104.760417,103.065837 C104.760417,105.891324 102.495041,108.17931 99.6974754,108.17931 L19.1879413,108.17931 C16.3903757,108.17931 14.125,105.891324 14.125,103.065837"/>
        <g fill="#FF6E61" transform="translate(20.01 45.859)">
          <path d="M15.3030883,0 C23.7525476,0 30.6041667,6.84549072 30.6041667,15.2862069 C30.6041667,23.7289788 23.7525476,30.5724138 15.3030883,30.5724138 C6.85161911,30.5724138 0,23.7289788 0,15.2862069 C0,6.84549072 6.85161911,0 15.3030883,0 Z M15.3031562,8.23103448 C11.4023131,8.23103448 8.23958333,11.3898376 8.23958333,15.2862069 C8.23958333,19.1825762 11.4023131,22.3413793 15.3031562,22.3413793 C19.2018536,22.3413793 22.3645833,19.1825762 22.3645833,15.2862069 C22.3645833,11.3898376 19.2018536,8.23103448 15.3031562,8.23103448 Z" filter="url(#feature_key2-d)"/>
          <path d="M15.3030883,0 C23.7525476,0 30.6041667,6.84549072 30.6041667,15.2862069 C30.6041667,23.7289788 23.7525476,30.5724138 15.3030883,30.5724138 C6.85161911,30.5724138 0,23.7289788 0,15.2862069 C0,6.84549072 6.85161911,0 15.3030883,0 Z M15.3031562,8.23103448 C11.4023131,8.23103448 8.23958333,11.3898376 8.23958333,15.2862069 C8.23958333,19.1825762 11.4023131,22.3413793 15.3031562,22.3413793 C19.2018536,22.3413793 22.3645833,19.1825762 22.3645833,15.2862069 C22.3645833,11.3898376 19.2018536,8.23103448 15.3031562,8.23103448 Z"/>
        </g>
        <path stroke="#B1B8DB" d="M35.3125,49.3862069 C41.8136816,49.3862069 47.0833333,54.6500736 47.0833333,61.1448276 C47.0833333,67.6395816 41.8136816,72.9034483 35.3125,72.9034483 C28.8091578,72.9034483 23.5416667,67.6395816 23.5416667,61.1448276 C23.5416667,54.6500736 28.8091578,49.3862069 35.3125,49.3862069 Z M35.3135728,54.0896552 C31.4127298,54.0896552 28.25,57.2484583 28.25,61.1448276 C28.25,65.0411969 31.4127298,68.2 35.3135728,68.2 C39.2122702,68.2 42.375,65.0411969 42.375,61.1448276 C42.375,57.2484583 39.2122702,54.0896552 35.3135728,54.0896552 Z"/>
        <path fill="#B1B8DB" d="M35.3125,52.9137931 L35.3125,52.9137931 C35.0794375,52.9137931 34.8934583,52.687517 34.8934583,52.4090234 L34.8934583,49.8909766 C34.8934583,49.612483 35.0794375,49.3862069 35.3125,49.3862069 C35.5432083,49.3862069 35.7315417,49.612483 35.7315417,49.8909766 L35.7315417,52.4090234 C35.7315417,52.687517 35.5432083,52.9137931 35.3125,52.9137931"/>
        <path fill="#B1B8DB" d="M42.1007264,55.5812902 L42.1007264,55.5812902 C41.8677848,55.5814111 41.6820196,55.355114 41.6821643,55.0764757 L41.6834719,52.5571213 C41.6836165,52.2784831 41.8696167,52.051993 42.1025583,52.051872 C42.3331469,52.0517524 42.5212651,52.2780483 42.5211205,52.5566866 L42.5198128,55.0760409 C42.5196682,55.3546792 42.3313151,55.5811705 42.1007264,55.5812902" transform="rotate(45 42.102 53.817)"/>
        <path fill="#B1B8DB" d="M27.9757264,69.6916351 L27.9757264,69.6916351 C27.7427848,69.6917559 27.5570196,69.4654588 27.5571643,69.1868205 L27.5584719,66.6674662 C27.5586165,66.3888279 27.7446167,66.1623378 27.9775583,66.1622169 C28.2081469,66.1620972 28.3962651,66.3883931 28.3961205,66.6670314 L28.3948128,69.1863858 C28.3946682,69.465024 28.2063151,69.6915153 27.9757264,69.6916351" transform="rotate(45 27.977 67.927)"/>
        <path fill="#B1B8DB" d="M27.2432879,55.937046 L27.2419802,53.4176916 C27.2418356,53.1390534 27.4276008,52.9127563 27.6605424,52.9128771 C27.891131,52.9129968 28.0794842,53.1394881 28.0796288,53.4181264 L28.0809364,55.9374808 C28.0810811,56.216119 27.8929629,56.4424149 27.6623743,56.4422953 C27.4294327,56.4421744 27.2434325,56.2156843 27.2432879,55.937046 Z" transform="rotate(-45 27.661 54.678)"/>
        <path fill="#B1B8DB" d="M41.2673101,69.9465178 L41.2660024,67.4271634 C41.2658578,67.1485252 41.451623,66.9222281 41.6845646,66.9223489 C41.9151532,66.9224686 42.1035064,67.1489599 42.103651,67.4275982 L42.1049586,69.9469526 C42.1051033,70.2255909 41.9169851,70.4518868 41.6863965,70.4517671 C41.4534549,70.4516462 41.2674547,70.2251561 41.2673101,69.9465178 Z" transform="rotate(-45 41.685 68.687)"/>
        <path fill="#B1B8DB" d="M35.3125,72.9034483 L35.3125,72.9034483 C35.0794375,72.9034483 34.8934583,72.6771722 34.8934583,72.3986785 L34.8934583,69.8806318 C34.8934583,69.6021382 35.0794375,69.3758621 35.3125,69.3758621 C35.5432083,69.3758621 35.7315417,69.6021382 35.7315417,69.8806318 L35.7315417,72.3986785 C35.7315417,72.6771722 35.5432083,72.9034483 35.3125,72.9034483"/>
        <path fill="#B1B8DB" d="M45.3177083,63.4983836 L45.3177083,63.4983836 C45.0848876,63.4983836 44.8991014,63.2718725 44.8991014,62.9930896 L44.8991014,60.4724276 C44.8991014,60.1936447 45.0848876,59.9671336 45.3177083,59.9671336 C45.5481773,59.9671336 45.7363152,60.1936447 45.7363152,60.4724276 L45.7363152,62.9930896 C45.7363152,63.2718725 45.5481773,63.4983836 45.3177083,63.4983836" transform="rotate(90 45.318 61.733)"/>
        <path fill="#B1B8DB" d="M25.3072917,63.4983836 L25.3072917,63.4983836 C25.074471,63.4983836 24.8886848,63.2718725 24.8886848,62.9930896 L24.8886848,60.4724276 C24.8886848,60.1936447 25.074471,59.9671336 25.3072917,59.9671336 C25.5377606,59.9671336 25.7258986,60.1936447 25.7258986,60.4724276 L25.7258986,62.9930896 C25.7258986,63.2718725 25.5377606,63.4983836 25.3072917,63.4983836" transform="rotate(90 25.307 61.733)"/>
        <path stroke="#B1B8DB" d="M89.4583333,62.3206897 C89.4583333,57.7761333 85.7708065,54.0896552 81.21875,54.0896552 C76.6688177,54.0896552 72.9791667,57.7761333 72.9791667,62.3206897 C72.9791667,66.865246 76.6688177,70.5517241 81.21875,70.5517241 C85.7708065,70.5517241 89.4583333,66.865246 89.4583333,62.3206897"/>
        <path fill="#B1B8DB" d="M85.9270833,62.3196714 C85.9270833,59.7230502 83.8183394,57.6172414 81.2197456,57.6172414 C78.6191606,57.6172414 76.5104167,59.7230502 76.5104167,62.3196714 C76.5104167,64.9162925 78.6191606,67.0241379 81.2197456,67.0241379 C83.8183394,67.0241379 85.9270833,64.9162925 85.9270833,62.3196714"/>
        <path fill="#B1B8DB" d="M81.21875,81.1344828 L81.21875,81.1344828 C79.9186878,81.1344828 78.8645833,79.7423135 78.8645833,78.0258555 L78.8645833,63.0775928 C78.8645833,61.3611348 79.9186878,59.9689655 81.21875,59.9689655 C82.5203399,59.9689655 83.5729167,61.3611348 83.5729167,63.0775928 L83.5729167,78.0258555 C83.5729167,79.7423135 82.5203399,81.1344828 81.21875,81.1344828"/>
        <polygon fill="#B1B8DB" points="11.771 38.803 15.302 38.803 15.302 22.341 11.771 22.341"/>
        <polygon fill="#B1B8DB" points="11.771 101.124 15.302 101.124 15.302 84.662 11.771 84.662"/>
      </g>
      <g transform="translate(0 118.762)">
        <g transform="translate(.795 194.308)">
          <g transform="translate(0 12.954)">
            <path stroke="#B1B8DB" d="M59.765005,1.51100817 L59.765005,11.0799469 C59.765005,11.9079607 59.1040633,12.5886161 58.2586186,12.5886161 L1.50638641,12.5886161 C1.1000124,12.5886161 0.752025463,12.4365797 0.481109458,12.1816263 C0.179832176,11.9079607 -2.71819604e-13,11.515005 -2.71819604e-13,11.0799469 L-2.71819604e-13,1.51100817 C-2.71819604e-13,0.680655385 0.663277116,-1.56656297e-14 1.50638641,-1.56656297e-14 L58.2586186,-1.56656297e-14 C59.1040633,-1.56656297e-14 59.765005,0.680655385 59.765005,1.51100817"/>
            <polygon fill="#B1B8DB" points=".873 12.583 3.639 12.583 3.639 .006 .873 .006"/>
            <polygon fill="#B1B8DB" points="5.864 12.583 8.63 12.583 8.63 .006 5.864 .006"/>
            <polygon fill="#B1B8DB" points="10.855 12.583 13.621 12.583 13.621 .006 10.855 .006"/>
            <polygon fill="#B1B8DB" points="15.849 12.583 18.614 12.583 18.614 .006 15.849 .006"/>
            <polygon fill="#B1B8DB" points="20.84 12.583 23.605 12.583 23.605 .006 20.84 .006"/>
            <polygon fill="#B1B8DB" points="25.83 12.583 28.596 12.583 28.596 .006 25.83 .006"/>
            <polygon fill="#B1B8DB" points="30.824 12.583 33.589 12.583 33.589 .006 30.824 .006"/>
            <polygon fill="#B1B8DB" points="35.815 12.583 38.58 12.583 38.58 .006 35.815 .006"/>
            <polygon fill="#B1B8DB" points="40.806 12.583 43.571 12.583 43.571 .006 40.806 .006"/>
            <polygon fill="#B1B8DB" points="45.799 12.583 48.564 12.583 48.564 .006 45.799 .006"/>
            <polygon fill="#B1B8DB" points="50.79 12.583 53.555 12.583 53.555 .006 50.79 .006"/>
            <polygon fill="#B1B8DB" points="55.783 12.583 58.548 12.583 58.548 .006 55.783 .006"/>
          </g>
          <g transform="translate(7.162)">
            <path stroke="#B1B8DB" d="M59.7673404,11.0799469 C59.7673404,11.9079607 59.1040633,12.5862771 58.2586186,12.5862771 L1.50872189,12.5862771 C1.10234788,12.5862771 0.754360946,12.4365797 0.48344494,12.1792872 C0.182167659,11.9079607 -2.21637523e-13,11.515005 -2.21637523e-13,11.0799469 L-2.21637523e-13,1.50866915 C-2.21637523e-13,0.680655385 0.663277116,2.48561325e-13 1.50872189,2.48561325e-13 L58.2586186,2.48561325e-13 C59.1040633,2.48561325e-13 59.7673404,0.680655385 59.7673404,1.50866915 L59.7673404,11.0799469 Z"/>
            <polygon fill="#B1B8DB" points=".873 12.583 3.638 12.583 3.638 .006 .873 .006"/>
            <polygon fill="#B1B8DB" points="5.866 12.583 8.631 12.583 8.631 .006 5.866 .006"/>
            <polygon fill="#B1B8DB" points="10.859 12.583 13.624 12.583 13.624 .006 10.859 .006"/>
            <polygon fill="#B1B8DB" points="15.848 12.583 18.613 12.583 18.613 .006 15.848 .006"/>
            <polygon fill="#B1B8DB" points="20.841 12.583 23.606 12.583 23.606 .006 20.841 .006"/>
            <polygon fill="#B1B8DB" points="25.834 12.583 28.599 12.583 28.599 .006 25.834 .006"/>
            <polygon fill="#B1B8DB" points="30.823 12.583 33.588 12.583 33.588 .006 30.823 .006"/>
            <polygon fill="#B1B8DB" points="35.816 12.583 38.581 12.583 38.581 .006 35.816 .006"/>
            <polygon fill="#B1B8DB" points="40.809 12.583 43.575 12.583 43.575 .006 40.809 .006"/>
            <polygon fill="#B1B8DB" points="45.8 12.583 48.565 12.583 48.565 .006 45.8 .006"/>
            <polygon fill="#B1B8DB" points="50.791 12.583 53.556 12.583 53.556 .006 50.791 .006"/>
            <polygon fill="#B1B8DB" points="55.784 12.583 58.55 12.583 58.55 .006 55.784 .006"/>
          </g>
        </g>
        <g transform="translate(86.555 60.418)">
          <path stroke="#B1B8DB" d="M59.9915468,1.5133472 L59.9915468,11.1173713 C59.9915468,11.9500631 59.3259342,12.6330575 58.4804894,12.6330575 L1.51339286,12.6330575 C1.10468337,12.6330575 0.756696429,12.4786821 0.485780423,12.2237287 C0.182167659,11.9500631 1.00364161e-13,11.5571074 1.00364161e-13,11.1173713 L1.00364161e-13,1.5133472 C1.00364161e-13,0.680655385 0.667948082,1.92165058e-13 1.51339286,1.92165058e-13 L58.4804894,1.92165058e-13 C59.3259342,1.92165058e-13 59.9915468,0.680655385 59.9915468,1.5133472"/>
          <polygon fill="#B1B8DB" points=".88 12.626 3.645 12.626 3.645 .002 .88 .002"/>
          <polygon fill="#B1B8DB" points="5.891 12.626 8.657 12.626 8.657 .002 5.891 .002"/>
          <polygon fill="#B1B8DB" points="10.901 12.626 13.666 12.626 13.666 .002 10.901 .002"/>
          <polygon fill="#B1B8DB" points="15.913 12.626 18.678 12.626 18.678 .002 15.913 .002"/>
          <polygon fill="#B1B8DB" points="20.923 12.626 23.688 12.626 23.688 .002 20.923 .002"/>
          <polygon fill="#B1B8DB" points="25.935 12.626 28.7 12.626 28.7 .002 25.935 .002"/>
          <polygon fill="#B1B8DB" points="30.944 12.626 33.709 12.626 33.709 .002 30.944 .002"/>
          <polygon fill="#B1B8DB" points="35.956 12.626 38.721 12.626 38.721 .002 35.956 .002"/>
          <polygon fill="#B1B8DB" points="40.968 12.626 43.733 12.626 43.733 .002 40.968 .002"/>
          <polygon fill="#B1B8DB" points="45.975 12.626 48.741 12.626 48.741 .002 45.975 .002"/>
          <polygon fill="#B1B8DB" points="50.987 12.626 53.753 12.626 53.753 .002 50.987 .002"/>
          <polygon fill="#B1B8DB" points="55.997 12.626 58.762 12.626 58.762 .002 55.997 .002"/>
        </g>
        <g stroke="#B1B8DB" transform="translate(74.644 .065)">
          <path d="M29.9151992,59.9257421 C28.995019,59.9257421 28.0771743,59.8813007 27.1756779,59.799435 C24.3147115,59.5421425 21.5611772,58.8755213 18.9898107,57.8627248 C18.0439401,57.4931593 17.1167535,57.0651183 16.2199281,56.604331 C14.8863674,55.9166585 13.6041873,55.1237301 12.3944072,54.2442578 C4.88816551,48.8036928 0,39.9528338 0,29.9628711 C0,13.4189689 13.3939939,0 29.9151992,0 C31.4659598,0 32.9840236,0.119290119 34.4693907,0.348514269 C35.9640997,0.57773842 37.4307829,0.916896601 38.84375,1.35897175 C39.8176463,1.66538362 40.7681878,2.02091496 41.6953745,2.41620967 C44.3064443,3.53660118 46.7166625,5.01720206 48.8839906,6.79719776 C55.5658069,12.2892213 59.832734,20.6278345 59.832734,29.9628711 C59.832734,46.5067733 46.4364046,59.9257421 29.9151992,59.9257421 Z"/>
          <path d="M52.0530072,29.9628711 C52.0530072,42.2076509 42.1412182,52.1344601 29.9149657,52.1344601 C17.6887132,52.1344601 7.77692419,42.2076509 7.77692419,29.9628711 C7.77692419,17.7180912 17.6887132,7.79128209 29.9149657,7.79128209 C42.1412182,7.79128209 52.0530072,17.7180912 52.0530072,29.9628711"/>
        </g>
      </g>
    </g>
    <g fill-rule="nonzero" stroke-width=".5" transform="translate(116 157)">
      <path fill="#B1B8DB" stroke="#B1B8DB" d="M9.65657686,24.055626 C11.4692552,23.2847861 13.1554675,22.2038035 14.6309033,20.9 C16.1183835,19.581141 17.4251981,17.9852615 18.2110935,16.1454834 C18.5995246,15.2391442 18.8554675,14.2876387 18.9397781,13.3030111 C18.9879556,12.7459588 18.9698891,12.1828843 18.9698891,11.6228209 C18.9698891,11.0296355 18.9698891,10.433439 18.9698891,9.84025357 C18.9698891,8.27147385 18.9698891,6.70269414 18.9698891,5.13391442 C18.9698891,4.60095087 18.9909667,4.06196513 18.9698891,3.52900158 C18.9698891,3.5229794 18.9698891,3.51695721 18.9698891,3.51093502 C18.9698891,3.37242472 18.8765452,3.26402536 18.7500792,3.22187005 C17.7082409,2.86053883 16.6633914,2.49920761 15.6215531,2.13787639 C13.977496,1.56275753 12.333439,0.990649762 10.6893819,0.42155309 C10.3280507,0.295087163 9.9637084,0.141521395 9.5933439,0.042155309 C9.47591125,0.00903328051 9.39160063,0.048177496 9.28621236,0.0843106181 C9.09952456,0.150554675 8.90982567,0.213787639 8.72313788,0.280031696 C7.14833597,0.82503962 5.57654517,1.37004754 4.00174326,1.91505547 C2.77020602,2.34263074 1.54167987,2.76719493 0.310142631,3.19477021 C0.289064976,3.20079239 0.270998415,3.20982567 0.249920761,3.21584786 C0.123454834,3.26101426 0.030110935,3.36640254 0.030110935,3.50491284 C0.030110935,3.92947702 0.030110935,4.3540412 0.030110935,4.77860539 C0.030110935,6.21489699 0.030110935,7.65118859 0.030110935,9.08748019 C0.030110935,10.2618067 0.0270998415,11.4361331 0.030110935,12.6104596 C0.0331220285,13.5830428 0.207765452,14.5526149 0.526941363,15.4709984 C1.18637084,17.3559429 2.39683043,19.0120444 3.82408875,20.3911252 C5.25435816,21.7732171 6.92852615,22.9264659 8.72614897,23.7755943 C8.93090333,23.8719493 9.14167987,23.9652932 9.34944532,24.055626 C9.5,24.118859 9.67163233,24.1007924 9.76196513,23.9472266 C9.83724247,23.8207607 9.80412044,23.5979398 9.65356577,23.5347068 C7.8800317,22.7819334 6.22393027,21.7340729 4.78161648,20.4573693 C3.33328051,19.1746434 2.05958796,17.6269414 1.30681458,15.8323296 C0.94548336,14.974168 0.710618067,14.0587956 0.647385103,13.1283677 C0.608240887,12.5532488 0.629318542,11.9751189 0.629318542,11.3969889 C0.629318542,10.8278922 0.629318542,10.2618067 0.629318542,9.69270998 C0.629318542,8.1570523 0.629318542,6.62139461 0.629318542,5.08573693 C0.629318542,4.71537242 0.629318542,4.34199683 0.629318542,3.97163233 C0.629318542,3.82408875 0.64437401,3.67052298 0.629318542,3.52599049 C0.629318542,3.5199683 0.629318542,3.51394612 0.629318542,3.50792393 C0.557052298,3.60427892 0.48177496,3.70063391 0.409508716,3.79698891 C1.44532488,3.43866878 2.47812995,3.08034865 3.51394612,2.72202853 C5.16101426,2.14992076 6.80808241,1.58082409 8.45515055,1.00871632 C8.83153724,0.879239303 9.20792393,0.749762282 9.58129952,0.617274168 C9.52709984,0.617274168 9.47591125,0.617274168 9.42171157,0.617274168 C10.4545166,0.975594295 11.4903328,1.33391442 12.5231379,1.69223455 C14.170206,2.26434231 15.8142631,2.83343899 17.4613312,3.40554675 C17.8377179,3.53502377 18.2110935,3.66450079 18.5874802,3.79698891 C18.5152139,3.70063391 18.4399366,3.60427892 18.3676704,3.50792393 C18.3676704,3.92345483 18.3676704,4.33597464 18.3676704,4.75150555 C18.3676704,6.15166403 18.3676704,7.5518225 18.3676704,8.95499208 C18.3676704,10.0931854 18.3676704,11.2343899 18.3676704,12.3725832 C18.3676704,13.3391442 18.2412044,14.2695721 17.9340729,15.1879556 C17.3198098,17.0247227 16.133439,18.6296355 14.7513471,19.966561 C13.3572108,21.3155309 11.7282092,22.4296355 9.97274168,23.2576862 C9.76798732,23.3540412 9.55721078,23.4473851 9.34944532,23.5377179 C9.19889065,23.6009509 9.16576862,23.8207607 9.24104596,23.9502377 C9.33438986,24.1007924 9.50602219,24.118859 9.65657686,24.055626 Z"/>
      <path fill="#FF6E61" stroke="#FF6E61" d="M4.61299525,11.1290016 C5.58256735,12.0985737 6.55213946,13.0681458 7.52472266,14.040729 C7.66323296,14.1792393 7.80174326,14.3177496 7.94025357,14.4562599 C8.05467512,14.5706815 8.2503962,14.5706815 8.36481775,14.4562599 C9.04833597,13.7727417 9.73486529,13.0862124 10.4183835,12.4026941 C11.5023772,11.3187005 12.5833597,10.2377179 13.6673534,9.15372425 C13.9172742,8.90380349 14.1671949,8.65388273 14.4171157,8.40396197 C14.6911252,8.12995246 14.266561,7.70237718 13.9925515,7.97939778 C13.3090333,8.66291601 12.622504,9.34944532 11.9389857,10.0329635 C10.8549921,11.1169572 9.77400951,12.1979398 8.69001585,13.2819334 C8.44009509,13.5318542 8.19017433,13.781775 7.94025357,14.0316957 C8.08177496,14.0316957 8.22329635,14.0316957 8.36481775,14.0316957 C7.39524564,13.0621236 6.42567353,12.0925515 5.45309033,11.1199683 C5.31458003,10.981458 5.17606973,10.8429477 5.03755943,10.7044374 C4.76354992,10.4274168 4.33898574,10.8549921 4.61299525,11.1290016 L4.61299525,11.1290016 Z" filter="url(#feature_key2-e)"/>
      <path fill="#FF6E61" stroke="#FF6E61" d="M4.61299525,11.1290016 C5.58256735,12.0985737 6.55213946,13.0681458 7.52472266,14.040729 C7.66323296,14.1792393 7.80174326,14.3177496 7.94025357,14.4562599 C8.05467512,14.5706815 8.2503962,14.5706815 8.36481775,14.4562599 C9.04833597,13.7727417 9.73486529,13.0862124 10.4183835,12.4026941 C11.5023772,11.3187005 12.5833597,10.2377179 13.6673534,9.15372425 C13.9172742,8.90380349 14.1671949,8.65388273 14.4171157,8.40396197 C14.6911252,8.12995246 14.266561,7.70237718 13.9925515,7.97939778 C13.3090333,8.66291601 12.622504,9.34944532 11.9389857,10.0329635 C10.8549921,11.1169572 9.77400951,12.1979398 8.69001585,13.2819334 C8.44009509,13.5318542 8.19017433,13.781775 7.94025357,14.0316957 C8.08177496,14.0316957 8.22329635,14.0316957 8.36481775,14.0316957 C7.39524564,13.0621236 6.42567353,12.0925515 5.45309033,11.1199683 C5.31458003,10.981458 5.17606973,10.8429477 5.03755943,10.7044374 C4.76354992,10.4274168 4.33898574,10.8549921 4.61299525,11.1290016 L4.61299525,11.1290016 Z"/>
    </g>
  </g>
</svg>
