<svg xmlns="http://www.w3.org/2000/svg" xmlns:xlink="http://www.w3.org/1999/xlink" width="380" height="380" viewBox="0 0 380 380">
  <defs>
    <filter id="feature_key1-a" width="347.1%" height="333.3%" x="-123.5%" y="-116.7%" filterUnits="objectBoundingBox">
      <feGaussianBlur in="SourceGraphic" stdDeviation="7"/>
    </filter>
    <rect id="feature_key1-b" width="62" height="46" x="0" y="0" rx="2"/>
    <filter id="feature_key1-d" width="442.9%" height="442.9%" x="-171.4%" y="-171.4%" filterUnits="objectBoundingBox">
      <feGaussianBlur in="SourceGraphic" stdDeviation="4"/>
    </filter>
    <filter id="feature_key1-e" width="517.4%" height="378.3%" x="-208.7%" y="-139.1%" filterUnits="objectBoundingBox">
      <feGaussianBlur in="SourceGraphic" stdDeviation="2"/>
    </filter>
    <filter id="feature_key1-f" width="517.4%" height="378.3%" x="-208.7%" y="-139.1%" filterUnits="objectBoundingBox">
      <feGaussianBlur in="SourceGraphic" stdDeviation="2"/>
    </filter>
    <filter id="feature_key1-g" width="517.4%" height="378.3%" x="-208.7%" y="-139.1%" filterUnits="objectBoundingBox">
      <feGaussianBlur in="SourceGraphic" stdDeviation="2"/>
    </filter>
    <filter id="feature_key1-h" width="249.7%" height="249.7%" x="-74.8%" y="-74.8%" filterUnits="objectBoundingBox">
      <feGaussianBlur in="SourceGraphic" stdDeviation="7"/>
    </filter>
    <filter id="feature_key1-i" width="416.8%" height="416.8%" x="-158.4%" y="-158.4%" filterUnits="objectBoundingBox">
      <feGaussianBlur in="SourceGraphic" stdDeviation="7"/>
    </filter>
    <filter id="feature_key1-j" width="521.8%" height="521.7%" x="-210.9%" y="-210.9%" filterUnits="objectBoundingBox">
      <feGaussianBlur in="SourceGraphic" stdDeviation="7"/>
    </filter>
    <filter id="feature_key1-k" width="355.3%" height="591.6%" x="-127.7%" y="-245.8%" filterUnits="objectBoundingBox">
      <feGaussianBlur in="SourceGraphic" stdDeviation="1"/>
    </filter>
    <filter id="feature_key1-l" width="355.3%" height="591.6%" x="-127.7%" y="-245.8%" filterUnits="objectBoundingBox">
      <feGaussianBlur in="SourceGraphic" stdDeviation="1"/>
    </filter>
    <filter id="feature_key1-m" width="226.3%" height="347.9%" x="-63.2%" y="-123.9%" filterUnits="objectBoundingBox">
      <feGaussianBlur in="SourceGraphic" stdDeviation="7"/>
    </filter>
    <filter id="feature_key1-n" width="250%" height="1978.5%" x="-75%" y="-939.2%" filterUnits="objectBoundingBox">
      <feGaussianBlur in="SourceGraphic" stdDeviation="2"/>
    </filter>
  </defs>
  <g fill="none" fill-rule="evenodd">
    <g transform="translate(25 42)">
      <g transform="translate(64 15)">
        <polygon fill="#FF6E61" points="168.889 17.878 152.39 18.435 169.39 .435" filter="url(#feature_key1-a)" transform="rotate(-90 160.89 9.435)"/>
        <polygon fill="#FF6E61" points="168.889 17.878 152.39 18.435 169.39 .435" transform="rotate(-90 160.89 9.435)"/>
        <path stroke="#B1B8DB" d="M167.872141,1 C168.976711,1 169.872141,1.8954305 169.872141,3 L169.87139,30.9 L136,30.9 C134.945638,30.9 134.081835,31.7158778 134.005486,32.7507377 L134,32.9 L134,75.1 C134,76.2045695 134.895431,77.1 136,77.1 L136,77.1 L169.87139,77.1 L169.872141,159.013035 C160.029306,159.251444 150.40007,159.544955 140.984433,159.893567 C127.347956,160.861981 125.178124,161.50782 122.813187,162.388891 C121.062981,163.202235 119.665016,164.072605 118.619293,165 L69.0767224,165.000052 C69.6523909,166.505567 69.9691987,168.113217 69.9978677,169.755666 C70.1328095,177.486475 63.9751426,183.862926 56.2443337,183.997868 C48.5135248,184.13281 42.137074,177.975143 42.0021323,170.244334 C41.9698813,168.396679 42.2970673,166.626385 42.9192612,165.000171 L34.9671526,165 C33.8625831,165 32.9671526,164.104569 32.9671526,163 L32.9669662,109.014617 C26.1545239,111.413943 4.09193764,118.337132 4.09193764,118.337132 C3.66788188,115.826952 3.26533696,114.048621 2.88430289,113.002139 C2.41722244,111.719336 1.62091799,110.144563 0.495389536,108.277817 C1.88464007,107.891119 26.6167523,102.67947 32.0032097,101.522049 L32,101.516614 C32.1974763,101.476095 32.5294487,101.404006 32.9651062,101.307524 L32.9671526,3 C32.9671526,1.8954305 33.8625831,1 34.9671526,1 L167.872141,1 Z"/>
        <line x1="50.622" x2="133.7" y1="42.5" y2="42.5" stroke="#B1B8DB" stroke-linecap="round"/>
        <line x1="50.622" x2="133.8" y1="52" y2="52" stroke="#B1B8DB" stroke-linecap="round"/>
        <line x1="50.622" x2="133.5" y1="61.5" y2="61.5" stroke="#B1B8DB" stroke-linecap="round"/>
        <line x1="50.622" x2="133.5" y1="71" y2="71" stroke="#B1B8DB" stroke-linecap="round"/>
        <line x1="50.622" x2="151.378" y1="80.5" y2="80.5" stroke="#B1B8DB" stroke-linecap="round"/>
        <line x1="50.622" x2="117.5" y1="90" y2="90" stroke="#B1B8DB" stroke-linecap="round"/>
        <g transform="translate(134 31)">
          <mask id="feature_key1-c" fill="#fff">
            <use xlink:href="#feature_key1-b"/>
          </mask>
          <use stroke="#B1B8DB" stroke-width=".8" xlink:href="#feature_key1-b"/>
          <g mask="url(#feature_key1-c)">
            <g transform="translate(25 10)">
              <path fill="#FF746C" fill-rule="nonzero" d="M4.44867762,1.07882241 C6.39203862,1.07882241 7.94867762,2.63546491 7.94867762,4.57882241 C7.94867762,6.52217991 6.39203862,8.07882241 4.44867762,8.07882241 C2.50531662,8.07882241 0.948677622,6.52217991 0.948677622,4.57882241 C0.948677622,2.63546491 2.50531662,1.07882241 4.44867762,1.07882241 Z" filter="url(#feature_key1-d)"/>
              <path fill="#FF746C" fill-rule="nonzero" d="M4.44867762,1.07882241 C6.39203862,1.07882241 7.94867762,2.63546491 7.94867762,4.57882241 C7.94867762,6.52217991 6.39203862,8.07882241 4.44867762,8.07882241 C2.50531662,8.07882241 0.948677622,6.52217991 0.948677622,4.57882241 C0.948677622,2.63546491 2.50531662,1.07882241 4.44867762,1.07882241 Z"/>
              <circle cx="5" cy="4" r="4" stroke="#B1B8DB"/>
            </g>
          </g>
          <polyline stroke="#B1B8DB" stroke-linecap="round" stroke-linejoin="round" points="14.608 34.989 25.392 24.854 33.301 32" mask="url(#feature_key1-c)"/>
          <polyline stroke="#B1B8DB" stroke-linecap="round" stroke-linejoin="round" points="29.107 27.982 36.786 20.359 52.853 35.662" mask="url(#feature_key1-c)"/>
        </g>
        <g transform="translate(51 12)">
          <g fill-rule="nonzero" transform="translate(5.036 3.036)">
            <circle cx="5.695" cy="5.695" r="5.695" stroke="#B1B8DB" stroke-width=".8"/>
            <polygon fill="#FF746C" points="3.6 7.936 3.6 3.624 6.475 5.78" filter="url(#feature_key1-e)"/>
            <polygon fill="#FF746C" points="3.6 7.936 3.6 3.624 6.475 5.78"/>
            <polygon stroke="#B1B8DB" stroke-linejoin="round" stroke-width=".8" points="4.523 7.936 4.523 3.624 7.398 5.78"/>
          </g>
          <g stroke="#B1B8DB" stroke-width=".8">
            <path d="M18,0 C18.5522847,-1.01453063e-16 19,0.44771525 19,1 L19,16 C19,16.5522847 18.5522847,17 18,17 L17,17 L17,18 C17,18.5522847 16.5522847,19 16,19 L1,19 C0.44771525,19 6.76353751e-17,18.5522847 0,18 L0,3 C-6.76353751e-17,2.44771525 0.44771525,2 1,2 L2,2 L2,1 C2,0.44771525 2.44771525,1.01453063e-16 3,0 L18,0 Z"/>
            <rect width="17" height="17" x="2" rx="1"/>
          </g>
        </g>
        <g transform="translate(73 12)">
          <g fill-rule="nonzero" transform="translate(5.036 3.036)">
            <circle cx="5.695" cy="5.695" r="5.695" stroke="#B1B8DB" stroke-width=".8"/>
            <polygon fill="#FF746C" points="3.6 7.936 3.6 3.624 6.475 5.78" filter="url(#feature_key1-f)"/>
            <polygon fill="#FF746C" points="3.6 7.936 3.6 3.624 6.475 5.78"/>
            <polygon stroke="#B1B8DB" stroke-linejoin="round" stroke-width=".8" points="4.523 7.936 4.523 3.624 7.398 5.78"/>
          </g>
          <g stroke="#B1B8DB" stroke-width=".8">
            <path d="M18,0 C18.5522847,-1.01453063e-16 19,0.44771525 19,1 L19,16 C19,16.5522847 18.5522847,17 18,17 L17,17 L17,18 C17,18.5522847 16.5522847,19 16,19 L1,19 C0.44771525,19 6.76353751e-17,18.5522847 0,18 L0,3 C-6.76353751e-17,2.44771525 0.44771525,2 1,2 L2,2 L2,1 C2,0.44771525 2.44771525,1.01453063e-16 3,0 L18,0 Z"/>
            <rect width="17" height="17" x="2" rx="1"/>
          </g>
        </g>
        <g transform="translate(95 12)">
          <g fill-rule="nonzero" transform="translate(5.036 3.036)">
            <circle cx="5.695" cy="5.695" r="5.695" stroke="#B1B8DB" stroke-width=".8"/>
            <polygon fill="#FF746C" points="3.6 7.936 3.6 3.624 6.475 5.78" filter="url(#feature_key1-g)"/>
            <polygon fill="#FF746C" points="3.6 7.936 3.6 3.624 6.475 5.78"/>
            <polygon stroke="#B1B8DB" stroke-linejoin="round" stroke-width=".8" points="4.523 7.936 4.523 3.624 7.398 5.78"/>
          </g>
          <g stroke="#B1B8DB" stroke-width=".8">
            <path d="M18,0 C18.5522847,-1.01453063e-16 19,0.44771525 19,1 L19,16 C19,16.5522847 18.5522847,17 18,17 L17,17 L17,18 C17,18.5522847 16.5522847,19 16,19 L1,19 C0.44771525,19 6.76353751e-17,18.5522847 0,18 L0,3 C-6.76353751e-17,2.44771525 0.44771525,2 1,2 L2,2 L2,1 C2,0.44771525 2.44771525,1.01453063e-16 3,0 L18,0 Z"/>
            <rect width="17" height="17" x="2" rx="1"/>
          </g>
        </g>
        <path fill="#FF6E61" fill-rule="nonzero" d="M56,155.967742 C63.7498021,155.967742 70.0322581,162.250198 70.0322581,170 C70.0322581,173.721586 68.5538637,177.290746 65.9223048,179.922305 C63.290746,182.553864 59.7215862,184.032258 56,184.032258 C48.2501979,184.032258 41.9677419,177.749802 41.9677419,170 C41.9677419,162.250198 48.2501979,155.967742 56,155.967742 Z M56,158.870968 C49.8536052,158.870968 44.8709677,163.853605 44.8709677,170 C44.8709677,176.146395 49.8536052,181.129032 56,181.129032 C58.9516029,181.129032 61.7823158,179.956513 63.8694142,177.869414 C65.9565126,175.782316 67.1290323,172.951603 67.1290323,170 C67.1290323,163.853605 62.1463948,158.870968 56,158.870968 Z" filter="url(#feature_key1-h)"/>
        <path fill="#FF6E61" fill-rule="nonzero" d="M56,155.967742 C63.7498021,155.967742 70.0322581,162.250198 70.0322581,170 C70.0322581,173.721586 68.5538637,177.290746 65.9223048,179.922305 C63.290746,182.553864 59.7215862,184.032258 56,184.032258 C48.2501979,184.032258 41.9677419,177.749802 41.9677419,170 C41.9677419,162.250198 48.2501979,155.967742 56,155.967742 Z M56,158.870968 C49.8536052,158.870968 44.8709677,163.853605 44.8709677,170 C44.8709677,176.146395 49.8536052,181.129032 56,181.129032 C58.9516029,181.129032 61.7823158,179.956513 63.8694142,177.869414 C65.9565126,175.782316 67.1290323,172.951603 67.1290323,170 C67.1290323,163.853605 62.1463948,158.870968 56,158.870968 Z"/>
        <path fill="#B1B8DB" fill-rule="nonzero" d="M56.483871,169.516129 L56.483871,163.225806 C58.366129,163.419355 59.8225806,164.735484 59.8225806,166.322581 C59.8225806,166.589815 60.0392171,166.806452 60.3064516,166.806452 C60.5736862,166.806452 60.7903226,166.589815 60.7903226,166.322581 C60.7903226,164.217742 58.9177419,162.475806 56.483871,162.253226 L56.483871,161.290323 C56.483871,161.023088 56.2672346,160.806452 56,160.806452 C55.7327654,160.806452 55.516129,161.023088 55.516129,161.290323 L55.516129,162.258065 C53.0967742,162.446774 51.1612903,164.193548 51.1612903,166.370968 C51.1612903,168.548387 53.0967742,170.241935 55.516129,170.445161 L55.516129,176.735484 C53.633871,176.541935 52.1774194,175.225806 52.1774194,173.63871 C52.1774194,173.371475 51.9607829,173.154839 51.6935484,173.154839 C51.4263138,173.154839 51.2096774,173.371475 51.2096774,173.63871 C51.2096774,175.743548 53.0822581,177.509677 55.516129,177.708065 L55.516129,178.675806 C55.516129,178.943041 55.7327654,179.159677 56,179.159677 C56.2672346,179.159677 56.483871,178.943041 56.483871,178.675806 L56.483871,177.741935 C58.9032258,177.553226 60.8387097,175.806452 60.8387097,173.629032 C60.8387097,171.451613 58.9032258,169.724194 56.483871,169.516129 Z M52.1290323,166.332258 C52.1290323,164.740323 53.5806452,163.429032 55.516129,163.230645 L55.516129,169.516129 C53.6145161,169.317742 52.1290323,167.991935 52.1290323,166.351613 L52.1290323,166.332258 Z M56.483871,176.774194 L56.483871,170.508065 C58.3854839,170.682258 59.8709677,172.008065 59.8709677,173.648387 C59.8709677,175.28871 58.4193548,176.556452 56.483871,176.774194 Z M56,155 C47.7157288,155 41,161.715729 41,170 C41,178.284271 47.7157288,185 56,185 C64.2842712,185 71,178.284271 71,170 C71,166.021753 69.4196474,162.206444 66.6066017,159.393398 C63.793556,156.580353 59.9782473,155 56,155 Z M56,184.032258 C48.2501979,184.032258 41.9677419,177.749802 41.9677419,170 C41.9677419,162.250198 48.2501979,155.967742 56,155.967742 C63.7498021,155.967742 70.0322581,162.250198 70.0322581,170 C70.0322581,173.721586 68.5538637,177.290746 65.9223048,179.922305 C63.290746,182.553864 59.7215862,184.032258 56,184.032258 Z M56,157.903226 C49.3191361,157.903226 43.9032258,163.319136 43.9032258,170 C43.9032258,176.680864 49.3191361,182.096774 56,182.096774 C62.6808639,182.096774 68.0967742,176.680864 68.0967742,170 C68.0967742,166.791736 66.8222963,163.714874 64.5537111,161.446289 C62.2851258,159.177704 59.208264,157.903226 56,157.903226 Z M56,181.129032 C49.8536052,181.129032 44.8709677,176.146395 44.8709677,170 C44.8709677,163.853605 49.8536052,158.870968 56,158.870968 C62.1463948,158.870968 67.1290323,163.853605 67.1290323,170 C67.1290323,172.951603 65.9565126,175.782316 63.8694142,177.869414 C61.7823158,179.956513 58.9516029,181.129032 56,181.129032 Z"/>
      </g>
      <g fill="#FF6E61" fill-rule="nonzero" transform="translate(79)">
        <path d="M7.42049512,7.22954878 C7.51282683,7.22954878 7.59117561,7.29546829 7.6071561,7.38646829 L7.6071561,7.38646829 L7.92032927,9.17339756 C8.30541463,9.27904634 8.67496341,9.43308049 9.02187317,9.63150488 L9.02187317,9.63150488 L10.492522,8.57324146 C10.5677634,8.51864146 10.6714146,8.52663171 10.7373341,8.59343902 L10.7373341,8.59343902 L11.8759439,9.73071707 C11.9411976,9.79597073 11.9500756,9.89806829 11.8970293,9.97375366 L11.8970293,9.97375366 L10.8505293,11.4665976 C11.0451805,11.8110659 11.1972171,12.1783951 11.3030878,12.5603732 L11.3030878,12.5603732 L13.0982293,12.8537927 C13.1896732,12.8693293 13.2569244,12.9485659 13.2573683,13.0408976 L13.2573683,13.0408976 L13.2573683,14.6507098 C13.2573683,14.7425976 13.1910049,14.8218341 13.1002268,14.8373707 L13.1002268,14.8373707 L11.3041976,15.1520976 C11.1994366,15.5342976 11.0480659,15.9022927 10.8525268,16.2480927 L10.8525268,16.2480927 L11.9141195,17.7227366 C11.9682756,17.797978 11.9602854,17.9016293 11.8943659,17.9677707 L11.8943659,17.9677707 L10.7566439,19.1066024 C10.6909463,19.1718561 10.5888488,19.1807341 10.5136073,19.1281317 L10.5136073,19.1281317 L9.02475854,18.0825195 C8.67873659,18.2809439 8.30963171,18.4358659 7.92432439,18.5430683 L7.92432439,18.5430683 L7.60737805,20.3315512 C7.59139756,20.4218854 7.51260488,20.4878049 7.42071707,20.4878049 L7.42071707,20.4878049 L5.81046098,20.4878049 C5.71790732,20.4878049 5.63867073,20.4203317 5.62357805,20.3295537 L5.62357805,20.3295537 L5.32727317,18.5492829 C4.9417439,18.4434122 4.57064146,18.2902659 4.22217805,18.0931732 L4.22217805,18.0931732 L2.74420488,19.1283537 C2.66785366,19.1809561 2.56642195,19.172078 2.50139024,19.1068244 L2.50139024,19.1068244 L1.36278049,17.9679927 C1.29708293,17.9018512 1.28864878,17.7988659 1.34280488,17.7234024 L1.34280488,17.7234024 L2.38797317,16.2616317 C2.18843902,15.9107268 2.03351707,15.5380707 1.92698049,15.1507659 L1.92698049,15.1507659 L0.156697561,14.8375927 C0.0659195122,14.8213902 -2.07443818e-13,14.7428195 -2.07443818e-13,14.6509317 L-2.07443818e-13,14.6509317 L-2.07443818e-13,13.0411195 C-2.07443818e-13,12.9485659 0.0670292683,12.8693293 0.15825122,12.8537927 L0.15825122,12.8537927 L1.9292,12.5597073 C2.03618049,12.1724024 2.19110244,11.7999683 2.39063659,11.4497293 L2.39063659,11.4497293 L1.35834146,9.97397561 C1.30573902,9.89829024 1.31461707,9.79619268 1.37987073,9.73093902 L1.37987073,9.73093902 L2.51825854,8.59366098 C2.5835122,8.52685366 2.68671951,8.51886341 2.76262683,8.57346341 L2.76262683,8.57346341 L4.22928049,9.62062927 C4.57663415,9.42442439 4.94684878,9.27283171 5.3330439,9.16740488 L5.3330439,9.16740488 L5.6233561,7.3886878 C5.63800488,7.2968 5.71724146,7.22954878 5.81023902,7.22954878 L5.81023902,7.22954878 Z M6.62857317,11.8037415 C5.49529024,11.8037415 4.57286098,12.7257268 4.57286098,13.8587878 C4.57286098,14.9925146 5.49529024,15.9145 6.62857317,15.9145 C7.76207805,15.9145 8.68384146,14.9922927 8.68384146,13.8587878 C8.68384146,12.7255049 7.7618561,11.8037415 6.62857317,11.8037415 Z" filter="url(#feature_key1-i)"/>
        <path d="M14.6621829,0.0144268293 C14.7478561,-0.0210853659 14.8457366,0.0113195122 14.8947878,0.0898902439 L14.8947878,0.0898902439 L15.6043659,1.23693415 C15.8929024,1.20586098 16.1834366,1.20808049 16.4717512,1.24292683 L16.4717512,1.24292683 L17.1862122,0.0976585366 C17.2352634,0.0197536585 17.3322561,-0.0150926829 17.4203707,0.0235268293 L17.4203707,0.0235268293 L18.556539,0.499168293 C18.6413244,0.534902439 18.688378,0.625902439 18.6679585,0.716236585 L18.6679585,0.716236585 L18.3674366,2.04106341 C18.5969341,2.22528293 18.8013512,2.43169756 18.9775805,2.6576439 L18.9775805,2.6576439 L20.2993,2.35112927 C20.390522,2.32671463 20.4826317,2.37776341 20.5177,2.46365854 L20.5177,2.46365854 L20.9849073,3.60337805 C21.0197537,3.68860732 20.9884585,3.78626585 20.9105537,3.83598293 L20.9105537,3.83598293 L19.7555195,4.56309512 C19.7870366,4.84963415 19.7859268,5.13861463 19.7524122,5.42426585 L19.7524122,5.42426585 L20.9074463,6.14671707 C20.986461,6.19576829 21.0175341,6.29498049 20.9818,6.38087561 L20.9818,6.38087561 L20.5070463,7.51593415 C20.4713122,7.60049756 20.3792024,7.64555366 20.290422,7.62779756 L20.290422,7.62779756 L18.9578268,7.32660976 C18.7782683,7.55144634 18.5738512,7.75519756 18.347461,7.93364634 L18.347461,7.93364634 L18.6548634,9.25847317 C18.6757268,9.34880732 18.6284512,9.44136098 18.5423341,9.47687317 L18.5423341,9.47687317 L17.4037244,9.94474634 C17.3801976,9.95429024 17.355561,9.95872927 17.3315902,9.95872927 C17.2683341,9.95872927 17.2068537,9.92699024 17.1713415,9.86994878 L17.1713415,9.86994878 L16.4448951,8.71713415 C16.1583561,8.75109268 15.8658244,8.75175854 15.5779537,8.7178 L15.5779537,8.7178 L14.8410756,9.86195854 C14.7915805,9.93875366 14.6932561,9.97071463 14.6089146,9.93364878 L14.6089146,9.93364878 L13.4734122,9.45978293 C13.387739,9.42427073 13.3402415,9.33171707 13.3619927,9.24138293 L13.3619927,9.24138293 L13.6716146,7.92543415 C13.4436707,7.7441 13.2383659,7.53812927 13.0583634,7.31018537 L13.0583634,7.31018537 L11.7373098,7.59827805 C11.6467537,7.61603415 11.5559756,7.57009024 11.5213512,7.48486098 L11.5213512,7.48486098 L11.0548098,6.3435878 C11.0197415,6.25769268 11.0519244,6.15936829 11.1307171,6.11031707 L11.1307171,6.11031707 L12.2750976,5.40384634 C12.2418049,5.11109268 12.2426927,4.81789512 12.2773171,4.53069024 L12.2773171,4.53069024 L11.144478,3.79891707 C11.067461,3.7492 11.0370537,3.65154146 11.0725659,3.5663122 L11.0725659,3.5663122 L11.5473195,2.43125366 C11.5828317,2.34602439 11.6742756,2.29652927 11.7657195,2.32027805 L11.7657195,2.32027805 L13.0743439,2.6299 C13.2585634,2.39951463 13.4667537,2.1931 13.6951415,2.01465122 L13.6951415,2.01465122 L13.4090463,0.69515122 C13.3895146,0.605260976 13.4372341,0.514260976 13.5226854,0.479414634 L13.5226854,0.479414634 Z M16.0240756,3.45533659 C15.4061634,3.45533659 14.853061,3.8228878 14.6146854,4.39219268 C14.2899707,5.1696878 14.657522,6.06637073 15.4343512,6.39152927 C15.6227878,6.46987805 15.8209902,6.51005122 16.0229659,6.51005122 C16.641322,6.51005122 17.1939805,6.14183415 17.4323561,5.57252927 C17.7575146,4.79636585 17.3897415,3.89968293 16.6131341,3.57385854 C16.4246976,3.4952878 16.2264951,3.45533659 16.0240756,3.45533659 Z" filter="url(#feature_key1-j)"/>
      </g>
      <path fill="#FF6E61" fill-rule="nonzero" d="M7.42049512 7.22954878C7.51282683 7.22954878 7.59117561 7.29546829 7.6071561 7.38646829L7.6071561 7.38646829 7.92032927 9.17339756C8.30541463 9.27904634 8.67496341 9.43308049 9.02187317 9.63150488L9.02187317 9.63150488 10.492522 8.57324146C10.5677634 8.51864146 10.6714146 8.52663171 10.7373341 8.59343902L10.7373341 8.59343902 11.8759439 9.73071707C11.9411976 9.79597073 11.9500756 9.89806829 11.8970293 9.97375366L11.8970293 9.97375366 10.8505293 11.4665976C11.0451805 11.8110659 11.1972171 12.1783951 11.3030878 12.5603732L11.3030878 12.5603732 13.0982293 12.8537927C13.1896732 12.8693293 13.2569244 12.9485659 13.2573683 13.0408976L13.2573683 13.0408976 13.2573683 14.6507098C13.2573683 14.7425976 13.1910049 14.8218341 13.1002268 14.8373707L13.1002268 14.8373707 11.3041976 15.1520976C11.1994366 15.5342976 11.0480659 15.9022927 10.8525268 16.2480927L10.8525268 16.2480927 11.9141195 17.7227366C11.9682756 17.797978 11.9602854 17.9016293 11.8943659 17.9677707L11.8943659 17.9677707 10.7566439 19.1066024C10.6909463 19.1718561 10.5888488 19.1807341 10.5136073 19.1281317L10.5136073 19.1281317 9.02475854 18.0825195C8.67873659 18.2809439 8.30963171 18.4358659 7.92432439 18.5430683L7.92432439 18.5430683 7.60737805 20.3315512C7.59139756 20.4218854 7.51260488 20.4878049 7.42071707 20.4878049L7.42071707 20.4878049 5.81046098 20.4878049C5.71790732 20.4878049 5.63867073 20.4203317 5.62357805 20.3295537L5.62357805 20.3295537 5.32727317 18.5492829C4.9417439 18.4434122 4.57064146 18.2902659 4.22217805 18.0931732L4.22217805 18.0931732 2.74420488 19.1283537C2.66785366 19.1809561 2.56642195 19.172078 2.50139024 19.1068244L2.50139024 19.1068244 1.36278049 17.9679927C1.29708293 17.9018512 1.28864878 17.7988659 1.34280488 17.7234024L1.34280488 17.7234024 2.38797317 16.2616317C2.18843902 15.9107268 2.03351707 15.5380707 1.92698049 15.1507659L1.92698049 15.1507659.156697561 14.8375927C.0659195122 14.8213902-2.07443818e-13 14.7428195-2.07443818e-13 14.6509317L-2.07443818e-13 14.6509317-2.07443818e-13 13.0411195C-2.07443818e-13 12.9485659.0670292683 12.8693293.15825122 12.8537927L.15825122 12.8537927 1.9292 12.5597073C2.03618049 12.1724024 2.19110244 11.7999683 2.39063659 11.4497293L2.39063659 11.4497293 1.35834146 9.97397561C1.30573902 9.89829024 1.31461707 9.79619268 1.37987073 9.73093902L1.37987073 9.73093902 2.51825854 8.59366098C2.5835122 8.52685366 2.68671951 8.51886341 2.76262683 8.57346341L2.76262683 8.57346341 4.22928049 9.62062927C4.57663415 9.42442439 4.94684878 9.27283171 5.3330439 9.16740488L5.3330439 9.16740488 5.6233561 7.3886878C5.63800488 7.2968 5.71724146 7.22954878 5.81023902 7.22954878L5.81023902 7.22954878zM6.62857317 11.8037415C5.49529024 11.8037415 4.57286098 12.7257268 4.57286098 13.8587878 4.57286098 14.9925146 5.49529024 15.9145 6.62857317 15.9145 7.76207805 15.9145 8.68384146 14.9922927 8.68384146 13.8587878 8.68384146 12.7255049 7.7618561 11.8037415 6.62857317 11.8037415zM14.6621829.0144268293C14.7478561-.0210853659 14.8457366.0113195122 14.8947878.0898902439L14.8947878.0898902439 15.6043659 1.23693415C15.8929024 1.20586098 16.1834366 1.20808049 16.4717512 1.24292683L16.4717512 1.24292683 17.1862122.0976585366C17.2352634.0197536585 17.3322561-.0150926829 17.4203707.0235268293L17.4203707.0235268293 18.556539.499168293C18.6413244.534902439 18.688378.625902439 18.6679585.716236585L18.6679585.716236585 18.3674366 2.04106341C18.5969341 2.22528293 18.8013512 2.43169756 18.9775805 2.6576439L18.9775805 2.6576439 20.2993 2.35112927C20.390522 2.32671463 20.4826317 2.37776341 20.5177 2.46365854L20.5177 2.46365854 20.9849073 3.60337805C21.0197537 3.68860732 20.9884585 3.78626585 20.9105537 3.83598293L20.9105537 3.83598293 19.7555195 4.56309512C19.7870366 4.84963415 19.7859268 5.13861463 19.7524122 5.42426585L19.7524122 5.42426585 20.9074463 6.14671707C20.986461 6.19576829 21.0175341 6.29498049 20.9818 6.38087561L20.9818 6.38087561 20.5070463 7.51593415C20.4713122 7.60049756 20.3792024 7.64555366 20.290422 7.62779756L20.290422 7.62779756 18.9578268 7.32660976C18.7782683 7.55144634 18.5738512 7.75519756 18.347461 7.93364634L18.347461 7.93364634 18.6548634 9.25847317C18.6757268 9.34880732 18.6284512 9.44136098 18.5423341 9.47687317L18.5423341 9.47687317 17.4037244 9.94474634C17.3801976 9.95429024 17.355561 9.95872927 17.3315902 9.95872927 17.2683341 9.95872927 17.2068537 9.92699024 17.1713415 9.86994878L17.1713415 9.86994878 16.4448951 8.71713415C16.1583561 8.75109268 15.8658244 8.75175854 15.5779537 8.7178L15.5779537 8.7178 14.8410756 9.86195854C14.7915805 9.93875366 14.6932561 9.97071463 14.6089146 9.93364878L14.6089146 9.93364878 13.4734122 9.45978293C13.387739 9.42427073 13.3402415 9.33171707 13.3619927 9.24138293L13.3619927 9.24138293 13.6716146 7.92543415C13.4436707 7.7441 13.2383659 7.53812927 13.0583634 7.31018537L13.0583634 7.31018537 11.7373098 7.59827805C11.6467537 7.61603415 11.5559756 7.57009024 11.5213512 7.48486098L11.5213512 7.48486098 11.0548098 6.3435878C11.0197415 6.25769268 11.0519244 6.15936829 11.1307171 6.11031707L11.1307171 6.11031707 12.2750976 5.40384634C12.2418049 5.11109268 12.2426927 4.81789512 12.2773171 4.53069024L12.2773171 4.53069024 11.144478 3.79891707C11.067461 3.7492 11.0370537 3.65154146 11.0725659 3.5663122L11.0725659 3.5663122 11.5473195 2.43125366C11.5828317 2.34602439 11.6742756 2.29652927 11.7657195 2.32027805L11.7657195 2.32027805 13.0743439 2.6299C13.2585634 2.39951463 13.4667537 2.1931 13.6951415 2.01465122L13.6951415 2.01465122 13.4090463.69515122C13.3895146.605260976 13.4372341.514260976 13.5226854.479414634L13.5226854.479414634zM16.0240756 3.45533659C15.4061634 3.45533659 14.853061 3.8228878 14.6146854 4.39219268 14.2899707 5.1696878 14.657522 6.06637073 15.4343512 6.39152927 15.6227878 6.46987805 15.8209902 6.51005122 16.0229659 6.51005122 16.641322 6.51005122 17.1939805 6.14183415 17.4323561 5.57252927 17.7575146 4.79636585 17.3897415 3.89968293 16.6131341 3.57385854 16.4246976 3.4952878 16.2264951 3.45533659 16.0240756 3.45533659z" transform="translate(79)"/>
      <g transform="translate(0 95)">
        <path stroke="#B1B8DB" d="M28.9559972,82.498441 C29.019427,84.5440535 29.4671269,112.790156 31.8457461,120.175768 C28.2381737,125.016258 2.06146993,158.971047 1.98218263,159.724276 C1.90289532,160.477506 6.34298441,164.568731 7.13585746,164.568731 C7.92873051,164.568731 48.0837862,131.91029 50.133363,129.773497 C52.1829399,127.636704 53.3588502,118.235391 53.3588502,118.235391"/>
        <path stroke="#B1B8DB" d="M28.0938399,75.9267789 C28.2735574,84.9600917 32.5940758,93.8970561 38.2917281,101.779188 C48.2629923,115.573435 62.4785585,126.149781 66.6793527,128.5817 C66.9786595,129.204557 68.3463463,132.034797 70.2695626,136.014632 C76.233228,148.355628 87.5339522,171.742393 88.9046687,174.682695 C90.3718047,174.750709 92.475534,174.097057 93.6173802,172.774099 C93.4383347,171.936597 92.9079525,169.326659 92.1674659,165.681478 C89.3096088,151.613154 83.314459,122.05249 82.3329059,119.783604 C81.0748169,116.875498 65.2160583,87.1257092 60.465084,80.9245397 L28.0938399,75.9267789 Z"/>
        <path fill="#B1B8DB" fill-rule="nonzero" d="M3.04066815 160.604365C2.64423163 161.000802.0634298441 163.327884-2.01878445e-16 164.089042-.107037862 165.464677 5.36775056 170.297238 5.85140312 170.301235 6.33505568 170.305167 6.98521158 169.94441 6.91781737 169.583653 6.85042316 169.222895 5.22106904 166.753096 5.14178174 166.281336 5.06249443 165.809577 5.70075724 164.406192 6.39848552 164.001826M88.8017817 174.65804C89.0158575 175.201158 90.1338085 178.467795 90.8077506 178.820624 92.0327394 179.462851 98.6254788 176.327038 98.8197327 175.883029 99.0139866 175.43902 98.9386637 174.693719 98.5779065 174.622361 98.2171492 174.551002 95.3073051 175.06637 94.8434744 174.959332 94.3796437 174.852294 93.34098 173.706592 93.2577283 172.905791M49.6207279 24.1288964L49.5069933 24.3213808C48.8964811 25.3362584 54.1413363 28.3888196 54.7082405 27.4453007L54.7082405 27.4453007 55.453318 26.2010925C56.3881933 27.0355098 57.2085418 28.0648802 57.9202109 29.1953605L57.9114477 29.1697996C58.2801336 29.0746548 60.6547884 28.5751448 64.0720713 27.8853452 64.8503776 28.8727487 67.1528784 32.7421279 68.0316307 38.4406459L68.0919376 38.8507795 61.6538085 41.0113586C61.6538085 43.4729235 61.0910539 48.8388849 60.5820183 54.9664085 60.494303 54.7743491 60.4104688 54.579478 60.3297105 54.3831626 55.4971492 57.1820045 46.9499777 58.1532739 43.7229844 57.4991537 47.07065 64.7183945 53.2699511 69.969406 59.8443856 73.7660539 59.9588764 76.4109647 60.2335752 78.7239237 60.7380401 80.4607572 57.5189755 80.9880178 31.6594209 78.81951 27.5880178 75.3427617 27.5880178 51.3818132 41.7873439 25.4574082 49.6207279 24.1288964z"/>
        <path stroke="#B1B8DB" d="M60.3297105 54.3831626C65.268938 66.3899339 81.7140968 72.9943167 85.4641448 74.6870017 85.9681915 74.5716323 86.5001077 74.510245 87.0495323 74.510245 90.3140149 74.510245 92.9604009 76.6774062 92.9604009 79.350735 92.9604009 82.0240638 90.3140149 84.1912249 87.0495323 84.1912249 85.2453306 84.1912249 83.6299271 83.5292635 82.5457284 82.4857421 75.4637695 80.6263445 51.6329943 74.55709 43.7229844 57.4991537 46.9499777 58.1532739 55.4971492 57.1820045 60.3297105 54.3831626zM112.289577 17.968507C112.828731 20.1964803 108.789042 20.9774603 106.902004 21.5166139 107.441158 23.340222 107.643341 24.7753222 106.319243 25.4809792 105.211433 26.0791967 103.298744 26.7668452 98.645993 26.5795373 98.7892179 27.2606651 98.8791982 27.8615322 98.8791982 28.2778174 97.2934521 29.1737639 68.0919376 38.3371323 68.0919376 38.3371323 67.6678819 35.826952 67.265337 34.0486208 66.8843029 33.0021386 66.4172224 31.7193364 65.620918 30.1445627 64.4953895 28.2778174 65.8846401 27.8911188 90.6167523 22.6794697 96.0032097 21.5220491L96 21.5166139C97.8355011 21.1399992 111.290557 18.0359012 111.623563 17.968507 111.95657 17.9011128 112.23804 17.76236 112.289577 17.968507zM57.8767058 22.2689433L54.7082405 27.4453007C54.1413363 28.3888196 48.8964811 25.3362584 49.5069933 24.3213808L53.2354347 18.6582851"/>
        <path stroke="#B1B8DB" d="M61.9110114,-3.15303339e-13 C64.3531065,-3.15303339e-13 64.7937544,1.08273371 64.7937544,1.95644548 C64.7937544,3.87944744 63.3029645,5.93622346 62.7346523,6.44205658 C64.1018961,5.41784901 66.2351259,4.38946101 68.0883178,4.38946101 C69.2496514,4.38946101 70.7322049,4.72389613 70.7322049,6.34590648 C70.7322049,9.32655953 68.3980106,10.9527503 67.4796511,11.4335008 C67.4189671,11.3380106 67.3711166,11.260435 67.3335011,11.1974262 C67.8203211,12.2211787 68.0919376,13.365373 68.0919376,14.5730067 C68.0919376,18.9256501 64.563423,22.4541648 60.2107795,22.4541648 C57.2777903,22.4541648 54.7190063,20.8520019 53.3618756,18.4751243 C52.5177384,19.4318454 51.380302,19.9908596 50.8536331,19.9908596 C50.5622034,20.0310514 50.2682796,19.9374068 50.0517421,19.7353756 C49.8352045,19.5333444 49.7185498,19.2439163 49.7334815,18.9457498 C49.7334815,17.9257227 50.3265029,17.0520109 51.5702006,15.948375 C51.3519358,15.567955 49.7334815,13.5655247 49.7334815,10.7353675 C49.7334815,7.74635357 51.5413732,5.24227057 52.7521252,5.24227057 C53.8200728,5.31029807 54.7075416,6.10286638 54.9100642,7.16945298 C54.9100642,2.99319436 59.3083064,-3.15303339e-13 61.9110114,-3.15303339e-13 Z"/>
        <ellipse cx="67.48" cy="17.071" fill="#FF746C" fill-rule="nonzero" rx="1" ry="1.316" transform="rotate(-84.07 67.48 17.07)"/>
        <ellipse cx="59.257" cy="16.221" fill="#FF746C" fill-rule="nonzero" rx="1" ry="1.316" transform="rotate(-84.07 59.257 16.22)"/>
        <path stroke="#B1B8DB" stroke-linecap="round" stroke-width=".3" d="M64.4328285 15.3262361C64.6429399 15.7226726 65.7450334 17.3084187 64.3575056 17.7524276M61.5467706 19.1914922C61.1503341 19.1399555 60.5953229 18.6008018 60.3217817 18.125078"/>
        <path stroke="#B1B8DB" d="M54.3994069,15.948375 C54.3994069,18.3813905 51.7472834,19.9908596 50.8536331,19.9908596 C50.5622034,20.0310514 50.2682796,19.9374068 50.0517421,19.7353756 C49.8352045,19.5333444 49.7185498,19.2439163 49.7334815,18.9457498 C49.7334815,17.9257227 50.3265029,17.0520109 51.5702006,15.948375 C51.3519358,15.567955 49.7334815,13.5655247 49.7334815,10.7353675 C49.7334815,7.74635357 51.5413732,5.24227057 52.7521252,5.24227057 C53.8200728,5.31029807 54.7075416,6.10286638 54.9100642,7.16945298 C54.9100642,2.99319436 59.3083064,0 61.9110114,0 C64.3531065,0 64.7937544,1.08273371 64.7937544,1.95644548 C64.7937544,3.87944744 63.3029645,5.93622346 62.7346523,6.44205658 C64.1018961,5.41784901 66.2351259,4.38946101 68.0883178,4.38946101 C69.2496514,4.38946101 70.7322049,4.72389613 70.7322049,6.34590648 C70.7322049,9.32655953 68.3980106,10.9527503 67.4796511,11.4335008 C67.1024448,10.9121187 67.7100121,11.4485269 66.7322049,10.3281693 C66.7322049,10.9121187 65.2790768,11.1605167 63.8868723,11.4335008 C63.1716685,11.5737383 54.3994069,10.3633084 54.3994069,15.948375 Z"/>
      </g>
      <g transform="matrix(-1 0 0 1 339 155)">
        <g transform="translate(0 18.582)">
          <polygon fill="#B1B8DB" points="154.842 96.394 152.71 96.394 150.882 87.539 156.669 87.539"/>
          <polygon fill="#B1B8DB" points="24.999 96.394 22.868 96.394 21.04 87.539 26.827 87.539"/>
          <polygon fill="#B1B8DB" points="138.395 96.394 136.263 96.394 134.436 87.539 140.222 87.539"/>
          <polygon fill="#B1B8DB" points="38.4 96.394 36.269 96.394 34.442 87.539 40.228 87.539"/>
          <g stroke="#B1B8DB" transform="translate(0 .108)">
            <path d="M162.271594 28.5693772C162.40927 18.733821 160.679061 6.1680926 151.428748 3.33369114 142.152544.491357993 93.1457344-.241991255 58.3943483.734692709M50.8273195.983565813C37.5152788 1.49096521 27.3124513 2.28364534 23.9963048 3.33369114 14.9059523 6.21197584 13.09036 18.4491886 13.163745 28.1927881"/>
            <polyline points="133.249 58.205 153.134 58.205 150.125 87.431 129.979 87.431"/>
            <polyline points="120.316 87.431 28.383 87.431 25.214 58.205 112.024 58.205"/>
            <path d="M18.298685,59.7077953 L28.4258199,59.7077953 C28.4258199,59.7077953 24.3141356,13.5048029 21.8012608,6.07255611 C20.2467061,1.47351166 12.8167075,-2.08974665 4.41229594,3.24936506 C2.11989111,4.70562646 0.429353183,6.95047149 0.0463469703,9.5588043 C-0.345510226,12.234906 1.69987169,15.5709845 7.41036558,16.274857 L18.298685,59.7077953 Z" transform="translate(0 27.724)"/>
            <path d="M160.375725,87.431439 L150.24859,87.431439 C150.24859,87.431439 154.360274,41.2284466 156.873149,33.7961998 C158.427704,29.1971554 165.857702,25.633897 174.262114,30.9730088 C176.555323,32.4292701 178.245057,34.6741152 178.628063,37.282448 C179.01992,39.9585497 176.974538,43.2946282 171.264044,43.9985007 L160.375725,87.431439 Z"/>
          </g>
        </g>
        <g transform="translate(26.553)">
          <path stroke="#B1B8DB" d="M90.3984698,79.7509241 C90.6380288,81.1768706 94.329211,112.435879 94.9879983,112.974887 C95.6467856,113.513895 102.642479,114.708838 103.241376,113.810492 C103.361156,112.384545 103.879459,90.8305878 104.250205,88.7971881 L90.3984698,79.7509241 Z"/>
          <path stroke="#B1B8DB" d="M76.5523873,51.9998651 C92.3433185,51.9998651 113.447326,86.5682947 113.447326,87.4735787 C113.447326,88.3788628 110.80077,90.6832221 109.477491,91.9999989 C107.749244,91.9999989 85.7069636,73.8063439 76.3955332,73.8063439 C75.4703045,73.8063439 73.5037637,74.8560943 70.8339077,76.4950589 C70.6320424,76.6189794 70.4261565,76.7462684 70.216396,76.8767266 L11.6201371,76.8767245 C11.5763477,76.6890266 11.5365982,76.5060614 11.5008876,76.3282572 C11.0790546,74.2279332 11.0252018,73.1875215 11.7369396,73.181257 C28.0868209,73.0373505 70.4293731,51.9943907 76.5523873,51.9998651 Z"/>
          <path fill="#B1B8DB" fill-rule="nonzero" d="M26.8705353,23.7762315 C29.3089038,23.841825 42.0026793,23.468227 45.4819887,26.7821266 C46.993261,28.2199227 50.371175,36.0653163 53.1600495,43.8118109 L53.1393212,43.7737048 L45.2139107,45.8128083 C45.7523269,48.2960371 45.711444,54.0877067 45.5782041,58.3529943 C36.7708231,60.4376939 15.0996818,63.0604882 14.145389,61.7548898 C13.1073,60.3346471 15.6255214,52.0755652 16.1417141,50.1391299 C16.1417141,50.1391299 5.20185273,47.3414229 3.04296977,47.0733449 C3.03700942,47.1066162 3.02710858,47.1593845 3.01359221,47.2304533 C4.35307958,39.5942884 6.50372448,31.7382006 9.8646977,26.0748572 C12.7422577,24.1583851 24.5262793,23.7134898 26.8705353,23.7762315 Z"/>
          <path stroke="#B1B8DB" d="M24.400796,17.6041894 L24.400796,24.6955554 C24.400796,26.6918805 31.8157177,26.6747691 31.8157177,24.6955554 L31.8157177,19.4360267"/>
          <path stroke="#B1B8DB" stroke-linejoin="round" d="M24.0043829,1.27009514e-12 C25.6770934,1.27009514e-12 27.0330932,1.35599979 27.0330932,3.02871031 C27.0330932,3.41112024 26.9622209,3.77697707 26.8328947,4.11386251 C27.7023691,3.86408448 28.6189608,3.7312904 29.5655742,3.7312904 C35.2379892,3.7312904 39.8323888,8.4996554 39.8323888,14.3802587 C39.8323888,15.0107495 39.778436,15.6397936 39.6715222,16.2605798 L39.5814222,16.7245147 L36.5255919,16.7249941 C37.9842046,14.6522827 38.3548211,11.9722502 37.4624657,9.5520039 C37.2673846,9.57622354 37.0700569,9.57622354 36.8749758,9.5520039 C35.617291,9.36092707 34.3624581,8.37132022 33.486927,7.72394052 C28.4961143,11.3800673 25.2991423,11.4314013 24.9540633,11.4314013 C24.6089842,11.4314013 23.203001,13.4505416 22.5556213,13.678693 L22.4985834,13.6444703 C22.70486,14.7736675 23.1526076,15.8198694 23.7896668,16.7251474 L19.5497261,16.7245147 C19.3830608,15.9542252 19.2987596,15.1683723 19.2987596,14.3802587 C19.2987596,10.9593581 20.8535287,7.91484478 23.2708344,5.96646101 C21.952508,5.63999147 20.9756726,4.44842696 20.9756726,3.02871031 C20.9756726,1.35599979 22.3316724,1.27009514e-12 24.0043829,1.27009514e-12 Z"/>
          <path stroke="#B1B8DB" d="M33.590452,7.64266768 C28.0955057,11.4213701 24.5854149,11.4473976 24.2013214,11.4473976 C24.0763384,11.4473976 23.8293729,11.8887075 23.528658,12.206596 C23.052813,12.7096158 22.5110701,13.245771 22.0663849,13.5464298 C22.3784491,14.8400548 23.0274617,16.0114411 23.924886,16.9679065 C24.9076048,18.015278 26.1880449,18.8050088 27.6515648,19.2170872 C29.1180362,19.6299967 30.6431531,19.6286047 32.062499,19.2560923 C33.4791583,18.884285 34.790676,18.1426479 35.8321845,17.0729506 C36.8695293,16.0075297 37.5503624,14.7073183 37.839769,13.3310112 C38.1048334,12.070467 38.0414143,10.7463585 37.250492,9.45699616 C35.9973064,9.27428578 34.7379331,8.4539129 33.590452,7.64266768 Z"/>
          <path stroke="#B1B8DB" stroke-linecap="round" stroke-width=".3" d="M25.3533283 11.2631397C24.6734746 11.2953226 24.1388111 11.8558949 24.1388111 12.5365099 24.1388111 13.2171249 24.6734746 13.7776971 25.3533283 13.8098801M35.0611719 11.4171419C35.4347698 11.9162231 36.3958578 12.7889024 35.0611719 13.7157676M31.0143358 14.4002219C31.0143358 14.7738199 31.1740418 15.6664624 31.9754237 15.8974657"/>
          <ellipse cx="28.53" cy="13.87" fill="#FF6E61" fill-rule="nonzero" filter="url(#feature_key1-k)" rx="1.175" ry="1"/>
          <ellipse cx="37.266" cy="13.87" fill="#FF6E61" fill-rule="nonzero" filter="url(#feature_key1-l)" rx="1.175" ry="1"/>
          <ellipse cx="37.266" cy="13.87" fill="#FF6E61" fill-rule="nonzero" rx="1.175" ry="1"/>
          <ellipse cx="28.53" cy="13.87" fill="#FF6E61" fill-rule="nonzero" rx="1.175" ry="1"/>
          <path stroke="#B1B8DB" d="M45.2139107,45.8128083 L52.64779,43.7737048 C53.4092454,45.0599085 58.1210422,58.4638054 58.1210422,58.4638054 L45.7647664,63.371215"/>
          <path fill="#B1B8DB" fill-rule="nonzero" d="M108.94231 91.7824706C109.119128 92.0534005 111.480495 94.9623313 112.3161 94.996554 113.151704 95.0307767 118.225222 91.5913938 118.002774 90.8527535 117.780327 90.1141133 114.597614 90.5932313 114.050051 90.3365609 113.502487 90.0798906 112.284729 88.8592804 112.0908 88.3145688M96.4652789 113.277188C96.4053891 113.593748 96.0831252 117.326876 96.6620595 117.931477 97.2409937 118.536078 103.278451 119.585575 103.629234 118.898269 103.980017 118.210963 101.34772 116.348676 101.145235 115.784002 100.942751 115.219327 100.639395 114.490634 100.884658 113.954478"/>
          <rect width="5" height="1" x="55.621" y="57.95" fill="#FF6E61" fill-rule="nonzero"/>
          <polygon fill="#FF6E61" fill-rule="nonzero" points="62.144 57.589 68.538 40.646 95.394 40.646 89 57.589" filter="url(#feature_key1-m)"/>
          <polygon fill="#FF6E61" fill-rule="nonzero" points="62.144 57.589 68.538 40.646 95.394 40.646 89 57.589"/>
          <polygon stroke="#B1B8DB" points="87 58.589 60.144 58.589 66.538 41.646 93.394 41.646"/>
          <rect width="8" height="1" x="37.765" y="57.95" fill="#FF6E61" fill-rule="nonzero" filter="url(#feature_key1-n)"/>
          <rect width="8" height="1" x="37.765" y="57.95" fill="#FF6E61" fill-rule="nonzero"/>
          <path stroke="#B1B8DB" d="M16.1417141,50.0657849 C15.6255214,52.0022202 13.1073,60.2613022 14.145389,61.6815449 C15.183478,63.1017876 40.7364388,59.8734448 47.57813,57.7459326 C49.3206366,57.175554 50.6125441,55.6783102 51.3854071,55.4872334 C53.4352068,55.1414396 55.4173745,56.3916545 55.9883623,58.3904604 C53.2562489,59.7137387 13.8088656,79.8538067 1.02668146,70.8903072 C-1.38887186,69.1706158 3.43777196,48.066608 3.62884879,47 C5.78773175,47.2680779 16.1417141,50.0657849 16.1417141,50.0657849 Z"/>
          <path stroke="#B1B8DB" stroke-linecap="round" d="M45.578953,58.3497297 C46.3489641,58.1672085 47.0220109,57.9903911 47.5752781,57.8192776 C49.3177847,57.248899 50.6096922,55.7516552 51.3825552,55.5605784 C53.43334,55.2131923 55.4172692,56.4637433 55.9883623,58.4638054"/>
        </g>
      </g>
    </g>
    <circle cx="14" cy="14" r="14" stroke="#B1B8DB" transform="translate(221 182)"/>
    <line x1="227" x2="242.5" y1="193.5" y2="193.5" stroke="#B1B8DB" stroke-linecap="round"/>
    <line x1="227" x2="242.5" y1="198.5" y2="198.5" stroke="#B1B8DB" stroke-linecap="round"/>
  </g>
</svg>
