<svg xmlns="http://www.w3.org/2000/svg" width="80" height="80" viewBox="0 0 80 80">
  <g fill="none" fill-rule="evenodd">
    <g fill-rule="nonzero" transform="translate(13 14)">
      <path fill="#879DEF" d="M.87458154 46.2892534C.87458154 44.853844 2.04223578 43.6861898 3.47764511 43.6861898 4.91305444 43.6861898 6.08070868 44.853844 6.08070868 46.2892534 6.08070868 47.7246627 4.91305444 48.892317 3.47764511 48.892317 2.04223578 48.892317.87458154 47.7246628.87458154 46.2892534zM47.8521043 39.2926011C47.8521043 37.8571917 49.0197585 36.6895375 50.4551678 36.6895375 51.8905772 36.6895375 53.0582314 37.8571917 53.0582314 39.2926011 53.0582314 40.7280104 51.8905772 41.8956646 50.4551678 41.8956646 49.0197585 41.8956646 47.8521043 40.7280105 47.8521043 39.2926011z"/>
      <path fill="#000" d="M29.2544353 30.0835369L39.0842047 30.0835369C39.4640278 30.0835369 39.7713759 29.7758533 39.7713759 29.3963657 39.7713759 29.016878 39.4640278 28.7091945 39.0842047 28.7091945L29.2544353 28.7091945C28.8746121 28.7091945 28.5672641 29.016878 28.5672641 29.3963657 28.5672641 29.7758533 28.8746121 30.0835369 29.2544353 30.0835369zM16.2270381 26.7996772C15.8472149 26.7996772 15.5398669 27.1073608 15.5398669 27.4868484L15.5398669 29.2752383C15.5398669 29.654726 15.8472149 29.9624096 16.2270381 29.9624096 16.6068613 29.9624096 16.9142093 29.654726 16.9142093 29.2752383L16.9142093 27.4868484C16.9142093 27.1073608 16.6068613 26.7996772 16.2270381 26.7996772zM20.2796035 26.7996772C19.8997803 26.7996772 19.5924323 27.1073608 19.5924323 27.4868484L19.5924323 29.2752383C19.5924323 29.654726 19.8997803 29.9624096 20.2796035 29.9624096 20.6594267 29.9624096 20.9667747 29.654726 20.9667747 29.2752383L20.9667747 27.4868484C20.9667747 27.1073608 20.6594266 26.7996772 20.2796035 26.7996772z"/>
      <path fill="#879DEF" d="M16.2270381,31.884006 C15.8472149,31.884006 15.5398669,32.1916896 15.5398669,32.5711772 L15.5398669,34.3595671 C15.5398669,34.7390548 15.8472149,35.0467383 16.2270381,35.0467383 C16.6068613,35.0467383 16.9142093,34.7390548 16.9142093,34.3595671 L16.9142093,32.5711772 C16.9142093,32.1916896 16.6068613,31.884006 16.2270381,31.884006 Z"/>
      <path fill="#000" d="M20.2796035 31.884006C19.8997803 31.884006 19.5924323 32.1916896 19.5924323 32.5711772L19.5924323 34.3595671C19.5924323 34.7390548 19.8997803 35.0467383 20.2796035 35.0467383 20.6594267 35.0467383 20.9667747 34.7390548 20.9667747 34.3595671L20.9667747 32.5711772C20.9667747 32.1916896 20.6594266 31.884006 20.2796035 31.884006zM16.2270381 36.9683348C15.8472149 36.9683348 15.5398669 37.2760184 15.5398669 37.655506L15.5398669 39.4442314C15.5398669 39.823719 15.8472149 40.1314026 16.2270381 40.1314026 16.6068613 40.1314026 16.9142093 39.823719 16.9142093 39.4442314L16.9142093 37.655506C16.9142093 37.2760184 16.6068613 36.9683348 16.2270381 36.9683348z"/>
      <path fill="#879DEF" d="M20.2796035,36.9683348 C19.8997803,36.9683348 19.5924323,37.2760184 19.5924323,37.655506 L19.5924323,39.4442314 C19.5924323,39.823719 19.8997803,40.1314026 20.2796035,40.1314026 C20.6594267,40.1314026 20.9667747,39.823719 20.9667747,39.4442314 L20.9667747,37.655506 C20.9667747,37.2760184 20.6594266,36.9683348 20.2796035,36.9683348 Z"/>
      <path fill="#000" d="M16.2270381 42.0526635C15.8472149 42.0526635 15.5398669 42.3603471 15.5398669 42.7398347L15.5398669 44.5285601C15.5398669 44.9080478 15.8472149 45.2157313 16.2270381 45.2157313 16.6068613 45.2157313 16.9142093 44.9080478 16.9142093 44.5285601L16.9142093 42.7398347C16.9142093 42.3603471 16.6068613 42.0526635 16.2270381 42.0526635zM20.2796035 42.0526635C19.8997803 42.0526635 19.5924323 42.3603471 19.5924323 42.7398347L19.5924323 44.5285601C19.5924323 44.9080478 19.8997803 45.2157313 20.2796035 45.2157313 20.6594267 45.2157313 20.9667747 44.9080478 20.9667747 44.5285601L20.9667747 42.7398347C20.9667747 42.3603471 20.6594266 42.0526635 20.2796035 42.0526635zM16.2270381 47.1373278C15.8472149 47.1373278 15.5398669 47.4450114 15.5398669 47.8244991L15.5398669 49.612889C15.5398669 49.9923766 15.8472149 50.3000602 16.2270381 50.3000602 16.6068613 50.3000602 16.9142093 49.9923766 16.9142093 49.612889L16.9142093 47.8244991C16.9142093 47.4450114 16.6068613 47.1373278 16.2270381 47.1373278zM20.2796035 47.1373278C19.8997803 47.1373278 19.5924323 47.4450114 19.5924323 47.8244991L19.5924323 49.612889C19.5924323 49.9923766 19.8997803 50.3000602 20.2796035 50.3000602 20.6594267 50.3000602 20.9667747 49.9923766 20.9667747 49.612889L20.9667747 47.8244991C20.9667747 47.4450114 20.6594266 47.1373278 20.2796035 47.1373278zM29.2544353 35.7939699L39.0842047 35.7939699C39.4640278 35.7939699 39.7713759 35.4862863 39.7713759 35.1067987 39.7713759 34.7273111 39.4640278 34.4196275 39.0842047 34.4196275L29.2544353 34.4196275C28.8746121 34.4196275 28.5672641 34.7273111 28.5672641 35.1067987 28.5672641 35.4862863 28.8746121 35.7939699 29.2544353 35.7939699zM29.2544353 41.5044029L39.0842047 41.5044029C39.4640278 41.5044029 39.7713759 41.1967193 39.7713759 40.8172317 39.7713759 40.4377441 39.4640278 40.1300605 39.0842047 40.1300605L29.2544353 40.1300605C28.8746121 40.1300605 28.5672641 40.4377441 28.5672641 40.8172317 28.5672641 41.1967193 28.8746121 41.5044029 29.2544353 41.5044029zM29.2544353 24.2798257L39.0842047 24.2798257C39.4640278 24.2798257 39.7713759 23.9721421 39.7713759 23.5926545 39.7713759 23.2131669 39.4640278 22.9054833 39.0842047 22.9054833L29.2544353 22.9054833C28.8746121 22.9054833 28.5672641 23.2131669 28.5672641 23.5926545 28.5672641 23.9721421 28.8746121 24.2798257 29.2544353 24.2798257z"/>
      <path fill="#000" d="M54.9736968,38.8040348 C54.9736968,36.6109923 53.1893333,34.8266288 50.9962908,34.8266288 C48.8032483,34.8266288 47.0188848,36.6109923 47.0188848,38.8040348 C47.0188848,40.3090672 47.8594784,41.6213361 49.0956652,42.2967637 C47.8594784,42.9721913 47.0188848,44.2844601 47.0188848,45.7894926 C47.0188848,47.7477879 48.4430539,49.3762964 50.3091196,49.7033151 L50.3091196,53.5993544 L44.0990782,53.5993544 L44.0990782,9.87808614 C44.0990782,9.64757511 43.9836549,9.43216302 43.7910591,9.30499607 C43.5984632,9.17682256 43.3548664,9.15568394 43.1428096,9.24560675 L33.3479357,13.4100304 L33.3479357,7.30119411 C33.3479357,6.92170648 33.0405876,6.6140229 32.6607645,6.6140229 L26.1869943,6.6140229 L26.1869943,0.68717121 C26.1869943,0.307683589 25.8796463,0 25.4998231,0 C25.1199999,0 24.8126519,0.307683589 24.8126519,0.68717121 L24.8126519,6.6140229 L18.1154168,6.6140229 C17.7355937,6.6140229 17.4282456,6.92170648 17.4282456,7.30119411 L17.4282456,10.3250158 L14.2004199,10.3250158 C13.9903764,9.2888905 13.3146133,8.39503104 12.3623711,7.90716635 C12.2127235,5.60373354 10.2907916,3.7750797 7.95011462,3.7750797 C5.5295809,3.7750797 3.55731899,5.73022939 3.52846316,8.14405254 C3.52041034,8.14405254 3.51168649,8.14405254 3.50296265,8.14405254 C1.57163573,8.14405254 0,9.71535273 0,11.6470152 C0,12.0265028 0.307348044,12.3341864 0.68717121,12.3341864 C1.06699438,12.3341864 1.37434242,12.0265028 1.37434242,11.6470152 C1.37434242,10.4733214 2.32926879,9.51839503 3.50296258,9.51839503 C3.68146602,9.51839503 3.87070651,9.54959961 4.09953995,9.61704169 C4.32971544,9.68481931 4.5813651,9.62744319 4.75852642,9.46336767 C4.93635884,9.30029871 5.01487351,9.05603085 4.96655679,8.81981575 C4.92427968,8.61312757 4.90280558,8.40341954 4.90280558,8.19673129 C4.90280558,6.51638294 6.26976627,5.14942226 7.95011462,5.14942226 C9.63046297,5.14942226 10.9974237,6.51638294 10.9940683,8.25242975 C10.9940683,8.25779828 10.9900419,8.32121401 10.9893709,8.32658253 C10.9746074,8.63191737 11.1631769,8.91040965 11.4524062,9.01006288 C12.3147255,9.30633833 12.8945262,10.1109461 12.8945262,11.0121872 C12.8945262,11.3916748 13.2018743,11.6993584 13.5816974,11.6993584 L17.4282456,11.6993584 L17.4282456,22.1183233 L11.5617898,22.1183233 C11.1819666,22.1183233 10.8746186,22.4260069 10.8746186,22.8054945 L10.8746186,53.5993544 L4.6645772,53.5993544 L4.6645772,49.7033151 C6.5306849,49.3762964 7.95481198,47.7477879 7.95481198,45.7894926 C7.95481198,43.5964501 6.17044845,41.8120866 3.97740599,41.8120866 C1.78436353,41.8120866 0,43.59645 0,45.7894925 C0,47.7477879 1.42412708,49.3762964 3.29023478,49.703315 L3.29023478,53.5993544 L0.68717121,53.5993544 C0.307348044,53.5993544 0,53.907038 0,54.2865256 C0,54.6660132 0.307348044,54.9736968 0.68717121,54.9736968 L54.2865256,54.9736968 C54.6663488,54.9736968 54.9736968,54.6660132 54.9736968,54.2865256 C54.9736968,53.907038 54.6663488,53.5993544 54.2865256,53.5993544 L51.683462,53.5993544 L51.683462,49.7033151 C53.5495277,49.3762964 54.9736968,47.7477879 54.9736968,45.7894925 C54.9736968,44.2844601 54.1331032,42.9721912 52.8969164,42.2967636 C54.1331032,41.6213361 54.9736968,40.3090672 54.9736968,38.8040348 Z M1.37434242,45.7894925 C1.37434242,44.3540831 2.54199666,43.1864289 3.97740599,43.1864289 C5.41281532,43.1864289 6.58046956,44.3540832 6.58046956,45.7894925 C6.58046956,47.2249018 5.41281532,48.3925561 3.97740599,48.3925561 C2.54199666,48.3925561 1.37434242,47.2249019 1.37434242,45.7894925 Z M42.7247358,53.5993544 L38.8466475,53.5993544 L38.8466475,46.69476 C38.8466475,46.3152724 38.5392994,46.0075888 38.1594763,46.0075888 L30.1791638,46.0075888 C29.7993406,46.0075888 29.4919925,46.3152724 29.4919925,46.69476 L29.4919925,53.5993544 L25.6139042,53.5993544 L25.6139042,18.1919183 L42.7247358,10.9168957 L42.7247358,53.5993544 Z M37.472305,53.5993544 L30.866335,53.5993544 L30.866335,47.3819312 L37.472305,47.3819312 L37.472305,53.5993544 Z M18.802588,7.98836532 L31.9735932,7.98836532 L31.9735932,13.9943189 L24.6576357,17.104792 C24.4039729,17.2128336 24.2395618,17.4617989 24.2395618,17.7372714 L24.2395618,22.1183233 L18.802588,22.1183233 L18.802588,7.98836532 L18.802588,7.98836532 Z M12.248961,23.4926657 L24.2395618,23.4926657 L24.2395618,53.5993544 L12.248961,53.5993544 L12.248961,23.4926657 Z M50.9962908,48.3925561 C49.5608814,48.3925561 48.3932272,47.2249019 48.3932272,45.7894926 C48.3932272,44.3540832 49.5608815,43.186429 50.9962908,43.186429 C52.4317001,43.186429 53.5993544,44.3540831 53.5993544,45.7894925 C53.5993544,47.2249019 52.4317001,48.3925561 50.9962908,48.3925561 Z M50.9962908,41.4070984 C49.5608814,41.4070984 48.3932272,40.2394441 48.3932272,38.8040348 C48.3932272,37.3686255 49.5608815,36.2009712 50.9962908,36.2009712 C52.4317001,36.2009712 53.5993544,37.3686254 53.5993544,38.8040348 C53.5993544,40.2394442 52.4317001,41.4070984 50.9962908,41.4070984 Z"/>
      <path fill="#000" d="M40.0908032,8.74163649 C40.4706263,8.74163649 40.7779744,8.4339529 40.7779744,8.05446528 C40.7779744,6.84117861 41.7651119,5.85437656 42.9777275,5.85437656 C43.1622706,5.85437656 43.3588928,5.88692326 43.5951079,5.95637854 C43.8246124,6.02314959 44.076262,5.96577348 44.2547654,5.80236897 C44.4325978,5.63862899 44.5111125,5.39368997 44.4621247,5.15713939 C44.4185054,4.94810246 44.3963603,4.73235482 44.3963603,4.51660725 C44.3963603,2.78391576 45.8055981,1.37434242 47.5382896,1.37434242 C49.270981,1.37434242 50.6802188,2.78391576 50.6775346,4.57264125 C50.6768635,4.57935189 50.6728372,4.65316913 50.6728372,4.65954422 C50.661429,4.96219483 50.8499985,5.23598961 51.1358725,5.33430072 C52.0270476,5.64030665 52.6256382,6.47209249 52.6256382,7.40386717 C52.6256382,7.78335479 52.9329862,8.09103838 53.3128094,8.09103838 C53.6926326,8.09103838 53.9999806,7.78335479 53.9999806,7.40386717 C53.9999806,6.05401863 53.2322815,4.83368578 52.0458375,4.23039776 C51.8975319,1.87294416 49.9326517,-1.58685966e-14 47.5382896,-1.58685966e-14 C45.0600442,-1.58685966e-14 43.0414788,2.00648626 43.0220179,4.48036969 C41.0376768,4.46963264 39.403632,6.06911757 39.403632,8.05446528 C39.403632,8.4339529 39.71098,8.74163649 40.0908032,8.74163649 Z"/>
    </g>
    <g transform="translate(52 11)">
      <circle cx="12.878" cy="12.512" r="11.122" fill="#879DEF"/>
      <circle cx="11.488" cy="11.122" r="11.122" stroke="#000"/>
      <path fill="#000" fill-rule="nonzero" d="M9.86585366,4.63414634 C12.5531904,4.63414634 14.7317073,6.81266323 14.7317073,9.5 C14.7305882,10.6767198 14.3122185,11.7557202 13.6165684,12.597031 L17.3778049,16.3539024 C17.4655351,16.4409162 17.5148822,16.5593631 17.5148822,16.6829268 C17.5148822,16.8064906 17.4655351,16.9249374 17.3778049,17.0119512 C17.2903498,17.0986962 17.1719575,17.1470536 17.0487805,17.1463492 C16.9256035,17.1470536 16.8072112,17.0986962 16.7197561,17.0119512 L12.9608618,13.2523864 C12.1198446,13.9470351 11.0416306,14.3647355 9.86585366,14.3658537 C7.17851689,14.3658537 5,12.1873368 5,9.5 C5,6.81266323 7.17851689,4.63414634 9.86585366,4.63414634 Z M9.86585366,5.56097561 C7.69039056,5.56097561 5.92682927,7.3245369 5.92682927,9.5 C5.92682927,11.6754631 7.69039056,13.4390244 9.86585366,13.4390244 C10.9322474,13.4390244 11.8996662,13.0152621 12.608902,12.3269456 C12.6189288,12.3095 12.6321316,12.2945816 12.6463415,12.2804878 L12.6908767,12.2450278 C13.3803266,11.5356131 13.804878,10.5673862 13.804878,9.5 C13.8023244,7.32559552 12.0402581,5.56352923 9.86585366,5.56097561 Z"/>
    </g>
  </g>
</svg>
