<svg xmlns="http://www.w3.org/2000/svg" width="170" height="170" viewBox="0 0 170 170">
  <g fill="none" fill-rule="evenodd">
    <path fill="#879DEF" fill-rule="nonzero" d="M31.75 122.622803C31.75 119.75061 34.0864258 117.414185 36.9586181 117.414185 39.8308104 117.414185 42.1672362 119.75061 42.1672362 122.622803 42.1672362 125.494995 39.8308104 127.831421 36.9586181 127.831421 34.0864258 127.831421 31.75 125.494995 31.75 122.622803zM125.75 108.622803C125.75 105.75061 128.086426 103.414185 130.958618 103.414185 133.83081 103.414185 136.167236 105.75061 136.167236 108.622803 136.167236 111.494995 133.83081 113.831421 130.958618 113.831421 128.086426 113.831421 125.75 111.494995 125.75 108.622803z"/>
    <g fill-rule="nonzero" transform="translate(30 30)">
      <path fill="#000" d="M58.5368652 60.1958618L78.2058105 60.1958618C78.9658203 60.1958618 79.5808105 59.5802002 79.5808105 58.8208618 79.5808105 58.0615234 78.9658203 57.4458618 78.2058105 57.4458618L58.5368652 57.4458618C57.7768554 57.4458618 57.1618652 58.0615234 57.1618652 58.8208618 57.1618652 59.5802002 57.7768554 60.1958618 58.5368652 60.1958618zM32.4696045 53.625C31.7095947 53.625 31.0946045 54.2406616 31.0946045 55L31.0946045 58.5784913C31.0946045 59.3378296 31.7095947 59.9534913 32.4696045 59.9534913 33.2296143 59.9534913 33.8446045 59.3378296 33.8446045 58.5784913L33.8446045 55C33.8446045 54.2406616 33.2296143 53.625 32.4696045 53.625zM40.5786134 53.625C39.8186036 53.625 39.2036134 54.2406616 39.2036134 55L39.2036134 58.5784913C39.2036134 59.3378296 39.8186036 59.9534913 40.5786134 59.9534913 41.3386232 59.9534913 41.9536134 59.3378296 41.9536134 58.5784913L41.9536134 55C41.9536134 54.2406616 41.338623 53.625 40.5786134 53.625z"/>
      <path fill="#879DEF" d="M32.4696045,63.798523 C31.7095947,63.798523 31.0946045,64.4141846 31.0946045,65.173523 L31.0946045,68.7520142 C31.0946045,69.5113526 31.7095947,70.1270142 32.4696045,70.1270142 C33.2296143,70.1270142 33.8446045,69.5113526 33.8446045,68.7520142 L33.8446045,65.173523 C33.8446045,64.4141846 33.2296143,63.798523 32.4696045,63.798523 Z"/>
      <path fill="#000" d="M40.5786134 63.798523C39.8186036 63.798523 39.2036134 64.4141846 39.2036134 65.173523L39.2036134 68.7520142C39.2036134 69.5113526 39.8186036 70.1270142 40.5786134 70.1270142 41.3386232 70.1270142 41.9536134 69.5113526 41.9536134 68.7520142L41.9536134 65.173523C41.9536134 64.4141846 41.338623 63.798523 40.5786134 63.798523zM32.4696045 73.972046C31.7095947 73.972046 31.0946045 74.5877076 31.0946045 75.347046L31.0946045 78.9262085C31.0946045 79.6855469 31.7095947 80.3012085 32.4696045 80.3012085 33.2296143 80.3012085 33.8446045 79.6855469 33.8446045 78.9262085L33.8446045 75.347046C33.8446045 74.5877076 33.2296143 73.972046 32.4696045 73.972046z"/>
      <path fill="#879DEF" d="M40.5786134,73.972046 C39.8186036,73.972046 39.2036134,74.5877076 39.2036134,75.347046 L39.2036134,78.9262085 C39.2036134,79.6855469 39.8186036,80.3012085 40.5786134,80.3012085 C41.3386232,80.3012085 41.9536134,79.6855469 41.9536134,78.9262085 L41.9536134,75.347046 C41.9536134,74.5877076 41.338623,73.972046 40.5786134,73.972046 Z"/>
      <path fill="#000" d="M32.4696045 84.1455688C31.7095947 84.1455688 31.0946045 84.7612304 31.0946045 85.5205688L31.0946045 89.0997313C31.0946045 89.8590697 31.7095947 90.4747313 32.4696045 90.4747313 33.2296143 90.4747313 33.8446045 89.8590697 33.8446045 89.0997313L33.8446045 85.5205688C33.8446045 84.7612304 33.2296143 84.1455688 32.4696045 84.1455688zM40.5786134 84.1455688C39.8186036 84.1455688 39.2036134 84.7612304 39.2036134 85.5205688L39.2036134 89.0997313C39.2036134 89.8590697 39.8186036 90.4747313 40.5786134 90.4747313 41.3386232 90.4747313 41.9536134 89.8590697 41.9536134 89.0997313L41.9536134 85.5205688C41.9536134 84.7612304 41.338623 84.1455688 40.5786134 84.1455688zM32.4696045 94.3197632C31.7095947 94.3197632 31.0946045 94.9354248 31.0946045 95.6947632L31.0946045 99.2732544C31.0946045 100.032593 31.7095947 100.648254 32.4696045 100.648254 33.2296143 100.648254 33.8446045 100.032593 33.8446045 99.2732544L33.8446045 95.6947632C33.8446045 94.9354248 33.2296143 94.3197632 32.4696045 94.3197632zM40.5786134 94.3197632C39.8186036 94.3197632 39.2036134 94.9354248 39.2036134 95.6947632L39.2036134 99.2732544C39.2036134 100.032593 39.8186036 100.648254 40.5786134 100.648254 41.3386232 100.648254 41.9536134 100.032593 41.9536134 99.2732544L41.9536134 95.6947632C41.9536134 94.9354248 41.338623 94.3197632 40.5786134 94.3197632zM58.5368652 71.6221924L78.2058105 71.6221924C78.9658203 71.6221924 79.5808105 71.0065308 79.5808105 70.2471924 79.5808105 69.487854 78.9658203 68.8721924 78.2058105 68.8721924L58.5368652 68.8721924C57.7768554 68.8721924 57.1618652 69.487854 57.1618652 70.2471924 57.1618652 71.0065308 57.7768554 71.6221924 58.5368652 71.6221924zM58.5368652 83.048523L78.2058105 83.048523C78.9658203 83.048523 79.5808105 82.4328614 79.5808105 81.673523 79.5808105 80.9141846 78.9658203 80.298523 78.2058105 80.298523L58.5368652 80.298523C57.7768554 80.298523 57.1618652 80.9141846 57.1618652 81.673523 57.1618652 82.4328614 57.7768554 83.048523 58.5368652 83.048523zM58.5368652 48.5828857L78.2058105 48.5828857C78.9658203 48.5828857 79.5808105 47.9672241 79.5808105 47.2078857 79.5808105 46.4485473 78.9658203 45.8328857 78.2058105 45.8328857L58.5368652 45.8328857C57.7768554 45.8328857 57.1618652 46.4485473 57.1618652 47.2078857 57.1618652 47.9672241 57.7768554 48.5828857 58.5368652 48.5828857z"/>
      <path fill="#000" d="M110,77.6452027 C110,73.2570191 106.429565,69.6865846 102.041382,69.6865846 C97.6531984,69.6865846 94.0827638,73.2570191 94.0827638,77.6452027 C94.0827638,80.6567077 95.7647554,83.2825012 98.2383119,84.6340028 C95.7647554,85.9855043 94.0827638,88.6112976 94.0827638,91.6228028 C94.0827638,95.5412675 96.9324648,98.7998429 100.666382,99.4541932 L100.666382,107.25 L88.2403565,107.25 L88.2403565,19.765625 C88.2403565,19.3043824 88.0093994,18.873352 87.6240234,18.6188965 C87.2386475,18.3624268 86.7512207,18.3201293 86.3269043,18.500061 L66.7277832,26.8328933 L66.7277832,14.609375 C66.7277832,13.8500366 66.112793,13.234375 65.3527832,13.234375 L52.3990479,13.234375 L52.3990479,1.375 C52.3990479,0.615661613 51.7840577,0 51.0240479,0 C50.2640381,0 49.6490479,0.615661613 49.6490479,1.375 L49.6490479,13.234375 L36.248169,13.234375 C35.4881592,13.234375 34.873169,13.8500366 34.873169,14.609375 L34.873169,20.6599121 L28.4144288,20.6599121 C27.9941406,18.5866699 26.6419678,16.7980956 24.7365723,15.8218994 C24.4371339,11.2128295 20.5914307,7.55377191 15.907837,7.55377191 C11.0644533,7.55377191 7.11804211,11.4659423 7.06030284,16.2958984 C7.04418949,16.2958984 7.02673345,16.2958984 7.00927741,16.2958984 C3.14477543,16.2958984 0,19.4400025 0,23.3051759 C0,24.0645142 0.6149902,24.6801759 1.375,24.6801759 C2.1350098,24.6801759 2.75,24.0645142 2.75,23.3051759 C2.75,20.9566651 4.66076655,19.0458986 7.00927727,19.0458986 C7.36645497,19.0458986 7.74511705,19.1083376 8.20300291,19.2432863 C8.66357415,19.3789064 9.16711427,19.2640993 9.52160646,18.9357912 C9.87744148,18.6094972 10.0345459,18.1207278 9.93786626,17.6480715 C9.85327159,17.2344974 9.81030284,16.8148806 9.81030284,16.4013064 C9.81030284,13.0390017 12.5455323,10.3037722 15.907837,10.3037722 C19.2701417,10.3037722 22.0053712,13.0390017 21.9986573,16.5127566 C21.9986573,16.5234987 21.9906006,16.6503909 21.989258,16.6611331 C21.9597169,17.2720949 22.3370363,17.829346 22.9157716,18.0287478 C24.6412354,18.6215822 25.8013917,20.2315677 25.8013917,22.0349123 C25.8013917,22.7942507 26.4163819,23.4099123 27.1763917,23.4099123 L34.873169,23.4099123 L34.873169,44.2578125 L23.1346435,44.2578125 C22.3746337,44.2578125 21.7596435,44.8734741 21.7596435,45.6328125 L21.7596435,107.25 L9.33361811,107.25 L9.33361811,99.4541932 C13.0676193,98.7998429 15.9172362,95.5412674 15.9172362,91.6228028 C15.9172362,87.2346193 12.3468016,83.6641847 7.95861811,83.6641847 C3.57043459,83.6641847 0,87.2346192 0,91.6228027 C0,95.5412674 2.84961696,98.7998428 6.58361811,99.454193 L6.58361811,107.25 L1.375,107.25 C0.6149902,107.25 0,107.865662 0,108.625 C0,109.384338 0.6149902,110 1.375,110 L108.625,110 C109.38501,110 110,109.384338 110,108.625 C110,107.865662 109.38501,107.25 108.625,107.25 L103.416382,107.25 L103.416382,99.4541932 C107.150299,98.7998429 110,95.5412674 110,91.6228027 C110,88.6112976 108.318008,85.9855041 105.844452,84.6340026 C108.318008,83.2825012 110,80.6567077 110,77.6452027 Z M2.75,91.6228027 C2.75,88.7506103 5.08642585,86.4141846 7.95861811,86.4141846 C10.8308104,86.4141846 13.1672362,88.7506104 13.1672362,91.6228027 C13.1672362,94.494995 10.8308104,96.8314208 7.95861811,96.8314208 C5.08642585,96.8314208 2.75,94.4949951 2.75,91.6228027 Z M85.4903565,107.25 L77.7304688,107.25 L77.7304688,93.434204 C77.7304688,92.6748657 77.1154786,92.059204 76.3554688,92.059204 L60.3872071,92.059204 C59.6271973,92.059204 59.0122071,92.6748657 59.0122071,93.434204 L59.0122071,107.25 L51.2523194,107.25 L51.2523194,36.4012451 L85.4903565,21.8442382 L85.4903565,107.25 Z M74.9804688,107.25 L61.7622071,107.25 L61.7622071,94.809204 L74.9804688,94.809204 L74.9804688,107.25 Z M37.623169,15.984375 L63.9777832,15.984375 L63.9777832,28.0020294 L49.3388672,34.2259522 C48.8312989,34.4421388 48.5023194,34.9403076 48.5023194,35.4915162 L48.5023194,44.2578125 L37.623169,44.2578125 L37.623169,15.984375 L37.623169,15.984375 Z M24.5096435,47.0078125 L48.5023194,47.0078125 L48.5023194,107.25 L24.5096435,107.25 L24.5096435,47.0078125 Z M102.041382,96.831421 C99.1691895,96.831421 96.8327638,94.4949951 96.8327638,91.6228028 C96.8327638,88.7506106 99.1691896,86.4141847 102.041382,86.4141847 C104.913574,86.4141847 107.25,88.7506103 107.25,91.6228027 C107.25,94.4949951 104.913574,96.831421 102.041382,96.831421 Z M102.041382,82.8538208 C99.1691895,82.8538208 96.8327638,80.5173949 96.8327638,77.6452027 C96.8327638,74.7730104 99.1691896,72.4365846 102.041382,72.4365846 C104.913574,72.4365846 107.25,74.7730103 107.25,77.6452027 C107.25,80.5173951 104.913574,82.8538208 102.041382,82.8538208 Z"/>
      <path fill="#000" d="M80.2199707,17.4916382 C80.9799805,17.4916382 81.5949707,16.8759766 81.5949707,16.1166382 C81.5949707,13.6889038 83.5701904,11.7143554 85.9965821,11.7143554 C86.3658448,11.7143554 86.7592774,11.7794799 87.2319337,11.918457 C87.6911622,12.052063 88.1947022,11.9372558 88.5518799,11.6102904 C88.9077149,11.2826538 89.0648194,10.7925414 88.9667969,10.3192138 C88.8795166,9.90093995 88.8352051,9.46923821 88.8352051,9.03753661 C88.8352051,5.57049556 91.6550293,2.75 95.1220703,2.75 C98.5891114,2.75 101.408936,5.57049556 101.403564,9.14965824 C101.402222,9.16308594 101.394165,9.31079105 101.394165,9.32354734 C101.371338,9.92913817 101.748657,10.4769897 102.320679,10.673706 C104.103882,11.2860107 105.301636,12.9503784 105.301636,14.8148194 C105.301636,15.5741578 105.916626,16.1898194 106.676636,16.1898194 C107.436646,16.1898194 108.051636,15.5741578 108.051636,14.8148194 C108.051636,12.1138306 106.515503,9.67199709 104.14148,8.46484375 C103.844727,3.74768061 99.9130859,-3.17523785e-14 95.1220703,-3.17523785e-14 C90.163208,-3.17523785e-14 86.1241455,4.01489261 86.0852051,8.96502681 C82.1146241,8.94354244 78.8449707,12.1440429 78.8449707,16.1166382 C78.8449707,16.8759766 79.4599609,17.4916382 80.2199707,17.4916382 Z"/>
    </g>
    <circle cx="129" cy="45" r="24" fill="#879DEF"/>
    <circle cx="126" cy="42" r="24" stroke="#000" stroke-width="2"/>
    <path fill="#000" fill-rule="nonzero" d="M122.5,28 C128.29899,28 133,32.7010101 133,38.5 C132.997585,41.0392027 132.094812,43.3675428 130.593709,45.1829921 L138.71,53.29 C138.899313,53.4777666 139.005798,53.7333625 139.005798,54 C139.005798,54.2666375 138.899313,54.5222334 138.71,54.71 C138.521281,54.8971865 138.265803,55.0015368 138,55.0000167 C137.734197,55.0015368 137.478719,54.8971865 137.29,54.71 L129.177995,46.5978385 C127.363271,48.0964676 125.036874,48.9975874 122.5,49 C116.70101,49 112,44.2989899 112,38.5 C112,32.7010101 116.70101,28 122.5,28 Z M122.5,30 C117.80558,30 114,33.8055796 114,38.5 C114,43.1944204 117.80558,47 122.5,47 C124.792128,47 126.872352,46.0927344 128.401151,44.6177252 C128.430128,44.5748681 128.463527,44.5361752 128.5,44.5 C128.535647,44.4645645 128.573298,44.4323676 128.612586,44.4034092 C130.091162,42.8759548 131,40.7941126 131,38.5 C130.99449,33.807864 127.192136,30.0055104 122.5,30 Z"/>
  </g>
</svg>
