<svg xmlns="http://www.w3.org/2000/svg" width="48" height="48" viewBox="0 0 48 48">
  <defs>
    <filter id="image-a" width="494.9%" height="494.9%" x="-197.4%" y="-197.4%" filterUnits="objectBoundingBox">
      <feGaussianBlur in="SourceGraphic" stdDeviation="4"/>
    </filter>
    <filter id="image-b" width="191.1%" height="315.5%" x="-45.6%" y="-107.7%" filterUnits="objectBoundingBox">
      <feGaussianBlur in="SourceGraphic" stdDeviation="4"/>
    </filter>
  </defs>
  <g fill="none" stroke-width=".3" transform="translate(4 8)">
    <path fill="#B1B8DB" stroke="#B0B8DB" d="M0.416666667,0.185733333 C0.181588718,0.230588205 -0.00421692307,0.459271795 -0.000204326041,0.698553846 L-0.000204326041,19.6729128 C-0.00384615384,19.9438426 0.241864103,19.952387 0.512820513,19.952387 C0.783776923,19.952387 1.02947282,20.0265202 1.02564103,19.7555904 L1.02564103,1.21137436 L34.8717949,1.21137436 L34.8717949,25.826759 L1.02564103,25.826759 L1.02564103,19.6729128 C1.02948718,19.4019831 0.783776923,19.1527887 0.512820513,19.1527887 C0.241864103,19.1527887 -0.00383179486,19.4019831 -0.000204326041,19.6729128 L-0.000204326041,26.3395795 C-0.000204326041,26.6080841 0.244315897,26.8523733 0.512820513,26.8524 L3.58974359,26.8524 L3.58974359,30.4421436 C3.58977026,30.7106482 3.83405949,30.9549641 4.1025641,30.9549641 L39.4871795,30.9549641 C39.7556841,30.9549641 40,30.7106482 40,30.4421436 L40,4.28829744 C40,4.01979282 39.7556841,3.77550359 39.4871795,3.77547692 L35.8974359,3.77547692 L35.8974359,0.698553846 C35.8974092,0.430049231 35.65312,0.185733333 35.3846154,0.185733333 C23.7307133,0.185733333 12.063581,0.185733333 0.416666667,0.185733333 Z M35.8974359,4.80111795 L38.974359,4.80111795 L38.974359,29.9293231 L4.61538462,29.9293231 L4.61538462,26.8524 L35.3846154,26.8524 C35.65312,26.8523733 35.8974092,26.6080841 35.8974359,26.3395795 L35.8974359,4.80111795 Z"/>
    <g fill="#8DA4FA" stroke="#8DA4FA" transform="translate(4.618 4.801)">
      <path d="M10.7666394,-2.14050999e-13 C12.459903,-2.14050999e-13 13.8435625,1.38366154 13.8435625,3.07692308 C13.8435625,4.77018462 12.459903,6.15384615 10.7666394,6.15384615 C9.07337586,6.15384615 7.68971637,4.77018462 7.68971637,3.07692308 C7.68971637,1.38366154 9.07337586,-2.14050999e-13 10.7666394,-2.14050999e-13 Z M10.7666394,1.02564103 C9.62767329,1.02564103 8.71535739,1.93795897 8.71535739,3.07692308 C8.71535739,4.21588718 9.62767329,5.12820513 10.7666394,5.12820513 C11.9056056,5.12820513 12.8179215,4.21588718 12.8179215,3.07692308 C12.8179215,1.93795897 11.9056056,1.02564103 10.7666394,1.02564103 Z" filter="url(#image-a)"/>
      <path d="M15.3179215,7.17948718 C15.2041538,7.19178974 15.0950215,7.24348154 15.0134343,7.32371795 L10.0935625,12.2435897 L8.02625483,10.3846154 C7.91516252,10.2836938 7.75819842,10.2353969 7.60958816,10.2564103 C7.50874714,10.2708205 7.4125297,10.3160969 7.33715227,10.3846154 L0.157665087,17.0512821 C-0.041395426,17.2354 -0.053961067,17.5846297 0.131352266,17.7825779 C0.3166656,17.9805262 0.665964574,17.9909887 0.862793292,17.8044856 L7.70574201,11.4583318 L12.481383,15.7532036 C12.6659389,15.9877 13.0679902,16.0002667 13.2668312,15.7777523 C13.4656718,15.5552436 13.4081523,15.1571297 13.15446,15 L10.8627933,12.9326923 L15.3980497,8.3974359 L25.7986907,18.3173077 C25.9955194,18.5038092 26.3448184,18.4933467 26.5301318,18.2954 C26.7154451,18.0974503 26.7028794,17.7482205 26.5038189,17.5641026 L15.7345882,7.30769231 C15.6234959,7.20677077 15.4665318,7.15847385 15.3179215,7.17948718 Z" filter="url(#image-b)"/>
    </g>
    <path fill="#8DA4FA" stroke="#8DA4FA" d="M10.7666394-2.14050999e-13C12.459903-2.14050999e-13 13.8435625 1.38366154 13.8435625 3.07692308 13.8435625 4.77018462 12.459903 6.15384615 10.7666394 6.15384615 9.07337586 6.15384615 7.68971637 4.77018462 7.68971637 3.07692308 7.68971637 1.38366154 9.07337586-2.14050999e-13 10.7666394-2.14050999e-13zM10.7666394 1.02564103C9.62767329 1.02564103 8.71535739 1.93795897 8.71535739 3.07692308 8.71535739 4.21588718 9.62767329 5.12820513 10.7666394 5.12820513 11.9056056 5.12820513 12.8179215 4.21588718 12.8179215 3.07692308 12.8179215 1.93795897 11.9056056 1.02564103 10.7666394 1.02564103zM15.3179215 7.17948718C15.2041538 7.19178974 15.0950215 7.24348154 15.0134343 7.32371795L10.0935625 12.2435897 8.02625483 10.3846154C7.91516252 10.2836938 7.75819842 10.2353969 7.60958816 10.2564103 7.50874714 10.2708205 7.4125297 10.3160969 7.33715227 10.3846154L.157665087 17.0512821C-.041395426 17.2354-.053961067 17.5846297.131352266 17.7825779.3166656 17.9805262.665964574 17.9909887.862793292 17.8044856L7.70574201 11.4583318 12.481383 15.7532036C12.6659389 15.9877 13.0679902 16.0002667 13.2668312 15.7777523 13.4656718 15.5552436 13.4081523 15.1571297 13.15446 15L10.8627933 12.9326923 15.3980497 8.3974359 25.7986907 18.3173077C25.9955194 18.5038092 26.3448184 18.4933467 26.5301318 18.2954 26.7154451 18.0974503 26.7028794 17.7482205 26.5038189 17.5641026L15.7345882 7.30769231C15.6234959 7.20677077 15.4665318 7.15847385 15.3179215 7.17948718z" transform="translate(4.618 4.801)"/>
  </g>
</svg>
