<?xml version="1.0" encoding="UTF-8"?>
<svg width="133px" height="90px" viewBox="0 0 133 90" version="1.1" xmlns="http://www.w3.org/2000/svg" xmlns:xlink="http://www.w3.org/1999/xlink">
    <title>knowledge</title>
    <defs>
        <filter x="-100.0%" y="-113.8%" width="300.0%" height="327.6%" filterUnits="objectBoundingBox" id="filter-1">
            <feGaussianBlur stdDeviation="10" in="SourceGraphic"></feGaussianBlur>
        </filter>
        <filter x="-387.8%" y="-290.9%" width="875.6%" height="681.7%" filterUnits="objectBoundingBox" id="filter-2">
            <feGaussianBlur stdDeviation="10" in="SourceGraphic"></feGaussianBlur>
        </filter>
        <path d="M0.00902099253,1.69682971 L0,11.877808 C0,12.8110643 0.811889328,13.5746377 1.80419851,13.5746377 L16.2377866,13.5746377 C17.2300957,13.5746377 18.0419851,12.8110643 18.0419851,11.877808 L18.0419851,0 L14.4335881,0 L16.2377866,3.39365942 L13.5314888,3.39365942 L11.7272903,0 L9.92309179,0 L11.7272903,3.39365942 L9.02099253,3.39365942 L7.21679403,0 L5.41259552,0 L7.21679403,3.39365942 L4.51049627,3.39365942 L2.70629776,0 L1.80419851,0 C0.811889328,0 0.00902099253,0.76357337 0.00902099253,1.69682971 Z M1.80419851,2.09558469 L3.39189319,5.09048913 L16.2377866,5.09048913 L16.2377866,11.877808 L1.80419851,11.877808 L1.80419851,2.09558469 Z" id="path-3"></path>
        <path d="M0.00732955643,1.37867414 L0,9.65071898 C0,10.4089898 0.659660079,11.0293931 1.46591129,11.0293931 L13.1932016,11.0293931 C13.9994528,11.0293931 14.6591129,10.4089898 14.6591129,9.65071898 L14.6591129,0 L11.7272903,0 L13.1932016,2.75734828 L10.9943347,2.75734828 L9.52842336,0 L8.06251208,0 L9.52842336,2.75734828 L7.32955643,2.75734828 L5.86364515,0 L4.39773386,0 L5.86364515,2.75734828 L3.66477822,2.75734828 L2.19886693,0 L1.46591129,0 C0.659660079,0 0.00732955643,0.620403363 0.00732955643,1.37867414 Z M1.46591129,1.70266256 L2.75591322,4.13602242 L13.1932016,4.13602242 L13.1932016,9.65071898 L1.46591129,9.65071898 L1.46591129,1.70266256 Z" id="path-5"></path>
        <path d="M0.0050743083,0.954466712 L0,6.68126698 C0,7.20622368 0.456687747,7.6357337 1.01486166,7.6357337 L9.13375494,7.6357337 C9.69192885,7.6357337 10.1486166,7.20622368 10.1486166,6.68126698 L10.1486166,0 L8.11889328,0 L9.13375494,1.90893342 L7.61146245,1.90893342 L6.59660079,0 L5.58173913,0 L6.59660079,1.90893342 L5.0743083,1.90893342 L4.05944664,0 L3.04458498,0 L4.05944664,1.90893342 L2.53715415,1.90893342 L1.52229249,0 L1.01486166,0 C0.456687747,0 0.0050743083,0.42951002 0.0050743083,0.954466712 Z M1.01486166,1.17876639 L1.90793992,2.86340014 L9.13375494,2.86340014 L9.13375494,6.68126698 L1.01486166,6.68126698 L1.01486166,1.17876639 Z" id="path-7"></path>
        <path d="M0.00732955643,1.37867414 L0,9.65071898 C0,10.4089898 0.659660079,11.0293931 1.46591129,11.0293931 L13.1932016,11.0293931 C13.9994528,11.0293931 14.6591129,10.4089898 14.6591129,9.65071898 L14.6591129,0 L11.7272903,0 L13.1932016,2.75734828 L10.9943347,2.75734828 L9.52842336,0 L8.06251208,0 L9.52842336,2.75734828 L7.32955643,2.75734828 L5.86364515,0 L4.39773386,0 L5.86364515,2.75734828 L3.66477822,2.75734828 L2.19886693,0 L1.46591129,0 C0.659660079,0 0.00732955643,0.620403363 0.00732955643,1.37867414 Z M1.46591129,1.70266256 L2.75591322,4.13602242 L13.1932016,4.13602242 L13.1932016,9.65071898 L1.46591129,9.65071898 L1.46591129,1.70266256 Z" id="path-9"></path>
    </defs>
    <g id="illustrations" stroke="none" stroke-width="1" fill="none" fill-rule="evenodd">
        <g id="illustrations/knowledge" transform="translate(-19.000000, -40.000000)">
            <g id="knowledge" transform="translate(20.000000, 41.000000)">
                <g id="Group-3">
                    <g id="Group-2">
                        <path d="M2.09067721,-2.37424251e-13 L20.1036518,-2.37424251e-13 L20.1036518,-2.37424251e-13 L128.750662,-2.37424251e-13 C129.855232,-2.37627157e-13 130.750662,0.8954305 130.750662,2 L130.750662,85.4638587 C130.750662,86.5684282 129.855232,87.4638587 128.750662,87.4638587 L2.09067721,87.4638587 C0.986107715,87.4638587 0.0906772148,86.5684282 0.0906772148,85.4638587 L0.0906772148,2 C0.0906772148,0.8954305 0.986107715,-2.37221345e-13 2.09067721,-2.37424251e-13 Z" id="Rectangle-2" stroke="#404B8A" stroke-width="2"></path>
                        <polygon id="Path-2" fill="#404B8A" fill-rule="nonzero" points="129.944605 9.74589372 129.94525 11.6950723 0.000644341237 11.7538024 4.04700428e-13 9.80462383"></polygon>
                        <circle id="Oval" fill="#404B8A" cx="6.49726248" cy="5.68510467" r="1.62431562"></circle>
                        <circle id="Oval" fill="#404B8A" cx="12.994525" cy="5.68510467" r="1.62431562"></circle>
                        <circle id="Oval" fill="#404B8A" cx="19.4917874" cy="5.68510467" r="1.62431562"></circle>
                    </g>
                    <g id="multimedia" transform="translate(52.400000, 31.895652)" fill="#8DA4FA" fill-rule="nonzero">
                        <path d="M29.9949317,21.0901863 L28.2374161,21.0901863 L28.2374161,5.27254658 L29.9949317,5.27254658 L29.9949317,0 L0,0 L0,5.27254658 L1.75757411,5.27254658 L1.75757411,21.0901863 L0,21.0901863 L0,26.3627329 L29.9949317,26.3627329 L29.9949317,21.0901863 Z M28.2374161,3.51503106 L25.2496398,3.51503106 L25.2496398,1.75751553 L28.2374161,1.75751553 L28.2374161,3.51503106 Z M6.50280745,3.51503106 L6.50280745,1.75751553 L9.432,1.75751553 L9.432,3.51503106 L6.50280745,3.51503106 Z M11.1895155,1.75751553 L14.1187081,1.75751553 L14.1187081,3.51503106 L11.1895155,3.51503106 L11.1895155,1.75751553 Z M15.8762236,1.75751553 L18.8054161,1.75751553 L18.8054161,3.51503106 L15.8762236,3.51503106 L15.8762236,1.75751553 Z M20.5629317,1.75751553 L23.4921242,1.75751553 L23.4921242,3.51503106 L20.5629317,3.51503106 L20.5629317,1.75751553 Z M1.75751553,1.75751553 L4.74529193,1.75751553 L4.74529193,3.51503106 L1.75751553,3.51503106 L1.75751553,1.75751553 Z M3.51503106,5.27254658 L26.4799592,5.27254658 L26.4799592,21.0901863 L3.51503106,21.0901863 L3.51503106,5.27254658 Z M9.432,22.8477019 L9.432,24.6052174 L6.50280745,24.6052174 L6.50280745,22.8477019 L9.432,22.8477019 Z M11.1895155,22.8477019 L14.1187081,22.8477019 L14.1187081,24.6052174 L11.1895155,24.6052174 L11.1895155,22.8477019 Z M15.8762236,22.8477019 L18.8054161,22.8477019 L18.8054161,24.6052174 L15.8762236,24.6052174 L15.8762236,22.8477019 Z M20.5629317,22.8477019 L23.4921242,22.8477019 L23.4921242,24.6052174 L20.5629317,24.6052174 L20.5629317,22.8477019 Z M1.75751553,22.8477019 L4.74529193,22.8477019 L4.74529193,24.6052174 L1.75751553,24.6052174 L1.75751553,22.8477019 Z M28.2374161,24.6052174 L25.2496398,24.6052174 L25.2496398,22.8477019 L28.2374161,22.8477019 L28.2374161,24.6052174 Z" id="Shape" filter="url(#filter-1)"></path>
                        <path d="M12.3611925,8.02434723 L12.3611925,18.3383857 L20.0967214,13.1813665 L12.3611925,8.02434723 Z M14.1187081,11.3083236 L16.9282724,13.1813665 L14.1187081,15.0544093 L14.1187081,11.3083236 Z" id="Shape" filter="url(#filter-2)"></path>
                    </g>
                </g>
                <g id="Group" transform="translate(26.200000, 35.313043) rotate(-14.000000) translate(-26.200000, -35.313043) translate(17.086957, 28.478261)">
                    <polygon id="Path" fill="#B7BCD9" opacity="0" points="1.80419851 2.09558469 3.39189319 5.09048913 16.2377866 5.09048913 16.2377866 11.877808 1.80419851 11.877808"></polygon>
                    <mask id="mask-4" fill="white">
                        <use xlink:href="#path-3"></use>
                    </mask>
                    <use id="Shape" fill="#404B8A" xlink:href="#path-3"></use>
                </g>
                <g id="icons/18px/film" transform="translate(108.757352, 37.588193) rotate(12.000000) translate(-108.757352, -37.588193) translate(101.353004, 31.892541)">
                    <g id="Group" transform="translate(-0.000000, -0.000000)">
                        <polygon id="Path" fill="#B7BCD9" opacity="0" points="1.46591129 1.70266256 2.75591322 4.13602242 13.1932016 4.13602242 13.1932016 9.65071898 1.46591129 9.65071898"></polygon>
                        <mask id="mask-6" fill="white">
                            <use xlink:href="#path-5"></use>
                        </mask>
                        <use id="Shape" fill="#404B8A" xlink:href="#path-5"></use>
                    </g>
                </g>
                <g id="icons/18px/film" transform="translate(31.295718, 71.192534) rotate(1.000000) translate(-31.295718, -71.192534) translate(26.169631, 67.205577)">
                    <g id="Group" transform="translate(-0.000000, -0.000000)">
                        <polygon id="Path" fill="#B7BCD9" opacity="0" points="1.01486166 1.17876639 1.90793992 2.86340014 9.13375494 2.86340014 9.13375494 6.68126698 1.01486166 6.68126698"></polygon>
                        <mask id="mask-8" fill="white">
                            <use xlink:href="#path-7"></use>
                        </mask>
                        <use id="Shape" fill="#404B8A" xlink:href="#path-7"></use>
                    </g>
                </g>
                <g id="Group" transform="translate(107.647826, 68.205435) rotate(-14.000000) translate(-107.647826, -68.205435) translate(100.243478, 62.652174)">
                    <polygon id="Path" fill="#B7BCD9" opacity="0" points="1.46591129 1.70266256 2.75591322 4.13602242 13.1932016 4.13602242 13.1932016 9.65071898 1.46591129 9.65071898"></polygon>
                    <mask id="mask-10" fill="white">
                        <use xlink:href="#path-9"></use>
                    </mask>
                    <use id="Shape" fill="#404B8A" xlink:href="#path-9"></use>
                </g>
                <g id="intellectual" transform="translate(44.426087, 23.921739)" fill-rule="nonzero">
                    <path d="M23.9919016,0 L23.9217391,0 L23.9919016,2.90950153 C25.3549184,2.90931969 26.7147334,3.07934366 28.0529707,3.4173913 L28.4782609,0.561897908 C26.9998379,0.187845185 25.4976099,-0.000363161557 23.9919016,0 Z" id="Path" fill="#404B8A"></path>
                    <path d="M18.9509164,0 C17.531715,0.303516003 16.1442211,0.755778658 14.8086957,1.35034508 L15.6207204,3.4173913 C16.8281006,2.88053074 18.0823183,2.47182761 19.3652174,2.19730459 L18.9509164,0 Z" id="Path" fill="#404B8A"></path>
                    <path d="M39.5063123,38.7304348 C38.572366,39.7264623 37.5494977,40.6230568 36.4521739,41.4073471 L37.6352345,43.2869565 C38.8470951,42.420489 39.9769352,41.4302605 41.0086957,40.3305568 L39.5063123,38.7304348 Z" id="Path" fill="#404B8A"></path>
                    <path d="M32.6834808,2.27826087 L31.8956522,4.03638406 C33.0884128,4.48598453 34.2302328,5.04180667 35.3047802,5.69565217 L36.4521739,4.11206997 C35.2644685,3.38895463 34.0022317,2.77479373 32.6834808,2.27826087 Z" id="Path" fill="#404B8A"></path>
                    <path d="M44.9484849,24.0142982 C44.9486659,25.3709219 44.7736888,26.724274 44.426087,28.0554065 L47.2660718,28.4782609 C47.6502253,27.007949 47.8436591,25.5129639 47.8434783,24.0144345 L47.8434783,23.9217391 L44.9484849,24.0142982 Z" id="Path" fill="#404B8A"></path>
                    <path d="M40.3225763,6.83478261 L38.7304348,8.34259881 C39.7282597,9.27449085 40.6270788,10.2955077 41.4144636,11.3913043 L43.2869565,10.2021325 C42.4175142,8.99184173 41.4247738,7.86403452 40.3225763,6.83478261 Z" id="Path" fill="#404B8A"></path>
                    <path d="M32.226688,44.426087 C31.0177048,44.9614273 29.7621311,45.3681961 28.4782609,45.6404982 L28.8884939,47.8434783 C30.3087136,47.5421213 31.6974782,47.0919806 33.0347826,46.4996534 L32.226688,44.426087 Z" id="Path" fill="#404B8A"></path>
                    <path d="M46.4905102,14.8086957 L44.426087,15.6225434 C44.9639449,16.8292424 45.3739479,18.0828942 45.650081,19.3652174 L47.8434783,18.9480349 C47.5381092,17.5298512 47.0850216,16.1433639 46.4905102,14.8086957 Z" id="Path" fill="#404B8A"></path>
                    <path d="M43.8132591,31.8956522 C43.3611944,33.0871166 42.8034029,34.2272516 42.1478261,35.2997251 L43.7248374,36.4521739 C44.4491604,35.266672 45.065623,34.0065092 45.5652174,32.6897025 L43.8132591,31.8956522 Z" id="Path" fill="#404B8A"></path>
                    <path d="M23.8983595,44.944159 C22.5207708,44.9445215 21.1465221,44.7711059 19.7946788,44.426087 L19.3652174,47.2715874 C20.8585909,47.6521231 22.3767356,47.8436593 23.8983595,47.8434783 L23.9217391,47.8434783 L23.8983595,44.944159 Z" id="Path" fill="#404B8A"></path>
                    <path d="M6.43383414,36.4521739 L4.55652174,37.6375997 C5.42414794,38.8487782 6.41545822,39.9777868 7.51617591,41.0086957 L9.11304348,39.5049439 C8.11636177,38.5714709 7.2190514,37.5491905 6.43383414,36.4521739 Z" id="Path" fill="#404B8A"></path>
                    <path d="M10.2044017,4.55652174 C8.99319791,5.4249824 7.86472411,6.41708496 6.83478261,7.51898153 L8.34118492,9.11304348 C9.27339087,8.11585394 10.2949664,7.21800183 11.3913043,6.4320633 L10.2044017,4.55652174 Z" id="Path" fill="#404B8A"></path>
                    <path d="M0.566600101,19.3652174 C0.18953245,20.8510215 -0.000181414197,22.3613246 0,23.8749685 L0,23.9217391 L2.90471001,23.8749685 C2.90434692,22.5042814 3.07608789,21.1367959 3.4173913,19.791443 L0.566600101,19.3652174 Z" id="Path" fill="#404B8A"></path>
                    <path d="M4.11450479,11.3913043 C3.39099928,12.5781024 2.77598992,13.8396911 2.27826087,15.1579236 L4.03473519,15.9478261 C4.48450752,14.7553247 5.04087672,13.6141528 5.69565217,12.540772 L4.11450479,11.3913043 Z" id="Path" fill="#404B8A"></path>
                    <path d="M2.19973883,28.4782609 L0,28.8909831 C0.302450067,30.3104476 0.753671355,31.6984678 1.3469334,33.0347826 L3.4173913,32.2248629 C2.88119795,31.0165617 2.47344422,29.7616862 2.19973883,28.4782609 Z" id="Path" fill="#404B8A"></path>
                    <path d="M12.542749,42.1478261 L11.3913043,43.7263156 C12.5774881,44.450487 13.8383349,45.0664598 15.1559567,45.5652174 L15.9478261,43.8106678 C14.7560686,43.3598403 13.6155123,42.8029497 12.542749,42.1478261 Z" id="Path" fill="#404B8A"></path>
                    <path d="M41.0081556,19.9012785 C41.0081556,16.815702 38.8356178,13.5068644 35.2508876,12.9478949 C34.9046029,9.51856918 31.6727072,6.87712772 27.7711664,6.83478493 C26.4155016,6.83378215 25.0850393,7.15755473 23.9217391,7.77167981 C22.7584389,7.15755473 21.4279766,6.83378215 20.0723119,6.83478493 C16.0458978,6.88604811 12.7180335,9.62021141 12.3734574,13.1604767 C9.04473869,14.0839258 6.79474241,16.8226122 6.83532265,19.9012785 C6.83404117,21.3344465 7.32014972,22.7349482 8.23085571,23.9217374 C7.32014972,25.1085266 6.83404117,26.5090283 6.83532265,27.9421962 C6.83532265,31.0277727 9.0078605,34.3366104 12.5925907,34.8955798 C12.9388754,38.3249055 16.1707711,40.966347 20.0723119,41.0086898 C21.4279766,41.0096926 22.7584389,40.68592 23.9217391,40.0717949 C25.0850393,40.68592 26.4155016,41.0096926 27.7711664,41.0086898 C31.7975804,40.9574266 35.1254448,38.2232633 35.4700209,34.682998 C38.7987396,33.7595489 41.0487359,31.0208626 41.0081556,27.9421962 C41.0094371,26.5090283 40.5233285,25.1085266 39.6126225,23.9217374 C40.5231862,22.7350738 41.0094371,21.3344465 41.0081556,19.9012785 Z M22.7826447,15.8808197 C22.7826447,16.9910945 21.762728,17.8910491 20.5044558,17.8910491 C19.2461836,17.8910491 18.226267,16.9910945 18.226267,15.8808197 L15.9480781,15.8808197 C15.9509258,18.1002386 17.9891929,19.8987657 20.5044558,19.9012785 C21.3068055,19.8972581 22.0932078,19.7041504 22.7826447,19.3419322 L22.7826447,38.3142262 C21.9673379,38.7572305 21.0297208,38.9938094 20.0723119,38.998458 C17.4007083,38.9460664 15.1865935,37.1554546 14.8949853,34.8116527 C17.3138523,34.220394 18.7314554,32.0109006 18.0612407,29.8765395 C17.5147601,28.1359321 15.7168419,26.9324328 13.6698892,26.9370815 L13.6698892,28.9473109 C14.9281614,28.9473109 15.9480781,29.8472655 15.9480781,30.9575403 C15.9480781,32.0678152 14.9281614,32.9677698 13.6698892,32.9677698 C10.9444634,32.9677698 9.11351151,30.3690457 9.11351151,27.9421962 C9.11109094,26.7079153 9.61243487,25.514216 10.5257038,24.5793337 C10.8966215,24.2020387 10.8966215,23.6413104 10.5257038,23.2640154 C9.61243487,22.3291331 9.11109094,21.1354337 9.11351151,19.9011529 C9.0629642,17.4910134 10.9891729,15.3997466 13.6731641,14.9507116 C14.2314628,14.8253236 14.6197516,14.3788014 14.6126323,13.8704646 C14.5524027,11.1540165 16.9940516,8.90657996 20.0723119,8.84489105 C21.0297208,8.84941406 21.9673379,9.08611858 22.7826447,9.52912289 L22.7826447,15.8808197 Z M37.3177744,24.5794593 C38.2310434,25.5143416 38.7323873,26.708041 38.7299667,27.9423219 C38.7805141,30.3524613 36.8543054,32.4437281 34.1703141,32.8927631 C33.6120155,33.0181511 33.2237266,33.4646734 33.230846,33.9730101 C33.2910756,36.6894583 30.8494267,38.9368948 27.7711664,38.9985837 C26.8137575,38.9940607 25.8761404,38.7573562 25.0608336,38.3143518 L25.0608336,26.9372071 C25.0608336,25.8269323 26.0807502,24.9269777 27.3390224,24.9269777 C28.5972946,24.9269777 29.6172113,25.8269323 29.6172113,26.9372071 L31.8954002,26.9372071 C31.8925524,24.7177882 29.8542853,22.9192611 27.3390224,22.9167483 C26.5366728,22.9207688 25.7502705,23.1138764 25.0608336,23.4760946 L25.0608336,9.52924853 C25.8761404,9.08624422 26.8137575,8.84966534 27.7711664,8.84501669 C30.4426276,8.89740829 32.6568848,10.6880202 32.948493,13.031822 C30.5296259,13.6230807 29.1120229,15.8325742 29.7822376,17.9669353 C30.3287182,19.7075427 32.1266363,20.9110419 34.173589,20.9063932 L34.173589,18.8961638 C32.9153168,18.8961638 31.8954002,17.9962092 31.8954002,16.8859344 C31.8954002,15.7756595 32.9153168,14.875705 34.173589,14.875705 C36.8990148,14.875705 38.7299667,17.474429 38.7299667,19.9012785 C38.7323873,21.1355594 38.2310434,22.3292587 37.3177744,23.2641411 C36.9467144,23.641436 36.9467144,24.2020387 37.3177744,24.5794593 Z" id="Shape" fill="#8DA4FA"></path>
                </g>
            </g>
        </g>
    </g>
</svg>