<svg xmlns="http://www.w3.org/2000/svg" width="170" height="170" viewBox="0 0 170 170">
  <defs>
    <filter id="legal_informartion-a" width="163.2%" height="163.2%" x="-31.6%" y="-31.6%" filterUnits="objectBoundingBox">
      <feGaussianBlur in="SourceGraphic" stdDeviation="4"/>
    </filter>
    <filter id="legal_informartion-b" width="442.9%" height="442.9%" x="-171.4%" y="-171.4%" filterUnits="objectBoundingBox">
      <feGaussianBlur in="SourceGraphic" stdDeviation="4"/>
    </filter>
    <filter id="legal_informartion-c" width="442.9%" height="442.9%" x="-171.4%" y="-171.4%" filterUnits="objectBoundingBox">
      <feGaussianBlur in="SourceGraphic" stdDeviation="4"/>
    </filter>
    <filter id="legal_informartion-d" width="414.3%" height="419.5%" x="-157.2%" y="-159.8%" filterUnits="objectBoundingBox">
      <feGaussianBlur in="SourceGraphic" stdDeviation="4"/>
    </filter>
  </defs>
  <g fill="none" fill-rule="evenodd">
    <circle cx="85" cy="85" r="84" stroke="#B1B8DB" stroke-width="2"/>
    <g transform="translate(7 5)">
      <circle cx="24.581" cy="22.132" r="19" fill="#FF6E61" filter="url(#legal_informartion-a)"/>
      <circle cx="24.581" cy="22.132" r="19" fill="#FF6E61"/>
      <circle cx="19.632" cy="19.253" r="19" stroke="#B1B8DB" stroke-width="2"/>
      <text fill="#121424" font-family="Montserrat-SemiBold, Montserrat" font-size="20" font-weight="500">
        <tspan x="13" y="26">3</tspan>
      </text>
    </g>
    <g fill="#FF6E61" transform="translate(56 60)">
      <rect width="7" height="7" filter="url(#legal_informartion-b)" rx="1"/>
      <rect width="7" height="7" y="22" filter="url(#legal_informartion-c)" rx="1"/>
    </g>
    <g fill="#FF6E61" transform="translate(56 60)">
      <rect width="7" height="7" rx="1"/>
      <rect width="7" height="7" y="22" rx="1"/>
    </g>
    <polygon fill="#FF6E61" stroke="#FF6E61" stroke-linejoin="round" points="119.2 119.198 111.245 119.198 119.2 111.373" filter="url(#legal_informartion-d)"/>
    <polygon fill="#FF6E61" stroke="#FF6E61" stroke-linejoin="round" points="119.2 119.198 111.245 119.198 119.2 111.373"/>
    <g fill="#B1B8DB" fill-rule="nonzero" transform="translate(49 49)">
      <path d="M32.0127555 18.6666667L63.0983556 18.6666667C63.5967255 18.6666667 64 18.2686632 64 17.7777778 64 17.2868924 63.5967255 16.8888889 63.0983556 16.8888889L32.0127555 16.8888889C31.5143856 16.8888889 31.1111111 17.2868924 31.1111111 17.7777778 31.1111111 18.2686632 31.5143856 18.6666667 32.0127555 18.6666667zM32.0127555 24.8888889L63.0983556 24.8888889C63.5967255 24.8888889 64 24.4908854 64 24 64 23.5091146 63.5967255 23.1111111 63.0983556 23.1111111L32.0127555 23.1111111C31.5143856 23.1111111 31.1111111 23.5091146 31.1111111 24 31.1111111 24.4908854 31.5143856 24.8888889 32.0127555 24.8888889z"/>
      <path d="M71.100011,7.4983045 L49.7402132,7.4983045 L49.7402132,0.900940313 C49.7402132,0.403399539 49.3376791,0 48.8402242,0 L0.899989013,0 C0.402534126,0 0,0.403399539 0,0.900940313 L0,63.6003153 C0,64.097856 0.402534126,64.5012556 0.899989013,64.5012556 L22.2597868,64.5012556 L22.2597868,71.0990597 C22.2597868,71.5966005 22.6623209,72 23.1597758,72 L71.100011,72 C71.5974659,72 72,71.5966005 72,71.0990597 L72,8.39924481 C72,7.90170404 71.5974659,7.4983045 71.100011,7.4983045 Z M1.79997803,62.6993749 L1.79997803,1.80188063 L47.9402351,1.80188063 L47.9402351,7.4983045 L23.1597759,7.4983045 C22.662321,7.4983045 22.2597869,7.90170404 22.2597869,8.39924481 L22.2597869,62.6993749 L1.79997803,62.6993749 Z M24.0597649,9.30018512 L70.200022,9.30018512 L70.200022,59.936726 L70.200022,70.1981194 L24.0597649,70.1981194 L24.0597649,9.30018512 Z"/>
      <path d="M32.0127555 30.2222222L63.0983556 30.2222222C63.5967255 30.2222222 64 29.8242188 64 29.3333333 64 28.8424479 63.5967255 28.4444444 63.0983556 28.4444444L32.0127555 28.4444444C31.5143856 28.4444444 31.1111111 28.8424479 31.1111111 29.3333333 31.1111111 29.8242188 31.5143856 30.2222222 32.0127555 30.2222222zM32.0127555 36.4444444L63.0983556 36.4444444C63.5967255 36.4444444 64 36.046441 64 35.5555556 64 35.0646701 63.5967255 34.6666667 63.0983556 34.6666667L32.0127555 34.6666667C31.5143856 34.6666667 31.1111111 35.0646701 31.1111111 35.5555556 31.1111111 36.046441 31.5143856 36.4444444 32.0127555 36.4444444zM63.0965038 46.2222222L56.9034962 46.2222222C56.4041028 46.2222222 56 46.6202257 56 47.1111111 56 47.6019965 56.4041028 48 56.9034962 48L63.0965038 48C63.5958972 48 64 47.6019965 64 47.1111111 64 46.6202257 63.5958972 46.2222222 63.0965038 46.2222222zM63.0965038 54.2222222C63.5958972 54.2222222 64 53.8242188 64 53.3333333 64 52.8424479 63.5958972 52.4444444 63.0965038 52.4444444L56.9034962 52.4444444C56.4041028 52.4444444 56 52.8424479 56 53.3333333 56 53.8242188 56.4041028 54.2222222 56.9034962 54.2222222L63.0965038 54.2222222zM45.302663 50.6666667L35.586226 50.6666667C35.0779539 50.6666667 34.6666667 51.0646701 34.6666667 51.5555556 34.6666667 52.046441 35.0779539 52.4444444 35.586226 52.4444444L45.3026629 52.4444444C45.810935 52.4444444 46.2222222 52.046441 46.2222222 51.5555556 46.2222222 51.0646701 45.810935 50.6666667 45.302663 50.6666667zM45.302663 55.1111111L35.586226 55.1111111C35.0779539 55.1111111 34.6666667 55.5091146 34.6666667 56 34.6666667 56.4908854 35.0779539 56.8888889 35.586226 56.8888889L45.3026629 56.8888889C45.810935 56.8888889 46.2222222 56.4908854 46.2222222 56 46.2222222 55.5091146 45.810935 55.1111111 45.302663 55.1111111z"/>
      <path d="M51.0159696 50.6197296L51.0159696 48.0029818C51.0159696 47.6832589 50.8456271 47.3879958 50.5687113 47.2281344L48.3027191 45.919979 46.9941392 43.6535286C46.8342794 43.3766102 46.5390189 43.2062661 46.2192992 43.2062661L43.6021394 43.2062661 41.3361472 41.8976738C41.0601049 41.7378124 40.7176729 41.7378124 40.4416306 41.8976738L38.1756384 43.2062661 35.5584786 43.2062661C35.2387588 43.2062661 34.9434984 43.3766102 34.7836386 43.6535286L33.4750586 45.919979 31.2090664 47.2281344C30.9321507 47.3879958 30.7618081 47.683259 30.7618081 48.0029818L30.7618081 50.6197296 29.4532282 52.88618C29.2933684 53.1630984 29.2933684 53.5037866 29.4532282 53.780705L30.7618081 56.0471554 30.7618081 58.6639032C30.7618081 58.9836261 30.9321507 59.2788892 31.2090664 59.4387506L33.4750586 60.746906 34.7836386 63.0133564C34.9434984 63.2902748 35.2387588 63.4606189 35.5584786 63.4606189L38.1756384 63.4606189 40.4416306 64.7692112C40.5796517 64.8491419 40.7342703 64.8888889 40.8888889 64.8888889 41.0435075 64.8888889 41.198126 64.8491419 41.3361472 64.7692112L43.6021394 63.4606189 46.2192992 63.4606189C46.539019 63.4606189 46.8342794 63.2902748 46.9941392 63.0133564L48.3027191 60.746906 50.5687113 59.4387506C50.8456271 59.2788892 51.0159696 58.983626 51.0159696 58.6639032L51.0159696 56.0471554 52.3245495 53.780705C52.4844094 53.5037866 52.4844094 53.1630984 52.3245495 52.88618L51.0159696 50.6197296zM49.346613 55.3601008C49.2679934 55.4959393 49.2269365 55.6505593 49.2269365 55.8073633L49.2269365 58.1476294 47.2002973 59.3173258C47.0640232 59.3959461 46.9513352 59.5090721 46.8727156 59.6449106L45.7030303 61.6715689 43.3627862 61.6715689C43.205547 61.6715689 43.051802 61.713063 42.9155279 61.7912466L40.8888888 62.9613798 38.8622496 61.7912466C38.7259756 61.7130631 38.5722306 61.6715689 38.4149914 61.6715689L36.0747473 61.6715689 34.905062 59.6449107C34.8264424 59.5090721 34.7137543 59.3959462 34.5774803 59.3173258L32.5508411 58.1476295 32.5508411 55.8073634C32.5508411 55.6505594 32.5097843 55.4959394 32.4311646 55.3601009L31.2606057 53.3334426 32.4311646 51.3067843C32.5097842 51.1709458 32.5508411 51.0163258 32.5508411 50.8595218L32.5508411 48.5192556 34.5774803 47.3495593C34.7137544 47.270939 34.8264424 47.157813 34.905062 47.0219745L36.0747473 44.9953162 38.4149914 44.9953162C38.5722306 44.9953162 38.7259756 44.9538222 38.8622496 44.8756385L40.8888888 43.7055054 42.9155279 44.8756385C43.051802 44.9538221 43.205547 44.9953162 43.3627862 44.9953162L45.7030303 44.9953162 46.8727156 47.0219745C46.9513352 47.1578131 47.0640233 47.270939 47.2002973 47.3495593L49.2269365 48.5192556 49.2269365 50.8595218C49.2269365 51.0163258 49.2679933 51.1709458 49.346613 51.3067843L50.5171719 53.3334426 49.346613 55.3601008zM16.0070615 34.6666667L8.88182738 34.6666667C8.39441105 34.6666667 8 35.0615083 8 35.548494L8 42.6737282C8 43.1607139 8.39441105 43.5555556 8.88182738 43.5555556L16.0070615 43.5555556C16.4944778 43.5555556 16.8888889 43.1607139 16.8888889 42.6737282L16.8888889 35.548494C16.8888889 35.0615083 16.4944777 34.6666667 16.0070615 34.6666667zM15.1252341 41.7919008L9.76365477 41.7919008 9.76365477 36.4303214 15.1252341 36.4303214 15.1252341 41.7919008zM16.0070615 48L8.88182738 48C8.39441105 48 8 48.3948416 8 48.8818274L8 56.0070615C8 56.4940472 8.39441105 56.8888889 8.88182738 56.8888889L16.0070615 56.8888889C16.4944778 56.8888889 16.8888889 56.4940472 16.8888889 56.0070615L16.8888889 48.8818274C16.8888889 48.3948416 16.4944777 48 16.0070615 48zM15.1252341 55.1252341L9.76365477 55.1252341 9.76365477 49.7636548 15.1252341 49.7636548 15.1252341 55.1252341zM16.0070615 8L8.88182738 8C8.39441105 8 8 8.39484165 8 8.88182738L8 16.0070615C8 16.4940472 8.39441105 16.8888889 8.88182738 16.8888889L16.0070615 16.8888889C16.4944778 16.8888889 16.8888889 16.4940472 16.8888889 16.0070615L16.8888889 8.88182738C16.8888889 8.39484165 16.4944777 8 16.0070615 8zM15.1252341 15.1252341L9.76365477 15.1252341 9.76365477 9.76365477 15.1252341 9.76365477 15.1252341 15.1252341zM16.0070615 21.3333333L8.88182738 21.3333333C8.39441105 21.3333333 8 21.728175 8 22.2151607L8 29.3403948C8 29.8273806 8.39441105 30.2222222 8.88182738 30.2222222L16.0070615 30.2222222C16.4944778 30.2222222 16.8888889 29.8273806 16.8888889 29.3403948L16.8888889 22.2151607C16.8888889 21.728175 16.4944777 21.3333333 16.0070615 21.3333333zM15.1252341 28.4585675L9.76365477 28.4585675 9.76365477 23.0969881 15.1252341 23.0969881 15.1252341 28.4585675z"/>
    </g>
  </g>
</svg>
