<?xml version="1.0" encoding="UTF-8"?>
<svg width="614px" height="760px" viewBox="0 0 614 760" version="1.1" xmlns="http://www.w3.org/2000/svg" xmlns:xlink="http://www.w3.org/1999/xlink">
    <title>movie-form-illustration</title>
    <defs>
        <circle id="path-1" cx="51.5" cy="51.5" r="51.5"></circle>
    </defs>
    <g id="Add-movie-form-blue" stroke="none" stroke-width="1" fill="none" fill-rule="evenodd">
        <g id="0-AddFilm-Overview-Copy" transform="translate(-826.000000, -80.000000)">
            <g id="movie-form-illustration" transform="translate(827.000000, 80.000000)">
                <polygon id="montain" fill="#BDC5FE" opacity="0.139276414" points="49.843889 9.3227509e-14 612.843889 0 612.843889 676 51.9994023 676"></polygon>
                <polygon id="Rectangle" fill="#6E75A6" opacity="0.434779576" points="455.004602 2.99992249e-13 612.843889 2.99992249e-13 612.843889 136 302 520.880623 261.5 511.5"></polygon>
                <g id="cloud" transform="translate(21.000000, 432.000000)" fill="#010314">
                    <path d="M253,325 C245.992042,208.333333 204.492042,150 128.5,150 C52.5079578,150 11.0079578,208.333333 4,325 L253,325 Z" id="Oval"></path>
                    <ellipse id="Oval" cx="290" cy="149" rx="83" ry="98"></ellipse>
                    <ellipse id="Oval" cx="119.5" cy="141" rx="119.5" ry="141"></ellipse>
                    <path d="M464,325 C446.507685,193 394.327049,127 307.458091,127 C177.154654,127 153,325 153,325 C153,325 256.666667,325 464,325 Z" id="Oval"></path>
                    <path d="M562.973049,324.276507 C563.749994,324.276507 548.004069,251.577836 479.820209,249.059359 C411.63635,246.540882 389.938238,325 388.015629,325 C386.09302,325 562.196105,324.276507 562.973049,324.276507 Z" id="Oval"></path>
                    <ellipse id="Oval" cx="449" cy="223.5" rx="61" ry="72.5"></ellipse>
                </g>
                <g id="stars" transform="translate(395.000000, 170.000000) scale(1, -1) translate(-395.000000, -170.000000) translate(239.000000, 54.000000)" fill-rule="nonzero">
                    <g id="Group-6" transform="translate(131.000000, 224.000000)">
                        <circle id="Oval" fill="#8DA4FA" cx="4.22504892" cy="4.70645793" r="3.13502935"></circle>
                        <circle id="Oval" stroke="#000000" cx="3.18003914" cy="3.13894325" r="3.13502935"></circle>
                    </g>
                    <g id="Group-7" transform="translate(67.000000, 0.000000)">
                        <path d="M7.81662456,4.91998452 C7.66081784,4.84148083 7.53280928,4.72303679 7.44796629,4.57887163 L6.1434832,2.30915893 C5.98563563,2.04770887 5.68729173,1.88571429 5.36362918,1.88571429 C5.03996663,1.88571429 4.74162273,2.04770887 4.58377516,2.30915893 L3.26511291,4.57887163 C3.18997433,4.72508235 3.06558432,4.84478204 2.91063381,4.91998452 L0.457638431,6.23195718 C0.17507589,6.37801071 0,6.65406298 0,6.95354214 C0,7.2530213 0.17507589,7.52907358 0.457638431,7.67512711 L2.91063381,8.88214195 C3.06558432,8.95734444 3.18997433,9.07704412 3.26511291,9.22325484 L4.58377516,11.4798478 C4.73511857,11.7489755 5.03575043,11.9178082 5.36362918,11.9178082 C5.69150793,11.9178082 5.99213979,11.7489755 6.1434832,11.4798478 L7.44796629,9.22325484 C7.53280928,9.07908968 7.66081784,8.96064565 7.81662456,8.88214195 L10.2554408,7.67512711 C10.5463009,7.53509175 10.7287671,7.25692248 10.7287671,6.95354214 C10.7287671,6.65016181 10.5463009,6.37199253 10.2554408,6.23195718 L7.81662456,4.91998452 Z" id="Path" fill="#8DA4FA"></path>
                        <path d="M9.00870979,3.24796887 C8.85290308,3.16946517 8.72489451,3.05102114 8.64005153,2.90685598 L7.33556844,0.637143277 C7.17772087,0.375693216 6.87937696,0.21369863 6.55571442,0.21369863 C6.23205187,0.21369863 5.93370796,0.375693216 5.7758604,0.637143277 L4.45719814,2.90685598 C4.38205957,3.0530667 4.25766956,3.17276638 4.10271904,3.24796887 L1.64972367,4.55994153 C1.36716113,4.70599505 1.19208524,4.98204733 1.19208524,5.28152649 C1.19208524,5.58100565 1.36716113,5.85705792 1.64972367,6.00311145 L4.10271904,7.2101263 C4.25766956,7.28532878 4.38205957,7.40502847 4.45719814,7.55123919 L5.7758604,9.80783216 C5.92720381,10.0769599 6.22783567,10.2457926 6.55571442,10.2457926 C6.88359316,10.2457926 7.18422502,10.0769599 7.33556844,9.80783216 L8.64005153,7.55123919 C8.72489451,7.40707403 8.85290308,7.28862999 9.00870979,7.2101263 L11.447526,6.00311145 C11.7383862,5.8630761 11.9208524,5.58490682 11.9208524,5.28152649 C11.9208524,4.97814615 11.7383862,4.69997688 11.447526,4.55994153 L9.00870979,3.24796887 Z" id="Path" stroke="#000000"></path>
                    </g>
                    <g id="Group-7" transform="translate(268.000000, 99.000000)">
                        <path d="M7.81662456,4.91998452 C7.66081784,4.84148083 7.53280928,4.72303679 7.44796629,4.57887163 L6.1434832,2.30915893 C5.98563563,2.04770887 5.68729173,1.88571429 5.36362918,1.88571429 C5.03996663,1.88571429 4.74162273,2.04770887 4.58377516,2.30915893 L3.26511291,4.57887163 C3.18997433,4.72508235 3.06558432,4.84478204 2.91063381,4.91998452 L0.457638431,6.23195718 C0.17507589,6.37801071 0,6.65406298 0,6.95354214 C0,7.2530213 0.17507589,7.52907358 0.457638431,7.67512711 L2.91063381,8.88214195 C3.06558432,8.95734444 3.18997433,9.07704412 3.26511291,9.22325484 L4.58377516,11.4798478 C4.73511857,11.7489755 5.03575043,11.9178082 5.36362918,11.9178082 C5.69150793,11.9178082 5.99213979,11.7489755 6.1434832,11.4798478 L7.44796629,9.22325484 C7.53280928,9.07908968 7.66081784,8.96064565 7.81662456,8.88214195 L10.2554408,7.67512711 C10.5463009,7.53509175 10.7287671,7.25692248 10.7287671,6.95354214 C10.7287671,6.65016181 10.5463009,6.37199253 10.2554408,6.23195718 L7.81662456,4.91998452 Z" id="Path" fill="#8DA4FA"></path>
                        <path d="M9.00870979,3.24796887 C8.85290308,3.16946517 8.72489451,3.05102114 8.64005153,2.90685598 L7.33556844,0.637143277 C7.17772087,0.375693216 6.87937696,0.21369863 6.55571442,0.21369863 C6.23205187,0.21369863 5.93370796,0.375693216 5.7758604,0.637143277 L4.45719814,2.90685598 C4.38205957,3.0530667 4.25766956,3.17276638 4.10271904,3.24796887 L1.64972367,4.55994153 C1.36716113,4.70599505 1.19208524,4.98204733 1.19208524,5.28152649 C1.19208524,5.58100565 1.36716113,5.85705792 1.64972367,6.00311145 L4.10271904,7.2101263 C4.25766956,7.28532878 4.38205957,7.40502847 4.45719814,7.55123919 L5.7758604,9.80783216 C5.92720381,10.0769599 6.22783567,10.2457926 6.55571442,10.2457926 C6.88359316,10.2457926 7.18422502,10.0769599 7.33556844,9.80783216 L8.64005153,7.55123919 C8.72489451,7.40707403 8.85290308,7.28862999 9.00870979,7.2101263 L11.447526,6.00311145 C11.7383862,5.8630761 11.9208524,5.58490682 11.9208524,5.28152649 C11.9208524,4.97814615 11.7383862,4.69997688 11.447526,4.55994153 L9.00870979,3.24796887 Z" id="Path" stroke="#FFFFFF"></path>
                    </g>
                    <g id="Group-9" transform="translate(116.000000, 108.000000)">
                        <path d="M7.78436797,5.16786838 L5.92786419,4.2173136 C5.80679269,4.16684206 5.71008643,4.07517259 5.65684174,3.9604069 L4.65405867,2.20059602 C4.53375098,1.99936714 4.30859107,1.875 4.06458484,1.875 C3.82057861,1.875 3.5954187,1.99936714 3.47511101,2.20059602 L2.48587907,3.9604069 C2.42480984,4.06990203 2.33036797,4.15942506 2.21485662,4.2173136 L0.358352834,5.16786838 C0.138195656,5.27607802 0,5.49156361 0,5.72664044 C0,5.96171728 0.138195656,6.17720287 0.358352834,6.28541251 L2.21485662,7.22312196 C2.32427938,7.28852606 2.41688133,7.376305 2.48587907,7.48002866 L3.47511101,9.23983953 C3.58926624,9.44853019 3.8165917,9.57952816 4.06458484,9.57952816 C4.31257798,9.57952816 4.53990344,9.44853019 4.65405867,9.23983953 L5.65684174,7.48002866 C5.71791096,7.37053352 5.81235284,7.2810105 5.92786419,7.22312196 L7.78436797,6.28541251 C7.99665339,6.17137085 8.12785388,5.95793801 8.12785388,5.72664044 C8.12785388,5.49534288 7.99665339,5.28191004 7.78436797,5.16786838 Z" id="Path" fill="#6D8CFF"></path>
                        <path d="M8.94548995,3.51689806 L7.08898617,2.56634328 C6.96791467,2.51587174 6.87120841,2.42420227 6.81796372,2.30943658 L5.81518065,0.549625701 C5.69487296,0.348396817 5.46971305,0.22402968 5.22570682,0.22402968 C4.9817006,0.22402968 4.75654068,0.348396817 4.63623299,0.549625701 L3.64700105,2.30943658 C3.58593183,2.41893171 3.49148995,2.50845474 3.3759786,2.56634328 L1.51947482,3.51689806 C1.29931764,3.6251077 1.16112198,3.84059329 1.16112198,4.07567013 C1.16112198,4.31074696 1.29931764,4.52623255 1.51947482,4.63444219 L3.3759786,5.57215164 C3.48540136,5.63755574 3.57800331,5.72533468 3.64700105,5.82905834 L4.63623299,7.58886922 C4.75038822,7.79755987 4.97771368,7.92855784 5.22570682,7.92855784 C5.47369997,7.92855784 5.70102543,7.79755987 5.81518065,7.58886922 L6.81796372,5.82905834 C6.87903294,5.7195632 6.97347482,5.63004018 7.08898617,5.57215164 L8.94548995,4.63444219 C9.15777537,4.52040053 9.28897586,4.30696769 9.28897586,4.07567013 C9.28897586,3.84437256 9.15777537,3.63093972 8.94548995,3.51689806 Z" id="Path" stroke="#FFFFFF"></path>
                    </g>
                    <g id="Group-10" transform="translate(294.000000, 178.000000)">
                        <path d="M16.0691678,8.71594691 L12.2306752,6.73795888 C11.9912838,6.62664789 11.7980391,6.44076584 11.6823191,6.21049541 L9.62598378,2.51825109 C9.37870789,2.09342307 8.91205821,1.83030303 8.40589149,1.83030303 C7.89972477,1.83030303 7.43307509,2.09342307 7.1857992,2.51825109 L5.12946388,6.21049541 C5.00330894,6.4426153 4.80086737,6.62807098 4.55368999,6.73795888 L0.715197399,8.71594691 C0.273542121,8.95380148 0,9.40267159 0,9.88955314 C0,10.3764347 0.273542121,10.8253048 0.715197399,11.0631594 L4.55368999,13.0411474 C4.7965639,13.1692066 4.99633235,13.3613637 5.12946388,13.594984 L7.1857992,17.2872284 C7.43307509,17.7120564 7.89972477,17.9751764 8.40589149,17.9751764 C8.91205821,17.9751764 9.37870789,17.7120564 9.62598378,17.2872284 L11.6823191,13.594984 C11.8055369,13.3632199 11.9960245,13.1708284 12.2306752,13.0411474 L16.0691678,11.0631594 C16.5269988,10.8375422 16.8149862,10.3843705 16.8149862,9.88955314 C16.8149862,9.39473578 16.5269988,8.94156409 16.0691678,8.71594691 Z" id="Path" fill="#C7D3FF"></path>
                        <path d="M17.1901669,7.10145957 L13.3516743,5.12347154 C13.1122829,5.01216055 12.9190381,4.8262785 12.8033182,4.59600807 L10.7469829,0.903763751 C10.499707,0.478935735 10.0330573,0.215815691 9.52689057,0.215815691 C9.02072384,0.215815691 8.55407417,0.478935735 8.30679828,0.903763751 L6.25046296,4.59600807 C6.12430802,4.82812797 5.92186645,5.01358364 5.67468907,5.12347154 L1.83619648,7.10145957 C1.3945412,7.33931414 1.12099908,7.78818425 1.12099908,8.2750658 C1.12099908,8.76194735 1.3945412,9.21081746 1.83619648,9.44867203 L5.67468907,11.4266601 C5.91756297,11.5547192 6.11733143,11.7468764 6.25046296,11.9804967 L8.30679828,15.672741 C8.55407417,16.097569 9.02072384,16.3606891 9.52689057,16.3606891 C10.0330573,16.3606891 10.499707,16.097569 10.7469829,15.672741 L12.8033182,11.9804967 C12.9265359,11.7487325 13.1170235,11.5563411 13.3516743,11.4266601 L17.1901669,9.44867203 C17.6479979,9.22305485 17.9359852,8.76988316 17.9359852,8.2750658 C17.9359852,7.78024844 17.6479979,7.32707675 17.1901669,7.10145957 Z" id="Path" stroke="#000000"></path>
                    </g>
                    <g id="Group-4" transform="translate(0.000000, 112.000000)">
                        <path d="M11.9784733,6.32950245 L9.10768829,4.9814125 C8.92478684,4.89600453 8.77339104,4.76489767 8.67180994,4.60394731 L7.16878115,2.02909552 C6.99379907,1.7232386 6.64273236,1.53089975 6.25944873,1.53089975 C5.87616509,1.53089975 5.52509838,1.7232386 5.35011631,2.02909552 L3.84708752,4.60394731 C3.75568347,4.76706845 3.60810845,4.89943079 3.42623946,4.9814125 L0.555454463,6.32950245 C0.214444758,6.4864466 6.06803496e-13,6.8013238 6.06803496e-13,7.14509686 C6.06803496e-13,7.48886993 0.214444758,7.80374713 0.555454463,7.96069128 L3.42623946,9.30878123 C3.60169049,9.39851597 3.74703937,9.52888165 3.84708752,9.68624641 L5.35011631,12.2745791 C5.53219732,12.5723809 5.88077132,12.7574979 6.25944873,12.7574979 C6.63812614,12.7574979 6.98670014,12.5723809 7.16878115,12.2745791 L8.67180994,9.68624641 C8.78170871,9.53122855 8.93110534,9.40185294 9.10768829,9.30878123 L11.9784733,7.96069128 C12.310502,7.79737999 12.516895,7.48473853 12.516895,7.14509686 C12.516895,6.8054552 12.310502,6.49281374 11.9784733,6.32950245 L11.9784733,6.32950245 Z" id="Path" fill="#809AFD"></path>
                        <path d="M13.1163728,4.7986027 L10.2455878,3.45051275 C10.0626864,3.36510478 9.91129059,3.23399792 9.80970948,3.07304756 L8.30668069,0.498195764 C8.13169862,0.192338845 7.78063191,-7.13772475e-14 7.39734827,-7.13772475e-14 C7.01406464,-7.13772475e-14 6.66299793,0.192338845 6.48801585,0.498195764 L4.98498706,3.07304756 C4.89358302,3.2361687 4.74600799,3.36853104 4.564139,3.45051275 L1.69335401,4.7986027 C1.3523443,4.95554684 1.13789954,5.27042405 1.13789954,5.61419711 C1.13789954,5.95797018 1.3523443,6.27284738 1.69335401,6.42979153 L4.564139,7.77788148 C4.73959003,7.86761622 4.88493891,7.9979819 4.98498706,8.15534666 L6.48801585,10.7436794 C6.67009686,11.0414811 7.01867086,11.2265982 7.39734827,11.2265982 C7.77602568,11.2265982 8.12459968,11.0414811 8.30668069,10.7436794 L9.80970948,8.15534666 C9.91960825,8.0003288 10.0690049,7.87095319 10.2455878,7.77788148 L13.1163728,6.42979153 C13.4484016,6.26648024 13.6547945,5.95383878 13.6547945,5.61419711 C13.6547945,5.27455544 13.4484016,4.96191399 13.1163728,4.7986027 L13.1163728,4.7986027 Z" id="Path" stroke="#000000"></path>
                    </g>
                </g>
                <g id="stars" transform="translate(463.000000, 349.500000) scale(-1, 1) translate(-463.000000, -349.500000) translate(320.000000, 243.000000)" fill-rule="nonzero">
                    <g id="Group-6" transform="translate(118.000000, 205.000000)">
                        <circle id="Oval" fill="#8DA4FA" cx="4.64448793" cy="5.07240705" r="2.78669276"></circle>
                        <circle id="Oval" stroke="#000000" cx="3.71559035" cy="3.67906067" r="2.78669276"></circle>
                    </g>
                    <g id="Group-7" transform="translate(61.000000, 0.000000)">
                        <path d="M7.16523918,5.05498646 C7.02241636,4.98629572 6.90507517,4.88265719 6.82730243,4.75651268 L5.63152627,2.77051407 C5.48683266,2.54174526 5.21335075,2.4 4.91666008,2.4 C4.61996941,2.4 4.3464875,2.54174526 4.2017939,2.77051407 L2.99302016,4.75651268 C2.92414314,4.88444706 2.81011896,4.98918428 2.66808099,5.05498646 L0.419501895,6.20296253 C0.160486233,6.33075937 0,6.57230511 0,6.83434938 C0,7.09639364 0.160486233,7.33793938 0.419501895,7.46573622 L2.66808099,8.52187421 C2.81011896,8.58767638 2.92414314,8.69241361 2.99302016,8.82034799 L4.2017939,10.7948668 C4.34052536,11.0303536 4.61610456,11.1780822 4.91666008,11.1780822 C5.2172156,11.1780822 5.4927948,11.0303536 5.63152627,10.7948668 L6.82730243,8.82034799 C6.90507517,8.69420347 7.02241636,8.59056494 7.16523918,8.52187421 L9.4008207,7.46573622 C9.66744253,7.34320529 9.8347032,7.09980717 9.8347032,6.83434938 C9.8347032,6.56889158 9.66744253,6.32549347 9.4008207,6.20296253 L7.16523918,5.05498646 Z" id="Path" fill="#8DA4FA"></path>
                        <path d="M8.25798398,3.59197276 C8.11516116,3.52328202 7.99781997,3.41964349 7.92004723,3.29349898 L6.72427107,1.30750037 C6.57957746,1.07873156 6.30609555,0.936986301 6.00940488,0.936986301 C5.71271421,0.936986301 5.4392323,1.07873156 5.2945387,1.30750037 L4.08576496,3.29349898 C4.01688794,3.42143336 3.90286376,3.52617058 3.76082579,3.59197276 L1.5122467,4.73994884 C1.25323103,4.86774567 1.0927448,5.10929141 1.0927448,5.37133568 C1.0927448,5.63337994 1.25323103,5.87492568 1.5122467,6.00272252 L3.76082579,7.05886051 C3.90286376,7.12466268 4.01688794,7.22939991 4.08576496,7.35733429 L5.2945387,9.33185314 C5.43327016,9.56733989 5.70884936,9.71506849 6.00940488,9.71506849 C6.3099604,9.71506849 6.5855396,9.56733989 6.72427107,9.33185314 L7.92004723,7.35733429 C7.99781997,7.23118977 8.11516116,7.12755124 8.25798398,7.05886051 L10.4935655,6.00272252 C10.7601873,5.88019159 10.927448,5.63679347 10.927448,5.37133568 C10.927448,5.10587788 10.7601873,4.86247977 10.4935655,4.73994884 L8.25798398,3.59197276 Z" id="Path" stroke="#000000"></path>
                    </g>
                    <g id="Group-7" transform="translate(246.000000, 92.000000)">
                        <path d="M7.16523918,5.05498646 C7.02241636,4.98629572 6.90507517,4.88265719 6.82730243,4.75651268 L5.63152627,2.77051407 C5.48683266,2.54174526 5.21335075,2.4 4.91666008,2.4 C4.61996941,2.4 4.3464875,2.54174526 4.2017939,2.77051407 L2.99302016,4.75651268 C2.92414314,4.88444706 2.81011896,4.98918428 2.66808099,5.05498646 L0.419501895,6.20296253 C0.160486233,6.33075937 0,6.57230511 0,6.83434938 C0,7.09639364 0.160486233,7.33793938 0.419501895,7.46573622 L2.66808099,8.52187421 C2.81011896,8.58767638 2.92414314,8.69241361 2.99302016,8.82034799 L4.2017939,10.7948668 C4.34052536,11.0303536 4.61610456,11.1780822 4.91666008,11.1780822 C5.2172156,11.1780822 5.4927948,11.0303536 5.63152627,10.7948668 L6.82730243,8.82034799 C6.90507517,8.69420347 7.02241636,8.59056494 7.16523918,8.52187421 L9.4008207,7.46573622 C9.66744253,7.34320529 9.8347032,7.09980717 9.8347032,6.83434938 C9.8347032,6.56889158 9.66744253,6.32549347 9.4008207,6.20296253 L7.16523918,5.05498646 Z" id="Path" fill="#8DA4FA"></path>
                        <path d="M8.25798398,3.59197276 C8.11516116,3.52328202 7.99781997,3.41964349 7.92004723,3.29349898 L6.72427107,1.30750037 C6.57957746,1.07873156 6.30609555,0.936986301 6.00940488,0.936986301 C5.71271421,0.936986301 5.4392323,1.07873156 5.2945387,1.30750037 L4.08576496,3.29349898 C4.01688794,3.42143336 3.90286376,3.52617058 3.76082579,3.59197276 L1.5122467,4.73994884 C1.25323103,4.86774567 1.0927448,5.10929141 1.0927448,5.37133568 C1.0927448,5.63337994 1.25323103,5.87492568 1.5122467,6.00272252 L3.76082579,7.05886051 C3.90286376,7.12466268 4.01688794,7.22939991 4.08576496,7.35733429 L5.2945387,9.33185314 C5.43327016,9.56733989 5.70884936,9.71506849 6.00940488,9.71506849 C6.3099604,9.71506849 6.5855396,9.56733989 6.72427107,9.33185314 L7.92004723,7.35733429 C7.99781997,7.23118977 8.11516116,7.12755124 8.25798398,7.05886051 L10.4935655,6.00272252 C10.7601873,5.88019159 10.927448,5.63679347 10.927448,5.37133568 C10.927448,5.10587788 10.7601873,4.86247977 10.4935655,4.73994884 L8.25798398,3.59197276 Z" id="Path" stroke="#FFFFFF"></path>
                    </g>
                    <g id="Group-9" transform="translate(106.000000, 99.000000)">
                        <path d="M6.22749438,4.98561373 L4.74229135,4.19592206 C4.64543415,4.15399187 4.56806915,4.07783569 4.52547339,3.98249189 L3.72324694,2.52049516 C3.62700078,2.35332039 3.44687285,2.25 3.25166787,2.25 C3.05646289,2.25 2.87633496,2.35332039 2.78008881,2.52049516 L1.98870325,3.98249189 C1.93984787,4.07345707 1.86429437,4.14783005 1.77188529,4.19592206 L0.286682267,4.98561373 C0.110556525,5.07551097 0,5.25452977 0,5.44982437 C0,5.64511897 0.110556525,5.82413777 0.286682267,5.91403501 L1.77188529,6.69305517 C1.8594235,6.74739088 1.93350506,6.82031492 1.98870325,6.90648535 L2.78008881,8.36848208 C2.87141299,8.54185585 3.05327336,8.65068493 3.25166787,8.65068493 C3.45006239,8.65068493 3.63192275,8.54185585 3.72324694,8.36848208 L4.52547339,6.90648535 C4.57432877,6.81552016 4.64988227,6.74114718 4.74229135,6.69305517 L6.22749438,5.91403501 C6.39732271,5.8192927 6.50228311,5.64197927 6.50228311,5.44982437 C6.50228311,5.25766947 6.39732271,5.08035603 6.22749438,4.98561373 Z" id="Path" fill="#6D8CFF"></path>
                        <path d="M7.15639196,3.61403839 L5.67118894,2.82434672 C5.57433174,2.78241652 5.49696673,2.70626034 5.45437097,2.61091654 L4.65214452,1.14891981 C4.55589837,0.981745048 4.37577044,0.878424658 4.18056546,0.878424658 C3.98536048,0.878424658 3.80523255,0.981745048 3.7089864,1.14891981 L2.91760084,2.61091654 C2.86874546,2.70188173 2.79319196,2.77625471 2.70078288,2.82434672 L1.21557985,3.61403839 C1.03945411,3.70393563 0.928897586,3.88295443 0.928897586,4.07824903 C0.928897586,4.27354363 1.03945411,4.45256243 1.21557985,4.54245967 L2.70078288,5.32147982 C2.78832109,5.37581554 2.86240265,5.44873958 2.91760084,5.53491 L3.7089864,6.99690673 C3.80031058,7.17028051 3.98217094,7.27910959 4.18056546,7.27910959 C4.37895997,7.27910959 4.56082034,7.17028051 4.65214452,6.99690673 L5.45437097,5.53491 C5.50322636,5.44394482 5.57877986,5.36957184 5.67118894,5.32147982 L7.15639196,4.54245967 C7.3262203,4.44771736 7.43118069,4.27040393 7.43118069,4.07824903 C7.43118069,3.88609412 7.3262203,3.70878069 7.15639196,3.61403839 Z" id="Path" stroke="#FFFFFF"></path>
                    </g>
                    <g id="Group-10" transform="translate(270.000000, 163.000000)">
                        <path d="M13.4434868,9.11960139 L10.2321988,7.22761284 C10.0319237,7.12114146 9.87025491,6.94334124 9.77344343,6.72308256 L8.05311061,3.19137061 C7.84623928,2.78501338 7.45583955,2.53333333 7.03237981,2.53333333 C6.60892007,2.53333333 6.21852034,2.78501338 6.01164901,3.19137061 L4.29131619,6.72308256 C4.1857748,6.94511029 4.01641191,7.12250268 3.809623,7.22761284 L0.598335079,9.11960139 C0.228845696,9.34711446 0,9.77646848 0,10.2421813 C0,10.707894 0.228845696,11.1372481 0.598335079,11.3647611 L3.809623,13.2567497 C4.01281162,13.3792411 4.17993818,13.5630436 4.29131619,13.7865065 L6.01164901,17.3182184 C6.21852034,17.7245757 6.60892007,17.9762557 7.03237981,17.9762557 C7.45583955,17.9762557 7.84623928,17.7245757 8.05311061,17.3182184 L9.77344343,13.7865065 C9.87652757,13.564819 10.0358897,13.3807924 10.2321988,13.2567497 L13.4434868,11.3647611 C13.8265088,11.1489534 14.0674394,10.7154848 14.0674394,10.2421813 C14.0674394,9.7688777 13.8265088,9.33540913 13.4434868,9.11960139 Z" id="Path" fill="#C7D3FF"></path>
                        <path d="M14.3813161,7.57530915 L11.1700281,5.68332061 C10.969753,5.57684922 10.8080842,5.399049 10.7112727,5.17879033 L8.99093991,1.64707837 C8.78406857,1.24072114 8.39366885,0.989041096 7.9702091,0.989041096 C7.54674936,0.989041096 7.15634963,1.24072114 6.9494783,1.64707837 L5.22914548,5.17879033 C5.1236041,5.40081805 4.95424121,5.57821044 4.7474523,5.68332061 L1.53616437,7.57530915 C1.16667499,7.80282222 0.937829294,8.23217624 0.937829294,8.69788903 C0.937829294,9.16360181 1.16667499,9.59295583 1.53616437,9.8204689 L4.7474523,11.7124574 C4.95064092,11.8349488 5.11776747,12.0187513 5.22914548,12.2422142 L6.9494783,15.7739262 C7.15634963,16.1802834 7.54674936,16.4319635 7.9702091,16.4319635 C8.39366885,16.4319635 8.78406857,16.1802834 8.99093991,15.7739262 L10.7112727,12.2422142 C10.8143569,12.0205268 10.973719,11.8365002 11.1700281,11.7124574 L14.3813161,9.8204689 C14.7643381,9.60466116 15.0052687,9.17119259 15.0052687,8.69788903 C15.0052687,8.22458546 14.7643381,7.7911169 14.3813161,7.57530915 Z" id="Path" stroke="#000000"></path>
                    </g>
                    <g id="Group-4" transform="translate(0.000000, 104.000000)">
                        <path d="M11.122868,5.95717877 L8.45713912,4.68838823 C8.28730207,4.60800427 8.14672025,4.48460957 8.05239494,4.33312688 L6.65672535,1.90973696 C6.494242,1.62187162 6.16825148,1.44084682 5.81234525,1.44084682 C5.45643901,1.44084682 5.1304485,1.62187162 4.96796514,1.90973696 L3.57229555,4.33312688 C3.48742037,4.48665266 3.35038642,4.61122898 3.18150807,4.68838823 L0.515779144,5.95717877 C0.199127275,6.10489091 5.63460389e-13,6.40124593 5.63460389e-13,6.72479705 C5.63460389e-13,7.04834817 0.199127275,7.34470318 0.515779144,7.49241532 L3.18150807,8.76120586 C3.34442688,8.84566209 3.4793937,8.9683592 3.57229555,9.11646721 L4.96796514,11.552545 C5.13704037,11.8328291 5.46071622,12.0070569 5.81234525,12.0070569 C6.16397427,12.0070569 6.48765013,11.8328291 6.65672535,11.552545 L8.05239494,9.11646721 C8.1544438,8.97056805 8.29316924,8.84880277 8.45713912,8.76120586 L11.122868,7.49241532 C11.4311804,7.33871058 11.6228311,7.0444598 11.6228311,6.72479705 C11.6228311,6.4051343 11.4311804,6.11088352 11.122868,5.95717877 L11.122868,5.95717877 Z" id="Path" fill="#809AFD"></path>
                        <path d="M12.179489,4.51633195 L9.51376013,3.24754141 C9.34392307,3.16715744 9.20334126,3.04376275 9.10901595,2.89228006 L7.71334635,0.468890131 C7.550863,0.181024796 7.22487248,-6.71785859e-14 6.86896625,-6.71785859e-14 C6.51306002,-6.71785859e-14 6.1870695,0.181024796 6.02458615,0.468890131 L4.62891656,2.89228006 C4.54404137,3.04580583 4.40700742,3.17038215 4.23812907,3.24754141 L1.57240015,4.51633195 C1.25574828,4.66404409 1.056621,4.9603991 1.056621,5.28395022 C1.056621,5.60750135 1.25574828,5.90385636 1.57240015,6.0515685 L4.23812907,7.32035904 C4.40104789,7.40481527 4.53601471,7.52751237 4.62891656,7.67562039 L6.02458615,10.1116982 C6.19366137,10.3919822 6.51733723,10.56621 6.86896625,10.56621 C7.22059527,10.56621 7.54427113,10.3919822 7.71334635,10.1116982 L9.10901595,7.67562039 C9.2110648,7.52972122 9.34979025,7.40795594 9.51376013,7.32035904 L12.179489,6.0515685 C12.4878015,5.89786375 12.6794521,5.60361297 12.6794521,5.28395022 C12.6794521,4.96428748 12.4878015,4.6700367 12.179489,4.51633195 L12.179489,4.51633195 Z" id="Path" stroke="#000000"></path>
                    </g>
                </g>
                <g id="woman-sitting-laptop" transform="translate(0.000000, 307.000000)">
                    <path d="M340,304 C340.899315,309.349774 354.756169,426.625299 357.229284,428.647514 C359.702399,430.669728 385.964528,435.152839 388.212815,431.782481 C388.662472,426.432708 390.608204,345.567965 392,337.939188 L340,304 Z" id="Path" stroke="#000000" stroke-width="2" fill="#556BFF" fill-rule="nonzero"></path>
                    <path d="M288.171129,200.000004 C347.161502,200.000004 426,330.495379 426,333.912814 C426,337.33025 416.113226,346.029177 411.169839,350.999992 C404.713606,350.999992 322.369991,282.31918 287.585167,282.31918 C284.128779,282.31918 276.782349,286.281974 266.808536,292.469044 C266.054028,292.937089 265.284485,293.417862 264.500452,293.910612 L45.6031586,293.910792 C45.4394858,293.201896 45.2909187,292.510883 45.1574539,291.839369 C43.5816073,283.910674 43.3804285,279.983133 46.0392763,279.959484 C107.117726,279.416239 265.297311,199.979338 288.171129,200.000004 Z" id="Combined-Shape" stroke="#000000" fill="#556BFF" fill-rule="nonzero"></path>
                    <path d="M98.2345122,93.0210322 C107.302926,93.2671045 154.511712,91.8655626 167.451437,104.29756 C173.070881,109.690399 185.629857,139.112143 196.000697,168.167583 L195.929439,168.040969 L166.454442,175.690606 C168.490244,185.16178 168.29912,207.46205 167.784188,223.530718 C133.31863,231.217236 57.4421909,240.3233 54.0009845,235.574233 C50.1402795,230.246234 59.505671,199.26253 61.4254171,191.998049 C61.4254171,191.998049 20.7395263,181.502533 12.7105327,180.496847 C11.9999084,184.498195 -3.77170779,263.669264 5.2118557,270.120636 C9.83863329,273.393445 15.4048311,275.631992 21.693123,277.002023 C14.030464,275.910813 7.38430755,273.68896 2.1199285,270.075358 C1.13353959,246.206351 5.7260815,151.382948 34.9889524,101.644259 C45.6907418,94.4546705 89.516107,92.7856588 98.2345122,93.0210322 Z" id="Combined-Shape" stroke="#1F2A3B" fill="#2A2F58" fill-rule="nonzero"></path>
                    <path d="M93,67 L93,97.4470633 C93,104.882812 120,104.819077 120,97.4470633 L120,77.8567997" id="Path" stroke="#1F2A3B" fill="#FFF3EE" fill-rule="nonzero"></path>
                    <path d="M112,19 C132.995,19 150,36.9823408 150,59.1591272 C150,62.1312419 149.68798,65.0948313 149.071111,67.9997277 L149.071111,67.9997277 L136.676073,68.0000097 C142.073881,60.1836619 143.44523,50.0775108 140.142619,40.9509316 C139.420576,41.0422681 138.690218,41.0422681 137.968175,40.9509316 C133.313175,40.2303474 128.66873,36.4983663 125.428175,34.0569839 C106.955952,47.8448792 95.1231746,48.038469 93.8459524,48.038469 C92.5687302,48.038469 87.3648413,55.6530009 84.9687302,56.5134 L84.757619,56.3843401 C85.5209458,60.6418858 87.1776571,64.5865669 89.5348147,68.0000567 L74.9288889,67.9997277 C74.3120196,65.0948313 74,62.1312419 74,59.1591272 C74,36.9823408 91.005,19 112,19 Z" id="Combined-Shape" fill="#010314" fill-rule="nonzero"></path>
                    <path d="M126.262992,33.6200546 C126.397991,33.7198383 126.535212,33.8214747 126.674564,33.9246889 C129.970772,36.3661077 134.44247,39.6509456 138.91316,40.3269629 C139.567282,40.4079756 140.214078,40.4215534 140.85714,40.3697667 C142.619885,45.3327418 142.940923,50.5779972 141.931625,55.5560727 C140.897601,60.6561049 138.467274,65.4756723 134.760577,69.4240675 C131.053413,73.3729607 126.38624,76.1131754 121.343321,77.485857 C116.300081,78.8586261 110.881019,78.8637047 105.67034,77.3420681 C100.460015,75.8205346 95.903032,72.9024213 92.4047313,69.0355117 C88.9963239,65.2679671 86.592905,60.599752 85.5695578,55.4451214 C87.0799472,54.7336631 89.2108295,52.4570772 91.0563012,50.4337671 C92.4711309,48.8825978 93.6867203,47.3570324 94.221106,47.3570324 C95.5214152,47.3570324 107.519479,47.1964803 126.262992,33.6200546 Z" id="Path" stroke="#1F2A3B" fill="#FFF3EE" fill-rule="nonzero"></path>
                    <circle id="Oval" fill="#010314" fill-rule="nonzero" cx="91.5" cy="11.5" r="11.5"></circle>
                    <path d="M96,46 C93.7609088,46.1263693 92,48.3275054 92,51 C92,53.6724946 93.7609088,55.8736307 96,56" id="Path" stroke="#1F2A3B" stroke-width="0.3" stroke-linecap="round"></path>
                    <path d="M133,47 C134.090403,48.9540943 136.895485,52.3709677 133,56" id="Path" stroke="#000000" stroke-width="0.3" stroke-linecap="round"></path>
                    <path d="M117,58 C117,59.7466667 117.498516,63.92 120,65" id="Path" stroke="#000000" stroke-width="0.3" stroke-linecap="round"></path>
                    <ellipse id="Oval" fill="#FF6E61" fill-rule="nonzero" cx="108.5" cy="56" rx="4.5" ry="2"></ellipse>
                    <ellipse id="Oval" fill="#FF6E61" fill-rule="nonzero" cx="140.5" cy="56" rx="4.5" ry="2"></ellipse>
                    <path d="M168,224.854046 C169.06077,222.403016 169.06077,206.18799 168,176.208968 L194.708958,169 C197.529425,173.880751 218,224.377875 218,224.377875 L172.231779,243" id="Path" stroke="#1F2A3B" fill="#FFF3EE" fill-rule="nonzero"></path>
                    <path d="M408,349.974326 C408.663,350.987945 417.517252,361.871015 420.65046,361.999051 C423.783668,362.127087 442.807479,349.259458 441.973383,346.496012 C441.139287,343.732566 429.205294,345.525071 427.152134,344.5648 C425.098974,343.60453 420.532831,339.037908 419.80567,337" id="Path" fill="#000000" fill-rule="nonzero"></path>
                    <path d="M361.527376,431 C361.307057,432.191247 360.121528,446.239377 362.251283,448.514552 C364.381038,450.789727 386.591339,454.739086 387.881781,452.152685 C389.172224,449.566284 379.488659,442.558317 378.743769,440.433389 C377.998879,438.308462 376.882909,435.566319 377.785169,433.548711" id="Path" fill="#000000" fill-rule="nonzero"></path>
                    <rect id="Rectangle" fill="#FF6E61" fill-rule="nonzero" x="205" y="222" width="19" height="3"></rect>
                    <polygon id="Path" fill="#FF6E61" fill-rule="nonzero" points="235 220 261.921691 148 375 148 348.078309 220"></polygon>
                    <polygon id="Path" stroke="#1F2A3B" fill-rule="nonzero" points="339.078309 225 226 225 252.921691 153 366 153"></polygon>
                    <rect id="Rectangle" fill="#FF6E61" fill-rule="nonzero" x="138" y="222" width="31" height="3"></rect>
                    <path d="M62.0802955,191.964668 C60.1511182,199.246213 50.7397168,230.3027 54.6193885,235.643215 C58.4990602,240.98373 153.99867,228.844247 179.568264,220.844198 C186.08057,218.699413 190.908843,213.069353 193.79728,212.35085 C201.458039,211.050567 208.866036,215.751729 211,223.267805 C200.789216,228.243707 50.5894618,305.19468 2.81833986,271.489383 C-6.20935765,265.022856 9.27536508,185.010748 9.98948047,181 C18.0579185,182.008049 62.0802955,191.964668 62.0802955,191.964668 Z" id="Path" stroke="#1F2A3B" fill="#FFEFE9" fill-rule="nonzero"></path>
                    <path d="M171,223.576214 C173.810959,222.898157 176.267945,222.241289 178.287671,221.60561 C184.648767,219.486681 189.364932,213.924492 192.186301,213.21465 C199.67278,211.924128 206.9152,216.569865 209,224" id="Path"></path>
                </g>
                <g id="Group-5" transform="translate(379.000000, 85.000000)">
                    <g id="MOVIE-POSTER" transform="translate(0.000000, 0.000000)">
                        <polygon id="Rectangle" fill="#C2CAFF" points="1.10208717e-13 1 181 1 181 231.921724 0 232"></polygon>
                        <g id="Group-3">
                            <polygon id="Rectangle-Copy-2" fill="#EAEDFF" points="48.2031122 1 181 0 181 117 84.0616406 232 0 232 0 120"></polygon>
                            <text id="ARCHIPEL-MARKET" transform="translate(22.000000, 35.500000) rotate(90.000000) translate(-22.000000, -35.500000) " font-family="Montserrat-SemiBold, Montserrat" font-size="5" font-weight="500" letter-spacing="-0.0694444444" fill="#5A6FFD">
                                <tspan x="-8" y="37">ARCHIPEL MARKET</tspan>
                            </text>
                        </g>
                        <g id="Group" transform="translate(4.000000, 6.000000)">
                            <rect id="Rectangle" fill="#5A6FFD" x="0" y="0" width="12" height="9"></rect>
                            <rect id="Rectangle" fill="#5A6FFD" x="0" y="15" width="12" height="9"></rect>
                            <rect id="Rectangle-Copy-3" fill="#5A6FFD" x="0" y="30" width="12" height="9"></rect>
                            <rect id="Rectangle-Copy-4" fill="#5A6FFD" x="0" y="45" width="12" height="9"></rect>
                            <rect id="Rectangle-Copy-5" fill="#5A6FFD" x="0" y="60" width="12" height="9"></rect>
                            <rect id="Rectangle-Copy-6" fill="#5A6FFD" x="0" y="75" width="12" height="9"></rect>
                            <polygon id="Rectangle-Copy-7" fill="#5A6FFD" points="0 90 7.90180698 90 4.03547868 99 0 99"></polygon>
                            <polygon id="Rectangle-Copy-7" fill="#8595FE" transform="translate(7.950903, 94.500000) scale(-1, -1) translate(-7.950903, -94.500000) " points="4 90 11.901807 90 8.03547868 99 4 99"></polygon>
                        </g>
                        <g id="Group" opacity="0.69796317" transform="translate(4.000000, 111.000000)" fill="#5A6FFD">
                            <rect id="Rectangle" x="0" y="0" width="12" height="9"></rect>
                            <rect id="Rectangle" x="0" y="15" width="12" height="9"></rect>
                            <rect id="Rectangle-Copy-3" x="0" y="30" width="12" height="9"></rect>
                            <rect id="Rectangle-Copy-4" x="0" y="45" width="12" height="9"></rect>
                            <rect id="Rectangle-Copy-5" x="0" y="60" width="12" height="9"></rect>
                            <rect id="Rectangle-Copy-6" x="0" y="75" width="12" height="9"></rect>
                            <rect id="Rectangle-Copy-7" x="0" y="90" width="12" height="9"></rect>
                            <rect id="Rectangle-Copy-6" x="0" y="105" width="12" height="9"></rect>
                        </g>
                        <g id="Group" transform="translate(170.000000, 175.500000) rotate(180.000000) translate(-170.000000, -175.500000) translate(164.000000, 126.000000)" fill="#5A6FFD">
                            <rect id="Rectangle" x="0" y="0" width="12" height="9"></rect>
                            <rect id="Rectangle" x="0" y="15" width="12" height="9"></rect>
                            <rect id="Rectangle-Copy-3" x="0" y="30" width="12" height="9"></rect>
                            <rect id="Rectangle-Copy-4" x="0" y="45" width="12" height="9"></rect>
                            <rect id="Rectangle-Copy-5" x="0" y="60" width="12" height="9"></rect>
                            <rect id="Rectangle-Copy-6" x="0" y="75" width="12" height="9"></rect>
                            <polygon id="Rectangle-Copy-7" points="-3.32030762e-12 90 12 90 12 99 -3.32030762e-12 99"></polygon>
                        </g>
                        <g id="Group" opacity="0.69796317" transform="translate(170.000000, 63.000000) rotate(180.000000) translate(-170.000000, -63.000000) translate(164.000000, 6.000000)" fill="#5A6FFD">
                            <rect id="Rectangle" x="0" y="0" width="12" height="9"></rect>
                            <rect id="Rectangle" x="0" y="15" width="12" height="9"></rect>
                            <rect id="Rectangle-Copy-3" x="0" y="30" width="12" height="9"></rect>
                            <rect id="Rectangle-Copy-4" x="0" y="45" width="12" height="9"></rect>
                            <rect id="Rectangle-Copy-5" x="0" y="60" width="12" height="9"></rect>
                            <rect id="Rectangle-Copy-6" x="0" y="75" width="12" height="9"></rect>
                            <rect id="Rectangle-Copy-7" x="0" y="90" width="12" height="9"></rect>
                            <rect id="Rectangle-Copy-6" x="0" y="105" width="12" height="9"></rect>
                        </g>
                        <polygon id="Path-2" fill="#5A6FFD" points="173.766148 120 176 117.162793 176 120"></polygon>
                        <polygon id="Path-3" fill="#8595FE" points="164 131.974013 164 126 168.886828 126"></polygon>
                    </g>
                </g>
                <g id="My-Project" transform="translate(405.791000, 237.657053)" fill-rule="nonzero">
                    <path d="M17.94,24.6549474 C19.851,19.1949474 23.712,11.4729474 26.403,6.44194739 C26.91,5.38894739 27.339,4.29694739 27.339,3.24394739 C27.339,2.30794739 26.988,1.37194739 26.208,0.55294739 C25.467,-0.14905261 24.96,-0.11005261 24.453,0.70894739 C20.124,7.57294739 15.951,11.3949474 11.856,17.5959474 C13.26,12.3699474 14.04,9.99094739 15.249,6.48094739 C15.6,5.34994739 15.795,4.37494739 15.795,3.67294739 C15.795,2.42494739 15.249,1.41094739 14.196,0.51394739 C13.455,-0.0710526102 12.831,0.16294739 12.363,0.78694739 C8.268,6.28594739 2.145,16.5039474 0.546,20.4039474 C0.195,21.2619474 -2.55795385e-13,22.1199474 -2.55795385e-13,22.8609474 C-2.55795385e-13,23.7189474 0.273,24.3819474 0.702,24.8109474 C1.209,25.3179474 1.794,25.2009474 2.028,24.6549474 C4.134,19.8189474 7.605,14.2029474 10.647,9.52294739 C9.321,13.8129474 8.19,18.2199474 7.917,19.9749474 C7.839,20.4819474 7.8,20.9109474 7.8,21.3399474 C7.8,22.9779474 8.463,24.0309474 9.516,24.8499474 C10.101,25.2789474 10.452,25.2789474 10.881,24.4989474 C13.182,20.3259474 16.965,15.0609474 20.397,10.6539474 C18.486,14.5539474 16.575,18.6489474 16.107,20.4819474 L16.107,20.4429474 C15.873,21.3009474 15.795,22.0419474 15.795,22.6659474 C15.795,23.7969474 16.224,24.4599474 16.692,24.8889474 C17.316,25.4349474 17.667,25.4349474 17.94,24.6549474 Z M23.166,38.3439474 C26.559,37.0569474 29.211,30.8169474 31.356,25.6689474 C34.554,24.3429474 37.128,22.8999474 38.688,20.5209474 C39.351,19.5069474 39.429,18.4929474 39.234,17.8689474 C39.078,17.3619474 38.493,17.4399474 37.986,18.1419474 C36.738,19.8969474 34.71,21.8859474 32.331,23.3289474 C33.93,19.6239474 35.958,15.8409474 37.089,13.6569474 C37.596,12.6819474 37.791,11.8239474 37.791,11.0439474 C37.791,10.2249474 37.635,9.63994739 37.05,9.05494739 C36.621,8.62594739 36.114,8.70394739 35.568,9.40594739 C34.632,10.8099474 33.579,13.1889474 30.966,17.5959474 C29.055,20.8329474 27.3,23.1339474 26.286,23.1339474 C25.272,23.1339474 25.623,21.5739474 26.169,20.1699474 C26.91,18.3369474 27.729,16.7379474 29.055,14.6319474 C29.952,13.1889474 30.42,12.0579474 30.42,11.0829474 C30.42,10.4589474 30.069,9.75694739 29.679,9.21094739 C29.25,8.58694739 28.665,8.62594739 28.158,9.28894739 C25.74,12.6039474 23.829,16.5429474 22.932,18.9999474 C22.581,19.9749474 22.425,20.9109474 22.425,21.7299474 C22.425,23.3679474 23.283,24.8499474 25.233,24.8499474 C26.403,24.8499474 27.417,24.4989474 28.431,23.7579474 L27.846,25.1229474 C24.063,26.6439474 20.904,29.0229474 19.695,32.3769474 C19.461,33.0789474 19.344,33.7419474 19.344,34.2099474 C19.344,35.4579474 19.929,36.6279474 20.514,37.4469474 C21.45,38.6949474 22.269,38.6949474 23.166,38.3439474 Z M21.957,35.9259474 C21.567,35.5749474 21.84,33.9759474 22.815,32.1429474 C23.634,30.6219474 24.96,28.9449474 26.832,27.6579474 C25.896,29.7639474 24.96,31.6749474 24.141,33.1179474 C23.049,35.0289474 22.23,36.1599474 21.957,35.9259474 Z M48.009,24.3429474 C49.257,21.3399474 50.505,18.8439474 51.558,16.8159474 C52.182,17.0499474 53.001,17.1279474 54.171,16.9719474 C59.046,16.3089474 63.18,13.1109474 65.13,10.0689474 C66.495,8.00194739 67.236,6.05194739 66.339,3.32194739 C65.403,0.47494739 63.492,-0.0710526102 61.347,0.00694738985 C59.865,0.0849473898 58.5,0.43594739 57.096,0.94294739 C55.653,1.44994739 54.171,1.95694739 52.689,2.07394739 C51.831,2.15194739 51.675,2.50294739 51.948,3.08794739 C52.299,3.86794739 52.962,4.53094739 54.21,4.80394739 C50.856,10.1079474 47.346,17.1279474 46.371,20.4819474 C46.176,21.1839474 46.098,21.8859474 46.098,22.4319474 C46.098,23.4069474 46.41,24.0309474 46.839,24.4989474 C47.385,25.0449474 47.697,25.0449474 48.009,24.3429474 Z M53.079,13.8909474 C55.302,9.99094739 55.692,9.28894739 56.043,8.70394739 C56.94,7.06594739 57.486,5.50594739 57.525,4.53094739 C58.071,4.37494739 58.383,4.25794739 59.007,4.02394739 C60.333,3.55594739 61.776,3.04894739 62.673,3.04894739 C63.18,3.04894739 63.765,3.32194739 63.921,3.82894739 C64.623,6.44194739 60.84,12.1359474 53.079,13.8909474 Z M63.531,25.3959474 C64.077,22.7049474 66.3,19.1169474 69.225,14.0469474 C70.083,14.0079474 71.058,13.8519474 72.072,13.4229474 C70.122,15.8019474 68.055,18.8049474 68.055,21.3009474 C68.055,23.4069474 69.342,25.0839474 71.721,25.0839474 C73.944,25.0839474 76.245,23.4069474 77.181,21.1839474 C77.61,20.1309474 77.571,19.1949474 77.298,18.6489474 C76.947,17.9469474 76.401,17.9859474 76.089,18.6879474 C74.88,21.3789474 73.32,23.5629474 71.994,23.5629474 C71.448,23.5629474 71.136,22.9389474 71.136,21.9249474 C71.136,19.6239474 73.359,16.5429474 75.465,14.1249474 C75.894,13.6179474 76.089,13.0719474 76.089,12.6039474 C76.089,11.6679474 75.504,10.6539474 74.958,10.1079474 C74.451,9.60094739 74.061,9.67894739 73.398,10.1469474 C72.228,11.0049474 71.175,11.5509474 70.239,11.7849474 C70.668,10.5369474 70.941,9.40594739 70.941,8.66494739 C70.941,7.76794739 70.59,7.29994739 69.771,7.29994739 C68.562,7.29994739 66.066,10.0689474 66.066,12.0579474 C66.066,12.5649474 66.339,13.0719474 66.807,13.5009474 C64.662,16.1529474 62.673,19.3509474 62.01,20.5989474 C61.464,21.6129474 61.191,22.5489474 61.191,23.4069474 C61.191,24.2649474 61.503,25.0839474 62.166,25.7079474 C62.868,26.4489474 63.375,26.0979474 63.531,25.3959474 Z M80.964,24.9279474 C81.549,24.9279474 82.017,24.8109474 82.368,24.6939474 C85.332,23.6799474 87.828,19.8579474 88.647,16.6209474 C89.076,16.5429474 89.388,16.3869474 89.661,16.0749474 C89.973,15.6849474 89.895,15.3339474 88.881,15.3339474 C89.232,12.0189474 88.14,11.7459474 87.048,10.4589474 C86.307,9.44494739 85.605,9.01594739 84.474,9.01594739 C81.9,9.01594739 79.443,10.9659474 77.688,14.0859474 C76.674,15.9189474 76.05,17.8299474 76.05,19.5459474 C76.05,20.7939474 76.401,21.9639474 77.142,22.9389474 C78.234,24.3819474 79.677,24.9279474 80.964,24.9279474 Z M85.956,14.5539474 C85.527,14.0469474 85.332,13.0329474 85.332,12.3309474 C85.332,11.7069474 85.683,11.3949474 85.917,11.3949474 C86.19,11.3949474 86.502,11.6289474 86.502,12.2139474 C86.502,12.7209474 86.346,13.6569474 85.956,14.5539474 Z M80.028,22.9389474 C79.443,22.9389474 79.092,22.4709474 79.092,21.3009474 C79.092,19.8579474 79.716,17.6739474 80.73,15.8019474 C81.393,14.6319474 82.134,13.6569474 82.953,12.8769474 C83.265,14.2419474 84.084,15.2559474 85.332,16.0359474 C85.098,16.8549474 84.63,17.8299474 84.045,18.8439474 C82.602,21.4959474 81.042,22.9389474 80.028,22.9389474 Z" id="MyPro" fill="#8595FE"></path>
                    <path d="M98.787,8.97694739 C99.138,8.58694739 99.411,8.04094739 99.411,7.45594739 C99.411,7.10494739 99.333,6.67594739 99.099,6.24694739 L99.099,6.28594739 C98.514,4.95994739 97.071,4.45294739 96.252,5.38894739 C95.823,5.81794739 95.589,6.36394739 95.589,6.98794739 C95.589,7.41694739 95.706,7.92394739 95.979,8.39194739 C96.681,9.67894739 98.124,9.75694739 98.787,8.97694739 Z M81.627,39.3969474 C84.747,37.9929474 87.672,31.5969474 89.817,26.6049474 C93.21,25.1229474 96.33,23.2899474 97.773,20.6769474 C98.358,19.6239474 98.475,18.6489474 98.358,18.2589474 C98.085,17.4009474 97.422,17.5179474 96.993,18.1809474 C95.55,20.2869474 93.678,22.4709474 90.87,24.1479474 C91.767,22.1589474 92.898,19.8969474 93.912,17.8689474 C94.77,16.1919474 95.472,14.7099474 95.901,13.7739474 C96.369,12.8379474 96.525,11.9409474 96.525,11.1999474 C96.525,10.4199474 96.33,9.79594739 95.94,9.36694739 C95.394,8.82094739 94.887,8.85994739 94.38,9.63994739 C92.313,12.8379474 88.842,19.8969474 86.346,25.9809474 C82.524,27.4629474 79.17,29.8809474 78.039,33.2739474 C77.805,33.9759474 77.688,34.5609474 77.688,34.9899474 C77.688,36.2769474 78.39,37.7199474 78.936,38.5389474 C79.794,39.7089474 80.769,39.7479474 81.627,39.3969474 Z M79.989,37.0179474 C79.56,36.4719474 80.067,34.4829474 81.51,32.2989474 C82.446,30.8559474 83.811,29.3349474 85.605,28.1259474 C84.591,30.0369474 83.694,31.7919474 82.914,33.1959474 C81.393,35.9259474 80.34,37.4859474 79.989,37.0179474 Z M102.18,24.9669474 C105.222,24.9279474 108.342,23.0949474 109.98,20.7159474 C110.682,19.6629474 110.643,18.5319474 110.526,18.1809474 C110.214,17.4009474 109.707,17.4789474 109.278,18.1029474 C107.679,20.5209474 105.066,23.4069474 102.102,23.4069474 C100.932,23.4069474 100.23,22.1979474 100.23,20.4819474 C100.23,19.7799474 100.347,18.9609474 100.581,18.1809474 C101.478,18.7659474 102.414,19.0389474 103.35,19.0389474 C106.782,19.0389474 109.395,14.9439474 109.395,12.6039474 C109.395,12.0969474 109.239,11.5119474 109.005,11.1609474 C108.459,10.3809474 107.679,9.75694739 106.587,9.13294739 C106.197,8.89894739 105.768,8.82094739 105.222,8.82094739 C102.96,8.82094739 99.801,10.8879474 97.773,15.0219474 C96.954,16.5819474 96.564,18.1029474 96.564,19.5069474 C96.564,22.6269474 98.553,25.0059474 102.18,24.9669474 Z M101.985,16.9719474 C101.712,16.9719474 101.439,16.8939474 101.127,16.6989474 C102.999,12.9549474 105.885,10.5759474 106.47,11.0439474 C106.899,11.3949474 106.08,13.2279474 104.949,14.7489474 C104.169,15.8019474 102.921,16.9719474 101.985,16.9719474 Z" id="je" fill="#8595FE"></path>
                    <path d="M114.543,24.9279474 C117.585,24.8889474 120.744,22.9779474 122.226,20.6379474 C122.928,19.5459474 122.928,18.5319474 122.733,18.0249474 C122.499,17.3619474 121.914,17.5179474 121.563,18.1029474 C120.003,20.4429474 117.312,23.4459474 114.387,23.4069474 C113.334,23.3679474 112.632,22.3149474 112.632,20.5989474 C112.632,19.4289474 113.022,17.8299474 113.802,16.2309474 C115.362,13.0719474 117.897,10.5369474 118.365,10.9269474 C118.521,11.0829474 118.248,11.7849474 117.858,12.5649474 C117.156,14.1639474 116.961,14.9439474 116.961,15.4509474 C116.961,16.5039474 117.624,17.2449474 118.326,17.6739474 C119.106,18.0639474 119.457,17.9859474 119.73,17.2449474 C119.886,16.8159474 120.12,16.2309474 120.432,15.6459474 C121.173,14.1249474 121.797,12.6819474 121.212,11.3949474 C120.588,10.2249474 118.95,8.89894739 117.507,8.89894739 C115.245,8.89894739 112.164,11.0049474 110.175,15.0219474 C109.356,16.5819474 108.966,18.1419474 108.966,19.5459474 C108.966,22.6659474 110.955,24.9669474 114.543,24.9279474 Z M124.878,24.9279474 C128.154,24.9279474 130.767,21.5739474 131.313,20.4039474 C131.742,19.5069474 131.898,18.9219474 131.703,18.1029474 C131.43,17.0499474 130.533,17.1279474 130.104,18.0639474 C128.739,20.9889474 126.711,23.4459474 125.19,23.4459474 C124.527,23.4459474 124.137,22.6269474 124.137,21.4569474 C124.137,20.5989474 124.371,19.5849474 124.839,18.5319474 C126.204,15.5679474 128.427,11.7069474 129.909,9.17194739 C130.767,9.05494739 131.781,8.97694739 132.483,9.05494739 C133.419,9.17194739 133.692,8.70394739 133.302,8.00194739 C133.029,7.53394739 132.366,6.90994739 131.157,6.75394739 C131.625,5.66194739 131.781,4.76494739 131.781,4.06294739 C131.781,3.59494739 131.625,2.93194739 131.352,2.46394739 C130.923,1.72294739 130.455,1.68394739 129.87,2.54194739 C128.973,3.82894739 128.154,5.11594739 126.945,7.22194739 C126.087,7.29994739 125.034,7.33894739 124.137,7.29994739 C123.24,7.26094739 122.85,7.65094739 123.396,8.46994739 C123.708,8.93794739 124.41,9.36694739 125.619,9.52294739 C124.059,12.3309474 122.577,15.4119474 121.797,17.3229474 C121.251,18.6099474 121.017,19.7019474 121.017,20.5599474 C121.017,23.2509474 122.811,24.9279474 124.878,24.9279474 Z" id="ct" fill="#5A6FFD"></path>
                </g>
                <g id="Group-11" transform="translate(421.000000, 111.000000)">
                    <mask id="mask-2" fill="white">
                        <use xlink:href="#path-1"></use>
                    </mask>
                    <use id="Mask" fill="#FFFFFF" xlink:href="#path-1"></use>
                    <g mask="url(#mask-2)">
                        <g transform="translate(7.000000, 32.000000)">
                            <g id="Group-2">
                                <path d="M31.181615,29.3288708 C31.181615,29.3288708 35.0917203,29.5458129 38.0074676,27.8970526 C40.7695729,26.3350691 41.2149624,23.8879617 40.2516782,19.0458129 C40.2516782,19.0458129 41.9779939,18.0044906 41.8053624,16.9631683 C41.6931518,16.2776311 39.7337834,15.5747385 39.7337834,15.5747385 C39.4886466,14.2522592 39.1779097,12.2529204 38.6738255,10.2084575 C37.412792,10.4576982 36.1316803,10.5901536 34.8465834,10.60416 C30.9934466,14.9620939 26.786415,15.2276311 26.786415,15.2276311 C26.1771518,14.312569 25.3506629,13.5645767 24.3816571,13.0512675 L18.6347518,15.3543253 C18.579977,15.5409881 18.5350304,15.7304246 18.5000992,15.921846 C17.700815,20.4776311 23.3337834,22.1697799 23.3337834,22.1697799 C22.1978676,26.5329204 18.5000992,28.24416 15.7241834,28.9158129 L15.9589624,31.0834989 L31.471636,31.0834989 L31.181615,29.3288708 Z" id="Path" fill="#EAEDFF" fill-rule="nonzero"></path>
                                <path d="M23.3337834,22.1697799 C23.3337834,22.1697799 17.700815,20.4776311 18.5000992,15.921846 C18.5350304,15.7304246 18.579977,15.5409881 18.6347518,15.3543253 L14.448436,17.0256476 C14.448436,17.1453997 14.4674255,17.2582096 14.4760571,17.3727551 L15.7241834,28.9158129 C18.5052782,28.24416 22.1978676,26.5329204 23.3337834,22.1697799 Z" id="Path" fill="#5A6FFD" fill-rule="nonzero"></path>
                                <path d="M26.786415,15.2276311 C26.786415,15.2276311 30.9934466,14.9620939 34.8465834,10.60416 C36.1316803,10.5901536 37.412792,10.4576982 38.6738255,10.2084575 C38.4597624,9.34068895 38.2094466,8.46424267 37.9125203,7.62597821 L24.3816571,13.0512675 C25.3506629,13.5645767 26.1771518,14.312569 26.786415,15.2276311 Z" id="Path" fill="#5A6FFD" fill-rule="nonzero"></path>
                                <path d="M24.3816571,13.0512675 L37.9125203,7.62597821 C37.441236,6.29135011 36.8542887,5.05738316 36.1085203,4.12019308 C33.2186676,0.487713743 26.1235097,-2.14856725 19.860436,2.45234184 C13.830415,6.88316829 14.1981203,13.9242427 14.448436,17.0308542 L18.6347518,15.3525898 C19.4029624,12.7232509 22.0079729,11.8398625 24.3816571,13.0512675 Z" id="Path" fill="#5A6FFD" fill-rule="nonzero"></path>
                                <path d="M40.5123518,38.7198625 L40.1014887,35.148127 C35.347215,33.7544906 31.9118466,33.6868047 31.9118466,33.6868047 L31.4802676,31.0834989 L15.9589624,31.0834989 L16.2023729,33.3396972 C14.6643113,33.3351557 13.1288476,33.4669887 11.6138255,33.7336642 L13.7855308,38.7198625 L40.5123518,38.7198625 Z" id="Path" fill="#FFFFFF" fill-rule="nonzero"></path>
                                <path d="M11.6138255,33.7336642 C8.41150973,34.285565 4.30460447,35.5958956 1.93264657,38.7198625 C0.877867625,40.1082923 0.164899204,41.8438294 0.0336992041,44.0375485 C-0.35817448,50.3566394 3.67674077,70.9557025 7.41766709,78.446281 C9.1827429,81.8518942 12.5730488,83.6578429 17.5885847,83.8641272 C22.6041207,84.0704116 34.4943571,80.1590298 53.2592939,72.1299818 C55.2118863,54.8124347 53.3141478,43.5038565 47.5660782,38.2042474 C44.0595992,34.9713415 32.075515,33.4811471 11.6138255,33.7336642 Z" id="Path" fill="#C2CAFF" fill-rule="nonzero"></path>
                            </g>
                            <g id="Group-8" transform="translate(31.000000, 0.000000)">
                                <path d="M50.327602,32.934362 C50.1692244,32.3817932 59.7519383,38.2944538 57.8113778,40.2554629 C55.9804634,42.0961969 51.1247112,35.7268391 50.327602,32.934362 Z" id="Path" fill="#EAEDFF" fill-rule="nonzero"></path>
                                <path d="M50.4041802,33.2777565 C50.0909059,32.6031694 58.3526463,24.1542703 59.7362746,26.5092244 C61.0659501,28.7752795 50.7174545,33.9506006 50.4041802,33.2777565 Z" id="Path" fill="#EAEDFF" fill-rule="nonzero"></path>
                                <path d="M40.9102274,34.4648207 C38.6476905,33.767573 33.7745342,33.4189492 30.9898734,33.0703253 C25.0724693,29.9327106 26.638841,21.7400501 26.638841,21.7400501 C26.9869236,21.5657382 32.6519678,20.5355547 31.8705224,16.1045455 C31.1743572,12.0953712 26.4630593,12.0953712 23.8768056,14.9261969 C23.8768056,14.9261969 20.1993129,13.3730776 19.1550652,8.31803175 C19.1550652,8.31803175 16.0501684,8.6753712 13.8972775,8.1053712 C13.4291065,10.17794 13.3124988,12.4492244 12.8895784,14.767573 C12.8895784,14.767573 10.6270416,14.941885 10.4530003,15.8134446 C10.278959,16.7338116 12.0681035,17.821518 12.0681035,17.821518 C10.8498144,22.2525272 11.0238557,26.268674 13.7597849,27.8409675 C16.1963631,29.2354629 19.1550652,28.7125272 19.1550652,28.7125272 L18.8069826,32.8960134 C15.7592088,33.0113054 12.7551364,33.6602501 9.93087637,34.8134446 C4.15444569,37.1701418 7.1462156,58.1712428 7.1462156,58.1712428 L5.23176132,75.6024354 L40.0400209,75.6024354 L47.8718793,38.4739951 C47.8718793,38.4739951 47.9049472,38.4391327 47.9641212,38.371151 C45.5171006,36.251518 42.5705814,34.9755547 40.9102274,34.4648207 Z" id="Path" fill="#C2CAFF" fill-rule="nonzero"></path>
                                <path d="M35.8104673,31.0413345 L17.5952887,31.0413345 L6.04372579,36.7410401 C-1.96749185,43.7471686 6.86317428,71.5638247 0.0402942471,75.6024354 C-0.402385947,75.8644674 12.4674641,75.073798 38.6498442,73.2304271 C39.0866473,72.7637207 48.6602817,37.5134956 49.0292539,36.9958299 L49.0292539,36.9452795 L35.8104673,31.0413345 Z" id="Path" fill="#EAEDFF" fill-rule="nonzero"></path>
                                <path d="M19.1550652,8.31803175 C20.1993129,13.3730776 23.8768056,14.9261969 23.8768056,14.9261969 C26.4630593,12.1006006 31.1656551,12.1006006 31.8705224,16.1045455 C32.6519678,20.5355547 26.9869236,21.5657382 26.638841,21.7400501 C26.638841,21.7400501 25.0724693,29.9327106 30.9898734,33.0703253 C33.7745342,33.4189492 38.6476905,33.767573 40.9102274,34.4648207 C42.5705814,34.9755547 45.5171006,36.251518 47.9641212,38.371151 C48.8343277,37.3880317 55.4583395,29.3993162 49.2642097,21.5657382 C44.9636492,16.1237198 37.8958321,17.0562886 37.8958321,17.0562886 C38.1307879,14.2289492 38.5919973,6.92876569 32.488369,2.45417854 C26.3847407,-2.02040862 18.6137967,0.334545511 15.7925873,3.86784826 C14.7848882,5.12812349 14.2436197,6.56271065 13.8972775,8.1053712 C16.0501684,8.6753712 19.1550652,8.31803175 19.1550652,8.31803175 Z" id="Path" fill="#5A6FFD" fill-rule="nonzero"></path>
                                <path d="M40.9102274,34.4648207 L40.8562746,62.5917932 C40.8562746,62.5917932 39.1010888,75.6504089 39.1010888,75.6504089 C39.1010888,75.6504089 53.9734914,77.5975175 56.6348587,70.5076952 C60.100563,61.2751372 51.3244868,42.152049 48.5680445,38.9969308 C45.5432068,35.5333528 40.9102274,34.4648207 40.9102274,34.4648207 Z" id="Path" fill="#EAEDFF" fill-rule="nonzero"></path>
                                <path d="M51.1682215,46.7119767 L50.8410239,52.54794 L47.9710829,47.2523437 L42.8194604,49.3859217 L46.7266876,44.0484905 L43.7175135,39.1154629 L48.7942982,40.8585822 L49.3842982,40.1055547 C49.134285,39.7184568 48.8592946,39.3481272 48.5610829,38.9969308 C45.5362451,35.5333528 40.9032657,34.4648207 40.9032657,34.4648207 L40.8632362,55.3648207 L40.9032657,59.4853625 L56.6348587,56.377573 C55.515404,52.9762133 54.2104534,49.6389342 52.7258911,46.380784 L51.1682215,46.7119767 Z" id="Path" fill="#EAEDFF" fill-rule="nonzero"></path>
                            </g>
                        </g>
                    </g>
                </g>
            </g>
        </g>
    </g>
</svg>