<svg xmlns="http://www.w3.org/2000/svg" width="170" height="170" viewBox="0 0 170 170">
  <defs>
    <filter id="sales_statistics-a" width="319.4%" height="307.6%" x="-109.7%" y="-103.8%" filterUnits="objectBoundingBox">
      <feGaussianBlur in="SourceGraphic" stdDeviation="4"/>
    </filter>
    <filter id="sales_statistics-b" width="319.4%" height="307.6%" x="-109.7%" y="-103.8%" filterUnits="objectBoundingBox">
      <feGaussianBlur in="SourceGraphic" stdDeviation="4"/>
    </filter>
    <filter id="sales_statistics-c" width="868%" height="152.8%" x="-384%" y="-26.4%" filterUnits="objectBoundingBox">
      <feGaussianBlur in="SourceGraphic" stdDeviation="4"/>
    </filter>
    <filter id="sales_statistics-d" width="868%" height="170.8%" x="-384%" y="-35.4%" filterUnits="objectBoundingBox">
      <feGaussianBlur in="SourceGraphic" stdDeviation="4"/>
    </filter>
  </defs>
  <g fill="none" transform="translate(35 35)">
    <g fill="#8DA4FA" transform="translate(8 6.688)">
      <path d="M0,10 L0,1.5625 C0,0.625 0.625,0 1.5625,0 L9.375,0 C10.3125,0 10.9375,0.625 10.9375,1.5625 L10.9375,10 C10.9375,10.9375 10.3125,11.5625 9.375,11.5625 L1.5625,11.5625 C0.625,11.5625 0,10.9375 0,10 Z" filter="url(#sales_statistics-a)"/>
      <path d="M0,25.9375 L0,17.5 C0,16.5625 0.625,15.9375 1.5625,15.9375 L9.375,15.9375 C10.3125,15.9375 10.9375,16.5625 10.9375,17.5 L10.9375,25.9375 C10.9375,26.71875 10.3125,27.5 9.375,27.5 L1.5625,27.5 C0.625,27.5 0,26.71875 0,25.9375 Z" filter="url(#sales_statistics-b)"/>
    </g>
    <path fill="#8DA4FA" d="M0 10L0 1.5625C0 .625.625 0 1.5625 0L9.375 0C10.3125 0 10.9375.625 10.9375 1.5625L10.9375 10C10.9375 10.9375 10.3125 11.5625 9.375 11.5625L1.5625 11.5625C.625 11.5625 0 10.9375 0 10zM0 25.9375L0 17.5C0 16.5625.625 15.9375 1.5625 15.9375L9.375 15.9375C10.3125 15.9375 10.9375 16.5625 10.9375 17.5L10.9375 25.9375C10.9375 26.71875 10.3125 27.5 9.375 27.5L1.5625 27.5C.625 27.5 0 26.71875 0 25.9375z" transform="translate(8 6.688)"/>
    <path stroke="#B1B8DB" stroke-width="2" d="M10 14.6875L10 6.25C10 5.3125 10.625 4.6875 11.5625 4.6875L19.375 4.6875C20.3125 4.6875 20.9375 5.3125 20.9375 6.25L20.9375 14.6875C20.9375 15.625 20.3125 16.25 19.375 16.25L11.5625 16.25C10.625 16.25 10 15.625 10 14.6875zM10 30.625L10 22.1875C10 21.25 10.625 20.625 11.5625 20.625L19.375 20.625C20.3125 20.625 20.9375 21.25 20.9375 22.1875L20.9375 30.625C20.9375 31.40625 20.3125 32.1875 19.375 32.1875L11.5625 32.1875C10.625 32.1875 10 31.40625 10 30.625z"/>
    <path fill="#B1B8DB" d="M28.4375 26.40625C28.4375 25.625 29.21875 24.84375 30 24.84375L50.46875 24.84375C51.25 24.84375 52.03125 25.625 52.03125 26.40625 52.03125 27.34375 51.25 27.96875 50.46875 27.96875L30 27.96875C29.21875 27.96875 28.4375 27.1875 28.4375 26.40625zM28.4375 10.46875C28.4375 9.6875 29.21875 8.90625 30 8.90625L50.46875 8.90625C51.25 8.90625 52.03125 9.6875 52.03125 10.46875 52.03125 11.25 51.25 12.03125 50.46875 12.03125L30 12.03125C29.21875 12.03125 28.4375 11.40625 28.4375 10.46875zM75.15625 29.84375C75.15625 29.0625 75.9375 28.28125 76.71875 28.28125L87.03125 28.4375C87.5 28.4375 87.8125 28.59375 88.125 28.90625 88.4375 29.21875 88.59375 29.6875 88.59375 30.15625L87.8125 40.78125C87.8125 41.5625 87.03125 42.1875 86.25 42.1875 85.3125 42.1875 84.6875 41.40625 84.6875 40.46875L85.15625 33.90625 52.5 61.875C52.1875 62.03125 51.875 62.1875 51.5625 62.1875 51.40625 62.1875 51.40625 62.1875 51.25 62.1875 50.78125 62.1875 50.46875 61.875 50.15625 61.40625L38.75 41.40625 15.625 59.84375C15 60.3125 13.90625 60.3125 13.4375 59.53125 12.8125 58.90625 12.96875 57.8125 13.59375 57.34375L38.125 37.65625C38.59375 37.5 39.0625 37.5 39.53125 37.5 40 37.65625 40.3125 37.8125 40.625 38.28125L51.875 58.28125 83.125 31.5625 76.5625 31.40625C75.78125 31.40625 75.15625 30.78125 75.15625 29.84375z"/>
    <path fill="#B1B8DB" d="M100,98.4227129 C100,99.2113565 99.375,100 98.4375,100 L1.5625,100 C0.78125,100 0,99.3690852 0,98.4227129 L0,1.57728707 C0,0.630914826 0.625,-2.77555756e-16 1.5625,-2.77555756e-16 C2.5,-2.77555756e-16 3.125,0.630914826 3.125,1.57728707 L3.125,96.8454259 L13.125,96.8454259 L13.125,77.7602524 C13.125,76.8138801 13.75,76.1829653 14.6875,76.1829653 C15.625,76.1829653 16.25,76.8138801 16.25,77.7602524 L16.25,96.8454259 L25.3125,96.8454259 L25.3125,71.2933754 C25.3125,70.5047319 26.09375,69.7160883 26.875,69.7160883 C27.65625,69.7160883 28.4375,70.5047319 28.4375,71.2933754 L28.4375,96.8454259 L37.5,96.8454259 L37.5,64.511041 C37.5,63.5646688 38.125,62.9337539 39.0625,62.9337539 C39.84375,62.9337539 40.625,63.5646688 40.625,64.511041 L40.625,96.8454259 L49.6875,96.8454259 L49.6875,77.7602524 C49.6875,76.8138801 50.46875,76.1829653 51.25,76.1829653 C52.03125,76.1829653 52.8125,76.8138801 52.8125,77.7602524 L52.8125,96.8454259 L61.875,96.8454259 L61.875,71.2933754 C61.875,70.5047319 62.65625,69.7160883 63.4375,69.7160883 C64.375,69.7160883 65,70.5047319 65,71.2933754 L65,96.8454259 L74.0625,96.8454259 L74.0625,64.511041 C74.0625,63.5646688 74.84375,62.9337539 75.625,62.9337539 C76.5625,62.9337539 77.1875,63.5646688 77.1875,64.511041 L77.1875,96.8454259 L86.25,96.8454259 L86.25,52.9968454 C86.25,52.0504732 86.875,51.4195584 87.8125,51.4195584 C88.75,51.4195584 89.375,52.0504732 89.375,52.9968454 L89.375,96.8454259 L98.4375,96.8454259 C99.375,96.8454259 100,97.4763407 100,98.4227129 Z"/>
    <g fill="#8DA4FA" transform="translate(37.5 51.42)">
      <path d="M48.75,45.4258675 L48.75,1.57728707 C48.75,0.630914826 49.375,3.97903932e-13 50.3125,3.97903932e-13 C51.25,3.97903932e-13 51.875,0.630914826 51.875,1.57728707 L51.875,45.4258675 L48.75,45.4258675 Z" filter="url(#sales_statistics-c)"/>
      <path d="M4.4408921e-16,45.4258675 L4.4408921e-16,13.0914826 C4.4408921e-16,12.1451104 0.625,11.5141956 1.5625,11.5141956 C2.34375,11.5141956 3.125,12.1451104 3.125,13.0914826 L3.125,45.4258675 L4.4408921e-16,45.4258675 Z" filter="url(#sales_statistics-d)"/>
    </g>
    <path fill="#8DA4FA" d="M48.75 45.4258675L48.75 1.57728707C48.75.630914826 49.375 3.97903932e-13 50.3125 3.97903932e-13 51.25 3.97903932e-13 51.875.630914826 51.875 1.57728707L51.875 45.4258675 48.75 45.4258675zM4.4408921e-16 45.4258675L4.4408921e-16 13.0914826C4.4408921e-16 12.1451104.625 11.5141956 1.5625 11.5141956 2.34375 11.5141956 3.125 12.1451104 3.125 13.0914826L3.125 45.4258675 4.4408921e-16 45.4258675z" transform="translate(37.5 51.42)"/>
  </g>
</svg>
