<svg xmlns="http://www.w3.org/2000/svg" width="100" height="100" viewBox="0 0 100 100">
  <defs>
    <filter id="seller_dashboard-a" width="831.4%" height="791.9%" x="-365.7%" y="-345.9%" filterUnits="objectBoundingBox">
      <feGaussianBlur in="SourceGraphic" stdDeviation="4"/>
    </filter>
    <filter id="seller_dashboard-b" width="831.4%" height="791.9%" x="-365.7%" y="-345.9%" filterUnits="objectBoundingBox">
      <feGaussianBlur in="SourceGraphic" stdDeviation="4"/>
    </filter>
    <filter id="seller_dashboard-c" width="2660%" height="276.1%" x="-1280%" y="-88.1%" filterUnits="objectBoundingBox">
      <feGaussianBlur in="SourceGraphic" stdDeviation="4"/>
    </filter>
    <filter id="seller_dashboard-d" width="2660%" height="335.9%" x="-1280%" y="-118%" filterUnits="objectBoundingBox">
      <feGaussianBlur in="SourceGraphic" stdDeviation="4"/>
    </filter>
    <filter id="seller_dashboard-e" width="202%" height="202%" x="-51%" y="-51%" filterUnits="objectBoundingBox">
      <feGaussianBlur in="SourceGraphic" stdDeviation="4"/>
    </filter>
    <filter id="seller_dashboard-f" width="235.7%" height="235.7%" x="-67.9%" y="-67.9%" filterUnits="objectBoundingBox">
      <feGaussianBlur in="SourceGraphic" stdDeviation="4"/>
    </filter>
  </defs>
  <g fill="none" fill-rule="evenodd" transform="translate(9 7)">
    <g transform="translate(0 18)">
      <path stroke="#B1B8DB" stroke-width="1.5" d="M2.05582487,-1.46168791e-13 L12.3766905,-1.46168791e-13 L12.3766905,-1.46168791e-13 L78.4958473,-1.46168791e-13 C79.6004168,-1.46371697e-13 80.4958473,0.8954305 80.4958473,2 L80.4958473,51.8465909 C80.4958473,52.9511604 79.6004168,53.8465909 78.4958473,53.8465909 L2.05582487,53.8465909 C0.951255374,53.8465909 0.055824874,52.9511604 0.055824874,51.8465909 L0.055824874,2 C0.055824874,0.8954305 0.951255374,-1.45965885e-13 2.05582487,-1.46168791e-13 Z"/>
      <path fill="#B1B8DB" fill-rule="nonzero" d="M60.6894751,6.00866932 C60.609601,6.36265447 60.5671455,6.73323079 60.5671455,7.11473696 C60.5671455,7.146216 60.5674343,7.17762047 60.5680088,7.20894721 L2.41168197e-13,7.23615674 L2.41168197e-13,6.03615683 Z M80,6 L80,7.19999991 L68.565,7.204 L68.5671455,7.11473696 C68.5671455,6.73179367 68.524407,6.35988156 68.4440144,6.00471746 L80,6 Z"/>
      <circle cx="4" cy="3.5" r="1" fill="#B1B8DB"/>
      <circle cx="8" cy="3.5" r="1" fill="#B1B8DB"/>
      <circle cx="12" cy="3.5" r="1" fill="#B1B8DB"/>
    </g>
    <g fill-rule="nonzero" transform="translate(6 33)">
      <g fill="#8DA4FA" transform="translate(2.4 2.006)">
        <path d="M4.4408921e-16,3 L4.4408921e-16,0.46875 C4.4408921e-16,0.1875 0.1875,0 0.46875,0 L2.8125,0 C3.09375,0 3.28125,0.1875 3.28125,0.46875 L3.28125,3 C3.28125,3.28125 3.09375,3.46875 2.8125,3.46875 L0.46875,3.46875 C0.1875,3.46875 4.4408921e-16,3.28125 4.4408921e-16,3 Z" filter="url(#seller_dashboard-a)"/>
        <path d="M4.4408921e-16,7.78125 L4.4408921e-16,5.25 C4.4408921e-16,4.96875 0.1875,4.78125 0.46875,4.78125 L2.8125,4.78125 C3.09375,4.78125 3.28125,4.96875 3.28125,5.25 L3.28125,7.78125 C3.28125,8.015625 3.09375,8.25 2.8125,8.25 L0.46875,8.25 C0.1875,8.25 4.4408921e-16,8.015625 4.4408921e-16,7.78125 Z" filter="url(#seller_dashboard-b)"/>
      </g>
      <path fill="#8DA4FA" d="M4.4408921e-16 3L4.4408921e-16.46875C4.4408921e-16.1875.1875 0 .46875 0L2.8125 0C3.09375 0 3.28125.1875 3.28125.46875L3.28125 3C3.28125 3.28125 3.09375 3.46875 2.8125 3.46875L.46875 3.46875C.1875 3.46875 4.4408921e-16 3.28125 4.4408921e-16 3zM4.4408921e-16 7.78125L4.4408921e-16 5.25C4.4408921e-16 4.96875.1875 4.78125.46875 4.78125L2.8125 4.78125C3.09375 4.78125 3.28125 4.96875 3.28125 5.25L3.28125 7.78125C3.28125 8.015625 3.09375 8.25 2.8125 8.25L.46875 8.25C.1875 8.25 4.4408921e-16 8.015625 4.4408921e-16 7.78125z" transform="translate(2.4 2.006)"/>
      <path fill="#B1B8DB" d="M8.53125 7.921875C8.53125 7.6875 8.765625 7.453125 9 7.453125L15.140625 7.453125C15.375 7.453125 15.609375 7.6875 15.609375 7.921875 15.609375 8.203125 15.375 8.390625 15.140625 8.390625L9 8.390625C8.765625 8.390625 8.53125 8.15625 8.53125 7.921875zM8.53125 3.140625C8.53125 2.90625 8.765625 2.671875 9 2.671875L15.140625 2.671875C15.375 2.671875 15.609375 2.90625 15.609375 3.140625 15.609375 3.375 15.375 3.609375 15.140625 3.609375L9 3.609375C8.765625 3.609375 8.53125 3.421875 8.53125 3.140625zM22.546875 8.953125C22.546875 8.71875 22.78125 8.484375 23.015625 8.484375L26.109375 8.53125C26.25 8.53125 26.34375 8.578125 26.4375 8.671875 26.53125 8.765625 26.578125 8.90625 26.578125 9.046875L26.34375 12.234375C26.34375 12.46875 26.109375 12.65625 25.875 12.65625 25.59375 12.65625 25.40625 12.421875 25.40625 12.140625L25.546875 10.171875 15.75 18.5625C15.65625 18.609375 15.5625 18.65625 15.46875 18.65625 15.421875 18.65625 15.421875 18.65625 15.375 18.65625 15.234375 18.65625 15.140625 18.5625 15.046875 18.421875L11.625 12.421875 4.6875 17.953125C4.5 18.09375 4.171875 18.09375 4.03125 17.859375 3.84375 17.671875 3.890625 17.34375 4.078125 17.203125L11.4375 11.296875C11.578125 11.25 11.71875 11.25 11.859375 11.25 12 11.296875 12.09375 11.34375 12.1875 11.484375L15.5625 17.484375 24.9375 9.46875 22.96875 9.421875C22.734375 9.421875 22.546875 9.234375 22.546875 8.953125z"/>
      <path fill="#B1B8DB" d="M30,29.5268139 C30,29.7634069 29.8125,30 29.53125,30 L0.46875,30 C0.234375,30 0,29.8107256 0,29.5268139 L0,0.47318612 C0,0.189274448 0.1875,-8.32667268e-17 0.46875,-8.32667268e-17 C0.75,-8.32667268e-17 0.9375,0.189274448 0.9375,0.47318612 L0.9375,29.0536278 L3.9375,29.0536278 L3.9375,23.3280757 C3.9375,23.044164 4.125,22.8548896 4.40625,22.8548896 C4.6875,22.8548896 4.875,23.044164 4.875,23.3280757 L4.875,29.0536278 L7.59375,29.0536278 L7.59375,21.3880126 C7.59375,21.1514196 7.828125,20.9148265 8.0625,20.9148265 C8.296875,20.9148265 8.53125,21.1514196 8.53125,21.3880126 L8.53125,29.0536278 L11.25,29.0536278 L11.25,19.3533123 C11.25,19.0694006 11.4375,18.8801262 11.71875,18.8801262 C11.953125,18.8801262 12.1875,19.0694006 12.1875,19.3533123 L12.1875,29.0536278 L14.90625,29.0536278 L14.90625,23.3280757 C14.90625,23.044164 15.140625,22.8548896 15.375,22.8548896 C15.609375,22.8548896 15.84375,23.044164 15.84375,23.3280757 L15.84375,29.0536278 L18.5625,29.0536278 L18.5625,21.3880126 C18.5625,21.1514196 18.796875,20.9148265 19.03125,20.9148265 C19.3125,20.9148265 19.5,21.1514196 19.5,21.3880126 L19.5,29.0536278 L22.21875,29.0536278 L22.21875,19.3533123 C22.21875,19.0694006 22.453125,18.8801262 22.6875,18.8801262 C22.96875,18.8801262 23.15625,19.0694006 23.15625,19.3533123 L23.15625,29.0536278 L25.875,29.0536278 L25.875,15.8990536 C25.875,15.615142 26.0625,15.4258675 26.34375,15.4258675 C26.625,15.4258675 26.8125,15.615142 26.8125,15.8990536 L26.8125,29.0536278 L29.53125,29.0536278 C29.8125,29.0536278 30,29.2429022 30,29.5268139 Z"/>
      <g fill="#8DA4FA" transform="translate(11.25 15.426)">
        <path d="M14.625,13.6277603 L14.625,0.47318612 C14.625,0.189274448 14.8125,2.93098879e-14 15.09375,2.93098879e-14 C15.375,2.93098879e-14 15.5625,0.189274448 15.5625,0.47318612 L15.5625,13.6277603 L14.625,13.6277603 Z" filter="url(#seller_dashboard-c)"/>
        <path d="M0,13.6277603 L0,3.92744479 C0,3.64353312 0.1875,3.45425868 0.46875,3.45425868 C0.703125,3.45425868 0.9375,3.64353312 0.9375,3.92744479 L0.9375,13.6277603 L0,13.6277603 Z" filter="url(#seller_dashboard-d)"/>
      </g>
      <path fill="#8DA4FA" d="M14.625 13.6277603L14.625.47318612C14.625.189274448 14.8125 2.93098879e-14 15.09375 2.93098879e-14 15.375 2.93098879e-14 15.5625.189274448 15.5625.47318612L15.5625 13.6277603 14.625 13.6277603zM0 13.6277603L0 3.92744479C0 3.64353312.1875 3.45425868.46875 3.45425868.703125 3.45425868.9375 3.64353312.9375 3.92744479L.9375 13.6277603 0 13.6277603z" transform="translate(11.25 15.426)"/>
    </g>
    <g fill="#8DA4FA" fill-rule="nonzero" transform="translate(52.714)">
      <path d="M13.1751648,12.8361376 C13.3391007,12.8361376 13.4782098,12.9531784 13.5065833,13.1147498 L13.5065833,13.1147498 L14.0626254,16.287461 C14.7463484,16.4750415 15.4024861,16.7485307 16.0184279,17.1008352 L16.0184279,17.1008352 L18.6295798,15.2218777 C18.7631718,15.1249348 18.9472056,15.1391216 19.0642463,15.2577387 L19.0642463,15.2577387 L21.0858596,17.2769875 C21.2017181,17.392846 21.2174812,17.5741213 21.1232969,17.7085014 L21.1232969,17.7085014 L19.2652254,20.359061 C19.6108307,20.9706679 19.8807732,21.6228648 20.0687477,22.3010707 L20.0687477,22.3010707 L23.2560397,22.8220401 C23.4183993,22.8496254 23.5378045,22.9903108 23.5385927,23.1542467 L23.5385927,23.1542467 L23.5385927,26.0124847 C23.5385927,26.1756324 23.4207638,26.3163178 23.2595864,26.3439031 L23.2595864,26.3439031 L20.0707181,26.9027038 C19.8847139,27.5813038 19.6159537,28.2346829 19.2687721,28.8486544 L19.2687721,28.8486544 L21.1536408,31.4668997 C21.2497955,31.6004916 21.2356087,31.7845254 21.1185679,31.9019603 L21.1185679,31.9019603 L19.098531,33.9239676 C18.9818843,34.0398261 18.8006091,34.0555892 18.6670171,33.962193 L18.6670171,33.962193 L16.0235509,32.1056979 C15.4091854,32.4580024 14.7538359,32.7330679 14.0697188,32.923407 L14.0697188,32.923407 L13.5069774,36.0988767 C13.4786038,36.2592659 13.3387066,36.3763066 13.1755589,36.3763066 L13.1755589,36.3763066 L10.3165328,36.3763066 C10.1522028,36.3763066 10.0115174,36.2565073 9.98472021,36.09533 L9.98472021,36.09533 L9.45862787,32.9344411 C8.77411672,32.7464666 8.11522056,32.4745537 7.49652021,32.1246136 L7.49652021,32.1246136 L4.87236376,33.9625871 C4.73680139,34.0559833 4.55670836,34.0402202 4.4412439,33.9243617 L4.4412439,33.9243617 L2.41963066,31.9023544 C2.30298397,31.7849195 2.28800906,31.6020679 2.38416376,31.4680819 L2.38416376,31.4680819 L4.23987073,28.872693 C3.88559582,28.2496578 3.61053031,27.5880031 3.42137352,26.9003394 L3.42137352,26.9003394 L0.278218118,26.3442972 C0.117040767,26.3155296 -3.68318616e-13,26.1760265 -3.68318616e-13,26.0128787 L-3.68318616e-13,26.0128787 L-3.68318616e-13,23.1546408 C-3.68318616e-13,22.9903108 0.11901115,22.8496254 0.280976655,22.8220401 L0.280976655,22.8220401 L3.42531429,22.2998885 C3.61525923,21.6122247 3.89032474,20.9509641 4.24459965,20.3291111 L4.24459965,20.3291111 L2.41174913,17.7088955 C2.31835296,17.5745153 2.33411603,17.3932401 2.44997456,17.2773815 L2.44997456,17.2773815 L4.47119373,15.2581328 C4.58705226,15.1395157 4.77029791,15.1253289 4.90507213,15.2222718 L4.90507213,15.2222718 L7.50913066,17.0815254 C8.12586063,16.7331617 8.78318049,16.4640073 9.46887387,16.2768209 L9.46887387,16.2768209 L9.98432613,13.1186906 C10.0103352,12.9555429 10.1510206,12.8361376 10.3161387,12.8361376 L10.3161387,12.8361376 Z M11.7690993,20.9576634 C9.7569439,20.9576634 8.11916132,22.5946578 8.11916132,24.6064192 C8.11916132,26.6193627 9.7569439,28.2563571 11.7690993,28.2563571 C13.7816488,28.2563571 15.4182491,26.6189686 15.4182491,24.6064192 C15.4182491,22.5942638 13.7812547,20.9576634 11.7690993,20.9576634 Z" filter="url(#seller_dashboard-e)"/>
      <path d="M26.0328554,0.0256149826 C26.184969,-0.0374372822 26.3587568,0.0200979094 26.4458477,0.159601045 L26.4458477,0.159601045 L27.7057108,2.1961892 C28.2180105,2.14101847 28.7338568,2.14495923 29.2457624,2.20682927 L29.2457624,2.20682927 L30.5142951,0.173393728 C30.6013861,0.0350728223 30.7735976,-0.0267972125 30.930046,0.0417721254 L30.930046,0.0417721254 L32.9473244,0.886278397 C33.0978617,0.949724739 33.1814059,1.11129617 33.1451509,1.27168537 L33.1451509,1.27168537 L32.6115711,3.62392892 C33.0190463,3.95101254 33.3819909,4.31750383 33.6948878,4.71867387 L33.6948878,4.71867387 L36.0416143,4.17445401 C36.2035798,4.13110557 36.3671216,4.22174321 36.4293857,4.37425087 L36.4293857,4.37425087 L37.2589171,6.39783449 C37.3207871,6.54915993 37.2652223,6.72255366 37.1269014,6.81082683 L37.1269014,6.81082683 L35.0761265,8.10182195 C35.1320854,8.61057491 35.130115,9.12366272 35.0706094,9.63083937 L35.0706094,9.63083937 L37.1213843,10.9135589 C37.2616756,11.0006498 37.3168463,11.1768021 37.2534,11.3293098 L37.2534,11.3293098 L36.41047,13.3446178 C36.3470237,13.494761 36.1834819,13.5747585 36.0258512,13.5432324 L36.0258512,13.5432324 L33.659815,13.0084704 C33.341007,13.40767 32.9780624,13.7694324 32.5761042,14.08627 L32.5761042,14.08627 L33.1219003,16.4385136 C33.1589436,16.5989028 33.0750052,16.7632328 32.9221035,16.826285 L32.9221035,16.826285 L30.9004902,17.6569986 C30.8587181,17.6739439 30.8149756,17.6818254 30.7724153,17.6818254 C30.6601035,17.6818254 30.5509443,17.6254725 30.487892,17.5241948 L30.487892,17.5241948 L29.1980791,15.4773606 C28.6893261,15.5376544 28.1699331,15.5388366 27.6588157,15.4785429 L27.6588157,15.4785429 L26.3504812,17.510008 C26.2626021,17.6463585 26.0880261,17.7031056 25.938277,17.6372948 L25.938277,17.6372948 L23.9221808,16.7959411 C23.7700672,16.7328889 23.6857348,16.5685589 23.7243544,16.4081697 L23.7243544,16.4081697 L24.2740913,14.0716892 C23.8693746,13.7497286 23.5048537,13.3840254 23.1852575,12.9793087 L23.1852575,12.9793087 L20.8397132,13.4908202 C20.67893,13.5223463 20.5177526,13.4407725 20.4562767,13.289447 L20.4562767,13.289447 L19.6279275,11.2631049 C19.5656634,11.1105972 19.6228045,10.9360213 19.7627017,10.8489303 L19.7627017,10.8489303 L21.794561,9.59458432 C21.7354495,9.07479721 21.7370258,8.55422195 21.7985017,8.04428676 L21.7985017,8.04428676 L19.7871345,6.74501603 C19.6503899,6.65674286 19.5964014,6.48334913 19.6594537,6.33202369 L19.6594537,6.33202369 L20.5023836,4.31671568 C20.5654359,4.16539024 20.7277955,4.07751115 20.8901551,4.11967735 L20.8901551,4.11967735 L23.213631,4.66941429 C23.5407146,4.26036272 23.9103585,3.89387143 24.3158634,3.5770338 L24.3158634,3.5770338 L23.8078986,1.23424808 C23.7732199,1.07464704 23.8579463,0.91307561 24.0096659,0.851205575 L24.0096659,0.851205575 Z M28.4509098,6.13498537 C27.3538003,6.13498537 26.3717613,6.78757631 25.948523,7.79838293 C25.3719889,9.17883345 26.0245798,10.7709031 27.4038481,11.3482254 C27.7384192,11.4873345 28.0903296,11.5586624 28.4489394,11.5586624 C29.5468369,11.5586624 30.5280878,10.9048892 30.9513261,9.89408258 C31.5286484,8.51599652 30.8756634,6.92392683 29.4967892,6.3454223 C29.1622181,6.20591916 28.8103077,6.13498537 28.4509098,6.13498537 Z" filter="url(#seller_dashboard-f)"/>
    </g>
    <path fill="#8DA4FA" fill-rule="nonzero" d="M13.1751648 12.8361376C13.3391007 12.8361376 13.4782098 12.9531784 13.5065833 13.1147498L13.5065833 13.1147498 14.0626254 16.287461C14.7463484 16.4750415 15.4024861 16.7485307 16.0184279 17.1008352L16.0184279 17.1008352 18.6295798 15.2218777C18.7631718 15.1249348 18.9472056 15.1391216 19.0642463 15.2577387L19.0642463 15.2577387 21.0858596 17.2769875C21.2017181 17.392846 21.2174812 17.5741213 21.1232969 17.7085014L21.1232969 17.7085014 19.2652254 20.359061C19.6108307 20.9706679 19.8807732 21.6228648 20.0687477 22.3010707L20.0687477 22.3010707 23.2560397 22.8220401C23.4183993 22.8496254 23.5378045 22.9903108 23.5385927 23.1542467L23.5385927 23.1542467 23.5385927 26.0124847C23.5385927 26.1756324 23.4207638 26.3163178 23.2595864 26.3439031L23.2595864 26.3439031 20.0707181 26.9027038C19.8847139 27.5813038 19.6159537 28.2346829 19.2687721 28.8486544L19.2687721 28.8486544 21.1536408 31.4668997C21.2497955 31.6004916 21.2356087 31.7845254 21.1185679 31.9019603L21.1185679 31.9019603 19.098531 33.9239676C18.9818843 34.0398261 18.8006091 34.0555892 18.6670171 33.962193L18.6670171 33.962193 16.0235509 32.1056979C15.4091854 32.4580024 14.7538359 32.7330679 14.0697188 32.923407L14.0697188 32.923407 13.5069774 36.0988767C13.4786038 36.2592659 13.3387066 36.3763066 13.1755589 36.3763066L13.1755589 36.3763066 10.3165328 36.3763066C10.1522028 36.3763066 10.0115174 36.2565073 9.98472021 36.09533L9.98472021 36.09533 9.45862787 32.9344411C8.77411672 32.7464666 8.11522056 32.4745537 7.49652021 32.1246136L7.49652021 32.1246136 4.87236376 33.9625871C4.73680139 34.0559833 4.55670836 34.0402202 4.4412439 33.9243617L4.4412439 33.9243617 2.41963066 31.9023544C2.30298397 31.7849195 2.28800906 31.6020679 2.38416376 31.4680819L2.38416376 31.4680819 4.23987073 28.872693C3.88559582 28.2496578 3.61053031 27.5880031 3.42137352 26.9003394L3.42137352 26.9003394.278218118 26.3442972C.117040767 26.3155296-3.68318616e-13 26.1760265-3.68318616e-13 26.0128787L-3.68318616e-13 26.0128787-3.68318616e-13 23.1546408C-3.68318616e-13 22.9903108.11901115 22.8496254.280976655 22.8220401L.280976655 22.8220401 3.42531429 22.2998885C3.61525923 21.6122247 3.89032474 20.9509641 4.24459965 20.3291111L4.24459965 20.3291111 2.41174913 17.7088955C2.31835296 17.5745153 2.33411603 17.3932401 2.44997456 17.2773815L2.44997456 17.2773815 4.47119373 15.2581328C4.58705226 15.1395157 4.77029791 15.1253289 4.90507213 15.2222718L4.90507213 15.2222718 7.50913066 17.0815254C8.12586063 16.7331617 8.78318049 16.4640073 9.46887387 16.2768209L9.46887387 16.2768209 9.98432613 13.1186906C10.0103352 12.9555429 10.1510206 12.8361376 10.3161387 12.8361376L10.3161387 12.8361376zM11.7690993 20.9576634C9.7569439 20.9576634 8.11916132 22.5946578 8.11916132 24.6064192 8.11916132 26.6193627 9.7569439 28.2563571 11.7690993 28.2563571 13.7816488 28.2563571 15.4182491 26.6189686 15.4182491 24.6064192 15.4182491 22.5942638 13.7812547 20.9576634 11.7690993 20.9576634zM26.0328554.0256149826C26.184969-.0374372822 26.3587568.0200979094 26.4458477.159601045L26.4458477.159601045 27.7057108 2.1961892C28.2180105 2.14101847 28.7338568 2.14495923 29.2457624 2.20682927L29.2457624 2.20682927 30.5142951.173393728C30.6013861.0350728223 30.7735976-.0267972125 30.930046.0417721254L30.930046.0417721254 32.9473244.886278397C33.0978617.949724739 33.1814059 1.11129617 33.1451509 1.27168537L33.1451509 1.27168537 32.6115711 3.62392892C33.0190463 3.95101254 33.3819909 4.31750383 33.6948878 4.71867387L33.6948878 4.71867387 36.0416143 4.17445401C36.2035798 4.13110557 36.3671216 4.22174321 36.4293857 4.37425087L36.4293857 4.37425087 37.2589171 6.39783449C37.3207871 6.54915993 37.2652223 6.72255366 37.1269014 6.81082683L37.1269014 6.81082683 35.0761265 8.10182195C35.1320854 8.61057491 35.130115 9.12366272 35.0706094 9.63083937L35.0706094 9.63083937 37.1213843 10.9135589C37.2616756 11.0006498 37.3168463 11.1768021 37.2534 11.3293098L37.2534 11.3293098 36.41047 13.3446178C36.3470237 13.494761 36.1834819 13.5747585 36.0258512 13.5432324L36.0258512 13.5432324 33.659815 13.0084704C33.341007 13.40767 32.9780624 13.7694324 32.5761042 14.08627L32.5761042 14.08627 33.1219003 16.4385136C33.1589436 16.5989028 33.0750052 16.7632328 32.9221035 16.826285L32.9221035 16.826285 30.9004902 17.6569986C30.8587181 17.6739439 30.8149756 17.6818254 30.7724153 17.6818254 30.6601035 17.6818254 30.5509443 17.6254725 30.487892 17.5241948L30.487892 17.5241948 29.1980791 15.4773606C28.6893261 15.5376544 28.1699331 15.5388366 27.6588157 15.4785429L27.6588157 15.4785429 26.3504812 17.510008C26.2626021 17.6463585 26.0880261 17.7031056 25.938277 17.6372948L25.938277 17.6372948 23.9221808 16.7959411C23.7700672 16.7328889 23.6857348 16.5685589 23.7243544 16.4081697L23.7243544 16.4081697 24.2740913 14.0716892C23.8693746 13.7497286 23.5048537 13.3840254 23.1852575 12.9793087L23.1852575 12.9793087 20.8397132 13.4908202C20.67893 13.5223463 20.5177526 13.4407725 20.4562767 13.289447L20.4562767 13.289447 19.6279275 11.2631049C19.5656634 11.1105972 19.6228045 10.9360213 19.7627017 10.8489303L19.7627017 10.8489303 21.794561 9.59458432C21.7354495 9.07479721 21.7370258 8.55422195 21.7985017 8.04428676L21.7985017 8.04428676 19.7871345 6.74501603C19.6503899 6.65674286 19.5964014 6.48334913 19.6594537 6.33202369L19.6594537 6.33202369 20.5023836 4.31671568C20.5654359 4.16539024 20.7277955 4.07751115 20.8901551 4.11967735L20.8901551 4.11967735 23.213631 4.66941429C23.5407146 4.26036272 23.9103585 3.89387143 24.3158634 3.5770338L24.3158634 3.5770338 23.8078986 1.23424808C23.7732199 1.07464704 23.8579463.91307561 24.0096659.851205575L24.0096659.851205575zM28.4509098 6.13498537C27.3538003 6.13498537 26.3717613 6.78757631 25.948523 7.79838293 25.3719889 9.17883345 26.0245798 10.7709031 27.4038481 11.3482254 27.7384192 11.4873345 28.0903296 11.5586624 28.4489394 11.5586624 29.5468369 11.5586624 30.5280878 10.9048892 30.9513261 9.89408258 31.5286484 8.51599652 30.8756634 6.92392683 29.4967892 6.3454223 29.1622181 6.20591916 28.8103077 6.13498537 28.4509098 6.13498537z" transform="translate(52.714)"/>
    <line x1="40.5" x2="40.5" y1="25.071" y2="71.357" stroke="#B1B8DB" stroke-linecap="square" stroke-width="1.5"/>
    <polygon fill="#B1B8DB" points="59.786 45 64.286 52.364 55.286 52.364" transform="rotate(90 59.786 48.682)"/>
  </g>
</svg>
