<svg xmlns="http://www.w3.org/2000/svg" width="100" height="100" viewBox="0 0 100 100">
  <defs>
    <filter id="upload_files-a" width="1915.1%" height="265.1%" x="-907.6%" y="-82.6%" filterUnits="objectBoundingBox">
      <feGaussianBlur in="SourceGraphic" stdDeviation="4"/>
    </filter>
    <filter id="upload_files-b" width="261.3%" height="422.1%" x="-80.8%" y="-167.6%" filterUnits="objectBoundingBox">
      <feGaussianBlur in="SourceGraphic" stdDeviation="4"/>
    </filter>
  </defs>
  <g fill="none" fill-rule="evenodd" transform="translate(7 21)">
    <path fill="#B1B8DB" fill-rule="nonzero" d="M51.1904767,0 C63.626692,0 72.5644468,10.4174339 72.8184529,21.5315088 C80.4163471,23.8244211 86,30.8064267 86,39.1951026 C86,49.4366743 77.73714,57.761194 67.5714291,57.761194 L18.4285719,57.761194 C7.57004813,57.761194 0,50.4135602 0,41.2580016 C0,33.8517815 4.99916004,26.6586588 12.3817471,24.9803666 C12.6335019,18.9125553 15.4981199,14.3808819 19.4523815,11.9906007 C23.330058,9.64663168 28.1190315,9.36153903 32.3460338,11.152548 C35.7349457,4.99675408 42.4111053,0 51.1904767,0 Z M51.1904767,2.06289905 C42.8387505,2.06289905 36.6002685,6.96403776 33.6896804,12.8286535 C33.4331382,13.3355812 32.8176053,13.5374904 32.3139886,13.2799126 C28.5392029,11.3784354 24.0171386,11.6229921 20.476191,13.763353 C16.9352423,15.9038171 14.3333338,19.912752 14.3333338,25.7862381 C14.323844,26.2862357 13.959742,26.7073597 13.4694423,26.7854239 C6.76205663,27.9192964 2.04761905,34.5576024 2.04761905,41.2580016 C2.04761905,49.2856701 8.46546989,55.698295 18.4285719,55.698295 L67.5714291,55.698295 C76.6306077,55.698295 83.9523815,48.3217806 83.9523815,39.1951026 C83.9523815,31.4724337 78.6969614,25.0172925 71.6026791,23.2076143 C71.1387113,23.087142 70.8197077,22.6586299 70.8348219,22.1761648 C70.9320838,11.9330458 62.7205162,2.06289905 51.1904767,2.06289905 L51.1904767,2.06289905 Z"/>
    <g stroke="#8DA4FA" stroke-width="3" transform="translate(35.246 25.359)">
      <line x1="7.754" x2="7.754" y1="2.113" y2="16.201" stroke-linecap="square" filter="url(#upload_files-a)"/>
      <polyline points="0 8.453 7.754 0 16.222 8.453" filter="url(#upload_files-b)"/>
    </g>
    <g stroke="#8DA4FA" stroke-width="3" transform="translate(35.246 25.359)">
      <line x1="7.754" x2="7.754" y1="2.113" y2="16.201" stroke-linecap="square"/>
      <polyline points="0 8.453 7.754 0 16.222 8.453"/>
    </g>
  </g>
</svg>
