<svg xmlns="http://www.w3.org/2000/svg" xmlns:xlink="http://www.w3.org/1999/xlink" width="380" height="380" viewBox="0 0 380 380">
  <defs>
    <filter id="wait-a" width="437%" height="746.2%" x="-168.5%" y="-323.1%" filterUnits="objectBoundingBox">
      <feGaussianBlur in="SourceGraphic" stdDeviation="2"/>
    </filter>
    <filter id="wait-b" width="437%" height="746.2%" x="-168.5%" y="-323.1%" filterUnits="objectBoundingBox">
      <feGaussianBlur in="SourceGraphic" stdDeviation="2"/>
    </filter>
    <filter id="wait-c" width="223%" height="223%" x="-61.5%" y="-61.5%" filterUnits="objectBoundingBox">
      <feGaussianBlur in="SourceGraphic" stdDeviation="5"/>
    </filter>
    <path id="wait-d" d="M12.3700604,0 L10.2037785,0.364991226 L8.0374303,0.729916163 L7.97339442,2.75115617 C7.10559563,3.13822188 6.28492884,3.64699552 5.53976604,4.27396374 L5.53976604,4.27396374 L3.69465783,3.4503139 L2.42096705,5.24020277 L1.14720998,7.03002535 L2.52994736,8.50338078 C2.18179372,9.4128758 1.96999805,10.3549191 1.88859427,11.3016689 L1.88859427,11.3016689 L0,12.0243595 L0.364991226,14.1907077 L0.729982453,16.357056 L2.75115617,16.4211581 C3.13822188,17.2889569 3.64692923,18.1095574 4.27389745,18.8547202 L4.27389745,18.8547202 L3.45024761,20.6998284 L5.24020277,21.9735855 L7.03009164,23.2472763 L8.50331449,21.8645389 C9.41280951,22.2127588 10.3549191,22.4245545 11.3016027,22.5059583 L11.3016027,22.5059583 L12.0243595,24.3945525 L14.1907077,24.0295613 L16.3569897,23.6645701 L16.4210918,21.6433964 C17.2888906,21.2563307 18.1096237,20.747557 18.8547865,20.1205888 L18.8547865,20.1205888 L20.6998284,20.9442386 L21.9735192,19.1543498 L23.2472763,17.3644609 L21.8645389,15.8911718 C22.2126925,14.981743 22.4244882,14.0396335 22.505892,13.0929499 L22.505892,13.0929499 L24.3944863,12.3701267 L24.0295613,10.2037785 L23.6645701,8.03749659 L21.6433964,7.97339442 C21.2562644,7.10566192 20.7474907,6.28486255 20.1205225,5.53976604 L20.1205225,5.53976604 L20.9442386,3.69472412 L19.1543498,2.42103334 L17.3645272,1.14727627 L15.8911055,2.53001365 C14.9816767,2.18179372 14.0396335,1.96999805 13.0928836,1.88866056 L13.0928836,1.88866056 L12.3700604,0 Z M9.57067255,15.8881492 C7.53226736,14.4375784 7.05576791,11.6091911 8.50633993,9.5707318 L8.50633993,9.5707318 C9.9569677,7.53227254 12.7853573,7.05577349 14.8238183,8.50634431 L14.8238183,8.50634431 C16.8622235,9.95697088 17.3387787,12.7854139 15.8881509,14.8238732 L15.8881509,14.8238732 C15.0045056,16.0654914 13.6094611,16.7276952 12.1933429,16.7276952 L12.1933429,16.7276952 C11.2846656,16.7276952 10.3674586,16.455187 9.57067255,15.8881492 L9.57067255,15.8881492 Z"/>
    <filter id="wait-e" width="296.8%" height="296.8%" x="-98.4%" y="-98.4%" filterUnits="objectBoundingBox">
      <feGaussianBlur in="SourceGraphic" stdDeviation="4"/>
    </filter>
    <path id="wait-f" d="M6.18503022,-1.00031095e-13 L5.10188926,0.182495613 L4.01871515,0.364958081 L3.98669721,1.37557809 C3.55279782,1.56911094 3.14246442,1.82349776 2.76988302,2.13698187 L2.76988302,2.13698187 L1.84732891,1.72515695 L1.21048353,2.62010138 L0.573604991,3.51501267 L1.26497368,4.25169039 C1.09089686,4.7064379 0.984999025,5.17745954 0.944297134,5.65083447 L0.944297134,5.65083447 L-1.38306033e-13,6.01217976 L0.182495613,7.09535387 L0.364991226,8.17852798 L1.37557809,8.21057906 C1.56911094,8.64447846 1.82346461,9.05477871 2.13694872,9.42736011 L2.13694872,9.42736011 L1.72512381,10.3499142 L2.62010138,10.9867927 L3.51504582,11.6236381 L4.25165724,10.9322694 C4.70640476,11.1063794 5.17745954,11.2122772 5.65080133,11.2529791 L5.65080133,11.2529791 L6.01217976,12.1972763 L7.09535387,12.0147807 L8.17849483,11.832285 L8.21054592,10.8216982 C8.64444531,10.6281653 9.05481185,10.3737785 9.42739325,10.0602944 L9.42739325,10.0602944 L10.3499142,10.4721193 L10.9867596,9.57717489 L11.6236381,8.68223045 L10.9322694,7.94558588 C11.1063463,7.49087151 11.2122441,7.01981673 11.252946,6.54647495 L11.252946,6.54647495 L12.1972431,6.18506337 L12.0147807,5.10188926 L11.832285,4.01874829 L10.8216982,3.98669721 C10.6281322,3.55283096 10.3737454,3.14243127 10.0602613,2.76988302 L10.0602613,2.76988302 L10.4721193,1.84736206 L9.57717489,1.21051667 L8.6822636,0.573638136 L7.94555274,1.26500682 C7.49083837,1.09089686 7.01981673,0.984999025 6.5464418,0.944330279 L6.5464418,0.944330279 L6.18503022,-1.00031095e-13 Z M4.78533628,7.9440746 C3.76613368,7.21878919 3.52788396,5.80459553 4.25316997,4.7853659 L4.25316997,4.7853659 C4.97848385,3.76613627 6.39267867,3.52788674 7.41190914,4.25317215 L7.41190914,4.25317215 C8.43111174,4.97848544 8.66938934,6.39270697 7.94407545,7.41193661 L7.94407545,7.41193661 C7.50225282,8.03274568 6.80473055,8.36384758 6.09667144,8.36384758 L6.09667144,8.36384758 C5.64233282,8.36384758 5.18372928,8.22759349 4.78533628,7.9440746 L4.78533628,7.9440746 Z"/>
    <path id="wait-g" d="M27.1222554,1.99999199 L26.0391144,2.1824876 L24.9559403,2.36495007 L24.9239224,3.37557007 C24.490023,3.56910292 24.0796896,3.82348974 23.7071082,4.13697385 L23.7071082,4.13697385 L22.7845541,3.72514894 L22.1477087,4.62009337 L21.5108301,5.51500466 L22.2021988,6.25168237 C22.028122,6.70642989 21.9222242,7.17745153 21.8815223,7.65082646 L21.8815223,7.65082646 L20.9372251,8.01217175 L21.1197208,9.09534586 L21.3022164,10.17852 L22.3128032,10.210571 C22.5063361,10.6444704 22.7606898,11.0547707 23.0741739,11.4273521 L23.0741739,11.4273521 L22.662349,12.3499062 L23.5573265,12.9867847 L24.452271,13.6236301 L25.1888824,12.9322614 C25.6436299,13.1063714 26.1146847,13.2122692 26.5880265,13.2529711 L26.5880265,13.2529711 L26.9494049,14.1972683 L28.032579,14.0147726 L29.11572,13.832277 L29.1477711,12.8216902 C29.5816705,12.6281573 29.992037,12.3737705 30.3646184,12.0602864 L30.3646184,12.0602864 L31.2871394,12.4721113 L31.9239848,11.5771669 L32.5608633,10.6822224 L31.8694946,9.94557787 C32.0435714,9.4908635 32.1494693,9.01980871 32.1901711,8.54646693 L32.1901711,8.54646693 L33.1344683,8.18505535 L32.9520058,7.10188124 L32.7695102,6.01874028 L31.7589233,5.9866892 C31.5653573,5.55282295 31.3109705,5.14242326 30.9974864,4.769875 L30.9974864,4.769875 L31.4093445,3.84735405 L30.5144,3.21050866 L29.6194887,2.57363012 L28.8827779,3.26499881 C28.4280635,3.09088885 27.9570419,2.98499101 27.483667,2.94432226 L27.483667,2.94432226 L27.1222554,1.99999199 Z M25.7225614,9.94406659 C24.7033588,9.21878118 24.4651091,7.80458752 25.1903951,6.78535789 L25.1903951,6.78535789 C25.915709,5.76612826 27.3299038,5.52787873 28.3491343,6.25316414 L28.3491343,6.25316414 C29.3683369,6.97847743 29.6066145,8.39269896 28.8813006,9.41192859 L28.8813006,9.41192859 C28.439478,10.0327377 27.7419557,10.3638396 27.0338966,10.3638396 L27.0338966,10.3638396 C26.579558,10.3638396 26.1209544,10.2275855 25.7225614,9.94406659 L25.7225614,9.94406659 Z"/>
    <filter id="wait-h" width="472.1%" height="474.4%" x="-186%" y="-187.2%" filterUnits="objectBoundingBox">
      <feGaussianBlur in="SourceGraphic" stdDeviation="1"/>
    </filter>
    <filter id="wait-i" width="900%" height="401.9%" x="-400%" y="-150.9%" filterUnits="objectBoundingBox">
      <feGaussianBlur in="SourceGraphic" stdDeviation="1"/>
    </filter>
  </defs>
  <g fill="none" fill-rule="evenodd">
    <g stroke="#B1B8DB" transform="rotate(6 -336.392 1978.324)">
      <path d="M121.952184,23.8998377 C127.851262,39.485505 140.562016,47.858656 140.562016,67.7730174 C140.562016,114.245782 112.068693,151.480841 99.2744335,151.480841 C96.3468045,151.480841 93.6102859,151.16354 91.0567495,150.580931 C85.916276,165.392348 77.1423109,175.337427 70.8608285,177.605184 C61.1184559,181.126725 51.0507305,177.090456 41.9399799,170.095666 C42.5428327,168.222209 42.818319,165.600513 42.4252469,164.10333 C41.9582431,162.430411 40.7250169,161.078397 39.1019732,160.459949 C38.9747729,159.936836 38.7960921,158.923918 38.7099384,158.644097 C37.5756913,155.11626 31.8116224,154.066212 28.3882479,155.163688 C27.9635023,155.300005 27.5341135,155.446714 27.1029256,155.601727 C19.7668791,146.955986 14.0515369,138.073387 11.1391366,133.192031 C-1.94728992,111.420177 2.12139905,80.941963 0.669995383,71.6520034 C-0.781408284,62.3620437 4.55428471,34.0336218 13.1377908,31.0143849 C33.859762,23.7260807 52.6093165,39.4745037 65.3086356,54.7566794 C63.4748331,40.1135602 57.7149462,4.55211117 86.1640455,0.521336734 C106.515567,-2.36840705 118.307758,14.348287 121.952184,23.8998377 Z M37.0020853,163.84281 C38.2926499,163.707166 39.4488204,164.643415 39.5844642,165.933979 C39.6681297,166.730004 39.3439979,167.474899 38.7802133,167.959988 C39.6302763,169.49567 40.3734967,171.15464 40.5241233,172.273012 C40.6591069,172.237752 40.7913468,172.15734 40.9196002,172.038593 C39.4732132,175.421584 36.3144147,177.965263 32.3988035,178.446039 C26.5465553,179.164605 21.2198581,175.002933 20.5012924,169.150685 C20.3413798,167.848302 20.4231653,166.571947 20.7114932,165.366618 C21.4029512,164.89511 22.2263668,164.649648 23.068009,164.667688 C23.9198743,164.691403 31.3174683,165.655551 36.088663,164.135009 C36.3615462,163.980132 36.6700922,163.877704 37.0020853,163.84281 Z"/>
      <path d="M86.1640455,0.521336734 C106.515567,-2.36840705 118.307758,14.348287 121.952184,23.8998377 C127.851262,39.485505 140.562016,47.858656 140.562016,67.7730174 C140.562016,114.245782 112.068693,151.480841 99.2744335,151.480841 C71.0733805,151.480841 60.60535,122.038616 60.60535,109.626929 C60.60535,88.5578548 66.218123,63.148243 65.5500778,56.8062028 C64.142411,43.7786694 56.2809499,4.75528511 86.1640455,0.521336734 Z"/>
      <path stroke-linecap="round" stroke-linejoin="round" d="M29.9632653 66.3256077C37.0622637 75.5743849 78.3055197 152.99702 85.7149873 248.198719M55.3589883 63.8678663C54.6240924 66.7258573 48.522748 83.9030864 43.600655 89.7361994M25.3106279 118.932254C30.2682827 122.06781 43.5567204 125.527289 58.0492558 125.607835M79.3631839 145.718927C78.0383734 147.337518 74.213132 152.053554 68.3887396 154.341705M94.9009659 57.4765269C103.134841 113.601236 84.2513741 249.35286 83.5481249 273.303449M114.830825 62.3190643C112.627027 65.7513897 103.633152 73.8971198 96.8013805 76.4290641M75.576121 104.60114C79.9220499 106.592235 88.0898051 110.088362 95.9572319 110.088362"/>
    </g>
    <g transform="translate(66.25 202.597)">
      <path fill="#B1B8DB" fill-rule="nonzero" d="M8.52356868,121.478733 C7.49752253,121.504384 2.89345013,121.960975 1.84688306,121.109357 C-0.0513023072,119.570287 0.461720765,106.647236 1.04656707,106.026478 C1.63141337,105.40572 2.8883199,105.000432 3.26795697,105.539106 C3.64759404,106.077781 4.80702619,111.18236 5.32004926,111.85442 C5.83307233,112.526481 7.61644578,113.429401 8.99134762,113.024113"/>
      <path stroke="#B1B8DB" d="M128.096382,87.1527634 C126.685569,85.4854384 82.2068171,53.0722368 72.6902391,53.2569251 C63.1736611,53.4416134 37.188832,106.78149 37.7172458,108.725847 C46.3038953,107.704621 48.5239995,107.182653 56.1436345,106.458491 C58.2470291,104.688562 70.0276493,92.8315249 73.6803736,84.9668812 C75.1168382,87.0497549 82.1477651,95.9768737 85.682494,98.1880032"/>
      <path stroke="#B1B8DB" d="M8.47514115,121.822459 C9.27545714,122.458607 148.694607,125.023723 160.217105,121.822459 C171.739604,118.621195 174.78183,118.939269 174.622793,112.218667 C174.527997,108.21276 158.347591,86.5742835 131.235587,85.5460355 C128.188793,86.5916541 126.74577,88.2895859 126.906517,90.6398309 C108.547132,91.5195341 87.3678292,96.3867748 63.3686099,105.241553 C49.0039638,107.591199 9.5011873,112.023718 9.5011873,112.023718 C8.85477822,114.373364 7.69534608,118.703278 8.47514115,121.822459 Z"/>
      <path fill="#B1B8DB" fill-rule="nonzero" d="M182.123191,25.7948001 C189.638979,29.1243198 198.883654,72.1515649 197.626748,73.5623783 C196.369841,74.9731918 185.714352,79.82639 185.714352,79.82639 C185.509143,90.3023212 176.633844,115.378889 173.971254,116.471628 C155.256172,111.146449 143.743935,94.5501522 143.743935,90.0047678 C143.743935,87.7427378 142.620414,86.3315226 133.326472,85.5460355 C127.922145,86.131001 128.647892,87.7893193 128.096382,87.1527634 C127.584571,86.6274265 127.300704,86.698011 126.665397,86.3315226 C126.665397,86.3315226 134.360743,79.6622226 140.378503,75.3323079 C140.168164,73.4802946 138.557271,38.7742838 140.635015,35.5114571 C144.769981,29.0422361 172.755389,21.6444434 182.123191,25.7948001 Z"/>
      <path stroke="#121424" stroke-linecap="round" stroke-width=".68" d="M185.781045 79.8161296C183.728953 80.7857432 165.090825 88.8196845 156.933758 90.5229211M174.09951 52.0615814C175.069123 54.1136736 181.035582 65.9388555 180.307089 67.1547201 179.578596 68.3705848 143.489628 86.44463 140.503834 87.4091134M145.924283 49.0193545C145.734464 53.4005716 145.85759 74.8244151 146.586082 82.7352308"/>
      <path stroke="#B1B8DB" d="M143.518576 86.830589C143.826389 87.4718678 145.072664 91.9952973 145.298394 93.3394177 145.524125 94.6835382 136.75143 96.458598 133.693813 96.3098213 130.636195 96.1610446 126.906517 93.324027 126.906517 89.9688562M153.50586 24.0761728L154.97914 30.4171379C155.286954 31.8792537 163.351676 30.3094031 163.028472 28.7395525L160.98664 18.9818537"/>
      <path stroke="#B1B8DB" d="M160.617263,5.22257487 C160.673696,5.50986779 160.745519,6.53591394 160.817342,7.06945793 C162.36685,7.85417244 163.451996,9.32768717 163.741574,11.0402565 C164.119725,13.5084586 162.461817,18.7049791 161.01396,18.9636428 C159.139112,22.0297248 155.759043,24.0761728 151.901001,24.0761728 C146.004804,24.0761728 141.224991,19.2963602 141.224991,13.4001626 C141.224991,12.7554408 141.282141,12.124067 141.39165,11.5108306 C141.280796,12.0887158 141.222889,12.6765358 141.22,13.2667766 C138.018736,13.4668556 136.628305,11.9277864 136.038328,9.10615953 C135.894682,8.42896907 135.776686,6.35635586 137.526095,5.29952833 C138.572662,4.6428588 145.113706,1.85201329 150.715918,0.682320686 C154.235256,-0.0513023072 159.857989,1.59550175 160.617263,5.22257487 Z"/>
      <ellipse cx="141.633" cy="17.011" fill="#FF6E61" fill-rule="nonzero" filter="url(#wait-a)" rx="1.78" ry="1" transform="rotate(-11.79 141.633 17.01)"/>
      <ellipse cx="152.591" cy="14.723" fill="#FF6E61" fill-rule="nonzero" filter="url(#wait-b)" rx="1.78" ry="1" transform="rotate(-11.79 152.59 14.723)"/>
      <ellipse cx="141.633" cy="17.011" fill="#FF6E61" fill-rule="nonzero" rx="1.78" ry="1" transform="rotate(-11.79 141.633 17.01)"/>
      <ellipse cx="152.591" cy="14.723" fill="#FF6E61" fill-rule="nonzero" rx="1.78" ry="1" transform="rotate(-11.79 152.59 14.723)"/>
      <path stroke="#B1B8DB" stroke-linecap="round" stroke-width=".69" d="M145.488213 14.2363903C145.262483 14.7494133 143.995316 17.0682776 145.924283 17.4889565M149.915602 19.0382862C150.428625 18.9151607 151.110946 18.1097144 151.41876 17.432524"/>
      <path stroke="#B1B8DB" d="M150.715918,0.682320686 C154.235256,-0.0513023072 159.857989,1.59550175 160.617263,5.22257487 C160.673696,5.50986779 160.745519,6.53591394 160.817342,7.06945793 C162.36685,7.85417244 163.451996,9.32768717 163.741574,11.0402565 C164.121211,13.5181579 162.448756,18.7458631 160.9969,18.966463 C160.964001,17.8384727 160.398261,16.1109032 159.713378,14.4947778 C160.324779,14.0712774 160.724998,13.3643443 160.724998,12.563935 C160.724998,11.2662616 159.673026,10.2142894 158.375353,10.2142894 C158.041531,10.2142894 157.723968,10.2839044 157.436391,10.4094088 C152.532394,11.4228952 145.276105,9.69077006 144.431385,9.57814076 C143.489744,9.45871783 142.536132,9.67486995 141.738014,10.1886382 C141.403329,11.1806051 141.069896,12.2218762 141.064771,13.2687699 C137.863507,13.4688489 136.628305,11.9277864 136.038328,9.10615953 C135.894682,8.42896907 135.776686,6.35635586 137.526095,5.29952833 C138.572662,4.6428588 145.113706,1.85201329 150.715918,0.682320686 Z"/>
    </g>
    <g transform="translate(80.187 144.633)">
      <g transform="translate(26.677 35.004)">
        <path fill="#FF6E61" d="M12.3700604,0 L10.2037785,0.364991226 L8.0374303,0.729916163 L7.97339442,2.75115617 C7.10559563,3.13822188 6.28492884,3.64699552 5.53976604,4.27396374 L5.53976604,4.27396374 L3.69465783,3.4503139 L2.42096705,5.24020277 L1.14720998,7.03002535 L2.52994736,8.50338078 C2.18179372,9.4128758 1.96999805,10.3549191 1.88859427,11.3016689 L1.88859427,11.3016689 L0,12.0243595 L0.364991226,14.1907077 L0.729982453,16.357056 L2.75115617,16.4211581 C3.13822188,17.2889569 3.64692923,18.1095574 4.27389745,18.8547202 L4.27389745,18.8547202 L3.45024761,20.6998284 L5.24020277,21.9735855 L7.03009164,23.2472763 L8.50331449,21.8645389 C9.41280951,22.2127588 10.3549191,22.4245545 11.3016027,22.5059583 L11.3016027,22.5059583 L12.0243595,24.3945525 L14.1907077,24.0295613 L16.3569897,23.6645701 L16.4210918,21.6433964 C17.2888906,21.2563307 18.1096237,20.747557 18.8547865,20.1205888 L18.8547865,20.1205888 L20.6998284,20.9442386 L21.9735192,19.1543498 L23.2472763,17.3644609 L21.8645389,15.8911718 C22.2126925,14.981743 22.4244882,14.0396335 22.505892,13.0929499 L22.505892,13.0929499 L24.3944863,12.3701267 L24.0295613,10.2037785 L23.6645701,8.03749659 L21.6433964,7.97339442 C21.2562644,7.10566192 20.7474907,6.28486255 20.1205225,5.53976604 L20.1205225,5.53976604 L20.9442386,3.69472412 L19.1543498,2.42103334 L17.3645272,1.14727627 L15.8911055,2.53001365 C14.9816767,2.18179372 14.0396335,1.96999805 13.0928836,1.88866056 L13.0928836,1.88866056 L12.3700604,0 Z M9.57067255,15.8881492 C7.53226736,14.4375784 7.05576791,11.6091911 8.50633993,9.5707318 L8.50633993,9.5707318 C9.9569677,7.53227254 12.7853573,7.05577349 14.8238183,8.50634431 L14.8238183,8.50634431 C16.8622235,9.95697088 17.3387787,12.7854139 15.8881509,14.8238732 L15.8881509,14.8238732 C15.0045056,16.0654914 13.6094611,16.7276952 12.1933429,16.7276952 L12.1933429,16.7276952 C11.2846656,16.7276952 10.3674586,16.455187 9.57067255,15.8881492 L9.57067255,15.8881492 Z" filter="url(#wait-c)"/>
        <use fill="#FF6E61" xlink:href="#wait-d"/>
      </g>
      <g transform="rotate(15 8.991 86.37)">
        <path fill="#FF6E61" d="M6.18503022,0 L5.10188926,0.182495613 L4.01871515,0.364958081 L3.98669721,1.37557809 C3.55279782,1.56911094 3.14246442,1.82349776 2.76988302,2.13698187 L2.76988302,2.13698187 L1.84732891,1.72515695 L1.21048353,2.62010138 L0.573604991,3.51501267 L1.26497368,4.25169039 C1.09089686,4.7064379 0.984999025,5.17745954 0.944297134,5.65083447 L0.944297134,5.65083447 L0,6.01217976 L0.182495613,7.09535387 L0.364991226,8.17852798 L1.37557809,8.21057906 C1.56911094,8.64447846 1.82346461,9.05477871 2.13694872,9.42736011 L2.13694872,9.42736011 L1.72512381,10.3499142 L2.62010138,10.9867927 L3.51504582,11.6236381 L4.25165724,10.9322694 C4.70640476,11.1063794 5.17745954,11.2122772 5.65080133,11.2529791 L5.65080133,11.2529791 L6.01217976,12.1972763 L7.09535387,12.0147807 L8.17849483,11.832285 L8.21054592,10.8216982 C8.64444531,10.6281653 9.05481185,10.3737785 9.42739325,10.0602944 L9.42739325,10.0602944 L10.3499142,10.4721193 L10.9867596,9.57717489 L11.6236381,8.68223045 L10.9322694,7.94558588 C11.1063463,7.49087151 11.2122441,7.01981673 11.252946,6.54647495 L11.252946,6.54647495 L12.1972431,6.18506337 L12.0147807,5.10188926 L11.832285,4.01874829 L10.8216982,3.98669721 C10.6281322,3.55283096 10.3737454,3.14243127 10.0602613,2.76988302 L10.0602613,2.76988302 L10.4721193,1.84736206 L9.57717489,1.21051667 L8.6822636,0.573638136 L7.94555274,1.26500682 C7.49083837,1.09089686 7.01981673,0.984999025 6.5464418,0.944330279 L6.5464418,0.944330279 L6.18503022,0 Z M4.78533628,7.9440746 C3.76613368,7.21878919 3.52788396,5.80459553 4.25316997,4.7853659 L4.25316997,4.7853659 C4.97848385,3.76613627 6.39267867,3.52788674 7.41190914,4.25317215 L7.41190914,4.25317215 C8.43111174,4.97848544 8.66938934,6.39270697 7.94407545,7.41193661 L7.94407545,7.41193661 C7.50225282,8.03274568 6.80473055,8.36384758 6.09667144,8.36384758 L6.09667144,8.36384758 C5.64233282,8.36384758 5.18372928,8.22759349 4.78533628,7.9440746 L4.78533628,7.9440746 Z" filter="url(#wait-e)"/>
        <use fill="#FF6E61" xlink:href="#wait-f"/>
      </g>
    </g>
    <g transform="translate(81.187 144.633)">
      <path stroke="#B1B8DB" d="M39.0471905,35.0044843 L36.8809086,35.3694755 L34.7145603,35.7344005 L34.6505245,37.7556405 C33.7827257,38.1427062 32.9620589,38.6514798 32.2168961,39.278448 L32.2168961,39.278448 L30.3717879,38.4547982 L29.0980971,40.2446871 L27.82434,42.0345097 L29.2070774,43.5078651 C28.8589238,44.4173601 28.6471281,45.3594034 28.5657243,46.3061532 L28.5657243,46.3061532 L26.67713,47.0288438 L27.0421213,49.195192 L27.4071125,51.3615403 L29.4282862,51.4256424 C29.8153519,52.2934412 30.3240593,53.1140417 30.9510275,53.8592045 L30.9510275,53.8592045 L30.1273777,55.7043127 L31.9173328,56.9780698 L33.7072217,58.2517606 L35.1804445,56.8690232 C36.0899396,57.2172431 37.0320491,57.4290388 37.9787327,57.5104426 L37.9787327,57.5104426 L38.7014896,59.3990368 L40.8678378,59.0340456 L43.0341197,58.6690544 L43.0982219,56.6478807 C43.9660207,56.260815 44.7867538,55.7520413 45.5319166,55.1250731 L45.5319166,55.1250731 L47.3769585,55.9487229 L48.6506492,54.1588341 L49.9244063,52.3689452 L48.5416689,50.8956561 C48.8898226,49.9862273 49.1016182,49.0441178 49.183022,48.0974342 L49.183022,48.0974342 L51.0716163,47.374611 L50.7066914,45.2082628 L50.3417001,43.0419809 L48.3205264,42.9778787 C47.9333944,42.1101462 47.4246208,41.2893469 46.7976526,40.5442503 L46.7976526,40.5442503 L47.6213687,38.6992084 L45.8314798,37.4255176 L44.0416572,36.1517606 L42.5682355,37.534498 C41.6588068,37.186278 40.7167635,36.9744824 39.7700136,36.8931449 L39.7700136,36.8931449 L39.0471905,35.0044843 Z M36.2478026,50.8926335 C34.2093974,49.4420627 33.732898,46.6136754 35.18347,44.5752161 L35.18347,44.5752161 C36.6340977,42.5367568 39.4624874,42.0602578 41.5009483,43.5108286 L41.5009483,43.5108286 C43.5393535,44.9614552 44.0159087,47.7898983 42.565281,49.8283575 L42.565281,49.8283575 C41.6816357,51.0699757 40.2865911,51.7321795 38.8704729,51.7321795 L38.8704729,51.7321795 C37.9617957,51.7321795 37.0445886,51.4596713 36.2478026,50.8926335 L36.2478026,50.8926335 Z"/>
      <use stroke="#B1B8DB" transform="rotate(15 27.036 8.099)" xlink:href="#wait-g"/>
    </g>
    <line x1="35.5" x2="323" y1="326.119" y2="326.619" stroke="#B1B8DB" stroke-linecap="round" stroke-width="2"/>
    <g fill-rule="nonzero" transform="translate(85 166)">
      <path fill="#FF6E61" d="M13.6125,4.9125 L14.475,4.05 C14.625,3.9 14.625,3.675 14.475,3.525 C14.325,3.375 14.1,3.375 13.95,3.525 L13.0875,4.3875 C12.9375,4.5375 12.9375,4.7625 13.0875,4.9125 C13.3125,5.1 13.5375,4.9875 13.6125,4.9125 Z" filter="url(#wait-h)"/>
      <path fill="#FF6E61" d="M9,16.8 C9.225,16.8 9.375,16.65 9.375,16.425 L9.375,15.1875 C9.375,14.9625 9.225,14.8125 9,14.8125 C8.775,14.8125 8.625,14.9625 8.625,15.1875 L8.625,16.425 C8.625,16.6125 8.775,16.8 9,16.8 Z" filter="url(#wait-i)"/>
      <path fill="#FF6E61" d="M13.6125,4.9125 L14.475,4.05 C14.625,3.9 14.625,3.675 14.475,3.525 C14.325,3.375 14.1,3.375 13.95,3.525 L13.0875,4.3875 C12.9375,4.5375 12.9375,4.7625 13.0875,4.9125 C13.3125,5.1 13.5375,4.9875 13.6125,4.9125 Z"/>
      <path fill="#B1B8DB" d="M15.15 9.375L16.3875 9.375C16.6125 9.375 16.7625 9.225 16.7625 9 16.7625 8.775 16.6125 8.625 16.3875 8.625L15.15 8.625C14.925 8.625 14.775 8.775 14.775 9 14.775 9.225 14.9625 9.375 15.15 9.375zM13.6125 13.0875C13.4625 12.9375 13.2375 12.9375 13.0875 13.0875 12.9375 13.2375 12.9375 13.4625 13.0875 13.6125L13.95 14.475C14.175 14.6625 14.4 14.55 14.475 14.475 14.625 14.325 14.625 14.1 14.475 13.95L13.6125 13.0875z"/>
      <path fill="#B1B8DB" d="M9,18 C13.95,18 18,13.95 18,9 C18,4.05 13.95,0 9,0 C4.05,0 0,4.05 0,9 C0,13.95 4.05,18 9,18 Z M9,0.75 C13.5375,0.75 17.25,4.4625 17.25,9 C17.25,13.5375 13.5375,17.25 9,17.25 C4.4625,17.25 0.75,13.5375 0.75,9 C0.75,4.4625 4.4625,0.75 9,0.75 Z"/>
      <path fill="#B1B8DB" d="M11.5125 12.0375C11.7375 12.2625 11.9625 12.1125 12.0375 12.0375 12.1875 11.8875 12.1875 11.6625 12.0375 11.5125L9.375 8.85 9.375 5.625C9.375 5.4 9.225 5.25 9 5.25 8.775 5.25 8.625 5.4 8.625 5.625L8.625 9C8.625 9.1125 8.6625 9.1875 8.7375 9.2625L11.5125 12.0375zM9 3.225C9.225 3.225 9.375 3.075 9.375 2.85L9.375 1.575C9.375 1.35 9.225 1.2 9 1.2 8.775 1.2 8.625 1.35 8.625 1.575L8.625 2.8125C8.625 3.0375 8.775 3.225 9 3.225z"/>
      <path fill="#FF6E61" d="M9,16.8 C9.225,16.8 9.375,16.65 9.375,16.425 L9.375,15.1875 C9.375,14.9625 9.225,14.8125 9,14.8125 C8.775,14.8125 8.625,14.9625 8.625,15.1875 L8.625,16.425 C8.625,16.6125 8.775,16.8 9,16.8 Z"/>
      <path fill="#B1B8DB" d="M4.0125 14.5125L4.875 13.65C5.025 13.5 5.025 13.275 4.875 13.125 4.725 12.975 4.5 12.975 4.35 13.125L3.4875 13.9875C3.3375 14.1375 3.3375 14.3625 3.4875 14.5125 3.7125 14.7 3.9375 14.5875 4.0125 14.5125zM2.8125 8.625L1.575 8.625C1.35 8.625 1.2 8.775 1.2 9 1.2 9.225 1.35 9.375 1.575 9.375L2.8125 9.375C3.0375 9.375 3.1875 9.225 3.1875 9 3.1875 8.775 3.0375 8.625 2.8125 8.625zM4.3875 4.9125C4.4625 4.9875 4.725 5.1375 4.9125 4.9125 5.0625 4.7625 5.0625 4.5375 4.9125 4.3875L4.05 3.525C3.9 3.375 3.675 3.375 3.525 3.525 3.375 3.675 3.375 3.9 3.525 4.05L4.3875 4.9125z"/>
    </g>
  </g>
</svg>
