<?xml version="1.0" encoding="UTF-8"?>
<svg width="146px" height="50px" viewBox="0 0 146 50" version="1.1" xmlns="http://www.w3.org/2000/svg" xmlns:xlink="http://www.w3.org/1999/xlink">
    <!-- Generator: Sketch 59.1 (86144) - https://sketch.com -->
    <title>Artboard Copy 3</title>
    <desc>Created with Sketch.</desc>
    <g id="Artboard-Copy-3" stroke="none" stroke-width="1" fill="none" fill-rule="evenodd">
        <path d="M24.9727006,1 C38.1932022,1 48.9454011,11.7676904 48.9454011,25.0032472 C48.9454011,38.2323096 38.1932022,49 24.9727006,49 C11.7554424,49 1,38.2323096 1,25.0032472 C1,20.6747395 2.16765961,16.6222433 4.17538545,13.1120281 C3.30288424,12.2385334 2.76121992,11.0305777 2.76121992,9.69273441 C2.76121992,7.01704776 4.9278772,4.85117034 7.59727681,4.85117034 C8.71304044,4.85117034 9.72825561,5.24732783 10.5456173,5.88053037 C14.5643125,2.83141659 19.5528138,1 24.9727006,1 Z M30.2077078,29.8188337 L9.30984424,40.49885 C13.3090784,44.548099 18.8522181,47.0646733 24.9727006,47.0646733 C32.8608899,47.0646733 39.7727861,42.8790421 43.6682284,36.6281965 L43.6682284,36.6281965 L30.2077078,29.8188337 Z M71.1711531,28.6868624 C72.2836733,28.6868624 73.2988884,28.8784468 74.2167986,29.2681099 C75.1347088,29.657773 75.9099051,30.2227845 76.5456308,30.95665 L76.5456308,30.95665 L74.9141509,32.492572 C73.9313707,31.4307401 72.7215456,30.9014477 71.2846756,30.9014477 C70.3537914,30.9014477 69.5202122,31.1027736 68.7839379,31.5119199 C68.0444202,31.9210662 67.4703209,32.4860777 67.055153,33.2102016 C66.6432286,33.9375727 66.4356447,34.7591124 66.4356447,35.6780679 C66.4356447,36.5970234 66.6432286,37.4185631 67.055153,38.1459342 C67.4703209,38.8733054 68.0444202,39.4350697 68.7839379,39.8442159 C69.5202122,40.2533622 70.3537914,40.4579353 71.2846756,40.4579353 C72.7215456,40.4579353 73.9313707,39.9189014 74.9141509,38.8440806 L74.9141509,38.8440806 L76.5456308,40.3994859 C75.9099051,41.1365986 75.1314653,41.7016101 74.2070681,42.088026 C73.2826709,42.4776891 72.2642123,42.6725206 71.1484486,42.6725206 C69.7796921,42.6725206 68.5406755,42.3705317 67.4346424,41.7665539 C66.3286092,41.1690705 65.462595,40.334542 64.8333562,39.2727101 C64.2073609,38.2108781 63.8927415,37.0126641 63.8927415,35.6780679 C63.8927415,34.3434718 64.2106044,33.1485049 64.8430867,32.086673 C65.4788125,31.024841 66.3480702,30.1903125 67.4541034,29.5863347 C68.5601365,28.9888513 69.7991531,28.6868624 71.1711531,28.6868624 Z M140.148374,29.8126641 L140.148374,32.1798674 L142.924809,32.1798674 L142.924809,34.1249357 L140.148374,34.1249357 L140.148374,39.0574212 C140.148374,39.5639832 140.271627,39.9503991 140.518133,40.2134217 C140.764639,40.4796915 141.11818,40.6128264 141.585244,40.6128264 C142.126909,40.6128264 142.580999,40.4699499 142.94427,40.184197 L142.94427,40.184197 L143.622162,41.9117034 C143.339977,42.1487485 142.992923,42.3208497 142.584242,42.4377486 C142.178805,42.5578947 141.747419,42.613097 141.293329,42.613097 C140.154861,42.613097 139.275873,42.3143553 138.656365,41.7201191 C138.033613,41.1226356 137.725481,40.2588824 137.725481,39.1158707 L137.725481,39.1158707 L137.725481,34.1249357 L136.016157,34.1249357 L136.016157,32.1798674 L137.725481,32.1798674 L137.725481,29.8126641 L140.148374,29.8126641 Z M106.910295,29.8126641 L106.910295,32.1798674 L109.68673,32.1798674 L109.68673,34.1249357 L106.910295,34.1249357 L106.910295,39.0574212 C106.910295,39.5639832 107.033548,39.9503991 107.280054,40.2134217 C107.52656,40.4796915 107.880101,40.6128264 108.347165,40.6128264 C108.888829,40.6128264 109.342919,40.4699499 109.706191,40.184197 L109.706191,40.184197 L110.384082,41.9117034 C110.101898,42.1487485 109.754843,42.3208497 109.346162,42.4377486 C108.940725,42.5578947 108.50934,42.613097 108.05525,42.613097 C106.916782,42.613097 106.037794,42.3143553 105.418285,41.7201191 C104.795533,41.1226356 104.487401,40.2588824 104.487401,39.1158707 L104.487401,39.1158707 L104.487401,34.1249357 L102.778077,34.1249357 L102.778077,32.1798674 L104.487401,32.1798674 L104.487401,29.8126641 L106.910295,29.8126641 Z M83.0063564,31.9889325 C84.0669805,31.9889325 85.0173257,32.216236 85.8573919,32.6675957 C86.7007016,33.1189555 87.3558884,33.7489108 87.8294393,34.5542146 C88.2997466,35.3562711 88.536522,36.2687322 88.536522,37.2883507 C88.536522,38.3144635 88.2997466,39.2301718 87.8294393,40.0387228 C87.3558884,40.8472737 86.7007016,41.4804763 85.8573919,41.931836 C85.0173257,42.386443 84.0669805,42.6137464 83.0063564,42.6137464 C81.9587062,42.6137464 81.014848,42.386443 80.1715383,41.931836 C79.3314721,41.4804763 78.6762853,40.8472737 78.2027344,40.0387228 C77.7324271,39.2301718 77.4956517,38.3144635 77.4956517,37.2883507 C77.4956517,36.2687322 77.7324271,35.3562711 78.2027344,34.5542146 C78.6762853,33.7489108 79.3314721,33.1189555 80.1715383,32.6675957 C81.014848,32.216236 81.9587062,31.9889325 83.0063564,31.9889325 Z M116.534729,31.9876336 C117.543457,31.9876336 118.448393,32.2084427 119.243051,32.6565553 C120.037708,33.1046678 120.66046,33.731376 121.104819,34.5431741 C121.552422,35.3517251 121.77298,36.2869165 121.77298,37.3487485 C121.77298,37.5176025 121.763249,37.7546475 121.737301,38.066378 L121.737301,38.066378 L113.60585,38.066378 C113.748564,38.8294683 114.121566,39.4366933 114.721613,39.8848058 C115.32166,40.3296712 116.070909,40.5569747 116.962871,40.5569747 C118.101339,40.5569747 119.03871,40.1770532 119.774985,39.4269517 L119.774985,39.4269517 L121.075628,40.9239075 C120.611807,41.4824246 120.02149,41.9013124 119.311164,42.1870653 C118.597594,42.4728183 117.79645,42.6124476 116.904488,42.6124476 C115.76602,42.6124476 114.763779,42.3851441 113.897764,41.9337843 C113.03175,41.4824246 112.360346,40.849222 111.890039,40.0406711 C111.416488,39.228873 111.179712,38.3131647 111.179712,37.290299 C111.179712,36.2804221 111.410001,35.3712082 111.870578,34.5626573 C112.327911,33.7541063 112.96688,33.1209038 113.780999,32.6662968 C114.595117,32.2149371 115.513027,31.9876336 116.534729,31.9876336 Z M96.743223,31.9876336 C98.0503531,31.9876336 99.0980032,32.3708023 99.8861735,33.1338926 C100.674344,33.8969828 101.070051,35.030253 101.070051,36.530456 L101.070051,36.530456 L101.070051,42.4760655 L98.6439134,42.4760655 L98.6439134,36.8421864 C98.6439134,35.9394669 98.4330859,35.2543093 98.0049441,34.793208 C97.5768022,34.3353538 96.9702679,34.1048031 96.1820977,34.1048031 C95.286892,34.1048031 94.5830527,34.3743201 94.0640929,34.9101069 C93.5483766,35.4458937 93.2888966,36.2219727 93.2888966,37.2318495 L93.2888966,37.2318495 L93.2888966,42.4760655 L90.866003,42.4760655 L90.866003,32.1045325 L93.1721307,32.1045325 L93.1721307,33.4423759 C93.5743246,32.9650386 94.0770669,32.601353 94.6868447,32.3545664 C95.293379,32.1110269 95.9810008,31.9876336 96.743223,31.9876336 Z M129.982924,31.9876336 C131.290054,31.9876336 132.337705,32.3708023 133.125875,33.1338926 C133.914045,33.8969828 134.309752,35.030253 134.309752,36.530456 L134.309752,36.530456 L134.309752,42.4760655 L131.883615,42.4760655 L131.883615,36.8421864 C131.883615,35.9394669 131.672787,35.2543093 131.244645,34.793208 C130.816504,34.3353538 130.209969,34.1048031 129.421799,34.1048031 C128.526593,34.1048031 127.822754,34.3743201 127.303794,34.9101069 C126.788078,35.4458937 126.528598,36.2219727 126.528598,37.2318495 L126.528598,37.2318495 L126.528598,42.4760655 L124.105704,42.4760655 L124.105704,32.1045325 L126.411832,32.1045325 L126.411832,33.4423759 C126.814026,32.9650386 127.316768,32.601353 127.926546,32.3545664 C128.53308,32.1110269 129.220702,31.9876336 129.982924,31.9876336 Z M83.0063564,34.0444054 C82.1111507,34.0444054 81.3781199,34.3431471 80.8040206,34.9406305 C80.2266778,35.5348667 79.9412499,36.3206873 79.9412499,37.2883507 C79.9412499,38.2625085 80.2266778,39.0450819 80.8040206,39.6425653 C81.3781199,40.2400487 82.1111507,40.532296 83.0063564,40.532296 C83.8983186,40.532296 84.6345928,40.2400487 85.2184226,39.6425653 C85.7990089,39.0450819 86.0909238,38.2625085 86.0909238,37.2883507 C86.0909238,36.3206873 85.7990089,35.5348667 85.2184226,34.9406305 C84.6345928,34.3431471 83.8983186,34.0444054 83.0063564,34.0444054 Z M5.25547059,34.7935327 C6.00471884,36.3034772 6.90316804,37.7257475 7.96379219,39.0116358 L7.96379219,39.0116358 L12.3100807,36.7905561 Z M116.534729,33.9327019 C115.759533,33.9327019 115.101103,34.1600054 114.565925,34.6211068 C114.027504,35.0789609 113.703155,35.6926803 113.586389,36.4557705 L113.586389,36.4557705 L119.463609,36.4557705 C119.36306,35.7056691 119.045197,35.0951969 118.516507,34.6308483 C117.984573,34.1632526 117.322899,33.9327019 116.534729,33.9327019 Z M24.9727006,2.93857394 C20.0328517,2.93857394 15.4822227,4.59139494 11.8040949,7.35150859 C12.1933148,8.04965499 12.4333337,8.83872277 12.4333337,9.69273441 C12.4333337,12.3651739 10.2666764,14.5342985 7.59727681,14.5342985 C6.95830752,14.5342985 6.34852973,14.4044108 5.79064791,14.1771073 C3.98077551,17.3788391 2.93636886,21.0676498 2.93636886,25.0032472 C2.93636886,27.6367203 3.4261372,30.1565417 4.27593391,32.5042619 L4.27593391,32.5042619 L14.8464969,35.4949263 L46.272758,19.434312 C43.7979683,9.95900419 35.2026962,2.93857394 24.9727006,2.93857394 Z M46.6911693,21.3923691 L32.3419301,28.727777 L44.621817,34.9396563 C46.136531,31.948992 47.0122757,28.5784062 47.0122757,25.0032472 C47.0122757,23.7725612 46.8857793,22.5711 46.6911693,21.3923691 L46.6911693,21.3923691 Z M122.936747,11.9774591 C123.948719,11.9774591 124.850412,12.2015154 125.645069,12.6366392 C126.44297,13.0782573 127.065721,13.6984711 127.519811,14.5037749 C127.970658,15.3090786 128.197703,16.2345285 128.197703,17.2801245 C128.197703,18.3289677 127.970658,19.2576647 127.519811,20.0662157 C127.065721,20.8780138 126.44297,21.504722 125.645069,21.943093 C124.850412,22.3814639 123.948719,22.6055202 122.936747,22.6055202 C121.542043,22.6055202 120.43601,22.1379245 119.621891,21.2059802 L119.621891,21.2059802 L119.621891,26.2358815 L117.195754,26.2358815 L117.195754,12.094358 L119.505125,12.094358 L119.505125,13.4549317 C119.904076,12.9613584 120.400331,12.5944257 120.987404,12.3443918 C121.577721,12.1008524 122.226421,11.9774591 122.936747,11.9774591 Z M135.006455,11.9764849 C136.015184,11.9764849 136.916876,12.2005412 137.711534,12.6486538 C138.509434,13.0935191 139.128943,13.7234745 139.576545,14.5352726 C140.020905,15.3438236 140.244706,16.279015 140.244706,17.340847 C140.244706,17.509701 140.231732,17.746746 140.205784,18.0584765 L140.205784,18.0584765 L132.077576,18.0584765 C132.22029,18.8215668 132.590049,19.4255446 133.19334,19.8736572 C133.793387,20.3217697 134.539392,20.545826 135.434597,20.545826 C136.569822,20.545826 137.510437,20.1691517 138.246711,19.415803 L138.246711,19.415803 L139.547354,20.9127588 C139.08029,21.4712759 138.493217,21.8901637 137.779647,22.1759167 C137.069321,22.4616696 136.268177,22.6045461 135.376214,22.6045461 C134.237746,22.6045461 133.235505,22.3772426 132.366247,21.9226356 C131.500233,21.4712759 130.832072,20.8380733 130.358522,20.0295224 C129.888214,19.2209715 129.651439,18.3052632 129.651439,17.2791503 C129.651439,16.2725206 129.878484,15.3600595 130.339061,14.5515086 C130.799637,13.7429577 131.435363,13.1097551 132.249481,12.6551482 C133.066843,12.2070356 133.984753,11.9764849 135.006455,11.9764849 Z M91.8724607,11.9784332 C92.8941628,11.9784332 93.792612,12.1830064 94.5613213,12.598647 C95.3300305,13.0142876 95.9106168,13.6117711 96.2998367,14.3878501 L96.2998367,14.3878501 L94.4348248,15.4756596 C94.1364229,14.9983223 93.766664,14.6346367 93.3190612,14.3975917 C92.8714583,14.1572994 92.3849335,14.0371533 91.8529997,14.0371533 C90.9480635,14.0371533 90.1988152,14.3294006 89.6052549,14.9203897 C89.0084511,15.5113787 88.7100492,16.2971993 88.7100492,17.2810986 C88.7100492,18.264998 89.0052076,19.0540658 89.5955244,19.6418076 C90.1825977,20.2327966 90.9350895,20.525044 91.8529997,20.525044 C92.3849335,20.525044 92.8714583,20.408145 93.3190612,20.1646056 C93.766664,19.9275605 94.1364229,19.5671222 94.4348248,19.0865377 L94.4348248,19.0865377 L96.2998367,20.1743472 C95.8943993,20.9536734 95.3105695,21.5511568 94.5418603,21.9732918 C93.773151,22.3954269 92.8811888,22.6032472 91.8724607,22.6032472 C90.7988625,22.6032472 89.8355433,22.3759437 88.9825031,21.9213368 C88.1294629,21.4732242 87.4613021,20.8367745 86.9845078,20.0282235 C86.5044699,19.2196726 86.2676945,18.3039643 86.2676945,17.2810986 C86.2676945,16.258233 86.5044699,15.3457719 86.9845078,14.5437153 C87.4613021,13.7384116 88.1262194,13.1117034 88.9727726,12.6570965 C89.8193258,12.2057367 90.7858885,11.9784332 91.8724607,11.9784332 Z M85.1593909,11.9768096 L85.1593909,14.2888107 C84.951807,14.2530916 84.7636841,14.2336084 84.5950221,14.2336084 C83.6511639,14.2336084 82.9148897,14.5063726 82.3829559,15.0583953 C81.8542655,15.6104181 81.5882986,16.4027331 81.5882986,17.4353403 L81.5882986,17.4353403 L81.5882986,22.4684887 L79.1621614,22.4684887 L79.1621614,12.0937086 L81.4715327,12.0937086 L81.4715327,13.6101475 C82.1721284,12.522338 83.4014145,11.9768096 85.1593909,11.9768096 L85.1593909,11.9768096 Z M71.5389659,8.87151942 L77.6691789,22.4675145 L75.0322143,22.4675145 L73.6731882,19.320985 L66.8813015,19.320985 L65.5417364,22.4675145 L62.9436938,22.4675145 L69.0544457,8.87151942 L71.5389659,8.87151942 Z M100.720401,8.05614937 L100.720401,13.3003653 C101.122595,12.8717359 101.618851,12.5470166 102.205924,12.316466 C102.796241,12.0924097 103.451427,11.9787579 104.174728,11.9787579 C105.481858,11.9787579 106.529508,12.3619267 107.320922,13.1217697 C108.109092,13.8881072 108.501555,15.0213774 108.501555,16.5215803 L108.501555,16.5215803 L108.501555,22.4671898 L106.078662,22.4671898 L106.078662,16.8333108 C106.078662,15.9305913 105.864591,15.2454336 105.436449,14.7843323 C105.01155,14.323231 104.401773,14.0959275 103.613602,14.0959275 C102.72164,14.0959275 102.014557,14.3654445 101.498841,14.9012312 C100.979881,15.437018 100.720401,16.2098498 100.720401,17.2229739 L100.720401,17.2229739 L100.720401,22.4671898 L98.2975077,22.4671898 L98.2975077,8.05614937 L100.720401,8.05614937 Z M114.014855,12.0953322 L114.014855,22.4668651 L111.588718,22.4668651 L111.588718,12.0953322 L114.014855,12.0953322 Z M145,8.05582465 L145,22.4668651 L142.573863,22.4668651 L142.573863,8.05582465 L145,8.05582465 Z M122.667537,14.0361791 C122.083707,14.0361791 121.561504,14.169314 121.09444,14.4355838 C120.63062,14.7018536 120.260861,15.0785279 119.988407,15.5721012 C119.715953,16.0656745 119.582969,16.6339332 119.582969,17.2801245 C119.582969,17.929563 119.715953,18.4978217 119.988407,18.9881477 C120.260861,19.4849682 120.63062,19.8616425 121.09444,20.1279123 C121.561504,20.3941821 122.083707,20.5240698 122.667537,20.5240698 C123.559499,20.5240698 124.29253,20.2285753 124.869873,19.6343391 C125.443972,19.0368556 125.732643,18.2542822 125.732643,17.2801245 C125.732643,16.3092139 125.443972,15.5266405 124.869873,14.9291571 C124.29253,14.3349208 123.559499,14.0361791 122.667537,14.0361791 Z M70.2772448,11.394588 L67.7343417,17.3401975 L72.839609,17.3401975 L70.2772448,11.394588 Z M135.006455,13.9215532 C134.231259,13.9215532 133.572829,14.1488567 133.037652,14.6099581 C132.499231,15.0710594 132.171637,15.6815316 132.058115,16.4446218 L132.058115,16.4446218 L137.935335,16.4446218 C137.834787,15.6945204 137.516924,15.0840482 136.98499,14.6196996 C136.456299,14.1521039 135.794626,13.9215532 135.006455,13.9215532 Z M112.810219,7.47327831 C113.248092,7.47327831 113.617851,7.60641321 113.916252,7.8694358 C114.214654,8.13570559 114.363855,8.46691923 114.363855,8.8695711 C114.363855,9.29820051 114.217898,9.65539169 113.925983,9.94763902 C113.634068,10.2398863 113.261066,10.38601 112.810219,10.38601 C112.369103,10.38601 111.999345,10.2463807 111.704186,9.96712218 C111.405784,9.68786362 111.256583,9.34366121 111.256583,8.92802057 C111.256583,8.51562711 111.405784,8.16493032 111.704186,7.88891896 C111.999345,7.61290759 112.369103,7.47327831 112.810219,7.47327831 Z" id="Combined-Shape" fill="#FFFFFF"></path>
    </g>
</svg>
