<svg xmlns="http://www.w3.org/2000/svg" width="24" height="24" viewBox="0 0 24 24">
  <title id="infoTitle">Info</title>
  <desc id="infoDesc">An information icon</desc>
  <g fill="#B7BCD9" fill-rule="evenodd" transform="translate(2 2)">
    <path d="M10,18 C5.59,18 2,14.41 2,10 C2,5.59 5.59,2 10,2 C14.41,2 18,5.59 18,10 C18,14.41 14.41,18 10,18 Z" opacity=".3"/>
    <path d="M9,5 L11,5 L11,7 L9,7 L9,5 Z M9,9 L11,9 L11,15 L9,15 L9,9 Z M10,0 C4.48,0 0,4.48 0,10 C0,15.52 4.48,20 10,20 C15.52,20 20,15.52 20,10 C20,4.48 15.52,0 10,0 Z M10,18 C5.59,18 2,14.41 2,10 C2,5.59 5.59,2 10,2 C14.41,2 18,5.59 18,10 C18,14.41 14.41,18 10,18 Z"/>
  </g>
</svg>
