<svg xmlns="http://www.w3.org/2000/svg" width="24" height="24" viewBox="0 0 24 24">
  <g fill="#B7BCD9" fill-rule="evenodd" transform="translate(2 4)">
    <path d="M20,2 C20,0.9 19.1,0 18,0 L2,0 C0.9,0 0,0.9 0,2 L0,14 C0,15.1 0.9,16 2,16 L18,16 C19.1,16 20,15.1 20,14 L20,2 L20,2 Z" opacity=".3"/>
    <path d="M20,2 C20,0.9 19.1,0 18,0 L2,0 C0.9,0 0,0.9 0,2 L0,14 C0,15.1 0.9,16 2,16 L18,16 C19.1,16 20,15.1 20,14 L20,2 L20,2 Z M18,2 L10,7 L2,2 L18,2 L18,2 Z M18,14 L2,14 L2,4 L10,9 L18,4 L18,14 Z"/>
  </g>
</svg>
