<svg xmlns="http://www.w3.org/2000/svg" width="24" height="24" viewBox="0 0 24 24">
  <g fill="#B7BCD9" fill-rule="evenodd" transform="translate(2 2)">
    <path d="M10,0 C4.48,0 0,4.48 0,10 C0,15.52 4.48,20 10,20 C15.52,20 20,15.52 20,10 C20,4.48 15.52,0 10,0 Z" opacity=".3"/>
    <path d="M10,0 C4.48,0 0,4.48 0,10 C0,15.52 4.48,20 10,20 C15.52,20 20,15.52 20,10 C20,4.48 15.52,0 10,0 Z M2,10 C2,5.58 5.58,2 10,2 C11.85,2 13.55,2.63 14.9,3.69 L3.69,14.9 C2.63,13.55 2,11.85 2,10 Z M10,18 C8.15,18 6.45,17.37 5.1,16.31 L16.31,5.1 C17.37,6.45 18,8.15 18,10 C18,14.42 14.42,18 10,18 Z"/>
  </g>
</svg>
