<svg xmlns="http://www.w3.org/2000/svg" width="24" height="24" viewBox="0 0 24 24">
  <title id="shoppingTitle">Shopping Cart</title>
  <desc id="shoppingDesc">An icon of a shopping cart</desc>
  <g fill="#B7BCD9" fill-rule="evenodd" transform="translate(1 2)">
    <polygon points="5.158 4 17.304 4 14.545 9 7.527 9" opacity=".3"/>
    <path d="M14.5445983,11 C15.2943199,11 15.9540749,10.59 16.2939486,9.97 L19.8726196,3.48 C20.2424822,2.82 19.7626604,2 19.0029426,2 L4.20843704,2 L3.26878602,0 L0,0 L0,2 L1.9992575,2 L5.59792101,9.59 L4.24842219,12.03 C3.5186932,13.37 4.4783368,15 5.99777251,15 L17.9933175,15 L17.9933175,13 L5.99777251,13 L7.09736413,11 L14.5445983,11 Z M5.15808435,4 L17.3035737,4 L14.5445983,9 L7.52720449,9 L5.15808435,4 Z M5.99777251,16 C4.89818088,16 4.00851129,16.9 4.00851129,18 C4.00851129,19.1 4.89818088,20 5.99777251,20 C7.09736413,20 7.99703001,19.1 7.99703001,18 C7.99703001,16.9 7.09736413,16 5.99777251,16 Z M15.99406,16 C14.8944684,16 14.0047988,16.9 14.0047988,18 C14.0047988,19.1 14.8944684,20 15.99406,20 C17.0936516,20 17.9933175,19.1 17.9933175,18 C17.9933175,16.9 17.0936516,16 15.99406,16 Z"/>
  </g>
</svg>
