<?xml version="1.0" encoding="UTF-8"?>
<svg width="100px" height="100px" viewBox="0 0 100 100" version="1.1" xmlns="http://www.w3.org/2000/svg" xmlns:xlink="http://www.w3.org/1999/xlink">
    <title>Illustrations/Dark/100px/add_draft</title>
    <defs>
        <filter x="-42.2%" y="-42.2%" width="184.4%" height="184.4%" filterUnits="objectBoundingBox" id="filter-1">
            <feGaussianBlur stdDeviation="4" in="SourceGraphic"></feGaussianBlur>
        </filter>
    </defs>
    <g id="Illustrations/Dark/100px/add_draft" stroke="none" stroke-width="1" fill="none" fill-rule="evenodd">
        <g id="sketch" transform="translate(12.000000, 11.000000)">
            <g id="add_draft" transform="translate(0.000000, 0.075195)">
                <polygon id="Rectangle" fill="#8DA4FA" transform="translate(3.500000, 34.835046) rotate(180.000000) translate(-3.500000, -34.835046) " points="2 7.27191935 5 10.745288 5 59.745288 2 62.3981733"></polygon>
                <path d="M75.0482305,14.1827988 L25.0702676,14.1827988 C24.4393789,8.47366992 19.0728398,4 12.5664902,4 C5.63724219,4 0,9.07387891 0,15.3107285 L0,54.0868457 C0,61.8781328 7.05813281,68.2167969 15.7338672,68.2167969 L30.8714355,68.2167969 C31.4949551,68.2167969 32.0005684,67.7119355 32.0005684,67.0888672 C32.0005684,66.4657988 31.4951055,65.9609375 30.8714355,65.9609375 L15.7338672,65.9609375 C8.30336719,65.9609375 2.25811523,60.634252 2.25811523,54.0868457 C2.25811523,49.0940273 6.88247656,45.0319766 12.5664902,45.0319766 C18.2506543,45.0319766 22.8748652,49.0940273 22.8748652,54.0868457 C22.8748652,54.1054941 22.8768203,54.1236914 22.8777227,54.1421895 C22.8768203,54.1606875 22.8748652,54.1788848 22.8748652,54.1975332 C22.8748652,57.7344199 19.5796562,60.6118437 15.5291855,60.6118437 C11.4811211,60.6118437 8.18786719,57.7342695 8.18786719,54.1975332 C8.18786719,52.2526816 10.0259414,50.6705723 12.2852598,50.6705723 C14.546834,50.6705723 16.3867129,52.252832 16.3867129,54.1975332 C16.3867129,54.8206016 16.8921758,55.3254629 17.5158457,55.3254629 C18.1393652,55.3254629 18.6449785,54.8206016 18.6449785,54.1975332 C18.6449785,51.0089512 15.7920684,48.4147129 12.2854102,48.4147129 C8.78100781,48.4147129 5.92990234,51.0089512 5.92990234,54.1975332 C5.92990234,58.9783008 10.2361875,62.8677031 15.5294863,62.8677031 C20.825041,62.8677031 25.1332812,58.9783008 25.1332812,54.1975332 C25.1332812,54.1788848 25.1313262,54.1606875 25.1304238,54.1421895 C25.1313262,54.1236914 25.1332812,54.1054941 25.1332812,54.0868457 L25.1332812,16.4386582 L74.7421855,16.4386582 L74.7421855,65.9609375 L36.0808164,65.9609375 C35.4572969,65.9609375 34.9516836,66.4657988 34.9516836,67.0888672 C34.9516836,67.7119355 35.4571465,68.2167969 36.0808164,68.2167969 L75.0483809,68.2167969 C76.1245762,68.2167969 77.0001504,67.3821289 77.0001504,66.3563145 L77.0001504,16.0431309 C77.0001504,15.0173164 76.1244258,14.1827988 75.0482305,14.1827988 Z M12.5664902,42.7761172 C8.30306641,42.7761172 4.53126953,44.6987109 2.25811523,47.629373 L2.25811523,15.3107285 C2.25811523,10.3179102 6.88247656,6.25585938 12.5664902,6.25585938 C18.2506543,6.25585938 22.8748652,10.3179102 22.8748652,15.3107285 L22.8748652,47.629373 C20.6017109,44.6987109 16.8299141,42.7761172 12.5664902,42.7761172 Z" id="Shape" fill="#404B8A" fill-rule="nonzero"></path>
                <line x1="26.9527327" y1="67.0628976" x2="39.8317749" y2="67.0628976" id="Path-17" stroke="#404B8A" stroke-width="2.25"></line>
                <circle id="Oval" fill="#879DEF" filter="url(#filter-1)" cx="71.2113821" cy="17.1361868" r="14.2113821"></circle>
                <circle id="Oval-Copy" fill="#879DEF" cx="71.2113821" cy="17.1361868" r="14.2113821"></circle>
                <circle id="Oval" stroke="#404B8A" stroke-width="1.5" cx="70.2113821" cy="15.1361868" r="14.2113821"></circle>
                <line x1="65" y1="39.4248047" x2="31" y2="39.4248047" id="Line-3-Copy-3" stroke="#414D86" stroke-width="1.7" stroke-linecap="round" stroke-dasharray="3"></line>
                <line x1="65" y1="48.4248047" x2="31" y2="48.4248047" id="Line-3-Copy-4" stroke="#414D86" stroke-width="1.7" stroke-linecap="round" stroke-dasharray="3"></line>
                <g id="eraser" transform="translate(61.000000, 6.924805)" fill="#000000" fill-rule="nonzero">
                    <path d="M9.58238734,15.7857143 L17.2118457,7.04285714 C17.9271074,6.19285714 17.9271074,4.85714286 17.0926354,4.00714286 L13.8739577,0.728571429 C13.5163268,0.242857143 12.9202754,0 12.3242239,0 L10.1784388,0 C9.58238734,0 8.98633591,0.242857143 8.50949476,0.728571429 L0.522405544,9.95714286 C-0.192856177,10.8071429 -0.192856177,12.2642857 0.641615831,12.9928571 L3.86029357,16.2714286 C4.21792444,16.7571429 4.81397587,17 5.4100273,17 L7.92508114,17 L9.5,15.7857143 L9.58238734,15.7857143 Z M8.03265361,15.6642857 C8.03265361,15.6642857 8.03265361,15.5428571 8.03265361,15.6642857 L4.81397587,12.3857143 C4.33713472,11.9 4.33713472,11.2928571 4.81397587,10.8071429 L8.86712562,6.07142857 L7.67502275,6.07142857 L4.09871415,10.0785714 C3.38345243,10.9285714 3.38345243,12.1428571 4.21792444,12.9928571 L6.95976103,15.7857143 L5.4100273,15.7857143 C5.17160673,15.7857143 4.93318616,15.6642857 4.69476558,15.5428571 L1.35687755,12.1428571 C0.999246691,11.7785714 0.999246691,11.1714286 1.35687755,10.8071429 L5.52923759,6.07142857 L7.67502275,6.07142857 L11.8473828,1.21428571 L13.0394857,1.21428571 L8.86712562,6.07142857 L12.5626445,10.5642857 L8.39028447,15.4214286 C8.27107419,15.5428571 8.1518639,15.5428571 8.03265361,15.6642857 L8.03265361,15.6642857 Z" id="Shape"></path>
                </g>
            </g>
        </g>
    </g>
</svg>