<svg xmlns="http://www.w3.org/2000/svg" xmlns:xlink="http://www.w3.org/1999/xlink" width="1063" height="756" viewBox="0 0 1063 756">
    <defs>
        <filter id="cifjffodja" width="300%" height="300%" x="-100%" y="-100%" filterUnits="objectBoundingBox">
            <feGaussianBlur in="SourceGraphic" stdDeviation="2"/>
        </filter>
        <filter id="t7yl36pugb" width="300%" height="300%" x="-100%" y="-100%" filterUnits="objectBoundingBox">
            <feGaussianBlur in="SourceGraphic" stdDeviation="2"/>
        </filter>
        <filter id="8clu517abc" width="300%" height="300%" x="-100%" y="-100%" filterUnits="objectBoundingBox">
            <feGaussianBlur in="SourceGraphic" stdDeviation="2"/>
        </filter>
        <filter id="zdd34g0rld" width="300%" height="300%" x="-100%" y="-100%" filterUnits="objectBoundingBox">
            <feGaussianBlur in="SourceGraphic" stdDeviation="2"/>
        </filter>
        <filter id="wznag7tape" width="300%" height="300%" x="-100%" y="-100%" filterUnits="objectBoundingBox">
            <feGaussianBlur in="SourceGraphic" stdDeviation="2"/>
        </filter>
        <filter id="qdevpu6ytf" width="217.3%" height="152.7%" x="-58.6%" y="-26.3%" filterUnits="objectBoundingBox">
            <feGaussianBlur in="SourceGraphic" stdDeviation="1.977"/>
        </filter>
        <ellipse id="h34zzwznzg" cx="32.304" cy="44.432" rx="8.187" ry="8.114"/>
    </defs>
    <g fill="none" fill-rule="evenodd">
        <g transform="translate(31 40)">
            <circle cx="964" cy="552" r="6" fill="#9EB1FF" fill-rule="nonzero"/>
            <path fill="#9EB1FF" fill-rule="nonzero" d="M246 168c0 2.761-2.239 5-5 5s-5-2.239-5-5 2.239-5 5-5 5 2.239 5 5z"/>
            <path fill="#8DA4FA" fill-rule="nonzero" d="M731 9c0 2.761-2.239 5-5 5s-5-2.239-5-5 2.239-5 5-5 5 2.239 5 5z"/>
            <path fill="#9EB1FF" fill-rule="nonzero" d="M180.114 31.444c-.261-.14-.476-.353-.618-.612l-2.189-4.072c-.265-.47-.765-.76-1.308-.76s-1.044.29-1.309.76l-2.212 4.072c-.126.263-.335.477-.595.612l-4.115 2.354c-.474.262-.768.758-.768 1.295 0 .537.294 1.033.768 1.295l4.115 2.165c.26.135.469.35.595.612l2.212 4.05c.254.482.759.785 1.309.785.55 0 1.054-.303 1.308-.786l2.189-4.049c.142-.258.357-.47.618-.612l4.092-2.165c.488-.252.794-.75.794-1.295 0-.544-.306-1.044-.794-1.295l-4.092-2.354zM581.114 384.444c-.261-.14-.476-.353-.618-.612l-2.189-4.072c-.265-.47-.765-.76-1.308-.76s-1.044.29-1.309.76l-2.212 4.072c-.126.263-.335.477-.595.612l-4.115 2.354c-.474.262-.768.758-.768 1.295 0 .537.294 1.033.768 1.295l4.115 2.165c.26.135.469.35.595.612l2.212 4.05c.254.482.759.785 1.309.785.55 0 1.054-.303 1.308-.786l2.189-4.049c.142-.258.357-.47.618-.612l4.092-2.165c.488-.252.794-.75.794-1.295 0-.544-.306-1.044-.794-1.295l-4.092-2.354zM445.432 539.547l-7.743-4.163c-.486-.264-.885-.665-1.148-1.152l-4.15-7.768c-.485-.902-1.424-1.464-2.445-1.464-1.022 0-1.96.562-2.446 1.464l-4.15 7.768c-.263.487-.662.888-1.148 1.152l-7.743 4.163c-.899.487-1.459 1.428-1.459 2.453s.56 1.966 1.459 2.453l7.743 4.163c.486.264.885.665 1.149 1.152l4.15 7.768c.484.902 1.423 1.464 2.445 1.464 1.021 0 1.96-.562 2.445-1.464l4.15-7.768c.263-.487.662-.888 1.148-1.152l7.743-4.051c.96-.466 1.568-1.44 1.568-2.51 0-1.068-.609-2.042-1.568-2.508zM21.054 278.403l-5.046-2.641c-.322-.168-.588-.425-.766-.74l-2.642-5.046c-.308-.6-.925-.976-1.598-.976-.674 0-1.291.377-1.599.976l-2.641 5.046c-.16.32-.42.58-.74.74l-5.046 2.641c-.6.308-.976.925-.976 1.599 0 .673.377 1.29.976 1.598l5.046 2.642c.308.176.564.431.74.74l2.641 5.072c.32.583.933.946 1.599.946.665 0 1.278-.363 1.598-.946l2.642-5.073c.193-.303.456-.557.766-.74l5.046-2.641c.583-.32.946-.933.946-1.598 0-.666-.363-1.278-.946-1.599zM864.408 183.984l-3.197-1.728c-.209-.091-.376-.258-.467-.467l-1.728-3.197c-.207-.366-.595-.592-1.015-.592-.42 0-.808.226-1.015.592l-1.704 3.197c-.105.2-.268.362-.467.467l-3.198 1.728c-.379.196-.617.588-.617 1.015 0 .427.238.819.617 1.015l3.198 1.704c.189.119.348.278.467.467l1.704 3.198c.196.379.588.617 1.015.617.427 0 .819-.238 1.015-.617l1.728-3.198c.105-.199.268-.362.467-.467l3.197-1.704c.366-.207.592-.595.592-1.015 0-.42-.226-.808-.592-1.015zM704.408 620.984l-3.197-1.728c-.209-.091-.376-.258-.467-.467l-1.728-3.197c-.207-.366-.595-.592-1.015-.592-.42 0-.808.226-1.015.592l-1.704 3.197c-.105.2-.268.362-.467.467l-3.198 1.728c-.379.196-.617.588-.617 1.015 0 .427.238.819.617 1.015l3.198 1.704c.189.119.348.278.467.467l1.704 3.198c.196.379.588.617 1.015.617.427 0 .819-.238 1.015-.617l1.728-3.198c.105-.199.268-.362.467-.467l3.197-1.704c.366-.207.592-.595.592-1.015 0-.42-.226-.808-.592-1.015z"/>
            <path fill="#C7D3FF" fill-rule="nonzero" d="M989.67 15.795l-6.849-3.676c-.427-.207-.772-.552-.978-.98l-3.67-6.86C977.734 3.488 976.9 3 975.998 3c-.903 0-1.735.489-2.177 1.278l-3.668 6.861c-.225.431-.587.776-1.028.98l-6.848 3.676c-.788.442-1.276 1.276-1.276 2.18 0 .905.488 1.74 1.276 2.181l6.848 3.676c.434.238.79.595 1.028 1.029l3.668 6.86c.442.79 1.274 1.279 2.177 1.279s1.736-.489 2.177-1.278l3.669-6.861c.22-.43.56-.788.978-1.03l6.848-3.675c.817-.419 1.331-1.261 1.331-2.18 0-.92-.514-1.762-1.33-2.181z"/>
            <circle cx="962" cy="549" r="6" fill-rule="nonzero" stroke="#414D86" stroke-width="2"/>
            <path fill-rule="nonzero" stroke="#414D86" stroke-width="2" d="M248 166c0 2.761-2.239 5-5 5s-5-2.239-5-5 2.239-5 5-5 5 2.239 5 5h0zM733 7c0 2.761-2.239 5-5 5s-5-2.239-5-5 2.239-5 5-5 5 2.239 5 5h0zM182.114 28.444c-.261-.14-.476-.353-.618-.612l-2.189-4.072c-.265-.47-.765-.76-1.308-.76s-1.044.29-1.309.76l-2.212 4.072c-.126.263-.335.477-.595.612l-4.115 2.354c-.474.262-.768.758-.768 1.295 0 .537.294 1.033.768 1.295l4.115 2.165c.26.135.469.35.595.612l2.212 4.05c.254.482.759.785 1.309.785.55 0 1.054-.303 1.308-.786l2.189-4.049c.142-.258.357-.47.618-.612l4.092-2.165c.488-.252.794-.75.794-1.295 0-.544-.306-1.044-.794-1.295l-4.092-2.354zM583.114 381.444c-.261-.14-.476-.353-.618-.612l-2.189-4.072c-.265-.47-.765-.76-1.308-.76s-1.044.29-1.309.76l-2.212 4.072c-.126.263-.335.477-.595.612l-4.115 2.354c-.474.262-.768.758-.768 1.295 0 .537.294 1.033.768 1.295l4.115 2.165c.26.135.469.35.595.612l2.212 4.05c.254.482.759.785 1.309.785.55 0 1.054-.303 1.308-.786l2.189-4.049c.142-.258.357-.47.618-.612l4.092-2.165c.488-.252.794-.75.794-1.295 0-.544-.306-1.044-.794-1.295l-4.092-2.354zM447.432 536.547l-7.743-4.163c-.486-.264-.885-.665-1.148-1.152l-4.15-7.768c-.485-.902-1.424-1.464-2.445-1.464-1.022 0-1.96.562-2.446 1.464l-4.15 7.768c-.263.487-.662.888-1.148 1.152l-7.743 4.163c-.899.487-1.459 1.428-1.459 2.453s.56 1.966 1.459 2.453l7.743 4.163c.486.264.885.665 1.149 1.152l4.15 7.768c.484.902 1.423 1.464 2.445 1.464 1.021 0 1.96-.562 2.445-1.464l4.15-7.768c.263-.487.662-.888 1.148-1.152l7.743-4.051c.96-.466 1.568-1.44 1.568-2.51 0-1.068-.609-2.042-1.568-2.508h0zM23.054 275.403l-5.046-2.641c-.322-.168-.588-.425-.766-.74l-2.642-5.046c-.308-.6-.925-.976-1.598-.976-.674 0-1.291.377-1.599.976l-2.641 5.046c-.16.32-.42.58-.74.74l-5.046 2.641c-.6.308-.976.925-.976 1.599 0 .673.377 1.29.976 1.598l5.046 2.642c.308.176.564.431.74.74l2.641 5.072c.32.583.933.946 1.599.946.665 0 1.278-.363 1.598-.946l2.642-5.073c.193-.303.456-.557.766-.74l5.046-2.641c.583-.32.946-.933.946-1.598 0-.666-.363-1.278-.946-1.599h0zM866.408 180.984l-3.197-1.728c-.209-.091-.376-.258-.467-.467l-1.728-3.197c-.207-.366-.595-.592-1.015-.592-.42 0-.808.226-1.015.592l-1.704 3.197c-.105.2-.268.362-.467.467l-3.198 1.728c-.379.196-.617.588-.617 1.015 0 .427.238.819.617 1.015l3.198 1.704c.189.119.348.278.467.467l1.704 3.198c.196.379.588.617 1.015.617.427 0 .819-.238 1.015-.617l1.728-3.198c.105-.199.268-.362.467-.467l3.197-1.704c.366-.207.592-.595.592-1.015 0-.42-.226-.808-.592-1.015zM706.408 617.984l-3.197-1.728c-.209-.091-.376-.258-.467-.467l-1.728-3.197c-.207-.366-.595-.592-1.015-.592-.42 0-.808.226-1.015.592l-1.704 3.197c-.105.2-.268.362-.467.467l-3.198 1.728c-.379.196-.617.588-.617 1.015 0 .427.238.819.617 1.015l3.198 1.704c.189.119.348.278.467.467l1.704 3.198c.196.379.588.617 1.015.617.427 0 .819-.238 1.015-.617l1.728-3.198c.105-.199.268-.362.467-.467l3.197-1.704c.366-.207.592-.595.592-1.015 0-.42-.226-.808-.592-1.015zM991.67 12.795l-6.849-3.676c-.427-.207-.772-.552-.978-.98l-3.67-6.86C979.734.488 978.9 0 977.998 0c-.903 0-1.735.489-2.177 1.278l-3.668 6.861c-.225.431-.587.776-1.028.98l-6.848 3.676c-.788.442-1.276 1.276-1.276 2.18 0 .905.488 1.74 1.276 2.181l6.848 3.676c.434.238.79.595 1.028 1.029l3.668 6.86c.442.79 1.274 1.279 2.177 1.279s1.736-.489 2.177-1.278l3.669-6.861c.22-.43.56-.788.978-1.03l6.848-3.675c.817-.419 1.331-1.261 1.331-2.18 0-.92-.514-1.762-1.33-2.181z"/>
            <g transform="translate(731.527 239.992)">
                <path fill="#6F7CBD" stroke="#414D86" d="M165.469 82.78c5.692-8.327 9.015-18.359 9.015-29.156 0-28.843-23.711-52.224-52.96-52.224-16.38 0-31.022 7.332-40.737 18.85"/>
                <path stroke="#414D86" d="M167.606 54.075c0-12.213-4.78-23.326-12.597-31.617"/>
                <path fill="#FFF" stroke="#414D86" d="M166.109 65.737c.72-2.743 1.19-5.585 1.39-8.5"/>
                <path fill="#6F7CBD" stroke="#414D86" d="M63.506 60.511C33.095 32.413 15.973 7.65 20.214 1.13c3.645-5.604 56.702 9.571 106.99 47.465 50.286 37.894 80.906 83.025 74.553 89.415-5.149 5.178-33.741-4.312-69.043-25.524-11.208-17.596-20.621-29.255-28.241-34.977-7.76-5.827-21.415-11.493-40.967-16.997z"/>
                <path fill="#6F7CBD" stroke="#414D86" d="M106.437 89.176c-2.976 7.888-4.36 11.789-4.153 11.702 15.187 9.888 28.126 14.681 30.949 10.935 3.422-4.542-9.32-19.917-28.462-34.342-19.142-14.424-37.433-22.435-40.856-17.893-2.777 3.685 5.085 14.5 18.372 26.151.124.186 3.456-2.29 9.995-7.427 2.432.95 4.979 2.443 7.64 4.477 2.66 2.035 4.832 4.167 6.515 6.397z"/>
                <path stroke="#414D86" d="M133.233 111.813c8.214-.616 12.619-1.34 13.214-2.174 4.177-5.542-11.373-24.305-34.732-41.908-23.36-17.602-45.71-25.904-49.888-20.36-.45 2.655.061 6.632 1.532 11.93"/>
                <path stroke="#414D86" d="M104.976 93.623c1.293.27 2.245.153 2.674-.417 1.222-1.622-2.258-6.306-7.773-10.462s-10.977-6.21-12.2-4.588c-.483.64-.232 1.759.588 3.133"/>
                <path fill="#FFF" stroke="#414D86" d="M72.582 182.257L68.55 193.342"/>
                <circle cx="29.58" cy="8.02" r="3.178" stroke="#6F7CBD"/>
                <circle cx="72.242" cy="24.202" r="3.178" stroke="#6F7CBD"/>
                <circle cx="120.788" cy="53.624" r="3.178" stroke="#6F7CBD"/>
                <circle cx="163.45" cy="91.873" r="3.178" stroke="#6F7CBD"/>
                <circle cx="191.401" cy="127.179" r="3.178" stroke="#6F7CBD"/>
                <path fill="#FFF" stroke="#414D86" d="M88.379 138.826L78.79 165.19 76.283 172.081zM106.437 89.176l-12.114 33.308 12.114-33.308zM101.973 84.508L34.854 194.221M97.664 81.422L80.509 100.726M75.215 106.685L26.33 161.698l48.885-55.013zM20.214 168.58L0 191.329M17.778 136.915L3.685 148.127M91.973 78.508L25.02 131.153"/>
                <g fill="#FF6E61" transform="translate(28.473 7.008)">
                    <circle cx="3" cy="3" r="3" filter="url(#cifjffodja)"/>
                    <circle cx="45" cy="20" r="3" filter="url(#t7yl36pugb)"/>
                    <circle cx="94" cy="49" r="3" filter="url(#8clu517abc)"/>
                    <circle cx="136" cy="88" r="3" filter="url(#zdd34g0rld)"/>
                    <circle cx="164" cy="123" r="3" filter="url(#wznag7tape)"/>
                </g>
                <circle cx="30.58" cy="10.02" r="3.678" fill="#FF6E61"/>
                <circle cx="73.242" cy="26.202" r="3.678" fill="#FF6E61"/>
                <circle cx="121.788" cy="55.624" r="3.678" fill="#FF6E61"/>
                <circle cx="164.45" cy="93.873" r="3.678" fill="#FF6E61"/>
                <circle cx="192.401" cy="129.179" r="3.678" fill="#FF6E61"/>
                <circle cx="29.58" cy="8.02" r="3.178" stroke="#414D86"/>
                <circle cx="72.242" cy="24.202" r="3.178" stroke="#414D86"/>
                <circle cx="120.788" cy="53.624" r="3.178" stroke="#414D86"/>
                <circle cx="163.45" cy="91.873" r="3.178" stroke="#414D86"/>
                <circle cx="191.401" cy="127.179" r="3.178" stroke="#414D86"/>
            </g>
            <g stroke="#414D86">
                <path fill="#6F7CBD" d="M268.73 52.768C250.383 21.214 216.206 0 177.074 0 118.557 0 71.121 47.437 71.121 105.953c0 3.644.184 7.246.543 10.795 44.936-17.985 79.136-30.787 102.6-38.405 20.328-6.6 51.817-15.125 94.467-25.575zM72.176 120.956c7.287 51.41 51.475 90.95 104.898 90.95 58.517 0 105.953-47.437 105.953-105.953 0-17.889-4.433-34.742-12.26-49.521-26.062 4.829-58.74 13.497-98.035 26.004-23.1 7.352-56.618 20.192-100.556 38.52z" transform="translate(28.297 412.324)"/>
                <path d="M282.355 90.01c32.767-15.125 52.466-28.255 50.255-35.061-2.239-6.89-26.448-5.825-62.571 1.434-36.123 7.26-62.746 14.866-100.127 27.012-37.54 12.197-71.358 25.274-97.208 37.15-33.296 15.297-53.37 28.601-51.138 35.468 2.21 6.799 25.818 5.851 61.159-1.152" transform="translate(28.297 412.324)"/>
                <path d="M282.99 94.076c45.454-19.763 73.807-37.415 70.994-46.072-2.84-8.741-36.781-6.225-85.94 4.773-28.865 6.458-62.976 15.84-99.119 27.583-36.28 11.788-69.505 24.298-96.71 36.08C26.16 136.382-2.643 154.235.191 162.957c2.806 8.638 35.984 6.283 84.205-4.387" transform="translate(28.297 412.324)"/>
            </g>
            <g transform="translate(168 275)">
                <g transform="matrix(-1 0 0 1 99 6)">
                    <path fill="#6F7CBD" fill-rule="nonzero" stroke="#6F7CBD" d="M8.213 58.138c-2.62.938-9.357 4.847-8.045 13.29.399 2.936 2.608 4.316 3.407 4.202.737-.105 4.174-10.465 6.033-11.743.153-.106-1.608-1.387-1.395-5.75z"/>
                    <path fill="#414D86" fill-rule="nonzero" d="M83.384 132.364c1.16 0 2.243-.122 3.251-.352-8.308 3.767-51.202-.225-52.653 1.677-1.57 2.06-9.053 52.018-10.018 52.74-.966.721-8.214 0-9.299-.727-.347-.233-.51-6.4-.521-14.741v-1.59c.012-17.735.652-43.728 1.606-45.005.856-1.145 8.954-6.703 21.032-10.869-.23 6.074-.246 10.361-.246 10.942 0 .546.502.966 1.28 1.283-.078 1.052-.845 2.458-1.335 2.723-.565.306-4.535.688-4.974.914-.44.226-.266 1.195.15 1.685.414.49 10.126 2.104 11.477.857.62-.575.902-3.803 1.024-5.32 1.033-.004 1.825-.075 2.075-.178.309-.849 1.78-8.605 3.197-16.278 2.75-.517 5.608-.915 8.552-1.152 4.953 10.73 13.24 23.39 25.402 23.39z"/>
                    <path fill="#414D86" fill-rule="nonzero" stroke="#6F7CBD" d="M69.507 34.812c-10.828 4.17-26.296 11.776-31.914 15.636-4.95.962-24.711 3.233-28.47 4.805-1.348 2.846-1.124 6.194.591 8.833 26.823.921 42.041-2.11 45.509-3.022-.116.814-.182 2.719-.213 5.267C76.546 84.486 91.21 98.398 99 108.067m-.23 1.826c1.656-5.61-5.75-71.708-18.26-77.836-.501-.243-1.524-.177-2.937.131l-9.216 2.926"/>
                    <path fill="#414D86" fill-rule="nonzero" d="M22.257 183.182c.368.75 2.739 5.046 2.472 6.116-.503 1.906-9.969 5.913-10.613 5.693-.645-.219-1.355-1.019-1.098-1.457.257-.439 3.525-3.059 3.867-3.64.342-.58.106-2.788-.645-3.654"/>
                    <path fill-rule="nonzero" stroke="#414D86" d="M43.725 126.64c-.124 1.539-.407 4.693-1.02 5.26-1.35 1.248-11.062-.367-11.477-.856-.415-.49-.589-1.46-.15-1.685.44-.226 4.41-.608 4.974-.914.565-.306 1.496-2.123 1.322-3.172"/>
                    <path fill="#6F7CBD" fill-rule="nonzero" stroke="#414D86" d="M69.536 35.417c-.046 1.403 7.921 1.742 7.967.235l.217-7.236C77 29 74.5 31 69.68 30.646l-.143 4.77z"/>
                    <ellipse cx="71.304" cy="20.682" fill="#6F7CBD" fill-rule="nonzero" stroke="#414D86" rx="10.018" ry="10.045"/>
                    <ellipse cx="60.56" cy="21.466" fill="#FA9E9F" fill-rule="nonzero" rx="1" ry="1.685" transform="rotate(-88.27 60.56 21.466)"/>
                    <ellipse cx="71.156" cy="21.787" fill="#FA9E9F" fill-rule="nonzero" rx="1" ry="1.685" transform="rotate(-88.27 71.156 21.787)"/>
                    <path stroke="#414D86" stroke-linecap="round" stroke-width=".69" d="M64.821 20.09c-.363.507-2.234 2.615-.352 3.546M68.357 24.818c.34 0 .887-.609 1.179-1.182"/>
                    <path fill="#414D86" fill-rule="nonzero" d="M80.972 24.818c1.378-1.29 2.138-13.008.912-14.02-.875-.632-1.935-.96-3.015-.932 0 0-9.7-9.866-13.885-9.866-4.186 0-3.679 2.518-3.679 3.792s1.15 9.232 2.731 10.073c.893-.943 1.933-1.736 3.081-2.347.598.775 5.965 5.988 10.83 7.524 1.362 2.311 3.025 5.776 3.025 5.776z"/>
                    <path stroke="#6F7CBD" stroke-linecap="round" d="M66 59.09c-3.243.659-12.964 2.365-12.964 2.365"/>
                    <path fill-rule="nonzero" stroke="#414D86" d="M83.384 132.364c11.903 0 15.616-12.855 15.616-22.65 0-5.154-45.438-47.078-49.684-47.078-12.533 0-12.78 59.522-12.78 61.803 0 2.28 8.75 2.356 9.697 1.964.63-1.728 6.075-32.087 6.075-32.087 1.017 1.809 10.499 38.048 31.076 38.048z"/>
                </g>
                <circle cx="26.5" cy="22.5" r="22" stroke="#414D86"/>
                <ellipse cx="13.251" cy="11.838" stroke="#6F7CBD" rx="1.276" ry="3.051" transform="rotate(25 13.251 11.838)"/>
                <circle cx="10.133" cy="18.183" r="1.276" stroke="#6F7CBD" transform="rotate(25 10.133 18.183)"/>
            </g>
            <g transform="rotate(72 28.332 145.679)">
                <path fill="#FF6E61" fill-rule="nonzero" d="M30.964 111.603l.008-.017c.155-.317 2.344-4.869 3.673-12.121.888.975 1.38 2.281 1.33 3.647 0 0 .02.352.023.967v.28c-.008 3.246-.476 12.07-5.054 17.239-4.508-5.09-5.034-13.726-5.059-17.088v-.559c.005-.536.022-.84.022-.84-.057-1.552.586-3.028 1.717-4.03.655 4 1.722 8.203 3.34 12.522z" filter="url(#qdevpu6ytf)"/>
                <path fill="#FF6E61" fill-rule="nonzero" d="M30.964 111.603l.008-.017c.155-.317 2.344-4.869 3.673-12.121.888.975 1.38 2.281 1.33 3.647 0 0 .02.352.023.967v.28c-.008 3.246-.476 12.07-5.054 17.239-4.508-5.09-5.034-13.726-5.059-17.088v-.559c.005-.536.022-.84.022-.84-.057-1.552.586-3.028 1.717-4.03.655 4 1.722 8.203 3.34 12.522z"/>
                <path fill="#6F7CBD" fill-rule="nonzero" stroke="#414D86" stroke-linecap="round" stroke-linejoin="round" stroke-width=".5" d="M47.08 22.746c4.335 12.967 5.452 27.662 4.575 40.845-1.526 22.853-8.965 33.25-8.965 33.25-.79-.325-1.592-.616-2.4-.87-1.697-.228-3.281-.42-4.753-.566l.042-.34h0l.052-.456.01-.086c.882-8.16.375-18.684-4.335-30.077h0l-.007.017c-.227.52-5.549 12.911-3.897 29.845h0l.02.199v.016l.01.085.018.18h0l.012.116.02.179c-1.228.061-2.278.193-3.15.396l-.233.057c-1.33.341-2.64.776-3.924 1.306-6.488-12.3-8.582-31.713-8.582-31.713-1.066-11.993.761-26.12 5.483-42.383h0zM24.41 42.559c-1.024 4.404 1.68 8.812 6.04 9.847 4.36 1.034 8.725-1.697 9.75-6.1 1.024-4.405-1.68-8.813-6.04-9.848-4.361-1.034-8.726 1.697-9.75 6.1z"/>
                <path fill-rule="nonzero" stroke="#414D86" stroke-width=".5" d="M31.306 64.446c4.71 11.393 5.217 21.916 4.334 30.077l-.009.086c-1.105 10.08-4.325 16.535-4.325 16.535-1.745-4.661-2.85-9.186-3.489-13.468-.12-.8-.223-1.591-.31-2.374-.03-.266-.06-.531-.086-.795l.059.557c-.02-.185-.04-.369-.058-.553v-.004l-.02-.2c-1.652-16.933 3.67-29.324 3.897-29.844z"/>
                <path fill-rule="nonzero" stroke="#414D86" stroke-width=".5" d="M31.306 64.446c4.71 11.393 5.217 21.916 4.334 30.077l-.009.086c-1.105 10.08-4.325 16.535-4.325 16.535-1.745-4.661-2.85-9.186-3.489-13.468-.12-.8-.223-1.591-.31-2.374-.03-.266-.06-.531-.086-.795l.059.557c-.02-.185-.04-.369-.058-.553v-.004l-.02-.2c-1.652-16.933 3.67-29.324 3.897-29.844z"/>
                <path fill-rule="nonzero" stroke="#414D86" stroke-linecap="round" stroke-width=".5" d="M27.226 99.114c-.664.954-1.02 2.119-.975 3.328 0 0-.683 12.765 5.293 19.558"/>
                <path fill-rule="nonzero" stroke="#414D86" stroke-linecap="round" stroke-width=".5" d="M35.86 99.114c.664.954 1.019 2.119.975 3.328 0 0 .682 12.765-5.294 19.558"/>
                <path fill-rule="nonzero" stroke="#414D86" stroke-width=".5" d="M12.988 73.433c-4.303 2.724-17.944 13.562-11.1 38.228 0 0 4.063-13.74 16.924-18.028M50.527 72.553s19.601 9.507 11.519 38.591c0 0-3.55-14.35-17.39-18.133"/>
                <path fill="#414D86" fill-rule="nonzero" d="M39.31 93.74c.348 0 .678.167.895.454.218.287.299.663.221 1.02l-.73 3.448c-.118.558-.595.95-1.139.937h-3.68c.297-1.54.559-3.208.754-4.99l.01-.086c.027-.258.054-.52.079-.783h3.59zm-11.848 1.164l.044.398c.088.783.192 1.575.311 2.374.095.636.2 1.276.316 1.922h-3.117c-.535 0-.998-.388-1.117-.936l-.73-3.448c-.075-.357.007-.73.224-1.017.217-.286.545-.454.893-.457h3.063c.016.189.034.378.053.568l.02.199v.016l.01.085.03.296-.012-.117.012.117z"/>
                <path fill="#414D86" fill-rule="nonzero" stroke="#414D86" stroke-linejoin="round" stroke-width=".5" d="M29.212 1.265c-5.346 6.358-9.271 13.63-12.136 21.48H47.08C44.286 14.274 40.37 6.666 34.497 1 33.765.313 32.794-.045 31.8.005c-.993.05-1.925.503-2.588 1.26z"/>
                <ellipse cx="32.313" cy="44.458" fill-rule="nonzero" stroke="#414D86" stroke-width="2.471" rx="10.507" ry="10.654"/>
                <use fill-rule="nonzero" stroke="#414D86" stroke-width=".988" transform="rotate(-76.78 32.304 44.432)" xlink:href="#h34zzwznzg"/>
            </g>
        </g>
    </g>
</svg>
