<?xml version="1.0" encoding="UTF-8"?>
<svg width="1063px" height="756px" viewBox="0 0 1063 756" version="1.1" xmlns="http://www.w3.org/2000/svg" xmlns:xlink="http://www.w3.org/1999/xlink">
    <title>Illustrations/dark/error_404</title>
    <defs>
        <filter x="-100.0%" y="-100.0%" width="300.0%" height="300.0%" filterUnits="objectBoundingBox" id="filter-1">
            <feGaussianBlur stdDeviation="2" in="SourceGraphic"></feGaussianBlur>
        </filter>
        <filter x="-100.0%" y="-100.0%" width="300.0%" height="300.0%" filterUnits="objectBoundingBox" id="filter-2">
            <feGaussianBlur stdDeviation="2" in="SourceGraphic"></feGaussianBlur>
        </filter>
        <filter x="-100.0%" y="-100.0%" width="300.0%" height="300.0%" filterUnits="objectBoundingBox" id="filter-3">
            <feGaussianBlur stdDeviation="2" in="SourceGraphic"></feGaussianBlur>
        </filter>
        <filter x="-100.0%" y="-100.0%" width="300.0%" height="300.0%" filterUnits="objectBoundingBox" id="filter-4">
            <feGaussianBlur stdDeviation="2" in="SourceGraphic"></feGaussianBlur>
        </filter>
        <filter x="-100.0%" y="-100.0%" width="300.0%" height="300.0%" filterUnits="objectBoundingBox" id="filter-5">
            <feGaussianBlur stdDeviation="2" in="SourceGraphic"></feGaussianBlur>
        </filter>
        <filter x="-58.6%" y="-26.3%" width="217.3%" height="152.7%" filterUnits="objectBoundingBox" id="filter-6">
            <feGaussianBlur stdDeviation="1.97670488" in="SourceGraphic"></feGaussianBlur>
        </filter>
        <ellipse id="path-7" cx="32.3035895" cy="44.4321024" rx="8.18657258" ry="8.11398539"></ellipse>
    </defs>
    <g id="Illustrations/dark/error_404" stroke="none" stroke-width="1" fill="none" fill-rule="evenodd">
        <g id="flatened" transform="translate(31.000000, 40.000000)">
            <circle id="Oval" fill="#9EB1FF" fill-rule="nonzero" cx="964" cy="552" r="6"></circle>
            <path d="M246,168 C246,170.761424 243.761424,173 241,173 C238.238576,173 236,170.761424 236,168 C236,165.238576 238.238576,163 241,163 C243.761424,163 246,165.238576 246,168 L246,168 Z" id="Path" fill="#9EB1FF" fill-rule="nonzero"></path>
            <path d="M731,9 C731,11.7614237 728.761424,14 726,14 C723.238576,14 721,11.7614237 721,9 C721,6.23857625 723.238576,4 726,4 C728.761424,4 731,6.23857625 731,9 L731,9 Z" id="Path" fill="#8DA4FA" fill-rule="nonzero"></path>
            <path d="M180.114204,31.4442138 C179.852802,31.3033592 179.638038,31.090842 179.495694,30.8321749 L177.307121,26.759762 C177.042295,26.2906574 176.541753,26 175.998734,26 C175.455715,26 174.955174,26.2906574 174.690348,26.759762 L172.477986,30.8321749 C172.351923,31.0945122 172.14323,31.3092824 171.883265,31.4442138 L167.767795,33.7982097 C167.29373,34.060265 167,34.5555695 167,35.0929074 C167,35.6302454 167.29373,36.1255499 167.767795,36.3876052 L171.883265,38.5532814 C172.14323,38.6882128 172.351923,38.902983 172.477986,39.1653203 L174.690348,43.2141932 C174.944262,43.6970734 175.448642,44 175.998734,44 C176.548827,44 177.053207,43.6970734 177.307121,43.2141932 L179.495694,39.1653203 C179.638038,38.9066532 179.852802,38.694136 180.114204,38.5532814 L184.205885,36.3876052 C184.693871,36.1363479 185,35.637245 185,35.0929074 C185,34.5485698 184.693871,34.0494669 184.205885,33.7982097 L180.114204,31.4442138 Z" id="Path" fill="#9EB1FF" fill-rule="nonzero"></path>
            <path d="M581.114204,384.444214 C580.852802,384.303359 580.638038,384.090842 580.495694,383.832175 L578.307121,379.759762 C578.042295,379.290657 577.541753,379 576.998734,379 C576.455715,379 575.955174,379.290657 575.690348,379.759762 L573.477986,383.832175 C573.351923,384.094512 573.14323,384.309282 572.883265,384.444214 L568.767795,386.79821 C568.29373,387.060265 568,387.555569 568,388.092907 C568,388.630245 568.29373,389.12555 568.767795,389.387605 L572.883265,391.553281 C573.14323,391.688213 573.351923,391.902983 573.477986,392.16532 L575.690348,396.214193 C575.944262,396.697073 576.448642,397 576.998734,397 C577.548827,397 578.053207,396.697073 578.307121,396.214193 L580.495694,392.16532 C580.638038,391.906653 580.852802,391.694136 581.114204,391.553281 L585.205885,389.387605 C585.693871,389.136348 586,388.637245 586,388.092907 C586,387.54857 585.693871,387.049467 585.205885,386.79821 L581.114204,384.444214 Z" id="Path" fill="#9EB1FF" fill-rule="nonzero"></path>
            <path d="M445.43249,539.546881 L437.689094,535.384013 C437.203044,535.119701 436.80402,534.719399 436.540552,534.231791 L432.390981,526.463582 C431.905911,525.561996 430.966955,525 429.945698,525 C428.924442,525 427.985486,525.561996 427.500415,526.463582 L423.350844,534.231791 C423.087376,534.719399 422.688353,535.119701 422.202303,535.384013 L414.458907,539.546881 C413.560201,540.033506 413,540.975471 413,542 C413,543.024529 413.560201,543.966494 414.458907,544.453119 L422.202303,548.615987 C422.688353,548.880299 423.087376,549.280601 423.350844,549.768209 L427.500415,557.536418 C427.985486,558.438004 428.924442,559 429.945698,559 C430.966955,559 431.905911,558.438004 432.390981,557.536418 L436.540552,549.768209 C436.80402,549.280601 437.203044,548.880299 437.689094,548.615987 L445.43249,544.564624 C446.391125,544.098848 447,543.124316 447,542.055753 C447,540.987189 446.391125,540.012657 445.43249,539.546881 L445.43249,539.546881 Z" id="Path" fill="#9EB1FF" fill-rule="nonzero"></path>
            <path d="M21.0536569,278.403495 L16.0078951,275.761735 C15.6864231,275.594367 15.4203262,275.337446 15.2417847,275.022042 L12.6000246,269.97628 C12.2924719,269.376913 11.6754285,269 11.0017598,269 C10.3280911,269 9.71104772,269.376913 9.40349496,269.97628 L6.76173488,275.022042 C6.6010809,275.341699 6.34169944,275.601081 6.02204206,275.761735 L0.976280316,278.403495 C0.376913339,278.711048 0,279.328091 0,280.00176 C0,280.675428 0.376913339,281.292472 0.976280316,281.600025 L6.02204206,284.241785 C6.33041908,284.417632 6.58588782,284.673101 6.76173488,284.981478 L9.40349496,290.053657 C9.72352498,290.637239 10.3361872,291 11.0017598,291 C11.6673325,291 12.2799946,290.637239 12.6000246,290.053657 L15.2417847,284.981478 C15.4349455,284.6777 15.6975286,284.424171 16.0078951,284.241785 L21.0536569,281.600025 C21.6372387,281.279995 22,280.667332 22,280.00176 C22,279.336187 21.6372387,278.723525 21.0536569,278.403495 L21.0536569,278.403495 Z" id="Path" fill="#9EB1FF" fill-rule="nonzero"></path>
            <path d="M864.408355,183.983515 L861.21058,182.256249 C861.002037,182.164537 860.835463,181.997963 860.743751,181.78942 L859.016485,178.591645 C858.809259,178.225989 858.421427,178 858.001133,178 C857.580839,178 857.193008,178.225989 856.985781,178.591645 L855.281857,181.78942 C855.176667,181.988386 855.013993,182.151059 854.815028,182.256249 L851.617253,183.983515 C851.238038,184.180144 851,184.571706 851,184.998867 C851,185.426028 851.238038,185.81759 851.617253,186.014219 L854.815028,187.718143 C855.003506,187.83699 855.16301,187.996494 855.281857,188.184972 L856.985781,191.382747 C857.18241,191.761962 857.573972,192 858.001133,192 C858.428294,192 858.819856,191.761962 859.016485,191.382747 L860.743751,188.184972 C860.848941,187.986007 861.011614,187.823333 861.21058,187.718143 L864.408355,186.014219 C864.774011,185.806992 865,185.419161 865,184.998867 C865,184.578573 864.774011,184.190741 864.408355,183.983515 Z" id="Path" fill="#9EB1FF" fill-rule="nonzero"></path>
            <path d="M704.408355,620.983515 L701.21058,619.256249 C701.002037,619.164537 700.835463,618.997963 700.743751,618.78942 L699.016485,615.591645 C698.809259,615.225989 698.421427,615 698.001133,615 C697.580839,615 697.193008,615.225989 696.985781,615.591645 L695.281857,618.78942 C695.176667,618.988386 695.013993,619.151059 694.815028,619.256249 L691.617253,620.983515 C691.238038,621.180144 691,621.571706 691,621.998867 C691,622.426028 691.238038,622.81759 691.617253,623.014219 L694.815028,624.718143 C695.003506,624.83699 695.16301,624.996494 695.281857,625.184972 L696.985781,628.382747 C697.18241,628.761962 697.573972,629 698.001133,629 C698.428294,629 698.819856,628.761962 699.016485,628.382747 L700.743751,625.184972 C700.848941,624.986007 701.011614,624.823333 701.21058,624.718143 L704.408355,623.014219 C704.774011,622.806992 705,622.419161 705,621.998867 C705,621.578573 704.774011,621.190741 704.408355,620.983515 Z" id="Path" fill="#9EB1FF" fill-rule="nonzero"></path>
            <path d="M989.669368,15.7947313 L982.821026,12.1192834 C982.393923,11.9124481 982.04915,11.5670467 981.842692,11.1391639 L978.173937,4.27832788 C977.732766,3.48892309 976.900206,3 975.997143,3 C975.094079,3 974.261519,3.48892309 973.820348,4.27832788 L970.151593,11.1391639 C969.926517,11.5704833 969.565337,11.9150924 969.124342,12.1192834 L962.276,15.7947313 C961.488033,16.2367067 961,17.0707859 961,17.975497 C961,18.8802081 961.488033,19.7142873 962.276,20.1562628 L969.124342,23.8317107 C969.557659,24.069667 969.91407,24.4267287 970.151593,24.8608361 L973.820348,31.7216721 C974.261519,32.5110769 975.094079,33 975.997143,33 C976.900206,33 977.732766,32.5110769 978.173937,31.7216721 L981.842692,24.8608361 C982.062527,24.4301777 982.402381,24.0726807 982.821026,23.8317107 L989.669368,20.1562628 C990.486195,19.7370266 991,18.8949543 991,17.975497 C991,17.0560398 990.486195,16.2139675 989.669368,15.7947313 Z" id="Path" fill="#C7D3FF" fill-rule="nonzero"></path>
            <circle id="Oval" stroke="#414D86" stroke-width="2" fill-rule="nonzero" cx="962" cy="549" r="6"></circle>
            <path d="M248,166 C248,168.761424 245.761424,171 243,171 C240.238576,171 238,168.761424 238,166 C238,163.238576 240.238576,161 243,161 C245.761424,161 248,163.238576 248,166 L248,166 Z" id="Path" stroke="#414D86" stroke-width="2" fill-rule="nonzero"></path>
            <path d="M733,7 C733,9.76142375 730.761424,12 728,12 C725.238576,12 723,9.76142375 723,7 C723,4.23857625 725.238576,2 728,2 C730.761424,2 733,4.23857625 733,7 L733,7 Z" id="Path" stroke="#414D86" stroke-width="2" fill-rule="nonzero"></path>
            <path d="M182.114204,28.4442138 C181.852802,28.3033592 181.638038,28.090842 181.495694,27.8321749 L179.307121,23.759762 C179.042295,23.2906574 178.541753,23 177.998734,23 C177.455715,23 176.955174,23.2906574 176.690348,23.759762 L174.477986,27.8321749 C174.351923,28.0945122 174.14323,28.3092824 173.883265,28.4442138 L169.767795,30.7982097 C169.29373,31.060265 169,31.5555695 169,32.0929074 C169,32.6302454 169.29373,33.1255499 169.767795,33.3876052 L173.883265,35.5532814 C174.14323,35.6882128 174.351923,35.902983 174.477986,36.1653203 L176.690348,40.2141932 C176.944262,40.6970734 177.448642,41 177.998734,41 C178.548827,41 179.053207,40.6970734 179.307121,40.2141932 L181.495694,36.1653203 C181.638038,35.9066532 181.852802,35.694136 182.114204,35.5532814 L186.205885,33.3876052 C186.693871,33.1363479 187,32.637245 187,32.0929074 C187,31.5485698 186.693871,31.0494669 186.205885,30.7982097 L182.114204,28.4442138 Z" id="Path" stroke="#414D86" stroke-width="2" fill-rule="nonzero"></path>
            <path d="M583.114204,381.444214 C582.852802,381.303359 582.638038,381.090842 582.495694,380.832175 L580.307121,376.759762 C580.042295,376.290657 579.541753,376 578.998734,376 C578.455715,376 577.955174,376.290657 577.690348,376.759762 L575.477986,380.832175 C575.351923,381.094512 575.14323,381.309282 574.883265,381.444214 L570.767795,383.79821 C570.29373,384.060265 570,384.555569 570,385.092907 C570,385.630245 570.29373,386.12555 570.767795,386.387605 L574.883265,388.553281 C575.14323,388.688213 575.351923,388.902983 575.477986,389.16532 L577.690348,393.214193 C577.944262,393.697073 578.448642,394 578.998734,394 C579.548827,394 580.053207,393.697073 580.307121,393.214193 L582.495694,389.16532 C582.638038,388.906653 582.852802,388.694136 583.114204,388.553281 L587.205885,386.387605 C587.693871,386.136348 588,385.637245 588,385.092907 C588,384.54857 587.693871,384.049467 587.205885,383.79821 L583.114204,381.444214 Z" id="Path" stroke="#414D86" stroke-width="2" fill-rule="nonzero"></path>
            <path d="M447.43249,536.546881 L439.689094,532.384013 C439.203044,532.119701 438.80402,531.719399 438.540552,531.231791 L434.390981,523.463582 C433.905911,522.561996 432.966955,522 431.945698,522 C430.924442,522 429.985486,522.561996 429.500415,523.463582 L425.350844,531.231791 C425.087376,531.719399 424.688353,532.119701 424.202303,532.384013 L416.458907,536.546881 C415.560201,537.033506 415,537.975471 415,539 C415,540.024529 415.560201,540.966494 416.458907,541.453119 L424.202303,545.615987 C424.688353,545.880299 425.087376,546.280601 425.350844,546.768209 L429.500415,554.536418 C429.985486,555.438004 430.924442,556 431.945698,556 C432.966955,556 433.905911,555.438004 434.390981,554.536418 L438.540552,546.768209 C438.80402,546.280601 439.203044,545.880299 439.689094,545.615987 L447.43249,541.564624 C448.391125,541.098848 449,540.124316 449,539.055753 C449,537.987189 448.391125,537.012657 447.43249,536.546881 L447.43249,536.546881 Z" id="Path" stroke="#414D86" stroke-width="2" fill-rule="nonzero"></path>
            <path d="M23.0536569,275.403495 L18.0078951,272.761735 C17.6864231,272.594367 17.4203262,272.337446 17.2417847,272.022042 L14.6000246,266.97628 C14.2924719,266.376913 13.6754285,266 13.0017598,266 C12.3280911,266 11.7110477,266.376913 11.403495,266.97628 L8.76173488,272.022042 C8.6010809,272.341699 8.34169944,272.601081 8.02204206,272.761735 L2.97628032,275.403495 C2.37691334,275.711048 2,276.328091 2,277.00176 C2,277.675428 2.37691334,278.292472 2.97628032,278.600025 L8.02204206,281.241785 C8.33041908,281.417632 8.58588782,281.673101 8.76173488,281.981478 L11.403495,287.053657 C11.723525,287.637239 12.3361872,288 13.0017598,288 C13.6673325,288 14.2799946,287.637239 14.6000246,287.053657 L17.2417847,281.981478 C17.4349455,281.6777 17.6975286,281.424171 18.0078951,281.241785 L23.0536569,278.600025 C23.6372387,278.279995 24,277.667332 24,277.00176 C24,276.336187 23.6372387,275.723525 23.0536569,275.403495 L23.0536569,275.403495 Z" id="Path" stroke="#414D86" stroke-width="2" fill-rule="nonzero"></path>
            <path d="M866.408355,180.983515 L863.21058,179.256249 C863.002037,179.164537 862.835463,178.997963 862.743751,178.78942 L861.016485,175.591645 C860.809259,175.225989 860.421427,175 860.001133,175 C859.580839,175 859.193008,175.225989 858.985781,175.591645 L857.281857,178.78942 C857.176667,178.988386 857.013993,179.151059 856.815028,179.256249 L853.617253,180.983515 C853.238038,181.180144 853,181.571706 853,181.998867 C853,182.426028 853.238038,182.81759 853.617253,183.014219 L856.815028,184.718143 C857.003506,184.83699 857.16301,184.996494 857.281857,185.184972 L858.985781,188.382747 C859.18241,188.761962 859.573972,189 860.001133,189 C860.428294,189 860.819856,188.761962 861.016485,188.382747 L862.743751,185.184972 C862.848941,184.986007 863.011614,184.823333 863.21058,184.718143 L866.408355,183.014219 C866.774011,182.806992 867,182.419161 867,181.998867 C867,181.578573 866.774011,181.190741 866.408355,180.983515 Z" id="Path" stroke="#414D86" stroke-width="2" fill-rule="nonzero"></path>
            <path d="M706.408355,617.983515 L703.21058,616.256249 C703.002037,616.164537 702.835463,615.997963 702.743751,615.78942 L701.016485,612.591645 C700.809259,612.225989 700.421427,612 700.001133,612 C699.580839,612 699.193008,612.225989 698.985781,612.591645 L697.281857,615.78942 C697.176667,615.988386 697.013993,616.151059 696.815028,616.256249 L693.617253,617.983515 C693.238038,618.180144 693,618.571706 693,618.998867 C693,619.426028 693.238038,619.81759 693.617253,620.014219 L696.815028,621.718143 C697.003506,621.83699 697.16301,621.996494 697.281857,622.184972 L698.985781,625.382747 C699.18241,625.761962 699.573972,626 700.001133,626 C700.428294,626 700.819856,625.761962 701.016485,625.382747 L702.743751,622.184972 C702.848941,621.986007 703.011614,621.823333 703.21058,621.718143 L706.408355,620.014219 C706.774011,619.806992 707,619.419161 707,618.998867 C707,618.578573 706.774011,618.190741 706.408355,617.983515 Z" id="Path" stroke="#414D86" stroke-width="2" fill-rule="nonzero"></path>
            <path d="M991.669368,12.7947313 L984.821026,9.11928338 C984.393923,8.91244808 984.04915,8.56704669 983.842692,8.13916394 L980.173937,1.27832788 C979.732766,0.488923086 978.900206,0 977.997143,0 C977.094079,0 976.261519,0.488923086 975.820348,1.27832788 L972.151593,8.13916394 C971.926517,8.57048333 971.565337,8.91509243 971.124342,9.11928338 L964.276,12.7947313 C963.488033,13.2367067 963,14.0707859 963,14.975497 C963,15.8802081 963.488033,16.7142873 964.276,17.1562628 L971.124342,20.8317107 C971.557659,21.069667 971.91407,21.4267287 972.151593,21.8608361 L975.820348,28.7216721 C976.261519,29.5110769 977.094079,30 977.997143,30 C978.900206,30 979.732766,29.5110769 980.173937,28.7216721 L983.842692,21.8608361 C984.062527,21.4301777 984.402381,21.0726807 984.821026,20.8317107 L991.669368,17.1562628 C992.486195,16.7370266 993,15.8949543 993,14.975497 C993,14.0560398 992.486195,13.2139675 991.669368,12.7947313 Z" id="Path" stroke="#414D86" stroke-width="2" fill-rule="nonzero"></path>
            <g id="Group" transform="translate(731.527097, 239.992037)">
                <path d="M165.468892,82.779365 C171.160965,74.4529254 174.483661,64.4211271 174.483661,53.6240499 C174.483661,24.7814306 150.772781,1.39986794 121.523928,1.39986794 C105.144589,1.39986794 90.501954,8.73230901 80.7874659,20.2500745" id="Oval" stroke="#414D86" fill="#6F7CBD"></path>
                <path d="M167.606076,54.0752608 C167.606076,41.8617426 162.825335,30.7493181 155.008523,22.4584262" id="Oval" stroke="#414D86"></path>
                <path d="M166.108932,65.7373662 C166.828359,62.9939884 167.299926,60.1522749 167.498669,57.2368429" id="Oval" stroke="#414D86" fill="#FFFFFF"></path>
                <path d="M63.5064794,60.5111977 C33.0948929,32.412867 15.9734677,7.64880199 20.2143665,1.12860979 C23.8589502,-4.47477473 76.9161041,10.7000482 127.203212,48.5941024 C177.490321,86.4881566 208.110284,131.619029 201.757171,138.00891 C196.608439,143.18744 168.015811,133.696549 132.714266,112.484592 C121.50638,94.8890445 112.092593,83.2301681 104.472903,77.507963 C96.7130845,71.680525 83.0576101,66.0149365 63.5064794,60.5111977 Z" id="Path" stroke="#414D86" fill="#6F7CBD"></path>
                <path d="M106.437288,89.1760598 C103.461031,97.0639952 102.076588,100.964517 102.283959,100.877625 C117.471239,110.765604 130.40953,115.559007 133.232538,111.812749 C136.655227,107.270688 123.912577,91.8955047 104.771032,77.4713163 C85.6294877,63.047128 67.3375625,55.0360812 63.9148737,59.5781426 C61.1382216,63.2628844 69.0003765,74.07717 82.2870066,85.7294268 C82.4109373,85.9151176 85.7426359,83.43936 92.2821024,78.3021541 C94.7143355,79.2526205 97.2607796,80.7450241 99.9214347,82.779365 C102.58209,84.8137058 104.754041,86.9459374 106.437288,89.1760598 Z" id="Oval" stroke="#414D86" fill="#6F7CBD"></path>
                <path d="M133.232538,111.812749 C141.446922,111.197295 145.851869,110.472869 146.44738,109.63947 C150.624221,104.096615 135.073868,85.3336798 111.714695,67.7312804 C88.3555221,50.128881 66.0040746,41.827277 61.8272341,47.3701316 C61.3774553,50.0260525 61.8881029,54.0032784 63.3591771,59.3018092" id="Oval" stroke="#414D86"></path>
                <path d="M104.975671,93.6234035 C106.269012,93.8921453 107.220889,93.7758067 107.65009,93.2062372 C108.872479,91.5840724 105.392338,86.8998454 99.8769778,82.7437233 C94.3616175,78.5876013 88.8995926,76.533423 87.6772038,78.1555878 C87.1944128,78.7962731 87.4451742,79.9146125 88.2651556,81.2894169" id="Oval" stroke="#414D86"></path>
                <line x1="72.5820509" y1="182.257358" x2="68.5503934" y2="193.341962" id="Path-38" stroke="#414D86" fill="#FFFFFF"></line>
                <circle id="Oval" stroke="#6F7CBD" cx="29.5799452" cy="8.01983467" r="3.17775929"></circle>
                <circle id="Oval" stroke="#6F7CBD" cx="72.241953" cy="24.2019756" r="3.17775929"></circle>
                <circle id="Oval" stroke="#6F7CBD" cx="120.788376" cy="53.6240499" r="3.17775929"></circle>
                <circle id="Oval" stroke="#6F7CBD" cx="163.450384" cy="91.8727466" r="3.17775929"></circle>
                <circle id="Oval" stroke="#6F7CBD" cx="191.401354" cy="127.179236" r="3.17775929"></circle>
                <polygon id="Path-38" stroke="#414D86" fill="#FFFFFF" points="88.3788037 138.825901 78.7898892 165.189581 76.2832669 172.081266"></polygon>
                <path d="M106.437288,89.1760598 L94.3225488,122.48422 L106.437288,89.1760598 Z" id="Path-38" stroke="#414D86" fill="#FFFFFF"></path>
                <line x1="101.972903" y1="84.507963" x2="34.854365" y2="194.221482" id="Path-39" stroke="#414D86" fill="#FFFFFF"></line>
                <line x1="97.663647" y1="81.4215046" x2="80.5093921" y2="100.726357" id="Path-40" stroke="#414D86" fill="#FFFFFF"></line>
                <path d="M75.2145271,106.685029 L26.3296887,161.698469 L75.2145271,106.685029 Z" id="Path-40" stroke="#414D86" fill="#FFFFFF"></path>
                <line x1="20.214484" y1="168.580326" x2="0" y2="191.329062" id="Path-40" stroke="#414D86" fill="#FFFFFF"></line>
                <line x1="17.7780773" y1="136.914791" x2="3.68545106" y2="148.126984" id="Path-41" stroke="#414D86" fill="#FFFFFF"></line>
                <line x1="91.9729027" y1="78.507963" x2="25.0198526" y2="131.153184" id="Path-41" stroke="#414D86" fill="#FFFFFF"></line>
                <g transform="translate(28.472903, 7.007963)" fill="#FF6E61" id="Oval">
                    <circle filter="url(#filter-1)" cx="3" cy="3" r="3"></circle>
                    <circle filter="url(#filter-2)" cx="45" cy="20" r="3"></circle>
                    <circle filter="url(#filter-3)" cx="94" cy="49" r="3"></circle>
                    <circle filter="url(#filter-4)" cx="136" cy="88" r="3"></circle>
                    <circle filter="url(#filter-5)" cx="164" cy="123" r="3"></circle>
                </g>
                <circle id="Oval" fill="#FF6E61" cx="30.5799452" cy="10.0198347" r="3.67775929"></circle>
                <circle id="Oval" fill="#FF6E61" cx="73.241953" cy="26.2019756" r="3.67775929"></circle>
                <circle id="Oval" fill="#FF6E61" cx="121.788376" cy="55.6240499" r="3.67775929"></circle>
                <circle id="Oval" fill="#FF6E61" cx="164.450384" cy="93.8727466" r="3.67775929"></circle>
                <circle id="Oval" fill="#FF6E61" cx="192.401354" cy="129.179236" r="3.67775929"></circle>
                <circle id="Oval" stroke="#414D86" cx="29.5799452" cy="8.01983467" r="3.17775929"></circle>
                <circle id="Oval" stroke="#414D86" cx="72.241953" cy="24.2019756" r="3.17775929"></circle>
                <circle id="Oval" stroke="#414D86" cx="120.788376" cy="53.6240499" r="3.17775929"></circle>
                <circle id="Oval" stroke="#414D86" cx="163.450384" cy="91.8727466" r="3.17775929"></circle>
                <circle id="Oval" stroke="#414D86" cx="191.401354" cy="127.179236" r="3.17775929"></circle>
            </g>
            <g id="Group-3" transform="translate(28.296526, 412.324264)" stroke="#414D86">
                <path d="M268.730914,52.7682943 C250.381747,21.2137296 216.204953,0 177.073427,0 C118.557327,0 71.1206547,47.436672 71.1206547,105.952772 C71.1206547,109.597126 71.3046491,113.198506 71.6638552,116.748129 C116.599534,98.7625941 150.799531,85.9608615 174.263846,78.3429317 C194.59221,71.7431204 226.081233,63.2182413 268.730914,52.7682943 Z M72.1746864,120.9558 C79.4618461,172.366803 123.650253,211.905545 177.073427,211.905545 C235.589527,211.905545 283.026199,164.468873 283.026199,105.952772 C283.026199,88.0640425 278.592947,71.2107544 270.765173,56.4316394 C244.703868,61.2610374 212.025661,69.9292552 172.730552,82.4362929 C149.63153,89.7883616 116.112908,102.628197 72.1746864,120.9558 Z" id="Shape" fill="#6F7CBD"></path>
                <path d="M282.355047,90.0104001 C315.122099,74.8846204 334.820949,61.7546843 332.609619,54.9489101 C330.371221,48.0598274 306.161691,49.1240645 270.038957,56.3830906 C233.916222,63.6421167 207.293365,71.249021 169.911678,83.3950675 C132.372586,95.5922578 98.5535738,108.668882 72.7041801,120.544709 C39.4081857,135.841682 19.334911,149.146364 21.5660466,156.013093 C23.7751543,162.812027 47.3841397,161.864429 82.7247784,154.860695" id="Path"></path>
                <path d="M282.989788,94.0764287 C328.443733,74.3132392 356.796723,56.6607559 353.983961,48.0039655 C351.143688,39.2625047 317.202687,41.7791824 268.043576,52.7770772 C239.179098,59.2346489 205.067994,68.6162217 168.925414,80.359658 C132.645014,92.1478743 99.4195483,104.658283 72.2142056,116.439366 C26.1601207,136.382764 -2.64220854,154.236149 0.191704961,162.958038 C2.99843067,171.596251 36.1755481,169.2407 84.3965982,158.571068" id="Path"></path>
            </g>
            <g id="Group-2" transform="translate(168.000000, 275.000000)">
                <g id="legs-hanging" transform="translate(49.500000, 103.500000) scale(-1, 1) translate(-49.500000, -103.500000) translate(0.000000, 6.000000)">
                    <path d="M8.21281681,58.1379005 C5.59388629,59.0761637 -1.14415691,62.9853616 0.16759488,71.4282931 C0.566701944,74.3644562 2.77639227,75.7435631 3.5746064,75.6298733 C4.31200384,75.5248456 7.7493365,65.1646419 9.60804988,63.88662 C9.76134686,63.7812155 8,62.5 8.21281681,58.1379005 Z" id="Path" stroke="#6F7CBD" fill="#6F7CBD" fill-rule="nonzero"></path>
                    <path d="M83.3842589,132.363636 C84.5443449,132.363636 85.6266321,132.24154 86.6352661,132.012078 C78.3265079,135.778658 35.432719,131.786683 33.9823443,133.689057 C32.4117545,135.749111 24.9289446,185.706661 23.9635821,186.428431 C22.9982196,187.150202 15.750498,186.428431 14.6650904,185.701649 C14.31776,185.469078 14.1558432,179.302719 14.1436095,170.960615 L14.1430611,169.37189 C14.1561313,151.635642 14.7964398,125.64312 15.750498,124.366188 C16.606481,123.220521 24.7042615,117.663431 36.7816917,113.497003 C36.5517332,119.570551 36.5357143,123.858397 36.5357143,124.438788 C36.5357143,124.985236 37.0380831,125.405074 37.8151006,125.722212 C37.73797,126.773705 36.9709773,128.179676 36.4806527,128.445463 C35.9161891,128.75144 31.9456464,129.132733 31.5066192,129.358684 C31.067592,129.584636 31.2412731,130.554345 31.6561779,131.043906 C32.0710828,131.533468 41.7827504,133.14808 43.1336034,131.900639 C43.7547139,131.32589 44.0363364,128.097937 44.1581611,126.581077 C45.1908349,126.576995 45.9829038,126.506167 46.2325858,126.402866 C46.541861,125.554126 48.0130049,117.798269 49.4300483,110.125229 C52.1791883,109.608034 55.0377329,109.209881 57.9819871,108.973179 C62.9348636,119.702301 71.221124,132.363636 83.3842589,132.363636 Z" id="Combined-Shape" fill="#414D86" fill-rule="nonzero"></path>
                    <path d="M69.5071414,34.8115414 C58.6794815,38.9812702 43.2114875,46.5884756 37.592964,50.4481777 C32.6437683,51.4100594 12.8820153,53.6813088 9.12382928,55.2525501 C7.77542774,58.0988995 7.99923559,61.4468023 9.71432988,64.0857464 C36.5370688,65.0073398 51.7549698,61.9756499 55.2229097,61.0641285 C55.1074496,61.8784438 55.0414802,63.7826127 55.0103257,66.3313973 C76.5456066,84.4864169 91.2088314,98.3982246 99,108.06682 M98.7698266,109.893473 C100.426231,104.283336 93.0199521,38.1854451 80.5093463,32.0565969 C80.0089625,31.8138827 78.9864319,31.8795885 77.5734877,32.1883925 L68.3571429,35.1143424" id="Shape" stroke="#6F7CBD" fill="#414D86" fill-rule="nonzero"></path>
                    <path d="M22.2570243,183.181818 C22.624565,183.931064 24.9959576,188.22776 24.729113,189.298111 C24.2256326,191.204356 14.7602013,195.210527 14.1157464,194.99136 C13.4712915,194.772193 12.7613841,193.971978 13.0181591,193.533644 C13.2749341,193.095309 16.5425219,190.475497 16.8848885,189.89445 C17.2272552,189.313402 16.9906194,187.106439 16.2404336,186.239965" id="Path" fill="#414D86" fill-rule="nonzero"></path>
                    <path d="M43.7249556,126.639138 C43.6006242,128.178748 43.3183274,131.333121 42.7050319,131.900639 C41.354179,133.14808 31.6425113,131.533468 31.2276065,131.043906 C30.8127017,130.554345 30.6390206,129.584636 31.0780478,129.358684 C31.517075,129.132733 35.4876177,128.75144 36.0520813,128.445463 C36.6165448,128.139487 37.5476684,126.32246 37.3739873,125.272727" id="Path" stroke="#414D86" fill-rule="nonzero"></path>
                    <path d="M69.5359147,35.4168947 C69.489683,36.8199422 77.4569551,37.1594696 77.5031869,35.6515682 C77.5996723,32.4356215 77.6720364,30.0236616 77.7202791,28.4156883 C77,29 74.5,31 69.6790368,30.6465068 C69.6472319,31.706593 69.5995245,33.2967223 69.5359147,35.4168947 Z" id="Path" stroke="#414D86" fill="#6F7CBD" fill-rule="nonzero"></path>
                    <ellipse id="Oval" stroke="#414D86" fill="#6F7CBD" fill-rule="nonzero" cx="71.3035714" cy="20.6818182" rx="10.0178571" ry="10.0454545"></ellipse>
                    <ellipse id="Oval" fill="#FA9E9F" fill-rule="nonzero" transform="translate(60.560313, 21.466026) rotate(-88.270000) translate(-60.560313, -21.466026) " cx="60.5603129" cy="21.4660259" rx="1" ry="1.68511061"></ellipse>
                    <ellipse id="Oval" fill="#FA9E9F" fill-rule="nonzero" transform="translate(71.156231, 21.787204) rotate(-88.270000) translate(-71.156231, -21.787204) " cx="71.1562314" cy="21.7872042" rx="1" ry="1.68511061"></ellipse>
                    <path d="M64.8214286,20.0909091 C64.4583138,20.5965817 62.5868764,22.7054663 64.4694866,23.6363636" id="Path" stroke="#414D86" stroke-width="0.69" stroke-linecap="round"></path>
                    <path d="M68.3571429,24.8181818 C68.6967888,24.8181818 69.2436188,24.20921 69.5357143,23.6363636" id="Path" stroke="#414D86" stroke-width="0.69" stroke-linecap="round"></path>
                    <path d="M80.9715815,24.8181818 C82.3499165,23.5289256 83.1100278,11.8097882 81.883715,10.7975207 C81.0091266,10.165868 79.9493915,9.83840256 78.868607,9.86583161 C78.868607,9.86583161 69.1695874,0 64.9839081,0 C60.7982288,0 61.3049696,2.51807851 61.3049696,3.79222624 C61.3049696,5.06637397 62.4552713,13.0235021 64.0363027,13.8645403 C64.9288123,12.9217888 65.9693274,12.129207 67.117287,11.5176911 C67.7152412,12.2932593 73.0816267,17.5056818 77.9463387,19.0417097 C79.3094715,21.3533058 80.9715815,24.8181818 80.9715815,24.8181818 Z" id="Path" fill="#414D86" fill-rule="nonzero"></path>
                    <path d="M66,59.0909091 C62.7565044,59.7488285 53.0357143,61.4545455 53.0357143,61.4545455" id="Path" stroke="#6F7CBD" stroke-linecap="round"></path>
                    <path d="M83.3842589,132.363636 C95.2874835,132.363636 99,119.509225 99,109.713952 C99,104.560131 53.5624049,62.6363636 49.3159308,62.6363636 C36.7830392,62.6363636 36.5357143,122.158248 36.5357143,124.438788 C36.5357143,126.719329 45.2855666,126.794677 46.2325858,126.402866 C46.8622528,124.674879 52.3079431,94.3164299 52.3079431,94.3164299 C53.325485,96.124788 62.806742,132.363636 83.3842589,132.363636 Z" id="Path" stroke="#414D86" fill-rule="nonzero"></path>
                </g>
                <circle id="Oval" stroke="#414D86" cx="26.5" cy="22.5" r="22"></circle>
                <ellipse id="Oval" stroke="#6F7CBD" transform="translate(13.251456, 11.838299) rotate(25.000000) translate(-13.251456, -11.838299) " cx="13.2514564" cy="11.8382986" rx="1.27574479" ry="3.05148958"></ellipse>
                <circle id="Oval" stroke="#6F7CBD" transform="translate(10.133334, 18.182989) rotate(25.000000) translate(-10.133334, -18.182989) " cx="10.1333345" cy="18.1829893" r="1.27574479"></circle>
            </g>
            <g id="rocket" transform="translate(110.000000, 123.000000) rotate(72.000000) translate(-110.000000, -123.000000) translate(78.000000, 62.000000)">
                <path d="M30.9636044,111.603471 L30.9723251,111.585768 C31.127433,111.268908 33.3156432,106.717473 34.6452051,99.4649561 C35.5333888,100.440031 36.0249503,101.74613 35.9750076,103.111841 C35.9750076,103.111841 35.9941433,103.463524 35.9975774,104.07876 L35.9979863,104.358312 C35.9896749,107.605221 35.521798,116.429637 30.9443643,121.597821 C26.4362855,116.507943 25.9098331,107.871788 25.8853069,104.509708 L25.8856704,103.95099 C25.8904847,103.415078 25.9068107,103.111841 25.9068107,103.111841 C25.8500181,101.558817 26.4934558,100.082878 27.6236685,99.0809864 C28.2788709,103.081395 29.3456925,107.284032 30.9636044,111.603471 Z" id="Path-2" fill="#FF6E61" fill-rule="nonzero" filter="url(#filter-6)"></path>
                <path d="M30.9636044,111.603471 L30.9723251,111.585768 C31.127433,111.268908 33.3156432,106.717473 34.6452051,99.4649561 C35.5333888,100.440031 36.0249503,101.74613 35.9750076,103.111841 C35.9750076,103.111841 35.9941433,103.463524 35.9975774,104.07876 L35.9979863,104.358312 C35.9896749,107.605221 35.521798,116.429637 30.9443643,121.597821 C26.4362855,116.507943 25.9098331,107.871788 25.8853069,104.509708 L25.8856704,103.95099 C25.8904847,103.415078 25.9068107,103.111841 25.9068107,103.111841 C25.8500181,101.558817 26.4934558,100.082878 27.6236685,99.0809864 C28.2788709,103.081395 29.3456925,107.284032 30.9636044,111.603471 Z" id="Path-2" fill="#FF6E61" fill-rule="nonzero"></path>
                <path d="M47.080485,22.7457627 C51.4154408,35.7132798 52.5318978,50.4082931 51.6545853,63.5911928 C50.128504,86.4440279 42.689779,96.8418079 42.689779,96.8418079 C41.899352,96.5157795 41.0984583,96.2254714 40.2893916,95.9708836 C38.5932756,95.7430618 37.0085604,95.5516002 35.5366667,95.4047791 L35.5793199,95.064334 L35.5793199,95.064334 L35.6309868,94.6086245 L35.6402916,94.5231932 C36.5234196,86.362069 36.0164909,75.8391922 31.3064434,64.4463277 L31.3064434,64.4463277 L31.2989725,64.4633095 C31.0717661,64.9829295 25.7499855,77.3741463 27.401645,94.3077766 L27.401645,94.3077766 L27.4213287,94.506509 L27.4213489,94.5107627 L27.4223489,94.5227627 L27.4313489,94.6077627 L27.45017,94.7873586 L27.45017,94.7873586 L27.4623489,94.9037627 L27.4820995,95.0828413 C26.2537788,95.1443526 25.2037317,95.2764021 24.3319582,95.4789899 L24.0989896,95.5358956 C22.769783,95.8769687 21.4583608,96.3122728 20.1745498,96.8418079 C13.686861,84.5427195 11.5931069,65.1285788 11.5931069,65.1285788 C10.5265702,53.1364726 12.354358,39.0088672 17.0764703,22.7457627 L17.0764703,22.7457627 Z M24.4087591,42.5589398 C23.3845014,46.9627133 26.0887874,51.3713148 30.4489661,52.4058511 C34.8091541,53.4403479 39.1741222,50.7090292 40.1984198,46.305265 C41.2226775,41.9014915 38.5183915,37.4928901 34.1582128,36.4583537 C29.7980248,35.4238569 25.4330567,38.1551756 24.4087591,42.5589398 Z" id="Combined-Shape" stroke="#414D86" stroke-width="0.5" fill="#6F7CBD" fill-rule="nonzero" stroke-linecap="round" stroke-linejoin="round"></path>
                <path d="M31.3064434,64.4463277 C36.0164909,75.8391922 36.5234196,86.362069 35.6402916,94.5231932 L35.6309868,94.6086245 C34.5259427,104.689389 31.3064434,111.144068 31.3064434,111.144068 C29.5605841,106.483039 28.456424,101.958018 27.8170685,97.6764353 C27.6976199,96.8765532 27.5943535,96.0848045 27.5061695,95.3022614 C27.4762083,95.0364124 27.4479163,94.7709127 27.4213287,94.506509 L27.4797732,95.0641783 C27.4596197,94.8793711 27.4403048,94.6950837 27.4218132,94.5113256 L27.4213287,94.506509 L27.401645,94.3077766 C25.7499855,77.3741463 31.0717661,64.9829295 31.2989725,64.4633095 Z" id="Combined-Shape" stroke="#414D86" stroke-width="0.5" fill-rule="nonzero"></path>
                <path d="M31.3064434,64.4463277 C36.0164909,75.8391922 36.5234196,86.362069 35.6402916,94.5231932 L35.6309868,94.6086245 C34.5259427,104.689389 31.3064434,111.144068 31.3064434,111.144068 C29.5605841,106.483039 28.456424,101.958018 27.8170685,97.6764353 C27.6976199,96.8765532 27.5943535,96.0848045 27.5061695,95.3022614 C27.4762083,95.0364124 27.4479163,94.7709127 27.4213287,94.506509 L27.4797732,95.0641783 C27.4596197,94.8793711 27.4403048,94.6950837 27.4218132,94.5113256 L27.4213287,94.506509 L27.401645,94.3077766 C25.7499855,77.3741463 31.0717661,64.9829295 31.2989725,64.4633095 Z" id="Combined-Shape" stroke="#414D86" stroke-width="0.5" fill-rule="nonzero"></path>
                <path d="M27.2256137,99.1141473 C26.5616227,100.067702 26.2068621,101.232942 26.2507918,102.442368 C26.2507918,102.442368 25.5682022,115.206686 31.5444922,122" id="Path" stroke="#414D86" stroke-width="0.5" stroke-linecap="round" fill-rule="nonzero"></path>
                <path d="M32.5396193,99.1141473 C31.8756283,100.067702 31.5208676,101.232942 31.5647973,102.442368 C31.5647973,102.442368 30.8822077,115.206686 36.8584977,122" id="Path" stroke="#414D86" stroke-width="0.5" stroke-linecap="round" fill-rule="nonzero" transform="translate(34.199846, 110.557074) scale(-1, 1) translate(-34.199846, -110.557074) "></path>
                <path d="M12.9877667,73.4329123 C8.68520836,76.1566046 -4.9562182,86.9948306 1.88822791,111.661017 C1.88822791,111.661017 5.95101532,97.921058 18.8123655,93.6333829" id="Path" stroke="#414D86" stroke-width="0.5" fill-rule="nonzero"></path>
                <path d="M50.5270401,72.5526551 C50.5270401,72.5526551 70.1284783,82.0595851 62.0455925,111.144068 C62.0455925,111.144068 58.4955518,96.7944241 44.6551987,93.0105306" id="Path" stroke="#414D86" stroke-width="0.5" fill-rule="nonzero"></path>
                <path d="M39.3092386,93.740113 C39.6580523,93.7402275 39.9878318,93.9074093 40.2052138,94.1943279 C40.4225958,94.4812464 40.5039177,94.8566699 40.4261567,95.2143128 L39.6961449,98.6617905 C39.5778045,99.2199236 39.1008608,99.612232 38.5573265,99.5985217 L34.876166,99.5992827 C35.174207,98.0594678 35.4356367,96.3907061 35.6309868,94.6086245 L35.6309868,94.6086245 L35.6402916,94.5231932 C35.6682766,94.2645799 35.6948657,94.0035951 35.7199694,93.7402862 L39.3092386,93.740113 Z M27.462484,94.9038432 L27.5061695,95.3022614 C27.5943535,96.0848045 27.6976199,96.8765532 27.8170685,97.6764353 C27.9119239,98.3116548 28.01701,98.9522325 28.1329046,99.5978178 L25.0156074,99.5985217 C24.4811955,99.5983462 24.0178257,99.2097296 23.8986893,98.6617905 L23.1686775,95.2143128 C23.0938137,94.8570332 23.1762471,94.4832994 23.3930235,94.1971801 C23.6097999,93.9110609 23.9377653,93.7431168 24.2855956,93.740113 L27.3486913,93.7397938 C27.3654769,93.9285432 27.3831224,94.1178743 27.401645,94.3077766 L27.401645,94.3077766 L27.4213287,94.506509 L27.4213287,94.506509 L27.4218132,94.5113256 L27.4226369,94.5227938 L27.4316369,94.6077938 L27.4626369,94.9037938 L27.45017,94.7873586 L27.45017,94.7873586 L27.462484,94.9038432 L27.462484,94.9038432 Z" id="Path-3" fill="#414D86" fill-rule="nonzero"></path>
                <path d="M29.2123104,1.26492048 C23.8660214,7.62250253 19.9409411,14.8947533 17.0764703,22.7457627 L47.080485,22.7457627 C44.2856576,14.2732695 40.3693208,6.66547121 34.4972101,0.999443965 C33.7648817,0.313025343 32.7935376,-0.0452986056 31.8003652,0.00459144998 C30.8071928,0.0544815056 29.8750325,0.508424243 29.2123104,1.26492048 Z" id="Path" stroke="#414D86" stroke-width="0.5" fill="#414D86" fill-rule="nonzero" stroke-linejoin="round"></path>
                <ellipse id="Oval" stroke="#414D86" stroke-width="2.47088111" fill-rule="nonzero" cx="32.3125819" cy="44.4576271" rx="10.5067974" ry="10.65439"></ellipse>
                <mask id="mask-8" fill="white">
                    <use xlink:href="#path-7"></use>
                </mask>
                <use id="Oval" stroke="#414D86" stroke-width="0.988352442" fill-rule="nonzero" transform="translate(32.303589, 44.432102) rotate(-76.780000) translate(-32.303589, -44.432102) " xlink:href="#path-7"></use>
            </g>
        </g>
    </g>
</svg>