<?xml version="1.0" encoding="UTF-8"?>
<svg width="170px" height="170px" viewBox="0 0 170 170" version="1.1" xmlns="http://www.w3.org/2000/svg" xmlns:xlink="http://www.w3.org/1999/xlink">
    <title>Illustrations/Dark/170px/bulk_import</title>
    <defs>
        <filter x="-757.4%" y="-68.9%" width="1614.7%" height="237.8%" filterUnits="objectBoundingBox" id="filter-1">
            <feGaussianBlur stdDeviation="4" in="SourceGraphic"></feGaussianBlur>
        </filter>
        <filter x="-68.1%" y="-141.3%" width="236.0%" height="371.6%" filterUnits="objectBoundingBox" id="filter-2">
            <feGaussianBlur stdDeviation="4" in="SourceGraphic"></feGaussianBlur>
        </filter>
    </defs>
    <g id="Illustrations/Dark/170px/bulk_import" stroke="none" stroke-width="1" fill="none" fill-rule="evenodd">
        <g id="Group-3" transform="translate(34.000000, 51.000000)">
            <g id="Group" fill="#414D86" fill-rule="nonzero">
                <path d="M60.7142863,0 C75.4642161,0 86.064809,12.3555612 86.366072,25.5373709 C95.377528,28.2568716 102,36.537855 102,46.4872147 C102,58.6341952 92.1998637,68.5074627 80.1428577,68.5074627 L21.8571435,68.5074627 C8.97842918,68.5074627 0,59.7928272 0,48.9339089 C0,40.1497873 5.92923632,31.6184092 14.685328,29.6278767 C14.9839208,22.4311703 18.381491,17.0563948 23.0714292,14.2214102 C27.6705339,11.4413539 33.3504792,11.1032207 38.3639006,13.2274406 C42.3833077,5.92638274 50.3015435,0 60.7142863,0 Z M60.7142863,2.44669422 C50.8087506,2.44669422 43.4096208,8.25967269 39.957528,15.2153797 C39.6532569,15.8166195 38.9232063,16.0560932 38.3258935,15.7505941 C33.848822,13.4953537 28.4854435,13.7854093 24.2857149,16.3239768 C20.0859851,18.8626668 17.0000006,23.61745 17.0000006,30.5836778 C16.9887452,31.1766981 16.5569033,31.6761708 15.9753851,31.7687586 C8.02011368,33.1135841 2.42857143,40.9869237 2.42857143,48.9339089 C2.42857143,58.4550971 10.040441,66.0607685 21.8571435,66.0607685 L80.1428577,66.0607685 C90.8874649,66.0607685 99.5714292,57.3118793 99.5714292,46.4872147 C99.5714292,37.3277702 93.3382565,29.6716725 84.9241077,27.52531 C84.3738203,27.3824242 83.9954673,26.874189 84.0133935,26.3019629 C84.1287506,14.1531474 74.3894494,2.44669422 60.7142863,2.44669422 L60.7142863,2.44669422 Z" id="Shape"></path>
            </g>
            <g id="Group-2" transform="translate(41.803279, 30.076447)" stroke="#8DA4FA" stroke-width="3">
                <line x1="9.19672131" y1="2.50637059" x2="9.19672131" y2="19.2155078" id="Line" stroke-linecap="square" filter="url(#filter-1)"></line>
                <polyline id="Path-2" filter="url(#filter-2)" points="0 10.0254823 9.19672162 0 19.2395146 10.0254823"></polyline>
            </g>
            <g id="Group-2" transform="translate(41.803279, 30.076447)" stroke="#8DA4FA" stroke-width="3">
                <line x1="9.19672131" y1="2.50637059" x2="9.19672131" y2="19.2155078" id="Line" stroke-linecap="square"></line>
                <polyline id="Path-2" points="0 10.0254823 9.19672162 0 19.2395146 10.0254823"></polyline>
            </g>
        </g>
    </g>
</svg>