<?xml version="1.0" encoding="UTF-8"?>
<svg width="100px" height="100px" viewBox="0 0 100 100" version="1.1" xmlns="http://www.w3.org/2000/svg" xmlns:xlink="http://www.w3.org/1999/xlink">
    <title>Illustrations/Dark/100px/buyer_marketplace</title>
    <defs>
        <filter x="-63.2%" y="-77.2%" width="226.3%" height="254.4%" filterUnits="objectBoundingBox" id="filter-1">
            <feGaussianBlur stdDeviation="4" in="SourceGraphic"></feGaussianBlur>
        </filter>
    </defs>
    <g id="Illustrations/Dark/100px/buyer_marketplace" stroke="none" stroke-width="1" fill="none" fill-rule="evenodd">
        <g id="Group-2" transform="translate(9.000000, 25.000000)">
            <path d="M2.05582487,-1.46168791e-13 L12.3766905,-1.46168791e-13 L12.3766905,-1.46168791e-13 L78.4958473,-1.46168791e-13 C79.6004168,-1.38745304e-13 80.4958473,0.8954305 80.4958473,2 L80.4958473,51.8465909 C80.4958473,52.9511604 79.6004168,53.8465909 78.4958473,53.8465909 L2.05582487,53.8465909 C0.951255374,53.8465909 0.055824874,52.9511604 0.055824874,51.8465909 L0.055824874,2 C0.055824874,0.8954305 0.951255374,-1.45965885e-13 2.05582487,-1.46168791e-13 Z" id="Rectangle-2" stroke="#404B8A" stroke-width="1.5"></path>
            <polygon id="Path-2" fill="#404B8A" fill-rule="nonzero" points="79.9996033 6 80 7.19999991 0.000396684751 7.23615674 2.41168197e-13 6.03615683"></polygon>
            <g id="Group" transform="translate(23.000000, 12.000000)">
                <g id="Group-3" transform="translate(1.685593, 2.554802)" fill="#6C78B4" fill-rule="nonzero">
                    <path d="M25.8169492,27.1951977 C25.5672316,27.0463277 25.3511299,27.0799435 25.1830508,27.3248588 C24.5587571,28.2853107 24.059322,27.9491525 23.5166667,27.5841808 C22.1096045,26.6285311 22.3112994,28.4341808 20.5200565,27.9491525 C20.3231638,27.8963277 20.1742938,27.8579096 20.030226,28.0836158 C19.3579096,29.1064972 18.7816384,28.8087571 18.4118644,28.6166667 C18.3110169,28.549435 18.3014124,28.7847458 18.459887,28.9 C18.8008475,29.159322 19.1418079,29.4186441 18.0661017,30.7344633 C20.9762712,30.2446328 23.6319209,28.9960452 25.8169492,27.1951977 Z" id="Path"></path>
                    <path d="M10.4305085,30.230226 C9.75819209,29.5915254 9.29237288,29.4522599 8.94180791,29.3514124 C8.35112994,29.1737288 8.02457627,29.0776836 7.7220339,27.7090395 C7.30903955,27.5889831 7.14096045,27.6418079 7.09774011,27.7618644 C6.98728814,28.0836158 7.28502825,28.7319209 7.38587571,28.9384181 C8.34632768,29.4666667 9.36440678,29.8988701 10.4305085,30.230226 Z" id="Path"></path>
                    <path d="M30.8785311,10.4161017 C31.0225989,10.3680791 31.190678,10.4064972 31.3539548,10.4737288 C30.2542373,6.0220339 27.329661,2.22824859 23.3341808,1.24344979e-14 C22.8059322,0.196892655 22.7435028,0.403389831 22.8155367,0.624293785 C23.1516949,1.6519774 23.8624294,2.20423729 22.2344633,2.89096045 C22.1288136,2.94378531 22.119209,3.07824859 22.1096045,3.18389831 C22.0903955,3.31836158 22.0759887,3.43841808 21.9847458,3.53446328 C21.7926554,3.75056497 21.4516949,3.65451977 20.5248588,2.80932203 C20.3855932,2.67966102 20.380791,2.5740113 20.380791,2.4299435 C20.380791,1.83446328 19.4251412,1.21977401 19.0073446,0.926836158 C18.7096045,0.725141243 18.6951977,0.403389831 18.8008475,0.888418079 C18.8344633,1.0420904 18.8728814,1.21016949 18.8776836,1.37824859 C18.940113,2.46355932 17.960452,1.98333333 17.7539548,2.35310734 C17.7059322,2.43954802 17.7731638,2.5259887 17.8403955,2.57881356 C18.1285311,2.77570621 18.5559322,2.70847458 18.8680791,2.61242938 C19.0601695,2.09378531 19.2282486,1.93050847 19.439548,2.00254237 C19.6124294,2.06497175 19.6748588,2.26666667 19.7516949,2.54519774 C19.8573446,2.91497175 20.0206215,3.47683616 20.4048023,3.76497175 C20.8946328,4.13474576 21.4805085,4.76864407 20.510452,4.78305085 C20.3711864,4.78305085 20.1935028,4.78785311 20.0686441,4.83107345 C19.770904,4.93672316 19.9485876,5.36892655 20.0014124,5.58022599 C20.2751412,4.85028249 21.4612994,5.21045198 21.9511299,4.53333333 C22.2392655,4.14915254 22.2824859,4.0819209 23.8,5.0039548 C24.0737288,5.16723164 24.299435,5.10480226 24.5155367,5.04717514 C24.9573446,4.9319209 25.3655367,4.82146893 25.9177966,5.66666667 C26.0186441,5.82514124 26.0714689,5.80112994 26.1387006,5.76751412 C27.0943503,5.31610169 28.6070621,6.90564972 27.1855932,7.09774011 C25.7881356,7.28983051 25.3751412,6.19011299 24.8997175,6.52627119 C24.5491525,6.77118644 24.0161017,7.14096045 22.7867232,6.61271186 C22.0327684,6.29096045 21.5957627,7.41949153 20.5344633,7.54915254 C18.9353107,7.7460452 19.6412429,8.76892655 18.0612994,9.54689266 C17.9316384,9.75338983 17.3841808,10.7138418 17.6194915,10.9539548 C17.6531073,10.9875706 17.7059322,11.0115819 17.7827684,11.030791 C17.8596045,11.0451977 17.9316384,11.0932203 17.9652542,11.1748588 C18.0516949,11.3861582 17.9556497,11.5638418 17.8259887,11.8135593 C17.110452,13.1725989 17.4754237,14.1954802 18.7960452,14.8966102 C19.1177966,15.0694915 19.4779661,15.2615819 19.8525424,15.5545198 C19.9581921,15.6361582 20.1118644,15.5305085 20.289548,15.4056497 C21.7110169,14.4163842 21.9175141,15.6937853 23.8096045,15.5112994 C24.2033898,15.4728814 24.5251412,15.4440678 24.7172316,15.5785311 C24.9525424,15.7466102 24.9573446,16.0299435 24.5923729,16.5389831 C24.5635593,16.5774011 24.5827684,16.6158192 24.6115819,16.6734463 C24.7220339,16.9231638 24.8853107,17.2785311 24.4867232,18.1237288 C24.4675141,18.1717514 24.5011299,18.2149718 24.5539548,18.2774011 C24.9333333,18.6759887 25.0677966,19.1322034 25.1158192,19.6748588 L25.1350282,19.6748588 C25.1926554,19.6844633 25.2550847,19.6940678 25.3127119,19.7324859 C25.6968927,19.9774011 24.7316384,20.9330508 24.7508475,21.8358757 L24.7508475,21.8550847 C24.909322,21.7398305 25.149435,21.4564972 25.519209,20.9330508 C25.6584746,20.7313559 26.2251412,20.0542373 26.2635593,19.8813559 C26.330791,19.5884181 26.1819209,18.5415254 26.1435028,18.1525424 C26.1338983,18.0468927 26.1963277,17.9460452 26.3019774,17.9076271 C27.1279661,17.6194915 28.2661017,15.7177966 28.2661017,14.819774 C28.2661017,13.2686441 29.9372881,13.1870056 29.0056497,11.6118644 C28.7031073,11.1028249 29.1016949,11.0019774 29.5050847,11.1268362 C30.119774,11.2949153 30.5615819,11.3717514 30.7248588,10.5937853 C30.7392655,10.5121469 30.7968927,10.4449153 30.8785311,10.4161017 Z" id="Path"></path>
                    <path d="M19.9629944,6.0700565 L19.9533898,5.91158192 C19.9245763,5.98841808 19.8813559,6.06525424 19.8285311,6.13728814 L19.9485876,6.13728814 C19.9725989,6.1420904 19.9725989,6.26214689 19.9629944,6.0700565 Z" id="Path"></path>
                    <path d="M1.88293825e-13,8.24067797 C0.528248588,8.38474576 1.75762712,8.77372881 1.91129944,9.31638418 C2.18502825,10.2672316 2.54519774,10.3392655 2.80451977,10.3872881 C3.00141243,10.4257062 3.34237288,10.5217514 3.3039548,10.7858757 C3.24152542,11.1892655 3.61610169,11.5830508 3.95225989,11.9336158 C4.30762712,12.3129944 4.62937853,12.6539548 4.54774011,13.0621469 C4.1299435,15.1127119 4.88389831,15.6745763 5.50819209,16.1355932 C6.15169492,16.6110169 6.68474576,17.0048023 6.20451977,18.2822034 C5.39774011,20.4336158 5.9259887,20.8706215 6.32937853,21.2019774 C7.21779661,21.9415254 6.66553672,22.9644068 7.27542373,23.5310734 C7.35225989,23.5454802 7.33305085,23.4398305 7.30903955,23.4110169 C6.74237288,22.690678 7.14096045,22.2200565 7.6019774,21.8550847 L8.13502825,21.4564972 C8.05338983,19.3723164 8.91299435,18.7720339 9.46045198,18.3926554 C9.63333333,18.2774011 9.76299435,18.1861582 9.76299435,18.1189266 C9.79180791,17.4274011 10.2288136,16.7214689 10.5553672,16.1884181 C11.2276836,15.0983051 10.2624294,15.6649718 9.36440678,13.7152542 C9.04265537,13.0237288 8.77853107,12.4522599 7.68361582,12.3658192 C6.1180791,12.2409605 6.33898305,11.8327684 5.48418079,11.8087571 C4.88389831,11.789548 4.69661017,11.9 4.61977401,11.9480226 C4.35564972,12.0872881 4.3220339,12.120904 4.16836158,11.8135593 C3.72175141,10.939548 3.24632768,11.7271186 3.5680791,10.1663842 C3.58728814,10.0751412 3.65451977,10.0079096 3.73615819,9.98389831 C4.40367232,9.74858757 4.43728814,9.47485876 4.3460452,9.21073446 C4.18276836,8.73531073 3.74096045,8.22146893 4.28361582,7.79887006 C4.89350282,7.32344633 4.71101695,6.99689266 4.58615819,6.77118644 C4.53813559,6.68954802 4.49971751,6.61271186 4.47570621,6.53587571 C4.3940678,6.28135593 4.45169492,6.08926554 4.85028249,5.96440678 C6.36779661,5.56581921 5.69067797,3.69774011 6.40141243,2.61723164 C7.04011299,1.67118644 7.31864407,1.54152542 6.54067797,0.451412429 C3.60169492,2.29548023 1.30141243,5.01836158 1.88293825e-13,8.24067797 Z" id="Path"></path>
                </g>
                <path d="M27.7858757,29.3610169 L27.8771186,29.4330508 C31.469209,26.2827684 33.519774,21.7830508 33.519774,17 C33.519774,15.8426554 33.3997175,14.7141243 33.1740113,13.6288136 C33.039548,13.5711864 32.9483051,13.5231638 32.8234463,13.4511299 C32.5641243,14.3011299 32.0070621,14.3827684 31.2531073,14.2002825 C32.0742938,15.8762712 30.4319209,16.0683616 30.4319209,17.3745763 C30.4319209,18.479096 29.2841808,20.3087571 28.3189266,20.8370056 C28.3621469,21.2836158 28.5014124,22.1576271 28.4149718,22.5370056 C28.3381356,22.8827684 27.8242938,23.4350282 27.5985876,23.7615819 C27.4497175,23.9680791 26.5132768,25.4327684 26.0618644,24.7940678 C25.6920904,24.2754237 26.3980226,23.1661017 26.3211864,22.2728814 C26.2635593,21.5861582 26.0378531,21.3268362 25.8937853,21.1587571 C25.6920904,20.9138418 25.5864407,20.8129944 25.740113,20.4768362 C26.0474576,19.8285311 25.9370056,19.5932203 25.8601695,19.4299435 C25.7689266,19.2282486 25.7016949,19.0793785 25.8889831,18.8152542 C26.1723164,18.4166667 26.3067797,18.4694915 25.5384181,18.5415254 C23.780791,18.7144068 23.2813559,17.6338983 22.2488701,18.349435 C21.9079096,18.589548 21.6293785,18.7816384 21.2451977,18.4838983 C20.899435,18.2149718 20.5632768,18.0372881 20.2559322,17.8740113 C18.6903955,17.0432203 18.2437853,15.7466102 19.0889831,14.1426554 L19.1706215,13.9889831 C19.0889831,13.950565 19.0217514,13.9025424 18.9641243,13.8449153 C18.4502825,13.3262712 19.2042373,11.8423729 19.5355932,11.6742938 C21.0915254,10.9059322 20.140678,9.87824859 22.1624294,9.62853107 C23.2285311,9.4940678 23.4734463,8.22146893 24.6596045,8.73050847 C25.6488701,9.15310734 26.0474576,8.87457627 26.3115819,8.6920904 C27.1663842,8.08700565 27.4689266,9.35960452 28.8087571,9.17711864 C29.1305085,9.11468927 28.3909605,8.58644068 28.0259887,8.75932203 C27.0367232,9.22514124 27.3680791,7.78926554 26.3211864,8.06779661 C26.0138418,8.14943503 25.6872881,8.23587571 25.240678,7.96694915 C24.0977401,7.27542373 24.0881356,7.28502825 24.0257062,7.37146893 C23.3101695,8.35112994 22.0951977,7.63559322 22.1336158,8.75451977 C22.1240113,9.01864407 22.0279661,9.18672316 21.6149718,9.17231638 C20.9426554,9.14350282 21.0002825,9.86864407 20.6016949,9.93107345 C19.5932203,10.0847458 20.0782486,9.40282486 20.4912429,9.04265537 C20.8274011,8.75451977 21.2740113,8.37033898 21.2115819,8.19745763 C20.9330508,7.39067797 21.2115819,7.06892655 21.600565,6.93446328 C21.7782486,6.8720339 21.9751412,6.86242938 22.1432203,6.86242938 C22.0519774,6.84322034 21.9319209,6.8 21.8022599,6.7039548 C21.3124294,6.33418079 21.120339,5.71949153 20.9954802,5.2920904 C20.9954802,5.33531073 20.9858757,5.38333333 20.9666667,5.43615819 C20.9426554,5.51299435 20.8754237,5.57062147 20.7985876,5.58983051 C20.0782486,5.83474576 19.55,5.73870056 19.2570621,5.52740113 C18.9833333,5.32090395 18.8440678,4.99915254 19.0217514,4.68220339 C19.1418079,4.45649718 19.4251412,4.2740113 19.8669492,4.25 C20.0590395,4.24039548 20.0974576,4.11073446 20.0878531,3.95706215 C20.0734463,3.67372881 19.8621469,3.15508475 20.0254237,2.91977401 C20.1646893,2.71327684 20.4336158,2.7180791 20.9666667,3.08785311 C22.5514124,4.18757062 22.5466102,4.68700565 22.5466102,4.97514124 C22.5370056,5.08559322 23.2909605,5.88276836 23.319774,5.68107345 C23.3485876,5.44576271 23.3822034,5.15282486 23.7231638,5.01355932 C24.8853107,4.53813559 24.3042373,4.12514124 24.0449153,3.3279661 C23.9152542,2.93418079 23.9488701,2.56920904 24.4819209,2.27146893 C22.2344633,1.12853107 19.6940678,0.480225989 17,0.480225989 C13.969774,0.480225989 11.1028249,1.30621469 8.63926554,2.75649718 C9.58050847,4.0819209 9.2779661,4.26440678 8.48559322,5.43135593 C7.71723164,6.60310734 8.68728814,8.34152542 6.69435028,8.97062147 C6.57429379,9.01384181 7.36186441,9.87344633 6.26214689,10.7330508 C6.08446328,10.8675141 6.41581921,11.4053672 6.48785311,11.6118644 C6.65112994,12.0968927 6.62711864,12.5819209 5.69548023,12.9468927 C5.60423729,13.3983051 5.60903955,13.4511299 5.64745763,13.4751412 C5.9019774,13.5903955 6.06045198,13.7776836 6.20451977,14.0129944 C6.36779661,13.9457627 6.6559322,13.8689266 7.18418079,13.8833333 C8.05819209,13.9121469 7.86610169,14.3251412 9.40282486,14.4451977 C10.7810734,14.5508475 11.0980226,15.2375706 11.4822034,16.0683616 C11.5158192,16.6638418 12.3898305,17.4610169 12.8844633,17.8451977 C13.2206215,18.0661017 12.9757062,18.459887 12.6491525,18.9929379 C12.3466102,19.4827684 11.9528249,20.1262712 11.9288136,20.6929379 C11.9144068,21.0002825 11.7031073,21.1491525 11.419774,21.3412429 C10.9539548,21.6629944 10.2240113,22.1672316 10.2960452,23.9920904 C10.310452,24.2610169 10.070339,24.429096 9.79180791,24.6355932 C9.44124294,24.8949153 8.99463277,25.1926554 9.36920904,25.6680791 C9.5180791,25.8601695 9.52288136,26.1146893 9.43163842,26.2971751 C9.27316384,26.6333333 8.90338983,26.6861582 8.63926554,26.4364407 C7.90932203,25.759322 8.38954802,24.6884181 7.70762712,24.1265537 C7.19378531,23.6991525 6.51666667,23.1420904 7.44350282,20.6689266 C7.7940678,19.7324859 7.39067797,19.4299435 6.91045198,19.0745763 C6.17570621,18.5319209 5.28728814,17.869209 5.76271186,15.520904 C5.84435028,15.1319209 4.49971751,14.3779661 4.50451977,13.4367232 C3.63531073,13.2542373 3.39039548,12.8844633 3.13587571,12.0008475 C3.04463277,11.6838983 1.88248588,11.3477401 1.51271186,11.2372881 C0.84519774,13.0237288 0.480225989,14.9638418 0.480225989,17 C0.480225989,22.7867232 3.49124294,28.1028249 8.4039548,31.1042373 C8.30310734,30.7920904 8.23587571,30.4319209 8.3319209,30.1629944 C8.46638418,29.7740113 8.84096045,29.5627119 9.68615819,29.8508475 C9.76299435,29.879661 9.82542373,29.9468927 9.84463277,30.0285311 C10.0991525,31.2483051 10.329661,31.3155367 10.7666667,31.4451977 C11.3909605,31.6324859 12.7980226,32.4584746 12.9853107,33.0251412 C14.2675141,33.3468927 15.6121469,33.519774 17,33.519774 C17.6867232,33.519774 18.3638418,33.4765537 19.0313559,33.3949153 C20.1983051,32.0935028 20.0254237,31.9638418 19.8573446,31.8389831 C19.2762712,31.4019774 19.5115819,30.3262712 20.3183616,30.7440678 C20.5392655,30.859322 20.880226,31.0370056 21.3124294,30.3742938 C21.6485876,29.860452 21.9415254,29.9372881 22.3257062,30.0429379 C23.8576271,30.4559322 23.6991525,28.5398305 25.4711864,29.7403955 C25.8025424,29.9661017 26.109887,30.1725989 26.4700565,29.620339 C26.6765537,29.3033898 26.9742938,29.140113 27.3584746,29.1929379 C27.5217514,29.2217514 27.6466102,29.2793785 27.7858757,29.3610169 Z M27.5025424,29.75 C27.2528249,29.6011299 27.0367232,29.6347458 26.8686441,29.879661 C26.2443503,30.840113 25.7449153,30.5039548 25.2022599,30.1389831 C23.7951977,29.1833333 23.9968927,30.9889831 22.2056497,30.5039548 C22.0087571,30.4511299 21.859887,30.4127119 21.7158192,30.6384181 C21.0435028,31.6612994 20.4672316,31.3635593 20.0974576,31.1714689 C19.9966102,31.1042373 19.9870056,31.339548 20.1454802,31.4548023 C20.4864407,31.7141243 20.8274011,31.9734463 19.7516949,33.2892655 C22.6618644,32.799435 25.3175141,31.5508475 27.5025424,29.75 Z M12.1161017,32.7850282 C11.4437853,32.1463277 10.9779661,32.0070621 10.6274011,31.9062147 C10.0367232,31.7285311 9.71016949,31.6324859 9.40762712,30.2638418 C8.99463277,30.1437853 8.82655367,30.1966102 8.78333333,30.3166667 C8.67288136,30.6384181 8.97062147,31.2867232 9.07146893,31.4932203 C10.0319209,32.0214689 11.05,32.4536723 12.1161017,32.7850282 Z M32.5641243,12.970904 C32.7081921,12.9228814 32.8762712,12.9612994 33.039548,13.0285311 C31.9398305,8.57683616 29.0152542,4.78305085 25.019774,2.55480226 C24.4915254,2.75169492 24.429096,2.95819209 24.5011299,3.17909605 C24.8372881,4.20677966 25.5480226,4.75903955 23.9200565,5.44576271 C23.8144068,5.49858757 23.8048023,5.63305085 23.7951977,5.73870056 C23.7759887,5.87316384 23.7615819,5.99322034 23.670339,6.08926554 C23.4782486,6.30536723 23.1372881,6.20932203 22.210452,5.36412429 C22.0711864,5.23446328 22.0663842,5.12881356 22.0663842,4.98474576 C22.0663842,4.38926554 21.1107345,3.77457627 20.6929379,3.48163842 C20.3951977,3.2799435 20.380791,2.95819209 20.4864407,3.44322034 C20.5200565,3.59689266 20.5584746,3.76497175 20.5632768,3.93305085 C20.6257062,5.01836158 19.6460452,4.53813559 19.439548,4.9079096 C19.3915254,4.99435028 19.4587571,5.08079096 19.5259887,5.13361582 C19.8141243,5.33050847 20.2415254,5.26327684 20.5536723,5.16723164 C20.7457627,4.64858757 20.9138418,4.48531073 21.1251412,4.55734463 C21.2980226,4.61977401 21.360452,4.82146893 21.4372881,5.1 C21.5429379,5.46977401 21.7062147,6.03163842 22.0903955,6.31977401 C22.580226,6.68954802 23.1661017,7.32344633 22.1960452,7.33785311 C22.0567797,7.33785311 21.879096,7.34265537 21.7542373,7.38587571 C21.4564972,7.49152542 21.6341808,7.92372881 21.6870056,8.13502825 C21.9607345,7.40508475 23.1468927,7.76525424 23.6367232,7.08813559 C23.9248588,6.7039548 23.9680791,6.63672316 25.4855932,7.55875706 C25.759322,7.7220339 25.9850282,7.65960452 26.2011299,7.6019774 C26.6429379,7.48672316 27.0511299,7.37627119 27.6033898,8.22146893 C27.7042373,8.3799435 27.7570621,8.3559322 27.8242938,8.32231638 C28.7799435,7.87090395 30.2926554,9.46045198 28.8711864,9.65254237 C27.4737288,9.84463277 27.0607345,8.74491525 26.5853107,9.08107345 C26.2347458,9.3259887 25.7016949,9.69576271 24.4723164,9.16751412 C23.7183616,8.84576271 23.2813559,9.97429379 22.2200565,10.1039548 C20.620904,10.3008475 21.3268362,11.3237288 19.7468927,12.1016949 C19.6172316,12.3081921 19.069774,13.2686441 19.3050847,13.5087571 C19.3387006,13.5423729 19.3915254,13.5663842 19.4683616,13.5855932 C19.5451977,13.6 19.6172316,13.6480226 19.6508475,13.729661 C19.7372881,13.9409605 19.6412429,14.1186441 19.5115819,14.3683616 C18.7960452,15.7274011 19.1610169,16.7502825 20.4816384,17.4514124 C20.8033898,17.6242938 21.1635593,17.8163842 21.5381356,18.109322 C21.6437853,18.1909605 21.7974576,18.0853107 21.9751412,17.960452 C23.3966102,16.9711864 23.6031073,18.2485876 25.4951977,18.0661017 C25.8889831,18.0276836 26.2107345,17.9988701 26.4028249,18.1333333 C26.6381356,18.3014124 26.6429379,18.5847458 26.2779661,19.0937853 C26.2491525,19.1322034 26.2683616,19.1706215 26.2971751,19.2282486 C26.4076271,19.4779661 26.570904,19.8333333 26.1723164,20.6785311 C26.1531073,20.7265537 26.1867232,20.769774 26.239548,20.8322034 C26.6189266,21.230791 26.7533898,21.6870056 26.8014124,22.229661 L26.8206215,22.229661 C26.8782486,22.2392655 26.940678,22.2488701 26.9983051,22.2872881 C27.3824859,22.5322034 26.4172316,23.4878531 26.4364407,24.390678 L26.4364407,24.409887 C26.5949153,24.2946328 26.8350282,24.0112994 27.2048023,23.4878531 C27.3440678,23.2861582 27.9107345,22.6090395 27.9491525,22.4361582 C28.0163842,22.1432203 27.8675141,21.0963277 27.829096,20.7073446 C27.8194915,20.6016949 27.8819209,20.5008475 27.9875706,20.4624294 C28.8135593,20.1742938 29.9516949,18.2725989 29.9516949,17.3745763 C29.9516949,15.8234463 31.6228814,15.7418079 30.6912429,14.1666667 C30.3887006,13.6576271 30.7872881,13.5567797 31.190678,13.6816384 C31.8053672,13.8497175 32.2471751,13.9265537 32.410452,13.1485876 C32.4248588,13.0669492 32.4824859,12.9997175 32.5641243,12.970904 Z M21.6485876,8.62485876 L21.6389831,8.46638418 C21.6101695,8.54322034 21.5669492,8.6200565 21.5141243,8.6920904 L21.6341808,8.6920904 C21.6581921,8.69689266 21.6581921,8.81694915 21.6485876,8.62485876 Z M1.68559322,10.7954802 C2.21384181,10.939548 3.44322034,11.3285311 3.59689266,11.8711864 C3.87062147,12.8220339 4.23079096,12.8940678 4.49011299,12.9420904 C4.68700565,12.9805085 5.0279661,13.0765537 4.98954802,13.340678 C4.92711864,13.7440678 5.30169492,14.1378531 5.63785311,14.4884181 C5.99322034,14.8677966 6.31497175,15.2087571 6.23333333,15.6169492 C5.81553672,17.6675141 6.56949153,18.2293785 7.19378531,18.6903955 C7.83728814,19.1658192 8.37033898,19.5596045 7.89011299,20.8370056 C7.08333333,22.9884181 7.61158192,23.4254237 8.01497175,23.7567797 C8.90338983,24.4963277 8.35112994,25.519209 8.96101695,26.0858757 C9.03785311,26.1002825 9.01864407,25.9946328 8.99463277,25.9658192 C8.4279661,25.2454802 8.82655367,24.7748588 9.28757062,24.409887 L9.82062147,24.0112994 C9.73898305,21.9271186 10.5985876,21.3268362 11.1460452,20.9474576 C11.3189266,20.8322034 11.4485876,20.7409605 11.4485876,20.6737288 C11.4774011,19.9822034 11.9144068,19.2762712 12.2409605,18.7432203 C12.9132768,17.6531073 11.9480226,18.219774 11.05,16.2700565 C10.7282486,15.5785311 10.4641243,15.0070621 9.36920904,14.9206215 C7.80367232,14.7957627 8.02457627,14.3875706 7.16977401,14.3635593 C6.56949153,14.3443503 6.38220339,14.4548023 6.30536723,14.5028249 C6.04124294,14.6420904 6.00762712,14.6757062 5.8539548,14.3683616 C5.40734463,13.4943503 4.9319209,14.2819209 5.25367232,12.7211864 C5.27288136,12.6299435 5.34011299,12.5627119 5.42175141,12.5387006 C6.08926554,12.3033898 6.12288136,12.029661 6.03163842,11.7655367 C5.86836158,11.290113 5.42655367,10.7762712 5.96920904,10.3536723 C6.57909605,9.87824859 6.39661017,9.55169492 6.27175141,9.3259887 C6.22372881,9.24435028 6.18531073,9.16751412 6.16129944,9.09067797 C6.07966102,8.83615819 6.13728814,8.6440678 6.53587571,8.51920904 C8.05338983,8.12062147 7.37627119,6.25254237 8.08700565,5.1720339 C8.72570621,4.2259887 9.00423729,4.09632768 8.22627119,3.00621469 C5.28728814,4.85028249 2.98700565,7.57316384 1.68559322,10.7954802 Z M17,0 C26.3884181,0 34,7.61158192 34,17 C34,26.3884181 26.3884181,34 17,34 C7.61158192,34 0,26.3884181 0,17 C0,7.61158192 7.61638418,0 17,0 Z" id="Shape" stroke="#404B8A" stroke-width="0.5" fill="#404B8A" fill-rule="nonzero"></path>
                <polygon id="Triangle" fill="#8DA4FA" filter="url(#filter-1)" transform="translate(19.500000, 16.772727) rotate(90.000000) translate(-19.500000, -16.772727) " points="19.5 9 29 24.5454545 10 24.5454545"></polygon>
                <polygon id="Triangle" fill="#8DA4FA" transform="translate(19.500000, 16.772727) rotate(90.000000) translate(-19.500000, -16.772727) " points="19.5 9 29 24.5454545 10 24.5454545"></polygon>
            </g>
            <circle id="Oval" fill="#404B8A" cx="4" cy="3.5" r="1"></circle>
            <circle id="Oval" fill="#404B8A" cx="8" cy="3.5" r="1"></circle>
            <circle id="Oval" fill="#404B8A" cx="12" cy="3.5" r="1"></circle>
        </g>
    </g>
</svg>