<?xml version="1.0" encoding="UTF-8"?>
<svg width="92px" height="83px" viewBox="0 0 92 83" version="1.1" xmlns="http://www.w3.org/2000/svg" xmlns:xlink="http://www.w3.org/1999/xlink">
    <defs>
        <filter x="-67.5%" y="-67.5%" width="235.0%" height="235.0%" filterUnits="objectBoundingBox" id="filter-1">
            <feGaussianBlur stdDeviation="3" in="SourceGraphic"></feGaussianBlur>
        </filter>
        <filter x="-67.5%" y="-67.5%" width="235.0%" height="235.0%" filterUnits="objectBoundingBox" id="filter-2">
            <feGaussianBlur stdDeviation="3" in="SourceGraphic"></feGaussianBlur>
        </filter>
    </defs>
    <g id="illus-dark" stroke="none" stroke-width="1" fill="none" fill-rule="evenodd">
        <g id="Illustrations/170px/calendar" transform="translate(-40.000000, -44.000000)">
            <g id="Group" transform="translate(41.000000, 45.000000)">
                <g id="Group-3" transform="translate(0.000000, 3.555556)">
                    <g id="Group-2">
                        <polygon id="Path-2" fill="#6F7CBD" fill-rule="nonzero" points="88.8884481 0.859933583 88.8888889 8.68215522 0.000440760834 8.91784419 0 1.09562256"></polygon>
                        <path d="M2,0.888888889 L13.6149646,0.888888889 L13.6149646,0.888888889 L86.8888889,0.888888889 C87.9934584,0.888888889 88.8888889,1.78431939 88.8888889,2.88888889 L88.8888889,74.4444444 C88.8888889,75.5490139 87.9934584,76.4444444 86.8888889,76.4444444 L2,76.4444444 C0.8954305,76.4444444 1.3527075e-16,75.5490139 0,74.4444444 L0,2.88888889 C-1.3527075e-16,1.78431939 0.8954305,0.888888889 2,0.888888889 Z" id="Rectangle-2" stroke="#404B8A" stroke-width="1.5"></path>
                        <polygon id="Path-2" fill="#404B8A" fill-rule="nonzero" points="88.8884481 8.15635156 88.8888889 9.57857368 0.000440760834 9.62142622 0 8.1992041"></polygon>
                    </g>
                    <path d="M18.5396825,16.1111111 C18.818874,16.1111111 19.0659776,16.1746693 19.2334351,16.333075 C19.3813937,16.4730359 19.4444444,16.6795841 19.4444444,16.9129129 L19.4444444,16.9129129 L19.4444444,26.6426426 C19.4444444,26.8759714 19.3813937,27.0825197 19.2334351,27.2224805 C19.0659776,27.3808863 18.818874,27.4444444 18.5396825,27.4444444 L18.5396825,27.4444444 L9.01587302,27.4444444 C8.73668154,27.4444444 8.489578,27.3808863 8.32212049,27.2224805 C8.17416185,27.0825197 8.11111111,26.8759714 8.11111111,26.6426426 L8.11111111,26.6426426 L8.11111111,16.9129129 C8.11111111,16.6795841 8.17416185,16.4730359 8.32212049,16.333075 C8.489578,16.1746693 8.73668154,16.1111111 9.01587302,16.1111111 L9.01587302,16.1111111 Z" id="Path" stroke="#404B8A" stroke-width="2" fill-rule="nonzero"></path>
                    <path d="M18.5396825,36.5555556 C18.818874,36.5555556 19.0659776,36.6191137 19.2334351,36.7775195 C19.3813937,36.9174803 19.4444444,37.1240286 19.4444444,37.3573574 L19.4444444,37.3573574 L19.4444444,47.0870871 C19.4444444,47.3204159 19.3813937,47.5269641 19.2334351,47.666925 C19.0659776,47.8253307 18.818874,47.8888889 18.5396825,47.8888889 L18.5396825,47.8888889 L9.01587302,47.8888889 C8.73668154,47.8888889 8.489578,47.8253307 8.32212049,47.666925 C8.17416185,47.5269641 8.11111111,47.3204159 8.11111111,47.0870871 L8.11111111,47.0870871 L8.11111111,37.3573574 C8.11111111,37.1240286 8.17416185,36.9174803 8.32212049,36.7775195 C8.489578,36.6191137 8.73668154,36.5555556 9.01587302,36.5555556 L9.01587302,36.5555556 Z" id="Path-Copy-5" stroke="#404B8A" stroke-width="2" fill-rule="nonzero"></path>
                    <path d="M18.5396825,57 C18.818874,57 19.0659776,57.0635582 19.2334351,57.2219639 C19.3813937,57.3619248 19.4444444,57.568473 19.4444444,57.8018018 L19.4444444,57.8018018 L19.4444444,67.5315315 C19.4444444,67.7648603 19.3813937,67.9714086 19.2334351,68.1113694 C19.0659776,68.2697752 18.818874,68.3333333 18.5396825,68.3333333 L18.5396825,68.3333333 L9.01587302,68.3333333 C8.73668154,68.3333333 8.489578,68.2697752 8.32212049,68.1113694 C8.17416185,67.9714086 8.11111111,67.7648603 8.11111111,67.5315315 L8.11111111,67.5315315 L8.11111111,57.8018018 C8.11111111,57.568473 8.17416185,57.3619248 8.32212049,57.2219639 C8.489578,57.0635582 8.73668154,57 9.01587302,57 L9.01587302,57 Z" id="Path-Copy-10" stroke="#404B8A" stroke-width="2" fill-rule="nonzero"></path>
                    <path d="M38.984127,16.1111111 C39.2633185,16.1111111 39.510422,16.1746693 39.6778795,16.333075 C39.8258381,16.4730359 39.8888889,16.6795841 39.8888889,16.9129129 L39.8888889,16.9129129 L39.8888889,26.6426426 C39.8888889,26.8759714 39.8258381,27.0825197 39.6778795,27.2224805 C39.510422,27.3808863 39.2633185,27.4444444 38.984127,27.4444444 L38.984127,27.4444444 L29.4603175,27.4444444 C29.181126,27.4444444 28.9340224,27.3808863 28.7665649,27.2224805 C28.6186063,27.0825197 28.5555556,26.8759714 28.5555556,26.6426426 L28.5555556,26.6426426 L28.5555556,16.9129129 C28.5555556,16.6795841 28.6186063,16.4730359 28.7665649,16.333075 C28.9340224,16.1746693 29.181126,16.1111111 29.4603175,16.1111111 L29.4603175,16.1111111 Z" id="Path-Copy" stroke="#404B8A" stroke-width="2" fill-rule="nonzero"></path>
                    <path d="M38.984127,36.5555556 C39.2633185,36.5555556 39.510422,36.6191137 39.6778795,36.7775195 C39.8258381,36.9174803 39.8888889,37.1240286 39.8888889,37.3573574 L39.8888889,37.3573574 L39.8888889,47.0870871 C39.8888889,47.3204159 39.8258381,47.5269641 39.6778795,47.666925 C39.510422,47.8253307 39.2633185,47.8888889 38.984127,47.8888889 L38.984127,47.8888889 L29.4603175,47.8888889 C29.181126,47.8888889 28.9340224,47.8253307 28.7665649,47.666925 C28.6186063,47.5269641 28.5555556,47.3204159 28.5555556,47.0870871 L28.5555556,47.0870871 L28.5555556,37.3573574 C28.5555556,37.1240286 28.6186063,36.9174803 28.7665649,36.7775195 C28.9340224,36.6191137 29.181126,36.5555556 29.4603175,36.5555556 L29.4603175,36.5555556 Z" id="Path-Copy-14" stroke="#8DA4FA" stroke-width="2" fill="#8DA4FA" fill-rule="nonzero" filter="url(#filter-1)"></path>
                    <path d="M38.984127,36.5555556 C39.2633185,36.5555556 39.510422,36.6191137 39.6778795,36.7775195 C39.8258381,36.9174803 39.8888889,37.1240286 39.8888889,37.3573574 L39.8888889,37.3573574 L39.8888889,47.0870871 C39.8888889,47.3204159 39.8258381,47.5269641 39.6778795,47.666925 C39.510422,47.8253307 39.2633185,47.8888889 38.984127,47.8888889 L38.984127,47.8888889 L29.4603175,47.8888889 C29.181126,47.8888889 28.9340224,47.8253307 28.7665649,47.666925 C28.6186063,47.5269641 28.5555556,47.3204159 28.5555556,47.0870871 L28.5555556,47.0870871 L28.5555556,37.3573574 C28.5555556,37.1240286 28.6186063,36.9174803 28.7665649,36.7775195 C28.9340224,36.6191137 29.181126,36.5555556 29.4603175,36.5555556 L29.4603175,36.5555556 Z" id="Path-Copy-9" stroke="#8DA4FA" stroke-width="2" fill="#8DA4FA" fill-rule="nonzero"></path>
                    <path d="M34.5,42.3621738 L35.2169432,43.5353535 L33.7830568,43.5353535 L34.5,42.3621738 Z" id="Triangle" stroke="#121425" stroke-width="2" fill="#121425" fill-rule="nonzero" transform="translate(34.500000, 42.489899) rotate(90.000000) translate(-34.500000, -42.489899) "></path>
                    <path d="M38.984127,57 C39.2633185,57 39.510422,57.0635582 39.6778795,57.2219639 C39.8258381,57.3619248 39.8888889,57.568473 39.8888889,57.8018018 L39.8888889,57.8018018 L39.8888889,67.5315315 C39.8888889,67.7648603 39.8258381,67.9714086 39.6778795,68.1113694 C39.510422,68.2697752 39.2633185,68.3333333 38.984127,68.3333333 L38.984127,68.3333333 L29.4603175,68.3333333 C29.181126,68.3333333 28.9340224,68.2697752 28.7665649,68.1113694 C28.6186063,67.9714086 28.5555556,67.7648603 28.5555556,67.5315315 L28.5555556,67.5315315 L28.5555556,57.8018018 C28.5555556,57.568473 28.6186063,57.3619248 28.7665649,57.2219639 C28.9340224,57.0635582 29.181126,57 29.4603175,57 L29.4603175,57 Z" id="Path-Copy-11" stroke="#404B8A" stroke-width="2" fill-rule="nonzero"></path>
                    <path d="M59.4285714,16.1111111 C59.7077629,16.1111111 59.9548664,16.1746693 60.122324,16.333075 C60.2702826,16.4730359 60.3333333,16.6795841 60.3333333,16.9129129 L60.3333333,16.9129129 L60.3333333,26.6426426 C60.3333333,26.8759714 60.2702826,27.0825197 60.122324,27.2224805 C59.9548664,27.3808863 59.7077629,27.4444444 59.4285714,27.4444444 L59.4285714,27.4444444 L49.9047619,27.4444444 C49.6255704,27.4444444 49.3784669,27.3808863 49.2110094,27.2224805 C49.0630507,27.0825197 49,26.8759714 49,26.6426426 L49,26.6426426 L49,16.9129129 C49,16.6795841 49.0630507,16.4730359 49.2110094,16.333075 C49.3784669,16.1746693 49.6255704,16.1111111 49.9047619,16.1111111 L49.9047619,16.1111111 Z" id="Path-Copy-2" stroke="#404B8A" stroke-width="2" fill-rule="nonzero"></path>
                    <path d="M59.4285714,36.5555556 C59.7077629,36.5555556 59.9548664,36.6191137 60.122324,36.7775195 C60.2702826,36.9174803 60.3333333,37.1240286 60.3333333,37.3573574 L60.3333333,37.3573574 L60.3333333,47.0870871 C60.3333333,47.3204159 60.2702826,47.5269641 60.122324,47.666925 C59.9548664,47.8253307 59.7077629,47.8888889 59.4285714,47.8888889 L59.4285714,47.8888889 L49.9047619,47.8888889 C49.6255704,47.8888889 49.3784669,47.8253307 49.2110094,47.666925 C49.0630507,47.5269641 49,47.3204159 49,47.0870871 L49,47.0870871 L49,37.3573574 C49,37.1240286 49.0630507,36.9174803 49.2110094,36.7775195 C49.3784669,36.6191137 49.6255704,36.5555556 49.9047619,36.5555556 L49.9047619,36.5555556 Z" id="Path-Copy-7" stroke="#404B8A" stroke-width="2" fill-rule="nonzero"></path>
                    <path d="M59.4285714,57 C59.7077629,57 59.9548664,57.0635582 60.122324,57.2219639 C60.2702826,57.3619248 60.3333333,57.568473 60.3333333,57.8018018 L60.3333333,57.8018018 L60.3333333,67.5315315 C60.3333333,67.7648603 60.2702826,67.9714086 60.122324,68.1113694 C59.9548664,68.2697752 59.7077629,68.3333333 59.4285714,68.3333333 L59.4285714,68.3333333 L49.9047619,68.3333333 C49.6255704,68.3333333 49.3784669,68.2697752 49.2110094,68.1113694 C49.0630507,67.9714086 49,67.7648603 49,67.5315315 L49,67.5315315 L49,57.8018018 C49,57.568473 49.0630507,57.3619248 49.2110094,57.2219639 C49.3784669,57.0635582 49.6255704,57 49.9047619,57 L49.9047619,57 Z" id="Path-Copy-12" stroke="#404B8A" stroke-width="2" fill-rule="nonzero"></path>
                    <path d="M79.8730159,16.1111111 C80.1522073,16.1111111 80.3993109,16.1746693 80.5667684,16.333075 C80.714727,16.4730359 80.7777778,16.6795841 80.7777778,16.9129129 L80.7777778,16.9129129 L80.7777778,26.6426426 C80.7777778,26.8759714 80.714727,27.0825197 80.5667684,27.2224805 C80.3993109,27.3808863 80.1522073,27.4444444 79.8730159,27.4444444 L79.8730159,27.4444444 L70.3492063,27.4444444 C70.0700149,27.4444444 69.8229113,27.3808863 69.6554538,27.2224805 C69.5074952,27.0825197 69.4444444,26.8759714 69.4444444,26.6426426 L69.4444444,26.6426426 L69.4444444,16.9129129 C69.4444444,16.6795841 69.5074952,16.4730359 69.6554538,16.333075 C69.8229113,16.1746693 70.0700149,16.1111111 70.3492063,16.1111111 L70.3492063,16.1111111 Z" id="Path-Copy-3" stroke="#404B8A" stroke-width="2" fill-rule="nonzero"></path>
                    <path d="M79.8730159,36.5555556 C80.1522073,36.5555556 80.3993109,36.6191137 80.5667684,36.7775195 C80.714727,36.9174803 80.7777778,37.1240286 80.7777778,37.3573574 L80.7777778,37.3573574 L80.7777778,47.0870871 C80.7777778,47.3204159 80.714727,47.5269641 80.5667684,47.666925 C80.3993109,47.8253307 80.1522073,47.8888889 79.8730159,47.8888889 L79.8730159,47.8888889 L70.3492063,47.8888889 C70.0700149,47.8888889 69.8229113,47.8253307 69.6554538,47.666925 C69.5074952,47.5269641 69.4444444,47.3204159 69.4444444,47.0870871 L69.4444444,47.0870871 L69.4444444,37.3573574 C69.4444444,37.1240286 69.5074952,36.9174803 69.6554538,36.7775195 C69.8229113,36.6191137 70.0700149,36.5555556 70.3492063,36.5555556 L70.3492063,36.5555556 Z" id="Path-Copy-8" stroke="#404B8A" stroke-width="2" fill-rule="nonzero"></path>
                    <path d="M79.8730159,57 C80.1522073,57 80.3993109,57.0635582 80.5667684,57.2219639 C80.714727,57.3619248 80.7777778,57.568473 80.7777778,57.8018018 L80.7777778,57.8018018 L80.7777778,67.5315315 C80.7777778,67.7648603 80.714727,67.9714086 80.5667684,68.1113694 C80.3993109,68.2697752 80.1522073,68.3333333 79.8730159,68.3333333 L79.8730159,68.3333333 L70.3492063,68.3333333 C70.0700149,68.3333333 69.8229113,68.2697752 69.6554538,68.1113694 C69.5074952,67.9714086 69.4444444,67.7648603 69.4444444,67.5315315 L69.4444444,67.5315315 L69.4444444,57.8018018 C69.4444444,57.568473 69.5074952,57.3619248 69.6554538,57.2219639 C69.8229113,57.0635582 70.0700149,57 70.3492063,57 L70.3492063,57 Z" id="Path-Copy-13" stroke="#8DA4FA" stroke-width="2" fill="#8DA4FA" fill-rule="nonzero" filter="url(#filter-2)"></path>
                    <path d="M79.8730159,57 C80.1522073,57 80.3993109,57.0635582 80.5667684,57.2219639 C80.714727,57.3619248 80.7777778,57.568473 80.7777778,57.8018018 L80.7777778,57.8018018 L80.7777778,67.5315315 C80.7777778,67.7648603 80.714727,67.9714086 80.5667684,68.1113694 C80.3993109,68.2697752 80.1522073,68.3333333 79.8730159,68.3333333 L79.8730159,68.3333333 L70.3492063,68.3333333 C70.0700149,68.3333333 69.8229113,68.2697752 69.6554538,68.1113694 C69.5074952,67.9714086 69.4444444,67.7648603 69.4444444,67.5315315 L69.4444444,67.5315315 L69.4444444,57.8018018 C69.4444444,57.568473 69.5074952,57.3619248 69.6554538,57.2219639 C69.8229113,57.0635582 70.0700149,57 70.3492063,57 L70.3492063,57 Z" id="Path-Copy-13" stroke="#8DA4FA" stroke-width="2" fill="#8DA4FA" fill-rule="nonzero"></path>
                    <path d="M75.5,62.3621738 L76.2169432,63.5353535 L74.7830568,63.5353535 L75.5,62.3621738 Z" id="Triangle" stroke="#121425" stroke-width="2" fill="#121425" fill-rule="nonzero" transform="translate(75.500000, 62.489899) rotate(90.000000) translate(-75.500000, -62.489899) "></path>
                </g>
                <line x1="75.5555556" y1="6.06292794e-13" x2="75.5555556" y2="8" id="Line-Copy" stroke="#404B8A" stroke-width="2" stroke-linecap="round"></line>
                <line x1="13.3333333" y1="6.03961325e-13" x2="13.3333333" y2="8" id="Line" stroke="#404B8A" stroke-width="2" stroke-linecap="round"></line>
            </g>
        </g>
    </g>
</svg>
