<?xml version="1.0" encoding="UTF-8"?>
<svg width="169px" height="359px" viewBox="0 0 169 359" version="1.1" xmlns="http://www.w3.org/2000/svg" xmlns:xlink="http://www.w3.org/1999/xlink">
    <defs>
        <filter x="-17.1%" y="-22.2%" width="134.1%" height="144.3%" filterUnits="objectBoundingBox" id="filter-1">
            <feGaussianBlur stdDeviation="4" in="SourceGraphic"></feGaussianBlur>
        </filter>
        <filter x="-179.5%" y="-345.4%" width="459.0%" height="790.8%" filterUnits="objectBoundingBox" id="filter-2">
            <feGaussianBlur stdDeviation="2" in="SourceGraphic"></feGaussianBlur>
        </filter>
        <filter x="-179.5%" y="-345.4%" width="459.0%" height="790.8%" filterUnits="objectBoundingBox" id="filter-3">
            <feGaussianBlur stdDeviation="2" in="SourceGraphic"></feGaussianBlur>
        </filter>
    </defs>
    <g id="illus-dark" stroke="none" stroke-width="1" fill="none" fill-rule="evenodd">
        <g id="Illustrations/380px/congratulations" transform="translate(-98.000000, -4.000000)">
            <g id="Group-5" transform="translate(114.000000, 18.000000)">
                <g id="Group" transform="translate(56.618764, 93.008643) rotate(-9.000000) translate(-56.618764, -93.008643) translate(13.118764, 6.008643)" fill-rule="nonzero">
                    <ellipse id="Oval" fill="#FF6E61" filter="url(#filter-1)" transform="translate(42.069508, 46.689622) rotate(-64.385648) translate(-42.069508, -46.689622) " cx="42.0695076" cy="46.6896217" rx="35.1426497" ry="27.0796878"></ellipse>
                    <ellipse id="Oval" fill="#FF6E61" transform="translate(42.069508, 46.689622) rotate(-64.385648) translate(-42.069508, -46.689622) " cx="42.0695076" cy="46.6896217" rx="35.1426497" ry="27.0796878"></ellipse>
                    <path d="M12.0734876,131.940054 C11.2256528,136.472106 10.2540719,140.979315 9.00321695,145.43361 C7.27764107,151.675131 4.29710091,160.912581 0.0615964741,173.145961 C0.207083548,173.626814 0.441358891,173.753136 0.764422503,173.524927 C1.24901792,173.182615 6.24753871,159.59325 9.28558391,149.459391 C10.9877649,143.798967 12.1987818,138.038476 13.2564799,132.2468 C13.2176321,132.240647 12.0606876,131.938076 12.0734876,131.940054 Z" id="Path" fill="#414D86"></path>
                    <path d="M14.1328834,119.921395 C13.9060984,121.297441 13.6805278,122.673488 13.4517697,124.048759 C13.4785053,124.052976 14.641116,124.305468 14.6464155,124.272008 C15.9920656,116.365558 17.3404821,108.459808 19.5449169,100.728719 C22.0391584,91.9749864 25.9922958,83.7361793 32.486736,77.2293941 C33.1926534,76.6208458 32.1573079,75.5909949 31.5455128,76.2463546 C19.9684673,87.9023943 16.7212473,104.333197 14.1328834,119.921395 Z" id="Path" fill="#414D86"></path>
                    <ellipse id="Oval" stroke="#414D86" stroke-width="1.5" transform="translate(46.489564, 44.352295) rotate(-64.385648) translate(-46.489564, -44.352295) " cx="46.4895643" cy="44.3522946" rx="35.1426497" ry="27.0796878"></ellipse>
                </g>
                <g id="woman-writing" transform="translate(29.000000, 94.000000)">
                    <path d="M116.351056,244.77988 C116.40053,245.593447 116.900764,248.583625 116.2686,249.424677 C115.108718,250.947367 104.977611,250.870408 104.477378,250.430642 C103.977144,249.990876 103.636325,249.012397 104.043109,248.704561 C104.449892,248.396725 108.413282,247.341287 108.930007,246.934503 C109.446732,246.52772 110.084393,245.336778 109.738077,244.275843 L116.351056,244.77988 Z" id="Path" fill="#414D86" fill-rule="nonzero"></path>
                    <path d="M66.1407876,111.503105 C64.4147065,115.417021 49.9189239,158.05782 50.2542453,164.27501 C50.5895668,170.4922 84.1327089,234.555094 85.9852227,235.231234 C87.8377364,235.907374 95.5336392,233.543632 96.1548085,231.861528 C96.6759217,230.450372 88.0976289,203.315597 85.1225937,188.830182" id="Path" stroke="#414D86" fill-rule="nonzero"></path>
                    <path d="M66.1407876,111.503105 C67.0093252,116.11515 81.4336459,179.716289 81.4336459,179.716289 L107.880066,243.762692 C110.078896,244.834621 116.548951,244.95006 117.681348,244.609241 C118.813745,244.268423 113.37714,182.937574 111.227784,174.246701 C109.502112,167.268984 105.43699,125.755241 103.932428,110.150687" id="Path" stroke="#414D86" fill-rule="nonzero"></path>
                    <path d="M94.964384,233.005983 C95.261226,233.759082 96.9189017,237.452051 96.561592,238.447022 C95.9184344,240.250062 86.2545793,243.262458 85.6444041,242.993101 C85.034229,242.723745 84.4075626,241.893687 84.6989075,241.481406 C84.9902524,241.069126 88.4479116,238.859302 88.8217126,238.309595 C89.1955136,237.759888 89.4813614,235.989576 88.8217126,235.082559 L94.964384,233.005983 Z" id="Path" fill="#414D86" fill-rule="nonzero"></path>
                    <path d="M78.481529,33.6149353 L78.481529,41.3956432 C81.3731152,40.7718466 83.887173,40.9661139 86.0237022,41.978445 L86.0237022,32.3397392" id="Path" stroke="#414D86" fill="#6F7CBD" fill-rule="nonzero"></path>
                    <path d="M76.9150515,15.095431 C78.8445243,15.3318052 84.1107206,21.2576503 85.710369,23.9787017 C86.3139432,25.0017088 86.2035851,28.504441 86.1681689,32.3511248 C84.6455619,33.2887519 82.8526313,33.8294573 80.9334122,33.8294573 C75.4110194,33.8294573 70.9342356,29.3526734 70.9342356,23.8302807 C70.9342356,21.2833026 71.8865097,18.9587401 73.4544404,17.1932105 C73.4835188,17.2994387 73.5146095,17.3833146 73.5453455,17.4426814 C74.485345,16.6511028 76.5467476,15.0459574 76.9150515,15.095431 Z" id="Oval-2" stroke="#414D86" fill="#6F7CBD" fill-rule="nonzero"></path>
                    <ellipse id="Oval" fill="#FF6E61" fill-rule="nonzero" filter="url(#filter-2)" cx="70.8242941" cy="25.1715666" rx="1.67111032" ry="1"></ellipse>
                    <ellipse id="Oval" fill="#FF6E61" fill-rule="nonzero" filter="url(#filter-3)" cx="81.3127103" cy="25.1715666" rx="1.67111032" ry="1"></ellipse>
                    <ellipse id="Oval" fill="#FF6E61" fill-rule="nonzero" cx="70.8242941" cy="25.1715666" rx="1.67111032" ry="1"></ellipse>
                    <ellipse id="Oval" fill="#FF6E61" fill-rule="nonzero" cx="81.3127103" cy="25.1715666" rx="1.67111032" ry="1"></ellipse>
                    <path d="M74.8976256,23.3685265 C74.5842924,23.8137895 72.9791469,25.6827945 74.6722455,26.4413906" id="Path" stroke="#414D86" stroke-width="0.62" stroke-linecap="round"></path>
                    <path d="M78.0584428,28.6237287 C78.7326433,28.4414398 79.3182941,28.0217234 79.7075648,27.441858" id="Path" stroke="#414D86" stroke-width="0.62" stroke-linecap="round"></path>
                    <path d="M96.8539158,-1.8189894e-12 C99.5346595,-1.8189894e-12 101.707832,2.5644908 101.707832,5.72795052 C101.707832,7.98729719 100.599333,9.94111981 98.9891169,10.8733746 C99.0767829,10.9436007 99.1577648,11.0175582 99.2331696,11.0935616 C106.417845,18.3442014 105.285448,32.5926158 106.692698,37.4355375 C109.41375,46.8135447 123.123451,71.6383284 123.123451,79.8839385 C123.123451,99.8548063 116.261493,108.24334 105.173895,108.545679 C105.226616,102.875129 104.459351,94.0722431 102.8721,82.1370228 C100.868912,67.0741916 97.0566626,56.6649553 91.4353508,50.909314 C91.4353508,50.909314 90.0750453,47.6381058 87.5408945,43.7351836 C85.0067436,39.8322615 87.0076783,26.1775311 85.710369,23.9787017 C84.1107206,21.2576503 78.8445243,15.3318052 76.9150515,15.095431 C76.5467476,15.0459574 74.485345,16.6511028 73.5453455,17.4426814 C73.1440591,16.667594 72.682305,11.7147309 76.6127125,10.0711059 C79.2517155,8.96752282 86.9834171,8.23319138 92.8275762,8.92637931 C92.304722,8.013138 92,6.91253794 92,5.72795052 C92,2.5644908 94.1731721,-1.8189894e-12 96.8539158,-1.8189894e-12 Z" id="Combined-Shape" stroke="#414D86" fill="#414D86" fill-rule="nonzero"></path>
                    <path d="M73.0056466,43.5862892 C75.574624,41.1806237 78.7728286,39.9820333 82.7309552,40.4809161 C89.7697427,41.6114082 94.924455,50.8394494 98.489892,61.9878687 C104.727212,75.3137807 106.904132,88.9980893 106.755253,91.7424278 C105.173895,120.892106 97.2102466,125.207309 97.2102466,125.207309 C97.2102466,125.207309 95.8596873,124.146024 94.4247603,123.029366 L94.0322762,122.724206 C93.1160385,122.012489 92.2122496,121.315381 91.6472083,120.892106 C91.985369,120.359919 93.0069754,114.558631 93.936817,108.54332 C83.1192512,111.042419 67.7717639,113.31975 66.1407876,111.503105 C64.78687,109.995058 61.988787,87.6770966 64.1128452,68.4371362 C61.2103677,69.593661 57.0743845,71.003153 52.9606028,72.3039845 L52.0526011,72.589467 C45.7061378,74.573448 39.6338995,76.2338818 38.479514,76.2338818 C37.3416198,76.2338818 30.5541568,70.4656685 23.5041406,64.1648347 L22.5835271,63.3403966 C14.5996466,56.1765472 6.57955714,48.6229614 6.30514323,48.2427838 C5.77742418,47.5116731 7.94876819,45.2688671 9.37251021,43.8451251 C10.0743406,44.2992507 16.0519055,47.7073515 22.4451391,51.1962528 L23.280997,51.6515489 C30.2594661,55.4455664 37.4793832,59.187457 38.699397,59.187457 C39.8471859,59.187457 46.8564559,56.0325415 54.3184328,52.5258864 L55.2531465,52.0859253 L55.2531465,52.0859253 L56.1902283,51.6435169 C56.5027228,51.4957748 56.8152207,51.3478275 57.1273308,51.1998779 L58.0621062,50.7562249 C64.5919123,47.6534437 70.77814,44.639059 72.9973333,43.5909795 Z" id="Combined-Shape" fill="#414D86" fill-rule="nonzero"></path>
                    <path d="M4.51584583,48.5048896 C7.09943913,48.5048896 9.5728373,46.4813249 9.5728373,44.3500881 C9.5728373,42.2188513 7.2616028,40.3105069 4.67800949,40.3105069 C2.09441619,40.3105069 -1.8189894e-11,42.0382156 -1.8189894e-11,44.1694524 C-1.8189894e-11,46.3006892 1.93225252,48.5048896 4.51584583,48.5048896 Z" id="Oval" stroke="#414D86" fill="#6F7CBD" fill-rule="nonzero"></path>
                    <path d="M82.8189084,69.5604346 C84.3525919,71.4789132 95.6765631,91.9115352 95.6765631,94.9843992 C95.6765631,96.5070886 94.846505,102.630828 93.9339909,108.545679" id="Path" stroke="#121424" stroke-linecap="round" stroke-linejoin="round"></path>
                    <path d="M69.0982131,49.754479 C66.8224247,54.7513188 64.8966921,61.6279215 64.0941194,68.5652282" id="Path" stroke="#121424" stroke-linecap="round" stroke-linejoin="round"></path>
                    <path d="M86.9005737,41.6246489 C91.8094603,47.0205598 93.4615224,49.4128412 98.2053742,58.6009725 C102.949226,67.7891037 102.949226,68.5652282 104.94521,78.0148892 C106.319144,85.9253224 106.755253,85.380778 106.755253,95.697838 C106.755253,100.646173 106.120341,104.968161 105.173895,108.545679" id="Path-2" stroke="#121424" stroke-linecap="round"></path>
                </g>
            </g>
        </g>
    </g>
</svg>
