<svg xmlns="http://www.w3.org/2000/svg" xmlns:xlink="http://www.w3.org/1999/xlink" width="259" height="239" viewBox="0 0 259 239">
    <defs>
        <filter id="aqpeg68v3a" width="559.8%" height="986.2%" x="-229.9%" y="-443.1%" filterUnits="objectBoundingBox">
            <feGaussianBlur in="SourceGraphic" stdDeviation="2"/>
        </filter>
        <filter id="3fvkw818yb" width="559.8%" height="986.2%" x="-229.9%" y="-443.1%" filterUnits="objectBoundingBox">
            <feGaussianBlur in="SourceGraphic" stdDeviation="2"/>
        </filter>
        <filter id="p65rc8upwc" width="281.5%" height="281.9%" x="-90.8%" y="-90.9%" filterUnits="objectBoundingBox">
            <feGaussianBlur in="SourceGraphic" stdDeviation="4"/>
        </filter>
        <filter id="5psoiqm83d" width="357.2%" height="357.6%" x="-128.6%" y="-128.8%" filterUnits="objectBoundingBox">
            <feGaussianBlur in="SourceGraphic" stdDeviation="4"/>
        </filter>
        <filter id="1ndgavmhke" width="463.1%" height="463.7%" x="-181.5%" y="-181.9%" filterUnits="objectBoundingBox">
            <feGaussianBlur in="SourceGraphic" stdDeviation="4"/>
        </filter>
        <path id="aaiq2z86zf" d="M3.352 0l-.587.099-.587.098-.017.547c-.236.105-.458.243-.66.412l-.5-.223-.345.484-.345.485.375.398c-.095.246-.152.501-.174.757L0 3.253l.099.586.099.586.547.017c.105.235.243.457.413.658l-.223.5.485.344.485.344.4-.374c.246.094.5.152.757.174l.196.51.587-.098.587-.099.018-.547c.235-.104.457-.242.66-.411l.5.222.344-.484.345-.484-.374-.398c.094-.246.151-.501.174-.757l.511-.196-.099-.586-.099-.586-.547-.017c-.105-.235-.243-.457-.413-.659L5.675 1 5.19.655 4.705.31l-.399.374C4.06.59 3.804.533 3.548.511L3.352 0zm-.759 4.298c-.552-.393-.681-1.158-.288-1.71.393-.55 1.16-.68 1.712-.287.552.392.681 1.157.288 1.709-.24.336-.617.515-1 .515-.247 0-.496-.074-.712-.227z"/>
    </defs>
    <g fill="none" fill-rule="evenodd">
        <g>
            <g>
                <g>
                    <g>
                        <path stroke="#9EB1FF" d="M.698 14.478V4c0-2.21 1.79-4 4-4h176.117c2.209 0 4 1.79 4 4v114.264h0M164.663 135.179L7.212 135.179M.698 65.083L.698 11.747" transform="translate(-572 -336) translate(588 344) translate(0 7) translate(57.145 .61)"/>
                        <g fill="#414D86">
                            <path d="M4.078 2.725c0 1.118-.908 2.025-2.028 2.025C.929 4.75.022 3.843.022 2.725.022 1.608.929.701 2.05.701c1.12 0 2.028.907 2.028 2.024zM11.406 2.725c0 1.118-.908 2.025-2.028 2.025-1.121 0-2.028-.907-2.028-2.025 0-1.117.907-2.024 2.028-2.024 1.12 0 2.028.907 2.028 2.024zM18.734 2.725c0 1.118-.908 2.025-2.028 2.025-1.121 0-2.028-.907-2.028-2.025 0-1.117.907-2.024 2.028-2.024 1.12 0 2.028.907 2.028 2.024z" transform="translate(-572 -336) translate(588 344) translate(0 7) translate(57.145 .61) translate(6.172 5.01)"/>
                        </g>
                        <path stroke="#9EB1FF" stroke-linecap="square" d="M1.156 14.478L184.357 14.478" transform="translate(-572 -336) translate(588 344) translate(0 7) translate(57.145 .61)"/>
                    </g>
                    <g transform="translate(-572 -336) translate(588 344) translate(0 7) matrix(-1 0 0 1 108.867 26.757)">
                        <path fill="#414D86" fill-rule="nonzero" d="M90.859 191.592c.038.634.429 2.965-.065 3.62-.906 1.188-8.817 1.128-9.208.785-.39-.343-.656-1.106-.339-1.346.318-.24 3.413-1.062 3.816-1.38.404-.317.902-1.245.632-2.072l5.164.393z"/>
                        <path fill="#8298FF" fill-rule="nonzero" stroke="#010314" d="M51.65 87.7c-1.349 3.05-12.668 36.29-12.406 41.136.261 4.847 26.455 54.785 27.902 55.312 1.447.528 7.456-1.315 7.941-2.626.407-1.1-6.292-22.253-8.615-33.544"/>
                        <path fill="#8298FF" fill-rule="nonzero" stroke="#010314" d="M51.65 87.7c.678 3.594 11.942 53.173 11.942 53.173L84.244 190.8c1.717.836 6.77.926 7.653.66.885-.266-3.36-48.075-5.04-54.85-1.347-5.439-4.521-37.8-5.696-49.964"/>
                        <path fill="#414D86" fill-rule="nonzero" d="M74.158 182.414c.232.587 1.526 3.466 1.247 4.241-.502 1.406-8.049 3.754-8.525 3.544-.477-.21-.966-.857-.739-1.178.228-.322 2.928-2.044 3.22-2.473.292-.428.515-1.808 0-2.515l4.797-1.62z"/>
                        <path fill="#FFDAD7" fill-rule="nonzero" d="M67.957 26.119v6.93h-6.883v-6.406"/>
                        <path fill="#FFDAD7" fill-rule="nonzero" d="M75.912 0c2.093 0 3.79 2 3.79 4.465 0 2.158-1.3 3.958-3.027 4.375.325.174.6.37.816.587 5.61 5.652 4.726 16.76 5.825 20.535.928 3.191 3.492 8.679 6.086 14.384l.502 1.106c.27.597.54 1.195.807 1.792l.398.893c2.704 6.095 5.038 11.913 5.038 14.914 0 15.568-5.358 22.107-14.017 22.343-1.615-3.904-3.043-10.507-4.282-19.81-1.565-11.743-4.012-20.416-7.342-26.02v-.037c-.004-.21-.13-1.336-2.065-4.127-1.068-1.539-1.205-5.002-1.19-8.328-1.101.55-2.344.86-3.659.86-4.528 0-8.2-3.665-8.2-8.186 0-2.064.766-3.95 2.03-5.39l.01.02c-.314-.604-.674-4.465 2.395-5.746 2.212-.923 9.006-1.515 13.64-.755-.824-.817-1.346-2.042-1.346-3.41C72.121 2 73.818 0 75.911 0z"/>
                        <ellipse cx="55.307" cy="20.401" fill="#FF6E61" fill-rule="nonzero" filter="url(#aqpeg68v3a)" rx="1.305" ry="1"/>
                        <ellipse cx="63.497" cy="20.401" fill="#FF6E61" fill-rule="nonzero" filter="url(#3fvkw818yb)" rx="1.305" ry="1"/>
                        <ellipse cx="63.497" cy="20.401" fill="#FF6E61" fill-rule="nonzero" rx="1.305" ry="1"/>
                        <ellipse cx="55.307" cy="20.401" fill="#FF6E61" fill-rule="nonzero" rx="1.305" ry="1"/>
                        <path stroke="#414D86" stroke-linecap="round" stroke-width=".62" d="M58.488 18.996c-.245.347-1.499 1.804-.176 2.395M60.956 23.092c.526-.142.984-.469 1.288-.92"/>
                        <path fill="#8298FF" fill-rule="nonzero" d="M75.912 0c2.093 0 3.79 2 3.79 4.465 0 2.158-1.3 3.958-3.027 4.375.325.174.6.37.816.587 5.61 5.652 4.726 16.76 5.825 20.535.928 3.191 3.492 8.679 6.086 14.384l.502 1.106c3.176 7.017 6.243 14.159 6.243 17.6 0 15.567-5.358 22.106-14.017 22.342-1.615-3.904-3.043-10.507-4.282-19.81-1.565-11.743-4.012-20.416-7.342-26.02v-.037c-.004-.21-.13-1.336-2.065-4.127-2.17-3.13-.497-14.214-1.51-15.928-1.249-2.122-5.361-6.74-6.868-6.925-.288-.039-1.897 1.212-2.631 1.83-.314-.605-.674-4.466 2.395-5.747 2.212-.923 9.006-1.515 13.64-.755-.824-.817-1.346-2.042-1.346-3.41C72.121 2 73.818 0 75.911 0z"/>
                        <path fill="#2C3157" fill-rule="nonzero" d="M56.589 35.174c2.273-3.02 5.29-4.664 9.254-4.155 3.264.425 6.107 3.84 8.507 8.75C80.289 49.975 84.785 71.55 85.19 74.126c1.822 11.556-6.931 25.04-7.641 26.11l-.034.051-.012.017s-3.245-2.553-4.48-3.479c.273-.43 1.1-5.14 1.852-10.007-8.712 2.05-21.08 3.918-22.394 2.428-1.077-1.22-3.286-19.059-1.699-34.689-6.15 2.446-19.01 6.262-20.579 6.262-.936 0-6.623-4.855-12.431-10.063l-.742-.666-.37-.334-.74-.668C10.014 43.746 4.495 38.535 4.29 38.252c-.424-.59 1.324-2.398 2.471-3.546 1.204.78 21.693 12.37 23.62 12.37.898 0 6.259-2.404 12.078-5.136l.834-.392.838-.396.42-.198.838-.398c4.326-2.054 8.54-4.098 11.03-5.296z"/>
                        <path fill="#FFDAD7" fill-rule="nonzero" d="M3.526 38.59c2.018 0 3.95-1.577 3.95-3.238 0-1.662-1.805-3.15-3.823-3.15C1.636 32.203 0 33.55 0 35.212c0 1.661 1.509 3.38 3.526 3.38z"/>
                        <path stroke="#121424" stroke-linecap="round" stroke-linejoin="round" d="M64.673 55.004c1.198 1.495 10.04 17.423 10.04 19.818 0 1.187-.647 5.96-1.36 10.572"/>
                        <path stroke="#000" stroke-linecap="round" stroke-linejoin="round" d="M54.74 39.564c-1.777 3.896-3.281 9.256-3.908 14.664"/>
                        <path stroke="#414D86" stroke-linecap="round" stroke-width="2" d="M5.731 26.259L1.322 40.177"/>
                    </g>
                    <g>
                        <g fill="#FF6E61">
                            <path d="M6.704 0L5.53.197 4.356.395 4.32 1.488c-.47.21-.915.485-1.319.824l-1-.445-.69.968-.69.968.75.797c-.19.492-.304 1.002-.348 1.514L0 6.505l.198 1.172.198 1.172 1.095.035c.21.47.485.913.825 1.316l-.446.998.97.69.97.689.798-.748c.493.188 1.004.303 1.517.347l.392 1.021L7.69 13l1.174-.198.034-1.093c.47-.21.915-.485 1.32-.824l1 .446.69-.969.69-.968-.75-.797c.19-.492.304-1.002.348-1.514l1.024-.39-.198-1.173-.198-1.172-1.095-.034c-.21-.47-.486-.914-.826-1.317l.447-.998-.97-.69-.97-.688-.799.748c-.493-.189-1.003-.303-1.516-.347L6.704 0zM5.187 8.595C4.082 7.811 3.824 6.28 4.61 5.178c.786-1.103 2.319-1.36 3.424-.576 1.104.785 1.363 2.315.577 3.418-.48.671-1.235 1.03-2.003 1.03-.492 0-.99-.148-1.421-.455z" filter="url(#p65rc8upwc)" transform="translate(-572 -336) translate(588 344) translate(0 7) translate(5.102 24.783)"/>
                            <path d="M6.704 0L5.53.197 4.356.395 4.32 1.488c-.47.21-.915.485-1.319.824l-1-.445-.69.968-.69.968.75.797c-.19.492-.304 1.002-.348 1.514L0 6.505l.198 1.172.198 1.172 1.095.035c.21.47.485.913.825 1.316l-.446.998.97.69.97.689.798-.748c.493.188 1.004.303 1.517.347l.392 1.021L7.69 13l1.174-.198.034-1.093c.47-.21.915-.485 1.32-.824l1 .446.69-.969.69-.968-.75-.797c.19-.492.304-1.002.348-1.514l1.024-.39-.198-1.173-.198-1.172-1.095-.034c-.21-.47-.486-.914-.826-1.317l.447-.998-.97-.69-.97-.688-.799.748c-.493-.189-1.003-.303-1.516-.347L6.704 0zM5.187 8.595C4.082 7.811 3.824 6.28 4.61 5.178c.786-1.103 2.319-1.36 3.424-.576 1.104.785 1.363 2.315.577 3.418-.48.671-1.235 1.03-2.003 1.03-.492 0-.99-.148-1.421-.455z" transform="translate(-572 -336) translate(588 344) translate(0 7) translate(5.102 24.783)"/>
                        </g>
                        <g fill="#FF6E61">
                            <path d="M4.732 0l-.829.14-.828.139-.025.772c-.332.147-.646.342-.93.581l-.707-.314L.926 2l-.487.684.529.562c-.133.348-.214.707-.246 1.069L0 4.592l.14.827.14.827.772.025c.149.331.343.645.583.93l-.315.704.685.486.684.487.564-.528c.348.133.708.213 1.07.245l.277.72.829-.139.828-.139.025-.772c.332-.148.646-.342.93-.581l.707.314.487-.683.487-.684-.529-.563c.133-.347.215-.707.246-1.068l.722-.276-.14-.827-.14-.828-.772-.024c-.148-.332-.343-.645-.583-.93l.315-.704-.684-.486-.685-.487-.564.528C5.731.833 5.371.752 5.01.721L4.732 0zm-1.07 6.067c-.78-.554-.963-1.634-.408-2.412.555-.779 1.637-.96 2.417-.407.78.554.962 1.634.407 2.413-.338.474-.872.727-1.413.727-.348 0-.699-.104-1.004-.32z" filter="url(#5psoiqm83d)" transform="translate(-572 -336) translate(588 344) translate(0 7) rotate(-20 31.147 5.162)"/>
                            <path d="M4.732 0l-.829.14-.828.139-.025.772c-.332.147-.646.342-.93.581l-.707-.314L.926 2l-.487.684.529.562c-.133.348-.214.707-.246 1.069L0 4.592l.14.827.14.827.772.025c.149.331.343.645.583.93l-.315.704.685.486.684.487.564-.528c.348.133.708.213 1.07.245l.277.72.829-.139.828-.139.025-.772c.332-.148.646-.342.93-.581l.707.314.487-.683.487-.684-.529-.563c.133-.347.215-.707.246-1.068l.722-.276-.14-.827-.14-.828-.772-.024c-.148-.332-.343-.645-.583-.93l.315-.704-.684-.486-.685-.487-.564.528C5.731.833 5.371.752 5.01.721L4.732 0zm-1.07 6.067c-.78-.554-.963-1.634-.408-2.412.555-.779 1.637-.96 2.417-.407.78.554.962 1.634.407 2.413-.338.474-.872.727-1.413.727-.348 0-.699-.104-1.004-.32z" transform="translate(-572 -336) translate(588 344) translate(0 7) rotate(-20 31.147 5.162)"/>
                        </g>
                        <g transform="translate(-572 -336) translate(588 344) translate(0 7) rotate(15 7.123 62.107)">
                            <path fill="#FF6E61" d="M3.352 0l-.587.099-.587.098-.017.547c-.236.105-.458.243-.66.412l-.5-.223-.345.484-.345.485.375.398c-.095.246-.152.501-.174.757L0 3.253l.099.586.099.586.547.017c.105.235.243.457.413.658l-.223.5.485.344.485.344.4-.374c.246.094.5.152.757.174l.196.51.587-.098.587-.099.018-.547c.235-.104.457-.242.66-.411l.5.222.344-.484.345-.484-.374-.398c.094-.246.151-.501.174-.757l.511-.196-.099-.586-.099-.586-.547-.017c-.105-.235-.243-.457-.413-.659L5.675 1 5.19.655 4.705.31l-.399.374C4.06.59 3.804.533 3.548.511L3.352 0zm-.759 4.298c-.552-.393-.681-1.158-.288-1.71.393-.55 1.16-.68 1.712-.287.552.392.681 1.157.288 1.709-.24.336-.617.515-1 .515-.247 0-.496-.074-.712-.227z" filter="url(#1ndgavmhke)"/>
                            <use fill="#FF6E61" xlink:href="#aaiq2z86zf"/>
                        </g>
                    </g>
                </g>
            </g>
        </g>
    </g>
</svg>
