<?xml version="1.0" encoding="UTF-8"?>
<svg width="280px" height="239px" viewBox="0 0 280 239" version="1.1" xmlns="http://www.w3.org/2000/svg" xmlns:xlink="http://www.w3.org/1999/xlink">
    <title>Illustrations/380px/feature_key3</title>
    <defs>
        <filter x="-229.9%" y="-443.1%" width="559.8%" height="986.2%" filterUnits="objectBoundingBox" id="filter-1">
            <feGaussianBlur stdDeviation="2" in="SourceGraphic"></feGaussianBlur>
        </filter>
        <filter x="-229.9%" y="-443.1%" width="559.8%" height="986.2%" filterUnits="objectBoundingBox" id="filter-2">
            <feGaussianBlur stdDeviation="2" in="SourceGraphic"></feGaussianBlur>
        </filter>
        <filter x="-90.8%" y="-90.9%" width="281.5%" height="281.9%" filterUnits="objectBoundingBox" id="filter-3">
            <feGaussianBlur stdDeviation="4" in="SourceGraphic"></feGaussianBlur>
        </filter>
        <filter x="-128.6%" y="-128.8%" width="357.2%" height="357.6%" filterUnits="objectBoundingBox" id="filter-4">
            <feGaussianBlur stdDeviation="4" in="SourceGraphic"></feGaussianBlur>
        </filter>
        <filter x="-181.5%" y="-181.9%" width="463.1%" height="463.7%" filterUnits="objectBoundingBox" id="filter-5">
            <feGaussianBlur stdDeviation="4" in="SourceGraphic"></feGaussianBlur>
        </filter>
        <path d="M3.35195894,6.58497787e-13 L2.76495388,0.0987289033 L2.17793085,0.197439875 L2.16057883,0.744178522 C1.92542833,0.848878498 1.70304935,0.986500062 1.50112995,1.15609286 L1.50112995,1.15609286 L1.00115447,0.933298345 L0.656017986,1.41745728 L0.310863538,1.90159829 L0.685548765,2.300136 C0.591208345,2.54615135 0.533817324,2.8009709 0.511759054,3.05706357 L0.511759054,3.05706357 L0,3.25254895 L0.0989029608,3.83853888 L0.197805922,4.42452881 L0.745490497,4.44186823 C0.850375058,4.67660489 0.988221284,4.89857458 1.15811307,5.10013862 L1.15811307,5.10013862 L0.934925772,5.5992342 L1.41995624,5.94378122 L1.90496874,6.28831031 L2.30417314,5.91428448 C2.55062222,6.0084768 2.80590897,6.06576682 3.06243516,6.08778627 L3.06243516,6.08778627 L3.25828314,6.59864469 L3.84530616,6.49991579 L4.43231122,6.40118689 L4.44968121,5.85446617 C4.68483171,5.74976619 4.90722865,5.61214463 5.10914805,5.44255183 L5.10914805,5.44255183 L5.60910557,5.66534635 L5.95424205,5.18118741 L6.2993965,4.69702847 L5.92471127,4.2985087 C6.01905169,4.05251127 6.07644271,3.79767379 6.09850098,3.54159906 L6.09850098,3.54159906 L6.61026004,3.34607782 L6.51137504,2.76008789 L6.41247208,2.17411589 L5.8647875,2.15677646 C5.75988498,1.92205773 5.62202079,1.70003425 5.452129,1.49848814 L5.452129,1.49848814 L5.67533426,0.999410489 L5.19032176,0.654881403 L4.70532722,0.310334386 L4.30606894,0.684360211 C4.05963782,0.590167888 3.80436903,0.532877869 3.54782488,0.51087635 L3.54782488,0.51087635 L3.35195894,6.58497787e-13 Z M2.59339892,4.2976911 C2.04104507,3.90531656 1.91192633,3.14024727 2.30499295,2.58885087 L2.30499295,2.58885087 C2.69807468,2.03745447 3.4644934,1.90856308 4.01686236,2.30093762 L4.01686236,2.30093762 C4.56921621,2.69332725 4.69835005,3.45841162 4.30526833,4.00980801 L4.30526833,4.00980801 C4.06582385,4.34566156 3.68780371,4.52478547 3.30407316,4.52478547 L3.30407316,4.52478547 C3.05784568,4.52478547 2.80930684,4.45107292 2.59339892,4.2976911 L2.59339892,4.2976911 Z" id="path-6"></path>
        <filter x="-211.1%" y="-198.8%" width="522.2%" height="497.6%" filterUnits="objectBoundingBox" id="filter-8">
            <feGaussianBlur stdDeviation="4" in="SourceGraphic"></feGaussianBlur>
        </filter>
    </defs>
    <g id="pages" stroke="none" stroke-width="1" fill="none" fill-rule="evenodd">
        <g id="success-contract-screen" transform="translate(-572.000000, -336.000000)">
            <g id="Illustrations/380px/feature_key3" transform="translate(588.000000, 344.000000)">
                <g id="Group-2" transform="translate(0.000000, 7.000000)">
                    <g id="Group-5">
                        <g id="Group-87" transform="translate(57.145474, 0.609595)">
                            <path d="M0.697908123,14.4778789 L0.697908123,4 C0.697908123,1.790861 2.48876912,4.05812251e-16 4.69790812,0 L180.814795,0 C183.023934,-4.05812251e-16 184.814795,1.790861 184.814795,4 L184.814795,118.264325 L184.814795,118.264325" id="Rectangle" stroke="#9EB1FF"></path>
                            <line x1="164.662698" y1="135.17907" x2="7.21243985" y2="135.17907" id="Rectangle" stroke="#9EB1FF"></line>
                            <line x1="0.697908123" y1="65.0833977" x2="0.697908123" y2="11.7469335" id="Rectangle" stroke="#9EB1FF"></line>
                            <g id="Group-86" transform="translate(6.172404, 5.010728)" fill="#414D86">
                                <path d="M4.07812108,2.72536492 C4.07812108,3.84314337 3.16957468,4.75009084 2.0498256,4.75009084 C0.928826803,4.75009084 0.0215301186,3.84314337 0.0215301186,2.72536492 C0.0215301186,1.60758647 0.928826803,0.700638996 2.0498256,0.700638996 C3.16957468,0.700638996 4.07812108,1.60758647 4.07812108,2.72536492 Z" id="Stroke-80"></path>
                                <path d="M11.4061564,2.72536492 C11.4061564,3.84314337 10.49761,4.75009084 9.37786089,4.75009084 C8.25686209,4.75009084 7.34956541,3.84314337 7.34956541,2.72536492 C7.34956541,1.60758647 8.25686209,0.700638996 9.37786089,0.700638996 C10.49761,0.700638996 11.4061564,1.60758647 11.4061564,2.72536492 Z" id="Stroke-82"></path>
                                <path d="M18.7341917,2.72536492 C18.7341917,3.84314337 17.8256452,4.75009084 16.7058962,4.75009084 C15.5848974,4.75009084 14.6776007,3.84314337 14.6776007,2.72536492 C14.6776007,1.60758647 15.5848974,0.700638996 16.7058962,0.700638996 C17.8256452,0.700638996 18.7341917,1.60758647 18.7341917,2.72536492 Z" id="Stroke-84"></path>
                            </g>
                            <line x1="1.15591033" y1="14.4778789" x2="184.356792" y2="14.4778789" id="Line" stroke="#9EB1FF" stroke-linecap="square"></line>
                        </g>
                        <g id="woman-writing" transform="translate(60.367138, 125.257440) scale(-1, 1) translate(-60.367138, -125.257440) translate(11.867138, 26.757440)">
                            <path d="M90.8585999,191.591862 C90.8972339,192.226058 91.2878666,194.556981 90.7942098,195.212603 C89.888457,196.399579 81.9770708,196.339588 81.5864381,195.996779 C81.1958054,195.65397 80.92966,194.891219 81.2473174,194.651253 C81.5649748,194.411287 84.659988,193.588545 85.0634988,193.271447 C85.4670095,192.954348 85.9649589,192.025978 85.6945209,191.198952 L90.8585999,191.591862 Z" id="Path" fill="#414D86" fill-rule="nonzero"></path>
                            <path d="M51.6493751,87.6991204 C50.3014775,90.7501208 38.9817134,123.989742 39.2435661,128.836204 C39.5054188,133.682667 65.6992758,183.621373 67.1459047,184.148441 C68.5925336,184.67551 74.6022681,182.832912 75.0873395,181.521667 C75.4942771,180.421634 68.7954838,159.269366 66.4722773,147.977605" id="Path" stroke="#010314" fill="#8298FF" fill-rule="nonzero"></path>
                            <path d="M51.6493751,87.6991204 C52.3276166,91.2943302 63.591576,140.873086 63.591576,140.873086 L84.2435993,190.798937 C85.9606663,191.634534 91.0131359,191.724521 91.8974254,191.458844 C92.7817149,191.193167 88.5362667,143.384162 86.8578338,136.609399 C85.5102557,131.170086 82.3358,98.809034 81.1608864,86.6448749" id="Path" stroke="#010314" fill="#8298FF" fill-rule="nonzero"></path>
                            <path d="M74.1577364,182.4138 C74.3895405,183.00086 75.6840203,185.879627 75.4049969,186.655232 C74.9027548,188.060749 67.3562454,190.408991 66.8797593,190.199021 C66.4032732,189.98905 65.9139091,189.341998 66.1414205,189.020615 C66.3689319,188.699231 69.0690197,186.976616 69.3609211,186.548105 C69.6528225,186.119593 69.8760412,184.739589 69.3609211,184.032546 L74.1577364,182.4138 Z" id="Path" fill="#414D86" fill-rule="nonzero"></path>
                            <path d="M67.9568539,26.1186662 C67.9568539,29.6296744 67.9568539,31.9396242 67.9568539,33.0485156 L61.0740188,33.0485156 L61.0740188,26.6431057" id="Path" fill="#FFDAD7" fill-rule="nonzero"></path>
                            <path d="M75.9115317,0 C78.0049258,0 79.7019571,1.99908783 79.7019571,4.46508763 C79.7019571,6.62299402 78.402479,8.42336904 76.6750587,8.83955116 C77.000413,9.01388912 77.2751475,9.20983085 77.4912333,9.42724836 C83.1017497,15.0793123 82.2174602,26.1863249 83.3163831,29.9615093 C84.2441434,33.1533753 86.807766,38.6407305 89.4018861,44.3455883 L89.9039236,45.4519122 C90.1742659,46.0490911 90.4438129,46.647178 90.7107419,47.2438137 L91.1089439,48.1373838 C93.8134599,54.2319782 96.1471662,60.0501595 96.1471662,63.0511511 C96.1471662,78.6189662 90.7886594,85.1580485 82.1303491,85.3937297 C80.5147037,81.490431 79.0871386,74.8868731 77.8476538,65.5830559 C76.2833633,53.841184 73.8360834,45.1683144 70.5058139,39.5644473 L70.5065003,39.5268033 C70.5020013,39.3160844 70.3765499,38.190649 68.4406475,35.3997326 C67.373283,33.8609541 67.2356502,30.3983654 67.2510029,27.0723008 C66.1499807,27.6222109 64.9071663,27.9312853 63.5920366,27.9312853 C59.0636024,27.9312853 55.3925811,24.2667246 55.3925811,19.7462599 C55.3925811,17.6815149 56.1584486,15.7953329 57.4220731,14.3553527 L57.4315982,14.3765538 C57.1182335,13.7723528 56.7576494,9.91146612 59.8269067,8.63021736 C62.0389023,7.70682892 68.8327497,7.11506794 73.4676378,7.8751039 C72.6434819,7.05770074 72.1211063,5.83325598 72.1211063,4.46508763 C72.1211063,1.99908783 73.8181376,0 75.9115317,0 Z" id="Oval-2" fill="#FFDAD7" fill-rule="nonzero"></path>
                            <ellipse id="Oval" fill="#FF6E61" fill-rule="nonzero" filter="url(#filter-1)" cx="55.3067278" cy="20.4014225" rx="1.30497091" ry="1"></ellipse>
                            <ellipse id="Oval" fill="#FF6E61" fill-rule="nonzero" filter="url(#filter-2)" cx="63.4971373" cy="20.4014225" rx="1.30497091" ry="1"></ellipse>
                            <ellipse id="Oval" fill="#FF6E61" fill-rule="nonzero" cx="63.4971373" cy="20.4014225" rx="1.30497091" ry="1"></ellipse>
                            <ellipse id="Oval" fill="#FF6E61" fill-rule="nonzero" cx="55.3067278" cy="20.4014225" rx="1.30497091" ry="1"></ellipse>
                            <path d="M58.4875944,18.9959054 C58.2429124,19.3429996 56.9894534,20.799938 58.311595,21.3912836" id="Path" stroke="#414D86" stroke-width="0.62" stroke-linecap="round"></path>
                            <path d="M60.9558782,23.0924734 C61.4823617,22.9503744 61.9396967,22.6231944 62.2436784,22.1711741" id="Path" stroke="#414D86" stroke-width="0.62" stroke-linecap="round"></path>
                            <path d="M75.9115317,0 C78.0049258,0 79.7019571,1.99908783 79.7019571,4.46508763 C79.7019571,6.62299402 78.402479,8.42336904 76.6750587,8.83955116 C77.000413,9.01388912 77.2751475,9.20983085 77.4912333,9.42724836 C83.1017497,15.0793123 82.2174602,26.1863249 83.3163831,29.9615093 C84.2441434,33.1533753 86.807766,38.6407305 89.4018861,44.3455883 L89.9039236,45.4519122 C93.0804457,52.4687635 96.1471662,59.61099 96.1471662,63.0511511 C96.1471662,78.6189662 90.7886594,85.1580485 82.1303491,85.3937297 C80.5147037,81.490431 79.0871386,74.8868731 77.8476538,65.5830559 C76.2833633,53.841184 73.8360834,45.1683144 70.5058139,39.5644473 C70.5058139,39.5644473 70.5061218,39.5614217 70.5063616,39.5552035 L70.5065003,39.5268033 C70.5020013,39.3160844 70.3765499,38.190649 68.4406475,35.3997326 C66.2700902,32.2705233 67.9443409,21.1855981 66.9312713,19.471553 C65.6821051,17.3504221 61.5697296,12.7310704 60.0630034,12.5468105 C59.7753946,12.5082445 58.1656443,13.7594975 57.4315982,14.3765538 C57.1182335,13.7723528 56.7576494,9.91146612 59.8269067,8.63021736 C62.0389023,7.70682892 68.8327497,7.11506794 73.4676378,7.8751039 C72.6434819,7.05770074 72.1211063,5.83325598 72.1211063,4.46508763 C72.1211063,1.99908783 73.8181376,0 75.9115317,0 Z" id="Path-5" fill="#8298FF" fill-rule="nonzero"></path>
                            <path d="M56.5886477,35.1744745 C58.86217,32.1531837 61.8794526,30.5104484 65.8427882,31.018975 C69.1068294,31.4444648 71.9498909,34.858759 74.349699,39.768134 C80.288907,49.9758231 84.785207,71.5509181 85.1912583,74.1267602 C87.0129522,85.682925 78.2598397,99.1664618 77.5495436,100.237175 L77.5155506,100.288161 C77.5079,100.299565 77.5039879,100.305334 77.5039879,100.305334 C77.5039879,100.305334 74.2588629,97.7524573 73.0236788,96.8261529 C73.2969769,96.3955688 74.1245624,91.6869192 74.8755242,86.8188668 C66.1637368,88.8683092 53.795528,90.7371414 52.4815501,89.2472503 C51.405378,88.027002 49.1962838,70.188042 50.783329,54.5581411 C44.6339195,57.0036637 31.7736721,60.8199482 30.2039658,60.8199482 C29.2676166,60.8199482 23.5812928,55.9648585 17.7726844,50.7572633 L17.0308522,50.0908959 C16.9072216,49.9796312 16.7836249,49.8682936 16.6601065,49.7569266 L15.920293,49.0887175 C10.0150129,43.7457669 4.49566881,38.534749 4.29166422,38.2518051 C3.86665466,37.6623387 5.61539191,35.8540507 6.76203228,34.7061424 C7.96622603,35.4861882 28.4552285,47.0760732 30.3810531,47.0760732 C31.2797712,47.0760732 36.6405388,44.6717396 42.4603022,41.9400074 L43.2943872,41.547757 L43.2943872,41.547757 L44.1321235,41.1523978 C44.2719064,41.0863203 44.4117334,41.0201693 44.5515504,40.9539729 L45.389901,40.5564735 C49.716295,38.5022272 53.929276,36.4581995 56.4192044,35.2595321 Z" id="Combined-Shape" fill="#2C3157" fill-rule="nonzero"></path>
                            <path d="M3.52642633,38.5903596 C5.54395568,38.5903596 7.47543358,37.0129378 7.47543358,35.3515829 C7.47543358,33.6902279 5.67058937,32.2026234 3.65306002,32.2026234 C1.63553068,32.2026234 -1.42044976e-11,33.5494177 -1.42044976e-11,35.2107726 C-1.42044976e-11,36.8721276 1.50889699,38.5903596 3.52642633,38.5903596 Z" id="Oval" fill="#FFDAD7" fill-rule="nonzero"></path>
                            <path d="M64.6733282,55.0037091 C65.8709825,56.4992135 74.7138775,72.4269781 74.7138775,74.8223562 C74.7138775,76.0093325 74.0656847,80.7829482 73.3531019,85.3937297" id="Path" stroke="#121424" stroke-linecap="round" stroke-linejoin="round"></path>
                            <path d="M54.7397307,39.5644473 C52.9625664,43.4596149 51.4587609,48.8201071 50.8320314,54.2279196" id="Path" stroke="#000000" stroke-linecap="round" stroke-linejoin="round"></path>
                            <line x1="5.73071108" y1="26.2591718" x2="1.32214158" y2="40.1772185" id="Path" stroke="#414D86" stroke-width="2" stroke-linecap="round"></line>
                        </g>
                        <g id="Group-10">
                            <g id="Group-3" transform="translate(5.102465, 24.782645)" fill="#FF6E61">
                                <path d="M6.70391787,0 L5.52990775,0.197457807 L4.35586171,0.394879751 L4.32115766,1.48835704 C3.85085665,1.697757 3.4060987,1.97300012 3.00225991,2.31218573 L3.00225991,2.31218573 L2.00230894,1.86659669 L1.31203597,2.83491457 L0.621727076,3.80319658 L1.37109753,4.60027199 C1.18241669,5.09230271 1.06763465,5.60194181 1.02351811,6.11412713 L1.02351811,6.11412713 L0,6.50509789 L0.197805922,7.67707775 L0.395611843,8.84905761 L1.49098099,8.88373646 C1.70075012,9.35320978 1.97644257,9.79714916 2.31622615,10.2002772 L2.31622615,10.2002772 L1.86985154,11.1984684 L2.83991248,11.8875624 L3.80993748,12.5766206 L4.60834627,11.828569 C5.10124443,12.0169536 5.61181794,12.1315336 6.12487032,12.1755725 L6.12487032,12.1755725 L6.51656628,13.1972894 L7.69061232,12.9998316 L8.86462244,12.8023738 L8.89936242,11.7089323 C9.36966342,11.4995324 9.8144573,11.2242893 10.2182961,10.8851037 L10.2182961,10.8851037 L11.2182111,11.3306927 L11.9084841,10.3623748 L12.598793,9.39405694 L11.8494225,8.59701739 C12.0381034,8.10502254 12.1528854,7.59534758 12.197002,7.08319812 L12.197002,7.08319812 L13.2205201,6.69215563 L13.0227501,5.52017577 L12.8249442,4.34823177 L11.729575,4.31355293 C11.51977,3.84411546 11.2440416,3.4000685 10.904258,2.99697629 L10.904258,2.99697629 L11.3506685,1.99882098 L10.3806435,1.30976281 L9.41065444,0.620668772 L8.61213787,1.36872042 C8.11927564,1.18033578 7.60873806,1.06575574 7.09564976,1.0217527 L7.09564976,1.0217527 L6.70391787,0 Z M5.18679784,8.5953822 C4.08209014,7.81063311 3.82385267,6.28049454 4.60998591,5.17770174 L4.60998591,5.17770174 C5.39614936,4.07490895 6.92898681,3.81712615 8.03372472,4.60187524 L8.03372472,4.60187524 C9.13843242,5.3866545 9.39670011,6.91682323 8.61053665,8.01961603 L8.61053665,8.01961603 C8.13164769,8.69132313 7.37560741,9.04957094 6.60814631,9.04957094 L6.60814631,9.04957094 C6.11569135,9.04957094 5.61861367,8.90214584 5.18679784,8.5953822 L5.18679784,8.5953822 Z" id="Clip-2" filter="url(#filter-3)"></path>
                                <path d="M6.70391787,0 L5.52990775,0.197457807 L4.35586171,0.394879751 L4.32115766,1.48835704 C3.85085665,1.697757 3.4060987,1.97300012 3.00225991,2.31218573 L3.00225991,2.31218573 L2.00230894,1.86659669 L1.31203597,2.83491457 L0.621727076,3.80319658 L1.37109753,4.60027199 C1.18241669,5.09230271 1.06763465,5.60194181 1.02351811,6.11412713 L1.02351811,6.11412713 L0,6.50509789 L0.197805922,7.67707775 L0.395611843,8.84905761 L1.49098099,8.88373646 C1.70075012,9.35320978 1.97644257,9.79714916 2.31622615,10.2002772 L2.31622615,10.2002772 L1.86985154,11.1984684 L2.83991248,11.8875624 L3.80993748,12.5766206 L4.60834627,11.828569 C5.10124443,12.0169536 5.61181794,12.1315336 6.12487032,12.1755725 L6.12487032,12.1755725 L6.51656628,13.1972894 L7.69061232,12.9998316 L8.86462244,12.8023738 L8.89936242,11.7089323 C9.36966342,11.4995324 9.8144573,11.2242893 10.2182961,10.8851037 L10.2182961,10.8851037 L11.2182111,11.3306927 L11.9084841,10.3623748 L12.598793,9.39405694 L11.8494225,8.59701739 C12.0381034,8.10502254 12.1528854,7.59534758 12.197002,7.08319812 L12.197002,7.08319812 L13.2205201,6.69215563 L13.0227501,5.52017577 L12.8249442,4.34823177 L11.729575,4.31355293 C11.51977,3.84411546 11.2440416,3.4000685 10.904258,2.99697629 L10.904258,2.99697629 L11.3506685,1.99882098 L10.3806435,1.30976281 L9.41065444,0.620668772 L8.61213787,1.36872042 C8.11927564,1.18033578 7.60873806,1.06575574 7.09564976,1.0217527 L7.09564976,1.0217527 L6.70391787,0 Z M5.18679784,8.5953822 C4.08209014,7.81063311 3.82385267,6.28049454 4.60998591,5.17770174 L4.60998591,5.17770174 C5.39614936,4.07490895 6.92898681,3.81712615 8.03372472,4.60187524 L8.03372472,4.60187524 C9.13843242,5.3866545 9.39670011,6.91682323 8.61053665,8.01961603 L8.61053665,8.01961603 C8.13164769,8.69132313 7.37560741,9.04957094 6.60814631,9.04957094 L6.60814631,9.04957094 C6.11569135,9.04957094 5.61861367,8.90214584 5.18679784,8.5953822 L5.18679784,8.5953822 Z" id="Clip-2"></path>
                            </g>
                            <g id="Group-3" transform="translate(6.521393, 13.952511) rotate(-20.000000) translate(-6.521393, -13.952511) translate(1.521393, 8.952511)" fill="#FF6E61">
                                <path d="M4.73217732,0 L3.9034643,0.139381981 L3.07472591,0.278738648 L3.05022893,1.05060497 C2.71825176,1.1984167 2.40430496,1.39270597 2.11924229,1.6321311 L2.11924229,1.6321311 L1.41339455,1.31759766 L0.926143039,2.00111617 L0.438866171,2.68460935 L0.96783355,3.24725082 C0.834647075,3.59456662 0.753624458,3.95431186 0.722483371,4.31585445 L0.722483371,4.31585445 L9.09494702e-13,4.59183381 L0.139627709,5.41911371 L0.279255419,6.24639361 L1.05245717,6.27087279 C1.20052949,6.60226573 1.39513593,6.9156347 1.63498316,7.2001957 L1.63498316,7.2001957 L1.31989521,7.90480123 L2.0046441,8.39122055 L2.68936764,8.87761455 L3.25295031,8.34957809 C3.60087842,8.48255549 3.96128325,8.56343552 4.32343787,8.5945218 L4.32343787,8.5945218 L4.59992914,9.31573368 L5.42866752,9.1763517 L6.25738055,9.03696972 L6.28190288,8.26512871 C6.61388006,8.11731698 6.92785221,7.92302771 7.21291489,7.68360258 L7.21291489,7.68360258 L7.91873727,7.99813602 L8.40598878,7.31461752 L8.89326565,6.63109902 L8.36429827,6.06848287 C8.49748474,5.72119238 8.57850736,5.36142182 8.60964845,4.99990455 L8.60964845,4.99990455 L9.33213182,4.72387456 L9.19252947,3.89659466 L9.05290176,3.06934007 L8.2797,3.04486089 C8.13160232,2.71349327 7.93697053,2.40004836 7.69712329,2.11551267 L7.69712329,2.11551267 L8.01223661,1.41093246 L7.32751307,0.924538451 L6.6428149,0.438119133 L6.07915615,0.966155592 C5.7312534,0.833178195 5.37087392,0.752298168 5.00869395,0.7212372 L5.00869395,0.7212372 L4.73217732,0 Z M3.66126906,6.06732861 C2.88147539,5.51338808 2.69919012,4.43329026 3.2541077,3.65484829 L3.2541077,3.65484829 C3.80904661,2.87640632 4.89104951,2.69444199 5.67086451,3.24838253 L5.67086451,3.24838253 C6.45065818,3.80234435 6.63296478,4.88246346 6.07802587,5.66090543 L6.07802587,5.66090543 C5.73998661,6.13505162 5.20631112,6.38793243 4.66457387,6.38793243 L4.66457387,6.38793243 C4.3169586,6.38793243 3.96608024,6.28386765 3.66126906,6.06732861 L3.66126906,6.06732861 Z" id="Clip-2" filter="url(#filter-4)"></path>
                                <path d="M4.73217732,0 L3.9034643,0.139381981 L3.07472591,0.278738648 L3.05022893,1.05060497 C2.71825176,1.1984167 2.40430496,1.39270597 2.11924229,1.6321311 L2.11924229,1.6321311 L1.41339455,1.31759766 L0.926143039,2.00111617 L0.438866171,2.68460935 L0.96783355,3.24725082 C0.834647075,3.59456662 0.753624458,3.95431186 0.722483371,4.31585445 L0.722483371,4.31585445 L9.09494702e-13,4.59183381 L0.139627709,5.41911371 L0.279255419,6.24639361 L1.05245717,6.27087279 C1.20052949,6.60226573 1.39513593,6.9156347 1.63498316,7.2001957 L1.63498316,7.2001957 L1.31989521,7.90480123 L2.0046441,8.39122055 L2.68936764,8.87761455 L3.25295031,8.34957809 C3.60087842,8.48255549 3.96128325,8.56343552 4.32343787,8.5945218 L4.32343787,8.5945218 L4.59992914,9.31573368 L5.42866752,9.1763517 L6.25738055,9.03696972 L6.28190288,8.26512871 C6.61388006,8.11731698 6.92785221,7.92302771 7.21291489,7.68360258 L7.21291489,7.68360258 L7.91873727,7.99813602 L8.40598878,7.31461752 L8.89326565,6.63109902 L8.36429827,6.06848287 C8.49748474,5.72119238 8.57850736,5.36142182 8.60964845,4.99990455 L8.60964845,4.99990455 L9.33213182,4.72387456 L9.19252947,3.89659466 L9.05290176,3.06934007 L8.2797,3.04486089 C8.13160232,2.71349327 7.93697053,2.40004836 7.69712329,2.11551267 L7.69712329,2.11551267 L8.01223661,1.41093246 L7.32751307,0.924538451 L6.6428149,0.438119133 L6.07915615,0.966155592 C5.7312534,0.833178195 5.37087392,0.752298168 5.00869395,0.7212372 L5.00869395,0.7212372 L4.73217732,0 Z M3.66126906,6.06732861 C2.88147539,5.51338808 2.69919012,4.43329026 3.2541077,3.65484829 L3.2541077,3.65484829 C3.80904661,2.87640632 4.89104951,2.69444199 5.67086451,3.24838253 L5.67086451,3.24838253 C6.45065818,3.80234435 6.63296478,4.88246346 6.07802587,5.66090543 L6.07802587,5.66090543 C5.73998661,6.13505162 5.20631112,6.38793243 4.66457387,6.38793243 L4.66457387,6.38793243 C4.3169586,6.38793243 3.96608024,6.28386765 3.66126906,6.06732861 L3.66126906,6.06732861 Z" id="Clip-2"></path>
                            </g>
                            <g id="Group-3" transform="translate(18.792067, 4.559274) rotate(15.000000) translate(-18.792067, -4.559274) translate(15.292067, 1.059274)">
                                <path d="M3.35195894,0 L2.76495388,0.0987289033 L2.17793085,0.197439875 L2.16057883,0.744178522 C1.92542833,0.848878498 1.70304935,0.986500062 1.50112995,1.15609286 L1.50112995,1.15609286 L1.00115447,0.933298345 L0.656017986,1.41745728 L0.310863538,1.90159829 L0.685548765,2.300136 C0.591208345,2.54615135 0.533817324,2.8009709 0.511759054,3.05706357 L0.511759054,3.05706357 L0,3.25254895 L0.0989029608,3.83853888 L0.197805922,4.42452881 L0.745490497,4.44186823 C0.850375058,4.67660489 0.988221284,4.89857458 1.15811307,5.10013862 L1.15811307,5.10013862 L0.934925772,5.5992342 L1.41995624,5.94378122 L1.90496874,6.28831031 L2.30417314,5.91428448 C2.55062222,6.0084768 2.80590897,6.06576682 3.06243516,6.08778627 L3.06243516,6.08778627 L3.25828314,6.59864469 L3.84530616,6.49991579 L4.43231122,6.40118689 L4.44968121,5.85446617 C4.68483171,5.74976619 4.90722865,5.61214463 5.10914805,5.44255183 L5.10914805,5.44255183 L5.60910557,5.66534635 L5.95424205,5.18118741 L6.2993965,4.69702847 L5.92471127,4.2985087 C6.01905169,4.05251127 6.07644271,3.79767379 6.09850098,3.54159906 L6.09850098,3.54159906 L6.61026004,3.34607782 L6.51137504,2.76008789 L6.41247208,2.17411589 L5.8647875,2.15677646 C5.75988498,1.92205773 5.62202079,1.70003425 5.452129,1.49848814 L5.452129,1.49848814 L5.67533426,0.999410489 L5.19032176,0.654881403 L4.70532722,0.310334386 L4.30606894,0.684360211 C4.05963782,0.590167888 3.80436903,0.532877869 3.54782488,0.51087635 L3.54782488,0.51087635 L3.35195894,0 Z M2.59339892,4.2976911 C2.04104507,3.90531656 1.91192633,3.14024727 2.30499295,2.58885087 L2.30499295,2.58885087 C2.69807468,2.03745447 3.4644934,1.90856308 4.01686236,2.30093762 L4.01686236,2.30093762 C4.56921621,2.69332725 4.69835005,3.45841162 4.30526833,4.00980801 L4.30526833,4.00980801 C4.06582385,4.34566156 3.68780371,4.52478547 3.30407316,4.52478547 L3.30407316,4.52478547 C3.05784568,4.52478547 2.80930684,4.45107292 2.59339892,4.2976911 L2.59339892,4.2976911 Z" id="Clip-2" fill="#FF6E61" filter="url(#filter-5)"></path>
                                <mask id="mask-7" fill="white">
                                    <use xlink:href="#path-6"></use>
                                </mask>
                                <use id="Clip-2" fill="#FF6E61" xlink:href="#path-6"></use>
                            </g>
                        </g>
                    </g>
                    <g id="speech-modal-1" transform="translate(221.808171, 118.871006)">
                        <path d="M3.7104383,0 C1.67362262,0 0.0224572594,1.75324418 0.0224572594,3.91598048 L0.0224572594,23.723741 C0.0224572594,25.8864773 1.67362262,27.6397215 3.7104383,27.6397215 L29.5362866,27.6397215 L36.388246,36.8282332 L36.3458267,27.6238244 L37.9602542,27.6238244 C39.9970698,27.6238244 41.6482352,25.8705803 41.6482352,23.707844 L41.6482352,3.90803194 C41.6441069,1.74840039 39.9941501,0 37.9602542,0 L3.7104383,0 Z" id="Path" stroke="#9EB1FF" stroke-linecap="round" stroke-linejoin="round"></path>
                        <path d="M1.89115302,7.39744081 C1.89115302,5.73075837 3.16360047,4.37964529 4.73324396,4.37964529 C6.30288744,4.37964529 7.5753349,5.73075837 7.5753349,7.39744081 C7.5753349,9.06412325 6.30288744,10.4152363 4.73324396,10.4152363 C3.16360047,10.4152363 1.89115302,9.06412325 1.89115302,7.39744081 Z" id="Path" fill="#FF6E61" filter="url(#filter-8)"></path>
                        <path d="M1.89115302,7.39744081 C1.89115302,5.73075837 3.16360047,4.37964529 4.73324396,4.37964529 C6.30288744,4.37964529 7.5753349,5.73075837 7.5753349,7.39744081 C7.5753349,9.06412325 6.30288744,10.4152363 4.73324396,10.4152363 C3.16360047,10.4152363 1.89115302,9.06412325 1.89115302,7.39744081 Z" id="Path" fill="#FF6E61"></path>
                        <path d="M2.80715743,7.39744081 C2.80715743,5.73075837 4.07960488,4.37964529 5.64924837,4.37964529 C7.21889185,4.37964529 8.49133931,5.73075837 8.49133931,7.39744081 C8.49133931,9.06412325 7.21889185,10.4152363 5.64924837,10.4152363 C4.07960488,10.4152363 2.80715743,9.06412325 2.80715743,7.39744081 Z" id="Path" stroke="#9EB1FF" stroke-linecap="round" stroke-linejoin="round"></path>
                        <line x1="11.2286297" y1="7.39744081" x2="31.2081048" y2="7.39744081" id="Path" stroke="#9EB1FF" stroke-linecap="round" stroke-linejoin="round"></line>
                        <line x1="5.44713303" y1="14.9618009" x2="35.0308294" y2="14.9618009" id="Path" stroke="#9EB1FF" stroke-linecap="round" stroke-linejoin="round"></line>
                    </g>
                </g>
                <g id="Illustrations/100px/add_document" transform="translate(123.000000, 43.000000)">
                    <g id="Group-2" transform="translate(0.781646, 0.000000)">
                        <g id="Group" transform="translate(0.363087, 0.360598)" fill="#8DA4FA">
                            <polygon id="Rectangle" transform="translate(24.326827, 60.400166) rotate(90.000000) translate(-24.326827, -60.400166) " points="23.118824 39.7223629 25.5348306 39.7223629 25.5348306 81.0779693 23.118824 81.0779693"></polygon>
                            <polygon id="Rectangle-Copy" points="0 7.24801993 6.08170682 7.24801993 6.08170682 61.6081694 8.44006367e-17 61.6081694"></polygon>
                            <polygon id="Triangle" points="54.6061862 0.126790912 54.6061862 9.73780744 44.4795257 0.126790912"></polygon>
                        </g>
                        <rect id="Rectangle" stroke="#8298FF" stroke-width="2" fill-rule="nonzero" x="6.82603512" y="0" width="48.6355002" height="59.3183721" rx="1"></rect>
                    </g>
                    <line x1="7.37678006" y1="7.40116279" x2="0.78164557" y2="7.40116279" id="Line-3" stroke="#8298FF" stroke-width="2" stroke-linecap="round"></line>
                    <line x1="0.78164557" y1="7.01162791" x2="0.78164557" y2="66.2209302" id="Line" stroke="#8298FF" stroke-width="2" stroke-linecap="round"></line>
                    <line x1="49.2436709" y1="59.9883721" x2="49.2436709" y2="67" id="Line-Copy" stroke="#8298FF" stroke-width="2" stroke-linecap="round"></line>
                    <line x1="49.2436709" y1="66.6104651" x2="0.78164557" y2="66.6104651" id="Line-3-Copy" stroke="#8298FF" stroke-width="2" stroke-linecap="round"></line>
                    <line x1="46.1170886" y1="16.75" x2="17.1962025" y2="16.75" id="Line-3-Copy-2" stroke="#8298FF" stroke-width="2" stroke-linecap="round"></line>
                    <line x1="46.1170886" y1="22.9825581" x2="17.1962025" y2="22.9825581" id="Line-3-Copy-3" stroke="#8298FF" stroke-width="2" stroke-linecap="round"></line>
                    <line x1="46.1170886" y1="29.994186" x2="17.1962025" y2="29.994186" id="Line-3-Copy-4" stroke="#8298FF" stroke-width="2" stroke-linecap="round"></line>
                    <line x1="46.1170886" y1="37.005814" x2="17.1962025" y2="37.005814" id="Line-3-Copy-5" stroke="#8298FF" stroke-width="2" stroke-linecap="round"></line>
                    <line x1="46.1170886" y1="43.2383721" x2="17.1962025" y2="43.2383721" id="Line-3-Copy-6" stroke="#8298FF" stroke-width="2" stroke-linecap="round"></line>
                </g>
                <g id="Group-4" transform="translate(226.000000, 0.000000)">
                    <circle id="Oval" fill="#010314" cx="19" cy="19" r="19"></circle>
                    <g id="noun_Film_1816075" transform="translate(5.428571, 2.326531)" fill-rule="nonzero">
                        <g id="Group">
                            <path d="M15.3617274,3.54582031 C22.0453386,3.54582031 27.4828178,8.98329191 27.4828178,15.6669069 C27.4828178,22.3505219 22.0453424,27.7879936 15.3617274,27.7879936 C8.67811237,27.7879936 3.24045311,22.3505219 3.24045311,15.6669069 C3.24045311,8.98329191 8.6781162,3.54582031 15.3617274,3.54582031 Z M11.280537,19.0971628 C11.1651602,19.0971628 11.0490366,19.1061396 10.9327254,19.1248399 C10.3541603,19.2164688 9.84609201,19.5276303 9.50183059,20.001852 C9.15738151,20.4756983 9.01825689,21.055014 9.10988582,21.633579 C9.20151474,22.2121441 9.51305155,22.7204001 9.98689786,23.0648454 C10.4607442,23.4085438 11.0400599,23.5495373 11.6188126,23.4564148 C12.1973815,23.3647859 12.7056337,23.0532491 13.0498951,22.5794028 C13.7606684,21.6014136 13.5430047,20.2273665 12.5648278,19.5164094 C12.1861605,19.2415226 11.7397998,19.0971628 11.280537,19.0971628 Z M19.4427302,19.0971628 C18.9834673,19.0971628 18.5372942,19.2415264 18.158627,19.5164094 C17.684593,19.8608546 17.3732438,20.3691106 17.2816149,20.9476757 C17.189986,21.5262408 17.3291106,22.1055526 17.673372,22.5794028 C18.0176335,23.0532529 18.5258894,23.3647859 19.1044545,23.4564148 C19.6826481,23.5491658 20.262523,23.4085438 20.7363693,23.0648454 C21.2102194,22.7204001 21.5217524,22.2121441 21.6133813,21.633579 C21.7050102,21.055014 21.5658856,20.4756983 21.2214365,20.001852 C20.8771751,19.5280018 20.3691068,19.2164688 19.7905417,19.1248399 C19.6744181,19.1061396 19.5581069,19.0971628 19.4427302,19.0971628 Z M15.3187201,14.2274106 C14.5058475,14.2274106 13.8444426,14.8886279 13.8444426,15.7016881 C13.8444426,16.5147483 14.5058475,17.1759655 15.3187201,17.1759655 C16.1315926,17.1759655 16.7929975,16.5147483 16.7929975,15.7016881 C16.7929975,14.8886279 16.1315926,14.2274106 15.3187201,14.2274106 Z M9.42834286,11.4333144 C8.27775762,11.0589478 7.03834679,11.6913697 6.66510234,12.8410205 C6.48408869,13.3982696 6.53083759,13.992544 6.79674759,14.5146366 C7.0626576,15.0363539 7.51593469,15.423435 8.07299612,15.6044487 C9.22245926,15.9784437 10.4626169,15.3463972 10.8362366,14.1967426 C11.2098564,13.0467165 10.5781813,11.8069341 9.42834286,11.4333144 Z M24.0581686,12.8410205 C23.6847365,11.691745 22.4443951,11.0596985 21.2951157,11.4333144 C20.1450896,11.8069341 19.5136022,13.0467165 19.887222,14.1967426 C20.0682318,14.7536163 20.4553167,15.2068934 20.9772217,15.4728034 C21.4991266,15.7390849 22.0930257,15.7854623 22.6502748,15.6044487 C23.2073363,15.4234389 23.6606134,15.0363539 23.9265234,14.5146366 C24.1924334,13.992544 24.2391823,13.3982696 24.0581686,12.8410205 Z M15.3617274,6.52279909 C14.1526132,6.52279909 13.1688258,7.50677027 13.1688258,8.71588833 C13.1688258,9.9250064 14.1526132,10.9086061 15.3617274,10.9086061 C16.5708416,10.9086061 17.554629,9.92500257 17.554629,8.71588833 C17.554629,7.5067741 16.5708455,6.52279909 15.3617274,6.52279909 Z" id="Path-3" fill="#96A5ED"></path>
                            <path d="M15.3617274,2.7798843 C8.25568718,2.7798843 2.47451711,8.56105437 2.47451711,15.6669069 C2.47451711,22.7727595 8.25568718,28.5539296 15.3617274,28.5539296 C22.4675799,28.5539296 28.24875,22.7727595 28.24875,15.6669069 C28.24875,8.56105437 22.4675799,2.7798843 15.3617274,2.7798843 Z M15.3617274,27.7879936 C8.67811237,27.7879936 3.24045311,22.3505219 3.24045311,15.6669069 C3.24045311,8.98329191 8.6781162,3.54582031 15.3617274,3.54582031 C22.0453386,3.54582031 27.4828178,8.98329191 27.4828178,15.6669069 C27.4828178,22.3505219 22.0453424,27.7879936 15.3617274,27.7879936 Z" id="Shape" fill="#9EB1FF"></path>
                            <path d="M15.3617274,11.6745421 C16.9932668,11.6745421 18.320565,10.3472439 18.320565,8.71588833 C18.320565,7.08416125 16.9932668,5.75686309 15.3617274,5.75686309 C13.730188,5.75686309 12.4028898,7.08416125 12.4028898,8.71588833 C12.4028898,10.3472401 13.730188,11.6745421 15.3617274,11.6745421 Z M15.3617274,6.52279909 C16.5708455,6.52279909 17.554629,7.5067741 17.554629,8.71588833 C17.554629,9.92500257 16.5708416,10.9086061 15.3617274,10.9086061 C14.1526132,10.9086061 13.1688258,9.9250064 13.1688258,8.71588833 C13.1688258,7.50677027 14.1526132,6.52279909 15.3617274,6.52279909 Z" id="Shape" fill="#414D86"></path>
                            <path d="M11.564772,14.4331066 C12.0687272,12.8817875 11.2165851,11.2092934 9.66507836,10.704779 C8.11244948,10.1998893 6.4408899,11.0529659 5.93656316,12.6046603 C5.69234447,13.3563844 5.75554951,14.1578483 6.11421053,14.8620767 C6.47305538,15.5666765 7.08472038,16.0887692 7.83625679,16.3329879 C8.13900448,16.4313494 8.44605291,16.4780983 8.7484253,16.4780983 C9.99587463,16.4780983 11.1589906,15.682241 11.564772,14.4331066 Z M8.07299612,15.6044487 C7.51593469,15.423435 7.0626576,15.0363539 6.79674759,14.5146366 C6.53083759,13.992544 6.48408869,13.3982696 6.66510234,12.8410205 C7.03834679,11.6913697 8.27775762,11.0589478 9.42834286,11.4333144 C10.5781813,11.8069341 11.2098564,13.0467165 10.8362366,14.1967426 C10.4626169,15.3463972 9.22245926,15.9784437 8.07299612,15.6044487 Z" id="Shape" fill="#414D86"></path>
                            <path d="M13.0151139,18.8970773 C12.3757757,18.4325793 11.5945056,18.2433395 10.8130479,18.3682522 C10.0323408,18.4916713 9.34662514,18.9120361 8.88212708,19.551562 C8.41762902,20.1910879 8.22988662,20.9727333 8.35348954,21.753628 C8.47709247,22.5341513 8.89727347,23.2196755 9.53661557,23.6841774 C10.0476749,24.0555529 10.649804,24.2500279 11.2695075,24.2500279 C11.4252759,24.2500279 11.5819787,24.2380602 11.7386816,24.2130026 C12.5192048,24.0895835 13.2051044,23.6692186 13.6696024,23.0296927 C14.628516,21.7098739 14.3349327,19.8559948 13.0151139,18.8970773 Z M13.0498951,22.5794028 C12.7056337,23.0532491 12.1973815,23.3647859 11.6188126,23.4564148 C11.0400599,23.5495373 10.4607442,23.4085438 9.98689786,23.0648454 C9.51305155,22.7204001 9.20151474,22.2121441 9.10988582,21.633579 C9.01825689,21.055014 9.15738151,20.4756983 9.50183059,20.001852 C9.84609201,19.5276303 10.3541603,19.2164688 10.9327254,19.1248399 C11.0490366,19.1061396 11.1651602,19.0971628 11.280537,19.0971628 C11.7397998,19.0971628 12.1861605,19.2415226 12.5648278,19.5164094 C13.5430047,20.2273665 13.7606684,21.6014136 13.0498951,22.5794028 Z" id="Shape" fill="#414D86"></path>
                            <path d="M19.9104107,18.3682522 C19.1291406,18.2440863 18.3478706,18.4325793 17.7083447,18.8970773 C17.0690064,19.3615754 16.6486377,20.0471035 16.5250348,20.8276267 C16.4014319,21.6085214 16.5891743,22.3905383 17.0536724,23.0296927 C17.5181704,23.6692186 18.2040738,24.0895873 18.9845932,24.2130026 C19.141296,24.2380602 19.2979989,24.2500279 19.4537673,24.2500279 C20.073287,24.2500279 20.6755999,24.0555529 21.1866592,23.6841774 C21.8259975,23.2196793 22.2461785,22.5341513 22.3697852,21.753628 C22.4933882,20.9727333 22.3056458,20.1910879 21.8411477,19.551562 C21.3766496,18.9120361 20.6909301,18.4916713 19.9104107,18.3682522 Z M21.6133813,21.633579 C21.5217524,22.2121441 21.2102194,22.7204001 20.7363693,23.0648454 C20.262523,23.4085438 19.6826481,23.5491658 19.1044545,23.4564148 C18.5258894,23.3647859 18.0176335,23.0532529 17.673372,22.5794028 C17.3291106,22.1055526 17.189986,21.5262408 17.2816149,20.9476757 C17.3732438,20.3691106 17.684593,19.8608546 18.158627,19.5164094 C18.5372942,19.2415264 18.9834673,19.0971628 19.4427302,19.0971628 C19.5581069,19.0971628 19.6744181,19.1061396 19.7905417,19.1248399 C20.3691068,19.2164688 20.8771751,19.5280018 21.2214365,20.001852 C21.5658856,20.4756983 21.7050102,21.055014 21.6133813,21.633579 Z" id="Shape" fill="#414D86"></path>
                            <path d="M21.0583764,10.704779 C19.5068696,11.2092934 18.6545399,12.8817875 19.1586828,14.4331066 C19.4029015,15.1848306 19.9251779,15.7966833 20.6294063,16.1553405 C21.0516438,16.3703847 21.5088502,16.4792165 21.969419,16.4792165 C22.2770266,16.4792165 22.5859439,16.4309702 22.8870103,16.332984 C23.6385467,16.0887653 24.2502117,15.5666727 24.6090566,14.8620729 C24.9677138,14.1578445 25.0309188,13.3563805 24.786704,12.6046565 C24.2823772,11.0529659 22.6098832,10.2002647 21.0583764,10.704779 Z M24.0581686,12.8410205 C24.2391823,13.3982696 24.1924334,13.992544 23.9265234,14.5146366 C23.6606134,15.0363539 23.2073363,15.4234389 22.6502748,15.6044487 C22.0930257,15.7854623 21.4991266,15.7390849 20.9772217,15.4728034 C20.4553167,15.2068934 20.0682318,14.7536163 19.887222,14.1967426 C19.5136022,13.0467165 20.1450896,11.8069341 21.2951157,11.4333144 C22.4443951,11.0596985 23.6847365,11.691745 24.0581686,12.8410205 Z" id="Shape" fill="#414D86"></path>
                            <path d="M15.3617274,0.348186848 C6.91492769,0.348186848 0.0430073066,7.22029489 0.0430073066,15.6669069 C0.0430073066,22.4465435 4.47182162,28.2081516 10.5870853,30.219691 L0.425975309,30.219691 C0.21448123,30.219691 0.0430073066,30.3909811 0.0430073066,30.602659 C0.0430073066,30.8143369 0.21448123,30.985627 0.425975309,30.985627 L14.9912863,30.985627 C15.0059654,30.985627 15.0184004,30.9788944 15.0326353,30.9772821 C15.1424476,30.9796182 15.2513752,30.985627 15.3617236,30.985627 C23.8085233,30.985627 30.6804436,24.113519 30.6804436,15.6669069 C30.6804436,7.22029489 23.8085309,0.348186848 15.3617274,0.348186848 Z M15.3617274,30.219691 C7.33735288,30.219691 0.808943311,23.6912814 0.808943311,15.6669069 C0.808943311,7.64253243 7.33735288,1.11412285 15.3617274,1.11412285 C23.3861019,1.11412285 29.9145115,7.64253243 29.9145115,15.6669069 C29.9145115,23.6912814 23.3861057,30.219691 15.3617274,30.219691 Z" id="Shape" fill="#96A5ED"></path>
                            <path d="M17.5589335,15.7016881 C17.5589335,14.4663903 16.5540178,13.4614746 15.3187201,13.4614746 C14.0834223,13.4614746 13.0785066,14.4663903 13.0785066,15.7016881 C13.0785066,16.9369858 14.0834223,17.9419015 15.3187201,17.9419015 C16.5540178,17.9419015 17.5589335,16.9369858 17.5589335,15.7016881 Z M15.3187201,17.1759655 C14.5058475,17.1759655 13.8444426,16.5147483 13.8444426,15.7016881 C13.8444426,14.8886279 14.5058475,14.2274106 15.3187201,14.2274106 C16.1315926,14.2274106 16.7929975,14.8886279 16.7929975,15.7016881 C16.7929975,16.5147483 16.1315926,17.1759655 15.3187201,17.1759655 Z" id="Shape" fill="#414D86"></path>
                        </g>
                    </g>
                </g>
            </g>
        </g>
    </g>
</svg>