<?xml version="1.0" encoding="UTF-8"?>
<svg width="170px" height="170px" viewBox="0 0 170 170" version="1.1" xmlns="http://www.w3.org/2000/svg" xmlns:xlink="http://www.w3.org/1999/xlink">
    <title>Illustrations/Dark/170px/contract_details</title>
    <defs>
        <filter x="-104.2%" y="-113.6%" width="308.3%" height="327.3%" filterUnits="objectBoundingBox" id="filter-1">
            <feGaussianBlur stdDeviation="4" in="SourceGraphic"></feGaussianBlur>
        </filter>
        <filter x="-31.6%" y="-31.6%" width="163.2%" height="163.2%" filterUnits="objectBoundingBox" id="filter-2">
            <feGaussianBlur stdDeviation="4" in="SourceGraphic"></feGaussianBlur>
        </filter>
    </defs>
    <g id="Illustrations/Dark/170px/contract_details" stroke="none" stroke-width="1" fill="none" fill-rule="evenodd">
        <path d="M106,122 L57,122 L57,61 L61.6666667,61 L61.6666667,116.134615 C61.6666667,116.782154 62.1893333,117.307692 62.8333333,117.307692 L106,117.307692 L106,122 Z" id="Path" fill="#6F7CBD" fill-rule="nonzero"></path>
        <polygon id="Triangle" stroke="#FF6E61" fill="#FF6E61" stroke-linejoin="round" filter="url(#filter-1)" points="113 53 113 64 101 53"></polygon>
        <polygon id="Triangle" stroke="#FF6E61" fill="#FF6E61" stroke-linejoin="round" points="113 53 113 64 101 53"></polygon>
        <path d="M113.846154,52 L63.0769231,52 C62.44,52 61.9230769,52.5202581 61.9230769,53.1612903 L61.9230769,58.9677419 L56.1538462,58.9677419 C55.5169231,58.9677419 55,59.488 55,60.1290323 L55,122.83871 C55,123.479742 55.5169231,124 56.1538462,124 L106.923077,124 C107.56,124 108.076923,123.479742 108.076923,122.83871 L108.076923,117.032258 L113.846154,117.032258 C114.483077,117.032258 115,116.512 115,115.870968 L115,53.1612903 C115,52.5202581 114.483077,52 113.846154,52 Z M106,122 L57,122 L57,61 L61.6666667,61 L61.6666667,116.134615 C61.6666667,116.782154 62.1893333,117.307692 62.8333333,117.307692 L106,117.307692 L106,122 Z M113,115 L64,115 L64,54 L113,54 L113,115 Z M73,69 C73,68.448 73.512,68 74.1428571,68 L103.857143,68 C104.488,68 105,68.448 105,69 C105,69.552 104.488,70 103.857143,70 L74.1428571,70 C73.512,70 73,69.552 73,69 Z M73,75 C73,74.448 73.352,74 73.7857143,74 L94.2142857,74 C94.648,74 95,74.448 95,75 C95,75.552 94.648,76 94.2142857,76 L73.7857143,76 C73.352,76 73,75.552 73,75 Z" id="Shape" fill="#414D86" fill-rule="nonzero"></path>
        <g id="Group" transform="translate(79.000000, 85.000000)" fill="#414D86" fill-rule="nonzero">
            <path d="M9.40905802,2.17181494 C13.5027699,2.17181494 16.8332259,5.5022663 16.8332259,9.59598049 C16.8332259,13.6896947 13.5027722,17.020146 9.40905802,17.020146 C5.31534383,17.020146 1.98477753,13.6896947 1.98477753,9.59598049 C1.98477753,5.5022663 5.31534617,2.17181494 9.40905802,2.17181494 Z M6.90932889,11.6970122 C6.83866062,11.6970122 6.76753494,11.7025105 6.69629432,11.7139644 C6.34192321,11.7700872 6.03073136,11.9606736 5.81987123,12.2511343 C5.60889617,12.5413652 5.52368235,12.896196 5.57980506,13.2505672 C5.63592778,13.6049383 5.82674407,13.9162451 6.11697494,14.1272178 C6.4072058,14.3377331 6.76203667,14.4240916 7.11652272,14.3670541 C7.47089617,14.3109314 7.78220062,14.1201151 7.99306074,13.8298842 C8.42840938,13.2308658 8.29509037,12.389262 7.69595704,11.9538007 C7.46402333,11.7854326 7.19062741,11.6970122 6.90932889,11.6970122 Z M11.9086722,11.6970122 C11.6273737,11.6970122 11.3540927,11.7854349 11.122159,11.9538007 C10.8318132,12.1647735 10.6411119,12.4760802 10.5849891,12.8304514 C10.5288664,13.1848225 10.6140802,13.539651 10.8249404,13.8298842 C11.0358005,14.1201174 11.3471073,14.3109314 11.7014784,14.3670541 C12.055622,14.4238641 12.4107953,14.3377331 12.7010262,14.1272178 C12.9912594,13.9162451 13.1820733,13.6049383 13.238196,13.2505672 C13.2943188,12.896196 13.2091049,12.5413652 12.9981299,12.2511343 C12.7872698,11.9609011 12.4760779,11.7700872 12.1217068,11.7139644 C12.0505811,11.7025105 11.9793405,11.6970122 11.9086722,11.6970122 Z M9.38271605,8.71428901 C8.8848316,8.71428901 8.47972111,9.11928457 8.47972111,9.61728395 C8.47972111,10.1152833 8.8848316,10.5202789 9.38271605,10.5202789 C9.88060049,10.5202789 10.285711,10.1152833 10.285711,9.61728395 C10.285711,9.11928457 9.88060049,8.71428901 9.38271605,8.71428901 Z M14.7356283,7.86512506 C14.5069011,7.16119383 13.747192,6.77406531 13.0432584,7.00290506 C12.3388674,7.23174716 11.9520814,7.99111383 12.1809235,8.69550481 C12.291792,9.03659 12.5288815,9.31422222 12.8485483,9.4770921 C13.1682151,9.64018951 13.5319783,9.66859568 13.8732933,9.55772481 C14.2144935,9.4468563 14.4921257,9.20976679 14.6549956,8.89021494 C14.8178654,8.57043321 14.8464991,8.20644012 14.7356283,7.86512506 Z M5.77486,7.00290506 C5.07012654,6.77360556 4.31098741,7.16096395 4.08237519,7.86512506 C3.97150432,8.20644012 4.00013802,8.57043321 4.1630079,8.89021494 C4.32587778,9.20976679 4.60351,9.44685395 4.94471012,9.55772481 C5.6487563,9.78679679 6.40835284,9.39966827 6.63719494,8.69550481 C6.86603704,7.99111383 6.47913605,7.23174716 5.77486,7.00290506 Z M9.40905802,3.99521444 C8.66847556,3.99521444 8.0659058,4.59789679 8.0659058,5.3384816 C8.0659058,6.07906642 8.66847556,6.68152123 9.40905802,6.68152123 C10.1496405,6.68152123 10.7522102,6.07906407 10.7522102,5.3384816 C10.7522102,4.59789914 10.1496428,3.99521444 9.40905802,3.99521444 Z" id="Path-3"></path>
            <path d="M9.40905802,1.70267914 C5.0566084,1.70267914 1.51564173,5.2436458 1.51564173,9.59598049 C1.51564173,13.9483152 5.0566084,17.4892819 9.40905802,17.4892819 C13.7613927,17.4892819 17.3023594,13.9483152 17.3023594,9.59598049 C17.3023594,5.2436458 13.7613927,1.70267914 9.40905802,1.70267914 Z M9.40905802,17.020146 C5.31534383,17.020146 1.98477753,13.6896947 1.98477753,9.59598049 C1.98477753,5.5022663 5.31534617,2.17181494 9.40905802,2.17181494 C13.5027699,2.17181494 16.8332259,5.5022663 16.8332259,9.59598049 C16.8332259,13.6896947 13.5027722,17.020146 9.40905802,17.020146 Z" id="Shape"></path>
            <path d="M9.40905802,7.15065704 C10.4083759,7.15065704 11.221346,6.33768691 11.221346,5.3384816 C11.221346,4.33904877 10.4083759,3.52607864 9.40905802,3.52607864 C8.40974012,3.52607864 7.59677,4.33904877 7.59677,5.3384816 C7.59677,6.33768457 8.40974012,7.15065704 9.40905802,7.15065704 Z M9.40905802,3.99521444 C10.1496428,3.99521444 10.7522102,4.59789914 10.7522102,5.3384816 C10.7522102,6.07906407 10.1496405,6.68152123 9.40905802,6.68152123 C8.66847556,6.68152123 8.0659058,6.07906642 8.0659058,5.3384816 C8.0659058,4.59789679 8.66847556,3.99521444 9.40905802,3.99521444 Z" id="Shape"></path>
            <path d="M7.08342284,8.84027778 C7.39209543,7.89009481 6.8701584,6.86569222 5.91986049,6.55667716 C4.96887531,6.24743222 3.94504506,6.7699416 3.63614494,7.72035444 C3.48656099,8.18078543 3.52527407,8.6716821 3.74495395,9.10302198 C3.96474642,9.53458938 4.33939123,9.85437111 4.79970728,10.0039551 C4.98514025,10.0642015 5.17320741,10.0928352 5.35841049,10.0928352 C6.12247321,10.0928352 6.83488173,9.60537259 7.08342284,8.84027778 Z M4.94471012,9.55772481 C4.60351,9.44685395 4.32587778,9.20976679 4.1630079,8.89021494 C4.00013802,8.57043321 3.97150432,8.20644012 4.08237519,7.86512506 C4.31098741,7.16096395 5.07012654,6.77360556 5.77486,7.00290506 C6.47913605,7.23174716 6.86603704,7.99111383 6.63719494,8.69550481 C6.40835284,9.39966827 5.6487563,9.78679679 4.94471012,9.55772481 Z" id="Shape"></path>
            <path d="M7.97175728,11.5744599 C7.58016259,11.2899548 7.10163469,11.1740454 6.62299185,11.2505544 C6.14480877,11.3261486 5.7248079,11.5836221 5.44030284,11.9753317 C5.15579778,12.3670414 5.04080556,12.8457991 5.11651235,13.3240972 C5.19221914,13.8021677 5.44958,14.2220512 5.84117704,14.5065586 C6.15420086,14.7340262 6.52300494,14.8531421 6.90257333,14.8531421 C6.99798148,14.8531421 7.09396198,14.8458119 7.18994247,14.8304641 C7.66801296,14.7548699 8.08812642,14.4973964 8.37263148,14.1056868 C8.95996605,13.2972978 8.7801463,12.1617968 7.97175728,11.5744599 Z M7.99306074,13.8298842 C7.78220062,14.1201151 7.47089617,14.3109314 7.11652272,14.3670541 C6.76203667,14.4240916 6.4072058,14.3377331 6.11697494,14.1272178 C5.82674407,13.9162451 5.63592778,13.6049383 5.57980506,13.2505672 C5.52368235,12.896196 5.60889617,12.5413652 5.81987123,12.2511343 C6.03073136,11.9606736 6.34192321,11.7700872 6.69629432,11.7139644 C6.76753494,11.7025105 6.83866062,11.6970122 6.90932889,11.6970122 C7.19062741,11.6970122 7.46402333,11.7854326 7.69595704,11.9538007 C8.29509037,12.389262 8.42840938,13.2308658 7.99306074,13.8298842 Z" id="Shape"></path>
            <path d="M12.1951265,11.2505544 C11.7165986,11.1745028 11.2380707,11.2899548 10.8463611,11.5744599 C10.4547664,11.8589649 10.1972906,12.2788509 10.1215838,12.7569214 C10.045877,13.2352194 10.1608693,13.7142047 10.4453743,14.1056868 C10.7298794,14.4973964 11.1499952,14.7548722 11.6280633,14.8304641 C11.7240438,14.8458119 11.8200243,14.8531421 11.9154325,14.8531421 C12.2948883,14.8531421 12.6638049,14.7340262 12.9768288,14.5065586 C13.3684235,14.2220536 13.6257843,13.8021677 13.7014935,13.3240972 C13.7772002,12.8457991 13.662208,12.3670414 13.377703,11.9753317 C13.0931979,11.5836221 12.6731947,11.3261486 12.1951265,11.2505544 Z M13.238196,13.2505672 C13.1820733,13.6049383 12.9912594,13.9162451 12.7010262,14.1272178 C12.4107953,14.3377331 12.055622,14.4238641 11.7014784,14.3670541 C11.3471073,14.3109314 11.0358005,14.1201174 10.8249404,13.8298842 C10.6140802,13.539651 10.5288664,13.1848225 10.5849891,12.8304514 C10.6411119,12.4760802 10.8318132,12.1647735 11.122159,11.9538007 C11.3540927,11.7854349 11.6273737,11.6970122 11.9086722,11.6970122 C11.9793405,11.6970122 12.0505811,11.7025105 12.1217068,11.7139644 C12.4760779,11.7700872 12.7872698,11.9609011 12.9981299,12.2511343 C13.2091049,12.5413652 13.2943188,12.896196 13.238196,13.2505672 Z" id="Shape"></path>
            <path d="M12.8982556,6.55667716 C11.9479577,6.86569222 11.4259057,7.89009481 11.7346932,8.84027778 C11.8842772,9.30070877 12.2041715,9.67546852 12.6355114,9.89514605 C12.8941319,10.0268606 13.1741707,10.0935201 13.4562691,10.0935201 C13.6446788,10.0935201 13.8338906,10.0639693 14.0182938,10.0039527 C14.4786099,9.85436877 14.8532547,9.53458704 15.0730472,9.10301963 C15.2927247,8.67167975 15.3314378,8.18078309 15.1818562,7.7203521 C14.872956,6.7699416 13.8485535,6.2476621 12.8982556,6.55667716 Z M14.7356283,7.86512506 C14.8464991,8.20644012 14.8178654,8.57043321 14.6549956,8.89021494 C14.4921257,9.20976679 14.2144935,9.4468563 13.8732933,9.55772481 C13.5319783,9.66859568 13.1682151,9.64018951 12.8485483,9.4770921 C12.5288815,9.31422222 12.291792,9.03659 12.1809235,8.69550481 C11.9520814,7.99111383 12.3388674,7.23174716 13.0432584,7.00290506 C13.747192,6.77406531 14.5069011,7.16119383 14.7356283,7.86512506 Z" id="Shape"></path>
            <path d="M9.40905802,0.213264444 C4.23539321,0.213264444 0.0263419753,4.42243062 0.0263419753,9.59598049 C0.0263419753,13.7485079 2.73899074,17.2774928 6.48458975,18.5095607 L0.260909877,18.5095607 C0.131369753,18.5095607 0.0263419753,18.6144759 0.0263419753,18.7441286 C0.0263419753,18.8737814 0.131369753,18.9786965 0.260909877,18.9786965 L9.18216284,18.9786965 C9.19115383,18.9786965 9.19877025,18.9745728 9.20748914,18.9735853 C9.27474914,18.9750162 9.34146728,18.9786965 9.40905568,18.9786965 C14.5827205,18.9786965 18.7917717,14.7695304 18.7917717,9.59598049 C18.7917717,4.42243062 14.5827252,0.213264444 9.40905802,0.213264444 Z M9.40905802,18.5095607 C4.49412864,18.5095607 0.495477778,14.5109099 0.495477778,9.59598049 C0.495477778,4.68105111 4.49412864,0.682400247 9.40905802,0.682400247 C14.3239874,0.682400247 18.3226383,4.68105111 18.3226383,9.59598049 C18.3226383,14.5109099 14.3239898,18.5095607 9.40905802,18.5095607 Z" id="Shape" stroke="#414D86"></path>
            <path d="M10.7548468,9.61728395 C10.7548468,8.86066407 10.1393359,8.24515321 9.38271605,8.24515321 C8.62609617,8.24515321 8.01058531,8.86066407 8.01058531,9.61728395 C8.01058531,10.3739038 8.62609617,10.9894147 9.38271605,10.9894147 C10.1393359,10.9894147 10.7548468,10.3739038 10.7548468,9.61728395 Z M9.38271605,10.5202789 C8.8848316,10.5202789 8.47972111,10.1152833 8.47972111,9.61728395 C8.47972111,9.11928457 8.8848316,8.71428901 9.38271605,8.71428901 C9.88060049,8.71428901 10.285711,9.11928457 10.285711,9.61728395 C10.285711,10.1152833 9.88060049,10.5202789 9.38271605,10.5202789 Z" id="Shape"></path>
        </g>
        <circle id="Oval" stroke="#414D86" stroke-width="2" cx="85" cy="85" r="84"></circle>
        <g id="undraw_cancel_u1it" transform="translate(7.000000, 5.000000)">
            <circle id="Oval" fill="#FF6E61" filter="url(#filter-2)" cx="24.5814755" cy="22.131728" r="19"></circle>
            <circle id="Oval" fill="#FF6E61" cx="24.5814755" cy="22.131728" r="19"></circle>
            <circle id="Oval" stroke="#414D86" stroke-width="2" cx="19.631728" cy="19.2530483" r="19"></circle>
            <text id="1" font-family="Montserrat-SemiBold, Montserrat" font-size="20" font-weight="500" fill="#121424">
                <tspan x="16" y="26">1</tspan>
            </text>
        </g>
    </g>
</svg>