<?xml version="1.0" encoding="UTF-8"?>
<svg width="170px" height="170px" viewBox="0 0 170 170" version="1.1" xmlns="http://www.w3.org/2000/svg" xmlns:xlink="http://www.w3.org/1999/xlink">
    <title>Illustrations/Dark/170px/deal_management</title>
    <defs>
        <filter x="-15.2%" y="-12.4%" width="130.5%" height="124.7%" filterUnits="objectBoundingBox" id="filter-1">
            <feGaussianBlur stdDeviation="4" in="SourceGraphic"></feGaussianBlur>
        </filter>
        <filter x="-67.7%" y="-70.9%" width="235.5%" height="241.8%" filterUnits="objectBoundingBox" id="filter-2">
            <feGaussianBlur stdDeviation="4" in="SourceGraphic"></feGaussianBlur>
        </filter>
    </defs>
    <g id="Illustrations/Dark/170px/deal_management" stroke="none" stroke-width="1" fill="none" fill-rule="evenodd">
        <g id="Group-3" transform="translate(35.000000, 26.000000)">
            <g id="Group-2" transform="translate(1.492537, 0.000000)">
                <g id="Group" transform="translate(0.635122, 0.635122)" fill="#8DA4FA">
                    <path d="M-2.23820962e-12,108.510638 L-2.23820962e-12,11.5106383 L10.6382979,11.5106383 L10.638,104.254638 L78.7234043,104.255319 L78.7234043,108.510638 L-2.23820962e-12,108.510638 Z" id="Combined-Shape" filter="url(#filter-1)"></path>
                    <path d="M-4.47641924e-13,108.510638 L-4.47641924e-13,11.5106383 L10.6382979,11.5106383 L10.638,104.254638 L78.7234043,104.255319 L78.7234043,108.510638 L-4.47641924e-13,108.510638 Z" id="Combined-Shape"></path>
                    <polygon id="Triangle" filter="url(#filter-2)" points="95.5187239 0.223317182 95.5187239 17.151227 77.8048758 0.223317182"></polygon>
                    <polygon id="Triangle" points="95.5187239 0.223317182 95.5187239 17.151227 77.8048758 0.223317182"></polygon>
                </g>
                <rect id="Rectangle" stroke="#414D86" stroke-width="2" fill-rule="nonzero" x="11.9402985" y="0" width="85.0746269" height="104.477612" rx="1"></rect>
            </g>
            <line x1="12.6865672" y1="11.9402985" x2="1.49253731" y2="11.9402985" id="Line-3" stroke="#414D86" stroke-width="2" stroke-linecap="round"></line>
            <line x1="1.49253731" y1="11.9402985" x2="1.49253731" y2="116.41791" id="Line" stroke="#414D86" stroke-width="2" stroke-linecap="round"></line>
            <line x1="86.5671642" y1="104.477612" x2="86.5671642" y2="116.41791" id="Line-Copy" stroke="#414D86" stroke-width="2" stroke-linecap="round"></line>
            <line x1="86.5671642" y1="116.41791" x2="1.49253731" y2="116.41791" id="Line-3-Copy" stroke="#414D86" stroke-width="2" stroke-linecap="round"></line>
            <line x1="80.5970149" y1="28.358209" x2="29.8507463" y2="28.358209" id="Line-3-Copy-2" stroke="#414D86" stroke-width="2" stroke-linecap="round"></line>
            <line x1="64" y1="40" x2="29.8507463" y2="40" id="Line-3-Copy-3" stroke="#414D86" stroke-width="2" stroke-linecap="round"></line>
            <g id="Group" transform="translate(41.000000, 58.000000)" fill="#414D86" fill-rule="nonzero">
                <path d="M10.2473504,9.9836626 C10.3748561,9.9836626 10.483052,10.0746943 10.5051203,10.200361 L10.5051203,10.200361 L10.9375976,12.6680252 C11.4693821,12.8139211 11.9797114,13.026635 12.4587772,13.3006496 L12.4587772,13.3006496 L14.4896732,11.8392382 C14.593578,11.7638382 14.7367154,11.7748724 14.8277472,11.8671301 L14.8277472,11.8671301 L16.400113,13.4376569 C16.4902252,13.5277691 16.5024854,13.668761 16.4292309,13.7732789 L16.4292309,13.7732789 L14.9840642,15.8348252 C15.2528683,16.3105195 15.4628236,16.8177837 15.609026,17.3452772 L15.609026,17.3452772 L18.0880309,17.7504756 C18.2143106,17.7719309 18.3071813,17.8813528 18.3077943,18.0088585 L18.3077943,18.0088585 L18.3077943,20.2319325 C18.3077943,20.3588252 18.2161496,20.4682472 18.0907894,20.4897024 L18.0907894,20.4897024 L15.6105585,20.9243252 C15.4658886,21.4521252 15.2568528,21.9603089 14.9868228,22.4378423 L14.9868228,22.4378423 L16.4528317,24.4742553 C16.5276187,24.5781602 16.5165846,24.7212976 16.4255528,24.8126358 L16.4255528,24.8126358 L14.854413,26.3853081 C14.7636878,26.4754203 14.6226959,26.4876805 14.5187911,26.415039 L14.5187911,26.415039 L12.4627618,24.9710984 C11.984922,25.245113 11.4752057,25.4590528 10.9431146,25.6070943 L10.9431146,25.6070943 L10.5054268,28.0769041 C10.4833585,28.2016512 10.3745496,28.2926829 10.2476569,28.2926829 L10.2476569,28.2926829 L8.02396992,28.2926829 C7.89615772,28.2926829 7.78673577,28.1995057 7.7658935,28.0741455 L7.7658935,28.0741455 L7.35671057,25.6156764 C6.82431301,25.469474 6.31183821,25.2579862 5.83062683,24.9858106 L5.83062683,24.9858106 L3.78961626,26.4153455 C3.68417886,26.487987 3.5441065,26.4757268 3.45430081,26.3856146 L3.45430081,26.3856146 L1.88193496,24.8129423 C1.79120976,24.7216041 1.7795626,24.5793862 1.85434959,24.4751748 L1.85434959,24.4751748 L3.29767724,22.456539 C3.02213008,21.9719561 2.80819024,21.4573358 2.66106829,20.9224862 L2.66106829,20.9224862 L0.21639187,20.4900089 C0.0910317073,20.4676341 -2.86470035e-13,20.3591317 -2.86470035e-13,20.232239 L-2.86470035e-13,20.232239 L-2.86470035e-13,18.009165 C-2.86470035e-13,17.8813528 0.0925642276,17.7719309 0.218537398,17.7504756 L0.218537398,17.7504756 L2.66413333,17.3443577 C2.81186829,16.8095081 3.02580813,16.2951943 3.30135528,15.8115309 L3.30135528,15.8115309 L1.87580488,13.7735854 C1.80316341,13.6690675 1.81542358,13.5280756 1.90553577,13.4379634 L1.90553577,13.4379634 L3.47759512,11.8674366 C3.56770732,11.7751789 3.71023171,11.7641447 3.8150561,11.8395447 L3.8150561,11.8395447 L5.84043496,13.2856309 C6.32011382,13.0146813 6.8313626,12.805339 7.36467967,12.6597496 L7.36467967,12.6597496 L7.76558699,10.203426 C7.78581626,10.0765333 7.89523821,9.9836626 8.02366341,9.9836626 L8.02366341,9.9836626 Z M9.1537439,16.3004049 C7.58873415,16.3004049 6.31490325,17.5736228 6.31490325,19.138326 C6.31490325,20.7039488 7.58873415,21.9771667 9.1537439,21.9771667 C10.7190602,21.9771667 11.9919715,20.7036423 11.9919715,19.138326 C11.9919715,17.5733163 10.7187537,16.3004049 9.1537439,16.3004049 Z" id="Shape"></path>
                <path d="M20.2477764,0.0199227642 C20.366087,-0.0291178862 20.5012553,0.0156317073 20.5689927,0.124134146 L20.5689927,0.124134146 L21.5488862,1.70814715 C21.9473415,1.66523659 22.3485553,1.66830163 22.7467041,1.71642276 L22.7467041,1.71642276 L23.7333407,0.134861789 C23.801078,0.0272788618 23.9350203,-0.0208422764 24.0567024,0.0324894309 L24.0567024,0.0324894309 L25.6256967,0.689327642 C25.7427813,0.738674797 25.8077602,0.864341463 25.7795618,0.989088618 L25.7795618,0.989088618 L25.3645553,2.81861138 C25.6814805,3.07300976 25.9637707,3.35805854 26.207135,3.67007967 L26.207135,3.67007967 L28.0323667,3.24679756 C28.1583398,3.21308211 28.285539,3.28357805 28.3339667,3.40219512 L28.3339667,3.40219512 L28.9791577,4.9760935 C29.0272789,5.09379106 28.9840618,5.22865285 28.8764789,5.29730976 L28.8764789,5.29730976 L27.2814317,6.30141707 C27.3249553,6.69711382 27.3234228,7.09618211 27.2771407,7.49065285 L27.2771407,7.49065285 L28.8721878,8.48832358 C28.9813033,8.55606098 29.0242138,8.69306829 28.9748667,8.81168537 L28.9748667,8.81168537 L28.3192545,10.3791472 C28.2699073,10.4959252 28.1427081,10.5581455 28.0201065,10.5336252 L28.0201065,10.5336252 L26.1798561,10.1176992 C25.9318943,10.4281878 25.6496041,10.7095585 25.3369699,10.9559878 L25.3369699,10.9559878 L25.761478,12.7855106 C25.7902894,12.9102577 25.7250041,13.0380699 25.6060805,13.0871106 L25.6060805,13.0871106 L24.0337146,13.7332211 C24.0012252,13.7464008 23.9672033,13.7525309 23.9341008,13.7525309 C23.8467472,13.7525309 23.7618455,13.7087008 23.7128049,13.6299293 L23.7128049,13.6299293 L22.7096171,12.0379472 C22.3139203,12.0848423 21.909948,12.0857618 21.5124122,12.0388667 L21.5124122,12.0388667 L20.4948187,13.6188951 C20.4264683,13.7249455 20.290687,13.7690821 20.1742154,13.7178959 L20.1742154,13.7178959 L18.6061407,13.0635098 C18.4878301,13.0144691 18.4222382,12.8866569 18.4522756,12.7619098 L18.4522756,12.7619098 L18.8798488,10.9446472 C18.5650691,10.6942333 18.2815528,10.4097976 18.032978,10.0950179 L18.032978,10.0950179 L16.2086659,10.4928602 C16.0836122,10.5173805 15.958252,10.4539341 15.9104374,10.3362366 L15.9104374,10.3362366 L15.2661659,8.76019268 C15.2177382,8.64157561 15.2621813,8.50579431 15.3709902,8.43805691 L15.3709902,8.43805691 L16.9513252,7.46245447 C16.9053496,7.05817561 16.9065756,6.65328374 16.9543902,6.25666748 L16.9543902,6.25666748 L15.3899935,5.24612358 C15.2836366,5.17746667 15.2416455,5.04260488 15.2906862,4.92490732 L15.2906862,4.92490732 L15.9462984,3.35744553 C15.995339,3.23974797 16.1216187,3.17139756 16.2478984,3.2041935 L16.2478984,3.2041935 L18.0550463,3.63176667 C18.3094447,3.31361545 18.5969455,3.02856667 18.9123382,2.7821374 L18.9123382,2.7821374 L18.5172545,0.959970732 C18.4902821,0.835836585 18.5561805,0.710169919 18.6741846,0.66204878 L18.6741846,0.66204878 Z M22.1284854,4.77165528 C21.275178,4.77165528 20.5113699,5.27922602 20.1821846,6.06540894 C19.7337691,7.13909268 20.2413398,8.37736911 21.3141041,8.82639756 C21.574326,8.9345935 21.8480341,8.99007073 22.1269528,8.99007073 C22.9808732,8.99007073 23.7440683,8.48158049 24.0732537,7.69539756 C24.5222821,6.62355285 24.0144049,5.38527642 22.9419472,4.93532846 C22.6817252,4.82682602 22.4080171,4.77165528 22.1284854,4.77165528 Z" id="Shape"></path>
            </g>
        </g>
    </g>
</svg>