<?xml version="1.0" encoding="UTF-8"?>
<svg width="48px" height="48px" viewBox="0 0 48 48" version="1.1" xmlns="http://www.w3.org/2000/svg" xmlns:xlink="http://www.w3.org/1999/xlink">
    <title>Illustrations/Dark/48px/docx</title>
    <defs>
        <filter color-interpolation-filters="auto" id="filter-1">
            <feColorMatrix in="SourceGraphic" type="matrix" values="0 0 0 0 0.552941 0 0 0 0 0.643137 0 0 0 0 0.980392 0 0 0 1.000000 0"></feColorMatrix>
        </filter>
        <filter x="-109.1%" y="-85.7%" width="318.2%" height="271.4%" filterUnits="objectBoundingBox" id="filter-2">
            <feGaussianBlur stdDeviation="4" in="SourceGraphic"></feGaussianBlur>
        </filter>
        <filter x="-54.5%" y="-42.9%" width="209.1%" height="185.7%" filterUnits="objectBoundingBox" id="filter-3">
            <feGaussianBlur stdDeviation="4" in="SourceGraphic"></feGaussianBlur>
        </filter>
    </defs>
    <g id="Illustrations/Dark/48px/docx" stroke="none" stroke-width="1" fill="none" fill-rule="evenodd">
        <path d="M37.6202849,39.430808 C37.6202849,41.4736826 35.8402723,41.5995563 35.4810612,41.6039104 L12.5169823,41.6039104 C10.5049303,41.6039104 10.3836281,39.7910126 10.3797151,39.430808 L10.3797151,8.56919199 C10.3797151,6.52433829 12.162858,6.40044375 12.5169823,6.39608962 L28.0299734,6.39608962 L28.0381906,6.40440204 L28.0381906,12.5282757 C28.0381906,13.7573254 28.7726561,16.0840095 31.5543904,16.0840095 L37.5686336,16.0840095 L37.6202849,16.136259 L37.6202849,39.430808 L37.6202849,39.430808 Z M36.1943966,14.6879199 L31.5547817,14.6879199 C29.543121,14.6879199 29.4214275,12.8849179 29.4186884,12.5282757 L29.4186884,7.80563744 L36.1943966,14.6879199 Z M39,39.430808 L39,15.5599317 L29.4186884,5.82728305 L29.4186884,5.78215852 L29.3729066,5.78215852 L28.6036156,5 L12.5169823,5 C11.3004383,5 9,5.74613806 9,8.56919199 L9,39.4312038 C9,40.6653993 9.73524808,43 12.5169823,43 L35.483409,43 C36.6995617,42.9996042 39,42.2538619 39,39.430808" id="Shape" fill="#404B8A" fill-rule="nonzero"></path>
        <g filter="url(#filter-1)" id="Group-16">
            <g filter="url(#filter-2)" transform="translate(13.000000, 10.000000)">
                <path d="M9.85202066,27 C10.2221283,27 10.5217391,27.2239703 10.5217391,27.5 C10.5217391,27.7760297 10.2221283,28 9.85202066,28 L4.49542232,28 C4.1256979,28 3.82608696,27.7760297 3.82608696,27.5 C3.82608696,27.2239703 4.1256979,27 4.49542232,27 L9.85202066,27 Z M21.3008494,22 C21.6872221,22 22,22.2239703 22,22.5 C22,22.7760297 21.6872221,23 21.3008494,23 L4.5248375,23 C4.13886486,23 3.82608696,22.7760297 3.82608696,22.5 C3.82608696,22.2239703 4.13886486,22 4.5248375,22 L21.3008494,22 Z M21.3008494,18 C21.6872221,18 22,18.2237482 22,18.500143 C22,18.7762518 21.6872221,19 21.3008494,19 L4.5248375,19 C4.13886486,19 3.82608696,18.7762518 3.82608696,18.500143 C3.82608696,18.2237482 4.13886486,18 4.5248375,18 L21.3008494,18 Z M21.3008494,14 C21.6872221,14 22,14.2237482 22,14.500143 C22,14.7762518 21.6872221,15 21.3008494,15 L4.5248375,15 C4.13886486,15 3.82608696,14.7762518 3.82608696,14.500143 C3.82608696,14.2237482 4.13886486,14 4.5248375,14 L21.3008494,14 Z M21.3008494,10 C21.6872221,10 22,10.2240343 22,10.5001431 C22,10.7762518 21.6872221,11 21.3008494,11 L4.5248375,11 C4.13886486,11 3.82608696,10.7762518 3.82608696,10.5001431 C3.82608696,10.2240343 4.13886486,10 4.5248375,10 L21.3008494,10 Z M7.9612254,0 C8.14146931,0 8.29395319,0.0593285823 8.41985024,0.177598003 C8.54574718,0.296255168 8.60869565,0.444770594 8.60869565,0.623532027 C8.60869565,0.749556822 8.57467998,0.951584276 8.50625778,1.22845116 L7.3700569,5.78550861 C7.29264203,6.09339689 7.22852058,6.31907831 7.17691063,6.46177718 C7.12569164,6.60525154 7.03889305,6.73050085 6.91651494,6.83830049 C6.79374587,6.94610023 6.62093069,7 6.39728758,7 C6.18615598,7 6.01685973,6.9476513 5.88978981,6.84295371 C5.76232883,6.73825622 5.67396639,6.62037454 5.62431134,6.48969652 C5.57426533,6.35901841 5.50467015,6.13527591 5.41474367,5.81808108 L4.3113855,1.75930645 L3.19395198,5.81808108 C3.10715338,6.12596946 3.03794916,6.34660981 2.98673027,6.48039008 C2.93551128,6.61455799 2.84636682,6.73437848 2.7192968,6.84062715 C2.59183592,6.94687572 2.42253968,7 2.21179903,7 C2.04093885,7 1.90018445,6.96820302 1.79031774,6.90538454 C1.68006017,6.84217822 1.59052476,6.75299138 1.52249341,6.63743636 C1.45446217,6.52226899 1.39816041,6.38538668 1.35476111,6.22640157 C1.31136181,6.06780421 1.27304538,5.92083986 1.23824779,5.78550861 L0.102437877,1.22806332 C0.0344066319,0.96360513 3.51718654e-13,0.761577576 3.51718654e-13,0.623144184 C3.51718654e-13,0.447872744 0.0621665532,0.300132904 0.186499559,0.179924665 C0.310832566,0.0597163261 0.464098472,0 0.647079296,0 C0.898873184,0 1.06777847,0.080268041 1.15457707,0.240028735 C1.24137567,0.399789428 1.31800852,0.632450633 1.38291199,0.93723686 L2.2767025,4.88976293 L3.2776227,1.19122537 C3.35230066,0.907766441 3.41915902,0.692554802 3.47780674,0.544814962 C3.53684532,0.397075122 3.63302754,0.269499154 3.76674418,0.161311768 C3.89967889,0.0538997712 4.08148674,0 4.3113855,0 C4.54402127,0 4.7250471,0.0562264329 4.85368096,0.168291555 C4.98270588,0.280744421 5.07145927,0.403279421 5.12111432,0.535508514 C5.17116033,0.66812535 5.23762774,0.886439139 5.32129837,1.19122537 L6.33160219,4.88976293 L7.22578366,0.93723686 C7.26918296,0.731331669 7.31023631,0.569244314 7.34894379,0.452525968 C7.38804224,0.335419878 7.4549005,0.230722286 7.54912783,0.138433392 C7.64413708,0.0461443977 7.78137255,0 7.9612254,0 Z" id="Combined-Shape" fill="#8DA4FA" fill-rule="nonzero" filter="url(#filter-3)"></path>
                <path d="M9.85202066,27 C10.2221283,27 10.5217391,27.2239703 10.5217391,27.5 C10.5217391,27.7760297 10.2221283,28 9.85202066,28 L4.49542232,28 C4.1256979,28 3.82608696,27.7760297 3.82608696,27.5 C3.82608696,27.2239703 4.1256979,27 4.49542232,27 L9.85202066,27 Z M21.3008494,22 C21.6872221,22 22,22.2239703 22,22.5 C22,22.7760297 21.6872221,23 21.3008494,23 L4.5248375,23 C4.13886486,23 3.82608696,22.7760297 3.82608696,22.5 C3.82608696,22.2239703 4.13886486,22 4.5248375,22 L21.3008494,22 Z M21.3008494,18 C21.6872221,18 22,18.2237482 22,18.500143 C22,18.7762518 21.6872221,19 21.3008494,19 L4.5248375,19 C4.13886486,19 3.82608696,18.7762518 3.82608696,18.500143 C3.82608696,18.2237482 4.13886486,18 4.5248375,18 L21.3008494,18 Z M21.3008494,14 C21.6872221,14 22,14.2237482 22,14.500143 C22,14.7762518 21.6872221,15 21.3008494,15 L4.5248375,15 C4.13886486,15 3.82608696,14.7762518 3.82608696,14.500143 C3.82608696,14.2237482 4.13886486,14 4.5248375,14 L21.3008494,14 Z M21.3008494,10 C21.6872221,10 22,10.2240343 22,10.5001431 C22,10.7762518 21.6872221,11 21.3008494,11 L4.5248375,11 C4.13886486,11 3.82608696,10.7762518 3.82608696,10.5001431 C3.82608696,10.2240343 4.13886486,10 4.5248375,10 L21.3008494,10 Z M7.9612254,0 C8.14146931,0 8.29395319,0.0593285823 8.41985024,0.177598003 C8.54574718,0.296255168 8.60869565,0.444770594 8.60869565,0.623532027 C8.60869565,0.749556822 8.57467998,0.951584276 8.50625778,1.22845116 L7.3700569,5.78550861 C7.29264203,6.09339689 7.22852058,6.31907831 7.17691063,6.46177718 C7.12569164,6.60525154 7.03889305,6.73050085 6.91651494,6.83830049 C6.79374587,6.94610023 6.62093069,7 6.39728758,7 C6.18615598,7 6.01685973,6.9476513 5.88978981,6.84295371 C5.76232883,6.73825622 5.67396639,6.62037454 5.62431134,6.48969652 C5.57426533,6.35901841 5.50467015,6.13527591 5.41474367,5.81808108 L4.3113855,1.75930645 L3.19395198,5.81808108 C3.10715338,6.12596946 3.03794916,6.34660981 2.98673027,6.48039008 C2.93551128,6.61455799 2.84636682,6.73437848 2.7192968,6.84062715 C2.59183592,6.94687572 2.42253968,7 2.21179903,7 C2.04093885,7 1.90018445,6.96820302 1.79031774,6.90538454 C1.68006017,6.84217822 1.59052476,6.75299138 1.52249341,6.63743636 C1.45446217,6.52226899 1.39816041,6.38538668 1.35476111,6.22640157 C1.31136181,6.06780421 1.27304538,5.92083986 1.23824779,5.78550861 L0.102437877,1.22806332 C0.0344066319,0.96360513 3.51718654e-13,0.761577576 3.51718654e-13,0.623144184 C3.51718654e-13,0.447872744 0.0621665532,0.300132904 0.186499559,0.179924665 C0.310832566,0.0597163261 0.464098472,0 0.647079296,0 C0.898873184,0 1.06777847,0.080268041 1.15457707,0.240028735 C1.24137567,0.399789428 1.31800852,0.632450633 1.38291199,0.93723686 L2.2767025,4.88976293 L3.2776227,1.19122537 C3.35230066,0.907766441 3.41915902,0.692554802 3.47780674,0.544814962 C3.53684532,0.397075122 3.63302754,0.269499154 3.76674418,0.161311768 C3.89967889,0.0538997712 4.08148674,0 4.3113855,0 C4.54402127,0 4.7250471,0.0562264329 4.85368096,0.168291555 C4.98270588,0.280744421 5.07145927,0.403279421 5.12111432,0.535508514 C5.17116033,0.66812535 5.23762774,0.886439139 5.32129837,1.19122537 L6.33160219,4.88976293 L7.22578366,0.93723686 C7.26918296,0.731331669 7.31023631,0.569244314 7.34894379,0.452525968 C7.38804224,0.335419878 7.4549005,0.230722286 7.54912783,0.138433392 C7.64413708,0.0461443977 7.78137255,0 7.9612254,0 Z" id="Combined-Shape-Copy" fill="#8DA4FA" fill-rule="nonzero"></path>
            </g>
        </g>
    </g>
</svg>