<?xml version="1.0" encoding="UTF-8"?>
<svg width="170px" height="170px" viewBox="0 0 170 170" version="1.1" xmlns="http://www.w3.org/2000/svg" xmlns:xlink="http://www.w3.org/1999/xlink">
    <title>Illustrations/Dark/170px/efficient_content_browsing</title>
    <defs>
        <filter x="-392.7%" y="-11.6%" width="885.5%" height="123.1%" filterUnits="objectBoundingBox" id="filter-1">
            <feGaussianBlur stdDeviation="4" in="SourceGraphic"></feGaussianBlur>
        </filter>
        <filter x="-44.4%" y="-44.4%" width="188.9%" height="188.9%" filterUnits="objectBoundingBox" id="filter-2">
            <feGaussianBlur stdDeviation="4" in="SourceGraphic"></feGaussianBlur>
        </filter>
    </defs>
    <g id="Illustrations/Dark/170px/efficient_content_browsing" stroke="none" stroke-width="1" fill="none" fill-rule="evenodd">
        <g id="Group-3" transform="translate(30.000000, 51.000000)">
            <g id="Group" transform="translate(3.055556, 62.638889)" fill="#8DA4FA">
                <polygon id="Rectangle" filter="url(#filter-1)" transform="translate(51.944444, 1.527778) rotate(90.000000) translate(-51.944444, -1.527778) " points="50.4166667 -50.4166667 53.4722222 -50.4166667 53.4722222 53.4722222 50.4166667 53.4722222"></polygon>
                <polygon id="Rectangle" transform="translate(51.944444, 1.527778) rotate(90.000000) translate(-51.944444, -1.527778) " points="50.4166667 -50.4166667 53.4722222 -50.4166667 53.4722222 53.4722222 50.4166667 53.4722222"></polygon>
            </g>
            <g id="Group-2" fill="#414D86" fill-rule="nonzero">
                <path d="M99,0 C101.077778,0 102.666667,1.61831276 102.666667,3.7345679 L102.666667,3.7345679 L102.666667,58.5082305 L110,58.5082305 L110,59.7530864 C110,61.744856 109.266667,63.6121399 107.922222,64.9814815 C106.455556,66.4753086 104.622222,67.2222222 102.666667,67.2222222 L102.666667,67.2222222 L7.33333333,67.2222222 C3.3,67.2222222 0,63.8611111 0,59.7530864 L0,59.7530864 L0,58.5082305 L7.33333333,58.5082305 L7.33333333,58.5082305 L7.33333333,3.7345679 C7.33333333,1.61831276 8.92222222,0 11,0 L11,0 Z M45.2222222,60.9979424 L2.56666667,60.9979424 C3.17777778,63.1141975 5.01111111,64.7325103 7.33333333,64.7325103 L7.33333333,64.7325103 L102.666667,64.7325103 C104.011111,64.7325103 105.233333,64.2345679 106.211111,63.2386831 C106.822222,62.6162551 107.188889,61.8693416 107.433333,60.9979424 L107.433333,60.9979424 L64.7777778,60.9979424 C64.7777778,62.367284 63.6777778,63.4876543 62.3333333,63.4876543 L62.3333333,63.4876543 L47.6666667,63.4876543 C46.3222222,63.4876543 45.2222222,62.367284 45.2222222,60.9979424 L45.2222222,60.9979424 Z M99,2.48971193 L11,2.48971193 C10.2666667,2.48971193 9.77777778,2.98765432 9.77777778,3.7345679 L9.77777778,3.7345679 L9.77777778,58.5082305 L100.222222,58.5082305 L100.222222,3.7345679 C100.222222,2.98765432 99.7333333,2.48971193 99,2.48971193 L99,2.48971193 Z" id="Shape"></path>
            </g>
        </g>
        <path d="M81.5,67 C87.2989899,67 92,71.7010101 92,77.5 C91.9975852,80.0392027 91.0948121,82.3675428 89.5937093,84.1829921 L97.71,92.29 C97.8993127,92.4777666 98.0057983,92.7333625 98.0057983,93 C98.0057983,93.2666375 97.8993127,93.5222334 97.71,93.71 C97.5212812,93.8971865 97.265803,94.0015368 97,94.0000167 C96.734197,94.0015368 96.4787188,93.8971865 96.29,93.71 L88.1779951,85.5978385 C86.3632713,87.0964676 84.0368736,87.9975874 81.5,88 C75.7010101,88 71,83.2989899 71,77.5 C71,71.7010101 75.7010101,67 81.5,67 Z M81.5,69 C76.8055796,69 73,72.8055796 73,77.5 C73,82.1944204 76.8055796,86 81.5,86 C83.7921277,86 85.8723521,85.0927344 87.4011512,83.6177252 C87.4301282,83.5748681 87.4635269,83.5361752 87.5,83.5 C87.535647,83.4645645 87.5732977,83.4323676 87.6125859,83.4034092 C89.0911623,81.8759548 90,79.7941126 90,77.5 C89.9944896,72.807864 86.192136,69.0055104 81.5,69 Z" id="Combined-Shape" fill="#8DA4FA" fill-rule="nonzero" filter="url(#filter-2)"></path>
        <path d="M81.5,67 C87.2989899,67 92,71.7010101 92,77.5 C91.9975852,80.0392027 91.0948121,82.3675428 89.5937093,84.1829921 L97.71,92.29 C97.8993127,92.4777666 98.0057983,92.7333625 98.0057983,93 C98.0057983,93.2666375 97.8993127,93.5222334 97.71,93.71 C97.5212812,93.8971865 97.265803,94.0015368 97,94.0000167 C96.734197,94.0015368 96.4787188,93.8971865 96.29,93.71 L88.1779951,85.5978385 C86.3632713,87.0964676 84.0368736,87.9975874 81.5,88 C75.7010101,88 71,83.2989899 71,77.5 C71,71.7010101 75.7010101,67 81.5,67 Z M81.5,69 C76.8055796,69 73,72.8055796 73,77.5 C73,82.1944204 76.8055796,86 81.5,86 C83.7921277,86 85.8723521,85.0927344 87.4011512,83.6177252 C87.4301282,83.5748681 87.4635269,83.5361752 87.5,83.5 C87.535647,83.4645645 87.5732977,83.4323676 87.6125859,83.4034092 C89.0911623,81.8759548 90,79.7941126 90,77.5 C89.9944896,72.807864 86.192136,69.0055104 81.5,69 Z" id="Combined-Shape" fill="#8DA4FA" fill-rule="nonzero"></path>
    </g>
</svg>