<?xml version="1.0" encoding="UTF-8"?>
<svg width="250px" height="250px" viewBox="0 0 250 250" version="1.1" xmlns="http://www.w3.org/2000/svg" xmlns:xlink="http://www.w3.org/1999/xlink">
    <defs>
        <filter x="-60.4%" y="-42.3%" width="220.9%" height="184.6%" filterUnits="objectBoundingBox" id="filter-1">
            <feGaussianBlur stdDeviation="7" in="SourceGraphic"></feGaussianBlur>
        </filter>
    </defs>
    <g id="Illustrations/250px/profil_user" stroke="none" stroke-width="1" fill="none" fill-rule="evenodd">
        <g id="Group" transform="translate(42.000000, 49.000000)" fill-rule="nonzero">
            <polygon id="Path" fill="#FF746C" filter="url(#filter-1)" points="135.744186 37 101 40.4873418 101 86.6645954 135.744186 83.2374765"></polygon>
            <polygon id="Path" fill="#FF746C" points="135.744186 37 101 40.4873418 101 86.6645954 135.744186 83.2374765"></polygon>
            <path d="M164.37127,0.726867848 C165.418421,0.867323544 165.986295,1.82434633 166,2.65091848 L166,141.182603 C165.974907,142.112496 165.179651,142.959463 164.250823,143.046623 L83.1810558,150.742825 C83.0613814,150.762066 82.9393907,150.762066 82.8189442,150.742825 L1.74917655,143.046623 C0.820348644,142.960041 0.0250928302,142.112496 -1.93023261e-07,141.182603 L-1.93023261e-07,2.65091848 C-1.93023261e-07,1.58037671 1.04193934,0.62662481 2.11128818,0.726867848 L82.9999998,8.42307038 L163.888712,0.726867848 C164.056642,0.707627342 164.22187,0.707627342 164.37127,0.726867848 Z M140.906977,29.7078805 L106.162791,33.1952223 L106.162791,79.3724759 L140.906977,75.945357 L140.906977,29.7078805 Z" id="Shape" fill="#6F7CBD"></path>
            <path d="M164.37127,0.726867848 C165.418421,0.867323544 165.986295,1.82434633 166,2.65091848 L166,141.182603 C165.974907,142.112496 165.179651,142.959463 164.250823,143.046623 L83.1810558,150.742825 C83.0613814,150.762066 82.9393907,150.762066 82.8189442,150.742825 L1.74917655,143.046623 C0.820348644,142.960041 0.0250928302,142.112496 -1.9302388e-07,141.182603 L-1.9302388e-07,2.65091848 C-1.9302388e-07,1.58037671 1.04193934,0.62662481 2.11128818,0.726867848 L82.9999998,8.42307038 L163.888712,0.726867848 C164.056642,0.707627342 164.22187,0.707627342 164.37127,0.726867848 Z M162.139535,4.69522228 L84.9302326,12.0306653 L84.9302326,146.774278 L162.139535,139.439028 L162.139535,4.69522228 Z M3.86046473,4.69522228 L3.86046473,139.439028 L81.0697674,146.774278 L81.0697674,12.0306653 L3.86046473,4.69522228 Z M142.656153,25.7395261 C144.001912,25.6779565 144.756053,26.7810147 144.767442,27.6635767 L144.767442,77.6889316 C144.742349,78.6188253 143.947093,79.4657924 143.018265,79.5529519 L104.413614,83.4010532 C103.364147,83.4991797 102.3307,82.5873722 102.302326,81.5370329 L102.302326,31.511678 C102.302326,30.5617742 103.102793,29.6769033 104.051502,29.5876273 L142.656153,25.7395261 Z M140.906977,29.7078805 L106.162791,33.1952223 L106.162791,79.3724759 L140.906977,75.945357 L140.906977,29.7078805 Z M23.1025674,33.3756982 C23.1836372,33.3949387 23.264707,33.4103311 23.3438465,33.4353438 L61.9484977,37.2834451 C63.0541349,37.2218754 64.0815977,38.2885691 63.9764,39.387202 C63.8721674,40.4860273 62.6605605,41.3393438 61.586386,41.0715159 L22.9817349,37.2234147 C21.9710651,37.1926299 21.0802628,36.2465742 21.1119186,35.2391413 C21.1428023,34.2317084 22.0918977,33.343759 23.1025674,33.3753134 L23.1025674,33.3756982 Z M23.1025674,60.3124071 C23.1836372,60.3316476 23.264707,60.34704 23.3438465,60.3720527 L61.9484977,64.2201539 C63.0541349,64.1585843 64.0815977,65.225278 63.9764,66.3239109 C63.8721674,67.4227362 62.6605605,68.2760527 61.586386,68.0082248 L22.9817349,64.1601235 C21.9710651,64.1293387 21.0802628,63.183283 21.1119186,62.1758501 C21.1428023,61.1684172 22.0918977,60.2804678 23.1025674,60.3120223 L23.1025674,60.3124071 Z M23.1025674,87.2491544 C23.1836372,87.2683949 23.264707,87.2837873 23.3438465,87.3088 L61.9484977,91.1569013 C63.0541349,91.0953316 64.0815977,92.1620253 63.9764,93.2606582 C63.8721674,94.3594835 62.6605605,95.2128 61.586386,94.9449722 L22.9817349,91.0968709 C21.9710651,91.0660861 21.0802628,90.1200304 21.1119186,89.1125975 C21.1428023,88.1051646 22.0918977,87.2172152 23.1025674,87.2487696 L23.1025674,87.2491544 Z M144.708763,96.9754228 C144.666298,97.8722228 143.912156,98.6828253 143.018265,98.7934582 L104.413614,102.641559 C103.33944,102.909387 102.128605,102.056071 102.0236,100.957246 C101.917437,99.8586127 102.945865,98.7926886 104.051502,98.8534886 L142.656153,95.0053873 C144.019284,95.0053873 144.694672,95.9968506 144.708763,96.9754228 L144.708763,96.9754228 Z M23.1025674,114.185863 C23.1836372,114.205104 23.264707,114.220496 23.3438465,114.245509 L61.9484977,118.09361 C63.0541349,118.032041 64.0815977,119.098734 63.9764,120.197367 C63.8721674,121.296192 62.6605605,122.149509 61.586386,121.881681 L22.9817349,118.03358 C21.9710651,118.002795 21.0802628,117.056739 21.1119186,116.049306 C21.1428023,115.041873 22.0918977,114.153924 23.1025674,114.185478 L23.1025674,114.185863 Z M144.708763,116.215929 C144.666298,117.112729 143.912156,117.923332 143.018265,118.033965 L104.413614,121.882066 C103.33944,122.149894 102.128605,121.296577 102.0236,120.197752 C101.917437,119.099119 102.945865,118.033195 104.051502,118.093995 L142.656153,114.245894 C144.019284,114.245894 144.585035,115.310086 144.708763,116.215929 L144.708763,116.215929 Z" id="Shape" fill="#414D86"></path>
        </g>
    </g>
</svg>
