<svg width="300" height="180" viewBox="0 0 300 180" fill="none" xmlns="http://www.w3.org/2000/svg">
<g clip-path="url(#clip0_301_769)">
<mask id="mask0_301_769" style="mask-type:alpha" maskUnits="userSpaceOnUse" x="56" y="85" width="5" height="5">
<path d="M56.7979 87.3062C56.7979 88.2684 57.6411 89.0472 58.6808 89.0472C59.7204 89.0472 60.5636 88.2684 60.5636 87.3062C60.5636 86.3458 59.7204 85.5662 58.6808 85.5662C57.6411 85.5662 56.7979 86.3458 56.7979 87.3062Z" fill="white"/>
</mask>
<g mask="url(#mask0_301_769)">
<path d="M56.7979 87.3062C56.7979 88.2684 57.6411 89.0472 58.6808 89.0472C59.7204 89.0472 60.5636 88.2684 60.5636 87.3062C60.5636 86.3458 59.7204 85.5662 58.6808 85.5662C57.6411 85.5662 56.7979 86.3458 56.7979 87.3062Z" fill="#879DEF"/>
</g>
<mask id="mask1_301_769" style="mask-type:alpha" maskUnits="userSpaceOnUse" x="18" y="160" width="8" height="7">
<path d="M21.6642 160.647L20.8303 162.064C20.783 162.155 20.7052 162.23 20.606 162.277L19.0567 163.097C18.8788 163.189 18.7676 163.361 18.7676 163.548C18.7676 163.734 18.8788 163.908 19.0567 163.998L20.606 164.752C20.7052 164.799 20.783 164.875 20.8303 164.966L21.6642 166.376C21.7587 166.544 21.9487 166.649 22.1572 166.649C22.3638 166.649 22.5528 166.544 22.6492 166.376L23.473 164.966C23.5267 164.876 23.6073 164.802 23.7065 164.752L25.2465 163.998C25.4309 163.912 25.5458 163.738 25.5458 163.548C25.5458 163.358 25.4309 163.184 25.2465 163.097L23.7065 162.277C23.6073 162.228 23.5267 162.155 23.473 162.064L22.6492 160.647C22.5491 160.483 22.361 160.381 22.1572 160.381C21.9515 160.381 21.7634 160.483 21.6642 160.647Z" fill="white"/>
</mask>
<g mask="url(#mask1_301_769)">
<path d="M21.6642 160.647L20.8303 162.064C20.783 162.155 20.7052 162.23 20.606 162.277L19.0567 163.097C18.8788 163.189 18.7676 163.361 18.7676 163.548C18.7676 163.734 18.8788 163.908 19.0567 163.998L20.606 164.752C20.7052 164.799 20.783 164.875 20.8303 164.966L21.6642 166.376C21.7587 166.544 21.9487 166.649 22.1572 166.649C22.3638 166.649 22.5528 166.544 22.6492 166.376L23.473 164.966C23.5267 164.876 23.6073 164.802 23.7065 164.752L25.2465 163.998C25.4309 163.912 25.5458 163.738 25.5458 163.548C25.5458 163.358 25.4309 163.184 25.2465 163.097L23.7065 162.277C23.6073 162.228 23.5267 162.155 23.473 162.064L22.6492 160.647C22.5491 160.483 22.361 160.381 22.1572 160.381C21.9515 160.381 21.7634 160.483 21.6642 160.647Z" fill="#879DEF"/>
</g>
<mask id="mask2_301_769" style="mask-type:alpha" maskUnits="userSpaceOnUse" x="106" y="47" width="14" height="13">
<path d="M112.261 47.7404L110.698 50.446C110.6 50.6156 110.449 50.7544 110.266 50.847L107.351 52.2966C107.012 52.4654 106.801 52.7935 106.801 53.1499C106.801 53.5072 107.012 53.8345 107.351 54.0041L110.266 55.4538C110.449 55.5454 110.6 55.6851 110.698 55.8547L112.261 58.5595C112.445 58.874 112.798 59.0684 113.182 59.0684C113.568 59.0684 113.921 58.874 114.103 58.5595L115.666 55.8547C115.765 55.6851 115.915 55.5454 116.098 55.4538L119.014 54.0427C119.376 53.8808 119.605 53.5415 119.605 53.1696C119.605 52.7978 119.376 52.4585 119.014 52.2966L116.098 50.847C115.915 50.7544 115.765 50.6156 115.666 50.446L114.103 47.7404C113.921 47.4268 113.568 47.2314 113.182 47.2314C112.798 47.2314 112.445 47.4268 112.261 47.7404Z" fill="white"/>
</mask>
<g mask="url(#mask2_301_769)">
</g>
<mask id="mask3_301_769" style="mask-type:alpha" maskUnits="userSpaceOnUse" x="217" y="43" width="6" height="6">
<path d="M219.32 44.0099L218.678 45.1229C218.639 45.1923 218.577 45.2488 218.503 45.2857L217.299 45.888C217.155 45.9556 217.066 46.0919 217.066 46.2409C217.066 46.39 217.155 46.5262 217.299 46.5948L218.503 47.1877C218.574 47.2296 218.634 47.2845 218.678 47.3496L219.32 48.4642C219.394 48.5953 219.541 48.6784 219.703 48.6784C219.863 48.6784 220.01 48.5953 220.085 48.4642L220.736 47.3496C220.775 47.2811 220.837 47.2236 220.911 47.1877L222.115 46.5948C222.254 46.522 222.338 46.3866 222.338 46.2409C222.338 46.0944 222.254 45.9591 222.115 45.888L220.911 45.2857C220.832 45.254 220.769 45.1957 220.736 45.1229L220.085 44.0099C220.007 43.8823 219.86 43.8035 219.703 43.8035C219.544 43.8035 219.398 43.8823 219.32 44.0099Z" fill="white"/>
</mask>
<g mask="url(#mask3_301_769)">
<path d="M219.32 44.0099L218.678 45.1229C218.639 45.1923 218.577 45.2488 218.503 45.2857L217.299 45.888C217.155 45.9557 217.066 46.0919 217.066 46.241C217.066 46.39 217.155 46.5263 217.299 46.5948L218.503 47.1877C218.574 47.2297 218.634 47.2845 218.678 47.3496L219.32 48.4643C219.394 48.5953 219.541 48.6784 219.703 48.6784C219.863 48.6784 220.01 48.5953 220.085 48.4643L220.736 47.3496C220.775 47.2811 220.837 47.2237 220.911 47.1877L222.115 46.5948C222.254 46.522 222.338 46.3866 222.338 46.241C222.338 46.0945 222.254 45.9591 222.115 45.888L220.911 45.2857C220.832 45.254 220.769 45.1957 220.736 45.1229L220.085 44.0099C220.007 43.8823 219.86 43.8035 219.703 43.8035C219.544 43.8035 219.398 43.8823 219.32 44.0099Z" fill="#879DEF"/>
</g>
<mask id="mask4_301_769" style="mask-type:alpha" maskUnits="userSpaceOnUse" x="100" y="0" width="6" height="5">
<path d="M102.566 0.315241L101.924 1.42817C101.885 1.49842 101.823 1.55411 101.749 1.59095L100.545 2.1924C100.402 2.26094 100.313 2.39716 100.313 2.54624C100.313 2.69446 100.402 2.83154 100.545 2.90008L101.749 3.49296C101.82 3.53408 101.88 3.58891 101.924 3.65574L102.566 4.76867C102.64 4.90061 102.788 4.98372 102.949 4.98372C103.109 4.98372 103.256 4.90061 103.331 4.76867L103.982 3.65574C104.021 3.58634 104.083 3.52894 104.157 3.49296L105.361 2.90008C105.499 2.82726 105.584 2.69274 105.584 2.54624C105.584 2.39973 105.499 2.26437 105.361 2.1924L104.157 1.59095C104.078 1.55925 104.015 1.50099 103.982 1.42817L103.331 0.315241C103.253 0.187584 103.107 0.109619 102.949 0.109619C102.79 0.109619 102.644 0.187584 102.566 0.315241Z" fill="white"/>
</mask>
<g mask="url(#mask4_301_769)">
<path d="M102.567 0.315241L101.925 1.42817C101.886 1.49842 101.824 1.55411 101.75 1.59095L100.546 2.1924C100.403 2.26094 100.314 2.39716 100.314 2.54624C100.314 2.69446 100.403 2.83154 100.546 2.90008L101.75 3.49296C101.821 3.53408 101.881 3.58891 101.925 3.65574L102.567 4.76867C102.641 4.90061 102.789 4.98372 102.95 4.98372C103.11 4.98372 103.257 4.90061 103.332 4.76867L103.983 3.65574C104.022 3.58634 104.084 3.52894 104.158 3.49296L105.362 2.90008C105.5 2.82726 105.585 2.69274 105.585 2.54624C105.585 2.39973 105.5 2.26437 105.362 2.1924L104.158 1.59095C104.079 1.55925 104.016 1.50099 103.983 1.42817L103.332 0.315241C103.254 0.187584 103.108 0.109619 102.95 0.109619C102.791 0.109619 102.645 0.187584 102.567 0.315241Z" fill="#879DEF"/>
</g>
<mask id="mask5_301_769" style="mask-type:alpha" maskUnits="userSpaceOnUse" x="260" y="3" width="12" height="11">
<path d="M265.445 3.9803L264.063 6.37066C263.979 6.51974 263.844 6.64054 263.677 6.7108L261.099 7.9908C260.802 8.14501 260.617 8.43546 260.617 8.74989C260.617 9.06517 260.802 9.35562 261.099 9.50983L263.677 10.7898C263.84 10.8721 263.975 10.9972 264.063 11.1471L265.445 13.5357C265.612 13.8116 265.925 13.9821 266.265 13.9821C266.605 13.9821 266.919 13.8116 267.085 13.5357L268.467 11.1471C268.549 10.998 268.678 10.8738 268.834 10.7898L271.414 9.50983C271.722 9.36333 271.914 9.07031 271.914 8.74989C271.914 8.43032 271.722 8.1373 271.414 7.9908L268.834 6.7108C268.673 6.63969 268.544 6.51888 268.467 6.37066L267.085 3.9803C266.919 3.70614 266.605 3.53564 266.265 3.53564C265.925 3.53564 265.612 3.70614 265.445 3.9803Z" fill="white"/>
</mask>
<g mask="url(#mask5_301_769)">
<path d="M265.441 3.98055L264.059 6.37091C263.975 6.51998 263.84 6.64079 263.673 6.71104L261.095 7.99104C260.798 8.14526 260.613 8.4357 260.613 8.75013C260.613 9.06542 260.798 9.35586 261.095 9.51008L263.673 10.7901C263.836 10.8723 263.971 10.9974 264.059 11.1473L265.441 13.536C265.608 13.8119 265.921 13.9824 266.261 13.9824C266.601 13.9824 266.915 13.8119 267.081 13.536L268.463 11.1473C268.545 10.9983 268.674 10.874 268.831 10.7901L271.41 9.51008C271.718 9.36357 271.911 9.07056 271.911 8.75013C271.911 8.43056 271.718 8.13755 271.41 7.99104L268.831 6.71104C268.669 6.63993 268.541 6.51913 268.463 6.37091L267.081 3.98055C266.915 3.70638 266.601 3.53589 266.261 3.53589C265.921 3.53589 265.608 3.70638 265.441 3.98055Z" fill="#879DEF"/>
</g>
<path d="M221.455 91.0068C221.691 74.2581 216.036 57.9588 205.478 44.9551C194.92 31.9514 180.129 23.0698 163.689 19.8613C147.249 16.6528 130.204 19.3212 115.531 27.4006C100.858 35.4801 89.4894 48.457 83.4104 64.0653C77.3315 79.6736 76.9285 96.9214 82.2719 112.797C87.6153 128.672 98.3654 142.165 112.645 150.921C126.925 159.677 143.826 163.139 160.398 160.701C176.97 158.264 192.16 150.083 203.314 137.587L150 90L221.455 91.0068Z" fill="#9EB1FF"/>
<path d="M227.853 143.887L178.372 101.945L241.284 103.39L227.853 143.887Z" stroke="#A4B2FF"/>
</g>
<defs>
<clipPath id="clip0_301_769">
<rect width="300" height="180" fill="white"/>
</clipPath>
</defs>
</svg>
