<svg width="300" height="180" viewBox="0 0 300 180" fill="none" xmlns="http://www.w3.org/2000/svg">
<rect width="300" height="180" fill="white"/>
<rect x="179.848" y="98" width="19" height="111.847" transform="rotate(90 179.848 98)" fill="#C6D2FF" fill-opacity="0.36"/>
<rect x="223.68" y="59" width="19" height="155.679" transform="rotate(90 223.68 59)" fill="#C6D2FF" fill-opacity="0.36"/>
<rect x="266" y="137" width="19" height="198" transform="rotate(90 266 137)" fill="#C6D2FF" fill-opacity="0.36"/>
<rect x="172.29" y="20" width="19" height="104.29" transform="rotate(90 172.29 20)" fill="#C6D2FF" fill-opacity="0.36"/>
<rect x="149.618" y="98" width="19" height="81.6183" transform="rotate(90 149.618 98)" fill="#C6D2FF"/>
<rect x="197.984" y="59" width="19" height="129.985" transform="rotate(90 197.984 59)" fill="#C6D2FF"/>
<rect x="231.236" y="137" width="19" height="163.237" transform="rotate(90 231.236 137)" fill="#C6D2FF"/>
<rect x="149.618" y="20" width="19" height="81.6183" transform="rotate(90 149.618 20)" fill="#C6D2FF"/>
<path d="M30.9889 67.5666C32.1363 66.5638 32.1908 64.7693 31.1107 63.5586C30.0306 62.3478 28.2249 62.1792 27.0775 63.182C25.9301 64.1849 25.8756 65.9793 26.9557 67.1901C28.0358 68.4008 29.8415 68.5694 30.9889 67.5666Z" fill="#3C64F7"/>
<path d="M269.453 35.1296C270.032 34.6234 270.059 33.7177 269.514 33.1065C268.969 32.4954 268.057 32.4103 267.478 32.9165C266.899 33.4227 266.872 34.3284 267.417 34.9396C267.962 35.5507 268.873 35.6358 269.453 35.1296Z" fill="#3C64F7"/>
<path d="M197.023 35.1296C197.602 34.6234 197.63 33.7177 197.084 33.1065C196.539 32.4954 195.628 32.4103 195.049 32.9165C194.469 33.4227 194.442 34.3284 194.987 34.9396C195.532 35.5507 196.444 35.6358 197.023 35.1296Z" fill="#3C64F7"/>
<path d="M34.4526 152.13C35.0317 151.623 35.0593 150.718 34.5141 150.107C33.9689 149.495 33.0575 149.41 32.4783 149.917C31.8992 150.423 31.8716 151.328 32.4168 151.94C32.962 152.551 33.8734 152.636 34.4526 152.13Z" fill="#3C64F7"/>
<path d="M239.989 128.2C241.136 127.197 241.191 125.403 240.111 124.192C239.031 122.981 237.225 122.813 236.078 123.816C234.93 124.819 234.876 126.613 235.956 127.824C237.036 129.035 238.842 129.203 239.989 128.2Z" fill="#3C64F7"/>
<path d="M55.1677 36.0818C57.0333 34.4512 57.122 31.5334 55.3658 29.5647C53.6096 27.596 50.6734 27.3219 48.8078 28.9525C46.9421 30.5831 46.8534 33.5009 48.6096 35.4696C50.3659 37.4383 53.302 37.7124 55.1677 36.0818Z" fill="#3C64F7"/>
<path d="M267.738 75.0818C269.604 73.4512 269.692 70.5334 267.936 68.5647C266.18 66.596 263.244 66.3219 261.378 67.9525C259.512 69.5831 259.424 72.5009 261.18 74.4696C262.936 76.4383 265.872 76.7124 267.738 75.0818Z" fill="#3C64F7"/>
</svg>
