<?xml version="1.0" encoding="UTF-8"?>
<svg width="239px" height="315px" viewBox="0 0 239 315" version="1.1" xmlns="http://www.w3.org/2000/svg" xmlns:xlink="http://www.w3.org/1999/xlink">
    <g id="draft" stroke="none" stroke-width="1" fill="none" fill-rule="evenodd">
        <g id="Illustration/Dark/empty_poster">
            <rect id="Rectangle" fill="#414D86" x="0" y="0" width="239" height="315" rx="1.9361898"></rect>
            <g id="Group" transform="translate(10.163349, 16.814947)">
                <g id="Oval-2" transform="translate(11.124100, 13.139041)" stroke="#879DEF" stroke-width="0.577294686">
                    <ellipse id="Oval" cx="12.5789474" cy="12.5613497" rx="12.2903" ry="12.2727024"></ellipse>
                </g>
                <ellipse id="Oval" fill="#879DEF" cx="27.5734926" cy="27.632906" rx="12.5789474" ry="12.5613497"></ellipse>
                <g id="stars" transform="translate(14.026934, -0.388566)" fill-rule="nonzero">
                    <g id="Group" transform="translate(0.000000, 0.830776)">
                        <ellipse id="Accent-1" fill="#8DA4FA" cx="186.5903" cy="132.372635" rx="1.1262996" ry="1.10640502"></ellipse>
                        <path d="M46.1782834,89.2228392 C46.1782834,89.732048 45.7580655,90.1448433 45.2397004,90.1448433 C44.7213353,90.1448433 44.3011174,89.732048 44.3011174,89.2228392 C44.3011174,88.7136303 44.7213353,88.300835 45.2397004,88.300835 C45.7580655,88.300835 46.1782834,88.7136303 46.1782834,89.2228392 L46.1782834,89.2228392 Z" id="Accent-1" fill="#D6DFFF"></path>
                        <path d="M33.8104259,64.0418378 C33.7613564,64.0158641 33.7210416,63.9766758 33.6943213,63.9289773 L33.2834897,63.178021 C33.2337775,63.0915177 33.1398176,63.0379202 33.0378839,63.0379202 C32.9359502,63.0379202 32.8419903,63.0915177 32.792278,63.178021 L32.3769809,63.9289773 C32.3533169,63.9773526 32.3141417,64.0169563 32.2653419,64.0418378 L31.4927999,64.4759166 C31.4038102,64.5242398 31.3486721,64.6155744 31.3486721,64.71466 C31.3486721,64.8137455 31.4038102,64.9050801 31.4927999,64.9534033 L32.2653419,65.3527558 C32.3141417,65.3776373 32.3533169,65.4172411 32.3769809,65.4656163 L32.792278,66.2122319 C32.8399419,66.3012754 32.9346223,66.3571353 33.0378839,66.3571353 C33.1411454,66.3571353 33.2358259,66.3012754 33.2834897,66.2122319 L33.6943213,65.4656163 C33.7210416,65.4179179 33.7613564,65.3787295 33.8104259,65.3527558 L34.5785023,64.9534033 C34.6701053,64.9070713 34.7275709,64.8150363 34.7275709,64.71466 C34.7275709,64.6142837 34.6701053,64.5222487 34.5785023,64.4759166 L33.8104259,64.0418378 Z" id="Accent-1" fill="#9EB1FF"></path>
                        <path d="M165.268204,2.6824571 L163.81464,1.91482074 C163.723401,1.86608129 163.648497,1.79226531 163.59904,1.70234996 L162.820097,0.269885685 C162.729041,0.103632512 162.552783,0 162.361076,0 C162.16937,0 161.993112,0.103632512 161.902056,0.269885685 L161.123113,1.70234996 C161.073655,1.79226531 160.998752,1.86608129 160.907512,1.91482074 L159.453949,2.6824571 C159.285246,2.77219105 159.180088,2.94589018 159.180088,3.13481424 C159.180088,3.3237383 159.285246,3.49743742 159.453949,3.58717138 L160.907512,4.35480774 C160.998752,4.40354718 161.073655,4.47736317 161.123113,4.56727851 L161.902056,5.99974279 C161.993112,6.16599596 162.16937,6.26962847 162.361076,6.26962847 C162.552783,6.26962847 162.729041,6.16599596 162.820097,5.99974279 L163.59904,4.56727851 C163.648497,4.47736317 163.723401,4.40354718 163.81464,4.35480774 L165.268204,3.60773307 C165.448156,3.52184358 165.562452,3.34213907 165.562452,3.14509508 C165.562452,2.94805109 165.448156,2.76834658 165.268204,2.6824571 L165.268204,2.6824571 Z" id="Accent-1" fill="#9EB1FF"></path>
                        <path d="M3.95212087,109.581336 L3.00494764,109.094193 C2.944602,109.06333 2.89465118,109.015954 2.86113599,108.957793 L2.36523378,108.027351 C2.30750102,107.916827 2.19167173,107.847324 2.06521294,107.847324 C1.93875414,107.847324 1.82292485,107.916827 1.76519209,108.027351 L1.26928988,108.957793 C1.23913246,109.016738 1.19044225,109.064569 1.13043726,109.094193 L0.183264021,109.581336 C0.0707528901,109.638049 0,109.751832 0,109.876057 C0,110.000283 0.0707528901,110.114066 0.183264021,110.170779 L1.13043726,110.657922 C1.18832474,110.690348 1.23628046,110.737457 1.26928988,110.794322 L1.76519209,111.729636 C1.82526704,111.837249 1.9402739,111.904142 2.06521294,111.904142 C2.19015197,111.904142 2.30515883,111.837249 2.36523378,111.729636 L2.86113599,110.794322 C2.89739547,110.738305 2.94668669,110.691554 3.00494764,110.657922 L3.95212087,110.170779 C4.06166887,110.111765 4.12976518,109.99879 4.12976518,109.876057 C4.12976518,109.753325 4.06166887,109.64035 3.95212087,109.581336 L3.95212087,109.581336 Z" id="Accent-1" fill="#9EB1FF"></path>
                        <path d="M162.263797,92.1702126 L161.663521,91.8517034 C161.624374,91.8347916 161.593106,91.8040752 161.57589,91.7656198 L161.251653,91.1759473 C161.212753,91.1085201 161.139951,91.0668475 161.061055,91.0668475 C160.982159,91.0668475 160.909356,91.1085201 160.870456,91.1759473 L160.550602,91.7656198 C160.530856,91.8023092 160.500319,91.8323063 160.46297,91.8517034 L159.862694,92.1702126 C159.79151,92.2064712 159.746826,92.2786755 159.746826,92.3574444 C159.746826,92.4362133 159.79151,92.5084176 159.862694,92.5446762 L160.46297,92.8588813 C160.49835,92.8807967 160.528292,92.9102094 160.550602,92.9449648 L160.870456,93.5346373 C160.907367,93.6045648 160.98087,93.6484593 161.061055,93.6484593 C161.14124,93.6484593 161.214743,93.6045648 161.251653,93.5346373 L161.57589,92.9449648 C161.595636,92.9082755 161.626172,92.8782784 161.663521,92.8588813 L162.263797,92.5446762 C162.332436,92.5064634 162.374858,92.434947 162.374858,92.3574444 C162.374858,92.2799419 162.332436,92.2084254 162.263797,92.1702126 Z" id="Accent-1" fill="#9EB1FF"></path>
                    </g>
                    <g id="Group" transform="translate(1.144613, 0.000000)">
                        <ellipse id="Outline-1" stroke="#1F2A3B" stroke-width="0.577294686" cx="185.448058" cy="133.196525" rx="1.12392763" ry="1.11329131"></ellipse>
                        <path d="M46.0810326,89.9637122 C46.0810326,90.4760903 45.6616997,90.8914549 45.1444263,90.8914549 C44.6271529,90.8914549 44.2078199,90.4760903 44.2078199,89.9637122 C44.2078199,89.451334 44.6271529,89.0359694 45.1444263,89.0359694 C45.6616997,89.0359694 46.0810326,89.451334 46.0810326,89.9637122 L46.0810326,89.9637122 Z" id="Outline-1" stroke="#879DEF" stroke-width="0.577294686"></path>
                        <path d="M33.7392216,64.4404353 C33.6902555,64.4142999 33.6500256,64.3748677 33.6233616,64.3268724 L33.2133952,63.571242 C33.1637876,63.4842004 33.0700256,63.4302693 32.9683066,63.4302693 C32.8665876,63.4302693 32.7728255,63.4842004 32.723218,63.571242 L32.3087955,64.3268724 C32.2851813,64.3755487 32.2460886,64.415399 32.1973916,64.4404353 L31.4264765,64.8772158 C31.3376742,64.9258398 31.2826522,65.0177428 31.2826522,65.1174451 C31.2826522,65.2171474 31.3376742,65.3090504 31.4264765,65.3576744 L32.1973916,65.7595125 C32.2460886,65.7845488 32.2851813,65.8243991 32.3087955,65.8730754 L32.723218,66.6243379 C32.7707814,66.7139356 32.8652625,66.7701432 32.9683066,66.7701432 C33.0713507,66.7701432 33.1658317,66.7139356 33.2133952,66.6243379 L33.6233616,65.8730754 C33.6500256,65.8250801 33.6902555,65.7856479 33.7392216,65.7595125 L34.5056805,65.3576744 C34.5970906,65.311054 34.6544351,65.2184462 34.6544351,65.1174451 C34.6544351,65.0164441 34.5970906,64.9238362 34.5056805,64.8772158 L33.7392216,64.4404353 Z" id="Outline-1" stroke="#414D86" stroke-width="0.577294686"></path>
                        <path d="M164.920152,2.69915276 L163.469649,1.92673862 C163.378602,1.87769581 163.303856,1.8034204 163.254503,1.71294542 L162.4772,0.271565458 C162.386336,0.104277522 162.21045,0 162.019146,0 C161.827843,0 161.651957,0.104277522 161.561093,0.271565458 L160.78379,1.71294542 C160.734437,1.8034204 160.659691,1.87769581 160.568644,1.92673862 L159.118141,2.69915276 C158.949794,2.78944522 158.844857,2.96422545 158.844857,3.15432537 C158.844857,3.3444253 158.949794,3.51920553 159.118141,3.60949799 L160.568644,4.38191213 C160.659691,4.43095493 160.734437,4.50523035 160.78379,4.59570533 L161.561093,6.03708529 C161.651957,6.20437323 161.827843,6.30865075 162.019146,6.30865075 C162.21045,6.30865075 162.386336,6.20437323 162.4772,6.03708529 L163.254503,4.59570533 C163.303856,4.50523035 163.378602,4.43095493 163.469649,4.38191213 L164.920152,3.63018766 C165.099725,3.5437636 165.21378,3.3629406 165.21378,3.16467021 C165.21378,2.96639981 165.099725,2.78557682 164.920152,2.69915276 L164.920152,2.69915276 Z" id="Outline-1" stroke="#414D86" stroke-width="0.577294686"></path>
                        <path d="M3.94379776,110.263372 L2.99861926,109.773197 C2.93840071,109.742142 2.88855509,109.694471 2.85511048,109.635948 L2.36025263,108.699715 C2.30264146,108.588503 2.1870561,108.518567 2.06086363,108.518567 C1.93467116,108.518567 1.8190858,108.588503 1.76147463,108.699715 L1.26661677,109.635948 C1.23652286,109.69526 1.1879352,109.743388 1.12805657,109.773197 L0.18287807,110.263372 C0.0706038856,110.320438 0,110.43493 0,110.559928 C0,110.684926 0.0706038856,110.799418 0.18287807,110.856484 L1.12805657,111.346658 C1.18582215,111.379287 1.23367688,111.426688 1.26661677,111.483907 L1.76147463,112.425043 C1.82142306,112.533326 1.93618771,112.600635 2.06086363,112.600635 C2.18553954,112.600635 2.3003042,112.533326 2.36025263,112.425043 L2.85511048,111.483907 C2.8912936,111.427542 2.94048102,111.3805 2.99861926,111.346658 L3.94379776,110.856484 C4.05311505,110.797103 4.12106796,110.683424 4.12106796,110.559928 C4.12106796,110.436432 4.05311505,110.322753 3.94379776,110.263372 L3.94379776,110.263372 Z" id="Outline-1" stroke="#414D86" stroke-width="0.577294686"></path>
                        <path d="M161.922072,92.7438816 L161.32306,92.42339 C161.283996,92.4063728 161.252793,92.3754653 161.235613,92.3367706 L160.91206,91.743428 C160.873242,91.6755811 160.800593,91.6336491 160.721863,91.6336491 C160.643133,91.6336491 160.570484,91.6755811 160.531666,91.743428 L160.212484,92.3367706 C160.19278,92.3736883 160.162308,92.4038721 160.125037,92.42339 L159.526026,92.7438816 C159.454991,92.7803659 159.410402,92.8530196 159.410402,92.9322787 C159.410402,93.0115379 159.454991,93.0841916 159.526026,93.1206758 L160.125037,93.4368365 C160.160343,93.4588883 160.190222,93.4884841 160.212484,93.5234559 L160.531666,94.1167985 C160.568498,94.1871612 160.641846,94.2313288 160.721863,94.2313288 C160.801879,94.2313288 160.875227,94.1871612 160.91206,94.1167985 L161.235613,93.5234559 C161.255318,93.4865382 161.28579,93.4563544 161.32306,93.4368365 L161.922072,93.1206758 C161.990567,93.0822252 162.032899,93.0102636 162.032899,92.9322787 C162.032899,92.8542938 161.990567,92.7823322 161.922072,92.7438816 Z" id="Outline-1" stroke="#414D86" stroke-width="0.577294686"></path>
                        <path d="M101.925255,39.6945098 L100.642414,39.0125357 C100.562409,38.9741577 100.497826,38.910069 100.459152,38.830676 L99.7719157,37.5576578 C99.6892751,37.4111849 99.5333189,37.3204659 99.3641558,37.3204659 C99.1949928,37.3204659 99.0390366,37.4111849 98.9563959,37.5576578 L98.2691601,38.830676 C98.2269986,38.9107067 98.1593418,38.9746484 98.0767341,39.0125357 L96.793894,39.6945098 C96.6462909,39.7765177 96.554872,39.9312799 96.554872,40.0991477 C96.554872,40.2670155 96.6462909,40.4217777 96.793894,40.5037856 L98.0767341,41.1857596 C98.1579036,41.2299121 98.224667,41.2961644 98.2691601,41.3767124 L98.9563959,42.6497306 C99.0390366,42.7962035 99.1949928,42.8869225 99.3641558,42.8869225 C99.5333189,42.8869225 99.6892751,42.7962035 99.7719157,42.6497306 L100.459152,41.3767124 C100.500331,41.2968043 100.563993,41.2304713 100.642414,41.1857596 L101.925255,40.5037856 C102.078264,40.4259969 102.17451,40.2697517 102.17451,40.0991477 C102.17451,39.9285437 102.078264,39.7722984 101.925255,39.6945098 Z" id="Outline-1" stroke="#879DEF" stroke-width="0.577294686"></path>
                        <path d="M103.468059,40.0266238 L102.185218,39.3446498 C102.105213,39.3062718 102.04063,39.2421831 102.001956,39.1627901 L101.31472,37.8897719 C101.232079,37.7432989 101.076123,37.65258 100.90696,37.65258 C100.737797,37.65258 100.581841,37.7432989 100.4992,37.8897719 L99.8119642,39.1627901 C99.7698027,39.2428207 99.7021459,39.3067625 99.6195382,39.3446498 L98.336698,40.0266238 C98.189095,40.1086317 98.0976761,40.2633939 98.0976761,40.4312618 C98.0976761,40.5991296 98.189095,40.7538918 98.336698,40.8358997 L99.6195382,41.5178737 C99.7007076,41.5620262 99.7674711,41.6282784 99.8119642,41.7088264 L100.4992,42.9818446 C100.581841,43.1283176 100.737797,43.2190365 100.90696,43.2190365 C101.076123,43.2190365 101.232079,43.1283176 101.31472,42.9818446 L102.001956,41.7088264 C102.043135,41.6289184 102.106797,41.5625854 102.185218,41.5178737 L103.468059,40.8358997 C103.621068,40.758111 103.717314,40.6018657 103.717314,40.4312618 C103.717314,40.2606578 103.621068,40.1044125 103.468059,40.0266238 Z" id="Accent-1" fill="#9EB1FF"></path>
                    </g>
                </g>
                <g transform="translate(47.893331, 219.918182)" id="Combined-Shape-Copy" stroke="#D6DFFF" stroke-width="0.577294686">
                    <path d="M97.1394599,0.364607303 L165.578511,52.8555244 L0.882306069,52.8555244 L48.8592968,17.701637 L60.8356818,28.5555737 L97.1394599,0.364607303 Z" transform="translate(83.214575, 26.572086) scale(-1, 1) translate(-83.214575, -26.572086) "></path>
                </g>
                <g transform="translate(-0.487236, 230.547016)" fill="#879DEF" id="Combined-Shape-Copy">
                    <path d="M0,53.1441718 L48.8786442,17.3296212 L60.85,28.179 L97.138368,0 L166.42915,53.1441718 L0,53.1441718 Z" transform="translate(83.214575, 26.572086) scale(-1, 1) translate(-83.214575, -26.572086) "></path>
                </g>
            </g>
            <g id="Group-7" transform="translate(124.992272, 138.180775) scale(-1, -1) translate(-124.992272, -138.180775) translate(114.225147, 80.294234)"></g>
            <text id="?" font-family="Montserrat-ExtraLight, Montserrat" font-size="96.80949" font-weight="300" letter-spacing="2.68915233" fill="#FF7165">
                <tspan x="92.6908981" y="200.205234">?</tspan>
            </text>
        </g>
    </g>
</svg>
