<?xml version="1.0" encoding="UTF-8"?>
<svg width="380px" height="380px" viewBox="0 0 380 380" version="1.1" xmlns="http://www.w3.org/2000/svg" xmlns:xlink="http://www.w3.org/1999/xlink">
    <title>Illustrations/Dark/empty_invitation</title>
    <g id="Illustrations/Dark/empty_invitation" stroke="none" stroke-width="1" fill="none" fill-rule="evenodd">
        <g id="flattened" transform="translate(39.995434, 52.780822)">
            <circle id="Oval" fill="#9EB1FF" fill-rule="nonzero" cx="262.086758" cy="239.091324" r="2.43835616"></circle>
            <path d="M46.1050228,102.995434 C46.1050228,104.117656 45.1952818,105.027397 44.0730594,105.027397 C42.9508369,105.027397 42.0410959,104.117656 42.0410959,102.995434 C42.0410959,101.873211 42.9508369,100.96347 44.0730594,100.96347 C45.1952818,100.96347 46.1050228,101.873211 46.1050228,102.995434 L46.1050228,102.995434 Z" id="Path" fill="#9EB1FF" fill-rule="nonzero"></path>
            <path d="M5.32951674,44.5001599 C5.22328489,44.4429177 5.13600633,44.3565522 5.07815883,44.2514318 L4.18873855,42.596433 C4.0811152,42.4057923 3.87769891,42.2876712 3.6570199,42.2876712 C3.43634089,42.2876712 3.23292459,42.4057923 3.12530125,42.596433 L2.22621335,44.2514318 C2.1749825,44.3580438 2.09017113,44.4453248 1.98452305,44.5001599 L0.312026203,45.4568067 C0.119369925,45.563304 0,45.7645922 0,45.9829624 C0,46.2013326 0.119369925,46.4026207 0.312026203,46.5091181 L1.98452305,47.3892331 C2.09017113,47.4440682 2.1749825,47.5313492 2.22621335,47.6379612 L3.12530125,49.2833936 C3.22848994,49.4796326 3.4334662,49.6027397 3.6570199,49.6027397 C3.88057359,49.6027397 4.08554985,49.4796326 4.18873855,49.2833936 L5.07815883,47.6379612 C5.13600633,47.5328408 5.22328489,47.4464754 5.32951674,47.3892331 L6.99234598,46.5091181 C7.19065974,46.407009 7.31506849,46.2041772 7.31506849,45.9829624 C7.31506849,45.7617476 7.19065974,45.5589158 6.99234598,45.4568067 L5.32951674,44.5001599 Z" id="Path" fill="#9EB1FF" fill-rule="nonzero"></path>
            <path d="M301.329517,73.5001599 C301.223285,73.4429177 301.136006,73.3565522 301.078159,73.2514318 L300.188739,71.596433 C300.081115,71.4057923 299.877699,71.2876712 299.65702,71.2876712 C299.436341,71.2876712 299.232925,71.4057923 299.125301,71.596433 L298.226213,73.2514318 C298.174983,73.3580438 298.090171,73.4453248 297.984523,73.5001599 L296.312026,74.4568067 C296.11937,74.563304 296,74.7645922 296,74.9829624 C296,75.2013326 296.11937,75.4026207 296.312026,75.5091181 L297.984523,76.3892331 C298.090171,76.4440682 298.174983,76.5313492 298.226213,76.6379612 L299.125301,78.2833936 C299.22849,78.4796326 299.433466,78.6027397 299.65702,78.6027397 C299.880574,78.6027397 300.08555,78.4796326 300.188739,78.2833936 L301.078159,76.6379612 C301.136006,76.5328408 301.223285,76.4464754 301.329517,76.3892331 L302.992346,75.5091181 C303.19066,75.407009 303.315068,75.2041772 303.315068,74.9829624 C303.315068,74.7617476 303.19066,74.5589158 302.992346,74.4568067 L301.329517,73.5001599 Z" id="Path" fill="#9EB1FF" fill-rule="nonzero"></path>
            <path d="M109.184893,62.1309244 L106.038034,60.4391652 C105.840506,60.3317505 105.678346,60.1690708 105.571275,59.9709104 L103.884919,56.813967 C103.68779,56.4475691 103.306205,56.2191781 102.891174,56.2191781 C102.476143,56.2191781 102.094558,56.4475691 101.897429,56.813967 L100.211074,59.9709104 C100.104002,60.1690708 99.9418421,60.3317505 99.7443147,60.4391652 L96.5974552,62.1309244 C96.2322277,62.328685 96.0045662,62.7114927 96.0045662,63.1278539 C96.0045662,63.5442151 96.2322277,63.9270228 96.5974552,64.1247834 L99.7443147,65.8165426 C99.9418421,65.9239572 100.104002,66.086637 100.211074,66.2847973 L101.897429,69.4417408 C102.094558,69.8081387 102.476143,70.0365297 102.891174,70.0365297 C103.306205,70.0365297 103.68779,69.8081387 103.884919,69.4417408 L105.571275,66.2847973 C105.678346,66.086637 105.840506,65.9239572 106.038034,65.8165426 L109.184893,64.1700984 C109.574476,63.9808104 109.821918,63.5847677 109.821918,63.1505114 C109.821918,62.716255 109.574476,62.3202123 109.184893,62.1309244 L109.184893,62.1309244 Z" id="Path" fill="#9EB1FF" fill-rule="nonzero"></path>
            <path d="M109.997679,60.9117463 L106.850819,59.2199871 C106.653292,59.1125724 106.491132,58.9498927 106.38406,58.7517323 L104.697705,55.5947889 C104.500576,55.228391 104.118991,55 103.70396,55 C103.288928,55 102.907343,55.228391 102.710214,55.5947889 L101.023859,58.7517323 C100.916788,58.9498927 100.754628,59.1125724 100.5571,59.2199871 L97.4102406,60.9117463 C97.0450131,61.1095069 96.8173516,61.4923146 96.8173516,61.9086758 C96.8173516,62.325037 97.0450131,62.7078447 97.4102406,62.9056053 L100.5571,64.5973645 C100.754628,64.7047792 100.916788,64.8674589 101.023859,65.0656193 L102.710214,68.2225627 C102.907343,68.5889606 103.288928,68.8173516 103.70396,68.8173516 C104.118991,68.8173516 104.500576,68.5889606 104.697705,68.2225627 L106.38406,65.0656193 C106.491132,64.8674589 106.653292,64.7047792 106.850819,64.5973645 L109.997679,62.9509203 C110.387261,62.7616323 110.634703,62.3655897 110.634703,61.9313333 C110.634703,61.4970769 110.387261,61.1010342 109.997679,60.9117463 L109.997679,60.9117463 Z" id="Path" stroke="#000000" fill="#9EB1FF" fill-rule="nonzero"></path>
            <path d="M94.4536238,3.65083473 L93.1540711,2.94888658 C93.0693211,2.9116153 93.0016267,2.84392092 92.9643554,2.75917087 L92.2624073,1.45961822 C92.1781919,1.31101843 92.02058,1.21917808 91.8497756,1.21917808 C91.6789712,1.21917808 91.5213593,1.31101843 91.4371439,1.45961822 L90.7446816,2.75917087 C90.7019331,2.84002881 90.6358238,2.90613813 90.5549658,2.94888658 L89.2554132,3.65083473 C89.1013032,3.73074339 89.0045662,3.88987121 89.0045662,4.06346641 C89.0045662,4.23706161 89.1013032,4.39618943 89.2554132,4.47609809 L90.5549658,5.16856045 C90.6315618,5.21685887 90.6963831,5.28168023 90.7446816,5.35827617 L91.4371439,6.65782882 C91.5170526,6.81193884 91.6761804,6.9086758 91.8497756,6.9086758 C92.0233708,6.9086758 92.1824986,6.81193884 92.2624073,6.65782882 L92.9643554,5.35827617 C93.0071039,5.27741822 93.0732132,5.21130891 93.1540711,5.16856045 L94.4536238,4.47609809 C94.6022236,4.39188271 94.6940639,4.23427077 94.6940639,4.06346641 C94.6940639,3.89266205 94.6022236,3.73505011 94.4536238,3.65083473 Z" id="Path" fill="#9EB1FF" fill-rule="nonzero"></path>
            <path d="M273.655588,10.4188634 L270.872472,8.92518822 C270.6989,8.84113187 270.558787,8.70076327 270.474884,8.52687484 L268.983929,5.73868119 C268.80464,5.41787285 268.466294,5.21917808 268.099295,5.21917808 C267.732297,5.21917808 267.393951,5.41787285 267.214662,5.73868119 L265.723707,8.52687484 C265.632238,8.70215989 265.485457,8.84220651 265.306239,8.92518822 L262.523123,10.4188634 C262.202899,10.598479 262.004566,10.9374427 262.004566,11.3051107 C262.004566,11.6727786 262.202899,12.0117423 262.523123,12.1913579 L265.306239,13.6850331 C265.482336,13.7817368 265.627179,13.9268441 265.723707,14.1032621 L267.214662,16.8914558 C267.393951,17.2122641 267.732297,17.4109589 268.099295,17.4109589 C268.466294,17.4109589 268.80464,17.2122641 268.983929,16.8914558 L270.474884,14.1032621 C270.564223,13.9282457 270.702337,13.7829616 270.872472,13.6850331 L273.655588,12.1913579 C273.987541,12.0209834 274.196347,11.6787714 274.196347,11.3051107 C274.196347,10.9314499 273.987541,10.5892379 273.655588,10.4188634 Z" id="Path" fill="#9EB1FF" fill-rule="nonzero"></path>
            <path d="M213.655588,178.418863 L210.872472,176.925188 C210.6989,176.841132 210.558787,176.700763 210.474884,176.526875 L208.983929,173.738681 C208.80464,173.417873 208.466294,173.219178 208.099295,173.219178 C207.732297,173.219178 207.393951,173.417873 207.214662,173.738681 L205.723707,176.526875 C205.632238,176.70216 205.485457,176.842207 205.306239,176.925188 L202.523123,178.418863 C202.202899,178.598479 202.004566,178.937443 202.004566,179.305111 C202.004566,179.672779 202.202899,180.011742 202.523123,180.191358 L205.306239,181.685033 C205.482336,181.781737 205.627179,181.926844 205.723707,182.103262 L207.214662,184.891456 C207.393951,185.212264 207.732297,185.410959 208.099295,185.410959 C208.466294,185.410959 208.80464,185.212264 208.983929,184.891456 L210.474884,182.103262 C210.564223,181.928246 210.702337,181.782962 210.872472,181.685033 L213.655588,180.191358 C213.987541,180.020983 214.196347,179.678771 214.196347,179.305111 C214.196347,178.93145 213.987541,178.589238 213.655588,178.418863 Z" id="Path" fill="#9EB1FF" fill-rule="nonzero"></path>
            <g id="Group" transform="translate(0.812785, 0.000000)" fill-rule="nonzero" stroke="#414D86">
                <circle id="Oval" cx="260.461187" cy="237.872146" r="2.43835616"></circle>
                <path d="M46.1050228,102.182648 C46.1050228,103.304871 45.1952818,104.214612 44.0730594,104.214612 C42.9508369,104.214612 42.0410959,103.304871 42.0410959,102.182648 C42.0410959,101.060426 42.9508369,100.150685 44.0730594,100.150685 C45.1952818,100.150685 46.1050228,101.060426 46.1050228,102.182648 L46.1050228,102.182648 Z" id="Path"></path>
                <path d="M5.32951674,43.2809819 C5.22328489,43.2237396 5.13600633,43.1373741 5.07815883,43.0322537 L4.18873855,41.3772549 C4.0811152,41.1866142 3.87769891,41.0684932 3.6570199,41.0684932 C3.43634089,41.0684932 3.23292459,41.1866142 3.12530125,41.3772549 L2.22621335,43.0322537 C2.1749825,43.1388657 2.09017113,43.2261467 1.98452305,43.2809819 L0.312026203,44.2376286 C0.119369925,44.344126 0,44.5454141 0,44.7637843 C0,44.9821545 0.119369925,45.1834426 0.312026203,45.28994 L1.98452305,46.170055 C2.09017113,46.2248901 2.1749825,46.3121712 2.22621335,46.4187831 L3.12530125,48.0642155 C3.22848994,48.2604545 3.4334662,48.3835616 3.6570199,48.3835616 C3.88057359,48.3835616 4.08554985,48.2604545 4.18873855,48.0642155 L5.07815883,46.4187831 C5.13600633,46.3136627 5.22328489,46.2272973 5.32951674,46.170055 L6.99234598,45.28994 C7.19065974,45.1878309 7.31506849,44.9849991 7.31506849,44.7637843 C7.31506849,44.5425695 7.19065974,44.3397377 6.99234598,44.2376286 L5.32951674,43.2809819 Z" id="Path"></path>
                <path d="M301.329517,72.2809819 C301.223285,72.2237396 301.136006,72.1373741 301.078159,72.0322537 L300.188739,70.3772549 C300.081115,70.1866142 299.877699,70.0684932 299.65702,70.0684932 C299.436341,70.0684932 299.232925,70.1866142 299.125301,70.3772549 L298.226213,72.0322537 C298.174983,72.1388657 298.090171,72.2261467 297.984523,72.2809819 L296.312026,73.2376286 C296.11937,73.344126 296,73.5454141 296,73.7637843 C296,73.9821545 296.11937,74.1834426 296.312026,74.28994 L297.984523,75.170055 C298.090171,75.2248901 298.174983,75.3121712 298.226213,75.4187831 L299.125301,77.0642155 C299.22849,77.2604545 299.433466,77.3835616 299.65702,77.3835616 C299.880574,77.3835616 300.08555,77.2604545 300.188739,77.0642155 L301.078159,75.4187831 C301.136006,75.3136627 301.223285,75.2272973 301.329517,75.170055 L302.992346,74.28994 C303.19066,74.1878309 303.315068,73.9849991 303.315068,73.7637843 C303.315068,73.5425695 303.19066,73.3397377 302.992346,73.2376286 L301.329517,72.2809819 Z" id="Path"></path>
                <path d="M94.4536238,2.43165665 L93.1540711,1.7297085 C93.0693211,1.69243721 93.0016267,1.62474283 92.9643554,1.53999279 L92.2624073,0.240440138 C92.1781919,0.0918403467 92.02058,0 91.8497756,0 C91.6789712,0 91.5213593,0.0918403467 91.4371439,0.240440138 L90.7446816,1.53999279 C90.7019331,1.62085073 90.6358238,1.68696004 90.5549658,1.7297085 L89.2554132,2.43165665 C89.1013032,2.51156531 89.0045662,2.67069313 89.0045662,2.84428833 C89.0045662,3.01788353 89.1013032,3.17701135 89.2554132,3.25692001 L90.5549658,3.94938237 C90.6315618,3.99768079 90.6963831,4.06250215 90.7446816,4.13909808 L91.4371439,5.43865073 C91.5170526,5.59276076 91.6761804,5.68949772 91.8497756,5.68949772 C92.0233708,5.68949772 92.1824986,5.59276076 92.2624073,5.43865073 L92.9643554,4.13909808 C93.0071039,4.05824014 93.0732132,3.99213083 93.1540711,3.94938237 L94.4536238,3.25692001 C94.6022236,3.17270463 94.6940639,3.01509269 94.6940639,2.84428833 C94.6940639,2.67348397 94.6022236,2.51587203 94.4536238,2.43165665 Z" id="Path"></path>
                <path d="M273.655588,9.19968531 L270.872472,7.70601014 C270.6989,7.62195379 270.558787,7.48158519 270.474884,7.30769676 L268.983929,4.51950311 C268.80464,4.19869477 268.466294,4 268.099295,4 C267.732297,4 267.393951,4.19869477 267.214662,4.51950311 L265.723707,7.30769676 C265.632238,7.48298181 265.485457,7.62302843 265.306239,7.70601014 L262.523123,9.19968531 C262.202899,9.37930089 262.004566,9.71826459 262.004566,10.0859326 C262.004566,10.4536006 262.202899,10.7925643 262.523123,10.9721798 L265.306239,12.465855 C265.482336,12.5625587 265.627179,12.707666 265.723707,12.8840841 L267.214662,15.6722777 C267.393951,15.9930861 267.732297,16.1917808 268.099295,16.1917808 C268.466294,16.1917808 268.80464,15.9930861 268.983929,15.6722777 L270.474884,12.8840841 C270.564223,12.7090676 270.702337,12.5637835 270.872472,12.465855 L273.655588,10.9721798 C273.987541,10.8018053 274.196347,10.4595933 274.196347,10.0859326 C274.196347,9.71227187 273.987541,9.37005984 273.655588,9.19968531 Z" id="Path"></path>
                <path d="M213.655588,177.199685 L210.872472,175.70601 C210.6989,175.621954 210.558787,175.481585 210.474884,175.307697 L208.983929,172.519503 C208.80464,172.198695 208.466294,172 208.099295,172 C207.732297,172 207.393951,172.198695 207.214662,172.519503 L205.723707,175.307697 C205.632238,175.482982 205.485457,175.623028 205.306239,175.70601 L202.523123,177.199685 C202.202899,177.379301 202.004566,177.718265 202.004566,178.085933 C202.004566,178.453601 202.202899,178.792564 202.523123,178.97218 L205.306239,180.465855 C205.482336,180.562559 205.627179,180.707666 205.723707,180.884084 L207.214662,183.672278 C207.393951,183.993086 207.732297,184.191781 208.099295,184.191781 C208.466294,184.191781 208.80464,183.993086 208.983929,183.672278 L210.474884,180.884084 C210.564223,180.709068 210.702337,180.563783 210.872472,180.465855 L213.655588,178.97218 C213.987541,178.801805 214.196347,178.459593 214.196347,178.085933 C214.196347,177.712272 213.987541,177.37006 213.655588,177.199685 Z" id="Path"></path>
            </g>
            <path d="M163.504566,132.795683 L163.504566,270.719178 L150.504566,270.719178 L150.504566,134.652826 L163.504566,132.795683 Z" id="Rectangle" stroke="#414D86" fill="#6F7CBD"></path>
            <path d="M202.004566,36.2191781 C217.836729,36.2191781 230.671233,49.0536819 230.671233,64.8858447 L230.671233,123.219178 L173.3379,131.219178" id="Rectangle" stroke="#414D86"></path>
            <polyline id="Rectangle" stroke="#414D86" transform="translate(151.004566, 86.713683) rotate(-180.000000) translate(-151.004566, -86.713683) " points="99.0045662 46.2081888 171.004566 36.2191781 203.004566 132.208189 99.0045662 137.208189"></polyline>
            <path d="M96.3378995,41.2191781 C115.483771,41.2191781 131.004566,56.7399734 131.004566,75.8858447 L131.004566,137.219178 L131.004566,137.219178 L61.6712329,129.219178 L61.6712329,75.8858447 C61.6712329,56.7399734 77.1920282,41.2191781 96.3378995,41.2191781 Z" id="Rectangle" stroke="#414D86" fill="#6F7CBD"></path>
            <path d="M74.6712329,129.219178 C95.1883687,129.219178 113.217191,142.826541 118.842252,162.55752 L131.004566,205.219178 L131.004566,205.219178 L61.6712329,213.219178 L48.6629755,162.787165 C44.9579848,148.423201 53.5987898,133.775419 67.9627538,130.070428 C70.1541221,129.505194 72.4081411,129.219178 74.6712329,129.219178 Z" id="Rectangle" stroke="#6F7CBD" transform="translate(85.504566, 171.219178) scale(1, -1) translate(-85.504566, -171.219178) "></path>
            <polygon id="Rectangle" fill="#FF6E61" transform="translate(182.285167, 83.752095) rotate(-180.000000) translate(-182.285167, -83.752095) " points="166.304414 77.296002 153.004566 78.9159173 153.004566 90.2081888 211.565768 83.296002 211.565768 80.296002 166.304414 85.5337268"></polygon>
            <path d="M149.792,94.1977874 C151.953832,93.8417757 153.648345,92.0991066 153.931685,89.9136349 C153.959234,89.7011413 153.973443,89.4844616 153.973443,89.2644633 C153.973443,88.8930482 153.932945,88.5310917 153.856126,88.1827685 C153.758246,87.7389526 153.601398,87.3172699 153.394218,86.9263558 C152.555071,85.343027 150.890213,84.2644633 148.973443,84.2644633 C147.555796,84.2644633 146.275949,84.854449 145.366041,85.8022787 C144.503546,86.7007204 143.973443,87.9206857 143.973443,89.2644633 C143.973443,90.3358359 144.310409,91.3285058 144.884142,92.1422722 C145.397106,92.869847 146.099338,93.454409 146.919221,93.8243431" id="Oval" stroke="#414D86" transform="translate(148.973443, 89.231125) rotate(-109.000000) translate(-148.973443, -89.231125) "></path>
            <polygon id="Rectangle" stroke="#414D86" transform="translate(180.285167, 86.752095) rotate(-180.000000) translate(-180.285167, -86.752095) " points="164.304414 80.296002 151.004566 81.9159173 151.004566 93.2081888 209.565768 86.296002 209.565768 83.296002 164.304414 88.5337268"></polygon>
            <path d="M93.1575815,87.9768719 C92.028552,66.433112 88.4562153,52.5886606 82.4405712,46.4435177 C73.4171052,37.2258035 64.3076206,44.5053391 68.1190652,49.4487168 C70.5570264,52.6107105 76.7110895,53.227213 78.1562129,47.6577471 C78.9703575,44.5200566 78.289932,39.419002 74.6084623,31.7036328 C67.7976923,17.4300931 53.9798004,13.0959619 33.1547868,18.701239" id="Path-24" stroke="#9EB1FF" stroke-dasharray="4,3" transform="translate(63.156184, 52.153655) scale(-1, 1) rotate(73.000000) translate(-63.156184, -52.153655) "></path>
            <ellipse id="Oval" stroke="#9EB1FF" transform="translate(45.583576, 6.677191) rotate(-44.000000) translate(-45.583576, -6.677191) " cx="45.5835759" cy="6.67719053" rx="1.5" ry="1"></ellipse>
            <path d="M45.882,6.542 L45.9032473,6.63954075 C46.0063967,7.13696127 46.1108578,7.8314994 46.1180873,8.62298 C46.1238275,9.25141049 45.9378622,9.74688861 45.6713606,10.0914544 C45.5214417,10.2852877 45.3480748,10.4297651 45.1750673,10.5173277 C45.0523481,10.5794384 44.930507,10.6220546 44.830485,10.5975819 C44.7343665,10.5740643 44.6533958,10.4776555 44.5784924,10.3686747 C44.4660061,10.2050125 44.380575,9.98932231 44.3399776,9.7433077 C44.2692599,9.31476788 44.337973,8.79881142 44.6397633,8.28006025 C44.9145342,7.80775332 45.2125705,7.38364814 45.4865237,7.02944357 C45.6728823,6.78849339 45.8481855,6.57981865 45.997726,6.41027866 L45.882,6.542 Z" id="Oval" stroke="#9EB1FF"></path>
            <path d="M43.2388895,5.89168487 C44.0174286,5.86129503 44.7381576,5.9192959 45.2797869,5.98913979 C44.9659337,6.3892302 44.4153976,6.85297175 43.7219194,7.2867448 C43.1767669,7.62773956 42.6451097,7.73615928 42.2021168,7.69660721 C41.9537181,7.67442924 41.7357188,7.60656658 41.5673704,7.50840596 C41.4680984,6.7734538 41.6099514,6.58754562 41.8017916,6.42274576 C42.1378425,6.13406204 42.6247212,5.91565859 43.2388895,5.89168487 Z" id="Oval" stroke="#9EB1FF"></path>
        </g>
    </g>
</svg>