<svg width="453" height="597" viewBox="0 0 453 597" xmlns="http://www.w3.org/2000/svg" style="background:#06081c">
    <g fill="none" fill-rule="evenodd">
        <path fill="#06081C" d="M0 0h453v597H0z"/>
        <path fill="#748FFF" fill-rule="nonzero" d="M.128.165H452.8v33H.128z"/>
        <path fill="#06081C" fill-rule="nonzero" d="M48.024 45.478H.403L24.213 0h47.621zM143.265 45.478h-47.62L119.455 0h47.62zM333.749 45.661h-47.621L309.938.165h47.621zM427.543 45.661h-47.62L403.732.165h47.62zM238.763 45.478h-47.62L214.953 0h47.62z"/>
        <g transform="translate(36.119 53.857)">
            <ellipse fill="#8DA4FA" fill-rule="nonzero" cx="380.215" cy="190.758" rx="2.125" ry="2.198"/>
            <path d="M4.344 33.912c.223.74-.129 1.517-.884 1.952a2.582 2.582 0 0 1-2.51 0c-.755-.435-1.107-1.212-.884-1.952-.223-.74.13-1.517.884-1.951a2.582 2.582 0 0 1 2.51 0c.755.434 1.107 1.211.884 1.951z" fill="#6F7CBD" fill-rule="nonzero"/>
            <path d="M6.352 33.784a1.832 1.832 0 1 1-3.663 0 1.832 1.832 0 0 1 3.663 0z" stroke="#1F2A3B" stroke-width=".5"/>
            <path d="M41.448 54.819a.513.513 0 0 1-.22-.22l-.787-1.502a.531.531 0 0 0-.458-.275.568.568 0 0 0-.477.275l-.769 1.502a.623.623 0 0 1-.22.22l-1.465.86a.586.586 0 0 0-.275.477.55.55 0 0 0 .275.476l1.465.806a.513.513 0 0 1 .22.22l.77 1.483c.09.18.274.294.476.293a.495.495 0 0 0 .458-.293l.787-1.483a.421.421 0 0 1 .22-.22l1.447-.806a.531.531 0 0 0 0-.952l-1.447-.861zM363.358 38.745l-2.747-1.52a.934.934 0 0 1-.403-.44l-1.465-2.857a1.007 1.007 0 0 0-.88-.531.97.97 0 0 0-.86.53l-1.502 2.858a.897.897 0 0 1-.403.421l-2.748 1.52a1.062 1.062 0 0 0 0 1.832l2.748 1.52c.177.092.32.24.403.421l1.483 2.858a.97.97 0 0 0 .861.53c.368-.002.705-.206.88-.53l1.465-2.858a.934.934 0 0 1 .42-.42l2.748-1.484c.343-.175.557-.53.55-.916.01-.39-.204-.753-.55-.934z" fill="#6F7CBD" fill-rule="nonzero"/>
            <path d="m364.86 37.133-2.747-1.539a.989.989 0 0 1-.403-.42l-1.465-2.876a1.007 1.007 0 0 0-.88-.532.97.97 0 0 0-.86.532l-1.466 2.875a.934.934 0 0 1-.421.421l-2.747 1.539a1.062 1.062 0 0 0 0 1.832l2.674 1.483c.182.09.33.239.421.421l1.465 2.876a.97.97 0 0 0 .861.531c.368-.003.705-.207.88-.531l1.465-2.876a.989.989 0 0 1 .402-.42l2.748-1.503a1.044 1.044 0 0 0 0-1.831l.073.018z" stroke="#414D86" stroke-width=".5"/>
            <path d="m10.74 140.927-1.831-.971a.989.989 0 0 1-.275-.275L7.7 137.85a.623.623 0 0 0-1.136 0l-.934 1.831a.788.788 0 0 1-.275.275l-1.831.97a.678.678 0 0 0-.348.587.696.696 0 0 0 .348.586l1.831.97c.113.06.207.149.275.257l.934 1.832a.641.641 0 0 0 1.136 0l.934-1.832a.733.733 0 0 1 .275-.256l1.831-.971a.696.696 0 0 0 .33-.586.66.66 0 0 0-.33-.586z" fill="#6F7CBD" fill-rule="nonzero"/>
            <path d="m12.792 140.579-1.832-.971a.513.513 0 0 1-.275-.275l-.934-1.831a.623.623 0 0 0-1.135 0l-.934 1.831a.568.568 0 0 1-.275.275l-1.832.97a.678.678 0 0 0-.348.605.66.66 0 0 0 .348.586l1.832.97a.989.989 0 0 1 .275.276l.934 1.831a.623.623 0 0 0 .567.348c.24 0 .459-.135.568-.348l.934-1.831a.989.989 0 0 1 .275-.275l1.832-.97a.678.678 0 0 0 .348-.587.678.678 0 0 0-.348-.604z" stroke="#414D86" stroke-width=".5"/>
            <path d="m284.662 110.773-1.136-.622a.366.366 0 0 1-.164-.165l-.605-1.19a.44.44 0 0 0-.732 0l-.605 1.19a.476.476 0 0 1-.165.165l-1.135.622a.44.44 0 0 0-.22.385.44.44 0 0 0 .22.366l1.135.623c.07.047.126.11.165.183l.605 1.172a.421.421 0 0 0 .732 0l.605-1.172a.403.403 0 0 1 .164-.183l1.136-.623a.44.44 0 0 0 .22-.366.476.476 0 0 0-.22-.385z" fill="#9EB1FF" fill-rule="nonzero"/>
            <ellipse stroke="#1F2A3B" stroke-width=".5" cx="330.744" cy="190.74" rx="2.125" ry="2.216"/>
            <path d="M43.481 53.958a.513.513 0 0 1-.22-.22l-.787-1.502a.495.495 0 0 0-.458-.274.476.476 0 0 0-.458.274l-.788 1.502a.513.513 0 0 1-.22.22l-1.446.88a.55.55 0 0 0 0 .952l1.446.805a.513.513 0 0 1 .22.22l.788 1.484a.513.513 0 0 0 .916 0l.787-1.484a.421.421 0 0 1 .22-.22l1.447-.805a.55.55 0 0 0 0-.953l-1.447-.879zM310.86 423.133l-2.747-1.539a.99.99 0 0 1-.403-.42l-1.465-2.876a1.007 1.007 0 0 0-.88-.532.97.97 0 0 0-.86.532l-1.466 2.875a.934.934 0 0 1-.421.421l-2.747 1.539a1.062 1.062 0 0 0 0 1.832l2.674 1.483c.182.09.33.239.421.421l1.465 2.876a.97.97 0 0 0 .861.531c.368-.003.705-.207.88-.531l1.465-2.876a.989.989 0 0 1 .402-.42l2.748-1.503a1.044 1.044 0 0 0 0-1.831l.073.018zM286.182 110.279l-1.135-.641a.33.33 0 0 1-.165-.183l-.605-1.173a.403.403 0 0 0-.366-.22.385.385 0 0 0-.348.22l-.604 1.173a.531.531 0 0 1-.165.183l-1.08.64a.366.366 0 0 0-.22.367c-.008.155.079.3.22.366l1.135.641c.064.046.12.101.165.165l.604 1.19c.064.135.2.22.348.22a.421.421 0 0 0 .366-.22l.605-1.19a.476.476 0 0 1 .165-.165l1.135-.64a.421.421 0 0 0 0-.733h-.055z" stroke="#414D86" stroke-width=".5"/>
            <path d="m172.588 4.725-2.436-1.355a.806.806 0 0 1-.348-.348l-1.3-2.546a.86.86 0 0 0-.77-.476.88.88 0 0 0-.769.476l-1.3 2.546a.952.952 0 0 1-.366.348l-2.436 1.355a.934.934 0 0 0-.44.806.916.916 0 0 0 .44.806l2.436 1.356c.152.095.278.227.366.384l1.3 2.528a.88.88 0 0 0 .77.476.86.86 0 0 0 .769-.476l1.3-2.528a.88.88 0 0 1 .348-.384l2.436-1.356a.898.898 0 0 0 .477-.806.934.934 0 0 0-.477-.806z" stroke="#1F2A3B" stroke-width=".5"/>
            <path d="m175.482 5.385-2.4-1.337a.714.714 0 0 1-.347-.348l-1.3-2.546a.897.897 0 0 0-1.557 0l-1.3 2.546a.75.75 0 0 1-.367.348l-2.418 1.355a.952.952 0 0 0-.458.806c0 .33.174.637.458.806l2.418 1.355c.161.085.29.22.366.385l1.3 2.527a.88.88 0 0 0 1.557 0l1.3-2.527a.88.88 0 0 1 .349-.385l2.417-1.355a.898.898 0 0 0 .477-.806.934.934 0 0 0-.495-.824z" fill="#6F7CBD" fill-rule="nonzero"/>
        </g>
        <path fill="#748FFF" fill-rule="nonzero" d="M0 563.835h452.672v33H0z"/>
        <path fill="#06081C" fill-rule="nonzero" d="M47.877 596.835H.257l23.81-45.478h47.62zM143.119 596.835H95.498l23.81-45.478h47.621zM333.602 597h-47.62l23.81-45.478h47.62zM427.415 597h-47.62l23.81-45.478h47.62zM238.635 596.835h-47.62l23.81-45.478h47.62z"/>
        <g transform="translate(77.496 160.474)">
            <path d="M119.294 84.414c-23.351 4.89-41.485 23.5-45.945 47.154-4.46 23.653 5.632 47.69 25.57 60.9a58.489 58.489 0 0 0 65.511-.55c19.717-13.544 29.412-37.747 24.562-61.322-6.635-32.172-37.825-52.839-69.698-46.182zm17.933 87.443c-11.676 2.443-23.659-2.457-30.361-12.413-6.703-9.957-6.805-23.01-.259-33.072 6.546-10.062 18.452-15.152 30.164-12.896 11.712 2.257 20.925 11.414 23.342 23.203 3.3 16.095-6.946 31.844-22.886 35.178z" stroke="#414D86" fill="#06081C" fill-rule="nonzero"/>
            <ellipse fill="#748FFF" fill-rule="nonzero" cx="153.233" cy="46.943" rx="31.387" ry="31.691"/>
            <path d="M143.8.968c-18.227 3.799-32.392 18.311-35.888 36.768-3.496 18.457 4.366 37.223 19.918 47.545a45.643 45.643 0 0 0 51.128-.396c15.394-10.56 22.97-29.446 19.195-47.847C193 11.93 168.673-4.215 143.8.968zM115.317 46.02c-1.983-4.422-.041-9.63 4.338-11.633 4.379-2.003 9.537-.044 11.522 4.377 1.986 4.42.047 9.63-4.33 11.635a8.63 8.63 0 0 1-6.665.223 8.741 8.741 0 0 1-4.865-4.602zm25.677 35.83a8.643 8.643 0 0 1-9.552-1.574 8.85 8.85 0 0 1-2.209-9.514c1.238-3.33 4.343-5.579 7.864-5.696 3.521-.118 6.766 1.919 8.219 5.16 1.98 4.415.047 9.615-4.322 11.625zM139.1 20.445c-1.985-4.418-.05-9.625 4.324-11.634 4.375-2.009 9.534-.059 11.527 4.356 1.993 4.415.066 9.626-4.305 11.642-4.382 2.001-9.542.051-11.546-4.364zm37.334 55.387c-4.38 2.002-9.537.041-11.521-4.38s-.044-9.63 4.335-11.634c4.378-2.004 9.537-.047 11.523 4.373a8.853 8.853 0 0 1 .227 6.73 8.74 8.74 0 0 1-4.564 4.911zm8.123-33.442c-4.379 1.997-9.532.036-11.515-4.383-1.983-4.418-.046-9.624 4.328-11.63 4.374-2.008 9.531-.058 11.524 4.356a8.869 8.869 0 0 1 .236 6.747 8.757 8.757 0 0 1-4.573 4.926v-.016z" stroke="#9EB1FF" fill="#06081C" fill-rule="nonzero"/>
            <ellipse fill="#748FFF" fill-rule="nonzero" cx="46.106" cy="86.278" rx="31.387" ry="31.691"/>
            <path d="M36.674 40.303C11.803 45.503-4.184 70.075.964 95.187c5.148 25.112 29.483 41.257 54.355 36.062 24.872-5.195 40.865-29.763 35.723-54.876-2.47-12.064-9.587-22.642-19.784-29.407a45.63 45.63 0 0 0-34.584-6.663zM8.284 85.354c-1.982-4.412-.047-9.61 4.322-11.613 4.37-2.003 9.52-.051 11.505 4.36 1.985 4.41.054 9.61-4.314 11.617a8.63 8.63 0 0 1-6.697.259 8.74 8.74 0 0 1-4.895-4.623h.079zm25.661 35.815c-4.37 2.001-9.519.047-11.502-4.364-1.983-4.412-.05-9.611 4.318-11.616 4.368-2.004 9.519-.054 11.506 4.355 1.96 4.437-.009 9.64-4.4 11.625h.078zm-1.877-61.39a8.855 8.855 0 0 1 1.56-9.644 8.649 8.649 0 0 1 9.423-2.23c3.298 1.25 5.526 4.384 5.642 7.939.116 3.555-1.901 6.831-5.11 8.298a8.645 8.645 0 0 1-6.696.253 8.757 8.757 0 0 1-4.897-4.616h.078zm37.334 55.37a8.643 8.643 0 0 1-9.552-1.574 8.85 8.85 0 0 1-2.209-9.514c1.238-3.33 4.342-5.579 7.864-5.696 3.52-.118 6.765 1.919 8.219 5.16a8.869 8.869 0 0 1 .188 6.734 8.755 8.755 0 0 1-4.589 4.89h.079zm8.107-33.441c-4.379 1.997-9.532.035-11.515-4.383-1.983-4.419-.046-9.624 4.328-11.631 4.374-2.007 9.531-.058 11.524 4.356a8.869 8.869 0 0 1 .211 6.777 8.755 8.755 0 0 1-4.627 4.912l.079-.031z" stroke="#9EB1FF" fill="#06081C" fill-rule="nonzero"/>
            <ellipse stroke="#9EB1FF" fill="#06081C" fill-rule="nonzero" cx="146.403" cy="192.21" rx="34.668" ry="35.003"/>
            <ellipse stroke="#9EB1FF" fill="#06081C" fill-rule="nonzero" cx="146.403" cy="192.21" rx="27.665" ry="27.932"/>
            <path d="m188.824 179.466 1.639 8.107a6.97 6.97 0 0 1-5.425 8.208l-73.973 15.242a6.97 6.97 0 0 1-8.238-5.446l-1.64-8.107a6.97 6.97 0 0 1 5.426-8.207l73.973-15.243a6.97 6.97 0 0 1 8.238 5.446z" stroke="#9EB1FF" fill="#06081C" fill-rule="nonzero"/>
            <path d="m55.048 121.57 142.076-29.707a2.88 2.88 0 0 1 3.41 2.24l16.153 78.753a2.88 2.88 0 0 1-2.232 3.397L72.38 205.96a2.88 2.88 0 0 1-3.411-2.24l-16.153-78.753a2.88 2.88 0 0 1 2.232-3.397z" stroke="#9EB1FF" fill="#06081C" fill-rule="nonzero"/>
            <path d="m188.5 104.05 13.233 64.464c-1.94.733-87.663 18.919-87.663 18.919-2.176.43-4.289-.992-4.732-3.185l-.426-2.086a1.68 1.68 0 0 0 .347-.16c10.696-5.68 14.947-18.943 9.574-29.875-3.435-7.356-10.613-12.196-18.659-12.58l-.442-2.134c-1.764-7.945 3.175-15.833 11.041-17.629 0 0 75.676-15.622 77.727-15.734zM106.483 256.18l-21.009 34.223c-6.057-2.293-11.04-5.685-12.902-12.007l28.39-26.977 5.521 4.762z" stroke="#9EB1FF"/>
            <path d="m67.185 167.43-10.88 2.275a.77.77 0 0 1-.911-.599l-4.732-23.067a.77.77 0 0 1 .597-.909l10.88-2.274a.77.77 0 0 1 .911.599l4.732 23.067a.77.77 0 0 1-.597.909z" stroke="#9EB1FF" fill="#06081C" fill-rule="nonzero"/>
            <path stroke="#414D86" fill="#06081C" fill-rule="nonzero" d="m11.012 149.054 32.523 2.436 2.602 12.66-28.374 16.021z"/>
            <path fill="#FF6E61" fill-rule="nonzero" d="m7.018 154.305 32.749 2.453 2.62 12.749-28.571 16.131z"/>
            <path stroke="#9EB1FF" d="m106.94 249.699 22.65-26.881M155.63 232.15l16.687 71.216M162.223 229.761l39.037 65.452M148.627 233.44l-3.107 75.086"/>
            <ellipse stroke="#11112D" cx="95.458" cy="162.813" rx="15.694" ry="15.845"/>
            <ellipse stroke="#9EB1FF" cx="95.458" cy="162.813" rx="15.694" ry="15.845"/>
            <path fill="#06081C" fill-rule="nonzero" d="m322.345 119.688-92.237-15.479-6.152-29.97 77.696-51.056z"/>
            <path d="m197.415 101.13 17.183-3.592a.99.99 0 0 1 1.172.77l4.925 24.01a.99.99 0 0 1-.768 1.167l-17.182 3.593a.99.99 0 0 1-1.173-.77l-4.924-24.01a.99.99 0 0 1 .767-1.167z" stroke="#9EB1FF" fill="#06081C" fill-rule="nonzero"/>
            <path stroke="#9EB1FF" fill="#06081C" d="m323.12 145.008-91.328-11.459-8.61-41.894 77.83-49.647z"/>
            <path d="m105.742 263.427-24.558 39.971c-7.082-2.675-12.839-6.64-15.079-14.03l33.123-31.515 6.514 5.574z" fill="#FF6E61" fill-rule="nonzero"/>
            <g transform="translate(36.129 157.748)" fill-rule="nonzero" stroke="#9EB1FF">
                <path d="M52.673 1.482 1.144 86.632c-1.687 2.596-1.482 5.734.442 7.008 1.94 1.29 4.874.223 6.546-2.357L65.133 9.73S65.86 3.043 61.98.893c-2.823-2.31-9.306.59-9.306.59z" fill="#06081C"/>
                <ellipse cx="56.869" cy="8.808" rx="4.022" ry="4.061"/>
            </g>
            <ellipse stroke="#9EB1FF" cx="154.794" cy="45.096" rx="6.183" ry="6.243"/>
            <ellipse stroke="#9EB1FF" cx="44.828" cy="87.265" rx="6.183" ry="6.243"/>
            <ellipse stroke="#9EB1FF" cx="174.778" cy="121.297" rx="6.183" ry="6.243"/>
            <path stroke="#9EB1FF" d="m90.442 169.693 5.126-6.275M170.488 117.077l8.596 8.679"/>
        </g>
        <path d="M0 0h453v596.835H0z"/>
    </g>
</svg>
