<?xml version="1.0" encoding="UTF-8"?>
<svg width="250px" height="250px" viewBox="0 0 250 250" version="1.1" xmlns="http://www.w3.org/2000/svg" xmlns:xlink="http://www.w3.org/1999/xlink">
    <defs>
        <filter x="-181.1%" y="-77.1%" width="462.2%" height="254.1%" filterUnits="objectBoundingBox" id="filter-1">
            <feGaussianBlur stdDeviation="7" in="SourceGraphic"></feGaussianBlur>
        </filter>
        <filter x="-62.4%" y="-214.6%" width="224.8%" height="529.2%" filterUnits="objectBoundingBox" id="filter-2">
            <feGaussianBlur stdDeviation="7" in="SourceGraphic"></feGaussianBlur>
        </filter>
    </defs>
    <g id="Illustrations/250px/profil_user" stroke="none" stroke-width="1" fill="none" fill-rule="evenodd">
        <g id="noun_Laurel-Wreath_14389" transform="translate(40.000000, 50.000000)" fill-rule="nonzero">
            <path d="M79.4703297,130.0425 C79.4703297,130.0425 77.321978,136.468125 64.3646154,137.85375 C51.4072527,139.24125 45.8794505,136.468125 45.8794505,136.468125 C45.8794505,136.468125 54.5176923,129.70875 62.8103297,129.36 C71.102967,129.013125 79.4703297,130.0425 79.4703297,130.0425 Z" id="Path" stroke="#414D86" stroke-width="2" fill="#6F7CBD" stroke-linejoin="round"></path>
            <path d="M79.4703297,130.0425 C79.4703297,130.0425 80.4454945,123.320625 69.7149451,115.90125 C58.9825275,108.48375 52.8046154,108.2775 52.8046154,108.2775 C52.8046154,108.2775 56.3503297,117.436875 64.9867033,122.799375 C72.0445055,127.18125 79.4703297,130.0425 79.4703297,130.0425 Z" id="Path" stroke="#414D86" stroke-width="2" stroke-linejoin="round"></path>
            <path d="M64.1049451,125.28375 C64.1049451,125.28375 57.4973626,122.29125 47.5196703,122.29125 C37.541978,122.29125 30.0283516,127.494375 30.0283516,127.494375 C30.0283516,127.494375 37.4130769,130.483126 48.039011,130.483126 C58.6630769,130.485 64.1049451,125.28375 64.1049451,125.28375 Z" id="Path" stroke="#414D86" stroke-width="2" fill="#6F7CBD" stroke-linejoin="round"></path>
            <path d="M51.8910989,118.9125 C51.8910989,118.9125 51.3549451,111.65625 46.5930769,102.85875 C41.8312088,94.0575 33.6898901,89.91375 33.6898901,89.91375 C33.6898901,89.91375 34.5959341,97.854375 39.6679121,107.225625 C44.7398901,116.595 51.8910989,118.9125 51.8910989,118.9125 Z" id="Path" stroke="#414D86" stroke-width="2" stroke-linejoin="round"></path>
            <path d="M46.9087912,118.006875 C46.9087912,118.006875 41.182967,113.544375 31.4836264,111.200625 C21.7842857,108.855 13.2656044,112.145625 13.2656044,112.145625 C13.2656044,112.145625 19.748022,116.791875 30.0787912,119.289375 C40.4058242,121.785 46.9087912,118.006875 46.9087912,118.006875 Z" id="Path" stroke="#414D86" stroke-width="2" stroke-linejoin="round"></path>
            <path d="M38.3228571,110.270625 C38.3228571,110.270625 34.7584615,103.936875 26.7142857,98.011875 C18.6701099,92.086875 9.54802198,91.816875 9.54802198,91.816875 C9.54802198,91.816875 13.7401099,98.61375 22.3036264,104.925 C30.869011,111.234375 38.3228571,110.270625 38.3228571,110.270625 Z" id="Path" stroke="#414D86" stroke-width="2" stroke-linejoin="round"></path>
            <path d="M29.7985714,97.243125 C29.7985714,97.243125 32.2121978,90.7575 31.5807692,81.253125 C30.9512088,71.746875 25.5579121,64.914375 25.5579121,64.914375 C25.5579121,64.914375 23.1928571,72.140625 23.8635165,82.265625 C24.536044,92.385 29.7985714,97.243125 29.7985714,97.243125 Z" id="Path" stroke="#414D86" stroke-width="2" fill="#6F7CBD" stroke-linejoin="round"></path>
            <path d="M23.0303297,91.09875 C23.0303297,91.09875 20.5494505,85.3275 14.1847253,79.49625 C7.81813187,73.663125 0.0056043956,72.58875 0.0056043956,72.58875 C0.0056043956,72.58875 2.98153846,78.815625 9.76098901,85.025625 C16.5385714,91.235625 23.0303297,91.09875 23.0303297,91.09875 Z" id="Path" stroke="#414D86" stroke-width="2" fill="#6F7CBD" stroke-linejoin="round"></path>
            <path d="M19.1913187,78.3075 C19.1913187,78.3075 18.8849451,72.028125 14.9618681,64.325625 C11.0387912,56.623125 4.09868132,52.865625 4.09868132,52.865625 C4.09868132,52.865625 4.71142857,59.743125 8.88857143,67.94625 C13.0657143,76.15125 19.1913187,78.3075 19.1913187,78.3075 Z" id="Path" stroke="#414D86" stroke-width="2" fill="#6F7CBD" stroke-linejoin="round"></path>
            <path d="M14.5124176,62.5725 C14.5124176,62.5725 15.0504396,56.31 12.1959341,48.148125 C9.33956044,39.984375 2.96736264,35.325 2.96736264,35.325 C2.96736264,35.325 2.65164835,42.223125 5.6910989,50.91375 C8.73054945,59.61 14.5124176,62.5725 14.5124176,62.5725 Z" id="Path" fill="#FF746C" filter="url(#filter-1)"></path>
            <path d="M14.5124176,62.5725 C14.5124176,62.5725 15.0504396,56.31 12.1959341,48.148125 C9.33956044,39.984375 2.96736264,35.325 2.96736264,35.325 C2.96736264,35.325 2.65164835,42.223125 5.6910989,50.91375 C8.73054945,59.61 14.5124176,62.5725 14.5124176,62.5725 Z" id="Path" fill="#FF746C"></path>
            <path d="M16.5124176,59.5725 C16.5124176,59.5725 17.0504396,53.31 14.1959341,45.148125 C11.3395604,36.984375 4.96736264,32.325 4.96736264,32.325 C4.96736264,32.325 4.65164835,39.223125 7.6910989,47.91375 C10.7305495,56.61 16.5124176,59.5725 16.5124176,59.5725 Z" id="Path" stroke="#414D86" stroke-width="2" stroke-linejoin="round"></path>
            <path d="M19.0979121,47.2275 C19.0979121,47.2275 21.9617582,41.638125 22.4045055,32.998125 C22.8472527,24.358125 18.7093407,17.62125 18.7093407,17.62125 C18.7093407,17.62125 15.81,23.881875 15.3373626,33.0825 C14.8647253,42.285 19.0979121,47.2275 19.0979121,47.2275 Z" id="Path" stroke="#414D86" stroke-width="2" fill="#6F7CBD" stroke-linejoin="round"></path>
            <path d="M26.1557143,32.371875 C26.1557143,32.371875 29.8863736,27.324375 31.7227473,18.871875 C33.5572527,10.419375 30.5663736,3.095625 30.5663736,3.095625 C30.5663736,3.095625 26.69,8.80125 24.7359341,17.803125 C22.7818681,26.805 26.1557143,32.371875 26.1557143,32.371875 Z" id="Path" stroke="#414D86" stroke-width="2" fill="#6F7CBD" stroke-linejoin="round"></path>
            <path d="M19.5182418,70.250625 C19.5182418,70.250625 24.182967,66.058125 27.6689011,58.145625 C31.1548352,50.233125 29.6883516,42.455625 29.6883516,42.455625 C29.6883516,42.455625 24.7508791,47.266875 21.0389011,55.69125 C17.3250549,64.1175 19.5182418,70.250625 19.5182418,70.250625 Z" id="Path" stroke="#414D86" stroke-width="2" fill="#6F7CBD" stroke-linejoin="round"></path>
            <path d="M24.6742857,41.97 C24.6742857,41.97 30.6354945,40.044375 37.0301099,34.243125 C43.4228571,28.441875 45.2368132,20.739375 45.2368132,20.739375 C45.2368132,20.739375 38.7768132,23.116875 31.9693407,29.295 C25.1581319,35.473125 24.6742857,41.97 24.6742857,41.97 Z" id="Path" stroke="#414D86" stroke-width="2" fill="#6F7CBD" stroke-linejoin="round"></path>
            <path d="M33.4825275,24.661875 C33.4825275,24.661875 39.1242857,21.928125 44.6595604,15.301875 C50.1967033,8.671875 50.9364835,0.79125 50.9364835,0.79125 C50.9364835,0.79125 44.8650549,4.036875 38.9673626,11.098125 C33.0734066,18.1575 33.4825275,24.661875 33.4825275,24.661875 Z" id="Path" stroke="#414D86" stroke-width="2" stroke-linejoin="round"></path>
            <path d="M80.367033,134.109375 C80.367033,142.81125 66.1038462,152.28 66.1038462,147.65625 C66.1038462,143.0325 80.367033,137.19375 80.367033,134.109375 Z" id="Path" stroke="#414D86" stroke-width="2" stroke-linejoin="round"></path>
            <path d="M88.6297802,134.109375 C88.6297802,142.81125 102.892967,152.28 102.892967,147.65625 C102.892967,143.0325 88.6297802,137.19375 88.6297802,134.109375 Z" id="Path" stroke="#414D86" stroke-width="2" stroke-linejoin="round"></path>
            <path d="M89.5264835,130.0425 C89.5264835,130.0425 91.6748352,136.468125 104.632198,137.85375 C117.58956,139.24125 123.117363,136.468125 123.117363,136.468125 C123.117363,136.468125 114.479121,129.70875 106.186484,129.36 C97.8938462,129.013125 89.5264835,130.0425 89.5264835,130.0425 Z" id="Path" stroke="#414D86" stroke-width="2" fill="#6F7CBD" stroke-linejoin="round"></path>
            <path d="M89.5264835,130.0425 C89.5264835,130.0425 88.5513187,123.320625 99.2818681,115.90125 C110.014286,108.48375 116.192198,108.2775 116.192198,108.2775 C116.192198,108.2775 112.648352,117.436875 104.01011,122.799375 C96.9504396,127.18125 89.5264835,130.0425 89.5264835,130.0425 Z" id="Path" stroke="#414D86" stroke-width="2" stroke-linejoin="round"></path>
            <path d="M104.89,125.28375 C104.89,125.28375 111.499451,122.29125 121.473407,122.29125 C131.452967,122.29125 138.968462,127.494375 138.968462,127.494375 C138.968462,127.494375 131.581868,130.483126 120.955934,130.483126 C110.331868,130.485 104.89,125.28375 104.89,125.28375 Z" id="Path" stroke="#414D86" stroke-width="2" fill="#6F7CBD" stroke-linejoin="round"></path>
            <path d="M117.105714,118.9125 C117.105714,118.9125 117.641868,111.65625 122.401868,102.85875 C127.163736,94.0575 135.305055,89.91375 135.305055,89.91375 C135.305055,89.91375 134.399011,97.854375 129.330769,107.225625 C124.256923,116.595 117.105714,118.9125 117.105714,118.9125 Z" id="Path" stroke="#414D86" stroke-width="2" fill="#6F7CBD" stroke-linejoin="round"></path>
            <path d="M119.088022,121.006875 C119.088022,121.006875 124.811978,116.544375 134.513187,114.200625 C144.212527,111.855 152.731209,115.145625 152.731209,115.145625 C152.731209,115.145625 146.248791,119.791875 135.91989,122.289375 C125.590989,124.785 119.088022,121.006875 119.088022,121.006875 Z" id="Path" fill="#FF746C" filter="url(#filter-2)"></path>
            <path d="M119.088022,121.006875 C119.088022,121.006875 124.811978,116.544375 134.513187,114.200625 C144.212527,111.855 152.731209,115.145625 152.731209,115.145625 C152.731209,115.145625 146.248791,119.791875 135.91989,122.289375 C125.590989,124.785 119.088022,121.006875 119.088022,121.006875 Z" id="Path" fill="#FF746C"></path>
            <path d="M122.088022,118.006875 C122.088022,118.006875 127.811978,113.544375 137.513187,111.200625 C147.212527,108.855 155.731209,112.145625 155.731209,112.145625 C155.731209,112.145625 149.248791,116.791875 138.91989,119.289375 C128.590989,121.785 122.088022,118.006875 122.088022,118.006875 Z" id="Path" stroke="#414D86" stroke-width="2" stroke-linejoin="round"></path>
            <path d="M130.672088,110.270625 C130.672088,110.270625 134.238352,103.936875 142.280659,98.011875 C150.326703,92.086875 159.448791,91.816875 159.448791,91.816875 C159.448791,91.816875 155.258571,98.61375 146.693187,104.925 C138.127802,111.234375 130.672088,110.270625 130.672088,110.270625 Z" id="Path" stroke="#414D86" stroke-width="2" fill="#6F7CBD" stroke-linejoin="round"></path>
            <path d="M139.198242,97.243125 C139.198242,97.243125 136.784615,90.7575 137.414176,81.253125 C138.045604,71.746875 143.438901,64.914375 143.438901,64.914375 C143.438901,64.914375 145.803956,72.140625 145.131429,82.265625 C144.460769,92.385 139.198242,97.243125 139.198242,97.243125 Z" id="Path" stroke="#414D86" stroke-width="2" stroke-linejoin="round"></path>
            <path d="M145.966484,91.09875 C145.966484,91.09875 148.447363,85.3275 154.812088,79.49625 C161.178681,73.663125 168.993077,72.58875 168.993077,72.58875 C168.993077,72.58875 166.013407,78.815625 159.235824,85.025625 C152.456374,91.235625 145.966484,91.09875 145.966484,91.09875 Z" id="Path" stroke="#414D86" stroke-width="2" stroke-linejoin="round"></path>
            <path d="M149.801758,78.3075 C149.801758,78.3075 150.106264,72.028125 154.031209,64.325625 C157.956154,56.623125 164.894396,52.865625 164.894396,52.865625 C164.894396,52.865625 164.283516,59.743125 160.106374,67.94625 C155.929231,76.15125 149.801758,78.3075 149.801758,78.3075 Z" id="Path" stroke="#414D86" stroke-width="2" fill="#6F7CBD" stroke-linejoin="round"></path>
            <path d="M152.484396,59.5725 C152.484396,59.5725 151.944505,53.31 154.799011,45.148125 C157.653516,36.984375 164.027582,32.325 164.027582,32.325 C164.027582,32.325 164.345165,39.223125 161.301978,47.91375 C158.264396,56.61 152.484396,59.5725 152.484396,59.5725 Z" id="Path" stroke="#414D86" stroke-width="2" fill="#6F7CBD" stroke-linejoin="round"></path>
            <path d="M149.898901,47.2275 C149.898901,47.2275 147.035055,41.638125 146.59044,32.998125 C146.14956,24.358125 150.285604,17.62125 150.285604,17.62125 C150.285604,17.62125 153.186813,23.881875 153.659451,33.0825 C154.13022,42.285 149.898901,47.2275 149.898901,47.2275 Z" id="Path" stroke="#414D86" stroke-width="2" fill="#6F7CBD" stroke-linejoin="round"></path>
            <path d="M142.839231,32.371875 C142.839231,32.371875 139.108571,27.324375 137.274066,18.871875 C135.43956,10.419375 138.428571,3.095625 138.428571,3.095625 C138.428571,3.095625 142.303077,8.80125 144.259011,17.803125 C146.216813,26.805 142.839231,32.371875 142.839231,32.371875 Z" id="Path" stroke="#414D86" stroke-width="2" fill="#6F7CBD" stroke-linejoin="round"></path>
            <path d="M149.48044,70.250625 C149.48044,70.250625 144.811978,66.058125 141.326044,58.145625 C137.84011,50.233125 139.306593,42.455625 139.306593,42.455625 C139.306593,42.455625 144.244066,47.266875 147.957912,55.69125 C151.66989,64.1175 149.48044,70.250625 149.48044,70.250625 Z" id="Path" stroke="#414D86" stroke-width="2" stroke-linejoin="round"></path>
            <path d="M144.322527,41.97 C144.322527,41.97 138.361319,40.044375 131.968571,34.243125 C125.572088,28.441875 123.76,20.739375 123.76,20.739375 C123.76,20.739375 130.218132,23.116875 137.029341,29.295 C143.836813,35.473125 144.322527,41.97 144.322527,41.97 Z" id="Path" stroke="#414D86" stroke-width="2" fill="#6F7CBD" stroke-linejoin="round"></path>
            <path d="M135.510549,24.661875 C135.510549,24.661875 129.870659,21.928125 124.335385,15.301875 C118.798242,8.671875 118.056593,0.79125 118.056593,0.79125 C118.056593,0.79125 124.131758,4.036875 130.027582,11.098125 C135.923407,18.1575 135.510549,24.661875 135.510549,24.661875 Z" id="Path" stroke="#414D86" stroke-width="2" stroke-linejoin="round"></path>
        </g>
    </g>
</svg>
