<svg width="300" height="180" viewBox="0 0 300 180" fill="none" xmlns="http://www.w3.org/2000/svg">
<path d="M69.3481 131.074H100.731L131.055 110.302H173.437L196.196 88.636L240.006 66.2287L267.105 45.5498V161.732H54.2166L69.3481 131.074Z" fill="#A4B2FF"/>
<path d="M45.585 52.9194C46.2596 46.9718 51.1036 42.4912 56.8685 42.4912C57.6902 42.4912 58.5093 42.583 59.3106 42.7649L59.3394 42.771L59.3494 42.7435C60.1515 40.5663 61.5804 38.6754 63.4559 37.3092C67.0126 34.7093 71.7778 34.4834 75.5646 36.735C77.2348 37.7333 78.6287 39.1334 79.6195 40.8081L79.6309 40.8275L79.653 40.8235C83.7353 40.2024 87.8815 41.4385 90.9572 44.1938C93.4883 46.4351 95.1935 49.5323 95.7624 52.9194H45.585Z" stroke="#9EB1FF"/>
<path d="M29.9478 55.9088C30.3682 52.2017 33.3875 49.409 36.9807 49.409C37.4929 49.4089 38.0034 49.4662 38.5029 49.5796L38.5208 49.5833L38.527 49.5662C39.027 48.2092 39.9176 47.0305 41.0866 46.179C43.3035 44.5585 46.2736 44.4177 48.6339 45.8211C49.6749 46.4433 50.5438 47.3161 51.1613 48.3598L51.1684 48.3719L51.1822 48.3694C53.7267 47.9823 56.311 48.7528 58.2281 50.4702C59.8057 51.8672 60.8686 53.7977 61.2232 55.9088H29.9478Z" fill="#9EB1FF"/>
<path d="M29.0522 148.219C28.8065 148.714 29.0082 149.314 29.5028 149.559C29.9974 149.805 30.5976 149.603 30.8433 149.109L29.0522 148.219ZM265.779 21.7553L254.299 23.0034L261.12 32.3208L265.779 21.7553ZM237.884 42.1754L238.342 43.0643L238.411 43.0285L238.474 42.9823L237.884 42.1754ZM46.5574 115.231L46.555 114.231L45.9369 114.232L45.6619 114.786L46.5574 115.231ZM117.003 91.0671L117.006 90.0671L116.692 90.0659L116.434 90.2448L117.003 91.0671ZM82.2122 115.145L82.2146 116.145L82.5256 116.144L82.7813 115.967L82.2122 115.145ZM165.24 91.2415L165.237 92.2415L165.65 92.243L165.944 91.9518L165.24 91.2415ZM189.694 67.0061L189.236 66.1172L189.099 66.1876L188.99 66.2959L189.694 67.0061ZM238.474 42.9823L259.107 27.8783L257.926 26.2645L237.293 41.3685L238.474 42.9823ZM30.8433 149.109L47.453 115.676L45.6619 114.786L29.0522 148.219L30.8433 149.109ZM46.5598 116.231L82.2146 116.145L82.2098 114.145L46.555 114.231L46.5598 116.231ZM82.7813 115.967L117.572 91.8894L116.434 90.2448L81.6431 114.323L82.7813 115.967ZM116.999 92.0671L165.237 92.2415L165.244 90.2415L117.006 90.0671L116.999 92.0671ZM165.944 91.9518L190.397 67.7164L188.99 66.2959L164.536 90.5312L165.944 91.9518ZM190.152 67.8951L238.342 43.0643L237.425 41.2865L189.236 66.1172L190.152 67.8951Z" fill="white"/>
</svg>
