<?xml version="1.0" encoding="UTF-8"?>
<svg width="380px" height="380px" viewBox="0 0 380 380" version="1.1" xmlns="http://www.w3.org/2000/svg" xmlns:xlink="http://www.w3.org/1999/xlink">
    <title>Illustrations/Dark/empty_upcoming_screening</title>
    <g id="Illustrations/Dark/empty_upcoming_screening" stroke="none" stroke-width="1" fill="none" fill-rule="evenodd">
        <g id="flattened" transform="translate(35.000000, 42.780822)">
            <g id="Group-6" transform="translate(167.812785, 61.000000)" fill-rule="nonzero">
                <circle id="Oval" fill="#9EB1FF" cx="3.25114155" cy="3.65753425" r="2.43835616"></circle>
                <circle id="Oval" stroke="#414D86" cx="2.43835616" cy="2.43835616" r="2.43835616"></circle>
            </g>
            <g id="Group-5" transform="translate(2.000000, 131.219178)" fill-rule="nonzero">
                <path d="M4.16666667,2.91666667 C4.16666667,4.0672599 3.23392656,5 2.08333333,5 C0.932740105,5 0,4.0672599 0,2.91666667 C0,1.76607344 0.932740105,0.833333333 2.08333333,0.833333333 C3.23392656,0.833333333 4.16666667,1.76607344 4.16666667,2.91666667 L4.16666667,2.91666667 Z" id="Path" fill="#9EB1FF"></path>
                <path d="M5,2.08333333 C5,3.23392656 4.0672599,4.16666667 2.91666667,4.16666667 C1.76607344,4.16666667 0.833333333,3.23392656 0.833333333,2.08333333 C0.833333333,0.932740105 1.76607344,0 2.91666667,0 C4.0672599,0 5,0.932740105 5,2.08333333 L5,2.08333333 Z" id="Path" stroke="#414D86"></path>
            </g>
            <g id="Group-7" transform="translate(0.000000, 73.000000)" fill-rule="nonzero">
                <path d="M5.32951674,3.4316668 C5.22328489,3.37442452 5.13600633,3.28805908 5.07815883,3.18293865 L4.18873855,1.5279398 C4.0811152,1.33729913 3.87769891,1.21917808 3.6570199,1.21917808 C3.43634089,1.21917808 3.23292459,1.33729913 3.12530125,1.5279398 L2.22621335,3.18293865 C2.1749825,3.28955063 2.09017113,3.37683165 1.98452305,3.4316668 L0.312026203,4.38831353 C0.119369925,4.49481089 0,4.69609901 0,4.91446923 C0,5.13283945 0.119369925,5.33412757 0.312026203,5.44062493 L1.98452305,6.32073992 C2.09017113,6.37557507 2.1749825,6.46285609 2.22621335,6.56946807 L3.12530125,8.21490045 C3.22848994,8.41113941 3.4334662,8.53424658 3.6570199,8.53424658 C3.88057359,8.53424658 4.08554985,8.41113941 4.18873855,8.21490045 L5.07815883,6.56946807 C5.13600633,6.46434764 5.22328489,6.3779822 5.32951674,6.32073992 L6.99234598,5.44062493 C7.19065974,5.33851582 7.31506849,5.13568406 7.31506849,4.91446923 C7.31506849,4.6932544 7.19065974,4.49042264 6.99234598,4.38831353 L5.32951674,3.4316668 Z" id="Path" fill="#9EB1FF"></path>
                <path d="M6.14230213,2.21248871 C6.03607028,2.15524644 5.94879171,2.06888099 5.89094422,1.96376056 L5.00152393,0.308761721 C4.89390059,0.118121053 4.69048429,0 4.46980528,0 C4.24912627,0 4.04570998,0.118121053 3.93808663,0.308761721 L3.03899873,1.96376056 C2.98776789,2.07037255 2.90295652,2.15765357 2.79730844,2.21248871 L1.12481159,3.16913544 C0.932155313,3.27563281 0.812785388,3.47692093 0.812785388,3.69529115 C0.812785388,3.91366137 0.932155313,4.11494948 1.12481159,4.22144685 L2.79730844,5.10156184 C2.90295652,5.15639699 2.98776789,5.24367801 3.03899873,5.35028999 L3.93808663,6.99572237 C4.04127533,7.19196133 4.24625159,7.31506849 4.46980528,7.31506849 C4.69335898,7.31506849 4.89833524,7.19196133 5.00152393,6.99572237 L5.89094422,5.35028999 C5.94879171,5.24516956 6.03607028,5.15880412 6.14230213,5.10156184 L7.80513137,4.22144685 C8.00344512,4.11933774 8.12785388,3.91650597 8.12785388,3.69529115 C8.12785388,3.47407632 8.00344512,3.27124456 7.80513137,3.16913544 L6.14230213,2.21248871 Z" id="Path" stroke="#414D86"></path>
            </g>
            <g id="Group-7" transform="translate(250.000000, 242.000000)" fill-rule="nonzero">
                <path d="M5.32951674,3.4316668 C5.22328489,3.37442452 5.13600633,3.28805908 5.07815883,3.18293865 L4.18873855,1.5279398 C4.0811152,1.33729913 3.87769891,1.21917808 3.6570199,1.21917808 C3.43634089,1.21917808 3.23292459,1.33729913 3.12530125,1.5279398 L2.22621335,3.18293865 C2.1749825,3.28955063 2.09017113,3.37683165 1.98452305,3.4316668 L0.312026203,4.38831353 C0.119369925,4.49481089 0,4.69609901 0,4.91446923 C0,5.13283945 0.119369925,5.33412757 0.312026203,5.44062493 L1.98452305,6.32073992 C2.09017113,6.37557507 2.1749825,6.46285609 2.22621335,6.56946807 L3.12530125,8.21490045 C3.22848994,8.41113941 3.4334662,8.53424658 3.6570199,8.53424658 C3.88057359,8.53424658 4.08554985,8.41113941 4.18873855,8.21490045 L5.07815883,6.56946807 C5.13600633,6.46434764 5.22328489,6.3779822 5.32951674,6.32073992 L6.99234598,5.44062493 C7.19065974,5.33851582 7.31506849,5.13568406 7.31506849,4.91446923 C7.31506849,4.6932544 7.19065974,4.49042264 6.99234598,4.38831353 L5.32951674,3.4316668 Z" id="Path" fill="#9EB1FF"></path>
                <path d="M6.14230213,2.21248871 C6.03607028,2.15524644 5.94879171,2.06888099 5.89094422,1.96376056 L5.00152393,0.308761721 C4.89390059,0.118121053 4.69048429,0 4.46980528,0 C4.24912627,0 4.04570998,0.118121053 3.93808663,0.308761721 L3.03899873,1.96376056 C2.98776789,2.07037255 2.90295652,2.15765357 2.79730844,2.21248871 L1.12481159,3.16913544 C0.932155313,3.27563281 0.812785388,3.47692093 0.812785388,3.69529115 C0.812785388,3.91366137 0.932155313,4.11494948 1.12481159,4.22144685 L2.79730844,5.10156184 C2.90295652,5.15639699 2.98776789,5.24367801 3.03899873,5.35028999 L3.93808663,6.99572237 C4.04127533,7.19196133 4.24625159,7.31506849 4.46980528,7.31506849 C4.69335898,7.31506849 4.89833524,7.19196133 5.00152393,6.99572237 L5.89094422,5.35028999 C5.94879171,5.24516956 6.03607028,5.15880412 6.14230213,5.10156184 L7.80513137,4.22144685 C8.00344512,4.11933774 8.12785388,3.91650597 8.12785388,3.69529115 C8.12785388,3.47407632 8.00344512,3.27124456 7.80513137,3.16913544 L6.14230213,2.21248871 Z" id="Path" stroke="#414D86"></path>
            </g>
            <g id="Group-7" transform="translate(296.000000, 101.000000)" fill-rule="nonzero">
                <path d="M5.32951674,3.4316668 C5.22328489,3.37442452 5.13600633,3.28805908 5.07815883,3.18293865 L4.18873855,1.5279398 C4.0811152,1.33729913 3.87769891,1.21917808 3.6570199,1.21917808 C3.43634089,1.21917808 3.23292459,1.33729913 3.12530125,1.5279398 L2.22621335,3.18293865 C2.1749825,3.28955063 2.09017113,3.37683165 1.98452305,3.4316668 L0.312026203,4.38831353 C0.119369925,4.49481089 0,4.69609901 0,4.91446923 C0,5.13283945 0.119369925,5.33412757 0.312026203,5.44062493 L1.98452305,6.32073992 C2.09017113,6.37557507 2.1749825,6.46285609 2.22621335,6.56946807 L3.12530125,8.21490045 C3.22848994,8.41113941 3.4334662,8.53424658 3.6570199,8.53424658 C3.88057359,8.53424658 4.08554985,8.41113941 4.18873855,8.21490045 L5.07815883,6.56946807 C5.13600633,6.46434764 5.22328489,6.3779822 5.32951674,6.32073992 L6.99234598,5.44062493 C7.19065974,5.33851582 7.31506849,5.13568406 7.31506849,4.91446923 C7.31506849,4.6932544 7.19065974,4.49042264 6.99234598,4.38831353 L5.32951674,3.4316668 Z" id="Path" fill="#9EB1FF"></path>
                <path d="M6.14230213,2.21248871 C6.03607028,2.15524644 5.94879171,2.06888099 5.89094422,1.96376056 L5.00152393,0.308761721 C4.89390059,0.118121053 4.69048429,0 4.46980528,0 C4.24912627,0 4.04570998,0.118121053 3.93808663,0.308761721 L3.03899873,1.96376056 C2.98776789,2.07037255 2.90295652,2.15765357 2.79730844,2.21248871 L1.12481159,3.16913544 C0.932155313,3.27563281 0.812785388,3.47692093 0.812785388,3.69529115 C0.812785388,3.91366137 0.932155313,4.11494948 1.12481159,4.22144685 L2.79730844,5.10156184 C2.90295652,5.15639699 2.98776789,5.24367801 3.03899873,5.35028999 L3.93808663,6.99572237 C4.04127533,7.19196133 4.24625159,7.31506849 4.46980528,7.31506849 C4.69335898,7.31506849 4.89833524,7.19196133 5.00152393,6.99572237 L5.89094422,5.35028999 C5.94879171,5.24516956 6.03607028,5.15880412 6.14230213,5.10156184 L7.80513137,4.22144685 C8.00344512,4.11933774 8.12785388,3.91650597 8.12785388,3.69529115 C8.12785388,3.47407632 8.00344512,3.27124456 7.80513137,3.16913544 L6.14230213,2.21248871 Z" id="Path" stroke="#414D86"></path>
            </g>
            <g id="Group-8" transform="translate(34.000000, 231.219178)" fill-rule="nonzero">
                <path d="M13.5135375,7.11360053 L10.2871226,5.42595132 C10.0846015,5.3187976 9.91834185,5.15651309 9.80856342,4.95883412 L8.07957551,1.80956014 C7.87746298,1.44405239 7.48623128,1.21621622 7.06070764,1.21621622 C6.635184,1.21621622 6.2439523,1.44405239 6.04183977,1.80956014 L4.31285186,4.95883412 C4.20307343,5.15651309 4.0368138,5.3187976 3.83429271,5.42595132 L0.60787778,7.11360053 C0.233416978,7.31088072 0,7.69275839 0,8.10810811 C0,8.52345782 0.233416978,8.9053355 0.60787778,9.10261568 L3.83429271,10.7902649 C4.0368138,10.8974186 4.20307343,11.0597031 4.31285186,11.2573821 L6.04183977,14.4066561 C6.2439523,14.7721638 6.635184,15 7.06070764,15 C7.48623128,15 7.87746298,14.7721638 8.07957551,14.4066561 L9.80856342,11.2573821 C9.91834185,11.0597031 10.0846015,10.8974186 10.2871226,10.7902649 L13.5135375,9.14782057 C13.9129688,8.95899247 14.1666667,8.56391194 14.1666667,8.13071055 C14.1666667,7.69750917 13.9129688,7.30242864 13.5135375,7.11360053 L13.5135375,7.11360053 Z" id="Path" fill="#9EB1FF"></path>
                <path d="M14.3468708,5.89738432 L11.1204559,4.2097351 C10.9179348,4.10258138 10.7516752,3.94029688 10.6418968,3.74261791 L8.91290885,0.593343919 C8.71079632,0.227836169 8.31956461,0 7.89404098,0 C7.46851734,0 7.07728563,0.227836169 6.8751731,0.593343919 L5.1461852,3.74261791 C5.03640677,3.94029688 4.87014713,4.10258138 4.66762604,4.2097351 L1.44121111,5.89738432 C1.06675031,6.0946645 0.833333333,6.47654218 0.833333333,6.89189189 C0.833333333,7.30724161 1.06675031,7.68911928 1.44121111,7.88639947 L4.66762604,9.57404868 C4.87014713,9.6812024 5.03640677,9.84348691 5.1461852,10.0411659 L6.8751731,13.1904399 C7.07728563,13.5559476 7.46851734,13.7837838 7.89404098,13.7837838 C8.31956461,13.7837838 8.71079632,13.5559476 8.91290885,13.1904399 L10.6418968,10.0411659 C10.7516752,9.84348691 10.9179348,9.6812024 11.1204559,9.57404868 L14.3468708,7.93160436 C14.7463022,7.74277625 15,7.34769572 15,6.91449434 C15,6.48129295 14.7463022,6.08621242 14.3468708,5.89738432 L14.3468708,5.89738432 Z" id="Path" stroke="#414D86"></path>
            </g>
            <g id="Group-9" transform="translate(218.000000, 0.000000)" fill-rule="nonzero">
                <path d="M5.44905758,3.65083473 L4.14950493,2.94888658 C4.06475488,2.9116153 3.9970605,2.84392092 3.95978921,2.75917087 L3.25784107,1.45961822 C3.17362569,1.31101843 3.01601375,1.21917808 2.84520939,1.21917808 C2.67440503,1.21917808 2.51679309,1.31101843 2.43257771,1.45961822 L1.74011535,2.75917087 C1.69736689,2.84002881 1.63125758,2.90613813 1.55039963,2.94888658 L0.250846983,3.65083473 C0.096736959,3.73074339 0,3.88987121 0,4.06346641 C0,4.23706161 0.096736959,4.39618943 0.250846983,4.47609809 L1.55039963,5.16856045 C1.62699556,5.21685887 1.69181693,5.28168023 1.74011535,5.35827617 L2.43257771,6.65782882 C2.51248637,6.81193884 2.67161419,6.9086758 2.84520939,6.9086758 C3.01880459,6.9086758 3.17793241,6.81193884 3.25784107,6.65782882 L3.95978921,5.35827617 C4.00253767,5.27741822 4.06864699,5.21130891 4.14950493,5.16856045 L5.44905758,4.47609809 C5.59765737,4.39188271 5.68949772,4.23427077 5.68949772,4.06346641 C5.68949772,3.89266205 5.59765737,3.73505011 5.44905758,3.65083473 Z" id="Path" fill="#9EB1FF"></path>
                <path d="M6.26184297,2.43165665 L4.96229032,1.7297085 C4.87754027,1.69243721 4.80984589,1.62474283 4.7725746,1.53999279 L4.07062646,0.240440138 C3.98641107,0.0918403467 3.82879913,0 3.65799478,0 C3.48719042,0 3.32957848,0.0918403467 3.2453631,0.240440138 L2.55290074,1.53999279 C2.51015228,1.62085073 2.44404296,1.68696004 2.36318502,1.7297085 L1.06363237,2.43165665 C0.909522347,2.51156531 0.812785388,2.67069313 0.812785388,2.84428833 C0.812785388,3.01788353 0.909522347,3.17701135 1.06363237,3.25692001 L2.36318502,3.94938237 C2.43978095,3.99768079 2.50460232,4.06250215 2.55290074,4.13909808 L3.2453631,5.43865073 C3.32527176,5.59276076 3.48439958,5.68949772 3.65799478,5.68949772 C3.83158998,5.68949772 3.9907178,5.59276076 4.07062646,5.43865073 L4.7725746,4.13909808 C4.81532306,4.05824014 4.88143237,3.99213083 4.96229032,3.94938237 L6.26184297,3.25692001 C6.41044276,3.17270463 6.50228311,3.01509269 6.50228311,2.84428833 C6.50228311,2.67348397 6.41044276,2.51587203 6.26184297,2.43165665 Z" id="Path" stroke="#414D86"></path>
            </g>
            <g id="Group-9" transform="translate(89.000000, 32.000000)" fill-rule="nonzero">
                <path d="M5.44905758,3.65083473 L4.14950493,2.94888658 C4.06475488,2.9116153 3.9970605,2.84392092 3.95978921,2.75917087 L3.25784107,1.45961822 C3.17362569,1.31101843 3.01601375,1.21917808 2.84520939,1.21917808 C2.67440503,1.21917808 2.51679309,1.31101843 2.43257771,1.45961822 L1.74011535,2.75917087 C1.69736689,2.84002881 1.63125758,2.90613813 1.55039963,2.94888658 L0.250846983,3.65083473 C0.096736959,3.73074339 0,3.88987121 0,4.06346641 C0,4.23706161 0.096736959,4.39618943 0.250846983,4.47609809 L1.55039963,5.16856045 C1.62699556,5.21685887 1.69181693,5.28168023 1.74011535,5.35827617 L2.43257771,6.65782882 C2.51248637,6.81193884 2.67161419,6.9086758 2.84520939,6.9086758 C3.01880459,6.9086758 3.17793241,6.81193884 3.25784107,6.65782882 L3.95978921,5.35827617 C4.00253767,5.27741822 4.06864699,5.21130891 4.14950493,5.16856045 L5.44905758,4.47609809 C5.59765737,4.39188271 5.68949772,4.23427077 5.68949772,4.06346641 C5.68949772,3.89266205 5.59765737,3.73505011 5.44905758,3.65083473 Z" id="Path" fill="#9EB1FF"></path>
                <path d="M6.26184297,2.43165665 L4.96229032,1.7297085 C4.87754027,1.69243721 4.80984589,1.62474283 4.7725746,1.53999279 L4.07062646,0.240440138 C3.98641107,0.0918403467 3.82879913,0 3.65799478,0 C3.48719042,0 3.32957848,0.0918403467 3.2453631,0.240440138 L2.55290074,1.53999279 C2.51015228,1.62085073 2.44404296,1.68696004 2.36318502,1.7297085 L1.06363237,2.43165665 C0.909522347,2.51156531 0.812785388,2.67069313 0.812785388,2.84428833 C0.812785388,3.01788353 0.909522347,3.17701135 1.06363237,3.25692001 L2.36318502,3.94938237 C2.43978095,3.99768079 2.50460232,4.06250215 2.55290074,4.13909808 L3.2453631,5.43865073 C3.32527176,5.59276076 3.48439958,5.68949772 3.65799478,5.68949772 C3.83158998,5.68949772 3.9907178,5.59276076 4.07062646,5.43865073 L4.7725746,4.13909808 C4.81532306,4.05824014 4.88143237,3.99213083 4.96229032,3.94938237 L6.26184297,3.25692001 C6.41044276,3.17270463 6.50228311,3.01509269 6.50228311,2.84428833 C6.50228311,2.67348397 6.41044276,2.51587203 6.26184297,2.43165665 Z" id="Path" stroke="#414D86"></path>
            </g>
            <g id="Group-10" transform="translate(262.000000, 36.000000)" fill-rule="nonzero">
                <path d="M11.6510219,6.41886339 L8.86790567,4.92518822 C8.6943339,4.84113187 8.55422092,4.70076327 8.47031764,4.52687484 L6.97936253,1.73868119 C6.80007404,1.41787285 6.46172761,1.21917808 6.09472917,1.21917808 C5.72773072,1.21917808 5.38938429,1.41787285 5.2100958,1.73868119 L3.7191407,4.52687484 C3.6276715,4.70215989 3.48089033,4.84220651 3.30167327,4.92518822 L0.518557069,6.41886339 C0.198332936,6.59847897 0,6.93744267 0,7.30511066 C0,7.67277865 0.198332936,8.01174235 0.518557069,8.19135793 L3.30167327,9.6850331 C3.47777007,9.78173681 3.62261309,9.92684407 3.7191407,10.1032621 L5.2100958,12.8914558 C5.38938429,13.2122641 5.72773072,13.4109589 6.09472917,13.4109589 C6.46172761,13.4109589 6.80007404,13.2122641 6.97936253,12.8914558 L8.47031764,10.1032621 C8.55965722,9.92824571 8.69777111,9.78296156 8.86790567,9.6850331 L11.6510219,8.19135793 C11.9829743,8.02098339 12.1917808,7.67877137 12.1917808,7.30511066 C12.1917808,6.93144995 11.9829743,6.58923792 11.6510219,6.41886339 Z" id="Path" fill="#9EB1FF"></path>
                <path d="M12.4638073,5.19968531 L9.68069105,3.70601014 C9.50711929,3.62195379 9.36700631,3.48158519 9.28310303,3.30769676 L7.79214792,0.519503112 C7.61285943,0.19869477 7.274513,0 6.90751456,0 C6.54051611,0 6.20216968,0.19869477 6.02288119,0.519503112 L4.53192609,3.30769676 C4.44045688,3.48298181 4.29367571,3.62302843 4.11445866,3.70601014 L1.33134246,5.19968531 C1.01111832,5.37930089 0.812785388,5.71826459 0.812785388,6.08593258 C0.812785388,6.45360056 1.01111832,6.79256426 1.33134246,6.97217984 L4.11445866,8.46585501 C4.29055546,8.56255873 4.43539847,8.70766599 4.53192609,8.88408406 L6.02288119,11.6722777 C6.20216968,11.9930861 6.54051611,12.1917808 6.90751456,12.1917808 C7.274513,12.1917808 7.61285943,11.9930861 7.79214792,11.6722777 L9.28310303,8.88408406 C9.37244261,8.70906763 9.5105565,8.56378348 9.68069105,8.46585501 L12.4638073,6.97217984 C12.7957597,6.80180531 13.0045662,6.45959329 13.0045662,6.08593258 C13.0045662,5.71227187 12.7957597,5.37005984 12.4638073,5.19968531 Z" id="Path" stroke="#414D86"></path>
            </g>
            <path d="M224.440574,86.8314564 L243.55744,86.8314564 L226.690164,86.8314564 C227.597486,86.8314564 208.253255,205.141288 207.345933,205.141288 L205.096343,205.141288 C204.189021,205.141288 203.572765,204.411805 203.719897,203.511942 L222.531316,88.4608028 C222.678448,87.5609396 223.533252,86.8314564 224.440574,86.8314564 Z" id="Rectangle" stroke="#414D86" transform="translate(223.627813, 145.986372) scale(-1, 1) translate(-223.627813, -145.986372) "></path>
            <path d="M142.241678,208.719178 C207.908344,208.719178 240.841188,208.724778 241.04021,208.735977 C240.866116,209.797302 240.605537,211.389291 240.258473,213.511942 C240.111341,214.411805 239.256537,215.141288 238.349215,215.141288 L106.099625,215.141288 C105.192303,215.141288 104.576047,214.411805 104.723179,213.511942 C113.004638,162.86232 119.215732,124.875105 123.356461,99.550294 C123.395825,99.3095427 128.33128,135.015928 140.741678,207.219178 C140.774345,207.409233 140.764666,207.80514 141.241678,208.219178 C141.377929,208.337442 141.711262,208.504108 142.241678,208.719178 Z" id="Rectangle" stroke="#414D86" fill="#6F7CBD" transform="translate(172.870839, 157.345186) scale(-1, 1) translate(-172.870839, -157.345186) "></path>
            <path d="M87.7003315,86.8314564 L107.22798,86.8314564 L222.791699,86.8314564 C223.718518,86.8314564 224.348016,87.5827913 224.197723,88.50961 L221.5,101.719178 L83.5,101.719178 L85.7500473,88.50961 C85.9003408,87.5827913 86.7735128,86.8314564 87.7003315,86.8314564 Z" id="Rectangle" stroke="#414D86"></path>
            <path d="M90.7003315,84.8314564 L110.22798,84.8314564 L225.791699,84.8314564 C226.718518,84.8314564 227.348016,85.5827913 227.197723,86.50961 L224.5,99.7191781 L86.5,99.7191781 L88.7500473,86.50961 C88.9003408,85.5827913 89.7735128,84.8314564 90.7003315,84.8314564 Z" id="Rectangle" fill="#FF6E61"></path>
            <path d="M87.7003315,86.8314564 L107.22798,86.8314564 L222.791699,86.8314564 C223.718518,86.8314564 224.348016,87.5827913 224.197723,88.50961 L204.982084,207.007114 C204.83179,207.933933 203.958618,208.685268 203.0318,208.685268 L67.9404316,208.685268 C67.0136129,208.685268 66.3841149,207.933933 66.5344085,207.007114 L85.7500473,88.50961 C85.9003408,87.5827913 86.7735128,86.8314564 87.7003315,86.8314564 Z" id="Rectangle" stroke="#414D86"></path>
            <path d="M84,101.719178 L104.22798,101.831456 L219.791699,101.831456 L222,101.719178 L204.982084,207.007114 C204.83179,207.933933 203.958618,208.685268 203.0318,208.685268 L67.9404316,208.685268 C67.0136129,208.685268 66.3841149,207.933933 66.5344085,207.007114 L83.5,102.219178 L84,101.719178 Z" id="Rectangle" stroke="#414D86"></path>
            <path d="M107.336248,110.268644 C108.085277,110.268644 108.686258,110.48298 109.060327,110.90113 C109.426793,111.310781 109.554779,111.90058 109.442252,112.594503 L109.442252,112.594503 L106.897655,128.286329 C106.777043,129.03011 106.417471,129.652176 105.887973,130.086581 C105.351563,130.526658 104.644957,130.772258 103.849207,130.772258 L103.849207,130.772258 L88.4953133,130.772258 C87.7462848,130.772258 87.1453038,130.557923 86.7712342,130.139772 C86.4047686,129.730122 86.2767821,129.140322 86.3893092,128.446399 L86.3893092,128.446399 L88.9339068,112.754573 C89.0545188,112.010792 89.4140907,111.388727 89.9435885,110.954321 C90.4799988,110.514245 91.1866044,110.268644 91.9823544,110.268644 L91.9823544,110.268644 Z" id="Path" stroke="#414D86" fill-rule="nonzero"></path>
            <path d="M101.989452,143.240852 C102.73848,143.240852 103.339461,143.455187 103.713531,143.873338 C104.079996,144.282989 104.207983,144.872788 104.095456,145.566711 L104.095456,145.566711 L101.550858,161.258537 C101.430246,162.002318 101.070674,162.624383 100.541176,163.058789 C100.004766,163.498865 99.2981605,163.744466 98.5024105,163.744466 L98.5024105,163.744466 L83.1485168,163.744466 C82.3994884,163.744466 81.7985073,163.530131 81.4244378,163.11198 C81.0579722,162.702329 80.9299857,162.11253 81.0425127,161.418607 L81.0425127,161.418607 L83.5871103,145.726781 C83.7077223,144.983 84.0672942,144.360934 84.5967921,143.926529 C85.1332023,143.486452 85.839808,143.240852 86.635558,143.240852 L86.635558,143.240852 Z" id="Path-Copy-5" stroke="#414D86" fill-rule="nonzero"></path>
            <path d="M134.713448,143.240852 C135.462476,143.240852 136.063457,143.455187 136.437527,143.873338 C136.803992,144.282989 136.931979,144.872788 136.819452,145.566711 L136.819452,145.566711 L134.274854,161.258537 C134.154242,162.002318 133.79467,162.624383 133.265172,163.058789 C132.728762,163.498865 132.022156,163.744466 131.226406,163.744466 L131.226406,163.744466 L115.872513,163.744466 C115.123484,163.744466 114.522503,163.530131 114.148434,163.11198 C113.781968,162.702329 113.653982,162.11253 113.766509,161.418607 L113.766509,161.418607 L116.311106,145.726781 C116.431718,144.983 116.79129,144.360934 117.320788,143.926529 C117.857198,143.486452 118.563804,143.240852 119.359554,143.240852 L119.359554,143.240852 Z" id="Path-Copy-5" stroke="#414D86" fill-rule="nonzero"></path>
            <path d="M96.6426552,176.21306 C97.3916837,176.21306 97.9926647,176.427395 98.3667343,176.845546 C98.7331999,177.255196 98.8611864,177.844996 98.7486593,178.538919 L98.7486593,178.538919 L96.2040617,194.230745 C96.0834497,194.974525 95.7238778,195.596591 95.19438,196.030997 C94.6579697,196.471073 93.9513641,196.716674 93.155614,196.716674 L93.155614,196.716674 L77.8017204,196.716674 C77.0526919,196.716674 76.4517109,196.502338 76.0776413,196.084188 C75.7111757,195.674537 75.5831892,195.084738 75.6957163,194.390815 L75.6957163,194.390815 L78.2403139,178.698988 C78.3609259,177.955208 78.7204978,177.333142 79.2499956,176.898737 C79.7864059,176.45866 80.4930115,176.21306 81.2887615,176.21306 L81.2887615,176.21306 Z" id="Path-Copy-10" stroke="#414D86" fill-rule="nonzero"></path>
            <path d="M140.29594,110.268644 C141.044968,110.268644 141.645949,110.48298 142.020019,110.90113 C142.386484,111.310781 142.514471,111.90058 142.401944,112.594503 L142.401944,112.594503 L139.857346,128.286329 C139.736734,129.03011 139.377162,129.652176 138.847665,130.086581 C138.311254,130.526658 137.604649,130.772258 136.808899,130.772258 L136.808899,130.772258 L121.455005,130.772258 C120.705977,130.772258 120.104995,130.557923 119.730926,130.139772 C119.36446,129.730122 119.236474,129.140322 119.349001,128.446399 L119.349001,128.446399 L121.893598,112.754573 C122.01421,112.010792 122.373782,111.388727 122.90328,110.954321 C123.43969,110.514245 124.146296,110.268644 124.942046,110.268644 L124.942046,110.268644 Z" id="Path-Copy" stroke="#414D86" fill-rule="nonzero"></path>
            <path d="M129.602347,176.21306 C130.351375,176.21306 130.952356,176.427395 131.326426,176.845546 C131.692892,177.255196 131.820878,177.844996 131.708351,178.538919 L131.708351,178.538919 L129.163753,194.230745 C129.043141,194.974525 128.68357,195.596591 128.154072,196.030997 C127.617661,196.471073 126.911056,196.716674 126.115306,196.716674 L126.115306,196.716674 L110.761412,196.716674 C110.012384,196.716674 109.411403,196.502338 109.037333,196.084188 C108.670867,195.674537 108.542881,195.084738 108.655408,194.390815 L108.655408,194.390815 L111.200006,178.698988 C111.320618,177.955208 111.680189,177.333142 112.209687,176.898737 C112.746098,176.45866 113.452703,176.21306 114.248453,176.21306 L114.248453,176.21306 Z" id="Path-Copy-11" stroke="#414D86" fill-rule="nonzero"></path>
            <path d="M173.255632,110.268644 C174.00466,110.268644 174.605641,110.48298 174.979711,110.90113 C175.346176,111.310781 175.474163,111.90058 175.361636,112.594503 L175.361636,112.594503 L172.817038,128.286329 C172.696426,129.03011 172.336854,129.652176 171.807356,130.086581 C171.270946,130.526658 170.56434,130.772258 169.76859,130.772258 L169.76859,130.772258 L154.414697,130.772258 C153.665668,130.772258 153.064687,130.557923 152.690618,130.139772 C152.324152,129.730122 152.196166,129.140322 152.308693,128.446399 L152.308693,128.446399 L154.85329,112.754573 C154.973902,112.010792 155.333474,111.388727 155.862972,110.954321 C156.399382,110.514245 157.105988,110.268644 157.901738,110.268644 L157.901738,110.268644 Z" id="Path-Copy-2" stroke="#414D86" fill-rule="nonzero"></path>
            <path d="M167.908835,143.240852 C168.657864,143.240852 169.258845,143.455187 169.632914,143.873338 C169.99938,144.282989 170.127366,144.872788 170.014839,145.566711 L170.014839,145.566711 L167.470242,161.258537 C167.34963,162.002318 166.990058,162.624383 166.46056,163.058789 C165.92415,163.498865 165.217544,163.744466 164.421794,163.744466 L164.421794,163.744466 L149.0679,163.744466 C148.318872,163.744466 147.717891,163.530131 147.343821,163.11198 C146.977356,162.702329 146.849369,162.11253 146.961896,161.418607 L146.961896,161.418607 L149.506494,145.726781 C149.627106,144.983 149.986678,144.360934 150.516175,143.926529 C151.052586,143.486452 151.759191,143.240852 152.554941,143.240852 L152.554941,143.240852 Z" id="Path-Copy-7" stroke="#414D86" fill-rule="nonzero"></path>
            <path d="M162.562039,176.21306 C163.311067,176.21306 163.912048,176.427395 164.286118,176.845546 C164.652583,177.255196 164.78057,177.844996 164.668043,178.538919 L164.668043,178.538919 L162.123445,194.230745 C162.002833,194.974525 161.643261,195.596591 161.113763,196.030997 C160.577353,196.471073 159.870747,196.716674 159.074997,196.716674 L159.074997,196.716674 L143.721104,196.716674 C142.972075,196.716674 142.371094,196.502338 141.997025,196.084188 C141.630559,195.674537 141.502573,195.084738 141.6151,194.390815 L141.6151,194.390815 L144.159697,178.698988 C144.280309,177.955208 144.639881,177.333142 145.169379,176.898737 C145.705789,176.45866 146.412395,176.21306 147.208145,176.21306 L147.208145,176.21306 Z" id="Path-Copy-12" stroke="#414D86" fill-rule="nonzero"></path>
            <path d="M195.286035,176.21306 C196.035063,176.21306 196.636044,176.427395 197.010114,176.845546 C197.376579,177.255196 197.504566,177.844996 197.392039,178.538919 L197.392039,178.538919 L194.847441,194.230745 C194.726829,194.974525 194.367257,195.596591 193.837759,196.030997 C193.301349,196.471073 192.594743,196.716674 191.798993,196.716674 L191.798993,196.716674 L176.4451,196.716674 C175.696071,196.716674 175.09509,196.502338 174.721021,196.084188 C174.354555,195.674537 174.226569,195.084738 174.339096,194.390815 L174.339096,194.390815 L176.883693,178.698988 C177.004305,177.955208 177.363877,177.333142 177.893375,176.898737 C178.429785,176.45866 179.136391,176.21306 179.932141,176.21306 L179.932141,176.21306 Z" id="Path-Copy-12" stroke="#414D86" fill-rule="nonzero"></path>
            <path d="M206.215323,110.268644 C206.964352,110.268644 207.565333,110.48298 207.939402,110.90113 C208.305868,111.310781 208.433854,111.90058 208.321327,112.594503 L208.321327,112.594503 L205.77673,128.286329 C205.656118,129.03011 205.296546,129.652176 204.767048,130.086581 C204.230638,130.526658 203.524032,130.772258 202.728282,130.772258 L202.728282,130.772258 L187.374388,130.772258 C186.62536,130.772258 186.024379,130.557923 185.650309,130.139772 C185.283844,129.730122 185.155857,129.140322 185.268384,128.446399 L185.268384,128.446399 L187.812982,112.754573 C187.933594,112.010792 188.293166,111.388727 188.822664,110.954321 C189.359074,110.514245 190.06568,110.268644 190.86143,110.268644 L190.86143,110.268644 Z" id="Path-Copy-3" stroke="#414D86" fill-rule="nonzero"></path>
            <path d="M200.868527,143.240852 C201.617555,143.240852 202.218536,143.455187 202.592606,143.873338 C202.959071,144.282989 203.087058,144.872788 202.974531,145.566711 L202.974531,145.566711 L200.429933,161.258537 C200.309321,162.002318 199.949749,162.624383 199.420252,163.058789 C198.883841,163.498865 198.177236,163.744466 197.381486,163.744466 L197.381486,163.744466 L182.027592,163.744466 C181.278564,163.744466 180.677582,163.530131 180.303513,163.11198 C179.937047,162.702329 179.809061,162.11253 179.921588,161.418607 L179.921588,161.418607 L182.466185,145.726781 C182.586797,144.983 182.946369,144.360934 183.475867,143.926529 C184.012277,143.486452 184.718883,143.240852 185.514633,143.240852 L185.514633,143.240852 Z" id="Path-Copy-8" stroke="#414D86" fill-rule="nonzero"></path>
            <line x1="83.2645377" y1="101.75988" x2="221.712213" y2="101.75988" id="Path-37" stroke="#414D86"></line>
            <g id="Group-4" transform="translate(98.000000, 78.219178)" stroke="#414D86">
                <circle id="Oval" cx="8.5" cy="16.5" r="3"></circle>
                <path d="M8,16 C12.418278,16 16,12.418278 16,8 C16,3.581722 12.418278,0 8,0 C3.581722,0 0,3.581722 0,8" id="Oval" transform="translate(8.000000, 8.000000) rotate(-90.000000) translate(-8.000000, -8.000000) "></path>
            </g>
            <g id="Group-3" transform="translate(130.000000, 78.219178)" stroke="#414D86">
                <circle id="Oval" cx="8.5" cy="16.5" r="3"></circle>
                <path d="M8,16 C12.418278,16 16,12.418278 16,8 C16,3.581722 12.418278,0 8,0 C3.581722,0 0,3.581722 0,8" id="Oval" transform="translate(8.000000, 8.000000) rotate(-90.000000) translate(-8.000000, -8.000000) "></path>
            </g>
            <g id="Group-2" transform="translate(162.000000, 78.219178)" stroke="#414D86">
                <circle id="Oval" cx="8.5" cy="16.5" r="3"></circle>
                <path d="M8,16 C12.418278,16 16,12.418278 16,8 C16,3.581722 12.418278,0 8,0 C3.581722,0 0,3.581722 0,8" id="Oval" transform="translate(8.000000, 8.000000) rotate(-90.000000) translate(-8.000000, -8.000000) "></path>
            </g>
            <g id="Group" transform="translate(194.000000, 78.219178)" stroke="#414D86">
                <circle id="Oval" cx="7.5" cy="16.5" r="3"></circle>
                <path d="M8,16 C12.418278,16 16,12.418278 16,8 C16,3.581722 12.418278,0 8,0 C3.581722,0 0,3.581722 0,8" id="Oval" transform="translate(8.000000, 8.000000) rotate(-90.000000) translate(-8.000000, -8.000000) "></path>
            </g>
        </g>
    </g>
</svg>
