<svg width="300" height="180" viewBox="0 0 300 180" fill="none" xmlns="http://www.w3.org/2000/svg">
<rect x="140" y="87" width="19" height="74" fill="#C6D2FF" fill-opacity="0.36"/>
<rect x="218" y="44" width="19" height="117" fill="#C6D2FF" fill-opacity="0.36"/>
<rect x="101" y="58" width="19" height="103" fill="#C6D2FF" fill-opacity="0.36"/>
<rect x="179" y="30" width="19" height="131" fill="#C6D2FF" fill-opacity="0.36"/>
<rect x="62" y="92" width="19" height="69" fill="#C6D2FF" fill-opacity="0.36"/>
<rect x="140" y="107" width="19" height="54" fill="#C6D2FF"/>
<rect x="218" y="65.0001" width="19" height="96" fill="#C6D2FF"/>
<rect x="101" y="75.0001" width="19" height="86" fill="#C6D2FF"/>
<rect x="179" y="53.0001" width="19" height="108" fill="#C6D2FF"/>
<rect x="62" y="107" width="19" height="54" fill="#C6D2FF"/>
<path d="M41.5592 58.5666C42.7066 57.5638 42.7611 55.7693 41.6811 54.5586C40.601 53.3478 38.7952 53.1792 37.6478 54.182C36.5005 55.1849 36.4459 56.9793 37.526 58.1901C38.6061 59.4008 40.4118 59.5694 41.5592 58.5666Z" fill="#7795FF"/>
<path d="M280.023 26.1296C280.602 25.6234 280.63 24.7177 280.084 24.1065C279.539 23.4954 278.628 23.4103 278.049 23.9165C277.469 24.4227 277.442 25.3284 277.987 25.9396C278.532 26.5507 279.444 26.6358 280.023 26.1296Z" fill="#7795FF"/>
<path d="M158.023 45.1296C158.602 44.6234 158.63 43.7177 158.084 43.1065C157.539 42.4954 156.628 42.4103 156.049 42.9165C155.469 43.4227 155.442 44.3284 155.987 44.9396C156.532 45.5507 157.444 45.6358 158.023 45.1296Z" fill="#7795FF"/>
<path d="M45.0229 143.13C45.602 142.623 45.6296 141.718 45.0844 141.107C44.5392 140.495 43.6278 140.41 43.0486 140.917C42.4695 141.423 42.442 142.328 42.9871 142.94C43.5323 143.551 44.4438 143.636 45.0229 143.13Z" fill="#7795FF"/>
<path d="M263.989 98.2003C265.136 97.1974 265.191 95.403 264.111 94.1922C263.031 92.9815 261.225 92.8129 260.078 93.8157C258.93 94.8185 258.876 96.613 259.956 97.8237C261.036 99.0345 262.842 99.2031 263.989 98.2003Z" fill="#7795FF"/>
<path d="M65.738 27.0818C67.6036 25.4512 67.6923 22.5334 65.9361 20.5647C64.1799 18.596 61.2437 18.3219 59.3781 19.9525C57.5124 21.5831 57.4237 24.5009 59.18 26.4696C60.9362 28.4383 63.8723 28.7124 65.738 27.0818Z" fill="#7795FF"/>
<path d="M281.738 150.082C283.604 148.451 283.692 145.533 281.936 143.565C280.18 141.596 277.244 141.322 275.378 142.952C273.512 144.583 273.424 147.501 275.18 149.47C276.936 151.438 279.872 151.712 281.738 150.082Z" fill="#7795FF"/>
</svg>
