<?xml version="1.0" encoding="UTF-8"?>
<svg width="453px" height="597px" viewBox="0 0 453 597" version="1.1" xmlns="http://www.w3.org/2000/svg" xmlns:xlink="http://www.w3.org/1999/xlink" style="background: #06081C;">
    <title>Illustration/Dark/empty_slate-presentation</title>
    <defs>
        <rect id="path-1" x="0" y="0" width="453" height="596.835159"></rect>
        <filter x="-32.4%" y="-39.6%" width="164.8%" height="179.2%" filterUnits="objectBoundingBox" id="filter-3">
            <feGaussianBlur stdDeviation="4" in="SourceGraphic"></feGaussianBlur>
        </filter>
    </defs>
    <g id="Illustration/Dark/empty_slate-presentation" stroke="none" stroke-width="1" fill="none" fill-rule="evenodd">
        <rect fill="#06081C" x="0" y="0" width="453" height="597"></rect>
        <rect id="Rectangle" x="0" y="0" width="454" height="599"></rect>
        <mask id="mask-2" fill="white">
            <use xlink:href="#path-1"></use>
        </mask>
        <g id="Rectangle"></g>
        <circle id="Oval" stroke="#9EB1FF" stroke-width="1.5" fill="#192045" mask="url(#mask-2)" cx="226.5" cy="464" r="9.25"></circle>
        <g id="Group-6" mask="url(#mask-2)">
            <g transform="translate(29.836032, 109.896104)">
                <rect id="Rectangle" stroke="#9EB1FF" stroke-width="1.5" fill="#192045" x="0.75" y="0.75" width="391.827935" height="251.5" rx="2"></rect>
                <g id="Group-4" stroke="none" stroke-width="1" fill="none" transform="translate(136.472793, 96.975605)">
                    <g id="Group-3">
                        <path d="M9.2,18.8153731 L9.20097733,76.1253703 C9.20097733,77.2299398 10.0964078,78.1253703 11.2009773,78.1253703 L11.2009773,78.1253703 L96.983,78.1243731 L96.9832745,84.70466 C96.9832745,85.8092295 96.087844,86.70466 94.9832745,86.70466 L2,86.70466 C0.8954305,86.70466 1.3527075e-16,85.8092295 0,84.70466 L0,20.8163678 C-1.3527075e-16,19.7117983 0.8954305,18.8163678 2,18.8163678 L9.2,18.8153731 Z" id="Rectangle-3" fill="#06081C"></path>
                        <path d="M108.25944,68.940766 L108.25944,75.5866196 C108.25944,76.6911891 107.364009,77.5866196 106.25944,77.5866196 L13.2761653,77.5866196 C12.1715958,77.5866196 11.2761653,76.6911891 11.2761653,75.5866196 L11.2761653,11.6983275 C11.2761653,10.593758 12.1715958,9.69832745 13.2761653,9.69832745 L22.9400083,9.69832745 C23.3443749,9.69832745 23.7392439,9.82089973 24.072533,10.0498773" id="Rectangle" stroke="#9EB1FF" stroke-width="1.5" fill="#06081C"></path>
                        <rect id="Rectangle-2" stroke="#9EB1FF" stroke-width="1.5" fill="#06081C" x="23.3990746" y="0" width="96.9832745" height="67.8882922" rx="2"></rect>
                        <polygon id="Triangle" fill="#8DA4FA" filter="url(#filter-3)" transform="translate(75.864332, 34.550292) rotate(90.000000) translate(-75.864332, -34.550292) " points="75.8643321 19.3966549 94.3854436 49.7039282 57.3432207 49.7039282"></polygon>
                        <polygon id="Triangle" fill="#8DA4FA" transform="translate(75.864332, 34.550292) rotate(90.000000) translate(-75.864332, -34.550292) " points="75.8643321 19.3966549 94.3854436 49.7039282 57.3432207 49.7039282"></polygon>
                    </g>
                </g>
            </g>
        </g>
        <line x1="34.5" y1="381.5" x2="418.5" y2="381.5" id="Line-8" stroke="#9EB1FF" stroke-width="1.5" stroke-linecap="round" mask="url(#mask-2)"></line>
        <line x1="226.5" y1="454" x2="226.5" y2="381.5" id="Line-8" stroke="#9EB1FF" stroke-width="1.5" stroke-linecap="round" mask="url(#mask-2)"></line>
        <g id="stars" mask="url(#mask-2)">
            <g transform="translate(74.342724, 131.801199)" id="Group">
                <ellipse id="Accent-1" fill="#8DA4FA" fill-rule="nonzero" cx="308.367267" cy="169.758099" rx="1.90766375" ry="1.97344526"></ellipse>
                <g id="Group-3" transform="translate(134.730250, 58.557963)">
                    <path d="M3.90056266,2.04433292 C4.10100529,2.70863164 3.78483014,3.40657012 3.10688122,3.7963391 C2.4289323,4.18610808 1.53114055,4.18610808 0.853191637,3.7963391 C0.175242719,3.40657012 -0.140932433,2.70863164 0.0595101962,2.04433292 C-0.140932433,1.3800342 0.175242719,0.682095715 0.853191637,0.292326735 C1.53114055,-0.097442245 2.4289323,-0.097442245 3.10688122,0.292326735 C3.78483014,0.682095715 4.10100529,1.3800342 3.90056266,2.04433292 Z" id="Accent-1-2" fill="#6F7CBD" fill-rule="nonzero"></path>
                    <path d="M5.70318941,1.92921528 C5.70318941,2.83746838 4.9669048,3.573753 4.0586517,3.573753 C3.15039859,3.573753 2.41411398,2.83746838 2.41411398,1.92921528 C2.41411398,1.02096218 3.15039859,0.284677563 4.0586517,0.284677563 C4.9669048,0.284677563 5.70318941,1.02096218 5.70318941,1.92921528 Z" id="Outline-1-2" stroke="#1F2A3B" stroke-width="0.5"></path>
                </g>
                <path d="M4.19357128,47.7005095 C4.10895887,47.6567266 4.04000957,47.5877773 3.99622675,47.5031649 L3.28907554,46.154644 C3.20632904,46.0044986 3.04936189,45.9103183 2.87794111,45.9079633 C2.70245357,45.9111047 2.54092191,46.004296 2.4503613,46.154644 L1.75965546,47.5031649 C1.71161224,47.5845698 1.64371578,47.6524662 1.56231093,47.7005095 L0.246680759,48.4734422 C0.0985614131,48.5661711 0.00613408103,48.7263785 0,48.901022 C-0.000112979361,49.077396 0.0939363075,49.2404148 0.246680759,49.3286018 L1.56231093,50.0521984 C1.64692335,50.0959812 1.71587265,50.1649305 1.75965546,50.2495429 L2.4503613,51.5816185 C2.53145158,51.7433201 2.69704663,51.8452247 2.87794111,51.8447802 C3.05522849,51.8469863 3.21685574,51.7435448 3.28907554,51.5816185 L3.99622675,50.2495429 C4.03444758,50.1610107 4.10503903,50.0904192 4.19357128,50.0521984 L5.49275608,49.3286018 C5.65544685,49.2482248 5.75842732,49.0824848 5.75842732,48.901022 C5.75842732,48.7195592 5.65544685,48.5538191 5.49275608,48.4734422 L4.19357128,47.7005095 Z" id="Accent-1-3" fill="#6F7CBD" fill-rule="nonzero"></path>
                <g id="Group-5" transform="translate(49.258682, 379.422730)">
                    <path d="M10.3541102,7.16357324 L7.88730359,5.79860693 C7.72682137,5.71010568 7.59974393,5.57147575 7.52550529,5.40391788 L6.20987512,2.83843904 C6.05364602,2.54718442 5.75099496,2.36433274 5.42049701,2.36152311 C5.09383947,2.36309441 4.79548261,2.54718694 4.64756428,2.83843904 L3.29904336,5.40391788 C3.22389211,5.5667451 3.09657314,5.6998513 2.93724506,5.78216156 L0.470438483,7.14712786 C0.178977764,7.31847107 0,7.63130229 0,7.96939672 C0,8.30749115 0.178977764,8.62032237 0.470438483,8.79166558 L2.93724506,10.1566319 C3.09657314,10.2389421 3.22389211,10.3720483 3.29904336,10.5348756 L4.63111891,13.1003544 C4.77903724,13.3916065 5.07739409,13.575699 5.40405163,13.5772703 C5.73454958,13.5744607 6.03720064,13.391609 6.19342974,13.1003544 L7.50905991,10.5348756 C7.59047775,10.3708899 7.72331796,10.2380497 7.88730359,10.1566319 L10.3541102,8.82455633 C10.6622784,8.66736777 10.853796,8.34817169 10.8474715,8.00228747 C10.8561955,7.65156518 10.6648927,7.32635047 10.3541102,7.16357324 L10.3541102,7.16357324 Z" id="Accent-1-4" fill="#6F7CBD" fill-rule="nonzero"></path>
                    <path d="M11.2536888,4.81849551 L8.78688225,3.43708383 C8.63102155,3.35021367 8.50494463,3.21840597 8.42508395,3.05884015 L7.10945377,0.476915938 C6.95322468,0.185661315 6.65057362,0.00280963043 6.32007567,0 C5.99341813,0.00157130761 5.69506127,0.185663835 5.54714294,0.476915938 L4.23151277,3.05884015 C4.15009493,3.22282578 4.01725473,3.35566599 3.8532691,3.43708383 L1.38646252,4.81849551 C1.0950018,4.98983872 0.916024036,5.30266993 0.916024036,5.64076437 C0.916024036,5.9788588 1.0950018,6.29169002 1.38646252,6.46303323 L3.78748759,7.79510878 C3.95147322,7.87652662 4.08431342,8.00936682 4.16573126,8.17335245 L5.48136143,10.7552767 C5.62927976,11.0465288 5.92763662,11.2306213 6.25429416,11.2321926 C6.58479211,11.229383 6.88744317,11.0465313 7.04367227,10.7552767 L8.35930244,8.17335245 C8.43916312,8.01378663 8.56524005,7.88197894 8.72110074,7.79510878 L11.1879073,6.44658785 C11.48838,6.28212192 11.675219,5.96685788 11.675219,5.62431899 C11.675219,5.2817801 11.48838,4.96651606 11.1879073,4.80205013 L11.2536888,4.81849551 Z" id="Outline-1-4" stroke="#414D86" stroke-width="0.5"></path>
                </g>
                <g id="Group-4" transform="translate(73.843850, 0.000000)">
                    <path d="M4.59610357,2.30401403 L3.48324556,1.71419929 C3.41711315,1.67014047 3.36037568,1.61340299 3.31631686,1.54727059 L2.74875928,0.43441258 C2.6876284,0.29870471 2.55261418,0.211443021 2.4037733,0.211443021 C2.25493241,0.211443021 2.11991819,0.29870471 2.05878731,0.43441258 L1.49122973,1.54727059 C1.45040052,1.61598088 1.39301132,1.67337008 1.32430103,1.71419929 L0.211443021,2.30401403 C0.0820483921,2.37605588 0.00130992875,2.51203645 0,2.66012859 C0.00355290395,2.80758513 0.0836801507,2.94253629 0.211443021,3.01624316 L1.32430103,3.6060579 C1.39254383,3.64259395 1.45007965,3.69629405 1.49122973,3.76185802 L2.05878731,4.87471603 C2.1260325,5.00301434 2.25892036,5.08339831 2.4037733,5.08339831 C2.54862623,5.08339831 2.68151409,5.00301434 2.74875928,4.87471603 L3.31631686,3.76185802 C3.35746694,3.69629405 3.41500276,3.64259395 3.48324556,3.6060579 L4.59610357,3.01624316 C4.71959527,2.93981048 4.79522642,2.80535509 4.79641801,2.66012859 C4.79974411,2.51373626 4.72293757,2.37719131 4.59610357,2.30401403 L4.59610357,2.30401403 Z" id="Accent-1-5" fill="#6F7CBD" fill-rule="nonzero"></path>
                    <path d="M5.84250454,2.09257101 L4.72964653,1.50275627 C4.65426351,1.47116073 4.59431336,1.41121058 4.56271783,1.33582757 L3.99516025,0.222969559 C3.93402937,0.0872616888 3.79901515,0 3.65017426,0 C3.50133337,0 3.36631916,0.0872616888 3.30518828,0.222969559 L2.7376307,1.33582757 C2.70334971,1.4093696 2.64424403,1.46847528 2.570702,1.50275627 L1.45784399,2.09257101 C1.32494586,2.16653858 1.24364614,2.30774337 1.24640097,2.45981415 C1.24530094,2.60856877 1.32671408,2.74568563 1.45784399,2.81592872 L2.570702,3.40574346 C2.6368344,3.44980228 2.69357188,3.50653975 2.7376307,3.57267216 L3.30518828,4.68553017 C3.36967483,4.81674338 3.50398584,4.89906304 3.65017426,4.89701206 C3.79562965,4.89643755 3.92866689,4.81489859 3.99516025,4.68553017 L4.56271783,3.57267216 C4.60677665,3.50653975 4.66351412,3.44980228 4.72964653,3.40574346 L5.84250454,2.81592872 C5.97189917,2.74388686 6.05263763,2.60790629 6.05394756,2.45981415 C6.05670239,2.30774337 5.97540266,2.16653858 5.84250454,2.09257101 L5.84250454,2.09257101 Z" id="Outline-1-5" stroke="#414D86" stroke-width="0.5"></path>
                </g>
                <path d="M220.225551,34.9852038 L219.205937,34.426061 C219.1418,34.3941587 219.089831,34.3421899 219.057929,34.2780526 L218.515232,33.2091031 C218.442106,33.0988618 218.318614,33.0325866 218.186324,33.0325866 C218.054035,33.0325866 217.930542,33.0988618 217.857417,33.2091031 L217.314719,34.2780526 C217.278407,34.3388892 217.227547,34.3897492 217.166711,34.426061 L216.147097,34.9852038 C216.023877,35.0563373 215.948479,35.1882841 215.949737,35.3305567 C215.954257,35.4669347 216.028883,35.5913125 216.147097,35.6594643 L217.166711,36.2186071 C217.228679,36.2605816 217.279482,36.3170288 217.314719,36.3830609 L217.857417,37.435565 C217.924623,37.5539099 218.050228,37.6270251 218.186324,37.6270251 C218.322421,37.6270251 218.448025,37.5539099 218.515232,37.435565 L219.057929,36.3830609 C219.088882,36.3141325 219.140639,36.2566248 219.205937,36.2186071 L220.225551,35.6594643 C220.343765,35.5913125 220.418392,35.4669347 220.422895,35.3305567 C220.417922,35.189987 220.344132,35.0608546 220.225551,34.9852038 Z" id="Accent-1-6" fill="#9EB1FF" fill-rule="nonzero"></path>
                <ellipse id="Outline-1" stroke="#1F2A3B" stroke-width="0.5" cx="263.948304" cy="169.741653" rx="1.90766375" ry="1.98989064"></ellipse>
                <path d="M6.01900815,46.9275767 C5.93439573,46.8837939 5.86544643,46.8148446 5.82166362,46.7302322 L5.1145124,45.3817113 C5.0374545,45.2262013 4.87685522,45.1298417 4.70337797,45.1350306 C4.52878592,45.125458 4.36595813,45.2231547 4.29224354,45.3817113 L3.58509232,46.7302322 C3.54130951,46.8148446 3.47236021,46.8837939 3.3877478,46.9275767 L2.088563,47.7169548 C1.9356073,47.8050022 1.84133356,47.9680473 1.84133356,48.1445346 C1.84133356,48.321022 1.9356073,48.4840671 2.088563,48.5721144 L3.3877478,49.295711 C3.47236021,49.3394939 3.54130951,49.4084432 3.58509232,49.4930556 L4.29224354,50.8251311 C4.37052759,50.9803393 4.52954477,51.0782334 4.70337797,51.0782334 C4.87721118,51.0782334 5.03622835,50.9803393 5.1145124,50.8251311 L5.82166362,49.4930556 C5.85988444,49.4045233 5.93047589,49.3339319 6.01900815,49.295711 L7.31819294,48.5721144 C7.47114865,48.4840671 7.56542239,48.321022 7.56542239,48.1445346 C7.56542239,47.9680473 7.47114865,47.8050022 7.31819294,47.7169548 L6.01900815,46.9275767 Z" id="Outline-1-3" stroke="#414D86" stroke-width="0.5"></path>
                <path d="M246.094574,378.40407 L243.627768,377.022658 C243.471907,376.935788 243.34583,376.80398 243.265969,376.644414 L241.950339,374.06249 C241.79411,373.771236 241.491459,373.588384 241.160961,373.585574 C240.834303,373.587146 240.535947,373.771238 240.388028,374.06249 L239.072398,376.644414 C238.99098,376.8084 238.85814,376.94124 238.694154,377.022658 L236.227348,378.40407 C235.935887,378.575413 235.756909,378.888244 235.756909,379.226339 C235.756909,379.564433 235.935887,379.877264 236.227348,380.048608 L238.628373,381.380683 C238.792359,381.462101 238.925199,381.594941 239.006617,381.758927 L240.322247,384.340851 C240.470165,384.632103 240.768522,384.816196 241.095179,384.817767 C241.425677,384.814957 241.728328,384.632106 241.884558,384.340851 L243.200188,381.758927 C243.280048,381.599361 243.406125,381.467553 243.561986,381.380683 L246.028793,380.032162 C246.329265,379.867696 246.516104,379.552432 246.516104,379.209893 C246.516104,378.867354 246.329265,378.55209 246.028793,378.387624 L246.094574,378.40407 Z" id="Outline-1-4" stroke="#414D86" stroke-width="0.5"></path>
                <path d="M221.590517,34.5411786 L220.570904,33.9655904 C220.502166,33.9319636 220.449121,33.8730246 220.422895,33.8011367 L219.880198,32.7486325 C219.817323,32.6253652 219.689644,32.5487582 219.55129,32.551288 C219.41774,32.5511206 219.296064,32.6279688 219.238828,32.7486325 L218.696131,33.8011367 C218.660368,33.8667989 218.609668,33.9231326 218.548122,33.9655904 L217.577845,34.5411786 C217.448327,34.5971394 217.368928,34.7294713 217.380501,34.8700862 C217.373755,35.0095323 217.45163,35.1393243 217.577845,35.1989937 L218.597459,35.7745819 C218.654765,35.815246 218.704803,35.8652838 218.745467,35.9225903 L219.288164,36.9915398 C219.3454,37.1122036 219.467076,37.1890518 219.600627,37.1888846 C219.737959,37.1876932 219.863856,37.1121552 219.929534,36.9915398 L220.472232,35.9225903 C220.508543,35.8617537 220.559403,35.8108937 220.62024,35.7745819 L221.639853,35.1989937 C221.758198,35.1317868 221.831313,35.0061827 221.831313,34.8700862 C221.831313,34.7339896 221.758198,34.6083856 221.639853,34.5411786 L221.590517,34.5411786 Z" id="Outline-1-6" stroke="#414D86" stroke-width="0.5"></path>
            </g>
        </g>
        <rect id="Rectangle" fill="#364389" fill-rule="nonzero" mask="url(#mask-2)" x="0.128209848" y="0.164841233" width="452.672342" height="33"></rect>
        <rect id="Rectangle" fill="#414E92" fill-rule="nonzero" mask="url(#mask-2)" x="0.128209848" y="564.164841" width="452.672342" height="33"></rect>
        <polygon id="Path" fill="#06081C" fill-rule="nonzero" mask="url(#mask-2)" points="44.6208007 41.4778647 -3 41.4778647 20.8104004 -4 68.4312011 -4"></polygon>
        <polygon id="Path" fill="#06081C" fill-rule="nonzero" mask="url(#mask-2)" points="139.862402 41.4778647 92.2416015 41.4778647 116.052002 -4 163.672803 -4"></polygon>
        <polygon id="Path" fill="#06081C" fill-rule="nonzero" mask="url(#mask-2)" points="330.345605 41.6610216 282.724804 41.6610216 306.535205 -3.83515877 354.156006 -3.83515877"></polygon>
        <polygon id="Path" fill="#06081C" fill-rule="nonzero" mask="url(#mask-2)" points="424.140267 41.6610216 376.519466 41.6610216 400.329867 -3.83515877 447.950667 -3.83515877"></polygon>
        <polygon id="Path" fill="#06081C" fill-rule="nonzero" mask="url(#mask-2)" points="235.360423 41.4778647 187.739623 41.4778647 211.550023 -4 259.170824 -4"></polygon>
        <polygon id="Path" fill="#06081C" fill-rule="nonzero" mask="url(#mask-2)" points="51.6208007 601.477865 4 601.477865 27.8104004 556 75.4312011 556"></polygon>
        <polygon id="Path" fill="#06081C" fill-rule="nonzero" mask="url(#mask-2)" points="146.862402 601.477865 99.2416015 601.477865 123.052002 556 170.672803 556"></polygon>
        <polygon id="Path" fill="#06081C" fill-rule="nonzero" mask="url(#mask-2)" points="337.345605 601.661022 289.724804 601.661022 313.535205 556.164841 361.156006 556.164841"></polygon>
        <polygon id="Path" fill="#06081C" fill-rule="nonzero" mask="url(#mask-2)" points="431.140267 601.661022 383.519466 601.661022 407.329867 556.164841 454.950667 556.164841"></polygon>
        <polygon id="Path" fill="#06081C" fill-rule="nonzero" mask="url(#mask-2)" points="242.360423 601.477865 194.739623 601.477865 218.550023 556 266.170824 556"></polygon>
    </g>
</svg>