<svg xmlns="http://www.w3.org/2000/svg" width="380" height="380" viewBox="0 0 380 380">
    <g fill="none" fill-rule="evenodd">
        <g transform="translate(39.995 52.78)">
            <circle cx="262.087" cy="239.091" r="2.438" fill="#9EB1FF" fill-rule="nonzero"/>
            <path fill="#9EB1FF" fill-rule="nonzero" d="M46.105 102.995c0 1.123-.91 2.032-2.032 2.032-1.122 0-2.032-.91-2.032-2.032 0-1.122.91-2.032 2.032-2.032 1.122 0 2.032.91 2.032 2.032zM5.33 44.5c-.107-.057-.194-.143-.252-.249l-.89-1.655c-.107-.19-.31-.308-.531-.308-.22 0-.424.118-.532.308l-.899 1.655c-.051.107-.136.194-.241.25l-1.673.956c-.193.106-.312.308-.312.526 0 .218.12.42.312.526l1.673.88c.105.055.19.142.241.249l.9 1.645c.102.197.307.32.531.32.224 0 .429-.123.532-.32l.89-1.645c.057-.105.144-.192.25-.249l1.663-.88c.199-.102.323-.305.323-.526 0-.221-.124-.424-.323-.526L5.33 44.5zM301.33 73.5c-.107-.057-.194-.143-.252-.249l-.89-1.655c-.107-.19-.31-.308-.531-.308-.22 0-.424.118-.532.308l-.899 1.655c-.051.107-.136.194-.241.25l-1.673.956c-.193.106-.312.308-.312.526 0 .218.12.42.312.526l1.673.88c.105.055.19.142.241.249l.9 1.645c.102.197.307.32.531.32.224 0 .429-.123.532-.32l.89-1.645c.057-.105.144-.192.25-.249l1.663-.88c.199-.102.323-.305.323-.526 0-.221-.124-.424-.323-.526l-1.662-.957zM109.185 62.13l-3.147-1.69c-.197-.108-.36-.27-.467-.47l-1.686-3.156c-.197-.366-.579-.595-.994-.595-.415 0-.796.229-.994.595l-1.686 3.157c-.107.198-.27.36-.467.468l-3.147 1.692c-.365.198-.592.58-.592.997 0 .416.227.799.592.997l3.147 1.692c.198.107.36.27.467.468l1.686 3.157c.198.366.58.595.994.595.415 0 .797-.229.994-.595l1.686-3.157c.107-.198.27-.361.467-.468l3.147-1.647c.39-.19.637-.585.637-1.02 0-.434-.248-.83-.637-1.02z"/>
            <path fill="#9EB1FF" fill-rule="nonzero" stroke="#000" d="M109.998 60.912l-3.147-1.692c-.198-.107-.36-.27-.467-.468l-1.686-3.157c-.197-.367-.579-.595-.994-.595-.415 0-.797.228-.994.595l-1.686 3.157c-.107.198-.27.36-.467.468l-3.147 1.692c-.365.198-.593.58-.593.997 0 .416.228.799.593.997l3.147 1.691c.198.108.36.27.467.469l1.686 3.157c.197.366.579.594.994.594.415 0 .797-.228.994-.594l1.686-3.157c.107-.199.27-.361.467-.469l3.147-1.646c.39-.19.637-.585.637-1.02 0-.434-.248-.83-.637-1.02h0z"/>
            <path fill="#9EB1FF" fill-rule="nonzero" d="M94.454 3.65l-1.3-.701c-.085-.037-.152-.105-.19-.19l-.702-1.3c-.084-.148-.241-.24-.412-.24-.171 0-.329.092-.413.24l-.692 1.3c-.043.081-.11.147-.19.19l-1.3.702c-.154.08-.25.239-.25.412 0 .174.096.333.25.413l1.3.693c.077.048.141.113.19.19l.692 1.299c.08.154.24.25.413.25s.332-.096.412-.25l.702-1.3c.043-.08.11-.147.19-.19l1.3-.692c.148-.084.24-.242.24-.413 0-.17-.092-.328-.24-.412zM273.656 10.419l-2.784-1.494c-.173-.084-.313-.224-.397-.398l-1.491-2.788c-.18-.321-.518-.52-.885-.52s-.705.199-.884.52l-1.491 2.788c-.092.175-.239.315-.418.398l-2.783 1.494c-.32.18-.518.518-.518.886s.198.707.518.886l2.783 1.494c.176.097.321.242.418.418l1.49 2.788c.18.321.518.52.885.52s.706-.199.885-.52l1.49-2.788c.09-.175.228-.32.398-.418l2.784-1.494c.332-.17.54-.512.54-.886s-.208-.716-.54-.886zM213.656 178.419l-2.784-1.494c-.173-.084-.313-.224-.397-.398l-1.491-2.788c-.18-.321-.518-.52-.885-.52s-.705.199-.884.52l-1.491 2.788c-.092.175-.239.315-.418.398l-2.783 1.494c-.32.18-.518.518-.518.886s.198.707.518.886l2.783 1.494c.176.097.321.242.418.418l1.49 2.788c.18.321.518.52.885.52s.706-.199.885-.52l1.49-2.788c.09-.175.228-.32.398-.418l2.784-1.494c.332-.17.54-.512.54-.886s-.208-.716-.54-.886z"/>
            <g fill-rule="nonzero" stroke="#414D86" transform="translate(.813)">
                <circle cx="260.461" cy="237.872" r="2.438"/>
                <path d="M46.105 102.183c0 1.122-.91 2.032-2.032 2.032-1.122 0-2.032-.91-2.032-2.032 0-1.123.91-2.032 2.032-2.032 1.122 0 2.032.91 2.032 2.032h0zM5.33 43.281c-.107-.057-.194-.144-.252-.249l-.89-1.655c-.107-.19-.31-.309-.531-.309-.22 0-.424.119-.532.31l-.899 1.654c-.051.107-.136.194-.241.249l-1.673.957c-.193.106-.312.307-.312.526 0 .218.12.42.312.526l1.673.88c.105.055.19.142.241.249l.9 1.645c.102.196.307.32.531.32.224 0 .429-.124.532-.32l.89-1.645c.057-.105.144-.192.25-.249l1.663-.88c.199-.102.323-.305.323-.526 0-.221-.124-.424-.323-.526L5.33 43.28zM301.33 72.281c-.107-.057-.194-.144-.252-.249l-.89-1.655c-.107-.19-.31-.309-.531-.309-.22 0-.424.119-.532.31l-.899 1.654c-.051.107-.136.194-.241.249l-1.673.957c-.193.106-.312.307-.312.526 0 .218.12.42.312.526l1.673.88c.105.055.19.142.241.249l.9 1.645c.102.196.307.32.531.32.224 0 .429-.124.532-.32l.89-1.645c.057-.105.144-.192.25-.249l1.663-.88c.199-.102.323-.305.323-.526 0-.221-.124-.424-.323-.526l-1.662-.957zM94.454 2.432l-1.3-.702c-.085-.038-.152-.105-.19-.19l-.702-1.3C92.178.092 92.021 0 91.85 0c-.171 0-.329.092-.413.24l-.692 1.3c-.043.08-.11.147-.19.19l-1.3.702c-.154.08-.25.239-.25.412 0 .174.096.333.25.413l1.3.692c.077.049.141.114.19.19l.692 1.3c.08.154.24.25.413.25s.332-.096.412-.25l.702-1.3c.043-.08.11-.147.19-.19l1.3-.692c.148-.084.24-.242.24-.413 0-.17-.092-.328-.24-.412zM273.656 9.2l-2.784-1.494c-.173-.084-.313-.224-.397-.398l-1.491-2.788c-.18-.321-.518-.52-.885-.52s-.705.199-.884.52l-1.491 2.788c-.092.175-.239.315-.418.398L262.523 9.2c-.32.18-.518.518-.518.886s.198.707.518.886l2.783 1.494c.176.097.321.242.418.418l1.49 2.788c.18.321.518.52.885.52s.706-.199.885-.52l1.49-2.788c.09-.175.228-.32.398-.418l2.784-1.494c.332-.17.54-.512.54-.886s-.208-.716-.54-.886zM213.656 177.2l-2.784-1.494c-.173-.084-.313-.224-.397-.398l-1.491-2.788c-.18-.321-.518-.52-.885-.52s-.705.199-.884.52l-1.491 2.788c-.092.175-.239.315-.418.398l-2.783 1.494c-.32.18-.518.518-.518.886s.198.707.518.886l2.783 1.494c.176.097.321.242.418.418l1.49 2.788c.18.321.518.52.885.52s.706-.199.885-.52l1.49-2.788c.09-.175.228-.32.398-.418l2.784-1.494c.332-.17.54-.512.54-.886s-.208-.716-.54-.886z"/>
            </g>
            <path fill="#6F7CBD" stroke="#414D86" d="M163.505 132.796v137.923h-13V134.653l13-1.857z"/>
            <path stroke="#414D86" d="M202.005 36.22c15.832 0 28.666 12.834 28.666 28.666v58.333l-57.333 8"/>
            <path stroke="#414D86" d="M99.005 46.208L171.005 36.219 203.005 132.208 99.005 137.208" transform="rotate(-180 151.005 86.714)"/>
            <path fill="#6F7CBD" stroke="#414D86" d="M96.338 41.22c19.146 0 34.667 15.52 34.667 34.666v61.333h0l-69.334-8V75.886c0-19.146 15.521-34.667 34.667-34.667z"/>
            <path stroke="#6F7CBD" d="M74.671 129.22c20.517 0 38.546 13.607 44.171 33.338l12.163 42.661h0l-69.334 8-13.008-50.432c-3.705-14.364 4.936-29.012 19.3-32.717 2.191-.565 4.445-.85 6.708-.85z" transform="matrix(1 0 0 -1 0 342.438)"/>
            <path fill="#FF6E61" d="M166.304 77.296L153.005 78.916 153.005 90.208 211.566 83.296 211.566 80.296 166.304 85.534z" transform="rotate(-180 182.285 83.752)"/>
            <path stroke="#414D86" d="M149.792 94.198c2.162-.356 3.856-2.099 4.14-4.284.027-.213.041-.43.041-.65 0-.371-.04-.733-.117-1.081-.098-.444-.255-.866-.462-1.257-.839-1.583-2.504-2.662-4.42-2.662-1.418 0-2.698.59-3.608 1.538-.862.899-1.393 2.119-1.393 3.462 0 1.072.337 2.065.911 2.878.513.728 1.215 1.312 2.035 1.682" transform="rotate(-109 148.973 89.231)"/>
            <path stroke="#414D86" d="M164.304 80.296L151.005 81.916 151.005 93.208 209.566 86.296 209.566 83.296 164.304 88.534z" transform="rotate(-180 180.285 86.752)"/>
            <path stroke="#9EB1FF" stroke-dasharray="4 3" d="M93.158 87.977c-1.13-21.544-4.702-35.388-10.717-41.533-9.024-9.218-18.133-1.939-14.322 3.005 2.438 3.162 8.592 3.778 10.037-1.791.814-3.138.134-8.239-3.548-15.954C67.798 17.43 53.98 13.096 33.155 18.7" transform="scale(-1 1) rotate(73 0 -33.197)"/>
            <ellipse cx="45.584" cy="6.677" stroke="#9EB1FF" rx="1.5" ry="1" transform="rotate(-44 45.584 6.677)"/>
            <path stroke="#9EB1FF" d="M45.882 6.542l.021.098c.103.497.208 1.191.215 1.983.006.628-.18 1.124-.447 1.468-.15.194-.323.339-.496.426-.123.062-.244.105-.345.08-.096-.023-.177-.12-.252-.228-.112-.164-.197-.38-.238-.626-.07-.428-.002-.944.3-1.463.275-.472.573-.896.847-1.25.186-.242.361-.45.51-.62l-.115.132zM43.239 5.892c.778-.03 1.5.027 2.04.097-.313.4-.864.864-1.557 1.298-.545.34-1.077.45-1.52.41-.248-.023-.466-.09-.635-.189-.099-.735.043-.92.235-1.085.336-.289.823-.507 1.437-.531z"/>
        </g>
    </g>
</svg>
