<svg xmlns="http://www.w3.org/2000/svg" width="380" height="380" viewBox="0 0 380 380">
    <g fill="none" fill-rule="evenodd">
        <g>
            <g fill-rule="nonzero" transform="translate(35 42.78) translate(167.813 61)">
                <circle cx="3.251" cy="3.658" r="2.438" fill="#9EB1FF"/>
                <circle cx="2.438" cy="2.438" r="2.438" stroke="#414D86"/>
            </g>
            <g fill-rule="nonzero">
                <path fill="#9EB1FF" d="M4.167 2.917C4.167 4.067 3.234 5 2.083 5 .933 5 0 4.067 0 2.917 0 1.767.933.833 2.083.833c1.15 0 2.084.933 2.084 2.084z" transform="translate(35 42.78) translate(2 131.22)"/>
                <path stroke="#414D86" d="M5 2.083c0 1.15-.933 2.084-2.083 2.084-1.15 0-2.084-.933-2.084-2.084C.833.933 1.766 0 2.917 0 4.067 0 5 .933 5 2.083h0z" transform="translate(35 42.78) translate(2 131.22)"/>
            </g>
            <g fill-rule="nonzero">
                <path fill="#9EB1FF" d="M5.33 3.432c-.107-.058-.194-.144-.252-.25l-.89-1.654c-.107-.19-.31-.309-.531-.309-.22 0-.424.118-.532.309l-.899 1.655c-.051.107-.136.194-.241.249l-1.673.956C.119 4.495 0 4.696 0 4.914c0 .219.12.42.312.527l1.673.88c.105.055.19.142.241.248l.9 1.646c.102.196.307.32.531.32.224 0 .429-.124.532-.32l.89-1.646c.057-.105.144-.191.25-.248l1.663-.88c.199-.102.323-.305.323-.527 0-.22-.124-.424-.323-.526L5.33 3.432z" transform="translate(35 42.78) translate(0 73)"/>
                <path stroke="#414D86" d="M6.142 2.212c-.106-.057-.193-.143-.251-.248L5 .309C4.895.119 4.692 0 4.47 0c-.22 0-.424.118-.532.309L3.04 1.964c-.051.106-.136.194-.242.248l-1.672.957c-.193.107-.312.308-.312.526 0 .219.12.42.312.526l1.672.88c.106.055.19.143.242.25l.9 1.645c.102.196.307.32.53.32.224 0 .43-.124.533-.32L5.89 5.35c.058-.105.145-.191.251-.248l1.663-.88c.198-.103.323-.305.323-.527 0-.22-.125-.424-.323-.526l-1.663-.957z" transform="translate(35 42.78) translate(0 73)"/>
            </g>
            <g fill-rule="nonzero">
                <path fill="#9EB1FF" d="M5.33 3.432c-.107-.058-.194-.144-.252-.25l-.89-1.654c-.107-.19-.31-.309-.531-.309-.22 0-.424.118-.532.309l-.899 1.655c-.051.107-.136.194-.241.249l-1.673.956C.119 4.495 0 4.696 0 4.914c0 .219.12.42.312.527l1.673.88c.105.055.19.142.241.248l.9 1.646c.102.196.307.32.531.32.224 0 .429-.124.532-.32l.89-1.646c.057-.105.144-.191.25-.248l1.663-.88c.199-.102.323-.305.323-.527 0-.22-.124-.424-.323-.526L5.33 3.432z" transform="translate(35 42.78) translate(250 242)"/>
                <path stroke="#414D86" d="M6.142 2.212c-.106-.057-.193-.143-.251-.248L5 .309C4.895.119 4.692 0 4.47 0c-.22 0-.424.118-.532.309L3.04 1.964c-.051.106-.136.194-.242.248l-1.672.957c-.193.107-.312.308-.312.526 0 .219.12.42.312.526l1.672.88c.106.055.19.143.242.25l.9 1.645c.102.196.307.32.53.32.224 0 .43-.124.533-.32L5.89 5.35c.058-.105.145-.191.251-.248l1.663-.88c.198-.103.323-.305.323-.527 0-.22-.125-.424-.323-.526l-1.663-.957z" transform="translate(35 42.78) translate(250 242)"/>
            </g>
            <g fill-rule="nonzero">
                <path fill="#9EB1FF" d="M5.33 3.432c-.107-.058-.194-.144-.252-.25l-.89-1.654c-.107-.19-.31-.309-.531-.309-.22 0-.424.118-.532.309l-.899 1.655c-.051.107-.136.194-.241.249l-1.673.956C.119 4.495 0 4.696 0 4.914c0 .219.12.42.312.527l1.673.88c.105.055.19.142.241.248l.9 1.646c.102.196.307.32.531.32.224 0 .429-.124.532-.32l.89-1.646c.057-.105.144-.191.25-.248l1.663-.88c.199-.102.323-.305.323-.527 0-.22-.124-.424-.323-.526L5.33 3.432z" transform="translate(35 42.78) translate(296 101)"/>
                <path stroke="#414D86" d="M6.142 2.212c-.106-.057-.193-.143-.251-.248L5 .309C4.895.119 4.692 0 4.47 0c-.22 0-.424.118-.532.309L3.04 1.964c-.051.106-.136.194-.242.248l-1.672.957c-.193.107-.312.308-.312.526 0 .219.12.42.312.526l1.672.88c.106.055.19.143.242.25l.9 1.645c.102.196.307.32.53.32.224 0 .43-.124.533-.32L5.89 5.35c.058-.105.145-.191.251-.248l1.663-.88c.198-.103.323-.305.323-.527 0-.22-.125-.424-.323-.526l-1.663-.957z" transform="translate(35 42.78) translate(296 101)"/>
            </g>
            <g fill-rule="nonzero">
                <path fill="#9EB1FF" d="M13.514 7.114l-3.227-1.688c-.202-.107-.369-.27-.478-.467l-1.73-3.15c-.202-.365-.593-.593-1.018-.593-.426 0-.817.228-1.02.594L4.314 4.959c-.11.198-.276.36-.479.467L.608 7.114C.233 7.31 0 7.693 0 8.108c0 .415.233.797.608.995l3.226 1.687c.203.107.37.27.479.467l1.729 3.15c.202.365.593.593 1.019.593.425 0 .816-.228 1.019-.593l1.729-3.15c.11-.197.276-.36.478-.467l3.227-1.642c.399-.189.653-.584.653-1.017 0-.433-.254-.829-.653-1.017z" transform="translate(35 42.78) translate(34 231.22)"/>
                <path stroke="#414D86" d="M14.347 5.897L11.12 4.21c-.202-.107-.368-.27-.478-.467L8.912.593C8.712.228 8.32 0 7.895 0c-.425 0-.817.228-1.019.593l-1.729 3.15c-.11.197-.276.36-.478.467L1.44 5.897c-.374.198-.608.58-.608.995 0 .415.234.797.608.994l3.227 1.688c.202.107.368.27.478.467l1.73 3.15c.201.365.593.593 1.018.593.426 0 .817-.228 1.019-.594l1.729-3.149c.11-.198.276-.36.478-.467l3.227-1.642c.4-.19.653-.584.653-1.018 0-.433-.254-.828-.653-1.017h0z" transform="translate(35 42.78) translate(34 231.22)"/>
            </g>
            <g fill-rule="nonzero">
                <path fill="#9EB1FF" d="M5.45 3.65l-1.3-.701c-.085-.037-.153-.105-.19-.19l-.702-1.3c-.084-.148-.242-.24-.413-.24-.17 0-.328.092-.412.24l-.693 1.3c-.043.081-.109.147-.19.19l-1.3.702c-.153.08-.25.239-.25.412 0 .174.097.333.25.413l1.3.693c.077.048.142.113.19.19l.693 1.299c.08.154.239.25.412.25.174 0 .333-.096.413-.25l.702-1.3c.043-.08.109-.147.19-.19l1.3-.692c.148-.084.24-.242.24-.413 0-.17-.092-.328-.24-.412z" transform="translate(35 42.78) translate(218)"/>
                <path stroke="#414D86" d="M6.262 2.432l-1.3-.702c-.084-.038-.152-.105-.19-.19L4.072.24C3.986.092 3.829 0 3.658 0c-.17 0-.328.092-.413.24l-.692 1.3c-.043.08-.109.147-.19.19l-1.3.702c-.153.08-.25.239-.25.412 0 .174.097.333.25.413l1.3.692c.077.049.142.114.19.19l.692 1.3c.08.154.24.25.413.25.174 0 .333-.096.413-.25l.702-1.3c.042-.08.108-.147.19-.19l1.299-.692c.148-.084.24-.242.24-.413 0-.17-.092-.328-.24-.412z" transform="translate(35 42.78) translate(218)"/>
            </g>
            <g fill-rule="nonzero">
                <path fill="#9EB1FF" d="M5.45 3.65l-1.3-.701c-.085-.037-.153-.105-.19-.19l-.702-1.3c-.084-.148-.242-.24-.413-.24-.17 0-.328.092-.412.24l-.693 1.3c-.043.081-.109.147-.19.19l-1.3.702c-.153.08-.25.239-.25.412 0 .174.097.333.25.413l1.3.693c.077.048.142.113.19.19l.693 1.299c.08.154.239.25.412.25.174 0 .333-.096.413-.25l.702-1.3c.043-.08.109-.147.19-.19l1.3-.692c.148-.084.24-.242.24-.413 0-.17-.092-.328-.24-.412z" transform="translate(35 42.78) translate(89 32)"/>
                <path stroke="#414D86" d="M6.262 2.432l-1.3-.702c-.084-.038-.152-.105-.19-.19L4.072.24C3.986.092 3.829 0 3.658 0c-.17 0-.328.092-.413.24l-.692 1.3c-.043.08-.109.147-.19.19l-1.3.702c-.153.08-.25.239-.25.412 0 .174.097.333.25.413l1.3.692c.077.049.142.114.19.19l.692 1.3c.08.154.24.25.413.25.174 0 .333-.096.413-.25l.702-1.3c.042-.08.108-.147.19-.19l1.299-.692c.148-.084.24-.242.24-.413 0-.17-.092-.328-.24-.412z" transform="translate(35 42.78) translate(89 32)"/>
            </g>
            <g fill-rule="nonzero">
                <path fill="#9EB1FF" d="M11.651 6.419L8.868 4.925c-.174-.084-.314-.224-.398-.398L6.98 1.739c-.18-.321-.518-.52-.885-.52s-.706.199-.885.52L3.72 4.527c-.092.175-.24.315-.418.398L.519 6.42c-.32.18-.519.518-.519.886s.198.707.519.886l2.783 1.494c.176.097.32.242.417.418l1.491 2.788c.18.321.518.52.885.52s.705-.199.884-.52l1.491-2.788c.09-.175.228-.32.398-.418l2.783-1.494c.332-.17.54-.512.54-.886s-.208-.716-.54-.886z" transform="translate(35 42.78) translate(262 36)"/>
                <path stroke="#414D86" d="M12.464 5.2L9.68 3.706c-.174-.084-.314-.224-.398-.398L7.793.52C7.612.199 7.274 0 6.907 0s-.706.199-.885.52L4.532 3.308c-.092.175-.238.315-.418.398L1.331 5.2c-.32.18-.518.518-.518.886s.198.707.518.886l2.783 1.494c.177.097.321.242.418.418l1.49 2.788c.18.321.519.52.886.52s.705-.199.884-.52l1.491-2.788c.09-.175.228-.32.398-.418l2.783-1.494c.332-.17.54-.512.54-.886s-.208-.716-.54-.886z" transform="translate(35 42.78) translate(262 36)"/>
            </g>
            <path stroke="#414D86" d="M224.44 86.831h19.117-16.867c.907 0-18.437 118.31-19.344 118.31h-2.25c-.907 0-1.523-.73-1.376-1.63l18.811-115.05c.147-.9 1.002-1.63 1.91-1.63z" transform="translate(35 42.78) matrix(-1 0 0 1 447.256 0)"/>
            <path fill="#6F7CBD" stroke="#414D86" d="M142.242 208.72c65.666 0 98.6.005 98.798.016l-.782 4.776c-.147.9-1.001 1.63-1.909 1.63H106.1c-.907 0-1.523-.73-1.376-1.63L123.356 99.55c.04-.24 4.975 35.466 17.386 107.67.032.19.023.585.5 1 .136.117.47.284 1 .5z" transform="translate(35 42.78) matrix(-1 0 0 1 345.742 0)"/>
            <path stroke="#414D86" d="M87.7 86.831H222.792c.927 0 1.556.752 1.406 1.679l-2.698 13.21h-138l2.25-13.21c.15-.927 1.024-1.679 1.95-1.679z" transform="translate(35 42.78)"/>
            <path fill="#FF6E61" d="M90.7 84.831H225.792c.927 0 1.556.752 1.406 1.679L224.5 99.72h-138l2.25-13.21c.15-.927 1.024-1.679 1.95-1.679z" transform="translate(35 42.78)"/>
            <path stroke="#414D86" d="M87.7 86.831H222.792c.927 0 1.556.752 1.406 1.679l-19.216 118.497c-.15.927-1.023 1.678-1.95 1.678H67.94c-.926 0-1.556-.751-1.406-1.678L85.75 88.51c.15-.927 1.024-1.679 1.95-1.679z" transform="translate(35 42.78)"/>
            <path stroke="#414D86" d="M84 101.72l20.228.111h115.564l2.208-.112-17.018 105.288c-.15.927-1.023 1.678-1.95 1.678H67.94c-.926 0-1.556-.751-1.406-1.678L83.5 102.22l.5-.5z" transform="translate(35 42.78)"/>
            <path fill-rule="nonzero" stroke="#414D86" d="M107.336 110.269c.75 0 1.35.214 1.724.632.367.41.495 1 .382 1.694h0l-2.544 15.691c-.121.744-.48 1.366-1.01 1.8-.536.44-1.243.686-2.039.686h0-15.354c-.749 0-1.35-.214-1.724-.632-.366-.41-.494-1-.382-1.694h0l2.545-15.691c.12-.744.48-1.366 1.01-1.8.536-.44 1.243-.686 2.038-.686h0zM101.99 143.24c.748 0 1.35.215 1.724.633.366.41.494 1 .381 1.694h0l-2.544 15.692c-.12.743-.48 1.365-1.01 1.8-.536.44-1.243.685-2.039.685h0H83.15c-.75 0-1.35-.214-1.725-.632-.366-.41-.494-1-.381-1.693h0l2.544-15.692c.12-.744.48-1.366 1.01-1.8.536-.44 1.243-.686 2.039-.686h0zM134.713 143.24c.75 0 1.35.215 1.725.633.366.41.494 1 .381 1.694h0l-2.544 15.692c-.12.743-.48 1.365-1.01 1.8-.536.44-1.243.685-2.039.685h0-15.353c-.75 0-1.35-.214-1.725-.632-.366-.41-.494-1-.381-1.693h0l2.544-15.692c.12-.744.48-1.366 1.01-1.8.536-.44 1.243-.686 2.039-.686h0zM96.643 176.213c.749 0 1.35.214 1.724.633.366.41.494.999.382 1.693h0l-2.545 15.692c-.12.744-.48 1.366-1.01 1.8-.536.44-1.243.686-2.038.686h0-15.354c-.75 0-1.35-.215-1.724-.633-.367-.41-.495-1-.382-1.693h0l2.544-15.692c.12-.744.48-1.366 1.01-1.8.536-.44 1.243-.686 2.039-.686h0zM140.296 110.269c.749 0 1.35.214 1.724.632.366.41.494 1 .382 1.694h0l-2.545 15.691c-.12.744-.48 1.366-1.01 1.8-.536.44-1.242.686-2.038.686h0-15.354c-.749 0-1.35-.214-1.724-.632-.367-.41-.495-1-.382-1.694h0l2.545-15.691c.12-.744.48-1.366 1.01-1.8.536-.44 1.242-.686 2.038-.686h0zM129.602 176.213c.75 0 1.35.214 1.724.633.367.41.495.999.382 1.693h0l-2.544 15.692c-.12.744-.48 1.366-1.01 1.8-.536.44-1.243.686-2.039.686h0-15.354c-.749 0-1.35-.215-1.724-.633-.366-.41-.494-1-.382-1.693h0l2.545-15.692c.12-.744.48-1.366 1.01-1.8.536-.44 1.243-.686 2.038-.686h0zM173.256 110.269c.749 0 1.35.214 1.724.632.366.41.494 1 .382 1.694h0l-2.545 15.691c-.12.744-.48 1.366-1.01 1.8-.536.44-1.243.686-2.038.686h0-15.354c-.75 0-1.35-.214-1.724-.632-.367-.41-.495-1-.382-1.694h0l2.544-15.691c.12-.744.48-1.366 1.01-1.8.536-.44 1.243-.686 2.039-.686h0zM167.909 143.24c.749 0 1.35.215 1.724.633.366.41.494 1 .382 1.694h0l-2.545 15.692c-.12.743-.48 1.365-1.01 1.8-.536.44-1.242.685-2.038.685h0-15.354c-.75 0-1.35-.214-1.724-.632-.367-.41-.495-1-.382-1.693h0l2.544-15.692c.121-.744.48-1.366 1.01-1.8.537-.44 1.243-.686 2.039-.686h0zM162.562 176.213c.75 0 1.35.214 1.724.633.367.41.495.999.382 1.693h0l-2.545 15.692c-.12.744-.48 1.366-1.01 1.8-.536.44-1.242.686-2.038.686h0-15.354c-.749 0-1.35-.215-1.724-.633-.366-.41-.494-1-.382-1.693h0l2.545-15.692c.12-.744.48-1.366 1.01-1.8.536-.44 1.242-.686 2.038-.686h0zM195.286 176.213c.75 0 1.35.214 1.724.633.367.41.495.999.382 1.693h0l-2.545 15.692c-.12.744-.48 1.366-1.01 1.8-.536.44-1.242.686-2.038.686h0-15.354c-.749 0-1.35-.215-1.724-.633-.366-.41-.494-1-.382-1.693h0l2.545-15.692c.12-.744.48-1.366 1.01-1.8.536-.44 1.242-.686 2.038-.686h0zM206.215 110.269c.75 0 1.35.214 1.724.632.367.41.495 1 .382 1.694h0l-2.544 15.691c-.12.744-.48 1.366-1.01 1.8-.536.44-1.243.686-2.039.686h0-15.354c-.749 0-1.35-.214-1.724-.632-.366-.41-.494-1-.382-1.694h0l2.545-15.691c.12-.744.48-1.366 1.01-1.8.536-.44 1.243-.686 2.038-.686h0zM200.869 143.24c.749 0 1.35.215 1.724.633.366.41.494 1 .382 1.694h0l-2.545 15.692c-.12.743-.48 1.365-1.01 1.8-.536.44-1.243.685-2.039.685h0-15.353c-.75 0-1.35-.214-1.724-.632-.367-.41-.495-1-.382-1.693h0l2.544-15.692c.12-.744.48-1.366 1.01-1.8.536-.44 1.243-.686 2.039-.686h0z" transform="translate(35 42.78)"/>
            <path stroke="#414D86" d="M83.265 101.76L221.712 101.76" transform="translate(35 42.78)"/>
            <g stroke="#414D86" transform="translate(35 42.78) translate(98 78.22)">
                <circle cx="8.5" cy="16.5" r="3"/>
                <path d="M8 16c4.418 0 8-3.582 8-8s-3.582-8-8-8-8 3.582-8 8" transform="rotate(-90 8 8)"/>
            </g>
            <g stroke="#414D86" transform="translate(35 42.78) translate(130 78.22)">
                <circle cx="8.5" cy="16.5" r="3"/>
                <path d="M8 16c4.418 0 8-3.582 8-8s-3.582-8-8-8-8 3.582-8 8" transform="rotate(-90 8 8)"/>
            </g>
            <g stroke="#414D86" transform="translate(35 42.78) translate(162 78.22)">
                <circle cx="8.5" cy="16.5" r="3"/>
                <path d="M8 16c4.418 0 8-3.582 8-8s-3.582-8-8-8-8 3.582-8 8" transform="rotate(-90 8 8)"/>
            </g>
            <g stroke="#414D86" transform="translate(35 42.78) translate(194 78.22)">
                <circle cx="7.5" cy="16.5" r="3"/>
                <path d="M8 16c4.418 0 8-3.582 8-8s-3.582-8-8-8-8 3.582-8 8" transform="rotate(-90 8 8)"/>
            </g>
        </g>
    </g>
</svg>
