<svg width="380" height="380" xmlns="http://www.w3.org/2000/svg">
    <g fill="none" fill-rule="evenodd">
        <path stroke="#414D86" stroke-linejoin="round" d="m92 155.147 3.41 32.164 79.54 43.908v-17.223l-11.911-20.813z"/>
        <path stroke="#414D86" stroke-linejoin="round" d="m133.475 177.022 66.574-15.757V135.22L92 155.147l3.41 32.164M289 205.752l-88.95-44.487V135.22l74.992 35.267L289 193.183z"/>
        <path stroke="#1F2A3B" stroke-linejoin="round" d="M289 205.752 174.95 231.22"/>
        <path stroke="#414D86" stroke-linejoin="round" d="m95 187.22 3.285 34.015 79.59 43.984v-17.253l-11.858-21.747M280.342 208.139 292 227.117v11.833"/>
        <path d="m292 238.95-46.939-23.101 46.939 23.1z" stroke="#414D86" stroke-linejoin="round"/>
        <path stroke="#1F2A3B" fill="#9EB1FF" d="m292 238.95-114.124 26.27v-17.254l-11.86-21.747 8.934 5 70.111-15.37z"/>
        <g fill-rule="nonzero">
            <path d="M43.167 167.136a2.083 2.083 0 1 1-4.167 0 2.083 2.083 0 0 1 4.167 0z" fill="#879DEF"/>
            <path d="M44 166.303a2.083 2.083 0 1 1-4.167 0 2.083 2.083 0 0 1 4.167 0z" stroke="#414D86"/>
            <path d="M262.33 289.432a.625.625 0 0 1-.252-.25l-.89-1.654a.61.61 0 0 0-1.063 0l-.899 1.655a.548.548 0 0 1-.241.249l-1.673.956a.602.602 0 0 0 0 1.053l1.673.88c.105.055.19.142.241.248l.9 1.646a.6.6 0 0 0 1.063 0l.89-1.646a.625.625 0 0 1 .25-.248l1.663-.88a.592.592 0 0 0 0-1.053l-1.662-.956z" fill="#879DEF"/>
            <path d="M263.142 288.212a.625.625 0 0 1-.251-.248l-.89-1.655a.61.61 0 0 0-1.063 0l-.899 1.655a.548.548 0 0 1-.242.248l-1.672.957a.602.602 0 0 0 0 1.052l1.672.88c.106.055.19.143.242.25l.9 1.645a.6.6 0 0 0 1.063 0l.889-1.646a.625.625 0 0 1 .251-.248l1.663-.88a.592.592 0 0 0 0-1.053l-1.663-.957z" stroke="#414D86"/>
            <path d="M82.33 288.432a.625.625 0 0 1-.252-.25l-.89-1.654a.61.61 0 0 0-1.063 0l-.899 1.655a.548.548 0 0 1-.241.249l-1.673.956a.602.602 0 0 0 0 1.053l1.673.88c.105.055.19.142.241.248l.9 1.646a.6.6 0 0 0 1.063 0l.89-1.646a.625.625 0 0 1 .25-.248l1.663-.88a.592.592 0 0 0 0-1.053l-1.662-.956z" fill="#879DEF"/>
            <path d="M83.142 287.212a.625.625 0 0 1-.251-.248l-.89-1.655a.61.61 0 0 0-1.063 0l-.899 1.655a.548.548 0 0 1-.242.248l-1.672.957a.602.602 0 0 0 0 1.052l1.672.88c.106.055.19.143.242.25l.9 1.645a.6.6 0 0 0 1.063 0l.889-1.646a.625.625 0 0 1 .251-.248l1.663-.88a.592.592 0 0 0 0-1.053l-1.663-.957z" stroke="#414D86"/>
            <path d="M338.33 167.432a.625.625 0 0 1-.252-.25l-.89-1.654a.61.61 0 0 0-1.063 0l-.899 1.655a.548.548 0 0 1-.241.249l-1.673.956a.602.602 0 0 0 0 1.053l1.673.88c.105.055.19.142.241.248l.9 1.646a.6.6 0 0 0 1.063 0l.89-1.646a.625.625 0 0 1 .25-.248l1.663-.88a.592.592 0 0 0 0-1.053l-1.662-.956z" fill="#879DEF"/>
            <path d="M339.142 166.212a.625.625 0 0 1-.251-.248l-.89-1.655a.61.61 0 0 0-1.063 0l-.899 1.655a.548.548 0 0 1-.242.248l-1.672.957a.602.602 0 0 0 0 1.052l1.672.88c.106.055.19.143.242.25l.9 1.645a.6.6 0 0 0 1.063 0l.889-1.646a.625.625 0 0 1 .251-.248l1.663-.88a.592.592 0 0 0 0-1.053l-1.663-.957z" stroke="#414D86"/>
            <path d="m66.514 227.333-3.227-1.688a1.175 1.175 0 0 1-.478-.467l-1.73-3.15a1.162 1.162 0 0 0-1.018-.593c-.426 0-.817.228-1.02.594l-1.728 3.149c-.11.198-.276.36-.479.467l-3.226 1.688c-.375.197-.608.579-.608.994 0 .416.233.798.608.995l3.226 1.687c.203.108.37.27.479.468l1.729 3.149c.202.365.593.593 1.019.593.425 0 .816-.228 1.019-.593l1.729-3.15c.11-.197.276-.36.478-.467l3.227-1.642c.399-.189.653-.584.653-1.017 0-.433-.254-.828-.653-1.017z" fill="#879DEF"/>
            <path d="m67.347 226.117-3.227-1.688a1.175 1.175 0 0 1-.478-.467l-1.73-3.15a1.162 1.162 0 0 0-1.018-.593c-.425 0-.817.228-1.019.594l-1.729 3.149c-.11.197-.276.36-.478.467l-3.227 1.688c-.374.197-.608.579-.608.994 0 .415.234.797.608.995l3.227 1.687c.202.107.368.27.478.467l1.73 3.15c.201.365.593.593 1.018.593.426 0 .817-.228 1.019-.593l1.729-3.15c.11-.197.276-.36.478-.467l3.227-1.642c.4-.189.653-.584.653-1.017 0-.434-.254-.829-.653-1.017z" stroke="#414D86"/>
            <g>
                <path d="m107.45 89.65-1.3-.701a.37.37 0 0 1-.19-.19l-.702-1.3a.474.474 0 0 0-.825 0l-.693 1.3a.455.455 0 0 1-.19.19l-1.3.702a.465.465 0 0 0 0 .825l1.3.693a.607.607 0 0 1 .19.19l.693 1.299a.465.465 0 0 0 .825 0l.702-1.3a.455.455 0 0 1 .19-.19l1.3-.692a.474.474 0 0 0 0-.825z" fill="#879DEF"/>
                <path d="m108.262 88.432-1.3-.702a.37.37 0 0 1-.19-.19l-.701-1.3a.474.474 0 0 0-.826 0l-.692 1.3a.455.455 0 0 1-.19.19l-1.3.702a.465.465 0 0 0 0 .825l1.3.692a.607.607 0 0 1 .19.19l.692 1.3a.465.465 0 0 0 .826 0l.702-1.3a.455.455 0 0 1 .19-.19l1.299-.692a.474.474 0 0 0 0-.825z" stroke="#414D86"/>
            </g>
            <g>
                <path d="m121.45 108.65-1.3-.701a.37.37 0 0 1-.19-.19l-.702-1.3a.474.474 0 0 0-.825 0l-.693 1.3a.455.455 0 0 1-.19.19l-1.3.702a.465.465 0 0 0 0 .825l1.3.693a.607.607 0 0 1 .19.19l.693 1.299a.465.465 0 0 0 .825 0l.702-1.3a.455.455 0 0 1 .19-.19l1.3-.692a.474.474 0 0 0 0-.825z" fill="#879DEF"/>
                <path d="m122.262 107.432-1.3-.702a.37.37 0 0 1-.19-.19l-.701-1.3a.474.474 0 0 0-.826 0l-.692 1.3a.455.455 0 0 1-.19.19l-1.3.702a.465.465 0 0 0 0 .825l1.3.692a.607.607 0 0 1 .19.19l.692 1.3a.465.465 0 0 0 .826 0l.702-1.3a.455.455 0 0 1 .19-.19l1.299-.692a.474.474 0 0 0 0-.825z" stroke="#414D86"/>
            </g>
            <g>
                <path d="m310.651 95.419-2.783-1.494a.856.856 0 0 1-.398-.398l-1.49-2.788a1.014 1.014 0 0 0-1.77 0l-1.49 2.788a.895.895 0 0 1-.418.398l-2.783 1.494a1.016 1.016 0 0 0 0 1.772l2.783 1.494c.176.097.32.242.417.418l1.491 2.788a1.014 1.014 0 0 0 1.77 0l1.49-2.788c.09-.175.228-.32.398-.418l2.783-1.494a.996.996 0 0 0 0-1.772z" fill="#879DEF"/>
                <path d="m311.464 94.2-2.783-1.494a.856.856 0 0 1-.398-.398l-1.49-2.788a1.014 1.014 0 0 0-1.77 0l-1.491 2.788a.895.895 0 0 1-.418.398l-2.783 1.494a1.016 1.016 0 0 0 0 1.772l2.783 1.494c.177.097.321.242.418.418l1.49 2.788a1.014 1.014 0 0 0 1.77 0l1.491-2.788c.09-.175.228-.32.398-.418l2.783-1.494a.996.996 0 0 0 0-1.772z" stroke="#414D86"/>
            </g>
            <g transform="translate(229.831 131.434)">
                <circle fill="#879DEF" cx="3.251" cy="3.658" r="2.438"/>
                <circle stroke="#414D86" cx="2.438" cy="2.438" r="2.438"/>
            </g>
        </g>
        <g>
            <path d="m151.653 287.12 1.667.11 1.653.104 2.454.143 1.616.087 1.6.08 1.582.074 1.564.067 1.545.06 1.526.054 1.504.047 1.483.041 2.183.05 1.426.024 1.401.019 1.377.012 1.35.005h1.322l1.295-.007 1.268-.013.621-.008 1.222-.023.591-.014a13.877 13.877 0 0 1-.208-3.561c.097-1.387.395-2.711.862-3.947l-.537-.09-1.183-.188-1.213-.188-1.242-.185-1.27-.184-1.297-.18-1.323-.18-1.35-.175-1.375-.174-.695-.085-1.41-.17-2.158-.247-1.466-.161-1.487-.158-1.508-.154-1.526-.15-1.545-.147-1.563-.142-1.58-.139-1.596-.134-1.612-.13-1.626-.125-1.64-.12-1.664-.117-1.667-.11-1.653-.104-2.454-.143-1.616-.087-1.6-.08-1.582-.074-1.564-.067-1.545-.06-1.525-.054-1.505-.048-1.483-.04-2.183-.05-1.425-.024-1.402-.019-1.376-.012-1.35-.006h-1.322l-1.297.007-.635.006-1.252.016-.575.01c.365 1.411.51 2.904.404 4.439a13.911 13.911 0 0 1-.656 3.362l.635.099 1.259.191 1.289.19 1.318.186 1.346.185 1.374.182 1.4.179 1.426.176 1.451.173 1.475.17 1.498.166 1.52.162 1.543.16 1.562.155 1.582.15 1.602.148 1.62.142.815.07 1.645.136 1.66.13 1.676.127 2.529.18z" stroke="#414D86"/>
            <path d="M152.764 286.787c-.108-2.282-.117-4.08-.027-5.392.09-1.313.356-3.249.796-5.807l-1.665-.117-1.669-.11-1.655-.104-1.659-.088c-.394 2.595-.639 4.516-.733 5.765-.095 1.249-.131 3.028-.11 5.336l.85.08 1.663.131 1.678.127 2.53.179z" fill="#FF6E61"/>
            <path d="M151.62 287.618c-.108-2.282-.117-4.08-.027-5.392.09-1.313.356-3.248.796-5.807l-1.665-.116-1.669-.111-1.655-.104-1.66-.088c-.393 2.595-.638 4.517-.732 5.765-.095 1.25-.132 3.028-.11 5.336l.85.08 1.663.131 1.678.127 2.53.18zM184.705 287.422l5.639.393a1.904 1.904 0 0 0 2.024-1.769l.168-2.399a1.904 1.904 0 0 0-1.759-2.033l-5.523-.387a13.87 13.87 0 0 0-.645 3.325c-.068.977-.033 1.937.096 2.87zM118.144 283.491c.861-.896 1.053-1.93 1.128-2.998a13.805 13.805 0 0 0-.353-4.225l-.633.01-.668.02-.654.025-.641.033-.627.038-.61.045-.89.079-.568.06-.83.1-.78.113-.5.083-.92.177c-3.002.98-3.42 1.196-3.694 1.46-.176.17-.295.347-.31.545-.017.26.143.508.388.76.35.36.887.71 1.575 1.054.63.297.947.432 1.284.563l1.825.624.494.146.52.145.82.213.568.137.585.133.6.13.617.126.632.12.645.118z" stroke="#414D86"/>
            <path d="M107.58 279.978c.273-.244.31-.534.33-.824.027-.383.01-.76-.047-1.123l-.03-.16-.237.005-.247.01-.242.012-.237.015-.232.017-.111.009-.222.02-.216.023-.103.012-.206.026-.098.013-.193.029-.186.03-.178.033-.174.035a7.91 7.91 0 0 0-.156.035l-.155.038-.069.019-.141.04-.067.02-.125.043a3.596 3.596 0 0 0-.103.038l-.11.046c-.141.062-.255.125-.332.2-.003.002-.024 0-.025.007-.002.027.045.038.062.055.115.119.294.23.514.34l.128.062c.108.05.224.099.342.145l.156.058.164.058.172.058.18.056.19.056.197.055.099.026.207.053.214.052.22.05.227.05.232.046.24.046.245.045z" stroke="#414D86" fill="#5B5B77"/>
            <path d="M183.527 288.71c.49 1.652.417 2.7-.22 3.144-.956.665-23.593 1.614-30.423-1.62-1.177-.558-1.337-1.075-.48-1.553 14.694 2.04 23.144 2.043 25.352.008 1.247.087 3.17.094 5.77.021z" stroke="#414D86"/>
        </g>
    </g>
</svg>
