<?xml version="1.0" encoding="UTF-8"?>
<svg width="100px" height="53px" viewBox="0 0 100 53" version="1.1" xmlns="http://www.w3.org/2000/svg" xmlns:xlink="http://www.w3.org/1999/xlink">
    <title>emtpy-crew</title>
    <g id="Component" stroke="none" stroke-width="1" fill="none" fill-rule="evenodd">
        <g id="credit-cards" transform="translate(-1024.000000, -559.000000)" fill="#606F87" fill-rule="nonzero">
            <g id="Component/credit-card_director_description_filled-Copy-5" transform="translate(881.000000, 443.000000)">
                <g id="Group-15" transform="translate(13.000000, 16.000000)">
                    <g id="emtpy-crew" transform="translate(130.000000, 100.000000)">
                        <g id="video-camera" transform="translate(83.000000, 26.000000) scale(-1, 1) translate(-83.000000, -26.000000) translate(66.000000, 7.000000)">
                            <path d="M33.589691,13.9557348 C33.3351181,13.8026972 33.0194448,13.7954981 32.7584597,13.9369576 L27.311676,16.889128 L27.311676,14.3592582 C27.311676,13.890794 26.93446,13.5110204 26.4693891,13.5110204 L25.0995305,13.5110204 C26.8079106,12.1157957 27.9020433,9.98618373 27.9020433,7.6037109 C27.902117,3.41106044 24.5146909,0 20.3509428,0 C16.7970935,0 13.8092156,2.48533901 13.0101928,5.82047441 C11.9649257,4.55045556 10.3872961,3.73999473 8.62503848,3.73999473 C5.48525707,3.73999473 2.93097857,6.31216883 2.93097857,9.47378248 C2.93097857,11.0471304 3.5637993,12.4741204 4.58629196,13.5112431 L3.81719293,13.5112431 C3.35197461,13.5112431 2.97483232,13.8910167 2.97483232,14.3594809 L2.97483232,18.2098378 L0.842360602,18.2098378 C0.377142287,18.2098378 0,18.5896114 0,19.0580756 L0,22.3937305 C0,22.8621947 0.377142287,23.2419683 0.842360602,23.2419683 L2.97475862,23.2419683 L2.97475862,27.0923253 C2.97475862,27.5607894 3.35190091,27.9405631 3.81711922,27.9405631 L13.7542325,27.9405631 L9.18857765,36.7595199 C8.97350999,37.174844 9.13359462,37.687171 9.54611473,37.9037392 C9.67052672,37.9690511 9.80363576,38 9.9347548,38 C10.2386355,38 10.532124,37.8338258 10.6823323,37.5437818 L15.1431067,28.9272175 L19.6039549,37.5437818 C19.7541632,37.8339743 20.0477254,38 20.3516061,38 C20.4827251,38 20.6159079,37.9690511 20.7402462,37.9037392 C21.1527663,37.687171 21.3128509,37.174844 21.0977095,36.7595199 L16.5320546,27.9405631 L26.4693154,27.9405631 C26.93446,27.9405631 27.311676,27.5607894 27.311676,27.0923253 L27.311676,24.5623812 L32.7584597,27.5145516 C32.8833139,27.5821642 33.0204766,27.6158592 33.1576394,27.6158592 C33.3072581,27.6158592 33.4568031,27.5757073 33.589691,27.4958487 C33.8442639,27.3427369 34,27.0662005 34,26.7676956 L34,14.6838879 C34,14.3853087 33.8442639,14.1088466 33.589691,13.9557348 Z M2.97483232,21.5452701 L1.6847212,21.5452701 L1.6847212,19.9060165 L2.97483232,19.9060165 L2.97483232,21.5452701 Z M20.3509428,1.6964014 C23.5856546,1.6964014 26.2173958,4.34643021 26.2173958,7.60378512 C26.2173958,10.86114 23.5857283,13.5110946 20.3509428,13.5110946 C17.1162309,13.5110946 14.4845634,10.8610658 14.4845634,7.60378512 C14.4845634,4.34650443 17.1163046,1.6964014 20.3509428,1.6964014 Z M13.918592,11.5820197 C14.3684799,12.317075 14.9391684,12.9693773 15.6025025,13.5110946 L12.663785,13.5110946 C13.202486,12.9647015 13.6317369,12.3094306 13.918592,11.5820197 Z M8.62503848,5.43632191 C10.8357836,5.43632191 12.6344509,7.24746438 12.6344509,9.47370826 C12.6344509,11.6999521 10.8358573,13.5111688 8.62503848,13.5111688 C6.41429333,13.5111688 4.61562607,11.7000264 4.61562607,9.47370826 C4.61562607,7.24746438 6.41429333,5.43632191 8.62503848,5.43632191 Z M25.6270285,18.3089189 L25.6270285,23.1422193 L25.6270285,26.2437906 L15.1583634,26.2437906 C15.1568156,26.2437906 15.1553416,26.2437906 15.1537938,26.2437906 L15.1315352,26.2437906 C15.1305771,26.2437906 15.129619,26.2437906 15.1286608,26.2437906 L4.65947982,26.2437906 L4.65947982,22.3934337 L4.65947982,19.0577787 L4.65947982,15.2074218 L25.6270285,15.2074218 L25.6270285,18.3089189 Z M32.3153525,25.3476079 L27.311676,22.6355329 L27.311676,18.8156795 L32.3153525,16.1036045 L32.3153525,25.3476079 Z" id="Shape"></path>
                            <path d="M8.5,7 C7.12145697,7 6,8.12152898 6,9.5 C6,10.878543 7.12152898,12 8.5,12 C9.87854303,12 11,10.878471 11,9.5 C11.000072,8.12152898 9.87854303,7 8.5,7 Z M8.5,10.5185505 C7.93829934,10.5185505 7.48137746,10.0616286 7.48137746,9.49992799 C7.48137746,8.93822733 7.93829934,8.48130545 8.5,8.48130545 C9.06170066,8.48130545 9.51862254,8.93822733 9.51862254,9.49992799 C9.51862254,10.0616286 9.06162864,10.5185505 8.5,10.5185505 Z" id="Shape"></path>
                            <path d="M20,3 C17.7943678,3 16,4.79443001 16,7.00004012 C16,9.20556999 17.7943678,11 20,11 C22.2056322,11 24,9.20556999 24,7.00004012 C24,4.79443001 22.2057125,3 20,3 Z M20,9.16617693 C18.8056001,9.16617693 17.8338415,8.19442801 17.8338415,7.00004012 C17.8338415,5.80565222 18.8056001,4.83382307 20,4.83382307 C21.1943999,4.83382307 22.1661585,5.80557199 22.1661585,7.00004012 C22.1661585,8.19450824 21.1943999,9.16617693 20,9.16617693 Z" id="Shape"></path>
                            <path d="M18.1818612,17 L8.81813885,17 C8.3662296,17 8,17.3546751 8,17.7921637 L8,22.2078363 C8,22.6453978 8.36630496,23 8.81813885,23 L18.1818612,23 C18.6337704,23 19,22.6453249 19,22.2078363 L19,17.7921637 C19,17.3547481 18.633695,17 18.1818612,17 Z M17.3637223,21.4156725 L9.63627769,21.4156725 L9.63627769,18.5844004 L17.3637223,18.5844004 L17.3637223,21.4156725 L17.3637223,21.4156725 Z" id="Shape"></path>
                            <circle id="Oval" cx="22" cy="19" r="1"></circle>
                            <circle id="Oval" cx="22" cy="22" r="1"></circle>
                        </g>
                        <g id="film-reel" transform="translate(31.000000, 28.000000)">
                            <path d="M15.8569336,0 L5.90820312,0 L5.90820312,4.39453125 L17.6269531,4.39453125 C20.8847656,4.39453125 23.5351562,7.04492188 23.5351562,10.3027344 C23.5351562,12.9894531 21.6378906,15.3289551 19.0755859,15.9811523 C19.0859863,15.798584 19.0917969,15.6148437 19.0917969,15.4296875 C19.0917969,10.1525879 14.820459,5.859375 9.5703125,5.859375 C4.30673828,5.859375 0,10.1666504 0,15.4296875 C0,20.6933105 4.30732422,25 9.5703125,25 C13.0258789,25 16.0571777,23.1399902 17.7258789,20.363916 C21.9404297,19.4825195 25,15.7571289 25,11.4624023 C25,10.7254883 25,9.87998047 25,9.14306641 C25,4.11552734 20.8837402,0 15.8569336,0 Z M14.6972656,2.9296875 L11.7675781,2.9296875 L11.7675781,1.46484375 L14.6972656,1.46484375 L14.6972656,2.9296875 Z M7.37304688,1.46484375 L10.3027344,1.46484375 L10.3027344,2.9296875 L7.37304688,2.9296875 L7.37304688,1.46484375 Z M17.6269531,2.9296875 L16.1621094,2.9296875 L16.1621094,1.47158203 C18.3777832,1.55869141 20.3554688,2.58847656 21.7032715,4.17080078 C20.5013672,3.36333008 19.0947266,2.9296875 17.6269531,2.9296875 Z M9.5703125,23.5351562 C5.10092773,23.5351562 1.46484375,19.8990723 1.46484375,15.4296875 C1.46484375,10.9603027 5.10092773,7.32421875 9.5703125,7.32421875 C14.0127441,7.32421875 17.6269531,10.9603027 17.6269531,15.4296875 C17.6269531,19.8990723 14.0127441,23.5351562 9.5703125,23.5351562 Z M18.5541016,18.6000488 C18.6768555,18.2496094 18.7799805,17.8899902 18.8618652,17.5223633 C19.8599609,17.353125 20.8081055,16.9812988 21.6511719,16.4322266 C20.8225098,17.3862793 19.7617187,18.1419434 18.5541016,18.6000488 L18.5541016,18.6000488 Z" id="Shape"></path>
                            <path d="M9.58333333,13.3333333 C10.7320833,13.3333333 11.6666667,12.39875 11.6666667,11.25 C11.6666667,10.10125 10.7320833,9.16666667 9.58333333,9.16666667 C8.43458333,9.16666667 7.5,10.10125 7.5,11.25 C7.5,12.39875 8.43458333,13.3333333 9.58333333,13.3333333 Z M9.58333333,10.5555556 C9.96625,10.5555556 10.2777778,10.8670833 10.2777778,11.25 C10.2777778,11.6329167 9.96625,11.9444444 9.58333333,11.9444444 C9.20041667,11.9444444 8.88888889,11.6329167 8.88888889,11.25 C8.88888889,10.8670833 9.20041667,10.5555556 9.58333333,10.5555556 Z" id="Shape"></path>
                            <path d="M9.58333333,17.5 C8.43458333,17.5 7.5,18.4345833 7.5,19.5833333 C7.5,20.7320833 8.43458333,21.6666667 9.58333333,21.6666667 C10.7320833,21.6666667 11.6666667,20.7320833 11.6666667,19.5833333 C11.6666667,18.4345833 10.7320833,17.5 9.58333333,17.5 Z M9.58333333,20.2777778 C9.20041667,20.2777778 8.88888889,19.96625 8.88888889,19.5833333 C8.88888889,19.2004167 9.20041667,18.8888889 9.58333333,18.8888889 C9.96625,18.8888889 10.2777778,19.2004167 10.2777778,19.5833333 C10.2777778,19.96625 9.96625,20.2777778 9.58333333,20.2777778 Z" id="Shape"></path>
                            <path d="M5.41666667,13.3333333 C4.26791667,13.3333333 3.33333333,14.2679167 3.33333333,15.4166667 C3.33333333,16.5654167 4.26791667,17.5 5.41666667,17.5 C6.56541667,17.5 7.5,16.5654167 7.5,15.4166667 C7.5,14.2679167 6.56541667,13.3333333 5.41666667,13.3333333 Z M5.41666667,16.1111111 C5.03375,16.1111111 4.72222222,15.7995833 4.72222222,15.4166667 C4.72222222,15.03375 5.03375,14.7222222 5.41666667,14.7222222 C5.79958333,14.7222222 6.11111111,15.03375 6.11111111,15.4166667 C6.11111111,15.7995833 5.79958333,16.1111111 5.41666667,16.1111111 Z" id="Shape"></path>
                            <path d="M13.75,13.3333333 C12.60125,13.3333333 11.6666667,14.2679167 11.6666667,15.4166667 C11.6666667,16.5654167 12.60125,17.5 13.75,17.5 C14.89875,17.5 15.8333333,16.5654167 15.8333333,15.4166667 C15.8333333,14.2679167 14.89875,13.3333333 13.75,13.3333333 Z M13.75,16.1111111 C13.3670833,16.1111111 13.0555556,15.7995833 13.0555556,15.4166667 C13.0555556,15.03375 13.3670833,14.7222222 13.75,14.7222222 C14.1329167,14.7222222 14.4444444,15.03375 14.4444444,15.4166667 C14.4444444,15.7995833 14.1329167,16.1111111 13.75,16.1111111 Z" id="Shape"></path>
                        </g>
                        <g id="microphone">
                            <path d="M51,8.01590237 C51,7.2914182 50.7378386,6.60020323 50.2766069,6.06163479 C50.406708,5.36454867 50.2871874,4.63536779 49.9247071,4.00795118 C49.5622268,3.38053458 48.989312,2.91280978 48.3199969,2.67640339 C48.083699,2.00828103 47.6154136,1.43605202 46.987245,1.07400567 C46.3590765,0.711567846 45.6286297,0.592190418 44.9310999,0.722135711 C44.3918859,0.26145619 43.6998425,0 42.97449,0 C42.3800223,0 41.8082831,0.175739241 41.3243229,0.492383015 C40.8407546,0.175739241 40.2686235,0 39.6745476,0 C39.0804718,0 38.5083407,0.175739241 38.0247723,0.492383015 C37.5408122,0.175739241 36.9686811,0 36.3746053,0 C35.7805295,0 35.2083984,0.175739241 34.72483,0.492383015 C34.2408698,0.175739241 33.6691306,0 33.0746628,0 C32.4805871,0 31.9088479,0.175739241 31.4248876,0.492383015 C30.9409274,0.175739241 30.3691882,0 29.7751124,0 C29.1806447,0 28.6089055,0.175739241 28.1249453,0.492383015 C27.6413769,0.175739241 27.0692458,0 26.47517,0 C25.7498176,0 25.057774,0.26145619 24.5185601,0.722135711 C23.8210304,0.592190418 23.0905836,0.711567846 22.462415,1.07400567 C21.8867571,1.40591413 21.447862,1.91512743 21.196281,2.51162329 L12.9701333,2.51162329 C11.5319682,2.51162329 10.3618425,3.68034817 10.3618425,5.11679156 L10.3618425,5.4107341 L6.54972526,5.4107341 C5.4399477,5.4107341 4.49005335,6.10703736 4.11424952,7.08475821 C1.78183567,7.48085651 0,9.51223026 0,11.9526184 C0,14.6755986 2.21798763,16.890931 4.94462326,16.890931 C8.3519382,16.890931 9.88611165,17.8976156 10.8422759,19.477312 C10.0608859,20.1019888 9.55889967,21.0620966 9.55889967,22.1372765 C9.55889967,23.2911281 10.1369088,24.3122945 11.0186178,24.9287519 L17.8943794,50.5588952 C18.0142917,51.006267 18.419486,51.3017751 18.8626916,51.3017751 C18.9485112,51.3017751 19.0358984,51.2904245 19.1228937,51.2673318 C19.6581889,51.1240788 19.9756042,50.5745512 19.8321795,50.0398968 L13.2573745,25.5307273 C13.6700142,25.496284 14.0618848,25.3886485 14.4200546,25.2199546 L18.6212994,40.8803193 C18.7412117,41.3280826 19.1467978,41.6231993 19.5896116,41.6231993 C19.6754312,41.6231993 19.7632103,41.61224 19.8498137,41.588756 C20.3851089,41.445503 20.7025242,40.8959754 20.5594913,40.3617123 L16.0576818,23.5823308 C16.2226594,23.2324178 16.3292482,22.8504099 16.3656921,22.4484406 L19.9904952,16.6560901 C20.9913328,16.4196836 21.7711552,15.6059599 21.9561182,14.5871418 C22.1105152,14.7260894 22.2786277,14.8517292 22.462415,14.9577991 C23.0905836,15.3198454 23.8206386,15.4392229 24.5185601,15.3092775 C25.057774,15.7703485 25.7498176,16.0318047 26.47517,16.0318047 C27.0692458,16.0318047 27.6409851,15.8560655 28.1249453,15.5394217 C28.6089055,15.8560655 29.1806447,16.0318047 29.7747205,16.0318047 C30.3691882,16.0318047 30.9409274,15.8560655 31.4248876,15.5394217 C31.9084559,15.8560655 32.4805871,16.0318047 33.0746628,16.0318047 C33.6687388,16.0318047 34.2408698,15.8560655 34.72483,15.5394217 C35.2083984,15.8560655 35.7801375,16.0318047 36.3746053,16.0318047 C36.9686811,16.0318047 37.5408122,15.8560655 38.0243805,15.5394217 C38.5083407,15.8560655 39.08008,16.0318047 39.6745476,16.0318047 C40.2686235,16.0318047 40.8403627,15.8560655 41.3243229,15.5394217 C41.8082831,15.8560655 42.3800223,16.0318047 42.9740981,16.0318047 C43.6994507,16.0318047 44.3914941,15.7703485 44.9307081,15.309669 C45.6282377,15.4388315 46.3586845,15.3202369 46.9868531,14.9577991 C47.6150218,14.5957527 48.0833072,14.0235237 48.3199969,13.35501 C48.98892,13.1189949 49.5618349,12.6512702 49.9243152,12.0238536 C50.2871874,11.3964369 50.4063161,10.6668646 50.2766069,9.97016995 C50.7378386,9.4316015 51,8.74038654 51,8.01590237 Z M12.0710059,5.12268628 C12.0710059,4.79943292 12.3471621,4.52662722 12.6743854,4.52662722 L14.4468127,4.52662722 L14.4468127,5.75755127 C14.4468127,6.30587901 14.8969904,6.75098303 15.4524452,6.75098303 C16.0079,6.75098303 16.4580777,6.30587901 16.4580777,5.75755127 L16.4580777,4.52662722 L19.0118343,4.52662722 C18.8366342,5.01907452 18.7961732,5.54799925 18.8924155,6.05946144 C18.4300602,6.59343101 18.1672601,7.27874366 18.1672601,7.99704142 C18.1672601,8.71533918 18.4300602,9.40065183 18.8924155,9.9346214 C18.7961732,10.4460836 18.8366342,10.9750083 19.0118343,11.4674556 L16.4580777,11.4674556 L16.4580777,10.2365316 C16.4580777,9.6878157 16.0079,9.24309981 15.4524452,9.24309981 C14.8969904,9.24309981 14.4468127,9.6878157 14.4468127,10.2365316 L14.4468127,11.4674556 L12.6743854,11.4674556 C12.3471621,11.4674556 12.0710059,11.1946499 12.0710059,10.8713966 L12.0710059,5.12268628 Z M14.183432,18.9657753 L15.1223002,16.5976331 L17.5029586,16.5976331 L15.4467531,19.9171598 C15.1046538,19.5104641 14.6735204,19.1830843 14.183432,18.9657753 Z M19.9171598,14.183432 C19.9171598,14.5107479 19.6409075,14.7869822 19.3139631,14.7869822 L14.4852464,14.7869822 C14.1579091,14.7869822 13.8816568,14.5107479 13.8816568,14.183432 L13.8816568,13.5798817 L19.9171598,13.5798817 L19.9171598,14.183432 Z M6.35099516,7.5443787 L10.260355,7.5443787 L10.260355,8.75147929 L6.35099516,8.75147929 C6.01624017,8.75147929 5.73372781,8.47485207 5.73372781,8.14792899 C5.73372781,7.82061301 6.01624017,7.5443787 6.35099516,7.5443787 Z M4.73098962,14.7457141 C3.12086957,14.7457141 1.81065089,13.4470409 1.81065089,11.8506343 C1.81065089,10.5121861 2.7313872,9.38342552 3.97773077,9.05325444 C4.391361,9.92869064 5.28833891,10.5369007 6.32630939,10.5369007 L10.1151938,10.5369007 L10.1151938,10.8269107 C10.1151938,11.894271 10.7745876,12.8110269 11.7105136,13.1991229 L11.7105136,13.9903752 C11.7105136,14.9272117 12.2187882,15.7485848 12.9763314,16.1976949 L12.2063247,18.1065089 C10.7091545,15.7648037 8.40030307,14.7457141 4.73098962,14.7457141 Z M12.8254438,23.5384615 C12.0767316,23.5384615 11.4674556,22.9291856 11.4674556,22.1804734 C11.4674556,21.4317611 12.0767316,20.8224852 12.8254438,20.8224852 C13.574156,20.8224852 14.183432,21.4317611 14.183432,22.1804734 C14.183432,22.9291856 13.5745349,23.5384615 12.8254438,23.5384615 Z M48.4525684,8.97545298 C48.0474818,9.2556167 47.9049731,9.7868667 48.1151931,10.2316707 C48.2565207,10.5310882 48.2423485,10.8800157 48.0774007,11.1656805 C47.9120592,11.4513453 47.6164129,11.63799 47.2861236,11.6654956 C46.7952169,11.7055751 46.4054833,12.094975 46.3645416,12.5849667 C46.3373784,12.9146404 46.1503851,13.2097355 45.8641868,13.3747689 C45.5779885,13.5398021 45.2280157,13.5539479 44.9284327,13.4124908 C44.4827981,13.2030556 43.9505559,13.3452987 43.6698691,13.7492373 C43.4813011,14.0211492 43.1710889,14.183432 42.8407996,14.183432 C42.5105103,14.183432 42.2002983,14.0211492 42.0113366,13.7492373 C41.8231622,13.4781111 41.5137374,13.3162213 41.1830544,13.3162213 C40.8527651,13.3162213 40.5433403,13.4781111 40.355166,13.7492373 C40.1662043,14.0211492 39.8559922,14.183432 39.5257028,14.183432 C39.1954135,14.183432 38.8852014,14.0211492 38.6962397,13.7492373 C38.5080654,13.4781111 38.1986405,13.3162213 37.8683512,13.3162213 C37.5376682,13.3162213 37.2282435,13.4781111 37.0400691,13.7492373 C36.8511074,14.0211492 36.541289,14.183432 36.2106061,14.183432 C35.8803167,14.183432 35.5704982,14.0211492 35.3815366,13.7492373 C35.1929686,13.4781111 34.8835438,13.3162213 34.5532544,13.3162213 C34.2225715,13.3162213 33.9131467,13.4781111 33.7249723,13.7492373 C33.5360106,14.0211492 33.2261921,14.183432 32.8955092,14.183432 C32.5652199,14.183432 32.2554015,14.0211492 32.0664398,13.7492373 C31.8778717,13.4781111 31.568447,13.3162213 31.2381577,13.3162213 C30.9074747,13.3162213 30.59805,13.4781111 30.4098755,13.7492373 C30.2209139,14.0211492 29.9110954,14.183432 29.5804124,14.183432 C29.2501232,14.183432 28.9403047,14.0211492 28.751343,13.7492373 C28.5627749,13.4781111 28.2533501,13.3162213 27.9230609,13.3162213 C27.5927716,13.3162213 27.2829531,13.4781111 27.0947788,13.7492373 C26.9058171,14.0211492 26.5959986,14.183432 26.2657093,14.183432 C25.9350263,14.183432 25.6252079,14.0211492 25.4362462,13.7492373 C25.1555593,13.3449056 24.6233172,13.2026627 24.1776825,13.4124908 C23.8780995,13.5539479 23.5281267,13.5398021 23.2419284,13.3747689 C22.9561238,13.2097355 22.7687369,12.9146404 22.7415736,12.5849667 C22.7010255,12.0945821 22.3112921,11.705968 21.8203853,11.6654956 C21.4900961,11.63799 21.1940561,11.4513453 21.0287145,11.1652876 C20.8637668,10.8800157 20.8495946,10.5306953 20.9909222,10.2316707 C21.2011421,9.7868667 21.0586335,9.2556167 20.6539405,8.97545298 C20.3815208,8.78723653 20.2189349,8.47760265 20.2189349,8.14792899 C20.2189349,7.81786243 20.3815208,7.50862146 20.6539405,7.32001199 C21.0586335,7.03984837 21.2015357,6.50899128 20.9909222,6.06418729 C20.8495946,5.76476981 20.8637668,5.4158423 21.0287145,5.13017751 C21.1940561,4.84451273 21.4900961,4.65786802 21.8203853,4.63036243 C22.3112921,4.58988995 22.7006319,4.20088298 22.7415736,3.71089127 C22.7687369,3.38121762 22.9561238,3.08572945 23.2419284,2.92069617 C23.5281267,2.75605589 23.8780995,2.74191008 24.1776825,2.88297427 C24.6233172,3.09280236 25.1555593,2.95095234 25.4362462,2.54662072 C25.6252079,2.27470874 25.9350263,2.11242604 26.2653156,2.11242604 C26.5959986,2.11242604 26.9058171,2.27470874 27.0947788,2.54662072 C27.2829531,2.81774688 27.5923779,2.97924376 27.9230609,2.97924376 C28.2533501,2.97924376 28.5627749,2.81774688 28.751343,2.54662072 C28.939911,2.27470874 29.2501232,2.11242604 29.5804124,2.11242604 C29.9107017,2.11242604 30.2209139,2.27470874 30.4094819,2.54662072 C30.59805,2.81735387 30.9074747,2.97924376 31.237764,2.97924376 C31.568447,2.97924376 31.8778717,2.81774688 32.0660461,2.54662072 C32.2550078,2.27470874 32.5648262,2.11242604 32.8955092,2.11242604 C33.2257985,2.11242604 33.535617,2.27470874 33.7245787,2.54662072 C33.9131467,2.81774688 34.2225715,2.97924376 34.5528608,2.97924376 C34.8835438,2.97924376 35.1929686,2.81774688 35.3811429,2.54662072 C35.5701046,2.27470874 35.8799231,2.11242604 36.2106061,2.11242604 C36.5408954,2.11242604 36.8511074,2.27470874 37.0396755,2.54662072 C37.2278499,2.81774688 37.5376682,2.97924376 37.8679576,2.97924376 C38.1986405,2.97924376 38.5080654,2.81774688 38.6962397,2.54662072 C38.8852014,2.27470874 39.1954135,2.11242604 39.5257028,2.11242604 C39.8559922,2.11242604 40.1662043,2.27470874 40.3547723,2.54662072 C40.5433403,2.81774688 40.8527651,2.97924376 41.1830544,2.97924376 C41.5137374,2.97924376 41.8231622,2.81774688 42.0113366,2.54662072 C42.2002983,2.27470874 42.5105103,2.11242604 42.8407996,2.11242604 C43.1710889,2.11242604 43.4813011,2.27470874 43.6698691,2.54662072 C43.9505559,2.95055933 44.4827981,3.09280236 44.9284327,2.88297427 C45.2284094,2.74151717 45.5779885,2.75605589 45.8641868,2.92069617 C46.1503851,3.08572945 46.3373784,3.38121762 46.3645416,3.71089127 C46.4054833,4.20088298 46.7952169,4.58988995 47.2861236,4.63036243 C47.6164129,4.65747501 47.9120592,4.84451273 48.0774007,5.13017751 C48.2427422,5.4158423 48.2569143,5.76476981 48.1151931,6.06418729 C47.9049731,6.50899128 48.0478754,7.03984837 48.4525684,7.32001199 C48.7249882,7.50862146 48.887574,7.81786243 48.887574,8.14792899 C48.887574,8.47760265 48.7245945,8.78723653 48.4525684,8.97545298 L48.4525684,8.97545298 Z" id="Shape"></path>
                        </g>
                    </g>
                </g>
            </g>
        </g>
    </g>
</svg>