<?xml version="1.0" encoding="UTF-8"?>
<svg width="380px" height="380px" viewBox="0 0 380 380" version="1.1" xmlns="http://www.w3.org/2000/svg" xmlns:xlink="http://www.w3.org/1999/xlink">
    <title>Drak-guests-outside-event</title>
    <defs>
        <polygon id="path-1" points="0 0 327.492 0 327.492 327.4919 0 327.4919"></polygon>
        <polygon id="path-3" points="19.874 144.982 78.859 157.272 94.496 144.454 117.141 1.376 92.868 17.565 0 0"></polygon>
        <polygon id="path-5" points="19.874 144.982 78.859 157.272 94.496 144.454 117.141 1.376 92.868 17.565 0 0"></polygon>
        <polygon id="path-7" points="19.874 144.982 78.859 157.272 94.496 144.454 117.141 1.376 92.868 17.565 0 0"></polygon>
        <polygon id="path-9" points="19.874 144.982 78.859 157.272 94.496 144.454 117.141 1.376 92.868 17.565 0 0"></polygon>
        <polygon id="path-11" points="19.874 144.982 78.859 157.272 94.496 144.454 117.141 1.376 92.868 17.565 0 0"></polygon>
        <polygon id="path-13" points="19.874 144.982 78.859 157.272 94.496 144.454 117.141 1.376 92.868 17.565 0 0"></polygon>
    </defs>
    <g id="Drak-guests-outside-event" stroke="none" stroke-width="1" fill="none" fill-rule="evenodd">
        <g id="Group-212" transform="translate(26.000000, 26.000000)">
            <g id="Group-3">
                <mask id="mask-2" fill="white">
                    <use xlink:href="#path-1"></use>
                </mask>
                <g id="Clip-2"></g>
            </g>
            <g id="Group-10" transform="translate(79.076300, 16.439400)" fill="#06081C" stroke="#6F7CBD" stroke-width="0.75">
                <g id="Group-9">
                    <polygon id="Stroke-7" points="38.238 67.244 21.0964776 71.0960221 0 7.405 15.249 0"></polygon>
                </g>
            </g>
            <g id="Group-167" transform="translate(44.684283, 49.469676)">
                <path d="M94.4513167,250.564824 L27.7923167,263.994824 C25.3983167,264.476824 23.0663167,262.926824 22.5843167,260.532824 L0.420316686,150.514824 C-0.0626833139,148.120824 1.48731669,145.788824 3.88131669,145.306824 L70.5403167,131.876824 C72.9343167,131.394824 75.2653167,132.944824 75.7483167,135.337824 L97.9133167,245.356824 C98.3953167,247.750824 96.8463167,250.082824 94.4513167,250.564824" id="Fill-11" stroke="#6F7CBD" stroke-width="2" fill="#06081C"></path>
                <path d="M75.4279167,135.402724 L97.5919167,245.415724 C97.8069167,246.490724 97.5899167,247.583724 96.9829167,248.491724 C96.3799167,249.409724 95.4599167,250.022724 94.3859167,250.236724 L27.7329167,263.669724 C25.5149167,264.114724 23.3569167,262.680724 22.9109167,260.463724 L0.746916686,150.450724 C0.531916686,149.375724 0.737916686,148.286724 1.34591669,147.379724 C1.95291669,146.471724 2.87891669,145.843724 3.94291669,145.632724 L32.0439167,139.971724 L32.3789167,139.905724 L32.6989167,139.833724 L33.6379167,139.651724 L33.9739167,139.585724 L33.9839167,139.580724 L34.3199167,139.514724 L70.6069167,132.196724 C70.8949167,132.137724 71.1859167,132.114724 71.4759167,132.118283 C73.3569167,132.152724 75.0349167,133.488724 75.4279167,135.402724 M70.4729167,131.550724 L34.0129167,138.904724 L33.6879167,138.965724 L33.3629167,139.027724 L32.4609167,139.207724 L32.1249167,139.273724 L31.8049167,139.345724 L3.81991669,144.983724 C2.57191669,145.233724 1.49491669,145.950724 0.799916686,147.006724 C0.0949166861,148.069724 -0.159083314,149.340724 0.0979166861,150.573724 L22.2659167,260.596724 C22.7049167,262.830724 24.6589167,264.375724 26.8409167,264.409475 C27.1819167,264.414724 27.5209167,264.384724 27.8559167,264.319724 L94.5199167,250.881724 C95.7569167,250.636724 96.8329167,249.920724 97.5379167,248.858724 C98.2339167,247.801724 98.4909167,246.539724 98.2409167,245.292724 L76.0739167,135.268724 C75.5569167,132.704724 73.0409167,131.045724 70.4729167,131.550724" id="Fill-13" fill="#06081C"></path>
                <path d="M73.9832871,146.551413 L6.77728711,160.091413 C6.22128711,160.202413 5.67928711,159.843413 5.56828711,159.287413 L4.22128711,152.606413 C4.11028711,152.050413 4.46928711,151.508413 5.02528711,151.396413 L72.2322871,137.856413 C72.7882871,137.744413 73.3302871,138.104413 73.4412871,138.660413 L74.7882871,145.342413 C74.8992871,145.897413 74.5402871,146.439413 73.9832871,146.551413" id="Fill-15" fill="#FF6E61"></path>
                <path d="M73.3429167,139.614124 L74.6549167,146.091124 C74.7519167,146.589124 74.6529167,147.094124 74.3659167,147.516124 C74.0949167,147.943124 73.6629167,148.225124 73.1689167,148.333124 L7.90191669,161.483124 C7.40391669,161.580124 6.88691669,161.484124 6.46491669,161.198124 C6.04891669,160.923124 5.75491669,160.495124 5.65791669,159.997124 L4.35691669,153.516124 C4.25991669,153.018124 4.35991669,152.512124 4.63091669,152.085124 C4.91691669,151.663124 5.34491669,151.370124 5.84291669,151.273124 L71.1119167,138.124124 C71.2519167,138.102124 71.3829167,138.084124 71.5219167,138.088124 C71.8779167,138.101124 72.2349167,138.202124 72.5359167,138.413124 C72.9629167,138.684124 73.2459167,139.116124 73.3429167,139.614124 M70.9769167,137.478124 L5.70891669,150.628124 C5.03791669,150.760124 4.46391669,151.153124 4.08991669,151.723124 C3.70091669,152.288124 3.57391669,152.968124 3.70691669,153.639124 L5.00891669,160.120124 C5.25191669,161.321124 6.30491669,162.156124 7.47891669,162.175124 C7.65791669,162.186124 7.83591669,162.162124 8.02491669,162.133124 L73.3029167,148.978124 C73.9699167,148.835124 74.5479167,148.454124 74.9219167,147.883124 C75.2949167,147.312124 75.4379167,146.638124 75.3049167,145.968124 L73.9989167,139.476124 C73.7209167,138.102124 72.3659167,137.206124 70.9769167,137.478124" id="Fill-17" fill="#151233"></path>
                <path d="M28.9436167,258.168024 C27.4956167,258.460024 26.0846167,257.523024 25.7926167,256.075024 L7.90861669,167.299024 C7.61661669,165.851024 8.55361669,164.441024 10.0016167,164.149024 L73.3296167,151.391024 C74.7776167,151.099024 76.1876167,152.036024 76.4796167,153.484024 L94.3646167,242.260024 C94.6566167,243.708024 93.7186167,245.118024 92.2706167,245.410024 L28.9436167,258.168024 Z" id="Fill-19"></path>
                <polygon id="Fill-21" stroke="#06081C" points="88.7267167 239.604324 29.9627167 251.442324 13.6557167 170.498324 72.4187167 158.660324"></polygon>
                <path d="M36.2530167,207.753724 L36.8880167,210.894724 C36.5100167,211.278724 36.0330167,211.605724 35.4870167,211.885724 C34.8990167,212.183724 34.3010167,212.398724 33.7020167,212.524724 C32.8580167,212.692724 32.0580167,212.666724 31.3160167,212.452724 C30.5900167,212.244724 29.9630167,211.857724 29.4700167,211.312724 C28.9670167,210.773724 28.6330167,210.099724 28.4730167,209.302724 C28.3160167,208.515724 28.3610167,207.757724 28.6070167,207.065724 C28.8550167,206.372724 29.2920167,205.774724 29.8930167,205.295724 C30.5030167,204.813724 31.2500167,204.473724 32.1050167,204.301724 C32.5560167,204.211724 32.9880167,204.167724 33.3960167,204.183724 C33.6960167,204.182724 33.9990167,204.217724 34.2850167,204.272724 C34.8570167,204.381724 35.3810167,204.612724 35.8350167,204.947724 L34.6580167,206.495724 C34.0090167,206.055724 33.3190167,205.906724 32.6070167,206.057724 C31.9250167,206.193724 31.4110167,206.522724 31.0950167,207.019724 C30.7680167,207.521724 30.6710167,208.125724 30.8160167,208.828724 C30.9580167,209.520724 31.2660167,210.042724 31.7610167,210.385724 C32.2450167,210.732724 32.8440167,210.843724 33.5100167,210.700724 C33.8930167,210.627724 34.2550167,210.475724 34.5790167,210.263724 L34.7140167,210.168724 L34.3130167,208.145724 L36.2530167,207.753724 Z M34.1650167,209.936724 C33.9350167,210.071724 33.6740167,210.168724 33.4070167,210.217724 C32.8770167,210.328724 32.4320167,210.253724 32.0410167,209.979724 C31.6650167,209.711724 31.4170167,209.302724 31.3040167,208.735724 C31.1820167,208.148724 31.2480167,207.681724 31.5070167,207.284724 C31.7600167,206.902724 32.1540167,206.648724 32.7090167,206.539724 C33.3590167,206.416724 33.9650167,206.574724 34.5570167,207.027724 L34.7480167,207.184724 L36.5240167,204.857724 L36.3370167,204.711724 C35.7770167,204.245724 35.1200167,203.933724 34.3790167,203.781724 C33.6530167,203.635724 32.8570167,203.646724 32.0130167,203.814724 C31.0670167,204.011724 30.2580167,204.377724 29.5920167,204.908724 C28.9040167,205.448724 28.4210167,206.116724 28.1480167,206.895724 C27.8640167,207.679724 27.8090167,208.529724 27.9900167,209.405724 C28.1600167,210.285724 28.5410167,211.040724 29.1010167,211.656724 C29.6570167,212.261724 30.3640167,212.690724 31.1810167,212.935724 C31.6080167,213.056724 32.0640167,213.127724 32.5290167,213.131724 C32.9330167,213.136724 33.3650167,213.092724 33.7950167,213.011724 C34.4400167,212.878724 35.0860167,212.655724 35.7230167,212.324724 C36.3550167,212.008724 36.8990167,211.604724 37.3360167,211.156724 L37.4310167,211.054724 L36.6480167,207.173724 L33.7230167,207.754724 L34.1650167,209.936724 Z" id="Fill-23" fill="#9EB1FF"></path>
                <path d="M46.4620167,206.109224 C46.7060167,207.284224 46.5550167,208.263224 46.0180167,209.041224 C45.4910167,209.814224 44.6040167,210.325224 43.4030167,210.568224 C42.2020167,210.811224 41.1910167,210.672224 40.3920167,210.170224 C39.6120167,209.659224 39.0930167,208.813224 38.8530167,207.648224 L37.9810167,203.317224 L40.3030167,202.852224 L41.1500167,207.094224 C41.2820167,207.765224 41.5160167,208.230224 41.8300167,208.499224 C42.1630167,208.785224 42.5810167,208.884224 43.0640167,208.781224 C43.5620167,208.684224 43.9090167,208.438224 44.0950167,208.046224 C44.2850167,207.665224 44.3130167,207.165224 44.1760167,206.483224 L43.3290167,202.242224 L45.5940167,201.789224 L46.4620167,206.109224 Z M42.7380167,201.851224 L43.6930167,206.587224 C43.8130167,207.138224 43.7960167,207.546224 43.6600167,207.816224 C43.5290167,208.071224 43.3070167,208.228224 42.9720167,208.294224 C42.6360167,208.360224 42.3650167,208.311224 42.1500167,208.127224 C41.9290167,207.931224 41.7570167,207.552224 41.6380167,207.002224 L40.6830167,202.266224 L37.4000167,202.922224 L38.3650167,207.741224 C38.4430167,208.134224 38.5600167,208.499224 38.6980167,208.829224 C39.0220167,209.595224 39.4950167,210.184224 40.1260167,210.583224 C40.7280167,210.968224 41.4240167,211.164224 42.2200167,211.179224 C42.6230167,211.185224 43.0560167,211.140224 43.4960167,211.055224 C44.8330167,210.780224 45.8170167,210.202224 46.4240167,209.320224 C47.0400167,208.434224 47.2110167,207.322224 46.9490167,206.017224 L45.9840167,201.198224 L42.7380167,201.851224 Z" id="Fill-25" fill="#9EB1FF"></path>
                <path d="M54.6691167,203.165424 L54.9781167,204.702424 L51.4651167,205.405424 L51.7811167,206.988424 L55.9401167,206.151424 L56.2731167,207.777424 L49.8401167,209.071424 L48.2731167,201.248424 L54.5341167,199.989424 L54.8641167,201.604424 L50.8571167,202.415424 L51.1611167,203.879424 L54.6691167,203.165424 Z M55.4431167,201.999424 L54.9241167,199.399424 L47.6831167,200.858424 L49.4601167,209.657424 L56.8491167,208.161424 L56.3301167,205.561424 L52.1721167,206.397424 L52.0451167,205.799424 L55.5681167,205.092424 L55.0641167,202.585424 L51.5401167,203.293424 L51.4471167,202.806424 L55.4431167,201.999424 Z" id="Fill-27" fill="#9EB1FF"></path>
                <path d="M64.7423167,203.608224 C64.8363167,204.069224 64.7913167,204.527224 64.6123167,204.966224 C64.4183167,205.398224 64.0723167,205.795224 63.5893167,206.136224 C63.0813167,206.476224 62.4273167,206.738224 61.6303167,206.899224 C60.9703167,207.026224 60.2933167,207.086224 59.6323167,207.064224 C59.0743167,207.048224 58.5823167,206.980224 58.1763167,206.850224 L58.5583167,205.110224 C58.9503167,205.208224 59.3593167,205.287224 59.7983167,205.315224 C60.3433167,205.361224 60.8463167,205.337224 61.3183167,205.238224 C61.7593167,205.153224 62.0403167,205.047224 62.2243167,204.919224 C62.5333167,204.701224 62.5413167,204.422224 62.5043167,204.275224 C62.4733167,204.112224 62.3573167,203.836224 61.8963167,203.754224 C61.6513167,203.707224 61.2693167,203.692224 60.7263167,203.683224 C60.0903167,203.689224 59.5183167,203.641224 59.0773167,203.576224 C58.6513167,203.517224 58.2683167,203.353224 57.9193167,203.087224 C57.5733167,202.831224 57.3603167,202.445224 57.2453167,201.904224 C57.1463167,201.432224 57.1923167,200.975224 57.3813167,200.531224 C57.5703167,200.088224 57.9113167,199.707224 58.4093167,199.372224 C58.9023167,199.026224 59.5603167,198.774224 60.3573167,198.614224 C60.8973167,198.499224 61.4593167,198.462224 62.0233167,198.463204 C62.4883167,198.467224 62.9143167,198.526224 63.3013167,198.639224 L62.9613167,200.361224 C62.1363167,200.157224 61.3613167,200.133224 60.6693167,200.275224 C60.1133167,200.383224 59.7603167,200.557224 59.5893167,200.804224 C59.5013167,200.954224 59.4593167,201.122224 59.4953167,201.295224 C59.5253167,201.458224 59.6533167,201.730224 60.0973167,201.805224 C60.3443167,201.852224 60.7253167,201.867224 61.2493167,201.859224 C61.8963167,201.850224 62.4483167,201.880224 62.8993167,201.941224 C63.3293167,202.010224 63.7223167,202.171224 64.0683167,202.426224 C64.4143167,202.681224 64.6383167,203.063224 64.7423167,203.608224 M62.9713167,201.459224 C62.4903167,201.386224 61.9133167,201.354224 61.2443167,201.373224 C60.7533167,201.366224 60.3963167,201.354224 60.1813167,201.319224 C60.0033167,201.282224 59.9913167,201.224224 59.9823167,201.203224 C59.9743167,201.155224 59.9823167,201.115224 60.0063167,201.080224 C60.0453167,201.025224 60.1953167,200.875224 60.7713167,200.757224 C61.4533167,200.620224 62.2373167,200.666224 63.0863167,200.897224 L63.3453167,200.976224 L63.8823167,198.294224 L63.6643167,198.223224 C63.1823167,198.063224 62.6343167,197.980224 62.0293167,197.972224 C61.4303167,197.948224 60.8423167,198.008224 60.2643167,198.126224 C59.3993167,198.303224 58.6783167,198.582224 58.1203167,198.955224 C57.5563167,199.342224 57.1533167,199.813224 56.9233167,200.336224 C56.6973167,200.870224 56.6443167,201.431224 56.7583167,201.997224 C56.8903167,202.668224 57.1843167,203.158224 57.6243167,203.487224 C58.0333167,203.803224 58.5023167,203.994224 58.9983167,204.073224 C59.4753167,204.135224 60.0573167,204.178224 60.7243167,204.185224 C61.2263167,204.187224 61.5973167,204.206224 61.8133167,204.240224 C62.0033167,204.274224 62.0183167,204.342224 62.0213167,204.378224 C62.0303167,204.400224 62.0383167,204.446224 61.9403167,204.513224 C61.8533167,204.574224 61.6663167,204.666224 61.2263167,204.751224 C60.8013167,204.842224 60.3343167,204.863224 59.8403167,204.821224 C59.3503167,204.789224 58.8863167,204.697224 58.4603167,204.550224 L58.1973167,204.461224 L57.5963167,207.170224 L57.8043167,207.245224 C58.2943167,207.427224 58.9033167,207.534224 59.6153167,207.560224 C59.6673167,207.563224 59.7193167,207.566224 59.7693167,207.569236 C60.4223167,207.570224 61.0733167,207.509224 61.7333167,207.381224 C62.5883167,207.210224 63.3093167,206.930224 63.8623167,206.547224 C64.4313167,206.144224 64.8403167,205.684224 65.0593167,205.166224 C65.2863167,204.632224 65.3433167,204.082224 65.2243167,203.505224 C65.0963167,202.844224 64.8083167,202.339224 64.3633167,202.025224 C63.9443167,201.714224 63.4743167,201.523224 62.9713167,201.459224" id="Fill-29" fill="#9EB1FF"></path>
                <path d="M72.6407167,198.087724 L70.2027167,198.575724 L71.4497167,204.716724 L69.1257167,205.181724 L67.8957167,199.046724 L65.4567167,199.535724 L65.1117167,197.851724 L72.3057167,196.399724 L72.6407167,198.087724 Z M64.5357167,197.467724 L65.0667167,200.125724 L67.4997167,199.626724 L68.7367167,205.772724 L72.0297167,205.111724 L70.7927167,198.965724 L73.2317167,198.477724 L72.6897167,195.823724 L64.5357167,197.467724 Z" id="Fill-31" fill="#9EB1FF"></path>
                <polygon id="Fill-33" fill="#6F7CBD" points="19.5568167 169.309424 13.6558167 170.498424 13.5048167 163.443424 19.4278167 162.249424"></polygon>
                <polygon id="Fill-35" fill="#6F7CBD" points="28.4318167 167.521324 22.5308167 168.710324 22.3798167 161.655324 28.3028167 160.461324"></polygon>
                <polygon id="Fill-37" fill="#6F7CBD" points="37.6446167 165.665424 31.7436167 166.854424 31.5926167 159.799424 37.5156167 158.605424"></polygon>
                <polygon id="Fill-39" fill="#6F7CBD" points="47.0685167 163.766924 41.1675167 164.955924 41.0165167 157.900924 46.9395167 156.706924"></polygon>
                <polygon id="Fill-41" fill="#6F7CBD" points="60.7228167 251.765924 54.8218167 252.954924 54.6708167 245.898924 60.5938167 244.705924"></polygon>
                <polygon id="Fill-43" fill="#6F7CBD" points="69.5978167 249.977924 63.6968167 251.166924 63.5458167 244.111924 69.4688167 242.917924"></polygon>
                <polygon id="Fill-45" fill="#6F7CBD" points="78.8107167 248.121924 72.9097167 249.310924 72.7587167 242.255924 78.6817167 241.061924"></polygon>
                <polygon id="Fill-47" fill="#6F7CBD" points="88.2345167 246.223524 82.3335167 247.411524 82.1825167 240.356524 88.1055167 239.163524"></polygon>
                <path d="M34.9415167,150.717624 C35.0895167,151.456624 34.6145167,152.171624 33.8755167,152.319624 L19.1505167,155.290624 C18.7945167,155.365624 18.4365167,155.290624 18.1285167,155.094624 C17.8315167,154.893624 17.6235167,154.580624 17.5475167,154.223624 C17.4725167,153.866624 17.5475167,153.509624 17.7585167,153.207624 C17.9555167,152.899624 18.2575167,152.696624 18.6155167,152.621624 L33.3435167,149.661624 C33.4445167,149.631624 33.5435167,149.627624 33.6305167,149.628624 C34.2615167,149.637624 34.8125167,150.082624 34.9415167,150.717624 M34.7335167,149.301624 C34.2865167,149.013624 33.7395167,148.905624 33.2105167,149.016624 L18.4805167,151.975624 C17.9515167,152.086624 17.5025167,152.388624 17.2035167,152.840624 C16.9055167,153.291624 16.7925167,153.827624 16.9035167,154.357624 C17.0135167,154.887624 17.3155167,155.336624 17.7665167,155.634624 C18.0885167,155.862624 18.4595167,155.969624 18.8515167,155.979624 C18.9915167,155.983624 19.1365167,155.972624 19.2845167,155.935624 L34.0085167,152.965624 C35.1095167,152.751624 35.8105167,151.679624 35.5915167,150.593624 C35.4805167,150.064624 35.1745167,149.604624 34.7335167,149.301624" id="Fill-49" fill="#0C0E2B"></path>
                <path d="M62.4445167,145.182924 C62.5195167,145.539924 62.4445167,145.896924 62.2495167,146.204924 C62.0375167,146.506924 61.7345167,146.709924 61.3785167,146.785924 L46.6485167,149.744924 C45.9095167,149.893924 45.1955167,149.417924 45.0505167,148.688924 C44.9755167,148.331924 45.0465167,147.963924 45.2475167,147.666924 C45.4475167,147.369924 45.7605167,147.161924 46.1175167,147.086924 L60.8415167,144.116924 C60.9365167,144.101924 61.0305167,144.086924 61.1335167,144.093924 C61.7545167,144.107924 62.3145167,144.548924 62.4445167,145.182924 M62.2255167,143.771924 C61.7745167,143.472924 61.2385167,143.360924 60.7085167,143.470924 L45.9835167,146.441924 C45.4495167,146.540924 45.0005167,146.843924 44.7015167,147.294924 C44.4035167,147.745924 44.2955167,148.292924 44.4015167,148.811924 C44.5115167,149.341924 44.8185167,149.801924 45.2585167,150.104924 C45.5875167,150.317924 45.9625167,150.434924 46.3505167,150.433924 C46.4895167,150.437924 46.6355167,150.427924 46.7825167,150.390924 L61.5115167,147.430924 C62.0425167,147.319924 62.4905167,147.017924 62.7895167,146.565924 C63.0885167,146.114924 63.2005167,145.578924 63.0905167,145.048924 C62.9795167,144.518924 62.6765167,144.069924 62.2255167,143.771924" id="Fill-51" fill="#0C0E2B"></path>
                <path d="M112.807717,41.209824 C112.807717,44.659824 110.015717,47.456824 106.566717,47.456824 C104.946717,47.456824 103.469717,46.836824 102.364717,45.826824 C101.397717,48.022824 99.2017167,49.561824 96.6427167,49.561824 C93.1977167,49.561824 90.4007167,46.765824 90.4007167,43.320824 C90.4007167,40.776824 91.9207167,38.589824 94.1027167,37.612824 C94.0887167,37.436824 94.0787167,37.255824 94.0787167,37.074824 C94.0787167,33.629824 96.8757167,30.833824 100.325717,30.833824 C103.036717,30.833824 105.346717,32.562824 106.203717,34.982824 C106.323717,34.973824 106.442717,34.968824 106.566717,34.968824 C110.015717,34.968824 112.807717,37.765824 112.807717,41.209824" id="Fill-53" fill="#414D86"></path>
                <path d="M112.807717,41.209824 C112.807717,44.659824 110.015717,47.456824 106.566717,47.456824 C104.946717,47.456824 103.469717,46.836824 102.364717,45.826824 C101.397717,48.022824 99.2017167,49.561824 96.6427167,49.561824 C93.1977167,49.561824 90.4007167,46.765824 90.4007167,43.320824 C90.4007167,40.776824 91.9207167,38.589824 94.1027167,37.612824 C94.0887167,37.436824 94.0787167,37.255824 94.0787167,37.074824 C94.0787167,33.629824 96.8757167,30.833824 100.325717,30.833824 C103.036717,30.833824 105.346717,32.562824 106.203717,34.982824 C106.323717,34.973824 106.442717,34.968824 106.566717,34.968824 C110.015717,34.968824 112.807717,37.765824 112.807717,41.209824 Z" id="Stroke-55" stroke="#9EB1FF"></path>
                <path d="M104.446417,53.271824 C102.149417,50.697824 102.371417,46.751824 104.944417,44.455824 C106.153417,43.376824 107.667417,42.855824 109.165417,42.873824 C108.424417,40.590824 109.038417,37.979824 110.947417,36.276824 C113.517417,33.982824 117.466417,34.207824 119.759417,36.777824 C121.453417,38.676824 121.775417,41.319824 120.798417,43.501824 C120.925417,43.623824 121.053417,43.751824 121.174417,43.887824 C123.467417,46.457824 123.242417,50.406824 120.669417,52.702824 C118.646417,54.507824 115.770417,54.755824 113.519417,53.521824 C113.436417,53.607824 113.350417,53.690824 113.259417,53.772824 C110.684417,56.069824 106.739417,55.841824 104.446417,53.271824" id="Fill-57" fill="#414D86"></path>
                <path d="M104.446417,53.271824 C102.149417,50.697824 102.371417,46.751824 104.944417,44.455824 C106.153417,43.376824 107.667417,42.855824 109.165417,42.873824 C108.424417,40.590824 109.038417,37.979824 110.947417,36.276824 C113.517417,33.982824 117.466417,34.207824 119.759417,36.777824 C121.453417,38.676824 121.775417,41.319824 120.798417,43.501824 C120.925417,43.623824 121.053417,43.751824 121.174417,43.887824 C123.467417,46.457824 123.242417,50.406824 120.669417,52.702824 C118.646417,54.507824 115.770417,54.755824 113.519417,53.521824 C113.436417,53.607824 113.350417,53.690824 113.259417,53.772824 C110.684417,56.069824 106.739417,55.841824 104.446417,53.271824 Z" id="Stroke-59" stroke="#9EB1FF"></path>
                <path d="M116.981617,40.883624 C114.332617,43.091624 110.396617,42.737624 108.187617,40.088624 C107.150617,38.843624 106.680617,37.312624 106.749617,35.816624 C104.442617,36.480624 101.853617,35.778624 100.215617,33.812624 C98.0106167,31.166624 98.3686167,27.227624 101.014617,25.022624 C102.968617,23.393624 105.622617,23.160624 107.768617,24.211624 C107.895617,24.087624 108.028617,23.964624 108.167617,23.848624 C110.813617,21.643624 114.752617,22.001624 116.960617,24.650624 C118.696617,26.733624 118.847617,29.615624 117.537617,31.823624 C117.621617,31.909624 117.701617,31.997624 117.780617,32.092624 C119.988617,34.742624 119.627617,38.677624 116.981617,40.883624" id="Fill-61" fill="#414D86"></path>
                <path d="M131.405417,28.185424 C131.405417,31.635424 128.613417,34.431424 125.164417,34.431424 C123.544417,34.431424 122.067417,33.812424 120.962417,32.802424 C119.995417,34.998424 117.799417,36.537424 115.240417,36.537424 C111.795417,36.537424 108.999417,33.741424 108.999417,30.296424 C108.999417,27.751424 110.518417,25.565424 112.700417,24.588424 C112.686417,24.412424 112.676417,24.231424 112.676417,24.050424 C112.676417,20.605424 115.473417,17.808424 118.923417,17.808424 C121.634417,17.808424 123.944417,19.538424 124.801417,21.958424 C124.921417,21.949424 125.040417,21.944424 125.164417,21.944424 C128.613417,21.944424 131.405417,24.741424 131.405417,28.185424" id="Fill-63" fill="#414D86"></path>
                <path d="M131.405417,28.185424 C131.405417,31.635424 128.613417,34.431424 125.164417,34.431424 C123.544417,34.431424 122.067417,33.812424 120.962417,32.802424 C119.995417,34.998424 117.799417,36.537424 115.240417,36.537424 C111.795417,36.537424 108.999417,33.741424 108.999417,30.296424 C108.999417,27.751424 110.518417,25.565424 112.700417,24.588424 C112.686417,24.412424 112.676417,24.231424 112.676417,24.050424 C112.676417,20.605424 115.473417,17.808424 118.923417,17.808424 C121.634417,17.808424 123.944417,19.538424 124.801417,21.958424 C124.921417,21.949424 125.040417,21.944424 125.164417,21.944424 C128.613417,21.944424 131.405417,24.741424 131.405417,28.185424 Z" id="Stroke-65" stroke="#9EB1FF"></path>
                <path d="M123.044117,40.247424 C120.747117,37.673424 120.969117,33.727424 123.542117,31.431424 C124.751117,30.352424 126.266117,29.831424 127.763117,29.849424 C127.022117,27.566424 127.636117,24.955424 129.545117,23.252424 C132.115117,20.958424 136.064117,21.183424 138.357117,23.753424 C140.051117,25.652424 140.373117,28.295424 139.396117,30.477424 C139.523117,30.599424 139.651117,30.727424 139.772117,30.863424 C142.065117,33.433424 141.840117,37.381424 139.267117,39.678424 C137.244117,41.483424 134.368117,41.731424 132.117117,40.497424 C132.034117,40.583424 131.949117,40.665424 131.857117,40.748424 C129.282117,43.045424 125.338117,42.817424 123.044117,40.247424" id="Fill-67" fill="#414D86"></path>
                <path d="M135.579217,27.858724 C132.930217,30.066724 128.994217,29.712724 126.785217,27.063724 C125.748217,25.818724 125.278217,24.287724 125.347217,22.792724 C123.040217,23.455724 120.452217,22.753724 118.813217,20.788724 C116.608217,18.142724 116.966217,14.203724 119.612217,11.997724 C121.566217,10.368724 124.220217,10.136724 126.366217,11.187724 C126.493217,11.063724 126.626217,10.940724 126.765217,10.823724 C129.411217,8.61872405 133.350217,8.97672405 135.558217,11.626724 C137.294217,13.708724 137.445217,16.590724 136.135217,18.799724 C136.219217,18.884724 136.299217,18.973724 136.378217,19.068724 C138.586217,21.717724 138.225217,25.653724 135.579217,27.858724" id="Fill-69" fill="#414D86"></path>
                <path d="M135.579217,27.858724 C132.930217,30.066724 128.994217,29.712724 126.785217,27.063724 C125.748217,25.818724 125.278217,24.287724 125.347217,22.792724 C123.040217,23.455724 120.452217,22.753724 118.813217,20.788724 C116.608217,18.142724 116.966217,14.203724 119.612217,11.997724 C121.566217,10.368724 124.220217,10.136724 126.366217,11.187724 C126.493217,11.063724 126.626217,10.940724 126.765217,10.823724 C129.411217,8.61872405 133.350217,8.97672405 135.558217,11.626724 C137.294217,13.708724 137.445217,16.590724 136.135217,18.799724 C136.219217,18.884724 136.299217,18.973724 136.378217,19.068724 C138.586217,21.717724 138.225217,25.653724 135.579217,27.858724 Z" id="Stroke-71" stroke="#9EB1FF"></path>
                <path d="M129.138817,52.785524 C125.908817,51.576524 124.267817,47.981524 125.477817,44.750524 C126.044817,43.233524 127.142817,42.067524 128.476817,41.386524 C126.758817,39.710524 126.087817,37.114524 126.984817,34.718524 C128.192817,31.492524 131.791817,29.853524 135.017817,31.060524 C137.400817,31.952524 138.915817,34.142524 139.065817,36.529524 C139.235817,36.577524 139.408817,36.632524 139.577817,36.695524 C142.803817,37.903524 144.442817,41.502524 143.233817,44.733524 C142.283817,47.272524 139.853817,48.829524 137.285817,48.784524 C137.252817,48.899524 137.215817,49.012524 137.171817,49.128524 C135.962817,52.359524 132.365817,53.993524 129.138817,52.785524" id="Fill-73" fill="#414D86"></path>
                <path d="M129.138817,52.785524 C125.908817,51.576524 124.267817,47.981524 125.477817,44.750524 C126.044817,43.233524 127.142817,42.067524 128.476817,41.386524 C126.758817,39.710524 126.087817,37.114524 126.984817,34.718524 C128.192817,31.492524 131.791817,29.853524 135.017817,31.060524 C137.400817,31.952524 138.915817,34.142524 139.065817,36.529524 C139.235817,36.577524 139.408817,36.632524 139.577817,36.695524 C142.803817,37.903524 144.442817,41.502524 143.233817,44.733524 C142.283817,47.272524 139.853817,48.829524 137.285817,48.784524 C137.252817,48.899524 137.215817,49.012524 137.171817,49.128524 C135.962817,52.359524 132.365817,53.993524 129.138817,52.785524 Z" id="Stroke-75" stroke="#9EB1FF"></path>
                <path d="M120.774517,40.725924 C123.990517,39.476924 127.607517,41.067924 128.855517,44.283924 C129.442517,45.792924 129.399517,47.393924 128.858517,48.789924 C131.255517,48.896924 133.485517,50.387924 134.411517,52.771924 C135.658517,55.983924 134.063517,59.602924 130.852517,60.849924 C128.480517,61.770924 125.891517,61.144924 124.191517,59.464924 C124.032517,59.541924 123.867517,59.616924 123.698517,59.681924 C120.487517,60.928924 116.868517,59.333924 115.619517,56.118924 C114.637517,53.590924 115.414517,50.810924 117.359517,49.135924 C117.307517,49.027924 117.259517,48.918924 117.214517,48.802924 C115.966517,45.587924 117.563517,41.972924 120.774517,40.725924" id="Fill-77" fill="#414D86"></path>
                <path d="M120.774517,40.725924 C123.990517,39.476924 127.607517,41.067924 128.855517,44.283924 C129.442517,45.792924 129.399517,47.393924 128.858517,48.789924 C131.255517,48.896924 133.485517,50.387924 134.411517,52.771924 C135.658517,55.983924 134.063517,59.602924 130.852517,60.849924 C128.480517,61.770924 125.891517,61.144924 124.191517,59.464924 C124.032517,59.541924 123.867517,59.616924 123.698517,59.681924 C120.487517,60.928924 116.868517,59.333924 115.619517,56.118924 C114.637517,53.590924 115.414517,50.810924 117.359517,49.135924 C117.307517,49.027924 117.259517,48.918924 117.214517,48.802924 C115.966517,45.587924 117.563517,41.972924 120.774517,40.725924 Z" id="Stroke-79" stroke="#9EB1FF"></path>
                <path d="M127.981617,56.808924 C126.841617,53.552924 128.553617,49.990924 131.809617,48.851924 C133.337617,48.316924 134.936617,48.413924 136.313617,49.001924 C136.501617,46.608924 138.066617,44.431924 140.481617,43.585924 C143.732617,42.448924 147.295617,44.163924 148.433617,47.415924 C149.274617,49.816924 148.561617,52.383924 146.824617,54.025924 C146.896617,54.187924 146.964617,54.354924 147.025617,54.525924 C148.163617,57.777924 146.446617,61.340924 143.190617,62.479924 C140.631617,63.375924 137.879617,62.506924 136.270617,60.505924 C136.161617,60.553924 136.050617,60.597924 135.933617,60.638924 C132.677617,61.777924 129.119617,60.059924 127.981617,56.808924" id="Fill-81" fill="#414D86"></path>
                <path d="M127.981617,56.808924 C126.841617,53.552924 128.553617,49.990924 131.809617,48.851924 C133.337617,48.316924 134.936617,48.413924 136.313617,49.001924 C136.501617,46.608924 138.066617,44.431924 140.481617,43.585924 C143.732617,42.448924 147.295617,44.163924 148.433617,47.415924 C149.274617,49.816924 148.561617,52.383924 146.824617,54.025924 C146.896617,54.187924 146.964617,54.354924 147.025617,54.525924 C148.163617,57.777924 146.446617,61.340924 143.190617,62.479924 C140.631617,63.375924 137.879617,62.506924 136.270617,60.505924 C136.161617,60.553924 136.050617,60.597924 135.933617,60.638924 C132.677617,61.777924 129.119617,60.059924 127.981617,56.808924 Z" id="Stroke-83" stroke="#9EB1FF"></path>
                <path d="M151.837017,19.260124 C149.052017,21.295124 145.147017,20.690124 143.111017,17.905124 C142.156017,16.597124 141.785017,15.039124 141.948017,13.551124 C139.605017,14.066124 137.066017,13.200124 135.557017,11.134124 C133.525017,8.35312405 134.133017,4.44512405 136.914017,2.41212405 C138.969017,0.911124049 141.631017,0.848124049 143.707017,2.03412405 C143.841017,1.91912405 143.982017,1.80412405 144.127017,1.69812405 C146.909017,-0.334875951 150.816017,0.274124049 152.852017,3.05912405 C154.451017,5.24812405 154.418017,8.13412405 152.970017,10.254124 C153.048017,10.345124 153.121017,10.438124 153.194017,10.538124 C155.230017,13.323124 154.618017,17.228124 151.837017,19.260124" id="Fill-85" fill="#414D86"></path>
                <path d="M151.837017,19.260124 C149.052017,21.295124 145.147017,20.690124 143.111017,17.905124 C142.156017,16.597124 141.785017,15.039124 141.948017,13.551124 C139.605017,14.066124 137.066017,13.200124 135.557017,11.134124 C133.525017,8.35312405 134.133017,4.44512405 136.914017,2.41212405 C138.969017,0.911124049 141.631017,0.848124049 143.707017,2.03412405 C143.841017,1.91912405 143.982017,1.80412405 144.127017,1.69812405 C146.909017,-0.334875951 150.816017,0.274124049 152.852017,3.05912405 C154.451017,5.24812405 154.418017,8.13412405 152.970017,10.254124 C153.048017,10.345124 153.121017,10.438124 153.194017,10.538124 C155.230017,13.323124 154.618017,17.228124 151.837017,19.260124 Z" id="Stroke-87" stroke="#9EB1FF"></path>
                <path d="M137.165217,19.623924 C137.889217,16.250924 141.204217,14.101924 144.577217,14.824924 C146.161217,15.164924 147.476217,16.080924 148.345217,17.299924 C149.751217,15.354924 152.221217,14.310924 154.723217,14.846924 C158.091217,15.568924 160.238217,18.890924 159.517217,22.258924 C158.983217,24.745924 157.038217,26.565924 154.700217,27.062924 C154.677217,27.238924 154.648217,27.416924 154.610217,27.594924 C153.888217,30.962924 150.567217,33.110924 147.194217,32.387924 C144.544217,31.818924 142.646217,29.643924 142.316217,27.096924 C142.197217,27.081924 142.080217,27.060924 141.959217,27.034924 C138.586217,26.311924 136.442217,22.991924 137.165217,19.623924" id="Fill-89" fill="#414D86"></path>
                <path d="M137.165217,19.623924 C137.889217,16.250924 141.204217,14.101924 144.577217,14.824924 C146.161217,15.164924 147.476217,16.080924 148.345217,17.299924 C149.751217,15.354924 152.221217,14.310924 154.723217,14.846924 C158.091217,15.568924 160.238217,18.890924 159.517217,22.258924 C158.983217,24.745924 157.038217,26.565924 154.700217,27.062924 C154.677217,27.238924 154.648217,27.416924 154.610217,27.594924 C153.888217,30.962924 150.567217,33.110924 147.194217,32.387924 C144.544217,31.818924 142.646217,29.643924 142.316217,27.096924 C142.197217,27.081924 142.080217,27.060924 141.959217,27.034924 C138.586217,26.311924 136.442217,22.991924 137.165217,19.623924 Z" id="Stroke-91" stroke="#9EB1FF"></path>
                <path d="M154.562617,22.437324 C151.216617,21.601324 149.180617,18.213324 150.017617,14.867324 C150.410617,13.295324 151.369617,12.013324 152.617617,11.186324 C150.720617,9.71432405 149.760617,7.21032405 150.380617,4.72932405 C151.216617,1.38732405 154.608617,-0.647675951 157.950617,0.187324049 C160.417617,0.804324049 162.170617,2.80932405 162.589617,5.16332405 C162.763617,5.19232405 162.942617,5.22732405 163.117617,5.27132405 C166.458617,6.10632405 168.494617,9.49832405 167.657617,12.844324 C167.000617,15.474324 164.761617,17.296324 162.206617,17.541324 C162.186617,17.659324 162.162617,17.776324 162.131617,17.896324 C161.294617,21.242324 157.904617,23.272324 154.562617,22.437324" id="Fill-93" fill="#9EB1FF"></path>
                <path d="M159.574317,48.021824 C156.789317,50.056824 152.884317,49.451824 150.848317,46.666824 C149.892317,45.358824 149.521317,43.800824 149.685317,42.312824 C147.341317,42.827824 144.803317,41.961824 143.293317,39.895824 C141.262317,37.114824 141.869317,33.206824 144.651317,31.173824 C146.705317,29.672824 149.368317,29.610824 151.443317,30.795824 C151.577317,30.680824 151.718317,30.565824 151.864317,30.459824 C154.645317,28.426824 158.553317,29.035824 160.589317,31.820824 C162.187317,34.009824 162.154317,36.895824 160.706317,39.015824 C160.784317,39.106824 160.858317,39.199824 160.931317,39.299824 C162.967317,42.084824 162.355317,45.989824 159.574317,48.021824" id="Fill-95" fill="#414D86"></path>
                <path d="M159.574317,48.021824 C156.789317,50.056824 152.884317,49.451824 150.848317,46.666824 C149.892317,45.358824 149.521317,43.800824 149.685317,42.312824 C147.341317,42.827824 144.803317,41.961824 143.293317,39.895824 C141.262317,37.114824 141.869317,33.206824 144.651317,31.173824 C146.705317,29.672824 149.368317,29.610824 151.443317,30.795824 C151.577317,30.680824 151.718317,30.565824 151.864317,30.459824 C154.645317,28.426824 158.553317,29.035824 160.589317,31.820824 C162.187317,34.009824 162.154317,36.895824 160.706317,39.015824 C160.784317,39.106824 160.858317,39.199824 160.931317,39.299824 C162.967317,42.084824 162.355317,45.989824 159.574317,48.021824 Z" id="Stroke-97" stroke="#9EB1FF"></path>
                <path d="M144.902517,48.385624 C145.625517,45.012624 148.941517,42.863624 152.314517,43.587624 C153.898517,43.926624 155.212517,44.842624 156.081517,46.061624 C157.487517,44.116624 159.958517,43.072624 162.459517,43.608624 C165.827517,44.331624 167.975517,47.652624 167.253517,51.020624 C166.719517,53.507624 164.775517,55.327624 162.436517,55.824624 C162.414517,56.000624 162.385517,56.178624 162.347517,56.356624 C161.625517,59.724624 158.303517,61.872624 154.931517,61.149624 C152.280517,60.580624 150.383517,58.405624 150.052517,55.858624 C149.934517,55.843624 149.817517,55.822624 149.696517,55.797624 C146.323517,55.073624 144.179517,51.753624 144.902517,48.385624" id="Fill-99" fill="#414D86"></path>
                <path d="M144.902517,48.385624 C145.625517,45.012624 148.941517,42.863624 152.314517,43.587624 C153.898517,43.926624 155.212517,44.842624 156.081517,46.061624 C157.487517,44.116624 159.958517,43.072624 162.459517,43.608624 C165.827517,44.331624 167.975517,47.652624 167.253517,51.020624 C166.719517,53.507624 164.775517,55.327624 162.436517,55.824624 C162.414517,56.000624 162.385517,56.178624 162.347517,56.356624 C161.625517,59.724624 158.303517,61.872624 154.931517,61.149624 C152.280517,60.580624 150.383517,58.405624 150.052517,55.858624 C149.934517,55.843624 149.817517,55.822624 149.696517,55.797624 C146.323517,55.073624 144.179517,51.753624 144.902517,48.385624 Z" id="Stroke-101" stroke="#9EB1FF"></path>
                <path d="M162.299917,51.199024 C158.952917,50.363024 156.916917,46.975024 157.753917,43.629024 C158.146917,42.057024 159.106917,40.775024 160.354917,39.948024 C158.457917,38.477024 157.497917,35.972024 158.117917,33.491024 C158.953917,30.149024 162.345917,28.114024 165.687917,28.949024 C168.154917,29.566024 169.907917,31.571024 170.325917,33.925024 C170.500917,33.954024 170.678917,33.989024 170.854917,34.032024 C174.195917,34.868024 176.231917,38.260024 175.394917,41.606024 C174.737917,44.236024 172.498917,46.058024 169.942917,46.303024 C169.922917,46.421024 169.898917,46.538024 169.867917,46.658024 C169.031917,50.004024 165.641917,52.034024 162.299917,51.199024" id="Fill-103" fill="#414D86"></path>
                <path d="M173.564617,20.265524 C173.612617,16.816524 176.443617,14.058524 179.891617,14.106524 C181.511617,14.129524 182.979617,14.769524 184.071617,15.794524 C185.068617,13.612524 187.286617,12.103524 189.844617,12.139524 C193.289617,12.187524 196.046617,15.022524 195.998617,18.467524 C195.962617,21.011524 194.413617,23.176524 192.217617,24.122524 C192.229617,24.299524 192.236617,24.480524 192.233617,24.661524 C192.185617,28.105524 189.350617,30.863524 185.901617,30.815524 C183.190617,30.777524 180.904617,29.015524 180.080617,26.583524 C179.960617,26.591524 179.841617,26.595524 179.717617,26.593524 C176.268617,26.545524 173.516617,23.709524 173.564617,20.265524" id="Fill-105" fill="#414D86"></path>
                <path d="M173.564617,20.265524 C173.612617,16.816524 176.443617,14.058524 179.891617,14.106524 C181.511617,14.129524 182.979617,14.769524 184.071617,15.794524 C185.068617,13.612524 187.286617,12.103524 189.844617,12.139524 C193.289617,12.187524 196.046617,15.022524 195.998617,18.467524 C195.962617,21.011524 194.413617,23.176524 192.217617,24.122524 C192.229617,24.299524 192.236617,24.480524 192.233617,24.661524 C192.185617,28.105524 189.350617,30.863524 185.901617,30.815524 C183.190617,30.777524 180.904617,29.015524 180.080617,26.583524 C179.960617,26.591524 179.841617,26.595524 179.717617,26.593524 C176.268617,26.545524 173.516617,23.709524 173.564617,20.265524 Z" id="Stroke-107" stroke="#9EB1FF"></path>
                <path d="M182.092917,8.32162405 C184.353917,10.926624 184.077917,14.868624 181.472917,17.129624 C180.248917,18.191624 178.727917,18.691624 177.230917,18.652624 C177.939917,20.945624 177.288917,23.547624 175.356917,25.223624 C172.753917,27.481624 168.808917,27.201624 166.551917,24.599624 C164.884917,22.677624 164.599917,20.030624 165.607917,17.862624 C165.480917,17.738624 165.355917,17.608624 165.236917,17.471624 C162.979917,14.869624 163.258917,10.924624 165.863917,8.66362405 C167.911917,6.88762405 170.790917,6.67962405 173.024917,7.94562405 C173.108917,7.86062405 173.195917,7.77862405 173.288917,7.69762405 C175.894917,5.43662405 179.835917,5.71962405 182.092917,8.32162405" id="Fill-109" fill="#414D86"></path>
                <path d="M182.092917,8.32162405 C184.353917,10.926624 184.077917,14.868624 181.472917,17.129624 C180.248917,18.191624 178.727917,18.691624 177.230917,18.652624 C177.939917,20.945624 177.288917,23.547624 175.356917,25.223624 C172.753917,27.481624 168.808917,27.201624 166.551917,24.599624 C164.884917,22.677624 164.599917,20.030624 165.607917,17.862624 C165.480917,17.738624 165.355917,17.608624 165.236917,17.471624 C162.979917,14.869624 163.258917,10.924624 165.863917,8.66362405 C167.911917,6.88762405 170.790917,6.67962405 173.024917,7.94562405 C173.108917,7.86062405 173.195917,7.77862405 173.288917,7.69762405 C175.894917,5.43662405 179.835917,5.71962405 182.092917,8.32162405 Z" id="Stroke-111" stroke="#9EB1FF"></path>
                <path d="M155.839017,18.597024 C158.520017,16.426024 162.450017,16.835024 164.621017,19.515024 C165.641017,20.774024 166.090017,22.311024 166.000017,23.806024 C168.316017,23.175024 170.895017,23.913024 172.505017,25.901024 C174.673017,28.577024 174.261017,32.511024 171.584017,34.679024 C169.608017,36.281024 166.951017,36.476024 164.818017,35.395024 C164.691017,35.517024 164.556017,35.639024 164.415017,35.753024 C161.738017,37.921024 157.805017,37.509024 155.634017,34.828024 C153.928017,32.722024 153.817017,29.838024 155.157017,27.648024 C155.075017,27.561024 154.996017,27.472024 154.918017,27.375024 C152.747017,24.695024 153.162017,20.765024 155.839017,18.597024" id="Fill-113" fill="#414D86"></path>
                <path d="M155.839017,18.597024 C158.520017,16.426024 162.450017,16.835024 164.621017,19.515024 C165.641017,20.774024 166.090017,22.311024 166.000017,23.806024 C168.316017,23.175024 170.895017,23.913024 172.505017,25.901024 C174.673017,28.577024 174.261017,32.511024 171.584017,34.679024 C169.608017,36.281024 166.951017,36.476024 164.818017,35.395024 C164.691017,35.517024 164.556017,35.639024 164.415017,35.753024 C161.738017,37.921024 157.805017,37.509024 155.634017,34.828024 C153.928017,32.722024 153.817017,29.838024 155.157017,27.648024 C155.075017,27.561024 154.996017,27.472024 154.918017,27.375024 C152.747017,24.695024 153.162017,20.765024 155.839017,18.597024 Z" id="Stroke-115" stroke="#9EB1FF"></path>
                <path d="M169.706217,52.699024 C172.386217,50.528024 176.316217,50.937024 178.488217,53.617024 C179.508217,54.876024 179.956217,56.413024 179.867217,57.908024 C182.183217,57.277024 184.761217,58.014024 186.371217,60.003024 C188.540217,62.679024 188.127217,66.613024 185.450217,68.781024 C183.474217,70.383024 180.817217,70.578024 178.685217,69.497024 C178.558217,69.619024 178.423217,69.741024 178.282217,69.855024 C175.605217,72.023024 171.672217,71.611024 169.501217,68.930024 C167.794217,66.824024 167.684217,63.940024 169.024217,61.750024 C168.941217,61.663024 168.863217,61.574024 168.785217,61.477024 C166.613217,58.797024 167.029217,54.867024 169.706217,52.699024" id="Fill-117" fill="#414D86"></path>
                <path d="M169.706217,52.699024 C172.386217,50.528024 176.316217,50.937024 178.488217,53.617024 C179.508217,54.876024 179.956217,56.413024 179.867217,57.908024 C182.183217,57.277024 184.761217,58.014024 186.371217,60.003024 C188.540217,62.679024 188.127217,66.613024 185.450217,68.781024 C183.474217,70.383024 180.817217,70.578024 178.685217,69.497024 C178.558217,69.619024 178.423217,69.741024 178.282217,69.855024 C175.605217,72.023024 171.672217,71.611024 169.501217,68.930024 C167.794217,66.824024 167.684217,63.940024 169.024217,61.750024 C168.941217,61.663024 168.863217,61.574024 168.785217,61.477024 C166.613217,58.797024 167.029217,54.867024 169.706217,52.699024 Z" id="Stroke-119" stroke="#9EB1FF"></path>
                <path d="M166.726717,63.676624 C165.146717,66.742624 161.383717,67.949624 158.317717,66.369624 C156.876717,65.627624 155.848717,64.400624 155.328717,62.996624 C153.462717,64.506624 150.804717,64.867624 148.531717,63.696624 C145.468717,62.117624 144.263717,58.350624 145.841717,55.288624 C147.006717,53.027624 149.360717,51.779624 151.747717,51.910624 C151.815717,51.747624 151.889717,51.582624 151.972717,51.421624 C153.550717,48.359624 157.317717,47.154624 160.383717,48.734624 C162.793717,49.976624 164.055717,52.572624 163.708717,55.116624 C163.819717,55.162624 163.927717,55.212624 164.037717,55.269624 C167.103717,56.849624 168.304717,60.614624 166.726717,63.676624" id="Fill-121" fill="#414D86"></path>
                <path d="M166.726717,63.676624 C165.146717,66.742624 161.383717,67.949624 158.317717,66.369624 C156.876717,65.627624 155.848717,64.400624 155.328717,62.996624 C153.462717,64.506624 150.804717,64.867624 148.531717,63.696624 C145.468717,62.117624 144.263717,58.350624 145.841717,55.288624 C147.006717,53.027624 149.360717,51.779624 151.747717,51.910624 C151.815717,51.747624 151.889717,51.582624 151.972717,51.421624 C153.550717,48.359624 157.317717,47.154624 160.383717,48.734624 C162.793717,49.976624 164.055717,52.572624 163.708717,55.116624 C163.819717,55.162624 163.927717,55.212624 164.037717,55.269624 C167.103717,56.849624 168.304717,60.614624 166.726717,63.676624 Z" id="Stroke-123" stroke="#9EB1FF"></path>
                <path d="M175.583117,54.145824 C175.631117,50.696824 178.462117,47.938824 181.911117,47.986824 C183.530117,48.009824 184.999117,48.649824 186.090117,49.674824 C187.088117,47.491824 189.306117,45.983824 191.863117,46.019824 C195.308117,46.067824 198.065117,48.902824 198.018117,52.347824 C197.981117,54.891824 196.432117,57.056824 194.236117,58.002824 C194.248117,58.179824 194.255117,58.360824 194.253117,58.541824 C194.204117,61.985824 191.369117,64.743824 187.920117,64.695824 C185.209117,64.657824 182.923117,62.895824 182.100117,60.463824 C181.979117,60.471824 181.860117,60.474824 181.737117,60.473824 C178.288117,60.424824 175.535117,57.589824 175.583117,54.145824" id="Fill-125" fill="#414D86"></path>
                <path d="M175.583117,54.145824 C175.631117,50.696824 178.462117,47.938824 181.911117,47.986824 C183.530117,48.009824 184.999117,48.649824 186.090117,49.674824 C187.088117,47.491824 189.306117,45.983824 191.863117,46.019824 C195.308117,46.067824 198.065117,48.902824 198.018117,52.347824 C197.981117,54.891824 196.432117,57.056824 194.236117,58.002824 C194.248117,58.179824 194.255117,58.360824 194.253117,58.541824 C194.204117,61.985824 191.369117,64.743824 187.920117,64.695824 C185.209117,64.657824 182.923117,62.895824 182.100117,60.463824 C181.979117,60.471824 181.860117,60.474824 181.737117,60.473824 C178.288117,60.424824 175.535117,57.589824 175.583117,54.145824 Z" id="Stroke-127" stroke="#9EB1FF"></path>
                <path d="M169.656417,33.481824 C169.704417,30.032824 172.535417,27.274824 175.984417,27.322824 C177.603417,27.345824 179.072417,27.985824 180.163417,29.010824 C181.161417,26.827824 183.379417,25.319824 185.936417,25.355824 C189.381417,25.403824 192.138417,28.238824 192.091417,31.683824 C192.055417,34.227824 190.505417,36.392824 188.309417,37.338824 C188.321417,37.515824 188.328417,37.696824 188.326417,37.877824 C188.278417,41.321824 185.442417,44.079824 181.993417,44.031824 C179.282417,43.993824 176.996417,42.231824 176.173417,39.799824 C176.052417,39.807824 175.933417,39.810824 175.810417,39.809824 C172.361417,39.760824 169.608417,36.925824 169.656417,33.481824" id="Fill-129" fill="#414D86"></path>
                <path d="M169.656417,33.481824 C169.704417,30.032824 172.535417,27.274824 175.984417,27.322824 C177.603417,27.345824 179.072417,27.985824 180.163417,29.010824 C181.161417,26.827824 183.379417,25.319824 185.936417,25.355824 C189.381417,25.403824 192.138417,28.238824 192.091417,31.683824 C192.055417,34.227824 190.505417,36.392824 188.309417,37.338824 C188.321417,37.515824 188.328417,37.696824 188.326417,37.877824 C188.278417,41.321824 185.442417,44.079824 181.993417,44.031824 C179.282417,43.993824 176.996417,42.231824 176.173417,39.799824 C176.052417,39.807824 175.933417,39.810824 175.810417,39.809824 C172.361417,39.760824 169.608417,36.925824 169.656417,33.481824 Z" id="Stroke-131" stroke="#9EB1FF"></path>
                <path d="M164.365417,46.827524 C164.413417,43.378524 167.244417,40.620524 170.693417,40.668524 C172.312417,40.691524 173.781417,41.331524 174.872417,42.356524 C175.870417,40.174524 178.088417,38.665524 180.645417,38.701524 C184.090417,38.749524 186.847417,41.584524 186.800417,45.029524 C186.763417,47.573524 185.214417,49.738524 183.018417,50.684524 C183.030417,50.861524 183.037417,51.042524 183.035417,51.223524 C182.986417,54.667524 180.151417,57.425524 176.702417,57.377524 C173.991417,57.339524 171.705417,55.577524 170.882417,53.145524 C170.761417,53.153524 170.642417,53.157524 170.519417,53.155524 C167.070417,53.107524 164.317417,50.271524 164.365417,46.827524" id="Fill-133" fill="#414D86"></path>
                <path d="M164.365417,46.827524 C164.413417,43.378524 167.244417,40.620524 170.693417,40.668524 C172.312417,40.691524 173.781417,41.331524 174.872417,42.356524 C175.870417,40.174524 178.088417,38.665524 180.645417,38.701524 C184.090417,38.749524 186.847417,41.584524 186.800417,45.029524 C186.763417,47.573524 185.214417,49.738524 183.018417,50.684524 C183.030417,50.861524 183.037417,51.042524 183.035417,51.223524 C182.986417,54.667524 180.151417,57.425524 176.702417,57.377524 C173.991417,57.339524 171.705417,55.577524 170.882417,53.145524 C170.761417,53.153524 170.642417,53.157524 170.519417,53.155524 C167.070417,53.107524 164.317417,50.271524 164.365417,46.827524 Z" id="Stroke-135" stroke="#9EB1FF"></path>
                <path d="M186.800917,29.451524 C186.848917,26.002524 189.679917,23.244524 193.128917,23.293524 C194.747917,23.315524 196.216917,23.955524 197.307917,24.980524 C198.305917,22.798524 200.523917,21.290524 203.080917,21.326524 C206.525917,21.373524 209.282917,24.209524 209.235917,27.653524 C209.198917,30.197524 207.649917,32.363524 205.453917,33.308524 C205.465917,33.485524 205.472917,33.666524 205.470917,33.847524 C205.421917,37.292524 202.586917,40.049524 199.137917,40.001524 C196.426917,39.963524 194.140917,38.201524 193.316917,35.770524 C193.196917,35.778524 193.077917,35.781524 192.954917,35.779524 C189.505917,35.731524 186.752917,32.895524 186.800917,29.451524" id="Fill-137" fill="#414D86"></path>
                <path d="M186.800917,29.451524 C186.848917,26.002524 189.679917,23.244524 193.128917,23.293524 C194.747917,23.315524 196.216917,23.955524 197.307917,24.980524 C198.305917,22.798524 200.523917,21.290524 203.080917,21.326524 C206.525917,21.373524 209.282917,24.209524 209.235917,27.653524 C209.198917,30.197524 207.649917,32.363524 205.453917,33.308524 C205.465917,33.485524 205.472917,33.666524 205.470917,33.847524 C205.421917,37.292524 202.586917,40.049524 199.137917,40.001524 C196.426917,39.963524 194.140917,38.201524 193.316917,35.770524 C193.196917,35.778524 193.077917,35.781524 192.954917,35.779524 C189.505917,35.731524 186.752917,32.895524 186.800917,29.451524 Z" id="Stroke-139" stroke="#9EB1FF"></path>
                <path d="M208.844817,43.674624 C210.752817,46.548624 209.973817,50.422624 207.099817,52.330624 C205.749817,53.226624 204.176817,53.527624 202.697817,53.297624 C203.106817,55.661624 202.127817,58.158624 199.995817,59.573624 C197.125817,61.478624 193.248817,60.695624 191.344817,57.825624 C189.937817,55.705624 189.993817,53.043624 191.271817,51.022624 C191.161817,50.883624 191.054817,50.737624 190.953817,50.587624 C189.048817,47.717624 189.831817,43.840624 192.705817,41.932624 C194.964817,40.433624 197.846817,40.596624 199.899817,42.138624 C199.992817,42.064624 200.089817,41.994624 200.193817,41.926624 C203.067817,40.018624 206.940817,40.804624 208.844817,43.674624" id="Fill-141" fill="#414D86"></path>
                <path d="M208.844817,43.674624 C210.752817,46.548624 209.973817,50.422624 207.099817,52.330624 C205.749817,53.226624 204.176817,53.527624 202.697817,53.297624 C203.106817,55.661624 202.127817,58.158624 199.995817,59.573624 C197.125817,61.478624 193.248817,60.695624 191.344817,57.825624 C189.937817,55.705624 189.993817,53.043624 191.271817,51.022624 C191.161817,50.883624 191.054817,50.737624 190.953817,50.587624 C189.048817,47.717624 189.831817,43.840624 192.705817,41.932624 C194.964817,40.433624 197.846817,40.596624 199.899817,42.138624 C199.992817,42.064624 200.089817,41.994624 200.193817,41.926624 C203.067817,40.018624 206.940817,40.804624 208.844817,43.674624 Z" id="Stroke-143" stroke="#9EB1FF"></path>
                <path d="M202.554817,36.160024 C204.462817,39.034024 203.683817,42.908024 200.809817,44.816024 C199.459817,45.712024 197.886817,46.013024 196.407817,45.782024 C196.816817,48.147024 195.836817,50.644024 193.705817,52.059024 C190.835817,53.964024 186.958817,53.181024 185.053817,50.311024 C183.646817,48.191024 183.702817,45.529024 184.981817,43.508024 C184.871817,43.369024 184.763817,43.223024 184.663817,43.073024 C182.758817,40.203024 183.541817,36.326024 186.415817,34.418024 C188.674817,32.919024 191.555817,33.082024 193.609817,34.624024 C193.702817,34.550024 193.799817,34.480024 193.903817,34.412024 C196.776817,32.504024 200.649817,33.290024 202.554817,36.160024" id="Fill-145" fill="#9EB1FF"></path>
                <path d="M202.554817,36.160024 C204.462817,39.034024 203.683817,42.908024 200.809817,44.816024 C199.459817,45.712024 197.886817,46.013024 196.407817,45.782024 C196.816817,48.147024 195.836817,50.644024 193.705817,52.059024 C190.835817,53.964024 186.958817,53.181024 185.053817,50.311024 C183.646817,48.191024 183.702817,45.529024 184.981817,43.508024 C184.871817,43.369024 184.763817,43.223024 184.663817,43.073024 C182.758817,40.203024 183.541817,36.326024 186.415817,34.418024 C188.674817,32.919024 191.555817,33.082024 193.609817,34.624024 C193.702817,34.550024 193.799817,34.480024 193.903817,34.412024 C196.776817,32.504024 200.649817,33.290024 202.554817,36.160024 Z" id="Stroke-147" stroke="#9EB1FF"></path>
                <path d="M233.969817,205.557024 C233.221817,208.924024 229.888817,211.048024 226.521817,210.299024 C224.940817,209.948024 223.632817,209.022024 222.773817,207.796024 C221.352817,209.730024 218.873817,210.756024 216.376817,210.200024 C213.014817,209.453024 210.891817,206.115024 211.639817,202.753024 C212.191817,200.269024 214.150817,198.464024 216.491817,197.985024 C216.516817,197.809024 216.546817,197.631024 216.585817,197.454024 C217.333817,194.092024 218.958817,192.124024 222.325817,192.873024 C224.972817,193.462024 228.564817,195.496024 228.875817,198.045024 C228.993817,198.061024 229.111817,198.082024 229.232817,198.109024 C232.599817,198.858024 234.717817,202.194024 233.969817,205.557024" id="Fill-149" fill="#414D86"></path>
                <path d="M233.969817,205.557024 C233.221817,208.924024 229.888817,211.048024 226.521817,210.299024 C224.940817,209.948024 223.632817,209.022024 222.773817,207.796024 C221.352817,209.730024 218.873817,210.756024 216.376817,210.200024 C213.014817,209.453024 210.891817,206.115024 211.639817,202.753024 C212.191817,200.269024 214.150817,198.464024 216.491817,197.985024 C216.516817,197.809024 216.546817,197.631024 216.585817,197.454024 C217.333817,194.092024 218.958817,192.124024 222.325817,192.873024 C224.972817,193.462024 228.564817,195.496024 228.875817,198.045024 C228.993817,198.061024 229.111817,198.082024 229.232817,198.109024 C232.599817,198.858024 234.717817,202.194024 233.969817,205.557024 Z" id="Stroke-151" stroke="#9EB1FF" fill="#9EB1FF"></path>
                <path d="M210.944517,222.710824 C212.320517,224.784824 211.757517,227.579824 209.684517,228.955824 C208.711517,229.601824 207.576517,229.818824 206.508517,229.652824 C206.803517,231.358824 206.097517,233.160824 204.559517,234.181824 C202.489517,235.555824 199.692517,234.990824 198.318517,232.919824 C197.302517,231.390824 197.343517,229.469824 198.265517,228.012824 C198.186517,227.911824 198.108517,227.806824 198.036517,227.697824 C196.662517,225.627824 197.227517,222.830824 199.300517,221.454824 C200.929517,220.372824 203.008517,220.489824 204.490517,221.602824 C204.557517,221.549824 204.628517,221.499824 204.702517,221.449824 C206.775517,220.073824 209.569517,220.640824 210.944517,222.710824" id="Fill-153" fill="#414D86"></path>
                <path d="M210.944517,222.710824 C212.320517,224.784824 211.757517,227.579824 209.684517,228.955824 C208.711517,229.601824 207.576517,229.818824 206.508517,229.652824 C206.803517,231.358824 206.097517,233.160824 204.559517,234.181824 C202.489517,235.555824 199.692517,234.990824 198.318517,232.919824 C197.302517,231.390824 197.343517,229.469824 198.265517,228.012824 C198.186517,227.911824 198.108517,227.806824 198.036517,227.697824 C196.662517,225.627824 197.227517,222.830824 199.300517,221.454824 C200.929517,220.372824 203.008517,220.489824 204.490517,221.602824 C204.557517,221.549824 204.628517,221.499824 204.702517,221.449824 C206.775517,220.073824 209.569517,220.640824 210.944517,222.710824 Z" id="Stroke-155" stroke="#9EB1FF" fill="#414D86"></path>
                <path d="M256.615417,220.581924 C256.303417,224.016924 253.271417,226.549924 249.836417,226.238924 C248.222417,226.092924 246.807417,225.341924 245.798417,224.235924 C244.636417,226.335924 242.309417,227.670924 239.761417,227.439924 C236.331417,227.128924 233.799417,224.090924 234.109417,220.659924 C234.339417,218.125924 236.051417,216.085924 238.311417,215.309924 C238.313417,215.132924 238.320417,214.951924 238.337417,214.771924 C238.647417,211.340924 241.685417,208.808924 245.121417,209.119924 C247.821417,209.364924 249.966417,211.295924 250.601417,213.783924 C250.720417,213.784924 250.840417,213.790924 250.964417,213.801924 C254.398417,214.113924 256.927417,217.150924 256.615417,220.581924" id="Fill-157" fill="#414D86"></path>
                <path d="M256.615417,220.581924 C256.303417,224.016924 253.271417,226.549924 249.836417,226.238924 C248.222417,226.092924 246.807417,225.341924 245.798417,224.235924 C244.636417,226.335924 242.309417,227.670924 239.761417,227.439924 C236.331417,227.128924 233.799417,224.090924 234.109417,220.659924 C234.339417,218.125924 236.051417,216.085924 238.311417,215.309924 C238.313417,215.132924 238.320417,214.951924 238.337417,214.771924 C238.647417,211.340924 241.685417,208.808924 245.121417,209.119924 C247.821417,209.364924 249.966417,211.295924 250.601417,213.783924 C250.720417,213.784924 250.840417,213.790924 250.964417,213.801924 C254.398417,214.113924 256.927417,217.150924 256.615417,220.581924 Z" id="Stroke-159" stroke="#9EB1FF" fill="#414D86"></path>
                <path d="M213.659315,49.250324 C213.449317,50.546324 189.108317,201.801324 188.865317,202.878324 C188.622317,203.956324 169.580317,218.779324 168.681317,218.779324 C167.783317,218.779324 106.683317,205.729324 106.603317,205.181324 C106.523317,204.633324 84.6693167,50.882324 84.9323167,49.778324 C83.5053167,39.527324 104.345317,40.370324 105.653317,54.027324 C105.392317,38.523324 120.600317,45.292324 122.954317,57.526324 C126.450317,36.006324 142.970317,55.484324 142.309317,61.420324 C144.114317,42.879324 162.613317,58.166324 163.364317,65.599324 C164.618317,50.792324 182.152317,55.441324 181.262317,69.059324 C181.178317,70.350324 213.867317,47.954324 213.659315,49.250324" id="Fill-163" fill="#6F7CBD"></path>
                <path d="M213.659315,49.250324 C213.449317,50.546324 189.108317,201.801324 188.865317,202.878324 C188.622317,203.956324 169.580317,218.779324 168.681317,218.779324 C167.783317,218.779324 106.683317,205.729324 106.603317,205.181324 C106.523317,204.633324 84.6693167,50.882324 84.9323167,49.778324 C83.5053167,39.527324 104.345317,40.370324 105.653317,54.027324 C105.392317,38.523324 120.600317,45.292324 122.954317,57.526324 C126.450317,36.006324 142.970317,55.484324 142.309317,61.420324 C144.114317,42.879324 162.613317,58.166324 163.364317,65.599324 C164.618317,50.792324 182.152317,55.441324 181.262317,69.059324 C181.178317,70.350324 213.867317,47.954324 213.659315,49.250324 Z" id="Stroke-165" fill="#06081C"></path>
            </g>
            <g id="Group-186" transform="translate(135.401000, 105.985000)">
                <g id="Group-170">
                    <mask id="mask-4" fill="white">
                        <use xlink:href="#path-3"></use>
                    </mask>
                    <g id="Clip-169"></g>
                    <polygon id="Fill-168" fill="#2A3052" mask="url(#mask-4)" points="26.7258 170.8615 18.6488 172.3635 -0.6522 -10.2785 10.2778 -11.7805"></polygon>
                </g>
                <g id="Group-173">
                    <mask id="mask-6" fill="white">
                        <use xlink:href="#path-5"></use>
                    </mask>
                    <g id="Clip-172"></g>
                    <polygon id="Fill-171" fill="#2A3052" mask="url(#mask-6)" points="45.2238 172.4962 39.1048 171.8722 35.4648 -11.8648 48.2078 -11.2418"></polygon>
                </g>
                <g id="Group-176">
                    <mask id="mask-8" fill="white">
                        <use xlink:href="#path-7"></use>
                    </mask>
                    <g id="Clip-175"></g>
                    <polygon id="Fill-174" fill="#2A3052" mask="url(#mask-8)" points="54.6135 175.5246 50.2135 174.3076 56.1735 -8.7904 70.2445 -7.5734"></polygon>
                </g>
                <g id="Group-179">
                    <mask id="mask-10" fill="white">
                        <use xlink:href="#path-9"></use>
                    </mask>
                    <g id="Clip-178"></g>
                    <polygon id="Fill-177" fill="#2A3052" mask="url(#mask-10)" points="68.9699 176.2003 61.6149 174.9833 77.2449 -8.1147 88.2019 -6.8977"></polygon>
                </g>
                <g id="Group-182">
                    <mask id="mask-12" fill="white">
                        <use xlink:href="#path-11"></use>
                    </mask>
                    <g id="Clip-181"></g>
                    <polygon id="Fill-180" fill="#2A3052" mask="url(#mask-12)" points="33.9123 168.6466 29.9033 170.4906 16.5833 -15.8924 27.5663 -16.7364"></polygon>
                </g>
                <g id="Group-185">
                    <mask id="mask-14" fill="white">
                        <use xlink:href="#path-13"></use>
                    </mask>
                    <g id="Clip-184"></g>
                    <polygon id="Fill-183" fill="#2A3052" mask="url(#mask-14)" points="92.5598 15.3605 126.3098 -10.3065 94.4968 155.3345 78.8598 157.2725"></polygon>
                </g>
            </g>
            <g id="Group-211" transform="translate(61.818900, 69.828400)">
                <path d="M19.1282,122.2451 C18.5912,123.4991 16.3912,124.5631 13.8942,124.5631 C9.3992,124.5631 8.8972,120.2241 8.8972,120.2241 L11.8672,112.4101 L16.8462,111.9491 L18.8992,118.3951 L21.5892,117.9061 C20.2772,111.1201 17.3582,96.5321 17.5712,96.4711 L9.2922,98.2161 C9.2922,98.2161 8.5332,102.1681 7.6722,106.8641 C6.1002,107.2741 4.1332,107.7761 3.4772,107.9431 C2.3232,108.2401 3.5402,111.3401 4.4332,111.3931 C4.8362,111.4161 5.8792,111.2641 6.8982,111.0891 C6.4552,113.5821 5.5492,120.1541 5.5492,120.1541 C5.5492,120.1541 6.0652,127.6091 14.6722,127.2761 C18.2202,127.2761 20.8662,125.3991 21.5452,121.7821 L19.1282,122.2451 Z" id="Fill-187" fill="#6F7CBD"></path>
                <path d="M19.1282,122.2451 C18.5912,123.4991 16.3912,124.5631 13.8942,124.5631 C9.3992,124.5631 8.8972,120.2241 8.8972,120.2241 L11.8672,112.4101 L16.8462,111.9491 L18.8992,118.3951 L21.5892,117.9061 C20.2772,111.1201 17.3582,96.5321 17.5712,96.4711 L9.2922,98.2161 C9.2922,98.2161 8.5332,102.1681 7.6722,106.8641 C6.1002,107.2741 4.1332,107.7761 3.4772,107.9431 C2.3232,108.2401 3.5402,111.3401 4.4332,111.3931 C4.8362,111.4161 5.8792,111.2641 6.8982,111.0891 C6.4552,113.5821 5.5492,120.1541 5.5492,120.1541 C5.5492,120.1541 6.0652,127.6091 14.6722,127.2761 C18.2202,127.2761 20.8662,125.3991 21.5452,121.7821 L19.1282,122.2451 Z" id="Stroke-189" stroke="#090F23" stroke-width="0.75"></path>
                <path d="M16.3333,105.94 C16.3333,107.289 15.4303,108.381 14.3153,108.381 C13.2003,108.381 12.2973,107.289 12.2973,105.94 C12.2973,104.592 13.2003,103.499 14.3153,103.499 C15.4303,103.499 16.3333,104.592 16.3333,105.94" id="Fill-191" fill="#6F7CBD"></path>
                <path d="M16.3333,105.94 C16.3333,107.289 15.4303,108.381 14.3153,108.381 C13.2003,108.381 12.2973,107.289 12.2973,105.94 C12.2973,104.592 13.2003,103.499 14.3153,103.499 C15.4303,103.499 16.3333,104.592 16.3333,105.94 Z" id="Stroke-193" stroke="#090F23" stroke-width="0.75"></path>
                <path d="M0.222,92.0537 L0,85.1657 L20.874,83.5967 C20.874,83.5967 21.001,87.1157 21.065,90.7577 C15.511,97.7007 6.378,98.5327 0.222,92.0537 Z" id="Stroke-195" stroke="#090F23" stroke-width="0.75"></path>
                <path d="M20.219,98.8872 L7.142,101.5212 C6.558,101.6392 5.989,101.2612 5.87,100.6762 L5.617,99.4212 C5.499,98.8372 5.878,98.2672 6.463,98.1502 L19.54,95.5152 C20.124,95.3972 20.694,95.7762 20.812,96.3602 L21.065,97.6152 C21.182,98.2002 20.804,98.7692 20.219,98.8872" id="Fill-197" fill="#6F7CBD"></path>
                <path d="M20.219,98.8872 L7.142,101.5212 C6.558,101.6392 5.989,101.2612 5.87,100.6762 L5.617,99.4212 C5.499,98.8372 5.878,98.2672 6.463,98.1502 L19.54,95.5152 C20.124,95.3972 20.694,95.7762 20.812,96.3602 L21.065,97.6152 C21.182,98.2002 20.804,98.7692 20.219,98.8872 Z" id="Stroke-199" stroke="#090F23" stroke-width="0.75"></path>
                <path d="M16.6507,89.1685 L3.0557,89.1685 C-0.3023,65.1755 0.5197,41.9075 3.4007,18.9955 L17.0337,18.9955 C14.0057,30.8905 13.9487,57.6315 16.6507,89.1685" id="Fill-201" fill="#6F7CBD"></path>
                <path d="M16.6507,89.1685 L3.0557,89.1685 C-0.3023,65.1755 0.5197,41.9075 3.4007,18.9955 L17.0337,18.9955 C14.0057,30.8905 13.9487,57.6315 16.6507,89.1685 Z" id="Stroke-203" stroke="#6F7CBD" stroke-width="0.75" fill="#06081C"></path>
                <path d="M55.4954,13.855 C38.9164,16.614 17.9044,23.477 2.1504,29.741 L3.4674,14.335 C17.6994,7.541 36.1934,1.98 51.1834,0 L55.4954,13.855 Z" id="Fill-205" fill="#6F7CBD"></path>
                <path d="M55.4954,13.855 C38.9164,16.614 17.9044,23.477 2.1504,29.741 L3.4674,14.335 C17.6994,7.541 36.1934,1.98 51.1834,0 L55.4954,13.855 Z" id="Stroke-207" stroke="#6F7CBD" stroke-width="0.75" fill="#06081C"></path>
                <path d="M2.0335,36.5581 L2.5565,30.0071 C6.5485,28.3621 10.9555,26.6591 15.6085,24.9211 L2.0335,36.5581 Z" id="Fill-209" fill="#6F7CBD"></path>
            </g>
        </g>
    </g>
</svg>