<svg width="215" height="215" viewBox="0 0 215 215" fill="none" xmlns="http://www.w3.org/2000/svg">
<mask id="mask0_656_637" style="mask-type:alpha" maskUnits="userSpaceOnUse" x="14" y="14" width="187" height="187">
<path d="M14.71 14.71H200.002V200.001H14.71V14.71Z" fill="white"/>
</mask>
<g mask="url(#mask0_656_637)">
<path fill-rule="evenodd" clip-rule="evenodd" d="M200.002 107.356C200.002 158.523 158.522 200.001 107.356 200.001C56.189 200.001 14.71 158.523 14.71 107.356C14.71 56.189 56.189 14.71 107.356 14.71C158.522 14.71 200.002 56.19 200.002 107.356Z" fill="#9CA3C4"/>
</g>
<path fill-rule="evenodd" clip-rule="evenodd" d="M93.4319 184.467L55.7169 192.065C55.0665 192.196 54.3906 192.063 53.8379 191.696C53.2853 191.329 52.9011 190.757 52.7699 190.107L40.2299 127.86C40.1649 127.538 40.1639 127.206 40.2271 126.884C40.2903 126.561 40.4165 126.254 40.5983 125.981C40.7801 125.707 41.0141 125.472 41.2869 125.289C41.5596 125.105 41.8658 124.978 42.1879 124.913L79.9029 117.314C80.2251 117.249 80.5568 117.248 80.8793 117.312C81.2017 117.375 81.5085 117.501 81.7822 117.683C82.0559 117.865 82.291 118.099 82.4742 118.372C82.6574 118.645 82.7851 118.951 82.8499 119.273L95.3899 181.52C95.521 182.17 95.3884 182.846 95.0212 183.399C94.654 183.952 94.0824 184.336 93.4319 184.467Z" fill="#06081C"/>
<path fill-rule="evenodd" clip-rule="evenodd" d="M82.669 119.31L95.209 181.554C95.2695 181.852 95.2702 182.16 95.211 182.459C95.1518 182.757 95.0338 183.041 94.864 183.294C94.6977 183.549 94.482 183.767 94.2296 183.937C93.9773 184.106 93.6935 184.223 93.395 184.281L55.683 191.881C55.0808 192.002 54.4552 191.879 53.9437 191.539C53.4322 191.199 53.0765 190.67 52.955 190.068L40.415 127.823C40.3533 127.526 40.3515 127.219 40.4097 126.92C40.4679 126.622 40.5849 126.339 40.754 126.086C41.097 125.572 41.621 125.216 42.224 125.097L58.123 121.894L58.313 121.857L58.493 121.817L59.024 121.713L59.214 121.676L59.22 121.673L59.41 121.636L79.941 117.496C80.104 117.462 80.269 117.449 80.433 117.451C80.961 117.462 81.4698 117.651 81.876 117.989C82.2822 118.327 82.5618 118.792 82.669 119.309M79.865 117.13L59.237 121.29L59.053 121.325L58.869 121.36L58.359 121.462L58.169 121.5L57.987 121.54L42.154 124.73C41.8072 124.798 41.4775 124.934 41.184 125.13C40.8905 125.327 40.6393 125.58 40.445 125.875C40.248 126.168 40.1114 126.498 40.0432 126.844C39.9751 127.191 39.9767 127.547 40.048 127.893L52.59 190.143C52.6587 190.489 52.7951 190.819 52.9914 191.112C53.1877 191.406 53.44 191.658 53.7339 191.853C54.0278 192.049 54.3575 192.185 54.704 192.253C55.0505 192.32 55.407 192.319 55.753 192.249L93.471 184.646C93.8172 184.578 94.1465 184.442 94.4396 184.246C94.7326 184.049 94.9837 183.797 95.178 183.502C95.572 182.904 95.718 182.19 95.576 181.484L83.034 119.234C82.8903 118.536 82.4765 117.923 81.8829 117.529C81.2893 117.135 80.564 116.992 79.865 117.13Z" fill="#6F7CBD"/>
<path fill-rule="evenodd" clip-rule="evenodd" d="M82.219 123.608L44.194 131.268C44.1192 131.283 44.0423 131.283 43.9674 131.269C43.8926 131.254 43.8214 131.225 43.7578 131.183C43.6943 131.141 43.6397 131.086 43.5972 131.023C43.5546 130.96 43.525 130.889 43.51 130.814L42.748 127.034C42.7176 126.883 42.7485 126.726 42.8338 126.597C42.9191 126.469 43.0519 126.379 43.203 126.349L81.228 118.689C81.3027 118.674 81.3797 118.673 81.4545 118.688C81.5294 118.703 81.6006 118.732 81.6641 118.774C81.7276 118.816 81.7822 118.87 81.8248 118.934C81.8673 118.997 81.8969 119.068 81.912 119.143L82.674 122.923C82.6891 122.998 82.6894 123.075 82.6747 123.15C82.6601 123.225 82.6308 123.296 82.5885 123.36C82.5462 123.423 82.4918 123.478 82.4284 123.521C82.365 123.563 82.2938 123.593 82.219 123.608Z" fill="#FF6E61"/>
<path fill-rule="evenodd" clip-rule="evenodd" d="M81.49 121.692L82.231 125.357C82.2589 125.495 82.2588 125.638 82.2308 125.776C82.2029 125.915 82.1475 126.046 82.068 126.163C81.9915 126.281 81.8922 126.383 81.776 126.462C81.6597 126.541 81.5289 126.597 81.391 126.625L44.463 134.065C44.1832 134.122 43.8924 134.065 43.6543 133.908C43.4163 133.75 43.2503 133.505 43.193 133.225L42.458 129.558C42.4035 129.278 42.459 128.988 42.613 128.748C42.774 128.509 43.017 128.344 43.298 128.288L80.227 120.849C80.3655 120.821 80.5081 120.822 80.6465 120.85C80.7849 120.878 80.9163 120.934 81.033 121.013C81.274 121.166 81.434 121.41 81.489 121.693M80.15 120.483L43.222 127.923C42.842 127.998 42.518 128.221 42.306 128.543C42.086 128.863 42.015 129.248 42.09 129.627L42.826 133.294C42.964 133.974 43.56 134.446 44.224 134.457C44.3276 134.46 44.4312 134.452 44.533 134.433L81.466 126.99C81.844 126.91 82.171 126.694 82.382 126.37C82.5944 126.052 82.6724 125.663 82.599 125.287L81.86 121.614C81.7812 121.238 81.5575 120.909 81.2373 120.697C80.9171 120.486 80.5264 120.409 80.15 120.484" fill="#6F7CBD"/>
<path fill-rule="evenodd" clip-rule="evenodd" d="M92.198 181.55L56.368 188.769C55.9746 188.848 55.566 188.768 55.2318 188.546C54.8976 188.324 54.6653 187.978 54.586 187.585L44.467 137.356C44.3877 136.963 44.4679 136.554 44.6899 136.22C44.912 135.886 45.2577 135.653 45.651 135.574L81.481 128.355C81.6758 128.316 81.8766 128.315 82.0717 128.353C82.2668 128.391 82.4525 128.468 82.6181 128.578C82.7837 128.688 82.9259 128.83 83.0368 128.995C83.1476 129.16 83.2248 129.345 83.264 129.54L93.383 179.768C93.4222 179.963 93.4227 180.163 93.3843 180.358C93.346 180.553 93.2696 180.739 93.1596 180.904C93.0496 181.07 92.908 181.212 92.743 181.323C92.578 181.434 92.3928 181.511 92.198 181.55Z" fill="#B9C5EF"/>
<path fill-rule="evenodd" clip-rule="evenodd" d="M90.193 178.266L56.945 184.963L47.719 139.166L80.966 132.468L90.193 178.266Z" fill="#06081C"/>
<path fill-rule="evenodd" clip-rule="evenodd" d="M60.504 160.245L60.864 162.022C60.631 162.25 60.3633 162.439 60.071 162.582C59.738 162.752 59.4 162.872 59.061 162.944C58.6143 163.04 58.1512 163.026 57.711 162.904C57.3087 162.792 56.9464 162.568 56.666 162.258C56.3747 161.94 56.1793 161.546 56.102 161.121C56.0117 160.7 56.038 160.263 56.178 159.856C56.318 159.463 56.566 159.126 56.906 158.854C57.2727 158.57 57.7014 158.378 58.157 158.292C58.412 158.241 58.657 158.216 58.887 158.225C59.057 158.225 59.229 158.245 59.391 158.275C59.714 158.337 60.011 158.468 60.267 158.657L59.602 159.533C59.234 159.284 58.844 159.2 58.442 159.285C58.055 159.362 57.764 159.548 57.586 159.83C57.401 160.114 57.346 160.455 57.428 160.853C57.508 161.245 57.682 161.54 57.962 161.734C58.236 161.93 58.575 161.994 58.952 161.912C59.169 161.871 59.374 161.785 59.557 161.665L59.633 161.611L59.406 160.467L60.504 160.245ZM59.323 161.48C59.193 161.556 59.045 161.611 58.893 161.639C58.593 161.702 58.343 161.659 58.121 161.504C57.908 161.353 57.768 161.121 57.704 160.8C57.634 160.468 57.672 160.204 57.819 159.98C57.962 159.763 58.185 159.62 58.499 159.558C58.867 159.488 59.209 159.578 59.544 159.834L59.652 159.923L60.657 158.606L60.552 158.524C60.2323 158.259 59.8514 158.078 59.444 157.998C59.0008 157.915 58.5457 157.922 58.105 158.016C57.6057 158.111 57.1362 158.324 56.735 158.636C56.3596 158.923 56.0758 159.313 55.918 159.759C55.758 160.203 55.726 160.684 55.828 161.179C55.925 161.677 56.141 162.105 56.458 162.453C56.772 162.795 57.172 163.038 57.634 163.177C57.876 163.245 58.134 163.285 58.397 163.287C58.626 163.29 58.87 163.266 59.113 163.22C59.478 163.144 59.843 163.018 60.204 162.831C60.5429 162.663 60.8515 162.44 61.117 162.171L61.17 162.112L60.727 159.917L59.073 160.245L59.323 161.48ZM66.28 159.314C66.418 159.979 66.333 160.534 66.029 160.974C65.731 161.411 65.229 161.7 64.549 161.837C63.869 161.975 63.298 161.897 62.846 161.612C62.404 161.322 62.111 160.844 61.976 160.185L61.482 157.735L62.795 157.472L63.275 159.872C63.349 160.252 63.482 160.514 63.659 160.667C63.848 160.828 64.084 160.884 64.358 160.827C64.639 160.771 64.836 160.632 64.941 160.41C65.048 160.195 65.064 159.912 64.987 159.526L64.507 157.126L65.789 156.87L66.28 159.314ZM64.173 156.905L64.713 159.585C64.781 159.897 64.772 160.127 64.695 160.28C64.621 160.424 64.495 160.513 64.305 160.55C64.115 160.588 63.962 160.56 63.84 160.456C63.715 160.346 63.618 160.131 63.55 159.82L63.01 157.14L61.153 157.511L61.699 160.238C61.743 160.46 61.809 160.667 61.887 160.853C62.071 161.287 62.338 161.62 62.695 161.846C63.035 162.064 63.43 162.174 63.88 162.183C64.1224 162.184 64.3643 162.161 64.602 162.113C65.358 161.957 65.915 161.63 66.259 161.131C66.607 160.63 66.704 160.001 66.556 159.262L66.01 156.536L64.173 156.906V156.905ZM70.924 157.649L71.098 158.519L69.111 158.916L69.29 159.812L71.643 159.338L71.831 160.258L68.191 160.99L67.305 156.564L70.847 155.852L71.034 156.766L68.767 157.224L68.939 158.053L70.924 157.649ZM71.362 156.989L71.068 155.518L66.971 156.344L67.976 161.322L72.157 160.475L71.863 159.005L69.511 159.477L69.439 159.139L71.432 158.739L71.147 157.321L69.153 157.721L69.101 157.446L71.361 156.989H71.362ZM76.623 157.9C76.676 158.16 76.651 158.42 76.549 158.668C76.439 158.912 76.244 159.137 75.971 159.33C75.683 159.522 75.313 159.67 74.862 159.761C74.49 159.834 74.111 159.866 73.732 159.855C73.4531 159.853 73.1758 159.812 72.908 159.734L73.124 158.749C73.346 158.805 73.577 158.849 73.826 158.865C74.134 158.891 74.419 158.878 74.686 158.822C74.936 158.773 75.094 158.714 75.198 158.642C75.373 158.518 75.378 158.36 75.357 158.277C75.339 158.184 75.274 158.028 75.013 157.982C74.7936 157.952 74.5723 157.939 74.351 157.942C74.0389 157.946 73.727 157.926 73.418 157.882C73.1791 157.849 72.9532 157.753 72.763 157.605C72.567 157.46 72.446 157.241 72.381 156.935C72.3245 156.674 72.3514 156.403 72.458 156.158C72.565 155.908 72.758 155.692 73.04 155.503C73.319 155.307 73.691 155.164 74.142 155.073C74.447 155.009 74.765 154.988 75.085 154.988C75.348 154.991 75.589 155.024 75.808 155.088L75.615 156.062C75.1916 155.95 74.7485 155.933 74.318 156.014C74.004 156.074 73.804 156.174 73.708 156.313C73.6555 156.396 73.6362 156.495 73.654 156.591C73.671 156.683 73.744 156.837 73.994 156.879C74.134 156.906 74.35 156.914 74.647 156.909C75.013 156.905 75.325 156.922 75.58 156.956C75.823 156.996 76.046 157.086 76.242 157.231C76.437 157.375 76.564 157.591 76.622 157.899M75.621 156.683C75.2974 156.638 74.9704 156.622 74.644 156.635C74.4429 156.637 74.2418 156.627 74.042 156.605C73.942 156.583 73.935 156.55 73.93 156.539C73.9273 156.527 73.927 156.515 73.9293 156.503C73.9315 156.491 73.9362 156.479 73.943 156.469C73.965 156.438 74.05 156.353 74.376 156.286C74.762 156.209 75.206 156.235 75.686 156.366L75.833 156.41L76.136 154.893L76.013 154.853C75.7137 154.759 75.4018 154.711 75.088 154.711C74.7527 154.7 74.4172 154.729 74.089 154.798C73.599 154.898 73.192 155.056 72.876 155.267C72.557 155.486 72.329 155.752 72.199 156.048C72.071 156.35 72.041 156.668 72.106 156.988C72.18 157.368 72.346 157.645 72.596 157.831C72.827 158.01 73.092 158.118 73.373 158.162C73.643 158.198 73.973 158.222 74.35 158.226C74.634 158.226 74.844 158.238 74.966 158.256C75.073 158.276 75.082 158.315 75.083 158.335C75.089 158.347 75.093 158.373 75.038 158.411C74.988 158.446 74.883 158.498 74.634 158.546C74.394 158.598 74.129 158.609 73.849 158.586C73.5833 158.57 73.321 158.518 73.069 158.432L72.919 158.382L72.579 159.915L72.697 159.957C72.975 160.06 73.319 160.121 73.722 160.135L73.809 160.14C74.179 160.141 74.547 160.106 74.92 160.034C75.404 159.937 75.812 159.779 76.125 159.562C76.447 159.334 76.678 159.074 76.802 158.781C76.931 158.479 76.963 158.168 76.896 157.841C76.823 157.467 76.66 157.181 76.409 157.004C76.1785 156.831 75.9069 156.721 75.621 156.684M81.092 154.776L79.712 155.052L80.418 158.527L79.103 158.79L78.407 155.318L77.027 155.595L76.832 154.642L80.902 153.821L81.092 154.776ZM72.037 157.55L72.337 159.053L73.714 158.771L74.414 162.248L76.277 161.874L75.577 158.397L76.957 158.121L76.65 156.619L72.037 157.549V157.55Z" fill="#96A4EA"/>
<path fill-rule="evenodd" clip-rule="evenodd" d="M51.0569 138.493L47.7189 139.166L47.6329 135.175L50.9839 134.499L51.0569 138.493ZM56.0789 137.482L52.7399 138.154L52.6549 134.163L56.0049 133.487L56.0789 137.482ZM61.2909 136.432L57.9529 137.104L57.8669 133.113L61.2179 132.437L61.2909 136.432ZM66.6229 135.358L63.2849 136.03L63.1989 132.039L66.5499 131.363L66.6229 135.358ZM74.3489 185.146L71.0099 185.819L70.9249 181.827L74.2749 181.152L74.3489 185.146ZM79.3699 184.135L76.0309 184.808L75.9459 180.816L79.2969 180.14L79.3699 184.135ZM84.5829 183.085L81.2439 183.757L81.1589 179.766L84.5089 179.09L84.5829 183.085ZM89.9149 182.01L86.5749 182.683L86.4899 178.691L89.8419 178.016L89.9149 182.01Z" fill="#06081C"/>
<path fill-rule="evenodd" clip-rule="evenodd" d="M59.762 127.974C59.7822 128.073 59.7827 128.175 59.7633 128.275C59.7439 128.374 59.7051 128.469 59.6491 128.553C59.593 128.637 59.5209 128.709 59.4368 128.766C59.3527 128.822 59.2582 128.861 59.159 128.881L50.828 130.561C50.628 130.602 50.4198 130.563 50.249 130.451C50.0801 130.335 49.9625 130.158 49.921 129.958C49.8998 129.859 49.8994 129.757 49.9199 129.658C49.9404 129.559 49.9813 129.465 50.04 129.383C50.0943 129.298 50.1653 129.225 50.2486 129.168C50.332 129.111 50.426 129.072 50.525 129.052L58.858 127.377C58.9107 127.362 58.9653 127.356 59.02 127.358C59.1954 127.36 59.3647 127.423 59.4997 127.535C59.6347 127.647 59.7273 127.802 59.762 127.974ZM59.644 127.174C59.3894 127.009 59.0801 126.951 58.783 127.012L50.449 128.686C50.149 128.749 49.895 128.92 49.726 129.176C49.6419 129.3 49.5835 129.44 49.5543 129.588C49.5251 129.735 49.5257 129.887 49.556 130.034C49.618 130.334 49.789 130.588 50.045 130.756C50.1685 130.842 50.3085 130.901 50.4562 130.931C50.6038 130.96 50.756 130.958 50.903 130.926L59.234 129.246C59.3812 129.217 59.5212 129.16 59.646 129.076C59.7709 128.993 59.878 128.886 59.9613 128.761C60.0446 128.637 60.1024 128.497 60.1313 128.35C60.1602 128.202 60.1598 128.051 60.13 127.904C60.067 127.604 59.894 127.344 59.644 127.174ZM75.323 124.843C75.3639 125.043 75.3244 125.25 75.213 125.421C75.0968 125.59 74.9204 125.707 74.72 125.75L66.386 127.424C66.2874 127.444 66.1858 127.445 66.087 127.426C65.9881 127.407 65.8941 127.368 65.8101 127.313C65.7261 127.258 65.6539 127.186 65.5976 127.103C65.5413 127.019 65.502 126.926 65.482 126.827C65.4606 126.728 65.4594 126.626 65.4784 126.526C65.4975 126.427 65.5365 126.332 65.593 126.248C65.7081 126.079 65.8846 125.961 66.085 125.92L74.415 124.24C74.615 124.201 74.8222 124.243 74.9918 124.356C75.1614 124.469 75.28 124.644 75.322 124.843M75.199 124.045C75.0745 123.961 74.9345 123.902 74.7871 123.873C74.6398 123.844 74.4881 123.845 74.341 123.875L66.009 125.555C65.8616 125.582 65.7213 125.639 65.5967 125.722C65.472 125.805 65.3656 125.912 65.284 126.038C65.115 126.293 65.054 126.603 65.114 126.896C65.177 127.196 65.35 127.456 65.599 127.628C65.785 127.748 65.998 127.814 66.217 127.814C66.299 127.817 66.3811 127.809 66.461 127.79L74.795 126.115C75.095 126.052 75.349 125.881 75.518 125.625C75.688 125.37 75.751 125.067 75.688 124.767C75.6581 124.62 75.5996 124.481 75.5156 124.357C75.4317 124.233 75.3241 124.127 75.199 124.045Z" fill="#6F7CBD"/>
<path fill-rule="evenodd" clip-rule="evenodd" d="M103.818 66.016C103.818 66.7004 103.619 67.37 103.246 67.9434C102.872 68.5168 102.34 68.9694 101.714 69.246C101.088 69.5227 100.395 69.6116 99.7198 69.5019C99.0443 69.3922 98.4152 69.0886 97.909 68.628C97.6783 69.1533 97.323 69.6146 96.874 69.9718C96.425 70.329 95.8958 70.5715 95.332 70.6783C94.7683 70.7852 94.187 70.753 93.6385 70.5848C93.0899 70.4166 92.5906 70.1173 92.1837 69.7128C91.7767 69.3083 91.4744 68.8108 91.3029 68.2632C91.1314 67.7157 91.0958 67.1346 91.1992 66.5703C91.3026 66.0059 91.542 65.4752 91.8965 65.0241C92.251 64.5729 92.7101 64.2149 93.234 63.981C93.1616 63.1261 93.4028 62.2741 93.9125 61.5839C94.4223 60.8938 95.1657 60.4127 96.0041 60.2305C96.8425 60.0483 97.7186 60.1774 98.4688 60.5937C99.219 61.0101 99.7921 61.6852 100.081 62.493C100.561 62.4651 101.042 62.5355 101.493 62.6999C101.945 62.8643 102.359 63.1193 102.709 63.4491C103.058 63.779 103.337 64.1768 103.528 64.6182C103.718 65.0596 103.817 65.5352 103.817 66.016" fill="#06081C"/>
<path fill-rule="evenodd" clip-rule="evenodd" d="M103.818 66.016C103.818 66.7004 103.619 67.37 103.246 67.9434C102.872 68.5168 102.34 68.9694 101.714 69.246C101.088 69.5227 100.395 69.6116 99.7198 69.5019C99.0443 69.3922 98.4152 69.0886 97.909 68.628C97.6783 69.1533 97.323 69.6146 96.874 69.9718C96.425 70.329 95.8958 70.5715 95.332 70.6783C94.7683 70.7852 94.187 70.753 93.6385 70.5848C93.0899 70.4166 92.5906 70.1173 92.1837 69.7128C91.7767 69.3083 91.4744 68.8108 91.3029 68.2632C91.1314 67.7157 91.0958 67.1346 91.1992 66.5703C91.3026 66.0059 91.542 65.4752 91.8965 65.0241C92.251 64.5729 92.7101 64.2149 93.234 63.981C93.1616 63.1261 93.4028 62.2741 93.9125 61.5839C94.4223 60.8938 95.1657 60.4127 96.0041 60.2305C96.8425 60.0483 97.7186 60.1774 98.4688 60.5937C99.219 61.0101 99.7921 61.6852 100.081 62.493C100.561 62.4651 101.042 62.5355 101.493 62.6999C101.945 62.8643 102.359 63.1193 102.709 63.4491C103.058 63.779 103.337 64.1768 103.528 64.6182C103.718 65.0596 103.817 65.5352 103.817 66.016H103.818Z" stroke="#6F7CBD"/>
<path fill-rule="evenodd" clip-rule="evenodd" d="M99.0869 72.8399C98.6317 72.3292 98.3346 71.6973 98.2317 71.0209C98.1288 70.3446 98.2246 69.6529 98.5074 69.0299C98.7902 68.4069 99.2478 67.8795 99.8246 67.5117C100.402 67.1438 101.073 66.9515 101.757 66.958C101.579 66.4123 101.537 65.8317 101.634 65.2662C101.732 64.7007 101.965 64.1674 102.315 63.7123C102.664 63.2573 103.119 62.8943 103.641 62.6546C104.162 62.4149 104.734 62.3058 105.307 62.3367C105.88 62.3676 106.436 62.5376 106.929 62.8319C107.422 63.1263 107.835 63.5362 108.133 64.0262C108.432 64.5162 108.607 65.0715 108.643 65.6442C108.678 66.2168 108.574 66.7896 108.339 67.313C108.961 67.903 109.347 68.6991 109.426 69.5529C109.505 70.4068 109.27 71.2601 108.766 71.9538C108.263 72.6476 107.524 73.1345 106.687 73.3239C105.851 73.5132 104.974 73.392 104.221 72.983C103.881 73.3232 103.476 73.5905 103.029 73.7686C102.583 73.9467 102.105 74.0317 101.624 74.0185C101.143 74.0053 100.671 73.8942 100.235 73.6918C99.7985 73.4895 99.4083 73.2003 99.0879 72.842" fill="#06081C"/>
<path fill-rule="evenodd" clip-rule="evenodd" d="M99.0869 72.8399C98.6317 72.3292 98.3346 71.6973 98.2317 71.0209C98.1288 70.3446 98.2246 69.6529 98.5074 69.0299C98.7902 68.4069 99.2478 67.8795 99.8246 67.5117C100.402 67.1438 101.073 66.9515 101.757 66.958C101.579 66.4123 101.537 65.8317 101.634 65.2662C101.732 64.7007 101.965 64.1674 102.315 63.7123C102.664 63.2573 103.119 62.8943 103.641 62.6546C104.162 62.4149 104.734 62.3058 105.307 62.3367C105.88 62.3676 106.436 62.5376 106.929 62.8319C107.422 63.1263 107.835 63.5362 108.133 64.0262C108.432 64.5162 108.607 65.0715 108.643 65.6442C108.678 66.2168 108.574 66.7896 108.339 67.313C108.961 67.903 109.347 68.6991 109.426 69.5529C109.505 70.4068 109.27 71.2601 108.766 71.9538C108.263 72.6476 107.524 73.1345 106.687 73.3239C105.851 73.5132 104.974 73.392 104.221 72.983C103.881 73.3232 103.476 73.5905 103.029 73.7686C102.583 73.9467 102.105 74.0317 101.624 74.0185C101.143 74.0053 100.671 73.8942 100.235 73.6918C99.7985 73.4895 99.4083 73.2003 99.0879 72.842L99.0869 72.8399Z" stroke="#6F7CBD"/>
<path fill-rule="evenodd" clip-rule="evenodd" d="M106.18 65.8311C105.824 66.1284 105.412 66.3526 104.969 66.4909C104.527 66.6291 104.061 66.6788 103.599 66.637C103.137 66.5952 102.687 66.4628 102.276 66.2473C101.865 66.0318 101.501 65.7375 101.204 65.3811C100.64 64.706 100.349 63.8439 100.39 62.9651C99.8386 63.1242 99.2568 63.1466 98.6949 63.0305C98.133 62.9143 97.6078 62.663 97.1648 62.2983C96.7218 61.9336 96.3742 61.4665 96.1523 60.9374C95.9303 60.4082 95.8405 59.833 95.8908 59.2614C95.941 58.6897 96.1297 58.139 96.4406 57.6567C96.7514 57.1743 97.1751 56.775 97.6749 56.4932C98.1747 56.2113 98.7357 56.0555 99.3093 56.0391C99.8829 56.0227 100.452 56.1462 100.967 56.3991C101.578 55.798 102.386 55.4393 103.242 55.3899C104.097 55.3405 104.942 55.6037 105.618 56.1305C106.294 56.6573 106.755 57.4118 106.917 58.2535C107.078 59.0952 106.928 59.9668 106.494 60.7061C106.823 61.057 107.076 61.4714 107.239 61.9238C107.402 62.3762 107.471 62.8571 107.441 63.337C107.412 63.8169 107.285 64.2857 107.067 64.7148C106.85 65.1438 106.548 65.524 106.179 65.8321" fill="#FF6E61"/>
<path fill-rule="evenodd" clip-rule="evenodd" d="M114.34 58.6469C114.34 59.331 114.141 60.0004 113.767 60.5736C113.394 61.1468 112.862 61.5992 112.236 61.8759C111.61 62.1525 110.918 62.2415 110.242 62.132C109.567 62.0224 108.938 61.7191 108.432 61.2589C108.201 61.7837 107.846 62.2444 107.397 62.6011C106.948 62.9578 106.419 63.1999 105.855 63.3065C105.292 63.413 104.711 63.3808 104.163 63.2126C103.615 63.0443 103.116 62.7452 102.709 62.341C102.303 61.9367 102 61.4396 101.829 60.8924C101.657 60.3453 101.622 59.7646 101.725 59.2006C101.828 58.6366 102.067 58.1061 102.421 57.6551C102.775 57.2041 103.234 56.846 103.757 56.6119C103.715 56.1242 103.775 55.6332 103.933 55.1699C104.091 54.7066 104.343 54.2811 104.674 53.9205C105.005 53.5599 105.407 53.2719 105.855 53.0749C106.303 52.8778 106.787 52.776 107.277 52.7759C108.812 52.7759 110.119 53.7549 110.604 55.1239C111.084 55.096 111.565 55.1664 112.016 55.3308C112.468 55.4952 112.882 55.7501 113.231 56.08C113.581 56.4098 113.86 56.8076 114.051 57.249C114.241 57.6904 114.34 58.1661 114.34 58.6469Z" fill="#06081C"/>
<path fill-rule="evenodd" clip-rule="evenodd" d="M114.34 58.6469C114.34 59.331 114.141 60.0004 113.767 60.5736C113.394 61.1468 112.862 61.5993 112.236 61.8759C111.61 62.1525 110.918 62.2415 110.242 62.132C109.567 62.0224 108.938 61.7191 108.432 61.2589C108.201 61.7837 107.846 62.2444 107.397 62.6011C106.948 62.9578 106.419 63.1999 105.855 63.3065C105.292 63.413 104.711 63.3808 104.163 63.2126C103.615 63.0443 103.116 62.7452 102.709 62.341C102.303 61.9367 102 61.4396 101.829 60.8924C101.657 60.3453 101.622 59.7646 101.725 59.2006C101.828 58.6366 102.067 58.1061 102.421 57.6551C102.775 57.2041 103.234 56.846 103.757 56.6119C103.715 56.1242 103.775 55.6332 103.933 55.1699C104.091 54.7066 104.343 54.2811 104.674 53.9205C105.005 53.5599 105.407 53.2719 105.855 53.0749C106.303 52.8778 106.787 52.776 107.277 52.7759C108.812 52.7759 110.119 53.7549 110.604 55.1239C111.084 55.096 111.565 55.1664 112.016 55.3308C112.468 55.4952 112.882 55.7501 113.231 56.08C113.581 56.4098 113.86 56.8076 114.051 57.249C114.241 57.6904 114.34 58.1661 114.34 58.6469V58.6469Z" stroke="#6F7CBD"/>
<path fill-rule="evenodd" clip-rule="evenodd" d="M109.61 65.4721C109.154 64.9614 108.856 64.3293 108.753 63.6526C108.65 62.9759 108.746 62.2838 109.028 61.6604C109.311 61.0371 109.769 60.5093 110.346 60.1414C110.924 59.7735 111.595 59.5813 112.28 59.5881C112.102 59.0425 112.06 58.4618 112.158 57.8963C112.255 57.3308 112.488 56.7975 112.838 56.3425C113.187 55.8874 113.642 55.5244 114.164 55.2847C114.685 55.045 115.257 54.9359 115.83 54.9668C116.403 54.9977 116.96 55.1677 117.452 55.4621C117.945 55.7564 118.358 56.1663 118.657 56.6563C118.955 57.1463 119.13 57.7016 119.166 58.2743C119.201 58.847 119.097 59.4197 118.862 59.9431C119.484 60.5331 119.87 61.3292 119.949 62.1831C120.028 63.0369 119.793 63.8902 119.289 64.584C118.786 65.2777 118.047 65.7646 117.21 65.954C116.374 66.1433 115.498 66.0222 114.744 65.6131C114.404 65.9533 113.999 66.2207 113.552 66.3987C113.106 66.5768 112.628 66.6618 112.147 66.6486C111.667 66.6354 111.194 66.5243 110.758 66.322C110.322 66.1197 109.931 65.8305 109.611 65.4721" fill="#DCE2FF"/>
<path fill-rule="evenodd" clip-rule="evenodd" d="M116.702 58.4619C116.346 58.7592 115.934 58.9834 115.492 59.1217C115.049 59.2599 114.583 59.3096 114.121 59.2678C113.659 59.226 113.209 59.0936 112.798 58.8781C112.387 58.6626 112.023 58.3683 111.726 58.0119C111.162 57.3367 110.872 56.4746 110.913 55.5959C110.361 55.7555 109.779 55.7783 109.217 55.6624C108.655 55.5464 108.129 55.2952 107.685 54.9304C107.242 54.5657 106.894 54.0983 106.672 53.5689C106.45 53.0394 106.36 52.4638 106.41 51.8918C106.46 51.3198 106.649 50.7687 106.96 50.2861C107.272 49.8035 107.696 49.4041 108.196 49.1222C108.696 48.8404 109.258 48.6847 109.831 48.6686C110.405 48.6525 110.975 48.7765 111.49 49.0299C112.1 48.4267 112.909 48.0663 113.766 48.0159C114.623 47.9655 115.468 48.2286 116.145 48.756C116.822 49.2834 117.284 50.0392 117.444 50.8822C117.605 51.7251 117.453 52.5977 117.017 53.3369C117.346 53.6878 117.599 54.102 117.762 54.5543C117.925 55.0066 117.994 55.4874 117.964 55.9673C117.935 56.4471 117.808 56.9159 117.59 57.3448C117.373 57.7738 117.071 58.1539 116.702 58.4619Z" fill="#06081C"/>
<path fill-rule="evenodd" clip-rule="evenodd" d="M116.702 58.4619C116.346 58.7592 115.934 58.9834 115.492 59.1217C115.049 59.2599 114.583 59.3096 114.121 59.2678C113.659 59.226 113.209 59.0936 112.798 58.8781C112.387 58.6626 112.023 58.3683 111.726 58.0119C111.162 57.3367 110.872 56.4746 110.913 55.5959C110.361 55.7555 109.779 55.7783 109.217 55.6624C108.655 55.5464 108.129 55.2952 107.685 54.9304C107.242 54.5657 106.894 54.0983 106.672 53.5689C106.45 53.0394 106.36 52.4638 106.41 51.8918C106.46 51.3198 106.649 50.7687 106.96 50.2861C107.272 49.8035 107.696 49.4041 108.196 49.1222C108.696 48.8404 109.258 48.6847 109.831 48.6686C110.405 48.6525 110.975 48.7765 111.49 49.0299C112.1 48.4267 112.909 48.0663 113.766 48.0159C114.623 47.9655 115.468 48.2286 116.145 48.756C116.822 49.2834 117.284 50.0392 117.444 50.8822C117.605 51.7251 117.453 52.5977 117.017 53.3369C117.346 53.6878 117.599 54.102 117.762 54.5543C117.925 55.0066 117.994 55.4874 117.964 55.9673C117.935 56.4471 117.808 56.9159 117.59 57.3448C117.373 57.7738 117.071 58.1539 116.702 58.4619V58.4619Z" stroke="#6F7CBD"/>
<path fill-rule="evenodd" clip-rule="evenodd" d="M113.058 72.5651C112.417 72.3254 111.859 71.9045 111.453 71.3537C111.047 70.803 110.809 70.146 110.77 69.4627C110.73 68.7795 110.89 68.0994 111.229 67.5053C111.569 66.9111 112.074 66.4285 112.683 66.1161C112.272 65.7158 111.964 65.2213 111.787 64.6755C111.61 64.1298 111.568 63.549 111.666 62.9836C111.764 62.4181 111.998 61.8849 112.348 61.4302C112.698 60.9754 113.153 60.6127 113.675 60.3735C114.196 60.1342 114.768 60.0256 115.341 60.0571C115.914 60.0885 116.471 60.259 116.963 60.5539C117.455 60.8488 117.868 61.2591 118.166 61.7494C118.465 62.2398 118.639 62.7953 118.674 63.3681C119.145 63.4999 119.584 63.7283 119.963 64.0386C120.341 64.349 120.651 64.7346 120.873 65.171C121.095 65.6074 121.223 66.0851 121.251 66.5738C121.278 67.0626 121.203 67.5516 121.032 68.0101C120.776 68.6929 120.316 69.2799 119.713 69.6903C119.111 70.1007 118.396 70.3144 117.667 70.3021C117.525 70.7616 117.291 71.1872 116.978 71.5529C116.666 71.9186 116.282 72.2165 115.85 72.4285C115.419 72.6406 114.948 72.7621 114.468 72.7858C113.987 72.8094 113.507 72.7347 113.057 72.5661" fill="#06081C"/>
<path fill-rule="evenodd" clip-rule="evenodd" d="M113.058 72.5651C112.417 72.3254 111.859 71.9045 111.453 71.3537C111.047 70.803 110.809 70.146 110.77 69.4627C110.73 68.7795 110.89 68.0994 111.229 67.5053C111.569 66.9111 112.074 66.4285 112.683 66.1161C112.272 65.7158 111.964 65.2213 111.787 64.6755C111.61 64.1298 111.568 63.549 111.666 62.9836C111.764 62.4181 111.998 61.8849 112.348 61.4302C112.698 60.9754 113.153 60.6127 113.675 60.3735C114.196 60.1342 114.768 60.0256 115.341 60.0571C115.914 60.0885 116.471 60.259 116.963 60.5539C117.455 60.8488 117.868 61.2591 118.166 61.7494C118.465 62.2398 118.639 62.7953 118.674 63.3681C119.145 63.4999 119.584 63.7283 119.963 64.0386C120.341 64.349 120.651 64.7346 120.873 65.171C121.095 65.6074 121.223 66.0851 121.251 66.5738C121.278 67.0626 121.203 67.5516 121.032 68.0101C120.776 68.6929 120.316 69.2799 119.713 69.6903C119.111 70.1007 118.396 70.3144 117.667 70.3021C117.525 70.7616 117.291 71.1872 116.978 71.5529C116.666 71.9186 116.282 72.2165 115.85 72.4285C115.419 72.6406 114.948 72.7621 114.468 72.7858C113.987 72.8094 113.507 72.7347 113.057 72.5661L113.058 72.5651Z" stroke="#6F7CBD"/>
<path fill-rule="evenodd" clip-rule="evenodd" d="M108.325 65.742C108.963 65.4933 109.66 65.4356 110.33 65.5758C111 65.7161 111.615 66.0483 112.1 66.5319C112.585 67.0155 112.918 67.6297 113.06 68.2997C113.202 68.9696 113.146 69.6663 112.899 70.305C113.472 70.33 114.031 70.4942 114.526 70.7835C115.022 71.0728 115.439 71.4784 115.743 71.9652C116.046 72.4521 116.227 73.0056 116.269 73.5778C116.31 74.1501 116.212 74.7238 115.982 75.2496C115.752 75.7753 115.398 76.2372 114.95 76.5952C114.501 76.9533 113.973 77.1968 113.409 77.3046C112.846 77.4125 112.264 77.3815 111.715 77.2143C111.166 77.0471 110.667 76.7487 110.259 76.345C109.488 76.7193 108.608 76.8011 107.782 76.575C106.955 76.3489 106.239 75.8303 105.767 75.1158C105.294 74.4012 105.097 73.5393 105.213 72.6905C105.328 71.8416 105.748 71.0635 106.394 70.501C106.194 70.0636 106.086 69.5901 106.076 69.1094C106.066 68.6288 106.154 68.1511 106.335 67.7056C106.515 67.2602 106.785 66.8563 107.128 66.5189C107.47 66.1814 107.878 65.9174 108.326 65.743" fill="#06081C"/>
<path fill-rule="evenodd" clip-rule="evenodd" d="M108.325 65.742C108.963 65.4933 109.66 65.4356 110.33 65.5758C111 65.7161 111.615 66.0483 112.1 66.5319C112.585 67.0155 112.918 67.6297 113.06 68.2997C113.202 68.9696 113.146 69.6663 112.899 70.305C113.472 70.33 114.031 70.4942 114.526 70.7835C115.022 71.0728 115.439 71.4784 115.743 71.9652C116.046 72.4521 116.227 73.0056 116.269 73.5778C116.31 74.1501 116.212 74.7238 115.982 75.2496C115.752 75.7753 115.398 76.2372 114.95 76.5952C114.501 76.9533 113.973 77.1968 113.409 77.3046C112.846 77.4125 112.264 77.3815 111.715 77.2143C111.166 77.0471 110.667 76.7487 110.259 76.345C109.488 76.7193 108.608 76.8011 107.782 76.575C106.955 76.3489 106.239 75.8303 105.767 75.1158C105.294 74.4012 105.097 73.5393 105.213 72.6905C105.328 71.8416 105.748 71.0635 106.394 70.501C106.194 70.0636 106.086 69.5901 106.076 69.1094C106.066 68.6288 106.154 68.1511 106.335 67.7056C106.515 67.2602 106.785 66.8563 107.128 66.5189C107.47 66.1814 107.878 65.9174 108.326 65.743L108.325 65.742Z" stroke="#6F7CBD"/>
<path fill-rule="evenodd" clip-rule="evenodd" d="M112.403 74.842C112.177 74.1961 112.143 73.4983 112.306 72.8336C112.469 72.1689 112.822 71.5658 113.321 71.0978C113.82 70.6299 114.445 70.3171 115.119 70.1977C115.793 70.0782 116.487 70.1572 117.117 70.425C117.161 69.853 117.344 69.3003 117.65 68.8149C117.956 68.3294 118.376 67.9258 118.873 67.6388C119.369 67.3519 119.929 67.1903 120.502 67.168C121.075 67.1456 121.645 67.2633 122.163 67.5108C122.681 67.7583 123.13 68.1281 123.473 68.5883C123.816 69.0485 124.041 69.5853 124.13 70.1522C124.219 70.719 124.168 71.299 123.982 71.8419C123.796 72.3848 123.481 72.8742 123.064 73.268C123.414 74.051 123.468 74.9347 123.215 75.7543C122.962 76.5739 122.419 77.2734 121.688 77.7222C120.957 78.1711 120.087 78.3386 119.242 78.1936C118.396 78.0485 117.633 77.6008 117.093 76.934C116.649 77.1189 116.172 77.2112 115.691 77.2052C115.211 77.1992 114.736 77.095 114.297 76.8992C113.858 76.7033 113.463 76.4198 113.138 76.0661C112.812 75.7123 112.562 75.2958 112.403 74.842Z" fill="#06081C"/>
<path fill-rule="evenodd" clip-rule="evenodd" d="M112.403 74.842C112.177 74.1961 112.143 73.4983 112.306 72.8336C112.469 72.1689 112.822 71.5658 113.321 71.0978C113.82 70.6299 114.445 70.3171 115.119 70.1977C115.793 70.0782 116.487 70.1572 117.117 70.425C117.161 69.853 117.344 69.3003 117.65 68.8149C117.956 68.3294 118.376 67.9258 118.873 67.6388C119.369 67.3519 119.929 67.1903 120.502 67.168C121.075 67.1456 121.645 67.2633 122.163 67.5108C122.681 67.7583 123.13 68.1281 123.473 68.5883C123.816 69.0485 124.041 69.5853 124.13 70.1522C124.219 70.719 124.168 71.299 123.982 71.8419C123.796 72.3848 123.481 72.8742 123.064 73.268C123.414 74.051 123.468 74.9347 123.215 75.7543C122.962 76.5739 122.419 77.2734 121.688 77.7222C120.957 78.1711 120.087 78.3386 119.242 78.1936C118.396 78.0485 117.633 77.6008 117.093 76.934C116.649 77.1189 116.172 77.2112 115.691 77.2052C115.211 77.1992 114.736 77.095 114.297 76.8992C113.858 76.7033 113.463 76.4198 113.138 76.0661C112.812 75.7123 112.562 75.2958 112.403 74.842Z" stroke="#6F7CBD"/>
<path fill-rule="evenodd" clip-rule="evenodd" d="M125.9 53.5971C125.347 54.0007 124.689 54.2351 124.006 54.2718C123.323 54.3085 122.644 54.1459 122.051 53.8037C121.458 53.4616 120.978 52.9547 120.668 52.3446C120.358 51.7344 120.232 51.0474 120.305 50.3671C119.744 50.4911 119.162 50.4767 118.608 50.325C118.054 50.1734 117.546 49.8891 117.127 49.4968C116.708 49.1044 116.39 48.6159 116.202 48.0733C116.014 47.5308 115.961 46.9506 116.048 46.383C116.135 45.8155 116.358 45.2775 116.7 44.8158C117.041 44.3541 117.49 43.9825 118.007 43.7331C118.524 43.4838 119.094 43.3642 119.668 43.3848C120.242 43.4053 120.802 43.5654 121.3 43.8511C121.948 43.2916 122.777 42.9864 123.633 42.9923C124.49 42.9981 125.315 43.3146 125.955 43.8829C126.595 44.4512 127.008 45.2326 127.115 46.082C127.223 46.9314 127.018 47.791 126.54 48.5011C126.846 48.8722 127.072 49.3018 127.206 49.7636C127.34 50.2254 127.378 50.7097 127.318 51.1867C127.258 51.6638 127.101 52.1235 126.857 52.5378C126.613 52.9521 126.287 53.3122 125.899 53.5961" fill="#06081C"/>
<path fill-rule="evenodd" clip-rule="evenodd" d="M125.9 53.5971C125.347 54.0007 124.689 54.2351 124.006 54.2718C123.323 54.3085 122.644 54.1459 122.051 53.8037C121.458 53.4616 120.978 52.9547 120.668 52.3446C120.358 51.7344 120.232 51.0474 120.305 50.3671C119.744 50.4911 119.162 50.4767 118.608 50.325C118.054 50.1734 117.546 49.8891 117.127 49.4968C116.708 49.1044 116.39 48.6159 116.202 48.0733C116.014 47.5308 115.961 46.9506 116.048 46.383C116.135 45.8155 116.358 45.2775 116.7 44.8158C117.041 44.3541 117.49 43.9825 118.007 43.7331C118.524 43.4838 119.094 43.3642 119.668 43.3848C120.242 43.4053 120.802 43.5654 121.3 43.8511C121.948 43.2916 122.777 42.9864 123.633 42.9923C124.49 42.9981 125.315 43.3146 125.955 43.8829C126.595 44.4512 127.008 45.2326 127.115 46.082C127.223 46.9314 127.018 47.791 126.54 48.5011C126.846 48.8722 127.072 49.3018 127.206 49.7636C127.34 50.2254 127.378 50.7097 127.318 51.1867C127.258 51.6638 127.101 52.1235 126.857 52.5378C126.613 52.9521 126.287 53.3122 125.899 53.5961L125.9 53.5971Z" stroke="#6F7CBD"/>
<path fill-rule="evenodd" clip-rule="evenodd" d="M117.6 53.8029C117.744 53.1338 118.078 52.5209 118.564 52.0386C119.049 51.5563 119.664 51.2254 120.334 51.0862C121.004 50.9469 121.7 51.0052 122.338 51.254C122.975 51.5029 123.527 51.9315 123.925 52.4879C124.261 52.022 124.705 51.645 125.219 51.3894C125.733 51.1337 126.302 51.0072 126.876 51.0208C127.45 51.0344 128.012 51.1877 128.513 51.4673C129.015 51.747 129.441 52.1446 129.754 52.6258C130.067 53.107 130.258 53.6573 130.311 54.2291C130.364 54.8008 130.277 55.3768 130.057 55.9073C129.837 56.4377 129.491 56.9065 129.049 57.2732C128.607 57.6399 128.083 57.8935 127.521 58.0119C127.411 58.8618 126.996 59.6429 126.353 60.2097C125.71 60.7764 124.883 61.0902 124.026 61.0927C123.169 61.0951 122.34 60.786 121.694 60.223C121.048 59.6599 120.629 58.8812 120.514 58.0319C120.039 57.9586 119.584 57.7891 119.176 57.5336C118.769 57.2782 118.418 56.9422 118.145 56.5463C117.872 56.1504 117.683 55.703 117.589 55.2314C117.496 54.7598 117.499 54.274 117.6 53.8039" fill="#06081C"/>
<path fill-rule="evenodd" clip-rule="evenodd" d="M117.6 53.8029C117.744 53.1338 118.078 52.5209 118.564 52.0386C119.049 51.5563 119.664 51.2254 120.334 51.0862C121.004 50.9469 121.7 51.0052 122.338 51.254C122.975 51.5029 123.527 51.9315 123.925 52.4879C124.261 52.022 124.705 51.645 125.219 51.3894C125.733 51.1337 126.302 51.0072 126.876 51.0208C127.45 51.0344 128.012 51.1877 128.513 51.4673C129.015 51.747 129.441 52.1446 129.754 52.6258C130.067 53.107 130.258 53.6573 130.311 54.2291C130.364 54.8008 130.277 55.3768 130.057 55.9073C129.837 56.4377 129.491 56.9065 129.049 57.2732C128.607 57.6399 128.083 57.8935 127.521 58.0119C127.411 58.8618 126.996 59.6429 126.353 60.2097C125.71 60.7764 124.883 61.0902 124.026 61.0927C123.169 61.0951 122.34 60.786 121.694 60.223C121.048 59.6599 120.629 58.8812 120.514 58.0319C120.039 57.9586 119.584 57.7891 119.176 57.5336C118.769 57.2782 118.418 56.9422 118.145 56.5463C117.872 56.1504 117.683 55.703 117.589 55.2314C117.496 54.7598 117.499 54.274 117.6 53.8039V53.8029Z" stroke="#6F7CBD"/>
<path fill-rule="evenodd" clip-rule="evenodd" d="M127.442 55.395C126.778 55.2288 126.177 54.8733 125.711 54.3718C125.246 53.8703 124.936 53.2444 124.819 52.5701C124.703 51.8958 124.785 51.2022 125.055 50.5735C125.325 49.9449 125.772 49.4083 126.342 49.029C125.888 48.6778 125.526 48.2212 125.288 47.6987C125.049 47.1763 124.942 46.6037 124.975 46.0304C125.008 45.4572 125.18 44.9006 125.477 44.4088C125.773 43.917 126.185 43.5049 126.676 43.208C127.168 42.9111 127.724 42.7385 128.297 42.705C128.87 42.6715 129.443 42.7782 129.966 43.0158C130.489 43.2534 130.946 43.6148 131.297 44.0688C131.649 44.5227 131.884 45.0554 131.984 45.621C132.83 45.7584 133.598 46.1992 134.144 46.861C134.689 47.5228 134.975 48.3604 134.949 49.2177C134.922 50.075 134.585 50.8933 133.999 51.52C133.414 52.1468 132.62 52.5392 131.767 52.624C131.677 53.0964 131.492 53.5456 131.223 53.9441C130.954 54.3426 130.606 54.6819 130.201 54.9412C129.797 55.2005 129.343 55.3745 128.868 55.4523C128.394 55.5302 127.908 55.5103 127.442 55.394" fill="#6565B7"/>
<path fill-rule="evenodd" clip-rule="evenodd" d="M130.278 69.87C129.725 70.2736 129.067 70.508 128.384 70.5447C127.701 70.5814 127.021 70.4188 126.429 70.0767C125.836 69.7345 125.356 69.2276 125.046 68.6175C124.736 68.0074 124.61 67.3204 124.683 66.64C124.122 66.764 123.54 66.7496 122.986 66.598C122.432 66.4463 121.924 66.1621 121.505 65.7697C121.085 65.3774 120.768 64.8888 120.58 64.3463C120.392 63.8037 120.339 63.2236 120.426 62.656C120.513 62.0884 120.736 61.5505 121.078 61.0888C121.419 60.627 121.868 60.2554 122.385 60.0061C122.902 59.7567 123.472 59.6372 124.046 59.6577C124.62 59.6783 125.18 59.8383 125.678 60.124C126.326 59.5645 127.155 59.2594 128.011 59.2652C128.868 59.2711 129.693 59.5876 130.333 60.1558C130.973 60.7241 131.386 61.5056 131.493 62.355C131.601 63.2044 131.396 64.064 130.918 64.774C131.224 65.1451 131.451 65.5747 131.585 66.0366C131.719 66.4985 131.757 66.9829 131.697 67.46C131.637 67.9372 131.48 68.3971 131.236 68.8115C130.992 69.2259 130.666 69.5861 130.278 69.87Z" fill="#06081C"/>
<path fill-rule="evenodd" clip-rule="evenodd" d="M130.278 69.87C129.725 70.2736 129.067 70.508 128.384 70.5447C127.701 70.5814 127.021 70.4188 126.429 70.0767C125.836 69.7345 125.356 69.2276 125.046 68.6175C124.736 68.0074 124.61 67.3204 124.683 66.64C124.122 66.764 123.54 66.7496 122.986 66.598C122.432 66.4463 121.924 66.1621 121.505 65.7697C121.085 65.3774 120.768 64.8888 120.58 64.3463C120.392 63.8037 120.339 63.2236 120.426 62.656C120.513 62.0884 120.736 61.5505 121.078 61.0888C121.419 60.627 121.868 60.2554 122.385 60.0061C122.902 59.7567 123.472 59.6372 124.046 59.6577C124.62 59.6783 125.18 59.8383 125.678 60.124C126.326 59.5645 127.155 59.2594 128.011 59.2652C128.868 59.2711 129.693 59.5876 130.333 60.1558C130.973 60.7241 131.386 61.5056 131.493 62.355C131.601 63.2044 131.396 64.064 130.918 64.774C131.224 65.1451 131.451 65.5747 131.585 66.0366C131.719 66.4985 131.757 66.9829 131.697 67.46C131.637 67.9372 131.48 68.3971 131.236 68.8115C130.992 69.2259 130.666 69.5861 130.278 69.87V69.87Z" stroke="#6F7CBD"/>
<path fill-rule="evenodd" clip-rule="evenodd" d="M121.977 70.076C122.12 69.4064 122.454 68.7928 122.94 68.3099C123.425 67.827 124.04 67.4957 124.711 67.3564C125.381 67.217 126.077 67.2756 126.715 67.525C127.353 67.7744 127.904 68.2038 128.302 68.761C128.638 68.2951 129.082 67.9181 129.596 67.6625C130.11 67.4068 130.679 67.2804 131.253 67.2939C131.827 67.3075 132.389 67.4608 132.89 67.7404C133.392 68.0201 133.818 68.4177 134.131 68.8989C134.444 69.3801 134.635 69.9304 134.688 70.5022C134.741 71.074 134.654 71.65 134.434 72.1804C134.214 72.7108 133.868 73.1796 133.426 73.5463C132.984 73.9131 132.46 74.1666 131.898 74.285C131.788 75.135 131.373 75.916 130.73 76.4828C130.087 77.0495 129.26 77.3633 128.403 77.3658C127.546 77.3682 126.717 77.0591 126.071 76.4961C125.425 75.933 125.006 75.1543 124.891 74.305C124.823 74.2959 124.756 74.2843 124.689 74.27C123.773 74.0734 122.973 73.5211 122.465 72.7346C121.956 71.9481 121.781 70.9918 121.977 70.076Z" fill="#06081C"/>
<path fill-rule="evenodd" clip-rule="evenodd" d="M121.977 70.076C122.12 69.4064 122.454 68.7928 122.94 68.3099C123.425 67.827 124.04 67.4957 124.711 67.3564C125.381 67.217 126.077 67.2756 126.715 67.525C127.353 67.7744 127.904 68.2038 128.302 68.761C128.638 68.2951 129.082 67.9181 129.596 67.6625C130.11 67.4068 130.679 67.2804 131.253 67.2939C131.827 67.3075 132.389 67.4608 132.89 67.7404C133.392 68.0201 133.818 68.4177 134.131 68.8989C134.444 69.3801 134.635 69.9304 134.688 70.5022C134.741 71.074 134.654 71.65 134.434 72.1804C134.214 72.7108 133.868 73.1796 133.426 73.5463C132.984 73.9131 132.46 74.1666 131.898 74.285C131.788 75.135 131.373 75.916 130.73 76.4828C130.087 77.0495 129.26 77.3633 128.403 77.3658C127.546 77.3682 126.717 77.0591 126.071 76.4961C125.425 75.933 125.006 75.1543 124.891 74.305C124.823 74.2959 124.756 74.2843 124.689 74.27C123.773 74.0734 122.973 73.5211 122.465 72.7346C121.956 71.9481 121.781 70.9918 121.977 70.076V70.076Z" stroke="#6F7CBD"/>
<path fill-rule="evenodd" clip-rule="evenodd" d="M131.82 71.6681C131.156 71.5023 130.554 71.147 130.088 70.6455C129.622 70.144 129.312 69.518 129.196 68.8435C129.079 68.169 129.161 67.4751 129.432 66.8464C129.702 66.2177 130.15 65.6811 130.72 65.3021C130.265 64.951 129.903 64.4945 129.665 63.972C129.427 63.4495 129.319 62.8768 129.352 62.3035C129.385 61.7302 129.557 61.1734 129.853 60.6815C130.149 60.1896 130.561 59.7773 131.053 59.4804C131.544 59.1834 132.101 59.0107 132.674 58.9772C133.247 58.9437 133.82 59.0504 134.343 59.2882C134.866 59.5259 135.323 59.8874 135.674 60.3415C136.026 60.7955 136.262 61.3284 136.361 61.8941C136.844 61.9717 137.306 62.149 137.718 62.4145C138.129 62.6801 138.48 63.0282 138.75 63.4368C139.02 63.8454 139.201 64.3056 139.284 64.7881C139.366 65.2707 139.348 65.7651 139.229 66.2401C139.052 66.9475 138.661 67.5829 138.108 68.0589C137.556 68.5349 136.87 68.828 136.144 68.8981C136.055 69.3706 135.87 69.8199 135.601 70.2184C135.332 70.6169 134.984 70.9563 134.579 71.2156C134.174 71.475 133.721 71.6489 133.246 71.7267C132.772 71.8045 132.286 71.7846 131.82 71.6681Z" fill="#FF6E61"/>
<path fill-rule="evenodd" clip-rule="evenodd" d="M138.193 54.166C138.202 53.4817 138.411 52.8148 138.792 52.2465C139.173 51.6782 139.712 51.233 140.342 50.965C140.971 50.697 141.665 50.6177 142.339 50.7369C143.013 50.856 143.638 51.1684 144.138 51.636C144.376 51.1139 144.738 50.6577 145.192 50.3067C145.646 49.9558 146.178 49.7207 146.743 49.6217C147.309 49.5228 147.889 49.5631 148.436 49.739C148.982 49.9149 149.477 50.2212 149.878 50.6314C150.279 51.0416 150.575 51.5434 150.739 52.0933C150.902 52.6432 150.93 53.2248 150.818 53.7877C150.707 54.3506 150.46 54.8779 150.099 55.324C149.738 55.7701 149.274 56.1215 148.747 56.348C148.805 57.2028 148.551 58.0497 148.032 58.7312C147.512 59.4126 146.763 59.8821 145.923 60.0523C145.084 60.2225 144.211 60.0818 143.467 59.6565C142.723 59.2312 142.159 58.5501 141.88 57.74C141.812 57.7449 141.743 57.7469 141.675 57.746C141.211 57.7396 140.753 57.642 140.327 57.4586C139.901 57.2752 139.516 57.0097 139.192 56.6773C138.869 56.3448 138.614 55.9519 138.443 55.5211C138.271 55.0902 138.186 54.6297 138.193 54.166Z" fill="#06081C"/>
<path fill-rule="evenodd" clip-rule="evenodd" d="M138.193 54.166C138.202 53.4817 138.411 52.8148 138.792 52.2465C139.173 51.6782 139.712 51.233 140.342 50.965C140.971 50.697 141.665 50.6177 142.339 50.7369C143.013 50.856 143.638 51.1684 144.138 51.636C144.376 51.1139 144.738 50.6577 145.192 50.3067C145.646 49.9558 146.178 49.7207 146.743 49.6217C147.309 49.5228 147.889 49.5631 148.436 49.739C148.982 49.9149 149.477 50.2212 149.878 50.6314C150.279 51.0416 150.575 51.5434 150.739 52.0933C150.902 52.6432 150.93 53.2248 150.818 53.7877C150.707 54.3506 150.46 54.8779 150.099 55.324C149.738 55.7701 149.274 56.1215 148.747 56.348C148.805 57.2028 148.551 58.0497 148.032 58.7312C147.512 59.4126 146.763 59.8821 145.923 60.0523C145.084 60.2225 144.211 60.0818 143.467 59.6565C142.723 59.2312 142.159 58.5501 141.88 57.74C141.812 57.7449 141.743 57.7469 141.675 57.746C141.211 57.7396 140.753 57.642 140.327 57.4586C139.901 57.2752 139.516 57.0097 139.192 56.6773C138.869 56.3448 138.614 55.9519 138.443 55.5211C138.271 55.0902 138.186 54.6297 138.193 54.166V54.166Z" stroke="#6F7CBD"/>
<path fill-rule="evenodd" clip-rule="evenodd" d="M143.019 47.4078C143.467 47.9248 143.756 48.5608 143.849 49.2386C143.943 49.9164 143.838 50.6068 143.546 51.2259C143.255 51.845 142.79 52.3661 142.208 52.726C141.626 53.0858 140.952 53.2688 140.268 53.2528C140.438 53.8009 140.472 54.3821 140.367 54.9463C140.262 55.5104 140.021 56.0405 139.665 56.4906C139.309 56.9408 138.849 57.2975 138.325 57.5299C137.8 57.7623 137.226 57.8635 136.654 57.8245C136.081 57.7856 135.527 57.6078 135.039 57.3066C134.55 57.0053 134.143 56.5896 133.851 56.0954C133.559 55.6012 133.392 55.0435 133.365 54.4703C133.337 53.8971 133.449 53.3259 133.692 52.8058C133.341 52.4649 133.064 52.0547 132.88 51.6012C132.695 51.1477 132.607 50.6608 132.621 50.1715C132.634 49.6821 132.749 49.2009 132.959 48.7584C133.168 48.3159 133.467 47.9217 133.837 47.6008C134.388 47.1232 135.073 46.8277 135.798 46.755C136.523 46.6823 137.253 46.8359 137.888 47.1948C138.232 46.8592 138.641 46.5974 139.09 46.4255C139.539 46.2536 140.019 46.1752 140.499 46.1952C140.979 46.2151 141.45 46.333 141.884 46.5415C142.317 46.75 142.703 47.0448 143.018 47.4078" fill="#06081C"/>
<path fill-rule="evenodd" clip-rule="evenodd" d="M143.019 47.4078C143.467 47.9248 143.756 48.5608 143.849 49.2386C143.943 49.9164 143.838 50.6068 143.546 51.2259C143.255 51.845 142.79 52.3661 142.208 52.726C141.626 53.0858 140.952 53.2688 140.268 53.2528C140.438 53.8009 140.472 54.3821 140.367 54.9463C140.262 55.5104 140.021 56.0405 139.665 56.4906C139.309 56.9408 138.849 57.2975 138.325 57.5299C137.8 57.7623 137.226 57.8635 136.654 57.8245C136.081 57.7856 135.527 57.6078 135.039 57.3066C134.55 57.0053 134.143 56.5896 133.851 56.0954C133.559 55.6012 133.392 55.0435 133.365 54.4703C133.337 53.8971 133.449 53.3259 133.692 52.8058C133.341 52.4649 133.064 52.0547 132.88 51.6012C132.695 51.1477 132.607 50.6608 132.621 50.1715C132.634 49.6821 132.749 49.2009 132.959 48.7584C133.168 48.3159 133.467 47.9217 133.837 47.6008C134.388 47.1232 135.073 46.8277 135.798 46.755C136.523 46.6823 137.253 46.8359 137.888 47.1948C138.232 46.8592 138.641 46.5974 139.09 46.4255C139.539 46.2536 140.019 46.1752 140.499 46.1952C140.979 46.2151 141.45 46.333 141.884 46.5415C142.317 46.75 142.703 47.0448 143.018 47.4078H143.019Z" stroke="#6F7CBD"/>
<path fill-rule="evenodd" clip-rule="evenodd" d="M128.164 53.2221C128.696 52.7911 129.341 52.5239 130.022 52.4531C130.703 52.3822 131.39 52.5107 131.999 52.8229C132.608 53.1351 133.113 53.6175 133.453 54.2116C133.793 54.8057 133.953 55.4857 133.914 56.1691C134.467 56.0176 135.05 56.0033 135.61 56.1273C136.17 56.2513 136.692 56.5099 137.13 56.8808C137.568 57.2517 137.909 57.7236 138.123 58.2559C138.338 58.7881 138.419 59.3646 138.361 59.9354C138.303 60.5063 138.106 61.0544 137.789 61.5323C137.471 62.0103 137.042 62.4036 136.538 62.6784C136.034 62.9532 135.471 63.1012 134.897 63.1095C134.324 63.1178 133.756 62.9862 133.245 62.7261C132.626 63.3199 131.813 63.6683 130.956 63.7065C130.099 63.7446 129.258 63.4698 128.589 62.9333C127.919 62.3967 127.468 61.6352 127.319 60.7906C127.17 59.946 127.334 59.0761 127.779 58.3431C127.455 57.9877 127.207 57.5699 127.05 57.1153C126.893 56.6607 126.831 56.1788 126.867 55.6993C126.904 55.2198 127.037 54.7527 127.26 54.3267C127.484 53.9007 127.791 53.5248 128.165 53.2221" fill="#06081C"/>
<path fill-rule="evenodd" clip-rule="evenodd" d="M128.164 53.2221C128.696 52.7911 129.341 52.5239 130.022 52.4531C130.703 52.3822 131.39 52.5107 131.999 52.8229C132.608 53.1351 133.113 53.6175 133.453 54.2116C133.793 54.8057 133.953 55.4857 133.914 56.1691C134.467 56.0176 135.05 56.0033 135.61 56.1273C136.17 56.2513 136.692 56.5099 137.13 56.8808C137.568 57.2517 137.909 57.7236 138.123 58.2559C138.338 58.7881 138.419 59.3646 138.361 59.9354C138.303 60.5063 138.106 61.0544 137.789 61.5323C137.471 62.0103 137.042 62.4036 136.538 62.6784C136.034 62.9532 135.471 63.1012 134.897 63.1095C134.324 63.1178 133.756 62.9862 133.245 62.7261C132.626 63.3199 131.813 63.6683 130.956 63.7065C130.099 63.7446 129.258 63.4698 128.589 62.9333C127.919 62.3967 127.468 61.6352 127.319 60.7906C127.17 59.946 127.334 59.0761 127.779 58.3431C127.455 57.9877 127.207 57.5699 127.05 57.1153C126.893 56.6607 126.831 56.1788 126.867 55.6993C126.904 55.2198 127.037 54.7527 127.26 54.3267C127.484 53.9007 127.791 53.5248 128.165 53.2221H128.164Z" stroke="#6F7CBD"/>
<path fill-rule="evenodd" clip-rule="evenodd" d="M136.01 72.517C136.542 72.086 137.187 71.8189 137.868 71.748C138.549 71.6771 139.236 71.8056 139.845 72.1178C140.454 72.43 140.959 72.9125 141.299 73.5065C141.639 74.1006 141.799 74.7806 141.76 75.464C142.313 75.3131 142.895 75.2991 143.455 75.4234C144.015 75.5476 144.536 75.8063 144.973 76.1771C145.411 76.5478 145.751 77.0196 145.966 77.5515C146.18 78.0834 146.261 78.6595 146.203 79.23C146.145 79.8005 145.949 80.3482 145.632 80.8259C145.314 81.3036 144.885 81.6968 144.382 81.9716C143.879 82.2464 143.316 82.3945 142.743 82.4031C142.169 82.4117 141.602 82.2806 141.091 82.021C140.472 82.6148 139.658 82.9633 138.802 83.0014C137.945 83.0395 137.104 82.7647 136.435 82.2282C135.765 81.6917 135.314 80.9301 135.165 80.0855C135.016 79.241 135.18 78.371 135.625 77.638C135.301 77.2827 135.053 76.8649 134.896 76.4102C134.739 75.9556 134.677 75.4738 134.713 74.9942C134.75 74.5147 134.883 74.0476 135.106 73.6216C135.33 73.1957 135.637 72.8198 136.011 72.517" fill="#06081C"/>
<path fill-rule="evenodd" clip-rule="evenodd" d="M136.01 72.517C136.542 72.086 137.187 71.8189 137.868 71.748C138.549 71.6771 139.236 71.8056 139.845 72.1178C140.454 72.43 140.959 72.9125 141.299 73.5065C141.639 74.1006 141.799 74.7806 141.76 75.464C142.313 75.3131 142.895 75.2991 143.455 75.4234C144.015 75.5476 144.536 75.8063 144.973 76.1771C145.411 76.5478 145.751 77.0196 145.966 77.5515C146.18 78.0834 146.261 78.6595 146.203 79.23C146.145 79.8005 145.949 80.3482 145.632 80.8259C145.314 81.3036 144.885 81.6968 144.382 81.9716C143.879 82.2464 143.316 82.3945 142.743 82.4031C142.169 82.4117 141.602 82.2806 141.091 82.021C140.472 82.6148 139.658 82.9633 138.802 83.0014C137.945 83.0395 137.104 82.7647 136.435 82.2282C135.765 81.6917 135.314 80.9301 135.165 80.0855C135.016 79.241 135.18 78.371 135.625 77.638C135.301 77.2827 135.053 76.8649 134.896 76.4102C134.739 75.9556 134.677 75.4738 134.713 74.9942C134.75 74.5147 134.883 74.0476 135.106 73.6216C135.33 73.1957 135.637 72.8198 136.011 72.517H136.01Z" stroke="#6F7CBD"/>
<path fill-rule="evenodd" clip-rule="evenodd" d="M134.325 78.7281C134.012 79.3366 133.528 79.841 132.933 80.1798C132.338 80.5186 131.658 80.6773 130.975 80.6365C130.291 80.5957 129.635 80.3572 129.084 79.9501C128.534 79.5429 128.114 78.9846 127.875 78.3431C127.429 78.7044 126.902 78.9517 126.339 79.0637C125.777 79.1756 125.195 79.1487 124.645 78.9854C124.095 78.8221 123.593 78.5272 123.182 78.1263C122.771 77.7254 122.465 77.2305 122.288 76.6845C122.112 76.1384 122.071 75.5576 122.17 74.9923C122.268 74.427 122.503 73.8941 122.853 73.4399C123.204 72.9856 123.66 72.6236 124.182 72.3851C124.704 72.1466 125.276 72.0388 125.849 72.0711C126.178 71.2806 126.783 70.6364 127.552 70.2584C128.32 69.8804 129.199 69.7943 130.027 70.016C130.854 70.2378 131.572 70.7523 132.048 71.4639C132.525 72.1755 132.726 73.0359 132.616 73.8851C132.68 73.9101 132.741 73.9391 132.803 73.9711C133.215 74.1834 133.582 74.4749 133.881 74.8289C134.181 75.183 134.408 75.5925 134.549 76.0343C134.691 76.476 134.744 76.9413 134.705 77.4035C134.667 77.8657 134.538 78.3158 134.325 78.7281Z" fill="#06081C"/>
<path fill-rule="evenodd" clip-rule="evenodd" d="M134.325 78.7281C134.012 79.3366 133.528 79.841 132.933 80.1798C132.338 80.5186 131.658 80.6773 130.975 80.6365C130.291 80.5957 129.635 80.3572 129.084 79.9501C128.534 79.5429 128.114 78.9846 127.875 78.3431C127.429 78.7044 126.902 78.9517 126.339 79.0637C125.777 79.1756 125.195 79.1487 124.645 78.9854C124.095 78.8221 123.593 78.5272 123.182 78.1263C122.771 77.7254 122.465 77.2305 122.288 76.6845C122.112 76.1384 122.071 75.5576 122.17 74.9923C122.268 74.427 122.503 73.8941 122.853 73.4399C123.204 72.9856 123.66 72.6236 124.182 72.3851C124.704 72.1466 125.276 72.0388 125.849 72.0711C126.178 71.2806 126.783 70.6364 127.552 70.2584C128.32 69.8804 129.199 69.7943 130.027 70.016C130.854 70.2378 131.572 70.7523 132.048 71.4639C132.525 72.1755 132.726 73.0359 132.616 73.8851C132.68 73.9101 132.741 73.9391 132.803 73.9711C133.215 74.1834 133.582 74.4749 133.881 74.8289C134.181 75.1829 134.408 75.5925 134.549 76.0343C134.691 76.476 134.744 76.9413 134.705 77.4035C134.667 77.8657 134.538 78.3158 134.325 78.7281V78.7281Z" stroke="#6F7CBD"/>
<path fill-rule="evenodd" clip-rule="evenodd" d="M139.336 73.335C139.346 72.6508 139.554 71.9842 139.935 71.4161C140.317 70.848 140.855 70.4029 141.484 70.135C142.114 69.867 142.808 69.7876 143.482 69.9066C144.155 70.0255 144.78 70.3376 145.28 70.805C145.518 70.2824 145.879 69.8256 146.333 69.4741C146.788 69.1227 147.32 68.8872 147.886 68.788C148.451 68.6888 149.033 68.7289 149.579 68.9048C150.126 69.0808 150.621 69.3872 151.023 69.7977C151.424 70.2082 151.72 70.7103 151.884 71.2606C152.047 71.811 152.075 72.3929 151.963 72.9562C151.851 73.5194 151.604 74.0469 151.243 74.4931C150.881 74.9393 150.417 75.2907 149.889 75.517C149.924 76.0053 149.857 76.4956 149.693 76.9567C149.529 77.4179 149.27 77.8399 148.934 78.1959C148.598 78.552 148.192 78.8343 147.741 79.025C147.29 79.2158 146.804 79.3108 146.315 79.304C145.586 79.2939 144.878 79.0583 144.289 78.6296C143.699 78.2009 143.257 77.6002 143.023 76.91C142.954 76.9142 142.886 76.9159 142.817 76.915C141.881 76.9015 140.988 76.5169 140.335 75.8456C139.683 75.1743 139.323 74.2712 139.336 73.335Z" fill="#06081C"/>
<path fill-rule="evenodd" clip-rule="evenodd" d="M139.336 73.335C139.346 72.6508 139.554 71.9842 139.935 71.4161C140.317 70.848 140.855 70.4029 141.484 70.135C142.114 69.867 142.808 69.7876 143.482 69.9066C144.155 70.0255 144.78 70.3376 145.28 70.805C145.518 70.2824 145.879 69.8256 146.333 69.4741C146.788 69.1227 147.32 68.8872 147.886 68.788C148.451 68.6888 149.033 68.7289 149.579 68.9048C150.126 69.0808 150.621 69.3872 151.023 69.7977C151.424 70.2082 151.72 70.7103 151.884 71.2606C152.047 71.811 152.075 72.3929 151.963 72.9562C151.851 73.5194 151.604 74.0469 151.243 74.4931C150.881 74.9393 150.417 75.2907 149.889 75.517C149.924 76.0053 149.857 76.4956 149.693 76.9567C149.529 77.4179 149.27 77.8399 148.934 78.1959C148.598 78.552 148.192 78.8343 147.741 79.025C147.29 79.2158 146.804 79.3108 146.315 79.304C145.586 79.2939 144.878 79.0583 144.289 78.6296C143.699 78.2009 143.257 77.6002 143.023 76.91C142.954 76.9142 142.886 76.9159 142.817 76.915C141.881 76.9015 140.988 76.5169 140.335 75.8456C139.683 75.1743 139.323 74.2712 139.336 73.335Z" stroke="#6F7CBD"/>
<path fill-rule="evenodd" clip-rule="evenodd" d="M135.982 61.6441C135.991 60.9597 136.2 60.2928 136.581 59.7245C136.962 59.1563 137.501 58.711 138.13 58.443C138.76 58.175 139.454 58.0958 140.128 58.2149C140.802 58.334 141.427 58.6464 141.927 59.1141C142.165 58.5914 142.526 58.1347 142.98 57.7832C143.435 57.4318 143.967 57.1963 144.533 57.0971C145.098 56.9979 145.68 57.038 146.226 57.2139C146.773 57.3899 147.268 57.6963 147.67 58.1068C148.071 58.5173 148.367 59.0194 148.531 59.5697C148.694 60.12 148.722 60.702 148.61 61.2652C148.498 61.8285 148.251 62.356 147.89 62.8022C147.528 63.2484 147.064 63.5998 146.536 63.8261C146.571 64.3144 146.504 64.8046 146.34 65.2658C146.176 65.727 145.917 66.1489 145.581 66.505C145.245 66.861 144.839 67.1434 144.388 67.3341C143.937 67.5249 143.451 67.6199 142.962 67.6131C142.233 67.6031 141.525 67.3675 140.935 66.9386C140.345 66.5097 139.903 65.9086 139.669 65.2181C139.601 65.2226 139.532 65.2246 139.464 65.2241C138.527 65.2109 137.635 64.8264 136.982 64.155C136.329 63.4837 135.969 62.5805 135.982 61.6441Z" fill="#06081C"/>
<path fill-rule="evenodd" clip-rule="evenodd" d="M135.982 61.6441C135.991 60.9597 136.2 60.2928 136.581 59.7245C136.962 59.1563 137.501 58.711 138.13 58.443C138.76 58.175 139.454 58.0958 140.128 58.2149C140.802 58.334 141.427 58.6464 141.927 59.1141C142.165 58.5914 142.526 58.1347 142.98 57.7832C143.435 57.4318 143.967 57.1963 144.533 57.0971C145.098 56.9979 145.68 57.038 146.226 57.2139C146.773 57.3899 147.268 57.6963 147.67 58.1068C148.071 58.5173 148.367 59.0194 148.531 59.5697C148.694 60.12 148.722 60.702 148.61 61.2652C148.498 61.8285 148.251 62.356 147.89 62.8022C147.528 63.2484 147.064 63.5998 146.536 63.8261C146.571 64.3144 146.504 64.8046 146.34 65.2658C146.176 65.727 145.917 66.1489 145.581 66.505C145.245 66.861 144.839 67.1434 144.388 67.3341C143.937 67.5249 143.451 67.6199 142.962 67.6131C142.233 67.6031 141.525 67.3675 140.935 66.9386C140.345 66.5097 139.903 65.9086 139.669 65.2181C139.601 65.2226 139.532 65.2246 139.464 65.2241C138.527 65.2109 137.635 64.8264 136.982 64.155C136.329 63.4837 135.969 62.5805 135.982 61.6441V61.6441Z" stroke="#6F7CBD"/>
<path fill-rule="evenodd" clip-rule="evenodd" d="M132.989 69.1939C132.999 68.5097 133.207 67.8431 133.588 67.275C133.97 66.7069 134.508 66.2618 135.137 65.9938C135.767 65.7259 136.461 65.6465 137.135 65.7655C137.808 65.8844 138.433 66.1965 138.933 66.6639C139.171 66.1413 139.532 65.6845 139.987 65.333C140.441 64.9816 140.973 64.7461 141.539 64.6469C142.105 64.5477 142.686 64.5878 143.232 64.7637C143.779 64.9397 144.274 65.2461 144.676 65.6566C145.077 66.0671 145.373 66.5692 145.537 67.1195C145.7 67.6699 145.728 68.2518 145.616 68.815C145.504 69.3783 145.257 69.9058 144.896 70.352C144.534 70.7982 144.07 71.1496 143.542 71.3759C143.577 71.8642 143.51 72.3545 143.346 72.8156C143.182 73.2768 142.923 73.6988 142.587 74.0548C142.251 74.4108 141.845 74.6932 141.394 74.8839C140.943 75.0747 140.458 75.1697 139.968 75.1629C139.239 75.1528 138.531 74.9172 137.942 74.4885C137.352 74.0598 136.91 73.4591 136.676 72.7689C136.608 72.7737 136.539 72.7757 136.471 72.7749C135.535 72.7617 134.642 72.3772 133.989 71.7058C133.336 71.0345 132.976 70.1313 132.989 69.1949" fill="#06081C"/>
<path fill-rule="evenodd" clip-rule="evenodd" d="M132.989 69.1939C132.999 68.5097 133.207 67.8431 133.588 67.275C133.97 66.7069 134.508 66.2618 135.137 65.9938C135.767 65.7259 136.461 65.6465 137.135 65.7655C137.808 65.8844 138.433 66.1965 138.933 66.6639C139.171 66.1413 139.532 65.6845 139.987 65.333C140.441 64.9816 140.973 64.7461 141.539 64.6469C142.105 64.5477 142.686 64.5878 143.232 64.7637C143.779 64.9397 144.274 65.2461 144.676 65.6566C145.077 66.0671 145.373 66.5692 145.537 67.1195C145.7 67.6699 145.728 68.2518 145.616 68.815C145.504 69.3783 145.257 69.9058 144.896 70.352C144.534 70.7982 144.07 71.1496 143.542 71.3759C143.577 71.8642 143.51 72.3545 143.346 72.8156C143.182 73.2768 142.923 73.6988 142.587 74.0548C142.251 74.4108 141.845 74.6932 141.394 74.8839C140.943 75.0747 140.458 75.1697 139.968 75.1629C139.239 75.1528 138.531 74.9172 137.942 74.4885C137.352 74.0598 136.91 73.4591 136.676 72.7689C136.608 72.7737 136.539 72.7757 136.471 72.7749C135.535 72.7617 134.642 72.3772 133.989 71.7058C133.336 71.0345 132.976 70.1313 132.989 69.1949V69.1939Z" stroke="#6F7CBD"/>
<path fill-rule="evenodd" clip-rule="evenodd" d="M145.682 59.363C145.691 58.6785 145.899 58.0113 146.28 57.4427C146.662 56.8742 147.2 56.4287 147.83 56.1607C148.46 55.8926 149.154 55.8134 149.828 55.9328C150.502 56.0522 151.127 56.3649 151.627 56.833C151.865 56.311 152.227 55.8547 152.681 55.5037C153.135 55.1528 153.667 54.9177 154.232 54.8188C154.798 54.7198 155.378 54.7601 155.925 54.936C156.471 55.1119 156.966 55.4182 157.367 55.8284C157.768 56.2386 158.064 56.7404 158.227 57.2903C158.391 57.8402 158.419 58.4218 158.307 58.9847C158.196 59.5476 157.949 60.0749 157.588 60.521C157.227 60.9671 156.763 61.3186 156.236 61.545C156.295 62.4 156.041 63.2471 155.521 63.9287C155.002 64.6104 154.253 65.0801 153.413 65.2504C152.573 65.4208 151.7 65.2802 150.956 64.8548C150.212 64.4294 149.648 63.7483 149.369 62.938C148.889 62.9592 148.409 62.882 147.96 62.7113C147.51 62.5406 147.1 62.2799 146.755 61.9452C146.41 61.6105 146.137 61.2088 145.952 60.7648C145.768 60.3208 145.676 59.8438 145.682 59.363Z" fill="#06081C"/>
<path fill-rule="evenodd" clip-rule="evenodd" d="M145.682 59.363C145.691 58.6785 145.899 58.0113 146.28 57.4427C146.662 56.8742 147.2 56.4287 147.83 56.1607C148.46 55.8926 149.154 55.8134 149.828 55.9328C150.502 56.0522 151.127 56.3649 151.627 56.833C151.865 56.311 152.227 55.8547 152.681 55.5037C153.135 55.1528 153.667 54.9177 154.232 54.8188C154.798 54.7198 155.378 54.7601 155.925 54.936C156.471 55.1119 156.966 55.4182 157.367 55.8284C157.768 56.2386 158.064 56.7404 158.227 57.2903C158.391 57.8402 158.419 58.4218 158.307 58.9847C158.196 59.5476 157.949 60.0749 157.588 60.521C157.227 60.9671 156.763 61.3186 156.236 61.545C156.295 62.4 156.041 63.2471 155.521 63.9287C155.002 64.6104 154.253 65.0801 153.413 65.2504C152.573 65.4208 151.7 65.2802 150.956 64.8548C150.212 64.4294 149.648 63.7483 149.369 62.938C148.889 62.9592 148.409 62.882 147.96 62.7113C147.51 62.5406 147.1 62.2799 146.755 61.9452C146.41 61.6105 146.137 61.2088 145.952 60.7648C145.768 60.3208 145.676 59.8438 145.682 59.363V59.363Z" stroke="#6F7CBD"/>
<path fill-rule="evenodd" clip-rule="evenodd" d="M158.155 67.41C158.534 67.9802 158.738 68.6481 158.744 69.3325C158.75 70.017 158.558 70.6884 158.189 71.2652C157.821 71.842 157.293 72.2993 156.669 72.5816C156.046 72.8638 155.353 72.9588 154.677 72.855C154.775 73.42 154.733 74.0003 154.556 74.5457C154.38 75.0912 154.073 75.5854 153.662 75.9856C153.252 76.3859 152.75 76.6802 152.2 76.8431C151.65 77.006 151.069 77.0327 150.507 76.9207C149.945 76.8088 149.418 76.5616 148.973 76.2006C148.527 75.8396 148.176 75.3755 147.95 74.8486C147.724 74.3216 147.63 73.7475 147.676 73.176C147.721 72.6044 147.905 72.0526 148.212 71.568C147.681 70.8955 147.413 70.0529 147.457 69.1971C147.501 68.3414 147.854 67.5308 148.451 66.9162C149.048 66.3015 149.848 65.9247 150.702 65.8559C151.556 65.7871 152.406 66.0309 153.094 66.542C153.478 66.2532 153.918 66.046 154.385 65.9331C154.853 65.8202 155.338 65.804 155.812 65.8855C156.286 65.967 156.738 66.1444 157.141 66.4069C157.544 66.6694 157.889 67.0114 158.155 67.412" fill="#06081C"/>
<path fill-rule="evenodd" clip-rule="evenodd" d="M158.155 67.41C158.534 67.9802 158.738 68.6481 158.744 69.3325C158.75 70.017 158.558 70.6884 158.189 71.2652C157.821 71.842 157.293 72.2993 156.669 72.5816C156.046 72.8638 155.353 72.9588 154.677 72.855C154.775 73.42 154.733 74.0003 154.556 74.5457C154.38 75.0912 154.073 75.5854 153.662 75.9856C153.252 76.3859 152.75 76.6802 152.2 76.8431C151.65 77.006 151.069 77.0327 150.507 76.9207C149.945 76.8088 149.418 76.5616 148.973 76.2006C148.527 75.8396 148.176 75.3755 147.95 74.8486C147.724 74.3216 147.63 73.7475 147.676 73.176C147.721 72.6044 147.905 72.0526 148.212 71.568C147.681 70.8955 147.413 70.0529 147.457 69.1971C147.501 68.3414 147.854 67.5308 148.451 66.9162C149.048 66.3015 149.848 65.9247 150.702 65.8559C151.556 65.7871 152.406 66.0309 153.094 66.542C153.478 66.2532 153.918 66.046 154.385 65.9331C154.853 65.8202 155.338 65.804 155.812 65.8855C156.286 65.967 156.738 66.1444 157.141 66.4069C157.544 66.6694 157.889 67.0114 158.155 67.412V67.41Z" stroke="#6F7CBD"/>
<path fill-rule="evenodd" clip-rule="evenodd" d="M154.596 63.1588C154.974 63.729 155.179 64.3968 155.185 65.081C155.191 65.7653 154.998 66.4365 154.629 67.0131C154.261 67.5898 153.733 68.047 153.11 68.3292C152.486 68.6114 151.794 68.7065 151.118 68.6028C151.216 69.1681 151.175 69.7488 150.999 70.2947C150.822 70.8406 150.515 71.3353 150.104 71.736C149.694 72.1367 149.192 72.4313 148.642 72.5944C148.091 72.7576 147.51 72.7843 146.947 72.6722C146.385 72.5602 145.858 72.3128 145.412 71.9515C144.966 71.5901 144.615 71.1257 144.389 70.5983C144.164 70.0709 144.069 69.4964 144.115 68.9245C144.161 68.3526 144.346 67.8005 144.653 67.3158C144.122 66.6433 143.854 65.8007 143.898 64.945C143.942 64.0892 144.295 63.2786 144.892 62.664C145.489 62.0493 146.289 61.6725 147.143 61.6037C147.997 61.5349 148.847 61.7787 149.535 62.2898C149.919 62.0011 150.359 61.7939 150.826 61.681C151.294 61.5681 151.779 61.5518 152.253 61.6333C152.727 61.7148 153.179 61.8922 153.582 62.1547C153.985 62.4172 154.33 62.7592 154.596 63.1598" fill="#06081C"/>
<path fill-rule="evenodd" clip-rule="evenodd" d="M154.596 63.1588C154.974 63.729 155.179 64.3968 155.185 65.081C155.191 65.7653 154.998 66.4365 154.629 67.0131C154.261 67.5898 153.733 68.047 153.11 68.3292C152.486 68.6114 151.794 68.7065 151.118 68.6028C151.216 69.1681 151.175 69.7488 150.999 70.2947C150.822 70.8406 150.515 71.3353 150.104 71.736C149.694 72.1367 149.192 72.4313 148.642 72.5944C148.091 72.7576 147.51 72.7843 146.947 72.6722C146.385 72.5602 145.858 72.3128 145.412 71.9515C144.966 71.5901 144.615 71.1257 144.389 70.5983C144.164 70.0709 144.069 69.4964 144.115 68.9245C144.161 68.3526 144.346 67.8005 144.653 67.3158C144.122 66.6433 143.854 65.8007 143.898 64.945C143.942 64.0892 144.295 63.2786 144.892 62.664C145.489 62.0493 146.289 61.6725 147.143 61.6037C147.997 61.5349 148.847 61.7787 149.535 62.2898C149.919 62.0011 150.359 61.7939 150.826 61.681C151.294 61.5681 151.779 61.5518 152.253 61.6333C152.727 61.7148 153.179 61.8922 153.582 62.1547C153.985 62.4172 154.33 62.7592 154.596 63.1598V63.1588Z" stroke="#6F7CBD"/>
<path fill-rule="evenodd" clip-rule="evenodd" d="M172.37 159.002C172.221 159.67 171.882 160.281 171.393 160.759C170.904 161.238 170.287 161.564 169.616 161.699C168.945 161.833 168.249 161.769 167.613 161.515C166.978 161.262 166.43 160.829 166.036 160.269C165.697 160.732 165.25 161.105 164.734 161.356C164.218 161.608 163.649 161.729 163.075 161.711C162.502 161.693 161.941 161.536 161.442 161.252C160.943 160.969 160.521 160.568 160.211 160.085C159.902 159.602 159.715 159.05 159.666 158.479C159.618 157.907 159.709 157.332 159.933 156.803C160.156 156.275 160.505 155.809 160.95 155.446C161.394 155.082 161.92 154.832 162.482 154.718C162.495 154.618 162.512 154.518 162.534 154.418C162.958 152.515 163.877 151.402 165.782 151.825C167.28 152.159 169.312 153.31 169.488 154.752C169.555 154.761 169.621 154.772 169.69 154.788C170.143 154.889 170.571 155.078 170.951 155.344C171.33 155.61 171.654 155.949 171.903 156.34C172.152 156.731 172.321 157.168 172.401 157.624C172.481 158.081 172.471 158.549 172.37 159.002Z" fill="#06081C"/>
<path fill-rule="evenodd" clip-rule="evenodd" d="M172.37 159.002C172.221 159.67 171.882 160.281 171.393 160.759C170.904 161.238 170.287 161.564 169.616 161.699C168.945 161.833 168.249 161.769 167.613 161.515C166.978 161.262 166.43 160.829 166.036 160.269C165.697 160.732 165.25 161.105 164.734 161.356C164.218 161.608 163.649 161.729 163.075 161.711C162.502 161.693 161.941 161.536 161.442 161.252C160.943 160.969 160.521 160.568 160.211 160.085C159.902 159.602 159.715 159.05 159.666 158.479C159.618 157.907 159.709 157.332 159.933 156.803C160.156 156.275 160.505 155.809 160.95 155.446C161.394 155.082 161.92 154.832 162.482 154.718C162.495 154.618 162.512 154.518 162.534 154.418C162.958 152.515 163.877 151.402 165.782 151.825C167.28 152.159 169.312 153.31 169.488 154.752C169.555 154.761 169.621 154.772 169.69 154.788C170.143 154.889 170.571 155.078 170.951 155.344C171.33 155.61 171.654 155.949 171.903 156.34C172.152 156.731 172.321 157.168 172.401 157.624C172.481 158.081 172.471 158.549 172.37 159.002V159.002Z" stroke="#6F7CBD"/>
<path fill-rule="evenodd" clip-rule="evenodd" d="M159.343 168.707C159.616 169.118 159.763 169.6 159.767 170.094C159.771 170.587 159.632 171.072 159.366 171.488C159.1 171.904 158.72 172.234 158.27 172.437C157.82 172.641 157.321 172.709 156.833 172.635C156.903 173.042 156.874 173.461 156.746 173.855C156.619 174.248 156.397 174.605 156.101 174.893C155.805 175.182 155.443 175.394 155.047 175.512C154.65 175.63 154.231 175.649 153.825 175.568C153.419 175.487 153.039 175.309 152.718 175.049C152.397 174.788 152.144 174.454 151.981 174.073C151.818 173.693 151.749 173.279 151.782 172.867C151.815 172.455 151.948 172.056 152.169 171.707C151.786 171.222 151.592 170.614 151.624 169.996C151.656 169.379 151.911 168.794 152.341 168.351C152.772 167.907 153.349 167.635 153.965 167.585C154.581 167.536 155.195 167.711 155.691 168.08C155.968 167.872 156.285 167.722 156.623 167.641C156.96 167.559 157.31 167.547 157.652 167.606C157.994 167.665 158.32 167.793 158.611 167.982C158.902 168.171 159.151 168.418 159.343 168.707Z" fill="#06081C"/>
<path fill-rule="evenodd" clip-rule="evenodd" d="M159.343 168.707C159.616 169.118 159.763 169.6 159.767 170.094C159.771 170.587 159.632 171.072 159.366 171.488C159.1 171.904 158.72 172.234 158.27 172.437C157.82 172.641 157.321 172.709 156.833 172.635C156.903 173.042 156.874 173.461 156.746 173.855C156.619 174.248 156.397 174.605 156.101 174.893C155.805 175.182 155.443 175.394 155.047 175.512C154.65 175.63 154.231 175.649 153.825 175.568C153.419 175.487 153.039 175.309 152.718 175.049C152.397 174.788 152.144 174.454 151.981 174.073C151.818 173.693 151.749 173.279 151.782 172.867C151.815 172.455 151.948 172.056 152.169 171.707C151.786 171.222 151.592 170.614 151.624 169.996C151.656 169.379 151.911 168.794 152.341 168.351C152.772 167.907 153.349 167.635 153.965 167.585C154.581 167.536 155.195 167.711 155.691 168.08C155.968 167.872 156.285 167.722 156.623 167.641C156.96 167.559 157.31 167.547 157.652 167.606C157.994 167.665 158.32 167.793 158.611 167.982C158.902 168.171 159.151 168.418 159.343 168.707V168.707Z" stroke="#6F7CBD"/>
<path fill-rule="evenodd" clip-rule="evenodd" d="M185.183 167.503C185.121 168.184 184.862 168.833 184.438 169.37C184.015 169.907 183.444 170.31 182.796 170.529C182.148 170.747 181.45 170.773 180.787 170.603C180.124 170.433 179.525 170.074 179.063 169.57C178.786 170.073 178.39 170.501 177.911 170.817C177.431 171.132 176.882 171.326 176.311 171.382C175.739 171.438 175.163 171.354 174.631 171.136C174.1 170.919 173.629 170.576 173.26 170.136C172.891 169.696 172.635 169.173 172.513 168.612C172.392 168.051 172.409 167.468 172.563 166.915C172.718 166.362 173.005 165.855 173.399 165.438C173.793 165.02 174.283 164.705 174.827 164.52C174.832 163.662 175.149 162.834 175.719 162.193C176.289 161.551 177.073 161.139 177.925 161.033C178.777 160.928 179.638 161.136 180.347 161.618C181.057 162.101 181.567 162.826 181.781 163.657C181.847 163.657 181.915 163.661 181.985 163.667C182.447 163.709 182.896 163.841 183.307 164.057C183.717 164.272 184.082 164.566 184.379 164.923C184.675 165.279 184.899 165.69 185.037 166.133C185.175 166.576 185.225 167.041 185.183 167.503Z" fill="#06081C"/>
<path fill-rule="evenodd" clip-rule="evenodd" d="M185.183 167.503C185.121 168.184 184.862 168.833 184.438 169.37C184.015 169.907 183.444 170.31 182.796 170.529C182.148 170.747 181.45 170.773 180.787 170.603C180.124 170.433 179.525 170.074 179.063 169.57C178.786 170.073 178.39 170.501 177.911 170.817C177.431 171.132 176.882 171.326 176.311 171.382C175.739 171.438 175.163 171.354 174.631 171.136C174.1 170.919 173.629 170.576 173.26 170.136C172.891 169.696 172.635 169.173 172.513 168.612C172.392 168.051 172.409 167.468 172.563 166.915C172.718 166.362 173.005 165.855 173.399 165.438C173.793 165.02 174.283 164.705 174.827 164.52C174.832 163.662 175.149 162.834 175.719 162.193C176.289 161.551 177.073 161.139 177.925 161.033C178.777 160.928 179.638 161.136 180.347 161.618C181.057 162.101 181.567 162.826 181.781 163.657C181.847 163.657 181.915 163.661 181.985 163.667C182.447 163.709 182.896 163.841 183.307 164.057C183.717 164.272 184.082 164.566 184.379 164.923C184.675 165.279 184.899 165.69 185.037 166.133C185.175 166.576 185.225 167.041 185.183 167.503V167.503Z" stroke="#6F7CBD"/>
<path fill-rule="evenodd" clip-rule="evenodd" d="M164.476 68.53L150.506 161.571L137.09 171.686L99.6199 163.512L86.0029 69.412L144.483 80.105L164.476 68.53Z" fill="#06081C"/>
<path fill-rule="evenodd" clip-rule="evenodd" d="M160.879 70.5648C160.759 71.2988 146.988 156.877 146.85 157.486C146.713 158.096 135.94 166.483 135.43 166.483C134.922 166.483 100.353 159.099 100.307 158.789C100.262 158.479 87.897 71.4888 88.047 70.8638C87.239 65.0638 99.03 65.5408 99.77 73.2678C99.622 64.4958 108.227 68.3258 109.559 75.2478C111.537 63.0718 120.884 74.0918 120.509 77.4508C121.531 66.9608 131.997 75.6098 132.422 79.8148C133.132 71.4378 143.052 74.0678 142.549 81.7728C142.501 82.5028 160.996 69.8318 160.879 70.5648Z" fill="#06081C"/>
<path fill-rule="evenodd" clip-rule="evenodd" d="M160.879 70.5648C160.759 71.2988 146.988 156.877 146.85 157.486C146.713 158.096 135.94 166.483 135.43 166.483C134.922 166.483 100.353 159.099 100.307 158.789C100.262 158.479 87.897 71.4888 88.047 70.8638C87.239 65.0638 99.03 65.5408 99.77 73.2678C99.622 64.4958 108.227 68.3258 109.559 75.2478C111.537 63.0718 120.884 74.0918 120.509 77.4508C121.531 66.9608 131.997 75.6098 132.422 79.8148C133.132 71.4378 143.052 74.0678 142.549 81.7728C142.501 82.5028 160.996 69.8318 160.879 70.5648V70.5648Z" stroke="#6F7CBD"/>
<mask id="mask1_656_637" style="mask-type:alpha" maskUnits="userSpaceOnUse" x="91" y="74" width="67" height="90">
<path d="M102.564 156.706L135.937 163.659L144.784 156.407L157.596 75.455L143.863 84.615L91.319 74.676L102.564 156.706Z" fill="white"/>
</mask>
<g mask="url(#mask1_656_637)">
<path fill-rule="evenodd" clip-rule="evenodd" d="M106.44 171.348L101.87 172.198L90.95 68.86L97.134 68.01L106.44 171.348Z" fill="#DCE2FF"/>
</g>
<mask id="mask2_656_637" style="mask-type:alpha" maskUnits="userSpaceOnUse" x="91" y="74" width="67" height="90">
<path d="M102.564 156.706L135.937 163.659L144.784 156.407L157.596 75.455L143.863 84.615L91.319 74.676L102.564 156.706Z" fill="white"/>
</mask>
<g mask="url(#mask2_656_637)">
<path fill-rule="evenodd" clip-rule="evenodd" d="M116.906 172.273L113.444 171.919L111.384 67.9631L118.594 68.3161L116.906 172.273Z" fill="#DCE2FF"/>
</g>
<mask id="mask3_656_637" style="mask-type:alpha" maskUnits="userSpaceOnUse" x="91" y="74" width="67" height="90">
<path d="M102.564 156.706L135.937 163.659L144.784 156.407L157.596 75.455L143.863 84.615L91.319 74.676L102.564 156.706Z" fill="white"/>
</mask>
<g mask="url(#mask3_656_637)">
<path fill-rule="evenodd" clip-rule="evenodd" d="M122.219 173.986L119.729 173.297L123.101 69.7019L131.063 70.3909L122.219 173.986Z" fill="#DCE2FF"/>
</g>
<mask id="mask4_656_637" style="mask-type:alpha" maskUnits="userSpaceOnUse" x="91" y="74" width="67" height="90">
<path d="M102.564 156.706L135.937 163.659L144.784 156.407L157.596 75.455L143.863 84.615L91.319 74.676L102.564 156.706Z" fill="white"/>
</mask>
<g mask="url(#mask4_656_637)">
<path fill-rule="evenodd" clip-rule="evenodd" d="M130.341 174.368L126.181 173.68L135.022 70.085L141.222 70.773L130.341 174.368Z" fill="#DCE2FF"/>
</g>
<mask id="mask5_656_637" style="mask-type:alpha" maskUnits="userSpaceOnUse" x="91" y="74" width="67" height="90">
<path d="M102.564 156.706L135.937 163.659L144.784 156.407L157.596 75.455L143.863 84.615L91.319 74.676L102.564 156.706Z" fill="white"/>
</mask>
<g mask="url(#mask5_656_637)">
<path fill-rule="evenodd" clip-rule="evenodd" d="M110.506 170.094L108.238 171.138L100.702 65.684L106.916 65.207L110.506 170.094Z" fill="#DCE2FF"/>
</g>
<mask id="mask6_656_637" style="mask-type:alpha" maskUnits="userSpaceOnUse" x="91" y="74" width="67" height="90">
<path d="M102.564 156.706L135.937 163.659L144.784 156.407L157.596 75.455L143.863 84.615L91.319 74.676L102.564 156.706Z" fill="white"/>
</mask>
<g mask="url(#mask6_656_637)">
<path fill-rule="evenodd" clip-rule="evenodd" d="M143.689 83.3659L162.783 68.8459L144.783 162.564L135.936 163.66L143.689 83.3659Z" fill="#6565B7"/>
</g>
<path fill-rule="evenodd" clip-rule="evenodd" d="M60.51 123.384C60.206 124.094 58.961 124.695 57.548 124.695C55.005 124.695 54.721 122.24 54.721 122.24L56.401 117.82L59.218 117.558L60.38 121.205L61.902 120.929C61.16 117.089 59.508 108.836 59.629 108.801L54.944 109.788C54.944 109.788 54.515 112.024 54.028 114.681C53.138 114.913 52.026 115.197 51.654 115.291C51.001 115.46 51.69 117.214 52.195 117.244C52.423 117.257 53.013 117.171 53.59 117.072C53.34 118.482 52.827 122.201 52.827 122.201C52.827 122.201 53.119 126.419 57.988 126.231C59.996 126.231 61.493 125.168 61.878 123.121L60.51 123.384Z" fill="#06081C"/>
<path fill-rule="evenodd" clip-rule="evenodd" d="M60.51 123.384C60.206 124.094 58.961 124.695 57.548 124.695C55.005 124.695 54.721 122.24 54.721 122.24L56.401 117.82L59.218 117.558L60.38 121.205L61.902 120.929C61.16 117.089 59.508 108.836 59.629 108.801L54.944 109.788C54.944 109.788 54.515 112.024 54.028 114.681C53.138 114.913 52.026 115.197 51.654 115.291C51.001 115.46 51.69 117.214 52.195 117.244C52.423 117.257 53.013 117.171 53.59 117.072C53.34 118.482 52.827 122.201 52.827 122.201C52.827 122.201 53.119 126.419 57.988 126.231C59.996 126.231 61.493 125.168 61.878 123.121L60.51 123.384V123.384Z" stroke="#6F7CBD" stroke-width="0.75"/>
<path fill-rule="evenodd" clip-rule="evenodd" d="M58.928 114.158C58.928 114.922 58.418 115.54 57.786 115.54C57.156 115.54 56.645 114.922 56.645 114.158C56.645 113.396 57.155 112.778 57.786 112.778C58.417 112.778 58.928 113.396 58.928 114.158Z" fill="#06081C"/>
<path fill-rule="evenodd" clip-rule="evenodd" d="M58.928 114.158C58.928 114.922 58.418 115.54 57.786 115.54C57.156 115.54 56.645 114.922 56.645 114.158C56.645 113.396 57.155 112.778 57.786 112.778C58.417 112.778 58.928 113.396 58.928 114.158ZM49.813 106.302L49.687 102.405L61.497 101.517C61.497 101.517 61.569 103.507 61.605 105.568C58.463 109.497 53.295 109.968 49.813 106.302V106.302Z" stroke="#6F7CBD" stroke-width="0.75"/>
<path fill-rule="evenodd" clip-rule="evenodd" d="M61.127 110.168L53.727 111.658C53.5682 111.69 53.4034 111.657 53.2686 111.568C53.1338 111.478 53.04 111.339 53.008 111.18L52.865 110.47C52.8491 110.391 52.8489 110.31 52.8644 110.231C52.8799 110.153 52.9107 110.078 52.9552 110.011C52.9997 109.944 53.057 109.887 53.1237 109.842C53.1904 109.798 53.2653 109.767 53.344 109.751L60.743 108.261C60.9017 108.229 61.0667 108.261 61.2017 108.35C61.3367 108.44 61.4307 108.579 61.463 108.738L61.605 109.448C61.6209 109.527 61.6211 109.608 61.6057 109.686C61.5903 109.765 61.5595 109.84 61.5151 109.907C61.4707 109.974 61.4136 110.031 61.347 110.076C61.2804 110.121 61.2056 110.152 61.127 110.168Z" fill="#06081C"/>
<path fill-rule="evenodd" clip-rule="evenodd" d="M61.127 110.168L53.727 111.658C53.5682 111.69 53.4034 111.657 53.2686 111.568C53.1338 111.478 53.04 111.339 53.008 111.18L52.865 110.47C52.8491 110.391 52.8489 110.31 52.8644 110.231C52.8799 110.153 52.9107 110.078 52.9552 110.011C52.9997 109.944 53.057 109.887 53.1237 109.842C53.1904 109.798 53.2653 109.767 53.344 109.751L60.743 108.261C60.9017 108.229 61.0667 108.261 61.2017 108.35C61.3367 108.44 61.4307 108.579 61.463 108.738L61.605 109.448C61.6209 109.527 61.6211 109.608 61.6057 109.686C61.5903 109.765 61.5595 109.84 61.5151 109.907C61.4707 109.974 61.4136 110.031 61.347 110.076C61.2804 110.121 61.2056 110.152 61.127 110.168V110.168Z" stroke="#6F7CBD" stroke-width="0.75"/>
<path fill-rule="evenodd" clip-rule="evenodd" d="M59.108 104.67H51.416C49.516 91.0941 49.981 77.9301 51.611 64.9661H59.324C57.611 71.6961 57.579 86.8261 59.108 104.669" fill="#06081C"/>
<path fill-rule="evenodd" clip-rule="evenodd" d="M59.108 104.67H51.416C49.516 91.0941 49.981 77.9301 51.611 64.9661H59.324C57.611 71.6961 57.579 86.8261 59.108 104.669V104.67Z" stroke="#6F7CBD" stroke-width="0.75"/>
<path fill-rule="evenodd" clip-rule="evenodd" d="M81.0861 62.058C71.7061 63.618 59.8171 67.502 50.9041 71.046L51.6491 62.329C59.7011 58.485 70.1651 55.339 78.6461 54.219L81.0861 62.058Z" fill="#06081C"/>
<path fill-rule="evenodd" clip-rule="evenodd" d="M81.0861 62.058C71.7061 63.618 59.8171 67.502 50.9041 71.046L51.6491 62.329C59.7011 58.485 70.1651 55.339 78.6461 54.219L81.0861 62.058V62.058Z" stroke="#6F7CBD" stroke-width="0.75"/>
<path fill-rule="evenodd" clip-rule="evenodd" d="M50.838 74.9031L51.133 71.1961C53.393 70.2661 55.886 69.3021 58.518 68.3191L50.838 74.9031Z" fill="#B9C5EF"/>
</svg>
