<?xml version="1.0" encoding="UTF-8"?>
<svg width="380px" height="380px" viewBox="0 0 380 380" version="1.1" xmlns="http://www.w3.org/2000/svg" xmlns:xlink="http://www.w3.org/1999/xlink">
    <title>Illustrations/Dark/organizer</title>
    <defs>
        <polygon id="path-1" points="0 0 337.1677 0 337.1677 337.1679 0 337.1679"></polygon>
        <path d="M133.858,143.695 C133.814,143.949 133.827,144.477 133.191,145.03 L133.191,145.03 C133.008,145.187 132.563,145.41 131.855,145.696 L131.855,145.696 C44.218,145.696 0.266,145.705 0,145.719 L0,145.719 C0.233,147.136 0.58,149.26 1.044,152.093 L1.044,152.093 C1.24,153.294 2.38,154.268 3.592,154.268 L3.592,154.268 L180.091,154.268 C181.301,154.268 182.124,153.294 181.927,152.093 L181.927,152.093 C170.875,84.497 162.586,33.8 157.06,0.002 L157.06,0.002 C157.059,0 157.059,0 157.059,0 L157.059,0 C156.964,-0.005 150.366,47.651 133.858,143.695 L133.858,143.695 Z" id="path-3"></path>
        <path d="M31.664,0 L5.604,0 C4.368,0 3.203,1.003 3.002,2.24 L3.002,2.24 L1.42108547e-14,19.869 L184.153,19.869 L187.753,2.24 C187.954,1.003 187.114,0 185.878,0 L185.878,0 L31.664,0 Z" id="path-5"></path>
        <path d="M8.18526796,0 C5.72626796,0 3.83526796,1.551 3.45726796,3.878 L3.45726796,3.878 L0.0612679555,24.82 C-0.315732045,27.146 1.07226796,28.698 3.53126796,28.698 L3.53126796,28.698 L24.022268,28.698 C26.481268,28.698 28.372268,27.146 28.749268,24.82 L28.749268,24.82 L32.144268,3.878 C32.522268,1.551 31.135268,0 28.676268,0 L28.676268,0 L8.18526796,0 Z" id="path-7"></path>
        <path d="M8.18456122,0 C5.72556122,0 3.83456122,1.551 3.45756122,3.878 L3.45756122,3.878 L0.0615612221,24.82 C-0.316438778,27.147 1.07156122,28.698 3.53056122,28.698 L3.53056122,28.698 L24.0215612,28.698 C26.4805612,28.698 28.3715612,27.147 28.7495612,24.82 L28.7495612,24.82 L32.1445612,3.878 C32.5215612,1.551 31.1345612,0 28.6755612,0 L28.6755612,0 L8.18456122,0 Z" id="path-9"></path>
        <path d="M8.1845932,0 C5.7255932,0 3.8345932,1.551 3.4565932,3.878 L3.4565932,3.878 L0.0615932005,24.82 C-0.316406799,27.147 1.0705932,28.698 3.5305932,28.698 L3.5305932,28.698 L24.0215932,28.698 C26.4805932,28.698 28.3715932,27.147 28.7485932,24.82 L28.7485932,24.82 L32.1455932,3.878 C32.5225932,1.551 31.1345932,0 28.6755932,0 L28.6755932,0 L8.1845932,0 Z" id="path-11"></path>
        <path d="M8.18429981,0 C5.72529981,0 3.83529981,1.55 3.45729981,3.877 L3.45729981,3.877 L0.0612998052,24.82 C-0.315700195,27.147 1.07129981,28.697 3.53129981,28.697 L3.53129981,28.697 L24.0222998,28.697 C26.4812998,28.697 28.3712998,27.147 28.7492998,24.82 L28.7492998,24.82 L32.1442998,3.877 C32.5222998,1.55 31.1342998,0 28.6762998,0 L28.6762998,0 L8.18429981,0 Z" id="path-13"></path>
        <path d="M8.18430111,0 C5.72530111,0 3.83430111,1.551 3.45730111,3.878 L3.45730111,3.878 L0.0613011073,24.82 C-0.315698893,27.146 1.07130111,28.698 3.53030111,28.698 L3.53030111,28.698 L24.0213011,28.698 C26.4803011,28.698 28.3713011,27.146 28.7483011,24.82 L28.7483011,24.82 L32.1453011,3.878 C32.5223011,1.551 31.1343011,0 28.6753011,0 L28.6753011,0 L8.18430111,0 Z" id="path-15"></path>
        <path d="M8.18526796,0 C5.72626796,0 3.83426796,1.55 3.45826796,3.877 L3.45826796,3.877 L0.0612679555,24.82 C-0.315732045,27.147 1.07226796,28.697 3.53126796,28.697 L3.53126796,28.697 L24.022268,28.697 C26.481268,28.697 28.372268,27.147 28.749268,24.82 L28.749268,24.82 L32.146268,3.877 C32.522268,1.55 31.135268,0 28.675268,0 L28.675268,0 L8.18526796,0 Z" id="path-17"></path>
        <path d="M8.18526796,0 C5.72626796,0 3.83526796,1.551 3.45826796,3.878 L3.45826796,3.878 L0.0612679555,24.82 C-0.315732045,27.146 1.07226796,28.698 3.53126796,28.698 L3.53126796,28.698 L24.022268,28.698 C26.481268,28.698 28.372268,27.146 28.750268,24.82 L28.750268,24.82 L32.145268,3.878 C32.522268,1.551 31.135268,0 28.676268,0 L28.676268,0 L8.18526796,0 Z" id="path-19"></path>
        <path d="M8.18456122,0 C5.72656122,0 3.83456122,1.551 3.45756122,3.878 L3.45756122,3.878 L0.0615612221,24.82 C-0.316438778,27.147 1.07156122,28.698 3.53056122,28.698 L3.53056122,28.698 L24.0215612,28.698 C26.4815612,28.698 28.3725612,27.147 28.7495612,24.82 L28.7495612,24.82 L32.1445612,3.878 C32.5215612,1.551 31.1345612,0 28.6755612,0 L28.6755612,0 L8.18456122,0 Z" id="path-21"></path>
        <path d="M8.18426926,0 C5.72526926,0 3.83526926,1.55 3.45726926,3.877 L3.45726926,3.877 L0.0612692556,24.82 C-0.315730744,27.147 1.07226926,28.697 3.53026926,28.697 L3.53026926,28.697 L24.0222693,28.697 C26.4802693,28.697 28.3712693,27.147 28.7482693,24.82 L28.7482693,24.82 L32.1442693,3.877 C32.5222693,1.55 31.1342693,0 28.6762693,0 L28.6762693,0 L8.18426926,0 Z" id="path-23"></path>
        <path d="M8.18529981,0 C5.72529981,0 3.83429981,1.55 3.45729981,3.877 L3.45729981,3.877 L0.0612998052,24.82 C-0.315700195,27.147 1.07129981,28.697 3.53129981,28.697 L3.53129981,28.697 L24.0222998,28.697 C26.4812998,28.697 28.3722998,27.147 28.7492998,24.82 L28.7492998,24.82 L32.1452998,3.877 C32.5232998,1.55 31.1352998,0 28.6762998,0 L28.6762998,0 L8.18529981,0 Z" id="path-25"></path>
        <path d="M8.18359451,0 C5.72459451,0 3.83359451,1.551 3.45659451,3.878 L3.45659451,3.878 L0.061594511,24.82 C-0.316405489,27.146 1.07059451,28.698 3.52959451,28.698 L3.52959451,28.698 L24.0205945,28.698 C26.4795945,28.698 28.3705945,27.146 28.7485945,24.82 L28.7485945,24.82 L32.1445945,3.878 C32.5215945,1.551 31.1335945,0 28.6745945,0 L28.6745945,0 L8.18359451,0 Z" id="path-27"></path>
        <path d="M8.18433299,0 C5.72433299,0 3.83433299,1.551 3.45633299,3.878 L3.45633299,3.878 L0.0613329885,24.82 C-0.315667011,27.147 1.07033299,28.698 3.53033299,28.698 L3.53033299,28.698 L24.021333,28.698 C26.480333,28.698 28.371333,27.147 28.748333,24.82 L28.748333,24.82 L32.144333,3.878 C32.522333,1.551 31.134333,0 28.675333,0 L28.675333,0 L8.18433299,0 Z" id="path-29"></path>
        <path d="M0,4.671 C0,7.252 2.091,9.343 4.671,9.343 L4.671,9.343 C7.25,9.343 9.342,7.252 9.342,4.671 L9.342,4.671 C9.342,2.092 7.25,-2.84217094e-14 4.671,-2.84217094e-14 L4.671,-2.84217094e-14 C2.091,-2.84217094e-14 0,2.092 0,4.671 L0,4.671 Z" id="path-31"></path>
        <path d="M-2.84217094e-14,4.671 C-2.84217094e-14,7.252 2.091,9.343 4.671,9.343 L4.671,9.343 C7.25,9.343 9.342,7.252 9.342,4.671 L9.342,4.671 C9.342,2.092 7.25,-2.84217094e-14 4.671,-2.84217094e-14 L4.671,-2.84217094e-14 C2.091,-2.84217094e-14 -2.84217094e-14,2.092 -2.84217094e-14,4.671 L-2.84217094e-14,4.671 Z" id="path-33"></path>
        <path d="M0,4.671 C0,7.252 2.09,9.343 4.67,9.343 L4.67,9.343 C7.25,9.343 9.341,7.252 9.341,4.671 L9.341,4.671 C9.341,2.092 7.25,-2.84217094e-14 4.67,-2.84217094e-14 L4.67,-2.84217094e-14 C2.09,-2.84217094e-14 0,2.092 0,4.671 L0,4.671 Z" id="path-35"></path>
        <path d="M5.68434189e-14,4.671 C5.68434189e-14,7.252 2.091,9.343 4.671,9.343 L4.671,9.343 C7.25,9.343 9.342,7.252 9.342,4.671 L9.342,4.671 C9.342,2.092 7.25,-2.84217094e-14 4.671,-2.84217094e-14 L4.671,-2.84217094e-14 C2.091,-2.84217094e-14 5.68434189e-14,2.092 5.68434189e-14,4.671 L5.68434189e-14,4.671 Z" id="path-37"></path>
        <path d="M0.0359406528,3.815 C-0.0450593472,4.968 0.0119406528,6.099 0.195940653,7.191 L0.195940653,7.191 L6.23394065,7.613 C7.55394065,7.704 8.69894065,6.705 8.79194065,5.38 L8.79194065,5.38 L8.95894065,2.98 C9.05194065,1.655 8.05694065,0.506 6.73694065,0.414 L6.73694065,0.414 L0.829940653,0 C0.401940653,1.201 0.127940653,2.481 0.0359406528,3.815 L0.0359406528,3.815 Z" id="path-39"></path>
        <path d="M12.1785201,0.017 L11.5045201,0.037 L10.8445201,0.063 L10.1985201,0.096 L9.56552008,0.135 L8.94852008,0.18 C8.84652008,0.189 8.74552008,0.197 8.64552008,0.205 L8.64552008,0.205 L8.05152008,0.26 L7.47352008,0.32 C7.37852008,0.331 7.28452008,0.342 7.19052008,0.352 L7.19052008,0.352 L6.63852008,0.422 C6.54852008,0.434 6.45852008,0.447 6.36852008,0.459 L6.36852008,0.459 L5.84352008,0.537 L5.33552008,0.621 L4.84852008,0.711 L4.38052008,0.806 C4.22752008,0.838 4.07752008,0.872 3.93152008,0.906 L3.93152008,0.906 L3.50552008,1.012 C3.43652008,1.03 3.36752008,1.048 3.30052008,1.066 L3.30052008,1.066 L2.90552008,1.179 C2.84252008,1.199 2.77952008,1.219 2.71652008,1.238 L2.71652008,1.238 L2.35552008,1.359 C2.23952008,1.401 2.12852008,1.442 2.01952008,1.485 L2.01952008,1.485 L1.70652008,1.616 C0.651520075,2.082 0.0465200754,2.637 0.00252007542,3.259 L0.00252007542,3.259 C-0.0514799246,4.033 0.764520075,4.82 2.24152008,5.558 L2.24152008,5.558 L2.59552008,5.727 C2.89852008,5.868 3.22652008,6.006 3.57552008,6.142 L3.57552008,6.142 L4.00652008,6.304 L4.45852008,6.463 L4.93052008,6.62 L5.42152008,6.774 L5.93152008,6.924 L6.46152008,7.072 C6.55052008,7.096 6.64152008,7.119 6.73352008,7.144 L6.73352008,7.144 L7.28952008,7.286 L7.86352008,7.424 L8.45452008,7.56 L9.06052008,7.69 L9.68252008,7.817 L10.3205201,7.939 L10.9705201,8.057 C11.0805201,8.076 11.1915201,8.095 11.3015201,8.114 L11.3015201,8.114 L11.9745201,8.225 L12.6595201,8.331 L12.9555201,8.374 C13.3415201,7.234 13.5885201,6.025 13.6775201,4.767 L13.6775201,4.767 C13.7925201,3.115 13.6235201,1.512 13.2115201,0 L13.2115201,0 L12.1785201,0.017 Z" id="path-41"></path>
        <path d="M4.66690573,0.007 L4.40790573,0.014 L4.15590573,0.024 L3.90790573,0.036 L3.66590573,0.052 L3.42890573,0.069 C3.38990573,0.072 3.35090573,0.075 3.31190573,0.078 L3.31190573,0.078 L3.08590573,0.099 L2.86390573,0.123 C2.82690573,0.126 2.79090573,0.131 2.75490573,0.135 L2.75490573,0.135 L2.54390573,0.161 C2.50890573,0.166 2.47390573,0.171 2.43990573,0.176 L2.43990573,0.176 L2.23890573,0.206 L2.04490573,0.238 L1.85790573,0.272 L1.67890573,0.308 C1.61990573,0.321 1.56290573,0.333 1.50690573,0.347 L1.50690573,0.347 L1.34290573,0.387 C1.31690573,0.394 1.29090573,0.402 1.26490573,0.408 L1.26490573,0.408 L1.11390573,0.451 C1.08890573,0.459 1.06490573,0.467 1.04190573,0.474 L1.04190573,0.474 L0.90390573,0.521 C0.85890573,0.536 0.81590573,0.552 0.77390573,0.569 L0.77390573,0.569 L0.65390573,0.62 C0.25090573,0.798 0.0179057297,1.01 0.000905729709,1.249 L0.000905729709,1.249 C-0.0190942703,1.545 0.29290573,1.846 0.85990573,2.13 L0.85990573,2.13 L0.99490573,2.194 C1.11090573,2.248 1.23690573,2.301 1.36990573,2.353 L1.36990573,2.353 L1.53590573,2.415 L1.70890573,2.476 L1.88890573,2.537 L2.07790573,2.595 L2.27290573,2.653 L2.47590573,2.709 C2.50990573,2.718 2.54590573,2.727 2.58090573,2.736 L2.58090573,2.736 L2.79390573,2.791 L3.01390573,2.844 L3.23890573,2.896 L3.47190573,2.946 L3.70990573,2.995 L3.95390573,3.042 L4.20390573,3.087 C4.24590573,3.095 4.28790573,3.102 4.33090573,3.108 L4.33090573,3.108 L4.58890573,3.151 L4.84990573,3.192 L4.96390573,3.208 C5.11190573,2.771 5.20690573,2.308 5.23990573,1.826 L5.23990573,1.826 C5.28490573,1.194 5.21990573,0.578 5.06190573,0 L5.06190573,0 L4.66690573,0.007 Z" id="path-43"></path>
        <path d="M4.66690573,0.007 L4.40790573,0.014 L4.15590573,0.024 L3.90790573,0.036 L3.66590573,0.052 L3.42890573,0.069 C3.38990573,0.072 3.35090573,0.075 3.31190573,0.078 L3.31190573,0.078 L3.08590573,0.099 L2.86390573,0.123 C2.82690573,0.126 2.79090573,0.131 2.75490573,0.135 L2.75490573,0.135 L2.54390573,0.161 C2.50890573,0.166 2.47390573,0.171 2.43990573,0.176 L2.43990573,0.176 L2.23890573,0.206 L2.04490573,0.238 L1.85790573,0.272 L1.67890573,0.308 C1.61990573,0.321 1.56290573,0.333 1.50690573,0.347 L1.50690573,0.347 L1.34290573,0.387 C1.31690573,0.394 1.29090573,0.402 1.26490573,0.408 L1.26490573,0.408 L1.11390573,0.451 C1.08890573,0.459 1.06490573,0.467 1.04190573,0.474 L1.04190573,0.474 L0.90390573,0.521 C0.85890573,0.536 0.81590573,0.552 0.77390573,0.569 L0.77390573,0.569 L0.65390573,0.62 C0.25090573,0.798 0.0179057297,1.01 0.000905729709,1.249 L0.000905729709,1.249 C-0.0190942703,1.545 0.29290573,1.846 0.85990573,2.13 L0.85990573,2.13 L0.99490573,2.194 C1.11090573,2.248 1.23690573,2.301 1.36990573,2.353 L1.36990573,2.353 L1.53590573,2.415 L1.70890573,2.476 L1.88890573,2.537 L2.07790573,2.595 L2.27290573,2.653 L2.47590573,2.709 C2.50990573,2.718 2.54590573,2.727 2.58090573,2.736 L2.58090573,2.736 L2.79390573,2.791 L3.01390573,2.844 L3.23890573,2.896 L3.47190573,2.946 L3.70990573,2.995 L3.95390573,3.042 L4.20390573,3.087 C4.24590573,3.095 4.28790573,3.102 4.33090573,3.108 L4.33090573,3.108 L4.58890573,3.151 L4.84990573,3.192 L4.96390573,3.208 C5.11190573,2.771 5.20690573,2.308 5.23990573,1.826 L5.23990573,1.826 C5.28490573,1.194 5.21990573,0.578 5.06190573,0 L5.06190573,0 L4.66690573,0.007 Z" id="path-45"></path>
        <path d="M0.114258621,5.766 C0.0202586207,7.014 -0.0157413793,8.792 0.00625862069,11.101 L0.00625862069,11.101 L0.856258621,11.181 L2.51825862,11.312 L4.19625862,11.438 L6.72725862,11.618 C6.61925862,9.336 6.61025862,7.539 6.70025862,6.225 L6.70025862,6.225 C6.79125862,4.913 7.05625862,2.977 7.49625862,0.419 L7.49625862,0.419 L5.83125862,0.303 L4.16325862,0.192 L2.50825862,0.088 L0.848258621,-7.10542736e-15 C0.454258621,2.595 0.209258621,4.516 0.114258621,5.766 L0.114258621,5.766 Z" id="path-47"></path>
    </defs>
    <g id="Illustrations/Dark/organizer" stroke="none" stroke-width="1" fill="none" fill-rule="evenodd">
        <g id="Group-113" transform="translate(21.000000, 21.000000)">
            <g id="Group-8">
                <g id="Group-3">
                    <mask id="mask-2" fill="white">
                        <use xlink:href="#path-1"></use>
                    </mask>
                    <g id="Clip-2"></g>
                    <path d="M337.168,168.5839 C337.168,261.6899 261.69,337.1679 168.584,337.1679 C75.478,337.1679 0,261.6899 0,168.5839 C0,75.4779 75.478,-0.0001 168.584,-0.0001 C261.69,-0.0001 337.168,75.4779 337.168,168.5839" id="Fill-1" fill="#181C36" mask="url(#mask-2)"></path>
                </g>
                <path d="M265.6231,89.4437 L240.1101,89.4437 L262.6211,89.4437 C261.4101,89.4437 287.2271,247.3387 288.4371,247.3387 L291.4391,247.3387 C292.6501,247.3387 293.4731,246.3647 293.2761,245.1647 L268.1711,91.6187 C267.9751,90.4177 266.8341,89.4437 265.6231,89.4437" id="Fill-4" fill="#FCFCFC"></path>
                <path d="M265.6231,89.4437 L240.1101,89.4437 L262.6211,89.4437 C261.4101,89.4437 287.2271,247.3387 288.4371,247.3387 L291.4391,247.3387 C292.6501,247.3387 293.4731,246.3647 293.2761,245.1647 L268.1711,91.6187 C267.9751,90.4177 266.8341,89.4437 265.6231,89.4437 Z" id="Stroke-6" fill="#6F7CBD"></path>
            </g>
            <g id="Group-11" transform="translate(107.989700, 106.417000)">
                <mask id="mask-4" fill="white">
                    <use xlink:href="#path-3"></use>
                </mask>
                <g id="Clip-10"></g>
                <polygon id="Fill-9" fill="#2A3052" mask="url(#mask-4)" points="-28.837 146.331 183.459 146.331 183.459 -1.654 -28.837 -1.654"></polygon>
            </g>
            <path d="M239.8453,244.0199 C152.2073,244.0199 108.2553,244.0269 107.9903,244.0409 C108.2223,245.3789 108.5703,247.3849 109.0333,250.0609 C109.2293,251.1949 110.3703,252.1149 111.5813,252.1149 L288.0803,252.1149 C289.2913,252.1149 290.1133,251.1949 289.9173,250.0609 C278.8653,186.2199 270.5753,138.3389 265.0493,106.4179 C264.9973,106.1149 258.4103,151.1209 241.8473,242.1289 C241.8033,242.3689 241.8163,242.8679 241.1803,243.3899 C240.9983,243.5389 240.5533,243.7489 239.8453,244.0199 Z" id="Stroke-12"></path>
            <g id="Group-16" transform="translate(84.712700, 85.365000)">
                <mask id="mask-6" fill="white">
                    <use xlink:href="#path-5"></use>
                </mask>
                <g id="Clip-15"></g>
                <polygon id="Fill-14" fill="#FF6E61" mask="url(#mask-6)" points="-3.217 21.204 187.427 21.204 187.427 -1.334 -3.217 -1.334"></polygon>
            </g>
            <g id="Group-23" transform="translate(52.535200, 89.443700)">
                <path d="M29.4878,0 L56.0178,0 L213.0228,0 C214.2818,0 215.1368,1.003 214.9328,2.24 L188.8268,160.385 C188.6218,161.622 187.4358,162.625 186.1768,162.625 L12.1448,162.625 C10.8858,162.625 4.2798,161.622 4.4848,160.385 L26.8388,2.24 C27.0428,1.003 28.2288,0 29.4878,0 Z" id="Stroke-17" stroke="#000000"></path>
                <path d="M24.085,19.8692 L51.629,20.0344991 L208.993,20.0344991 L212,19.8692 L188.827,175.390674 C188.622,176.759197 187.433,177.8692 186.171,177.8692 L2.216,177.8692 C0.954,177.8692 0.097,176.759197 0.302,175.390674 L23.404,20.6082408 L24.085,19.8692 Z" id="Fill-19" fill="#06081C"></path>
                <path d="M23.8438562,19.8692 L51.4232023,20.0313605 L208.989141,20.0313605 L212,19.8692 L188.797263,172.437735 C188.592,173.780273 187.401474,174.8692 186.137855,174.8692 L1.94679256,174.8692 C0.683173084,174.8692 -0.17492667,173.780273 0.0303363981,172.437735 L23.1619823,20.5942084 L23.8438562,19.8692 Z" id="Stroke-21" stroke="#000000"></path>
            </g>
            <g id="Group-26" transform="translate(82.830432, 120.056000)">
                <mask id="mask-8" fill="white">
                    <use xlink:href="#path-7"></use>
                </mask>
                <g id="Clip-25"></g>
                <path d="M0.0616679555,24.8199 L3.45766796,3.8779 C3.83466796,1.5509 5.72566796,-0.0001 8.18466796,-0.0001 L28.675668,-0.0001 C31.134668,-0.0001 32.522668,1.5509 32.144668,3.8779 L28.748668,24.8199 C28.371668,27.1469 26.480668,28.6979 24.021668,28.6979 L3.53066796,28.6979 C1.07166796,28.6979 -0.315332045,27.1469 0.0616679555,24.8199 Z" id="Stroke-24" stroke="#6F7CBD" stroke-width="2" mask="url(#mask-8)"></path>
            </g>
            <g id="Group-29" transform="translate(75.695139, 164.060000)">
                <mask id="mask-10" fill="white">
                    <use xlink:href="#path-9"></use>
                </mask>
                <g id="Clip-28"></g>
                <path d="M0.0612612221,24.8203 L3.45726122,3.8783 C3.83426122,1.5513 5.72526122,0.0003 8.18426122,0.0003 L28.6752612,0.0003 C31.1342612,0.0003 32.5222612,1.5513 32.1442612,3.8783 L28.7482612,24.8203 C28.3712612,27.1473 26.4802612,28.6983 24.0212612,28.6983 L3.53026122,28.6983 C1.07126122,28.6983 -0.315738778,27.1473 0.0612612221,24.8203 Z" id="Stroke-27" stroke="#6F7CBD" stroke-width="2" mask="url(#mask-10)"></path>
            </g>
            <g id="Group-32" transform="translate(119.368107, 164.060000)">
                <mask id="mask-12" fill="white">
                    <use xlink:href="#path-11"></use>
                </mask>
                <g id="Clip-31"></g>
                <path d="M0.0610932005,24.8203 L3.4570932,3.8783 C3.8340932,1.5513 5.7260932,0.0003 8.1850932,0.0003 L28.6750932,0.0003 C31.1340932,0.0003 32.5220932,1.5513 32.1450932,3.8783 L28.7490932,24.8203 C28.3720932,27.1473 26.4800932,28.6983 24.0210932,28.6983 L3.5310932,28.6983 C1.0720932,28.6983 -0.315906799,27.1473 0.0610932005,24.8203 Z" id="Stroke-30" stroke="#6F7CBD" stroke-width="2" mask="url(#mask-12)"></path>
            </g>
            <g id="Group-35" transform="translate(68.559400, 208.065000)">
                <mask id="mask-14" fill="white">
                    <use xlink:href="#path-13"></use>
                </mask>
                <g id="Clip-34"></g>
                <path d="M0.0611998052,24.8196 L3.45719981,3.8776 C3.83419981,1.5506 5.72519981,-0.0004 8.18419981,-0.0004 L28.6751998,-0.0004 C31.1341998,-0.0004 32.5221998,1.5506 32.1441998,3.8776 L28.7481998,24.8196 C28.3711998,27.1466 26.4801998,28.6976 24.0211998,28.6976 L3.53019981,28.6976 C1.07119981,28.6976 -0.315800195,27.1466 0.0611998052,24.8196 Z" id="Stroke-33" stroke="#6F7CBD" stroke-width="2" mask="url(#mask-14)"></path>
            </g>
            <g id="Group-38" transform="translate(126.818399, 120.056000)">
                <mask id="mask-16" fill="white">
                    <use xlink:href="#path-15"></use>
                </mask>
                <g id="Clip-37"></g>
                <path d="M0.0615011073,24.8199 L3.45750111,3.8779 C3.83450111,1.5509 5.72550111,-0.0001 8.18450111,-0.0001 L28.6755011,-0.0001 C31.1345011,-0.0001 32.5225011,1.5509 32.1445011,3.8779 L28.7485011,24.8199 C28.3715011,27.1469 26.4805011,28.6979 24.0215011,28.6979 L3.53050111,28.6979 C1.07150111,28.6979 -0.315498893,27.1469 0.0615011073,24.8199 Z" id="Stroke-36" stroke="#6F7CBD" stroke-width="2" mask="url(#mask-16)"></path>
            </g>
            <g id="Group-41" transform="translate(112.546432, 208.065000)">
                <mask id="mask-18" fill="white">
                    <use xlink:href="#path-17"></use>
                </mask>
                <g id="Clip-40"></g>
                <path d="M0.0619679555,24.8196 L3.45796796,3.8776 C3.83496796,1.5506 5.72596796,-0.0004 8.18496796,-0.0004 L28.675968,-0.0004 C31.134968,-0.0004 32.522968,1.5506 32.144968,3.8776 L28.748968,24.8196 C28.371968,27.1466 26.480968,28.6976 24.021968,28.6976 L3.53096796,28.6976 C1.07196796,28.6976 -0.315032045,27.1466 0.0619679555,24.8196 Z" id="Stroke-39" stroke="#6F7CBD" stroke-width="2" mask="url(#mask-18)"></path>
            </g>
            <g id="Group-44" transform="translate(170.805432, 120.056000)">
                <mask id="mask-20" fill="white">
                    <use xlink:href="#path-19"></use>
                </mask>
                <g id="Clip-43"></g>
                <path d="M0.0617679555,24.8199 L3.45776796,3.8779 C3.83476796,1.5509 5.72676796,-0.0001 8.18576796,-0.0001 L28.675768,-0.0001 C31.134768,-0.0001 32.522768,1.5509 32.145768,3.8779 L28.749768,24.8199 C28.372768,27.1469 26.480768,28.6979 24.021768,28.6979 L3.53176796,28.6979 C1.07276796,28.6979 -0.315232045,27.1469 0.0617679555,24.8199 Z" id="Stroke-42" stroke="#6F7CBD" stroke-width="2" mask="url(#mask-20)"></path>
            </g>
            <g id="Group-47" transform="translate(163.670139, 164.060000)">
                <mask id="mask-22" fill="white">
                    <use xlink:href="#path-21"></use>
                </mask>
                <g id="Clip-46"></g>
                <path d="M0.0613612221,24.8203 L3.45736122,3.8783 C3.83436122,1.5513 5.72636122,0.0003 8.18436122,0.0003 L28.6753612,0.0003 C31.1343612,0.0003 32.5223612,1.5513 32.1453612,3.8783 L28.7493612,24.8203 C28.3723612,27.1473 26.4803612,28.6983 24.0213612,28.6983 L3.53136122,28.6983 C1.07236122,28.6983 -0.315638778,27.1473 0.0613612221,24.8203 Z" id="Stroke-45" stroke="#6F7CBD" stroke-width="2" mask="url(#mask-22)"></path>
            </g>
            <g id="Group-50" transform="translate(156.534431, 208.065000)">
                <mask id="mask-24" fill="white">
                    <use xlink:href="#path-23"></use>
                </mask>
                <g id="Clip-49"></g>
                <path d="M0.0612692556,24.8196 L3.45726926,3.8776 C3.83426926,1.5506 5.72626926,-0.0004 8.18426926,-0.0004 L28.6752693,-0.0004 C31.1342693,-0.0004 32.5222693,1.5506 32.1442693,3.8776 L28.7482693,24.8196 C28.3722693,27.1466 26.4802693,28.6976 24.0212693,28.6976 L3.53026926,28.6976 C1.07226926,28.6976 -0.315730744,27.1466 0.0612692556,24.8196 Z" id="Stroke-48" stroke="#6F7CBD" stroke-width="2" mask="url(#mask-24)"></path>
            </g>
            <g id="Group-53" transform="translate(200.207400, 208.065000)">
                <mask id="mask-26" fill="white">
                    <use xlink:href="#path-25"></use>
                </mask>
                <g id="Clip-52"></g>
                <path d="M0.0616998052,24.8196 L3.45769981,3.8776 C3.83469981,1.5506 5.72569981,-0.0004 8.18469981,-0.0004 L28.6756998,-0.0004 C31.1346998,-0.0004 32.5226998,1.5506 32.1446998,3.8776 L28.7486998,24.8196 C28.3716998,27.1466 26.4806998,28.6976 24.0216998,28.6976 L3.53069981,28.6976 C1.07169981,28.6976 -0.315300195,27.1466 0.0616998052,24.8196 Z" id="Stroke-51" stroke="#6F7CBD" stroke-width="2" mask="url(#mask-26)"></path>
            </g>
            <g id="Group-56" transform="translate(214.794105, 120.056000)">
                <mask id="mask-28" fill="white">
                    <use xlink:href="#path-27"></use>
                </mask>
                <g id="Clip-55"></g>
                <path d="M0.060894511,24.8199 L3.45689451,3.8779 C3.83389451,1.5509 5.72489451,-0.0001 8.18389451,-0.0001 L28.6748945,-0.0001 C31.1338945,-0.0001 32.5218945,1.5509 32.1438945,3.8779 L28.7478945,24.8199 C28.3708945,27.1469 26.4798945,28.6979 24.0208945,28.6979 L3.52989451,28.6979 C1.07089451,28.6979 -0.316105489,27.1469 0.060894511,24.8199 Z" id="Stroke-54" stroke="#6F7CBD" stroke-width="2" mask="url(#mask-28)"></path>
            </g>
            <g id="Group-59" transform="translate(207.658367, 164.060000)">
                <mask id="mask-30" fill="white">
                    <use xlink:href="#path-29"></use>
                </mask>
                <g id="Clip-58"></g>
                <path d="M0.0609329885,24.8203 L3.45693299,3.8783 C3.83393299,1.5513 5.72493299,0.0003 8.18393299,0.0003 L28.674933,0.0003 C31.133933,0.0003 32.521933,1.5513 32.143933,3.8783 L28.747933,24.8203 C28.370933,27.1473 26.479933,28.6983 24.020933,28.6983 L3.52993299,28.6983 C1.07093299,28.6983 -0.316067011,27.1473 0.0609329885,24.8203 Z" id="Stroke-57" stroke="#6F7CBD" stroke-width="2" mask="url(#mask-30)"></path>
            </g>
            <line x1="79.3804" y1="109.3671" x2="264.1514" y2="109.3671" id="Stroke-60" stroke="#6F7CBD"></line>
            <g id="Group-64" transform="translate(105.719700, 95.299000)">
                <mask id="mask-32" fill="white">
                    <use xlink:href="#path-31"></use>
                </mask>
                <g id="Clip-63"></g>
                <path d="M4.6705,9.343 C7.2505,9.343 9.3415,7.252 9.3415,4.672 C9.3415,2.092 7.2505,0.001 4.6705,0.001 C2.0905,0.001 -0.0005,2.092 -0.0005,4.672 C-0.0005,7.252 2.0905,9.343 4.6705,9.343 Z" id="Stroke-62" stroke="#6F7CBD" stroke-width="2" mask="url(#mask-32)"></path>
            </g>
            <path d="M120.3995,88.6268 C120.3995,82.7308 115.6195,77.9498 109.7235,77.9498 C103.8265,77.9498 99.0465,82.7308 99.0465,88.6268 C99.0465,94.5228 103.8265,99.3038 109.7235,99.3038" id="Stroke-65" stroke="#6F7CBD"></path>
            <g id="Group-69" transform="translate(148.426700, 95.299000)">
                <mask id="mask-34" fill="white">
                    <use xlink:href="#path-33"></use>
                </mask>
                <g id="Clip-68"></g>
                <path d="M4.6705,9.343 C7.2505,9.343 9.3415,7.252 9.3415,4.672 C9.3415,2.092 7.2505,0.001 4.6705,0.001 C2.0905,0.001 -0.0005,2.092 -0.0005,4.672 C-0.0005,7.252 2.0905,9.343 4.6705,9.343 Z" id="Stroke-67" stroke="#6F7CBD" stroke-width="2" mask="url(#mask-34)"></path>
            </g>
            <path d="M163.1065,88.6268 C163.1065,82.7308 158.3265,77.9498 152.4295,77.9498 C146.5335,77.9498 141.7525,82.7308 141.7525,88.6268 C141.7525,94.5228 146.5335,99.3038 152.4295,99.3038" id="Stroke-70" stroke="#6F7CBD"></path>
            <g id="Group-74" transform="translate(191.133700, 95.299000)">
                <mask id="mask-36" fill="white">
                    <use xlink:href="#path-35"></use>
                </mask>
                <g id="Clip-73"></g>
                <path d="M4.6701,9.343 C7.2501,9.343 9.3411,7.252 9.3411,4.672 C9.3411,2.092 7.2501,0.001 4.6701,0.001 C2.0901,0.001 -0.0009,2.092 -0.0009,4.672 C-0.0009,7.252 2.0901,9.343 4.6701,9.343 Z" id="Stroke-72" stroke="#6F7CBD" stroke-width="2" mask="url(#mask-36)"></path>
            </g>
            <path d="M205.8135,88.6268 C205.8135,82.7308 201.0335,77.9498 195.1365,77.9498 C189.2405,77.9498 184.4595,82.7308 184.4595,88.6268 C184.4595,94.5228 189.2405,99.3038 195.1365,99.3038" id="Stroke-75" stroke="#6F7CBD"></path>
            <g id="Group-79" transform="translate(232.505700, 95.299000)">
                <mask id="mask-38" fill="white">
                    <use xlink:href="#path-37"></use>
                </mask>
                <g id="Clip-78"></g>
                <path d="M4.6706,9.343 C7.2506,9.343 9.3416,7.252 9.3416,4.672 C9.3416,2.092 7.2506,0.001 4.6706,0.001 C2.0906,0.001 -0.0004,2.092 -0.0004,4.672 C-0.0004,7.252 2.0906,9.343 4.6706,9.343 Z" id="Stroke-77" stroke="#6F7CBD" stroke-width="2" mask="url(#mask-38)"></path>
            </g>
            <g id="Group-92" transform="translate(44.742300, 77.949800)">
                <path d="M203.7778,10.677 C203.7778,4.781 198.9978,0 193.1018,0 C187.2048,0 182.4248,4.781 182.4248,10.677 C182.4248,16.573 187.2048,21.354 193.1018,21.354" id="Stroke-80" stroke="#6F7CBD"></path>
                <path d="M30.331,219.0164 L32.862,219.1954 L34.531,219.3064 L36.186,219.4104 L38.642,219.5534 L40.26,219.6404 L41.862,219.7214 L43.446,219.7944 L45.012,219.8614 L46.559,219.9224 L48.086,219.9764 L49.593,220.0234 L51.078,220.0644 L53.264,220.1134 L54.692,220.1384 L56.096,220.1574 L57.474,220.1694 L58.826,220.1754 L60.151,220.1744 L61.449,220.1674 L62.718,220.1544 C62.927,220.1524 63.135,220.1494 63.342,220.1454 L64.566,220.1234 L65.76,220.0954 C65.456,218.8134 65.34,217.4654 65.436,216.0834 C65.545,214.5314 65.914,213.0604 66.497,211.7094 L65.341,211.5184 L64.156,211.3294 L62.94,211.1414 L61.696,210.9554 L60.424,210.7714 L59.124,210.5904 L57.799,210.4114 L56.447,210.2354 L55.071,210.0614 C54.839,210.0334 54.607,210.0044 54.373,209.9754 L52.961,209.8064 L50.801,209.5584 L49.333,209.3974 L47.844,209.2394 L46.335,209.0854 L44.807,208.9344 L43.26,208.7874 L41.695,208.6444 L40.113,208.5064 L38.515,208.3724 L36.902,208.2424 L35.274,208.1174 L33.632,207.9964 L31.967,207.8804 L30.298,207.7694 L28.643,207.6654 L26.186,207.5224 L24.569,207.4344 L22.967,207.3544 L21.383,207.2814 L19.817,207.2134 L18.27,207.1534 L16.743,207.0994 L15.236,207.0524 L13.751,207.0114 L11.565,206.9614 L10.138,206.9364 L8.734,206.9184 L7.356,206.9064 L6.004,206.9004 L4.678,206.9014 L3.381,206.9084 C3.167,206.9094 2.954,206.9114 2.743,206.9134 L1.488,206.9294 L0.264,206.9524 C0.741,208.4894 0.946,210.1404 0.827,211.8434 C0.734,213.1764 0.449,214.4504 0,215.6404 C0.405,215.7044 0.815,215.7694 1.23,215.8334 L2.492,216.0254 L3.783,216.2154 L5.103,216.4024 L6.452,216.5864 L7.828,216.7684 L9.23,216.9484 L10.658,217.1244 L12.111,217.2974 L13.588,217.4674 L15.088,217.6344 L16.611,217.7974 L18.155,217.9564 L19.719,218.1114 L21.303,218.2634 L22.906,218.4104 L24.527,218.5534 C24.799,218.5764 25.071,218.5994 25.344,218.6224 L26.991,218.7584 L28.653,218.8904 L30.331,219.0164 Z" id="Fill-82" fill="#6F7CBD"></path>
                <path d="M30.331,219.0164 L32.862,219.1954 L34.531,219.3064 L36.186,219.4104 L38.642,219.5534 L40.26,219.6404 L41.862,219.7214 L43.446,219.7944 L45.012,219.8614 L46.559,219.9224 L48.086,219.9764 L49.593,220.0234 L51.078,220.0644 L53.264,220.1134 L54.692,220.1384 L56.096,220.1574 L57.474,220.1694 L58.826,220.1754 L60.151,220.1744 L61.449,220.1674 L62.718,220.1544 C62.927,220.1524 63.135,220.1494 63.342,220.1454 L64.566,220.1234 L65.76,220.0954 C65.456,218.8134 65.34,217.4654 65.436,216.0834 C65.545,214.5314 65.914,213.0604 66.497,211.7094 L65.341,211.5184 L64.156,211.3294 L62.94,211.1414 L61.696,210.9554 L60.424,210.7714 L59.124,210.5904 L57.799,210.4114 L56.447,210.2354 L55.071,210.0614 C54.839,210.0334 54.607,210.0044 54.373,209.9754 L52.961,209.8064 L50.801,209.5584 L49.333,209.3974 L47.844,209.2394 L46.335,209.0854 L44.807,208.9344 L43.26,208.7874 L41.695,208.6444 L40.113,208.5064 L38.515,208.3724 L36.902,208.2424 L35.274,208.1174 L33.632,207.9964 L31.967,207.8804 L30.298,207.7694 L28.643,207.6654 L26.186,207.5224 L24.569,207.4344 L22.967,207.3544 L21.383,207.2814 L19.817,207.2134 L18.27,207.1534 L16.743,207.0994 L15.236,207.0524 L13.751,207.0114 L11.565,206.9614 L10.138,206.9364 L8.734,206.9184 L7.356,206.9064 L6.004,206.9004 L4.678,206.9014 L3.381,206.9084 C3.167,206.9094 2.954,206.9114 2.743,206.9134 L1.488,206.9294 L0.264,206.9524 C0.741,208.4894 0.946,210.1404 0.827,211.8434 C0.734,213.1764 0.449,214.4504 0,215.6404 C0.405,215.7044 0.815,215.7694 1.23,215.8334 L2.492,216.0254 L3.783,216.2154 L5.103,216.4024 L6.452,216.5864 L7.828,216.7684 L9.23,216.9484 L10.658,217.1244 L12.111,217.2974 L13.588,217.4674 L15.088,217.6344 L16.611,217.7974 L18.155,217.9564 L19.719,218.1114 L21.303,218.2634 L22.906,218.4104 L24.527,218.5534 C24.799,218.5764 25.071,218.5994 25.344,218.6224 L26.991,218.7584 L28.653,218.8904 L30.331,219.0164 Z" id="Stroke-84" stroke="#6F7CBD" fill="#06081C"></path>
                <path d="M64.7695,220.2874 C65.2605,221.9394 65.1865,222.9874 64.5495,223.4314 C63.5935,224.0964 40.9565,225.0454 34.1265,221.8114 C32.9495,221.2534 32.7895,220.7364 33.6465,220.2584 C48.3395,222.2984 56.7905,222.3014 58.9985,220.2664 C60.2455,220.3534 62.1695,220.3604 64.7695,220.2874" id="Fill-86" fill="#FAFAFC"></path>
                <path d="M64.7695,220.2874 C65.2605,221.9394 65.1865,222.9874 64.5495,223.4314 C63.5935,224.0964 40.9565,225.0454 34.1265,221.8114 C32.9495,221.2534 32.7895,220.7364 33.6465,220.2584 C48.3395,222.2984 56.7905,222.3014 58.9985,220.2664 C60.2455,220.3534 62.1695,220.3604 64.7695,220.2874 Z" id="Stroke-88" stroke="#6F7CBD" fill="#06081C"></path>
                <path d="M71.5512,219.8914 C72.8712,219.9834 74.0162,218.9844 74.1092,217.6594 L74.2772,215.2594 C74.3692,213.9344 73.3752,212.7854 72.0542,212.6924 L66.1472,212.2794 C65.7192,213.4804 65.4462,214.7594 65.3532,216.0944 C65.2722,217.2474 65.3302,218.3784 65.5132,219.4704 L71.5512,219.8914 Z" id="Fill-90" fill="#FAFAFC"></path>
            </g>
            <g id="Group-95" transform="translate(110.059759, 290.229000)">
                <mask id="mask-40" fill="white">
                    <use xlink:href="#path-39"></use>
                </mask>
                <use id="Clip-94" fill="#06081C" xlink:href="#path-39"></use>
                <path d="M6.23374065,7.6122 C7.55374065,7.7042 8.69874065,6.7052 8.79174065,5.3802 L8.95974065,2.9802 C9.05174065,1.6552 8.05774065,0.5062 6.73674065,0.4132 L0.829740653,0.0002 C0.401740653,1.2012 0.128740653,2.4802 0.0357406528,3.8152 C-0.0452593472,4.9682 0.0127406528,6.0992 0.195740653,7.1912 L6.23374065,7.6122 Z" id="Stroke-93" stroke="#6F7CBD" stroke-width="2" fill="#2A3052" mask="url(#mask-40)"></path>
            </g>
            <path d="M45.0332,293.662 C45.4192,292.521 45.6672,291.313 45.7552,290.055 C45.8702,288.404 45.7012,286.799 45.2892,285.288 L44.2562,285.306 L43.5832,285.325 L42.9232,285.351 L42.2762,285.384 L41.6442,285.423 L41.0272,285.468 C40.9252,285.476 40.8242,285.485 40.7232,285.493 L40.1292,285.548 L39.5522,285.608 C39.4562,285.619 39.3622,285.63 39.2692,285.641 L38.7162,285.71 C38.6262,285.722 38.5362,285.735 38.4472,285.747 L37.9212,285.825 L37.4142,285.909 L36.9262,285.998 L36.4582,286.094 C36.3052,286.126 36.1562,286.16 36.0102,286.194 L35.5832,286.3 C35.5142,286.318 35.4462,286.336 35.3782,286.354 L34.9842,286.468 C34.9202,286.487 34.8572,286.507 34.7952,286.526 L34.4342,286.647 C34.3182,286.688 34.2062,286.73 34.0972,286.773 L33.7842,286.904 C32.7292,287.37 32.1242,287.924 32.0802,288.548 C32.0272,289.321 32.8432,290.108 34.3202,290.846 L34.6732,291.015 C34.9762,291.156 35.3042,291.294 35.6542,291.43 L36.0842,291.592 L36.5362,291.751 L37.0082,291.908 L37.4992,292.061 L38.0102,292.212 L38.5392,292.359 C38.6292,292.384 38.7202,292.408 38.8112,292.432 L39.3672,292.574 L39.9412,292.713 L40.5322,292.848 L41.1382,292.978 L41.7612,293.105 L42.3982,293.227 L43.0492,293.345 C43.1592,293.364 43.2692,293.383 43.3802,293.402 L44.0522,293.513 L44.7372,293.619 L45.0332,293.662 Z" id="Fill-96" fill="#FAFAFC"></path>
            <g id="Group-100" transform="translate(32.078180, 285.288000)">
                <mask id="mask-42" fill="white">
                    <use xlink:href="#path-41"></use>
                </mask>
                <use id="Clip-99" fill="#2A3052" xlink:href="#path-41"></use>
                <path d="M12.9550201,8.374 C13.3410201,7.233 13.5890201,6.025 13.6770201,4.767 C13.7920201,3.116 13.6230201,1.511 13.2110201,0 L12.1780201,0.018 L11.5050201,0.037 L10.8450201,0.063 L10.1980201,0.096 L9.56602008,0.135 L8.94902008,0.18 C8.84702008,0.188 8.74602008,0.197 8.64502008,0.205 L8.05102008,0.26 L7.47402008,0.32 C7.37802008,0.331 7.28402008,0.342 7.19102008,0.353 L6.63802008,0.422 C6.54802008,0.434 6.45802008,0.447 6.36902008,0.459 L5.84302008,0.537 L5.33602008,0.621 L4.84802008,0.71 L4.38002008,0.806 C4.22702008,0.838 4.07802008,0.872 3.93202008,0.906 L3.50502008,1.012 C3.43602008,1.03 3.36802008,1.048 3.30002008,1.066 L2.90602008,1.18 C2.84202008,1.199 2.77902008,1.219 2.71702008,1.238 L2.35602008,1.359 C2.24002008,1.4 2.12802008,1.442 2.01902008,1.485 L1.70602008,1.616 C0.651020075,2.082 0.0460200754,2.636 0.00202007542,3.26 C-0.0509799246,4.033 0.765020075,4.82 2.24202008,5.558 L2.59502008,5.727 C2.89802008,5.868 3.22602008,6.006 3.57602008,6.142 L4.00602008,6.304 L4.45802008,6.463 L4.93002008,6.62 L5.42102008,6.773 L5.93202008,6.924 L6.46102008,7.071 C6.55102008,7.096 6.64202008,7.12 6.73302008,7.144 L7.28902008,7.286 L7.86302008,7.425 L8.45402008,7.56 L9.06002008,7.69 L9.68302008,7.817 L10.3200201,7.939 L10.9710201,8.057 C11.0810201,8.076 11.1910201,8.095 11.3020201,8.114 L11.9740201,8.225 L12.6590201,8.331 L12.9550201,8.374 Z" id="Stroke-98" stroke="#6F7CBD" stroke-width="2" mask="url(#mask-42)"></path>
            </g>
            <path d="M77.604,297.1454 C77.496,294.8634 77.487,293.0654 77.578,291.7534 C77.668,290.4404 77.933,288.5044 78.374,285.9464 L76.709,285.8304 L75.04,285.7194 L73.385,285.6154 L71.726,285.5274 C71.332,288.1224 71.087,290.0434 70.992,291.2924 C70.897,292.5414 70.861,294.3204 70.883,296.6284 L71.733,296.7084 L73.396,296.8394 L75.073,296.9664 L77.604,297.1454 Z" id="Stroke-101" stroke="#1F2A3B"></path>
            <g id="Group-109" transform="translate(29.152794, 286.890000)">
                <g id="Group-105">
                    <mask id="mask-44" fill="white">
                        <use xlink:href="#path-43"></use>
                    </mask>
                    <g id="Clip-104"></g>
                    <polygon id="Fill-103" fill="#D8D8D8" mask="url(#mask-44)" points="-1.51359427 4.5454 6.73040573 5.1224 7.17740573 -1.2706 -1.06659427 -1.8476"></polygon>
                </g>
                <g id="Group-108">
                    <mask id="mask-46" fill="white">
                        <use xlink:href="#path-45"></use>
                    </mask>
                    <g id="Clip-107"></g>
                    <path d="M4.96390573,3.208 C5.11190573,2.771 5.20690573,2.308 5.23990573,1.826 C5.28490573,1.193 5.21990573,0.579 5.06190573,0 L4.66690573,0.006 L4.40790573,0.014 L4.15490573,0.024 L3.90790573,0.037 L3.66590573,0.051 L3.42890573,0.069 C3.38990573,0.072 3.35090573,0.075 3.31290573,0.078 L3.08490573,0.099 L2.86390573,0.123 C2.82690573,0.126 2.79090573,0.131 2.75590573,0.135 L2.54390573,0.162 C2.50890573,0.166 2.47490573,0.171 2.44090573,0.176 L2.23890573,0.206 L2.04490573,0.238 L1.85790573,0.272 L1.67790573,0.309 C1.61990573,0.321 1.56290573,0.333 1.50690573,0.347 L1.34290573,0.387 C1.31690573,0.394 1.29090573,0.401 1.26490573,0.408 L1.11390573,0.452 C1.08890573,0.459 1.06490573,0.467 1.04090573,0.474 L0.90290573,0.52 C0.85890573,0.536 0.81590573,0.552 0.77390573,0.569 L0.65390573,0.619 C0.24990573,0.798 0.0179057297,1.01 0.00190572971,1.249 C-0.0190942703,1.545 0.29290573,1.847 0.85990573,2.129 L0.99490573,2.194 C1.11090573,2.248 1.23590573,2.301 1.36990573,2.353 L1.53490573,2.415 L1.70790573,2.476 L1.88890573,2.536 L2.07690573,2.595 L2.27290573,2.653 L2.47590573,2.709 C2.50990573,2.718 2.54490573,2.728 2.57990573,2.737 L2.79390573,2.791 L3.01290573,2.844 L3.23890573,2.896 L3.47190573,2.946 L3.70990573,2.995 L3.95390573,3.041 L4.20390573,3.087 C4.24590573,3.094 4.28790573,3.102 4.33090573,3.108 L4.58790573,3.151 L4.85090573,3.191 L4.96390573,3.208 Z" id="Stroke-106" stroke="#6F7CBD" stroke-width="2" fill="#06081C" mask="url(#mask-46)"></path>
                </g>
            </g>
            <g id="Group-112" transform="translate(72.021441, 284.696000)">
                <mask id="mask-48" fill="white">
                    <use xlink:href="#path-47"></use>
                </mask>
                <g id="Clip-111"></g>
                <polygon id="Fill-110" fill="#FF6E61" mask="url(#mask-48)" points="-1.89204138 12.4894 8.38795862 13.2084 9.37295862 -0.8706 -0.908041379 -1.5896"></polygon>
            </g>
        </g>
    </g>
</svg>