<?xml version="1.0" encoding="UTF-8"?>
<svg width="380px" height="380px" viewBox="0 0 380 380" version="1.1" xmlns="http://www.w3.org/2000/svg" xmlns:xlink="http://www.w3.org/1999/xlink">
    <defs>
        <filter x="-160.7%" y="-160.7%" width="421.4%" height="421.4%" filterUnits="objectBoundingBox" id="filter-1">
            <feGaussianBlur stdDeviation="4" in="SourceGraphic"></feGaussianBlur>
        </filter>
        <filter x="-179.5%" y="-345.4%" width="459.0%" height="790.8%" filterUnits="objectBoundingBox" id="filter-2">
            <feGaussianBlur stdDeviation="2" in="SourceGraphic"></feGaussianBlur>
        </filter>
        <filter x="-179.5%" y="-345.4%" width="459.0%" height="790.8%" filterUnits="objectBoundingBox" id="filter-3">
            <feGaussianBlur stdDeviation="2" in="SourceGraphic"></feGaussianBlur>
        </filter>
        <filter x="-70.9%" y="-70.9%" width="241.8%" height="241.8%" filterUnits="objectBoundingBox" id="filter-4">
            <feGaussianBlur stdDeviation="4" in="SourceGraphic"></feGaussianBlur>
        </filter>
        <filter x="-100.4%" y="-100.4%" width="300.8%" height="300.8%" filterUnits="objectBoundingBox" id="filter-5">
            <feGaussianBlur stdDeviation="4" in="SourceGraphic"></feGaussianBlur>
        </filter>
        <filter x="-141.8%" y="-141.8%" width="383.5%" height="383.5%" filterUnits="objectBoundingBox" id="filter-6">
            <feGaussianBlur stdDeviation="4" in="SourceGraphic"></feGaussianBlur>
        </filter>
        <path d="M4.29242761,8.98947583e-13 L3.54072487,0.126652447 L2.78899913,0.25328189 L2.76677859,0.954654892 C2.46565124,1.08896721 2.18087876,1.26551235 1.92230627,1.48307117 L1.92230627,1.48307117 L1.28205124,1.19726357 L0.840078823,1.81835741 L0.398083407,2.43942825 L0.877895137,2.95068457 C0.757085357,3.26628057 0.683591974,3.59317085 0.655344752,3.92169433 L0.655344752,3.92169433 L-7.56394947e-13,4.17246893 L0.126652447,4.92419468 L0.253304893,5.67592042 L0.954654892,5.69816396 C1.08896721,5.99929131 1.26548935,6.28404079 1.48304816,6.54261328 L1.48304816,6.54261328 L1.19724056,7.18286831 L1.81835741,7.62486373 L2.43945125,8.06683614 L2.95066157,7.58702441 C3.26625756,7.70785719 3.59317085,7.78135058 3.92167132,7.8095978 L3.92167132,7.8095978 L4.17246893,8.46494255 L4.92419468,8.3382901 L5.67589742,8.21163766 L5.69814096,7.51028766 C5.9992683,7.37597534 6.28406379,7.1994302 6.54263628,6.98187138 L6.54263628,6.98187138 L7.18286831,7.26767898 L7.62484072,6.64658514 L8.06683614,6.02549129 L7.58702441,5.51425798 C7.70783419,5.19868499 7.78132757,4.8717717 7.8095748,4.54327123 L7.8095748,4.54327123 L8.46491955,4.29245062 L8.3382901,3.54072487 L8.21163766,2.78902213 L7.51028766,2.76677859 C7.37595233,2.46567425 7.1994072,2.18085576 6.98184838,1.92230627 L6.98184838,1.92230627 L7.26767898,1.28207424 L6.64658514,0.840101826 L6.0255143,0.39810641 L5.51423498,0.877918139 C5.19866198,0.757085357 4.8717717,0.683591974 4.54324822,0.655367754 L4.54324822,0.655367754 L4.29242761,8.98947583e-13 Z M3.32103625,5.51320915 C2.61370691,5.00985912 2.44836096,4.02840492 2.9517114,3.32105681 L2.9517114,3.32105681 C3.45508119,2.6137087 4.4365362,2.44836289 5.14388489,2.95171292 L5.14388489,2.95171292 C5.85121423,3.45508229 6.01657953,4.43655584 5.51320974,5.14390395 L5.51320974,5.14390395 C5.20658364,5.57474712 4.72250131,5.80453272 4.23110638,5.80453272 L4.23110638,5.80453272 C3.91579416,5.80453272 3.59752207,5.70997202 3.32103625,5.51320915 L3.32103625,5.51320915 Z" id="path-7"></path>
        <filter x="-164.9%" y="-155.0%" width="429.7%" height="410.0%" filterUnits="objectBoundingBox" id="filter-9">
            <feGaussianBlur stdDeviation="4" in="SourceGraphic"></feGaussianBlur>
        </filter>
    </defs>
    <g id="Illustrations/380px/feature_key3" stroke="none" stroke-width="1" fill="none" fill-rule="evenodd">
        <g id="Group-2" transform="translate(22.000000, 47.000000)">
            <g id="Group-5">
                <g id="Group-87" transform="translate(73.178942, 0.782007)">
                    <path d="M0.893722195,18.5726644 L0.893722195,4 C0.893722195,1.790861 2.6845832,4.05812251e-16 4.89372219,0 L232.668809,0 C234.877948,1.52910644e-14 236.668809,1.790861 236.668809,4 L236.668809,151.713081 L236.668809,151.713081" id="Rectangle" stroke="#414D86"></path>
                    <line x1="210.86258" y1="173.411831" x2="9.23605467" y2="173.411831" id="Rectangle" stroke="#414D86"></line>
                    <line x1="0.893722195" y1="83.4909664" x2="0.893722195" y2="15.0693244" id="Rectangle" stroke="#414D86"></line>
                    <g id="Group-86" transform="translate(7.904214, 6.427914)" fill="#414D86">
                        <path d="M5.22233114,3.49618119 C5.22233114,4.93010146 4.05887128,6.09356132 2.62495101,6.09356132 C1.18943039,6.09356132 0.0275708854,4.93010146 0.0275708854,3.49618119 C0.0275708854,2.06226092 1.18943039,0.898801061 2.62495101,0.898801061 C4.05887128,0.898801061 5.22233114,2.06226092 5.22233114,3.49618119 Z" id="Stroke-80"></path>
                        <path d="M14.6064142,3.49618119 C14.6064142,4.93010146 13.4429543,6.09356132 12.0090341,6.09356132 C10.5735134,6.09356132 9.41165393,4.93010146 9.41165393,3.49618119 C9.41165393,2.06226092 10.5735134,0.898801061 12.0090341,0.898801061 C13.4429543,0.898801061 14.6064142,2.06226092 14.6064142,3.49618119 Z" id="Stroke-82"></path>
                        <path d="M23.9904972,3.49618119 C23.9904972,4.93010146 22.8270374,6.09356132 21.3931171,6.09356132 C19.9575965,6.09356132 18.795737,4.93010146 18.795737,3.49618119 C18.795737,2.06226092 19.9575965,0.898801061 21.3931171,0.898801061 C22.8270374,0.898801061 23.9904972,2.06226092 23.9904972,3.49618119 Z" id="Stroke-84"></path>
                    </g>
                    <g id="Group-14" transform="translate(71.821058, 47.445477)" fill-rule="nonzero">
                        <g id="Group" transform="translate(0.000000, 79.976668)">
                            <path d="M21.6174276,6.69204152 C20.3238191,6.69204152 19.2714068,5.63962929 19.2714068,4.34602076 C19.2714068,3.05241223 20.3238191,2 21.6174276,2 C22.9110361,2 23.9634483,3.05241223 23.9634483,4.34602076 C23.9634483,5.63962929 22.9110361,6.69204152 21.6174276,6.69204152 Z" id="Shape" fill="#414D86"></path>
                            <path d="M92.7613942,5.17764869 L11.1335721,5.17764869 C10.1474059,5.17764869 10.0138408,4.91506194 10.0138408,4.5911435 C10.0138408,4.26722506 10.1474059,4.00463831 11.1335721,4.00463831 L92.7613942,4.00463831 C93.7475603,4.00463831 94.0138408,4.26722506 94.0138408,4.5911435 C94.0138408,4.91506194 93.7475603,5.17764869 92.7613942,5.17764869 Z" id="Path" fill="#414D86"></path>
                            <polygon id="Shape" fill="#FF6E61" filter="url(#filter-1)" points="-2.02100811e-13 0.795847751 -2.02100811e-13 8.26313375 7.467286 4.52949075"></polygon>
                            <polygon id="Shape" fill="#FF6E61" points="-2.02100811e-13 0.795847751 -2.02100811e-13 8.26313375 7.467286 4.52949075"></polygon>
                        </g>
                        <polygon id="Path" stroke="#414D86" stroke-linejoin="round" points="0.685729753 60.5981884 91.7570226 60.5981884 91.7570226 0 0.685729753 0"></polygon>
                    </g>
                    <g id="noun_Film_1816075" transform="translate(98.821058, 55.217993)" fill="#414D86" fill-rule="nonzero">
                        <g id="Group">
                            <path d="M20.3037568,4.68654802 C29.137556,4.68654802 36.3243296,11.8733115 36.3243296,20.7071158 C36.3243296,29.5409201 29.1375611,36.7276836 20.3037568,36.7276836 C11.4699525,36.7276836 4.28294099,29.5409201 4.28294099,20.7071158 C4.28294099,11.8733115 11.4699575,4.68654802 20.3037568,4.68654802 Z M14.9096044,25.2409211 C14.7571098,25.2409211 14.603628,25.2527858 14.4498983,25.2775022 C13.6852027,25.3986091 13.0136835,25.8098746 12.5586695,26.4366583 C12.1034075,27.0629459 11.9195251,27.8286336 12.040632,28.5933291 C12.1617389,29.3580247 12.5735004,30.029792 13.199788,30.4850489 C13.8260757,30.9393188 14.5917633,31.1256714 15.3567069,31.0025904 C16.1214075,30.8814835 16.7931698,30.469722 17.2481837,29.8434343 C18.1876202,28.5508157 17.8999319,26.7347232 16.6070652,25.7950437 C16.1065767,25.431723 15.516617,25.2409211 14.9096044,25.2409211 Z M25.6976611,25.2409211 C25.0906485,25.2409211 24.5009369,25.431728 24.0004484,25.7950437 C23.3739127,26.2503006 22.9623993,26.9220679 22.8412923,27.6867635 C22.7201854,28.451459 22.9040679,29.2171416 23.3590819,29.8434343 C23.8140958,30.469727 24.4858631,30.8814835 25.2505586,31.0025904 C26.0147632,31.1251804 26.7811899,30.9393188 27.4074775,30.4850489 C28.0337702,30.029792 28.4455267,29.3580247 28.5666336,28.5933291 C28.6877405,27.8286336 28.503858,27.0629459 28.048596,26.4366583 C27.5935821,25.8103656 26.9220628,25.3986091 26.1573673,25.2775022 C26.0038856,25.2527858 25.8501558,25.2409211 25.6976611,25.2409211 Z M20.2469136,18.8045184 C19.1725314,18.8045184 18.2983456,19.6784562 18.2983456,20.7530864 C18.2983456,21.8277167 19.1725314,22.7016544 20.2469136,22.7016544 C21.3212958,22.7016544 22.1954816,21.8277167 22.1954816,20.7530864 C22.1954816,19.6784562 21.3212958,18.8045184 20.2469136,18.8045184 Z M31.7979347,16.972112 C31.3043656,15.4531025 29.6649932,14.6177199 28.1459786,15.111532 C26.625977,15.6053491 25.7913335,17.2439825 26.2851506,18.7639841 C26.5243932,19.50001 27.0360074,20.0991111 27.7258147,20.4505672 C28.415622,20.8025142 29.2005847,20.8638117 29.9371067,20.6245641 C30.6733806,20.3853215 31.2724817,19.8737073 31.6239378,19.184148 C31.9753938,18.4940927 32.0371823,17.708634 31.7979347,16.972112 Z M12.46154,15.111532 C10.9407994,14.6167278 9.30265704,15.4526064 8.80933593,16.972112 C8.57008827,17.708634 8.63187679,18.4940927 8.98333284,19.184148 C9.33478889,19.8737073 9.93389,20.3853164 10.670164,20.6245641 C12.1894215,21.1188773 13.8285509,20.2834947 14.322368,18.7639841 C14.8161852,17.2439825 13.9812936,15.6053491 12.46154,15.111532 Z M20.3037568,8.62125222 C18.7056578,8.62125222 17.4053757,9.92177728 17.4053757,11.5198814 C17.4053757,13.1179854 18.7056578,14.4180195 20.3037568,14.4180195 C21.9018558,14.4180195 23.2021379,13.1179804 23.2021379,11.5198814 C23.2021379,9.92178235 21.9018609,8.62125222 20.3037568,8.62125222 Z" id="Path-3"></path>
                            <path d="M20.3037568,3.67420235 C10.9116286,3.67420235 3.27059531,11.3152357 3.27059531,20.7071158 C3.27059531,30.0989959 10.9116286,37.7400293 20.3037568,37.7400293 C29.6956369,37.7400293 37.3366702,30.0989959 37.3366702,20.7071158 C37.3366702,11.3152357 29.6956369,3.67420235 20.3037568,3.67420235 Z M20.3037568,36.7276836 C11.4699525,36.7276836 4.28294099,29.5409201 4.28294099,20.7071158 C4.28294099,11.8733115 11.4699575,4.68654802 20.3037568,4.68654802 C29.137556,4.68654802 36.3243296,11.8733115 36.3243296,20.7071158 C36.3243296,29.5409201 29.1375611,36.7276836 20.3037568,36.7276836 Z" id="Shape"></path>
                            <path d="M20.3037568,15.4303652 C22.4601796,15.4303652 24.2144836,13.6760612 24.2144836,11.5198814 C24.2144836,9.36321049 22.4601796,7.60890654 20.3037568,7.60890654 C18.147334,7.60890654 16.39303,9.36321049 16.39303,11.5198814 C16.39303,13.6760562 18.147334,15.4303652 20.3037568,15.4303652 Z M20.3037568,8.62125222 C21.9018609,8.62125222 23.2021379,9.92178235 23.2021379,11.5198814 C23.2021379,13.1179804 21.9018558,14.4180195 20.3037568,14.4180195 C18.7056578,14.4180195 17.4053757,13.1179854 17.4053757,11.5198814 C17.4053757,9.92177728 18.7056578,8.62125222 20.3037568,8.62125222 Z" id="Shape"></path>
                            <path d="M15.2852809,19.0763889 C15.9513638,17.0259941 14.8250786,14.8154411 12.7744358,14.1486191 C10.7223099,13.4813011 8.51299198,14.6088214 7.84641802,16.6597122 C7.5236316,17.6532738 7.60717037,18.7125772 8.08121642,19.6433632 C8.55550543,20.5746402 9.36394951,21.2646956 10.3572631,21.587482 C10.7574079,21.7174874 11.163237,21.7792759 11.5628858,21.7792759 C13.2116527,21.7792759 14.7489553,20.727383 15.2852809,19.0763889 Z M10.670164,20.6245641 C9.93389,20.3853164 9.33478889,19.8737073 8.98333284,19.184148 C8.63187679,18.4940927 8.57008827,17.708634 8.80933593,16.972112 C9.30265704,15.4526064 10.9407994,14.6167278 12.46154,15.111532 C13.9812936,15.6053491 14.8161852,17.2439825 14.322368,18.7639841 C13.8285509,20.2834947 12.1894215,21.1188773 10.670164,20.6245641 Z" id="Shape"></path>
                            <path d="M17.2022131,24.976466 C16.357193,24.3625341 15.3245801,24.1124138 14.2917193,24.2775122 C13.2598505,24.4406365 12.3535328,24.9962372 11.7396009,25.8415053 C11.1256689,26.6867735 10.8775278,27.7198823 11.0408951,28.7519991 C11.2042623,29.7836249 11.75962,30.6896895 12.6046452,31.3036265 C13.2801177,31.7944775 14.075958,32.0515172 14.8950267,32.0515172 C15.1009074,32.0515172 15.3080232,32.0356993 15.515139,32.0025804 C16.5467648,31.839456 17.4533254,31.2838554 18.0672574,30.4385873 C19.3346636,28.6941689 18.9466315,26.2438773 17.2022131,24.976466 Z M17.2481837,29.8434343 C16.7931698,30.469722 16.1214075,30.8814835 15.3567069,31.0025904 C14.5917633,31.1256714 13.8260757,30.9393188 13.199788,30.4850489 C12.5735004,30.029792 12.1617389,29.3580247 12.040632,28.5933291 C11.9195251,27.8286336 12.1034075,27.0629459 12.5586695,26.4366583 C13.0136835,25.8098746 13.6852027,25.3986091 14.4498983,25.2775022 C14.603628,25.2527858 14.7571098,25.2409211 14.9096044,25.2409211 C15.516617,25.2409211 16.1065767,25.431723 16.6070652,25.7950437 C17.8999319,26.7347232 18.1876202,28.5508157 17.2481837,29.8434343 Z" id="Shape"></path>
                            <path d="M26.3157994,24.2775122 C25.2831865,24.1134009 24.2505737,24.3625341 23.4053056,24.976466 C22.5602854,25.590398 22.0046798,26.4964677 21.8413125,27.5280935 C21.6779452,28.5602102 21.9260863,29.5938101 22.5400183,30.4385873 C23.1539502,31.2838554 24.0605159,31.8394611 25.0921367,32.0025804 C25.2992525,32.0356993 25.5063683,32.0515172 25.712249,32.0515172 C26.5310747,32.0515172 27.327158,31.7944775 28.0026305,31.3036265 C28.8476506,30.6896946 29.4030083,29.7836249 29.5663806,28.7519991 C29.7297479,27.7198823 29.4816068,26.6867735 28.8676748,25.8415053 C28.2537428,24.9962372 27.3474201,24.4406365 26.3157994,24.2775122 Z M28.5666336,28.5933291 C28.4455267,29.3580247 28.0337702,30.029792 27.4074775,30.4850489 C26.7811899,30.9393188 26.0147632,31.1251804 25.2505586,31.0025904 C24.4858631,30.8814835 23.8140958,30.469727 23.3590819,29.8434343 C22.9040679,29.2171416 22.7201854,28.451459 22.8412923,27.6867635 C22.9623993,26.9220679 23.3739127,26.2503006 24.0004484,25.7950437 C24.5009369,25.431728 25.0906485,25.2409211 25.6976611,25.2409211 C25.8501558,25.2409211 26.0038856,25.2527858 26.1573673,25.2775022 C26.9220628,25.3986091 27.5935821,25.8103656 28.048596,26.4366583 C28.503858,27.0629459 28.6877405,27.8286336 28.5666336,28.5933291 Z" id="Shape"></path>
                            <path d="M27.8330778,14.1486191 C25.7824349,14.8154411 24.6559017,17.0259941 25.3222327,19.0763889 C25.6450191,20.0699505 26.3353174,20.8786426 27.2661035,21.3526836 C27.8241793,21.6369098 28.4284737,21.780754 29.0372123,21.780754 C29.4437805,21.780754 29.8520798,21.7169863 30.2500025,21.5874769 C31.243316,21.2646905 32.0517601,20.5746352 32.5260491,19.6433581 C33.0000901,18.7125721 33.0836289,17.6532688 32.7608475,16.6597072 C32.0942736,14.6088214 29.8837206,13.4817972 27.8330778,14.1486191 Z M31.7979347,16.972112 C32.0371823,17.708634 31.9753938,18.4940927 31.6239378,19.184148 C31.2724817,19.8737073 30.6733806,20.3853215 29.9371067,20.6245641 C29.2005847,20.8638117 28.415622,20.8025142 27.7258147,20.4505672 C27.0360074,20.0991111 26.5243932,19.50001 26.2851506,18.7639841 C25.7913335,17.2439825 26.625977,15.6053491 28.1459786,15.111532 C29.6649932,14.6177199 31.3043656,15.4531025 31.7979347,16.972112 Z" id="Shape"></path>
                            <path d="M20.3037568,0.460202222 C9.13953272,0.460202222 0.0568432099,9.54313975 0.0568432099,20.7071158 C0.0568432099,29.6678328 5.9104537,37.2830109 13.9930621,39.9416837 L0.563016049,39.9416837 C0.283482099,39.9416837 0.0568432099,40.1680796 0.0568432099,40.4478565 C0.0568432099,40.7276335 0.283482099,40.9540294 0.563016049,40.9540294 L19.8141409,40.9540294 C19.8335425,40.9540294 19.8499779,40.9451309 19.8687923,40.9429999 C20.0139323,40.9460875 20.1579031,40.9540294 20.3037517,40.9540294 C31.4679758,40.9540294 40.5506653,31.8710919 40.5506653,20.7071158 C40.5506653,9.54313975 31.4679859,0.460202222 20.3037568,0.460202222 Z M20.3037568,39.9416837 C9.69785654,39.9416837 1.06918889,31.313016 1.06918889,20.7071158 C1.06918889,10.1012156 9.69785654,1.4725479 20.3037568,1.4725479 C30.909657,1.4725479 39.5383247,10.1012156 39.5383247,20.7071158 C39.5383247,31.313016 30.9096621,39.9416837 20.3037568,39.9416837 Z" id="Shape"></path>
                            <path d="M23.2078273,20.7530864 C23.2078273,19.1203804 21.8796196,17.7921727 20.2469136,17.7921727 C18.6142075,17.7921727 17.2859999,19.1203804 17.2859999,20.7530864 C17.2859999,22.3857925 18.6142075,23.7140001 20.2469136,23.7140001 C21.8796196,23.7140001 23.2078273,22.3857925 23.2078273,20.7530864 Z M20.2469136,22.7016544 C19.1725314,22.7016544 18.2983456,21.8277167 18.2983456,20.7530864 C18.2983456,19.6784562 19.1725314,18.8045184 20.2469136,18.8045184 C21.3212958,18.8045184 22.1954816,19.6784562 22.1954816,20.7530864 C22.1954816,21.8277167 21.3212958,22.7016544 20.2469136,22.7016544 Z" id="Shape"></path>
                        </g>
                    </g>
                    <line x1="1.48022739" y1="18.5726644" x2="236.082304" y2="18.5726644" id="Line" stroke="#414D86" stroke-linecap="square"></line>
                </g>
                <g id="woman-writing" transform="translate(77.412302, 160.325260) scale(-1, 1) translate(-77.412302, -160.325260) translate(15.412302, 34.325260)">
                    <path d="M116.351056,245.77988 C116.40053,246.593447 116.900764,249.583625 116.2686,250.424677 C115.108718,251.947367 104.977611,251.870408 104.477378,251.430642 C103.977144,250.990876 103.636325,250.012397 104.043109,249.704561 C104.449892,249.396725 108.413282,248.341287 108.930007,247.934503 C109.446732,247.52772 110.084393,246.336778 109.738077,245.275843 L116.351056,245.77988 Z" id="Path" fill="#414D86" fill-rule="nonzero"></path>
                    <path d="M66.1407876,112.503105 C64.4147065,116.417021 49.9189239,159.05782 50.2542453,165.27501 C50.5895668,171.4922 84.1327089,235.555094 85.9852227,236.231234 C87.8377364,236.907374 95.5336392,234.543632 96.1548085,232.861528 C96.6759217,231.450372 88.0976289,204.315597 85.1225937,189.830182" id="Path" stroke="#414D86" fill-rule="nonzero"></path>
                    <path d="M66.1407876,112.503105 C67.0093252,117.11515 81.4336459,180.716289 81.4336459,180.716289 L107.880066,244.762692 C110.078896,245.834621 116.548951,245.95006 117.681348,245.609241 C118.813745,245.268423 113.37714,183.937574 111.227784,175.246701 C109.502112,168.268984 105.43699,126.755241 103.932428,111.150687" id="Path" stroke="#414D86" fill-rule="nonzero"></path>
                    <path d="M94.964384,234.005983 C95.261226,234.759082 96.9189017,238.452051 96.561592,239.447022 C95.9184344,241.250062 86.2545793,244.262458 85.6444041,243.993101 C85.034229,243.723745 84.4075626,242.893687 84.6989075,242.481406 C84.9902524,242.069126 88.4479116,239.859302 88.8217126,239.309595 C89.1955136,238.759888 89.4813614,236.989576 88.8217126,236.082559 L94.964384,234.005983 Z" id="Path" fill="#414D86" fill-rule="nonzero"></path>
                    <path d="M86.0237022,33.5058211 C86.0237022,38.0098495 86.0237022,40.9731236 86.0237022,42.3956432 L77.2097304,42.3956432 L77.2097304,34.1785881" id="Path" stroke="#414D86" fill="#6F7CBD" fill-rule="nonzero"></path>
                    <path d="M97.2102466,-3.37507799e-14 C99.8909903,-3.37507799e-14 102.064162,2.5644908 102.064162,5.72795052 C102.064162,8.49513643 100.401339,10.8040155 98.1904967,11.3390419 C98.6055157,11.5639186 98.956801,11.8149995 99.2331696,12.0935616 C106.417845,19.3442014 105.285448,33.5926158 106.692698,38.4355375 C109.41375,47.8135447 123.123451,72.6383284 123.123451,80.8839385 C123.123451,100.854806 116.261493,109.24334 105.173895,109.545679 C103.104944,104.538409 101.276843,96.0671634 99.689592,84.1319432 C97.6864041,69.0691119 94.5524838,57.9432906 90.2878312,50.754479 C90.2878312,50.754479 90.2880978,50.7518551 90.2883632,50.746488 L90.2886466,50.7034177 C90.2818407,50.4261251 90.1139522,48.9800739 87.6432351,45.411856 C86.130549,43.2272296 86.0760911,38.0199029 86.1315854,33.3725091 C84.6171948,34.2972706 82.8374529,34.8294573 80.9334122,34.8294573 C75.4110194,34.8294573 70.9342356,30.3526734 70.9342356,24.8302807 C70.9342356,22.2832001 71.8865863,19.958553 73.4546297,18.1929973 C73.0990759,16.9277151 72.9835906,12.5887387 76.6127125,11.0711059 C79.444878,9.88674577 88.1425493,9.12767049 94.0777955,10.1019525 C93.0242048,9.05132963 92.3563308,7.48167967 92.3563308,5.72795052 C92.3563308,2.5644908 94.5295029,-3.37507799e-14 97.2102466,-3.37507799e-14 Z" id="Oval-2" stroke="#414D86" fill="#6F7CBD" fill-rule="nonzero"></path>
                    <ellipse id="Oval" fill="#FF6E61" fill-rule="nonzero" filter="url(#filter-2)" cx="70.8242941" cy="26.1715666" rx="1.67111032" ry="1"></ellipse>
                    <ellipse id="Oval" fill="#FF6E61" fill-rule="nonzero" filter="url(#filter-3)" cx="81.3127103" cy="26.1715666" rx="1.67111032" ry="1"></ellipse>
                    <ellipse id="Oval" fill="#FF6E61" fill-rule="nonzero" cx="81.3127103" cy="26.1715666" rx="1.67111032" ry="1"></ellipse>
                    <ellipse id="Oval" fill="#FF6E61" fill-rule="nonzero" cx="70.8242941" cy="26.1715666" rx="1.67111032" ry="1"></ellipse>
                    <path d="M74.8976256,24.3685265 C74.5842924,24.8137895 72.9791469,26.6827945 74.6722455,27.4413906" id="Path" stroke="#414D86" stroke-width="0.62" stroke-linecap="round"></path>
                    <path d="M78.0584428,29.6237287 C78.7326433,29.4414398 79.3182941,29.0217234 79.7075648,28.441858" id="Path" stroke="#414D86" stroke-width="0.62" stroke-linecap="round"></path>
                    <path d="M97.2102466,0 C99.8909903,0 102.064162,2.5644908 102.064162,5.72795052 C102.064162,8.49513643 100.401339,10.8040155 98.1904967,11.3390419 C98.6055157,11.5639186 98.956801,11.8149995 99.2331696,12.0935616 C106.417845,19.3442014 105.285448,33.5926158 106.692698,38.4355375 C109.41375,47.8135447 123.123451,72.6383284 123.123451,80.8839385 C123.123451,100.854806 116.261493,109.24334 105.173895,109.545679 C103.104944,104.538409 101.276843,96.0671634 99.689592,84.1319432 C97.6864041,69.0691119 94.5524838,57.9432906 90.2878312,50.754479 C90.2878312,50.754479 90.2880978,50.7518551 90.2883632,50.746488 L90.2886466,50.7034177 C90.2818407,50.4261251 90.1139522,48.9800739 87.6432351,45.411856 C84.8636784,41.3976109 87.0076783,27.1775311 85.710369,24.9787017 C84.1107206,22.2576503 78.8445243,16.3318052 76.9150515,16.095431 C76.5467476,16.0459574 74.485345,17.6511028 73.5453455,18.4426814 C73.1440591,17.667594 72.682305,12.7147309 76.6127125,11.0711059 C79.444878,9.88674577 88.1425493,9.12767049 94.0777955,10.1019525 C93.0242048,9.05132963 92.3563308,7.48167967 92.3563308,5.72795052 C92.3563308,2.5644908 94.5295029,0 97.2102466,0 Z" id="Path-5" stroke="#414D86" fill="#414D86" fill-rule="nonzero"></path>
                    <path d="M73.0056466,44.5862892 C75.574624,42.1806237 78.7728286,40.9820333 82.7309552,41.4809161 C85.3494069,41.8162166 87.7496685,43.6732111 89.9242815,46.5605563 C98.9109157,55.3781592 106.176715,90.0722364 106.755253,93.7382205 C109.112424,108.67474 97.2102466,126.207309 97.2102466,126.207309 C97.2102466,126.207309 95.8596873,125.146024 94.4247603,124.029366 L94.0322762,123.724206 C93.1160385,123.012489 92.2122496,122.315381 91.6472083,121.892106 C91.985369,121.359919 93.0069754,115.558631 93.936817,109.54332 C83.1192512,112.042419 67.7717639,114.31975 66.1407876,112.503105 C64.78687,110.995058 61.988787,88.6770966 64.1128452,69.4371362 C61.2103677,70.593661 57.0743845,72.003153 52.9606028,73.3039845 L52.0526011,73.589467 C45.7061378,75.573448 39.6338995,77.2338818 38.479514,77.2338818 C37.3416198,77.2338818 30.5541568,71.4656685 23.5041406,65.1648347 L22.5835271,64.3403966 C14.5996466,57.1765472 6.57955714,49.6229614 6.30514323,49.2427838 C5.77742418,48.5116731 7.94876819,46.2688671 9.37251021,44.8451251 C10.0743406,45.2992507 16.0519055,48.7073515 22.4451391,52.1962528 L23.280997,52.6515489 C30.2594661,56.4455664 37.4793832,60.187457 38.699397,60.187457 C39.8471859,60.187457 46.8564559,57.0325415 54.3184328,53.5258864 L55.2531465,53.0859253 L55.2531465,53.0859253 L56.1902283,52.6435169 C56.5027228,52.4957748 56.8152207,52.3478275 57.1273308,52.1998779 L58.0621062,51.7562249 C64.5919123,48.6534437 70.77814,45.639059 72.9973333,44.5909795 Z" id="Combined-Shape" fill="#414D86" fill-rule="nonzero"></path>
                    <path d="M4.51584583,49.5048896 C7.09943913,49.5048896 9.5728373,47.4813249 9.5728373,45.3500881 C9.5728373,43.2188513 7.2616028,41.3105069 4.67800949,41.3105069 C2.09441619,41.3105069 -1.8189894e-11,43.0382156 -1.8189894e-11,45.1694524 C-1.8189894e-11,47.3006892 1.93225252,49.5048896 4.51584583,49.5048896 Z" id="Oval" stroke="#414D86" fill="#6F7CBD" fill-rule="nonzero"></path>
                    <path d="M82.8189084,70.5604346 C84.3525919,72.4789132 95.6765631,92.9115352 95.6765631,95.9843992 C95.6765631,97.5070886 94.846505,103.630828 93.9339909,109.545679" id="Path" stroke="#121424" stroke-linecap="round" stroke-linejoin="round"></path>
                    <path d="M69.0982131,50.754479 C66.8224247,55.7513188 64.8966921,62.6279215 64.0941194,69.5652282" id="Path" stroke="#000000" stroke-linecap="round" stroke-linejoin="round"></path>
                    <line x1="7.33859304" y1="33.686066" x2="1.69309862" y2="51.5405605" id="Path" stroke="#414D86" stroke-width="2" stroke-linecap="round"></line>
                    <path d="M87.7905298,43.3094676 C92.6994164,48.7053785 93.4615224,50.4128412 98.2053742,59.6009725 C102.949226,68.7891037 102.017463,69.6692261 104.013447,79.1188871 C105.387381,87.0293202 107.064259,86.616068 107.064259,96.933128 C107.064259,101.881463 106.252647,107.206967 105.306202,110.784485" id="Path-2" stroke="#121424" stroke-linecap="round"></path>
                </g>
                <g id="Group-10">
                    <g id="Group-3" transform="translate(6.534078, 31.791933)" fill="#FF6E61">
                        <path d="M8.58485523,0 L7.08144974,0.253304893 L5.57799825,0.506563781 L5.53355718,1.90930978 C4.93130249,2.17793442 4.36175752,2.5310247 3.84461253,2.96614233 L3.84461253,2.96614233 L2.56410247,2.39452713 L1.68015765,3.63671482 L0.796166814,4.8788565 L1.75579027,5.90136914 C1.51417071,6.53256113 1.36718395,7.18634171 1.3106895,7.84338865 L1.3106895,7.84338865 L0,8.34493786 L0.253304893,9.84838935 L0.506609786,11.3518408 L1.90930978,11.3963279 C2.17793442,11.9985826 2.53097869,12.5680816 2.96609633,13.0852266 L2.96609633,13.0852266 L2.39448113,14.3657366 L3.63671482,15.2497275 L4.87890251,16.1336723 L5.90132313,15.1740488 C6.53251513,15.4157144 7.18634171,15.5627012 7.84334265,15.6191956 L7.84334265,15.6191956 L8.34493786,16.9298851 L9.84838935,16.6765802 L11.3517948,16.4232753 L11.3962819,15.0205753 C11.9985366,14.7519507 12.5681276,14.3988604 13.0852726,13.9637428 L13.0852726,13.9637428 L14.3657366,14.535358 L15.2496814,13.2931703 L16.1336723,12.0509826 L15.1740488,11.028516 C15.4156684,10.39737 15.5626551,9.74354339 15.6191496,9.08654245 L15.6191496,9.08654245 L16.9298391,8.58490123 L16.6765802,7.08144974 L16.4232753,5.57804426 L15.0205753,5.53355718 C14.7519047,4.93134849 14.3988144,4.36171152 13.9636968,3.84461253 L13.9636968,3.84461253 L14.535358,2.56414848 L13.2931703,1.68020365 L12.0510286,0.79621282 L11.02847,1.75583628 C10.397324,1.51417071 9.74354339,1.36718395 9.08649645,1.31073551 L9.08649645,1.31073551 L8.58485523,0 Z M6.6420725,11.0264183 C5.22741381,10.0197182 4.89672192,8.05680983 5.9034228,6.64211362 L5.9034228,6.64211362 C6.91016237,5.22741741 8.8730724,4.89672578 10.2877698,5.90342584 L10.2877698,5.90342584 C11.7024285,6.91016458 12.0331591,8.87311168 11.0264195,10.2878079 L11.0264195,10.2878079 C10.4131673,11.1494942 9.44500262,11.6090654 8.46221277,11.6090654 L8.46221277,11.6090654 C7.83158831,11.6090654 7.19504414,11.419944 6.6420725,11.0264183 L6.6420725,11.0264183 Z" id="Clip-2" filter="url(#filter-4)"></path>
                        <path d="M8.58485523,0 L7.08144974,0.253304893 L5.57799825,0.506563781 L5.53355718,1.90930978 C4.93130249,2.17793442 4.36175752,2.5310247 3.84461253,2.96614233 L3.84461253,2.96614233 L2.56410247,2.39452713 L1.68015765,3.63671482 L0.796166814,4.8788565 L1.75579027,5.90136914 C1.51417071,6.53256113 1.36718395,7.18634171 1.3106895,7.84338865 L1.3106895,7.84338865 L0,8.34493786 L0.253304893,9.84838935 L0.506609786,11.3518408 L1.90930978,11.3963279 C2.17793442,11.9985826 2.53097869,12.5680816 2.96609633,13.0852266 L2.96609633,13.0852266 L2.39448113,14.3657366 L3.63671482,15.2497275 L4.87890251,16.1336723 L5.90132313,15.1740488 C6.53251513,15.4157144 7.18634171,15.5627012 7.84334265,15.6191956 L7.84334265,15.6191956 L8.34493786,16.9298851 L9.84838935,16.6765802 L11.3517948,16.4232753 L11.3962819,15.0205753 C11.9985366,14.7519507 12.5681276,14.3988604 13.0852726,13.9637428 L13.0852726,13.9637428 L14.3657366,14.535358 L15.2496814,13.2931703 L16.1336723,12.0509826 L15.1740488,11.028516 C15.4156684,10.39737 15.5626551,9.74354339 15.6191496,9.08654245 L15.6191496,9.08654245 L16.9298391,8.58490123 L16.6765802,7.08144974 L16.4232753,5.57804426 L15.0205753,5.53355718 C14.7519047,4.93134849 14.3988144,4.36171152 13.9636968,3.84461253 L13.9636968,3.84461253 L14.535358,2.56414848 L13.2931703,1.68020365 L12.0510286,0.79621282 L11.02847,1.75583628 C10.397324,1.51417071 9.74354339,1.36718395 9.08649645,1.31073551 L9.08649645,1.31073551 L8.58485523,0 Z M6.6420725,11.0264183 C5.22741381,10.0197182 4.89672192,8.05680983 5.9034228,6.64211362 L5.9034228,6.64211362 C6.91016237,5.22741741 8.8730724,4.89672578 10.2877698,5.90342584 L10.2877698,5.90342584 C11.7024285,6.91016458 12.0331591,8.87311168 11.0264195,10.2878079 L11.0264195,10.2878079 C10.4131673,11.1494942 9.44500262,11.6090654 8.46221277,11.6090654 L8.46221277,11.6090654 C7.83158831,11.6090654 7.19504414,11.419944 6.6420725,11.0264183 L6.6420725,11.0264183 Z" id="Clip-2"></path>
                    </g>
                    <g id="Group-3" transform="translate(7.831129, 17.647539) rotate(-20.000000) translate(-7.831129, -17.647539) translate(1.831129, 11.647539)" fill="#FF6E61">
                        <path d="M6.05989781,0 L4.99867041,0.178803454 L3.93741053,0.357574434 L3.90604036,1.34774808 C3.4809194,1.53736548 3.07888766,1.78660567 2.71384414,2.09374753 L2.71384414,2.09374753 L1.80995469,1.69025445 L1.18599363,2.56709281 L0.562000104,3.44389871 L1.23938137,4.16567233 C1.06882639,4.61121962 0.965071022,5.07271179 0.92519259,5.53650964 L0.92519259,5.53650964 L0,5.89054437 L0.178803454,6.95180425 L0.357606908,8.01306412 L1.34774808,8.04446676 C1.53736548,8.46958773 1.7865732,8.87158699 2.09371505,9.23663051 L2.09371505,9.23663051 L1.69022197,10.14052 L2.56709281,10.7645135 L3.44393118,11.3884745 L4.16563986,10.7110933 C4.61118715,10.8816807 5.07271179,10.9854361 5.53647716,11.0253145 L5.53647716,11.0253145 L5.89054437,11.9505071 L6.95180425,11.7717037 L8.01303165,11.5929002 L8.04443429,10.602759 C8.46955525,10.4131417 8.87161947,10.1639015 9.23666299,9.8567596 L9.23666299,9.8567596 L10.14052,10.2602527 L10.764481,9.38341431 L11.3884745,8.50657595 L10.7110933,7.7848348 C10.8816483,7.33931998 10.9854036,6.87779534 11.0252821,6.41402997 L11.0252821,6.41402997 L11.9504747,6.05993028 L11.7717037,4.99867041 L11.5929002,3.937443 L10.602759,3.90604036 C10.4131092,3.48095188 10.163869,3.07885519 9.85672713,2.71384414 L9.85672713,2.71384414 L10.2602527,1.80998716 L9.38341431,1.18602611 L8.50660842,0.562032579 L7.78480232,1.23941384 C7.33928751,1.06882639 6.87779534,0.965071022 6.41399749,0.925225065 L6.41399749,0.925225065 L6.05989781,0 Z M4.68852176,7.78335409 C3.68993916,7.07274229 3.45650959,5.68715988 4.16712198,4.68855079 L4.16712198,4.68855079 C4.87776168,3.6899417 6.26334522,3.45651232 7.26195514,4.16712412 L7.26195514,4.16712412 C8.26053774,4.87776323 8.49399462,6.26337295 7.78335492,7.26198204 L7.78335492,7.26198204 C7.35047102,7.87023122 6.66706067,8.19463443 5.97332666,8.19463443 L5.97332666,8.19463443 C5.52817999,8.19463443 5.07885468,8.06113696 4.68852176,7.78335409 L4.68852176,7.78335409 Z" id="Clip-2" filter="url(#filter-5)"></path>
                        <path d="M6.05989781,6.66133815e-13 L4.99867041,0.178803454 L3.93741053,0.357574434 L3.90604036,1.34774808 C3.4809194,1.53736548 3.07888766,1.78660567 2.71384414,2.09374753 L2.71384414,2.09374753 L1.80995469,1.69025445 L1.18599363,2.56709281 L0.562000104,3.44389871 L1.23938137,4.16567233 C1.06882639,4.61121962 0.965071022,5.07271179 0.92519259,5.53650964 L0.92519259,5.53650964 L3.23296945e-13,5.89054437 L0.178803454,6.95180425 L0.357606908,8.01306412 L1.34774808,8.04446676 C1.53736548,8.46958773 1.7865732,8.87158699 2.09371505,9.23663051 L2.09371505,9.23663051 L1.69022197,10.14052 L2.56709281,10.7645135 L3.44393118,11.3884745 L4.16563986,10.7110933 C4.61118715,10.8816807 5.07271179,10.9854361 5.53647716,11.0253145 L5.53647716,11.0253145 L5.89054437,11.9505071 L6.95180425,11.7717037 L8.01303165,11.5929002 L8.04443429,10.602759 C8.46955525,10.4131417 8.87161947,10.1639015 9.23666299,9.8567596 L9.23666299,9.8567596 L10.14052,10.2602527 L10.764481,9.38341431 L11.3884745,8.50657595 L10.7110933,7.7848348 C10.8816483,7.33931998 10.9854036,6.87779534 11.0252821,6.41402997 L11.0252821,6.41402997 L11.9504747,6.05993028 L11.7717037,4.99867041 L11.5929002,3.937443 L10.602759,3.90604036 C10.4131092,3.48095188 10.163869,3.07885519 9.85672713,2.71384414 L9.85672713,2.71384414 L10.2602527,1.80998716 L9.38341431,1.18602611 L8.50660842,0.562032579 L7.78480232,1.23941384 C7.33928751,1.06882639 6.87779534,0.965071022 6.41399749,0.925225065 L6.41399749,0.925225065 L6.05989781,6.66133815e-13 Z M4.68852176,7.78335409 C3.68993916,7.07274229 3.45650959,5.68715988 4.16712198,4.68855079 L4.16712198,4.68855079 C4.87776168,3.6899417 6.26334522,3.45651232 7.26195514,4.16712412 L7.26195514,4.16712412 C8.26053774,4.87776323 8.49399462,6.26337295 7.78335492,7.26198204 L7.78335492,7.26198204 C7.35047102,7.87023122 6.66706067,8.19463443 5.97332666,8.19463443 L5.97332666,8.19463443 C5.52817999,8.19463443 5.07885468,8.06113696 4.68852176,7.78335409 L4.68852176,7.78335409 Z" id="Clip-2"></path>
                    </g>
                    <g id="Group-3" transform="translate(24.079449, 5.863255) rotate(15.000000) translate(-24.079449, -5.863255) translate(19.579449, 1.363255)">
                        <path d="M4.29242761,0 L3.54072487,0.126652447 L2.78899913,0.25328189 L2.76677859,0.954654892 C2.46565124,1.08896721 2.18087876,1.26551235 1.92230627,1.48307117 L1.92230627,1.48307117 L1.28205124,1.19726357 L0.840078823,1.81835741 L0.398083407,2.43942825 L0.877895137,2.95068457 C0.757085357,3.26628057 0.683591974,3.59317085 0.655344752,3.92169433 L0.655344752,3.92169433 L0,4.17246893 L0.126652447,4.92419468 L0.253304893,5.67592042 L0.954654892,5.69816396 C1.08896721,5.99929131 1.26548935,6.28404079 1.48304816,6.54261328 L1.48304816,6.54261328 L1.19724056,7.18286831 L1.81835741,7.62486373 L2.43945125,8.06683614 L2.95066157,7.58702441 C3.26625756,7.70785719 3.59317085,7.78135058 3.92167132,7.8095978 L3.92167132,7.8095978 L4.17246893,8.46494255 L4.92419468,8.3382901 L5.67589742,8.21163766 L5.69814096,7.51028766 C5.9992683,7.37597534 6.28406379,7.1994302 6.54263628,6.98187138 L6.54263628,6.98187138 L7.18286831,7.26767898 L7.62484072,6.64658514 L8.06683614,6.02549129 L7.58702441,5.51425798 C7.70783419,5.19868499 7.78132757,4.8717717 7.8095748,4.54327123 L7.8095748,4.54327123 L8.46491955,4.29245062 L8.3382901,3.54072487 L8.21163766,2.78902213 L7.51028766,2.76677859 C7.37595233,2.46567425 7.1994072,2.18085576 6.98184838,1.92230627 L6.98184838,1.92230627 L7.26767898,1.28207424 L6.64658514,0.840101826 L6.0255143,0.39810641 L5.51423498,0.877918139 C5.19866198,0.757085357 4.8717717,0.683591974 4.54324822,0.655367754 L4.54324822,0.655367754 L4.29242761,0 Z M3.32103625,5.51320915 C2.61370691,5.00985912 2.44836096,4.02840492 2.9517114,3.32105681 L2.9517114,3.32105681 C3.45508119,2.6137087 4.4365362,2.44836289 5.14388489,2.95171292 L5.14388489,2.95171292 C5.85121423,3.45508229 6.01657953,4.43655584 5.51320974,5.14390395 L5.51320974,5.14390395 C5.20658364,5.57474712 4.72250131,5.80453272 4.23110638,5.80453272 L4.23110638,5.80453272 C3.91579416,5.80453272 3.59752207,5.70997202 3.32103625,5.51320915 L3.32103625,5.51320915 Z" id="Clip-2" fill="#FF6E61" filter="url(#filter-6)"></path>
                        <mask id="mask-8" fill="white">
                            <use xlink:href="#path-7"></use>
                        </mask>
                        <use id="Clip-2" fill="#FF6E61" xlink:href="#path-7"></use>
                    </g>
                </g>
            </g>
            <g id="speech-modal-1" transform="translate(284.041522, 152.491349)">
                <path d="M4.75148656,0 C2.14319569,0 0.0287581567,2.24911508 0.0287581567,5.02353913 L0.0287581567,30.4335381 C0.0287581567,33.2079622 2.14319569,35.4570773 4.75148656,35.4570773 L37.8233668,35.4570773 L46.5977999,47.2443802 L46.543479,35.436684 L48.6108709,35.436684 C51.2191618,35.436684 53.3335993,33.1875689 53.3335993,30.4131449 L53.3335993,5.0133425 C53.3283127,2.24290131 51.2154228,0 48.6108709,0 L4.75148656,0 Z" id="Path" stroke="#414D86" stroke-linecap="round" stroke-linejoin="round"></path>
                <path d="M2.42175921,9.48966255 C2.42175921,7.35159151 4.05122088,5.61834248 6.06126371,5.61834248 C8.07130654,5.61834248 9.70076821,7.35159151 9.70076821,9.48966255 C9.70076821,11.6277336 8.07130654,13.3609826 6.06126371,13.3609826 C4.05122088,13.3609826 2.42175921,11.6277336 2.42175921,9.48966255 Z" id="Path" fill="#FF6E61" filter="url(#filter-9)"></path>
                <path d="M2.42175921,9.48966255 C2.42175921,7.35159151 4.05122088,5.61834248 6.06126371,5.61834248 C8.07130654,5.61834248 9.70076821,7.35159151 9.70076821,9.48966255 C9.70076821,11.6277336 8.07130654,13.3609826 6.06126371,13.3609826 C4.05122088,13.3609826 2.42175921,11.6277336 2.42175921,9.48966255 Z" id="Path" fill="#FF6E61"></path>
                <path d="M3.59476959,9.48966255 C3.59476959,7.35159151 5.22423126,5.61834248 7.23427409,5.61834248 C9.24431692,5.61834248 10.8737786,7.35159151 10.8737786,9.48966255 C10.8737786,11.6277336 9.24431692,13.3609826 7.23427409,13.3609826 C5.22423126,13.3609826 3.59476959,11.6277336 3.59476959,9.48966255 Z" id="Path" stroke="#414D86" stroke-linecap="round" stroke-linejoin="round"></path>
                <line x1="14.3790784" y1="9.48966255" x2="39.9642518" y2="9.48966255" id="Path" stroke="#414D86" stroke-linecap="round" stroke-linejoin="round"></line>
                <line x1="6.97545068" y1="19.1934543" x2="44.8595291" y2="19.1934543" id="Path" stroke="#414D86" stroke-linecap="round" stroke-linejoin="round"></line>
            </g>
        </g>
    </g>
</svg>
