<?xml version="1.0" encoding="UTF-8"?>
<svg width="380px" height="380px" viewBox="0 0 380 380" version="1.1" xmlns="http://www.w3.org/2000/svg" xmlns:xlink="http://www.w3.org/1999/xlink">

    <defs>
        <filter x="-123.5%" y="-116.7%" width="347.1%" height="333.3%" filterUnits="objectBoundingBox" id="filter-1">
            <feGaussianBlur stdDeviation="7" in="SourceGraphic"></feGaussianBlur>
        </filter>
        <rect id="path-2" x="0" y="0" width="62" height="46" rx="2"></rect>
        <filter x="-132.2%" y="-132.2%" width="364.4%" height="364.4%" filterUnits="objectBoundingBox" id="filter-4">
            <feGaussianBlur stdDeviation="3" in="SourceGraphic"></feGaussianBlur>
        </filter>
        <filter x="-327.0%" y="-218.0%" width="754.0%" height="536.0%" filterUnits="objectBoundingBox" id="filter-5">
            <feGaussianBlur stdDeviation="3" in="SourceGraphic"></feGaussianBlur>
        </filter>
        <filter x="-327.0%" y="-218.0%" width="754.0%" height="536.0%" filterUnits="objectBoundingBox" id="filter-6">
            <feGaussianBlur stdDeviation="3" in="SourceGraphic"></feGaussianBlur>
        </filter>
        <filter x="-327.0%" y="-218.0%" width="754.0%" height="536.0%" filterUnits="objectBoundingBox" id="filter-7">
            <feGaussianBlur stdDeviation="3" in="SourceGraphic"></feGaussianBlur>
        </filter>
        <filter x="-74.8%" y="-74.8%" width="249.7%" height="249.7%" filterUnits="objectBoundingBox" id="filter-8">
            <feGaussianBlur stdDeviation="7" in="SourceGraphic"></feGaussianBlur>
        </filter>
        <filter x="-158.4%" y="-158.4%" width="416.8%" height="416.8%" filterUnits="objectBoundingBox" id="filter-9">
            <feGaussianBlur stdDeviation="7" in="SourceGraphic"></feGaussianBlur>
        </filter>
        <filter x="-210.9%" y="-210.9%" width="521.8%" height="521.7%" filterUnits="objectBoundingBox" id="filter-10">
            <feGaussianBlur stdDeviation="7" in="SourceGraphic"></feGaussianBlur>
        </filter>
        <filter x="-127.7%" y="-245.8%" width="355.3%" height="591.6%" filterUnits="objectBoundingBox" id="filter-11">
            <feGaussianBlur stdDeviation="1" in="SourceGraphic"></feGaussianBlur>
        </filter>
        <filter x="-127.7%" y="-245.8%" width="355.3%" height="591.6%" filterUnits="objectBoundingBox" id="filter-12">
            <feGaussianBlur stdDeviation="1" in="SourceGraphic"></feGaussianBlur>
        </filter>
        <filter x="-63.2%" y="-123.9%" width="226.3%" height="347.9%" filterUnits="objectBoundingBox" id="filter-13">
            <feGaussianBlur stdDeviation="7" in="SourceGraphic"></feGaussianBlur>
        </filter>
        <filter x="-75.0%" y="-939.2%" width="250.0%" height="1978.5%" filterUnits="objectBoundingBox" id="filter-14">
            <feGaussianBlur stdDeviation="2" in="SourceGraphic"></feGaussianBlur>
        </filter>
    </defs>
    <g id="Illustrations/380px/feature_key1" stroke="none" stroke-width="1" fill="none" fill-rule="evenodd">
        <g id="Group-8" transform="translate(24.998451, 42.000000)">
            <g id="Group-7" transform="translate(64.496938, 15.935268)">
                <g id="undraw_media_player_ylg8">
                    <polygon id="Triangle" fill="#FF6E61" filter="url(#filter-1)" transform="translate(160.394585, 8.500000) rotate(-90.000000) translate(-160.394585, -8.500000) " points="168.394006 16.9431764 151.894585 17.5 168.894585 -0.5"></polygon>
                    <polygon id="Triangle" fill="#FF6E61" transform="translate(160.394585, 8.500000) rotate(-90.000000) translate(-160.394585, -8.500000) " points="168.394006 16.9431764 151.894585 17.5 168.894585 -0.5"></polygon>
                    <path d="M167.376752,0.0647322961 C168.481321,0.0647322961 169.376752,0.960162796 169.376752,2.0647323 L169.376,29.9647323 L135.50461,29.9647323 C134.450249,29.9647323 133.586445,30.7806101 133.510096,31.81547 L133.50461,31.9647323 L133.50461,74.1647323 C133.50461,75.2693018 134.400041,76.1647323 135.50461,76.1647323 L135.50461,76.1647323 L169.376,76.1647323 L169.376752,158.077767 C159.533916,158.316176 149.90468,158.609687 140.489044,158.9583 C128.313618,159.822954 125.279331,160.430455 123.08558,161.177837 L122.911716,161.237934 C122.854254,161.25807 122.797232,161.278314 122.740493,161.298672 L122.570968,161.360098 L122.570968,161.360098 L122.402196,161.422256 C122.374078,161.432679 122.345951,161.443135 122.317797,161.453624 C120.567591,162.266968 119.169627,163.137337 118.123903,164.064732 L68.5813328,164.064785 C69.1570014,165.5703 69.4738091,167.177949 69.5024782,168.820399 C69.63742,176.551207 63.479753,182.927658 55.7489442,183.0626 C48.0181353,183.197542 41.6416845,177.039875 41.5067427,169.309066 C41.4744918,167.461411 41.8016777,165.691118 42.4238716,164.064904 L34.471763,164.064732 C33.3671935,164.064732 32.471763,163.169302 32.471763,162.064732 L32.4715804,108.079348 C30.0481364,108.932879 25.6947909,110.358904 21.091309,111.842093 L20.1953563,112.130472 L18.8456205,112.5639 L18.8456205,112.5639 L17.9459025,112.852205 L17.5911176,112.965767 L17.5911176,112.965767 L16.8837513,113.191985 C9.94573601,115.409504 3.5965481,117.401865 3.5965481,117.401865 C3.17249234,114.891684 2.76994743,113.113353 2.38891335,112.066871 C1.92183291,110.784069 1.12552845,109.209295 0,107.34255 L0.0546719678,107.327943 L0.214133504,107.288371 C1.62343868,106.948606 8.23621414,105.533724 15.1168192,104.070337 L16.5263865,103.770657 C16.6830725,103.737356 16.839723,103.704066 16.99628,103.6708 L17.9340379,103.471576 L18.8500972,103.277026 C24.0223977,102.178715 28.8344704,101.159478 31.1294009,100.667952 L31.5078201,100.586781 L31.5078201,100.586781 L31.5046105,100.581346 C31.7022006,100.540804 32.0344421,100.468655 32.4704704,100.372089 L32.471763,2.0647323 C32.471763,0.960162796 33.3671935,0.0647322961 34.471763,0.0647322961 L167.376752,0.0647322961 Z" id="Rectangle-2" stroke="#414D86"></path>
                    <line x1="50.1265617" y1="41.5647323" x2="133.20461" y2="41.5647323" id="Line" stroke="#414D86" stroke-linecap="round"></line>
                    <line x1="50.1265617" y1="51.0647323" x2="133.30461" y2="51.0647323" id="Line-Copy" stroke="#414D86" stroke-linecap="round"></line>
                    <line x1="50.1265617" y1="60.5647323" x2="133.00461" y2="60.5647323" id="Line-Copy-2" stroke="#414D86" stroke-linecap="round"></line>
                    <line x1="50.1265617" y1="70.0647323" x2="133.00461" y2="70.0647323" id="Line-Copy-3" stroke="#414D86" stroke-linecap="round"></line>
                    <line x1="50.1265617" y1="79.5647323" x2="150.882659" y2="79.5647323" id="Line-Copy-4" stroke="#414D86" stroke-linecap="round"></line>
                    <line x1="50.1265617" y1="89.0647323" x2="117.00461" y2="89.0647323" id="Line-Copy-5" stroke="#414D86" stroke-linecap="round"></line>
                </g>
                <g id="Rectangle-2-Copy" transform="translate(133.504610, 30.064732)">
                    <mask id="mask-3" fill="white">
                        <use xlink:href="#path-2"></use>
                    </mask>
                    <use id="Rectangle" stroke="#414D86" stroke-width="0.8" xlink:href="#path-2"></use>
                    <g id="Group" transform="translate(15.000000, 12.000000)">
                        <g id="Group-2" transform="translate(10.862959, 0.000000)">
                            <path d="M3.82081523,0.796514778 C5.71052707,0.796514778 7.2241929,2.31018401 7.2241929,4.19989245 C7.2241929,6.08960088 5.71052707,7.60327011 3.82081523,7.60327011 C1.93110339,7.60327011 0.417437561,6.08960088 0.417437561,4.19989245 C0.417437561,2.31018401 1.93110339,0.796514778 3.82081523,0.796514778 Z" id="Path" fill="#FF746C" fill-rule="nonzero" filter="url(#filter-4)"></path>
                            <path d="M3.82081523,0.796514778 C5.71052707,0.796514778 7.2241929,2.31018401 7.2241929,4.19989245 C7.2241929,6.08960088 5.71052707,7.60327011 3.82081523,7.60327011 C1.93110339,7.60327011 0.417437561,6.08960088 0.417437561,4.19989245 C0.417437561,2.31018401 1.93110339,0.796514778 3.82081523,0.796514778 Z" id="Path" fill="#FF746C" fill-rule="nonzero"></path>
                            <circle id="Oval" stroke="#414D86" cx="4.10439234" cy="3.88957448" r="3.88957448"></circle>
                        </g>
                        <polyline id="Path-5" stroke="#414D86" fill="#6F7CBD" stroke-linecap="round" stroke-linejoin="round" points="14.098908 17.4853852 21.5655829 10.0729785 37.1894548 24.9538227 9.33035916e-14 24.9538227"></polyline>
                        <polyline id="Path-4" stroke="#414D86" fill="#6F7CBD" stroke-linecap="round" stroke-linejoin="round" points="-5.90863757e-14 24.9538227 10.4867297 14.4439141 18.1774019 21.3926596"></polyline>
                    </g>
                </g>
                <g id="Group-3" transform="translate(50.504610, 11.064732)" stroke-width="0.8">
                    <g id="Group-4" transform="translate(5.035714, 3.035714)" fill-rule="nonzero">
                        <circle id="Oval" stroke="#414D86" cx="5.6948325" cy="5.6948325" r="5.6948325"></circle>
                        <polygon id="Path" stroke="#FF746C" fill="#FF746C" stroke-linejoin="round" filter="url(#filter-5)" points="4.52329905 7.93612779 4.52329905 3.62398432 7.39806137 5.78005605"></polygon>
                        <polygon id="Path" stroke="#FF746C" fill="#FF746C" stroke-linejoin="round" points="4.52329905 7.93612779 4.52329905 3.62398432 7.39806137 5.78005605"></polygon>
                    </g>
                    <g id="Rectangle-2-Copy-2" stroke="#414D86">
                        <path d="M17,17 L17,18 C17,18.5522847 16.5522847,19 16,19 L1,19 C0.44771525,19 6.76353751e-17,18.5522847 0,18 L0,3 C-6.76353751e-17,2.44771525 0.44771525,2 1,2 L2,2 L2,16 C2,16.5128358 2.38604019,16.9355072 2.88337887,16.9932723 L3,17 L17,17 Z" id="Rectangle-3" fill="#414D86"></path>
                        <rect id="Rectangle" x="2" y="0" width="17" height="17" rx="1"></rect>
                    </g>
                </g>
                <g id="Group-3-Copy" transform="translate(72.504610, 11.064732)" stroke-width="0.8">
                    <g id="Group-4" transform="translate(5.035714, 3.035714)" fill-rule="nonzero">
                        <circle id="Oval" stroke="#414D86" cx="5.6948325" cy="5.6948325" r="5.6948325"></circle>
                        <polygon id="Path" stroke="#FF746C" fill="#FF746C" stroke-linejoin="round" filter="url(#filter-6)" points="4.52329905 7.93612779 4.52329905 3.62398432 7.39806137 5.78005605"></polygon>
                        <polygon id="Path" stroke="#FF746C" fill="#FF746C" stroke-linejoin="round" points="4.52329905 7.93612779 4.52329905 3.62398432 7.39806137 5.78005605"></polygon>
                    </g>
                    <g id="Rectangle-2-Copy-2" stroke="#414D86">
                        <path d="M17,17 L17,18 C17,18.5522847 16.5522847,19 16,19 L1,19 C0.44771525,19 6.76353751e-17,18.5522847 0,18 L0,3 C-6.76353751e-17,2.44771525 0.44771525,2 1,2 L2,2 L2,16 C2,16.5128358 2.38604019,16.9355072 2.88337887,16.9932723 L3,17 L17,17 Z" id="Rectangle-3" fill="#414D86"></path>
                        <rect id="Rectangle" x="2" y="0" width="17" height="17" rx="1"></rect>
                    </g>
                </g>
                <g id="Group-3-Copy-2" transform="translate(94.504610, 11.064732)" stroke-width="0.8">
                    <g id="Group-4" transform="translate(5.035714, 3.035714)" fill-rule="nonzero">
                        <circle id="Oval" stroke="#414D86" cx="5.6948325" cy="5.6948325" r="5.6948325"></circle>
                        <polygon id="Path" stroke="#FF746C" fill="#FF746C" stroke-linejoin="round" filter="url(#filter-7)" points="4.52329905 7.93612779 4.52329905 3.62398432 7.39806137 5.78005605"></polygon>
                        <polygon id="Path" stroke="#FF746C" fill="#FF746C" stroke-linejoin="round" points="4.52329905 7.93612779 4.52329905 3.62398432 7.39806137 5.78005605"></polygon>
                    </g>
                    <g id="Rectangle-2-Copy-2" stroke="#414D86">
                        <path d="M17,17 L17,18 C17,18.5522847 16.5522847,19 16,19 L1,19 C0.44771525,19 6.76353751e-17,18.5522847 0,18 L0,3 C-6.76353751e-17,2.44771525 0.44771525,2 1,2 L2,2 L2,16 C2,16.5128358 2.38604019,16.9355072 2.88337887,16.9932723 L3,17 L17,17 Z" id="Rectangle-3" fill="#414D86"></path>
                        <rect id="Rectangle" x="2" y="0" width="17" height="17" rx="1"></rect>
                    </g>
                </g>
                <path d="M55.5046105,155.032474 C63.2544126,155.032474 69.5368685,161.31493 69.5368685,169.064732 C69.5368685,172.786319 68.0584742,176.355478 65.4269153,178.987037 C62.7953564,181.618596 59.2261967,183.09699 55.5046105,183.09699 C47.7548083,183.09699 41.4723524,176.814534 41.4723524,169.064732 C41.4723524,161.31493 47.7548083,155.032474 55.5046105,155.032474 Z M55.5046105,157.9357 C49.3582157,157.9357 44.3755782,162.918337 44.3755782,169.064732 C44.3755782,175.211127 49.3582157,180.193765 55.5046105,180.193765 C58.4562133,180.193765 61.2869262,179.021245 63.3740246,176.934146 C65.461123,174.847048 66.6336427,172.016335 66.6336427,169.064732 C66.6336427,162.918337 61.6510053,157.9357 55.5046105,157.9357 Z" id="Path-3" fill="#FF6E61" fill-rule="nonzero" filter="url(#filter-8)"></path>
                <path d="M55.5046105,155.032474 C63.2544126,155.032474 69.5368685,161.31493 69.5368685,169.064732 C69.5368685,172.786319 68.0584742,176.355478 65.4269153,178.987037 C62.7953564,181.618596 59.2261967,183.09699 55.5046105,183.09699 C47.7548083,183.09699 41.4723524,176.814534 41.4723524,169.064732 C41.4723524,161.31493 47.7548083,155.032474 55.5046105,155.032474 Z M55.5046105,157.9357 C49.3582157,157.9357 44.3755782,162.918337 44.3755782,169.064732 C44.3755782,175.211127 49.3582157,180.193765 55.5046105,180.193765 C58.4562133,180.193765 61.2869262,179.021245 63.3740246,176.934146 C65.461123,174.847048 66.6336427,172.016335 66.6336427,169.064732 C66.6336427,162.918337 61.6510053,157.9357 55.5046105,157.9357 Z" id="Path-3" fill="#FF6E61" fill-rule="nonzero"></path>
                <path d="M55.9884814,168.580861 L55.9884814,162.290539 C57.8707395,162.484087 59.3271911,163.800216 59.3271911,165.387313 C59.3271911,165.654547 59.5438275,165.871184 59.8110621,165.871184 C60.0782966,165.871184 60.294933,165.654547 60.294933,165.387313 C60.294933,163.282474 58.4223524,161.540539 55.9884814,161.317958 L55.9884814,160.355055 C55.9884814,160.08782 55.771845,159.871184 55.5046105,159.871184 C55.2373759,159.871184 55.0207395,160.08782 55.0207395,160.355055 L55.0207395,161.322797 C52.6013847,161.511506 50.6659008,163.258281 50.6659008,165.4357 C50.6659008,167.613119 52.6013847,169.306668 55.0207395,169.509894 L55.0207395,175.800216 C53.1384814,175.606668 51.6820298,174.290539 51.6820298,172.703442 C51.6820298,172.436207 51.4653934,172.219571 51.1981589,172.219571 C50.9309243,172.219571 50.7142879,172.436207 50.7142879,172.703442 C50.7142879,174.808281 52.5868685,176.57441 55.0207395,176.772797 L55.0207395,177.740539 C55.0207395,178.007773 55.2373759,178.22441 55.5046105,178.22441 C55.771845,178.22441 55.9884814,178.007773 55.9884814,177.740539 L55.9884814,176.806668 C58.4078363,176.617958 60.3433201,174.871184 60.3433201,172.693765 C60.3433201,170.516345 58.4078363,168.788926 55.9884814,168.580861 Z M51.6336427,165.39699 C51.6336427,163.805055 53.0852556,162.493765 55.0207395,162.295377 L55.0207395,168.580861 C53.1191266,168.382474 51.6336427,167.056668 51.6336427,165.416345 L51.6336427,165.39699 Z M55.9884814,175.838926 L55.9884814,169.572797 C57.8900943,169.74699 59.3755782,171.072797 59.3755782,172.713119 C59.3755782,174.353442 57.9239653,175.621184 55.9884814,175.838926 Z M55.5046105,154.064732 C47.2203392,154.064732 40.5046105,160.780461 40.5046105,169.064732 C40.5046105,177.349004 47.2203392,184.064732 55.5046105,184.064732 C63.7888817,184.064732 70.5046105,177.349004 70.5046105,169.064732 C70.5046105,165.086485 68.9242579,161.271176 66.1112122,158.458131 C63.2981665,155.645085 59.4828578,154.064732 55.5046105,154.064732 Z M55.5046105,183.09699 C47.7548083,183.09699 41.4723524,176.814534 41.4723524,169.064732 C41.4723524,161.31493 47.7548083,155.032474 55.5046105,155.032474 C63.2544126,155.032474 69.5368685,161.31493 69.5368685,169.064732 C69.5368685,172.786319 68.0584742,176.355478 65.4269153,178.987037 C62.7953564,181.618596 59.2261967,183.09699 55.5046105,183.09699 Z M55.5046105,156.967958 C48.8237466,156.967958 43.4078363,162.383868 43.4078363,169.064732 C43.4078363,175.745596 48.8237466,181.161506 55.5046105,181.161506 C62.1854744,181.161506 67.6013847,175.745596 67.6013847,169.064732 C67.6013847,165.856468 66.3269068,162.779606 64.0583215,160.511021 C61.7897363,158.242436 58.7128745,156.967958 55.5046105,156.967958 Z M55.5046105,180.193765 C49.3582157,180.193765 44.3755782,175.211127 44.3755782,169.064732 C44.3755782,162.918337 49.3582157,157.9357 55.5046105,157.9357 C61.6510053,157.9357 66.6336427,162.918337 66.6336427,169.064732 C66.6336427,172.016335 65.461123,174.847048 63.3740246,176.934146 C61.2869262,179.021245 58.4562133,180.193765 55.5046105,180.193765 Z" id="Shape" fill="#414D86" fill-rule="nonzero"></path>
            </g>
            <g id="Group" transform="translate(79.001549, 0.000000)" fill="#FF6E61" fill-rule="nonzero">
                <path d="M7.42049512,7.22954878 C7.51282683,7.22954878 7.59117561,7.29546829 7.6071561,7.38646829 L7.6071561,7.38646829 L7.92032927,9.17339756 C8.30541463,9.27904634 8.67496341,9.43308049 9.02187317,9.63150488 L9.02187317,9.63150488 L10.492522,8.57324146 C10.5677634,8.51864146 10.6714146,8.52663171 10.7373341,8.59343902 L10.7373341,8.59343902 L11.8759439,9.73071707 C11.9411976,9.79597073 11.9500756,9.89806829 11.8970293,9.97375366 L11.8970293,9.97375366 L10.8505293,11.4665976 C11.0451805,11.8110659 11.1972171,12.1783951 11.3030878,12.5603732 L11.3030878,12.5603732 L13.0982293,12.8537927 C13.1896732,12.8693293 13.2569244,12.9485659 13.2573683,13.0408976 L13.2573683,13.0408976 L13.2573683,14.6507098 C13.2573683,14.7425976 13.1910049,14.8218341 13.1002268,14.8373707 L13.1002268,14.8373707 L11.3041976,15.1520976 C11.1994366,15.5342976 11.0480659,15.9022927 10.8525268,16.2480927 L10.8525268,16.2480927 L11.9141195,17.7227366 C11.9682756,17.797978 11.9602854,17.9016293 11.8943659,17.9677707 L11.8943659,17.9677707 L10.7566439,19.1066024 C10.6909463,19.1718561 10.5888488,19.1807341 10.5136073,19.1281317 L10.5136073,19.1281317 L9.02475854,18.0825195 C8.67873659,18.2809439 8.30963171,18.4358659 7.92432439,18.5430683 L7.92432439,18.5430683 L7.60737805,20.3315512 C7.59139756,20.4218854 7.51260488,20.4878049 7.42071707,20.4878049 L7.42071707,20.4878049 L5.81046098,20.4878049 C5.71790732,20.4878049 5.63867073,20.4203317 5.62357805,20.3295537 L5.62357805,20.3295537 L5.32727317,18.5492829 C4.9417439,18.4434122 4.57064146,18.2902659 4.22217805,18.0931732 L4.22217805,18.0931732 L2.74420488,19.1283537 C2.66785366,19.1809561 2.56642195,19.172078 2.50139024,19.1068244 L2.50139024,19.1068244 L1.36278049,17.9679927 C1.29708293,17.9018512 1.28864878,17.7988659 1.34280488,17.7234024 L1.34280488,17.7234024 L2.38797317,16.2616317 C2.18843902,15.9107268 2.03351707,15.5380707 1.92698049,15.1507659 L1.92698049,15.1507659 L0.156697561,14.8375927 C0.0659195122,14.8213902 -2.07443818e-13,14.7428195 -2.07443818e-13,14.6509317 L-2.07443818e-13,14.6509317 L-2.07443818e-13,13.0411195 C-2.07443818e-13,12.9485659 0.0670292683,12.8693293 0.15825122,12.8537927 L0.15825122,12.8537927 L1.9292,12.5597073 C2.03618049,12.1724024 2.19110244,11.7999683 2.39063659,11.4497293 L2.39063659,11.4497293 L1.35834146,9.97397561 C1.30573902,9.89829024 1.31461707,9.79619268 1.37987073,9.73093902 L1.37987073,9.73093902 L2.51825854,8.59366098 C2.5835122,8.52685366 2.68671951,8.51886341 2.76262683,8.57346341 L2.76262683,8.57346341 L4.22928049,9.62062927 C4.57663415,9.42442439 4.94684878,9.27283171 5.3330439,9.16740488 L5.3330439,9.16740488 L5.6233561,7.3886878 C5.63800488,7.2968 5.71724146,7.22954878 5.81023902,7.22954878 L5.81023902,7.22954878 Z M6.62857317,11.8037415 C5.49529024,11.8037415 4.57286098,12.7257268 4.57286098,13.8587878 C4.57286098,14.9925146 5.49529024,15.9145 6.62857317,15.9145 C7.76207805,15.9145 8.68384146,14.9922927 8.68384146,13.8587878 C8.68384146,12.7255049 7.7618561,11.8037415 6.62857317,11.8037415 Z" id="Shape" filter="url(#filter-9)"></path>
                <path d="M14.6621829,0.0144268293 C14.7478561,-0.0210853659 14.8457366,0.0113195122 14.8947878,0.0898902439 L14.8947878,0.0898902439 L15.6043659,1.23693415 C15.8929024,1.20586098 16.1834366,1.20808049 16.4717512,1.24292683 L16.4717512,1.24292683 L17.1862122,0.0976585366 C17.2352634,0.0197536585 17.3322561,-0.0150926829 17.4203707,0.0235268293 L17.4203707,0.0235268293 L18.556539,0.499168293 C18.6413244,0.534902439 18.688378,0.625902439 18.6679585,0.716236585 L18.6679585,0.716236585 L18.3674366,2.04106341 C18.5969341,2.22528293 18.8013512,2.43169756 18.9775805,2.6576439 L18.9775805,2.6576439 L20.2993,2.35112927 C20.390522,2.32671463 20.4826317,2.37776341 20.5177,2.46365854 L20.5177,2.46365854 L20.9849073,3.60337805 C21.0197537,3.68860732 20.9884585,3.78626585 20.9105537,3.83598293 L20.9105537,3.83598293 L19.7555195,4.56309512 C19.7870366,4.84963415 19.7859268,5.13861463 19.7524122,5.42426585 L19.7524122,5.42426585 L20.9074463,6.14671707 C20.986461,6.19576829 21.0175341,6.29498049 20.9818,6.38087561 L20.9818,6.38087561 L20.5070463,7.51593415 C20.4713122,7.60049756 20.3792024,7.64555366 20.290422,7.62779756 L20.290422,7.62779756 L18.9578268,7.32660976 C18.7782683,7.55144634 18.5738512,7.75519756 18.347461,7.93364634 L18.347461,7.93364634 L18.6548634,9.25847317 C18.6757268,9.34880732 18.6284512,9.44136098 18.5423341,9.47687317 L18.5423341,9.47687317 L17.4037244,9.94474634 C17.3801976,9.95429024 17.355561,9.95872927 17.3315902,9.95872927 C17.2683341,9.95872927 17.2068537,9.92699024 17.1713415,9.86994878 L17.1713415,9.86994878 L16.4448951,8.71713415 C16.1583561,8.75109268 15.8658244,8.75175854 15.5779537,8.7178 L15.5779537,8.7178 L14.8410756,9.86195854 C14.7915805,9.93875366 14.6932561,9.97071463 14.6089146,9.93364878 L14.6089146,9.93364878 L13.4734122,9.45978293 C13.387739,9.42427073 13.3402415,9.33171707 13.3619927,9.24138293 L13.3619927,9.24138293 L13.6716146,7.92543415 C13.4436707,7.7441 13.2383659,7.53812927 13.0583634,7.31018537 L13.0583634,7.31018537 L11.7373098,7.59827805 C11.6467537,7.61603415 11.5559756,7.57009024 11.5213512,7.48486098 L11.5213512,7.48486098 L11.0548098,6.3435878 C11.0197415,6.25769268 11.0519244,6.15936829 11.1307171,6.11031707 L11.1307171,6.11031707 L12.2750976,5.40384634 C12.2418049,5.11109268 12.2426927,4.81789512 12.2773171,4.53069024 L12.2773171,4.53069024 L11.144478,3.79891707 C11.067461,3.7492 11.0370537,3.65154146 11.0725659,3.5663122 L11.0725659,3.5663122 L11.5473195,2.43125366 C11.5828317,2.34602439 11.6742756,2.29652927 11.7657195,2.32027805 L11.7657195,2.32027805 L13.0743439,2.6299 C13.2585634,2.39951463 13.4667537,2.1931 13.6951415,2.01465122 L13.6951415,2.01465122 L13.4090463,0.69515122 C13.3895146,0.605260976 13.4372341,0.514260976 13.5226854,0.479414634 L13.5226854,0.479414634 Z M16.0240756,3.45533659 C15.4061634,3.45533659 14.853061,3.8228878 14.6146854,4.39219268 C14.2899707,5.1696878 14.657522,6.06637073 15.4343512,6.39152927 C15.6227878,6.46987805 15.8209902,6.51005122 16.0229659,6.51005122 C16.641322,6.51005122 17.1939805,6.14183415 17.4323561,5.57252927 C17.7575146,4.79636585 17.3897415,3.89968293 16.6131341,3.57385854 C16.4246976,3.4952878 16.2264951,3.45533659 16.0240756,3.45533659 Z" id="Shape" filter="url(#filter-10)"></path>
            </g>
            <g id="Group" transform="translate(79.001549, 0.000000)" fill="#FF6E61" fill-rule="nonzero">
                <path d="M7.42049512,7.22954878 C7.51282683,7.22954878 7.59117561,7.29546829 7.6071561,7.38646829 L7.6071561,7.38646829 L7.92032927,9.17339756 C8.30541463,9.27904634 8.67496341,9.43308049 9.02187317,9.63150488 L9.02187317,9.63150488 L10.492522,8.57324146 C10.5677634,8.51864146 10.6714146,8.52663171 10.7373341,8.59343902 L10.7373341,8.59343902 L11.8759439,9.73071707 C11.9411976,9.79597073 11.9500756,9.89806829 11.8970293,9.97375366 L11.8970293,9.97375366 L10.8505293,11.4665976 C11.0451805,11.8110659 11.1972171,12.1783951 11.3030878,12.5603732 L11.3030878,12.5603732 L13.0982293,12.8537927 C13.1896732,12.8693293 13.2569244,12.9485659 13.2573683,13.0408976 L13.2573683,13.0408976 L13.2573683,14.6507098 C13.2573683,14.7425976 13.1910049,14.8218341 13.1002268,14.8373707 L13.1002268,14.8373707 L11.3041976,15.1520976 C11.1994366,15.5342976 11.0480659,15.9022927 10.8525268,16.2480927 L10.8525268,16.2480927 L11.9141195,17.7227366 C11.9682756,17.797978 11.9602854,17.9016293 11.8943659,17.9677707 L11.8943659,17.9677707 L10.7566439,19.1066024 C10.6909463,19.1718561 10.5888488,19.1807341 10.5136073,19.1281317 L10.5136073,19.1281317 L9.02475854,18.0825195 C8.67873659,18.2809439 8.30963171,18.4358659 7.92432439,18.5430683 L7.92432439,18.5430683 L7.60737805,20.3315512 C7.59139756,20.4218854 7.51260488,20.4878049 7.42071707,20.4878049 L7.42071707,20.4878049 L5.81046098,20.4878049 C5.71790732,20.4878049 5.63867073,20.4203317 5.62357805,20.3295537 L5.62357805,20.3295537 L5.32727317,18.5492829 C4.9417439,18.4434122 4.57064146,18.2902659 4.22217805,18.0931732 L4.22217805,18.0931732 L2.74420488,19.1283537 C2.66785366,19.1809561 2.56642195,19.172078 2.50139024,19.1068244 L2.50139024,19.1068244 L1.36278049,17.9679927 C1.29708293,17.9018512 1.28864878,17.7988659 1.34280488,17.7234024 L1.34280488,17.7234024 L2.38797317,16.2616317 C2.18843902,15.9107268 2.03351707,15.5380707 1.92698049,15.1507659 L1.92698049,15.1507659 L0.156697561,14.8375927 C0.0659195122,14.8213902 -2.07443818e-13,14.7428195 -2.07443818e-13,14.6509317 L-2.07443818e-13,14.6509317 L-2.07443818e-13,13.0411195 C-2.07443818e-13,12.9485659 0.0670292683,12.8693293 0.15825122,12.8537927 L0.15825122,12.8537927 L1.9292,12.5597073 C2.03618049,12.1724024 2.19110244,11.7999683 2.39063659,11.4497293 L2.39063659,11.4497293 L1.35834146,9.97397561 C1.30573902,9.89829024 1.31461707,9.79619268 1.37987073,9.73093902 L1.37987073,9.73093902 L2.51825854,8.59366098 C2.5835122,8.52685366 2.68671951,8.51886341 2.76262683,8.57346341 L2.76262683,8.57346341 L4.22928049,9.62062927 C4.57663415,9.42442439 4.94684878,9.27283171 5.3330439,9.16740488 L5.3330439,9.16740488 L5.6233561,7.3886878 C5.63800488,7.2968 5.71724146,7.22954878 5.81023902,7.22954878 L5.81023902,7.22954878 Z M6.62857317,11.8037415 C5.49529024,11.8037415 4.57286098,12.7257268 4.57286098,13.8587878 C4.57286098,14.9925146 5.49529024,15.9145 6.62857317,15.9145 C7.76207805,15.9145 8.68384146,14.9922927 8.68384146,13.8587878 C8.68384146,12.7255049 7.7618561,11.8037415 6.62857317,11.8037415 Z" id="Shape"></path>
                <path d="M14.6621829,0.0144268293 C14.7478561,-0.0210853659 14.8457366,0.0113195122 14.8947878,0.0898902439 L14.8947878,0.0898902439 L15.6043659,1.23693415 C15.8929024,1.20586098 16.1834366,1.20808049 16.4717512,1.24292683 L16.4717512,1.24292683 L17.1862122,0.0976585366 C17.2352634,0.0197536585 17.3322561,-0.0150926829 17.4203707,0.0235268293 L17.4203707,0.0235268293 L18.556539,0.499168293 C18.6413244,0.534902439 18.688378,0.625902439 18.6679585,0.716236585 L18.6679585,0.716236585 L18.3674366,2.04106341 C18.5969341,2.22528293 18.8013512,2.43169756 18.9775805,2.6576439 L18.9775805,2.6576439 L20.2993,2.35112927 C20.390522,2.32671463 20.4826317,2.37776341 20.5177,2.46365854 L20.5177,2.46365854 L20.9849073,3.60337805 C21.0197537,3.68860732 20.9884585,3.78626585 20.9105537,3.83598293 L20.9105537,3.83598293 L19.7555195,4.56309512 C19.7870366,4.84963415 19.7859268,5.13861463 19.7524122,5.42426585 L19.7524122,5.42426585 L20.9074463,6.14671707 C20.986461,6.19576829 21.0175341,6.29498049 20.9818,6.38087561 L20.9818,6.38087561 L20.5070463,7.51593415 C20.4713122,7.60049756 20.3792024,7.64555366 20.290422,7.62779756 L20.290422,7.62779756 L18.9578268,7.32660976 C18.7782683,7.55144634 18.5738512,7.75519756 18.347461,7.93364634 L18.347461,7.93364634 L18.6548634,9.25847317 C18.6757268,9.34880732 18.6284512,9.44136098 18.5423341,9.47687317 L18.5423341,9.47687317 L17.4037244,9.94474634 C17.3801976,9.95429024 17.355561,9.95872927 17.3315902,9.95872927 C17.2683341,9.95872927 17.2068537,9.92699024 17.1713415,9.86994878 L17.1713415,9.86994878 L16.4448951,8.71713415 C16.1583561,8.75109268 15.8658244,8.75175854 15.5779537,8.7178 L15.5779537,8.7178 L14.8410756,9.86195854 C14.7915805,9.93875366 14.6932561,9.97071463 14.6089146,9.93364878 L14.6089146,9.93364878 L13.4734122,9.45978293 C13.387739,9.42427073 13.3402415,9.33171707 13.3619927,9.24138293 L13.3619927,9.24138293 L13.6716146,7.92543415 C13.4436707,7.7441 13.2383659,7.53812927 13.0583634,7.31018537 L13.0583634,7.31018537 L11.7373098,7.59827805 C11.6467537,7.61603415 11.5559756,7.57009024 11.5213512,7.48486098 L11.5213512,7.48486098 L11.0548098,6.3435878 C11.0197415,6.25769268 11.0519244,6.15936829 11.1307171,6.11031707 L11.1307171,6.11031707 L12.2750976,5.40384634 C12.2418049,5.11109268 12.2426927,4.81789512 12.2773171,4.53069024 L12.2773171,4.53069024 L11.144478,3.79891707 C11.067461,3.7492 11.0370537,3.65154146 11.0725659,3.5663122 L11.0725659,3.5663122 L11.5473195,2.43125366 C11.5828317,2.34602439 11.6742756,2.29652927 11.7657195,2.32027805 L11.7657195,2.32027805 L13.0743439,2.6299 C13.2585634,2.39951463 13.4667537,2.1931 13.6951415,2.01465122 L13.6951415,2.01465122 L13.4090463,0.69515122 C13.3895146,0.605260976 13.4372341,0.514260976 13.5226854,0.479414634 L13.5226854,0.479414634 Z M16.0240756,3.45533659 C15.4061634,3.45533659 14.853061,3.8228878 14.6146854,4.39219268 C14.2899707,5.1696878 14.657522,6.06637073 15.4343512,6.39152927 C15.6227878,6.46987805 15.8209902,6.51005122 16.0229659,6.51005122 C16.641322,6.51005122 17.1939805,6.14183415 17.4323561,5.57252927 C17.7575146,4.79636585 17.3897415,3.89968293 16.6131341,3.57385854 C16.4246976,3.4952878 16.2264951,3.45533659 16.0240756,3.45533659 Z" id="Shape"></path>
            </g>
            <g id="man-trolley" transform="translate(0.000000, 95.000000)">
                <path d="M28.9575461,82.498441 C29.0209759,84.5440535 29.4686758,112.790156 31.847295,120.175768 C28.2397226,125.016258 2.06301881,158.971047 1.98373151,159.724276 C1.9044442,160.477506 6.34453329,164.568731 7.13740634,164.568731 C7.93027939,164.568731 48.0853351,131.91029 50.1349119,129.773497 C52.1844887,127.636704 53.3603991,118.235391 53.3603991,118.235391" id="Path" stroke="#414D86" fill-rule="nonzero"></path>
                <path d="M28.0953888,75.9267789 L60.4666263,80.9245387 C60.7616889,81.3097024 61.0995915,81.7858191 61.4741777,82.3407815 L61.8040918,82.8354903 C63.8357552,85.9162094 66.7911379,90.9908225 69.8328169,96.4124434 L70.3404188,97.3189776 L70.3404188,97.3189776 L70.8487573,98.2302435 L71.4279093,99.2724605 C71.7292744,99.8158727 72.030047,100.359884 72.3294167,100.902908 L72.7773178,101.716505 C77.467103,110.247328 81.7083462,118.336337 82.3344548,119.783604 C82.9233867,121.144935 85.3172133,132.331307 87.7553427,144.101349 L87.9992381,145.279957 C88.2024987,146.263181 88.4056593,147.248318 88.6077012,148.230022 L88.8495493,149.406076 C90.0956495,155.470303 91.2830791,161.320297 92.1690148,165.681478 C92.9095014,169.326659 93.4398836,171.936597 93.6189291,172.774099 C92.4770829,174.097057 90.3733536,174.750709 88.9062175,174.682695 C88.111202,172.97732 83.9757318,164.393755 79.478595,155.076512 L79.0122059,154.110294 C78.3889594,152.819185 77.7607863,151.51815 77.1355035,150.223311 L76.6672054,149.253596 C74.329646,144.413349 72.0602111,139.716931 70.2711115,136.014632 C68.5930424,132.542095 67.3378736,129.944694 66.8462236,128.924979 C62.4979991,126.161521 48.2709556,115.582309 38.293277,101.779188 C32.5956247,93.8970561 28.2751063,84.9600917 28.0953888,75.9267789 L28.0953888,75.9267789 Z" id="Path" stroke="#414D86" fill-rule="nonzero"></path>
                <path d="M3.04221703,160.604365 C2.6457805,161.000802 0.0649787223,163.327884 0.00154887822,164.089042 C-0.105488984,165.464677 5.36929944,170.297238 5.852952,170.301235 C6.33660456,170.305167 6.98676046,169.94441 6.91936625,169.583653 C6.85197204,169.222895 5.22261792,166.753096 5.14333062,166.281336 C5.06404331,165.809577 5.70230612,164.406192 6.4000344,164.001826" id="Path" fill="#414D86" fill-rule="nonzero"></path>
                <path d="M88.8033306,174.65804 C89.0174063,175.201158 90.1353573,178.467795 90.8092994,178.820624 C92.0342883,179.462851 98.6270277,176.327038 98.8212816,175.883029 C99.0155355,175.43902 98.9402126,174.693719 98.5794553,174.622361 C98.2186981,174.551002 95.308854,175.06637 94.8450233,174.959332 C94.3811925,174.852294 93.3425288,173.706592 93.2592772,172.905791" id="Path" fill="#414D86" fill-rule="nonzero"></path>
                <path d="M49.6222768,24.1288964 L49.5085422,24.3213808 C48.8980299,25.3362584 54.1428852,28.3888196 54.7097894,27.4453007 L54.7097894,27.4453007 L55.4548669,26.2010925 C56.3897422,27.0355098 57.2100907,28.0648802 57.9217598,29.1953605 L57.9129965,29.1697996 C58.2816825,29.0746548 60.6563373,28.5751448 64.0736201,27.8853452 C64.8519265,28.8727487 67.1544272,32.7421279 68.0331796,38.4406459 L68.0934865,38.8507795 L61.6553573,41.0113586 C61.6553573,43.4728678 61.0926283,48.838642 60.5836017,54.9659925 C60.4955623,54.773676 60.4118782,54.5791389 60.3312593,54.3831626 C55.4986981,57.1820045 46.9515266,58.1532739 43.7245333,57.4991537 C47.0720291,64.7180284 53.2708713,69.9688735 59.8449345,73.7654764 C59.9604192,76.4109135 60.2351185,78.7239045 60.739589,80.4607572 C57.5205244,80.9880178 31.6609698,78.81951 27.5895667,75.3427617 C27.5895667,51.3818132 41.7888928,25.4574082 49.6222768,24.1288964 Z" id="Combined-Shape" fill="#414D86" fill-rule="nonzero"></path>
                <path d="M60.3312593,54.3831626 C65.2704869,66.3899339 81.7156457,72.9943167 85.4656936,74.6870017 C85.9697403,74.5716323 86.5016566,74.510245 87.0510812,74.510245 C90.3155638,74.510245 92.9619498,76.6774062 92.9619498,79.350735 C92.9619498,82.0240638 90.3155638,84.1912249 87.0510812,84.1912249 C85.2468795,84.1912249 83.631476,83.5292635 82.5472773,82.4857421 C75.4653184,80.6263445 51.6345432,74.55709 43.7245333,57.4991537 C46.9515266,58.1532739 55.4986981,57.1820045 60.3312593,54.3831626 Z" id="Combined-Shape" stroke="#414D86" fill="#6F7CBD" fill-rule="nonzero"></path>
                <path d="M112.291126,17.968507 C112.830279,20.1964803 108.790591,20.9774603 106.903553,21.5166139 C107.442707,23.340222 107.64489,24.7753222 106.320792,25.4809792 C105.212981,26.0791967 103.300292,26.7668452 98.6475418,26.5795373 C98.7907668,27.2606651 98.8807471,27.8615322 98.8807471,28.2778174 C98.1830188,28.6720339 92.1388778,30.6668232 85.5882474,32.777361 L84.6922948,33.0657396 C84.2432033,33.2101482 83.79278,33.3547811 83.3425589,33.4991677 L82.4428409,33.7874731 C75.1047701,36.1370075 68.0934865,38.3371323 68.0934865,38.3371323 C67.6694308,35.826952 67.2668858,34.0486208 66.8858518,33.0021386 C66.4187713,31.7193364 65.6224669,30.1445627 64.4969384,28.2778174 L64.5516104,28.2632104 L64.5516104,28.2632104 L64.7110719,28.2236391 C66.1203771,27.8838733 72.7331526,26.468992 79.6137576,25.0056046 L81.0233249,24.7059243 C81.1800109,24.6726236 81.3366614,24.639334 81.4932185,24.6060676 L82.4309763,24.4068434 C88.250807,23.1706561 93.7791514,22.0002787 96.0047586,21.5220491 L96.0015489,21.5166139 C96.8741642,21.3375676 100.372967,20.5420705 103.839485,19.7494817 L104.555363,19.5857424 C108.123729,18.7692854 111.461339,18.0016517 111.625112,17.968507 C111.958119,17.9011128 112.239589,17.76236 112.291126,17.968507 Z" id="Combined-Shape" stroke="#414D86" fill="#6F7CBD" fill-rule="nonzero"></path>
                <path d="M57.8782547,22.2689433 L54.7097894,27.4453007 C54.1428852,28.3888196 48.8980299,25.3362584 49.5085422,24.3213808 L53.2369836,18.6582851" id="Path" stroke="#414D86" fill="#6F7CBD" fill-rule="nonzero"></path>
                <path d="M61.9125603,0 C64.3546554,0 64.7953033,1.08273371 64.7953033,1.95644548 C64.7953033,3.87944744 63.3045133,5.93622346 62.7362012,6.44205658 C64.103445,5.41784901 66.2366748,4.38946101 68.0898667,4.38946101 C69.2512003,4.38946101 70.7337538,4.72389613 70.7337538,6.34590648 C70.7337538,9.32655953 68.3995595,10.9527503 67.4812,11.4335008 C67.420516,11.3380106 67.3726654,11.260435 67.33505,11.1974262 C67.82187,12.2211787 68.0934865,13.365373 68.0934865,14.5730067 C68.0934865,18.9256501 64.5649718,22.4541648 60.2123284,22.4541648 C57.2793392,22.4541648 54.7205552,20.8520019 53.3634245,18.4751243 C52.5192873,19.4318454 51.3818509,19.9908596 50.855182,19.9908596 C50.5637523,20.0310514 50.2698285,19.9374068 50.0532909,19.7353756 C49.8367534,19.5333444 49.7200987,19.2439163 49.7350304,18.9457498 C49.7350304,17.9257227 50.3280518,17.0520109 51.5717495,15.948375 C51.3534847,15.567955 49.7350304,13.5655247 49.7350304,10.7353675 C49.7350304,7.74635357 51.5429221,5.24227057 52.7536741,5.24227057 C53.8216217,5.31029807 54.7090904,6.10286638 54.9116131,7.16945298 C54.9116131,2.99319436 59.3098552,0 61.9125603,0 Z" id="Oval-2" stroke="#414D86" fill="#6F7CBD" fill-rule="nonzero"></path>
                <ellipse id="Oval" fill="#FF746C" fill-rule="nonzero" transform="translate(67.481200, 17.070786) rotate(-84.070000) translate(-67.481200, -17.070786) " cx="67.4812" cy="17.0707856" rx="1" ry="1.31616927"></ellipse>
                <ellipse id="Oval" fill="#FF746C" fill-rule="nonzero" transform="translate(59.258237, 16.220749) rotate(-84.070000) translate(-59.258237, -16.220749) " cx="59.2582369" cy="16.2207492" rx="1" ry="1.31616927"></ellipse>
                <path d="M64.4343774,15.3262361 C64.6444887,15.7226726 65.7465823,17.3084187 64.3590544,17.7524276" id="Path" stroke="#414D86" stroke-width="0.3" stroke-linecap="round"></path>
                <path d="M61.5483195,19.1914922 C61.151883,19.1399555 60.5968718,18.6008018 60.3233306,18.125078" id="Path" stroke="#414D86" stroke-width="0.3" stroke-linecap="round"></path>
                <path d="M54.4009558,15.948375 C54.4009558,18.3813905 51.7488323,19.9908596 50.855182,19.9908596 C50.5637523,20.0310514 50.2698285,19.9374068 50.0532909,19.7353756 C49.8367534,19.5333444 49.7200987,19.2439163 49.7350304,18.9457498 C49.7350304,17.9257227 50.3280518,17.0520109 51.5717495,15.948375 C51.3534847,15.567955 49.7350304,13.5655247 49.7350304,10.7353675 C49.7350304,7.74635357 51.5429221,5.24227057 52.7536741,5.24227057 C53.8216217,5.31029807 54.7090904,6.10286638 54.9116131,7.16945298 C54.9116131,2.99319436 59.3098552,4.54747351e-13 61.9125603,4.54747351e-13 C64.3546554,4.54747351e-13 64.7953033,1.08273371 64.7953033,1.95644548 C64.7953033,3.87944744 63.3045133,5.93622346 62.7362012,6.44205658 C64.103445,5.41784901 66.2366748,4.38946101 68.0898667,4.38946101 C69.2512003,4.38946101 70.7337538,4.72389613 70.7337538,6.34590648 C70.7337538,9.32655953 68.3995595,10.9527503 67.4812,11.4335008 C67.1039937,10.9121187 67.711561,11.4485269 66.7337538,10.3281693 C66.7337538,10.9121187 65.2806256,11.1605167 63.8884211,11.4335008 C63.1732174,11.5737383 54.4009558,10.3633084 54.4009558,15.948375 Z" id="Path" stroke="#414D86" fill="#414D86" fill-rule="nonzero"></path>
            </g>
            <g id="Group" transform="translate(249.501549, 214.561716) scale(-1, 1) translate(-249.501549, -214.561716) translate(160.001549, 155.000000)">
                <g id="Group-89" transform="translate(0.000000, 18.582119)">
                    <polygon id="Fill-1" fill="#414D86" points="154.841848 96.3938421 152.709566 96.3938421 150.88224 87.5390643 156.669174 87.5392183"></polygon>
                    <polygon id="Fill-2" fill="#414D86" points="24.9994431 96.3938421 22.8679653 96.3938421 21.0398348 87.5392183 26.826769 87.5390643"></polygon>
                    <polygon id="Fill-3" fill="#414D86" points="138.394789 96.3938421 136.263311 96.3938421 134.435985 87.5390643 140.222115 87.5392183"></polygon>
                    <polygon id="Fill-4" fill="#414D86" points="38.4004764 96.3938421 36.2689986 96.3938421 34.4416727 87.5392183 40.2278023 87.5390643"></polygon>
                    <g id="Group-59" transform="translate(0.000000, 0.107779)" stroke="#414D86">
                        <path d="M162.271594,28.5693772 C162.40927,18.733821 160.679061,6.1680926 151.428748,3.33369114 C142.152544,0.491357993 93.1457344,-0.241991255 58.3943483,0.734692709" id="Fill-5"></path>
                        <path d="M50.8273195,0.983565813 C37.5152788,1.49096521 27.3124513,2.28364534 23.9963048,3.33369114 C14.9059523,6.21197584 13.09036,18.4491886 13.163745,28.1927881" id="Fill-5"></path>
                        <polyline id="Fill-13" points="133.249467 58.2051738 153.133844 58.2051738 150.12549 87.431285 129.979339 87.431285"></polyline>
                        <polyline id="Fill-13" points="120.316446 87.431285 28.3834593 87.431285 25.2143426 58.2051738 112.024344 58.2051738"></polyline>
                        <g id="Group-19" transform="translate(0.000000, 27.723644)">
                            <path d="M18.298685,59.7077953 L28.4258199,59.7077953 C28.4258199,59.7077953 24.3141356,13.5048029 21.8012608,6.07255611 C20.2467061,1.47351166 12.8167075,-2.08974665 4.41229594,3.24936506 C2.11989111,4.70562646 0.429353183,6.95047149 0.0463469703,9.5588043 C-0.345510226,12.234906 1.69987169,15.5709845 7.41036558,16.274857 L18.298685,59.7077953 Z" id="Fill-17"></path>
                        </g>
                        <path d="M160.375725,87.431439 L150.24859,87.431439 C150.24859,87.431439 154.360274,41.2284466 156.873149,33.7961998 C158.427704,29.1971554 165.857702,25.633897 174.262114,30.9730088 C176.555323,32.4292701 178.245057,34.6741152 178.628063,37.282448 C179.01992,39.9585497 176.974538,43.2946282 171.264044,43.9985007 L160.375725,87.431439 Z" id="Fill-22"></path>
                    </g>
                </g>
                <g id="woman-sitting-laptop" transform="translate(26.904059, 0.000000)">
                    <path d="M90.0470847,79.7509241 C90.2866437,81.1768706 93.977826,112.435879 94.6366133,112.974887 C95.2954005,113.513895 102.291094,114.708838 102.889991,113.810492 C103.009771,112.384545 103.528074,90.8305878 103.89882,88.7971881 L90.0470847,79.7509241 Z" id="Path" stroke="#414D86" fill-rule="nonzero"></path>
                    <path d="M76.2010022,51.9998651 C91.9919334,51.9998651 113.095941,86.5682947 113.095941,87.4735787 C113.095941,88.3788628 110.449385,90.6832221 109.126106,91.9999989 C107.397859,91.9999989 85.3555786,73.8063439 76.0441481,73.8063439 C75.1189194,73.8063439 73.1523787,74.8560943 70.4825226,76.4950589 C70.2806573,76.6189794 70.0747714,76.7462684 69.8650109,76.8767266 L11.2687521,76.8767245 C11.2249626,76.6890266 11.1852131,76.5060614 11.1495026,76.3282572 C10.7276696,74.2279332 10.6738167,73.1875215 11.3855546,73.181257 C27.7354358,73.0373505 70.0779881,51.9943907 76.2010022,51.9998651 Z" id="Combined-Shape" stroke="#414D86" fill-rule="nonzero"></path>
                    <path d="M26.2009105,23.7712503 C26.3207699,23.7720912 26.4272187,23.773771 26.5191503,23.7762315 C28.9575187,23.841825 41.6512942,23.468227 45.1306036,26.7821266 C46.4137607,28.0028982 49.0425773,33.8428981 51.5139692,40.3196014 L51.8096844,41.099607 C51.9079401,41.3604577 52.0058477,41.6220723 52.1033111,41.8841958 L52.4112922,42.7182326 L52.7155996,43.5538777 C52.7466915,43.6398617 52.7777143,43.7258424 52.8086644,43.8118109 L52.7879362,43.7737048 L44.8625257,45.8128083 C45.2223298,47.4722607 45.3234324,50.6091862 45.3111523,53.7807225 L45.3051012,54.645461 C45.2922467,55.929476 45.2629148,57.1976079 45.2268002,58.3535976 C42.0721332,59.0997092 37.2669383,59.9154737 32.3545604,60.5950109 L31.4586029,60.7172802 C22.9423073,61.8636411 14.3857147,62.5644282 13.7940039,61.7548898 C12.7559149,60.3346471 15.2741364,52.0755652 15.790329,50.1391299 C15.790329,50.1391299 4.85046767,47.3414229 2.69158471,47.0733449 C2.68880449,47.0888644 2.68516691,47.1086259 2.68070495,47.1325082 C4.02010114,39.5271718 6.16670484,31.7139944 9.51331264,26.0748572 C12.1651816,24.3086967 22.3812082,23.7923297 25.8022065,23.771302 L26.2009105,23.7712503 Z" id="Combined-Shape" fill="#414D86" fill-rule="nonzero"></path>
                    <path d="M24.049411,17.6041894 L24.049411,24.6955554 C24.049411,26.6918805 31.4643326,26.6747691 31.4643326,24.6955554 L31.4643326,19.4360267" id="Path" stroke="#414D86" fill="#6F7CBD" fill-rule="nonzero"></path>
                    <path d="M23.6529979,1.80300219e-13 C25.3257084,1.80300219e-13 26.6817082,1.35599979 26.6817082,3.02871031 C26.6817082,3.41112024 26.6108359,3.77697707 26.4815096,4.11386251 C27.3509841,3.86408448 28.2675758,3.7312904 29.2141891,3.7312904 C34.8866042,3.7312904 39.4810037,8.4996554 39.4810037,14.3802587 C39.4810037,15.0107495 39.4270509,15.6397936 39.3201371,16.2605798 L39.2300371,16.7245147 L36.1742069,16.7249941 C37.6328195,14.6522827 38.003436,11.9722502 37.1110807,9.5520039 C36.9159995,9.57622354 36.7186718,9.57622354 36.5235907,9.5520039 C35.2659059,9.36092707 34.011073,8.37132022 33.1355419,7.72394052 C28.1447292,11.3800673 24.9477573,11.4314013 24.6026782,11.4314013 C24.2575992,11.4314013 22.8516159,13.4505416 22.2042362,13.678693 L22.1471984,13.6444703 C22.3534749,14.7736675 22.8012225,15.8198694 23.4382818,16.7251474 L19.1983411,16.7245147 C19.0316757,15.9542252 18.9473745,15.1683723 18.9473745,14.3802587 C18.9473745,10.9593581 20.5021436,7.91484478 22.9194493,5.96646101 C21.601123,5.63999147 20.6242875,4.44842696 20.6242875,3.02871031 C20.6242875,1.35599979 21.9802873,1.80300219e-13 23.6529979,1.80300219e-13 Z" id="Combined-Shape" stroke="#414D86" fill="#414D86" fill-rule="nonzero" stroke-linejoin="round"></path>
                    <path d="M33.239067,7.64266768 C34.386548,8.4539129 35.6459214,9.27428578 36.899107,9.45699616 C37.6900292,10.7463585 37.7534483,12.070467 37.488384,13.3310112 C37.1989773,14.7073183 36.5181442,16.0075297 35.4807994,17.0729506 C34.439291,18.1426479 33.1277733,18.884285 31.7111139,19.2560923 C30.291768,19.6286047 28.7666511,19.6299967 27.3001798,19.2170872 C25.8366599,18.8050088 24.5562198,18.015278 23.5735009,16.9679065 C22.6760767,16.0114411 22.027064,14.8400548 21.7149998,13.5464298 C22.1596851,13.245771 22.7014279,12.7096158 23.1772729,12.206596 C23.4779879,11.8887075 23.7249534,11.4473976 23.8499364,11.4473976 L23.8499364,11.4473976 L23.9067115,11.4470861 C24.5017688,11.4400895 27.9514771,11.2787775 33.239067,7.64266768 Z" id="Path" stroke="#414D86" fill="#6F7CBD" fill-rule="nonzero"></path>
                    <path d="M25.0019432,11.2631397 C24.3220895,11.2953226 23.787426,11.8558949 23.787426,12.5365099 C23.787426,13.2171249 24.3220895,13.7776971 25.0019432,13.8098801" id="Path" stroke="#414D86" stroke-width="0.3" stroke-linecap="round"></path>
                    <path d="M34.7097868,11.4171419 C35.0833848,11.9162231 36.0444727,12.7889024 34.7097868,13.7157676" id="Path" stroke="#414D86" stroke-width="0.3" stroke-linecap="round"></path>
                    <path d="M30.6629507,14.4002219 C30.6629507,14.7738199 30.8226567,15.6664624 31.6240386,15.8974657" id="Path" stroke="#414D86" stroke-width="0.3" stroke-linecap="round"></path>
                    <ellipse id="Oval" fill="#FF6E61" fill-rule="nonzero" filter="url(#filter-11)" cx="28.178952" cy="13.8697698" rx="1.17497989" ry="1"></ellipse>
                    <ellipse id="Oval" fill="#FF6E61" fill-rule="nonzero" filter="url(#filter-12)" cx="36.9143" cy="13.8697698" rx="1.17497989" ry="1"></ellipse>
                    <ellipse id="Oval" fill="#FF6E61" fill-rule="nonzero" cx="36.9143" cy="13.8697698" rx="1.17497989" ry="1"></ellipse>
                    <ellipse id="Oval" fill="#FF6E61" fill-rule="nonzero" cx="28.178952" cy="13.8697698" rx="1.17497989" ry="1"></ellipse>
                    <path d="M44.8625257,45.8128083 L52.2964049,43.7737048 C53.0578603,45.0599085 57.7696572,58.4638054 57.7696572,58.4638054 L45.4133813,63.371215" id="Path" stroke="#414D86" fill="#6F7CBD" fill-rule="nonzero"></path>
                    <path d="M108.590925,91.7824706 C108.767743,92.0534005 111.12911,94.9623313 111.964715,94.996554 C112.800319,95.0307767 117.873837,91.5913938 117.651389,90.8527535 C117.428942,90.1141133 114.246229,90.5932313 113.698666,90.3365609 C113.151102,90.0798906 111.933344,88.8592804 111.739415,88.3145688" id="Path" fill="#414D86" fill-rule="nonzero"></path>
                    <path d="M96.1138938,113.277188 C96.054004,113.593748 95.7317401,117.326876 96.3106744,117.931477 C96.8896087,118.536078 102.927066,119.585575 103.277849,118.898269 C103.628632,118.210963 100.996335,116.348676 100.79385,115.784002 C100.591366,115.219327 100.28801,114.490634 100.533273,113.954478" id="Path" fill="#414D86" fill-rule="nonzero"></path>
                    <rect id="Rectangle" fill="#FF6E61" fill-rule="nonzero" x="55.2696572" y="57.9504646" width="5" height="1"></rect>
                    <polygon id="Path" fill="#FF6E61" fill-rule="nonzero" filter="url(#filter-13)" points="61.7921853 57.5892887 68.1861292 40.6461927 95.0424051 40.6461927 88.6484611 57.5892887"></polygon>
                    <polygon id="Path" fill="#FF6E61" fill-rule="nonzero" points="61.7921853 57.5892887 68.1861292 40.6461927 95.0424051 40.6461927 88.6484611 57.5892887"></polygon>
                    <polygon id="Path" stroke="#414D86" fill-rule="nonzero" points="86.6484611 58.5892887 59.7921853 58.5892887 66.1861292 41.6461927 93.0424051 41.6461927"></polygon>
                    <rect id="Rectangle" fill="#FF6E61" fill-rule="nonzero" filter="url(#filter-14)" x="37.4133813" y="57.9504646" width="8" height="1"></rect>
                    <rect id="Rectangle" fill="#FF6E61" fill-rule="nonzero" x="37.4133813" y="57.9504646" width="8" height="1"></rect>
                    <path d="M15.790329,50.0657849 C15.2741364,52.0022202 12.7559149,60.2613022 13.7940039,61.6815449 C14.832093,63.1017876 40.3850538,59.8734448 47.2267449,57.7459326 C48.9692515,57.175554 50.261159,55.6783102 51.034022,55.4872334 C53.0838217,55.1414396 55.0659895,56.3916545 55.6369772,58.3904604 C52.9048638,59.7137387 13.4574806,79.8538067 0.675296399,70.8903072 C-1.74025693,69.1706158 3.0863869,48.066608 3.27746373,47 C5.43634669,47.2680779 15.790329,50.0657849 15.790329,50.0657849 Z" id="Path" stroke="#414D86" fill="#6F7CBD" fill-rule="nonzero"></path>
                    <path d="M45.227568,58.3497297 C45.9975791,58.1672085 46.6706258,57.9903911 47.223893,57.8192776 C48.9663996,57.248899 50.2583071,55.7516552 51.0311701,55.5605784 C53.0819549,55.2131923 55.0658842,56.4637433 55.6369772,58.4638054" id="Path" stroke="#414D86" stroke-linecap="round"></path>
                </g>
            </g>
        </g>
        <g id="undraw_cancel_u1it" transform="translate(221.000000, 182.000000)" stroke="#414D86">
            <circle id="Oval" cx="14" cy="14" r="14"></circle>
        </g>
        <line x1="227" y1="193.5" x2="242.5" y2="193.5" id="Line-Copy-5" stroke="#414D86" stroke-linecap="round"></line>
        <line x1="227" y1="198.5" x2="242.5" y2="198.5" id="Line-Copy-6" stroke="#414D86" stroke-linecap="round"></line>
    </g>
</svg>
