<?xml version="1.0" encoding="UTF-8"?>
<svg width="800px" height="781px" viewBox="0 0 800 781" version="1.1" xmlns="http://www.w3.org/2000/svg" xmlns:xlink="http://www.w3.org/1999/xlink">
    <title>gift</title>
    <defs>
        <filter x="-8.1%" y="-6.2%" width="124.3%" height="122.0%" filterUnits="objectBoundingBox" id="filter-1">
            <feGaussianBlur stdDeviation="7" in="SourceGraphic"></feGaussianBlur>
        </filter>
        <filter x="-8.1%" y="-6.2%" width="124.3%" height="122.0%" filterUnits="objectBoundingBox" id="filter-2">
            <feGaussianBlur stdDeviation="7" in="SourceGraphic"></feGaussianBlur>
        </filter>
        <filter x="-10.3%" y="-6.7%" width="120.6%" height="113.5%" filterUnits="objectBoundingBox" id="filter-3">
            <feGaussianBlur stdDeviation="5" in="SourceGraphic"></feGaussianBlur>
        </filter>
    </defs>
    <g id="Unifrance" stroke="none" stroke-width="1" fill="none" fill-rule="evenodd">
        <g id="gift">
            <g id="confetti" fill="#879DEF" fill-rule="nonzero">
                <path d="M72.7858291,365.209965 C70.5375611,366.644971 68.5891376,368.293034 66.8704063,369.748927 C64.6888962,371.595426 62.4327077,373.504589 61.0172154,373.649761 C60.1844397,373.736446 58.5256773,373.116072 56.7594235,371.560961 C55.2364398,370.219952 53.7892657,368.434028 52.2572301,366.54262 C51.363354,365.439733 50.4400593,364.300293 49.4262454,363.150409 C37.6451853,349.786269 19.4395326,342.043088 0.810703019,342.426383 L1.21690745,359.132603 C14.1430341,358.850615 27.2264376,364.445465 35.3833395,373.697803 C36.1629352,374.58241 36.9380049,375.538036 37.7583342,376.550059 C39.580031,378.797607 41.6449978,381.345943 44.2621311,383.650934 C49.2350238,388.028013 55.0440867,390.368513 60.8373087,390.368513 C61.5682504,390.368513 62.2980606,390.330915 63.0267393,390.256763 C70.3135264,389.504795 75.1891111,385.379415 79.1051934,382.063446 C80.5184227,380.866564 81.8547108,379.736523 83.0789816,378.955312 C87.9194901,375.865977 95.8319904,376.799671 99.6779204,380.917739 L113.392695,370.010027 C103.487643,359.399969 85.2718066,357.245372 72.7858291,365.209965 L72.7858291,365.209965 Z" id="Path"></path>
                <path d="M136.733254,166.698881 C137.884378,167.302937 139.594656,168.199077 140.110895,168.693756 C140.122254,169.661985 138.979966,172.769268 135.707087,175.947396 L134.885397,176.735403 C132.313038,179.190156 129.112105,182.246478 127.261723,186.890001 C122.21672,199.556526 131.58475,212.516379 143.555432,217.727913 L151.720588,199.539126 C148.185172,198.000399 146.059632,195.007465 146.062156,194.152341 C146.312071,193.52467 147.893605,192.014531 148.939966,191.016472 L149.882828,190.111631 C158.788894,181.469658 164.342563,167.970381 156.677238,157.292516 C153.605049,153.01441 149.341345,150.77841 146.226242,149.145222 C144.995599,148.500151 143.136382,147.524464 142.731217,147.031028 C142.841028,147.173962 142.904138,147.30074 142.936955,147.388986 C142.877632,147.462318 142.777918,147.564237 142.630241,147.666156 L131.001615,131.407612 C126.771991,134.340887 123.86515,139.041583 123.024526,144.30532 C122.183903,149.567813 123.485228,154.921039 126.596545,158.991578 C129.647277,162.983814 133.576498,165.043321 136.733254,166.698881 L136.733254,166.698881 Z" id="Path"></path>
                <path d="M343.248022,54.6784567 C349.516151,54.6784567 355.408838,52.18376 359.840818,47.6549415 C368.989295,38.3065729 368.989295,23.0946181 359.840818,13.7462494 C355.408838,9.21743092 349.516151,6.72273428 343.248022,6.72273428 C336.979893,6.72273428 331.087206,9.21743092 326.654248,13.7462494 C317.505771,23.0946181 317.505771,38.3065729 326.655226,47.6559406 C331.087206,52.18376 336.979893,54.6784567 343.248022,54.6784567 Z M337.716112,25.0498128 C339.194417,23.5402067 341.158646,22.7079751 343.248022,22.7079751 C345.337398,22.7079751 347.301627,23.5392076 348.777976,25.0488138 C351.827469,28.1649366 351.827469,33.2352552 348.777976,36.3513781 C347.30065,37.8609843 345.336421,38.6922168 343.248022,38.6922168 C341.157668,38.6922168 339.194417,37.8599852 337.71709,36.3513781 C334.66662,33.2362543 334.66662,28.1649366 337.716112,25.0498128 L337.716112,25.0498128 Z" id="Shape"></path>
                <path d="M422.993172,208.136768 C422.993172,203.012699 421.041751,198.195547 417.497763,194.573291 C413.953776,190.950237 409.241751,188.954479 404.229506,188.954479 C399.217262,188.954479 394.505237,190.950237 390.962031,194.572492 C387.417262,198.195547 385.465841,203.012699 385.465841,208.136768 C385.465841,213.260837 387.417262,218.07799 390.96125,221.700245 C394.505237,225.3233 399.217262,227.319057 404.229506,227.319057 C409.241751,227.319057 413.953776,225.3233 417.496981,221.701044 C421.041751,218.07799 422.993172,213.260837 422.993172,208.136768 Z M408.651477,212.658194 C407.47093,213.865879 405.900254,214.530865 404.229506,214.530865 C402.558758,214.530865 400.988083,213.865879 399.806754,212.657394 C398.625425,211.450509 397.974951,209.844791 397.974951,208.136768 C397.974951,206.428745 398.625425,204.823028 399.807536,203.615343 C400.988083,202.407658 402.558758,201.742672 404.229506,201.742672 C405.900254,201.742672 407.47093,202.407658 408.651477,203.615343 L408.652259,203.615343 C409.833588,204.823028 410.484062,206.428745 410.484062,208.136768 C410.484062,209.844791 409.833588,211.450509 408.651477,212.658194 Z" id="Shape"></path>
                <path d="M580.715688,123.129061 L590.7045,122.998563 L596.472829,131.337465 C597.484676,132.799591 599.120071,133.647488 600.837671,133.647488 C601.115027,133.647488 601.395056,133.625624 601.674416,133.579848 C603.684743,133.254627 605.33952,131.790451 605.944356,129.804282 L608.91039,120.05108 L618.450755,117.01956 C620.393581,116.401914 621.825805,114.71022 622.143929,112.655045 C622.462721,110.600552 621.611941,108.538544 619.95048,107.337415 L611.793552,101.4404 L611.920534,91.2273797 C611.946599,89.1469243 610.815122,87.2318123 609.001951,86.2875793 C607.18878,85.3426632 605.006694,85.5332862 603.377313,86.7767767 L595.370758,92.8849116 L585.909256,89.6046928 C583.981133,88.9371707 581.850507,89.4448155 580.410931,90.9158238 C578.972024,92.3868321 578.475457,94.5656735 579.128412,96.5361277 L582.337049,106.208708 L576.362208,114.393882 C575.145853,116.060979 574.95939,118.29038 575.883686,120.144001 C576.797288,121.977124 578.638529,123.128378 580.646851,123.128378 C580.669574,123.129061 580.692965,123.129061 580.715688,123.129061 Z M593.912658,110.859275 C594.825103,109.608885 595.077851,107.97923 594.587427,106.50128 L594.039033,104.848513 L595.65639,105.409115 C597.102737,105.911049 598.696326,105.652082 599.919489,104.718734 L601.287577,103.675161 L601.266128,105.420374 C601.246418,106.980695 601.979156,108.450348 603.225507,109.351696 L604.619101,110.359119 L602.98899,110.877053 C601.531629,111.340468 600.390784,112.506709 599.93688,113.997103 L599.430224,115.664092 L598.444737,114.238884 C597.574611,112.981383 596.161887,112.235297 594.65815,112.235297 C594.63844,112.235297 594.618731,112.235297 594.598441,112.235297 L592.89181,112.257816 L593.912658,110.859275 Z" id="Shape"></path>
                <path d="M758.942995,351.446773 C758.776079,345.026316 758.969406,338.116556 761.669641,335.553373 C762.881366,334.403333 765.151634,333.572352 767.553956,332.69256 L768.741383,332.25445 C778.64964,328.557895 785.623134,323.819638 790.688716,317.344416 C798.055203,307.928618 800.277931,295.180563 796.353294,284.865924 L780.818491,292.373324 C782.121069,295.79725 780.93998,301.00219 778.009443,304.748747 C775.007069,308.586974 770.373567,311.581124 763.426484,314.17407 L762.32991,314.577655 C758.848973,315.851508 754.51761,317.438467 750.778904,320.986208 C741.470699,329.822224 741.844676,344.251289 742.044341,352.003935 L758.942995,351.446773 Z" id="Path"></path>
            </g>
            <g id="Group-9" transform="translate(423.931624, 280.883517)" fill="#879DEF">
                <path d="M117.277606,132.590066 C136.984305,101.445389 133.642239,70.0359274 107.251409,38.36168 C103.578624,33.9536082 99.7780086,29.9254292 95.8495609,26.2771429 L95.8495653,26.2771382 C75.2782216,7.17286134 43.1147762,8.36215395 24.0104993,28.9334976 C6.60936309,47.670912 5.83613793,76.4181737 22.2048691,96.0639081 C22.2048691,96.0639081 22.2048691,96.0639081 22.2048691,96.0639081 C46.0468466,124.679025 77.737759,136.854411 117.277606,132.590066 Z" id="Path-2" filter="url(#filter-1)" transform="translate(64.957265, 66.709835) scale(-1, 1) translate(-64.957265, -66.709835) "></path>
                <path d="M117.277606,132.590066 C136.984305,101.445389 133.642239,70.0359274 107.251409,38.36168 C103.578624,33.9536082 99.7780086,29.9254292 95.8495609,26.2771429 L95.8495653,26.2771382 C75.2782216,7.17286134 43.1147762,8.36215395 24.0104993,28.9334976 C6.60936309,47.670912 5.83613793,76.4181737 22.2048691,96.0639081 C22.2048691,96.0639081 22.2048691,96.0639081 22.2048691,96.0639081 C46.0468466,124.679025 77.737759,136.854411 117.277606,132.590066 Z" id="Path-2-Copy" transform="translate(64.957265, 66.709835) scale(-1, 1) translate(-64.957265, -66.709835) "></path>
            </g>
            <g id="Group-9" transform="translate(346.000000, 344.000000) scale(-1, 1) translate(-346.000000, -344.000000) translate(281.000000, 277.000000)" fill="#879DEF">
                <path d="M117.277606,132.590066 C136.984305,101.445389 133.642239,70.0359274 107.251409,38.36168 C103.578624,33.9536082 99.7780086,29.9254292 95.8495609,26.2771429 L95.8495653,26.2771382 C75.2782216,7.17286134 43.1147762,8.36215395 24.0104993,28.9334976 C6.60936309,47.670912 5.83613793,76.4181737 22.2048691,96.0639081 C22.2048691,96.0639081 22.2048691,96.0639081 22.2048691,96.0639081 C46.0468466,124.679025 77.737759,136.854411 117.277606,132.590066 Z" id="Path-2" filter="url(#filter-2)" transform="translate(64.957265, 66.709835) scale(-1, 1) translate(-64.957265, -66.709835) "></path>
                <path d="M117.277606,132.590066 C136.984305,101.445389 133.642239,70.0359274 107.251409,38.36168 C103.578624,33.9536082 99.7780086,29.9254292 95.8495609,26.2771429 L95.8495653,26.2771382 C75.2782216,7.17286134 43.1147762,8.36215395 24.0104993,28.9334976 C6.60936309,47.670912 5.83613793,76.4181737 22.2048691,96.0639081 C22.2048691,96.0639081 22.2048691,96.0639081 22.2048691,96.0639081 C46.0468466,124.679025 77.737759,136.854411 117.277606,132.590066 Z" id="Path-2-Copy" transform="translate(64.957265, 66.709835) scale(-1, 1) translate(-64.957265, -66.709835) "></path>
            </g>
            <rect id="Rectangle" fill="#879DEF" fill-rule="nonzero" x="410" y="414" width="220" height="332"></rect>
            <path d="M635.897436,751.363407 L633.639752,406.922925 C633.639752,399.189061 627.577362,392.918546 620.100193,392.918546 L493.424661,392.918546 C522.143335,369.046824 538.856228,332.99649 538.862838,294.887895 C538.862838,287.154032 532.800448,280.883517 525.323279,280.883517 C479.633878,280.945059 437.81859,307.435765 417.006807,349.503605 C396.195024,307.435765 354.379736,280.945059 308.690335,280.883517 C301.213166,280.883517 295.150776,287.154032 295.150776,294.887895 C295.157386,332.99649 311.87028,369.046824 340.588954,392.918546 L213.913421,392.918546 C206.436252,392.918546 200.373862,399.189061 200.373862,406.922925 L198.290598,750.509244 L635.897436,751.363407 Z M606.782021,742.277314 L429.669271,743.010595 L430.546366,422.0761 C445.897369,429.35865 498.244161,460.506085 498.244161,546.966712 C498.244161,554.700576 504.306551,560.971091 511.78372,560.971091 C519.260889,560.971091 525.323279,554.700576 525.323279,546.966712 C525.323279,482.26484 500.412606,443.404059 476.705157,420.927304 L606.560634,420.927304 L606.782021,742.277314 Z M510.646609,310.068423 C504.213997,352.115749 472.33521,385.08895 431.683478,391.742397 C438.11609,349.695071 469.994877,316.72187 510.646609,310.068423 Z M323.367005,310.068423 C364.018737,316.72187 395.897524,349.695071 402.330137,391.742397 C361.678404,385.08895 329.799618,352.115749 323.367005,310.068423 Z M227.45298,420.927304 L357.308458,420.927304 C333.601008,443.404059 308.690335,482.26484 308.690335,546.966712 C308.690335,554.700576 314.752725,560.971091 322.229894,560.971091 C329.707063,560.971091 335.769453,554.700576 335.769453,546.966712 C335.769453,460.13683 387.818744,429.331298 403.467248,422.035071 L403.433101,742.157694 L226.21553,742.512305 L227.45298,420.927304 Z" id="Shape" fill="#414D86" fill-rule="nonzero"></path>
            <rect id="Rectangle" fill="#414D86" fill-rule="nonzero" x="150.42735" y="744.34132" width="512.820513" height="28.0883517" rx="1"></rect>
            <g id="flower-variant-with-stem" transform="translate(198.500000, 626.500000) rotate(-33.000000) translate(-198.500000, -626.500000) translate(125.000000, 515.000000)" fill="#879DEF" fill-rule="nonzero">
                <path d="M129.989,90.72 C118.704,84.212 96.066,80.219 82.725,78.317 C96.066,76.423 118.711,72.428 129.989,65.92 C146.563,56.345 148.848,46.226 144.151,38.099 C139.45,29.966 129.568,26.872 112.969,36.458 C101.455,43.117 86.283,61.352 78.076,71.877 C83.109,59.216 90.394,38.712 90.394,26.175 C90.395,7.035 82.782,0 73.382,0 C63.995,0 56.379,7.035 56.379,26.175 C56.379,38.72 63.664,59.216 68.688,71.869 C60.484,61.352 45.3,43.116 33.792,36.458 C17.205,26.873 7.313,29.966 2.616,38.099 C-2.083,46.234 0.183,56.345 16.788,65.92 C28.061,72.428 50.701,76.424 64.056,78.317 C50.701,80.218 28.053,84.212 16.788,90.72 C0.201,100.296 -2.069,110.41 2.616,118.538 C7.304,126.681 17.187,129.763 33.792,120.181 C43.927,114.338 56.879,99.503 65.435,88.867 L73.382,222.763 L81.331,88.859 C89.887,99.495 102.843,114.323 112.97,120.181 C129.561,129.746 139.45,126.665 144.152,118.538 C148.848,110.41 146.563,100.296 129.989,90.72 Z" id="Path" filter="url(#filter-3)"></path>
                <path d="M129.989,90.72 C118.704,84.212 96.066,80.219 82.725,78.317 C96.066,76.423 118.711,72.428 129.989,65.92 C146.563,56.345 148.848,46.226 144.151,38.099 C139.45,29.966 129.568,26.872 112.969,36.458 C101.455,43.117 86.283,61.352 78.076,71.877 C83.109,59.216 90.394,38.712 90.394,26.175 C90.395,7.035 82.782,0 73.382,0 C63.995,0 56.379,7.035 56.379,26.175 C56.379,38.72 63.664,59.216 68.688,71.869 C60.484,61.352 45.3,43.116 33.792,36.458 C17.205,26.873 7.313,29.966 2.616,38.099 C-2.083,46.234 0.183,56.345 16.788,65.92 C28.061,72.428 50.701,76.424 64.056,78.317 C50.701,80.218 28.053,84.212 16.788,90.72 C0.201,100.296 -2.069,110.41 2.616,118.538 C7.304,126.681 17.187,129.763 33.792,120.181 C43.927,114.338 56.879,99.503 65.435,88.867 L73.382,222.763 L81.331,88.859 C89.887,99.495 102.843,114.323 112.97,120.181 C129.561,129.746 139.45,126.665 144.152,118.538 C148.848,110.41 146.563,100.296 129.989,90.72 Z" id="Path"></path>
            </g>
        </g>
    </g>
</svg>