<?xml version="1.0" encoding="UTF-8"?>
<svg width="170px" height="170px" viewBox="0 0 170 170" version="1.1" xmlns="http://www.w3.org/2000/svg" xmlns:xlink="http://www.w3.org/1999/xlink">
    <defs>
        <filter x="-60.4%" y="-60.4%" width="220.8%" height="220.8%" filterUnits="objectBoundingBox" id="filter-1">
            <feGaussianBlur stdDeviation="4" in="SourceGraphic"></feGaussianBlur>
        </filter>
        <filter x="-80.4%" y="-80.4%" width="260.9%" height="260.9%" filterUnits="objectBoundingBox" id="filter-2">
            <feGaussianBlur stdDeviation="4" in="SourceGraphic"></feGaussianBlur>
        </filter>
        <rect id="path-3" x="0" y="0" width="84.442623" height="130.803279"></rect>
        <filter x="-98.2%" y="-188.4%" width="296.3%" height="476.9%" filterUnits="objectBoundingBox" id="filter-5">
            <feGaussianBlur stdDeviation="1" in="SourceGraphic"></feGaussianBlur>
        </filter>
        <filter x="-97.7%" y="-187.5%" width="295.3%" height="475.0%" filterUnits="objectBoundingBox" id="filter-6">
            <feGaussianBlur stdDeviation="1" in="SourceGraphic"></feGaussianBlur>
        </filter>
    </defs>
    <g id="Illustrations/170px/human_salesforce" stroke="none" stroke-width="1" fill="none" fill-rule="evenodd">
        <g id="Group-2" transform="translate(43.000000, 22.000000)">
            <g id="Group-4" transform="translate(73.000000, 0.000000)" fill="#8DA4FA" fill-rule="nonzero">
                <g id="Group">
                    <path d="M11.1162608,10.830214 C11.2545782,10.830214 11.3719485,10.9289646 11.395888,11.065287 L11.395888,11.065287 L11.8650366,13.7421935 C12.4419131,13.9004605 12.9955151,14.1312111 13.5152027,14.4284605 L13.5152027,14.4284605 L15.7183057,12.8431307 C15.8310211,12.7613372 15.9862956,12.773307 16.0850462,12.8733876 L16.0850462,12.8733876 L17.7907388,14.5770851 C17.8884919,14.6748383 17.9017916,14.8277854 17.8223257,14.9411657 L17.8223257,14.9411657 L16.254618,17.1775181 C16.546215,17.6935483 16.7739731,18.2438253 16.9325726,18.8160469 L16.9325726,18.8160469 L19.6217814,19.2556036 C19.7587688,19.2788781 19.8595144,19.3975784 19.8601794,19.5358957 L19.8601794,19.5358957 L19.8601794,21.9474723 C19.8601794,22.0851247 19.7607637,22.2038249 19.6247738,22.2270995 L19.6247738,22.2270995 L16.9342351,22.6985755 C16.7772981,23.2711296 16.5505374,23.8224041 16.2576104,24.3404292 L16.2576104,24.3404292 L17.8479277,26.5495172 C17.9290561,26.6622325 17.9170864,26.8175071 17.8183357,26.9165902 L17.8183357,26.9165902 L16.1139732,28.6226152 C16.0155551,28.7203683 15.862608,28.7336681 15.7498926,28.6548671 L15.7498926,28.6548671 L13.5195251,27.0884894 C13.0011675,27.3857388 12.4482305,27.6178193 11.8710215,27.7784138 L11.8710215,27.7784138 L11.3962205,30.4576478 C11.372281,30.5929727 11.2542457,30.6917233 11.1165933,30.6917233 L11.1165933,30.6917233 L8.70435177,30.6917233 C8.56570191,30.6917233 8.44700167,30.5906452 8.4243921,30.4546553 L8.4243921,30.4546553 L7.98051305,27.7877236 C7.40297154,27.6291241 6.84704213,27.3997035 6.32502707,27.1044491 L6.32502707,27.1044491 L4.11095173,28.6551996 C3.9965739,28.7340006 3.8446243,28.7207008 3.74720365,28.6229477 L3.74720365,28.6229477 L2.04151113,26.9169227 C1.943093,26.8178396 1.93045824,26.6635625 2.0115867,26.5505147 L2.0115867,26.5505147 L3.57729939,24.3607114 C3.27838758,23.8350389 3.046307,23.276782 2.88671004,22.6965805 L2.88671004,22.6965805 L0.23474053,22.227432 C0.0987506198,22.2031599 -3.1076088e-13,22.0854572 -3.1076088e-13,21.9478048 L-3.1076088e-13,21.9478048 L-3.1076088e-13,19.5362282 C-3.1076088e-13,19.3975784 0.100413088,19.2788781 0.237067986,19.2556036 L0.237067986,19.2556036 L2.89003497,18.8150494 C3.05029692,18.234848 3.2823775,17.6769236 3.58128931,17.1522486 L3.58128931,17.1522486 L2.03486126,14.9414982 C1.95606026,14.8281179 1.96936,14.6751708 2.06711314,14.5774176 L2.06711314,14.5774176 L3.77247317,12.8737201 C3.87022631,12.7736395 4.02483587,12.7616697 4.1385487,12.8434631 L4.1385487,12.8434631 L6.33566687,14.4121683 C6.85601946,14.1182439 7.4106189,13.8911507 7.98915788,13.7332162 L7.98915788,13.7332162 L8.4240596,11.0686119 C8.44600418,10.9309596 8.56470442,10.830214 8.70401927,10.830214 L8.70401927,10.830214 Z M9.92992343,17.682576 C8.23221076,17.682576 6.85036707,19.0637547 6.85036707,20.7611349 C6.85036707,22.4595126 8.23221076,23.8406913 9.92992343,23.8406913 C11.6279686,23.8406913 13.0088148,22.4591801 13.0088148,20.7611349 C13.0088148,19.0634222 11.6276361,17.682576 9.92992343,17.682576 Z" id="Shape" filter="url(#filter-1)"></path>
                    <path d="M21.9646597,0.0216120885 C22.0930022,-0.0315868986 22.2396319,0.0169571771 22.313113,0.134659936 L22.313113,0.134659936 L23.3760953,1.85298722 C23.8083371,1.8064381 24.2435713,1.80976304 24.6754806,1.86196455 L24.6754806,1.86196455 L25.7457777,0.146297214 C25.8192588,0.0295919366 25.9645585,-0.0226095695 26.0965585,0.0352443289 L26.0965585,0.0352443289 L27.7985936,0.747778262 C27.9256062,0.801309743 27.9960948,0.937632147 27.9655054,1.07295707 L27.9655054,1.07295707 L27.515309,3.05761178 C27.8591074,3.33358153 28.1653341,3.64280064 28.4293341,3.98127919 L28.4293341,3.98127919 L30.4093339,3.52210544 C30.5459888,3.48553113 30.6839737,3.56200468 30.7365077,3.69067973 L30.7365077,3.69067973 L31.4364068,5.39803472 C31.4886083,5.52571229 31.4417267,5.6720095 31.3250214,5.74648808 L31.3250214,5.74648808 L29.5947244,6.83573735 C29.6419385,7.26498667 29.640276,7.69789343 29.5900695,8.12581278 L29.5900695,8.12581278 L31.3203665,9.20807967 C31.4387343,9.28156078 31.4852834,9.43018545 31.4317519,9.5588605 L31.4317519,9.5588605 L30.720548,11.2592331 C30.6670165,11.3859132 30.5290316,11.4534094 30.3960341,11.4268099 L30.3960341,11.4268099 L28.3997421,10.975616 C28.1307548,11.3124321 27.8245281,11.6176613 27.4853846,11.8849862 L27.4853846,11.8849862 L27.9458883,13.8696409 C27.9771427,14.0049658 27.9063215,14.1436157 27.777314,14.1968147 L27.777314,14.1968147 L26.0716215,14.8977113 C26.0363771,14.9120086 25.9994703,14.9186584 25.963561,14.9186584 C25.8688003,14.9186584 25.7766996,14.8711118 25.7235006,14.785661 L25.7235006,14.785661 L24.6352488,13.0586889 C24.2059995,13.1095604 23.7677728,13.1105579 23.3365285,13.0596863 L23.3365285,13.0596863 L22.2326496,14.7736912 C22.1585035,14.888734 22.0112088,14.9366131 21.8848612,14.8810867 L21.8848612,14.8810867 L20.1838236,14.1712127 C20.055481,14.1180137 19.9843274,13.9793638 20.0169118,13.8440389 L20.0169118,13.8440389 L20.4807404,11.8726839 C20.1392694,11.6010366 19.8317128,11.2924825 19.5620604,10.9510115 L19.5620604,10.9510115 L17.5830581,11.3825883 C17.4474007,11.4091878 17.3114108,11.3403616 17.2595418,11.212684 L17.2595418,11.212684 L16.5606401,9.50300156 C16.5081061,9.37432651 16.5563176,9.22703181 16.6743529,9.15355071 L16.6743529,9.15355071 L18.3886903,8.09522336 C18.3388162,7.65666421 18.3401462,7.21744008 18.3920152,6.78719327 L18.3920152,6.78719327 L16.6949675,5.69096164 C16.5795922,5.61648306 16.5340406,5.47018585 16.5872396,5.34250828 L16.5872396,5.34250828 L17.2984435,3.64213565 C17.3516425,3.51445808 17.4886299,3.440312 17.6256173,3.47588882 L17.6256173,3.47588882 L19.586,3.93971749 C19.8619697,3.59458906 20.1738488,3.28536995 20.5159848,3.01804504 L20.5159848,3.01804504 L20.0874004,1.04137017 C20.058141,0.906710236 20.1296271,0.770387832 20.2576372,0.718186325 L20.2576372,0.718186325 Z M24.0048408,5.17626144 C23.0791784,5.17626144 22.2506042,5.72687096 21.893506,6.57971722 C21.4070678,7.74444254 21.9576773,9.08771697 23.1214051,9.57482019 C23.4036923,9.69219046 23.7006091,9.75237181 24.0031784,9.75237181 C24.9295057,9.75237181 25.757415,9.20076481 26.1145132,8.34791855 C26.6016164,7.18518819 26.0506744,5.84191377 24.887279,5.35381306 C24.6049919,5.2361103 24.308075,5.17626144 24.0048408,5.17626144 Z" id="Shape" filter="url(#filter-2)"></path>
                </g>
                <g id="Group">
                    <path d="M11.1162608,10.830214 C11.2545782,10.830214 11.3719485,10.9289646 11.395888,11.065287 L11.395888,11.065287 L11.8650366,13.7421935 C12.4419131,13.9004605 12.9955151,14.1312111 13.5152027,14.4284605 L13.5152027,14.4284605 L15.7183057,12.8431307 C15.8310211,12.7613372 15.9862956,12.773307 16.0850462,12.8733876 L16.0850462,12.8733876 L17.7907388,14.5770851 C17.8884919,14.6748383 17.9017916,14.8277854 17.8223257,14.9411657 L17.8223257,14.9411657 L16.254618,17.1775181 C16.546215,17.6935483 16.7739731,18.2438253 16.9325726,18.8160469 L16.9325726,18.8160469 L19.6217814,19.2556036 C19.7587688,19.2788781 19.8595144,19.3975784 19.8601794,19.5358957 L19.8601794,19.5358957 L19.8601794,21.9474723 C19.8601794,22.0851247 19.7607637,22.2038249 19.6247738,22.2270995 L19.6247738,22.2270995 L16.9342351,22.6985755 C16.7772981,23.2711296 16.5505374,23.8224041 16.2576104,24.3404292 L16.2576104,24.3404292 L17.8479277,26.5495172 C17.9290561,26.6622325 17.9170864,26.8175071 17.8183357,26.9165902 L17.8183357,26.9165902 L16.1139732,28.6226152 C16.0155551,28.7203683 15.862608,28.7336681 15.7498926,28.6548671 L15.7498926,28.6548671 L13.5195251,27.0884894 C13.0011675,27.3857388 12.4482305,27.6178193 11.8710215,27.7784138 L11.8710215,27.7784138 L11.3962205,30.4576478 C11.372281,30.5929727 11.2542457,30.6917233 11.1165933,30.6917233 L11.1165933,30.6917233 L8.70435177,30.6917233 C8.56570191,30.6917233 8.44700167,30.5906452 8.4243921,30.4546553 L8.4243921,30.4546553 L7.98051305,27.7877236 C7.40297154,27.6291241 6.84704213,27.3997035 6.32502707,27.1044491 L6.32502707,27.1044491 L4.11095173,28.6551996 C3.9965739,28.7340006 3.8446243,28.7207008 3.74720365,28.6229477 L3.74720365,28.6229477 L2.04151113,26.9169227 C1.943093,26.8178396 1.93045824,26.6635625 2.0115867,26.5505147 L2.0115867,26.5505147 L3.57729939,24.3607114 C3.27838758,23.8350389 3.046307,23.276782 2.88671004,22.6965805 L2.88671004,22.6965805 L0.23474053,22.227432 C0.0987506198,22.2031599 -3.1076088e-13,22.0854572 -3.1076088e-13,21.9478048 L-3.1076088e-13,21.9478048 L-3.1076088e-13,19.5362282 C-3.1076088e-13,19.3975784 0.100413088,19.2788781 0.237067986,19.2556036 L0.237067986,19.2556036 L2.89003497,18.8150494 C3.05029692,18.234848 3.2823775,17.6769236 3.58128931,17.1522486 L3.58128931,17.1522486 L2.03486126,14.9414982 C1.95606026,14.8281179 1.96936,14.6751708 2.06711314,14.5774176 L2.06711314,14.5774176 L3.77247317,12.8737201 C3.87022631,12.7736395 4.02483587,12.7616697 4.1385487,12.8434631 L4.1385487,12.8434631 L6.33566687,14.4121683 C6.85601946,14.1182439 7.4106189,13.8911507 7.98915788,13.7332162 L7.98915788,13.7332162 L8.4240596,11.0686119 C8.44600418,10.9309596 8.56470442,10.830214 8.70401927,10.830214 L8.70401927,10.830214 Z M9.92992343,17.682576 C8.23221076,17.682576 6.85036707,19.0637547 6.85036707,20.7611349 C6.85036707,22.4595126 8.23221076,23.8406913 9.92992343,23.8406913 C11.6279686,23.8406913 13.0088148,22.4591801 13.0088148,20.7611349 C13.0088148,19.0634222 11.6276361,17.682576 9.92992343,17.682576 Z" id="Shape"></path>
                    <path d="M21.9646597,0.0216120885 C22.0930022,-0.0315868986 22.2396319,0.0169571771 22.313113,0.134659936 L22.313113,0.134659936 L23.3760953,1.85298722 C23.8083371,1.8064381 24.2435713,1.80976304 24.6754806,1.86196455 L24.6754806,1.86196455 L25.7457777,0.146297214 C25.8192588,0.0295919366 25.9645585,-0.0226095695 26.0965585,0.0352443289 L26.0965585,0.0352443289 L27.7985936,0.747778262 C27.9256062,0.801309743 27.9960948,0.937632147 27.9655054,1.07295707 L27.9655054,1.07295707 L27.515309,3.05761178 C27.8591074,3.33358153 28.1653341,3.64280064 28.4293341,3.98127919 L28.4293341,3.98127919 L30.4093339,3.52210544 C30.5459888,3.48553113 30.6839737,3.56200468 30.7365077,3.69067973 L30.7365077,3.69067973 L31.4364068,5.39803472 C31.4886083,5.52571229 31.4417267,5.6720095 31.3250214,5.74648808 L31.3250214,5.74648808 L29.5947244,6.83573735 C29.6419385,7.26498667 29.640276,7.69789343 29.5900695,8.12581278 L29.5900695,8.12581278 L31.3203665,9.20807967 C31.4387343,9.28156078 31.4852834,9.43018545 31.4317519,9.5588605 L31.4317519,9.5588605 L30.720548,11.2592331 C30.6670165,11.3859132 30.5290316,11.4534094 30.3960341,11.4268099 L30.3960341,11.4268099 L28.3997421,10.975616 C28.1307548,11.3124321 27.8245281,11.6176613 27.4853846,11.8849862 L27.4853846,11.8849862 L27.9458883,13.8696409 C27.9771427,14.0049658 27.9063215,14.1436157 27.777314,14.1968147 L27.777314,14.1968147 L26.0716215,14.8977113 C26.0363771,14.9120086 25.9994703,14.9186584 25.963561,14.9186584 C25.8688003,14.9186584 25.7766996,14.8711118 25.7235006,14.785661 L25.7235006,14.785661 L24.6352488,13.0586889 C24.2059995,13.1095604 23.7677728,13.1105579 23.3365285,13.0596863 L23.3365285,13.0596863 L22.2326496,14.7736912 C22.1585035,14.888734 22.0112088,14.9366131 21.8848612,14.8810867 L21.8848612,14.8810867 L20.1838236,14.1712127 C20.055481,14.1180137 19.9843274,13.9793638 20.0169118,13.8440389 L20.0169118,13.8440389 L20.4807404,11.8726839 C20.1392694,11.6010366 19.8317128,11.2924825 19.5620604,10.9510115 L19.5620604,10.9510115 L17.5830581,11.3825883 C17.4474007,11.4091878 17.3114108,11.3403616 17.2595418,11.212684 L17.2595418,11.212684 L16.5606401,9.50300156 C16.5081061,9.37432651 16.5563176,9.22703181 16.6743529,9.15355071 L16.6743529,9.15355071 L18.3886903,8.09522336 C18.3388162,7.65666421 18.3401462,7.21744008 18.3920152,6.78719327 L18.3920152,6.78719327 L16.6949675,5.69096164 C16.5795922,5.61648306 16.5340406,5.47018585 16.5872396,5.34250828 L16.5872396,5.34250828 L17.2984435,3.64213565 C17.3516425,3.51445808 17.4886299,3.440312 17.6256173,3.47588882 L17.6256173,3.47588882 L19.586,3.93971749 C19.8619697,3.59458906 20.1738488,3.28536995 20.5159848,3.01804504 L20.5159848,3.01804504 L20.0874004,1.04137017 C20.058141,0.906710236 20.1296271,0.770387832 20.2576372,0.718186325 L20.2576372,0.718186325 Z M24.0048408,5.17626144 C23.0791784,5.17626144 22.2506042,5.72687096 21.893506,6.57971722 C21.4070678,7.74444254 21.9576773,9.08771697 23.1214051,9.57482019 C23.4036923,9.69219046 23.7006091,9.75237181 24.0031784,9.75237181 C24.9295057,9.75237181 25.757415,9.20076481 26.1145132,8.34791855 C26.6016164,7.18518819 26.0506744,5.84191377 24.887279,5.35381306 C24.6049919,5.2361103 24.308075,5.17626144 24.0048408,5.17626144 Z" id="Shape"></path>
                </g>
            </g>
            <g id="waving" transform="translate(0.000000, 4.901639)">
                <mask id="mask-4" fill="white">
                    <use xlink:href="#path-3"></use>
                </mask>
                <g id="Rectangle"></g>
                <path d="M52.9908686,87.36195 C52.9908686,87.36195 53.0316636,88.1631544 53.096817,89.5709296 C64.7330587,88.8321491 74.5015157,97.6037043 74.5015157,97.6037043 L74.5015157,97.6037043 L74.493707,97.7513605 C74.2401011,102.542419 67.8817079,222.334841 66.0572534,223.931844 L66.0572534,223.931844 L65.9069489,223.93125 C64.6336005,223.923529 55.6546559,223.815444 53.8204803,222.302249 C53.2693811,222.044477 53.1624323,215.940431 53.1547325,207.790477 L53.1546757,205.712564 C53.1571827,202.420796 53.1703529,198.867511 53.1739013,195.276223 L53.1741134,192.193881 C53.1630392,181.152835 53.0065225,170.355715 52.1168133,166.278766 C51.5528855,163.694658 50.6203032,157.35761 49.5525113,149.431612 C46.4816779,156.950047 41.7953403,167.77814 36.98089,178.611279 L36.0049702,180.80337 C27.702541,199.419486 19.3177678,217.391096 18.423713,217.902344 C16.6706644,218.904791 9.65353178,216.899896 8.65602243,215.398694 C8.16724285,214.663105 10.6817234,203.404842 13.4625136,191.688632 L13.8041634,190.252389 C16.6021335,178.515563 19.5547009,166.731596 19.9249152,164.965214 C20.287574,163.234881 23.2386215,147.016398 26.29102,130.372396 L26.6729177,128.290697 C29.8567997,110.941688 33.0382125,93.7667501 33.4061058,92.6606011 L33.4061058,92.6606011 Z" id="Path-2" stroke="#414D86" stroke-width="1.5" fill-rule="nonzero" mask="url(#mask-4)"></path>
                <path d="M42.5515876,93.1544176 C43.0157751,96.7938453 50.0477222,156.797489 52.1168133,166.278766 C54.1859045,175.760043 52.2896491,221.586215 53.8204803,222.302249 C55.7957463,223.931844 66.0572534,223.931844 66.0572534,223.931844 C67.9189416,222.302249 74.5015157,97.6037043 74.5015157,97.6037043 C74.5015157,97.6037043 58.1463129,82.9176014 42.5515876,93.1544176 Z" id="Path" stroke="#414D86" stroke-width="1.5" fill-rule="nonzero" mask="url(#mask-4)"></path>
                <path d="M48.5909635,39.5703883 L48.5909635,44.7801524 C48.5909635,46.0640754 55.6722922,46.1381478 55.6673925,44.7801524 L55.6673925,36.5938331" id="Path" stroke="#414D86" stroke-width="1.5" fill="#6F7CBD" fill-rule="nonzero" mask="url(#mask-4)"></path>
                <path d="M46.3836037,13.3635462 C49.3465027,13.3635462 54.2846678,16.6721168 54.2846678,21.2942393 C54.5089678,20.1176544 55.4993887,19.2408883 56.6944924,19.160952 C58.0524878,19.160952 60.0820736,21.9312626 60.0820736,25.2398332 C60.0820736,28.3656917 58.2648289,30.5829278 58.0228588,31.0026718 C59.4154213,32.2223986 60.0820736,33.190279 60.0820736,34.3161806 C60.0982877,34.6460632 59.9669001,34.9660599 59.7235511,35.1893684 C59.4802021,35.4126769 59.1501195,35.5161469 58.8228415,35.4717112 C58.4068792,35.4717112 57.6656017,35.1785974 56.9346042,34.6480771 C55.3979772,37.5740018 52.3288433,39.5703883 48.7934282,39.5703883 C43.7179727,39.5703883 39.603503,35.4559186 39.603503,30.380463 C39.603503,28.5544408 40.1360721,26.8528068 41.0543568,25.4224142 C40.903776,25.610495 40.76208,25.8231267 40.620765,26.0990739 C39.5886885,25.5657521 36.5023353,23.6596204 36.5023353,20.3658643 C36.5023353,18.5683722 38.1615588,18.1980098 39.4652344,18.1980098 C41.5244492,18.1980098 43.939212,19.3387259 45.4749813,20.4695657 C44.8428962,19.9313057 43.1688582,17.6548116 43.1688582,15.5314006 C43.1688582,14.5585821 43.6379839,13.3635462 46.3836037,13.3635462 Z" id="Combined-Shape" stroke="#414D86" stroke-width="1.5" fill="#6F7CBD" fill-rule="nonzero" mask="url(#mask-4)"></path>
                <path d="M43.8700777,31.2643946 C43.6231694,31.6989531 42.3392465,33.5606414 43.9540265,34.0939632" id="Path" stroke="#414D86" stroke-linecap="round" mask="url(#mask-4)"></path>
                <path d="M47.2379062,35.7581248 C47.6922174,35.6988668 48.3440552,35.0717199 48.665036,34.5186454" id="Path" stroke="#414D86" stroke-linecap="round" mask="url(#mask-4)"></path>
                <path d="M54.8426805,31.0273627 C54.8426805,33.7186626 57.8055795,35.4717112 58.8228415,35.4717112 C59.1501195,35.5161469 59.4802021,35.4126769 59.7235511,35.1893684 C59.9669001,34.9660599 60.0982877,34.6460632 60.0820736,34.3161806 C60.0820736,33.190279 59.4154213,32.2223986 58.0228588,31.0026718 C58.2648289,30.5829278 60.0820736,28.3656917 60.0820736,25.2398332 C60.0820736,21.9312626 58.0524878,19.160952 56.6944924,19.160952 C55.4993887,19.2408883 54.5089678,20.1176544 54.2846678,21.2942393 C54.2846678,16.6721168 49.3465027,13.3635462 46.3836037,13.3635462 C43.6379839,13.3635462 43.1688582,14.5585821 43.1688582,15.5314006 C43.1688582,17.6548116 44.8428962,19.9313057 45.4749813,20.4695657 C43.939212,19.3387259 41.5244492,18.1980098 39.4652344,18.1980098 C38.1615588,18.1980098 36.5023353,18.5683722 36.5023353,20.3658643 C36.5023353,23.6596204 39.5886885,25.5657521 40.620765,26.0990739 C40.8178776,25.7141701 43.5533753,25.4329339 44.6113936,25.2398332 C46.1643374,25.2398332 54.8426805,24.8497181 54.8426805,31.0273627 Z" id="Path-3" stroke="#414D86" stroke-width="2" fill="#414D86" fill-rule="nonzero" mask="url(#mask-4)"></path>
                <path d="M29.3963158,16.7955709 C27.7859822,16.2806714 26.2064731,15.6739288 24.6655536,14.9783261 C23.9791487,14.5733966 26.9272332,9.6105407 28.295105,8.17353466 C29.6629767,6.73652862 32.4876071,6.00074202 33.9641185,7.28466494 C35.4406299,8.56858786 34.5270693,11.7290135 29.3963158,16.7955709 Z" id="Path" stroke="#414D86" stroke-width="1.5" fill="#6F7CBD" fill-rule="nonzero" mask="url(#mask-4)"></path>
                <path d="M69.7756917,43.9258499 C78.8273483,49.0911705 89.3653926,79.8213719 89.3653926,82.1768766 C89.3653926,84.5323814 70.1065487,119.800756 68.9510181,119.800756 C67.9633851,118.748927 63.7807593,113.766319 63.7807593,113.766319 C64.8276503,112.161415 71.6818234,96.724711 71.9237935,96.0778113 C70.2546937,96.3543486 35.0653293,97.5148174 32.1024303,96.21608 C29.1395312,94.9173425 30.2950618,61.5353466 29.5098936,60.4242594 C28.7247253,59.3131723 7.70295657,57.7625884 5.1104199,53.7774892 C6.17706356,34.0939632 23.3026201,15.2104199 24.556914,14.7017889 C25.8112079,14.1931579 29.880256,15.5807823 30.0629681,16.499281 C29.5691516,17.7930802 20.2952775,42.0098418 21.1298274,43.1653724 C25.4803509,42.7159994 66.0029336,41.7678717 69.7756917,43.9258499 Z" id="Path" fill="#414D86" fill-rule="nonzero" mask="url(#mask-4)"></path>
                <path d="M65.089373,65.0611964 C65.9436756,66.5821513 74.5953408,81.3126977 74.5015157,82.547239 C74.4076905,83.7817803 73.2620362,92.3149295 71.9237935,96.0531205" id="Path" stroke="#121424" stroke-width="0.55" stroke-linecap="round" mask="url(#mask-4)"></path>
                <path d="M29.6580385,60.6859822 C29.536681,57.8337835 29.6871509,54.9765088 30.1074116,52.1528329" id="Path" stroke="#121424" stroke-width="0.55" stroke-linecap="round" mask="url(#mask-4)"></path>
            </g>
            <g id="Group-3" transform="translate(37.532727, 35.403177)" fill="#8DA4FA" fill-rule="nonzero">
                <ellipse id="Oval" filter="url(#filter-5)" transform="translate(2.528148, 2.793331) rotate(-5.767889) translate(-2.528148, -2.793331) " cx="2.52814837" cy="2.79333119" rx="1.52814837" ry="1"></ellipse>
                <ellipse id="Oval" filter="url(#filter-6)" transform="translate(12.369487, 1.799983) rotate(-5.930000) translate(-12.369487, -1.799983) " cx="12.3694868" cy="1.79998274" rx="1.53576934" ry="1"></ellipse>
            </g>
            <g id="Group-3" transform="translate(37.532727, 35.403177)" fill="#8DA4FA" fill-rule="nonzero">
                <ellipse id="Oval" transform="translate(2.528148, 2.793331) rotate(-5.767889) translate(-2.528148, -2.793331) " cx="2.52814837" cy="2.79333119" rx="1.52814837" ry="1"></ellipse>
                <ellipse id="Oval" transform="translate(12.369487, 1.799983) rotate(-5.930000) translate(-12.369487, -1.799983) " cx="12.3694868" cy="1.79998274" rx="1.53576934" ry="1"></ellipse>
            </g>
        </g>
    </g>
</svg>
