<?xml version="1.0" encoding="UTF-8"?>
<svg width="133px" height="90px" viewBox="0 0 133 90" version="1.1" xmlns="http://www.w3.org/2000/svg" xmlns:xlink="http://www.w3.org/1999/xlink">
    <title>investment-share</title>
    <defs>
        <filter x="-113.9%" y="-129.6%" width="327.9%" height="359.3%" filterUnits="objectBoundingBox" id="filter-1">
            <feGaussianBlur stdDeviation="10" in="SourceGraphic"></feGaussianBlur>
        </filter>
        <filter x="-441.8%" y="-331.3%" width="983.6%" height="762.7%" filterUnits="objectBoundingBox" id="filter-2">
            <feGaussianBlur stdDeviation="10" in="SourceGraphic"></feGaussianBlur>
        </filter>
        <filter x="-100.0%" y="-113.8%" width="300.0%" height="327.6%" filterUnits="objectBoundingBox" id="filter-3">
            <feGaussianBlur stdDeviation="10" in="SourceGraphic"></feGaussianBlur>
        </filter>
        <filter x="-387.8%" y="-290.9%" width="875.6%" height="681.7%" filterUnits="objectBoundingBox" id="filter-4">
            <feGaussianBlur stdDeviation="10" in="SourceGraphic"></feGaussianBlur>
        </filter>
    </defs>
    <g id="illustrations" stroke="none" stroke-width="1" fill="none" fill-rule="evenodd">
        <g id="illustrations/investment-share" transform="translate(-21.000000, -40.000000)">
            <g id="investment-share" transform="translate(22.000000, 41.000000)">
                <path d="M46.8982655,61.7369164 C48.7475232,63.7093624 50.9159246,65.30374 53.343208,66.4754225 C55.8459167,67.6835604 58.5249323,68.3927925 61.3059293,68.5835552 C61.4101106,68.5907835 61.515549,68.5944762 61.6194946,68.5944762 C62.0857964,68.5944762 62.5359131,68.5239222 62.9599452,68.3932639 C63.4027551,70.4519775 65.2364563,72 67.4252854,72 C67.5299382,72 67.6360051,71.9963073 67.7405007,71.9890791 C72.9846081,71.6281383 77.9247355,69.3771692 81.651064,65.6508528 C85.3773926,61.9245364 87.628369,56.9844252 87.989311,51.7403349 C88.0760502,50.4815992 87.6317475,49.2306418 86.7708766,48.3084123 C86.1314108,47.6235363 85.2952889,47.1558218 84.3906556,46.9605021 C84.5543916,46.4295405 84.622353,45.8683303 84.5836975,45.3055487 C84.3929341,42.5249537 83.6836997,39.8459468 82.4754007,37.3432463 C81.3036358,34.9160494 79.7092531,32.7476551 77.7368005,30.8984034 C73.6794645,27.0947762 68.380988,25 62.8177369,25 L62.8177369,25 L62.8175798,25 C59.8700184,25 57.010689,25.5762167 54.3189454,26.7126222 C51.7188908,27.8103723 49.3854963,29.3819652 47.3837379,31.3837956 C45.3819795,33.3856261 43.8103815,35.7189344 42.7126278,38.3189805 C41.5762186,41.0107153 41,43.870114 41,46.8177443 C41,52.3815272 43.0947831,57.6797507 46.8982655,61.7369164 Z M84.6313883,51.509424 C84.0004078,60.6753075 76.6754239,68.0004246 67.5093533,68.6312459 C67.4811474,68.6332101 67.4531771,68.6341529 67.4252854,68.6341529 C66.7672775,68.6341529 66.2235861,68.1001272 66.2235861,67.4316719 L66.2235861,51.4256706 C66.2235861,50.7618508 66.7617777,50.2235038 67.4257569,50.2235038 L83.4318889,50.2235038 C84.1287095,50.2235038 84.6791577,50.814177 84.6313883,51.509424 Z M62.8177369,28.3659256 C62.8183655,28.3659256 62.8171869,28.3659256 62.8177369,28.3659256 C72.576761,28.3659256 80.5676883,35.9439527 81.2256962,45.5361454 C81.2733871,46.2296639 80.7211318,46.8177443 80.0259611,46.8177443 L65.6648883,46.8177443 C64.092426,46.8177443 62.8177369,48.0925078 62.8177369,49.6649649 L62.8177369,64.0259909 C62.8177369,64.693032 62.2761669,65.2286291 61.6194946,65.2286291 C61.5919172,65.2286291 61.5641041,65.2275292 61.5362124,65.2257221 C51.9434384,64.5675592 44.365858,56.5777579 44.365858,46.8179014 C44.365858,36.6098153 52.609696,28.3659256 62.8177369,28.3659256 Z" id="Shape" fill="#8BA3F4" fill-rule="nonzero"></path>
                <path d="M67.420408,72 C65.281823,72 63.4016879,70.4927596 62.9332621,68.409872 C62.4098519,68.5658043 61.8620479,68.6274555 61.3085179,68.5891784 C58.5271416,68.3983418 55.8477334,67.6889599 53.34473,66.4807204 C50.9172615,65.3090324 48.7486351,63.7145704 46.8990121,61.7416511 C43.094974,57.6840401 41,52.3849325 41,46.8206302 C41,43.8725854 41.5762767,41.0128603 42.7128289,38.3207545 C43.8107117,35.7204198 45.3825109,33.3867699 47.3845371,31.3846721 C49.3865633,29.3825744 51.7201427,27.8107805 54.3206433,26.7129015 C57.0129152,25.5762747 59.8725716,25 62.8203912,25 C68.3845557,25 73.6836815,27.0950453 77.7414632,30.8991487 C79.7143109,32.7487655 81.3087784,34.9173844 82.4807057,37.3448446 C83.6890278,39.847761 84.3984905,42.5270031 84.5893278,45.308213 C84.6269775,45.8564074 84.5657182,46.4031114 84.4073539,46.9338928 C85.3159682,47.1386912 86.1295953,47.6042132 86.7623466,48.2819851 C87.6293893,49.2107545 88.0764803,50.4702132 87.9892583,51.7376725 C87.6282128,56.9823451 85.3769922,61.9231537 81.6502146,65.6499969 C77.9234371,69.3768401 72.9825331,71.628053 67.7378426,71.9890189 C67.6324232,71.9963135 67.5255136,72 67.420408,72 Z M62.9918545,68.3099436 L63.0008748,68.3517504 C63.4457695,70.4202056 65.3044913,71.9215633 67.4204864,71.9215633 C67.523788,71.9215633 67.6287367,71.9179552 67.7325088,71.910739 C72.9582961,71.5511065 77.8813949,69.3078942 81.5947597,65.5945421 C85.3081245,61.88119 87.5513445,56.9581081 87.9109782,51.7323388 C87.9967883,50.4865281 87.5572273,49.2484826 86.7050876,48.3355574 C86.0735913,47.6591974 85.2589445,47.1978325 84.3492321,47.0014269 L84.3074252,46.9924067 L84.3200535,46.9515411 C84.4848497,46.41723 84.5490896,45.866212 84.5111261,45.3136251 C84.3209948,42.5423767 83.6141205,39.8727823 82.4101908,37.3789646 C81.2424991,34.9602893 79.6536791,32.7993572 77.6879692,30.9564075 C73.6446199,27.1659521 68.3646327,25.0784367 62.8205481,25.0784367 C59.8831606,25.0784367 57.033701,25.6526721 54.3511553,26.7851417 C51.7600672,27.8790989 49.4348021,29.4452453 47.4399921,31.4401269 C45.4451037,33.4350085 43.8790304,35.7602656 42.7850694,38.351188 C41.6526743,41.0335676 41.078437,43.8830959 41.078437,46.8205518 C41.078437,52.3649311 43.1658811,57.6449002 46.9562711,61.6880003 C48.7993054,63.6537819 50.9601666,65.2425181 53.3788501,66.4100489 C55.8728333,67.6139744 58.5425937,68.3207679 61.3139301,68.5108201 C61.8721662,68.5497247 62.4244412,68.4846222 62.9509888,68.3225719 L62.9918545,68.3099436 Z M67.420408,68.6397701 C66.7373001,68.6397701 66.1814954,68.0836536 66.1814954,67.4000774 L66.1814954,51.4207881 C66.1814954,50.7373688 66.737457,50.1814092 67.4208786,50.1814092 L83.4003012,50.1814092 C83.7473849,50.1814092 84.0689767,50.321105 84.3059349,50.5749263 C84.5432068,50.8290613 84.6607839,51.1601428 84.6370175,51.5071469 C84.3316622,55.9422739 82.4271332,60.121148 79.2742008,63.2741481 C76.1212684,66.4271481 71.9422231,68.3316706 67.5070809,68.6368679 C67.4780592,68.6388289 67.4492728,68.6397701 67.420408,68.6397701 Z M67.4208786,50.2598459 C66.7807542,50.2598459 66.2599325,50.7806658 66.2599325,51.4207881 L66.2599325,67.4001559 C66.2599325,68.0674956 66.8273458,68.6065129 67.5015903,68.5585881 C71.9179076,68.2546457 76.0790693,66.3582022 79.2186674,63.2186933 C82.3582655,60.0791844 84.2546371,55.9180369 84.5586589,51.5018132 C84.5810134,51.1766929 84.4708879,50.8665541 84.2485974,50.6284986 C84.0266991,50.3908353 83.7253441,50.2598459 83.4003012,50.2598459 L67.4208786,50.2598459 L67.4208786,50.2598459 Z M61.6243053,65.2398512 C61.5959895,65.2398512 61.5672816,65.2387531 61.5385736,65.2368706 C56.8818469,64.9173978 52.5533791,62.8598452 49.3504823,59.4434546 C46.1325256,56.0109845 44.3603199,51.5280895 44.3603199,46.8206302 C44.3603199,41.8813119 46.2781831,37.243269 49.7607078,33.7607563 C53.2431541,30.2782435 57.8812913,28.3603083 62.8205481,28.3603083 L62.820705,28.3603083 C67.5276314,28.3603083 72.0104633,30.1325865 75.443102,33.3506106 C78.8598965,36.5537317 80.9174561,40.8821062 81.2368516,45.5384248 C81.260618,45.8832327 81.1435116,46.2124317 80.9071809,46.4656255 C80.6733602,46.7161525 80.3426697,46.8597701 80.0000569,46.8597701 L65.6629484,46.8597701 C64.1172687,46.8597701 62.8597666,48.1172679 62.8597666,49.6630207 L62.8597666,64.0000801 C62.8597666,64.6837347 62.3055307,65.2398512 61.6243053,65.2398512 Z M62.8205481,28.4387451 C57.9021555,28.4387451 53.2838629,30.3485228 49.8161628,33.816211 C46.3484627,37.2838993 44.4387569,41.9022545 44.4387569,46.8206302 C44.4387569,51.5080882 46.2034327,55.971923 49.4077413,59.3898823 C52.5970685,62.7917621 56.9071036,64.8405298 61.5439074,65.1586692 C61.5708113,65.1603948 61.5977151,65.1614929 61.6243837,65.1614929 C62.2623904,65.1614929 62.781408,64.6404376 62.781408,64.0000801 L62.781408,49.6630207 C62.781408,48.0740493 64.0740499,46.7813334 65.6630268,46.7813334 L80.0001353,46.7813334 C80.3258058,46.7813334 80.6276314,46.6501872 80.8500003,46.4120532 C81.0712711,46.1750174 81.180926,45.8666041 81.1587284,45.5437585 C80.8406663,40.9072844 78.7918132,36.5973425 75.389608,33.4077909 C71.9714016,30.2034148 67.5077084,28.4387451 62.8205481,28.4387451 Z" id="Shape" fill="#8BA3F4" fill-rule="nonzero"></path>
                <path d="M75.3314286,50.5142857 L73.7885714,50.5142857 L73.7885714,36.6285714 L75.3314286,36.6285714 L75.3314286,32 L49,32 L49,36.6285714 L50.5429086,36.6285714 L50.5429086,50.5142857 L49,50.5142857 L49,55.1428571 L75.3314286,55.1428571 L75.3314286,50.5142857 Z M73.7885714,35.0857143 L71.1657143,35.0857143 L71.1657143,33.5428571 L73.7885714,33.5428571 L73.7885714,35.0857143 Z M54.7085714,35.0857143 L54.7085714,33.5428571 L57.28,33.5428571 L57.28,35.0857143 L54.7085714,35.0857143 Z M58.8228571,33.5428571 L61.3942857,33.5428571 L61.3942857,35.0857143 L58.8228571,35.0857143 L58.8228571,33.5428571 Z M62.9371429,33.5428571 L65.5085714,33.5428571 L65.5085714,35.0857143 L62.9371429,35.0857143 L62.9371429,33.5428571 Z M67.0514286,33.5428571 L69.6228571,33.5428571 L69.6228571,35.0857143 L67.0514286,35.0857143 L67.0514286,33.5428571 Z M50.5428571,33.5428571 L53.1657143,33.5428571 L53.1657143,35.0857143 L50.5428571,35.0857143 L50.5428571,33.5428571 Z M52.0857143,36.6285714 L72.2457657,36.6285714 L72.2457657,50.5142857 L52.0857143,50.5142857 L52.0857143,36.6285714 Z M57.28,52.0571429 L57.28,53.6 L54.7085714,53.6 L54.7085714,52.0571429 L57.28,52.0571429 Z M58.8228571,52.0571429 L61.3942857,52.0571429 L61.3942857,53.6 L58.8228571,53.6 L58.8228571,52.0571429 Z M62.9371429,52.0571429 L65.5085714,52.0571429 L65.5085714,53.6 L62.9371429,53.6 L62.9371429,52.0571429 Z M67.0514286,52.0571429 L69.6228571,52.0571429 L69.6228571,53.6 L67.0514286,53.6 L67.0514286,52.0571429 Z M50.5428571,52.0571429 L53.1657143,52.0571429 L53.1657143,53.6 L50.5428571,53.6 L50.5428571,52.0571429 Z M73.7885714,53.6 L71.1657143,53.6 L71.1657143,52.0571429 L73.7885714,52.0571429 L73.7885714,53.6 Z" id="Shape" fill="#8DA4FA" fill-rule="nonzero" filter="url(#filter-1)"></path>
                <path d="M59.8514286,39.0442743 L59.8514286,48.0985829 L66.64216,43.5714286 L59.8514286,39.0442743 Z M61.3942857,41.9271543 L63.8606971,43.5714286 L61.3942857,45.2157029 L61.3942857,41.9271543 Z" id="Shape" fill="#8DA4FA" fill-rule="nonzero" filter="url(#filter-2)"></path>
                <g id="circular-cake-graphic-with-quarter-part-cutted" transform="translate(41.000000, 25.000000)"></g>
                <g id="multimedia" transform="translate(59.000000, 39.000000)"></g>
                <g id="Group-2">
                    <path d="M2.09067721,-2.37424251e-13 L20.1036518,-2.37424251e-13 L20.1036518,-2.37424251e-13 L128.750662,-2.37424251e-13 C129.855232,-2.37627157e-13 130.750662,0.8954305 130.750662,2 L130.750662,85.4638587 C130.750662,86.5684282 129.855232,87.4638587 128.750662,87.4638587 L2.09067721,87.4638587 C0.986107715,87.4638587 0.0906772148,86.5684282 0.0906772148,85.4638587 L0.0906772148,2 C0.0906772148,0.8954305 0.986107715,-2.37221345e-13 2.09067721,-2.37424251e-13 Z" id="Rectangle-2" stroke="#404B8A" stroke-width="2"></path>
                    <polygon id="Path-2" fill="#404B8A" fill-rule="nonzero" points="129.944605 9.74589372 129.94525 11.6950723 0.000644341237 11.7538024 4.04700428e-13 9.80462383"></polygon>
                    <circle id="Oval" fill="#404B8A" cx="6.49726248" cy="5.68510467" r="1.62431562"></circle>
                    <circle id="Oval" fill="#404B8A" cx="12.994525" cy="5.68510467" r="1.62431562"></circle>
                    <circle id="Oval" fill="#404B8A" cx="19.4917874" cy="5.68510467" r="1.62431562"></circle>
                </g>
                <path d="M82.3949317,52.9858385 L80.6374161,52.9858385 L80.6374161,37.1681988 L82.3949317,37.1681988 L82.3949317,31.8956522 L52.4,31.8956522 L52.4,37.1681988 L54.1575741,37.1681988 L54.1575741,52.9858385 L52.4,52.9858385 L52.4,58.2583851 L82.3949317,58.2583851 L82.3949317,52.9858385 Z M80.6374161,35.4106832 L77.6496398,35.4106832 L77.6496398,33.6531677 L80.6374161,33.6531677 L80.6374161,35.4106832 Z M58.9028075,35.4106832 L58.9028075,33.6531677 L61.832,33.6531677 L61.832,35.4106832 L58.9028075,35.4106832 Z M63.5895155,33.6531677 L66.5187081,33.6531677 L66.5187081,35.4106832 L63.5895155,35.4106832 L63.5895155,33.6531677 Z M68.2762236,33.6531677 L71.2054161,33.6531677 L71.2054161,35.4106832 L68.2762236,35.4106832 L68.2762236,33.6531677 Z M72.9629317,33.6531677 L75.8921242,33.6531677 L75.8921242,35.4106832 L72.9629317,35.4106832 L72.9629317,33.6531677 Z M54.1575155,33.6531677 L57.1452919,33.6531677 L57.1452919,35.4106832 L54.1575155,35.4106832 L54.1575155,33.6531677 Z M55.9150311,37.1681988 L78.8799592,37.1681988 L78.8799592,52.9858385 L55.9150311,52.9858385 L55.9150311,37.1681988 Z M61.832,54.743354 L61.832,56.5008696 L58.9028075,56.5008696 L58.9028075,54.743354 L61.832,54.743354 Z M63.5895155,54.743354 L66.5187081,54.743354 L66.5187081,56.5008696 L63.5895155,56.5008696 L63.5895155,54.743354 Z M68.2762236,54.743354 L71.2054161,54.743354 L71.2054161,56.5008696 L68.2762236,56.5008696 L68.2762236,54.743354 Z M72.9629317,54.743354 L75.8921242,54.743354 L75.8921242,56.5008696 L72.9629317,56.5008696 L72.9629317,54.743354 Z M54.1575155,54.743354 L57.1452919,54.743354 L57.1452919,56.5008696 L54.1575155,56.5008696 L54.1575155,54.743354 Z M80.6374161,56.5008696 L77.6496398,56.5008696 L77.6496398,54.743354 L80.6374161,54.743354 L80.6374161,56.5008696 Z" id="Shape" fill="#8DA4FA" fill-rule="nonzero" filter="url(#filter-3)"></path>
                <path d="M64.7611925,39.9199994 L64.7611925,50.2340379 L72.4967214,45.0770186 L64.7611925,39.9199994 Z M66.5187081,43.2039758 L69.3282724,45.0770186 L66.5187081,46.9500615 L66.5187081,43.2039758 Z" id="Shape" fill="#8DA4FA" fill-rule="nonzero" filter="url(#filter-4)"></path>
            </g>
        </g>
    </g>
</svg>