<?xml version="1.0" encoding="UTF-8"?>
<svg width="170px" height="170px" viewBox="0 0 170 170" version="1.1" xmlns="http://www.w3.org/2000/svg" xmlns:xlink="http://www.w3.org/1999/xlink">
    <title>Illustrations/Dark/170px/licensed_rights_contractform</title>
    <defs>
        <filter x="-31.6%" y="-31.6%" width="163.2%" height="163.2%" filterUnits="objectBoundingBox" id="filter-1">
            <feGaussianBlur stdDeviation="4" in="SourceGraphic"></feGaussianBlur>
        </filter>
        <filter x="-68.2%" y="-40.4%" width="236.3%" height="180.9%" filterUnits="objectBoundingBox" id="filter-2">
            <feGaussianBlur stdDeviation="4" in="SourceGraphic"></feGaussianBlur>
        </filter>
        <filter x="-72.7%" y="-51.3%" width="245.4%" height="202.6%" filterUnits="objectBoundingBox" id="filter-3">
            <feGaussianBlur stdDeviation="4" in="SourceGraphic"></feGaussianBlur>
        </filter>
    </defs>
    <g id="Illustrations/Dark/170px/licensed_rights_contractform" stroke="none" stroke-width="1" fill="none" fill-rule="evenodd">
        <circle id="Oval" stroke="#414D86" stroke-width="2" cx="85" cy="85" r="84"></circle>
        <g id="undraw_cancel_u1it" transform="translate(7.000000, 5.000000)">
            <circle id="Oval" fill="#FF6E61" filter="url(#filter-1)" cx="24.5814755" cy="22.131728" r="19"></circle>
            <circle id="Oval" fill="#FF6E61" cx="24.5814755" cy="22.131728" r="19"></circle>
            <circle id="Oval" stroke="#414D86" stroke-width="2" cx="19.631728" cy="19.2530483" r="19"></circle>
            <text id="2" font-family="Montserrat-SemiBold, Montserrat" font-size="20" font-weight="500" fill="#121424">
                <tspan x="14" y="26">2</tspan>
            </text>
        </g>
        <path d="M109.711864,115 C109.124294,114.649718 108.615819,114.728814 108.220339,115.305085 C106.751412,117.564972 105.576271,116.774011 104.299435,115.915254 C100.988701,113.666667 101.463277,117.915254 97.2485876,116.774011 C96.7853107,116.649718 96.4350282,116.559322 96.0960452,117.090395 C94.5141243,119.497175 93.1581921,118.79661 92.2881356,118.344633 C92.0508475,118.186441 92.0282486,118.740113 92.4011299,119.011299 C93.2033898,119.621469 94.0056497,120.231638 91.4745763,123.327684 C98.3220339,122.175141 104.570621,119.237288 109.711864,115 Z" id="Path" fill="#6F7CBD" fill-rule="nonzero"></path>
        <path d="M73.5084746,122.141243 C71.9265537,120.638418 70.8305085,120.310734 70.0056497,120.073446 C68.6158192,119.655367 67.8474576,119.429379 67.1355932,116.20904 C66.1638418,115.926554 65.7683616,116.050847 65.6666667,116.333333 C65.4067797,117.090395 66.1073446,118.615819 66.3446328,119.101695 C68.6045198,120.344633 71,121.361582 73.5084746,122.141243 Z" id="Path" fill="#6F7CBD" fill-rule="nonzero"></path>
        <path d="M121.621469,75.519774 C121.960452,75.4067797 122.355932,75.4971751 122.740113,75.6553672 C120.152542,65.180791 113.271186,56.2542373 103.870056,51.0112994 C102.627119,51.4745763 102.480226,51.960452 102.649718,52.480226 C103.440678,54.8983051 105.112994,56.1977401 101.282486,57.8135593 C101.033898,57.9378531 101.011299,58.2542373 100.988701,58.5028249 C100.943503,58.819209 100.909605,59.1016949 100.694915,59.3276836 C100.242938,59.8361582 99.440678,59.6101695 97.259887,57.6214689 C96.9322034,57.3163842 96.920904,57.0677966 96.920904,56.7288136 C96.920904,55.3276836 94.6723164,53.8813559 93.6892655,53.1920904 C92.9887006,52.7175141 92.9548023,51.960452 93.2033898,53.1016949 C93.2824859,53.4632768 93.3728814,53.8587571 93.3841808,54.2542373 C93.5310734,56.8079096 91.2259887,55.6779661 90.740113,56.5480226 C90.6271186,56.7514124 90.7853107,56.9548023 90.9435028,57.079096 C91.6214689,57.5423729 92.6271186,57.3841808 93.3615819,57.1581921 C93.8135593,55.9378531 94.2090395,55.5536723 94.7062147,55.7231638 C95.1129944,55.8700565 95.259887,56.3446328 95.440678,57 C95.6892655,57.8700565 96.0734463,59.1920904 96.9774011,59.8700565 C98.1299435,60.740113 99.5084746,62.2316384 97.2259887,62.2655367 C96.8983051,62.2655367 96.480226,62.2768362 96.1864407,62.3785311 C95.4858757,62.6271186 95.9039548,63.6440678 96.0282486,64.1412429 C96.6723164,62.4237288 99.4632768,63.2711864 100.615819,61.6779661 C101.293785,60.7740113 101.39548,60.6158192 104.966102,62.7853107 C105.610169,63.1694915 106.141243,63.0225989 106.649718,62.8870056 C107.689266,62.6158192 108.649718,62.3559322 109.949153,64.3446328 C110.186441,64.7175141 110.310734,64.6610169 110.468927,64.5819209 C112.717514,63.519774 116.276836,67.259887 112.932203,67.7118644 C109.644068,68.1638418 108.672316,65.5762712 107.553672,66.3672316 C106.728814,66.9435028 105.474576,67.8135593 102.581921,66.5706215 C100.80791,65.8135593 99.779661,68.4689266 97.2824859,68.7740113 C93.519774,69.2372881 95.180791,71.6440678 91.4632768,73.4745763 C91.1581921,73.960452 89.8700565,76.220339 90.4237288,76.7853107 C90.5028249,76.8644068 90.6271186,76.920904 90.8079096,76.9661017 C90.9887006,77 91.1581921,77.1129944 91.2372881,77.3050847 C91.440678,77.8022599 91.2146893,78.220339 90.9096045,78.8079096 C89.2259887,82.0056497 90.0847458,84.4124294 93.1920904,86.0621469 C93.9491525,86.4689266 94.7966102,86.920904 95.6779661,87.6101695 C95.9265537,87.8022599 96.2881356,87.5536723 96.7062147,87.259887 C100.050847,84.9322034 100.536723,87.9378531 104.988701,87.5084746 C105.915254,87.4180791 106.672316,87.3502825 107.124294,87.6666667 C107.677966,88.0621469 107.689266,88.7288136 106.830508,89.9265537 C106.762712,90.0169492 106.80791,90.1073446 106.875706,90.2429379 C107.135593,90.8305085 107.519774,91.6666667 106.581921,93.6553672 C106.536723,93.7683616 106.615819,93.8700565 106.740113,94.0169492 C107.632768,94.9548023 107.949153,96.0282486 108.062147,97.3050847 L108.107345,97.3050847 C108.242938,97.3276836 108.389831,97.3502825 108.525424,97.440678 C109.429379,98.0169492 107.158192,100.265537 107.20339,102.389831 L107.20339,102.435028 C107.576271,102.163842 108.141243,101.497175 109.011299,100.265537 C109.338983,99.7909605 110.672316,98.1977401 110.762712,97.7909605 C110.920904,97.1016949 110.570621,94.6384181 110.480226,93.7231638 C110.457627,93.4745763 110.60452,93.2372881 110.853107,93.1468927 C112.79661,92.4689266 115.474576,87.9943503 115.474576,85.8813559 C115.474576,82.2316384 119.40678,82.039548 117.214689,78.3333333 C116.502825,77.1355932 117.440678,76.8983051 118.389831,77.1920904 C119.836158,77.5875706 120.875706,77.7683616 121.259887,75.9378531 C121.293785,75.7457627 121.429379,75.5875706 121.621469,75.519774 Z" id="Path" fill="#6F7CBD" fill-rule="nonzero"></path>
        <path d="M95.9378531,65.2937853 L95.9152542,64.920904 C95.8474576,65.1016949 95.7457627,65.2824859 95.6214689,65.4519774 L95.9039548,65.4519774 C95.960452,65.4632768 95.960452,65.7457627 95.9378531,65.2937853 Z" id="Path" fill="#6F7CBD" fill-rule="nonzero"></path>
        <g id="Group" transform="translate(45.000000, 45.000000)" fill-rule="nonzero">
            <g id="Group-2" transform="translate(1.743879, 8.184557)" fill="#FF6E61">
                <path d="M8.0540663,22.9240614 C8.51734314,23.0144569 7.86440678,23.6949153 7.7740113,24.3163842 C7.62711864,25.2655367 8.50847458,26.1920904 9.29943503,27.0169492 C10.1355932,27.9096045 10.8926554,28.7118644 10.700565,29.6723164 C9.71751412,34.4971751 11.4915254,35.819209 12.960452,36.9039548 C14.4745763,38.0225989 15.7288136,38.9491525 14.5988701,41.9548023 C12.700565,47.0169492 13.9435028,48.0451977 14.8926554,48.8248588 C16.9830508,50.5649718 15.8458761,50.4886178 17.2809044,51.8219512 C17.4616953,51.8558495 17.8132189,52.2112461 18.8979647,51.352489 L19.0487881,49.5556633 C18.8566977,44.6517085 20.9717514,43.1073446 22.259887,42.2146893 C22.6666667,41.9435028 22.9717514,41.7288136 22.9717514,41.5706215 C23.039548,39.9435028 24.0677966,38.2824859 24.8361582,37.0282486 C26.4180791,34.4632768 24.1468927,35.7966102 22.0338983,31.2090395 C21.2768362,29.5819209 20.6553672,28.2372881 18.079096,28.0338983 C14.3954802,27.740113 14.9152542,26.779661 12.9039548,26.7231638 C11.4915254,26.6779661 11.0508475,26.9378531 10.8700565,27.0508475 C10.4122507,26.4376742 10.6651971,26.9539746 10.3036152,26.2308108 C9.25276775,24.1743136 9.39229821,25.2409201 8.85499058,23.4312618 C8.79567592,23.2314893 8.59887006,22.4858757 8.79096045,22.4293785 C10.3615819,21.8757062 7.44389681,22.811067 8.0540663,22.9240614 Z" id="Path" filter="url(#filter-2)"></path>
                <path d="M-1.58095759e-13,18.3276836 C1.24293785,18.6666667 4.13559322,19.5819209 4.49717514,20.8587571 C5.14124294,23.0960452 5.98870056,23.2655367 6.59887006,23.3785311 C7.06214689,23.4689266 7.80749934,23.1929417 8.39548023,22.8587571 C8.54085413,22.7761324 8.59887006,22.4858757 8.79096045,22.4293785 C10.3615819,21.8757062 10.440678,21.2316384 10.2259887,20.6101695 C9.84180791,19.4915254 8.80225989,18.2824859 10.079096,17.2881356 C11.5141243,16.1694915 11.0847458,15.4011299 10.7909605,14.8700565 C10.6779661,14.6779661 10.5875706,14.4971751 10.5310734,14.3163842 C10.3389831,13.7175141 10.4745763,13.2655367 11.4124294,12.9717514 C14.9830508,12.0338983 13.3898305,7.63841808 15.0621469,5.0960452 C16.5649718,2.8700565 17.220339,2.56497175 15.3898305,-3.37507799e-14 C8.47457627,4.33898305 2.91809474,9.79896982 -1.58095759e-13,18.3276836 Z" id="Path" filter="url(#filter-3)"></path>
            </g>
            <g id="Group-2" transform="translate(1.743879, 8.184557)" fill="#FF6E61">
                <path d="M8.0540663,22.9240614 C8.51734314,23.0144569 7.86440678,23.6949153 7.7740113,24.3163842 C7.62711864,25.2655367 8.50847458,26.1920904 9.29943503,27.0169492 C10.1355932,27.9096045 10.8926554,28.7118644 10.700565,29.6723164 C9.71751412,34.4971751 11.4915254,35.819209 12.960452,36.9039548 C14.4745763,38.0225989 15.7288136,38.9491525 14.5988701,41.9548023 C12.700565,47.0169492 13.9435028,48.0451977 14.8926554,48.8248588 C16.9830508,50.5649718 15.8458761,50.4886178 17.2809044,51.8219512 C17.4616953,51.8558495 17.8132189,52.2112461 18.8979647,51.352489 L19.0487881,49.5556633 C18.8566977,44.6517085 20.9717514,43.1073446 22.259887,42.2146893 C22.6666667,41.9435028 22.9717514,41.7288136 22.9717514,41.5706215 C23.039548,39.9435028 24.0677966,38.2824859 24.8361582,37.0282486 C26.4180791,34.4632768 24.1468927,35.7966102 22.0338983,31.2090395 C21.2768362,29.5819209 20.6553672,28.2372881 18.079096,28.0338983 C14.3954802,27.740113 14.9152542,26.779661 12.9039548,26.7231638 C11.4915254,26.6779661 11.0508475,26.9378531 10.8700565,27.0508475 C10.4122507,26.4376742 10.6651971,26.9539746 10.3036152,26.2308108 C9.25276775,24.1743136 9.39229821,25.2409201 8.85499058,23.4312618 C8.79567592,23.2314893 8.59887006,22.4858757 8.79096045,22.4293785 C10.3615819,21.8757062 7.44389681,22.811067 8.0540663,22.9240614 Z" id="Path"></path>
                <path d="M-1.58095759e-13,18.3276836 C1.24293785,18.6666667 4.13559322,19.5819209 4.49717514,20.8587571 C5.14124294,23.0960452 5.98870056,23.2655367 6.59887006,23.3785311 C7.06214689,23.4689266 7.80749934,23.1929417 8.39548023,22.8587571 C8.54085413,22.7761324 8.59887006,22.4858757 8.79096045,22.4293785 C10.3615819,21.8757062 10.440678,21.2316384 10.2259887,20.6101695 C9.84180791,19.4915254 8.80225989,18.2824859 10.079096,17.2881356 C11.5141243,16.1694915 11.0847458,15.4011299 10.7909605,14.8700565 C10.6779661,14.6779661 10.5875706,14.4971751 10.5310734,14.3163842 C10.3389831,13.7175141 10.4745763,13.2655367 11.4124294,12.9717514 C14.9830508,12.0338983 13.3898305,7.63841808 15.0621469,5.0960452 C16.5649718,2.8700565 17.220339,2.56497175 15.3898305,-3.37507799e-14 C8.47457627,4.33898305 2.91809474,9.79896982 -1.58095759e-13,18.3276836 Z" id="Path"></path>
            </g>
            <path d="M65.3785311,69.0847458 L65.5932203,69.2542373 C74.0451977,61.8418079 78.8700565,51.2542373 78.8700565,40 C78.8700565,37.2768362 78.5875706,34.6214689 78.0564972,32.0677966 C77.740113,31.9322034 77.5254237,31.819209 77.2316384,31.6497175 C76.6214689,33.6497175 75.3107345,33.8418079 73.5367232,33.4124294 C75.4689266,37.3559322 71.6045198,37.8079096 71.6045198,40.8813559 C71.6045198,43.480226 68.9039548,47.7853107 66.6327684,49.0282486 C66.7344633,50.079096 67.0621469,52.1355932 66.8587571,53.0282486 C66.6779661,53.8418079 65.4689266,55.1412429 64.9378531,55.9096045 C64.5875706,56.3954802 62.3841808,59.8418079 61.3220339,58.3389831 C60.4519774,57.1186441 62.1129944,54.5084746 61.9322034,52.4067797 C61.7966102,50.7909605 61.2655367,50.180791 60.9265537,49.7853107 C60.4519774,49.2090395 60.2033898,48.9717514 60.5649718,48.180791 C61.2881356,46.6553672 61.0282486,46.1016949 60.8474576,45.7175141 C60.6327684,45.2429379 60.4745763,44.8926554 60.9152542,44.2711864 C61.5819209,43.3333333 61.8983051,43.4576271 60.0903955,43.6271186 C55.9548023,44.0338983 54.779661,41.4915254 52.3502825,43.1751412 C51.5480226,43.740113 50.8926554,44.1920904 49.9887006,43.4915254 C49.1751412,42.8587571 48.3841808,42.440678 47.6610169,42.0564972 C43.9774011,40.1016949 42.9265537,37.0508475 44.9152542,33.2768362 L45.1073446,32.9152542 C44.9152542,32.8248588 44.7570621,32.7118644 44.6214689,32.5762712 C43.4124294,31.3559322 45.1864407,27.8644068 45.9661017,27.4689266 C49.6271186,25.6610169 47.3898305,23.2429379 52.1468927,22.6553672 C54.6553672,22.3389831 55.2316384,19.3446328 58.0225989,20.5423729 C60.3502825,21.5367232 61.2881356,20.8813559 61.9096045,20.4519774 C63.920904,19.0282486 64.6327684,22.0225989 67.7853107,21.5932203 C68.5423729,21.4463277 66.8022599,20.2033898 65.9435028,20.6101695 C63.6158192,21.7062147 64.3954802,18.3276836 61.9322034,18.9830508 C61.2090395,19.1751412 60.440678,19.3785311 59.3898305,18.7457627 C56.700565,17.1186441 56.6779661,17.1412429 56.5310734,17.3446328 C54.8474576,19.6497175 51.9887006,17.9661017 52.079096,20.5988701 C52.0564972,21.220339 51.8305085,21.6158192 50.8587571,21.5819209 C49.2768362,21.5141243 49.4124294,23.220339 48.4745763,23.3672316 C46.1016949,23.7288136 47.2429379,22.1242938 48.2146893,21.2768362 C49.0056497,20.5988701 50.0564972,19.6949153 49.9096045,19.2881356 C49.2542373,17.3898305 49.9096045,16.6327684 50.8248588,16.3163842 C51.2429379,16.1694915 51.7062147,16.1468927 52.1016949,16.1468927 C51.8870056,16.1016949 51.6045198,16 51.299435,15.7740113 C50.1468927,14.9039548 49.6949153,13.4576271 49.4011299,12.4519774 C49.4011299,12.5536723 49.3785311,12.6666667 49.3333333,12.7909605 C49.2768362,12.9717514 49.1186441,13.1073446 48.9378531,13.1525424 C47.2429379,13.7288136 46,13.5028249 45.3107345,13.0056497 C44.6666667,12.519774 44.3389831,11.7627119 44.7570621,11.0169492 C45.039548,10.4858757 45.7062147,10.0564972 46.7457627,10 C47.1977401,9.97740113 47.2881356,9.67231638 47.2655367,9.31073446 C47.2316384,8.6440678 46.7344633,7.42372881 47.1186441,6.8700565 C47.4463277,6.38418079 48.079096,6.39548023 49.3333333,7.26553672 C53.0621469,9.85310734 53.0508475,11.0282486 53.0508475,11.7062147 C53.0282486,11.9661017 54.8022599,13.8418079 54.8700565,13.3672316 C54.9378531,12.8135593 55.0169492,12.1242938 55.819209,11.7966102 C58.5536723,10.6779661 57.1864407,9.70621469 56.5762712,7.83050847 C56.2711864,6.9039548 56.3502825,6.04519774 57.6045198,5.34463277 C52.3163842,2.65536723 46.3389831,1.1299435 40,1.1299435 C32.8700565,1.1299435 26.1242938,3.07344633 20.3276836,6.48587571 C22.5423729,9.60451977 21.8305085,10.0338983 19.9661017,12.779661 C18.1581921,15.5367232 20.440678,19.6271186 15.7514124,21.1073446 C15.4689266,21.2090395 17.3220339,23.2316384 14.7344633,25.2542373 C14.3163842,25.5706215 15.0960452,26.8361582 15.2655367,27.3220339 C15.6497175,28.4632768 15.5932203,29.6045198 13.4011299,30.4632768 C13.1864407,31.5254237 13.1977401,31.6497175 13.2881356,31.7062147 C13.8870056,31.9774011 14.259887,32.4180791 14.5988701,32.9717514 C14.9830508,32.8135593 15.6610169,32.6327684 16.9039548,32.6666667 C18.960452,32.7344633 18.5084746,33.7062147 22.1242938,33.9887006 C25.3672316,34.2372881 26.1129944,35.8531073 27.0169492,37.8079096 C27.0960452,39.2090395 29.1525424,41.0847458 30.3163842,41.9887006 C31.1073446,42.5084746 30.5310734,43.4350282 29.7627119,44.6892655 C29.0508475,45.8418079 28.1242938,47.3559322 28.0677966,48.6892655 C28.0338983,49.4124294 27.5367232,49.7627119 26.8700565,50.2146893 C25.7740113,50.9717514 24.0564972,52.1581921 24.2259887,56.4519774 C24.259887,57.0847458 23.6949153,57.480226 23.039548,57.9661017 C22.2146893,58.5762712 21.1638418,59.2768362 22.0451977,60.3954802 C22.3954802,60.8474576 22.4067797,61.4463277 22.1920904,61.8757062 C21.819209,62.6666667 20.9491525,62.7909605 20.3276836,62.2033898 C18.6101695,60.6101695 19.740113,58.0903955 18.1355932,56.7683616 C16.9265537,55.7627119 15.3333333,54.4519774 17.5141243,48.6327684 C18.3389831,46.4293785 17.3898305,45.7175141 16.259887,44.8813559 C14.5310734,43.6045198 12.440678,42.0451977 13.559322,36.519774 C13.7514124,35.6045198 10.5875706,33.8305085 10.5988701,31.6158192 C8.55367232,31.1864407 7.97740113,30.3163842 7.37853107,28.2372881 C7.16384181,27.4915254 4.42937853,26.700565 3.55932203,26.440678 C1.98870056,30.6440678 1.1299435,35.2090395 1.1299435,40 C1.1299435,53.6158192 8.21468927,66.1242938 19.7740113,73.1864407 C19.5367232,72.4519774 19.3785311,71.6045198 19.6045198,70.9717514 C19.920904,70.0564972 20.8022599,69.559322 22.7909605,70.2372881 C22.9717514,70.3050847 23.1186441,70.4632768 23.1638418,70.6553672 C23.7627119,73.5254237 24.3050847,73.6836158 25.3333333,73.9887006 C26.8022599,74.4293785 30.1129944,76.3728814 30.5536723,77.7062147 C33.5706215,78.4632768 36.7344633,78.8700565 40,78.8700565 C41.6158192,78.8700565 43.2090395,78.7683616 44.779661,78.5762712 C47.5254237,75.5141243 47.1186441,75.2090395 46.7231638,74.9152542 C45.3559322,73.8870056 45.9096045,71.3559322 47.8079096,72.3389831 C48.3276836,72.6101695 49.1299435,73.0282486 50.1468927,71.4689266 C50.9378531,70.259887 51.6271186,70.440678 52.5310734,70.6892655 C56.1355932,71.6610169 55.7627119,67.1525424 59.9322034,69.9774011 C60.7118644,70.5084746 61.4350282,70.9943503 62.2824859,69.6949153 C62.7683616,68.9491525 63.4689266,68.5649718 64.3728814,68.6892655 C64.7570621,68.7570621 65.0508475,68.8926554 65.3785311,69.0847458 Z M64.7118644,70 C64.1242938,69.6497175 63.6158192,69.7288136 63.220339,70.3050847 C61.7514124,72.5649718 60.5762712,71.7740113 59.299435,70.9152542 C55.9887006,68.6666667 56.4632768,72.9152542 52.2485876,71.7740113 C51.7853107,71.6497175 51.4350282,71.559322 51.0960452,72.0903955 C49.5141243,74.4971751 48.1581921,73.7966102 47.2881356,73.3446328 C47.0508475,73.1864407 47.0282486,73.740113 47.4011299,74.0112994 C48.2033898,74.6214689 49.0056497,75.2316384 46.4745763,78.3276836 C53.3220339,77.1751412 59.5706215,74.2372881 64.7118644,70 Z M28.5084746,77.1412429 C26.9265537,75.6384181 25.8305085,75.3107345 25.0056497,75.0734463 C23.6158192,74.6553672 22.8474576,74.4293785 22.1355932,71.2090395 C21.1638418,70.9265537 20.7683616,71.0508475 20.6666667,71.3333333 C20.4067797,72.0903955 21.1073446,73.6158192 21.3446328,74.1016949 C23.6045198,75.3446328 26,76.3615819 28.5084746,77.1412429 Z M76.6214689,30.519774 C76.960452,30.4067797 77.3559322,30.4971751 77.740113,30.6553672 C75.1525424,20.180791 68.2711864,11.2542373 58.8700565,6.01129944 C57.6271186,6.47457627 57.480226,6.96045198 57.6497175,7.48022599 C58.440678,9.89830508 60.1129944,11.1977401 56.2824859,12.8135593 C56.0338983,12.9378531 56.0112994,13.2542373 55.9887006,13.5028249 C55.9435028,13.819209 55.9096045,14.1016949 55.6949153,14.3276836 C55.2429379,14.8361582 54.440678,14.6101695 52.259887,12.6214689 C51.9322034,12.3163842 51.920904,12.0677966 51.920904,11.7288136 C51.920904,10.3276836 49.6723164,8.88135593 48.6892655,8.1920904 C47.9887006,7.71751412 47.9548023,6.96045198 48.2033898,8.10169492 C48.2824859,8.46327684 48.3728814,8.85875706 48.3841808,9.25423729 C48.5310734,11.8079096 46.2259887,10.6779661 45.740113,11.5480226 C45.6271186,11.7514124 45.7853107,11.9548023 45.9435028,12.079096 C46.6214689,12.5423729 47.6271186,12.3841808 48.3615819,12.1581921 C48.8135593,10.9378531 49.2090395,10.5536723 49.7062147,10.7231638 C50.1129944,10.8700565 50.259887,11.3446328 50.440678,12 C50.6892655,12.8700565 51.0734463,14.1920904 51.9774011,14.8700565 C53.1299435,15.740113 54.5084746,17.2316384 52.2259887,17.2655367 C51.8983051,17.2655367 51.480226,17.2768362 51.1864407,17.3785311 C50.4858757,17.6271186 50.9039548,18.6440678 51.0282486,19.1412429 C51.6723164,17.4237288 54.4632768,18.2711864 55.6158192,16.6779661 C56.2937853,15.7740113 56.3954802,15.6158192 59.9661017,17.7853107 C60.6101695,18.1694915 61.1412429,18.0225989 61.6497175,17.8870056 C62.6892655,17.6158192 63.6497175,17.3559322 64.9491525,19.3446328 C65.1864407,19.7175141 65.3107345,19.6610169 65.4689266,19.5819209 C67.7175141,18.519774 71.2768362,22.259887 67.9322034,22.7118644 C64.6440678,23.1638418 63.6723164,20.5762712 62.5536723,21.3672316 C61.7288136,21.9435028 60.4745763,22.8135593 57.5819209,21.5706215 C55.8079096,20.8135593 54.779661,23.4689266 52.2824859,23.7740113 C48.519774,24.2372881 50.180791,26.6440678 46.4632768,28.4745763 C46.1581921,28.960452 44.8700565,31.220339 45.4237288,31.7853107 C45.5028249,31.8644068 45.6271186,31.920904 45.8079096,31.9661017 C45.9887006,32 46.1581921,32.1129944 46.2372881,32.3050847 C46.440678,32.8022599 46.2146893,33.220339 45.9096045,33.8079096 C44.2259887,37.0056497 45.0847458,39.4124294 48.1920904,41.0621469 C48.9491525,41.4689266 49.7966102,41.920904 50.6779661,42.6101695 C50.9265537,42.8022599 51.2881356,42.5536723 51.7062147,42.259887 C55.0508475,39.9322034 55.5367232,42.9378531 59.9887006,42.5084746 C60.9152542,42.4180791 61.6723164,42.3502825 62.1242938,42.6666667 C62.6779661,43.0621469 62.6892655,43.7288136 61.8305085,44.9265537 C61.7627119,45.0169492 61.8079096,45.1073446 61.8757062,45.2429379 C62.1355932,45.8305085 62.519774,46.6666667 61.5819209,48.6553672 C61.5367232,48.7683616 61.6158192,48.8700565 61.740113,49.0169492 C62.6327684,49.9548023 62.9491525,51.0282486 63.0621469,52.3050847 L63.1073446,52.3050847 C63.2429379,52.3276836 63.3898305,52.3502825 63.5254237,52.440678 C64.4293785,53.0169492 62.1581921,55.2655367 62.2033898,57.3898305 L62.2033898,57.4350282 C62.5762712,57.1638418 63.1412429,56.4971751 64.0112994,55.2655367 C64.3389831,54.7909605 65.6723164,53.1977401 65.7627119,52.7909605 C65.920904,52.1016949 65.5706215,49.6384181 65.480226,48.7231638 C65.4576271,48.4745763 65.6045198,48.2372881 65.8531073,48.1468927 C67.7966102,47.4689266 70.4745763,42.9943503 70.4745763,40.8813559 C70.4745763,37.2316384 74.4067797,37.039548 72.2146893,33.3333333 C71.5028249,32.1355932 72.440678,31.8983051 73.3898305,32.1920904 C74.8361582,32.5875706 75.8757062,32.7683616 76.259887,30.9378531 C76.2937853,30.7457627 76.4293785,30.5875706 76.6214689,30.519774 Z M50.9378531,20.2937853 L50.9152542,19.920904 C50.8474576,20.1016949 50.7457627,20.2824859 50.6214689,20.4519774 L50.9039548,20.4519774 C50.960452,20.4632768 50.960452,20.7457627 50.9378531,20.2937853 Z M3.96610169,25.4011299 C5.20903955,25.740113 8.10169492,26.6553672 8.46327684,27.9322034 C9.10734463,30.1694915 9.95480226,30.3389831 10.5649718,30.4519774 C11.0282486,30.5423729 11.8305085,30.7683616 11.740113,31.3898305 C11.5932203,32.3389831 12.4745763,33.2655367 13.2655367,34.0903955 C14.1016949,34.9830508 14.8587571,35.7853107 14.6666667,36.7457627 C13.6836158,41.5706215 15.4576271,42.8926554 16.9265537,43.9774011 C18.440678,45.0960452 19.6949153,46.0225989 18.5649718,49.0282486 C16.6666667,54.0903955 17.9096045,55.1186441 18.8587571,55.8983051 C20.9491525,57.6384181 19.6497175,60.0451977 21.0847458,61.3785311 C21.2655367,61.4124294 21.220339,61.1638418 21.1638418,61.0960452 C19.8305085,59.4011299 20.7683616,58.2937853 21.8531073,57.4350282 L23.1073446,56.4971751 C22.9152542,51.5932203 24.9378531,50.180791 26.2259887,49.2881356 C26.6327684,49.0169492 26.9378531,48.8022599 26.9378531,48.6440678 C27.0056497,47.0169492 28.0338983,45.3559322 28.8022599,44.1016949 C30.3841808,41.5367232 28.1129944,42.8700565 26,38.2824859 C25.2429379,36.6553672 24.6214689,35.3107345 22.0451977,35.1073446 C18.3615819,34.8135593 18.8813559,33.8531073 16.8700565,33.7966102 C15.4576271,33.7514124 15.0169492,34.0112994 14.8361582,34.1242938 C14.2146893,34.4519774 14.1355932,34.5310734 13.7740113,33.8079096 C12.7231638,31.7514124 11.6045198,33.6045198 12.3615819,29.9322034 C12.4067797,29.7175141 12.5649718,29.559322 12.7570621,29.5028249 C14.3276836,28.9491525 14.4067797,28.3050847 14.1920904,27.6836158 C13.8079096,26.5649718 12.7683616,25.3559322 14.0451977,24.3615819 C15.480226,23.2429379 15.0508475,22.4745763 14.7570621,21.9435028 C14.6440678,21.7514124 14.5536723,21.5706215 14.4971751,21.3898305 C14.3050847,20.7909605 14.440678,20.3389831 15.3785311,20.0451977 C18.9491525,19.1073446 17.3559322,14.7118644 19.0282486,12.1694915 C20.5310734,9.94350282 21.1864407,9.63841808 19.3559322,7.07344633 C12.440678,11.4124294 7.02824859,17.819209 3.96610169,25.4011299 Z M40,0 C62.0903955,0 80,17.9096045 80,40 C80,62.0903955 62.0903955,80 40,80 C17.9096045,80 0,62.0903955 0,40 C0,17.9096045 17.920904,0 40,0 Z" id="Shape" stroke="#414D86" stroke-width="0.5" fill="#414D86"></path>
        </g>
    </g>
</svg>