<?xml version="1.0" encoding="UTF-8"?>
<svg width="48px" height="48px" viewBox="0 0 48 48" version="1.1" xmlns="http://www.w3.org/2000/svg" xmlns:xlink="http://www.w3.org/1999/xlink">
    <title>Illustrations/Dark/48px/list-offer</title>
    <g id="Illustrations/Dark/48px/list-offer" stroke="none" stroke-width="1" fill="none" fill-rule="evenodd">
        <circle id="Oval" fill="#414D86" opacity="0.368164062" cx="24" cy="24" r="24"></circle>
        <g id="Group" transform="translate(8.203919, 7.231988)">
            <rect id="Rectangle" stroke="#9EB1FF" stroke-width="0.5" x="0.25" y="0.25" width="24.2261905" height="33"></rect>
            <path d="M2.14759122,18.5302184 C3.73492749,22.3820409 6.44083018,23.708823 10.2652993,22.5105646 C16.002003,20.7131771 13.596327,12.1105904 10.2652993,16.2804574 C6.93427163,20.4503244 7.0600787,29.0895378 3.48939947,27.7036951 C1.10894665,26.7797999 5.10341057,23.3229704 15.4727912,17.3332065 L10.2652993,26.3178523 L16.002003,21.5025627 L16.002003,25.9926665 L18.5660971,24.2683655 L19.7843934,25.9926665 L22.4110964,24.7282271 L22.4466288,24.7898714" id="Path-4" stroke="#9EB1FF" stroke-width="0.5"></path>
            <line x1="4.86309524" y1="4.4" x2="19.8630952" y2="4.4" id="Line-7" stroke="#9EB1FF" stroke-width="0.5" stroke-linecap="square"></line>
            <line x1="4.88295904" y1="10.2694069" x2="19.882959" y2="10.2694069" id="Line-7" stroke="#9EB1FF" stroke-width="0.5" stroke-linecap="square"></line>
            <g id="pen" transform="translate(28.656474, 16.928364) scale(1, -1) rotate(90.000000) translate(-28.656474, -16.928364) translate(12.048814, 13.992676)">
                <path d="M18.0689274,1.49299646 L18.6858544,1.49518547 L19.2975371,1.4995308 L20.2049451,1.51002237 L20.8024836,1.51961426 L21.3937906,1.53124527 L21.9785586,1.54488162 L22.5564799,1.56048951 L23.127247,1.57803513 L23.6905521,1.59748465 L24.2460874,1.61880422 L24.7934443,1.64195528 L25.5989126,1.68006241 L26.1248289,1.70766038 L26.6415894,1.73697585 L27.1421435,1.76756382 C28.5989653,2.07047104 29.15957,2.30865479 29.4815302,2.53403878 C29.8854345,2.81678667 29.8831364,3.07218813 29.8819421,3.33089642 C29.8818072,3.91508692 29.967021,4.43883482 30.1244683,4.92677651 L30.1244683,4.92677651 L29.3807391,4.99505622 L26.5161795,5.19920132 L26.0055198,5.2276555 L25.2229672,5.26720075 L24.4215125,5.30287926 L23.8773162,5.32445795 L23.3254952,5.34423583 L22.7663426,5.36218066 L22.200152,5.37826023 L21.6272166,5.39244235 L21.0478296,5.40469483 L20.4622841,5.41498549 L19.8708734,5.42328218 L19.2738906,5.42955272 L18.6716288,5.43376499 L18.0643809,5.43588682 L17.4486969,5.43588745 L16.8317976,5.43369004 L16.2201435,5.42934512 L15.3127772,5.41885453 L14.7152658,5.40926354 L14.1239852,5.39763361 L13.539243,5.38399852 L12.9613466,5.36839207 L12.3906036,5.35084806 L11.8273218,5.33140031 L11.2718089,5.31008267 L10.7244736,5.28693371 L9.91903566,5.24883 L9.39313835,5.22123449 L8.87639578,5.19192163 C7.43721918,4.86409993 6.89201025,4.5926937 6.57903761,4.33142796 C6.17611134,3.99507002 6.1829083,3.6795872 6.18559787,3.36000592 C6.18604081,2.82160146 6.12432829,2.36979883 6.00904263,1.94648187 L6.00904263,1.94648187 L8.28512127,1.77331632 L8.79593308,1.74173148 L9.31645288,1.71185906 L9.84636276,1.68373408 L10.3853449,1.65739148 L10.9330817,1.63286619 L11.4892554,1.61019314 L12.0535486,1.5894072 L12.6256438,1.57054325 L13.2052238,1.55363613 L13.791971,1.53872068 L14.3855684,1.52583174 L14.9856077,1.51500538 L15.8974491,1.50270376 L16.5125238,1.49718166 L17.1329325,1.49384276 L18.0689274,1.49299646 Z" id="Path" stroke="#9EB1FF" stroke-width="0.2" fill="#6F7CBD"></path>
                <path d="M18.4691027,1.72848621 C18.3705951,2.56585054 18.321054,3.22734376 18.3204795,3.71296584 C18.319905,4.19858792 18.3678122,4.91805795 18.4642012,5.87137594 L17.848161,5.87137594 L17.2309074,5.86917663 L16.6188077,5.86482755 L16.0057382,5.85433076 C15.9274086,4.88895491 15.886876,4.1751666 15.8841404,3.71296584 C15.8814048,3.25076508 15.9138319,2.59506686 15.9814219,1.7458712 L16.2963718,1.73819691 L16.9118062,1.73267222 L17.5326626,1.72933192 L18.4691027,1.72848621 Z" id="Path" stroke="#9EB1FF" stroke-width="0.2" fill="#2A325C"></path>
                <path d="M18.0692824,1.39299709 C17.9707748,2.23036143 17.9212337,2.89185464 17.9206591,3.37747672 C17.9200846,3.8630988 17.9679918,4.58256883 18.0643809,5.53588682 L17.4483406,5.53588682 L16.8310871,5.53368751 L16.2189873,5.52933843 L15.6059179,5.51884165 C15.5275882,4.55346579 15.4870556,3.83967748 15.48432,3.37747672 C15.4815844,2.91527596 15.5140116,2.25957775 15.5816015,1.41038209 L15.8965515,1.40270779 L16.5119858,1.39718311 L17.1328422,1.3938428 L18.0692824,1.39299709 Z" id="Path" fill="#FF6E61"></path>
                <path d="M32.3310837,2.2327942 C32.5475995,2.2327942 32.7435996,2.32093492 32.8854826,2.46338357 C33.0275094,2.60597651 33.1153209,2.80297614 33.1153209,3.02055629 L33.1153209,3.02055629 L33.1153209,3.90831837 C33.1153209,4.12589851 33.0275094,4.32289815 32.8854826,4.46549108 C32.7435996,4.60793974 32.5475995,4.69608046 32.3310739,4.69608046 L32.3310739,4.69608046 L30.2218637,4.69628727 C30.110563,4.27339825 30.0512849,3.82928824 30.0512849,3.37127711 C30.0512849,2.98003401 30.0945389,2.59893466 30.1767041,2.23244903 L30.1767041,2.23244903 Z" id="Path" stroke="#9EB1FF" stroke-width="0.2" fill="#2A325C"></path>
                <path d="M5.38231437,1.98963645 C6.01146666,2.34030476 6.0611223,2.75678967 6.0611223,3.18349584 C6.0611223,3.75541508 5.96868856,4.30565911 5.79766307,4.8198817 L5.79766307,4.8198817 L5.49703379,4.7939189 L5.25072917,4.76948236 L5.00942927,4.74298276 L4.77335114,4.71447067 L4.54271238,4.68399697 L4.31742829,4.65156606 L4.20743056,4.6347207 L3.9913465,4.5995684 L3.78112847,4.56257223 L3.67892692,4.54351959 L3.47840503,4.50394058 L3.38122087,4.48364808 L3.19129722,4.44170231 L3.00847484,4.39819827 L2.83298219,4.35319563 L2.66405271,4.30646448 C2.60937801,4.29074984 2.55595916,4.27479435 2.50491405,4.25894812 L2.50491405,4.25894812 L2.35221406,4.2096333 L2.27984815,4.18482316 L2.13956491,4.1336441 L2.0736832,4.10804599 L1.94557866,4.05483973 C1.9049364,4.03717316 1.86570353,4.01931019 1.82967674,4.00211782 L1.82967674,4.00211782 L1.71953185,3.94683687 C1.54134309,3.85265413 1.40253046,3.7544361 1.30969202,3.65140115 C1.23256279,3.56580076 1.18803678,3.4779989 1.18803678,3.38625631 C1.18803678,3.26944153 1.25902621,3.15964321 1.37834108,3.05320538 C1.52243929,2.92465895 1.73676019,2.80364843 2.00863892,2.6908648 L2.00863892,2.6908648 L2.14149021,2.63812828 C2.25502092,2.59497468 2.37715975,2.5531644 2.50631435,2.51311657 L2.50631435,2.51311657 L2.6670121,2.46517761 L2.83549799,2.41863131 L3.0115399,2.37354032 L3.19490839,2.32996449 L3.38537631,2.28796156 L3.58306361,2.24752151 L3.68389729,2.22802862 L3.89113163,2.19020042 L4.10468332,2.15413619 L4.32433161,2.11988851 L4.5498566,2.08750932 L4.78103914,2.05705011 L5.01766069,2.02856197 L5.259762,2.00206974 Z" id="Path" stroke="#9EB1FF" stroke-width="0.2" fill="#2A325C"></path>
                <path d="M1.66040788,3.08741139 C1.73883199,3.18018893 1.74373606,3.28248349 1.74373606,3.38385314 C1.74373606,3.48929616 1.73482136,3.59264868 1.71767927,3.69318257 L1.686,3.837 L1.61257598,3.83080002 L1.52185937,3.82084705 L1.43319973,3.8101495 L1.34668849,3.79873001 L1.26181257,3.78651831 L1.22115306,3.78029873 L1.14042167,3.76717921 L1.06148897,3.75329634 L1.02400514,3.74631776 L0.948920216,3.73150754 L0.913505574,3.72412389 L0.843299254,3.70864048 L0.775987225,3.69264852 L0.711682697,3.67618829 L0.650504298,3.65930559 L0.592577139,3.64205358 L0.536839673,3.62408103 L0.512075511,3.61562392 L0.461502342,3.59721194 L0.439678633,3.58877891 L0.393020291,3.56942359 L0.356709135,3.55301213 L0.31751028,3.53337865 C0.269307521,3.5079008 0.230295705,3.48292374 0.2,3.46154015 C0.2,3.45553309 0.216370592,3.456809 0.218861608,3.45458682 C0.263464314,3.41479786 0.330892804,3.37920624 0.412368781,3.34538574 L0.412368781,3.34538574 L0.461074608,3.32603288 C0.501602551,3.310628 0.545209535,3.295721 0.589609994,3.28194326 L0.589609994,3.28194326 L0.648018276,3.26448368 L0.709639564,3.24743016 L0.77435486,3.23082856 L0.842050591,3.21471916 L0.912617707,3.19913798 L0.986641356,3.18398552 L1.02362283,3.17682737 L1.10091462,3.16270415 L1.18072208,3.14921327 L1.26294897,3.13638042 L1.34750076,3.12423007 L1.4342844,3.11278575 L1.52320807,3.10207018 L1.61469857,3.09205363 Z" id="Path" stroke="#9EB1FF" stroke-width="0.4" fill="#9EB1FF"></path>
                <path d="M29.8444244,1.8123869 C30.0676648,1.21670473 30.0676648,0.829050443 29.8444244,0.649424041 C29.5095638,0.379984438 21.1997704,-0.552410938 18.6023045,0.462557773 C18.1545675,0.637512565 18.0822931,0.823982472 18.3854815,1.02196749 C23.8475569,0.64902768 26.9587858,0.865551572 27.7191684,1.67153917 C28.1806591,1.67153917 28.8890778,1.71848841 29.8444244,1.8123869 Z" id="Path-49" stroke="#9EB1FF" stroke-width="0.2" fill="#2A325C"></path>
            </g>
        </g>
    </g>
</svg>