<?xml version="1.0" encoding="UTF-8"?>
<svg width="100px" height="100px" viewBox="0 0 100 100" version="1.1" xmlns="http://www.w3.org/2000/svg" xmlns:xlink="http://www.w3.org/1999/xlink">
    <title>Illustrations/Dark/100px/mandate</title>
    <defs>
        <filter x="-39.5%" y="-39.5%" width="179.0%" height="179.0%" filterUnits="objectBoundingBox" id="filter-1">
            <feGaussianBlur stdDeviation="4" in="SourceGraphic"></feGaussianBlur>
        </filter>
    </defs>
    <g id="Illustrations/Dark/100px/mandate" stroke="none" stroke-width="1" fill="none" fill-rule="evenodd">
        <g id="Group" transform="translate(12.000000, 6.000000)" fill-rule="nonzero">
            <g id="Group-Copy" transform="translate(23.130435, 0.000000)" fill="#8DA4FA" stroke="#8DA4FA" stroke-width="0.8">
                <path d="M25.6539671,27.1082535 L25.7382093,27.1747605 C29.0546917,24.2661877 30.9479243,20.111717 30.9479243,15.6956522 C30.9479243,14.6271064 30.8370793,13.5851634 30.6286907,12.5831245 C30.5045443,12.5299189 30.4203021,12.4855809 30.3050233,12.4190739 C30.0655981,13.2038565 29.5512773,13.2792311 28.8551707,13.1107467 C29.6133505,14.658143 28.0969909,14.835495 28.0969909,16.0414886 C28.0969909,17.0612626 27.0373127,18.7505404 26.1461189,19.2382584 C26.1860231,19.6506018 26.3146033,20.4575534 26.2347949,20.8078236 C26.1638541,21.1270572 25.6894375,21.6369442 25.4810489,21.9384426 C25.3436011,22.129096 24.4790101,23.4814051 24.0622329,22.8917097 C23.7208303,22.4128592 24.3725989,21.3886514 24.3016581,20.5639646 C24.2484525,19.9299312 24.0400639,19.690506 23.9070499,19.535323 C23.7208303,19.3091992 23.6232867,19.2160894 23.7651683,18.9057234 C24.0489315,18.3071604 23.9469541,18.0899042 23.8760133,17.939155 C23.7917711,17.7529354 23.7296979,17.6154876 23.9026161,17.3716286 C24.1642103,17.0036232 24.2883567,17.052395 23.5789487,17.118902 C21.9561778,17.2785188 21.4950626,16.2809138 20.5417956,16.94155 C20.2269958,17.16324 19.9698354,17.340592 19.6151314,17.0656964 C19.2958978,16.8174036 18.9855318,16.653353 18.7017686,16.5026038 C17.2563498,15.7355564 16.8440064,14.5384304 17.6243552,13.0575411 L17.6997298,12.9156595 C17.6243552,12.8801891 17.562282,12.8358511 17.5090764,12.7826455 C17.0346598,12.3037951 17.7307664,10.9337509 18.0366986,10.7785679 C19.4732498,10.0691599 18.5953574,9.1203267 20.4619872,8.8897691 C21.4462908,8.7656227 21.6724146,7.59066568 22.7675633,8.06064849 C23.6809261,8.45082289 24.0489315,8.19366249 24.2927905,8.02517809 C25.0820069,7.46651928 25.3613363,8.6414763 26.5983665,8.47299189 C26.8954311,8.41535249 26.2126259,7.92763449 25.8756571,8.08725129 C24.9622943,8.51732989 25.2682265,7.19162368 24.3016581,7.44878408 C24.0178949,7.52415868 23.7163965,7.60396708 23.3040531,7.35567428 C22.2488086,6.71720707 22.239941,6.72607467 22.1823016,6.80588308 C21.5216654,7.71037829 20.399914,7.04974208 20.4353844,8.08281749 C20.4265168,8.32667649 20.3378408,8.48185949 19.956534,8.46855809 C19.335802,8.44195529 19.3890076,9.1114591 19.0210022,9.1690985 C18.0899042,9.3109801 18.537718,8.6813805 18.9190248,8.34884549 C19.2293908,8.08281749 19.6417342,7.72811349 19.5840948,7.56849668 C19.3269344,6.82361828 19.5840948,6.52655367 19.9432326,6.40240727 C20.1072832,6.34476787 20.289069,6.33590027 20.444252,6.33590027 C20.3600098,6.31816507 20.2491648,6.27826087 20.1294522,6.18958487 C19.6772046,5.84818226 19.4998526,5.28065586 19.3845738,4.88604765 C19.3845738,4.92595185 19.3757062,4.97028986 19.357971,5.01906166 C19.335802,5.09000246 19.2737288,5.14320806 19.202788,5.16094326 C18.537718,5.38706706 18.05,5.29839106 17.7795382,5.10330386 C17.5268116,4.91265045 17.3982314,4.61558585 17.562282,4.32295505 C17.673127,4.11456645 17.9347212,3.94608204 18.3426308,3.92391304 C18.5199828,3.91504544 18.5554532,3.79533284 18.5465856,3.65345124 C18.5332842,3.39185704 18.338197,2.91300663 18.4889462,2.69575043 C18.6175264,2.50509703 18.8658192,2.50953083 19.357971,2.85093343 C20.821125,3.86627364 20.8166912,4.32738885 20.8166912,4.59341685 C20.8078236,4.69539425 21.5039302,5.43140506 21.530533,5.24518546 C21.5571358,5.02792926 21.5881724,4.75746745 21.9029722,4.62888725 C22.9759519,4.18994105 22.439462,3.80863424 22.2000368,3.07262343 C22.0803242,2.70905183 22.1113608,2.37208303 22.6035127,2.09718742 C20.5284942,1.04194301 18.183014,0.443380005 15.6956522,0.443380005 C12.8979243,0.443380005 10.2509457,1.20599361 7.97640629,2.54500123 C8.8454311,3.76873004 8.56610169,3.93721444 7.83452469,5.01462786 C7.12511668,6.09647507 8.02074429,7.70151069 6.18071727,8.28233849 C6.06987227,8.32224269 6.79701548,9.1158929 5.78167526,9.90954311 C5.61762466,10.0336895 5.92355687,10.5302751 5.99006387,10.7209285 C6.14081307,11.1687423 6.11864407,11.6165561 5.25848686,11.9535249 C5.17424466,12.3703021 5.17867846,12.4190739 5.21414886,12.4412429 C5.44914026,12.5476541 5.59545566,12.7205723 5.72846966,12.9378285 C5.87921887,12.8757553 6.14524687,12.8048145 6.63296487,12.8181159 C7.43991648,12.8447187 7.26256448,13.2260255 8.6813805,13.3368705 C9.95388111,13.4344141 10.2465119,14.0684476 10.6012159,14.835495 C10.6322525,15.3852862 11.4392041,16.121297 11.8958855,16.476001 C12.2062515,16.6799558 11.9801277,17.0435274 11.6786293,17.5356792 C11.3992999,17.9879268 11.0357283,18.582056 11.0135593,19.1052444 C11.0002579,19.3890076 10.8051707,19.5264554 10.5435765,19.7038074 C10.1134979,20.000872 9.4395603,20.466421 9.50606731,22.151265 C9.51936871,22.3995578 9.2976787,22.5547408 9.0405183,22.7453943 C8.7168509,22.9848195 8.30450749,23.2597151 8.6503439,23.6986613 C8.7877917,23.8760133 8.7922255,24.1110047 8.7079833,24.2794891 C8.56166789,24.5898551 8.22026529,24.6386269 7.97640629,24.4080693 C7.30246868,23.7829035 7.74584869,22.7941661 7.11624908,22.2754114 C6.64183247,21.8808032 6.01666667,21.3664824 6.87239008,19.0830754 C7.19605748,18.2184844 6.82361828,17.939155 6.38023827,17.6110538 C5.70186686,17.1100344 4.88161385,16.49817 5.32056006,14.3300418 C5.39593466,13.970904 4.15447065,13.2747973 4.15890445,12.4057725 C3.35638664,12.2372881 3.13026283,11.8958855 2.89527143,11.0800663 C2.81102923,10.7874355 1.73804962,10.4770695 1.39664702,10.3750921 C0.780348809,12.0244657 0.443380005,13.815721 0.443380005,15.6956522 C0.443380005,21.0383812 3.22337264,25.9465979 7.75915009,28.7177229 C7.66604028,28.4295259 7.60396708,28.0969909 7.69264309,27.8486981 C7.81678949,27.4895603 8.16262589,27.2944731 8.9429747,27.5605011 C9.0139155,27.5871039 9.0715549,27.6491771 9.0892901,27.7245517 C9.3242815,28.8507369 9.53710391,28.9128101 9.94057971,29.0325227 C10.5169737,29.2054409 11.8160771,29.9680545 11.9889953,30.4912429 C13.1728199,30.7883075 14.414284,30.9479243 15.6956522,30.9479243 C16.3296856,30.9479243 16.9548514,30.9080201 17.5711496,30.8326455 C18.648563,29.6310857 18.4889462,29.5113731 18.3337632,29.3960943 C17.7972734,28.9926185 18.0145296,27.9994473 18.759408,28.3851879 C18.9633628,28.4915991 19.2781626,28.6556497 19.6772046,28.0437853 C19.9875706,27.5693687 20.2580324,27.6403095 20.6127364,27.7378531 C22.0271186,28.1191599 21.8808032,26.3500737 23.5168755,27.4585237 C23.8228077,27.6669123 24.1065709,27.8575657 24.4391059,27.3476787 C24.6297593,27.0550479 24.9046549,26.9042987 25.2593589,26.9530705 C25.4101081,26.9796733 25.5253869,27.0328789 25.6539671,27.1082535 Z M15.6956522,0 C24.3637313,0 31.3913043,7.02757308 31.3913043,15.6956522 C31.3913043,24.3637313 24.3637313,31.3913043 15.6956522,31.3913043 C7.02757308,31.3913043 0,24.3637313 0,15.6956522 C0,7.02757308 7.03200688,0 15.6956522,0 Z" id="Shape" filter="url(#filter-1)"></path>
                <path d="M25.6539671,27.1082535 L25.7382093,27.1747605 C29.0546917,24.2661877 30.9479243,20.111717 30.9479243,15.6956522 C30.9479243,14.6271064 30.8370793,13.5851634 30.6286907,12.5831245 C30.5045443,12.5299189 30.4203021,12.4855809 30.3050233,12.4190739 C30.0655981,13.2038565 29.5512773,13.2792311 28.8551707,13.1107467 C29.6133505,14.658143 28.0969909,14.835495 28.0969909,16.0414886 C28.0969909,17.0612626 27.0373127,18.7505404 26.1461189,19.2382584 C26.1860231,19.6506018 26.3146033,20.4575534 26.2347949,20.8078236 C26.1638541,21.1270572 25.6894375,21.6369442 25.4810489,21.9384426 C25.3436011,22.129096 24.4790101,23.4814051 24.0622329,22.8917097 C23.7208303,22.4128592 24.3725989,21.3886514 24.3016581,20.5639646 C24.2484525,19.9299312 24.0400639,19.690506 23.9070499,19.535323 C23.7208303,19.3091992 23.6232867,19.2160894 23.7651683,18.9057234 C24.0489315,18.3071604 23.9469541,18.0899042 23.8760133,17.939155 C23.7917711,17.7529354 23.7296979,17.6154876 23.9026161,17.3716286 C24.1642103,17.0036232 24.2883567,17.052395 23.5789487,17.118902 C21.9561778,17.2785188 21.4950626,16.2809138 20.5417956,16.94155 C20.2269958,17.16324 19.9698354,17.340592 19.6151314,17.0656964 C19.2958978,16.8174036 18.9855318,16.653353 18.7017686,16.5026038 C17.2563498,15.7355564 16.8440064,14.5384304 17.6243552,13.0575411 L17.6997298,12.9156595 C17.6243552,12.8801891 17.562282,12.8358511 17.5090764,12.7826455 C17.0346598,12.3037951 17.7307664,10.9337509 18.0366986,10.7785679 C19.4732498,10.0691599 18.5953574,9.1203267 20.4619872,8.8897691 C21.4462908,8.7656227 21.6724146,7.59066568 22.7675633,8.06064849 C23.6809261,8.45082289 24.0489315,8.19366249 24.2927905,8.02517809 C25.0820069,7.46651928 25.3613363,8.6414763 26.5983665,8.47299189 C26.8954311,8.41535249 26.2126259,7.92763449 25.8756571,8.08725129 C24.9622943,8.51732989 25.2682265,7.19162368 24.3016581,7.44878408 C24.0178949,7.52415868 23.7163965,7.60396708 23.3040531,7.35567428 C22.2488086,6.71720707 22.239941,6.72607467 22.1823016,6.80588308 C21.5216654,7.71037829 20.399914,7.04974208 20.4353844,8.08281749 C20.4265168,8.32667649 20.3378408,8.48185949 19.956534,8.46855809 C19.335802,8.44195529 19.3890076,9.1114591 19.0210022,9.1690985 C18.0899042,9.3109801 18.537718,8.6813805 18.9190248,8.34884549 C19.2293908,8.08281749 19.6417342,7.72811349 19.5840948,7.56849668 C19.3269344,6.82361828 19.5840948,6.52655367 19.9432326,6.40240727 C20.1072832,6.34476787 20.289069,6.33590027 20.444252,6.33590027 C20.3600098,6.31816507 20.2491648,6.27826087 20.1294522,6.18958487 C19.6772046,5.84818226 19.4998526,5.28065586 19.3845738,4.88604765 C19.3845738,4.92595185 19.3757062,4.97028986 19.357971,5.01906166 C19.335802,5.09000246 19.2737288,5.14320806 19.202788,5.16094326 C18.537718,5.38706706 18.05,5.29839106 17.7795382,5.10330386 C17.5268116,4.91265045 17.3982314,4.61558585 17.562282,4.32295505 C17.673127,4.11456645 17.9347212,3.94608204 18.3426308,3.92391304 C18.5199828,3.91504544 18.5554532,3.79533284 18.5465856,3.65345124 C18.5332842,3.39185704 18.338197,2.91300663 18.4889462,2.69575043 C18.6175264,2.50509703 18.8658192,2.50953083 19.357971,2.85093343 C20.821125,3.86627364 20.8166912,4.32738885 20.8166912,4.59341685 C20.8078236,4.69539425 21.5039302,5.43140506 21.530533,5.24518546 C21.5571358,5.02792926 21.5881724,4.75746745 21.9029722,4.62888725 C22.9759519,4.18994105 22.439462,3.80863424 22.2000368,3.07262343 C22.0803242,2.70905183 22.1113608,2.37208303 22.6035127,2.09718742 C20.5284942,1.04194301 18.183014,0.443380005 15.6956522,0.443380005 C12.8979243,0.443380005 10.2509457,1.20599361 7.97640629,2.54500123 C8.8454311,3.76873004 8.56610169,3.93721444 7.83452469,5.01462786 C7.12511668,6.09647507 8.02074429,7.70151069 6.18071727,8.28233849 C6.06987227,8.32224269 6.79701548,9.1158929 5.78167526,9.90954311 C5.61762466,10.0336895 5.92355687,10.5302751 5.99006387,10.7209285 C6.14081307,11.1687423 6.11864407,11.6165561 5.25848686,11.9535249 C5.17424466,12.3703021 5.17867846,12.4190739 5.21414886,12.4412429 C5.44914026,12.5476541 5.59545566,12.7205723 5.72846966,12.9378285 C5.87921887,12.8757553 6.14524687,12.8048145 6.63296487,12.8181159 C7.43991648,12.8447187 7.26256448,13.2260255 8.6813805,13.3368705 C9.95388111,13.4344141 10.2465119,14.0684476 10.6012159,14.835495 C10.6322525,15.3852862 11.4392041,16.121297 11.8958855,16.476001 C12.2062515,16.6799558 11.9801277,17.0435274 11.6786293,17.5356792 C11.3992999,17.9879268 11.0357283,18.582056 11.0135593,19.1052444 C11.0002579,19.3890076 10.8051707,19.5264554 10.5435765,19.7038074 C10.1134979,20.000872 9.4395603,20.466421 9.50606731,22.151265 C9.51936871,22.3995578 9.2976787,22.5547408 9.0405183,22.7453943 C8.7168509,22.9848195 8.30450749,23.2597151 8.6503439,23.6986613 C8.7877917,23.8760133 8.7922255,24.1110047 8.7079833,24.2794891 C8.56166789,24.5898551 8.22026529,24.6386269 7.97640629,24.4080693 C7.30246868,23.7829035 7.74584869,22.7941661 7.11624908,22.2754114 C6.64183247,21.8808032 6.01666667,21.3664824 6.87239008,19.0830754 C7.19605748,18.2184844 6.82361828,17.939155 6.38023827,17.6110538 C5.70186686,17.1100344 4.88161385,16.49817 5.32056006,14.3300418 C5.39593466,13.970904 4.15447065,13.2747973 4.15890445,12.4057725 C3.35638664,12.2372881 3.13026283,11.8958855 2.89527143,11.0800663 C2.81102923,10.7874355 1.73804962,10.4770695 1.39664702,10.3750921 C0.780348809,12.0244657 0.443380005,13.815721 0.443380005,15.6956522 C0.443380005,21.0383812 3.22337264,25.9465979 7.75915009,28.7177229 C7.66604028,28.4295259 7.60396708,28.0969909 7.69264309,27.8486981 C7.81678949,27.4895603 8.16262589,27.2944731 8.9429747,27.5605011 C9.0139155,27.5871039 9.0715549,27.6491771 9.0892901,27.7245517 C9.3242815,28.8507369 9.53710391,28.9128101 9.94057971,29.0325227 C10.5169737,29.2054409 11.8160771,29.9680545 11.9889953,30.4912429 C13.1728199,30.7883075 14.414284,30.9479243 15.6956522,30.9479243 C16.3296856,30.9479243 16.9548514,30.9080201 17.5711496,30.8326455 C18.648563,29.6310857 18.4889462,29.5113731 18.3337632,29.3960943 C17.7972734,28.9926185 18.0145296,27.9994473 18.759408,28.3851879 C18.9633628,28.4915991 19.2781626,28.6556497 19.6772046,28.0437853 C19.9875706,27.5693687 20.2580324,27.6403095 20.6127364,27.7378531 C22.0271186,28.1191599 21.8808032,26.3500737 23.5168755,27.4585237 C23.8228077,27.6669123 24.1065709,27.8575657 24.4391059,27.3476787 C24.6297593,27.0550479 24.9046549,26.9042987 25.2593589,26.9530705 C25.4101081,26.9796733 25.5253869,27.0328789 25.6539671,27.1082535 Z M15.6956522,0 C24.3637313,0 31.3913043,7.02757308 31.3913043,15.6956522 C31.3913043,24.3637313 24.3637313,31.3913043 15.6956522,31.3913043 C7.02757308,31.3913043 0,24.3637313 0,15.6956522 C0,7.02757308 7.03200688,0 15.6956522,0 Z" id="Shape"></path>
            </g>
            <path d="M20.7957412,33.9557597 L29.4601147,42.6201332 L28.5472017,43.5247469 L25.2275184,46.8444302 L11.2682501,60.8285962 L2.61217581,52.1476243 L20.7957412,33.9557597 Z M11.4840295,49.9400349 C10.5673242,49.9400349 9.82418782,50.6831713 9.82418782,51.5998766 C9.82418782,52.5165818 10.5673242,53.2597182 11.4840295,53.2597182 L11.4840295,53.2597182 L11.4840295,53.2265214 C12.3879255,53.2267022 13.1257932,52.5035918 13.1438711,51.5998766 C13.1438711,50.6831713 12.4007347,49.9400349 11.4840295,49.9400349 Z" id="Path-2" fill="#6C78B4"></path>
            <path d="M54.9884794,36.0305618 L73.180344,54.2224264 L64.2669943,63.1523745 L60.7564292,59.6418094 L48.2495222,47.1266033 L46.0668305,44.9522107 L54.9884794,36.0305618 Z M64.0927109,52.3717029 L64.0927109,52.413199 C63.1919694,52.4129174 62.4553877,53.1310845 62.4328692,54.0315446 C62.4328692,54.9482498 63.1760057,55.6913862 64.0927109,55.6913862 C65.0094161,55.6913862 65.7525526,54.9482498 65.7525526,54.0315446 C65.7525526,53.1148394 65.0094161,52.3717029 64.0927109,52.3717029 L64.0927109,52.3717029 Z" id="Path-3" fill="#6C78B4"></path>
            <g id="noun_deal_2300383-copy" transform="translate(0.000000, 31.391304)" fill="#404B8A">
                <path d="M20.7957412,0.559534014 C21.0170292,0.559534014 21.2291536,0.647908693 21.384985,0.805023205 L21.384985,0.805023205 L31.2444444,10.639585 C31.5662243,10.9632852 31.5662243,11.4860732 31.2444444,11.8097734 L31.2444444,11.8097734 L30.3315315,12.7226863 L32.2320502,14.623205 C33.1212014,13.2842099 34.6978078,12.571674 36.2903631,12.78908 L36.2903631,12.78908 L45.012831,14.8887797 L44.3073983,14.183347 C44.1540753,14.0287654 44.067638,13.8201237 44.0667213,13.6024024 C44.0654459,13.381807 44.1520483,13.1697803 44.3073983,13.0131586 L44.3073983,13.0131586 L54.3992356,2.87982528 C54.555067,2.72271077 54.7671913,2.63433609 54.9884794,2.63433609 C55.2097674,2.63433609 55.4218918,2.72271077 55.5777232,2.87982528 L55.5777232,2.87982528 L74.9397761,22.2418782 C75.0968907,22.3977097 75.1852653,22.609834 75.1852653,22.831122 C75.1852653,23.0524101 75.0968907,23.2645344 74.9397761,23.4203658 L74.9397761,23.4203658 L64.8894349,33.4956047 C64.7328132,33.6509547 64.5207865,33.7375571 64.3001911,33.7362817 C64.0804555,33.7332247 63.8699882,33.6472592 63.7109473,33.4956047 L63.7109473,33.4956047 L61.6859405,31.4622987 L56.7977068,39.1556648 L57.7023205,40.0519793 C58.4089349,40.759192 58.8084819,41.7163158 58.8144144,42.7160251 C58.8146485,44.0474037 58.1137534,45.2805205 56.9697092,45.9614992 C55.8256651,46.6424778 54.407555,46.6706736 53.2373464,46.0357084 C53.0622872,47.2561302 52.2999646,48.3131579 51.1972135,48.8645335 C50.0944624,49.415909 48.7914467,49.3915504 47.7100737,48.7993448 C47.5377546,49.9691353 46.8274444,50.9906734 45.7908439,51.5594998 C44.7542435,52.1283261 43.5110472,52.1787594 42.4317772,51.6957685 C42.2625998,53.1293734 41.2909051,54.3410882 39.9282859,54.8176519 C38.5656667,55.2942156 37.0505795,54.9522302 36.0247884,53.9365547 L36.0247884,53.9365547 L35.4023478,53.3058149 L35.2529621,53.4634999 C34.7424152,53.9743505 34.0497828,54.2613689 33.3275457,54.2613689 C32.6053087,54.2613689 31.9126762,53.9743505 31.4021294,53.4634999 L31.4021294,53.4634999 L29.8750751,51.9696424 C29.5941837,51.6880696 29.3788257,51.3480307 29.2443352,50.9737374 C28.7909317,51.247669 28.2718991,51.3939158 27.7421785,51.396997 C26.9733087,51.4036701 26.2331593,51.1052228 25.6839749,50.5670762 L25.6839749,50.5670762 L24.4722905,49.3553918 C24.1408461,49.0144306 23.8960798,48.5988972 23.7585586,48.1437073 C23.2932533,48.4272255 22.7597662,48.5792407 22.2149058,48.5835654 C21.3983192,48.5848404 20.6152301,48.2590515 20.0405132,47.6789517 L20.0405132,47.6789517 L19.0695059,46.6996451 C18.6842999,46.3189074 18.4115,45.8393538 18.2810811,45.3136773 C17.7999934,45.5957764 17.2535949,45.7473948 16.6959323,45.7535354 C15.8394539,45.7550851 15.017832,45.4144855 14.41365,44.8074256 L14.41365,44.8074256 L13.6501229,44.0438984 C13.0434692,43.4410062 12.7023367,42.621048 12.7023367,41.7657658 C12.7023367,40.9104835 13.0434692,40.0905253 13.6501229,39.4876331 L13.6501229,39.4876331 L17.55905,35.5372099 L17.4594595,35.4376194 C17.4110517,35.3909037 17.369177,35.3378624 17.3349713,35.2799345 L17.3349713,35.2799345 L13.7331149,29.2713077 L11.824297,31.1801256 C11.5005968,31.5019055 10.9778089,31.5019055 10.6541087,31.1801256 L10.6541087,31.1801256 L0.852743653,21.3455637 C0.530963765,21.0218635 0.530963765,20.4990756 0.852743653,20.1753754 L0.852743653,20.1753754 L20.2064974,0.805023205 C20.3623288,0.647908693 20.5744532,0.559534014 20.7957412,0.559534014 Z M29.1447447,13.8928747 L14.969697,28.0679225 L18.7458367,34.3670216 L20.6131586,32.4996997 C21.2981309,31.8716261 22.2205412,31.5691965 23.1444171,31.6697789 L23.1444171,31.6697789 L23.3576085,31.6768906 C24.1358575,31.7286244 24.8719126,32.0608413 25.4266994,32.6158886 L25.4266994,32.6158886 L26.1902266,33.3794158 C26.3468042,33.5353707 26.4859436,33.7079035 26.605187,33.8939667 L26.605187,33.8939667 L26.6746929,33.9935572 C26.6964783,34.026754 26.7130767,34.0599509 26.7130767,34.0931477 C26.7848274,34.2161758 26.8485864,34.3436939 26.9039585,34.4749113 C26.9786514,34.5579034 26.9454545,34.6076986 26.9786514,34.7238875 C27.0118482,34.8400764 27.0782419,34.9894622 27.0782419,35.0807535 L27.0782419,35.0807535 L27.0782419,35.3629266 C27.0863851,35.4789728 27.0863851,35.5954471 27.0782419,35.7114933 L27.0782419,35.7114933 L27.0782419,35.7695878 C27.1029642,35.7654089 27.1282125,35.7654089 27.1529348,35.7695878 L27.1529348,35.7695878 L27.7836746,35.7695878 L28.0243516,35.8359814 C28.1405405,35.8691783 28.2567295,35.9355719 28.3646192,35.9355719 C28.4639331,35.9803693 28.5608845,36.03023 28.6550915,36.0849577 C28.7441015,36.1226141 28.8301095,36.1670053 28.9123669,36.217745 C29.089381,36.3361254 29.2559696,36.4693962 29.4103194,36.616107 L29.4103194,36.616107 L30.389626,37.5954136 C30.5354166,37.7424173 30.6660918,37.903676 30.7796888,38.0767677 C30.8160557,38.1358451 30.8492982,38.1967897 30.8792793,38.2593503 C30.9466091,38.3720342 31.0075657,38.4884059 31.0618619,38.607917 C31.1365547,38.6826099 31.1365547,38.765602 31.1365547,38.8402948 C31.1746088,38.9487119 31.2051122,39.0596331 31.227846,39.1722632 L31.227846,39.1722632 L31.227846,39.803003 L31.2776413,39.803003 C31.4296822,39.7947766 31.5820568,39.7947766 31.7340977,39.803003 L31.7340977,39.803003 L31.825389,39.803003 C32.0001373,39.8373348 32.1721196,39.8844912 32.3399399,39.9440895 L32.3399399,39.9440895 L32.4958617,40.010978 C32.5986193,40.0582043 32.6989301,40.1106661 32.7963964,40.1681682 L32.7963964,40.1681682 L32.8710893,40.1681682 C33.0417646,40.2784276 33.2003276,40.4063908 33.3441441,40.5499317 L33.3441441,40.5499317 L34.5558286,41.7616162 C34.6913357,41.8992192 34.8135962,42.0492662 34.9209937,42.2097734 C34.9624898,42.2761671 34.9790882,42.3093639 35.0288834,42.4089544 C35.0786787,42.5085449 35.1865684,42.6081354 35.1865684,42.7160251 C35.2135712,42.7863614 35.2357537,42.8584546 35.2529621,42.9318045 C35.2910069,43.0345726 35.321518,43.1399746 35.3442533,43.2471744 C35.3483223,43.3218119 35.3483223,43.3966156 35.3442533,43.4712531 C35.3524153,43.5706763 35.3524153,43.6706013 35.3442533,43.7700246 L35.3442533,43.7700246 L35.5428623,43.7795164 C36.2013739,43.8347803 36.8208665,44.1246486 37.2862681,44.5999454 L37.2862681,44.5999454 L38.7635272,46.0772045 C39.8172973,47.1413108 39.8172973,48.8556316 38.7635272,49.9197379 L38.7635272,49.9197379 L36.5393393,52.1439257 L37.16178,52.7663664 C37.9927606,53.5609907 39.3019159,53.5609907 40.1328965,52.7663664 C40.5317995,52.3733033 40.7563984,51.8366783 40.7563984,51.2766585 C40.7563984,50.7166387 40.5317995,50.1800137 40.1328965,49.7869506 C39.8111166,49.4632504 39.8111166,48.9404624 40.1328965,48.6167622 C40.2887279,48.4596477 40.5008523,48.371273 40.7221403,48.371273 C40.9434284,48.371273 41.1555527,48.4596477 41.3113841,48.6167622 L41.3113841,48.6167622 L42.4815725,49.762053 C42.8754112,50.1563411 43.4098409,50.3778876 43.9671308,50.3778876 C44.5244207,50.3778876 45.0588504,50.1563411 45.4526891,49.762053 C45.8541707,49.3725354 46.0790322,48.8358659 46.0751297,48.2764947 C46.0755902,47.7235083 45.8578847,47.1926646 45.4692875,46.7992356 L45.4692875,46.7992356 L45.3862896,46.7185891 C45.2075508,46.5188618 45.1346533,46.2424361 45.1965972,45.976778 C45.2673902,45.6731687 45.5023594,45.4348428 45.804934,45.3597506 C46.1075087,45.2846585 46.4266437,45.3854684 46.6311766,45.620748 L46.6311766,45.620748 L48.000546,46.9901174 C48.8226088,47.8066686 50.1495998,47.8066686 50.9716626,46.9901174 C51.3673337,46.5932704 51.590927,46.0566465 51.5941032,45.4962599 C51.5954689,44.9390319 51.374406,44.4042987 50.9799618,44.0107016 C50.6581819,43.6870014 50.6581819,43.1642134 50.9799618,42.8405132 C51.303662,42.5187334 51.8264499,42.5187334 52.1501502,42.8405132 L52.1501502,42.8405132 L53.5361179,44.2181818 C53.9299566,44.6124699 54.4643863,44.8340165 55.0216762,44.8340165 C55.5789661,44.8340165 56.1133958,44.6124699 56.5072345,44.2181818 C56.898907,43.8254292 57.1221729,43.2955448 57.1296751,42.7409227 C57.1255721,42.1725787 56.8956744,41.6291844 56.4906361,41.2304668 L56.4906361,41.2304668 L55.1129675,39.8610975 L45.2369096,29.9850396 L38.597543,26.5159705 L38.2323778,27.8936391 C37.3824185,31.0236974 34.1627146,32.8783655 31.028665,32.0432432 C30.1115163,31.7977449 29.3276003,31.201611 28.8459732,30.3834016 C28.3624409,29.5560068 28.2337447,28.5683379 28.4891073,27.6446628 L28.4891073,27.6446628 L31.5349167,16.2830467 L29.1447447,13.8928747 Z M36.1409773,45.7701338 C35.72711,45.3608885 35.0609872,45.3608885 34.6471198,45.7701338 L34.6471198,45.7701338 L34.5143325,45.9029211 L31.1033579,49.3221949 C30.8996272,49.5169571 30.7854882,49.7872863 30.7879478,50.0691237 C30.7876301,50.3513387 30.897866,50.6224594 31.0950587,50.8243516 L31.0950587,50.8243516 L32.5723178,52.3016107 C32.9890153,52.7118355 33.6577769,52.7118355 34.0744745,52.3016107 L34.0744745,52.3016107 L37.6182364,48.7495495 C38.0329829,48.3347145 38.0329829,47.6622279 37.6182364,47.2473928 L37.6182364,47.2473928 Z M32.1324597,41.7616162 C31.6445661,41.2807123 30.8609212,41.2807123 30.3730276,41.7616162 L30.3730276,41.7616162 L25.7420693,46.3925744 L25.6922741,46.4423696 C25.2167986,46.9292532 25.2167986,47.7066191 25.6922741,48.1935026 L25.6922741,48.1935026 L26.9122577,49.405187 L26.8790609,49.3885886 C27.1104476,49.6390358 27.4349789,49.7828259 27.775939,49.786021 C28.1168991,49.7891109 28.4440255,49.6513269 28.6799891,49.405187 L28.6799891,49.405187 L33.3441441,44.7410319 L33.4387476,44.635891 C33.6149854,44.4160939 33.7123779,44.1416795 33.7123779,43.8571663 C33.7123779,43.5252342 33.5798159,43.2070477 33.3441441,42.9733006 L33.3441441,42.9733006 Z M27.0533443,37.3297997 C26.6787671,37.3270138 26.3191887,37.4768381 26.0574393,37.7447993 L26.0574393,37.7447993 L20.2479934,43.5542452 C19.9828986,43.8145261 19.8333975,44.1703387 19.8330247,44.5418509 C19.831741,44.9185608 19.9811551,45.2801429 20.2479934,45.5460551 L20.2479934,45.5460551 L21.2273,46.5253617 C21.4911825,46.7901611 21.8493711,46.9394063 22.223205,46.9403527 L22.223205,46.9403527 L22.3618616,46.9341994 C22.682974,46.9034895 22.9845,46.7594259 23.2108108,46.5253617 L23.2108108,46.5253617 L24.4224952,45.3219765 L24.4556921,45.2804805 L29.0534535,40.6744199 C29.0856302,40.6421649 29.1135232,40.605904 29.1364455,40.5665302 C29.1713231,40.5315111 29.2019638,40.4925139 29.2277368,40.4503413 C29.2520109,40.4142671 29.2715364,40.3752161 29.2858313,40.3341523 L29.2858313,40.3341523 L29.3439257,40.2096642 C29.3854218,40.1681682 29.3854218,40.1183729 29.3854218,40.0768769 L29.3854218,40.0768769 L29.3854218,39.9523888 C29.3895404,39.9026787 29.3895404,39.8527131 29.3854218,39.803003 L29.3854218,39.803003 L29.3854218,39.6868141 C29.3891144,39.6315476 29.3891144,39.5760964 29.3854218,39.5208299 C29.3808731,39.4905695 29.3808731,39.4597991 29.3854218,39.4295386 L29.3854218,39.4295386 L29.3356265,39.2635545 L29.3356265,39.2635545 L29.3356265,39.1722632 C29.3112349,39.1180432 29.2835181,39.0653813 29.2526345,39.0145782 C29.2111384,38.9896806 29.2111384,38.9315861 29.2111384,38.9315861 C29.1547943,38.8559563 29.0938166,38.7838917 29.0285558,38.7158067 L29.0285558,38.7158067 L28.0575485,37.7447993 C27.7921645,37.4771722 27.4302368,37.3276153 27.0533443,37.3297997 Z M22.8954409,33.2134313 L22.7411844,33.2209652 C22.3838922,33.2562051 22.0478643,33.4139161 21.7916462,33.6698881 L21.7916462,33.6698881 L14.8037128,40.6578215 C14.503552,40.9564036 14.3360694,41.363147 14.3389204,41.7865138 C14.3371116,42.2023804 14.5049561,42.6010112 14.8037128,42.8903085 L14.8037128,42.8903085 L15.5838384,43.6538357 C15.8802264,43.9461009 16.2796814,44.1100563 16.6959323,44.1102921 L16.6959323,44.1102921 L16.6959323,44.0936937 C17.1073333,44.0936015 17.5016776,43.9292914 17.7914278,43.6372372 L17.7914278,43.6372372 L24.7627628,36.6493038 C25.3737371,36.0370197 25.3737371,35.0456994 24.7627628,34.4334152 L24.7627628,34.4334152 L23.9992356,33.6698881 C23.7064149,33.3773487 23.3093529,33.2131502 22.8954409,33.2134313 L22.8954409,33.2134313 Z M35.9749932,14.3991264 L35.6596233,14.3991264 C34.5305261,14.3991264 33.5426544,15.1585774 33.2528529,16.2498498 L33.2528529,16.2498498 L30.0908545,28.0513241 C29.9537188,28.5494109 30.0224994,29.081713 30.2817363,29.5285831 C30.5402477,29.9751335 30.9632343,30.3027993 31.4602239,30.441496 C33.682673,30.9995249 35.9464687,29.6912274 36.5725362,27.4869779 L36.5725362,27.4869779 L37.2115752,25.0968059 C37.3117169,24.7239906 37.6556917,24.4694492 38.041496,24.4826645 L38.041496,24.4826645 L38.1161889,24.4826645 C38.2348377,24.4883929 38.3508743,24.5195247 38.4564565,24.5739558 L38.4564565,24.5739558 L46.1332241,28.5824734 C46.2088246,28.6226518 46.2786218,28.6729058 46.3407043,28.7318591 L46.3407043,28.7318591 L55.5528256,37.968878 L60.4493584,30.2921103 L59.4866503,29.3211029 L47.245318,17.0797707 L35.9749932,14.3991264 Z M54.9884794,4.63925744 L46.0668305,13.5609064 L48.2495222,15.7352989 L60.7564292,28.2505051 L64.2669943,31.7610702 L73.180344,22.831122 L54.9884794,4.63925744 Z M20.7957412,2.56445536 L2.61217581,20.75632 L11.2682501,29.4372918 L25.2275184,15.4531259 L28.5472017,12.1334425 L29.4601147,11.2288288 L20.7957412,2.56445536 Z M64.0927109,19.3205569 C65.9261214,19.3205569 67.4123942,20.8068298 67.4123942,22.6402402 C67.4123942,24.4736507 65.9261214,25.9599236 64.0927109,25.9599236 C62.2593004,25.9599236 60.7730276,24.4736507 60.7730276,22.6402402 C60.7730276,20.8068298 62.2593004,19.3205569 64.0927109,19.3205569 Z M64.0927109,20.9803986 L64.0927109,21.0218946 C63.1919694,21.0216131 62.4553877,21.7397802 62.4328692,22.6402402 C62.4328692,23.5569455 63.1760057,24.3000819 64.0927109,24.3000819 C65.0094161,24.3000819 65.7525526,23.5569455 65.7525526,22.6402402 C65.7525526,21.723535 65.0094161,20.9803986 64.0927109,20.9803986 L64.0927109,20.9803986 Z M11.4840295,16.8888889 C13.31744,16.8888889 14.8037128,18.3751617 14.8037128,20.2085722 C14.8037128,22.0419827 13.31744,23.5282555 11.4840295,23.5282555 C9.65061901,23.5282555 8.16434616,22.0419827 8.16434616,20.2085722 C8.16434616,18.3751617 9.65061901,16.8888889 11.4840295,16.8888889 Z M11.4840295,18.5487305 C10.5673242,18.5487305 9.82418782,19.291867 9.82418782,20.2085722 C9.82418782,21.1252774 10.5673242,21.8684139 11.4840295,21.8684139 L11.4840295,21.8684139 L11.4840295,21.835217 C12.3879255,21.8353978 13.1257932,21.1122874 13.1438711,20.2085722 C13.1438711,19.291867 12.4007347,18.5487305 11.4840295,18.5487305 Z" id="Combined-Shape"></path>
            </g>
        </g>
    </g>
</svg>