<?xml version="1.0" encoding="UTF-8"?>
<svg width="170px" height="170px" viewBox="0 0 170 170" version="1.1" xmlns="http://www.w3.org/2000/svg" xmlns:xlink="http://www.w3.org/1999/xlink">
    <title>Illustrations/Dark/170px/media</title>
    <defs>
        <filter x="-31.6%" y="-31.6%" width="163.2%" height="163.2%" filterUnits="objectBoundingBox" id="filter-1">
            <feGaussianBlur stdDeviation="4" in="SourceGraphic"></feGaussianBlur>
        </filter>
        <filter x="-240.0%" y="-28.6%" width="580.0%" height="157.1%" filterUnits="objectBoundingBox" id="filter-2">
            <feGaussianBlur stdDeviation="4" in="SourceGraphic"></feGaussianBlur>
        </filter>
        <filter x="-48.0%" y="-600.0%" width="196.0%" height="1300.0%" filterUnits="objectBoundingBox" id="filter-3">
            <feGaussianBlur stdDeviation="4" in="SourceGraphic"></feGaussianBlur>
        </filter>
    </defs>
    <g id="Illustrations/Dark/170px/media" stroke="none" stroke-width="1" fill="none" fill-rule="evenodd">
        <circle id="Oval" stroke="#414D86" stroke-width="2" cx="85" cy="85" r="84"></circle>
        <g id="undraw_cancel_u1it" transform="translate(7.000000, 5.000000)">
            <circle id="Oval" fill="#FF6E61" filter="url(#filter-1)" cx="24.5814755" cy="22.131728" r="19"></circle>
            <circle id="Oval" fill="#FF6E61" cx="24.5814755" cy="22.131728" r="19"></circle>
            <circle id="Oval" stroke="#6C78B4" stroke-width="2" cx="19.631728" cy="19.2530483" r="19"></circle>
            <text id="2" font-family="Montserrat-SemiBold, Montserrat" font-size="20" font-weight="500" fill="#121424">
                <tspan x="14" y="26">2</tspan>
            </text>
        </g>
        <path d="M65.1,49.2088353 L90,49.2088353 L90,60.4538153 C90,61.0562249 90.5,61.5582329 91.1,61.5582329 L102.7,61.5582329 L102.7,76.2168675 L72.9,76.2168675 C72.3,76.2168675 71.8,76.7188755 71.8,77.3212851 L71.8,88.6666667 C71.8,88.7670683 71.8,88.9678715 71.9,89.0682731 L65.1,89.0682731 L65.1,49.2088353 Z" id="Path" fill="#6F7CBD" fill-rule="nonzero"></path>
        <rect id="Rectangle" fill="#FF6E61" filter="url(#filter-2)" x="60" y="49" width="5" height="42" rx="1"></rect>
        <rect id="Rectangle" fill="#FF6E61" x="60" y="49" width="5" height="42"></rect>
        <rect id="Rectangle" fill="#FF6E61" filter="url(#filter-3)" x="42" y="121" width="25" height="2" rx="1"></rect>
        <rect id="Rectangle" fill="#FF6E61" x="42" y="121" width="25" height="2"></rect>
        <path d="M94.6,107.240964 C94.8,107.341365 95,107.341365 95.1,107.341365 C95.3,107.341365 95.5,107.240964 95.7,107.140562 L104.4,101.919679 C104.7,101.718876 104.9,101.317269 104.9,101.016064 C104.9,100.614458 104.7,100.313253 104.4,100.11245 L95.7,94.8915663 C95.4,94.6907631 94.9,94.6907631 94.6,94.8915663 C94.3,95.0923695 94,95.4939759 94,95.7951807 L94,106.236948 C94,106.738956 94.2,107.040161 94.6,107.240964 Z M96.2,97.8032129 L101.7,101.116466 L96.2,104.429719 L96.2,97.8032129 L96.2,97.8032129 Z M72.9,61.5582329 L83.7,61.5582329 C84.3,61.5582329 84.8,61.0562249 84.8,60.4538153 C84.8,59.8514056 84.3,59.3493976 83.7,59.3493976 L72.9,59.3493976 C72.3,59.3493976 71.8,59.8514056 71.8,60.4538153 C71.8,61.1566265 72.3,61.5582329 72.9,61.5582329 Z M72.9,70.3935743 L94.1,70.3935743 C94.7,70.3935743 95.2,69.8915663 95.2,69.2891566 C95.2,68.686747 94.7,68.184739 94.1,68.184739 L72.9,68.184739 C72.3,68.184739 71.8,68.686747 71.8,69.2891566 C71.8,69.8915663 72.3,70.3935743 72.9,70.3935743 Z M57.5,104.931727 C60.2,104.931727 62.3,102.722892 62.3,100.11245 C62.3,97.4016064 60.1,95.2931727 57.5,95.2931727 C54.9,95.2931727 52.7,97.502008 52.7,100.11245 C52.7,102.722892 54.9,104.931727 57.5,104.931727 Z M57.5,97.4016064 C59,97.4016064 60.2,98.6064257 60.2,100.11245 C60.2,101.618474 59,102.823293 57.5,102.823293 C56,102.823293 54.8,101.618474 54.8,100.11245 C54.9,98.6064257 56.1,97.4016064 57.5,97.4016064 Z M124,76.2168675 L104.9,76.2168675 L104.9,60.253012 C104.9,59.9518072 104.8,59.6506024 104.6,59.4497992 L92.2,47.3012048 C92,47.1004016 91.7,47 91.4,47 L64,47 C63.4,47 62.9,47.502008 62.9,48.1044177 L62.9,89.0682731 L46.1,89.0682731 C45.5,89.0682731 45,89.5702811 45,90.1726908 L45,120.895582 C45,121.497992 45.5,122 46.1,122 L83.6,122 C84.2,122 84.7,121.497992 84.7,120.895582 L84.7,117.281124 L123.9,117.281124 C124.5,117.281124 125,116.779116 125,116.176707 L125,77.3212851 C125,76.7188755 124.6,76.2168675 124,76.2168675 Z M92.2,50.4136546 L101.4,59.4497992 L92.2,59.4497992 L92.2,50.4136546 L92.2,50.4136546 Z M65.1,49.2088353 L90,49.2088353 L90,60.4538153 C90,61.0562249 90.5,61.5582329 91.1,61.5582329 L102.7,61.5582329 L102.7,76.2168675 L72.9,76.2168675 C72.3,76.2168675 71.8,76.7188755 71.8,77.3212851 L71.8,88.6666667 C71.8,88.7670683 71.8,88.9678715 71.9,89.0682731 L65.1,89.0682731 L65.1,49.2088353 Z M82.6,119.891566 L47.2,119.891566 L47.2,118.184739 L54.8,110.554217 L58.7,114.46988 C59.1,114.871486 59.8,114.871486 60.2,114.46988 L72.6,102.02008 L82.6,112.060241 L82.6,119.891566 Z M82.6,108.947791 L73.4,99.7108434 C73,99.3092369 72.3,99.3092369 71.9,99.7108434 L59.5,112.160643 L55.6,108.24498 C55.2,107.843373 54.5,107.843373 54.1,108.24498 L47.3,115.072289 L47.3,91.2771084 L82.6,91.2771084 L82.6,108.947791 Z M122.9,115.172691 L84.7,115.172691 L84.7,90.1726908 C84.7,89.5702811 84.2,89.0682731 83.6,89.0682731 L73.9,89.0682731 C73.9,88.9678715 74,88.7670683 74,88.6666667 L74,86.0562249 L122.9,86.0562249 L122.9,115.172691 Z M122.9,83.9477912 L74,83.9477912 L74,78.4257028 L122.9,78.4257028 L122.9,83.9477912 Z" id="Shape" fill="#414D86" fill-rule="nonzero"></path>
    </g>
</svg>