<?xml version="1.0" encoding="UTF-8"?>
<svg width="100px" height="100px" viewBox="0 0 100 100" version="1.1" xmlns="http://www.w3.org/2000/svg" xmlns:xlink="http://www.w3.org/1999/xlink">
    <title>Illustrations/Dark/100px/moodboard</title>
    <defs>
        <filter x="-92.3%" y="-96.0%" width="284.6%" height="292.0%" filterUnits="objectBoundingBox" id="filter-1">
            <feGaussianBlur stdDeviation="8" in="SourceGraphic"></feGaussianBlur>
        </filter>
        <filter x="-1199.3%" y="-29.3%" width="2498.5%" height="158.5%" filterUnits="objectBoundingBox" id="filter-2">
            <feGaussianBlur stdDeviation="4" in="SourceGraphic"></feGaussianBlur>
        </filter>
    </defs>
    <g id="Illustrations/Dark/100px/moodboard" stroke="none" stroke-width="1" fill="none" fill-rule="evenodd">
        <path d="M43.4628469,53.1483616 C43.4211712,52.7875607 43.0983061,52.5292467 42.7418079,52.5714871 C42.739919,52.5717337 42.7380912,52.5719187 42.7362023,52.5721654 L37.1469614,53.2378373 L20.6391635,55.2032188 C20.2857118,55.2438559 20.0302346,55.5645747 20.0659393,55.9227858 L22.0156816,76.9710282 C22.047304,77.3099381 22.3292245,77.5684371 22.665616,77.5669634 L22.7397062,77.5669634 L45.4866794,74.9359037 C45.8432995,74.8945266 46.0992032,74.5683813 46.0583195,74.207457 C46.0580149,74.2046821 46.0577102,74.2019689 46.0573446,74.1991939 L43.4628469,53.1483616 Z" id="Path" fill="#8DA4FA" fill-rule="nonzero" opacity="0.783551897" filter="url(#filter-1)"></path>
        <g id="presentation-deck" transform="translate(21.000000, 11.389706)">
            <polygon id="blur" fill="#8DA4FA" filter="url(#filter-2)" transform="translate(33.500000, 61.110294) rotate(90.000000) translate(-33.500000, -61.110294) " points="33.0073529 40.6102941 33.9926471 40.6102941 33.9926471 81.6102941 33.0073529 81.6102941"></polygon>
            <path d="M8.5,6.11029412 L53.5,6.11029412 C54.0522847,6.11029412 54.5,6.55800937 54.5,7.11029412 L54.5,67.1102941 C54.5,67.6625789 54.0522847,68.1102941 53.5,68.1102941 L8.5,68.1102941 C7.94771525,68.1102941 7.5,67.6625789 7.5,67.1102941 L7.5,7.11029412 C7.5,6.55800937 7.94771525,6.11029412 8.5,6.11029412 Z" id="board" stroke="#8DA4FA" stroke-width="2" transform="translate(31.000000, 37.110294) rotate(90.000000) translate(-31.000000, -37.110294) "></path>
            <g id="Illustrations/48px/image" transform="translate(49.500000, 17.110294) rotate(17.000000) translate(-49.500000, -17.110294) translate(33.000000, 4.610294)">
                <g id="Group-2" transform="translate(0.551073, 0.718434)">
                    <g id="Group">
                        <rect id="Rectangle" fill="#879DEF" x="3.50326797" y="3.37815126" width="28.0261438" height="20.2689076"></rect>
                        <rect id="Rectangle" stroke="#404B8A" x="0.5" y="0.5" width="29.3616558" height="21.5210084"></rect>
                    </g>
                    <g id="Group" transform="translate(7.006536, 5.630252)" fill="#404B8A" fill-rule="nonzero" stroke="#434F8E" stroke-width="0.3">
                        <g id="Group-3" transform="translate(0.015824, 0.037513)">
                            <path d="M6.6457377,0.163782204 C7.69314591,0.163782204 8.54904118,1.031271 8.54904118,2.092864 C8.54904118,3.154457 7.69314591,4.02194579 6.6457377,4.02194579 C5.59832949,4.02194579 4.74243421,3.154457 4.74243421,2.092864 C4.74243421,1.031271 5.59832949,0.163782204 6.6457377,0.163782204 Z M6.6457377,0.935414921 C6.01165671,0.935414921 5.50375561,1.45019618 5.50375561,2.092864 C5.50375561,2.73553181 6.01165671,3.25031307 6.6457377,3.25031307 C7.27981868,3.25031307 7.78771979,2.73553181 7.78771979,2.092864 C7.78771979,1.45019618 7.27981868,0.935414921 6.6457377,0.935414921 Z" id="Path-2"></path>
                            <path d="M9.79741166,4.79655803 C9.7259414,4.80413488 9.65738315,4.8359706 9.60612909,4.88538627 L6.5154054,7.91541628 L5.2166974,6.77051895 C5.14690785,6.70836381 5.04830108,6.67861891 4.9549423,6.69156051 C4.89159273,6.70043544 4.83114776,6.72832008 4.78379473,6.77051895 L0.273552992,10.8763577 C0.148500741,10.9897515 0.140606851,11.2048336 0.257022956,11.3267451 C0.373439061,11.4486566 0.592872952,11.4551003 0.716523163,11.3402375 L5.01534732,7.43179491 L8.01546348,10.0769025 C8.13140375,10.2213232 8.38397729,10.2290627 8.50889165,10.0920215 C8.6338057,9.95498377 8.59767125,9.70979508 8.43829864,9.61302267 L6.99864558,8.33981788 L9.84774918,5.54666318 L16.3815592,11.6560722 C16.5052094,11.770934 16.7246433,11.7644904 16.8410594,11.6425798 C16.9574755,11.5206674 16.9495816,11.3055852 16.8245294,11.1921914 L10.0591668,4.87551646 C9.98937721,4.81336133 9.89077044,4.78361642 9.79741166,4.79655803 Z" id="Path"></path>
                        </g>
                    </g>
                </g>
            </g>
            <g id="Illustrations/48px/image" transform="translate(14.271587, 27.061130) rotate(-9.000000) translate(-14.271587, -27.061130) translate(5.271587, 20.061130)">
                <g id="Group-2" transform="translate(0.717910, 0.584291)">
                    <g id="Group">
                        <rect id="Rectangle" fill="#879DEF" x="1.86111111" y="1.82983193" width="14.8888889" height="10.9789916"></rect>
                        <rect id="Rectangle" stroke="#404B8A" x="0.5" y="0.5" width="15.1296296" height="11.1988796"></rect>
                    </g>
                    <g id="Group" transform="translate(3.722222, 3.049720)" fill="#404B8A" fill-rule="nonzero" stroke="#434F8E" stroke-width="0.3">
                        <g id="Group-3" transform="translate(0.008407, 0.020320)">
                            <path d="M3.53054815,0.0887153602 C4.08698376,0.0887153602 4.54167813,0.558605122 4.54167813,1.13363466 C4.54167813,1.70866421 4.08698376,2.17855397 3.53054815,2.17855397 C2.97411254,2.17855397 2.51941818,1.70866421 2.51941818,1.13363466 C2.51941818,0.558605122 2.97411254,0.0887153602 3.53054815,0.0887153602 Z M3.53054815,0.506683082 C3.19369263,0.506683082 2.92387017,0.785522933 2.92387017,1.13363466 C2.92387017,1.4817464 3.19369263,1.76058625 3.53054815,1.76058625 C3.86740368,1.76058625 4.13722614,1.4817464 4.13722614,1.13363466 C4.13722614,0.785522933 3.86740368,0.506683082 3.53054815,0.506683082 Z" id="Path-2"></path>
                            <path d="M5.20487495,2.5981356 C5.16690637,2.60223973 5.1304848,2.61948408 5.10325608,2.64625089 L3.46130912,4.28751715 L2.77137049,3.66736443 C2.73429479,3.63369707 2.68190995,3.61758524 2.63231309,3.62459528 C2.59865864,3.62940253 2.56654725,3.64450671 2.54139095,3.66736443 L0.145325027,5.8913604 C0.0788910186,5.95278204 0.0746973898,6.06928487 0.136543445,6.13532027 C0.198389501,6.20135567 0.314963756,6.20484598 0.38065293,6.14262866 L2.66440326,4.02555558 L4.25821497,5.45832221 C4.31980824,5.53655007 4.45398793,5.5407423 4.52034869,5.46651165 C4.58670928,5.39228287 4.56751285,5.25947234 4.48284615,5.20705395 L3.71803047,4.51740135 L5.23161675,3.00444255 L8.70270332,6.31370579 C8.7683925,6.37592259 8.88496675,6.37243228 8.94681281,6.3063974 C9.00865886,6.24036148 9.00446524,6.12385865 8.93803123,6.06243701 L5.34393234,2.64090475 C5.30685665,2.60723739 5.2544718,2.59112556 5.20487495,2.5981356 Z" id="Path"></path>
                        </g>
                    </g>
                </g>
            </g>
        </g>
        <g id="Group" transform="translate(56.000000, 46.000000)" fill-rule="nonzero">
            <path d="M9.50005687,2 C13.6355514,2 17,5.36447039 17,9.5 C17,13.6355296 13.6355538,17 9.50005687,17 C5.36455993,17 2,13.6355296 2,9.5 C2,5.36447039 5.3645623,2 9.50005687,2 Z M6.9748141,11.6224928 C6.90342454,11.6224928 6.83157292,11.6280472 6.75960518,11.6396182 C6.40161716,11.6963142 6.0872491,11.8888473 5.87423682,12.182275 C5.66110843,12.4754704 5.57502487,12.8339257 5.6317204,13.1919166 C5.68841594,13.5499074 5.88117981,13.8643941 6.17437294,14.0775218 C6.46756606,14.2901874 6.82601853,14.3774281 7.18412266,14.3198079 C7.54211305,14.2631119 7.85659484,14.0703465 8.06960712,13.7771511 C8.50939918,13.172014 8.37471944,12.3218136 7.76947101,11.8819043 C7.53517006,11.7118163 7.2589837,11.6224928 6.9748141,11.6224928 Z M12.0251835,11.6224928 C11.7410139,11.6224928 11.4649437,11.7118187 11.2306427,11.8819043 C10.9373335,12.095032 10.7446857,12.4095187 10.6879902,12.7675095 C10.6312947,13.1255003 10.7173782,13.4839533 10.9303905,13.7771511 C11.1434028,14.0703489 11.4578869,14.2631119 11.815875,14.3198079 C12.1736331,14.3771982 12.5324316,14.2901874 12.8256247,14.0775218 C13.1188202,13.8643941 13.3115817,13.5499074 13.3682772,13.1919166 C13.4249728,12.8339257 13.3388892,12.4754704 13.1257608,12.182275 C12.9127485,11.8890772 12.5983805,11.6963142 12.2403925,11.6396182 C12.1685408,11.6280472 12.0965731,11.6224928 12.0251835,11.6224928 Z M9.47344603,8.60930244 C8.9704799,8.60930244 8.56123462,9.01843484 8.56123462,9.52152106 C8.56123462,10.0246073 8.9704799,10.4337397 9.47344603,10.4337397 C9.97641217,10.4337397 10.3856574,10.0246073 10.3856574,9.52152106 C10.3856574,9.01843484 9.97641217,8.60930244 9.47344603,8.60930244 Z M14.8809931,7.75146467 C14.6499314,7.0403431 13.8824683,6.64926025 13.1713499,6.88043749 C12.4597695,7.11161711 12.0690357,7.87874036 12.3002135,8.59032638 C12.4122136,8.93489559 12.651723,9.2153637 12.9746525,9.37989721 C13.297582,9.54466059 13.665058,9.57335692 14.0098567,9.46135356 C14.3545393,9.34935257 14.6350052,9.1098413 14.7995374,8.78702537 C14.9640696,8.46397722 14.9929956,8.09626611 14.8809931,7.75146467 Z M5.82876618,6.88043749 C5.11683982,6.6487958 4.34995248,7.04011088 4.11900691,7.75146467 C4.00700444,8.09626611 4.0359304,8.46397722 4.20046261,8.78702537 C4.36499483,9.1098413 4.64546072,9.3493502 4.99014333,9.46135356 C5.70137539,9.6927654 6.4687248,9.30168254 6.69990259,8.59032638 C6.93108038,7.87874036 6.54023047,7.11161711 5.82876618,6.88043749 Z M9.50005687,3.8420247 C8.7519156,3.8420247 8.14319568,4.45086316 8.14319568,5.19901271 C8.14319568,5.94716226 8.7519156,6.55577088 9.50005687,6.55577088 C10.2481981,6.55577088 10.8569181,5.94715989 10.8569181,5.19901271 C10.8569181,4.45086553 10.2482005,3.8420247 9.50005687,3.8420247 Z" id="Path-3" fill="#879DEF"></path>
            <path d="M9.00005825,2 C4.58880598,2 1,5.58883211 1,10 C1,14.4111679 4.58880598,18 9.00005825,18 C13.411194,18 17,14.4111679 17,10 C17,5.58883211 13.411194,2 9.00005825,2 Z M9.00005825,17.5245226 C4.85103699,17.5245226 1.47547394,14.1490515 1.47547394,10 C1.47547394,5.85094853 4.85103936,2.4754774 9.00005825,2.4754774 C13.1490771,2.4754774 16.5245284,5.85094853 16.5245284,10 C16.5245284,14.1490515 13.1490795,17.5245226 9.00005825,17.5245226 Z" id="Shape" fill="#879DEF"></path>
            <path d="M9,5 C9.55137817,5 10,5.44870876 10,6.0000847 C10,6.55146064 9.55137642,7 9,7 C8.44862358,7 8,6.55146239 8,6.0000847 C8,5.44870701 8.44862358,5 9,5 Z" id="Shape" fill="#414D86"></path>
            <path d="M5.69127355,8.95092076 C5.43731786,8.8683898 5.23067585,8.69190494 5.10945159,8.45403434 C4.98822733,8.21599263 4.96691523,7.9450405 5.04943656,7.69096963 C5.21959292,7.16680047 5.78462115,6.87845549 6.30915516,7.04914332 C6.83334872,7.21949065 7.12131962,7.78475417 6.95099215,8.30909444 C6.78066469,8.83326535 6.21529601,9.12143921 5.69127355,8.95092076 Z" id="Shape" fill="#414D86"></path>
            <path d="M7.80935197,13.5874238 C7.65235384,13.8034327 7.42056883,13.9454507 7.15671633,13.987221 C6.89278,14.0296721 6.62858693,13.9653984 6.41249248,13.808719 C6.19639803,13.6516992 6.05432374,13.4200042 6.01253698,13.1562579 C5.97075022,12.8925116 6.03419707,12.6284231 6.19128078,12.4124142 C6.34827891,12.1962341 6.57998009,12.0543872 6.84383084,12.012617 C6.8968738,12.0040922 6.94983117,12 7.00244798,12 C7.21189176,12 7.41545159,12.0658083 7.58814027,12.1911189 C8.03423132,12.5152178 8.1334954,13.1415948 7.80935197,13.5874238 Z" id="Shape" fill="#414D86"></path>
            <path d="M12.9874665,13.1562956 C12.9456911,13.4200505 12.8036575,13.6517531 12.5876205,13.808778 C12.3715852,13.9654625 12.1072096,14.0295689 11.8436004,13.9872858 C11.579822,13.9455142 11.3480987,13.8034933 11.1911435,13.5874756 C11.0341884,13.3714579 10.9707589,13.1073625 11.0125342,12.8436076 C11.0543096,12.5798526 11.1962594,12.3481501 11.4123802,12.1911252 C11.5850216,12.0658122 11.7884401,12 11.9978265,12 C12.0504289,12 12.1034574,12.0040923 12.1564002,12.0126174 C12.4201787,12.054389 12.6518165,12.1964099 12.8087716,12.4124276 C12.9658123,12.6284436 13.0292418,12.8925407 12.9874665,13.1562956 Z" id="Shape" fill="#414D86"></path>
            <path d="M13.9505615,7.69073211 C14.0330861,7.94476914 14.0117731,8.21568517 13.8905442,8.45369518 C13.7693152,8.69153409 13.5626651,8.86799719 13.3086996,8.9505154 C13.0546485,9.03303536 12.7838886,9.01189296 12.5459509,8.89050136 C12.3080133,8.76927911 12.1315404,8.56264052 12.0490176,8.30877459 C11.8786835,7.78450416 12.1665801,7.21931594 12.6908795,7.04899129 C13.2148386,6.8786684 13.780313,7.16680387 13.9505615,7.69073211 Z" id="Shape" fill="#414D86"></path>
            <path d="M9.5,0 C4.26166491,0 0,4.26178075 0,9.5 C0,13.704434 2.74655722,17.2775312 6.53897669,18.525 L0.23750003,18.525 C0.106340638,18.525 0,18.6312266 0,18.7625 C0,18.8937734 0.106340638,19 0.23750003,19 L9.27026978,19 C9.27937316,19 9.28708479,18.9958247 9.29591266,18.9948249 C9.36401342,18.9962736 9.43156555,19 9.5,19 C14.7383351,19 19,14.7382192 19,9.5 C19,4.26178075 14.7383398,0 9.5,0 Z M9.50000119,18.525 C4.52363457,18.525 0.475000059,14.476366 0.475000059,9.5 C0.475000059,4.523634 4.52363457,0.475 9.50000119,0.475 C14.4763678,0.475 18.5250023,4.523634 18.5250023,9.5 C18.5250023,14.476366 14.4763702,18.525 9.50000119,18.525 Z" id="Shape" stroke="#414D86" stroke-width="0.6" fill="#414D86"></path>
            <path d="M9,11 C8.44862986,11 8,10.5514974 8,10 C8,9.44850258 8.44862986,9 9,9 C9.55137014,9 10,9.44850258 10,10 C10,10.5514974 9.55137014,11 9,11 Z" id="Shape" fill="#414D86"></path>
        </g>
        <g id="post-it" transform="translate(33.000000, 65.000000) rotate(-12.000000) translate(-33.000000, -65.000000) translate(16.000000, 51.000000)">
            <path d="M24.2042813,22.991959 L16.3099071,3.41803007 C16.2226164,3.20250002 16.0218961,3.05125606 15.7870685,3.02402623 L3.55266893,1.61215937 C3.20543792,1.56432958 2.8844062,1.8015843 2.83562966,2.1420756 C2.83454305,2.14977099 2.83357718,2.15752557 2.83273204,2.16528016 L0.257113454,22.3706452 C0.21105343,22.7164049 0.459524018,23.0333957 0.812127688,23.0785617 C0.817258883,23.0792128 0.822450445,23.0798048 0.827581641,23.0803375 L23.3645763,25.606029 L23.4379826,25.606029 C23.7712688,25.6074436 24.0505869,25.359297 24.0819174,25.0339597 L24.2493151,23.2824302 C24.2578872,23.1834557 24.2424333,23.0839484 24.2042813,22.991959 Z" id="Path" fill="#414D86" fill-rule="nonzero"></path>
            <path d="M30.5809903,2.86164689 C30.5393145,2.50084595 30.2164494,2.24253197 29.8599512,2.28477238 C29.8580624,2.28501904 29.8562345,2.28520403 29.8543457,2.28545069 L24.2651047,2.95112256 L7.75730689,4.91650412 C7.40385517,4.95714124 7.148378,5.27786004 7.18408266,5.63607105 L9.13382496,26.6843135 C9.16544734,27.0232234 9.44736789,27.2817224 9.78375937,27.2802487 L9.85784958,27.2802487 L32.6048228,24.649189 C32.9614428,24.6078119 33.2173465,24.2816666 33.1764629,23.9207423 C33.1761582,23.9179674 33.1758536,23.9152542 33.175488,23.9124792 L30.5809903,2.86164689 Z" id="Path-5" fill="#8DA4FA" fill-rule="nonzero"></path>
            <path d="M19.9570771,6.30178725 C19.6420757,6.3023744 19.3862674,6.04742975 19.3856783,5.73243836 C19.3854118,5.58058374 19.4457278,5.43487817 19.5532593,5.32761748 L22.4050623,2.47590541 C22.6239217,2.24935329 22.9849623,2.24304384 23.2115751,2.46189628 C23.4381344,2.68074873 23.4443906,3.04177773 23.2255846,3.26838332 C23.2209861,3.27314214 23.2163341,3.27779403 23.2115751,3.28239244 L20.3597721,6.13410451 C20.2530961,6.24109785 20.1082415,6.30141194 19.9570771,6.30178725 Z" id="Path" fill="#455A64" fill-rule="nonzero"></path>
            <circle id="Oval-Copy" fill="#414D86" fill-rule="nonzero" cx="23.5114865" cy="2.10480175" r="2"></circle>
            <path d="M8.74476434,24.9651263 L8.67043344,24.9651263 L1.786563,24.1651015 C1.43455782,24.1270488 1.17947726,23.8056807 1.21685302,23.4473 C1.21739383,23.4420387 1.21799472,23.4368386 1.21865571,23.4316384 L3.78250085,2.54950582 C3.81723267,2.1966311 4.12639393,1.93925524 4.47299104,1.97461612 C4.48170404,1.97553379 4.49041703,1.97657382 4.49913003,1.97785856 L16.6773194,3.43701512 C17.0265003,3.49617425 17.2625325,3.8322862 17.2044258,4.18779158 C17.1502249,4.51968224 16.8569874,4.75521756 16.5273356,4.73166403 L4.98104904,3.35479188 L2.57620111,22.9395838 L8.81657147,23.6652161 C9.17055961,23.6854048 9.44144375,23.9939255 9.42161417,24.3543251 C9.40178458,24.7147247 9.09875247,24.9905151 8.74476434,24.9703264 L8.74476434,24.9651263 Z" id="Path" fill-rule="nonzero"></path>
            <path d="M19.9570771,6.30178725 C19.6420757,6.3023744 19.3862674,6.04742975 19.3856783,5.73243836 C19.3854118,5.58058374 19.4457278,5.43487817 19.5532593,5.32761748 L22.4050623,2.47590541 C22.6239217,2.24935329 22.9849623,2.24304384 23.2115751,2.46189628 C23.4381344,2.68074873 23.4443906,3.04177773 23.2255846,3.26838332 C23.2209861,3.27314214 23.2163341,3.27779403 23.2115751,3.28239244 L20.3597721,6.13410451 C20.2530961,6.24109785 20.1082415,6.30141194 19.9570771,6.30178725 Z" id="Path" fill="#414D86" fill-rule="nonzero"></path>
            <path d="M9.78323861,27.2802487 C9.44691443,27.2817224 9.16505028,27.0232235 9.13343423,26.6843137 L7.18408199,5.63607798 C7.14838448,5.27786708 7.40381054,4.95714838 7.75719155,4.91651127 L24.2616868,2.95113034 C24.615677,2.89150047 24.9504173,3.13371986 25.0092634,3.49205409 C25.0681704,3.85038831 24.8288874,4.18923646 24.4748972,4.24880467 C24.4546118,4.25219624 24.4342045,4.25466283 24.4137363,4.25608112 L8.53949097,6.15171914 L10.3679834,25.8923525 L31.7991618,23.4126253 L29.3611923,3.67328697 L28.2110745,3.80481802 C27.8570843,3.86444789 27.522344,3.62222851 27.4634979,3.26389428 C27.4045909,2.90556005 27.6438739,2.5667119 27.9978641,2.50714369 C28.0181495,2.50375212 28.0385568,2.50128553 28.059025,2.49986724 L29.8498096,2.28545868 C30.205871,2.24013505 30.5308036,2.4955507 30.5755778,2.85598154 C30.5758215,2.85789315 30.5760651,2.85974309 30.5762479,2.8616547 L33.1754654,23.9098904 C33.2208488,24.2702596 32.9690778,24.5996113 32.6130773,24.6455516 C32.610336,24.6459216 32.6076557,24.6462299 32.6049144,24.6465382 L9.86249196,27.2775908 L9.78323861,27.2802487 Z" id="Path" fill-rule="nonzero"></path>
            <line x1="10.9491196" y1="12.3057398" x2="28.9114733" y2="9.9919011" id="Line-5" stroke="#414D86" stroke-linecap="round"></line>
            <line x1="11.3211027" y1="15.5419943" x2="23.3835916" y2="13.9620066" id="Line-5-Copy" stroke="#414D86" stroke-linecap="round"></line>
        </g>
    </g>
</svg>