<?xml version="1.0" encoding="UTF-8"?>
<svg width="248px" height="237px" viewBox="0 0 248 237" version="1.1" xmlns="http://www.w3.org/2000/svg" xmlns:xlink="http://www.w3.org/1999/xlink">
    <title>no-sats-promo__dark</title>
    <defs>
        <filter x="-117.0%" y="-110.3%" width="334.1%" height="320.5%" filterUnits="objectBoundingBox" id="filter-1">
            <feGaussianBlur stdDeviation="7" in="SourceGraphic"></feGaussianBlur>
        </filter>
        <rect id="path-2" x="0" y="0" width="65" height="49" rx="2"></rect>
        <filter x="-126.1%" y="-124.1%" width="352.2%" height="348.3%" filterUnits="objectBoundingBox" id="filter-4">
            <feGaussianBlur stdDeviation="3" in="SourceGraphic"></feGaussianBlur>
        </filter>
        <filter x="-222.6%" y="-143.3%" width="545.1%" height="386.5%" filterUnits="objectBoundingBox" id="filter-5">
            <feGaussianBlur stdDeviation="3" in="SourceGraphic"></feGaussianBlur>
        </filter>
        <filter x="-222.6%" y="-143.3%" width="545.1%" height="386.5%" filterUnits="objectBoundingBox" id="filter-6">
            <feGaussianBlur stdDeviation="3" in="SourceGraphic"></feGaussianBlur>
        </filter>
        <filter x="-222.6%" y="-143.3%" width="545.1%" height="386.5%" filterUnits="objectBoundingBox" id="filter-7">
            <feGaussianBlur stdDeviation="3" in="SourceGraphic"></feGaussianBlur>
        </filter>
    </defs>
    <g id="illustrations" stroke="none" stroke-width="1" fill="none" fill-rule="evenodd">
        <g id="no-sats-promo__dark" transform="translate(1.000000, 21.000000)">
            <rect id="Rectangle" x="0" y="1" width="247" height="215"></rect>
            <g id="Group-7" transform="translate(86.000000, 94.500000) scale(-1, 1) translate(-86.000000, -94.500000) ">
                <g id="undraw_media_player_ylg8">
                    <polygon id="Triangle" fill="#FF6E61" filter="url(#filter-1)" transform="translate(135.361857, 9.959449) rotate(-90.000000) translate(-135.361857, -9.959449) " points="143.80569 18.8920851 126.389635 19.4811884 144.334079 0.437710113"></polygon>
                    <polygon id="Triangle" fill="#FF6E61" transform="translate(135.361857, 9.959449) rotate(-90.000000) translate(-135.361857, -9.959449) " points="143.80569 18.8920851 126.389635 19.4811884 144.334079 0.437710113"></polygon>
                    <path d="M142.864729,1.05555556 C143.968689,1.05711899 144.863866,1.95159727 144.866292,3.05555494 L144.889219,32.6165556 L108.913043,32.6166667 C107.858682,32.6166667 106.994878,33.4325445 106.918529,34.4674043 L106.913043,34.6166667 L106.913043,79.3833333 C106.913043,80.4879028 107.808474,81.3833333 108.913043,81.3833333 L108.913043,81.3833333 L144.927219,81.3825556 L145,174.166667 L2.0232194,174.166667 C0.918649897,174.166667 0.023219397,173.271236 0.023219397,172.166667 L0.023219397,3.05555556 C0.023219397,1.95098606 0.918649897,1.05555556 2.0232194,1.05555556 L142.864729,1.05555556 Z" id="Rectangle-2" stroke="#414D86"></path>
                    <g id="attach_money-24px" transform="translate(121.691738, 174.113636) scale(-1, 1) translate(-121.691738, -174.113636) translate(116.401883, 165.141414)"></g>
                    <ellipse id="Oval" fill="#121424" cx="121.724638" cy="174.166667" rx="13.7536232" ry="13.7222222"></ellipse>
                    <path d="M122.118662,158.333333 C130.665567,158.333333 137.594203,165.192067 137.594203,173.652744 C137.594203,177.715704 135.963749,181.612256 133.061522,184.485203 C130.159295,187.358149 126.223031,188.972154 122.118662,188.972154 C113.571757,188.972154 106.643121,182.11342 106.643121,173.652744 C106.643121,165.192067 113.571757,158.333333 122.118662,158.333333 Z M122.118662,161.502867 C115.340082,161.502867 109.844957,166.942552 109.844957,173.652744 C109.844957,180.362936 115.340082,185.802621 122.118662,185.802621 C125.373851,185.802621 128.495716,184.522548 130.797482,182.244004 C133.099248,179.96546 134.392367,176.875091 134.392367,173.652744 C134.392367,166.942552 128.897242,161.502867 122.118662,161.502867 Z" id="Path-3" fill="#6F7CBD" fill-rule="nonzero"></path>
                    <path d="M122.604623,173.285354 C120.597747,172.793687 119.952364,172.285354 119.952364,171.493687 C119.952364,170.585354 120.845291,169.95202 122.339397,169.95202 C123.913071,169.95202 124.496568,170.660354 124.549613,171.70202 L126.503444,171.70202 C126.441558,170.268687 125.513268,168.95202 123.665527,168.52702 L123.665527,166.70202 L121.013268,166.70202 L121.013268,168.50202 C119.29814,168.85202 117.918965,169.90202 117.918965,171.510354 C117.918965,173.435354 119.60757,174.393687 122.074171,174.95202 C124.284387,175.45202 124.726431,176.185354 124.726431,176.960354 C124.726431,177.535354 124.293228,178.45202 122.339397,178.45202 C120.518179,178.45202 119.802069,177.685354 119.70482,176.70202 L117.759829,176.70202 C117.86592,178.52702 119.315822,179.55202 121.013268,179.893687 L121.013268,181.70202 L123.665527,181.70202 L123.665527,179.910354 C125.389495,179.60202 126.759829,178.660354 126.759829,176.95202 C126.759829,174.585354 124.611499,173.77702 122.604623,173.285354 Z" id="Path" fill="#717CBB" fill-rule="nonzero" transform="translate(122.259829, 174.202020) scale(-1, 1) translate(-122.259829, -174.202020) "></path>
                    <line x1="8.52173913" y1="18.4722222" x2="82.5797101" y2="18.4722222" id="Line" stroke="#414D86" stroke-linecap="round"></line>
                    <line x1="8.52173913" y1="28.5" x2="82.5797101" y2="28.5" id="Line-Copy" stroke="#414D86" stroke-linecap="round"></line>
                    <line x1="8.52173913" y1="38.5277778" x2="82.4708974" y2="38.5277778" id="Line-Copy-2" stroke="#414D86" stroke-linecap="round"></line>
                    <line x1="8.52173913" y1="48.5555556" x2="82.5797101" y2="48.5555556" id="Line-Copy-3" stroke="#414D86" stroke-linecap="round"></line>
                    <line x1="8.02500884" y1="58.5833333" x2="83.1086957" y2="58.5833333" id="Line-Copy-4" stroke="#414D86" stroke-linecap="round"></line>
                    <line x1="8.52173913" y1="68.6111111" x2="68.826087" y2="68.6111111" id="Line-Copy-5" stroke="#414D86" stroke-linecap="round"></line>
                </g>
                <g id="Rectangle-2-Copy" transform="translate(107.000000, 33.000000)">
                    <mask id="mask-3" fill="white">
                        <use xlink:href="#path-2"></use>
                    </mask>
                    <use id="Rectangle" stroke="#414D86" stroke-width="0.8" xlink:href="#path-2"></use>
                    <g id="Group" transform="translate(15.725806, 12.782609)">
                        <g id="Group-2" transform="translate(11.388587, 0.000000)">
                            <path d="M4.00569339,0.848461394 C5.98684289,0.848461394 7.57375062,2.46084819 7.57375062,4.47379847 C7.57375062,6.48674876 5.98684289,8.09913556 4.00569339,8.09913556 C2.02454388,8.09913556 0.437636153,6.48674876 0.437636153,4.47379847 C0.437636153,2.46084819 2.02454388,0.848461394 4.00569339,0.848461394 Z" id="Path" fill="#FF746C" fill-rule="nonzero" filter="url(#filter-4)"></path>
                            <path d="M4.00569339,0.848461394 C5.98684289,0.848461394 7.57375062,2.46084819 7.57375062,4.47379847 C7.57375062,6.48674876 5.98684289,8.09913556 4.00569339,8.09913556 C2.02454388,8.09913556 0.437636153,6.48674876 0.437636153,4.47379847 C0.437636153,2.46084819 2.02454388,0.848461394 4.00569339,0.848461394 Z" id="Path" fill="#FF746C" fill-rule="nonzero"></path>
                            <ellipse id="Oval" stroke="#414D86" cx="4.30299197" cy="4.14324238" rx="4.07777969" ry="4.14324238"></ellipse>
                        </g>
                        <polyline id="Path-5" stroke="#414D86" fill="#6F7CBD" stroke-linecap="round" stroke-linejoin="round" points="14.7811132 18.6257364 22.6090788 10.7299119 38.9889445 26.581246 9.78182815e-14 26.581246"></polyline>
                        <polyline id="Path-4" stroke="#414D86" fill="#6F7CBD" stroke-linecap="round" stroke-linejoin="round" points="-6.19453938e-14 26.581246 10.9941521 15.3859084 19.0569536 22.7878331"></polyline>
                    </g>
                </g>
                <g id="Group-3" transform="translate(52.000000, 119.500000) scale(-1, 1) translate(-52.000000, -119.500000) translate(38.000000, 105.000000)" stroke-width="0.8">
                    <g id="Group-4" transform="translate(7.259259, 4.296296)" fill-rule="nonzero">
                        <ellipse id="Oval" stroke="#414D86" cx="8.36648231" cy="8.66528525" rx="8.36648231" ry="8.66528525"></ellipse>
                        <polygon id="Path" stroke="#FF746C" fill="#FF746C" stroke-linejoin="round" filter="url(#filter-5)" points="6.64534059 12.0756512 6.64534059 5.51427243 10.8687568 8.79496183"></polygon>
                        <polygon id="Path" stroke="#FF746C" fill="#FF746C" stroke-linejoin="round" points="6.64534059 12.0756512 6.64534059 5.51427243 10.8687568 8.79496183"></polygon>
                    </g>
                    <g id="Rectangle-2-Copy-2" stroke="#414D86">
                        <path d="M25.052,25.9466316 L25.0526316,28 C25.0526316,28.5522847 24.6049163,29 24.0526316,29 L1,29 C0.44771525,29 6.76353751e-17,28.5522847 0,28 L0,4.05263158 C-6.76353751e-17,3.50034683 0.44771525,3.05263158 1,3.05263158 L2.947,3.05263158 L2.94736842,24.9473684 C2.94736842,25.4602043 3.33340861,25.8828756 3.8307473,25.9406407 L3.94736842,25.9473684 L25.052,25.9466316 Z" id="Rectangle-3" fill="#414D86"></path>
                        <rect id="Rectangle" x="2.94736842" y="0" width="25.0526316" height="25.9473684" rx="1"></rect>
                    </g>
                </g>
                <g id="Group-3-Copy" transform="translate(86.000000, 119.500000) scale(-1, 1) translate(-86.000000, -119.500000) translate(72.000000, 105.000000)" stroke-width="0.8">
                    <g id="Group-4" transform="translate(7.259259, 4.296296)" fill-rule="nonzero">
                        <ellipse id="Oval" stroke="#414D86" cx="8.36648231" cy="8.66528525" rx="8.36648231" ry="8.66528525"></ellipse>
                        <polygon id="Path" stroke="#FF746C" fill="#FF746C" stroke-linejoin="round" filter="url(#filter-6)" points="6.64534059 12.0756512 6.64534059 5.51427243 10.8687568 8.79496183"></polygon>
                        <polygon id="Path" stroke="#FF746C" fill="#FF746C" stroke-linejoin="round" points="6.64534059 12.0756512 6.64534059 5.51427243 10.8687568 8.79496183"></polygon>
                    </g>
                    <g id="Rectangle-2-Copy-2" stroke="#414D86">
                        <path d="M25.052,25.9466316 L25.0526316,28 C25.0526316,28.5522847 24.6049163,29 24.0526316,29 L1,29 C0.44771525,29 6.76353751e-17,28.5522847 0,28 L0,4.05263158 C-6.76353751e-17,3.50034683 0.44771525,3.05263158 1,3.05263158 L2.947,3.05263158 L2.94736842,24.9473684 C2.94736842,25.4602043 3.33340861,25.8828756 3.8307473,25.9406407 L3.94736842,25.9473684 L25.052,25.9466316 Z" id="Rectangle-3" fill="#414D86"></path>
                        <rect id="Rectangle" x="2.94736842" y="0" width="25.0526316" height="25.9473684" rx="1"></rect>
                    </g>
                </g>
                <g id="Group-3-Copy-2" transform="translate(119.000000, 119.500000) scale(-1, 1) translate(-119.000000, -119.500000) translate(105.000000, 105.000000)" stroke-width="0.8">
                    <g id="Group-4" transform="translate(7.259259, 4.296296)" fill-rule="nonzero">
                        <ellipse id="Oval" stroke="#414D86" cx="8.36648231" cy="8.66528525" rx="8.36648231" ry="8.66528525"></ellipse>
                        <polygon id="Path" stroke="#FF746C" fill="#FF746C" stroke-linejoin="round" filter="url(#filter-7)" points="6.64534059 12.0756512 6.64534059 5.51427243 10.8687568 8.79496183"></polygon>
                        <polygon id="Path" stroke="#FF746C" fill="#FF746C" stroke-linejoin="round" points="6.64534059 12.0756512 6.64534059 5.51427243 10.8687568 8.79496183"></polygon>
                    </g>
                    <g id="Rectangle-2-Copy-2" stroke="#414D86">
                        <path d="M25.052,25.9466316 L25.0526316,28 C25.0526316,28.5522847 24.6049163,29 24.0526316,29 L1,29 C0.44771525,29 6.76353751e-17,28.5522847 0,28 L0,4.05263158 C-6.76353751e-17,3.50034683 0.44771525,3.05263158 1,3.05263158 L2.947,3.05263158 L2.94736842,24.9473684 C2.94736842,25.4602043 3.33340861,25.8828756 3.8307473,25.9406407 L3.94736842,25.9473684 L25.052,25.9466316 Z" id="Rectangle-3" fill="#414D86"></path>
                        <rect id="Rectangle" x="2.94736842" y="0" width="25.0526316" height="25.9473684" rx="1"></rect>
                    </g>
                </g>
            </g>
            <rect id="Rectangle" fill="#121424" x="169" y="105" width="15" height="35"></rect>
            <g id="Man" transform="translate(156.000000, 35.000000)">
                <path d="M8.07895214,129.528605 C6.56264969,136.725149 0.606617072,180.351266 5.35197139,180.351266 C8.51554094,180.351266 17.7286229,180.351266 32.9912173,180.351266 C32.9912173,151.532318 32.9912173,137.122845 32.9912173,137.122845 L8.07895214,129.528605 Z" id="Path" stroke="#717CBB" fill="#121424" fill-rule="nonzero"></path>
                <path d="M75.8147467,144.686241 C69.7246182,168.462924 66.6118797,180.351266 66.4765313,180.351266 C66.3411829,180.351266 69.176775,168.462924 74.9833078,144.686241" id="Path" stroke="#717CBB" fill-rule="nonzero"></path>
                <path d="M88.5196395,55.9789698 C94.1459432,67.0101452 88.8440071,117.998162 85.3467345,119.975224 C83.4595047,121.037969 82.9464141,120.004909 82.397938,122.166022 C82.164678,123.085116 81.0631294,127.456779 79.874026,132.178106 L79.6805543,132.946302 L79.6805543,132.946302 L79.3890871,134.103657 L79.3890871,134.103657 L79.1950149,134.874313 C77.8070589,140.385951 76.500345,145.576992 76.500345,145.576992 C73.1033315,145.671094 23.5753457,138.160633 7.49850723,129.379627 C7.59286872,126.93947 8.37135099,120.592685 8.37135099,120.10584 C6.23642233,120.984535 3.65327661,121.168586 2.94556545,120.10584 C-3.32947347,110.541135 6.02410898,60.6752345 12.7355698,50.6414958 C15.5900048,46.3370813 36.2138874,43.9622319 45.7915784,43.9325463 C51.7599425,43.9325463 82.8933358,44.9477944 88.5196395,55.9789698 Z M17.1882525,93.8459434 C14.3868958,95.3242871 10.6124363,102.015425 11.385021,103.565014 C11.5958373,104.134666 12.0517927,104.577408 12.6248876,104.768951 C13.1979826,104.960494 13.8264339,104.880188 14.3338175,104.550577 C15.094607,104.057796 20.773989,95.6686403 23.4161107,96.0961132 C24.9317921,96.3395352 19.9896091,92.3675996 17.1882525,93.8459434 Z" id="Combined-Shape" fill="#414D86" fill-rule="nonzero"></path>
                <path d="M53.5108252,32.3414133 L53.5108252,50.4979361 C53.5108252,52.4435904 38.3441585,52.4435904 38.3441585,50.4979361 L38.3441585,36.0457279" id="Path" stroke="#414D86" fill="#6F7CBD" fill-rule="nonzero"></path>
                <path d="M41.6461815,6.48427043 C49.3466775,6.48427043 55.6828158,12.4267608 56.4650268,20.0497479 C57.8560452,20.4985136 58.8637663,21.8232232 58.8637663,23.3873673 C58.8637663,25.3220452 57.5310227,26.926013 55.6292207,26.926013 C55.6245529,26.926013 55.619886,26.9260033 55.61522,26.925984 C53.5073584,32.6920344 48.0482986,36.7995414 41.6461815,36.7995414 C33.4171044,36.7995414 26.7461193,30.0132368 26.7461193,21.6419059 C26.7461193,13.270575 33.4171044,6.48427043 41.6461815,6.48427043 Z" id="Combined-Shape" stroke="#414D86" fill="#717CBB" fill-rule="nonzero"></path>
                <path d="M37.1697434,0.242891116 C29.0984758,0.242891116 24.0696487,5.21195073 24.0696487,11.5804849 C24.0696487,16.8762941 25.3771437,19.8725261 26.9172221,20.6308317 C27.8915573,15.4891497 30.0099507,13.1094264 31.7637542,12.086022 C33.1278236,13.1094264 35.4599422,15.5877911 38.577815,16.3522618 C41.6956878,17.1167325 49.8109576,16.9687704 56.367291,21.6419059 C58.5108285,19.7307291 60.6480801,17.2461993 60.6480801,14.3177833 C60.6480801,11.3893673 59.3280129,7.71497579 51.5647611,5.59418608 C46.4353574,4.19471148 45.7187495,0.242891116 37.1697434,0.242891116 Z" id="Path" fill="#414D86" fill-rule="nonzero"></path>
                <ellipse id="Oval" fill="#FF6E61" fill-rule="nonzero" cx="28.530433" cy="24.7625955" rx="2.67647059" ry="1.33743842"></ellipse>
                <ellipse id="Oval" fill="#FF6E61" fill-rule="nonzero" cx="44.5892565" cy="24.7625955" rx="2.67647059" ry="1.33743842"></ellipse>
                <path d="M34.775531,22.5335315 C34.2082651,23.1806791 31.3165926,25.8964867 34.3673763,26.9916596" id="Path" stroke="#000000" stroke-width="0.5" stroke-linecap="round"></path>
                <path d="M39.2363154,30.5581621 C40.0356233,30.5581621 41.2648621,29.6177981 41.9127859,28.7749108" id="Path" stroke="#000000" stroke-width="0.5" stroke-linecap="round"></path>
                <path d="M66.8931781,72.2478172 C66.6283399,75.5191238 65.5925284,91.686016 65.9809577,93.8135506 C61.0431972,95.5440244 15.8323791,117.133463 8.01082516,119.503975" id="Path" stroke="#717CBB" stroke-linecap="round"></path>
                <path d="M13.3637663,66.8980635 C12.4169494,70.6290809 9.22879757,87.563553 11.4701325,95.4300832" id="Path" stroke="#717CBB" stroke-linecap="round"></path>
                <path d="M24.9618056,112.37097 C27.3196821,113.893382 49.9199289,123.087451 81.1676879,119.620035" id="Path" stroke="#717CBB" stroke-linecap="round"></path>
                <line x1="66.8931781" y1="180.351266" x2="32.9912173" y2="180.351266" id="Path-2" stroke="#717CBB"></line>
            </g>
        </g>
    </g>
</svg>