<svg width="300" height="181" viewBox="0 0 300 181" fill="none" xmlns="http://www.w3.org/2000/svg">
<g clip-path="url(#clip0_301_1378)">
<g clip-path="url(#clip1_301_1378)">
<mask id="mask0_301_1378" style="mask-type:alpha" maskUnits="userSpaceOnUse" x="0" y="7" width="300" height="152">
<rect y="7.5625" width="300" height="151.176" rx="2" fill="#C6D2FF"/>
</mask>
<g mask="url(#mask0_301_1378)">
<rect x="12.6543" y="14.1875" width="273.712" height="153.16" fill="#9EB1FF"/>
<rect x="-11.5986" y="96.9736" width="48.463" height="52" rx="18.5" fill="#1F2134" stroke="white"/>
<rect x="37.8643" y="96.9736" width="48.4631" height="52" rx="18.5" fill="#1F2134" stroke="white"/>
<rect x="87.3271" y="96.9736" width="48.4631" height="52" rx="18.5" fill="#1F2134" stroke="white"/>
<rect x="136.79" y="96.9736" width="48.463" height="52" rx="18.5" fill="#1F2134" stroke="white"/>
<rect x="186.253" y="96.9736" width="48.4631" height="52" rx="18.5" fill="#1F2134" stroke="white"/>
<rect x="235.716" y="96.9736" width="48.463" height="52" rx="18.5" fill="#1F2134" stroke="white"/>
<rect x="285.179" y="96.9736" width="48.4631" height="52" rx="18.5" fill="#1F2134" stroke="white"/>
<rect x="-18.8496" y="109.923" width="53.3638" height="57.5182" rx="18.5" fill="#1F2134" stroke="white"/>
<rect x="35.5146" y="109.923" width="53.3638" height="57.5182" rx="18.5" fill="#1F2134" stroke="white"/>
<rect x="89.8779" y="109.923" width="53.3638" height="57.5182" rx="18.5" fill="#1F2134" stroke="white"/>
<rect x="144.242" y="109.923" width="53.3638" height="57.5182" rx="18.5" fill="#1F2134" stroke="white"/>
<rect x="198.605" y="109.923" width="53.3638" height="57.5182" rx="18.5" fill="#1F2134" stroke="white"/>
<rect x="252.97" y="109.923" width="53.3638" height="57.5182" rx="18.5" fill="#1F2134" stroke="white"/>
<rect x="-50.1855" y="126.988" width="59.8309" height="64.4795" rx="18.5" fill="#1F2134" stroke="white"/>
<rect x="10.6455" y="126.988" width="59.8309" height="64.4795" rx="18.5" fill="#1F2134" stroke="white"/>
<rect x="71.4766" y="126.988" width="59.8309" height="64.4795" rx="18.5" fill="#1F2134" stroke="white"/>
<rect x="132.308" y="126.988" width="59.8309" height="64.4795" rx="18.5" fill="#1F2134" stroke="white"/>
<rect x="193.138" y="126.988" width="59.8309" height="64.4795" rx="18.5" fill="#1F2134" stroke="white"/>
<rect x="253.969" y="126.988" width="59.8309" height="64.4795" rx="18.5" fill="#1F2134" stroke="white"/>
</g>
<g clip-path="url(#clip2_301_1378)">
<path fill-rule="evenodd" clip-rule="evenodd" d="M120.855 64.6695C120.855 66.8784 119.067 68.6691 116.859 68.6691C115.822 68.6691 114.876 68.2722 114.169 67.6255C113.55 69.0315 112.144 70.0169 110.505 70.0169C108.3 70.0169 106.509 68.2267 106.509 66.0211C106.509 64.3923 107.482 62.9921 108.879 62.3666C108.87 62.2539 108.864 62.138 108.864 62.0221C108.864 59.8165 110.654 58.0264 112.863 58.0264C114.599 58.0264 116.078 59.1333 116.627 60.6827C116.703 60.677 116.78 60.6738 116.859 60.6738C119.067 60.6738 120.855 62.4645 120.855 64.6695Z" fill="#FAFAFC"/>
<path fill-rule="evenodd" clip-rule="evenodd" d="M120.855 64.6695C120.855 66.8784 119.067 68.6691 116.859 68.6691C115.822 68.6691 114.876 68.2722 114.169 67.6255C113.55 69.0315 112.144 70.0169 110.505 70.0169C108.3 70.0169 106.509 68.2267 106.509 66.0211C106.509 64.3923 107.482 62.9921 108.879 62.3666C108.87 62.2539 108.864 62.138 108.864 62.0221C108.864 59.8165 110.654 58.0264 112.863 58.0264C114.599 58.0264 116.078 59.1333 116.627 60.6827C116.703 60.677 116.78 60.6738 116.859 60.6738C119.067 60.6738 120.855 62.4645 120.855 64.6695Z" fill="#2A3052" stroke="white"/>
<path d="M118.795 69.4799L118.795 69.48C120.079 70.9191 122.288 71.0472 123.73 69.7614C123.78 69.7167 123.826 69.6718 123.871 69.6257L124.136 69.3509L124.471 69.5345C125.732 70.2257 127.343 70.0861 128.475 69.0754C129.917 67.7891 130.042 65.5769 128.758 64.1377L128.758 64.1371C128.693 64.0639 128.621 63.9921 128.544 63.9182L128.291 63.6745L128.434 63.3533C128.983 62.1293 128.801 60.6488 127.852 59.5855L118.795 69.4799ZM118.795 69.4799C117.507 68.0376 117.632 65.8274 119.073 64.5415L119.073 64.5415M118.795 69.4799L119.073 64.5415M119.073 64.5415C119.751 63.937 120.598 63.6455 121.437 63.6555L122.133 63.6639M119.073 64.5415L122.133 63.6639M122.133 63.6639L121.918 63.0012M122.133 63.6639L121.918 63.0012M121.918 63.0012C121.503 61.7207 121.848 60.2583 122.917 59.305L122.917 59.3049M121.918 63.0012L122.917 59.3049M122.917 59.3049C124.356 58.0201 126.568 58.1462 127.852 59.5855L122.917 59.3049Z" fill="#2A3052" stroke="white"/>
<path d="M117.508 60.5433L117.475 61.2397C117.437 62.0774 117.7 62.934 118.281 63.6315C119.518 65.1152 121.723 65.3138 123.207 64.0767C124.689 62.8409 124.891 60.6367 123.654 59.1524L123.654 59.152C123.613 59.1024 123.571 59.0559 123.525 59.0095L123.257 58.735L123.453 58.405C124.187 57.1683 124.101 55.5541 123.129 54.3878C121.892 52.9038 119.686 52.7035 118.204 53.9381L117.508 60.5433ZM117.508 60.5433L116.838 60.7361M117.508 60.5433L116.838 60.7361M116.838 60.7361C115.544 61.1085 114.094 60.7141 113.177 59.6135L113.177 59.6135M116.838 60.7361L113.177 59.6135M113.177 59.6135C111.942 58.1315 112.142 55.9249 113.624 54.6899L113.624 54.6899M113.177 59.6135L113.624 54.6899M113.624 54.6899C114.718 53.7779 116.205 53.6462 117.408 54.2356L117.725 54.3908M113.624 54.6899L117.725 54.3908M117.725 54.3908L117.978 54.1443M117.725 54.3908L117.978 54.1443M117.978 54.1443C118.053 54.0711 118.128 54.0017 118.204 53.9381L117.978 54.1443Z" fill="#2A3052" stroke="white"/>
<path d="M126.414 58.9173L125.899 58.4473L125.619 59.0848C125.076 60.3164 123.845 61.1777 122.413 61.1777C120.483 61.1777 118.917 59.6114 118.917 57.6819C118.917 56.2569 119.767 55.0318 120.991 54.4837L121.313 54.3395L121.285 53.9877C121.277 53.8827 121.271 53.781 121.271 53.6829C121.271 51.7537 122.838 50.1865 124.771 50.1865C126.289 50.1865 127.583 51.1549 128.063 52.5104L128.19 52.8707L128.572 52.8421C128.637 52.8372 128.701 52.8346 128.767 52.8346C130.698 52.8346 132.262 54.4012 132.262 56.3303C132.262 58.2635 130.698 59.8293 128.767 59.8293C127.859 59.8293 127.032 59.4829 126.414 58.9173Z" fill="#2A3052" stroke="white"/>
<path d="M137.463 63.3157C138.904 62.0287 139.03 59.817 137.746 58.3779L137.745 58.3774C137.68 58.3041 137.609 58.2323 137.532 58.1585L137.278 57.9147L137.422 57.5936C137.97 56.3695 137.788 54.889 136.84 53.8258L137.463 63.3157ZM137.463 63.3157C136.33 64.3263 134.719 64.4659 133.458 63.7747L133.123 63.5911L132.858 63.8659C132.814 63.9119 132.768 63.9561 132.717 64.0016C131.275 65.2873 129.067 65.1594 127.782 63.7202L137.463 63.3157ZM131.904 53.5451C133.343 52.2604 135.555 52.3864 136.84 53.8257L127.782 63.7201C126.495 62.2778 126.62 60.0676 128.061 58.7817L128.061 58.7817C128.738 58.1773 129.586 57.8857 130.424 57.8958L131.121 57.9042L130.906 57.2415C130.49 55.961 130.835 54.4985 131.904 53.5452L131.904 53.5451Z" fill="#2A3052" stroke="white"/>
<path d="M135.114 55.7377L135.114 55.7377C136.596 54.5026 136.798 52.2979 135.562 50.8142L135.561 50.8138C135.519 50.7626 135.477 50.7164 135.435 50.6733L135.163 50.3988L135.36 50.0668C136.094 48.8293 136.009 47.2152 135.037 46.0496L135.037 46.0494C133.8 44.5651 131.594 44.3646 130.112 45.5986C130.035 45.6635 129.96 45.7332 129.885 45.8061L129.633 46.0525L129.316 45.8973C128.112 45.3078 126.625 45.439 125.532 46.3509C124.05 47.5865 123.849 49.7931 125.084 51.275L135.114 55.7377ZM135.114 55.7377C133.63 56.9749 131.425 56.7763 130.188 55.2926C129.607 54.595 129.344 53.7384 129.383 52.9014L129.415 52.2053M135.114 55.7377L129.415 52.2053M129.415 52.2053L128.745 52.3978M129.415 52.2053L128.745 52.3978M128.745 52.3978C127.451 52.7696 126.002 52.3752 125.084 51.2752L128.745 52.3978Z" fill="#2A3052" stroke="white"/>
<path d="M131.486 71.6121L131.486 71.6121C133.294 72.2888 135.308 71.3735 135.986 69.5638L135.986 69.5617C136.009 69.5015 136.029 69.4424 136.046 69.3808L136.152 69.0121L136.536 69.0188C137.974 69.044 139.335 68.1713 139.867 66.7499L139.867 66.7499C140.544 64.9398 139.626 62.924 137.819 62.2473C137.726 62.2126 137.629 62.1815 137.531 62.1538L137.19 62.0575L137.167 61.7039C137.083 60.3648 136.234 59.1388 134.9 58.6394C133.093 57.9634 131.077 58.8815 130.4 60.6884L131.486 71.6121ZM131.486 71.6121C129.676 70.9347 128.757 68.9208 129.435 67.1114L129.435 67.1111M131.486 71.6121L129.435 67.1111M129.435 67.1111C129.753 66.2615 130.367 65.6091 131.114 65.2276L131.735 64.9108M129.435 67.1111L131.735 64.9108M131.735 64.9108L131.236 64.4243M131.735 64.9108L131.236 64.4243M131.236 64.4243C130.273 63.4843 129.898 62.0297 130.4 60.6884L131.236 64.4243Z" fill="#2A3052" stroke="white"/>
<path d="M132.227 76.7778C130.899 77.2934 129.448 76.9439 128.495 76.0015L128.243 75.7531L127.925 75.9071C127.83 75.9531 127.738 75.9946 127.648 76.0294L127.646 76.03C125.848 76.7283 123.821 75.8351 123.121 74.0338C122.571 72.6185 123.006 71.0612 124.095 70.1229L124.386 69.8727L124.219 69.5271C124.191 69.4684 124.166 69.4107 124.142 69.35L124.142 69.3499C123.443 67.5492 124.338 65.5242 126.136 64.8257L126.136 64.8257C127.938 64.1258 129.964 65.0173 130.663 66.8185L130.663 66.8188C130.992 67.6638 130.968 68.5597 130.665 69.3418L130.413 69.991L131.109 70.022C132.453 70.082 133.702 70.9184 134.22 72.253C134.919 74.052 134.025 76.0793 132.227 76.7778ZM132.227 76.7778L132.408 77.2439M132.227 76.7778L132.408 77.2439M132.408 77.2439C134.464 76.4455 135.485 74.1284 134.686 72.072L131.129 66.6376C130.33 64.5786 128.014 63.5599 125.955 64.3596C123.9 65.158 122.877 67.4725 123.676 69.5308C123.705 69.6051 123.736 69.6749 123.769 69.744C122.524 70.8165 122.026 72.5963 122.655 74.2149C123.455 76.2732 125.772 77.2944 127.827 76.4961C127.936 76.4544 128.041 76.4064 128.143 76.3571C129.232 77.4327 130.889 77.8335 132.408 77.2439Z" fill="#2A3052" stroke="white"/>
<path fill-rule="evenodd" clip-rule="evenodd" d="M130.57 74.6566C129.84 72.572 130.936 70.2914 133.021 69.5622C133.999 69.2197 135.023 69.2818 135.904 69.6582C136.025 68.1261 137.027 66.7323 138.573 66.1907C140.654 65.4627 142.935 66.5607 143.664 68.6428C144.202 70.18 143.746 71.8235 142.634 72.8748C142.68 72.9785 142.724 73.0854 142.763 73.1949C143.491 75.277 142.392 77.5582 140.307 78.2874C138.669 78.8611 136.907 78.3047 135.877 77.0236C135.807 77.0543 135.736 77.0825 135.661 77.1087C133.576 77.838 131.298 76.738 130.57 74.6566Z" fill="#FAFAFC"/>
<path fill-rule="evenodd" clip-rule="evenodd" d="M130.57 74.6566C129.84 72.572 130.936 70.2914 133.021 69.5622C133.999 69.2197 135.023 69.2818 135.904 69.6582C136.025 68.1261 137.027 66.7323 138.573 66.1907C140.654 65.4627 142.935 66.5607 143.664 68.6428C144.202 70.18 143.746 71.8235 142.634 72.8748C142.68 72.9785 142.724 73.0854 142.763 73.1949C143.491 75.277 142.392 77.5582 140.307 78.2874C138.669 78.8611 136.907 78.3047 135.877 77.0236C135.807 77.0543 135.736 77.0825 135.661 77.1087C133.576 77.838 131.298 76.738 130.57 74.6566Z" fill="#2A3052" stroke="white"/>
<path fill-rule="evenodd" clip-rule="evenodd" d="M145.844 50.6166C144.06 51.9195 141.56 51.5321 140.257 49.7491C139.645 48.9116 139.408 47.9141 139.512 46.9614C138.012 47.2912 136.386 46.7367 135.42 45.414C134.119 43.6334 134.509 41.1314 136.289 39.8298C137.605 38.8688 139.309 38.8284 140.638 39.5877C140.724 39.5141 140.814 39.4405 140.907 39.3726C142.688 38.071 145.19 38.4609 146.493 40.244C147.517 41.6455 147.496 43.4932 146.569 44.8505C146.619 44.9088 146.666 44.9684 146.712 45.0324C148.016 46.8155 147.624 49.3156 145.844 50.6166Z" fill="#FAFAFC"/>
<path fill-rule="evenodd" clip-rule="evenodd" d="M145.844 50.6166C144.06 51.9195 141.56 51.5321 140.257 49.7491C139.645 48.9116 139.408 47.9141 139.512 46.9614C138.012 47.2912 136.386 46.7367 135.42 45.414C134.119 43.6334 134.509 41.1314 136.289 39.8298C137.605 38.8688 139.309 38.8284 140.638 39.5877C140.724 39.5141 140.814 39.4405 140.907 39.3726C142.688 38.071 145.19 38.4609 146.493 40.244C147.517 41.6455 147.496 43.4932 146.569 44.8505C146.619 44.9088 146.666 44.9684 146.712 45.0324C148.016 46.8155 147.624 49.3156 145.844 50.6166Z" fill="#2A3052" stroke="white"/>
<path fill-rule="evenodd" clip-rule="evenodd" d="M136.45 50.8497C136.914 48.6901 139.036 47.3142 141.196 47.7771C142.21 47.9948 143.052 48.5813 143.608 49.3617C144.508 48.1165 146.09 47.448 147.692 47.7912C149.848 48.2535 151.222 50.3804 150.761 52.5367C150.419 54.129 149.174 55.2942 147.677 55.6124C147.662 55.7251 147.644 55.8391 147.619 55.953C147.157 58.1094 145.031 59.4846 142.871 59.0217C141.174 58.6574 139.959 57.2649 139.748 55.6342C139.672 55.6246 139.597 55.6112 139.519 55.5945C137.36 55.1316 135.987 53.006 136.45 50.8497Z" fill="#FAFAFC"/>
<path fill-rule="evenodd" clip-rule="evenodd" d="M134.405 49.2188C134.869 47.0593 136.991 45.6834 139.151 46.1463C140.165 46.3639 141.007 46.9504 141.563 47.7309C142.463 46.4856 144.045 45.8172 145.647 46.1604C147.803 46.6226 149.178 48.7495 148.716 50.9058C148.374 52.4981 147.129 53.6634 145.632 53.9816C145.617 54.0943 145.599 54.2082 145.574 54.3222C145.112 56.4785 142.986 57.8538 140.826 57.3909C139.13 57.0266 137.914 55.634 137.703 54.0033C137.627 53.9937 137.552 53.9803 137.475 53.9636C135.315 53.5008 133.942 51.3751 134.405 49.2188Z" fill="#2A3052" stroke="white"/>
<path d="M145.163 47.9251L145.163 47.9252C144.694 49.7991 145.834 51.697 147.709 52.1654C149.581 52.6332 151.48 51.496 151.949 49.6218L151.95 49.6181L151.95 49.6181C151.966 49.5572 151.978 49.4964 151.989 49.4323L152.053 49.0547L152.434 49.0182C153.865 48.8809 155.119 47.8598 155.487 46.3875L155.487 46.3873C155.956 44.5128 154.815 42.6128 152.944 42.1452L152.943 42.145C152.848 42.1211 152.747 42.1012 152.645 42.0841L152.297 42.0261L152.235 41.6786C152 40.3579 151.017 39.2356 149.636 38.8902L145.163 47.9251ZM145.163 47.9251C145.383 47.0445 145.92 46.3272 146.619 45.8639L147.199 45.4791M145.163 47.9251L147.199 45.4791M147.199 45.4791L146.649 45.0521M147.199 45.4791L146.649 45.0521M146.649 45.0521C145.585 44.2264 145.048 42.8231 145.395 41.4344L146.649 45.0521ZM145.395 41.4343C145.864 39.5626 147.764 38.4226 149.636 38.8901L145.395 41.4343Z" fill="#2A3052" stroke="white"/>
<path fill-rule="evenodd" clip-rule="evenodd" d="M150.797 69.0307C149.014 70.3336 146.514 69.9462 145.21 68.1631C144.598 67.3257 144.361 66.3282 144.466 65.3755C142.965 65.7052 141.34 65.1508 140.373 63.828C139.073 62.0475 139.461 59.5454 141.243 58.2438C142.558 57.2828 144.263 57.2431 145.591 58.0018C145.677 57.9282 145.767 57.8546 145.861 57.7867C147.641 56.4851 150.143 56.875 151.447 58.6581C152.47 60.0596 152.449 61.9073 151.522 63.2646C151.572 63.3229 151.619 63.3824 151.666 63.4464C152.969 65.2295 152.577 67.7297 150.797 69.0307Z" fill="#FAFAFC"/>
<path fill-rule="evenodd" clip-rule="evenodd" d="M146.337 66.1185C144.554 67.4214 142.054 67.0341 140.75 65.251C140.138 64.4136 139.901 63.4161 140.006 62.4634C138.505 62.7931 136.88 62.2387 135.913 60.9159C134.613 59.1354 135.002 56.6333 136.783 55.3317C138.098 54.3707 139.803 54.331 141.131 55.0897C141.217 55.0161 141.307 54.9424 141.401 54.8746C143.181 53.573 145.683 53.9629 146.987 55.746C148.01 57.1474 147.989 58.9952 147.062 60.3525C147.112 60.4108 147.159 60.4703 147.206 60.5343C148.509 62.3174 148.118 64.8176 146.337 66.1185Z" fill="#2A3052" stroke="white"/>
<path d="M141.892 69.3681L141.892 69.3682C141.487 71.254 142.687 73.1131 144.576 73.5195C144.644 73.5337 144.705 73.5444 144.764 73.5518L145.147 73.6005L145.196 73.9834C145.382 75.41 146.445 76.6278 147.929 76.9465C149.818 77.3515 151.679 76.1479 152.083 74.262C152.104 74.1638 152.121 74.0642 152.133 73.964L152.177 73.6109L152.525 73.537C153.837 73.2582 154.925 72.2379 155.224 70.8454C155.629 68.9591 154.426 67.0988 152.539 66.6938L141.892 69.3681ZM141.892 69.3681C142.297 67.4781 144.155 66.2748 146.044 66.6803L146.044 66.6803M141.892 69.3681L146.044 66.6803M146.044 66.6803C146.931 66.8702 147.666 67.3826 148.153 68.0656L148.558 68.6328M146.044 66.6803L148.558 68.6328M148.558 68.6328L148.966 68.0683M148.558 68.6328L148.966 68.0683M148.966 68.0683C149.754 66.9775 151.139 66.3937 152.539 66.6937L148.966 68.0683Z" fill="#2A3052" stroke="white"/>
<path fill-rule="evenodd" clip-rule="evenodd" d="M156.607 49.8935C156.638 47.6853 158.45 45.9195 160.658 45.9502C161.695 45.9649 162.635 46.3747 163.334 47.0309C163.972 45.6339 165.392 44.6678 167.03 44.6908C169.236 44.7216 171.001 46.5367 170.97 48.7423C170.947 50.3711 169.955 51.7572 168.549 52.3629C168.557 52.4762 168.561 52.5921 168.56 52.708C168.529 54.913 166.714 56.6788 164.506 56.648C162.77 56.6237 161.306 55.4956 160.779 53.9385C160.702 53.9436 160.626 53.9462 160.546 53.9449C158.338 53.9142 156.576 52.0985 156.607 49.8935Z" fill="#FAFAFC"/>
<path fill-rule="evenodd" clip-rule="evenodd" d="M156.607 49.9452C156.638 47.737 158.45 45.9712 160.658 46.002C161.695 46.0167 162.635 46.4264 163.334 47.0827C163.972 45.6857 165.392 44.7195 167.03 44.7426C169.236 44.7733 171.001 46.5884 170.97 48.7941C170.947 50.4228 169.955 51.809 168.549 52.4146C168.557 52.528 168.561 52.6438 168.56 52.7597C168.529 54.9647 166.714 56.7305 164.506 56.6998C162.77 56.6755 161.306 55.5474 160.779 53.9903C160.702 53.9954 160.626 53.998 160.546 53.9967C158.338 53.966 156.576 52.1502 156.607 49.9452Z" fill="#2A3052" stroke="white"/>
<path d="M161.623 45.5469L161.624 45.547C162.89 47.0066 162.735 49.2145 161.276 50.4809C160.591 51.0758 159.74 51.3556 158.901 51.3338L158.205 51.3156L158.411 51.9813C158.808 53.2673 158.442 54.7248 157.361 55.663C155.903 56.9277 153.693 56.7708 152.429 55.3135C151.495 54.2375 151.335 52.7548 151.9 51.5386L152.049 51.2175L151.796 50.9701C151.722 50.8981 151.652 50.825 151.587 50.7499C150.323 49.2926 150.479 47.0826 151.938 45.8158C153.085 44.8215 154.697 44.7044 155.949 45.4135L156.282 45.6023L156.551 45.33C156.596 45.2842 156.643 45.2404 156.692 45.1971C158.152 43.931 160.359 44.0895 161.623 45.5469Z" fill="#2A3052" stroke="white"/>
<path fill-rule="evenodd" clip-rule="evenodd" d="M145.81 50.1914C147.526 48.8014 150.043 49.0633 151.433 50.7791C152.086 51.5852 152.373 52.5692 152.315 53.5264C153.798 53.1224 155.449 53.5949 156.48 54.8677C157.868 56.581 157.604 59.0997 155.891 60.4878C154.625 61.5134 152.924 61.6383 151.559 60.9462C151.477 61.0243 151.391 61.1024 151.301 61.1754C149.587 62.5634 147.069 62.2997 145.679 60.5832C144.586 59.2348 144.515 57.3883 145.373 55.9862C145.321 55.9305 145.27 55.8735 145.22 55.8114C143.83 54.0956 144.096 51.5794 145.81 50.1914Z" fill="#FAFAFC"/>
<path fill-rule="evenodd" clip-rule="evenodd" d="M145.675 50.58C147.392 49.1901 149.908 49.4519 151.298 51.1678C151.951 51.9738 152.238 52.9579 152.181 53.9151C153.663 53.5111 155.315 53.9836 156.345 55.2564C157.733 56.9697 157.47 59.4884 155.756 60.8764C154.491 61.9021 152.79 62.027 151.424 61.3349C151.343 61.413 151.256 61.4911 151.166 61.5641C149.452 62.9521 146.934 62.6883 145.544 60.9718C144.452 59.6235 144.381 57.777 145.239 56.3749C145.186 56.3192 145.135 56.2622 145.085 56.2001C143.696 54.4842 143.961 51.9681 145.675 50.58Z" fill="#2A3052" stroke="white"/>
<path fill-rule="evenodd" clip-rule="evenodd" d="M157.284 72.0254C159 70.6354 161.516 70.8972 162.906 72.6131C163.56 73.4192 163.846 74.4032 163.789 75.3604C165.272 74.9564 166.923 75.4282 167.954 76.7017C169.342 78.415 169.078 80.9337 167.364 82.3218C166.099 83.3474 164.398 83.4723 163.033 82.7802C162.951 82.8583 162.865 82.9364 162.775 83.0094C161.061 84.3974 158.543 84.1336 157.153 82.4171C156.06 81.0688 155.989 79.2223 156.847 77.8202C156.794 77.7645 156.744 77.7075 156.694 77.6454C155.304 75.9296 155.57 73.4134 157.284 72.0254Z" fill="#FAFAFC"/>
<path d="M154.932 78.8245L154.932 78.8245C154.046 80.5425 151.939 81.2182 150.221 80.3333L150.221 80.3332C149.414 79.9176 148.839 79.2312 148.548 78.4446L148.306 77.7914L147.764 78.2295C146.718 79.0763 145.229 79.2774 143.956 78.622C142.24 77.7375 141.565 75.6271 142.449 73.9123L142.449 73.9122C143.101 72.6465 144.42 71.9462 145.759 72.0197L146.111 72.0391L146.247 71.713C146.288 71.6165 146.329 71.5239 146.374 71.4365L146.375 71.4364C147.258 69.7216 149.368 69.0463 151.086 69.9315C152.436 70.6269 153.143 72.0806 152.949 73.5055L152.896 73.8874L153.253 74.035C153.311 74.0592 153.367 74.0852 153.425 74.115L153.426 74.1155C155.143 75.0005 155.816 77.1094 154.932 78.8245Z" fill="#2A3052" stroke="white"/>
<path fill-rule="evenodd" clip-rule="evenodd" d="M161.046 72.952C161.077 70.7438 162.89 68.9781 165.098 69.0088C166.134 69.0235 167.075 69.4333 167.773 70.0895C168.412 68.6919 169.832 67.7264 171.469 67.7494C173.675 67.7802 175.44 69.5952 175.41 71.8009C175.386 73.4297 174.395 74.8158 172.989 75.4215C172.996 75.5348 173.001 75.6507 173 75.7666C172.968 77.9716 171.153 79.7374 168.945 79.7066C167.209 79.6823 165.746 78.5542 165.219 76.9971C165.141 77.0022 165.065 77.0042 164.986 77.0035C162.778 76.9721 161.016 75.157 161.046 72.952Z" fill="#FAFAFC"/>
<path fill-rule="evenodd" clip-rule="evenodd" d="M161.046 72.952C161.077 70.7438 162.89 68.9781 165.098 69.0088C166.134 69.0235 167.075 69.4333 167.773 70.0895C168.412 68.6919 169.832 67.7264 171.469 67.7494C173.675 67.7802 175.44 69.5952 175.41 71.8009C175.386 73.4297 174.395 74.8158 172.989 75.4215C172.996 75.5348 173.001 75.6507 173 75.7666C172.968 77.9716 171.153 79.7374 168.945 79.7066C167.209 79.6823 165.746 78.5542 165.219 76.9971C165.141 77.0022 165.065 77.0042 164.986 77.0035C162.778 76.9721 161.016 75.157 161.046 72.952Z" fill="#2A3052" stroke="white"/>
<path d="M157.752 59.7285L157.752 59.7285C157.725 61.657 159.267 63.2448 161.198 63.2731C161.265 63.2736 161.328 63.2719 161.392 63.2677L161.775 63.2424L161.898 63.6064C162.359 64.9686 163.64 65.9549 165.158 65.9762C167.09 66.0031 168.678 64.4581 168.706 62.5299C168.707 62.4305 168.703 62.3283 168.696 62.2248L168.672 61.8718L168.997 61.7318C170.229 61.2012 171.096 59.9877 171.116 58.5633C171.142 56.6338 169.598 55.0458 167.669 55.0189L167.668 55.0189C166.237 54.9988 164.994 55.8425 164.434 57.0669L164.145 57.7003L163.637 57.2235C163.026 56.6493 162.204 56.2912 161.297 56.2783L157.752 59.7285ZM157.752 59.7285C157.779 57.796 159.365 56.2515 161.297 56.2783L157.752 59.7285Z" fill="#2A3052" stroke="white"/>
<path fill-rule="evenodd" clip-rule="evenodd" d="M153.865 68.2665C153.895 66.0583 155.708 64.2925 157.916 64.3232C158.953 64.338 159.893 64.7477 160.592 65.404C161.231 64.007 162.651 63.0408 164.288 63.0639C166.493 63.0946 168.259 64.9097 168.229 67.1153C168.205 68.7441 167.213 70.1302 165.807 70.7359C165.815 70.8492 165.819 70.9651 165.818 71.081C165.787 73.286 163.972 75.0518 161.763 75.0211C160.028 74.9967 158.564 73.8686 158.037 72.3116C157.96 72.3167 157.883 72.3192 157.805 72.318C155.597 72.2872 153.834 70.4715 153.865 68.2665Z" fill="#FAFAFC"/>
<path fill-rule="evenodd" clip-rule="evenodd" d="M153.865 68.2665C153.895 66.0583 155.708 64.2925 157.916 64.3232C158.953 64.338 159.893 64.7477 160.592 65.404C161.231 64.007 162.651 63.0408 164.288 63.0639C166.493 63.0946 168.259 64.9097 168.229 67.1153C168.205 68.7441 167.213 70.1302 165.807 70.7359C165.815 70.8492 165.819 70.9651 165.818 71.081C165.787 73.286 163.972 75.0518 161.763 75.0211C160.028 74.9967 158.564 73.8686 158.037 72.3116C157.96 72.3167 157.883 72.3192 157.805 72.318C155.597 72.2872 153.834 70.4715 153.865 68.2665Z" fill="#2A3052" stroke="white"/>
<path d="M165.907 54.8969L165.907 54.8968C165.933 52.9642 167.52 51.4198 169.451 51.4472L169.451 51.4472C170.358 51.4595 171.18 51.8176 171.791 52.3918L172.299 52.8685L172.588 52.2353C173.148 51.0115 174.391 50.1677 175.823 50.1879L175.823 50.1879C177.752 50.2142 179.297 51.8025 179.271 53.7315C179.25 55.1562 178.383 56.3701 177.151 56.9L176.826 57.04L176.85 57.3931C176.857 57.4966 176.861 57.5987 176.86 57.6981C176.832 59.6271 175.244 61.1714 173.312 61.1445C171.794 61.1232 170.514 60.1369 170.052 58.7751L169.929 58.4111L169.545 58.4367C169.482 58.4409 169.42 58.4425 169.355 58.4414L169.354 58.4414C167.422 58.4145 165.88 56.826 165.907 54.8969Z" fill="#2A3052" stroke="white"/>
<path d="M162.89 57.6905L162.89 57.6905C164.659 56.9109 166.723 57.7108 167.501 59.4786L167.501 59.4788C167.868 60.3086 167.884 61.2051 167.616 61.9997L167.394 62.6595L168.09 62.6594C169.436 62.6593 170.72 63.439 171.297 64.7489L171.297 64.7491C172.076 66.5144 171.274 68.5796 169.509 69.3584C168.205 69.9322 166.74 69.6488 165.746 68.7495L165.484 68.512L165.172 68.6807C165.081 68.7301 164.99 68.7761 164.899 68.8164C163.133 69.5936 161.069 68.7921 160.289 67.024C159.677 65.6349 160.041 64.0598 161.088 63.0735L161.367 62.8099L161.185 62.4719C161.155 62.4164 161.127 62.3603 161.101 62.3007L161.101 62.2996C160.321 60.5317 161.124 58.4686 162.89 57.6905Z" fill="#2A3052" stroke="white"/>
<path d="M170.049 56.0205L170.049 56.0205C171.818 55.241 173.882 56.0408 174.661 57.8086L174.661 57.8089C175.027 58.6387 175.043 59.5352 174.775 60.3298L174.553 60.9896L175.249 60.9895C176.595 60.9894 177.879 61.769 178.456 63.079L178.457 63.0792C179.235 64.8444 178.433 66.9097 176.668 67.6884C175.364 68.2623 173.9 67.9789 172.905 67.0795L172.643 66.8421L172.332 67.0108C172.24 67.0602 172.149 67.1061 172.058 67.1465C170.293 67.9237 168.228 67.1222 167.448 65.3541C166.836 63.965 167.201 62.3899 168.247 61.4036L168.527 61.14L168.344 60.802C168.314 60.7465 168.286 60.6904 168.26 60.6308L168.26 60.6297C167.481 58.8618 168.284 56.7986 170.049 56.0205Z" fill="#2A3052" stroke="white"/>
<path fill-rule="evenodd" clip-rule="evenodd" d="M144.211 63.0468C144.242 60.8386 146.055 59.0728 148.263 59.1035C149.299 59.1182 150.24 59.528 150.938 60.1842C151.577 58.7872 152.997 57.8211 154.635 57.8442C156.84 57.8749 158.605 59.69 158.575 61.8956C158.552 63.5244 157.56 64.9105 156.154 65.5162C156.161 65.6295 156.166 65.7454 156.165 65.8613C156.133 68.0663 154.318 69.8321 152.11 69.8013C150.374 69.777 148.911 68.6489 148.384 67.0918C148.306 67.097 148.23 67.0995 148.151 67.0982C145.943 67.0675 144.181 65.2518 144.211 63.0468Z" fill="#2A3052" stroke="white"/>
<path d="M151.84 56.2484L151.84 56.2484C151.867 54.3158 153.453 52.7713 155.385 52.7988L155.385 52.7988C156.292 52.8111 157.114 53.1692 157.725 53.7433L158.232 54.2201L158.522 53.5869C159.082 52.3631 160.325 51.5193 161.756 51.5394L161.757 51.5394C163.686 51.5657 165.23 53.1541 165.204 55.083C165.183 56.5078 164.316 57.7217 163.085 58.2516L162.76 58.3915L162.784 58.7447C162.791 58.8482 162.795 58.9503 162.794 59.0496C162.766 60.9787 161.178 62.5229 159.246 62.4961C157.728 62.4748 156.447 61.4885 155.986 60.1266L155.862 59.7627L155.479 59.7883C155.416 59.7925 155.354 59.794 155.288 59.793L155.287 59.793C153.355 59.7661 151.813 58.1776 151.84 56.2484Z" fill="#2A3052" stroke="white"/>
<path d="M155.406 63.1245L155.406 63.1245C157.204 62.4144 159.236 63.294 159.945 65.0907L159.945 65.091C160.278 65.9344 160.26 66.8308 159.961 67.6144L159.713 68.265L160.409 68.2921C161.754 68.3444 163.007 69.1734 163.533 70.5049L163.533 70.5051C164.242 72.2993 163.36 74.3318 161.566 75.0412C160.241 75.5639 158.788 75.2236 157.83 74.2863L157.577 74.0388L157.259 74.1952C157.166 74.2411 157.074 74.2834 156.981 74.3202C155.186 75.0281 153.154 74.1468 152.445 72.3497C151.887 70.9378 152.312 69.3781 153.396 68.4333L153.686 68.1808L153.516 67.8359C153.489 67.7793 153.463 67.7222 153.44 67.6616L153.439 67.6605C152.729 65.8636 153.612 63.8332 155.406 63.1245Z" fill="#2A3052" stroke="white"/>
<path d="M181.925 66.524L181.925 66.5239C180.859 64.9164 178.689 64.4761 177.079 65.5449L177.077 65.5468L177.077 65.5468C177.023 65.5821 176.973 65.6179 176.926 65.6553L176.624 65.896L176.314 65.6638C175.164 64.8001 173.55 64.7094 172.285 65.5487L181.925 66.524ZM181.925 66.524C182.994 68.1344 182.558 70.3042 180.948 71.3728C180.192 71.8748 179.311 72.0433 178.483 71.9145L177.795 71.8074M181.925 66.524L177.795 71.8074M177.795 71.8074L177.913 72.4938M177.795 71.8074L177.913 72.4938M177.913 72.4938C178.143 73.8194 177.593 75.2179 176.4 76.0101L176.4 76.0101M177.913 72.4938L176.4 76.0101M176.4 76.0101C174.792 77.0771 172.62 76.6383 171.554 75.0311L171.554 75.031M176.4 76.0101L171.554 75.031M171.554 75.031C170.766 73.844 170.796 72.3528 171.513 71.2192L171.703 70.9196M171.554 75.031L171.703 70.9196M171.703 70.9196L171.483 70.6417M171.703 70.9196L171.483 70.6417M171.483 70.6417C171.42 70.5629 171.36 70.4802 171.303 70.3956M171.483 70.6417L171.303 70.3956M171.303 70.3956C170.237 68.7885 170.676 66.6175 172.285 65.5488L171.303 70.3956Z" fill="#2A3052" stroke="white"/>
<path d="M173.88 71.8648L173.88 71.8648C172.813 70.2571 170.644 69.817 169.035 70.8856L169.032 70.8876L169.032 70.8876C168.978 70.9229 168.928 70.9587 168.881 70.9961L168.579 71.2367L168.27 71.0047C167.119 70.1408 165.505 70.0503 164.24 70.8895L173.88 71.8648ZM173.88 71.8648C174.949 73.4752 174.513 75.645 172.903 76.7136C172.147 77.2156 171.267 77.384 170.438 77.2547L169.75 77.1471L169.869 77.8339C170.098 79.1601 169.548 80.5587 168.355 81.3509M173.88 71.8648L168.355 81.3509M168.355 81.3509C166.747 82.4179 164.575 81.9792 163.508 80.3719C162.721 79.1848 162.751 77.6937 163.468 76.5602L163.658 76.2605L163.438 75.9825C163.374 75.9021 163.314 75.8199 163.258 75.7373C162.192 74.1301 162.63 71.9585 164.24 70.8896L168.355 81.3509Z" fill="#2A3052" stroke="white"/>
<path fill-rule="evenodd" clip-rule="evenodd" d="M189.496 67.5146L173.686 172.799L158.505 184.245L116.104 174.996L100.696 68.5134L166.872 80.6121L189.496 67.5146Z" fill="#1F2134"/>
<path fill-rule="evenodd" clip-rule="evenodd" d="M185.424 69.8171C185.29 70.6468 169.706 167.487 169.55 168.176C169.395 168.867 157.203 178.357 156.628 178.357C156.053 178.357 116.934 170.002 116.882 169.651C116.831 169.3 102.839 70.862 103.008 70.1551C102.094 63.592 115.437 64.1317 116.274 72.8755C116.107 62.9492 125.844 67.283 127.351 75.1157C129.589 61.3377 140.166 73.8084 139.743 77.6089C140.899 65.7381 152.743 75.5255 153.223 80.2844C154.026 70.8043 165.252 73.7808 164.682 82.4997C164.629 83.3262 185.558 68.9873 185.424 69.8171Z" fill="#FAFAFC"/>
<path fill-rule="evenodd" clip-rule="evenodd" d="M185.424 69.8172C185.29 70.6469 169.706 167.487 169.55 168.177C169.395 168.867 157.203 178.357 156.627 178.357C156.053 178.357 116.934 170.002 116.882 169.651C116.831 169.3 102.839 70.8621 103.008 70.1552C102.094 63.5921 114.061 63.0569 116.274 72.8756C116.95 63.4559 127.498 68.1718 127.351 75.1158C131.201 63.2566 140.166 73.8085 139.743 77.6089C140.899 65.7382 152.742 75.5256 153.223 80.2845C154.026 70.8044 165.252 73.7809 164.682 82.4998C164.629 83.3263 185.558 68.9874 185.424 69.8172Z" fill="#2A3052" stroke="#F8F9FF"/>
<mask id="mask1_301_1378" style="mask-type:alpha" maskUnits="userSpaceOnUse" x="106" y="74" width="76" height="102">
<path d="M119.435 167.293L157.2 175.161L167.211 166.955L181.71 75.3497L166.169 85.7146L106.711 74.4688L119.435 167.293Z" fill="white"/>
</mask>
<g mask="url(#mask1_301_1378)">
<path fill-rule="evenodd" clip-rule="evenodd" d="M123.822 183.862L118.65 184.824L106.293 67.8884L113.291 66.9268L123.822 183.862Z" fill="white"/>
</g>
<mask id="mask2_301_1378" style="mask-type:alpha" maskUnits="userSpaceOnUse" x="106" y="74" width="76" height="102">
<path d="M119.435 167.293L157.2 175.161L167.211 166.955L181.71 75.3497L166.169 85.7146L106.711 74.4688L119.435 167.293Z" fill="white"/>
</mask>
<g mask="url(#mask2_301_1378)">
<path fill-rule="evenodd" clip-rule="evenodd" d="M135.665 184.908L131.747 184.509L129.417 66.8721L137.576 67.2709L135.665 184.908Z" fill="white"/>
</g>
<mask id="mask3_301_1378" style="mask-type:alpha" maskUnits="userSpaceOnUse" x="106" y="74" width="76" height="102">
<path d="M119.435 167.293L157.2 175.161L167.211 166.955L181.71 75.3497L166.169 85.7146L106.711 74.4688L119.435 167.293Z" fill="white"/>
</mask>
<g mask="url(#mask3_301_1378)">
<path fill-rule="evenodd" clip-rule="evenodd" d="M141.676 186.847L138.859 186.068L142.675 68.8408L151.684 69.62L141.676 186.847Z" fill="white"/>
</g>
<mask id="mask4_301_1378" style="mask-type:alpha" maskUnits="userSpaceOnUse" x="106" y="74" width="76" height="102">
<path d="M119.435 167.293L157.2 175.161L167.211 166.955L181.71 75.3497L166.169 85.7146L106.711 74.4688L119.435 167.293Z" fill="white"/>
</mask>
<g mask="url(#mask4_301_1378)">
<path fill-rule="evenodd" clip-rule="evenodd" d="M150.868 187.28L146.159 186.501L156.166 69.2734L163.181 70.0526L150.868 187.28Z" fill="white"/>
</g>
<mask id="mask5_301_1378" style="mask-type:alpha" maskUnits="userSpaceOnUse" x="106" y="74" width="76" height="102">
<path d="M119.435 167.293L157.2 175.161L167.211 166.955L181.71 75.3497L166.169 85.7146L106.711 74.4688L119.435 167.293Z" fill="white"/>
</mask>
<g mask="url(#mask5_301_1378)">
<path fill-rule="evenodd" clip-rule="evenodd" d="M128.423 182.443L125.856 183.624L117.328 64.2933L124.36 63.7529L128.423 182.443Z" fill="white"/>
</g>
<mask id="mask6_301_1378" style="mask-type:alpha" maskUnits="userSpaceOnUse" x="106" y="74" width="76" height="102">
<path d="M119.435 167.293L157.2 175.161L167.211 166.955L181.71 75.3497L166.169 85.7146L106.711 74.4688L119.435 167.293Z" fill="white"/>
</mask>
<g mask="url(#mask6_301_1378)">
<path fill-rule="evenodd" clip-rule="evenodd" d="M165.972 84.3033L187.58 67.8701L167.212 173.921L157.2 175.162L165.972 84.3033Z" fill="#C6D2FF"/>
</g>
</g>
</g>
</g>
<defs>
<clipPath id="clip0_301_1378">
<rect width="300" height="180" fill="white" transform="translate(0 0.53418)"/>
</clipPath>
<clipPath id="clip1_301_1378">
<rect width="300" height="180" fill="white" transform="translate(0 0.53418)"/>
</clipPath>
<clipPath id="clip2_301_1378">
<rect width="210" height="210" fill="white" transform="translate(47.709 0.53418)"/>
</clipPath>
</defs>
</svg>
