<?xml version="1.0" encoding="UTF-8"?>
<svg width="380px" height="380px" viewBox="0 0 380 380" version="1.1" xmlns="http://www.w3.org/2000/svg" xmlns:xlink="http://www.w3.org/1999/xlink">
    <defs>
        <filter x="-300.0%" y="-300.0%" width="700.0%" height="700.0%" filterUnits="objectBoundingBox" id="filter-1">
            <feGaussianBlur stdDeviation="2" in="SourceGraphic"></feGaussianBlur>
        </filter>
        <filter x="-300.0%" y="-300.0%" width="700.0%" height="700.0%" filterUnits="objectBoundingBox" id="filter-2">
            <feGaussianBlur stdDeviation="2" in="SourceGraphic"></feGaussianBlur>
        </filter>
        <filter x="-300.0%" y="-300.0%" width="700.0%" height="700.0%" filterUnits="objectBoundingBox" id="filter-3">
            <feGaussianBlur stdDeviation="2" in="SourceGraphic"></feGaussianBlur>
        </filter>
        <filter x="-300.0%" y="-300.0%" width="700.0%" height="700.0%" filterUnits="objectBoundingBox" id="filter-4">
            <feGaussianBlur stdDeviation="2" in="SourceGraphic"></feGaussianBlur>
        </filter>
        <filter x="-300.0%" y="-300.0%" width="700.0%" height="700.0%" filterUnits="objectBoundingBox" id="filter-5">
            <feGaussianBlur stdDeviation="2" in="SourceGraphic"></feGaussianBlur>
        </filter>
        <filter x="-104.7%" y="-104.9%" width="309.3%" height="309.7%" filterUnits="objectBoundingBox" id="filter-6">
            <feGaussianBlur stdDeviation="7" in="SourceGraphic"></feGaussianBlur>
        </filter>
    </defs>
    <g id="Illustrations/380px/no_titles" stroke="none" stroke-width="1" fill="none" fill-rule="evenodd">
        <g id="AddContentDashboard" transform="translate(53.209607, 71.210000)">
            <g id="imac">
                <path d="M268.580786,0 C271.894495,2.79460044e-16 274.580786,2.6862915 274.580786,6 L274.580786,178.02 C274.580786,187.961125 266.521912,196.02 256.580786,196.02 L18,196.02 C8.0588745,196.02 1.71747693e-13,187.961125 1.70530257e-13,178.02 L1.70530257e-13,6 C1.71012623e-13,2.6862915 2.6862915,1.4968968e-15 6,0 L268.580786,0 Z M263.694323,10.89 L9.6768559,10.89 L9.6768559,156.09 L263.694323,156.09 L263.694323,10.89 Z" id="Combined-Shape" stroke="#414D86"></path>
                <path d="M113.030006,239.21266 C110.270496,239.21266 107.64495,238.024615 105.825315,235.952955 C104.005679,233.881295 103.16855,231.126937 103.528169,228.394792 L107.796881,195.953819 L167.242648,195.953819 L171.283696,228.476889 C171.617864,231.197546 170.767829,233.930704 168.949032,235.983645 C167.130235,238.036587 164.517263,239.21266 161.772373,239.21266 L113.030006,239.21266 Z" id="Path" fill="#414D86" fill-rule="nonzero"></path>
                <ellipse id="Oval" fill="#414D86" fill-rule="nonzero" cx="138.152167" cy="182.208294" rx="7.58882134" ry="7.57819107"></ellipse>
            </g>
            <path d="M152.749291,52.03833 C162.063265,52.03833 170.046671,59.17733 171.256278,68.37333 C165.087283,67.40533 158.676366,66.80033 152.749291,66.80033 C146.580296,66.80033 140.169379,67.40533 134.242305,68.49433 C135.330951,59.17733 143.314357,52.03833 152.749291,52.03833 Z M164.119597,81.07833 C161.09558,80.47333 157.103877,80.11033 152.870252,80.11033 C146.701257,80.11033 137.629204,81.19933 136.661519,83.86133 C135.572872,82.89333 134.726147,81.80433 134.363265,81.32033 C134.605187,80.59433 135.935754,79.50533 139.564575,78.53733 C143.193396,77.56933 147.910864,77.08533 152.991213,76.96433 C163.030951,76.84333 170.167632,78.77933 171.4982,80.71533 C171.014357,81.44133 170.046671,82.53033 169.199946,83.49833 C168.474182,82.40933 166.901693,81.68333 164.119597,81.07833 Z M156.740995,85.19233 C157.103877,85.19233 157.345798,84.95033 157.345798,84.58733 C157.345798,83.25633 154.442741,83.01433 152.749291,83.01433 C151.297763,83.01433 147.789903,83.13533 147.789903,84.58733 C147.789903,84.82933 147.910864,85.07133 148.152785,85.19233 L147.668942,87.00733 C144.765885,86.88633 142.467632,86.52333 140.895143,86.16033 C138.59689,85.55533 137.629204,84.34533 137.629204,84.22433 C137.629204,83.13533 142.830514,81.19933 152.749291,81.19933 C156.982916,81.19933 160.853658,81.56233 163.756715,82.16733 C167.022654,82.89333 167.869379,83.74033 167.869379,84.10333 C167.869379,84.22433 167.627457,84.46633 167.264575,84.70833 L167.022654,84.95033 C165.208243,85.91833 161.579422,86.64433 157.103877,87.00733 L156.740995,85.19233 Z M170.530514,83.49833 C171.61916,82.28833 172.465885,81.07833 172.465885,81.07833 C172.586846,80.95733 172.586846,80.71533 172.586846,80.47333 C171.256278,77.32733 161.579422,75.63333 152.749291,75.75433 C147.547981,75.75433 142.709553,76.35933 138.959772,77.32733 C136.177676,78.05333 132.911737,79.38433 132.911737,81.44133 C132.911737,81.56233 132.911737,81.68333 133.032698,81.80433 C133.032698,81.92533 133.51654,82.53033 134.363265,83.37733 C121.662392,81.68333 112.348418,79.02133 112.348418,77.81133 C112.348418,77.56933 112.590339,77.20633 112.953222,76.84333 C115.251475,74.54433 123.234881,71.64033 133.51654,69.70433 C133.51654,69.70433 133.51654,69.70433 133.51654,69.70433 C133.637501,69.70433 133.637501,69.70433 133.758462,69.70433 C139.564575,68.61533 146.096453,68.01033 152.749291,68.01033 C174.401257,68.01033 193.150165,74.30233 193.150165,77.44833 C193.150165,78.77933 182.868505,81.68333 170.530514,83.49833 Z" id="Combined-Shape" fill="#6F7CBD" fill-rule="nonzero" transform="translate(152.749291, 69.522830) rotate(37.000000) translate(-152.749291, -69.522830) "></path>
            <g id="Group" transform="translate(118.790393, 53.790000)" fill="#FF6E61">
                <circle id="Oval" filter="url(#filter-1)" cx="1" cy="1" r="1"></circle>
                <circle id="Oval" filter="url(#filter-2)" cx="17" cy="8" r="1"></circle>
                <circle id="Oval" filter="url(#filter-3)" cx="34" cy="17" r="1"></circle>
                <circle id="Oval" filter="url(#filter-4)" cx="48" cy="32" r="1"></circle>
                <circle id="Oval" filter="url(#filter-5)" cx="58" cy="43" r="1"></circle>
            </g>
            <g id="Group" transform="translate(118.790393, 53.790000)" fill="#FF6E61">
                <circle id="Oval" cx="1" cy="1" r="1"></circle>
                <circle id="Oval" cx="17" cy="8" r="1"></circle>
                <circle id="Oval" cx="34" cy="17" r="1"></circle>
                <circle id="Oval" cx="48" cy="32" r="1"></circle>
                <circle id="Oval" cx="58" cy="43" r="1"></circle>
            </g>
            <path d="M133.056769,127.413 C133.419651,127.413 133.661572,127.776 133.661572,128.018 L133.661572,128.018 L133.419651,130.922 C133.419651,131.285 133.177729,131.527 132.814847,131.527 L132.814847,131.527 L132.709732,131.519861 C132.406,131.47739 132.210044,131.2487 132.210044,130.922 L132.210044,130.922 L132.451965,128.018 C132.451965,127.655 132.693886,127.413 133.056769,127.413 Z M138.258079,45.98 C148.297817,45.98 156.886026,53.724 157.974672,63.646 C169.828821,65.703 179.868559,69.091 179.747598,72.721 C179.747598,76.714 156.765066,79.981 154.587773,80.344 C154.10393,80.828 153.620087,81.191 153.136245,81.433 C153.136245,81.554 153.015284,81.554 152.894323,81.554 C150.958952,82.522 147.451092,83.248 143.096507,83.611 L143.096507,83.611 L145.757642,92.323 C145.878603,92.565 145.757642,92.928 145.39476,93.049 L145.39476,93.049 L145.273799,93.049 C145.031878,93.049 144.789956,92.807 144.668996,92.565 L144.668996,92.565 L140.798253,79.739 C140.556332,79.739 140.19345,79.618 139.830568,79.618 L139.830568,79.618 L144.064192,124.267 C144.064192,124.509 143.822271,124.872 143.459389,124.872 L143.459389,124.872 L143.354274,124.864861 C143.050541,124.82239 142.854585,124.5937 142.854585,124.267 L142.854585,124.267 L138.5,79.376 L138.5,79.376 L137.411354,79.376 L136.564629,89.782 C136.564629,90.145 136.322707,90.387 135.959825,90.387 L135.959825,90.387 L135.85471,90.379861 C135.550978,90.33739 135.355022,90.1087 135.355022,89.782 L135.355022,89.782 L136.201747,79.497 C135.717904,79.618 135.355022,79.618 135.1131,79.739 L135.1131,79.739 L128.09738,106.843 C127.976419,107.206 127.734498,107.327 127.492576,107.327 L127.492576,107.327 L127.371616,107.327 C127.008734,107.206 126.766812,106.964 126.887773,106.601 L126.887773,106.601 L132.935808,83.49 C130.153712,83.369 127.855459,83.006 126.162009,82.643 C124.952402,82.401 124.105677,81.917 123.379913,81.433 L123.379913,81.433 L123.173997,81.3435364 C122.613828,81.0819506 121.968705,80.6397778 121.323581,80.102 C116.848035,79.497 96.768559,76.714 96.768559,73.084 C96.768559,72.479 97.0104803,71.874 97.6152838,71.269 C100.276419,68.607 108.501747,65.703 118.541485,63.888 C119.50917,53.845 128.09738,45.98 138.258079,45.98 Z M135.838865,92.444 C136.201747,92.444 136.443668,92.807 136.443668,93.049 L136.443668,93.049 L134.024454,124.146 C134.024454,124.509 133.782533,124.751 133.419651,124.751 L133.419651,124.751 L133.314536,124.743861 C133.010803,124.70139 132.814847,124.4727 132.814847,124.146 L132.814847,124.146 L135.234061,93.049 C135.234061,92.686 135.475983,92.444 135.838865,92.444 Z M125.557205,111.804 C125.678166,111.441 125.920087,111.199 126.282969,111.32 C126.645852,111.441 126.887773,111.804 126.766812,112.046 L126.766812,112.046 L125.194323,118.096 C125.073362,118.459 124.831441,118.58 124.58952,118.58 L124.58952,118.58 L124.468559,118.58 C124.105677,118.459 123.863755,118.217 123.984716,117.854 L123.984716,117.854 Z M151.805677,114.345 C152.047598,114.224 152.41048,114.345 152.531441,114.708 L152.531441,114.708 L153.136245,116.765 C153.257205,117.007 153.136245,117.37 152.773362,117.491 L152.773362,117.491 L152.652402,117.491 C152.41048,117.491 152.168559,117.249 152.047598,117.007 L152.047598,117.007 L151.442795,115.071 C151.321834,114.829 151.442795,114.466 151.805677,114.345 Z M147.451092,99.704 C147.693013,99.583 148.055895,99.704 148.176856,100.067 L148.176856,100.067 L151.563755,111.441 C151.684716,111.804 151.442795,112.046 151.200873,112.288 L151.200873,112.288 L151.079913,112.288 C150.837991,112.288 150.59607,112.046 150.475109,111.804 L150.475109,111.804 L147.08821,100.43 C146.967249,100.188 147.08821,99.825 147.451092,99.704 Z M138.258079,76.351 C128.339301,76.351 123.137991,78.287 123.137991,79.376 C123.137991,79.497 124.105677,80.707 126.40393,81.312 C127.976419,81.675 130.274672,82.038 133.177729,82.159 L133.177729,82.159 L133.661572,80.344 C133.419651,80.223 133.29869,79.981 133.29869,79.739 C133.29869,78.287 136.80655,78.166 138.258079,78.166 C139.951528,78.166 142.854585,78.408 142.854585,79.739 C142.854585,80.102 142.612664,80.344 142.249782,80.344 L142.249782,80.344 L142.612664,82.159 C147.08821,81.796 150.717031,81.07 152.531441,80.102 L152.531441,80.102 L152.773362,79.86 C153.136245,79.618 153.378166,79.376 153.378166,79.255 C153.378166,78.892 152.531441,78.045 149.265502,77.319 C146.362445,76.714 142.491703,76.351 138.258079,76.351 Z M157.006987,75.867 C155.676419,73.931 148.539738,71.995 138.5,72.116 C133.419651,72.237 128.702183,72.721 125.073362,73.689 C121.444541,74.657 120.113974,75.746 119.872052,76.472 C120.234934,76.956 121.081659,78.045 122.170306,79.013 C123.137991,76.351 132.210044,75.262 138.379039,75.262 C142.612664,75.262 146.604367,75.625 149.628384,76.23 C152.41048,76.835 153.982969,77.561 154.708734,78.65 C155.555459,77.682 156.523144,76.593 157.006987,75.867 Z M138.258079,63.162 C131.60524,63.162 125.073362,63.767 119.267249,64.856 L119.267249,64.856 L119.025328,64.856 L119.025328,64.856 L118.495584,64.9569931 C108.470068,66.8919581 100.720637,69.7356379 98.4620087,71.995 C98.0991266,72.358 97.8572052,72.721 97.8572052,72.963 C97.8572052,74.173 107.171179,76.835 119.872052,78.529 C119.025328,77.682 118.541485,77.077 118.541485,76.956 C118.420524,76.835 118.420524,76.714 118.420524,76.593 C118.420524,74.536 121.686463,73.205 124.468559,72.479 C128.218341,71.511 133.056769,70.906 138.258079,70.906 C147.08821,70.785 156.765066,72.479 158.095633,75.625 C158.095633,75.867 158.095633,76.109 157.974672,76.23 C157.974672,76.23 157.127948,77.44 156.039301,78.65 C168.377293,76.835 178.658952,73.931 178.658952,72.6 C178.658952,69.454 159.910044,63.162 138.258079,63.162 Z M101.848908,70.906 C102.332751,70.664 102.695633,70.543 103.179476,70.664 C103.663319,70.785 104.026201,71.027 104.026201,71.39 C104.268122,71.874 104.268122,72.237 104.268122,72.721 C104.268122,73.205 103.90524,73.568 103.542358,73.81 C103.300437,73.931 103.058515,74.052 102.695633,74.052 L102.695633,74.052 L102.332751,74.052 C101.486026,73.81 100.881223,72.963 101.123144,71.995 C101.123144,71.511 101.486026,71.148 101.848908,70.906 Z M171.522271,71.511 C171.764192,70.664 172.610917,70.059 173.578603,70.301 C174.062445,70.422 174.425328,70.422 174.667249,70.906 C174.90917,71.39 175.030131,71.753 174.90917,72.237 C174.667249,73.084 173.941485,73.568 173.215721,73.568 L173.215721,73.568 L172.852838,73.568 C172.368996,73.568 172.006114,73.326 171.764192,72.842 C171.522271,72.358 171.40131,71.995 171.522271,71.511 Z M102.937555,71.632 L102.816594,71.632 C102.695633,71.632 102.695633,71.753 102.574672,71.753 C102.453712,71.874 102.332751,71.995 102.332751,72.116 C102.21179,72.237 102.21179,72.358 102.332751,72.479 C102.453712,72.6 102.574672,72.721 102.695633,72.721 C102.816594,72.842 102.937555,72.842 103.058515,72.721 C103.179476,72.6 103.300437,72.479 103.300437,72.358 L103.300437,72.358 L103.300437,71.874 C103.179476,71.753 103.058515,71.632 102.937555,71.632 L102.937555,71.632 Z M173.336681,71.39 L173.215721,71.39 C173.09476,71.39 173.09476,71.511 172.973799,71.511 C172.852838,71.632 172.731878,71.753 172.731878,71.874 C172.610917,71.995 172.610917,72.116 172.731878,72.237 C172.852838,72.358 172.973799,72.479 173.09476,72.479 C173.336681,72.479 173.578603,72.358 173.699563,72.116 L173.699563,72.116 L173.699563,71.632 C173.578603,71.511 173.457642,71.39 173.336681,71.39 L173.336681,71.39 Z M118.057642,66.792 C118.541485,66.55 118.904367,66.429 119.38821,66.55 C119.872052,66.671 120.113974,66.792 120.355895,67.276 C120.597817,67.76 120.718777,68.123 120.597817,68.607 C120.597817,69.091 120.234934,69.454 119.872052,69.696 C119.630131,69.817 119.38821,69.938 119.025328,69.938 L119.025328,69.938 L118.662445,69.938 C118.178603,69.938 117.815721,69.575 117.573799,69.212 C117.331878,68.728 117.331878,68.365 117.331878,67.881 C117.331878,67.397 117.69476,67.034 118.057642,66.792 Z M157.006987,67.76 C157.248908,66.913 158.095633,66.308 159.063319,66.55 C159.426201,66.671 159.789083,66.913 160.031004,67.155 C160.272926,67.639 160.393886,68.002 160.272926,68.486 C160.272926,68.97 159.910044,69.333 159.547162,69.575 C159.30524,69.696 159.063319,69.817 158.700437,69.817 L158.700437,69.817 L158.337555,69.817 C157.853712,69.817 157.49083,69.575 157.248908,69.091 C157.006987,68.607 156.886026,68.244 157.006987,67.76 Z M119.146288,67.639 L119.025328,67.639 C118.904367,67.639 118.904367,67.76 118.783406,67.76 C118.662445,67.881 118.662445,68.002 118.541485,68.123 C118.420524,68.244 118.420524,68.365 118.541485,68.486 C118.662445,68.607 118.783406,68.728 118.904367,68.728 C119.025328,68.849 119.146288,68.849 119.267249,68.728 C119.38821,68.607 119.50917,68.486 119.50917,68.365 L119.50917,68.365 L119.50917,67.881 C119.38821,67.76 119.267249,67.639 119.146288,67.639 L119.146288,67.639 Z M158.700437,67.76 L158.579476,67.76 C158.337555,67.76 158.095633,67.881 158.095633,68.123 C157.974672,68.244 157.974672,68.365 158.095633,68.486 C158.216594,68.607 158.337555,68.728 158.458515,68.728 C158.579476,68.849 158.700437,68.849 158.821397,68.728 C158.942358,68.607 159.063319,68.486 159.063319,68.365 C159.184279,68.244 159.063319,68.123 158.942358,68.002 C158.942358,67.881 158.821397,67.76 158.700437,67.76 L158.700437,67.76 Z M136.68559,65.824 C136.927511,64.977 137.774236,64.372 138.741921,64.614 C139.225764,64.735 139.467686,64.735 139.709607,65.219 C139.951528,65.703 140.072489,66.066 139.951528,66.55 C139.709607,67.397 138.983843,67.881 138.258079,67.881 L138.258079,67.881 L137.895197,67.881 C137.048472,67.639 136.443668,66.671 136.68559,65.824 Z M138.5,65.703 L138.379039,65.703 C138.137118,65.703 137.895197,65.824 137.895197,66.066 C137.774236,66.308 138.016157,66.55 138.258079,66.671 C138.5,66.792 138.741921,66.55 138.862882,66.308 L138.862882,66.308 L138.862882,65.945 C138.741921,65.824 138.620961,65.703 138.5,65.703 L138.5,65.703 Z M138.258079,47.19 C128.823144,47.19 120.839738,54.329 119.751092,63.646 C125.678166,62.557 132.089083,61.952 138.258079,61.952 C144.185153,61.952 150.59607,62.557 156.765066,63.525 C155.555459,54.329 147.572052,47.19 138.258079,47.19 Z M152.28952,57.354 C152.531441,57.233 153.015284,57.354 153.136245,57.596 C153.499127,58.201 153.862009,58.806 154.10393,59.411 C154.345852,59.774 154.10393,60.137 153.862009,60.258 L153.862009,60.258 L153.620087,60.258 C153.378166,60.258 153.136245,60.137 153.015284,59.895 C152.652402,59.29 152.41048,58.685 152.047598,58.201 C151.926638,57.959 152.047598,57.475 152.28952,57.354 Z M143.943231,50.215 C144.185153,49.973 144.548035,49.852 144.789956,49.973 C147.20917,51.183 149.386463,52.877 151.200873,54.934 C151.321834,55.176 151.321834,55.539 151.079913,55.781 C150.958952,55.902 150.837991,55.902 150.717031,55.902 C150.475109,55.902 150.354148,55.781 150.233188,55.66 C148.539738,53.724 146.483406,52.151 144.185153,51.062 C143.943231,50.941 143.822271,50.578 143.943231,50.215 Z" id="Combined-Shape" fill="#414D86" fill-rule="nonzero" transform="translate(138.258619, 88.753500) rotate(37.000000) translate(-138.258619, -88.753500) "></path>
            <g id="video" transform="translate(9.790393, 13.790000)" fill="#414D86">
                <rect id="Rectangle" x="0" y="5.83333333" width="254" height="1.16666667"></rect>
                <g id="Group-4" transform="translate(3.030039, 0.177677)" fill-rule="nonzero">
                    <ellipse id="Oval" cx="1.88093058" cy="1.81296682" rx="1.88093058" ry="1.81296682"></ellipse>
                    <ellipse id="Oval" cx="8.36039043" cy="1.81296682" rx="1.88093058" ry="1.81296682"></ellipse>
                    <ellipse id="Oval" cx="14.8398503" cy="1.81296682" rx="1.88093058" ry="1.81296682"></ellipse>
                </g>
            </g>
            <g id="undraw_cancel_u1it" transform="translate(244.284419, 37.416757) rotate(45.000000) translate(-244.284419, -37.416757) translate(232.784419, 26.416757)">
                <ellipse id="Oval" fill="#FF6E61" filter="url(#filter-6)" cx="12.9487536" cy="10.1548662" rx="10.0329114" ry="10.0139155"></ellipse>
                <ellipse id="Oval" fill="#FF6E61" cx="12.9487536" cy="10.1548662" rx="10.0329114" ry="10.0139155"></ellipse>
                <ellipse id="Oval" stroke="#414D86" stroke-width="0.8" cx="10.0329114" cy="11.2239155" rx="10.0329114" ry="10.0139155"></ellipse>
            </g>
            <path d="M245.101082,32.79 C244.144445,32.79 243.2749,33.3033847 242.789935,34.1426769 C242.305886,33.3038431 241.436799,32.79 240.479704,32.79 C238.996847,32.79 237.790393,34.0335827 237.790393,35.5618188 C237.790393,37.6552365 240.432491,39.6368097 242.011607,40.8203447 C242.288009,41.0279905 242.533242,41.2118005 242.728053,41.3685662 C242.74593,41.3832343 242.767932,41.3905684 242.790393,41.3905684 C242.812854,41.3905684 242.834397,41.3832343 242.852733,41.3685662 C243.047544,41.2118005 243.292318,41.0279905 243.569179,40.8203447 C245.148295,39.6363513 247.790393,37.6547781 247.790393,35.5618188 C247.789476,34.0335827 246.583481,32.79 245.101082,32.79 Z M243.449542,40.6617455 C243.199726,40.8492226 242.97512,41.0179061 242.789935,41.1645875 C242.604749,41.0179061 242.380144,40.8492226 242.130327,40.6617455 C240.581005,39.5002127 237.988413,37.5557682 237.988413,35.5618188 C237.988413,34.1426769 239.105941,32.9884782 240.479704,32.9884782 C241.42259,32.9884782 242.273341,33.5279905 242.701467,34.396619 C242.717511,34.4305391 242.751889,34.4520829 242.789935,34.4520829 C242.82798,34.4520829 242.8619,34.4305391 242.87886,34.396619 C243.307445,33.5279905 244.158655,32.9884782 245.101082,32.9884782 C246.474386,32.9884782 247.591915,34.1426769 247.591915,35.5618188 C247.591456,37.5562266 244.998864,39.5002127 243.449542,40.6617455 Z" id="Shape" stroke="#141424" stroke-width="0.5" fill="#131424" fill-rule="nonzero" stroke-linejoin="round"></path>
        </g>
    </g>
</svg>
