<?xml version="1.0" encoding="UTF-8"?>
<svg width="247px" height="216px" viewBox="0 0 247 216" version="1.1" xmlns="http://www.w3.org/2000/svg" xmlns:xlink="http://www.w3.org/1999/xlink">
    <title>no-views__dark</title>
    <defs>
        <path d="M9.07602434,0 L7.48660385,0.268096596 L5.89713473,0.536144501 L5.85015103,2.02080366 C5.21343927,2.3051146 4.61130868,2.67882353 4.06457605,3.13934979 L4.06457605,3.13934979 L2.7108036,2.5343552 L1.77628525,3.84908027 L0.841718258,5.16375664 L1.85624508,6.24597875 C1.60080163,6.91402912 1.44540525,7.60598711 1.38567856,8.30140222 L1.38567856,8.30140222 L0,8.83223933 L0.267797338,10.4234847 L0.535594675,12.01473 L2.01854797,12.0618149 C2.30254155,12.6992381 2.6757847,13.3019929 3.1357969,13.8493365 L3.1357969,13.8493365 L2.53147763,15.2046218 L3.84478379,16.1402331 L5.15804131,17.0757958 L6.23895814,16.0601353 C6.9062628,16.3159128 7.59749705,16.4714829 8.29208727,16.5312763 L8.29208727,16.5312763 L8.82238047,17.9185033 L10.4118496,17.6504067 L12.0012701,17.3823102 L12.0483024,15.8976997 C12.6850142,15.6133887 13.2871934,15.2396798 13.833926,14.7791536 L13.833926,14.7791536 L15.1876499,15.3841481 L16.1221682,14.0694231 L17.0567352,12.754698 L16.0422084,11.6725246 C16.2976518,11.0045229 16.4530482,10.3125162 16.5127749,9.61714981 L16.5127749,9.61714981 L17.8984534,9.08621533 L17.6307047,7.49497 L17.3629074,5.90377336 L15.8799541,5.85668847 C15.5959119,5.21931389 15.2226201,4.61641304 14.7626079,4.06911814 L14.7626079,4.06911814 L15.3669758,2.71388157 L14.0537183,1.77831891 L12.7405094,0.842707555 L11.6594467,1.85836809 C10.9921907,1.6025905 10.301005,1.44702046 9.60636618,1.38727572 L9.60636618,1.38727572 L9.07602434,0 Z M7.02208833,11.6703044 C5.52649215,10.6048183 5.17688023,8.5272861 6.24117793,7.0299789 L6.24117793,7.0299789 C7.30551654,5.53267171 9.3807314,5.18266939 10.8763685,6.24815555 L10.8763685,6.24815555 C12.3719647,7.31368266 12.7216175,9.39125578 11.6572789,10.888563 L11.6572789,10.888563 C11.0089404,11.8005674 9.98538372,12.2869752 8.94636508,12.2869752 L8.94636508,12.2869752 C8.27966043,12.2869752 7.60669737,12.08681 7.02208833,11.6703044 L7.02208833,11.6703044 Z" id="path-1"></path>
        <path d="M6.32703098,0 L5.21902242,0.186349227 L4.11097996,0.37266461 L4.07822693,1.40462507 C3.63436573,1.6022446 3.21461157,1.8620031 2.83347616,2.18210681 L2.83347616,2.18210681 L1.88974134,1.76158571 L1.23827475,2.67542797 L0.586774263,3.58923639 L1.29401593,4.34146994 C1.11594252,4.80581999 1.0076134,5.28678782 0.965977046,5.77015863 L0.965977046,5.77015863 L-8.13931853e-13,6.13913416 L0.18668549,7.24518079 L0.373370981,8.35122742 L1.40715968,8.3839553 C1.60513581,8.827017 1.86532914,9.24598123 2.18601046,9.62643014 L2.18601046,9.62643014 L1.76473055,10.5684651 L2.68025572,11.2187921 L3.59574699,11.8690852 L4.34927012,11.1631174 C4.81445808,11.3409039 5.29632771,11.4490379 5.78053684,11.4905993 L5.78053684,11.4905993 L6.15021209,12.4548364 L7.25825456,12.2684872 L8.36626312,12.082138 L8.39905005,11.0502113 C8.84291125,10.8525918 9.26269931,10.5928333 9.64383472,10.2727296 L9.64383472,10.2727296 L10.5875356,10.6932507 L11.2390022,9.77940844 L11.8905027,8.86556618 L11.183261,8.11336647 C11.3613345,7.64905026 11.4696636,7.16804859 11.5112999,6.68471163 L11.5112999,6.68471163 L12.477277,6.31566841 L12.2906254,5.20962178 L12.1039399,4.10360899 L11.0701512,4.07088111 C10.8721412,3.62785325 10.6119139,3.20878748 10.2912326,2.82837242 L10.2912326,2.82837242 L10.7125464,1.88637133 L9.79705516,1.23607818 L8.8815978,0.585751194 L8.12797296,1.29171896 C7.6628189,1.11393246 7.18098317,1.00579846 6.69674013,0.964270947 L6.69674013,0.964270947 L6.32703098,0 Z M4.89520177,8.11182328 C3.85259952,7.37122259 3.60887988,5.92716654 4.35081757,4.88641465 L4.35081757,4.88641465 C5.09278378,3.84566276 6.53944679,3.60238231 7.58207755,4.34298299 L7.58207755,4.34298299 C8.6246798,5.08361214 8.86842796,6.52769666 8.12646175,7.56844855 L8.12646175,7.56844855 C7.67449541,8.20236675 6.96095888,8.54046026 6.2366436,8.54046026 L6.2366436,8.54046026 C5.77187391,8.54046026 5.30274139,8.401329 4.89520177,8.11182328 L4.89520177,8.11182328 Z" id="path-3"></path>
        <path d="M4.48164695,-1.62968281e-12 L3.69680755,0.131997369 L2.91194414,0.263970765 L2.88874407,0.994942757 C2.57434239,1.13492326 2.27701653,1.31891886 2.00704561,1.54565899 L2.00704561,1.54565899 L1.33856678,1.24778988 L0.877111283,1.89509481 L0.41563177,2.54237577 L0.91659462,3.07520787 C0.790459288,3.40412249 0.713726161,3.74480804 0.684233741,4.08719569 L0.684233741,4.08719569 L-2.03482963e-13,4.34855336 L0.132235556,5.13200306 L0.264471111,5.91545275 L0.996738109,5.938635 C1.1369712,6.25247037 1.32127481,6.54923671 1.54842408,6.81872135 L1.54842408,6.81872135 L1.25001747,7.4859961 L1.89851447,7.94664438 L2.54698745,8.40726869 L3.080733,7.90720819 C3.41024114,8.0331403 3.75156546,8.10973521 4.09454693,8.13917451 L4.09454693,8.13917451 L4.35640023,8.82217579 L5.14126364,8.69017842 L5.92610304,8.55818105 L5.94932712,7.82723303 C6.2637288,7.68725253 6.56107868,7.50325692 6.8310496,7.2765168 L6.8310496,7.2765168 L7.49950441,7.57438591 L7.96095991,6.92708098 L8.42243942,6.27977604 L7.92147657,5.74696792 C8.04761191,5.41807727 8.12434503,5.07736775 8.15383745,4.73500407 L8.15383745,4.73500407 L8.83807119,4.47359845 L8.70585965,3.69014876 L8.5736241,2.90672303 L7.8413571,2.88354079 C7.70109999,2.56972939 7.51677237,2.27289113 7.2896231,2.00343047 L7.2896231,2.00343047 L7.58805372,1.33617969 L6.93958074,0.87555538 L6.29113178,0.414907096 L5.75731418,0.914967598 C5.42783005,0.789035491 5.08652975,0.712440577 4.74352426,0.683025254 L4.74352426,0.683025254 L4.48164695,-1.62968281e-12 Z M3.46743459,5.74587482 C2.72892466,5.22128267 2.55628991,4.19840963 3.08182911,3.46121038 L3.08182911,3.46121038 C3.60738851,2.72401112 4.63210814,2.55168747 5.37063827,3.07627962 L5.37063827,3.07627962 C6.10914819,3.60089193 6.28180314,4.62378513 5.75624374,5.36098439 L5.75624374,5.36098439 C5.43610091,5.81000978 4.93067921,6.04949269 4.41762255,6.04949269 L4.41762255,6.04949269 C4.08841069,6.04949269 3.75610849,5.95094138 3.46743459,5.74587482 L3.46743459,5.74587482 Z" id="path-5"></path>
    </defs>
    <g id="illustrations" stroke="none" stroke-width="1" fill="none" fill-rule="evenodd">
        <g id="no-views__dark">
            <rect id="Rectangle" x="0" y="0" width="247" height="216"></rect>
            <g id="Group-5">
                <g id="Group-87" transform="translate(28.797821, 0.700622)">
                    <path d="M0.799816602,18.9744939 L0.799816602,4 C0.799816602,1.790861 2.5906776,4.05812251e-16 4.7998166,0 L213.171,0 C215.380139,1.52910644e-14 217.171,1.790861 217.171,4 L217.171,154.995475 L217.171,154.995475" id="Rectangle" stroke="#6F7CBD"></path>
                    <line x1="188.706729" y1="155.364446" x2="39.6641351" y2="155.638745" id="Rectangle" stroke="#6F7CBD"></line>
                    <line x1="0.799816602" y1="74.8018613" x2="0.799816602" y2="13.5010237" id="Rectangle" stroke="#6F7CBD"></line>
                    <g id="Group-86" transform="translate(6.178771, 5.758946)" fill="#414D86">
                        <path d="M5.56853548,3.13232523 C5.56853548,4.41701398 4.52732321,5.45938978 3.24406848,5.45938978 C1.95938154,5.45938978 0.919601481,4.41701398 0.919601481,3.13232523 C0.919601481,1.84763648 1.95938154,0.805260679 3.24406848,0.805260679 C4.52732321,0.805260679 5.56853548,1.84763648 5.56853548,3.13232523 Z" id="Stroke-80"></path>
                        <path d="M13.9666098,3.13232523 C13.9666098,4.41701398 12.9253975,5.45938978 11.6421428,5.45938978 C10.3574559,5.45938978 9.3176758,4.41701398 9.3176758,3.13232523 C9.3176758,1.84763648 10.3574559,0.805260679 11.6421428,0.805260679 C12.9253975,0.805260679 13.9666098,1.84763648 13.9666098,3.13232523 Z" id="Stroke-82"></path>
                        <path d="M22.3646841,3.13232523 C22.3646841,4.41701398 21.3234719,5.45938978 20.0402171,5.45938978 C18.7555302,5.45938978 17.7157501,4.41701398 17.7157501,3.13232523 C17.7157501,1.84763648 18.7555302,0.805260679 20.0402171,0.805260679 C21.3234719,0.805260679 22.3646841,1.84763648 22.3646841,3.13232523 Z" id="Stroke-84"></path>
                    </g>
                    <g id="Group-14" transform="translate(64.274642, 42.507712)" fill-rule="nonzero">
                        <polygon id="Path" stroke="#6F7CBD" stroke-linejoin="round" points="0.613678439 71.6742081 108.004983 71.6742081 108.004983 0 0.613678439 0"></polygon>
                        <g id="eye-close-up" transform="translate(39.376812, 25.778091)" fill="#FF6E61">
                            <path d="M15.2137681,0 C8.50250764,0 2.71828899,3.92201832 0.0612043453,9.58176257 C-0.0204014484,9.75326998 -0.0204014484,9.95390128 0.0612043453,10.1286447 C2.71828899,15.7883566 8.50254029,19.7104072 15.2137681,19.7104072 C21.9249959,19.7104072 27.7092472,15.7883889 30.3663319,10.1286447 C30.4479377,9.95713726 30.4479377,9.75650596 30.3663319,9.58176257 C27.7092472,3.92201832 21.9250286,0 15.2137681,0 Z M15.2137681,16.6556663 C11.4239951,16.6556663 8.35561721,13.6105685 8.35561721,9.85682161 C8.35561721,6.09983872 11.4272593,3.05800933 15.2137681,3.05800933 C19.0035412,3.05800933 22.071919,6.10307471 22.071919,9.85682161 C22.071919,13.6105685 19.0002769,16.6556663 15.2137681,16.6556663 Z" id="Shape"></path>
                            <ellipse id="Oval" cx="15.2137681" cy="9.85520362" rx="4.47463768" ry="4.47963801"></ellipse>
                        </g>
                    </g>
                    <line x1="1.32469625" y1="16.6397626" x2="211.276554" y2="16.6397626" id="Line" stroke="#6F7CBD" stroke-linecap="square"></line>
                </g>
                <g id="woman-writing" transform="translate(61.839995, 124.232585) scale(-1, 1) translate(-61.839995, -124.232585) translate(0.339995, 34.232585)">
                    <path d="M65.1379207,112.767415 C63.4220864,116.611721 49.0123563,158.494145 49.3456872,164.600761 C49.6790181,170.707377 80.3399946,179.767415 80.3399946,179.767415" id="Path" stroke="#414D86" fill-rule="nonzero"></path>
                    <path d="M65.3399946,112.103389 C66.2065129,116.659354 80.5972978,179.487153 80.5972978,179.487153 C101.759096,179.673994 112.339995,179.767415 112.339995,179.767415 C112.339995,179.767415 104.544836,126.182229 103.043771,110.767415" id="Path" stroke="#414D86" fill-rule="nonzero"></path>
                    <path d="M85.3399946,33.7674146 C85.3399946,38.3272646 85.3399946,41.3272646 85.3399946,42.7674146 L76.3399946,42.7674146 L76.3399946,34.4485196" id="Path" stroke="#6F7CBD" fill-rule="nonzero"></path>
                    <circle id="Oval" stroke="#6F7CBD" fill="#6F7CBD" fill-rule="nonzero" cx="80.3399946" cy="25.7674146" r="10"></circle>
                    <ellipse id="Oval" fill="#FF6E61" fill-rule="nonzero" cx="69.8399946" cy="26.7674146" rx="1.5" ry="1"></ellipse>
                    <ellipse id="Oval" fill="#FF6E61" fill-rule="nonzero" cx="80.8399946" cy="26.7674146" rx="1.5" ry="1"></ellipse>
                    <path d="M74.3399946,24.7674146 C74.0232001,25.2021194 72.4003228,27.0268063 74.1121249,27.7674146" id="Path" stroke="#000000" stroke-width="0.62" stroke-linecap="round"></path>
                    <path d="M77.3399946,29.7674146 C78.1576425,29.6131769 78.8679002,29.2580481 79.3399946,28.7674146" id="Path" stroke="#000000" stroke-width="0.62" stroke-linecap="round"></path>
                    <path d="M104.331426,108.767415 C115.455476,108.467768 122.339995,100.153925 122.339995,80.3608774 C122.339995,72.188686 108.58522,47.5849419 105.855223,38.2904363 C104.443345,33.4906359 105.579465,19.3690892 98.3711692,12.183009 C94.896627,8.72344794 79.619672,9.54066708 75.6763425,11.1696572 C71.7330129,12.7986474 72.1962852,17.7074103 72.5988909,18.4755963 C73.5419809,17.6910659 75.6101607,16.1002127 75.9796755,16.1492458 C77.9154918,16.3835153 83.1990019,22.2565968 84.8039095,24.95342 C86.105484,27.132671 84.0979707,40.6658199 86.6404532,44.5339905 C89.1829356,48.4021611 92.9139572,49.2721402 92.9139572,49.2721402 C97.9803515,56.0889053 101.518435,66.9616438 103.528209,81.8903558 C105.120678,93.7193051 105.388417,102.678325 104.331426,108.767415 Z" id="Path" fill="#414D86" fill-rule="nonzero"></path>
                    <path d="M72.3020785,44.9528925 C74.839604,42.5707838 77.9986874,41.3839092 81.9084371,41.8778856 C84.578458,41.9826646 86.988208,43.5108394 89.1466122,46.0308799 L89.3850712,45.2088655 C98.6752098,53.1879772 108.339995,87.9564396 108.339995,92.2344627 C108.339995,104.295657 96.2101467,125.767415 96.2101467,125.767415 C96.2101467,125.767415 94.7521229,124.618913 93.2651521,123.45997 L92.8775296,123.158148 C92.0403301,122.506931 91.2335827,121.883993 90.7153365,121.494834 C91.0493555,120.967895 92.0584606,115.223723 92.9769105,109.26772 C82.2923172,111.742383 67.1327317,113.997293 65.5217401,112.19857 C64.1844097,110.705399 61.4205875,88.6073024 63.5187543,69.5572056 C61.0260067,70.5536858 57.6083124,71.7399801 54.0852098,72.8799972 L53.1790049,73.1714821 L53.1790049,73.1714821 L52.2712422,73.4600472 C45.7673674,75.5155153 39.3802115,77.2777102 38.1997193,77.2777102 C37.0757808,77.2777102 30.3715628,71.566471 23.4080118,65.3278722 L22.4986892,64.5115773 C15.5226459,58.2369205 8.51861512,51.6602902 6.8075432,49.9655658 L6.61481401,49.7726265 C6.50692217,49.6630255 6.44080201,49.592043 6.41995214,49.5630874 C5.89870532,48.839198 8.0434188,46.6185448 9.44969929,45.2088655 C10.1805196,45.6828921 16.7029466,49.4075775 23.3923237,53.049699 L24.2289585,53.5042931 C30.7830347,57.0581338 37.2724798,60.3996573 38.4169054,60.3996573 C39.6687123,60.3996573 47.979098,56.5912267 56.1561669,52.7106791 L57.0809169,52.2712645 C63.6986704,49.1227964 70.0500277,46.0196652 72.2941935,44.9572301 Z" id="Combined-Shape" fill="#414D86" fill-rule="nonzero"></path>
                    <path d="M4.58561286,49.7674146 C7.01460429,49.7674146 9.33999465,47.7918517 9.33999465,45.711171 C9.33999465,43.6304903 7.1670641,41.7674146 4.73807268,41.7674146 C2.30908125,41.7674146 0.339994646,43.4541395 0.339994646,45.5348203 C0.339994646,47.615501 2.15662144,49.7674146 4.58561286,49.7674146 Z" id="Oval" stroke="#414D86" fill="#6F7CBD" fill-rule="nonzero"></path>
                    <path d="M82.3399946,70.7674146 C83.8906573,72.6866193 95.3399946,93.1269746 95.3399946,96.2010017 C95.3399946,97.7242673 94.5007471,103.850325 93.5781306,109.767415" id="Path" stroke="#6F7CBD" stroke-linecap="round" stroke-linejoin="round"></path>
                    <path d="M85.3536878,41.8920224 C84.8778695,45.8615427 96.9300659,59.7118341 101.626672,63.7674146 C106.31768,58.0874504 103.501956,44.0166302 103.501956,44.0166302 L93.929612,39.7674146 L85.3536878,41.8920224 Z" id="Path" fill="#414D86" fill-rule="nonzero"></path>
                    <ellipse id="Oval" fill="#414D86" fill-rule="nonzero" cx="96.3399946" cy="6.26741455" rx="5" ry="5.5"></ellipse>
                    <path d="M68.3399946,50.7674146 C66.066068,55.8145264 64.1419108,62.7603132 63.3399946,69.7674146" id="Path" stroke="#6F7CBD" stroke-linecap="round" stroke-linejoin="round"></path>
                    <path d="M85.3399946,43.7674146 C90.3124455,49.0881606 92.8741258,51.4582953 97.6794049,60.5184361 C102.484684,69.5785769 102.484684,70.34389 104.506514,79.6619175 C105.898238,87.4621585 106.339995,86.9251996 106.339995,97.0985432 C106.339995,101.977948 105.696861,106.239731 104.73816,109.767415" id="Path-2" stroke="#6F7CBD" stroke-linecap="round"></path>
                </g>
                <g id="Group-10" transform="translate(223.284420, 161.714932) scale(-1, 1) translate(-223.284420, -161.714932) translate(207.623188, 136.180995)">
                    <g id="Group-3" transform="translate(6.264493, 33.149321)">
                        <mask id="mask-2" fill="white">
                            <use xlink:href="#path-1"></use>
                        </mask>
                        <g id="Clip-2"></g>
                        <path d="M9.07602434,0 L7.48660385,0.268096596 L5.89713473,0.536144501 L5.85015103,2.02080366 C5.21343927,2.3051146 4.61130868,2.67882353 4.06457605,3.13934979 L4.06457605,3.13934979 L2.7108036,2.5343552 L1.77628525,3.84908027 L0.841718258,5.16375664 L1.85624508,6.24597875 C1.60080163,6.91402912 1.44540525,7.60598711 1.38567856,8.30140222 L1.38567856,8.30140222 L0,8.83223933 L0.267797338,10.4234847 L0.535594675,12.01473 L2.01854797,12.0618149 C2.30254155,12.6992381 2.6757847,13.3019929 3.1357969,13.8493365 L3.1357969,13.8493365 L2.53147763,15.2046218 L3.84478379,16.1402331 L5.15804131,17.0757958 L6.23895814,16.0601353 C6.9062628,16.3159128 7.59749705,16.4714829 8.29208727,16.5312763 L8.29208727,16.5312763 L8.82238047,17.9185033 L10.4118496,17.6504067 L12.0012701,17.3823102 L12.0483024,15.8976997 C12.6850142,15.6133887 13.2871934,15.2396798 13.833926,14.7791536 L13.833926,14.7791536 L15.1876499,15.3841481 L16.1221682,14.0694231 L17.0567352,12.754698 L16.0422084,11.6725246 C16.2976518,11.0045229 16.4530482,10.3125162 16.5127749,9.61714981 L16.5127749,9.61714981 L17.8984534,9.08621533 L17.6307047,7.49497 L17.3629074,5.90377336 L15.8799541,5.85668847 C15.5959119,5.21931389 15.2226201,4.61641304 14.7626079,4.06911814 L14.7626079,4.06911814 L15.3669758,2.71388157 L14.0537183,1.77831891 L12.7405094,0.842707555 L11.6594467,1.85836809 C10.9921907,1.6025905 10.301005,1.44702046 9.60636618,1.38727572 L9.60636618,1.38727572 L9.07602434,0 Z M6.6577745,12.1828138 C4.87944648,10.915904 4.46374291,8.44562709 5.72923854,6.66526313 L5.72923854,6.66526313 C6.99478281,4.88489917 9.4623023,4.46873106 11.240679,5.73564086 L11.240679,5.73564086 C13.019007,7.00259935 13.4347592,9.47292495 12.1692149,11.2532889 L12.1692149,11.2532889 C11.3983127,12.3377021 10.1812598,12.9160624 8.94582211,12.9160624 L8.94582211,12.9160624 C8.15308168,12.9160624 7.35289973,12.6780572 6.6577745,12.1828138 L6.6577745,12.1828138 Z" id="Fill-1" stroke="#FF6E61" stroke-width="2" fill="#FF6E61" mask="url(#mask-2)"></path>
                        <rect id="Rectangle" fill="#FF6E61" mask="url(#mask-2)" x="3.83540373" y="4.35164835" width="10.2277433" height="9.21525533"></rect>
                    </g>
                    <g id="Group-3" transform="translate(8.182563, 18.409447) rotate(-20.000000) translate(-8.182563, -18.409447) translate(1.918070, 12.137954)">
                        <mask id="mask-4" fill="white">
                            <use xlink:href="#path-3"></use>
                        </mask>
                        <g id="Clip-2"></g>
                        <path d="M6.32703098,0 L5.21902242,0.186349227 L4.11097996,0.37266461 L4.07822693,1.40462507 C3.63436573,1.6022446 3.21461157,1.8620031 2.83347616,2.18210681 L2.83347616,2.18210681 L1.88974134,1.76158571 L1.23827475,2.67542797 L0.586774263,3.58923639 L1.29401593,4.34146994 C1.11594252,4.80581999 1.0076134,5.28678782 0.965977046,5.77015863 L0.965977046,5.77015863 L-8.13931853e-13,6.13913416 L0.18668549,7.24518079 L0.373370981,8.35122742 L1.40715968,8.3839553 C1.60513581,8.827017 1.86532914,9.24598123 2.18601046,9.62643014 L2.18601046,9.62643014 L1.76473055,10.5684651 L2.68025572,11.2187921 L3.59574699,11.8690852 L4.34927012,11.1631174 C4.81445808,11.3409039 5.29632771,11.4490379 5.78053684,11.4905993 L5.78053684,11.4905993 L6.15021209,12.4548364 L7.25825456,12.2684872 L8.36626312,12.082138 L8.39905005,11.0502113 C8.84291125,10.8525918 9.26269931,10.5928333 9.64383472,10.2727296 L9.64383472,10.2727296 L10.5875356,10.6932507 L11.2390022,9.77940844 L11.8905027,8.86556618 L11.183261,8.11336647 C11.3613345,7.64905026 11.4696636,7.16804859 11.5112999,6.68471163 L11.5112999,6.68471163 L12.477277,6.31566841 L12.2906254,5.20962178 L12.1039399,4.10360899 L11.0701512,4.07088111 C10.8721412,3.62785325 10.6119139,3.20878748 10.2912326,2.82837242 L10.2912326,2.82837242 L10.7125464,1.88637133 L9.79705516,1.23607818 L8.8815978,0.585751194 L8.12797296,1.29171896 C7.6628189,1.11393246 7.18098317,1.00579846 6.69674013,0.964270947 L6.69674013,0.964270947 L6.32703098,0 Z M4.6412332,8.46805952 C3.40153441,7.58745281 3.11174129,5.87040679 3.99393704,4.63290713 L3.99393704,4.63290713 C4.87616669,3.39540747 6.59631107,3.10613634 7.83604378,3.98674305 L7.83604378,3.98674305 C9.07574257,4.8673836 9.36556959,6.58446346 8.48333994,7.82196312 L8.48333994,7.82196312 C7.94593256,8.57571968 7.09750702,8.9777277 6.23626508,8.9777277 L6.23626508,8.9777277 C5.68363399,8.9777277 5.1258153,8.81229453 4.6412332,8.46805952 L4.6412332,8.46805952 Z" id="Fill-1" stroke="#FF6E61" stroke-width="2" fill="#FF6E61" mask="url(#mask-4)"></path>
                        <rect id="Rectangle" fill="#FF6E61" mask="url(#mask-4)" x="2.67371674" y="3.0247542" width="7.12991131" height="6.40536184"></rect>
                    </g>
                    <g id="Group-3" transform="translate(24.979386, 5.849829) rotate(15.000000) translate(-24.979386, -5.849829) translate(20.504748, 1.370191)">
                        <mask id="mask-6" fill="white">
                            <use xlink:href="#path-5"></use>
                        </mask>
                        <g id="Clip-2"></g>
                        <path d="M4.48164695,-1.62968281e-12 L3.69680755,0.131997369 L2.91194414,0.263970765 L2.88874407,0.994942757 C2.57434239,1.13492326 2.27701653,1.31891886 2.00704561,1.54565899 L2.00704561,1.54565899 L1.33856678,1.24778988 L0.877111283,1.89509481 L0.41563177,2.54237577 L0.91659462,3.07520787 C0.790459288,3.40412249 0.713726161,3.74480804 0.684233741,4.08719569 L0.684233741,4.08719569 L-2.03482963e-13,4.34855336 L0.132235556,5.13200306 L0.264471111,5.91545275 L0.996738109,5.938635 C1.1369712,6.25247037 1.32127481,6.54923671 1.54842408,6.81872135 L1.54842408,6.81872135 L1.25001747,7.4859961 L1.89851447,7.94664438 L2.54698745,8.40726869 L3.080733,7.90720819 C3.41024114,8.0331403 3.75156546,8.10973521 4.09454693,8.13917451 L4.09454693,8.13917451 L4.35640023,8.82217579 L5.14126364,8.69017842 L5.92610304,8.55818105 L5.94932712,7.82723303 C6.2637288,7.68725253 6.56107868,7.50325692 6.8310496,7.2765168 L6.8310496,7.2765168 L7.49950441,7.57438591 L7.96095991,6.92708098 L8.42243942,6.27977604 L7.92147657,5.74696792 C8.04761191,5.41807727 8.12434503,5.07736775 8.15383745,4.73500407 L8.15383745,4.73500407 L8.83807119,4.47359845 L8.70585965,3.69014876 L8.5736241,2.90672303 L7.8413571,2.88354079 C7.70109999,2.56972939 7.51677237,2.27289113 7.2896231,2.00343047 L7.2896231,2.00343047 L7.58805372,1.33617969 L6.93958074,0.87555538 L6.29113178,0.414907096 L5.75731418,0.914967598 C5.42783005,0.789035491 5.08652975,0.712440577 4.74352426,0.683025254 L4.74352426,0.683025254 L4.48164695,-1.62968281e-12 Z M3.28754019,5.99820882 C2.4094202,5.37444574 2.20415008,4.15820481 2.82903873,3.28164255 L2.82903873,3.28164255 C3.4539514,2.40508029 4.67238701,2.20017991 5.55053101,2.82394299 L5.55053101,2.82394299 C6.42865099,3.44773005 6.63394513,4.66399495 6.00903246,5.54055721 L6.00903246,5.54055721 C5.6283689,6.07446811 5.02740081,6.35922379 4.41735443,6.35922379 L4.41735443,6.35922379 C4.02590741,6.35922379 3.63078584,6.24204196 3.28754019,5.99820882 L3.28754019,5.99820882 Z" id="Fill-1" stroke="#FF6E61" stroke-width="2" fill="#FF6E61" mask="url(#mask-6)"></path>
                        <rect id="Rectangle" fill="#FF6E61" mask="url(#mask-6)" x="1.89388269" y="2.14253423" width="5.05035384" height="4.53713131"></rect>
                    </g>
                </g>
            </g>
        </g>
    </g>
</svg>