<?xml version="1.0" encoding="UTF-8"?>
<svg width="249px" height="216px" viewBox="0 0 249 216" version="1.1" xmlns="http://www.w3.org/2000/svg" xmlns:xlink="http://www.w3.org/1999/xlink">
    <title>no_wishlist</title>
    <g id="illustrations" stroke="none" stroke-width="1" fill="none" fill-rule="evenodd">
        <g id="no_wishlist" transform="translate(1.000000, 0.000000)">
            <g id="imac" transform="translate(0.808490, 0.577615)">
                <path d="M240.003927,0.501845153 C243.317635,0.501845153 246.003927,3.18813665 246.003927,6.50184515 L246.003927,157.374459 C246.003927,167.315585 237.945052,175.374459 228.003927,175.374459 L18.2740205,175.374459 C8.33289504,175.374459 0.274020541,167.315585 0.274020541,157.374459 L0.274020541,6.50184515 C0.274020541,3.18813665 2.96031204,0.501845153 6.27402054,0.501845153 L240.003927,0.501845153 Z M236.261331,10.2169904 L8.93410535,10.2169904 L8.93410535,139.75226 L236.261331,139.75226 L236.261331,10.2169904 Z" id="Combined-Shape" stroke="#000000"></path>
                <path d="M101.427685,213.90733 C98.9581235,213.90733 96.6084505,212.847456 94.9800087,210.999295 C93.3515669,209.151133 92.6023966,206.693926 92.9242299,204.256535 L96.7444178,175.315418 L149.944072,175.315418 L153.560516,204.329775 C153.859573,206.756917 153.098853,209.195212 151.471162,211.026674 C149.84347,212.858136 147.50505,213.90733 145.048572,213.90733 L101.427685,213.90733 Z" id="Path" fill="#000000" fill-rule="nonzero"></path>
                <ellipse id="Oval" fill="#000000" fill-rule="nonzero" cx="123.910199" cy="163.052813" rx="6.79144518" ry="6.76062688"></ellipse>
            </g>
            <circle id="Oval" fill="#FF6E61" cx="108" cy="50" r="1"></circle>
            <circle id="Oval" fill="#FF6E61" cx="123" cy="56" r="1"></circle>
            <circle id="Oval" fill="#FF6E61" cx="138" cy="64" r="1"></circle>
            <circle id="Oval" fill="#FF6E61" cx="150" cy="78" r="1"></circle>
            <circle id="Oval" fill="#FF6E61" cx="159" cy="87" r="1"></circle>
            <path d="M120.158677,114.74666 C120.48343,114.74666 120.699932,115.070498 120.699932,115.28639 L120.699932,115.28639 L120.48343,117.877095 C120.48343,118.200934 120.266928,118.416826 119.942175,118.416826 L119.942175,118.416826 L119.848104,118.410457 C119.576286,118.372568 119.400919,118.16855 119.400919,117.877095 L119.400919,117.877095 L119.617421,115.28639 C119.617421,114.962552 119.833923,114.74666 120.158677,114.74666 Z M124.813472,42.0989627 C133.79831,42.0989627 141.484135,49.0075104 142.458395,57.8590871 C153.066999,59.6941701 162.051837,62.7166598 161.943586,65.9550415 C161.943586,69.5172614 141.375884,72.431805 139.427365,72.7556432 C138.994361,73.1874274 138.561357,73.5112656 138.128353,73.7271577 C138.128353,73.8351037 138.020102,73.8351037 137.911851,73.8351037 C136.179834,74.6986722 133.040553,75.3463485 129.143515,75.6701867 L129.143515,75.6701867 L131.525038,83.4423029 C131.633289,83.658195 131.525038,83.9820332 131.200285,84.0899793 L131.200285,84.0899793 L131.092034,84.0899793 C130.875532,84.0899793 130.659029,83.8740871 130.550778,83.658195 L130.550778,83.658195 L127.086745,72.2159129 C126.870242,72.2159129 126.545489,72.1079668 126.220736,72.1079668 L126.220736,72.1079668 L130.009523,111.940062 C130.009523,112.155954 129.793021,112.479793 129.468268,112.479793 L129.468268,112.479793 L129.374198,112.473424 C129.102379,112.435535 128.927013,112.231517 128.927013,111.940062 L128.927013,111.940062 L125.029974,71.8920747 L125.029974,71.8920747 L124.055715,71.8920747 L123.297957,81.1754357 C123.297957,81.4992739 123.081455,81.715166 122.756702,81.715166 L122.756702,81.715166 L122.662632,81.7087972 C122.390814,81.6709081 122.215447,81.46689 122.215447,81.1754357 L122.215447,81.1754357 L122.973204,72.0000207 C122.5402,72.1079668 122.215447,72.1079668 121.998945,72.2159129 L121.998945,72.2159129 L115.720383,96.3958299 C115.612132,96.719668 115.39563,96.8276141 115.179128,96.8276141 L115.179128,96.8276141 L115.070877,96.8276141 C114.746124,96.719668 114.529622,96.5037759 114.637873,96.1799378 L114.637873,96.1799378 L120.050426,75.5622407 C117.560651,75.4542946 115.503881,75.1304564 113.988366,74.8066183 C112.905856,74.5907261 112.148098,74.1589419 111.498592,73.7271577 L111.498592,73.7271577 L111.290758,73.636289 C110.79496,73.4016328 110.226642,73.012015 109.658324,72.539751 C105.653035,72.0000207 87.6833586,69.5172614 87.6833586,66.2788797 C87.6833586,65.7391494 87.8998608,65.1994191 88.4411161,64.6596888 C90.8226394,62.2848755 98.1837115,59.6941701 107.168549,58.0749793 C108.034558,49.1154564 115.720383,42.0989627 124.813472,42.0989627 Z M122.648451,83.550249 C122.973204,83.550249 123.189706,83.8740871 123.189706,84.0899793 L123.189706,84.0899793 L121.024685,111.832116 C121.024685,112.155954 120.808183,112.371846 120.48343,112.371846 L120.48343,112.371846 L120.38936,112.365478 C120.117541,112.327589 119.942175,112.123571 119.942175,111.832116 L119.942175,111.832116 L122.107196,84.0899793 C122.107196,83.7661411 122.323698,83.550249 122.648451,83.550249 Z M113.447111,100.821618 C113.555362,100.49778 113.771864,100.281888 114.096617,100.389834 C114.42137,100.49778 114.637873,100.821618 114.529622,101.03751 L114.529622,101.03751 L113.122358,106.434813 C113.014107,106.758651 112.797605,106.866598 112.581102,106.866598 L112.581102,106.866598 L112.472851,106.866598 C112.148098,106.758651 111.931596,106.542759 112.039847,106.218921 L112.039847,106.218921 Z M136.937591,103.088485 C137.154093,102.980539 137.478846,103.088485 137.587097,103.412324 L137.587097,103.412324 L138.128353,105.247407 C138.236604,105.463299 138.128353,105.787137 137.803599,105.895083 L137.803599,105.895083 L137.695348,105.895083 C137.478846,105.895083 137.262344,105.679191 137.154093,105.463299 L137.154093,105.463299 L136.612838,103.736162 C136.504587,103.52027 136.612838,103.196432 136.937591,103.088485 Z M133.040553,90.0270124 C133.257055,89.9190664 133.581808,90.0270124 133.690059,90.3508506 L133.690059,90.3508506 L136.721089,100.49778 C136.82934,100.821618 136.612838,101.03751 136.396336,101.253402 L136.396336,101.253402 L136.288085,101.253402 C136.071582,101.253402 135.85508,101.03751 135.746829,100.821618 L135.746829,100.821618 L132.7158,90.6746888 C132.607549,90.4587967 132.7158,90.1349585 133.040553,90.0270124 Z M124.813472,69.1934232 C115.936885,69.1934232 111.28209,70.9205602 111.28209,71.8920747 C111.28209,72.0000207 112.148098,73.0794813 114.204868,73.6192116 C115.612132,73.9430498 117.668902,74.266888 120.266928,74.374834 L120.266928,74.374834 L120.699932,72.7556432 C120.48343,72.6476971 120.375179,72.431805 120.375179,72.2159129 C120.375179,70.9205602 123.51446,70.8126141 124.813472,70.8126141 C126.328987,70.8126141 128.927013,71.0285062 128.927013,72.2159129 C128.927013,72.539751 128.71051,72.7556432 128.385757,72.7556432 L128.385757,72.7556432 L128.71051,74.374834 C132.7158,74.0509959 135.963331,73.4033195 137.587097,72.539751 L137.587097,72.539751 L137.803599,72.3238589 C138.128353,72.1079668 138.344855,71.8920747 138.344855,71.7841286 C138.344855,71.4602905 137.587097,70.704668 134.664319,70.0569917 C132.066293,69.5172614 128.602259,69.1934232 124.813472,69.1934232 Z M141.592387,68.761639 C140.401625,67.0345021 134.014812,65.3073651 125.029974,65.4153112 C120.48343,65.5232573 116.261639,65.9550415 113.014107,66.81861 C109.766575,67.6821784 108.575813,68.6536929 108.359311,69.3013693 C108.684064,69.7331535 109.441822,70.704668 110.416081,71.5682365 C111.28209,69.1934232 119.400919,68.2219087 124.921723,68.2219087 C128.71051,68.2219087 132.282795,68.5457469 134.989072,69.0854772 C137.478846,69.6252075 138.88611,70.2728838 139.535616,71.2443983 C140.293374,70.3808299 141.159382,69.4093154 141.592387,68.761639 Z M124.813472,57.4273029 C118.859664,57.4273029 113.014107,57.9670332 107.818056,58.9385477 L107.818056,58.9385477 L107.601554,58.9385477 L107.601554,58.9385477 L107.10172,59.0336032 C98.142093,60.7597137 91.2182478,63.2936805 89.1988735,65.3073651 C88.8741203,65.6312033 88.6576182,65.9550415 88.6576182,66.1709336 C88.6576182,67.2503942 96.9929498,69.6252075 108.359311,71.1364523 C107.601554,70.3808299 107.168549,69.8410996 107.168549,69.7331535 C107.060298,69.6252075 107.060298,69.5172614 107.060298,69.4093154 C107.060298,67.5742324 109.983077,66.3868257 112.472851,65.7391494 C115.828634,64.8755809 120.158677,64.3358506 124.813472,64.3358506 C132.7158,64.2279046 141.375884,65.7391494 142.566646,68.5457469 C142.566646,68.761639 142.566646,68.9775311 142.458395,69.0854772 C142.458395,69.0854772 142.358196,69.2282158 142.183823,69.461788 L142.039542,69.6531875 C141.724793,70.066805 141.257792,70.6556017 140.726378,71.2443983 C151.767986,69.6252075 160.969326,67.0345021 160.969326,65.8470954 C160.969326,63.0404979 144.190412,57.4273029 124.813472,57.4273029 Z M92.2299032,64.3358506 C92.6629074,64.1199585 92.9876606,64.0120124 93.4206648,64.1199585 C93.8536691,64.2279046 94.1784223,64.4437967 94.1784223,64.7676349 C94.3949244,65.1994191 94.3949244,65.5232573 94.3949244,65.9550415 C94.3949244,66.3868257 94.0701712,66.7106639 93.745418,66.926556 C93.5289159,67.0345021 93.3124138,67.1424481 92.9876606,67.1424481 L92.9876606,67.1424481 L92.6629074,67.1424481 C91.90515,66.926556 91.3638947,66.1709336 91.5803968,65.3073651 C91.5803968,64.8755809 91.90515,64.5517427 92.2299032,64.3358506 Z M154.582514,64.8755809 C154.799016,64.1199585 155.556773,63.5802282 156.422782,63.7961203 C156.855786,63.9040664 157.180539,63.9040664 157.397041,64.3358506 C157.613543,64.7676349 157.721795,65.091473 157.613543,65.5232573 C157.397041,66.2788797 156.747535,66.7106639 156.098029,66.7106639 L156.098029,66.7106639 L155.773275,66.7106639 C155.340271,66.7106639 155.015518,66.4947718 154.799016,66.0629876 C154.582514,65.6312033 154.474263,65.3073651 154.582514,64.8755809 Z M93.2041627,64.983527 L93.0959117,64.983527 C93.0688489,64.983527 93.0485518,64.9902736 93.0316376,65.0003935 L92.9436836,65.0746065 L92.9436836,65.0746065 L92.8794095,65.091473 C92.7711585,65.1994191 92.6629074,65.3073651 92.6629074,65.4153112 C92.5546564,65.5232573 92.5546564,65.6312033 92.6629074,65.7391494 C92.7711585,65.8470954 92.8794095,65.9550415 92.9876606,65.9550415 C93.0959117,66.0629876 93.2041627,66.0629876 93.3124138,65.9550415 C93.4206648,65.8470954 93.5289159,65.7391494 93.5289159,65.6312033 L93.5289159,65.6312033 L93.5289159,65.1994191 C93.4206648,65.091473 93.3124138,64.983527 93.2041627,64.983527 L93.2041627,64.983527 Z M156.20628,64.7676349 L156.098029,64.7676349 C156.070966,64.7676349 156.050669,64.7743815 156.033755,64.7845014 L155.945801,64.8587143 L155.945801,64.8587143 L155.881526,64.8755809 C155.773275,64.983527 155.665024,65.091473 155.665024,65.1994191 C155.556773,65.3073651 155.556773,65.4153112 155.665024,65.5232573 C155.773275,65.6312033 155.881526,65.7391494 155.989778,65.7391494 C156.20628,65.7391494 156.422782,65.6312033 156.531033,65.4153112 L156.531033,65.4153112 L156.531033,64.983527 C156.422782,64.8755809 156.314531,64.7676349 156.20628,64.7676349 L156.20628,64.7676349 Z M106.735545,60.6656846 C107.168549,60.4497925 107.493303,60.3418465 107.926307,60.4497925 C108.359311,60.5577386 108.575813,60.6656846 108.792315,61.0974689 C109.008817,61.5292531 109.117069,61.8530913 109.008817,62.2848755 C109.008817,62.7166598 108.684064,63.0404979 108.359311,63.25639 C108.142809,63.3643361 107.926307,63.4722822 107.601554,63.4722822 L107.601554,63.4722822 L107.276801,63.4722822 C106.843796,63.4722822 106.519043,63.148444 106.302541,62.8246058 C106.086039,62.3928216 106.086039,62.0689834 106.086039,61.6371992 C106.086039,61.2054149 106.410792,60.8815768 106.735545,60.6656846 Z M141.592387,61.5292531 C141.808889,60.7736307 142.566646,60.2339004 143.432655,60.4497925 C143.757408,60.5577386 144.082161,60.7736307 144.298663,60.9895228 C144.515165,61.4213071 144.623416,61.7451452 144.515165,62.1769295 C144.515165,62.6087137 144.190412,62.9325519 143.865659,63.148444 C143.649157,63.25639 143.432655,63.3643361 143.107901,63.3643361 L143.107901,63.3643361 L142.783148,63.3643361 C142.350144,63.3643361 142.025391,63.148444 141.808889,62.7166598 C141.592387,62.2848755 141.484135,61.9610373 141.592387,61.5292531 Z M107.709805,61.4213071 L107.601554,61.4213071 C107.574491,61.4213071 107.554194,61.4280537 107.53728,61.4381736 L107.449326,61.5123865 L107.449326,61.5123865 L107.385052,61.5292531 C107.357989,61.5562396 107.337692,61.5832261 107.320778,61.6102127 L107.232824,61.7721317 L107.232824,61.7721317 L107.168549,61.8530913 C107.060298,61.9610373 107.060298,62.0689834 107.168549,62.1769295 C107.276801,62.2848755 107.385052,62.3928216 107.493303,62.3928216 C107.601554,62.5007676 107.709805,62.5007676 107.818056,62.3928216 C107.926307,62.2848755 108.034558,62.1769295 108.034558,62.0689834 L108.034558,62.0689834 L108.034558,61.6371992 C107.926307,61.5292531 107.818056,61.4213071 107.709805,61.4213071 L107.709805,61.4213071 Z M143.107901,61.5292531 L142.99965,61.5292531 C142.783148,61.5292531 142.566646,61.6371992 142.566646,61.8530913 C142.458395,61.9610373 142.458395,62.0689834 142.566646,62.1769295 C142.674897,62.2848755 142.783148,62.3928216 142.891399,62.3928216 C142.99965,62.5007676 143.107901,62.5007676 143.216152,62.3928216 C143.324404,62.2848755 143.432655,62.1769295 143.432655,62.0689834 C143.540906,61.9610373 143.432655,61.8530913 143.324404,61.7451452 C143.324404,61.6371992 143.216152,61.5292531 143.107901,61.5292531 L143.107901,61.5292531 Z M123.406208,59.8021162 C123.622711,59.0464938 124.380468,58.5067635 125.246476,58.7226556 C125.679481,58.8306017 125.895983,58.8306017 126.112485,59.2623859 C126.328987,59.6941701 126.437238,60.0180083 126.328987,60.4497925 C126.112485,61.2054149 125.462979,61.6371992 124.813472,61.6371992 L124.813472,61.6371992 L124.488719,61.6371992 C123.730962,61.4213071 123.189706,60.5577386 123.406208,59.8021162 Z M125.029974,59.6941701 L124.921723,59.6941701 C124.705221,59.6941701 124.488719,59.8021162 124.488719,60.0180083 C124.380468,60.2339004 124.59697,60.4497925 124.813472,60.5577386 C125.029974,60.6656846 125.246476,60.4497925 125.354728,60.2339004 L125.354728,60.2339004 L125.354728,59.9100622 C125.246476,59.8021162 125.138225,59.6941701 125.029974,59.6941701 L125.029974,59.6941701 Z M124.813472,43.1784232 C116.36989,43.1784232 109.22532,49.5472407 108.25106,57.8590871 C113.555362,56.8875726 119.292668,56.3478423 124.813472,56.3478423 C130.117774,56.3478423 135.85508,56.8875726 141.375884,57.7511411 C140.293374,49.5472407 133.148804,43.1784232 124.813472,43.1784232 Z M137.370595,52.2458921 C137.587097,52.1379461 138.020102,52.2458921 138.128353,52.4617842 C138.453106,53.0015145 138.777859,53.5412448 138.994361,54.0809751 C139.210863,54.4048133 138.994361,54.7286515 138.777859,54.8365975 L138.777859,54.8365975 L138.561357,54.8365975 C138.344855,54.8365975 138.128353,54.7286515 138.020102,54.5127593 C137.695348,53.973029 137.478846,53.4332988 137.154093,53.0015145 C137.045842,52.7856224 137.154093,52.3538382 137.370595,52.2458921 Z M129.901272,45.8770747 C130.117774,45.6611826 130.442527,45.5532365 130.659029,45.6611826 C132.824051,46.7406432 134.77257,48.251888 136.396336,50.086971 C136.504587,50.3028631 136.504587,50.6267012 136.288085,50.8425934 C136.179834,50.9505394 136.071582,50.9505394 135.963331,50.9505394 C135.746829,50.9505394 135.638578,50.8425934 135.530327,50.7346473 C134.014812,49.0075104 132.174544,47.6042116 130.117774,46.6326971 C129.901272,46.524751 129.793021,46.2009129 129.901272,45.8770747 Z" id="Combined-Shape" fill="#000000" fill-rule="nonzero" transform="translate(124.813956, 80.257894) rotate(37.000000) translate(-124.813956, -80.257894) "></path>
            <g id="video" transform="translate(10.000000, 14.000000)" fill="#000000">
                <rect id="Rectangle" x="0" y="5" width="227" height="1"></rect>
                <g id="Group-4" transform="translate(2.707948, 0.152295)" fill-rule="nonzero">
                    <ellipse id="Oval" cx="1.68098914" cy="1.55397156" rx="1.68098914" ry="1.55397156"></ellipse>
                    <ellipse id="Oval" cx="7.47168751" cy="1.55397156" rx="1.68098914" ry="1.55397156"></ellipse>
                    <ellipse id="Oval" cx="13.2623859" cy="1.55397156" rx="1.68098914" ry="1.55397156"></ellipse>
                </g>
            </g>
            <g id="undraw_cancel_u1it" transform="translate(219.699364, 34.459555) rotate(45.000000) translate(-219.699364, -34.459555) translate(209.407698, 24.646277)">
                <ellipse id="Oval" fill="#FF6E61" cx="11.5881961" cy="9.05932049" rx="8.9787287" ry="8.93357604"></ellipse>
                <ellipse id="Oval" stroke="#000000" stroke-width="0.8" cx="8.9787287" cy="10.0130366" rx="8.9787287" ry="8.93357604"></ellipse>
            </g>
        </g>
    </g>
</svg>