<?xml version="1.0" encoding="UTF-8"?>
<svg width="261px" height="220px" viewBox="0 0 261 220" version="1.1" xmlns="http://www.w3.org/2000/svg" xmlns:xlink="http://www.w3.org/1999/xlink">
    <title>no-wishlist__dark</title>
    <defs>
        <filter x="-300.0%" y="-300.0%" width="700.0%" height="700.0%" filterUnits="objectBoundingBox" id="filter-1">
            <feGaussianBlur stdDeviation="1.78423237" in="SourceGraphic"></feGaussianBlur>
        </filter>
        <filter x="-300.0%" y="-300.0%" width="700.0%" height="700.0%" filterUnits="objectBoundingBox" id="filter-2">
            <feGaussianBlur stdDeviation="1.78423237" in="SourceGraphic"></feGaussianBlur>
        </filter>
        <filter x="-300.0%" y="-300.0%" width="700.0%" height="700.0%" filterUnits="objectBoundingBox" id="filter-3">
            <feGaussianBlur stdDeviation="1.78423237" in="SourceGraphic"></feGaussianBlur>
        </filter>
        <filter x="-300.0%" y="-300.0%" width="700.0%" height="700.0%" filterUnits="objectBoundingBox" id="filter-4">
            <feGaussianBlur stdDeviation="1.78423237" in="SourceGraphic"></feGaussianBlur>
        </filter>
        <filter x="-300.0%" y="-300.0%" width="700.0%" height="700.0%" filterUnits="objectBoundingBox" id="filter-5">
            <feGaussianBlur stdDeviation="1.78423237" in="SourceGraphic"></feGaussianBlur>
        </filter>
        <filter x="-104.7%" y="-104.9%" width="309.3%" height="309.7%" filterUnits="objectBoundingBox" id="filter-6">
            <feGaussianBlur stdDeviation="6.24481328" in="SourceGraphic"></feGaussianBlur>
        </filter>
    </defs>
    <g id="illustrations" stroke="none" stroke-width="1" fill="none" fill-rule="evenodd">
        <g id="no-wishlist__dark" transform="translate(1.000000, 5.000000)">
            <g id="imac" transform="translate(0.805950, 0.577615)">
                <path d="M239.878425,0.501845153 C242.834638,0.501845153 245.231122,2.89832927 245.231122,5.85454225 L245.231122,159.316368 C245.231122,168.185007 238.04167,175.374459 229.173031,175.374459 L16.331251,175.374459 C7.46261208,175.374459 0.273159724,168.185007 0.273159724,159.316368 L0.273159724,5.85454225 C0.273159724,2.89832927 2.66964384,0.501845153 5.62585682,0.501845153 L239.878425,0.501845153 Z M235.519133,10.2169904 L8.90603946,10.2169904 L8.90603946,139.75226 L235.519133,139.75226 L235.519133,10.2169904 Z" id="Combined-Shape" stroke="#414D86" stroke-width="0.892116183"></path>
                <path d="M101.109057,213.90733 C98.6472533,213.90733 96.3049617,212.847456 94.6816355,210.999295 C93.0583093,209.151133 92.3114925,206.693926 92.6323148,204.256535 L96.4405019,175.315418 L149.473033,175.315418 L153.078116,204.329775 C153.376234,206.756917 152.617904,209.195212 150.995326,211.026674 C149.372747,212.858136 147.041673,213.90733 144.592912,213.90733 L101.109057,213.90733 Z" id="Path" fill="#414D86" fill-rule="nonzero"></path>
                <ellipse id="Oval" fill="#414D86" fill-rule="nonzero" cx="123.520943" cy="163.052813" rx="6.77011032" ry="6.76062688"></ellipse>
            </g>
            <path d="M137.349225,47.5036969 C145.658372,47.5036969 152.780497,53.8725144 153.859607,62.0764148 C148.356146,61.2128463 142.636864,60.673116 137.349225,60.673116 C131.845764,60.673116 126.126481,61.2128463 120.838842,62.1843608 C121.810041,53.8725144 128.932167,47.5036969 137.349225,47.5036969 Z M147.492858,73.4107509 C144.795084,72.8710206 141.234021,72.5471824 137.457136,72.5471824 C131.953675,72.5471824 123.86035,73.5186969 122.997062,75.8935102 C122.025863,75.0299417 121.270486,74.0584272 120.946753,73.626643 C121.162575,72.9789666 122.349596,72.0074521 125.586926,71.1438836 C128.824256,70.2803152 133.032785,69.8485309 137.565047,69.7405849 C146.521659,69.6326388 152.888408,71.3597758 154.075429,73.0869127 C153.643785,73.734589 152.780497,74.7061036 152.02512,75.569672 C151.377654,74.5981575 149.974811,73.9504812 147.492858,73.4107509 Z M140.910288,77.0809168 C141.234021,77.0809168 141.449843,76.8650247 141.449843,76.5411866 C141.449843,75.3537799 138.859979,75.1378878 137.349225,75.1378878 C136.054293,75.1378878 132.924874,75.2458339 132.924874,76.5411866 C132.924874,76.7570787 133.032785,76.9729708 133.248607,77.0809168 L132.816963,78.7001077 C130.227099,78.5921617 128.17679,78.2683235 126.773947,77.9444853 C124.723638,77.404755 123.86035,76.3252944 123.86035,76.2173484 C123.86035,75.2458339 128.500523,73.5186969 137.349225,73.5186969 C141.12611,73.5186969 144.579262,73.8425351 147.169125,74.3822654 C150.082722,75.0299417 150.838099,75.7855641 150.838099,76.1094023 C150.838099,76.2173484 150.622277,76.4332405 150.298544,76.6491326 L150.082722,76.8650247 C148.464057,77.7285932 145.226728,78.3762695 141.234021,78.7001077 L140.910288,77.0809168 Z M153.212141,75.569672 C154.18334,74.4902114 154.938717,73.4107509 154.938717,73.4107509 C155.046628,73.3028048 155.046628,73.0869127 155.046628,72.8710206 C153.859607,70.0644231 145.226728,68.5531783 137.349225,68.6611243 C132.709052,68.6611243 128.392612,69.2008546 125.047371,70.0644231 C122.565418,70.7120994 119.651821,71.8995061 119.651821,73.734589 C119.651821,73.8425351 119.651821,73.9504812 119.759732,74.0584272 C119.759732,74.1663733 120.191376,74.7061036 120.946753,75.461726 C109.616099,73.9504812 101.306952,71.5756679 101.306952,70.4962073 C101.306952,70.2803152 101.522774,69.956477 101.846507,69.6326388 C103.896816,67.5816637 111.018942,64.9909583 120.191376,63.2638214 C120.191376,63.2638214 120.191376,63.2638214 120.191376,63.2638214 C120.299287,63.2638214 120.299287,63.2638214 120.407198,63.2638214 C125.586926,62.2923069 131.41412,61.7525766 137.349225,61.7525766 C156.665293,61.7525766 173.391498,67.3657716 173.391498,70.1723691 C173.391498,71.3597758 164.219063,73.9504812 153.212141,75.569672 Z" id="Combined-Shape" fill="#6F7CBD" fill-rule="nonzero" transform="translate(137.349225, 63.101902) rotate(37.000000) translate(-137.349225, -63.101902) "></path>
            <g id="Group" transform="translate(107.053942, 49.066390)" fill="#FF6E61">
                <circle id="Oval" filter="url(#filter-1)" cx="0.892116183" cy="0.892116183" r="1"></circle>
                <circle id="Oval" filter="url(#filter-2)" cx="15.1659751" cy="7.13692946" r="1"></circle>
                <circle id="Oval" filter="url(#filter-3)" cx="30.3319502" cy="15.1659751" r="1"></circle>
                <circle id="Oval" filter="url(#filter-4)" cx="42.8215768" cy="28.5477178" r="1"></circle>
                <circle id="Oval" filter="url(#filter-5)" cx="51.7427386" cy="38.3609959" r="1"></circle>
            </g>
            <g id="Group" transform="translate(107.053942, 49.066390)" fill="#FF6E61">
                <circle id="Oval" cx="0.892116183" cy="0.892116183" r="1"></circle>
                <circle id="Oval" cx="15.1659751" cy="7.13692946" r="1"></circle>
                <circle id="Oval" cx="30.3319502" cy="15.1659751" r="1"></circle>
                <circle id="Oval" cx="42.8215768" cy="28.5477178" r="1"></circle>
                <circle id="Oval" cx="51.7427386" cy="38.3609959" r="1"></circle>
            </g>
            <path d="M119.781206,114.74666 C120.104939,114.74666 120.320761,115.070498 120.320761,115.28639 L120.320761,115.28639 L120.104939,117.877095 C120.104939,118.200934 119.889117,118.416826 119.565384,118.416826 L119.565384,118.416826 L119.47161,118.410457 C119.200645,118.372568 119.025829,118.16855 119.025829,117.877095 L119.025829,117.877095 L119.241651,115.28639 C119.241651,114.962552 119.457473,114.74666 119.781206,114.74666 Z M124.421379,42.0989627 C133.377992,42.0989627 141.039673,49.0075104 142.010872,57.8590871 C152.586149,59.6941701 161.542762,62.7166598 161.434851,65.9550415 C161.434851,69.5172614 140.931762,72.431805 138.989364,72.7556432 C138.55772,73.1874274 138.126076,73.5112656 137.694432,73.7271577 C137.694432,73.8351037 137.586521,73.8351037 137.47861,73.8351037 C135.752034,74.6986722 132.622615,75.3463485 128.737819,75.6701867 L128.737819,75.6701867 L131.111861,83.4423029 C131.219772,83.658195 131.111861,83.9820332 130.788128,84.0899793 L130.788128,84.0899793 L130.680217,84.0899793 C130.464395,84.0899793 130.248573,83.8740871 130.140662,83.658195 L130.140662,83.658195 L126.68751,72.2159129 C126.471688,72.2159129 126.147955,72.1079668 125.824222,72.1079668 L125.824222,72.1079668 L129.601107,111.940062 C129.601107,112.155954 129.385285,112.479793 129.061552,112.479793 L129.061552,112.479793 L128.967777,112.473424 C128.696813,112.435535 128.521997,112.231517 128.521997,111.940062 L128.521997,111.940062 L124.637201,71.8920747 L124.637201,71.8920747 L123.666002,71.8920747 L122.910625,81.1754357 C122.910625,81.4992739 122.694803,81.715166 122.37107,81.715166 L122.37107,81.715166 L122.277296,81.7087972 C122.006331,81.6709081 121.831515,81.46689 121.831515,81.1754357 L121.831515,81.1754357 L122.586892,72.0000207 C122.155248,72.1079668 121.831515,72.1079668 121.615693,72.2159129 L121.615693,72.2159129 L115.356856,96.3958299 C115.248945,96.719668 115.033123,96.8276141 114.817301,96.8276141 L114.817301,96.8276141 L114.70939,96.8276141 C114.385657,96.719668 114.169835,96.5037759 114.277746,96.1799378 L114.277746,96.1799378 L119.673295,75.5622407 C117.191342,75.4542946 115.141034,75.1304564 113.63028,74.8066183 C112.55117,74.5907261 111.795793,74.1589419 111.148327,73.7271577 L111.148327,73.7271577 L110.941146,73.636289 C110.446905,73.4016328 109.880372,73.012015 109.31384,72.539751 C105.321133,72.0000207 87.4079074,69.5172614 87.4079074,66.2788797 C87.4079074,65.7391494 87.6237294,65.1994191 88.1632844,64.6596888 C90.5373263,62.2848755 97.8752741,59.6941701 106.831887,58.0749793 C107.695175,49.1154564 115.356856,42.0989627 124.421379,42.0989627 Z M122.263159,83.550249 C122.586892,83.550249 122.802714,83.8740871 122.802714,84.0899793 L122.802714,84.0899793 L120.644494,111.832116 C120.644494,112.155954 120.428672,112.371846 120.104939,112.371846 L120.104939,112.371846 L120.011165,112.365478 C119.7402,112.327589 119.565384,112.123571 119.565384,111.832116 L119.565384,111.832116 L121.723604,84.0899793 C121.723604,83.7661411 121.939426,83.550249 122.263159,83.550249 Z M113.090725,100.821618 C113.198636,100.49778 113.414458,100.281888 113.738191,100.389834 C114.061924,100.49778 114.277746,100.821618 114.169835,101.03751 L114.169835,101.03751 L112.766992,106.434813 C112.659081,106.758651 112.443259,106.866598 112.227437,106.866598 L112.227437,106.866598 L112.119526,106.866598 C111.795793,106.758651 111.579971,106.542759 111.687882,106.218921 L111.687882,106.218921 Z M136.507411,103.088485 C136.723233,102.980539 137.046966,103.088485 137.154877,103.412324 L137.154877,103.412324 L137.694432,105.247407 C137.802343,105.463299 137.694432,105.787137 137.370699,105.895083 L137.370699,105.895083 L137.262788,105.895083 C137.046966,105.895083 136.831144,105.679191 136.723233,105.463299 L136.723233,105.463299 L136.183678,103.736162 C136.075767,103.52027 136.183678,103.196432 136.507411,103.088485 Z M132.622615,90.0270124 C132.838437,89.9190664 133.16217,90.0270124 133.270081,90.3508506 L133.270081,90.3508506 L136.291589,100.49778 C136.3995,100.821618 136.183678,101.03751 135.967856,101.253402 L135.967856,101.253402 L135.859945,101.253402 C135.644123,101.253402 135.428301,101.03751 135.32039,100.821618 L135.32039,100.821618 L132.298882,90.6746888 C132.190971,90.4587967 132.298882,90.1349585 132.622615,90.0270124 Z M124.421379,69.1934232 C115.572678,69.1934232 110.932505,70.9205602 110.932505,71.8920747 C110.932505,72.0000207 111.795793,73.0794813 113.846102,73.6192116 C115.248945,73.9430498 117.299253,74.266888 119.889117,74.374834 L119.889117,74.374834 L120.320761,72.7556432 C120.104939,72.6476971 119.997028,72.431805 119.997028,72.2159129 C119.997028,70.9205602 123.126447,70.8126141 124.421379,70.8126141 C125.932133,70.8126141 128.521997,71.0285062 128.521997,72.2159129 C128.521997,72.539751 128.306175,72.7556432 127.982442,72.7556432 L127.982442,72.7556432 L128.306175,74.374834 C132.298882,74.0509959 135.536212,73.4033195 137.154877,72.539751 L137.154877,72.539751 L137.370699,72.3238589 C137.694432,72.1079668 137.910254,71.8920747 137.910254,71.7841286 C137.910254,71.4602905 137.154877,70.704668 134.24128,70.0569917 C131.651416,69.5172614 128.198264,69.1934232 124.421379,69.1934232 Z M141.147584,68.761639 C139.960563,67.0345021 133.593814,65.3073651 124.637201,65.4153112 C120.104939,65.5232573 115.896411,65.9550415 112.659081,66.81861 C109.421751,67.6821784 108.23473,68.6536929 108.018908,69.3013693 C108.342641,69.7331535 109.098018,70.704668 110.069217,71.5682365 C110.932505,69.1934232 119.025829,68.2219087 124.52929,68.2219087 C128.306175,68.2219087 131.867238,68.5457469 134.565013,69.0854772 C137.046966,69.6252075 138.449809,70.2728838 139.097275,71.2443983 C139.852652,70.3808299 140.71594,69.4093154 141.147584,68.761639 Z M124.421379,57.4273029 C118.486274,57.4273029 112.659081,57.9670332 107.479353,58.9385477 L107.479353,58.9385477 L107.263531,58.9385477 L107.263531,58.9385477 L106.765268,59.0336032 C97.8337863,60.7597137 90.9316919,63.2936805 88.9186613,65.3073651 C88.5949283,65.6312033 88.3791063,65.9550415 88.3791063,66.1709336 C88.3791063,66.5356162 89.3274659,67.0481432 91.0202993,67.6252688 L91.4407688,67.7649766 C94.8447801,68.8684023 100.822411,70.1766076 108.018908,71.1364523 C107.263531,70.3808299 106.831887,69.8410996 106.831887,69.7331535 C106.723976,69.6252075 106.723976,69.5172614 106.723976,69.4093154 C106.723976,67.5742324 109.637573,66.3868257 112.119526,65.7391494 C115.464767,64.8755809 119.781206,64.3358506 124.421379,64.3358506 C132.298882,64.2279046 140.931762,65.7391494 142.118783,68.5457469 C142.118783,68.761639 142.118783,68.9775311 142.010872,69.0854772 C142.010872,69.0854772 141.910987,69.2282158 141.737162,69.461788 L141.593335,69.6531875 C141.279574,70.066805 140.814041,70.6556017 140.284296,71.2443983 C151.291217,69.6252075 160.463652,67.0345021 160.463652,65.8470954 C160.463652,63.0404979 143.737448,57.4273029 124.421379,57.4273029 Z M91.9401692,64.3358506 C92.3718132,64.1199585 92.6955462,64.0120124 93.1271902,64.1199585 C93.5588342,64.2279046 93.8825672,64.4437967 93.8825672,64.7676349 C94.0983892,65.1994191 94.0983892,65.5232573 94.0983892,65.9550415 C94.0983892,66.3868257 93.7746562,66.7106639 93.4509232,66.926556 C93.2351012,67.0345021 93.0192792,67.1424481 92.6955462,67.1424481 L92.6955462,67.1424481 L92.3718132,67.1424481 C91.6164362,66.926556 91.0768813,66.1709336 91.2927033,65.3073651 C91.2927033,64.8755809 91.6164362,64.5517427 91.9401692,64.3358506 Z M154.096903,64.8755809 C154.312725,64.1199585 155.068102,63.5802282 155.93139,63.7961203 C156.363034,63.9040664 156.686767,63.9040664 156.902589,64.3358506 C157.118411,64.7676349 157.226322,65.091473 157.118411,65.5232573 C156.902589,66.2788797 156.255123,66.7106639 155.607657,66.7106639 L155.607657,66.7106639 L155.283924,66.7106639 C154.85228,66.7106639 154.528547,66.4947718 154.312725,66.0629876 C154.096903,65.6312033 153.988992,65.3073651 154.096903,64.8755809 Z M92.9113682,64.983527 L92.8034572,64.983527 C92.7764795,64.983527 92.7562461,64.9902736 92.7393851,65.0003935 L92.6517074,65.0746065 L92.6517074,65.0746065 L92.5876352,65.091473 C92.4797242,65.1994191 92.3718132,65.3073651 92.3718132,65.4153112 C92.2639022,65.5232573 92.2639022,65.6312033 92.3718132,65.7391494 C92.4797242,65.8470954 92.5876352,65.9550415 92.6955462,65.9550415 C92.8034572,66.0629876 92.9113682,66.0629876 93.0192792,65.9550415 C93.1271902,65.8470954 93.2351012,65.7391494 93.2351012,65.6312033 L93.2351012,65.6312033 L93.2351012,65.1994191 C93.1271902,65.091473 93.0192792,64.983527 92.9113682,64.983527 L92.9113682,64.983527 Z M155.715568,64.7676349 L155.607657,64.7676349 C155.499746,64.7676349 155.499746,64.8755809 155.391835,64.8755809 C155.283924,64.983527 155.176013,65.091473 155.176013,65.1994191 C155.068102,65.3073651 155.068102,65.4153112 155.176013,65.5232573 C155.283924,65.6312033 155.391835,65.7391494 155.499746,65.7391494 C155.715568,65.7391494 155.93139,65.6312033 156.039301,65.4153112 L156.039301,65.4153112 L156.039301,64.983527 C155.93139,64.8755809 155.823479,64.7676349 155.715568,64.7676349 L155.715568,64.7676349 Z M106.400243,60.6656846 C106.831887,60.4497925 107.15562,60.3418465 107.587264,60.4497925 C108.018908,60.5577386 108.23473,60.6656846 108.450552,61.0974689 C108.666374,61.5292531 108.774285,61.8530913 108.666374,62.2848755 C108.666374,62.7166598 108.342641,63.0404979 108.018908,63.25639 C107.803086,63.3643361 107.587264,63.4722822 107.263531,63.4722822 L107.263531,63.4722822 L106.939798,63.4722822 C106.508154,63.4722822 106.184421,63.148444 105.968599,62.8246058 C105.752777,62.3928216 105.752777,62.0689834 105.752777,61.6371992 C105.752777,61.2054149 106.07651,60.8815768 106.400243,60.6656846 Z M141.147584,61.5292531 C141.363406,60.7736307 142.118783,60.2339004 142.982071,60.4497925 C143.305804,60.5577386 143.629537,60.7736307 143.845359,60.9895228 C144.061181,61.4213071 144.169092,61.7451452 144.061181,62.1769295 C144.061181,62.6087137 143.737448,62.9325519 143.413715,63.148444 C143.197893,63.25639 142.982071,63.3643361 142.658338,63.3643361 L142.658338,63.3643361 L142.334605,63.3643361 C141.902961,63.3643361 141.579228,63.148444 141.363406,62.7166598 C141.147584,62.2848755 141.039673,61.9610373 141.147584,61.5292531 Z M107.371442,61.4213071 L107.263531,61.4213071 C107.236553,61.4213071 107.21632,61.4280537 107.199459,61.4381736 L107.111781,61.5123865 L107.111781,61.5123865 L107.047709,61.5292531 C106.939798,61.6371992 106.939798,61.7451452 106.831887,61.8530913 C106.723976,61.9610373 106.723976,62.0689834 106.831887,62.1769295 C106.939798,62.2848755 107.047709,62.3928216 107.15562,62.3928216 C107.263531,62.5007676 107.371442,62.5007676 107.479353,62.3928216 C107.587264,62.2848755 107.695175,62.1769295 107.695175,62.0689834 L107.695175,62.0689834 L107.695175,61.6371992 C107.587264,61.5292531 107.479353,61.4213071 107.371442,61.4213071 L107.371442,61.4213071 Z M142.658338,61.5292531 L142.550427,61.5292531 C142.334605,61.5292531 142.118783,61.6371992 142.118783,61.8530913 C142.010872,61.9610373 142.010872,62.0689834 142.118783,62.1769295 C142.226694,62.2848755 142.334605,62.3928216 142.442516,62.3928216 C142.550427,62.5007676 142.658338,62.5007676 142.766249,62.3928216 C142.87416,62.2848755 142.982071,62.1769295 142.982071,62.0689834 C143.089982,61.9610373 142.982071,61.8530913 142.87416,61.7451452 C142.87416,61.6371992 142.766249,61.5292531 142.658338,61.5292531 L142.658338,61.5292531 Z M123.018536,59.8021162 C123.234358,59.0464938 123.989735,58.5067635 124.853023,58.7226556 C125.284667,58.8306017 125.500489,58.8306017 125.716311,59.2623859 C125.932133,59.6941701 126.040044,60.0180083 125.932133,60.4497925 C125.716311,61.2054149 125.068845,61.6371992 124.421379,61.6371992 L124.421379,61.6371992 L124.097646,61.6371992 C123.342269,61.4213071 122.802714,60.5577386 123.018536,59.8021162 Z M124.637201,59.6941701 L124.52929,59.6941701 C124.313468,59.6941701 124.097646,59.8021162 124.097646,60.0180083 C123.989735,60.2339004 124.205557,60.4497925 124.421379,60.5577386 C124.637201,60.6656846 124.853023,60.4497925 124.960934,60.2339004 L124.960934,60.2339004 L124.960934,59.9100622 C124.853023,59.8021162 124.745112,59.6941701 124.637201,59.6941701 L124.637201,59.6941701 Z M124.421379,43.1784232 C116.004322,43.1784232 108.882196,49.5472407 107.910997,57.8590871 C113.198636,56.8875726 118.917918,56.3478423 124.421379,56.3478423 C129.709018,56.3478423 135.428301,56.8875726 140.931762,57.7511411 C139.852652,49.5472407 132.730526,43.1784232 124.421379,43.1784232 Z M136.939055,52.2458921 C137.154877,52.1379461 137.586521,52.2458921 137.694432,52.4617842 C138.018165,53.0015145 138.341898,53.5412448 138.55772,54.0809751 C138.773542,54.4048133 138.55772,54.7286515 138.341898,54.8365975 L138.341898,54.8365975 L138.126076,54.8365975 C137.910254,54.8365975 137.694432,54.7286515 137.586521,54.5127593 C137.262788,53.973029 137.046966,53.4332988 136.723233,53.0015145 C136.615322,52.7856224 136.723233,52.3538382 136.939055,52.2458921 Z M129.493196,45.8770747 C129.709018,45.6611826 130.032751,45.5532365 130.248573,45.6611826 C132.406793,46.7406432 134.349191,48.251888 135.967856,50.086971 C136.075767,50.3028631 136.075767,50.6267012 135.859945,50.8425934 C135.752034,50.9505394 135.644123,50.9505394 135.536212,50.9505394 C135.32039,50.9505394 135.212479,50.8425934 135.104568,50.7346473 C133.593814,49.0075104 131.759327,47.6042116 129.709018,46.6326971 C129.493196,46.524751 129.385285,46.2009129 129.493196,45.8770747 Z" id="Combined-Shape" fill="#414D86" fill-rule="nonzero" transform="translate(124.421862, 80.257894) rotate(37.000000) translate(-124.421862, -80.257894) "></path>
            <g id="video" transform="translate(9.813278, 13.381743)" fill="#414D86">
                <rect id="Rectangle" x="0" y="5.20401107" width="226.59751" height="1.04080221"></rect>
                <g id="Group-4" transform="translate(2.703147, 0.158509)" fill-rule="nonzero">
                    <ellipse id="Oval" cx="1.67800861" cy="1.61737704" rx="1.67800861" ry="1.61737704"></ellipse>
                    <ellipse id="Oval" cx="7.45843959" cy="1.61737704" rx="1.67800861" ry="1.61737704"></ellipse>
                    <ellipse id="Oval" cx="13.2388706" cy="1.61737704" rx="1.67800861" ry="1.61737704"></ellipse>
                </g>
            </g>
            <g id="undraw_cancel_u1it" transform="translate(219.400890, 34.408209) rotate(45.000000) translate(-219.400890, -34.408209) translate(208.900890, 24.908209)">
                <ellipse id="Oval" fill="#FF6E61" filter="url(#filter-6)" cx="11.5517926" cy="9.05932049" rx="8.95052264" ry="8.93357604"></ellipse>
                <ellipse id="Oval" fill="#FF6E61" cx="11.5517926" cy="9.05932049" rx="8.95052264" ry="8.93357604"></ellipse>
                <ellipse id="Oval" stroke="#414D86" stroke-width="0.713692946" cx="8.95052264" cy="10.0130366" rx="8.95052264" ry="8.93357604"></ellipse>
            </g>
            <path d="M219.737752,30.3319502 C218.88432,30.3319502 218.108585,30.789949 217.67594,31.5386952 C217.244112,30.7903579 216.468786,30.3319502 215.614945,30.3319502 C214.292065,30.3319502 213.215768,31.4413705 213.215768,32.8047347 C213.215768,34.6723064 215.572826,36.4400999 216.981581,37.4959507 C217.228164,37.6811948 217.44694,37.8451747 217.620734,37.9850279 C217.636683,37.9981136 217.656311,38.0046564 217.676349,38.0046564 C217.696386,38.0046564 217.715606,37.9981136 217.731963,37.9850279 C217.905757,37.8451747 218.124124,37.6811948 218.371116,37.4959507 C219.779871,36.439691 222.136929,34.6718975 222.136929,32.8047347 C222.136112,31.4413705 221.060223,30.3319502 219.737752,30.3319502 Z M218.264386,37.3544618 C218.041521,37.5217131 217.841146,37.6721984 217.67594,37.8030552 C217.510733,37.6721984 217.310358,37.5217131 217.087493,37.3544618 C215.705318,36.3182395 213.392424,34.5835692 213.392424,32.8047347 C213.392424,31.5386952 214.389389,30.5090158 215.614945,30.5090158 C216.456109,30.5090158 217.215078,30.9903234 217.597017,31.765241 C217.611329,31.7955016 217.641999,31.8147212 217.67594,31.8147212 C217.709881,31.8147212 217.740141,31.7955016 217.755272,31.765241 C218.137619,30.9903234 218.896997,30.5090158 219.737752,30.5090158 C220.962899,30.5090158 221.959864,31.5386952 221.959864,32.8047347 C221.959455,34.5839781 219.646561,36.3182395 218.264386,37.3544618 Z" id="Shape" stroke="#141424" stroke-width="0.5" fill="#131424" fill-rule="nonzero" stroke-linejoin="round"></path>
        </g>
    </g>
</svg>