<?xml version="1.0" encoding="UTF-8"?>
<svg width="116px" height="107px" viewBox="0 0 116 107" version="1.1" xmlns="http://www.w3.org/2000/svg" xmlns:xlink="http://www.w3.org/1999/xlink">
    <title>illu</title>
    <defs>
        <filter x="-75.0%" y="-75.0%" width="250.0%" height="250.0%" filterUnits="objectBoundingBox" id="filter-1">
            <feGaussianBlur stdDeviation="5" in="SourceGraphic"></feGaussianBlur>
        </filter>
    </defs>
    <g id="Add-movie-form-blue" stroke="none" stroke-width="1" fill="none" fill-rule="evenodd">
        <g id="0-AddFilm-Overview" transform="translate(-811.000000, -439.000000)">
            <g id="page-content" transform="translate(304.000000, 156.000000)">
                <g id="form-group" transform="translate(0.000000, 102.000000)">
                    <g id="status_options" transform="translate(16.000000, 174.000000)">
                        <g id="status_postProduction" transform="translate(434.000000, 0.000000)">
                            <g id="illu" transform="translate(57.458780, 24.000000)">
                                <circle id="Oval-Copy-6" stroke="#404B8A" stroke-width="1.5" cx="44.5" cy="45.5" r="43.75"></circle>
                                <g id="Group-4" transform="translate(77.424646, 16.150686) rotate(119.000000) translate(-77.424646, -16.150686) translate(66.424646, 3.150686)">
                                    <g id="Group-13" transform="translate(1.000000, 0.000000)" fill="#8DA4FA">
                                        <circle id="Oval" filter="url(#filter-1)" cx="10.5913111" cy="10.2522381" r="10"></circle>
                                        <circle id="Oval-Copy-8" cx="10.5913111" cy="10.2522381" r="10"></circle>
                                    </g>
                                    <g id="scissors" transform="translate(10.275129, 14.942443) rotate(21.000000) translate(-10.275129, -14.942443) translate(2.775129, 6.942443)" fill="#010314" fill-rule="nonzero">
                                        <path d="M14.5438177,3.46364378 C13.8969195,2.53338788 12.6107246,2.28823447 11.6866976,2.93960908 L6.93550395,6.28940585 L5.20784439,5.0711828 C5.85113323,3.9528493 5.5485474,2.50568973 4.47749308,1.75062602 C3.3464466,0.953436888 1.78809948,1.230088 0.996060696,2.36874082 C0.204377376,3.50744871 0.478908531,5.07690965 1.60998236,5.87442918 C2.38610709,6.42161909 3.36372784,6.46264319 4.15647757,6.06666426 L6.27255496,7.55853734 L4.15666898,9.05024522 C3.36391925,8.65445901 2.38635318,8.69548311 1.61017376,9.2424803 C0.479154625,10.0399998 0.204596126,11.6092956 0.996252102,12.7479759 C1.78829089,13.8868215 3.34680207,14.1634726 4.47765715,13.3662835 C5.54857474,12.6112197 5.85110589,11.1640602 5.20800845,10.0457267 L6.93566801,8.82750362 L11.6866703,12.1771077 C12.6106973,12.828675 13.8968922,12.5833564 14.5438177,11.653073 L8.73570645,7.5585098 L14.5438177,3.46364378 Z M3.04924748,5.12288968 C2.33357976,5.12288968 1.75337293,4.53866794 1.75337293,3.81804796 C1.75337293,3.09742797 2.33360711,2.51320623 3.04924748,2.51320623 C3.76507927,2.51320623 4.34512203,3.09742797 4.34512203,3.81804796 C4.34512203,4.53866794 3.76507927,5.12288968 3.04924748,5.12288968 Z M3.04924748,12.6039786 C2.33357976,12.6039786 1.75337293,12.0197568 1.75337293,11.2991368 C1.75337293,10.5785169 2.33357976,9.99429512 3.04924748,9.99429512 C3.76507927,9.99429512 4.34512203,10.5785169 4.34512203,11.2991368 C4.34512203,12.0197293 3.76507927,12.6039786 3.04924748,12.6039786 Z" id="Shape" transform="translate(7.543818, 7.558449) rotate(85.000000) translate(-7.543818, -7.558449) "></path>
                                    </g>
                                </g>
                                <g id="movie" opacity="0.234514509" transform="translate(31.541220, 49.000000) rotate(90.000000) translate(-31.541220, -49.000000) translate(9.541220, 30.000000)" fill="#6F7CBD" fill-rule="nonzero">
                                    <polygon id="Path" points="0 32.6764133 3 32.6764133 3 37.6764133 0 37.6764133"></polygon>
                                    <polygon id="Path" points="18 0.676413255 21 0.676413255 21 5.67641326 18 5.67641326"></polygon>
                                    <polygon id="Path" points="23 0.676413255 26 0.676413255 26 5.67641326 23 5.67641326"></polygon>
                                    <polygon id="Path" points="6 32.6764133 9 32.6764133 9 37.6764133 6 37.6764133"></polygon>
                                    <polygon id="Shape" points="0 8.67641326 0 29.6764133 44 29.6764133 44 8.67641326"></polygon>
                                    <polygon id="Path" points="6 0.676413255 9 0.676413255 9 5.67641326 6 5.67641326"></polygon>
                                    <polygon id="Path" points="12 32.6764133 15 32.6764133 15 37.6764133 12 37.6764133"></polygon>
                                    <polygon id="Path" points="12 0.676413255 15 0.676413255 15 5.67641326 12 5.67641326"></polygon>
                                    <polygon id="Path" points="0 0.676413255 3 0.676413255 3 5.67641326 0 5.67641326"></polygon>
                                    <polygon id="Path" points="41 32.6764133 44 32.6764133 44 37.6764133 41 37.6764133"></polygon>
                                    <polygon id="Path" points="41 0.676413255 44 0.676413255 44 5.67641326 41 5.67641326"></polygon>
                                    <polygon id="Path" points="29 32.6764133 32 32.6764133 32 37.6764133 29 37.6764133"></polygon>
                                    <polygon id="Path" points="35 0.676413255 38 0.676413255 38 5.67641326 35 5.67641326"></polygon>
                                    <polygon id="Path" points="35 32.6764133 38 32.6764133 38 37.6764133 35 37.6764133"></polygon>
                                    <polygon id="Path" points="29 0.676413255 32 0.676413255 32 5.67641326 29 5.67641326"></polygon>
                                    <polygon id="Path" points="23 32.6764133 26 32.6764133 26 37.6764133 23 37.6764133"></polygon>
                                    <polygon id="Path" points="18 32.6764133 21 32.6764133 21 37.6764133 18 37.6764133"></polygon>
                                </g>
                                <circle id="Oval" fill="#FF6E61" cx="48.0412197" cy="55.5" r="8.5"></circle>
                                <g id="film-reel" transform="translate(24.541220, 31.000000)" fill="#404B8A" fill-rule="nonzero">
                                    <path d="M29,12 C29,9.24296296 26.5327407,7 23.5,7 C20.4672593,7 18,9.24296296 18,12 C18,14.757037 20.4672593,17 23.5,17 C26.5327407,17 29,14.757037 29,12 Z M20.037037,12 C20.037037,10.2640741 21.5904815,8.85185185 23.5,8.85185185 C25.4095185,8.85185185 26.962963,10.2640741 26.962963,12 C26.962963,13.7359259 25.4095185,15.1481481 23.5,15.1481481 C21.5904815,15.1481481 20.037037,13.7359259 20.037037,12 Z" id="XMLID_1469_"></path>
                                    <path d="M13.9956518,24.452836 C15.3039866,23.8467994 16.2743679,22.8138435 16.7281969,21.5443787 C17.181924,20.2748213 17.0647247,18.9205651 16.3980839,17.7312634 C15.7314431,16.5418691 14.5951907,15.659705 13.1987783,15.2471335 C11.8021623,14.8345621 10.3125811,14.9411994 9.00434817,15.547236 C7.69601343,16.1532726 6.72563207,17.1862285 6.27180314,18.4556933 C5.81807603,19.7252507 5.93527529,21.0795069 6.60191609,22.2688086 C7.26855688,23.4582029 8.4048093,24.340367 9.80122168,24.7529385 C10.3604383,24.9180781 10.9344194,25 11.505753,25 C12.3613789,25 13.211099,24.8162543 13.9956518,24.452836 L13.9956518,24.452836 Z M10.4304931,22.9922202 C9.55134593,22.7325696 8.83603334,22.1771672 8.4163154,21.4283922 C7.99659746,20.6796171 7.92277516,19.8270744 8.2084929,19.0278504 C8.49410882,18.2286263 9.10505197,17.5783426 9.92870515,17.1967812 C10.4226527,16.9679554 10.9575334,16.8522465 11.4962834,16.8522465 C11.8559253,16.8522465 12.2174,16.903899 12.5694051,17.0078518 C13.4485522,17.2675024 14.1638648,17.8229048 14.5835828,18.5716798 C15.0033007,19.3204549 15.077123,20.1729976 14.7914053,20.9722216 C14.5057894,21.7714457 13.8948462,22.4217294 13.071193,22.8032908 C12.247438,23.1847597 11.3096403,23.2518709 10.4304931,22.9922202 Z" id="XMLID_1605_"></path>
                                    <path d="M12.2653583,37.0468261 C13.2395944,37.6902393 14.370295,38 15.4911147,38 C17.1934812,38 18.8734375,37.2855594 19.9483161,35.9405776 C20.8119269,34.8599804 21.1609161,33.5384274 20.931007,32.2191895 C20.7010979,30.8999516 19.9199977,29.7411039 18.7313359,28.956099 C17.5426742,28.1710941 16.0891637,27.8536473 14.6377923,28.0627473 C13.1866247,28.2716622 11.9118871,28.981843 11.0483781,30.0623475 C9.26584392,32.2929023 9.81173802,35.4261618 12.2653583,37.0468261 L12.2653583,37.0468261 Z M12.6967563,31.1510013 C13.2404093,30.470639 14.043003,30.0235464 14.9566295,29.891956 C15.1400882,29.8655638 15.3235469,29.8525067 15.5057833,29.8525067 C16.2310615,29.8525067 16.9359667,30.0594768 17.5340157,30.4545259 C19.078899,31.4749304 19.4225913,33.4475828 18.3001417,34.8520164 C17.1776922,36.2563575 15.0077657,36.5688963 13.4628823,35.5484918 C11.9179989,34.5280873 11.5743067,32.5553423 12.6967563,31.1510013 Z" id="XMLID_1609_"></path>
                                    <path d="M30.5088405,38 C31.6296531,38 32.7606522,37.6901445 33.7346784,37.0468193 C36.1882831,35.4261435 36.7341738,32.2928617 34.951549,30.062291 C34.0879437,28.9817787 32.8132141,28.2715929 31.3621576,28.0626765 C29.9109991,27.8537602 28.4572941,28.1710241 27.2686399,28.9560346 C26.0799856,29.7410451 25.2988904,30.8999936 25.0689827,32.2191483 C24.8390751,33.538303 25.1881639,34.859958 26.0516674,35.9405629 C27.1267429,37.2857395 28.8062811,38 30.5088405,38 L30.5088405,38 Z M28.4660544,30.4544721 C29.2143493,29.9601479 30.1292943,29.7602143 31.0433224,29.8918982 C31.9569431,30.0234896 32.7595317,30.4705853 33.3031813,31.1509524 C34.4256237,32.5553961 34.0819337,34.5280626 32.5370601,35.5484744 C30.9921865,36.5688861 28.8221719,36.2564377 27.6998313,34.851994 C26.5774908,33.4475503 26.9211808,31.4747913 28.4660544,30.4544721 L28.4660544,30.4544721 Z" id="XMLID_1659_"></path>
                                    <path d="M33.8012217,15.2469825 C32.4047075,15.6595564 31.2684551,16.5417258 30.6019161,17.7311272 C29.9352753,18.9205287 29.818076,20.2747004 30.2718031,21.5442654 C30.7256321,22.8138304 31.6960134,23.8467925 33.0043482,24.4527402 C33.788901,24.8161607 34.6385193,25 35.494247,25 C36.0655806,25 36.6397653,24.9179851 37.1987783,24.752937 C38.5952925,24.3403631 39.7315449,23.4581936 40.3980839,22.2687922 C41.0647247,21.0793908 41.181924,19.725219 40.7281969,18.455654 C40.2743679,17.1860891 39.3039866,16.1531269 37.9956518,15.5471793 C36.6874189,14.941139 35.1977359,14.8346863 33.8012217,15.2469825 L33.8012217,15.2469825 Z M37.071193,17.1967344 C37.8948462,17.5782981 38.5057894,18.2284931 38.7914053,19.0278145 C39.077123,19.8270434 39.0033007,20.6795912 38.5835828,21.4283708 C38.1638648,22.1771503 37.4486541,22.732556 36.5694051,22.9922082 C35.6901561,23.2518604 34.7524602,23.1848414 33.928807,22.8032777 C33.1051538,22.4217139 32.4942106,21.7715189 32.2085947,20.9721975 C31.922877,20.1729686 31.9966993,19.3204208 32.4164172,18.5716413 C32.8361352,17.8228618 33.5513459,17.267456 34.4305949,17.0078038 C34.7826,16.9037578 35.1439729,16.8521976 35.5037166,16.8521976 C36.0423648,16.8521976 36.5772455,16.9679072 37.071193,17.1967344 Z" id="XMLID_1678_"></path>
                                    <path d="M27,24.5 C27,22.5700601 25.4299399,21 23.5,21 C21.5700601,21 20,22.5700601 20,24.5 C20,26.4299399 21.5700601,28 23.5,28 C25.4299399,28 27,26.4299399 27,24.5 Z M22.0412924,24.5 C22.0412924,23.6956287 22.6956287,23.0412924 23.5,23.0412924 C24.3043713,23.0412924 24.9587076,23.6956287 24.9587076,24.5 C24.9587076,25.3043713 24.3043713,25.9587076 23.5,25.9587076 C22.6956287,25.9587076 22.0412924,25.3043713 22.0412924,24.5 L22.0412924,24.5 Z" id="XMLID_1713_"></path>
                                    <path d="M52.6968285,42.5621943 C51.5262732,41.4017664 49.9700185,40.7627511 48.3145959,40.7627511 C46.6592767,40.7627511 45.103022,41.401869 43.9324668,42.5621943 C42.3807668,44.1004694 40.3176994,44.9475983 38.1233741,44.9475983 L33.4217956,44.9475983 C36.0131035,43.7926092 38.3978977,42.1682358 40.4670725,40.1169629 C44.944436,35.6784389 47.4101794,29.7770655 47.4101794,23.5 C47.4101794,18.9087773 46.0742061,14.4607096 43.5466638,10.6366747 C43.2334254,10.1625699 42.5916282,10.0300873 42.1134893,10.3407183 C41.6352469,10.6513493 41.5016082,11.2874913 41.8149501,11.7614934 C44.1209688,15.2503712 45.3398659,19.3095087 45.3398659,23.5 C45.3398659,35.3262467 35.6345467,44.9475983 23.7050897,44.9475983 C11.7756327,44.9475983 2.07031351,35.3262467 2.07031351,23.5 C2.07031351,11.6737533 11.7756327,2.05240175 23.7050897,2.05240175 C27.9392949,2.05240175 32.0397578,3.26455022 35.5630174,5.55790393 C36.0408457,5.86904803 36.6826429,5.73718122 36.9965024,5.26328166 C37.3102585,4.78948472 37.1772408,4.15334279 36.6993089,3.84219869 C32.8375531,1.32862227 28.3441447,0 23.7050897,0 C17.3732429,0 11.4203669,2.44441048 6.94310691,6.88303712 C2.46584691,11.3216638 0,17.2229345 0,23.5 C0,29.7770655 2.46574339,35.6784389 6.94310691,40.1170655 C11.4203669,44.5555895 17.3732429,47 23.7050897,47 L38.1233741,47 C40.8707836,47 43.4537068,45.9394214 45.3963854,44.0134476 C46.1758585,43.2407183 47.2122574,42.8150502 48.3145959,42.8150502 C49.4169343,42.8150502 50.4533332,43.2406157 51.2328063,44.0134476 C51.637035,44.414179 52.2924962,44.414179 52.6968285,44.0134476 C53.1010572,43.6127162 53.1010572,42.9629258 52.6968285,42.5621943 Z" id="XMLID_1768_"></path>
                                </g>
                            </g>
                        </g>
                    </g>
                </g>
            </g>
        </g>
    </g>
</svg>