<?xml version="1.0" encoding="UTF-8"?>
<svg width="103px" height="89px" viewBox="0 0 103 89" version="1.1" xmlns="http://www.w3.org/2000/svg" xmlns:xlink="http://www.w3.org/1999/xlink">
    <title>illu</title>
    <defs>
        <filter x="-45.0%" y="-45.0%" width="190.0%" height="190.0%" filterUnits="objectBoundingBox" id="filter-1">
            <feGaussianBlur stdDeviation="3" in="SourceGraphic"></feGaussianBlur>
        </filter>
        <path d="M0.0065,1.14705882 L0,8.02941176 C0,8.66029412 0.585,9.17647059 1.3,9.17647059 L11.7,9.17647059 C12.415,9.17647059 13,8.66029412 13,8.02941176 L13,0 L10.4,0 L11.7,2.29411765 L9.75,2.29411765 L8.45,0 L7.15,0 L8.45,2.29411765 L6.5,2.29411765 L5.2,0 L3.9,0 L5.2,2.29411765 L3.25,2.29411765 L1.95,0 L1.3,0 C0.585,0 0.0065,0.516176471 0.0065,1.14705882 Z M1.3,1.41661765 L2.444,3.44117647 L11.7,3.44117647 L11.7,8.02941176 L1.3,8.02941176 L1.3,1.41661765 Z" id="path-2"></path>
        <filter x="0.0%" y="0.0%" width="100.0%" height="100.0%" filterUnits="objectBoundingBox" id="filter-4">
            <feGaussianBlur stdDeviation="0" in="SourceGraphic"></feGaussianBlur>
        </filter>
    </defs>
    <g id="Add-movie-form-blue" stroke="none" stroke-width="1" fill="none" fill-rule="evenodd">
        <g id="0-AddFilm-Overview" transform="translate(-580.000000, -457.000000)">
            <g id="page-content" transform="translate(304.000000, 156.000000)">
                <g id="form-group" transform="translate(0.000000, 102.000000)">
                    <g id="status_options" transform="translate(16.000000, 174.000000)">
                        <g id="status_inProduction" transform="translate(217.000000, 0.000000)">
                            <g id="illu" transform="translate(52.000000, 25.000000)">
                                <circle id="Oval-Copy-7" stroke="#404B8A" stroke-width="1.5" cx="49.5" cy="44.5" r="43.75"></circle>
                                <g id="chair" transform="translate(39.000000, 21.000000)" fill-rule="nonzero">
                                    <polygon id="Path" fill="#E9EDFE" points="5.26315789 3.15789474 33.6842105 3.15789474 33.6842105 10.5263158 5.26315789 10.5263158"></polygon>
                                    <path d="M37.1428572,24.6286727 L35.2380953,24.6286727 L35.2380953,0.947256643 C35.2380953,0.424137833 34.8116629,0 34.2857143,0 C33.7597656,0 33.3333334,0.424137833 33.3333334,0.947256643 L33.3333334,1.89451329 L6.66666669,1.89451329 L6.66666669,0.947256643 C6.66666669,0.424137833 6.24023431,0 5.71428574,0 C5.18833705,0 4.76190479,0.424137833 4.76190479,0.947256643 L4.76190479,24.6286727 L2.85714288,24.6286727 C1.27929693,24.6286727 0,25.9010863 0,27.4704427 L0,29.3649559 C0,30.9343123 1.27929693,32.2067259 2.85714288,32.2067259 L5.29715407,32.2067259 L18.703962,46.6523897 L10.7287017,55.2456911 C10.4943267,55.4940684 10.4115513,55.8483645 10.5124628,56.173984 C10.6133743,56.499141 10.8821615,56.7456683 11.2160529,56.8196727 C11.5504092,56.8932145 11.8987165,56.783133 12.1284412,56.5305928 L15.3617931,53.046372 L24.6382068,53.046372 L27.8762091,56.5305928 C28.1059338,56.783133 28.4542411,56.8932145 28.7885974,56.8196727 C29.1229538,56.7456683 29.3917411,56.499141 29.4926525,56.173984 C29.593564,55.8483645 29.5107887,55.4940684 29.2764137,55.2456911 L21.296503,46.6523897 L34.702846,32.2067259 L37.1428572,32.2067259 C38.7207031,32.2067259 40,30.9343123 40,29.3649559 L40,27.4704427 C40,25.9010863 38.7207031,24.6286727 37.1428572,24.6286727 Z" id="Path" fill="#414D86"></path>
                                    <polygon id="Path" fill="#010314" points="22.8799293 51.1518587 17.1200707 51.1518587 20 48.0487607"></polygon>
                                    <path d="M38.0952381,29.3649559 C38.0952381,29.8880748 37.6688057,30.3122126 37.1428572,30.3122126 L31.0649181,30.3122126 L31.32859,29.7881688 C31.563895,29.3200908 31.3727679,28.7511817 30.9021578,28.5171428 C30.4310826,28.2831037 29.859096,28.4732026 29.623791,28.9417431 L28.9355469,30.3122126 L26.5411086,30.3122126 L27.4590774,28.9435932 C27.7511161,28.5083547 27.6329985,27.9200195 27.1954055,27.6295522 C26.7578125,27.3390848 26.1662947,27.4565668 25.874256,27.8918054 L24.2522322,30.3122126 L2.85714288,30.3122126 C2.33119419,30.3122126 1.90476193,29.8880748 1.90476193,29.3649559 L1.90476193,27.4704427 C1.90476193,26.9473238 2.33119419,26.523186 2.85714288,26.523186 L37.1428572,26.523186 C37.6688057,26.523186 38.0952381,26.9473238 38.0952381,27.4704427 L38.0952381,29.3649559 Z" id="Path" fill="#606F87"></path>
                                    <path d="M3.89473684,26.3157895 L36.1052632,26.3157895 C37.093493,26.3157895 37.8947368,26.944216 37.8947368,27.7192982 L37.8947368,29.122807 C37.8947368,29.8978893 37.093493,30.5263158 36.1052632,30.5263158 L3.89473684,30.5263158 C2.90650693,30.5263158 2.10526316,29.8978893 2.10526316,29.122807 L2.10526316,27.7192982 C2.10526316,26.944216 2.90650693,26.3157895 3.89473684,26.3157895 Z" id="Path" fill="#010314"></path>
                                    <path d="M6.66666669,11.3670797 L28.5714286,11.3670797 C29.0973772,11.3670797 29.5238095,10.9429419 29.5238095,10.4198231 C29.5238095,9.89670427 29.0973772,9.47256643 28.5714286,9.47256643 L6.66666669,9.47256643 L6.66666669,3.78902657 L10.8403088,3.78902657 L12.96968,3.78902657 L14.6498326,3.78902657 L16.7792038,3.78902657 L33.3333334,3.78902657 L33.3333334,9.47256643 L32.3809524,9.47256643 C31.8550037,9.47256643 31.4285715,9.89670427 31.4285715,10.4198231 C31.4285715,10.9429419 31.8550037,11.3670797 32.3809524,11.3670797 L33.3333334,11.3670797 L33.3333334,24.6286727 L6.66666669,24.6286727 L6.66666669,11.3670797 Z" id="Path" fill="#010314"></path>
                                    <polygon id="Path" fill="#010314" points="14.0438988 38.8375224 25.9561012 38.8375224 20 45.2560187"></polygon>
                                    <path d="M27.6999628,36.9591976 C27.671596,36.9591976 27.6478794,36.9430091 27.6190476,36.9430091 L12.3809524,36.9430091 C12.3525855,36.9430091 12.3288691,36.9573475 12.3000372,36.9591976 L7.8896949,32.2067259 L32.11077,32.2067259 L27.6999628,36.9591976 Z" id="Path" fill="#010314"></path>
                                </g>
                                <g id="Group-9" transform="translate(0.000000, 18.000000)">
                                    <g id="Group-12" fill="#8DA4FA">
                                        <circle id="Oval" filter="url(#filter-1)" cx="10" cy="10" r="10"></circle>
                                        <circle id="Oval-Copy-2" cx="10" cy="10" r="10"></circle>
                                    </g>
                                    <g id="Group" transform="translate(3.000000, 6.000000)">
                                        <polygon id="Path" fill-opacity="0.715799825" fill="#010314" points="1.38125 1.50515625 2.59675 3.65625 12.43125 3.65625 12.43125 8.53125 1.38125 8.53125"></polygon>
                                        <mask id="mask-3" fill="white">
                                            <use xlink:href="#path-2"></use>
                                        </mask>
                                        <use id="Shape" fill="#121424" xlink:href="#path-2"></use>
                                    </g>
                                </g>
                                <g id="Group-11" transform="translate(25.126952, 57.000000)">
                                    <polygon id="Triangle" fill="#FF6E61" filter="url(#filter-4)" points="6.46395728 6.5 12.0548663 20.166667 0.873048281 20.166667"></polygon>
                                    <g id="speaker" transform="translate(9.585366, 10.830645) rotate(90.000000) translate(-9.585366, -10.830645) translate(-0.414634, 2.830645)" fill="#414D86" fill-rule="nonzero">
                                        <path d="M20,5.05678712 L20,0.631982658 C20,0.282860675 19.6273891,0 19.1680939,0 C19.0621627,0 18.9572548,0.0154079018 18.8589249,0.0453717978 L6.57543458,3.79256256 L2.49479236,3.79256256 C1.11695557,3.79256256 0,4.641589 0,5.68891791 L0,8.21740406 C0,9.26473297 1.11695557,10.1137594 2.49479236,10.1137594 L2.536356,10.1137594 L2.536356,14.5386009 C2.536356,14.8877229 2.90867452,15.1707317 3.36796969,15.1707317 L6.69437575,15.1707317 C7.15367093,15.1707317 7.52598945,14.8877229 7.52598945,14.5386009 L7.52598945,10.4032869 L18.8590223,13.8609872 C18.9572548,13.8912845 19.0623576,13.9067664 19.1683863,13.9065072 C19.6276815,13.9065072 20,13.6234983 20,13.2743764 L20,8.84949782 L20,5.05678712 Z M5.86276206,13.9064701 L4.19958339,13.9064701 L4.19958339,10.1137594 L5.86276206,10.1137594 L5.86276206,13.9064701 Z M5.90432569,8.84949782 L2.49479236,8.84949782 C2.03549719,8.84949782 1.66317867,8.56648901 1.66317867,8.21736702 L1.66317867,5.68888088 C1.66317867,5.33975889 2.03549719,5.05675008 2.49479236,5.05675008 L5.90432569,5.05675008 L5.90432569,8.84949782 Z M18.3367239,12.3394213 L7.56755308,9.05243007 L7.56755308,4.85200296 L18.3367239,1.56686362 L18.3367239,12.3394213 Z" id="Shape"></path>
                                    </g>
                                </g>
                            </g>
                        </g>
                    </g>
                </g>
            </g>
        </g>
    </g>
</svg>