<?xml version="1.0" encoding="UTF-8"?>
<svg width="250px" height="250px" viewBox="0 0 250 250" version="1.1" xmlns="http://www.w3.org/2000/svg" xmlns:xlink="http://www.w3.org/1999/xlink">
    <defs>
        <filter x="-220.4%" y="-114.8%" width="540.8%" height="329.6%" filterUnits="objectBoundingBox" id="filter-1">
            <feGaussianBlur stdDeviation="4" in="SourceGraphic"></feGaussianBlur>
        </filter>
        <filter x="-220.4%" y="-114.8%" width="540.8%" height="329.6%" filterUnits="objectBoundingBox" id="filter-2">
            <feGaussianBlur stdDeviation="4" in="SourceGraphic"></feGaussianBlur>
        </filter>
    </defs>
    <g id="Illustrations/250px/profil_user" stroke="none" stroke-width="1" fill="none" fill-rule="evenodd">
        <g id="avatar" transform="translate(30.516997, 23.016806)">
            <path d="M31.2526361,115.946545 C42.1767198,103.341832 137.653212,95.4260733 148.896615,104.182147 C170.519614,121.000035 163.081759,205.857816 160.312615,226.983194 C160.176164,228.024156 11.0519467,226.983194 0.353354706,227.237749 C-3.00790184,222.195864 18.3958298,130.75288 31.2526361,115.946545 Z" id="Path" stroke="#414D86" fill="#414D86" fill-rule="nonzero"></path>
            <path d="M68.2395894,227.044232 C47.2810841,221.680545 40.342624,212.799794 51.4201753,179.709581" id="Path" stroke="#121424" stroke-linecap="round"></path>
            <path d="M143.26651,172.096335 C142.980804,176.886126 141.434626,226.983194 141.434626,226.983194" id="Path" stroke="#121424" stroke-linecap="round"></path>
            <path d="M113.788291,89.0901047 L114.057191,106.803927 C114.057191,111.190366 89.9569816,111.442461 89.9737528,106.803927 L89.9737528,77.5273822" id="Path" stroke="#414D86" fill="#6F7CBD" fill-rule="nonzero"></path>
            <path d="M121.569599,0.5 C125.411336,0.5 127.906556,1.1943155 129.495364,2.26328351 C131.535756,3.63608139 132.010489,5.62033889 132.010489,7.36115183 C132.010489,14.446345 126.416785,22.020814 124.329591,23.8779236 L124.329591,23.8779236 L124.958422,24.6540915 C130.109353,20.8612841 138.205493,17.0205759 145.098395,17.0205759 C147.539374,17.0205759 150.358506,17.3945961 152.321631,18.8276776 C153.740255,19.863273 154.682165,21.467148 154.682165,23.8817277 C154.682165,27.9754216 153.197798,31.4939212 151.168684,34.387952 C147.9504,38.9780418 143.361458,42.0085509 141.036451,43.2766825 C142.940029,48.1094003 144.127819,52.8228048 144.127819,57.8136126 C144.127819,66.3123062 140.683043,74.0064292 135.113593,79.5758789 C129.544144,85.1453285 121.850021,88.5901047 113.351327,88.5901047 C107.600945,88.5901047 102.218843,87.0131876 97.6140869,84.2678883 C92.8479771,81.4263919 88.9145155,77.3335366 86.2671356,72.4426742 C86.1805269,72.2826704 86.095386,72.1219812 86.0116909,71.9608493 C85.8634383,72.0615704 85.712383,72.1610671 85.558647,72.2590711 C83.0795031,73.8394818 80.5426889,74.6240838 79.1841544,74.6240838 C78.1801522,74.742006 77.233085,74.441276 76.5280394,73.8033776 C75.8229937,73.1654792 75.4292931,72.2531335 75.4488652,71.3025438 C75.4489711,67.5574421 77.6889101,64.4036516 82.2867255,60.3744706 C82.2837775,59.5741537 82.1176792,59.3333947 81.9006089,59.0197702 C80.2376019,56.6170472 75.4489711,49.7142028 75.4489711,40.3182723 C75.4489711,35.2077056 76.9014107,30.4787397 78.9125058,26.8728404 C80.0663566,24.8039824 81.403044,23.105765 82.7558041,21.9253488 C84.0328646,20.810988 85.3165854,20.1527506 86.4620964,20.1466036 C88.3731254,20.2775966 90.1208554,21.0427753 91.4823632,22.2452544 C92.847955,23.4513407 93.825004,25.0973549 94.1885743,26.9846346 L94.1885743,26.9846346 L95.1795471,26.8900524 C95.1795471,19.9983317 98.4869755,14.0030276 103.013853,9.47615015 C108.615172,3.87483142 116.095322,0.5 121.569599,0.5 Z" id="Oval-2" stroke="#414D86" fill="#6F7CBD" fill-rule="nonzero"></path>
            <ellipse id="Oval" fill="#FF6E61" fill-rule="nonzero" filter="url(#filter-1)" transform="translate(142.213379, 66.750023) rotate(-84.070000) translate(-142.213379, -66.750023) " cx="142.213379" cy="66.750023" rx="2.7226178" ry="5.22675393"></ellipse>
            <ellipse id="Oval" fill="#FF6E61" fill-rule="nonzero" filter="url(#filter-2)" transform="translate(109.568010, 64.334048) rotate(-84.070000) translate(-109.568010, -64.334048) " cx="109.56801" cy="64.3340475" rx="2.7226178" ry="5.22675393"></ellipse>
            <ellipse id="Oval" fill="#FF6E61" fill-rule="nonzero" transform="translate(142.213379, 66.750023) rotate(-84.070000) translate(-142.213379, -66.750023) " cx="142.213379" cy="66.750023" rx="2.7226178" ry="5.22675393"></ellipse>
            <ellipse id="Oval" fill="#FF6E61" fill-rule="nonzero" transform="translate(109.568010, 64.334048) rotate(-84.070000) translate(-109.568010, -64.334048) " cx="109.56801" cy="64.3340475" rx="2.7226178" ry="5.22675393"></ellipse>
            <path d="M130.123997,60.8219372 C130.947505,62.3008901 135.333945,68.6368586 129.821484,70.4519372" id="Path" stroke="#414D86" stroke-width="0.69" stroke-linecap="round"></path>
            <path d="M118.645306,76.149267 C117.099128,75.9475916 114.880699,73.7963874 113.788291,71.9308901" id="Path" stroke="#414D86" stroke-width="0.69" stroke-linecap="round"></path>
            <path d="M92.7300183,59.9984293 C92.7300183,69.1746597 82.6462486,75.1240838 79.1841544,75.1240838 C78.0964335,75.2557959 77.0050585,74.9092427 76.1925827,74.1741455 C75.3801069,73.4390483 74.9264168,72.3876855 74.9489711,71.2922513 C74.9489711,67.4436126 77.201013,64.1663874 81.957191,59.9984293 C81.0832643,58.5698953 74.9489711,51.0406806 74.9489711,40.3182723 C74.9489711,29.0748691 81.8563533,19.6465445 86.4780811,19.6465445 C90.540309,19.9167634 93.9094196,22.8923508 94.6795471,26.8900524 C94.6795471,11.176178 111.48583,1.36424205e-12 121.569599,1.36424205e-12 C130.897086,1.36424205e-12 132.510489,4.06712042 132.510489,7.36115183 C132.510489,14.6046597 126.796353,22.352356 124.661955,24.251466 C129.888709,20.4028272 138.106982,16.5205759 145.098395,16.5205759 C149.55206,16.5205759 155.182165,17.7810471 155.182165,23.8817277 C155.182165,35.0915183 144.380072,42.1175941 140.867559,43.9326726 C139.530787,41.3216726 136.507314,37.2558772 135.901558,36.7169767 C136.557003,38.8345684 134.191118,42.2005759 129.233264,43.0576963 C126.376196,43.5282723 92.7300183,38.9905759 92.7300183,59.9984293 Z" id="Path" stroke="#414D86" fill="#414D86" fill-rule="nonzero"></path>
        </g>
    </g>
</svg>
