<?xml version="1.0" encoding="UTF-8"?>
<svg width="107px" height="98px" viewBox="0 0 107 98" version="1.1" xmlns="http://www.w3.org/2000/svg" xmlns:xlink="http://www.w3.org/1999/xlink">
    <title>illu</title>
    <defs>
        <filter x="-50.0%" y="-50.0%" width="200.0%" height="200.0%" filterUnits="objectBoundingBox" id="filter-1">
            <feGaussianBlur stdDeviation="4" in="SourceGraphic"></feGaussianBlur>
        </filter>
    </defs>
    <g id="Add-movie-form-blue" stroke="none" stroke-width="1" fill="none" fill-rule="evenodd">
        <g id="0-AddFilm-Overview" transform="translate(-1226.000000, -457.000000)">
            <g id="page-content" transform="translate(304.000000, 156.000000)">
                <g id="form-group" transform="translate(0.000000, 102.000000)">
                    <g id="status_options" transform="translate(16.000000, 174.000000)">
                        <g id="status_released" transform="translate(868.000000, 0.000000)">
                            <g id="illu" transform="translate(50.000000, 25.000000)">
                                <g id="Group-8" transform="translate(6.000000, 0.000000)">
                                    <g id="cinema" transform="translate(24.000000, 6.000000)">
                                        <g transform="translate(24.000000, 0.000000)" fill="#1B203C" id="Star">
                                            <polygon transform="translate(16.500000, 17.078125) rotate(15.000000) translate(-16.500000, -17.078125) " points="16.5 25.0734547 8.56489909 27.6585504 8.65069891 19.5488178 3.66073703 13.0367621 11.6488651 10.6097674 16.5 4 21.3511349 10.6097674 29.339263 13.0367621 24.3493011 19.5488178 24.4351009 27.6585504"></polygon>
                                        </g>
                                        <polygon id="Star" fill="#1B203C" transform="translate(31.000000, 59.500000) rotate(15.000000) translate(-31.000000, -59.500000) " points="31 68.9759463 23 72.9233938 22.5288668 64.2379732 15 59.5 22.5288668 54.7620268 23 46.0766062 31 50.0240537 39 46.0766062 39.4711332 54.7620268 47 59.5 39.4711332 64.2379732 39 72.9233938"></polygon>
                                        <path d="M38.8007812,14 L4.19921875,14 C1.88376953,14 0,15.904434 0,18.245283 L0,36.754717 C0,39.095566 1.88376953,41 4.19921875,41 L17.7313691,41 C18.1951309,41 18.5712129,40.6197925 18.5712129,40.1509434 C18.5712129,39.6820943 18.1951309,39.3018868 17.7313691,39.3018868 L4.19921875,39.3018868 C2.80994922,39.3018868 1.6796875,38.1592264 1.6796875,36.754717 L1.6796875,18.245283 C1.6796875,16.8407736 2.80994922,15.6981132 4.19921875,15.6981132 L38.8007812,15.6981132 C40.1900508,15.6981132 41.3203125,16.8407736 41.3203125,18.245283 L41.3203125,36.754717 C41.3203125,38.1592264 40.1900508,39.3018868 38.8007812,39.3018868 L25.2899629,39.3018868 C24.8262012,39.3018868 24.4501191,39.6820943 24.4501191,40.1509434 C24.4501191,40.6197925 24.8262012,41 25.2899629,41 L38.8007812,41 C41.1162305,41 43,39.095566 43,36.754717 L43,18.245283 C43,15.904434 41.1162305,14 38.8007812,14 Z" id="XMLID_1061_" fill="#435191" fill-rule="nonzero"></path>
                                        <path d="M30.1955536,28.3460089 C30.6434955,28.3231071 31,27.9537098 31,27.5 C31,27.0462902 30.6434955,26.6768929 30.1955536,26.6539911 C29.7955357,22.5106339 26.4894509,19.2044643 22.3460089,18.8044464 C22.3231071,18.3565045 21.953625,18 21.5,18 C21.046375,18 20.6768929,18.3565045 20.6539911,18.8044464 C16.5106339,19.2044643 13.2045491,22.5105491 12.8044464,26.6539911 C12.3565045,26.6768929 12,27.0462902 12,27.5 C12,27.9537098 12.3565045,28.3231071 12.8044464,28.3460089 C13.2044643,32.4893661 16.5105491,35.7955357 20.6539911,36.1955536 C20.6768929,36.6434955 21.0462902,37 21.5,37 C21.9537098,37 22.3231071,36.6434955 22.3460089,36.1955536 C26.4893661,35.7954509 29.7954509,32.4893661 30.1955536,28.3460089 L30.1955536,28.3460089 Z M28.48725,26.6517857 L26.3449152,26.6517857 C25.9897679,24.6178527 24.3820625,23.0101473 22.3482143,22.6550848 L22.3482143,20.51275 C25.5531071,20.8995357 28.1003795,23.4468929 28.48725,26.6517857 L28.48725,26.6517857 Z M20.6517857,20.51275 L20.6517857,23.4285714 C20.6517857,23.8969554 21.0316161,24.2767857 21.5,24.2767857 C23.2772634,24.2767857 24.7232143,25.7227366 24.7232143,27.5 C24.7232143,29.2772634 23.2772634,30.7232143 21.5,30.7232143 C19.7227366,30.7232143 18.2767857,29.2772634 18.2767857,27.5 C18.2767857,27.0316161 17.8969554,26.6517857 17.4285714,26.6517857 L14.51275,26.6517857 C14.8996205,23.4468929 17.4468929,20.8995357 20.6517857,20.51275 L20.6517857,20.51275 Z M14.51275,28.3482143 L16.6550848,28.3482143 C17.0102321,30.3821473 18.6179375,31.9898527 20.6517857,32.3449152 L20.6517857,34.48725 C17.4468929,34.1004643 14.8996205,31.5531071 14.51275,28.3482143 Z M22.3482143,34.48725 L22.3482143,32.3449152 C24.3821473,31.9897679 25.9898527,30.3820625 26.3449152,28.3482143 L28.48725,28.3482143 C28.1003795,31.5531071 25.5531071,34.1004643 22.3482143,34.48725 Z" id="XMLID_1067_" fill="#FF6E61" fill-rule="nonzero"></path>
                                        <path d="M37.9289395,48.689569 C38.4711426,48.0527586 38.8007812,47.2206034 38.8007812,46.3103448 L38.8007812,45.6206897 C38.8007812,43.6242241 37.2184316,42 35.2734375,42 C33.3284434,42 31.7460938,43.6242241 31.7460938,45.6206897 L31.7460938,46.3103448 C31.7460938,47.2206034 32.0757324,48.0527586 32.6179355,48.689569 C30.7805254,49.3819828 29.2683027,50.7715517 28.3867188,52.5443103 C27.5051348,50.7715517 25.9929121,49.3819828 24.155502,48.689569 C24.6977051,48.0527586 25.0273438,47.2206034 25.0273438,46.3103448 L25.0273438,45.6206897 C25.0273438,43.6242241 23.4449941,42 21.5,42 C19.5550059,42 17.9726562,43.6242241 17.9726562,45.6206897 L17.9726562,46.3103448 C17.9726562,47.2206034 18.3022949,48.0527586 18.844498,48.689569 C17.0070879,49.3819828 15.4948652,50.7715517 14.6132812,52.5443103 C13.7316973,50.7715517 12.2194746,49.3819828 10.3820645,48.689569 C10.9242676,48.0527586 11.2539062,47.2206034 11.2539062,46.3103448 L11.2539062,45.6206897 C11.2539062,43.6242241 9.67155664,42 7.7265625,42 C5.78156836,42 4.19921875,43.6242241 4.19921875,45.6206897 L4.19921875,46.3103448 C4.19921875,47.2206034 4.52885742,48.0527586 5.07106055,48.689569 C2.11481055,49.8035345 0,52.7219828 0,56.137931 C0,56.6139655 0.376082031,57 0.83984375,57 L42.1601562,57 C42.623918,57 43,56.6139655 43,56.137931 C43,52.7219828 40.8851895,49.8035345 37.9289395,48.689569 L37.9289395,48.689569 Z M33.4257812,46.3103448 L33.4257812,45.6206897 C33.4257812,44.5749138 34.254623,43.7241379 35.2734375,43.7241379 C36.292252,43.7241379 37.1210938,44.5749138 37.1210938,45.6206897 L37.1210938,46.3103448 C37.1210938,47.3561207 36.292252,48.2068966 35.2734375,48.2068966 C34.254623,48.2068966 33.4257812,47.3561207 33.4257812,46.3103448 Z M19.6523438,46.3103448 L19.6523438,45.6206897 C19.6523438,44.5749138 20.4811855,43.7241379 21.5,43.7241379 C22.5188145,43.7241379 23.3476562,44.5749138 23.3476562,45.6206897 L23.3476562,46.3103448 C23.3476562,47.3561207 22.5188145,48.2068966 21.5,48.2068966 C20.4811855,48.2068966 19.6523438,47.3561207 19.6523438,46.3103448 Z M5.87890625,46.3103448 L5.87890625,45.6206897 C5.87890625,44.5749138 6.70774805,43.7241379 7.7265625,43.7241379 C8.74537695,43.7241379 9.57421875,44.5749138 9.57421875,45.6206897 L9.57421875,46.3103448 C9.57421875,47.3561207 8.74537695,48.2068966 7.7265625,48.2068966 C6.70774805,48.2068966 5.87890625,47.3561207 5.87890625,46.3103448 Z M1.73780469,55.2758621 C2.14781641,52.2599138 4.67717383,49.9310345 7.7265625,49.9310345 C10.7759512,49.9310345 13.3053086,52.2599138 13.7153203,55.2758621 L1.73780469,55.2758621 Z M15.5112422,55.2758621 C15.9212539,52.2599138 18.4506113,49.9310345 21.5,49.9310345 C24.5493887,49.9310345 27.0787461,52.2599138 27.4887578,55.2758621 L15.5112422,55.2758621 Z M29.2846797,55.2758621 C29.6946914,52.2599138 32.2240488,49.9310345 35.2734375,49.9310345 C38.3228262,49.9310345 40.8521836,52.2599138 41.2621953,55.2758621 L29.2846797,55.2758621 Z" id="XMLID_1122_" fill="#435191" fill-rule="nonzero"></path>
                                        <path d="M21.1465,39.1465 C21.053,39.2395 21,39.3685 21,39.5 C21,39.6315 21.053,39.7605 21.1465,39.85345 C21.2395,39.94645 21.36805,40 21.5,40 C21.6315,40 21.7605,39.9465 21.8535,39.85345 C21.94645,39.7605 22,39.6315 22,39.5 C22,39.3685 21.9465,39.2395 21.8535,39.1465 C21.76,39.0535 21.6315,39 21.5,39 C21.3685,39 21.2395,39.05345 21.1465,39.1465 Z" id="XMLID_1134_" fill="#606F87" fill-rule="nonzero"></path>
                                    </g>
                                    <circle id="Oval-Copy-4" stroke="#606F87" stroke-width="1.5" cx="44.5" cy="44.5" r="43.75"></circle>
                                </g>
                                <g id="Group-5" transform="translate(0.000000, 62.000000)">
                                    <circle id="Oval-Copy-10" fill="#8DA4FA" filter="url(#filter-1)" cx="12" cy="12" r="12"></circle>
                                    <circle id="Oval" fill="#8DA4FA" cx="12" cy="12" r="12"></circle>
                                    <g id="popcorn" transform="translate(5.000000, 3.000000)" fill="#010314" fill-rule="nonzero">
                                        <path d="M11.5,5.9765625 C11.7761333,5.9765625 12,5.75357031 12,5.47851562 C12,5.20346094 11.7761333,4.98046875 11.5,4.98046875 L11,4.98046875 C11,4.25441602 10.5990667,3.59812305 9.98206667,3.25131641 C9.994,3.164125 10,3.07636914 10,2.98828125 C10,1.88978906 9.1028,0.99609375 8,0.99609375 C7.91156667,0.99609375 7.82346667,1.00207031 7.73596667,1.01395703 C7.38776667,0.399433594 6.72886667,0 6,0 C5.27113333,0 4.61223333,0.399433594 4.26403333,1.01395703 C4.17653333,1.00207031 4.08843333,0.99609375 4,0.99609375 C2.8972,0.99609375 2,1.88978906 2,2.98828125 C2,3.07636914 2.006,3.164125 2.01793333,3.25131641 C1.40093333,3.59812305 1,4.25441602 1,4.98046875 L0.5,4.98046875 C0.223866667,4.98046875 0,5.20346094 0,5.47851562 C0,5.75357031 0.223866667,5.9765625 0.5,5.9765625 L1.04313333,5.9765625 L2.00203333,16.5467773 C2.0253,16.8034375 2.2413,17 2.5,17 L9.5,17 C9.7587,17 9.9747,16.8034375 9.99796667,16.5467773 L10.9568667,5.9765625 L11.5,5.9765625 Z M2.74033333,4.02461719 C2.8782,3.98746289 2.99353333,3.89333203 3.05723333,3.76599805 C3.12093333,3.63866406 3.12693333,3.4902793 3.0737,3.35826367 C3.0248,3.23690625 3,3.11242773 3,2.98828125 C3,2.43903516 3.4486,1.9921875 4,1.9921875 C4.12463333,1.9921875 4.2496,2.01689062 4.37143333,2.06563281 C4.50393333,2.1186582 4.65293333,2.11268164 4.78076667,2.04919727 C4.9086,1.98574609 5.00306667,1.87086328 5.0404,1.73350195 C5.15833333,1.29933789 5.55293333,0.99609375 6,0.99609375 C6.44706667,0.99609375 6.84166667,1.29933789 6.9596,1.73353516 C6.9969,1.87086328 7.0914,1.98574609 7.21923333,2.04923047 C7.34706667,2.11271484 7.49603333,2.1186582 7.62856667,2.06566602 C7.7504,2.01689062 7.87536667,1.9921875 8,1.9921875 C8.5514,1.9921875 9,2.43903516 9,2.98828125 C9,3.11242773 8.9752,3.23690625 8.9263,3.35826367 C8.87306667,3.4902793 8.87906667,3.63866406 8.94276667,3.76599805 C9.0065,3.89333203 9.12183333,3.98742969 9.25966667,4.02461719 C9.69556667,4.14208984 10,4.53514844 10,4.98046875 L2,4.98046875 C2,4.53514844 2.30443333,4.14208984 2.74033333,4.02461719 Z M2.04723333,5.9765625 L3.2721,5.9765625 L3.72693333,16.0039062 L2.95686667,16.0039062 L2.04723333,5.9765625 Z M4.2731,5.9765625 L5.5,5.9765625 L5.5,16.0039062 L4.7279,16.0039062 L4.2731,5.9765625 Z M6.5,16.0039062 L6.5,5.9765625 L7.7269,5.9765625 L7.27206667,16.0039062 L6.5,16.0039062 Z M9.04313333,16.0039062 L8.2731,16.0039062 L8.72793333,5.9765625 L9.9528,5.9765625 L9.04313333,16.0039062 Z" id="Shape"></path>
                                        <path d="M17,13 C17,11.8972 16.1028,11 15,11 C13.8972,11 13,11.8972 13,13 C11.8972,13 11,13.8972 11,15 C11,16.1028 11.8972,17 13,17 C13.3524667,17 13.6966,16.9048667 14,16.7272 C14.3034,16.9048667 14.6475333,17 15,17 C16.1028,17 17,16.1028 17,15 C17,14.6475333 16.9048667,14.3034 16.7272,14 C16.9048667,13.6966 17,13.3524667 17,13 Z M15.7392333,14.3346667 C15.8582,14.4667 16,14.6893333 16,15 C16,15.5514 15.5514,16 15,16 C14.6893333,16 14.4667,15.8582 14.3346667,15.7392333 C14.2395667,15.6535667 14.1198,15.6107333 14,15.6107333 C13.8802,15.6107333 13.7604333,15.6535667 13.6653333,15.7392333 C13.5333,15.8582 13.3106667,16 13,16 C12.4486,16 12,15.5514 12,15 C12,14.4486 12.4486,14 13,14 C13.1462,14 13.2933667,14.0359333 13.4374667,14.1068333 C13.6295333,14.2013333 13.8604333,14.1631 14.0117667,14.0117667 C14.1631333,13.8604 14.2013667,13.6295 14.1068667,13.4374667 C14.0359333,13.2934 14,13.1462 14,13 C14,12.4486 14.4486,12 15,12 C15.5514,12 16,12.4486 16,13 C16,13.3106667 15.8582,13.5333 15.7392333,13.6653333 C15.5678667,13.8555667 15.5678667,14.1444333 15.7392333,14.3346667 L15.7392333,14.3346667 Z" id="Shape"></path>
                                        <path d="M5.70710184,3.8867404 C5.78536036,3.81367468 5.88938288,3.77345502 6,3.77345502 C6.11062748,3.77345502 6.21465,3.81367468 6.29290851,3.8867404 C6.37379037,3.96225539 6.47980111,4 6.58578423,4 C6.69176736,4 6.79780571,3.96222961 6.87868757,3.88671462 C7.04045128,3.73568464 7.04042367,3.49083456 6.87868757,3.33980457 C6.64396726,3.12068477 6.33192731,3 6,3 C5.66808304,3 5.3560431,3.12068477 5.12132279,3.33980457 C4.95955907,3.49083456 4.95955907,3.73568464 5.12132279,3.88671462 C5.2830865,4.03774461 5.54533813,4.03774461 5.70710184,3.8867404 Z" id="Path"></path>
                                    </g>
                                </g>
                            </g>
                        </g>
                    </g>
                </g>
            </g>
        </g>
    </g>
</svg>