<?xml version="1.0" encoding="UTF-8"?>
<svg width="1358px" height="953px" viewBox="0 0 1358 953" version="1.1" xmlns="http://www.w3.org/2000/svg" xmlns:xlink="http://www.w3.org/1999/xlink">
    <title>background-rocket-dark</title>
    <defs>
        <rect id="path-1" x="0" y="0" width="1073" height="892"></rect>
        <filter x="-25.4%" y="-11.5%" width="150.7%" height="122.9%" filterUnits="objectBoundingBox" id="filter-3">
            <feGaussianBlur stdDeviation="4" in="SourceGraphic"></feGaussianBlur>
        </filter>
        <ellipse id="path-4" cx="151.136772" cy="206.799725" rx="38.1129074" ry="37.9518874"></ellipse>
        <filter x="-282.2%" y="-147.0%" width="664.4%" height="394.0%" filterUnits="objectBoundingBox" id="filter-6">
            <feGaussianBlur stdDeviation="2" in="SourceGraphic"></feGaussianBlur>
        </filter>
        <filter x="-282.2%" y="-147.0%" width="664.4%" height="394.0%" filterUnits="objectBoundingBox" id="filter-7">
            <feGaussianBlur stdDeviation="2" in="SourceGraphic"></feGaussianBlur>
        </filter>
    </defs>
    <g id="Existing-org" stroke="none" stroke-width="1" fill="none" fill-rule="evenodd">
        <g id="Artboard" transform="translate(-290.000000, -116.000000)">
            <g id="background-rocket-dark" transform="translate(292.000000, 117.000000)">
                <g id="stars" transform="translate(0.000000, 14.000000)" fill-rule="nonzero">
                    <g id="Group" transform="translate(0.000000, 3.000000)">
                        <circle id="Oval" fill="#8DA4FA" cx="994" cy="399" r="6"></circle>
                        <path d="M246,165 C246,167.761424 243.761424,170 241,170 C238.238576,170 236,167.761424 236,165 C236,162.238576 238.238576,160 241,160 C243.761424,160 246,162.238576 246,165 L246,165 Z" id="Path" fill="#8DA4FA"></path>
                        <path d="M180.114204,28.4442138 C179.852802,28.3033592 179.638038,28.090842 179.495694,27.8321749 L177.307121,23.759762 C177.042295,23.2906574 176.541753,23 175.998734,23 C175.455715,23 174.955174,23.2906574 174.690348,23.759762 L172.477986,27.8321749 C172.351923,28.0945122 172.14323,28.3092824 171.883265,28.4442138 L167.767795,30.7982097 C167.29373,31.060265 167,31.5555695 167,32.0929074 C167,32.6302454 167.29373,33.1255499 167.767795,33.3876052 L171.883265,35.5532814 C172.14323,35.6882128 172.351923,35.902983 172.477986,36.1653203 L174.690348,40.2141932 C174.944262,40.6970734 175.448642,41 175.998734,41 C176.548827,41 177.053207,40.6970734 177.307121,40.2141932 L179.495694,36.1653203 C179.638038,35.9066532 179.852802,35.694136 180.114204,35.5532814 L184.205885,33.3876052 C184.693871,33.1363479 185,32.637245 185,32.0929074 C185,31.5485698 184.693871,31.0494669 184.205885,30.7982097 L180.114204,28.4442138 Z" id="Path" fill="#8DA4FA"></path>
                        <path d="M165.43249,526.546881 L157.689094,522.384013 C157.203044,522.119701 156.80402,521.719399 156.540552,521.231791 L152.390981,513.463582 C151.905911,512.561996 150.966955,512 149.945698,512 C148.924442,512 147.985486,512.561996 147.500415,513.463582 L143.350844,521.231791 C143.087376,521.719399 142.688353,522.119701 142.202303,522.384013 L134.458907,526.546881 C133.560201,527.033506 133,527.975471 133,529 C133,530.024529 133.560201,530.966494 134.458907,531.453119 L142.202303,535.615987 C142.688353,535.880299 143.087376,536.280601 143.350844,536.768209 L147.500415,544.536418 C147.985486,545.438004 148.924442,546 149.945698,546 C150.966955,546 151.905911,545.438004 152.390981,544.536418 L156.540552,536.768209 C156.80402,536.280601 157.203044,535.880299 157.689094,535.615987 L165.43249,531.564624 C166.391125,531.098848 167,530.124316 167,529.055753 C167,527.987189 166.391125,527.012657 165.43249,526.546881 L165.43249,526.546881 Z" id="Path" fill="#3E4471"></path>
                        <path d="M21.0536569,275.403495 L16.0078951,272.761735 C15.6864231,272.594367 15.4203262,272.337446 15.2417847,272.022042 L12.6000246,266.97628 C12.2924719,266.376913 11.6754285,266 11.0017598,266 C10.3280911,266 9.71104772,266.376913 9.40349496,266.97628 L6.76173488,272.022042 C6.6010809,272.341699 6.34169944,272.601081 6.02204206,272.761735 L0.976280316,275.403495 C0.376913339,275.711048 0,276.328091 0,277.00176 C0,277.675428 0.376913339,278.292472 0.976280316,278.600025 L6.02204206,281.241785 C6.33041908,281.417632 6.58588782,281.673101 6.76173488,281.981478 L9.40349496,287.053657 C9.72352498,287.637239 10.3361872,288 11.0017598,288 C11.6673325,288 12.2799946,287.637239 12.6000246,287.053657 L15.2417847,281.981478 C15.4349455,281.6777 15.6975286,281.424171 16.0078951,281.241785 L21.0536569,278.600025 C21.6372387,278.279995 22,277.667332 22,277.00176 C22,276.336187 21.6372387,275.723525 21.0536569,275.403495 L21.0536569,275.403495 Z" id="Path" fill="#809AFD"></path>
                        <path d="M864.408355,180.983515 L861.21058,179.256249 C861.002037,179.164537 860.835463,178.997963 860.743751,178.78942 L859.016485,175.591645 C858.809259,175.225989 858.421427,175 858.001133,175 C857.580839,175 857.193008,175.225989 856.985781,175.591645 L855.281857,178.78942 C855.176667,178.988386 855.013993,179.151059 854.815028,179.256249 L851.617253,180.983515 C851.238038,181.180144 851,181.571706 851,181.998867 C851,182.426028 851.238038,182.81759 851.617253,183.014219 L854.815028,184.718143 C855.003506,184.83699 855.16301,184.996494 855.281857,185.184972 L856.985781,188.382747 C857.18241,188.761962 857.573972,189 858.001133,189 C858.428294,189 858.819856,188.761962 859.016485,188.382747 L860.743751,185.184972 C860.848941,184.986007 861.011614,184.823333 861.21058,184.718143 L864.408355,183.014219 C864.774011,182.806992 865,182.419161 865,181.998867 C865,181.578573 864.774011,181.190741 864.408355,180.983515 Z" id="Path" fill="#6D8CFF"></path>
                        <path d="M989.669368,12.7947313 L982.821026,9.11928338 C982.393923,8.91244808 982.04915,8.56704669 981.842692,8.13916394 L978.173937,1.27832788 C977.732766,0.488923086 976.900206,0 975.997143,0 C975.094079,0 974.261519,0.488923086 973.820348,1.27832788 L970.151593,8.13916394 C969.926517,8.57048333 969.565337,8.91509243 969.124342,9.11928338 L962.276,12.7947313 C961.488033,13.2367067 961,14.0707859 961,14.975497 C961,15.8802081 961.488033,16.7142873 962.276,17.1562628 L969.124342,20.8317107 C969.557659,21.069667 969.91407,21.4267287 970.151593,21.8608361 L973.820348,28.7216721 C974.261519,29.5110769 975.094079,30 975.997143,30 C976.900206,30 977.732766,29.5110769 978.173937,28.7216721 L981.842692,21.8608361 C982.062527,21.4301777 982.402381,21.0726807 982.821026,20.8317107 L989.669368,17.1562628 C990.486195,16.7370266 991,15.8949543 991,14.975497 C991,14.0560398 990.486195,13.2139675 989.669368,12.7947313 Z" id="Path" fill="#3E4471"></path>
                    </g>
                    <g id="Group" transform="translate(2.000000, 0.000000)" stroke="#414D86" stroke-width="2">
                        <circle id="Oval" cx="990" cy="399" r="6"></circle>
                        <path d="M246,166 C246,168.761424 243.761424,171 241,171 C238.238576,171 236,168.761424 236,166 C236,163.238576 238.238576,161 241,161 C243.761424,161 246,163.238576 246,166 L246,166 Z" id="Path"></path>
                        <path d="M180.114204,28.4442138 C179.852802,28.3033592 179.638038,28.090842 179.495694,27.8321749 L177.307121,23.759762 C177.042295,23.2906574 176.541753,23 175.998734,23 C175.455715,23 174.955174,23.2906574 174.690348,23.759762 L172.477986,27.8321749 C172.351923,28.0945122 172.14323,28.3092824 171.883265,28.4442138 L167.767795,30.7982097 C167.29373,31.060265 167,31.5555695 167,32.0929074 C167,32.6302454 167.29373,33.1255499 167.767795,33.3876052 L171.883265,35.5532814 C172.14323,35.6882128 172.351923,35.902983 172.477986,36.1653203 L174.690348,40.2141932 C174.944262,40.6970734 175.448642,41 175.998734,41 C176.548827,41 177.053207,40.6970734 177.307121,40.2141932 L179.495694,36.1653203 C179.638038,35.9066532 179.852802,35.694136 180.114204,35.5532814 L184.205885,33.3876052 C184.693871,33.1363479 185,32.637245 185,32.0929074 C185,31.5485698 184.693871,31.0494669 184.205885,30.7982097 L180.114204,28.4442138 Z" id="Path"></path>
                        <path d="M165.43249,526.546881 L157.689094,522.384013 C157.203044,522.119701 156.80402,521.719399 156.540552,521.231791 L152.390981,513.463582 C151.905911,512.561996 150.966955,512 149.945698,512 C148.924442,512 147.985486,512.561996 147.500415,513.463582 L143.350844,521.231791 C143.087376,521.719399 142.688353,522.119701 142.202303,522.384013 L134.458907,526.546881 C133.560201,527.033506 133,527.975471 133,529 C133,530.024529 133.560201,530.966494 134.458907,531.453119 L142.202303,535.615987 C142.688353,535.880299 143.087376,536.280601 143.350844,536.768209 L147.500415,544.536418 C147.985486,545.438004 148.924442,546 149.945698,546 C150.966955,546 151.905911,545.438004 152.390981,544.536418 L156.540552,536.768209 C156.80402,536.280601 157.203044,535.880299 157.689094,535.615987 L165.43249,531.564624 C166.391125,531.098848 167,530.124316 167,529.055753 C167,527.987189 166.391125,527.012657 165.43249,526.546881 L165.43249,526.546881 Z" id="Path"></path>
                        <path d="M21.0536569,275.403495 L16.0078951,272.761735 C15.6864231,272.594367 15.4203262,272.337446 15.2417847,272.022042 L12.6000246,266.97628 C12.2924719,266.376913 11.6754285,266 11.0017598,266 C10.3280911,266 9.71104772,266.376913 9.40349496,266.97628 L6.76173488,272.022042 C6.6010809,272.341699 6.34169944,272.601081 6.02204206,272.761735 L0.976280316,275.403495 C0.376913339,275.711048 0,276.328091 0,277.00176 C0,277.675428 0.376913339,278.292472 0.976280316,278.600025 L6.02204206,281.241785 C6.33041908,281.417632 6.58588782,281.673101 6.76173488,281.981478 L9.40349496,287.053657 C9.72352498,287.637239 10.3361872,288 11.0017598,288 C11.6673325,288 12.2799946,287.637239 12.6000246,287.053657 L15.2417847,281.981478 C15.4349455,281.6777 15.6975286,281.424171 16.0078951,281.241785 L21.0536569,278.600025 C21.6372387,278.279995 22,277.667332 22,277.00176 C22,276.336187 21.6372387,275.723525 21.0536569,275.403495 L21.0536569,275.403495 Z" id="Path"></path>
                        <path d="M864.408355,180.983515 L861.21058,179.256249 C861.002037,179.164537 860.835463,178.997963 860.743751,178.78942 L859.016485,175.591645 C858.809259,175.225989 858.421427,175 858.001133,175 C857.580839,175 857.193008,175.225989 856.985781,175.591645 L855.281857,178.78942 C855.176667,178.988386 855.013993,179.151059 854.815028,179.256249 L851.617253,180.983515 C851.238038,181.180144 851,181.571706 851,181.998867 C851,182.426028 851.238038,182.81759 851.617253,183.014219 L854.815028,184.718143 C855.003506,184.83699 855.16301,184.996494 855.281857,185.184972 L856.985781,188.382747 C857.18241,188.761962 857.573972,189 858.001133,189 C858.428294,189 858.819856,188.761962 859.016485,188.382747 L860.743751,185.184972 C860.848941,184.986007 861.011614,184.823333 861.21058,184.718143 L864.408355,183.014219 C864.774011,182.806992 865,182.419161 865,181.998867 C865,181.578573 864.774011,181.190741 864.408355,180.983515 Z" id="Path"></path>
                        <path d="M989.669368,12.7947313 L982.821026,9.11928338 C982.393923,8.91244808 982.04915,8.56704669 981.842692,8.13916394 L978.173937,1.27832788 C977.732766,0.488923086 976.900206,0 975.997143,0 C975.094079,0 974.261519,0.488923086 973.820348,1.27832788 L970.151593,8.13916394 C969.926517,8.57048333 969.565337,8.91509243 969.124342,9.11928338 L962.276,12.7947313 C961.488033,13.2367067 961,14.0707859 961,14.975497 C961,15.8802081 961.488033,16.7142873 962.276,17.1562628 L969.124342,20.8317107 C969.557659,21.069667 969.91407,21.4267287 970.151593,21.8608361 L973.820348,28.7216721 C974.261519,29.5110769 975.094079,30 975.997143,30 C976.900206,30 977.732766,29.5110769 978.173937,28.7216721 L981.842692,21.8608361 C982.062527,21.4301777 982.402381,21.0726807 982.821026,20.8317107 L989.669368,17.1562628 C990.486195,16.7370266 991,15.8949543 991,14.975497 C991,14.0560398 990.486195,13.2139675 989.669368,12.7947313 Z" id="Path"></path>
                    </g>
                </g>
                <g id="Group-4" transform="translate(1181.000000, 0.000000)" fill-rule="nonzero" stroke="#000000">
                    <path d="M8.12104857,25.1835171 C13.5465187,19.9806333 21.4576914,18.2602324 28.5727908,20.7359847 C32.6632282,8.0667357 44.6919695,-0.383630635 58.0704958,0.0134165318 C89.2889004,0.0134165318 91.7962053,30.5107811 91.7962053,30.5107811 C113.722833,23.9127935 118,43.2180163 118,44 L0.00917967227,44 C-0.187263809,36.8499008 2.77731069,29.9732036 8.12104857,25.1835171 L8.12104857,25.1835171 Z" id="Path"></path>
                </g>
                <path d="M222.525685,563.919981 C230.893783,555.879161 243.095761,553.220359 254.069898,557.046522 C260.378877,537.466773 278.931682,524.407116 299.566358,525.020735 C347.716779,525.020735 351.583978,572.153025 351.583978,572.153025 C385.403013,561.956135 392,591.79148 392,593 L210.014158,593 C209.711169,581.949847 214.283649,571.322224 222.525685,563.919981 L222.525685,563.919981 Z" id="Path" stroke="#000000" fill-rule="nonzero"></path>
                <g id="rocket" transform="translate(283.000000, 60.000000)">
                    <mask id="mask-2" fill="white">
                        <use xlink:href="#path-1"></use>
                    </mask>
                    <g id="Mask"></g>
                    <g mask="url(#mask-2)">
                        <g transform="translate(718.000000, 70.000000)">
                            <path d="M144.867468,519.434506 C144.867468,519.434506 155.641921,497.945554 162.093503,462.93208 C166.247565,467.475959 168.547682,473.555253 168.314005,479.912027 C168.314005,479.912027 171.385396,536.065541 144.777451,565.951074 C118.169505,536.065541 121.208565,479.912027 121.208565,479.912027 C120.94295,472.686441 123.951074,465.819368 129.235347,461.15637 C132.307579,479.774259 137.298607,499.332621 144.867468,519.434506 Z" id="Path-2" stroke="none" fill="#FF6E61" fill-rule="nonzero" filter="url(#filter-3)"></path>
                            <path d="M144.867468,519.434506 C144.867468,519.434506 155.641921,497.945554 162.093503,462.93208 C166.247565,467.475959 168.547682,473.555253 168.314005,479.912027 C168.314005,479.912027 171.385396,536.065541 144.777451,565.951074 C118.169505,536.065541 121.208565,479.912027 121.208565,479.912027 C120.94295,472.686441 123.951074,465.819368 129.235347,461.15637 C132.307579,479.774259 137.298607,499.332621 144.867468,519.434506 Z" id="Path-2" stroke="none" fill="#FF6E61" fill-rule="nonzero"></path>
                            <path d="M219.648224,104.261272 C239.929909,164.615809 245.777686,234.614628 241.673059,295.971617 C234.533078,402.335254 199.729984,450.729499 199.729984,450.729499 C194.764066,448.691862 189.709848,446.954006 184.593312,445.515932 L184.593312,445.515932 L183.587106,445.390632 C177.516923,444.63967 171.765956,444.018106 166.334205,443.525941 C171.010741,405.063447 169.208594,354.662901 146.471488,299.95166 C146.471488,299.95166 120.106722,358.855199 128.294459,439.86035 L128.294459,439.86035 L128.52428,442.055714 C128.537173,442.174756 128.55014,442.293843 128.563183,442.412976 C122.384846,442.7916 117.113897,443.537575 112.750427,444.65141 C106.531552,446.238861 100.395883,448.264891 94.3893973,450.729499 C64.0358558,393.486021 54.2399401,303.127052 54.2399401,303.127052 C49.2500018,247.312356 57.8015577,181.023763 79.8946077,104.261272 L79.8946077,104.261272 Z M114.199798,198.081507 C109.407596,218.577913 122.059968,239.096806 142.459679,243.911763 C162.8594,248.726679 183.281501,236.01434 188.073746,215.517944 C192.865948,195.021537 180.213576,174.502644 159.813865,169.687687 C139.414144,164.872772 118.992043,177.585111 114.199798,198.081507 Z" id="Combined-Shape" stroke="#414D86" stroke-width="3" fill="#6F7CBD" fill-rule="nonzero" stroke-linecap="round" stroke-linejoin="round"></path>
                            <path d="M146.471488,299.95166 C169.32285,354.937832 171.028325,405.569876 166.263685,444.105746 C166.065114,445.711733 165.855405,447.296011 165.635529,448.858739 C165.613242,449.01714 165.59086,449.17525 165.568375,449.333138 C165.531468,449.592299 165.494298,449.850757 165.456855,450.108614 C165.366294,450.732266 165.274192,451.352042 165.180564,451.968279 C165.08631,452.588627 164.990544,453.205167 164.893302,453.818086 C164.757523,454.673888 164.618955,455.52211 164.477703,456.36318 C164.477703,456.36318 164.477675,456.363179 164.477618,456.363176 C158.159085,493.986152 146.471488,517.296311 146.471488,517.296311 C138.303511,495.603255 133.137617,474.543174 130.14626,454.616038 C130.139206,454.569043 130.132196,454.522273 130.125198,454.47551 C130.01222,453.720528 129.902299,452.966732 129.795458,452.214594 C129.77146,452.045659 129.747599,451.876671 129.723893,451.707767 C129.49983,450.111354 129.28961,448.522369 129.09281,446.941158 C129.073473,446.785795 129.054381,446.63144 129.035417,446.477159 C128.762454,444.256595 128.515821,442.050395 128.294446,439.86035 C128.294446,439.86035 128.29445,439.86035 128.294459,439.86035 C120.106722,358.855199 146.471488,299.95166 146.471488,299.95166 Z" id="Combined-Shape" stroke="#414D86" stroke-width="3" fill="none" fill-rule="nonzero"></path>
                            <path d="M146.471488,299.95166 C169.32285,354.937832 171.028325,405.569876 166.263685,444.105746 C166.065114,445.711733 165.855405,447.296011 165.635529,448.858739 C165.613242,449.01714 165.59086,449.17525 165.568375,449.333138 C165.531468,449.592299 165.494298,449.850757 165.456855,450.108614 C165.366294,450.732266 165.274192,451.352042 165.180564,451.968279 C165.08631,452.588627 164.990544,453.205167 164.893302,453.818086 C164.757523,454.673888 164.618955,455.52211 164.477703,456.36318 C164.477703,456.36318 164.477675,456.363179 164.477618,456.363176 C158.159085,493.986152 146.471488,517.296311 146.471488,517.296311 C138.303511,495.603255 133.137617,474.543174 130.14626,454.616038 C130.139206,454.569043 130.132196,454.522273 130.125198,454.47551 C130.01222,453.720528 129.902299,452.966732 129.795458,452.214594 C129.77146,452.045659 129.747599,451.876671 129.723893,451.707767 C129.49983,450.111354 129.28961,448.522369 129.09281,446.941158 C129.073473,446.785795 129.054381,446.63144 129.035417,446.477159 C128.762454,444.256595 128.515821,442.050395 128.294446,439.86035 C128.294446,439.86035 128.29445,439.86035 128.294459,439.86035 C120.106722,358.855199 146.471488,299.95166 146.471488,299.95166 Z" id="Combined-Shape" stroke="#414D86" stroke-width="3" fill="none" fill-rule="nonzero"></path>
                            <path d="M127.378766,461.305617 C124.272194,465.743736 122.612397,471.167093 122.817929,476.79611 C122.817929,476.79611 119.624339,536.204901 147.585231,567.822928" id="Path" stroke="#414D86" stroke-width="3" fill="none" stroke-linecap="round" fill-rule="nonzero"></path>
                            <path d="M152.24107,461.305617 C149.134497,465.743736 147.474701,471.167093 147.680232,476.79611 C147.680232,476.79611 144.486643,536.204901 172.447535,567.822928" id="Path" stroke="#414D86" stroke-width="3" fill="none" stroke-linecap="round" fill-rule="nonzero" transform="translate(160.008668, 514.564273) scale(-1, 1) translate(-160.008668, -514.564273) "></path>
                            <path d="M60.7650469,341.777797 C40.634938,354.454641 -23.1883463,404.898848 8.83433316,519.702341 C8.83433316,519.702341 27.842641,455.752638 88.0162311,435.796571" id="Path" stroke="#414D86" stroke-width="3" fill="none" fill-rule="nonzero"></path>
                            <path d="M236.397684,337.680828 C236.397684,337.680828 328.1057,381.928802 290.288811,517.296311 C290.288811,517.296311 273.679459,450.508961 208.925469,432.897638" id="Path" stroke="#414D86" stroke-width="3" fill="none" fill-rule="nonzero"></path>
                            <path d="M183.913662,436.293323 C185.545635,436.293856 187.088553,437.071968 188.105605,438.407369 C189.122656,439.74277 189.503132,441.490099 189.139317,443.154671 L185.723856,459.200219 C185.170184,461.797931 182.938738,463.623846 180.395738,463.560034 L163.173388,463.560751 C163.627926,461.224494 164.064261,458.824463 164.477618,456.363176 L164.477618,456.363176 L164.687555,455.096158 L164.687555,455.096158 L164.893302,453.818086 C164.990544,453.205167 165.08631,452.588627 165.180564,451.968279 C165.274192,451.352042 165.366294,450.732266 165.456855,450.108614 C165.494298,449.850757 165.531468,449.592299 165.568375,449.333138 C165.59086,449.17525 165.613242,449.01714 165.635529,448.858739 C165.855405,447.296011 166.065114,445.711733 166.263685,444.105746 C166.579174,441.554107 166.866295,438.949434 167.120789,436.293974 L183.913662,436.293323 Z M128.059132,437.436862 L128.294459,439.86035 L128.294459,439.86035 L128.52428,442.055714 C128.683169,443.522791 128.853442,444.996783 129.035417,446.477159 C129.054381,446.63144 129.073473,446.785795 129.09281,446.941158 C129.28961,448.522369 129.49983,450.111354 129.723893,451.707767 C129.747599,451.876671 129.77146,452.045659 129.795458,452.214594 C129.902299,452.966732 130.01222,453.720528 130.125198,454.47551 C130.132196,454.522273 130.139206,454.569043 130.14626,454.616038 C130.590114,457.572798 131.081842,460.554502 131.624149,463.559516 L117.038949,463.560034 C114.53863,463.559218 112.37069,461.750485 111.813295,459.200219 L108.397834,443.154671 C108.047574,441.491789 108.43325,439.752325 109.447468,438.420644 C110.461686,437.088964 111.996117,436.307304 113.623489,436.293323 L127.954623,436.291691 C128.06052,437.47636 128.173734,438.665952 128.294459,439.86035 Z" id="Path-3" stroke="none" fill="#414D86" fill-rule="nonzero"></path>
                            <path d="M136.673799,5.88730203 C111.660453,35.477309 92.4290011,67.3639889 79.0271822,103.904835 L220.63981,104.261272 C207.562548,64.827863 188.873402,31.0230113 161.399927,4.65169835 C157.973628,1.45690957 153.429062,-0.210832679 148.782368,0.0213699227 C144.135675,0.253572525 139.774435,2.36635198 136.673799,5.88730203 Z" id="Path" stroke="#414D86" stroke-width="1" fill="#414D86" fill-rule="nonzero" stroke-linejoin="round"></path>
                            <ellipse id="Oval" stroke="#414D86" stroke-width="15" fill="none" fill-rule="nonzero" cx="151.178845" cy="206.918525" rx="47.4376703" ry="47.8386752"></ellipse>
                            <mask id="mask-5" fill="white">
                                <use xlink:href="#path-4"></use>
                            </mask>
                            <use id="Oval" stroke="#414D86" stroke-width="3" fill="none" fill-rule="nonzero" transform="translate(151.136772, 206.799725) rotate(-76.780000) translate(-151.136772, -206.799725) " xlink:href="#path-4"></use>
                            <g id="avatar" stroke="none" stroke-width="1" fill="none" fill-rule="evenodd" mask="url(#mask-5)">
                                <g transform="translate(110.677350, 178.046172)">
                                    <path d="M12.4045211,45.2781376 C16.6698529,40.3566009 53.9488529,37.2658758 58.3388636,40.6847033 C66.7816098,47.2512837 63.8774833,80.3841853 62.7962651,88.632634 C62.7429876,89.0390799 4.5171189,88.632634 0.339830854,88.7320256 C-0.972578931,86.7634109 7.38455372,51.0593027 12.4045211,45.2781376 Z" id="Path" stroke="none" fill="#414D86" fill-rule="nonzero"></path>
                                    <path d="M44.6307434,34.4258474 L44.7357362,41.708383 C44.7357362,43.4210777 35.325758,43.5195085 35.3322962,41.708383 L35.3322962,29.836893" id="Path" stroke="#414D86" stroke-width="1" fill="#6F7CBD" fill-rule="nonzero"></path>
                                    <path d="M47.6689721,0.506562049 C49.0825334,0.506562049 50.0072228,0.748699114 50.5934716,1.14313378 C51.2889379,1.6110512 51.4408659,2.29027875 51.4408659,2.88073948 C51.4408659,5.55066784 49.330201,8.40254506 48.5440246,9.10205631 L48.5440246,9.10205631 L49.1728561,9.87822416 C51.1378299,8.43134633 54.2245399,6.95705614 56.8558406,6.95705614 C57.7453512,6.95705614 58.7788021,7.08013304 59.4964703,7.60403086 C59.9812798,7.95794172 60.2930699,8.51009248 60.2930699,9.33123357 C60.2930699,10.8687809 59.7336697,12.1790695 58.974287,13.2521394 C57.7373986,14.999964 55.9701565,16.1304519 55.1059009,16.5933267 C54.9786152,16.661498 54.828421,16.7379474 54.6582922,16.8191962 C54.741099,16.9651949 54.8206055,17.112747 54.8967915,17.2617346 C55.7126283,18.8571675 56.1721032,20.6649417 56.1721032,22.5800104 C56.1721032,25.8141824 54.861196,28.7421757 52.7417457,30.8616259 C50.6222955,32.9810762 47.6943022,34.2919834 44.4601301,34.2919834 C42.2471283,34.2919834 40.1774168,33.6783559 38.4120853,32.6116597 C36.585406,31.5078943 35.0844882,29.9193693 34.0876654,28.024298 C33.990502,27.8395795 33.898452,27.6525645 33.8114534,27.463709 C33.6672827,27.5977653 33.5102852,27.7307131 33.3413594,27.859936 C32.4980687,28.5050267 31.6429746,28.8389207 31.1194847,28.8389207 C30.7785004,28.8765582 30.4966785,28.787069 30.2868758,28.5972474 C30.0770731,28.4074259 29.9599183,28.1359362 29.9657424,27.8530661 C29.9658484,26.4538939 30.83306,25.297729 32.5317572,23.809118 C31.8033587,21.9713391 29.9658484,19.338481 29.9658484,15.7489174 C29.9658484,13.8099783 30.5165622,12.01569 31.2795939,10.6475719 C31.7107978,9.87442215 32.2087257,9.23827286 32.7144254,8.79700009 C33.1406437,8.42508273 33.565247,8.18401508 33.9520108,8.1777302 C34.6247501,8.22645885 35.2398281,8.49697754 35.7195931,8.92070446 C36.2035825,9.34816223 36.5498655,9.93153806 36.6787211,10.6004226 L36.6787211,10.6004226 L37.6696938,10.5058403 C37.6696938,7.89814404 38.927843,5.63355888 40.639349,3.9220528 C42.7613418,1.80006005 45.5921281,0.506562049 47.6689721,0.506562049 Z" id="Oval-2" stroke="#414D86" stroke-width="1" fill="#6F7CBD" fill-rule="nonzero"></path>
                                    <ellipse id="Oval" stroke="none" fill="#FF6E61" fill-rule="nonzero" filter="url(#filter-6)" transform="translate(55.729380, 26.069251) rotate(-84.070000) translate(-55.729380, -26.069251) " cx="55.7293798" cy="26.0692509" rx="1.06305193" ry="2.04079722"></ellipse>
                                    <ellipse id="Oval" stroke="none" fill="#FF6E61" fill-rule="nonzero" filter="url(#filter-7)" transform="translate(42.982926, 25.125928) rotate(-84.070000) translate(-42.982926, -25.125928) " cx="42.9829261" cy="25.1259281" rx="1.06305193" ry="2.04079722"></ellipse>
                                    <ellipse id="Oval" stroke="none" fill="#FF6E61" fill-rule="nonzero" transform="translate(55.729380, 26.069251) rotate(-84.070000) translate(-55.729380, -26.069251) " cx="55.7293798" cy="26.0692509" rx="1.06305193" ry="2.04079722"></ellipse>
                                    <ellipse id="Oval" stroke="none" fill="#FF6E61" fill-rule="nonzero" transform="translate(42.982926, 25.125928) rotate(-84.070000) translate(-42.982926, -25.125928) " cx="42.9829261" cy="25.1259281" rx="1.06305193" ry="2.04079722"></ellipse>
                                    <path d="M51.009055,23.7546171 C51.3305954,24.3320774 53.0432901,26.8059699 50.8909381,27.5146711" id="Path" stroke="#414D86" stroke-width="0.69" fill="none" stroke-linecap="round"></path>
                                    <path d="M46.5271756,29.7392057 C45.9234671,29.6604611 45.0572766,28.8205189 44.6307434,28.0921314" id="Path" stroke="#414D86" stroke-width="0.69" fill="none" stroke-linecap="round"></path>
                                    <path d="M36.4084961,23.4330767 C36.4084961,25.5475978 32.4712668,29.3389207 31.1194847,29.3389207 C30.6947817,29.390348 30.2686521,29.2550356 29.9514191,28.9680153 C29.6341862,28.6809951 29.4570419,28.2704882 29.4658484,27.8427736 C29.4658484,26.3400644 30.3451629,25.0604648 32.2022228,23.4330767 C31.8609962,22.8753026 29.4658484,19.9355046 29.4658484,15.7489174 C29.4658484,11.3589067 32.1628505,7.67759724 33.9674139,7.67759724 C35.5535195,7.78310478 36.8689959,8.94492923 37.1696938,10.5058403 C37.1696938,4.37032458 43.7317427,0.00656204892 47.6689721,0.00656204892 C51.3109092,0.00656204892 51.9408659,1.59457789 51.9408659,2.88073948 C51.9408659,5.70898256 49.7097693,8.73408712 48.8763891,9.47559865 C50.9171863,7.97288944 54.1260282,6.45705614 56.8558406,6.45705614 C58.5947835,6.45705614 60.7930699,6.94920981 60.7930699,9.33123357 C60.7930699,13.7081202 56.6021213,16.3839803 55.230653,17.0926816 C54.7087076,16.0732111 52.5970708,16.4838669 50.6612664,16.8185314 C49.5457181,17.0022688 36.4084961,15.2305156 36.4084961,23.4330767 Z" id="Path" stroke="#414D86" stroke-width="1" fill="#414D86" fill-rule="nonzero"></path>
                                </g>
                            </g>
                            <path d="" id="Path-4" stroke="#979797" stroke-width="1" fill="none" mask="url(#mask-5)"></path>
                        </g>
                    </g>
                    <path d="M895.38989,665 C908.357048,665 919.318994,673.585332 922.901608,685.381877 C929.801412,682.749156 937.309734,681.304859 945.162618,681.304859 C979.049572,681.304859 1006.52038,708.199353 1006.52038,741.375392 C1006.52038,743.229427 1006.43458,745.063845 1006.26667,746.875047 C1011.8894,748.231642 1017.37376,749.941129 1022.69266,751.976542 C1036.55588,739.524317 1054.96809,731.935737 1075.17241,731.935737 C1112.62587,731.935737 1143.92106,758.012627 1151.50888,792.810134 C1178.71029,773.919028 1211.87357,762.829154 1247.66066,762.829154 C1340.07962,762.829154 1415,836.789011 1415,928.023119 C1415,1019.25723 1340.07962,1093.21708 1247.66066,1093.21708 C1163.45566,1093.21708 1093.77701,1031.81974 1082.05644,951.899945 C1057.77963,984.509846 1018.57303,1005.68574 974.339734,1005.68574 C947.045881,1005.68574 921.66591,997.623182 900.525746,983.786608 C881.08674,997.569918 857.233924,1005.68574 831.45768,1005.68574 C787.986199,1005.68574 749.985448,982.602221 729.38755,948.194384 C711.392646,959.078144 690.215315,965.352665 667.55094,965.352665 C655.920654,965.352665 644.681945,963.700422 634.063307,960.621119 C622.727589,1035.65787 557.128062,1093.21708 477.899687,1093.21708 C390.694098,1093.21708 320,1023.4835 320,937.462774 C320,851.442044 390.694098,781.708464 477.899687,781.708464 C507.281996,781.708464 534.789874,789.624817 558.350868,803.41323 C576.276417,761.421258 618.419685,731.935737 667.55094,731.935737 C694.225644,731.935737 718.840497,740.627187 738.638714,755.293255 C754.588351,735.315543 779.282402,722.496082 807.000392,722.496082 C807.571621,722.496082 808.141565,722.501526 808.710176,722.512366 C806.77539,717.728009 805.713166,712.510258 805.713166,707.049373 C805.713166,683.826146 824.923519,665 848.62069,665 C858.464757,665 867.534551,668.24876 874.774599,673.711917 C879.997249,668.338539 887.303691,665 895.38989,665 Z" id="Combined-Shape" fill="#1C1F39" fill-rule="nonzero" mask="url(#mask-2)"></path>
                    <path d="M863.750354,370 C887.656857,427.525108 889.933682,480.596472 885.2581,521.471254 C885.232612,521.694073 885.206922,521.916492 885.181027,522.138548 C885.148329,522.418956 885.115312,522.69872 885.081974,522.977903 C884.948857,524.092682 884.810639,525.198102 884.667614,526.294083 C884.465224,527.84494 884.253256,529.376594 884.032541,530.888815 L902.167855,530.88801 L902.167674,704.624112 C912.065198,707.01619 919.964039,714.529819 922.901608,724.20241 C929.801412,721.569689 937.309734,720.125392 945.162618,720.125392 C979.049572,720.125392 1006.52038,747.019886 1006.52038,780.195925 C1006.52038,782.050101 1006.43457,783.884655 1006.26663,785.695991 C1011.88905,787.05209 1017.37307,788.761447 1022.69166,790.796691 C1036.55499,778.345213 1054.96761,770.75627 1075.17241,770.75627 C1112.62587,770.75627 1143.92106,796.83316 1151.50888,831.630667 C1178.71029,812.739561 1211.87357,801.649687 1247.66066,801.649687 C1340.07962,801.649687 1415,875.609544 1415,966.843652 C1415,1058.07776 1340.07962,1132.03762 1247.66066,1132.03762 C1163.45562,1132.03762 1093.77695,1070.64021 1082.05642,990.720366 C1057.77964,1023.33037 1018.57304,1044.50627 974.339734,1044.50627 C947.046314,1044.50627 921.666714,1036.44397 900.526751,1022.6078 C881.087559,1036.39017 857.234366,1044.50627 831.45768,1044.50627 C787.986424,1044.50627 749.985841,1021.42299 729.387869,987.015451 C711.392646,997.898677 690.215315,1004.1732 667.55094,1004.1732 C655.920654,1004.1732 644.681945,1002.52095 634.063307,999.441652 C622.728173,1074.47789 557.128415,1132.03762 477.899687,1132.03762 C390.694098,1132.03762 320,1062.30404 320,976.283307 C320,890.262577 390.694098,820.528997 477.899687,820.528997 C507.281996,820.528997 534.789874,828.44535 558.350868,842.233762 C576.277004,800.241379 618.420027,770.75627 667.55094,770.75627 C694.225644,770.75627 718.840497,779.44772 738.638714,794.113788 C754.588037,774.136239 779.282226,761.316614 807.000392,761.316614 C807.571621,761.316614 808.141565,761.322059 808.710176,761.332899 C806.775314,756.548168 805.713166,751.330595 805.713166,745.869906 C805.713166,728.497873 816.462746,713.586324 831.798847,707.175059 L831.799516,530.88801 L845.624707,530.88856 C845.456635,529.649968 845.296328,528.415667 845.143607,527.185767 C845.126384,527.047064 845.109243,526.9083 845.092198,526.769592 C845.001137,526.028549 844.912816,525.289016 844.827209,524.551112 C844.802863,524.341259 844.778819,524.132254 844.754992,523.923381 C844.668467,523.164905 844.584735,522.407521 844.503827,521.651898 C844.492524,521.546329 844.481266,521.440709 844.470063,521.335123 L844.384387,520.517939 L844.384387,520.517939 L844.300922,519.702298 L844.300922,519.702298 C835.539964,433.026988 863.750354,370 863.750354,370 Z" id="Combined-Shape" stroke="#414D86" stroke-width="3" fill-rule="nonzero" mask="url(#mask-2)"></path>
                </g>
                <path d="M38.6081557,733.087747 C45.4523804,733.08077 52.1761747,734.936311 58.094922,738.465438 C68.7260762,718.843448 88.5817816,706.364983 110.435256,705.57177 C132.28873,704.778556 152.952911,715.786273 164.90676,734.588498 C171.584563,711.841442 192.922137,697.055152 215.963864,699.207479 C239.005591,701.359805 257.394632,719.856955 259.965641,743.467942 C261.975397,743.096454 264.0132,742.908127 266.055256,742.90516 C280.863352,743.015556 294.372937,751.604342 301.070539,765.166302 L1.42108547e-13,765.166302 C4.04633173,746.560024 20.0429582,733.268825 38.6081557,733.087747 L38.6081557,733.087747 Z" id="Path" stroke="#414D86" stroke-width="2" fill-rule="nonzero"></path>
            </g>
        </g>
    </g>
</svg>