<?xml version="1.0" encoding="UTF-8"?>
<svg width="170px" height="170px" viewBox="0 0 170 170" version="1.1" xmlns="http://www.w3.org/2000/svg" xmlns:xlink="http://www.w3.org/1999/xlink">
    <defs>
        <filter x="-109.7%" y="-103.8%" width="319.4%" height="307.6%" filterUnits="objectBoundingBox" id="filter-1">
            <feGaussianBlur stdDeviation="4" in="SourceGraphic"></feGaussianBlur>
        </filter>
        <filter x="-109.7%" y="-103.8%" width="319.4%" height="307.6%" filterUnits="objectBoundingBox" id="filter-2">
            <feGaussianBlur stdDeviation="4" in="SourceGraphic"></feGaussianBlur>
        </filter>
        <filter x="-384.0%" y="-35.4%" width="868.0%" height="170.8%" filterUnits="objectBoundingBox" id="filter-3">
            <feGaussianBlur stdDeviation="4" in="SourceGraphic"></feGaussianBlur>
        </filter>
    </defs>
    <g id="Illustrations/170px/sales_statistics" stroke="none" stroke-width="1" fill="none" fill-rule="evenodd">
        <g id="Group" transform="translate(35.000000, 35.000000)" fill-rule="nonzero">
            <g id="Group-2" transform="translate(8.000000, 6.687500)" fill="#8DA4FA">
                <path d="M0,10 L0,1.5625 C0,0.625 0.625,0 1.5625,0 L9.375,0 C10.3125,0 10.9375,0.625 10.9375,1.5625 L10.9375,10 C10.9375,10.9375 10.3125,11.5625 9.375,11.5625 L1.5625,11.5625 C0.625,11.5625 0,10.9375 0,10 Z" id="Path" filter="url(#filter-1)"></path>
                <path d="M0,25.9375 L0,17.5 C0,16.5625 0.625,15.9375 1.5625,15.9375 L9.375,15.9375 C10.3125,15.9375 10.9375,16.5625 10.9375,17.5 L10.9375,25.9375 C10.9375,26.71875 10.3125,27.5 9.375,27.5 L1.5625,27.5 C0.625,27.5 0,26.71875 0,25.9375 Z" id="Path" filter="url(#filter-2)"></path>
            </g>
            <g id="Group-2" transform="translate(8.000000, 6.687500)" fill="#8DA4FA">
                <path d="M0,10 L0,1.5625 C0,0.625 0.625,0 1.5625,0 L9.375,0 C10.3125,0 10.9375,0.625 10.9375,1.5625 L10.9375,10 C10.9375,10.9375 10.3125,11.5625 9.375,11.5625 L1.5625,11.5625 C0.625,11.5625 0,10.9375 0,10 Z" id="Path"></path>
                <path d="M0,25.9375 L0,17.5 C0,16.5625 0.625,15.9375 1.5625,15.9375 L9.375,15.9375 C10.3125,15.9375 10.9375,16.5625 10.9375,17.5 L10.9375,25.9375 C10.9375,26.71875 10.3125,27.5 9.375,27.5 L1.5625,27.5 C0.625,27.5 0,26.71875 0,25.9375 Z" id="Path"></path>
            </g>
            <path d="M28.4375,26.40625 C28.4375,25.625 29.21875,24.84375 30,24.84375 L50.46875,24.84375 C51.25,24.84375 52.03125,25.625 52.03125,26.40625 C52.03125,27.34375 51.25,27.96875 50.46875,27.96875 L30,27.96875 C29.21875,27.96875 28.4375,27.1875 28.4375,26.40625 Z" id="Path" fill="#414D86"></path>
            <path d="M28.4375,10.46875 C28.4375,9.6875 29.21875,8.90625 30,8.90625 L50.46875,8.90625 C51.25,8.90625 52.03125,9.6875 52.03125,10.46875 C52.03125,11.25 51.25,12.03125 50.46875,12.03125 L30,12.03125 C29.21875,12.03125 28.4375,11.40625 28.4375,10.46875 Z" id="Path" fill="#414D86"></path>
            <path d="M75.15625,29.84375 C75.15625,29.0625 75.9375,28.28125 76.71875,28.28125 L87.03125,28.4375 C87.5,28.4375 87.8125,28.59375 88.125,28.90625 C88.4375,29.21875 88.59375,29.6875 88.59375,30.15625 L87.8125,40.78125 C87.8125,41.5625 87.03125,42.1875 86.25,42.1875 C85.3125,42.1875 84.6875,41.40625 84.6875,40.46875 L85.15625,33.90625 L52.5,61.875 C52.1875,62.03125 51.875,62.1875 51.5625,62.1875 C51.40625,62.1875 51.40625,62.1875 51.25,62.1875 C50.78125,62.1875 50.46875,61.875 50.15625,61.40625 L38.75,41.40625 L15.625,59.84375 C15,60.3125 13.90625,60.3125 13.4375,59.53125 C12.8125,58.90625 12.96875,57.8125 13.59375,57.34375 L38.125,37.65625 C38.59375,37.5 39.0625,37.5 39.53125,37.5 C40,37.65625 40.3125,37.8125 40.625,38.28125 L51.875,58.28125 L83.125,31.5625 L76.5625,31.40625 C75.78125,31.40625 75.15625,30.78125 75.15625,29.84375 Z" id="Path" fill="#414D86"></path>
            <path d="M100,98.4227129 C100,99.2113565 99.375,100 98.4375,100 L1.5625,100 C0.78125,100 0,99.3690852 0,98.4227129 L0,1.57728707 C0,0.630914826 0.625,-2.77555756e-16 1.5625,-2.77555756e-16 C2.5,-2.77555756e-16 3.125,0.630914826 3.125,1.57728707 L3.125,96.8454259 L13.125,96.8454259 L13.125,77.7602524 C13.125,76.8138801 13.75,76.1829653 14.6875,76.1829653 C15.625,76.1829653 16.25,76.8138801 16.25,77.7602524 L16.25,96.8454259 L25.3125,96.8454259 L25.3125,71.2933754 C25.3125,70.5047319 26.09375,69.7160883 26.875,69.7160883 C27.65625,69.7160883 28.4375,70.5047319 28.4375,71.2933754 L28.4375,96.8454259 L37.5,96.8454259 L37.5,64.511041 C37.5,63.5646688 38.125,62.9337539 39.0625,62.9337539 C39.84375,62.9337539 40.625,63.5646688 40.625,64.511041 L40.625,96.8454259 L49.6875,96.8454259 L49.6875,77.7602524 C49.6875,76.8138801 50.46875,76.1829653 51.25,76.1829653 C52.03125,76.1829653 52.8125,76.8138801 52.8125,77.7602524 L52.8125,96.8454259 L61.875,96.8454259 L61.875,71.2933754 C61.875,70.5047319 62.65625,69.7160883 63.4375,69.7160883 C64.375,69.7160883 65,70.5047319 65,71.2933754 L65,96.8454259 L74.0625,96.8454259 L74.0625,64.511041 C74.0625,63.5646688 74.84375,62.9337539 75.625,62.9337539 C76.5625,62.9337539 77.1875,63.5646688 77.1875,64.511041 L77.1875,96.8454259 L86.25,96.8454259 L86.25,52.9968454 C86.25,52.0504732 86.875,51.4195584 87.8125,51.4195584 C88.75,51.4195584 89.375,52.0504732 89.375,52.9968454 L89.375,96.8454259 L98.4375,96.8454259 C99.375,96.8454259 100,97.4763407 100,98.4227129 Z" id="Path" fill="#414D86"></path>
            <g id="Group-3" transform="translate(37.500000, 62.419558)" fill="#8DA4FA">
                <path d="M0,34.4258675 L0,2.09148265 C0,1.14511041 0.625,0.514195584 1.5625,0.514195584 C2.34375,0.514195584 3.125,1.14511041 3.125,2.09148265 L3.125,34.4258675 L0,34.4258675 Z" id="Path" filter="url(#filter-3)"></path>
            </g>
            <g id="Group-3" transform="translate(37.500000, 51.419558)">
                <path d="M48.75,45.4258675 L48.75,1.57728707 C48.75,0.630914826 49.375,3.97903932e-13 50.3125,3.97903932e-13 C51.25,3.97903932e-13 51.875,0.630914826 51.875,1.57728707 L51.875,45.4258675 L48.75,45.4258675 Z" id="Path" fill="#414D86"></path>
                <path d="M4.4408921e-16,45.4258675 L4.4408921e-16,13.0914826 C4.4408921e-16,12.1451104 0.625,11.5141956 1.5625,11.5141956 C2.34375,11.5141956 3.125,12.1451104 3.125,13.0914826 L3.125,45.4258675 L4.4408921e-16,45.4258675 Z" id="Path" fill="#8DA4FA"></path>
            </g>
        </g>
    </g>
</svg>
