<?xml version="1.0" encoding="UTF-8"?>
<svg width="100px" height="100px" viewBox="0 0 100 100" version="1.1" xmlns="http://www.w3.org/2000/svg" xmlns:xlink="http://www.w3.org/1999/xlink">
    <title>Illustrations/Dark/100px/sale</title>
    <defs>
        <filter x="-48.4%" y="-26.3%" width="196.8%" height="152.5%" filterUnits="objectBoundingBox" id="filter-1">
            <feGaussianBlur stdDeviation="4" in="SourceGraphic"></feGaussianBlur>
        </filter>
    </defs>
    <g id="Illustrations/Dark/100px/sale" stroke="none" stroke-width="1" fill="none" fill-rule="evenodd">
        <g id="Group" transform="translate(12.000000, 12.000000)">
            <g id="noun_devices_597285">
                <path d="M75.5514135,66.1084312 C75.5514135,67.262479 74.6060764,68.2059273 73.4510842,68.2059273 L27.2816154,68.2059273 C26.1275676,68.2059273 25.1850637,67.262479 25.1850637,66.1084312 L25.1850637,66.1046536 C25.1850637,64.953439 26.1275676,64.0062131 27.2816154,64.0062131 L73.4520286,64.0062131 C74.6070208,64.0062131 75.5523579,64.953439 75.5523579,66.1046536 L75.5523579,66.1084312 L75.5514135,66.1084312 Z" id="Path" fill="#6C78B4"></path>
                <path d="M75.5514135,66.1084312 C75.5514135,67.262479 74.6060764,68.2059273 73.4510842,68.2059273 L27.2816154,68.2059273 C26.1275676,68.2059273 25.1850637,67.262479 25.1850637,66.1084312 L25.1850637,66.1046536 C25.1850637,64.953439 26.1275676,64.0062131 27.2816154,64.0062131 L73.4520286,64.0062131 C74.6070208,64.0062131 75.5523579,64.953439 75.5523579,66.1046536 L75.5523579,66.1084312 L75.5514135,66.1084312 Z" id="Path" stroke="#404B8A" stroke-width="1.5" stroke-linecap="round" stroke-linejoin="round"></path>
                <path d="M69.256092,36.7236533 C70.4101398,36.7236533 71.3545325,37.6671016 71.3545325,38.8211494 L71.3545325,61.9096614 C71.3545325,63.060876 70.4101398,64.0071575 69.256092,64.0071575 L31.4803852,64.0071575 C30.3263374,64.0071575 29.3828891,63.060876 29.3828891,61.9096614 L29.3828891,38.8211494 C29.3828891,37.6671016 30.3263374,36.7236533 31.4803852,36.7236533 L69.256092,36.7236533 Z M68.2068717,39.8722585 L32.5305499,39.8722585 L32.5305499,60.8604411 L68.2068717,60.8604411 L68.2068717,39.8722585 Z" id="Path-2" fill="#6C78B4"></path>
                <path d="M71.3545325,61.9096614 C71.3545325,63.060876 70.4101398,64.0071575 69.256092,64.0071575 L31.4803852,64.0071575 C30.3263374,64.0071575 29.3828891,63.060876 29.3828891,61.9096614 L29.3828891,38.8211494 C29.3828891,37.6671016 30.3263374,36.7236533 31.4803852,36.7236533 L69.256092,36.7236533 C70.4101398,36.7236533 71.3545325,37.6671016 71.3545325,38.8211494 L71.3545325,61.9096614 Z" id="Path" stroke="#404B8A" stroke-width="1.5" stroke-linecap="round" stroke-linejoin="round"></path>
                <rect id="Rectangle" stroke="#404B8A" stroke-width="1.5" stroke-linecap="round" stroke-linejoin="round" x="32.5305499" y="39.8722585" width="35.6763218" height="20.9881827"></rect>
                <path d="M20.9862939,73.4539174 C20.9862939,74.6089096 20.0428456,75.5514135 18.8878534,75.5514135 L10.4931469,75.5514135 C9.33626592,75.5514135 8.39376204,74.6089096 8.39376204,73.4539174 L8.39376204,56.6645045 C8.39376204,55.5095123 9.33626592,54.566064 10.4931469,54.566064 L18.8878534,54.566064 C20.0428456,54.566064 20.9862939,55.5095123 20.9862939,56.6645045 L20.9862939,73.4539174 Z" id="Path" stroke="#404B8A" stroke-width="1.5" stroke-linecap="round" stroke-linejoin="round"></path>
                <path d="M20.9862939,58.7657782 L20.9862939,56.6645045 C20.9862939,55.5095123 20.0428456,54.566064 18.8878534,54.566064 L10.4931469,54.566064 C9.33626592,54.566064 8.39376204,55.5095123 8.39376204,56.6645045 L8.39376204,58.7657782 L20.9862939,58.7657782 Z" id="Path" fill="#6C78B4"></path>
                <path d="M20.9862939,58.7657782 L20.9862939,56.6645045 C20.9862939,55.5095123 20.0428456,54.566064 18.8878534,54.566064 L10.4931469,54.566064 C9.33626592,54.566064 8.39376204,55.5095123 8.39376204,56.6645045 L8.39376204,58.7657782 L20.9862939,58.7657782 Z" id="Path" stroke="#404B8A" stroke-width="1.5" stroke-linecap="round" stroke-linejoin="round"></path>
                <path d="M8.39470643,71.3535881 L8.39470643,73.4548618 C8.39470643,74.609854 9.33721031,75.5523579 10.4940913,75.5523579 L18.8878534,75.5523579 C20.0428456,75.5523579 20.9862939,74.609854 20.9862939,73.4548618 L20.9862939,71.3535881 L8.39470643,71.3535881 Z" id="Path" fill="#6C78B4"></path>
                <path d="M8.39470643,71.3535881 L8.39470643,73.4548618 C8.39470643,74.609854 9.33721031,75.5523579 10.4940913,75.5523579 L18.8878534,75.5523579 C20.0428456,75.5523579 20.9862939,74.609854 20.9862939,73.4548618 L20.9862939,71.3535881 L8.39470643,71.3535881 Z" id="Path" stroke="#404B8A" stroke-width="1.5" stroke-linecap="round" stroke-linejoin="round"></path>
                <path d="M50.3672942,29.3810003 L50.3672942,33.5788257 L60.8604411,33.5788257 C62.014489,33.5788257 62.9579372,32.6325443 62.9579372,31.4784964 L62.9579372,29.3810003 L50.3672942,29.3810003 L50.3672942,29.3810003 Z" id="Path" fill="#6C78B4"></path>
                <path d="M50.3672942,29.3810003 L50.3672942,33.5788257 L60.8604411,33.5788257 C62.014489,33.5788257 62.9579372,32.6325443 62.9579372,31.4784964 L62.9579372,29.3810003 L50.3672942,29.3810003 L50.3672942,29.3810003 Z" id="Path" stroke="#404B8A" stroke-width="1.5" stroke-linecap="round" stroke-linejoin="round"></path>
                <path d="M60.8604411,-4.84149119e-13 L39.8732029,-4.84149119e-13 C38.7200994,-4.84149119e-13 37.7757067,0.942503883 37.7757067,2.10032929 L37.7757067,15.7392482 L45.6453308,15.7392482 C48.2490214,15.7392482 50.3672942,17.8546878 50.3672942,20.4602672 L50.3672942,33.5788257 L60.8604411,33.5788257 C62.014489,33.5788257 62.9579372,32.6325443 62.9579372,31.4784964 L62.9579372,2.10032929 C62.9579372,0.942503883 62.014489,-4.84149119e-13 60.8604411,-4.84149119e-13 Z" id="Path" stroke="#404B8A" stroke-width="1.5" stroke-linecap="round" stroke-linejoin="round"></path>
                <path d="M29.3819447,59.8121653 L29.3819447,50.369183 L18.8850202,50.369183 C18.8850202,51.8169369 18.7008636,53.21936 18.3759925,54.566064 L18.8878534,54.566064 C20.0428456,54.566064 20.9862939,55.5095123 20.9862939,56.6645045 L20.9862939,59.8121653 L29.3819447,59.8121653 L29.3819447,59.8121653 Z" id="Path" stroke="#404B8A" stroke-width="1.5" stroke-linecap="round" stroke-linejoin="round"></path>
                <path d="M29.3819447,45.6443865 L9.70625879e-13,45.6443865 C9.70625879e-13,48.252799 2.11732836,50.369183 4.72101895,50.369183 L29.3819447,50.369183 L29.3819447,45.6443865 L29.3819447,45.6443865 Z" id="Path" stroke="#404B8A" stroke-width="1.5" stroke-linecap="round" stroke-linejoin="round"></path>
                <path d="M29.3819447,45.6443865 L0,45.6443865 C0,48.252799 2.11732836,50.369183 4.72101895,50.369183 L29.3819447,50.369183 L29.3819447,45.6443865 L29.3819447,45.6443865 Z" id="Path" fill="#6C78B4"></path>
                <path d="M29.3819447,38.8211494 C29.3819447,37.6671016 30.325393,36.7236533 31.4794408,36.7236533 L50.3672942,36.7236533 L50.3672942,20.4612116 C50.3672942,17.8556322 48.2490214,15.7401926 45.6453308,15.7401926 L4.72101895,15.7401926 C2.11732836,15.7401926 1.5362424e-12,17.8556322 1.5362424e-12,20.4612116 L1.5362424e-12,45.6453308 L29.3819447,45.6453308 L29.3819447,38.8211494 Z" id="Path" stroke="#404B8A" stroke-width="1.5" stroke-linecap="round" stroke-linejoin="round"></path>
            </g>
            <path d="M36.3279914,28.82716 C38.9936368,28.82716 41.3541383,30.3457558 41.6587288,32.1646919 C41.6981943,32.3946409 41.898162,32.5623259 42.1314699,32.561114 L48.3024425,32.561114 C48.4337725,32.5622382 48.559863,32.5096698 48.6515008,32.4155882 C48.7431386,32.3215066 48.7923711,32.1940765 48.7877917,32.0628216 C48.5437283,27.396293 44.8895563,23.4904816 39.9464209,22.1851728 L39.9464209,17.5011767 C39.9464209,17.2243844 39.7220365,17 39.4452442,17 L33.3387087,17 C33.2057884,17 33.0783121,17.0528024 32.9843233,17.1467912 C32.8903344,17.2407801 32.837532,17.3682564 32.837532,17.5011767 L32.837532,22.1089147 C27.6180436,23.3116778 24,27.1893685 24,32.0590335 C24,35.493226 25.9621854,40.2194286 35.3094602,43.232125 C39.1867193,44.4822332 41.6918918,46.2123489 41.6918918,47.6397275 C41.6918918,49.739023 39.0027514,50.8716061 36.4722917,50.8716061 C33.8066564,50.8716061 31.4465967,49.3530205 31.1420519,47.5340894 C31.102591,47.3041355 30.9026227,47.1364435 30.6693107,47.1376521 L24.4983382,47.1376521 C24.3670118,47.1365265 24.2409243,47.1890928 24.149289,47.2831719 C24.0576537,47.3772509 24.0084234,47.504678 24.0130042,47.6359293 C24.2567375,52.2973598 27.9027597,56.1999621 32.8375168,57.5095362 L32.8375168,62.1988233 C32.8375168,62.4756156 33.0619012,62.7 33.3386934,62.7 L39.445229,62.7 C39.7220212,62.7 39.9464057,62.4756156 39.9464057,62.1988233 L39.9464057,57.593614 C45.1750848,56.3952585 48.8007807,52.5145668 48.8007807,47.6397275 C48.8007807,44.2060275 46.8385953,39.4800737 37.4908228,36.4661384 C33.6140613,35.2165278 31.1088889,33.4866609 31.1088889,32.0590335 C31.1088889,29.959738 33.7980292,28.82716 36.3279914,28.82716 Z" id="Path" fill="#8DA4FA" fill-rule="nonzero" filter="url(#filter-1)"></path>
            <path d="M36.3279914,28.82716 C38.9936368,28.82716 41.3541383,30.3457558 41.6587288,32.1646919 C41.6981943,32.3946409 41.898162,32.5623259 42.1314699,32.561114 L48.3024425,32.561114 C48.4337725,32.5622382 48.559863,32.5096698 48.6515008,32.4155882 C48.7431386,32.3215066 48.7923711,32.1940765 48.7877917,32.0628216 C48.5437283,27.396293 44.8895563,23.4904816 39.9464209,22.1851728 L39.9464209,17.5011767 C39.9464209,17.2243844 39.7220365,17 39.4452442,17 L33.3387087,17 C33.2057884,17 33.0783121,17.0528024 32.9843233,17.1467912 C32.8903344,17.2407801 32.837532,17.3682564 32.837532,17.5011767 L32.837532,22.1089147 C27.6180436,23.3116778 24,27.1893685 24,32.0590335 C24,35.493226 25.9621854,40.2194286 35.3094602,43.232125 C39.1867193,44.4822332 41.6918918,46.2123489 41.6918918,47.6397275 C41.6918918,49.739023 39.0027514,50.8716061 36.4722917,50.8716061 C33.8066564,50.8716061 31.4465967,49.3530205 31.1420519,47.5340894 C31.102591,47.3041355 30.9026227,47.1364435 30.6693107,47.1376521 L24.4983382,47.1376521 C24.3670118,47.1365265 24.2409243,47.1890928 24.149289,47.2831719 C24.0576537,47.3772509 24.0084234,47.504678 24.0130042,47.6359293 C24.2567375,52.2973598 27.9027597,56.1999621 32.8375168,57.5095362 L32.8375168,62.1988233 C32.8375168,62.4756156 33.0619012,62.7 33.3386934,62.7 L39.445229,62.7 C39.7220212,62.7 39.9464057,62.4756156 39.9464057,62.1988233 L39.9464057,57.593614 C45.1750848,56.3952585 48.8007807,52.5145668 48.8007807,47.6397275 C48.8007807,44.2060275 46.8385953,39.4800737 37.4908228,36.4661384 C33.6140613,35.2165278 31.1088889,33.4866609 31.1088889,32.0590335 C31.1088889,29.959738 33.7980292,28.82716 36.3279914,28.82716 Z" id="Path" fill="#8DA4FA" fill-rule="nonzero"></path>
        </g>
    </g>
</svg>