<?xml version="1.0" encoding="UTF-8"?>
<svg width="100px" height="100px" viewBox="0 0 100 100" version="1.1" xmlns="http://www.w3.org/2000/svg" xmlns:xlink="http://www.w3.org/1999/xlink">
    <title>Illustrations/Dark/100px/scenario</title>
    <defs>
        <filter x="-80.8%" y="-80.8%" width="261.6%" height="261.6%" filterUnits="objectBoundingBox" id="filter-1">
            <feGaussianBlur stdDeviation="4" in="SourceGraphic"></feGaussianBlur>
        </filter>
    </defs>
    <g id="Illustrations/Dark/100px/scenario" stroke="none" stroke-width="1" fill="none" fill-rule="evenodd">
        <g id="contract_details" transform="translate(21.000000, 16.000000)" fill-rule="nonzero">
            <path d="M33.4242805,49.8483311 C29.3305663,49.8483311 26,46.5178798 26,42.4241656 C26,38.3304514 29.3305686,35 33.4242805,35 C37.5179923,35 40.8484484,38.3304514 40.8484484,42.4241656 C40.8484484,46.5178798 37.5179947,49.8483311 33.4242805,49.8483311 Z" id="Path-Copy" fill="#879DEF" filter="url(#filter-1)"></path>
            <path d="M51,70 L2,70 L2,9 L6.66666667,9 L6.66666667,64.1346154 C6.66666667,64.7821538 7.18933333,65.3076923 7.83333333,65.3076923 L51,65.3076923 L51,70 Z" id="Path" fill="#8DA4FA"></path>
            <path d="M58.8461538,0 L8.07692308,0 C7.44,0 6.92307692,0.520258065 6.92307692,1.16129032 L6.92307692,6.96774194 L1.15384615,6.96774194 C0.516923077,6.96774194 0,7.488 0,8.12903226 L0,70.8387097 C0,71.4797419 0.516923077,72 1.15384615,72 L51.9230769,72 C52.56,72 53.0769231,71.4797419 53.0769231,70.8387097 L53.0769231,65.0322581 L58.8461538,65.0322581 C59.4830769,65.0322581 60,64.512 60,63.8709677 L60,1.16129032 C60,0.520258065 59.4830769,0 58.8461538,0 Z M51,70 L2,70 L2,9 L6.66666667,9 L6.66666667,64.1346154 C6.66666667,64.7821538 7.18933333,65.3076923 7.83333333,65.3076923 L51,65.3076923 L51,70 Z M58,63 L9,63 L9,2 L58,2 L58,63 Z M18,17 C18,16.448 18.512,16 19.1428571,16 L48.8571429,16 C49.488,16 50,16.448 50,17 C50,17.552 49.488,18 48.8571429,18 L19.1428571,18 C18.512,18 18,17.552 18,17 Z M18,23 C18,22.448 18.352,22 18.7857143,22 L39.2142857,22 C39.648,22 40,22.448 40,23 C40,23.552 39.648,24 39.2142857,24 L18.7857143,24 C18.352,24 18,23.552 18,23 Z" id="Shape" fill="#414D86"></path>
            <g id="Group" transform="translate(24.000000, 33.000000)">
                <path d="M9.40905802,2.17181494 C13.5027699,2.17181494 16.8332259,5.5022663 16.8332259,9.59598049 C16.8332259,13.6896947 13.5027722,17.020146 9.40905802,17.020146 C5.31534383,17.020146 1.98477753,13.6896947 1.98477753,9.59598049 C1.98477753,5.5022663 5.31534617,2.17181494 9.40905802,2.17181494 Z M6.90932889,11.6970122 C6.83866062,11.6970122 6.76753494,11.7025105 6.69629432,11.7139644 C6.34192321,11.7700872 6.03073136,11.9606736 5.81987123,12.2511343 C5.60889617,12.5413652 5.52368235,12.896196 5.57980506,13.2505672 C5.63592778,13.6049383 5.82674407,13.9162451 6.11697494,14.1272178 C6.4072058,14.3377331 6.76203667,14.4240916 7.11652272,14.3670541 C7.47089617,14.3109314 7.78220062,14.1201151 7.99306074,13.8298842 C8.42840938,13.2308658 8.29509037,12.389262 7.69595704,11.9538007 C7.46402333,11.7854326 7.19062741,11.6970122 6.90932889,11.6970122 Z M11.9086722,11.6970122 C11.6273737,11.6970122 11.3540927,11.7854349 11.122159,11.9538007 C10.8318132,12.1647735 10.6411119,12.4760802 10.5849891,12.8304514 C10.5288664,13.1848225 10.6140802,13.539651 10.8249404,13.8298842 C11.0358005,14.1201174 11.3471073,14.3109314 11.7014784,14.3670541 C12.055622,14.4238641 12.4107953,14.3377331 12.7010262,14.1272178 C12.9912594,13.9162451 13.1820733,13.6049383 13.238196,13.2505672 C13.2943188,12.896196 13.2091049,12.5413652 12.9981299,12.2511343 C12.7872698,11.9609011 12.4760779,11.7700872 12.1217068,11.7139644 C12.0505811,11.7025105 11.9793405,11.6970122 11.9086722,11.6970122 Z M9.38271605,8.71428901 C8.8848316,8.71428901 8.47972111,9.11928457 8.47972111,9.61728395 C8.47972111,10.1152833 8.8848316,10.5202789 9.38271605,10.5202789 C9.88060049,10.5202789 10.285711,10.1152833 10.285711,9.61728395 C10.285711,9.11928457 9.88060049,8.71428901 9.38271605,8.71428901 Z M14.7356283,7.86512506 C14.5069011,7.16119383 13.747192,6.77406531 13.0432584,7.00290506 C12.3388674,7.23174716 11.9520814,7.99111383 12.1809235,8.69550481 C12.291792,9.03659 12.5288815,9.31422222 12.8485483,9.4770921 C13.1682151,9.64018951 13.5319783,9.66859568 13.8732933,9.55772481 C14.2144935,9.4468563 14.4921257,9.20976679 14.6549956,8.89021494 C14.8178654,8.57043321 14.8464991,8.20644012 14.7356283,7.86512506 Z M5.77486,7.00290506 C5.07012654,6.77360556 4.31098741,7.16096395 4.08237519,7.86512506 C3.97150432,8.20644012 4.00013802,8.57043321 4.1630079,8.89021494 C4.32587778,9.20976679 4.60351,9.44685395 4.94471012,9.55772481 C5.6487563,9.78679679 6.40835284,9.39966827 6.63719494,8.69550481 C6.86603704,7.99111383 6.47913605,7.23174716 5.77486,7.00290506 Z M9.40905802,3.99521444 C8.66847556,3.99521444 8.0659058,4.59789679 8.0659058,5.3384816 C8.0659058,6.07906642 8.66847556,6.68152123 9.40905802,6.68152123 C10.1496405,6.68152123 10.7522102,6.07906407 10.7522102,5.3384816 C10.7522102,4.59789914 10.1496428,3.99521444 9.40905802,3.99521444 Z" id="Path-3" fill="#879DEF"></path>
                <path d="M9.40905802,1.70267914 C5.0566084,1.70267914 1.51564173,5.2436458 1.51564173,9.59598049 C1.51564173,13.9483152 5.0566084,17.4892819 9.40905802,17.4892819 C13.7613927,17.4892819 17.3023594,13.9483152 17.3023594,9.59598049 C17.3023594,5.2436458 13.7613927,1.70267914 9.40905802,1.70267914 Z M9.40905802,17.020146 C5.31534383,17.020146 1.98477753,13.6896947 1.98477753,9.59598049 C1.98477753,5.5022663 5.31534617,2.17181494 9.40905802,2.17181494 C13.5027699,2.17181494 16.8332259,5.5022663 16.8332259,9.59598049 C16.8332259,13.6896947 13.5027722,17.020146 9.40905802,17.020146 Z" id="Shape" fill="#879DEF"></path>
                <path d="M9.40905802,3.99521444 C10.1496428,3.99521444 10.7522102,4.59789914 10.7522102,5.3384816 C10.7522102,6.07906407 10.1496405,6.68152123 9.40905802,6.68152123 C8.66847556,6.68152123 8.0659058,6.07906642 8.0659058,5.3384816 C8.0659058,4.59789679 8.66847556,3.99521444 9.40905802,3.99521444 Z" id="Shape" fill="#414D86"></path>
                <path d="M4.94471012,9.55772481 C4.60351,9.44685395 4.32587778,9.20976679 4.1630079,8.89021494 C4.00013802,8.57043321 3.97150432,8.20644012 4.08237519,7.86512506 C4.31098741,7.16096395 5.07012654,6.77360556 5.77486,7.00290506 C6.47913605,7.23174716 6.86603704,7.99111383 6.63719494,8.69550481 C6.40835284,9.39966827 5.6487563,9.78679679 4.94471012,9.55772481 Z" id="Shape" fill="#414D86"></path>
                <path d="M7.99306074,13.8298842 C7.78220062,14.1201151 7.47089617,14.3109314 7.11652272,14.3670541 C6.76203667,14.4240916 6.4072058,14.3377331 6.11697494,14.1272178 C5.82674407,13.9162451 5.63592778,13.6049383 5.57980506,13.2505672 C5.52368235,12.896196 5.60889617,12.5413652 5.81987123,12.2511343 C6.03073136,11.9606736 6.34192321,11.7700872 6.69629432,11.7139644 C6.76753494,11.7025105 6.83866062,11.6970122 6.90932889,11.6970122 C7.19062741,11.6970122 7.46402333,11.7854326 7.69595704,11.9538007 C8.29509037,12.389262 8.42840938,13.2308658 7.99306074,13.8298842 Z" id="Shape" fill="#414D86"></path>
                <path d="M13.238196,13.2505672 C13.1820733,13.6049383 12.9912594,13.9162451 12.7010262,14.1272178 C12.4107953,14.3377331 12.055622,14.4238641 11.7014784,14.3670541 C11.3471073,14.3109314 11.0358005,14.1201174 10.8249404,13.8298842 C10.6140802,13.539651 10.5288664,13.1848225 10.5849891,12.8304514 C10.6411119,12.4760802 10.8318132,12.1647735 11.122159,11.9538007 C11.3540927,11.7854349 11.6273737,11.6970122 11.9086722,11.6970122 C11.9793405,11.6970122 12.0505811,11.7025105 12.1217068,11.7139644 C12.4760779,11.7700872 12.7872698,11.9609011 12.9981299,12.2511343 C13.2091049,12.5413652 13.2943188,12.896196 13.238196,13.2505672 Z" id="Shape" fill="#414D86"></path>
                <path d="M14.7356283,7.86512506 C14.8464991,8.20644012 14.8178654,8.57043321 14.6549956,8.89021494 C14.4921257,9.20976679 14.2144935,9.4468563 13.8732933,9.55772481 C13.5319783,9.66859568 13.1682151,9.64018951 12.8485483,9.4770921 C12.5288815,9.31422222 12.291792,9.03659 12.1809235,8.69550481 C11.9520814,7.99111383 12.3388674,7.23174716 13.0432584,7.00290506 C13.747192,6.77406531 14.5069011,7.16119383 14.7356283,7.86512506 Z" id="Shape" fill="#414D86"></path>
                <path d="M9.40905802,0.213264444 C4.23539321,0.213264444 0.0263419753,4.42243062 0.0263419753,9.59598049 C0.0263419753,13.7485079 2.73899074,17.2774928 6.48458975,18.5095607 L0.260909877,18.5095607 C0.131369753,18.5095607 0.0263419753,18.6144759 0.0263419753,18.7441286 C0.0263419753,18.8737814 0.131369753,18.9786965 0.260909877,18.9786965 L9.18216284,18.9786965 C9.19115383,18.9786965 9.19877025,18.9745728 9.20748914,18.9735853 C9.27474914,18.9750162 9.34146728,18.9786965 9.40905568,18.9786965 C14.5827205,18.9786965 18.7917717,14.7695304 18.7917717,9.59598049 C18.7917717,4.42243062 14.5827252,0.213264444 9.40905802,0.213264444 Z M9.40905802,18.5095607 C4.49412864,18.5095607 0.495477778,14.5109099 0.495477778,9.59598049 C0.495477778,4.68105111 4.49412864,0.682400247 9.40905802,0.682400247 C14.3239874,0.682400247 18.3226383,4.68105111 18.3226383,9.59598049 C18.3226383,14.5109099 14.3239898,18.5095607 9.40905802,18.5095607 Z" id="Shape" stroke="#414D86" stroke-width="0.6" fill="#414D86"></path>
                <path d="M9.38271605,10.5202789 C8.8848316,10.5202789 8.47972111,10.1152833 8.47972111,9.61728395 C8.47972111,9.11928457 8.8848316,8.71428901 9.38271605,8.71428901 C9.88060049,8.71428901 10.285711,9.11928457 10.285711,9.61728395 C10.285711,10.1152833 9.88060049,10.5202789 9.38271605,10.5202789 Z" id="Shape" fill="#414D86"></path>
            </g>
        </g>
    </g>
</svg>