<?xml version="1.0" encoding="UTF-8"?>
<svg width="170px" height="170px" viewBox="0 0 170 170" version="1.1" xmlns="http://www.w3.org/2000/svg" xmlns:xlink="http://www.w3.org/1999/xlink">
    <defs>
        <filter x="-34.2%" y="-31.7%" width="168.4%" height="163.4%" filterUnits="objectBoundingBox" id="filter-1">
            <feGaussianBlur stdDeviation="4" in="SourceGraphic"></feGaussianBlur>
        </filter>
        <filter x="-13.9%" y="-33.2%" width="127.8%" height="166.4%" filterUnits="objectBoundingBox" id="filter-2">
            <feGaussianBlur stdDeviation="4" in="SourceGraphic"></feGaussianBlur>
        </filter>
    </defs>
    <g id="Illustrations/170px/servicing_included" stroke="none" stroke-width="1" fill="none" fill-rule="evenodd">
        <path d="M29.0779504,102.717326 C39.2539752,155.712354 72.8718175,130.507258 66.2119688,118.700524 C59.5521201,106.893789 33.0431439,119.851809 66.5362041,143.717326" id="Path-4" stroke="#8DA4FA" stroke-width="2" stroke-linecap="round" filter="url(#filter-1)" transform="translate(48.077950, 123.217326) rotate(-95.000000) translate(-48.077950, -123.217326) "></path>
        <path d="M29.0779504,102.717326 C39.2539752,155.712354 72.8718175,130.507258 66.2119688,118.700524 C59.5521201,106.893789 33.0431439,119.851809 66.5362041,143.717326" id="Path-4" stroke="#8DA4FA" stroke-width="2" stroke-linecap="round" transform="translate(48.077950, 123.217326) rotate(-95.000000) translate(-48.077950, -123.217326) "></path>
        <polygon id="Path" fill="#8DA4FA" fill-rule="nonzero" filter="url(#filter-2)" points="131.121888 33.4377682 58.3885555 69.5703901 44.9092164 63.7164438"></polygon>
        <polygon id="Path" fill="#8DA4FA" fill-rule="nonzero" points="131.121888 33.4377682 58.3885555 69.5703901 44.9092164 63.7164438"></polygon>
        <path d="M44.2835471,64.6251788 L64.3121594,73.4949928 L72.1805429,95.5264664 C72.1805429,95.5264664 72.1805429,95.5264664 72.1805429,95.5264664 C72.1805429,95.5264664 72.1805429,95.6695279 72.3236044,95.6695279 C72.3236044,95.6695279 72.3236044,95.8125894 72.4666659,95.8125894 C72.4666659,95.8125894 72.6097274,95.9556509 72.6097274,95.9556509 C72.6097274,95.9556509 72.7527889,96.0987124 72.7527889,96.0987124 C72.7527889,96.0987124 72.7527889,96.0987124 72.7527889,96.0987124 C72.7527889,96.0987124 72.7527889,96.0987124 72.7527889,96.0987124 C72.8958504,96.0987124 73.038912,96.241774 73.1819735,96.241774 C73.325035,96.241774 73.4680965,96.241774 73.611158,96.241774 C73.611158,96.241774 73.611158,96.241774 73.611158,96.241774 C73.7542195,96.241774 73.7542195,96.0987124 73.8972811,96.0987124 C73.8972811,96.0987124 74.0403426,96.0987124 74.0403426,95.9556509 C74.0403426,95.9556509 74.0403426,95.9556509 74.0403426,95.9556509 L85.3422024,84.9399142 L101.651215,92.09299 C101.794277,92.09299 101.937338,92.2360515 102.0804,92.2360515 C102.509584,92.2360515 102.795707,92.09299 102.938769,91.6638054 L143.56824,28.7167382 C143.56824,28.7167382 143.56824,28.7167382 143.56824,28.7167382 C143.56824,28.7167382 143.56824,28.5736767 143.56824,28.5736767 C143.56824,28.5736767 143.56824,28.4306152 143.56824,28.4306152 C143.56824,28.4306152 143.56824,28.4306152 143.56824,28.2875536 C143.56824,28.2875536 143.56824,28.1444921 143.56824,28.1444921 C143.56824,28.1444921 143.56824,28.0014306 143.56824,28.0014306 C143.56824,28.0014306 143.56824,28.0014306 143.56824,27.8583691 C143.56824,27.8583691 143.56824,27.7153076 143.56824,27.7153076 C143.56824,27.7153076 143.56824,27.7153076 143.56824,27.7153076 C143.56824,27.7153076 143.56824,27.5722461 143.56824,27.5722461 C143.56824,27.5722461 143.56824,27.5722461 143.56824,27.5722461 C143.56824,27.5722461 143.56824,27.5722461 143.56824,27.4291845 C143.56824,27.4291845 143.56824,27.4291845 143.56824,27.4291845 C143.56824,27.4291845 143.56824,27.4291845 143.425178,27.286123 C143.425178,27.286123 143.425178,27.286123 143.425178,27.286123 C143.425178,27.286123 143.425178,27.1430615 143.282117,27.1430615 C143.282117,27.1430615 143.282117,27.1430615 143.282117,27.1430615 C143.282117,27.1430615 143.282117,27.1430615 143.282117,27.1430615 C143.282117,27.1430615 143.139055,27.1430615 143.139055,27 C143.139055,27 143.139055,27 142.995993,27 C142.995993,27 142.995993,27 142.852932,27 C142.852932,27 142.70987,27 142.70987,27 C142.70987,27 142.70987,27 142.566809,27 C142.566809,27 142.566809,27 142.423747,27 C142.423747,27 142.280686,27 142.280686,27 C142.280686,27 142.137624,27 142.137624,27 C142.137624,27 142.137624,27 142.137624,27 L44.2835471,62.6223176 C43.8543626,62.7653791 43.5682396,63.1945637 43.5682396,63.6237482 C43.5682396,64.0529328 43.8543626,64.4821173 44.2835471,64.6251788 Z M74.8987117,91.9499285 L76.9015729,81.2203147 L83.1962796,83.9384835 L74.8987117,91.9499285 Z M101.651215,89.8040057 L85.4852639,82.7939914 C85.4852639,82.7939914 85.4852639,82.7939914 85.4852639,82.7939914 L78.1891265,79.6466381 L138.274963,33.0085837 L101.651215,89.8040057 Z M131.121888,33.4377682 L65.027467,71.3490701 L47.7170235,63.6237482 L131.121888,33.4377682 Z" id="Shape" fill="#414D86" fill-rule="nonzero"></path>
    </g>
</svg>
