<?xml version="1.0" encoding="UTF-8"?>
<svg width="1745px" height="1044px" viewBox="0 0 1745 1044" version="1.1" xmlns="http://www.w3.org/2000/svg" xmlns:xlink="http://www.w3.org/1999/xlink">
    <title>stars-wallpaper</title>
    <g id="Illus-dark" stroke="none" stroke-width="1" fill="none" fill-rule="evenodd">
        <g id="stars-wallpaper" transform="translate(0.313020, 1.000000)">
            <g id="Group-3" transform="translate(0.000000, 457.927594)">
                <path d="M21.9670064,16.0528123 C21.9670064,22.1188336 17.0495244,27.0363155 10.9835032,27.0363155 C4.91748187,27.0363155 0,22.1188336 0,16.0528123 C0,9.98679101 4.91748187,5.06930915 10.9835032,5.06930915 C17.0495244,5.06930915 21.9670064,9.98679101 21.9670064,16.0528123 L21.9670064,16.0528123 Z" id="Path" fill="#879DEF" fill-rule="nonzero"></path>
                <path d="M28.7260852,10.9835032 C28.7260852,17.0495244 23.8086033,21.9670064 17.742582,21.9670064 C11.6765607,21.9670064 6.75907888,17.0495244 6.75907888,10.9835032 C6.75907888,4.91748187 11.6765607,0 17.742582,0 C23.8086033,0 28.7260852,4.91748187 28.7260852,10.9835032 L28.7260852,10.9835032 Z" id="Path" stroke="#000000"></path>
            </g>
            <g id="Group-3" transform="translate(1715.116263, 981.756207)">
                <path d="M21.9670064,16.0528123 C21.9670064,22.1188336 17.0495244,27.0363155 10.9835032,27.0363155 C4.91748187,27.0363155 0,22.1188336 0,16.0528123 C0,9.98679101 4.91748187,5.06930915 10.9835032,5.06930915 C17.0495244,5.06930915 21.9670064,9.98679101 21.9670064,16.0528123 L21.9670064,16.0528123 Z" id="Path" fill="#6F7CBD" fill-rule="nonzero"></path>
                <path d="M28.7260852,10.9835032 C28.7260852,17.0495244 23.8086033,21.9670064 17.742582,21.9670064 C11.6765607,21.9670064 6.75907888,17.0495244 6.75907888,10.9835032 C6.75907888,4.91748187 11.6765607,0 17.742582,0 C23.8086033,0 28.7260852,4.91748187 28.7260852,10.9835032 L28.7260852,10.9835032 Z" id="Path" stroke="#9EB1FF"></path>
            </g>
            <path d="M1410.95772,14.3630427 C1410.95772,20.429064 1406.04024,25.3465458 1399.97421,25.3465458 C1393.90819,25.3465458 1388.99071,20.429064 1388.99071,14.3630427 C1388.99071,8.29702131 1393.90819,3.37953943 1399.97421,3.37953943 C1406.04024,3.37953943 1410.95772,8.29702131 1410.95772,14.3630427 L1410.95772,14.3630427 Z" id="Path" fill="#6F7CBD" fill-rule="nonzero"></path>
            <g id="Group-2" transform="translate(4.387951, 1016.700176)">
                <path d="M29.0833859,10.8245158 L23.3214284,7.72687376 C22.9597521,7.53019553 22.662834,7.23232599 22.466784,6.8694907 L19.3790365,1.08906937 C19.0180898,0.418188147 18.3194009,0 17.5594711,0 C16.7995412,0 16.1008523,0.418188147 15.7399056,1.08906937 L12.652158,6.8694907 C12.456108,7.23232599 12.1591899,7.53019553 11.7975136,7.72687376 L6.03555622,10.8245158 C5.36681794,11.1866191 4.94996557,11.887547 4.94996557,12.649912 C4.94996557,13.412277 5.36681794,14.1132049 6.03555622,14.4753082 L11.7975136,17.5729502 C12.1591899,17.7696285 12.456108,18.067498 12.652158,18.4303333 L15.7399056,24.2107546 C16.1008523,24.8816359 16.7995412,25.299824 17.5594711,25.299824 C18.3194009,25.299824 19.0180898,24.8816359 19.3790365,24.2107546 L22.466784,18.4303333 C22.662834,18.067498 22.9597521,17.7696285 23.3214284,17.5729502 L29.0833859,14.5582808 C29.7967182,14.2116911 30.2497896,13.4865297 30.2497896,12.6913983 C30.2497896,11.8962669 29.7967182,11.1711055 29.0833859,10.8245158 L29.0833859,10.8245158 Z" id="Path" fill="#6F7CBD" fill-rule="nonzero"></path>
                <path d="M24.1334203,10.8245158 L18.3714629,7.72687376 C18.0097866,7.53019553 17.7128685,7.23232599 17.5168185,6.8694907 L14.429071,1.08906937 C14.0681243,0.418188147 13.3694353,0 12.6095055,0 C11.8495756,0 11.1508867,0.418188147 10.78994,1.08906937 L7.70219246,6.8694907 C7.50614247,7.23232599 7.20922438,7.53019553 6.84754806,7.72687376 L1.08559065,10.8245158 C0.416852364,11.1866191 0,11.887547 0,12.649912 C0,13.412277 0.416852364,14.1132049 1.08559065,14.4753082 L6.84754806,17.5729502 C7.20922438,17.7696285 7.50614247,18.067498 7.70219246,18.4303333 L10.78994,24.2107546 C11.1508867,24.8816359 11.8495756,25.299824 12.6095055,25.299824 C13.3694353,25.299824 14.0681243,24.8816359 14.429071,24.2107546 L17.5168185,18.4303333 C17.7128685,18.067498 18.0097866,17.7696285 18.3714629,17.5729502 L24.1334203,14.5582808 C24.8467527,14.2116911 25.299824,13.4865297 25.299824,12.6913983 C25.299824,11.8962669 24.8467527,11.1711055 24.1334203,10.8245158 L24.1334203,10.8245158 Z" id="Path" stroke="#9EB1FF"></path>
            </g>
            <g id="Group-2" transform="translate(1691.459488, 231.498451)">
                <path d="M44.6768787,16.628242 L35.8255615,11.8697528 C35.269967,11.5676226 34.8138518,11.1100459 34.5126868,10.552671 L29.7693972,1.67299022 C29.2149234,0.642405983 28.141622,0 26.9742444,0 C25.8068667,0 24.7335652,0.642405983 24.1790916,1.67299022 L19.435802,10.552671 C19.1346368,11.1100459 18.6785218,11.5676226 18.1229272,11.8697528 L9.27161007,16.628242 C8.24431772,17.1844925 7.60396373,18.2612334 7.60396373,19.4323518 C7.60396373,20.6034703 8.24431772,21.6802111 9.27161007,22.2364615 L18.1229272,26.9949507 C18.6785218,27.297081 19.1346368,27.7546577 19.435802,28.3120325 L24.1790916,37.1917133 C24.7335652,38.2222975 25.8068667,38.8647035 26.9742444,38.8647035 C28.141622,38.8647035 29.2149234,38.2222975 29.7693972,37.1917133 L34.5126868,28.3120325 C34.8138518,27.7546577 35.269967,27.297081 35.8255615,26.9949507 L44.6768787,22.363921 C45.7726749,21.8315021 46.4686672,20.7175345 46.4686672,19.4960815 C46.4686672,18.2746286 45.7726749,17.1606611 44.6768787,16.628242 L44.6768787,16.628242 Z" id="Path" fill="#6F7CBD" fill-rule="nonzero"></path>
                <path d="M37.072915,16.628242 L28.2215978,11.8697528 C27.6660033,11.5676226 27.2098881,11.1100459 26.908723,10.552671 L22.1654335,1.67299022 C21.6109597,0.642405983 20.5376582,0 19.3702807,0 C18.2029031,0 17.1296015,0.642405983 16.5751278,1.67299022 L11.8318383,10.552671 C11.5306731,11.1100459 11.074558,11.5676226 10.5189635,11.8697528 L1.66764633,16.628242 C0.640354,17.1844925 0,18.2612334 0,19.4323518 C0,20.6034703 0.640354,21.6802111 1.66764633,22.2364615 L10.5189635,26.9949507 C11.074558,27.297081 11.5306731,27.7546577 11.8318383,28.3120325 L16.5751278,37.1917133 C17.1296015,38.2222975 18.2029031,38.8647035 19.3702807,38.8647035 C20.5376582,38.8647035 21.6109597,38.2222975 22.1654335,37.1917133 L26.908723,28.3120325 C27.2098881,27.7546577 27.6660033,27.297081 28.2215978,26.9949507 L37.072915,22.363921 C38.1687112,21.8315021 38.8647035,20.7175345 38.8647035,19.4960815 C38.8647035,18.2746286 38.1687112,17.1606611 37.072915,16.628242 L37.072915,16.628242 Z" id="Path" stroke="#9EB1FF"></path>
            </g>
            <g id="Group-2" transform="translate(219.670064, 770.534991)">
                <path d="M44.6768787,16.628242 L35.8255615,11.8697528 C35.269967,11.5676226 34.8138518,11.1100459 34.5126868,10.552671 L29.7693972,1.67299022 C29.2149234,0.642405983 28.141622,0 26.9742444,0 C25.8068667,0 24.7335652,0.642405983 24.1790916,1.67299022 L19.435802,10.552671 C19.1346368,11.1100459 18.6785218,11.5676226 18.1229272,11.8697528 L9.27161007,16.628242 C8.24431772,17.1844925 7.60396373,18.2612334 7.60396373,19.4323518 C7.60396373,20.6034703 8.24431772,21.6802111 9.27161007,22.2364615 L18.1229272,26.9949507 C18.6785218,27.297081 19.1346368,27.7546577 19.435802,28.3120325 L24.1790916,37.1917133 C24.7335652,38.2222975 25.8068667,38.8647035 26.9742444,38.8647035 C28.141622,38.8647035 29.2149234,38.2222975 29.7693972,37.1917133 L34.5126868,28.3120325 C34.8138518,27.7546577 35.269967,27.297081 35.8255615,26.9949507 L44.6768787,22.363921 C45.7726749,21.8315021 46.4686672,20.7175345 46.4686672,19.4960815 C46.4686672,18.2746286 45.7726749,17.1606611 44.6768787,16.628242 L44.6768787,16.628242 Z" id="Path" fill="#6F7CBD" fill-rule="nonzero"></path>
                <path d="M37.072915,16.628242 L28.2215978,11.8697528 C27.6660033,11.5676226 27.2098881,11.1100459 26.908723,10.552671 L22.1654335,1.67299022 C21.6109597,0.642405983 20.5376582,0 19.3702807,0 C18.2029031,0 17.1296015,0.642405983 16.5751278,1.67299022 L11.8318383,10.552671 C11.5306731,11.1100459 11.074558,11.5676226 10.5189635,11.8697528 L1.66764633,16.628242 C0.640354,17.1844925 0,18.2612334 0,19.4323518 C0,20.6034703 0.640354,21.6802111 1.66764633,22.2364615 L10.5189635,26.9949507 C11.074558,27.297081 11.5306731,27.7546577 11.8318383,28.3120325 L16.5751278,37.1917133 C17.1296015,38.2222975 18.2029031,38.8647035 19.3702807,38.8647035 C20.5376582,38.8647035 21.6109597,38.2222975 22.1654335,37.1917133 L26.908723,28.3120325 C27.2098881,27.7546577 27.6660033,27.297081 28.2215978,26.9949507 L37.072915,22.363921 C38.1687112,21.8315021 38.8647035,20.7175345 38.8647035,19.4960815 C38.8647035,18.2746286 38.1687112,17.1606611 37.072915,16.628242 L37.072915,16.628242 Z" id="Path" stroke="#9EB1FF"></path>
            </g>
            <path d="M1414.33726,10.9835032 C1414.33726,17.0495244 1409.41977,21.9670064 1403.35375,21.9670064 C1397.28773,21.9670064 1392.37025,17.0495244 1392.37025,10.9835032 C1392.37025,4.91748187 1397.28773,0 1403.35375,0 C1409.41977,0 1414.33726,4.91748187 1414.33726,10.9835032 L1414.33726,10.9835032 Z" id="Path" stroke="#000000" stroke-width="2"></path>
        </g>
    </g>
</svg>