<?xml version="1.0" encoding="UTF-8"?>
<svg width="133px" height="96px" viewBox="0 0 133 96" version="1.1" xmlns="http://www.w3.org/2000/svg" xmlns:xlink="http://www.w3.org/1999/xlink">
    <title>topfilms</title>
    <defs>
        <filter x="-100.0%" y="-113.8%" width="300.0%" height="327.6%" filterUnits="objectBoundingBox" id="filter-1">
            <feGaussianBlur stdDeviation="10" in="SourceGraphic"></feGaussianBlur>
        </filter>
        <filter x="-387.8%" y="-290.9%" width="875.6%" height="681.7%" filterUnits="objectBoundingBox" id="filter-2">
            <feGaussianBlur stdDeviation="10" in="SourceGraphic"></feGaussianBlur>
        </filter>
    </defs>
    <g id="illustrations" stroke="none" stroke-width="1" fill="none" fill-rule="evenodd">
        <g id="illustrations/topfilms" transform="translate(-18.000000, -34.000000)">
            <g id="topfilms" transform="translate(19.000000, 41.000000)">
                <g id="Group-3">
                    <g id="Group-2">
                        <path d="M2.09067721,-2.59008274e-13 L20.1036518,-2.59008274e-13 L20.1036518,-2.59008274e-13 L128.750662,-2.59008274e-13 C129.855232,-2.5921118e-13 130.750662,0.8954305 130.750662,2 L130.750662,85.4638587 C130.750662,86.5684282 129.855232,87.4638587 128.750662,87.4638587 L2.09067721,87.4638587 C0.986107715,87.4638587 0.0906772148,86.5684282 0.0906772148,85.4638587 L0.0906772148,2 C0.0906772148,0.8954305 0.986107715,-2.58805368e-13 2.09067721,-2.59008274e-13 Z" id="Rectangle-2" stroke="#404B8A" stroke-width="2"></path>
                        <g id="laurel" transform="translate(70.626087, 28.478261)" fill="#8DA4FA" fill-rule="nonzero">
                            <path d="M16.9915695,9.98607934 C16.9915695,9.98502745 16.9922103,9.98448454 16.992811,9.98397556 C17.2443507,9.63138837 17.4646131,9.26132622 17.651716,8.87589288 C17.8594835,8.93581676 18.0584406,8.96282661 18.2480665,8.96282661 C20.0790078,8.96282661 21.073913,6.44999398 21.073913,6.44999398 C20.8786805,6.43621759 20.692819,6.42983838 20.5170096,6.42983838 C19.4995574,6.42983838 18.7868283,6.64510285 18.2881142,6.9417362 C18.3775808,6.4661456 18.4257982,5.97572672 18.4314049,5.47577296 C20.4588203,5.20221335 19.9450882,2.38850587 19.9450882,2.38850587 C19.0940744,2.68887174 18.5546717,3.05469239 18.2205537,3.42821561 C18.1060573,2.8967051 17.979026,2.51551326 17.9339723,2.38799689 C18.4276805,0.89339505 15.5573809,0 15.5573809,0 C15.303959,1.93283333 16.4722308,2.56960083 17.1711835,2.77634838 C17.2343788,2.95900421 17.4508767,3.63102704 17.5397426,4.56598876 C16.7363054,3.80146736 15.517974,3.32482487 15.517974,3.32482487 C14.9222643,5.93229379 16.695617,6.70132814 17.4296114,6.90464855 C17.410829,6.99796149 17.3908052,7.09022254 17.3688991,7.18194068 C17.2368618,7.73068862 17.0416292,8.25449657 16.7869658,8.74969986 C16.5072726,7.67232562 15.5874167,6.66790514 15.5874167,6.66790514 C13.6088195,8.78573562 14.7063671,10.2013438 15.2858174,10.7225051 C14.8340392,11.1487586 14.3165427,11.5395192 13.7358509,11.8942102 C14.0412146,10.7368244 13.4899179,9.31008647 13.4899179,9.31008647 C10.908082,10.6753057 11.2172103,12.2377715 11.5451209,12.9487482 C11.3110821,13.0378197 11.0695544,13.1221067 10.8217792,13.203238 C10.5245451,13.1062265 10.2367222,13.0033448 9.95887115,12.8952035 C10.2029219,12.1481571 10.2980352,10.6074417 7.63922765,9.46118557 C7.63922765,9.46118557 7.32072821,10.6154157 7.54847954,11.6646604 C7.11107844,11.3730489 6.71436582,11.0586692 6.3577009,10.7225051 C6.93711118,10.2013438 8.03405803,8.78573562 6.05606155,6.66790514 C6.05606155,6.66790514 5.13620568,7.67235955 4.85651247,8.74915695 C4.60433203,8.25978996 4.41098168,7.74232729 4.27894438,7.20046754 C4.25515604,7.1029131 4.23389071,7.00430677 4.21386685,6.90461462 C4.94850206,6.70129421 6.72121398,5.9319884 6.12614504,3.32479094 C6.12614504,3.32479094 4.90717282,3.80143343 4.10373565,4.56595483 C4.19260152,3.63520067 4.40909944,2.96002217 4.47293549,2.77631444 C5.17188819,2.56926151 6.33951924,1.9327994 6.08609733,0 C6.08609733,0 3.21267408,0.894175485 3.71014674,2.39010067 C3.66445231,2.51999228 3.53746102,2.89986078 3.42356533,3.42872459 C3.08880651,3.05492991 2.5494039,2.6888378 1.69839004,2.38850587 C1.69839004,2.38850587 1.18465801,5.20221335 3.21207337,5.47577296 C3.21772009,5.97572672 3.26589749,6.46617953 3.35536407,6.9417362 C2.85664993,6.64510285 2.14392082,6.42983838 1.12646868,6.42983838 C0.950619186,6.42983838 0.764797807,6.43621759 0.569565217,6.44999398 C0.569565217,6.44999398 1.56451054,8.96282661 3.39541179,8.96282661 C3.58499765,8.96282661 3.78399472,8.93578282 3.99176225,8.87589288 C4.17886515,9.26132622 4.39912756,9.63142231 4.65066723,9.98397556 C4.651308,9.98451847 4.65190871,9.98502745 4.65190871,9.98607934 C4.36592801,9.9245946 4.04806933,9.8895768 3.69576962,9.8895768 C3.06377669,9.8895768 2.32037104,10.0030453 1.44997409,10.2861738 C1.44997409,10.2861738 3.25900928,12.4880537 5.20444698,12.4880537 C5.6956722,12.4880537 6.19498706,12.3475414 6.67684111,11.9960401 C7.51031407,12.6009794 8.48835926,13.1210887 9.60785297,13.5558592 C8.75371539,13.7748222 7.83325881,13.9545599 6.84704388,14.0950722 L6.98845235,14.8086957 C8.39076299,14.6093453 9.66916601,14.3315442 10.8217792,13.9763103 C11.9743923,14.3315442 13.2527954,14.6093453 14.655106,14.8086957 L14.7965145,14.0950722 C13.8103396,13.9545599 12.889883,13.7748222 12.0357054,13.5558592 C13.155159,13.1211227 14.1332042,12.6009794 14.9667172,11.9960401 C15.4479305,12.3475414 15.9478862,12.4880537 16.4391114,12.4880537 C18.3845491,12.4880537 20.1935843,10.2861738 20.1935843,10.2861738 C19.3231873,10.0030453 18.5797817,9.8895768 17.9477887,9.8895768 C17.595449,9.8895768 17.2775503,9.92456067 16.9915695,9.98607934 Z" id="Shape"></path>
                        </g>
                        <polygon id="Path-2" fill="#404B8A" fill-rule="nonzero" points="129.944605 9.74589372 129.94525 11.6950723 0.000644341237 11.7538024 3.88512411e-13 9.80462383"></polygon>
                        <circle id="Oval" fill="#404B8A" cx="6.49726248" cy="5.68510467" r="1.62431562"></circle>
                        <circle id="Oval" fill="#404B8A" cx="12.994525" cy="5.68510467" r="1.62431562"></circle>
                        <circle id="Oval" fill="#404B8A" cx="19.4917874" cy="5.68510467" r="1.62431562"></circle>
                    </g>
                    <line x1="3.4173913" y1="19.3652174" x2="26.7695652" y2="19.3652174" id="Line-2-Copy" stroke="#404B8A" stroke-width="2.5" stroke-linecap="round" stroke-linejoin="round"></line>
                    <line x1="3.4173913" y1="55.2478261" x2="26.7695652" y2="55.2478261" id="Line-2-Copy-2" stroke="#404B8A" stroke-width="2.5" stroke-linecap="round" stroke-linejoin="round"></line>
                    <g id="multimedia" transform="translate(66.069565, 23.921739)" fill="#8DA4FA" fill-rule="nonzero">
                        <path d="M29.9949317,21.0901863 L28.2374161,21.0901863 L28.2374161,5.27254658 L29.9949317,5.27254658 L29.9949317,0 L0,0 L0,5.27254658 L1.75757411,5.27254658 L1.75757411,21.0901863 L0,21.0901863 L0,26.3627329 L29.9949317,26.3627329 L29.9949317,21.0901863 Z M28.2374161,3.51503106 L25.2496398,3.51503106 L25.2496398,1.75751553 L28.2374161,1.75751553 L28.2374161,3.51503106 Z M6.50280745,3.51503106 L6.50280745,1.75751553 L9.432,1.75751553 L9.432,3.51503106 L6.50280745,3.51503106 Z M11.1895155,1.75751553 L14.1187081,1.75751553 L14.1187081,3.51503106 L11.1895155,3.51503106 L11.1895155,1.75751553 Z M15.8762236,1.75751553 L18.8054161,1.75751553 L18.8054161,3.51503106 L15.8762236,3.51503106 L15.8762236,1.75751553 Z M20.5629317,1.75751553 L23.4921242,1.75751553 L23.4921242,3.51503106 L20.5629317,3.51503106 L20.5629317,1.75751553 Z M1.75751553,1.75751553 L4.74529193,1.75751553 L4.74529193,3.51503106 L1.75751553,3.51503106 L1.75751553,1.75751553 Z M3.51503106,5.27254658 L26.4799592,5.27254658 L26.4799592,21.0901863 L3.51503106,21.0901863 L3.51503106,5.27254658 Z M9.432,22.8477019 L9.432,24.6052174 L6.50280745,24.6052174 L6.50280745,22.8477019 L9.432,22.8477019 Z M11.1895155,22.8477019 L14.1187081,22.8477019 L14.1187081,24.6052174 L11.1895155,24.6052174 L11.1895155,22.8477019 Z M15.8762236,22.8477019 L18.8054161,22.8477019 L18.8054161,24.6052174 L15.8762236,24.6052174 L15.8762236,22.8477019 Z M20.5629317,22.8477019 L23.4921242,22.8477019 L23.4921242,24.6052174 L20.5629317,24.6052174 L20.5629317,22.8477019 Z M1.75751553,22.8477019 L4.74529193,22.8477019 L4.74529193,24.6052174 L1.75751553,24.6052174 L1.75751553,22.8477019 Z M28.2374161,24.6052174 L25.2496398,24.6052174 L25.2496398,22.8477019 L28.2374161,22.8477019 L28.2374161,24.6052174 Z" id="Shape" filter="url(#filter-1)"></path>
                        <path d="M12.3611925,8.02434723 L12.3611925,18.3383857 L20.0967214,13.1813665 L12.3611925,8.02434723 Z M14.1187081,11.3083236 L16.9282724,13.1813665 L14.1187081,15.0544093 L14.1187081,11.3083236 Z" id="Shape" filter="url(#filter-2)"></path>
                    </g>
                    <g id="multimedia-copy" transform="translate(58.421118, 17.086957)" fill="#8DA4FA" fill-rule="nonzero">
                        <path d="M45.2397516,30.4636025 L42.6366605,30.4636025 L42.6366605,7.61590062 L45.2397516,7.61590062 L45.2397516,-5.26110556e-14 L0.813664596,-5.26110556e-14 L0.813664596,7.61590062 L3.4168424,7.61590062 L3.4168424,30.4636025 L0.813664596,30.4636025 L0.813664596,38.0795031 L45.2397516,38.0795031 L45.2397516,30.4636025 Z M42.6366605,5.07726708 L38.2114058,5.07726708 L38.2114058,2.53863354 L42.6366605,2.53863354 L42.6366605,5.07726708 Z M10.4451014,5.07726708 L10.4451014,2.53863354 L14.7835865,2.53863354 L14.7835865,5.07726708 L10.4451014,5.07726708 Z M17.3866775,2.53863354 L21.7251626,2.53863354 L21.7251626,5.07726708 L17.3866775,5.07726708 L17.3866775,2.53863354 Z M24.3282536,2.53863354 L28.6667386,2.53863354 L28.6667386,5.07726708 L24.3282536,5.07726708 L24.3282536,2.53863354 Z M31.2698297,2.53863354 L35.6083147,2.53863354 L35.6083147,5.07726708 L31.2698297,5.07726708 L31.2698297,2.53863354 Z M3.41675563,2.53863354 L7.84201038,2.53863354 L7.84201038,5.07726708 L3.41675563,5.07726708 L3.41675563,2.53863354 Z M6.01984666,7.61590062 L40.0336563,7.61590062 L40.0336563,30.4636025 L6.01984666,30.4636025 L6.01984666,7.61590062 Z M14.7835865,33.002236 L14.7835865,35.5408696 L10.4451014,35.5408696 L10.4451014,33.002236 L14.7835865,33.002236 Z M17.3866775,33.002236 L21.7251626,33.002236 L21.7251626,35.5408696 L17.3866775,35.5408696 L17.3866775,33.002236 Z M24.3282536,33.002236 L28.6667386,33.002236 L28.6667386,35.5408696 L24.3282536,35.5408696 L24.3282536,33.002236 Z M31.2698297,33.002236 L35.6083147,33.002236 L35.6083147,35.5408696 L31.2698297,35.5408696 L31.2698297,33.002236 Z M3.41675563,33.002236 L7.84201038,33.002236 L7.84201038,35.5408696 L3.41675563,35.5408696 L3.41675563,33.002236 Z M42.6366605,35.5408696 L38.2114058,35.5408696 L38.2114058,33.002236 L42.6366605,33.002236 L42.6366605,35.5408696 Z" id="Shape"></path>
                        <polygon id="Path" points="21.8875776 13.6695652 21.8875776 18.226087 25.3049689 15.9478261"></polygon>
                    </g>
                    <g id="multimedia" transform="translate(5.695652, 27.339130)" fill="#404B8A" fill-rule="nonzero">
                        <path d="M23.3293913,16.4034783 L21.9624348,16.4034783 L21.9624348,4.10086957 L23.3293913,4.10086957 L23.3293913,0 L0,0 L0,4.10086957 L1.36700209,4.10086957 L1.36700209,16.4034783 L0,16.4034783 L0,20.5043478 L23.3293913,20.5043478 L23.3293913,16.4034783 Z M21.9624348,2.73391304 L19.6386087,2.73391304 L19.6386087,1.36695652 L21.9624348,1.36695652 L21.9624348,2.73391304 Z M5.05773913,2.73391304 L5.05773913,1.36695652 L7.336,1.36695652 L7.336,2.73391304 L5.05773913,2.73391304 Z M8.70295652,1.36695652 L10.9812174,1.36695652 L10.9812174,2.73391304 L8.70295652,2.73391304 L8.70295652,1.36695652 Z M12.3481739,1.36695652 L14.6264348,1.36695652 L14.6264348,2.73391304 L12.3481739,2.73391304 L12.3481739,1.36695652 Z M15.9933913,1.36695652 L18.2716522,1.36695652 L18.2716522,2.73391304 L15.9933913,2.73391304 L15.9933913,1.36695652 Z M1.36695652,1.36695652 L3.69078261,1.36695652 L3.69078261,2.73391304 L1.36695652,2.73391304 L1.36695652,1.36695652 Z M2.73391304,4.10086957 L20.5955238,4.10086957 L20.5955238,16.4034783 L2.73391304,16.4034783 L2.73391304,4.10086957 Z M7.336,17.7704348 L7.336,19.1373913 L5.05773913,19.1373913 L5.05773913,17.7704348 L7.336,17.7704348 Z M8.70295652,17.7704348 L10.9812174,17.7704348 L10.9812174,19.1373913 L8.70295652,19.1373913 L8.70295652,17.7704348 Z M12.3481739,17.7704348 L14.6264348,17.7704348 L14.6264348,19.1373913 L12.3481739,19.1373913 L12.3481739,17.7704348 Z M15.9933913,17.7704348 L18.2716522,17.7704348 L18.2716522,19.1373913 L15.9933913,19.1373913 L15.9933913,17.7704348 Z M1.36695652,17.7704348 L3.69078261,17.7704348 L3.69078261,19.1373913 L1.36695652,19.1373913 L1.36695652,17.7704348 Z M21.9624348,19.1373913 L19.6386087,19.1373913 L19.6386087,17.7704348 L21.9624348,17.7704348 L21.9624348,19.1373913 Z" id="Shape"></path>
                        <path d="M9.61426087,6.24115896 L9.61426087,14.2631889 L15.6307833,10.2521739 L9.61426087,6.24115896 Z M10.9812174,8.79536278 L13.1664341,10.2521739 L10.9812174,11.708985 L10.9812174,8.79536278 Z" id="Shape"></path>
                    </g>
                    <g id="multimedia" transform="translate(33.034783, 27.339130)" fill="#404B8A" fill-rule="nonzero">
                        <path d="M23.3293913,16.4034783 L21.9624348,16.4034783 L21.9624348,4.10086957 L23.3293913,4.10086957 L23.3293913,0 L0,0 L0,4.10086957 L1.36700209,4.10086957 L1.36700209,16.4034783 L0,16.4034783 L0,20.5043478 L23.3293913,20.5043478 L23.3293913,16.4034783 Z M21.9624348,2.73391304 L19.6386087,2.73391304 L19.6386087,1.36695652 L21.9624348,1.36695652 L21.9624348,2.73391304 Z M5.05773913,2.73391304 L5.05773913,1.36695652 L7.336,1.36695652 L7.336,2.73391304 L5.05773913,2.73391304 Z M8.70295652,1.36695652 L10.9812174,1.36695652 L10.9812174,2.73391304 L8.70295652,2.73391304 L8.70295652,1.36695652 Z M12.3481739,1.36695652 L14.6264348,1.36695652 L14.6264348,2.73391304 L12.3481739,2.73391304 L12.3481739,1.36695652 Z M15.9933913,1.36695652 L18.2716522,1.36695652 L18.2716522,2.73391304 L15.9933913,2.73391304 L15.9933913,1.36695652 Z M1.36695652,1.36695652 L3.69078261,1.36695652 L3.69078261,2.73391304 L1.36695652,2.73391304 L1.36695652,1.36695652 Z M2.73391304,4.10086957 L20.5955238,4.10086957 L20.5955238,16.4034783 L2.73391304,16.4034783 L2.73391304,4.10086957 Z M7.336,17.7704348 L7.336,19.1373913 L5.05773913,19.1373913 L5.05773913,17.7704348 L7.336,17.7704348 Z M8.70295652,17.7704348 L10.9812174,17.7704348 L10.9812174,19.1373913 L8.70295652,19.1373913 L8.70295652,17.7704348 Z M12.3481739,17.7704348 L14.6264348,17.7704348 L14.6264348,19.1373913 L12.3481739,19.1373913 L12.3481739,17.7704348 Z M15.9933913,17.7704348 L18.2716522,17.7704348 L18.2716522,19.1373913 L15.9933913,19.1373913 L15.9933913,17.7704348 Z M1.36695652,17.7704348 L3.69078261,17.7704348 L3.69078261,19.1373913 L1.36695652,19.1373913 L1.36695652,17.7704348 Z M21.9624348,19.1373913 L19.6386087,19.1373913 L19.6386087,17.7704348 L21.9624348,17.7704348 L21.9624348,19.1373913 Z" id="Shape"></path>
                        <path d="M9.61426087,6.24115896 L9.61426087,14.2631889 L15.6307833,10.2521739 L9.61426087,6.24115896 Z M10.9812174,8.79536278 L13.1664341,10.2521739 L10.9812174,11.708985 L10.9812174,8.79536278 Z" id="Shape"></path>
                    </g>
                    <g id="multimedia" transform="translate(104.800000, 27.339130)" fill="#404B8A" fill-rule="nonzero">
                        <path d="M23.3293913,16.4034783 L21.9624348,16.4034783 L21.9624348,4.10086957 L23.3293913,4.10086957 L23.3293913,0 L0,0 L0,4.10086957 L1.36700209,4.10086957 L1.36700209,16.4034783 L0,16.4034783 L0,20.5043478 L23.3293913,20.5043478 L23.3293913,16.4034783 Z M21.9624348,2.73391304 L19.6386087,2.73391304 L19.6386087,1.36695652 L21.9624348,1.36695652 L21.9624348,2.73391304 Z M5.05773913,2.73391304 L5.05773913,1.36695652 L7.336,1.36695652 L7.336,2.73391304 L5.05773913,2.73391304 Z M8.70295652,1.36695652 L10.9812174,1.36695652 L10.9812174,2.73391304 L8.70295652,2.73391304 L8.70295652,1.36695652 Z M12.3481739,1.36695652 L14.6264348,1.36695652 L14.6264348,2.73391304 L12.3481739,2.73391304 L12.3481739,1.36695652 Z M15.9933913,1.36695652 L18.2716522,1.36695652 L18.2716522,2.73391304 L15.9933913,2.73391304 L15.9933913,1.36695652 Z M1.36695652,1.36695652 L3.69078261,1.36695652 L3.69078261,2.73391304 L1.36695652,2.73391304 L1.36695652,1.36695652 Z M2.73391304,4.10086957 L20.5955238,4.10086957 L20.5955238,16.4034783 L2.73391304,16.4034783 L2.73391304,4.10086957 Z M7.336,17.7704348 L7.336,19.1373913 L5.05773913,19.1373913 L5.05773913,17.7704348 L7.336,17.7704348 Z M8.70295652,17.7704348 L10.9812174,17.7704348 L10.9812174,19.1373913 L8.70295652,19.1373913 L8.70295652,17.7704348 Z M12.3481739,17.7704348 L14.6264348,17.7704348 L14.6264348,19.1373913 L12.3481739,19.1373913 L12.3481739,17.7704348 Z M15.9933913,17.7704348 L18.2716522,17.7704348 L18.2716522,19.1373913 L15.9933913,19.1373913 L15.9933913,17.7704348 Z M1.36695652,17.7704348 L3.69078261,17.7704348 L3.69078261,19.1373913 L1.36695652,19.1373913 L1.36695652,17.7704348 Z M21.9624348,19.1373913 L19.6386087,19.1373913 L19.6386087,17.7704348 L21.9624348,17.7704348 L21.9624348,19.1373913 Z" id="Shape"></path>
                        <path d="M9.61426087,6.24115896 L9.61426087,14.2631889 L15.6307833,10.2521739 L9.61426087,6.24115896 Z M10.9812174,8.79536278 L13.1664341,10.2521739 L10.9812174,11.708985 L10.9812174,8.79536278 Z" id="Shape"></path>
                    </g>
                </g>
                <g id="Group" transform="translate(6.834783, 63.791304)" stroke="#404B8A" stroke-linecap="round" stroke-linejoin="round">
                    <rect id="Rectangle" stroke-width="1.5" x="0" y="0" width="34.173913" height="13.6695652"></rect>
                    <line x1="42.1478261" y1="1.13913043" x2="68.9173913" y2="1.13913043" id="Line-2" stroke-width="3"></line>
                    <line x1="42.1478261" y1="7.97391304" x2="108.217391" y2="7.97391304" id="Line-2-Copy" stroke-width="1.5"></line>
                    <line x1="42.1478261" y1="12.5304348" x2="108.217391" y2="12.5304348" id="Line-2-Copy-2" stroke-width="1.5"></line>
                </g>
            </g>
        </g>
    </g>
</svg>