<?xml version="1.0" encoding="UTF-8"?>
<svg width="23px" height="24px" viewBox="0 0 23 24" version="1.1" xmlns="http://www.w3.org/2000/svg" xmlns:xlink="http://www.w3.org/1999/xlink">
    <title>user-dark</title>
    <defs>
        <filter x="-7826.1%" y="-14990.2%" width="15752.2%" height="30080.4%" filterUnits="objectBoundingBox" id="filter-1">
            <feGaussianBlur stdDeviation="50" in="SourceGraphic"></feGaussianBlur>
        </filter>
        <filter x="-2500.0%" y="-4990.2%" width="5100.0%" height="10080.4%" filterUnits="objectBoundingBox" id="filter-2">
            <feGaussianBlur stdDeviation="50" in="SourceGraphic"></feGaussianBlur>
        </filter>
    </defs>
    <g id="Page-1" stroke="none" stroke-width="1" fill="none" fill-rule="evenodd">
        <g id="user-dark">
            <rect id="Rectangle" x="0" y="0" width="24" height="24"></rect>
            <path d="M4.6854127,15.2958559 C6.13044873,14.3795461 18.7600637,13.8041035 20.2473392,14.4406334 C23.107626,15.6632235 22.1237477,21.8320291 21.7574458,23.3677557 C21.7393961,23.4434293 2.01326878,23.3677557 0.598060762,23.3862608 C0.153434291,23.0197369 2.98471644,16.3722145 4.6854127,15.2958559 Z" id="Path" stroke="#414D86" stroke-width="0.5" fill="#414D86" fill-rule="nonzero"></path>
            <path d="M16.3677905,12.5918888 L16.42132,14.5943915 C16.42132,15.0902674 11.6237306,15.118766 11.6270676,14.5943915 L11.6270676,11.2847523" id="Path" stroke="#434E85" stroke-width="0.5" fill="#6F7CBD"></path>
            <ellipse id="Oval" stroke="#414D86" stroke-width="0.5" fill="#6F7CBD" cx="15.2819173" cy="8.41587183" rx="4.97727273" ry="4.30156567"></ellipse>
            <path d="M21.066207,9.79494191 C21.094801,9.57729009 20.6895584,9.36566541 20.1610724,9.32226495 C19.6325864,9.27886449 19.1809839,9.42012313 19.1523899,9.63777494 C19.1237959,9.85542676 19.5290384,10.0670514 20.0575244,10.1104519 C20.5860104,10.1538524 21.037613,10.0125937 21.066207,9.79494191 Z" id="Oval" fill="#FF6E61" fill-rule="nonzero" filter="url(#filter-1)"></path>
            <path d="M19.3965049,10.6005198 C19.4860166,9.94756441 18.2174311,9.31269037 16.5630401,9.18248899 C14.9086491,9.05228761 13.494937,9.47606353 13.4054253,10.129019 C13.3159137,10.7819744 14.5844989,11.4168485 16.2388898,11.5470498 C17.8932808,11.6772512 19.3069933,11.2534753 19.3965049,10.6005198 Z" id="Oval" fill="#FF6E61" fill-rule="nonzero" filter="url(#filter-2)"></path>
            <path d="M21.066207,9.79494191 C21.094801,9.57729009 20.6895584,9.36566541 20.1610724,9.32226495 C19.6325864,9.27886449 19.1809839,9.42012313 19.1523899,9.63777494 C19.1237959,9.85542676 19.5290384,10.0670514 20.0575244,10.1104519 C20.5860104,10.1538524 21.037613,10.0125937 21.066207,9.79494191 Z" id="Oval-Copy-2" fill="#FF6E61" fill-rule="nonzero"></path>
            <path d="M15.316207,9.44335289 C15.344801,9.22570108 14.9395584,9.0140764 14.4110724,8.97067594 C13.8825864,8.92727548 13.4309839,9.06853412 13.4023899,9.28618593 C13.3737959,9.50383775 13.7790384,9.71546243 14.3075244,9.75886289 C14.8360104,9.80226334 15.287613,9.66100471 15.316207,9.44335289 Z" id="Oval-Copy" fill="#FF6E61" fill-rule="nonzero"></path>
            <path d="M18.2456242,8.85366347 C18.3898814,9.06889065 19.1582719,9.99094345 18.1926318,10.2550859" id="Path" stroke="#434E85" stroke-width="0.69" stroke-linecap="round"></path>
            <path d="M16.2892141,11.0841997 C15.981419,11.0548505 15.5397999,10.7417928 15.3223359,10.4703131" id="Path" stroke="#434E85" stroke-width="0.69" stroke-linecap="round"></path>
            <path d="M11.6480343,8.73382107 C11.6480343,10.0692079 9.93993543,10.9350081 9.35348816,10.9350081 C9.16923814,10.9541758 8.98436915,10.903743 8.84674314,10.7967667 C8.70911712,10.6897904 8.63226614,10.536789 8.63608665,10.3773741 C8.63608665,9.81729425 9.01756206,9.34037039 9.82321534,8.73382107 C9.67518011,8.52593118 8.63608665,7.43022918 8.63608665,5.86983214 C8.63608665,4.23361643 9.80613436,2.86154317 10.589013,2.86154317 C11.2771175,2.90086724 11.8478141,3.33389475 11.9782667,3.91566719 C11.9782667,1.62887842 14.8250981,0.00244576339 16.533197,0.00244576339 C18.1131884,0.00244576339 18.3864842,0.594320504 18.3864842,1.07369013 C18.3864842,2.12781415 17.4185615,3.25531107 17.0570139,3.53168234 C17.9423785,2.97160252 19.3344791,2.40663118 20.5187609,2.40663118 C21.2731713,2.40663118 22.2268598,2.59006343 22.2268598,3.47787554 C22.2268598,5.10919972 20.4086892,6.10652858 19.8137014,6.37067103 C19.5872644,5.99070072 19.3010157,5.65694092 18.9609004,5.34574737 C19.0719268,5.65391356 18.6711673,6.14375764 17.8313521,6.26849157 C17.3473907,6.33697294 11.6480343,5.67661683 11.6480343,8.73382107 Z" id="Path" fill="#414D86" fill-rule="nonzero"></path>
        </g>
    </g>
</svg>