<?xml version="1.0" encoding="UTF-8"?>
<svg width="313px" height="290px" viewBox="0 0 313 290" version="1.1" xmlns="http://www.w3.org/2000/svg" xmlns:xlink="http://www.w3.org/1999/xlink">
    <title>stats</title>
    <defs>
        <filter x="-168.5%" y="-323.1%" width="437.0%" height="746.2%" filterUnits="objectBoundingBox" id="filter-1">
            <feGaussianBlur stdDeviation="2" in="SourceGraphic"></feGaussianBlur>
        </filter>
        <filter x="-168.5%" y="-323.1%" width="437.0%" height="746.2%" filterUnits="objectBoundingBox" id="filter-2">
            <feGaussianBlur stdDeviation="2" in="SourceGraphic"></feGaussianBlur>
        </filter>
        <filter x="-61.5%" y="-61.5%" width="223.0%" height="223.0%" filterUnits="objectBoundingBox" id="filter-3">
            <feGaussianBlur stdDeviation="5" in="SourceGraphic"></feGaussianBlur>
        </filter>
        <path d="M12.3700604,0 L10.2037785,0.364991226 L8.0374303,0.729916163 L7.97339442,2.75115617 C7.10559563,3.13822188 6.28492884,3.64699552 5.53976604,4.27396374 L5.53976604,4.27396374 L3.69465783,3.4503139 L2.42096705,5.24020277 L1.14720998,7.03002535 L2.52994736,8.50338078 C2.18179372,9.4128758 1.96999805,10.3549191 1.88859427,11.3016689 L1.88859427,11.3016689 L0,12.0243595 L0.364991226,14.1907077 L0.729982453,16.357056 L2.75115617,16.4211581 C3.13822188,17.2889569 3.64692923,18.1095574 4.27389745,18.8547202 L4.27389745,18.8547202 L3.45024761,20.6998284 L5.24020277,21.9735855 L7.03009164,23.2472763 L8.50331449,21.8645389 C9.41280951,22.2127588 10.3549191,22.4245545 11.3016027,22.5059583 L11.3016027,22.5059583 L12.0243595,24.3945525 L14.1907077,24.0295613 L16.3569897,23.6645701 L16.4210918,21.6433964 C17.2888906,21.2563307 18.1096237,20.747557 18.8547865,20.1205888 L18.8547865,20.1205888 L20.6998284,20.9442386 L21.9735192,19.1543498 L23.2472763,17.3644609 L21.8645389,15.8911718 C22.2126925,14.981743 22.4244882,14.0396335 22.505892,13.0929499 L22.505892,13.0929499 L24.3944863,12.3701267 L24.0295613,10.2037785 L23.6645701,8.03749659 L21.6433964,7.97339442 C21.2562644,7.10566192 20.7474907,6.28486255 20.1205225,5.53976604 L20.1205225,5.53976604 L20.9442386,3.69472412 L19.1543498,2.42103334 L17.3645272,1.14727627 L15.8911055,2.53001365 C14.9816767,2.18179372 14.0396335,1.96999805 13.0928836,1.88866056 L13.0928836,1.88866056 L12.3700604,0 Z M9.57067255,15.8881492 C7.53226736,14.4375784 7.05576791,11.6091911 8.50633993,9.5707318 L8.50633993,9.5707318 C9.9569677,7.53227254 12.7853573,7.05577349 14.8238183,8.50634431 L14.8238183,8.50634431 C16.8622235,9.95697088 17.3387787,12.7854139 15.8881509,14.8238732 L15.8881509,14.8238732 C15.0045056,16.0654914 13.6094611,16.7276952 12.1933429,16.7276952 L12.1933429,16.7276952 C11.2846656,16.7276952 10.3674586,16.455187 9.57067255,15.8881492 L9.57067255,15.8881492 Z" id="path-4"></path>
        <filter x="-98.4%" y="-98.4%" width="296.8%" height="296.8%" filterUnits="objectBoundingBox" id="filter-6">
            <feGaussianBlur stdDeviation="4" in="SourceGraphic"></feGaussianBlur>
        </filter>
        <path d="M6.18503022,-1.00031095e-13 L5.10188926,0.182495613 L4.01871515,0.364958081 L3.98669721,1.37557809 C3.55279782,1.56911094 3.14246442,1.82349776 2.76988302,2.13698187 L2.76988302,2.13698187 L1.84732891,1.72515695 L1.21048353,2.62010138 L0.573604991,3.51501267 L1.26497368,4.25169039 C1.09089686,4.7064379 0.984999025,5.17745954 0.944297134,5.65083447 L0.944297134,5.65083447 L-1.38306033e-13,6.01217976 L0.182495613,7.09535387 L0.364991226,8.17852798 L1.37557809,8.21057906 C1.56911094,8.64447846 1.82346461,9.05477871 2.13694872,9.42736011 L2.13694872,9.42736011 L1.72512381,10.3499142 L2.62010138,10.9867927 L3.51504582,11.6236381 L4.25165724,10.9322694 C4.70640476,11.1063794 5.17745954,11.2122772 5.65080133,11.2529791 L5.65080133,11.2529791 L6.01217976,12.1972763 L7.09535387,12.0147807 L8.17849483,11.832285 L8.21054592,10.8216982 C8.64444531,10.6281653 9.05481185,10.3737785 9.42739325,10.0602944 L9.42739325,10.0602944 L10.3499142,10.4721193 L10.9867596,9.57717489 L11.6236381,8.68223045 L10.9322694,7.94558588 C11.1063463,7.49087151 11.2122441,7.01981673 11.252946,6.54647495 L11.252946,6.54647495 L12.1972431,6.18506337 L12.0147807,5.10188926 L11.832285,4.01874829 L10.8216982,3.98669721 C10.6281322,3.55283096 10.3737454,3.14243127 10.0602613,2.76988302 L10.0602613,2.76988302 L10.4721193,1.84736206 L9.57717489,1.21051667 L8.6822636,0.573638136 L7.94555274,1.26500682 C7.49083837,1.09089686 7.01981673,0.984999025 6.5464418,0.944330279 L6.5464418,0.944330279 L6.18503022,-1.00031095e-13 Z M4.78533628,7.9440746 C3.76613368,7.21878919 3.52788396,5.80459553 4.25316997,4.7853659 L4.25316997,4.7853659 C4.97848385,3.76613627 6.39267867,3.52788674 7.41190914,4.25317215 L7.41190914,4.25317215 C8.43111174,4.97848544 8.66938934,6.39270697 7.94407545,7.41193661 L7.94407545,7.41193661 C7.50225282,8.03274568 6.80473055,8.36384758 6.09667144,8.36384758 L6.09667144,8.36384758 C5.64233282,8.36384758 5.18372928,8.22759349 4.78533628,7.9440746 L4.78533628,7.9440746 Z" id="path-7"></path>
    </defs>
    <g id="illustrations" stroke="none" stroke-width="1" fill="none" fill-rule="evenodd">
        <g id="Illustrations/380px/wait" transform="translate(-34.000000, -44.000000)">
            <g id="stats" transform="translate(35.000000, 45.618756)">
                <g id="tree-3" transform="translate(225.741793, 144.000000) rotate(6.000000) translate(-225.741793, -144.000000) translate(155.241793, 7.000000)" stroke="#414D86">
                    <path d="M121.952184,23.8998377 C123.896198,29.0360235 126.579962,33.3889285 129.304793,37.6297244 L129.868908,38.505751 L129.868908,38.505751 L130.432819,39.3798991 L130.432819,39.3798991 L130.995153,40.2534899 C135.951413,47.9716353 140.562016,55.7791406 140.562016,67.7730174 C140.562016,114.245782 112.068693,151.480841 99.2744335,151.480841 C96.3468045,151.480841 93.6102859,151.16354 91.0567495,150.580931 C85.916276,165.392348 77.1423109,175.337427 70.8608285,177.605184 C61.1184559,181.126725 51.0507305,177.090456 41.9399799,170.095666 C42.5428327,168.222209 42.818319,165.600513 42.4252469,164.10333 C41.9582431,162.430411 40.7250169,161.078397 39.1019732,160.459949 C38.9747729,159.936836 38.7960921,158.923918 38.7099384,158.644097 C37.5756913,155.11626 31.8116224,154.066212 28.3882479,155.163688 C27.9635023,155.300005 27.5341135,155.446714 27.1029256,155.601727 C19.7668791,146.955986 14.0515369,138.073387 11.1391366,133.192031 C-1.94728992,111.420177 2.12139905,80.941963 0.669995383,71.6520034 C-0.781408284,62.3620437 4.55428471,34.0336218 13.1377908,31.0143849 C33.859762,23.7260807 52.6093165,39.4745037 65.3086356,54.7566794 C63.4748331,40.1135602 57.7149462,4.55211117 86.1640455,0.521336734 C106.515567,-2.36840705 118.307758,14.348287 121.952184,23.8998377 Z M37.0020853,163.84281 C38.2926499,163.707166 39.4488204,164.643415 39.5844642,165.933979 C39.6681297,166.730004 39.3439979,167.474899 38.7802133,167.959988 C39.6302763,169.49567 40.3734967,171.15464 40.5241233,172.273012 C40.6591069,172.237752 40.7913468,172.15734 40.9196002,172.038593 C39.4732132,175.421584 36.3144147,177.965263 32.3988035,178.446039 C26.5465553,179.164605 21.2198581,175.002933 20.5012924,169.150685 C20.3413798,167.848302 20.4231653,166.571947 20.7114932,165.366618 C21.4029512,164.89511 22.2263668,164.649648 23.068009,164.667688 C23.9198743,164.691403 31.3174683,165.655551 36.088663,164.135009 C36.3615462,163.980132 36.6700922,163.877704 37.0020853,163.84281 Z" id="Path-3" fill-rule="nonzero"></path>
                    <path d="M86.1640455,0.521336734 C106.515567,-2.36840705 118.307758,14.348287 121.952184,23.8998377 C127.851262,39.485505 140.562016,47.858656 140.562016,67.7730174 C140.562016,114.245782 112.068693,151.480841 99.2744335,151.480841 C71.0733805,151.480841 60.60535,122.038616 60.60535,109.626929 C60.60535,88.5578548 66.218123,63.148243 65.5500778,56.8062028 C64.142411,43.7786694 56.2809499,4.75528511 86.1640455,0.521336734 Z" id="Path" fill-rule="nonzero"></path>
                    <path d="M29.9632653,66.3256077 C37.0622637,75.5743849 78.3055197,152.99702 85.7149873,248.198719" id="Path" stroke-linecap="round" stroke-linejoin="round"></path>
                    <path d="M55.3589883,63.8678663 C54.6240924,66.7258573 48.522748,83.9030864 43.600655,89.7361994" id="Path" stroke-linecap="round" stroke-linejoin="round"></path>
                    <path d="M25.3106279,118.932254 C30.2682827,122.06781 43.5567204,125.527289 58.0492558,125.607835" id="Path" stroke-linecap="round" stroke-linejoin="round"></path>
                    <path d="M79.3631839,145.718927 C78.0383734,147.337518 74.213132,152.053554 68.3887396,154.341705" id="Path" stroke-linecap="round" stroke-linejoin="round"></path>
                    <path d="M94.9009659,57.4765269 C103.134841,113.601236 84.2513741,249.35286 83.5481249,273.303449" id="Path" stroke-linecap="round" stroke-linejoin="round"></path>
                    <path d="M114.830825,62.3190643 C112.627027,65.7513897 103.633152,73.8971198 96.8013805,76.4290641" id="Path" stroke-linecap="round" stroke-linejoin="round"></path>
                    <path d="M75.576121,104.60114 C79.9220499,106.592235 88.0898051,110.088362 95.9572319,110.088362" id="Path" stroke-linecap="round" stroke-linejoin="round"></path>
                </g>
                <g id="sitting-leaning" transform="translate(31.250000, 156.978009)">
                    <path d="M8.52356868,121.478733 C7.49752253,121.504384 2.89345013,121.960975 1.84688306,121.109357 C-0.0513023072,119.570287 0.461720765,106.647236 1.04656707,106.026478 C1.63141337,105.40572 2.8883199,105.000432 3.26795697,105.539106 C3.64759404,106.077781 4.80702619,111.18236 5.32004926,111.85442 C5.83307233,112.526481 7.61644578,113.429401 8.99134762,113.024113" id="Path" fill="#414D86" fill-rule="nonzero"></path>
                    <path d="M128.096382,87.1527634 C126.685569,85.4854384 82.2068171,53.0722368 72.6902391,53.2569251 C63.1736611,53.4416134 37.188832,106.78149 37.7172458,108.725847 C46.3038953,107.704621 48.5239995,107.182653 56.1436345,106.458491 C58.2470291,104.688562 70.0276493,92.8315249 73.6803736,84.9668812 C75.1168382,87.0497549 82.1477651,95.9768737 85.682494,98.1880032" id="Path" stroke="#414D86" fill-rule="nonzero"></path>
                    <path d="M8.47514115,121.822459 C9.27545714,122.458607 148.694607,125.023723 160.217105,121.822459 C171.739604,118.621195 174.78183,118.939269 174.622793,112.218667 C174.527997,108.21276 158.347591,86.5742835 131.235587,85.5460355 C128.188793,86.5916541 126.74577,88.2895859 126.906517,90.6398309 C108.547132,91.5195341 87.3678292,96.3867748 63.3686099,105.241553 C49.0039638,107.591199 9.5011873,112.023718 9.5011873,112.023718 C8.85477822,114.373364 7.69534608,118.703278 8.47514115,121.822459 Z" id="Path" stroke="#414D86" fill-rule="nonzero"></path>
                    <path d="M182.123191,25.7948001 C189.638979,29.1243198 198.883654,72.1515649 197.626748,73.5623783 C196.369841,74.9731918 185.714352,79.82639 185.714352,79.82639 C185.509143,90.3023212 176.633844,115.378889 173.971254,116.471628 C155.256172,111.146449 143.743935,94.5501522 143.743935,90.0047678 C143.743935,87.7427378 142.620414,86.3315226 133.326472,85.5460355 C127.922145,86.131001 128.647892,87.7893193 128.096382,87.1527634 C127.584571,86.6274265 127.300704,86.698011 126.665397,86.3315226 C126.665397,86.3315226 134.360743,79.6622226 140.378503,75.3323079 C140.168164,73.4802946 138.557271,38.7742838 140.635015,35.5114571 C144.769981,29.0422361 172.755389,21.6444434 182.123191,25.7948001 Z" id="Path" fill="#414D86" fill-rule="nonzero"></path>
                    <path d="M185.781045,79.8161296 C183.728953,80.7857432 165.090825,88.8196845 156.933758,90.5229211" id="Path" stroke="#121424" stroke-width="0.68" stroke-linecap="round"></path>
                    <path d="M174.09951,52.0615814 C175.069123,54.1136736 181.035582,65.9388555 180.307089,67.1547201 C179.578596,68.3705848 143.489628,86.44463 140.503834,87.4091134" id="Path" stroke="#121424" stroke-width="0.68" stroke-linecap="round"></path>
                    <path d="M143.518576,86.830589 C143.826389,87.4718678 145.072664,91.9952973 145.298394,93.3394177 C145.524125,94.6835382 136.75143,96.458598 133.693813,96.3098213 C130.636195,96.1610446 126.906517,93.324027 126.906517,89.9688562 C126.906517,87.7320756 128.379339,86.1534307 131.324982,85.2329215 C132.039151,85.6824055 136.103682,86.2149613 143.518576,86.830589 Z" id="Path" stroke="#414D86" fill="#6F7CBD" fill-rule="nonzero"></path>
                    <path d="M145.924283,49.0193545 C145.734464,53.4005716 145.85759,74.8244151 146.586082,82.7352308" id="Path" stroke="#121424" stroke-width="0.68" stroke-linecap="round"></path>
                    <path d="M153.50586,24.0761728 L154.97914,30.4171379 C155.286954,31.8792537 163.351676,30.3094031 163.028472,28.7395525 L160.98664,18.9818537" id="Path" stroke="#414D86" fill="#6F7CBD" fill-rule="nonzero"></path>
                    <path d="M160.617263,5.22257487 C160.673696,5.50986779 160.745519,6.53591394 160.817342,7.06945793 C162.36685,7.85417244 163.451996,9.32768717 163.741574,11.0402565 C164.119725,13.5084586 162.461817,18.7049791 161.01396,18.9636428 C159.139112,22.0297248 155.759043,24.0761728 151.901001,24.0761728 C146.004804,24.0761728 141.224991,19.2963602 141.224991,13.4001626 C141.224991,12.7554408 141.282141,12.124067 141.39165,11.5108306 C141.280796,12.0887158 141.222889,12.6765358 141.22,13.2667766 C138.018736,13.4668556 136.628305,11.9277864 136.038328,9.10615953 C135.894682,8.42896907 135.776686,6.35635586 137.526095,5.29952833 C138.572662,4.6428588 145.113706,1.85201329 150.715918,0.682320686 C154.235256,-0.0513023072 159.857989,1.59550175 160.617263,5.22257487 Z" id="Oval-2" stroke="#414D86" fill="#6F7CBD" fill-rule="nonzero"></path>
                    <ellipse id="Oval" fill="#FF6E61" fill-rule="nonzero" filter="url(#filter-1)" transform="translate(141.633317, 17.010819) rotate(-11.790000) translate(-141.633317, -17.010819) " cx="141.633317" cy="17.0108188" rx="1.78019006" ry="1"></ellipse>
                    <ellipse id="Oval" fill="#FF6E61" fill-rule="nonzero" filter="url(#filter-2)" transform="translate(152.590505, 14.722585) rotate(-11.790000) translate(-152.590505, -14.722585) " cx="152.590505" cy="14.7225851" rx="1.78019006" ry="1"></ellipse>
                    <ellipse id="Oval" fill="#FF6E61" fill-rule="nonzero" transform="translate(141.633317, 17.010819) rotate(-11.790000) translate(-141.633317, -17.010819) " cx="141.633317" cy="17.0108188" rx="1.78019006" ry="1"></ellipse>
                    <ellipse id="Oval" fill="#FF6E61" fill-rule="nonzero" transform="translate(152.590505, 14.722585) rotate(-11.790000) translate(-152.590505, -14.722585) " cx="152.590505" cy="14.7225851" rx="1.78019006" ry="1"></ellipse>
                    <path d="M145.488213,14.2363903 C145.262483,14.7494133 143.995316,17.0682776 145.924283,17.4889565" id="Path" stroke="#414D86" stroke-width="0.69" stroke-linecap="round"></path>
                    <path d="M149.915602,19.0382862 C150.428625,18.9151607 151.110946,18.1097144 151.41876,17.432524" id="Path" stroke="#414D86" stroke-width="0.69" stroke-linecap="round"></path>
                    <path d="M150.715918,0.682320686 C154.235256,-0.0513023072 159.857989,1.59550175 160.617263,5.22257487 C160.673696,5.50986779 160.745519,6.53591394 160.817342,7.06945793 C162.36685,7.85417244 163.451996,9.32768717 163.741574,11.0402565 C164.121211,13.5181579 162.448756,18.7458631 160.9969,18.966463 C160.964001,17.8384727 160.398261,16.1109032 159.713378,14.4947778 C160.324779,14.0712774 160.724998,13.3643443 160.724998,12.563935 C160.724998,11.2662616 159.673026,10.2142894 158.375353,10.2142894 C158.041531,10.2142894 157.723968,10.2839044 157.436391,10.4094088 C152.532394,11.4228952 145.276105,9.69077006 144.431385,9.57814076 C143.489744,9.45871783 142.536132,9.67486995 141.738014,10.1886382 C141.403329,11.1806051 141.069896,12.2218762 141.064771,13.2687699 C137.863507,13.4688489 136.628305,11.9277864 136.038328,9.10615953 C135.894682,8.42896907 135.776686,6.35635586 137.526095,5.29952833 C138.572662,4.6428588 145.113706,1.85201329 150.715918,0.682320686 Z" id="Path-2" stroke="#414D86" fill="#414D86" fill-rule="nonzero"></path>
                </g>
                <g id="Group" transform="translate(45.187220, 99.013883)">
                    <g id="Group-3" transform="translate(26.677130, 35.004484)">
                        <path d="M12.3700604,0 L10.2037785,0.364991226 L8.0374303,0.729916163 L7.97339442,2.75115617 C7.10559563,3.13822188 6.28492884,3.64699552 5.53976604,4.27396374 L5.53976604,4.27396374 L3.69465783,3.4503139 L2.42096705,5.24020277 L1.14720998,7.03002535 L2.52994736,8.50338078 C2.18179372,9.4128758 1.96999805,10.3549191 1.88859427,11.3016689 L1.88859427,11.3016689 L0,12.0243595 L0.364991226,14.1907077 L0.729982453,16.357056 L2.75115617,16.4211581 C3.13822188,17.2889569 3.64692923,18.1095574 4.27389745,18.8547202 L4.27389745,18.8547202 L3.45024761,20.6998284 L5.24020277,21.9735855 L7.03009164,23.2472763 L8.50331449,21.8645389 C9.41280951,22.2127588 10.3549191,22.4245545 11.3016027,22.5059583 L11.3016027,22.5059583 L12.0243595,24.3945525 L14.1907077,24.0295613 L16.3569897,23.6645701 L16.4210918,21.6433964 C17.2888906,21.2563307 18.1096237,20.747557 18.8547865,20.1205888 L18.8547865,20.1205888 L20.6998284,20.9442386 L21.9735192,19.1543498 L23.2472763,17.3644609 L21.8645389,15.8911718 C22.2126925,14.981743 22.4244882,14.0396335 22.505892,13.0929499 L22.505892,13.0929499 L24.3944863,12.3701267 L24.0295613,10.2037785 L23.6645701,8.03749659 L21.6433964,7.97339442 C21.2562644,7.10566192 20.7474907,6.28486255 20.1205225,5.53976604 L20.1205225,5.53976604 L20.9442386,3.69472412 L19.1543498,2.42103334 L17.3645272,1.14727627 L15.8911055,2.53001365 C14.9816767,2.18179372 14.0396335,1.96999805 13.0928836,1.88866056 L13.0928836,1.88866056 L12.3700604,0 Z M9.57067255,15.8881492 C7.53226736,14.4375784 7.05576791,11.6091911 8.50633993,9.5707318 L8.50633993,9.5707318 C9.9569677,7.53227254 12.7853573,7.05577349 14.8238183,8.50634431 L14.8238183,8.50634431 C16.8622235,9.95697088 17.3387787,12.7854139 15.8881509,14.8238732 L15.8881509,14.8238732 C15.0045056,16.0654914 13.6094611,16.7276952 12.1933429,16.7276952 L12.1933429,16.7276952 C11.2846656,16.7276952 10.3674586,16.455187 9.57067255,15.8881492 L9.57067255,15.8881492 Z" id="Clip-2" fill="#FF6E61" filter="url(#filter-3)"></path>
                        <mask id="mask-5" fill="white">
                            <use xlink:href="#path-4"></use>
                        </mask>
                        <use id="Clip-2" fill="#FF6E61" xlink:href="#path-4"></use>
                    </g>
                    <g id="Group-3" transform="translate(27.256888, 8.576747) rotate(15.000000) translate(-27.256888, -8.576747) translate(20.756888, 2.076747)">
                        <path d="M6.18503022,0 L5.10188926,0.182495613 L4.01871515,0.364958081 L3.98669721,1.37557809 C3.55279782,1.56911094 3.14246442,1.82349776 2.76988302,2.13698187 L2.76988302,2.13698187 L1.84732891,1.72515695 L1.21048353,2.62010138 L0.573604991,3.51501267 L1.26497368,4.25169039 C1.09089686,4.7064379 0.984999025,5.17745954 0.944297134,5.65083447 L0.944297134,5.65083447 L0,6.01217976 L0.182495613,7.09535387 L0.364991226,8.17852798 L1.37557809,8.21057906 C1.56911094,8.64447846 1.82346461,9.05477871 2.13694872,9.42736011 L2.13694872,9.42736011 L1.72512381,10.3499142 L2.62010138,10.9867927 L3.51504582,11.6236381 L4.25165724,10.9322694 C4.70640476,11.1063794 5.17745954,11.2122772 5.65080133,11.2529791 L5.65080133,11.2529791 L6.01217976,12.1972763 L7.09535387,12.0147807 L8.17849483,11.832285 L8.21054592,10.8216982 C8.64444531,10.6281653 9.05481185,10.3737785 9.42739325,10.0602944 L9.42739325,10.0602944 L10.3499142,10.4721193 L10.9867596,9.57717489 L11.6236381,8.68223045 L10.9322694,7.94558588 C11.1063463,7.49087151 11.2122441,7.01981673 11.252946,6.54647495 L11.252946,6.54647495 L12.1972431,6.18506337 L12.0147807,5.10188926 L11.832285,4.01874829 L10.8216982,3.98669721 C10.6281322,3.55283096 10.3737454,3.14243127 10.0602613,2.76988302 L10.0602613,2.76988302 L10.4721193,1.84736206 L9.57717489,1.21051667 L8.6822636,0.573638136 L7.94555274,1.26500682 C7.49083837,1.09089686 7.01981673,0.984999025 6.5464418,0.944330279 L6.5464418,0.944330279 L6.18503022,0 Z M4.78533628,7.9440746 C3.76613368,7.21878919 3.52788396,5.80459553 4.25316997,4.7853659 L4.25316997,4.7853659 C4.97848385,3.76613627 6.39267867,3.52788674 7.41190914,4.25317215 L7.41190914,4.25317215 C8.43111174,4.97848544 8.66938934,6.39270697 7.94407545,7.41193661 L7.94407545,7.41193661 C7.50225282,8.03274568 6.80473055,8.36384758 6.09667144,8.36384758 L6.09667144,8.36384758 C5.64233282,8.36384758 5.18372928,8.22759349 4.78533628,7.9440746 L4.78533628,7.9440746 Z" id="Clip-2" fill="#FF6E61" filter="url(#filter-6)"></path>
                        <mask id="mask-8" fill="white">
                            <use xlink:href="#path-7"></use>
                        </mask>
                        <use id="Clip-2" fill="#FF6E61" xlink:href="#path-7"></use>
                    </g>
                </g>
                <line x1="0.5" y1="280.50043" x2="288" y2="281.00043" id="Line-4" stroke="#414D86" stroke-width="2" stroke-linecap="round"></line>
            </g>
        </g>
    </g>
</svg>