<?xml version="1.0" encoding="UTF-8"?>
<svg width="48px" height="48px" viewBox="0 0 48 48" version="1.1" xmlns="http://www.w3.org/2000/svg" xmlns:xlink="http://www.w3.org/1999/xlink">
    <title>Illustrations/Dark/48px/xls</title>
    <defs>
        <filter color-interpolation-filters="auto" id="filter-1">
            <feColorMatrix in="SourceGraphic" type="matrix" values="0 0 0 0 0.552941 0 0 0 0 0.643137 0 0 0 0 0.980392 0 0 0 1.000000 0"></feColorMatrix>
        </filter>
        <filter x="-57.1%" y="-133.3%" width="214.3%" height="366.7%" filterUnits="objectBoundingBox" id="filter-2">
            <feGaussianBlur stdDeviation="4" in="SourceGraphic"></feGaussianBlur>
        </filter>
    </defs>
    <g id="Illustrations/Dark/48px/xls" stroke="none" stroke-width="1" fill="none" fill-rule="evenodd">
        <path d="M37.6202849,39.430808 C37.6202849,41.4736826 35.8402723,41.5995563 35.4810612,41.6039104 L12.5169823,41.6039104 C10.5049303,41.6039104 10.3836281,39.7910126 10.3797151,39.430808 L10.3797151,8.56919199 C10.3797151,6.52433829 12.162858,6.40044375 12.5169823,6.39608962 L28.0299734,6.39608962 L28.0381906,6.40440204 L28.0381906,12.5282757 C28.0381906,13.7573254 28.7726561,16.0840095 31.5543904,16.0840095 L37.5686336,16.0840095 L37.6202849,16.136259 L37.6202849,39.430808 L37.6202849,39.430808 Z M36.1943966,14.6879199 L31.5547817,14.6879199 C29.543121,14.6879199 29.4214275,12.8849179 29.4186884,12.5282757 L29.4186884,7.80563744 L36.1943966,14.6879199 Z M39,39.430808 L39,15.5599317 L29.4186884,5.82728305 L29.4186884,5.78215852 L29.3729066,5.78215852 L28.6036156,5 L12.5169823,5 C11.3004383,5 9,5.74613806 9,8.56919199 L9,39.4312038 C9,40.6653993 9.73524808,43 12.5169823,43 L35.483409,43 C36.6995617,42.9996042 39,42.2538619 39,39.430808" id="Shape" fill="#404B8A" fill-rule="nonzero"></path>
        <g filter="url(#filter-1)" id="xls">
            <g transform="translate(14.000000, 28.000000)">
                <path d="M7.75,-4.24660307e-15 C8.164,-4.24660307e-15 8.5,0.336 8.5,0.75 L8.5,7.5 L12.25,7.5 C12.664,7.5 13,7.836 13,8.25 C13,8.664 12.664,9 12.25,9 L7.75,9 C7.336,9 7,8.664 7,8.25 L7,0.75 C7,0.336 7.336,-4.24660307e-15 7.75,-4.24660307e-15 Z M5.6352236,0.106568327 C5.99068632,0.319602622 6.1061742,0.780176765 5.89319654,1.135734 L3.875,4.499 L5.892554,7.86287879 C6.10698387,8.21841669 5.99002212,8.67896578 5.63463835,8.89198849 C5.51467758,8.96549632 5.38122123,9 5.24926438,9 C4.99584726,9 4.74692867,8.87098625 4.60597477,8.63546114 L3,5.958 L1.39366848,8.63694155 C1.25268327,8.87097923 1.00370938,9 0.75023597,9 C0.618249814,9 0.484763815,8.96549445 0.3647764,8.89348285 C0.00931368322,8.68044856 -0.106174204,8.21987441 0.106803458,7.86431718 L2.125,4.499 L0.107446004,1.13466158 C-0.106983868,0.779123686 0.00997788035,0.318574593 0.365361653,0.105551886 C0.716246897,-0.104470502 1.17959536,0.00804149148 1.39402523,0.362079231 L3,3.04 L4.60633152,0.363109625 C4.82230886,0.00755238743 5.28576025,-0.104965726 5.6352236,0.106568327 Z M20.25,-4.24660307e-15 C20.664,-4.24660307e-15 21,0.336 21,0.75 C21,1.164 20.664,1.5 20.25,1.5 L17.625,1.5 C17.0055,1.5 16.5,2.004 16.5,2.625 C16.5,3.246 17.0055,3.75 17.625,3.75 L18.375,3.75 C19.8225,3.75 21,4.9275 21,6.375 C21,7.8225 19.8225,9 18.375,9 L15.75,9 C15.336,9 15,8.664 15,8.25 C15,7.836 15.336,7.5 15.75,7.5 L18.375,7.5 C18.9945,7.5 19.5,6.996 19.5,6.375 C19.5,5.754 18.9945,5.25 18.375,5.25 L17.625,5.25 C16.1775,5.25 15,4.0725 15,2.625 C15,1.1775 16.1775,-4.24660307e-15 17.625,-4.24660307e-15 L20.25,-4.24660307e-15 Z" id="Combined-Shape" fill="#8DA4FA" fill-rule="nonzero" filter="url(#filter-2)"></path>
                <path d="M7.75,-4.24660307e-15 C8.164,-4.24660307e-15 8.5,0.336 8.5,0.75 L8.5,7.5 L12.25,7.5 C12.664,7.5 13,7.836 13,8.25 C13,8.664 12.664,9 12.25,9 L7.75,9 C7.336,9 7,8.664 7,8.25 L7,0.75 C7,0.336 7.336,-4.24660307e-15 7.75,-4.24660307e-15 Z M5.6352236,0.106568327 C5.99068632,0.319602622 6.1061742,0.780176765 5.89319654,1.135734 L3.875,4.499 L5.892554,7.86287879 C6.10698387,8.21841669 5.99002212,8.67896578 5.63463835,8.89198849 C5.51467758,8.96549632 5.38122123,9 5.24926438,9 C4.99584726,9 4.74692867,8.87098625 4.60597477,8.63546114 L3,5.958 L1.39366848,8.63694155 C1.25268327,8.87097923 1.00370938,9 0.75023597,9 C0.618249814,9 0.484763815,8.96549445 0.3647764,8.89348285 C0.00931368322,8.68044856 -0.106174204,8.21987441 0.106803458,7.86431718 L2.125,4.499 L0.107446004,1.13466158 C-0.106983868,0.779123686 0.00997788035,0.318574593 0.365361653,0.105551886 C0.716246897,-0.104470502 1.17959536,0.00804149148 1.39402523,0.362079231 L3,3.04 L4.60633152,0.363109625 C4.82230886,0.00755238743 5.28576025,-0.104965726 5.6352236,0.106568327 Z M20.25,-4.24660307e-15 C20.664,-4.24660307e-15 21,0.336 21,0.75 C21,1.164 20.664,1.5 20.25,1.5 L17.625,1.5 C17.0055,1.5 16.5,2.004 16.5,2.625 C16.5,3.246 17.0055,3.75 17.625,3.75 L18.375,3.75 C19.8225,3.75 21,4.9275 21,6.375 C21,7.8225 19.8225,9 18.375,9 L15.75,9 C15.336,9 15,8.664 15,8.25 C15,7.836 15.336,7.5 15.75,7.5 L18.375,7.5 C18.9945,7.5 19.5,6.996 19.5,6.375 C19.5,5.754 18.9945,5.25 18.375,5.25 L17.625,5.25 C16.1775,5.25 15,4.0725 15,2.625 C15,1.1775 16.1775,-4.24660307e-15 17.625,-4.24660307e-15 L20.25,-4.24660307e-15 Z" id="Combined-Shape" fill="#000000" fill-rule="nonzero"></path>
            </g>
        </g>
    </g>
</svg>