<svg width="8" height="9" viewBox="0 0 8 9" fill="none" xmlns="http://www.w3.org/2000/svg">
<path d="M2.32139 2.87449L1.47454 2.48806L2.32139 2.10163L2.70783 1.25477L3.09426 2.10163L3.94111 2.48806L3.09426 2.87449L2.70783 3.72135L2.32139 2.87449ZM2.70783 7.83231L3.09426 6.98546L3.94111 6.59902L3.09426 6.21259L2.70783 5.36574L2.32139 6.21259L1.47454 6.59902L2.32139 6.98546L2.70783 7.83231ZM1.21555 4.28455L0.652344 4.54354L1.21555 4.80253L1.47454 5.36574L1.73353 4.80253L2.29673 4.54354L1.73353 4.28455L1.47454 3.72135L1.21555 4.28455ZM4.35221 4.13245C4.35221 2.86216 4.91952 1.69054 5.76638 0.843677H4.35221V0.0214844H7.22988V2.89916H6.40769V1.36988C5.66772 2.08519 5.1744 3.09648 5.1744 4.13245C5.1744 5.49729 6.03771 6.74702 7.22988 7.34722V8.24341C5.5485 7.58977 4.35221 5.92072 4.35221 4.13245Z" fill="#32305B"/>
</svg>
