<svg xmlns="http://www.w3.org/2000/svg" width="24" height="24" viewBox="0 0 24 24">
  <g fill="#B7BCD9" fill-rule="evenodd" transform="translate(2 2)">
    <path d="M9.99976411,-2.30926389e-14 C7.86167528,-2.30926389e-14 5.81982875,0.675111457 4.08605194,1.9540962 C3.72419975,1.70641379 3.30950865,1.57620362 2.87972071,1.57620362 C1.68942986,1.57620362 0.721345505,2.54428797 0.721345505,3.73457882 C0.721345505,4.26532682 0.911471233,4.76635294 1.2601137,5.16075767 C0.434977473,6.64449319 0,8.31505201 0,10.0002359 C0,15.5143538 4.48611799,20.0004718 9.99976411,20.0004718 C15.513882,20.0004718 20,15.5143538 20,10.0002359 C20,4.48564622 15.513882,-2.30926389e-14 9.99976411,-2.30926389e-14 L9.99976411,-2.30926389e-14 Z" opacity=".3"/>
    <path d="M4.32901658,14.8741538 L3.07692308,15.5129385 C2.78206308,15.1416507 2.51079188,14.7321492 2.26735546,14.2910386 L4.32901658,14.8741538 Z M18.5200387,7.62956148 L5.83162315,14.107046 L1.65451843,12.9257189 C1.31719859,11.9689571 1.14594391,10.9853042 1.14594391,10.0002359 C1.14594391,8.53442785 1.51723162,7.08135777 2.22112141,5.78774798 C2.43577949,5.85757083 2.65657066,5.89295403 2.87972071,5.89295403 C4.06953978,5.89295403 5.03762414,4.9243979 5.03762414,3.73457882 C5.03762414,3.42415021 4.96780129,3.12032647 4.8300427,2.82924068 C6.3515203,1.72764371 8.13577713,1.14594391 9.99976411,1.14594391 C13.9716463,1.14594391 17.4552403,3.80487345 18.5200387,7.62956148 L18.5200387,7.62956148 Z M17.4061755,14.829335 C15.7573184,17.3538084 13.0030901,18.8545279 9.99976411,18.8545279 C7.70174321,18.8545279 5.53865025,17.9812705 3.88082938,16.3904418 L12.1458731,12.171349 L17.4061755,14.829335 Z M18.8540561,10.0002359 C18.8540561,11.3330031 18.557309,12.6209516 17.971835,13.831057 L13.4102328,11.5250159 L18.761588,8.79248933 C18.8238624,9.22369259 18.8540561,9.62045621 18.8540561,10.0002359 L18.8540561,10.0002359 Z M9.99976411,-2.30926389e-14 C7.86167528,-2.30926389e-14 5.81982875,0.675111457 4.08605194,1.9540962 C3.72419975,1.70641379 3.30950865,1.57620362 2.87972071,1.57620362 C1.68942986,1.57620362 0.721345505,2.54428797 0.721345505,3.73457882 C0.721345505,4.26532682 0.911471233,4.76635294 1.2601137,5.16075767 C0.434977473,6.64449319 0,8.31505201 0,10.0002359 C0,15.5143538 4.48611799,20.0004718 9.99976411,20.0004718 C15.513882,20.0004718 20,15.5143538 20,10.0002359 C20,4.48564622 15.513882,-2.30926389e-14 9.99976411,-2.30926389e-14 L9.99976411,-2.30926389e-14 Z"/>
  </g>
</svg>
