<svg width="25" height="24" viewBox="0 0 25 24" fill="none" xmlns="http://www.w3.org/2000/svg">
<g clip-path="url(#clip0_652_1451)">
<path d="M20.0595 18C21.1595 18 22.0495 17.1 22.0495 16L22.0595 6C22.0595 4.89 21.1595 4 20.0595 4H4.05951C2.94951 4 2.05951 4.89 2.05951 6V16C2.05951 17.1 2.94951 18 4.05951 18H0.0595093V20H24.0595V18H20.0595ZM4.05951 16V6H20.0595V16.01L4.05951 16ZM13.0595 9.13C9.16951 9.67 7.61951 12.33 7.05951 15C8.44951 13.13 10.2795 12.28 13.0595 12.28V14.47L17.0595 10.73L13.0595 7V9.13Z" fill="white"/>
</g>
<defs>
<clipPath id="clip0_652_1451">
<rect width="24" height="24" fill="white" transform="translate(0.0595093)"/>
</clipPath>
</defs>
</svg>
