<svg width="14" height="12" viewBox="0 0 14 12" fill="none" xmlns="http://www.w3.org/2000/svg">
  <path d="M0.100001 0.75C0.0447721 0.75 0 0.794772 0 0.85V10.0964C0 10.1516 0.0447715 10.1964 0.1 10.1964H6.06137C6.1166 10.1964 6.16137 10.1516 6.16137 10.0964V8.84308C6.16137 8.78785 6.1166 8.74308 6.06137 8.74308H1.46919C1.41396 8.74308 1.36919 8.69831 1.36919 8.64308V2.30329C1.36919 2.24806 1.41396 2.20329 1.46919 2.20329H10.1689C10.2242 2.20329 10.2689 2.24806 10.2689 2.30329V5.00986C10.2689 5.06509 10.3137 5.10986 10.3689 5.10986H11.5381C11.5934 5.10986 11.6381 5.06509 11.6381 5.00986V0.85C11.6381 0.794771 11.5934 0.75 11.5381 0.75H0.100001ZM4.95259 3.77819C4.88673 3.72826 4.79218 3.77524 4.79218 3.85788V7.08849C4.79218 7.17113 4.88673 7.2181 4.95259 7.16817L7.08316 5.55287C7.13594 5.51285 7.13594 5.43351 7.08316 5.3935L4.95259 3.77819ZM13.1075 5.6745C13.0681 5.63236 13.0012 5.63224 12.9617 5.67424L9.71858 9.11652C9.67917 9.15836 9.61268 9.15844 9.57317 9.1167L8.26057 7.73002C8.22106 7.68828 8.15457 7.68835 8.11516 7.73019L7.2871 8.60911C7.25081 8.64762 7.25081 8.70774 7.2871 8.74625L9.57318 11.1727C9.61266 11.2146 9.67927 11.2146 9.71875 11.1727L13.9356 6.69688C13.9718 6.65846 13.9719 6.59853 13.9359 6.55999L13.1075 5.6745Z" fill="#B7BCD9"/>
</svg>
