<svg width="24" height="24" viewBox="0 0 24 24" fill="none" xmlns="http://www.w3.org/2000/svg">
  <path d="M5.1 6.75C5.04477 6.75 5 6.79477 5 6.85V16.0964C5 16.1516 5.04477 16.1964 5.1 16.1964H11.0614C11.1166 16.1964 11.1614 16.1516 11.1614 16.0964V14.8431C11.1614 14.7879 11.1166 14.7431 11.0614 14.7431H6.46919C6.41396 14.7431 6.36919 14.6983 6.36919 14.6431V8.30329C6.36919 8.24806 6.41396 8.20329 6.46919 8.20329H15.1689C15.2242 8.20329 15.2689 8.24806 15.2689 8.30329V11.0099C15.2689 11.0651 15.3137 11.1099 15.3689 11.1099H16.5381C16.5934 11.1099 16.6381 11.0651 16.6381 11.0099V6.85C16.6381 6.79477 16.5934 6.75 16.5381 6.75H5.1ZM9.95259 9.77819C9.88673 9.72826 9.79218 9.77524 9.79218 9.85788V13.0885C9.79218 13.1711 9.88673 13.2181 9.95259 13.1682L12.0832 11.5529C12.1359 11.5129 12.1359 11.4335 12.0832 11.3935L9.95259 9.77819ZM18.1075 11.6745C18.0681 11.6324 18.0012 11.6322 17.9617 11.6742L14.7186 15.1165C14.6792 15.1584 14.6127 15.1584 14.5732 15.1167L13.2606 13.73C13.2211 13.6883 13.1546 13.6884 13.1152 13.7302L12.2871 14.6091C12.2508 14.6476 12.2508 14.7077 12.2871 14.7463L14.5732 17.1727C14.6127 17.2146 14.6793 17.2146 14.7188 17.1727L18.9356 12.6969C18.9718 12.6585 18.9719 12.5985 18.9359 12.56L18.1075 11.6745Z" fill="#454E5D"/>
</svg>