<svg xmlns="http://www.w3.org/2000/svg" width="18" height="18" viewBox="0 0 18 18">
    <g fill="none" fill-rule="evenodd">
        <g fill="#454E5D">
            <path d="M6.989 14h-2.66V3.333h4.654v3.334h3.324v2.066l1.33-1.333V6L9.648 2H4.33C3.595 2 3 2.597 3 3.333V14c0 .736.595 1.333 1.33 1.333h2.659V14zm6.781-4.667c.067 0 .2.067.266.134l.864.866c.133.134.133.4 0 .534l-.665.666-1.396-1.4.665-.666c.067-.067.133-.134.266-.134zm0 2.6L9.715 16H8.319v-1.4l4.055-4.067 1.396 1.4z"/>
            <path d="M3.991 3.043L9.188 3.043 9 6.667 12.307 6.667 12.307 8.733 6.989 14 3.991 14.939z" opacity=".3"/>
        </g>
    </g>
</svg>
