<?xml version="1.0" encoding="UTF-8"?>
<svg width="24px" height="24px" viewBox="0 0 24 24" version="1.1" xmlns="http://www.w3.org/2000/svg" xmlns:xlink="http://www.w3.org/1999/xlink">
    <title>Icons/Light/24px/avails</title>
    <g id="Icons/Light/24px/avails" stroke="none" stroke-width="1" fill="none" fill-rule="evenodd">
        <path d="M4,7.996 L20,7.996 L20,4.993 L4,4.993 L4,7.996 Z M22,4.993 C22,3.893 21.1,3.002 20,3.002 L19,3.002 L19,1 L17,1 L17,3.002 L7,3.002 L7,1 L5,1 L5,3.002 L4,3.002 C2.9,3.002 2,3.893 2,4.993 L2,20.998 C2,22.098 2.9,23 4,23 L20,23 C21.06,23 21.93,22.032 21.99,20.998 C21.99,20.998 19.92,20.998 20,20.998 L4,20.998 L4,9.998 L20,9.998 C20,9.998 20.6666667,9.998 22,9.998 L22,4.993 Z" id="Fill-1" fill="#454E5D"></path>
        <polygon id="Path" fill="#454E5D" opacity="0.3" points="4 5.00148402 20 5.00148402 20 7.99148402 4 7.99148402"></polygon>
        <path d="M20,10.9580054 C18.1245,10.9580054 16.59,12.4925054 16.59,14.3680054 C16.59,16.2435054 18.1245,17.7780054 20,17.7780054 C21.8755,17.7780054 23.41,16.2435054 23.41,14.3680054 C23.41,12.4925054 21.8755,10.9580054 20,10.9580054 M22.3539774,11.9105656 L19.5218589,14.7890234 L18.2630732,13.5350979 L17.5777883,14.2203828 L19.5218589,16.1644533 L22.9716493,12.7104816 C22.8512713,12.5117461 22.7564683,12.3675515 22.6872402,12.2778977 C22.6180122,12.1882439 22.5069246,12.0657999 22.3539774,11.9105656 Z" id="Shape" fill="#454E5D"></path>
    </g>
</svg>
