<?xml version="1.0" encoding="UTF-8"?>
<svg width="14px" height="14px" viewBox="0 0 14 14" version="1.1" xmlns="http://www.w3.org/2000/svg" xmlns:xlink="http://www.w3.org/1999/xlink">
    <g id="Icons" stroke="none" stroke-width="1" fill="none" fill-rule="evenodd">
        <g id="Icons/18px/check_circle" transform="translate(-2.000000, -2.000000)" fill="#606F87">
            <g id="group" transform="translate(2.000000, 2.000000)">
                <path d="M7,0 C3.15,0 0,3.15 0,7 C0,10.85 3.15,14 7,14 C10.85,14 14,10.85 14,7 C14,3.15 10.85,0 7,0" id="Path" opacity="0.3"></path>
                <path d="M7,0 C3.15,0 0,3.15 0,7 C0,10.85 3.15,14 7,14 C10.85,14 14,10.85 14,7 C14,3.15 10.85,0 7,0 M7,12.6 C3.913,12.6 1.4,10.087 1.4,7 C1.4,3.913 3.913,1.4 7,1.4 C10.087,1.4 12.6,3.913 12.6,7 C12.6,10.087 10.087,12.6 7,12.6 M10.213,3.906 L5.6,8.519 L3.787,6.713 L2.8,7.7 L5.6,10.5 L11.2,4.9 L10.213,3.906 Z" id="Shape"></path>
            </g>
        </g>
    </g>
</svg>
