<svg xmlns="http://www.w3.org/2000/svg" width="24" height="24" viewBox="0 0 24 24">
  <g fill="#B7BCD9" fill-rule="evenodd" transform="translate(2 6)">
    <path d="M15.8333333,11.375 C17.2140452,11.375 18.3333333,10.2836941 18.3333333,8.9375 C18.3333333,7.678125 17.3166667,6.61375 16.0166667,6.5325 L14.7416667,6.443125 L14.4916667,5.224375 C14.0666667,3.13625 12.1833333,1.625 10,1.625 C8.28333333,1.625 6.73333333,2.55125 5.94166667,4.038125 L5.525,4.81 L4.63333333,4.899375 C2.94166667,5.07 1.66666667,6.459375 1.66666667,8.125 C1.66666667,9.91992544 3.15905083,11.375 5,11.375 L15.8333333,11.375 Z" opacity=".3"/>
    <path d="M6.66666667,7.3125 L8.79166667,7.3125 L8.79166667,4.875 L11.2083333,4.875 L11.2083333,7.3125 L13.3333333,7.3125 L10,10.5625 L6.66666667,7.3125 L6.66666667,7.3125 Z M16.125,4.9075 C18.2916667,5.05375 20,6.7925 20,8.9375 C20,10.014942 19.5610132,11.0482548 18.7796116,11.8101213 C17.99821,12.5719878 16.938402,13 15.8333333,13 L5,13 C2.23857625,13 0,10.8173882 0,8.125 C0,5.614375 1.95,3.5425 4.45833333,3.2825 C5.5,1.3325 7.59166667,0 10,0 C13.0333333,0 15.5583333,2.104375 16.125,4.9075 L16.125,4.9075 Z M15.8333333,11.375 C17.2140452,11.375 18.3333333,10.2836941 18.3333333,8.9375 C18.3333333,7.678125 17.3166667,6.61375 16.0166667,6.5325 L14.7416667,6.443125 L14.4916667,5.224375 C14.0666667,3.13625 12.1833333,1.625 10,1.625 C8.28333333,1.625 6.73333333,2.55125 5.94166667,4.038125 L5.525,4.81 L4.63333333,4.899375 C2.94166667,5.07 1.66666667,6.459375 1.66666667,8.125 C1.66666667,9.91992544 3.15905083,11.375 5,11.375 L15.8333333,11.375 Z"/>
  </g>
</svg>
