<svg xmlns="http://www.w3.org/2000/svg" width="18" height="18" viewBox="0 0 18 18">
    <g fill="none" fill-rule="evenodd">
        <g>
            <g>
                <g>
                    <g>
                        <g>
                            <path fill="#B7BCD9" d="M12.6 9.8L2.8 9.8 1.4 11.2 1.4 1.4 12.6 1.4z" opacity=".3" transform="translate(-1146.000000, -285.000000) translate(279.000000, 144.000000) translate(835.000000, 124.000000) translate(32.000000, 17.000000) translate(2.000000, 2.000000)"/>
                            <path fill="#CFD8FF" d="M12.6 0H1.4C.63 0 0 .63 0 1.4V14l2.8-2.8h9.8c.777 0 1.4-.623 1.4-1.4V1.4c0-.77-.623-1.4-1.4-1.4m0 9.8H2.8l-1.4 1.4V1.4h11.2m-2.1 4.9H9.1V4.9h1.4M7.7 6.3H6.3V4.9h1.4M4.9 6.3H3.5V4.9h1.4" transform="translate(-1146.000000, -285.000000) translate(279.000000, 144.000000) translate(835.000000, 124.000000) translate(32.000000, 17.000000) translate(2.000000, 2.000000)"/>
                        </g>
                    </g>
                </g>
            </g>
        </g>
    </g>
</svg>
