<svg xmlns="http://www.w3.org/2000/svg" width="24" height="24" viewBox="0 0 24 24">
  <g fill="none" fill-rule="evenodd" transform="translate(6 2)">
    <path fill="#606F87" d="M6.7,2.91 C8.16,4.91 9,7.37 9,10 C9,12.63 8.16,15.09 6.7,17.09 C9.25,15.76 11,13.08 11,10 C11,6.92 9.25,4.24 6.7,2.91 Z" opacity=".3"/>
    <path fill="#B7BCD9" d="M3,0 C1.95,0 0.95,0.16 0,0.46 C4.06,1.73 7,5.52 7,10 C7,14.48 4.06,18.27 0,19.54 C0.95,19.84 1.95,20 3,20 C8.52,20 13,15.52 13,10 C13,4.48 8.52,0 3,0 Z M6.7,17.09 C8.16,15.09 9,12.63 9,10 C9,7.37 8.16,4.91 6.7,2.91 C9.25,4.24 11,6.92 11,10 C11,13.08 9.25,15.76 6.7,17.09 Z"/>
  </g>
</svg>
