<svg xmlns="http://www.w3.org/2000/svg" width="24" height="24" viewBox="0 0 24 24">
  <path fill="#B7BCD9" fill-rule="evenodd" d="M10.1550358,21.8355477 C12.0283397,21.0575741 11.6178967,18.9125898 10.6707206,17.556693 C9.73406857,16.1674545 8.43959446,15.2116584 7.13459618,14.289204 C6.20846837,13.6668252 5.35600981,12.8888516 4.67193813,11.9997389 C4.3772611,11.63298 3.77738286,10.9550316 4.38778528,10.8216647 C5.00871188,10.6882978 6.08217821,11.3329044 6.62943556,11.5774104 C7.58713591,11.9997389 8.53431208,12.4887509 9.41834318,13.0666741 L10.4812853,11.1773097 C8.83951329,10.0325772 6.73467735,9.02121152 4.77717993,8.721136 C3.66161688,8.54331347 2.48290876,8.78781945 2.10403829,10.0659189 C1.76726454,11.1661958 2.3039977,12.2775866 2.91440012,13.1444715 C4.35621274,15.1783167 6.59786302,16.1563406 8.27120759,17.9123381 C8.6290297,18.2790971 9.06052107,18.7125395 9.27100466,19.2237793 C9.49201243,19.7127912 9.43939153,19.746133 8.94475509,19.746133 C7.63975681,19.746133 6.00850895,18.6680839 4.94556681,17.9567937 L3.88262466,19.8461581 C5.49282415,20.8908655 8.18701415,22.52461 10.1550358,21.8355477 L10.1550358,21.8355477 Z M21.826351,4.49785087 C22.057883,4.25334489 22.057883,3.8532442 21.826351,3.61985212 L20.4582077,2.17504405 C20.2371999,1.94165198 19.8583294,1.94165198 19.6373217,2.17504405 L18.5638553,3.30866269 L20.7528847,5.6203556 L21.826351,4.49785087 Z M11.4705582,10.7994368 L11.4705582,13.1111297 L13.6595876,13.1111297 L20.1319581,6.27607619 L17.9429287,3.96438328 L11.4705582,10.7994368 Z"/>
</svg>
