<svg width="25" height="24" viewBox="0 0 25 24" xmlns="http://www.w3.org/2000/svg">
    <path d="M8.012 11.524h7.535v1.905H8.012v-1.905zm1.884 7.619H6.128V3.905h6.593v4.762h4.71v2.952l1.883-1.905v-2L13.663 2H6.128c-1.04 0-1.883.853-1.883 1.905v15.238c0 1.052.843 1.905 1.883 1.905h3.768v-1.905zm1.908-1.905.917-.924v-.98H8.012v1.904h3.792zm7.698-4.762c.095 0 .283.095.377.19l1.224 1.239c.189.19.189.571 0 .762l-.941.952-1.978-2 .942-.952c.094-.096.188-.19.376-.19zm0 3.714L13.757 22H11.78v-2l5.745-5.81 1.978 2z" fill="#454E5D" fill-rule="evenodd"/>
</svg>
