<svg xmlns="http://www.w3.org/2000/svg" width="24" height="24" viewBox="0 0 24 24">
  <g fill="#B7BCD9" fill-rule="evenodd" transform="translate(2 2)">
    <path d="M10,0 C12.6521649,0 15.195704,1.0535684 17.0710678,2.92893219 C18.9464316,4.80429597 20,7.3478351 20,10 C20,15.5228475 15.5228475,20 10,20 C7.3478351,20 4.80429597,18.9464316 2.92893219,17.0710678 C1.0535684,15.195704 0,12.6521649 0,10 C0,7.3478351 1.0535684,4.80429597 2.92893219,2.92893219 C4.80429597,1.0535684 7.3478351,0 10,0" opacity=".3"/>
    <path d="M10,-4.4408921e-16 C12.6521649,-4.4408921e-16 15.195704,1.0535684 17.0710678,2.92893219 C18.9464316,4.80429597 20,7.3478351 20,10 C20,15.5228475 15.5228475,20 10,20 C7.3478351,20 4.80429597,18.9464316 2.92893219,17.0710678 C1.0535684,15.195704 -4.4408921e-16,12.6521649 -4.4408921e-16,10 C-4.4408921e-16,7.3478351 1.0535684,4.80429597 2.92893219,2.92893219 C4.80429597,1.0535684 7.3478351,-4.4408921e-16 10,-4.4408921e-16 M10,2 C5.581722,2 2,5.581722 2,10 C2,14.418278 5.581722,18 10,18 C12.1217319,18 14.1565632,17.1571453 15.6568542,15.6568542 C17.1571453,14.1565632 18,12.1217319 18,10 C18,5.581722 14.418278,2 10,2 M10,8.5 C10.8284271,8.5 11.5,9.17157288 11.5,10 C11.5,10.8284271 10.8284271,11.5 10,11.5 C9.17157288,11.5 8.5,10.8284271 8.5,10 C8.5,9.17157288 9.17157288,8.5 10,8.5 M5.5,8.5 C6.32842712,8.5 7,9.17157288 7,10 C7,10.8284271 6.32842712,11.5 5.5,11.5 C4.67157288,11.5 4,10.8284271 4,10 C4,9.17157288 4.67157288,8.5 5.5,8.5 M14.5,8.5 C15.3284271,8.5 16,9.17157288 16,10 C16,10.8284271 15.3284271,11.5 14.5,11.5 C13.6715729,11.5 13,10.8284271 13,10 C13,9.17157288 13.6715729,8.5 14.5,8.5 Z"/>
  </g>
</svg>
