<svg xmlns="http://www.w3.org/2000/svg" width="18" height="18" viewBox="0 0 18 18">
    <g fill="none" fill-rule="evenodd">
        <g fill="#454E5D">
            <path d="M3.989 12h-2.66V1.333h4.654v3.334h3.324v2.066l1.33-1.333V4L6.648 0H1.33C.595 0 0 .597 0 1.333V12c0 .736.595 1.333 1.33 1.333h2.659V12z" transform="translate(3.500000, 2.000000)"/>
            <path d="M0.991 1.043L6.188 1.043 6 4.667 9.307 4.667 9.307 6.733 3.989 12 0.991 12.939z" opacity=".3" transform="translate(3.500000, 2.000000)"/>
            <path d="M10.77 7.333c.067 0 .2.067.266.134l.864.866c.133.134.133.4 0 .534l-.665.666-1.396-1.4.665-.666c.067-.067.133-.134.266-.134zM10.77 9.933L6.715 14 5.319 14 5.319 12.6 9.374 8.533z" transform="translate(3.500000, 2.000000)"/>
        </g>
    </g>
</svg>
