<?xml version="1.0" encoding="UTF-8"?>
<svg width="24px" height="24px" viewBox="0 0 24 24" version="1.1" xmlns="http://www.w3.org/2000/svg" xmlns:xlink="http://www.w3.org/1999/xlink">
    <g id="Component" stroke="none" stroke-width="1" fill="none" fill-rule="evenodd">
        <g id="credit-cards" transform="translate(-388.000000, -831.000000)">
            <g id="Component/credit-card_director_description_filled-Copy-4" transform="translate(388.000000, 814.000000)">
                <g id="estimated" transform="translate(0.000000, 17.000000)">
                    <path d="M12,0 C5.4,0 0,5.4 0,12 C0,18.6 5.4,24 12,24 C18.6,24 24,18.6 24,12 C24,5.4 18.6,0 12,0" id="Path" fill="#B7BCD9" opacity="0.3"></path>
                    <path d="M12,0 C5.4,0 0,5.4 0,12 C0,18.6 5.4,24 12,24 C18.6,24 24,18.6 24,12 C24,5.4 18.6,0 12,0 M12,21.6 C6.708,21.6 2.4,17.292 2.4,12 C2.4,6.708 6.708,2.4 12,2.4 C17.292,2.4 21.6,6.708 21.6,12 C21.6,17.292 17.292,21.6 12,21.6" id="Shape" fill="#9EB1FF"></path>
                    <g id="hourglass_bottom-24px" transform="translate(3.600000, 3.600000)">
                        <path d="M12.6,15.4 L12.593,11.2 L9.8,8.4 L12.593,5.593 L12.6,1.4 L4.2,1.4 L4.2,5.6 L7,8.4 L4.2,11.193 L4.2,15.4 L12.6,15.4 Z M5.6,5.25 L5.6,2.8 L11.2,2.8 L11.2,5.25 L8.4,8.05 L5.6,5.25 Z" id="Shape" fill="#9EB1FF" fill-rule="nonzero" transform="translate(8.400000, 8.400000) scale(-1, -1) translate(-8.400000, -8.400000) "></path>
                        <polygon id="Triangle" fill="#9EB1FF" fill-rule="nonzero" transform="translate(8.400000, 13.650000) scale(-1, 1) translate(-8.400000, -13.650000) " points="8.4 12.6 11.55 14.7 5.25 14.7"></polygon>
                        <polygon id="Triangle" fill="#9EB1FF" fill-rule="nonzero" transform="translate(8.400000, 9.975000) scale(-1, 1) translate(-8.400000, -9.975000) " points="8.4 9.45 8.925 10.5 7.875 10.5"></polygon>
                        <polygon id="Triangle-Copy" fill="#9EB1FF" fill-rule="nonzero" transform="translate(8.400000, 11.550000) scale(-1, 1) translate(-8.400000, -11.550000) " points="8.4 11.025 8.925 12.075 7.875 12.075"></polygon>
                    </g>
                </g>
            </g>
        </g>
    </g>
</svg>
