<svg xmlns="http://www.w3.org/2000/svg" width="24" height="24" viewBox="0 0 24 24">
  <g fill="#B7BCD9" fill-rule="evenodd" transform="translate(2 3)">
    <rect width="8" height="8" x="1" y="5" opacity=".3"/>
    <path d="M19.17,0.25 C19.39,0.25 19.5866667,0.333333333 19.76,0.5 C19.92,0.66 20,0.853333333 20,1.08 L20,16.92 C20,17.1466667 19.92,17.34 19.76,17.5 C19.5866667,17.6666667 19.39,17.75 19.17,17.75 L5.83,17.75 C5.61,17.75 5.41333333,17.6666667 5.24,17.5 C5.08,17.34 5,17.1466667 5,16.92 L5,14 L0.83,14 C0.61,14 0.413333333,13.92 0.24,13.76 C0.08,13.5866667 0,13.39 0,13.17 L0,4.83 C0,4.61 0.08,4.41333333 0.24,4.24 C0.413333333,4.08 0.61,4 0.83,4 L5,4 L5,1.08 C5,0.853333333 5.08,0.66 5.24,0.5 C5.41333333,0.333333333 5.61,0.25 5.83,0.25 M5,10.06 L6.18,12.28 L7.97,12.28 L6,9.06 L7.93,5.89 L6.22,5.89 L5.13,7.9 L5.09,7.96 L5.06,8.03 C4.88666667,7.67666667 4.7,7.32 4.5,6.96 C4.33333333,6.60666667 4.15666667,6.25 3.97,5.89 L2.16,5.89 L4.05,9.08 L2,12.28 L3.78,12.28 M11.88,16.5 L11.88,14 L6.25,14 L6.25,16.5 M11.88,12.75 L11.88,9.63 L10,9.63 L10,12.75 M11.88,8.38 L11.88,5.25 L10,5.25 L10,8.38 M11.88,4 L11.88,1.5 L6.25,1.5 L6.25,4 M18.75,16.5 L18.75,14 L13.13,14 L13.13,16.5 M18.75,12.75 L18.75,9.63 L13.13,9.63 L13.13,12.75 M18.75,8.38 L18.75,5.25 L13.13,5.25 L13.13,8.38 M18.75,4 L18.75,1.5 L13.13,1.5 L13.13,4 L18.75,4 Z"/>
  </g>
</svg>
