<svg width="26" height="23" viewBox="0 0 26 23" fill="none" xmlns="http://www.w3.org/2000/svg">
<path d="M12.8933 0.0296631L0.616089 2.49391V19.7436L12.8933 22.2079V0.0296631ZM15.3488 2.49391V4.95815H17.8042V7.4224H15.3488V9.88665H17.8042V12.3509H15.3488V14.8151H17.8042V17.2794H15.3488V19.7436H23.9428C24.6205 19.7436 25.1705 19.1916 25.1705 18.5115V3.72603C25.1705 3.0459 24.6205 2.49391 23.9428 2.49391H15.3488ZM20.2596 4.95815H22.7151V7.4224H20.2596V4.95815ZM3.28734 6.55606H5.46943L6.60363 9.28502C6.69571 9.50804 6.76502 9.76667 6.83623 10.0599H6.8674C6.90792 9.88372 6.99039 9.61452 7.11439 9.26337L8.37808 6.55606H10.3683L7.99202 11.0779L10.4379 15.6815H8.31573L6.94893 12.7071C6.89737 12.6023 6.83621 12.3915 6.78587 12.0982H6.76669C6.736 12.2387 6.67413 12.449 6.58205 12.7311L5.20326 15.6815H3.07153L5.60131 11.114L3.28734 6.55606ZM20.2596 9.88665H22.7151V12.3509H20.2596V9.88665ZM20.2596 14.8151H22.7151V17.2794H20.2596V14.8151Z" fill="#3C64F7"/>
</svg>
