<svg width="25" height="27" viewBox="0 0 25 27" xmlns="http://www.w3.org/2000/svg">
    <g fill="#454E5D" fill-rule="evenodd">
        <path d="M4.722 1.824C3.49 1.824 2.5 2.877 2.5 4.191V20.76c0 1.314.989 2.367 2.222 2.367h15.556c1.233 0 2.222-1.053 2.222-2.367V4.191c0-1.314-.989-2.367-2.222-2.367H4.722z" opacity=".3"/>
        <path d="M4.722 1.824C3.49 1.824 2.5 2.877 2.5 4.191V20.76c0 1.314.989 2.367 2.222 2.367h15.556c1.233 0 2.222-1.053 2.222-2.367V4.191c0-1.314-.989-2.367-2.222-2.367H4.722zm0 2.367h15.556V20.76H4.722V4.191zm2.222 2.367v2.367h11.112V6.558H6.944zm0 4.734v2.367h11.112v-2.367H6.944zm0 4.734v2.367h7.778v-2.367H6.944z"/>
    </g>
</svg>
