<svg xmlns="http://www.w3.org/2000/svg" width="24" height="24" viewBox="0 0 24 24">
  <g fill="#B7BCD9" fill-rule="evenodd" transform="translate(2 2)">
    <path d="M15.5555556,0 L20,4.44444444 L20,17.7777778 C20,19.0050772 19.0050772,20 17.7777778,20 L2.22222222,20 C0.988888889,20 0,19 0,17.7777778 L0,2.22222222 C0,0.994922778 0.994922778,0 2.22222222,0 L15.5555556,0 Z M10,12.2222222 C8.77270056,12.2222222 7.77777778,13.217145 7.77777778,14.4444444 C7.77777778,15.6717439 8.77270056,16.6666667 10,16.6666667 C11.2272994,16.6666667 12.2222222,15.6717439 12.2222222,14.4444444 C12.2222222,13.217145 11.2272994,12.2222222 10,12.2222222 Z M11.1111111,2.22222222 L2.22222222,2.22222222 L2.22222222,4.44444444 L11.1111111,4.44444444 L11.1111111,2.22222222 Z" opacity=".3"/>
    <path d="M13.3333333,2.22222222 L13.3333333,6.66666667 L2.22222222,6.66666667 L2.22222222,17.7777778 L7.05555556,17.7777778 C6.11111111,16.9666667 5.55555556,15.7666667 5.55555556,14.4444444 C5.55555556,11.9898456 7.54540111,10 10,10 C12.4545989,10 14.4444444,11.9898456 14.4444444,14.4444444 C14.4444444,15.7666667 13.8888889,16.9666667 12.9444444,17.7777778 L17.7777778,17.7777778 L17.7777778,5.36666667 L14.6333333,2.22222222 L13.3333333,2.22222222 L13.3333333,2.22222222 Z M2.22222222,4.44444444 L11.1111111,4.44444444 L11.1111111,2.22222222 L2.22222222,2.22222222 L2.22222222,4.44444444 L2.22222222,4.44444444 Z M15.5555556,0 L20,4.44444444 L20,17.7777778 C20,19.0050772 19.0050772,20 17.7777778,20 L2.22222222,20 C0.988888889,20 0,19 0,17.7777778 L0,2.22222222 C0,0.994922778 0.994922778,0 2.22222222,0 L15.5555556,0 L15.5555556,0 Z M10,12.2222222 C8.77270056,12.2222222 7.77777778,13.217145 7.77777778,14.4444444 C7.77777778,15.6717439 8.77270056,16.6666667 10,16.6666667 C11.2272994,16.6666667 12.2222222,15.6717439 12.2222222,14.4444444 C12.2222222,13.217145 11.2272994,12.2222222 10,12.2222222 Z"/>
  </g>
</svg>
