<?xml version="1.0" encoding="UTF-8"?>
<svg width="22px" height="19px" viewBox="0 0 22 19" version="1.1" xmlns="http://www.w3.org/2000/svg" xmlns:xlink="http://www.w3.org/1999/xlink">
    <g id="Add-movie-form-blue" stroke="none" stroke-width="1" fill="none" fill-rule="evenodd">
        <g id="3b-AddFilm-Production" transform="translate(-1156.000000, -264.000000)">
            <g id="folder" transform="translate(1157.000000, 265.000000)">
                <polygon id="Rectangle" fill="#CFD3DB" points="3.08717625 5.03447531 20.1436789 5.06251578 18.2649672 16.3524815 0.88368508 16.3149127"></polygon>
                <path d="M10.4597674,7.00687436 C10.2519626,6.72976401 9.90554669,6.59126486 9.48999321,6.59126486 L5.5415348,6.59126486 C4.77956537,6.59126486 4.1561511,7.14548557 4.01759593,7.83814941 L3.94834635,8.39237012 C3.87909677,8.73873005 4.01765195,9.15433956 4.22540068,9.43144992 C4.43320543,9.70850424 4.77962139,9.84705942 5.19517487,9.84705942 L9.14363328,9.84705942 C9.83635314,9.84705942 10.4597674,9.29295076 10.6675722,8.60017487 L10.7368217,8.04595416 C10.8060713,7.69959423 10.6675722,7.28398472 10.4597674,7.00687436 Z M9.21288285,8.32306452 C9.21288285,8.39231409 9.14357725,8.46156367 9.07432767,8.46156367 L5.26448048,8.46156367 L5.33373005,8.04595416 C5.33373005,7.97670458 5.40303565,7.90745501 5.47228523,7.90745501 L9.28213243,7.90745501 L9.21288285,8.32306452 Z" id="Shape" fill="#606F87" fill-rule="nonzero"></path>
                <path d="M20.2960645,4.67412224 C19.9475756,4.26747708 19.4524635,4.00779117 18.8524686,3.93428353 C18.8505077,3.90352462 18.8473141,3.87298981 18.8413752,3.84295925 C18.5643209,2.80387946 17.4559915,2.04196604 16.209107,2.04196604 L11.0883362,2.04196604 L9.35143804,0.240804754 C9.21288286,0.102193548 9.07438371,0.0329439728 8.86657896,0.0329439728 L2.70157386,0.0329439728 C1.10832937,0.0329439728 0,1.00266214 0,2.31885229 L0,14.6489185 C0,15.3867402 0.334033956,16.1834465 0.876432938,16.7670815 C0.884668932,16.7767742 0.892176572,16.786691 0.900524619,16.7963277 C1.31613413,17.3504363 1.93960442,17.6275467 2.63226825,17.6275467 L2.70151783,17.6275467 L16.209219,17.6275467 C17.6638523,17.6275467 18.9107369,16.242163 19.1877912,14.9259168 L20.7809797,6.54425297 C20.8502292,5.85158913 20.7116741,5.1589253 20.2960645,4.67412224 Z M1.38543973,2.31902037 C1.38543973,1.62630051 2.21665875,1.41843973 2.70157386,1.41843973 L8.58952463,1.41843973 L10.2520187,3.15018336 C10.3753345,3.27349915 10.5260476,3.34157216 10.6797861,3.35513073 C10.7761528,3.40174533 10.8885993,3.42734975 11.0139321,3.42734975 L16.209219,3.42734975 C16.6865145,3.42734975 17.1229661,3.63044822 17.3636588,3.9121528 L4.9182326,3.9121528 C3.4635433,3.9121528 2.21665875,4.88192699 2.00891002,6.19806112 L1.38543973,9.55929881 L1.38543973,2.31902037 L1.38543973,2.31902037 Z M19.3955399,6.33672835 L17.8023515,14.7183922 C17.6637963,15.4803616 16.9711325,16.242275 16.2784126,16.242275 L16.209219,16.242275 L2.70157386,16.242275 C2.43331579,16.242275 2.15228353,16.0753141 1.91909847,15.8300832 C1.7826163,15.5963939 1.74306112,15.3548608 1.80104924,15.0646401 L3.3942377,6.47517148 C3.4635433,5.78245161 4.15620714,5.29759253 4.91817658,5.29759253 L18.1487114,5.36689813 L18.4950713,5.36689813 C18.8414313,5.36689813 19.1184856,5.43614771 19.2570408,5.64395246 C19.3955399,5.78250764 19.4647895,6.05967402 19.3955399,6.33672835 Z" id="Shape" stroke="#606F87" stroke-width="0.3" fill="#606F87" fill-rule="nonzero"></path>
            </g>
        </g>
    </g>
</svg>
