<svg width="17" height="24" viewBox="0 0 17 24" fill="none" xmlns="http://www.w3.org/2000/svg">
<path d="M14.375 8.50407C14.2156 8.50407 14.0562 8.52324 13.9062 8.55199V5.1499C13.9062 3.8274 12.8562 2.75407 11.5625 2.75407C11.3844 2.75407 11.2156 2.77324 11.0563 2.81157C10.8594 1.69032 9.90313 0.837402 8.75 0.837402C7.75625 0.837402 6.9125 1.4699 6.56563 2.36115C6.36875 2.30365 6.15313 2.2749 5.9375 2.2749C4.64375 2.2749 3.59375 3.34824 3.59375 4.67074V5.19782C3.44375 5.16907 3.28438 5.1499 3.125 5.1499C1.83125 5.1499 0.78125 6.22324 0.78125 7.54574V15.6916C0.78125 20.1862 4.35312 23.8374 8.75 23.8374C13.1469 23.8374 16.7188 20.1862 16.7188 15.6916V10.8999C16.7188 9.5774 15.6687 8.50407 14.375 8.50407ZM14.8438 15.6916C14.8438 19.132 12.1156 21.9207 8.75 21.9207C5.38438 21.9207 2.65625 19.132 2.65625 15.6916V7.54574C2.65625 7.2774 2.8625 7.06657 3.125 7.06657C3.3875 7.06657 3.59375 7.2774 3.59375 7.54574V12.3374H5.46875V4.67074C5.46875 4.4024 5.675 4.19157 5.9375 4.19157C6.2 4.19157 6.40625 4.4024 6.40625 4.67074V11.3791H8.28125V3.23324C8.28125 2.9649 8.4875 2.75407 8.75 2.75407C9.0125 2.75407 9.21875 2.9649 9.21875 3.23324V11.3791H11.0938V5.1499C11.0938 4.88157 11.3 4.67074 11.5625 4.67074C11.825 4.67074 12.0312 4.88157 12.0312 5.1499V13.6982C10.3719 14.4362 9.21875 16.1228 9.21875 18.0874H11.0938C11.0938 16.4966 12.35 15.2124 13.9062 15.2124V10.8999C13.9062 10.6316 14.1125 10.4207 14.375 10.4207C14.6375 10.4207 14.8438 10.6316 14.8438 10.8999V15.6916Z" fill="white"/>
</svg>
