<svg xmlns="http://www.w3.org/2000/svg" width="24" height="24" viewBox="0 0 24 24">
  <g fill="#B7BCD9" fill-rule="evenodd" transform="translate(2 4)">
    <polygon points="0 0 0 16 20 16 20 0" opacity=".3"/>
    <path d="M0,0 L0,16 L20,16 L20,0 L0,0 Z M11.7647059,2.46153846 L11.7647059,6.76923077 L8.23529412,6.76923077 L8.23529412,2.46153846 L11.7647059,2.46153846 Z M2.35294118,2.46153846 L5.88235294,2.46153846 L5.88235294,6.76923077 L2.35294118,6.76923077 L2.35294118,2.46153846 Z M2.35294118,13.5384615 L2.35294118,9.23076923 L5.88235294,9.23076923 L5.88235294,13.5384615 L2.35294118,13.5384615 Z M8.23529412,13.5384615 L8.23529412,9.23076923 L11.7647059,9.23076923 L11.7647059,13.5384615 L8.23529412,13.5384615 Z M17.6470588,13.5384615 L14.1176471,13.5384615 L14.1176471,9.23076923 L17.6470588,9.23076923 L17.6470588,13.5384615 Z M14.1176471,6.76923077 L14.1176471,2.46153846 L17.6470588,2.46153846 L17.6470588,6.76923077 L14.1176471,6.76923077 Z"/>
  </g>
</svg>
