<svg xmlns="http://www.w3.org/2000/svg" width="24" height="24" viewBox="0 0 24 24">
  <g fill="#B7BCD9" fill-rule="evenodd" transform="translate(2 5)">
    <path d="M10,1.6875 C12.1833333,1.6875 14.0666667,3.256875 14.4916667,5.4253125 L14.7416667,6.6909375 L16.0166667,6.78375 C17.3166667,6.868125 18.3333333,7.9734375 18.3333333,9.28125 C18.3333333,10.6792208 17.2140452,11.8125 15.8333333,11.8125 L5,11.8125 C3.15905083,11.8125 1.66666667,10.301461 1.66666667,8.4375 C1.66666667,6.7078125 2.94166667,5.265 4.63333333,5.0878125 L5.525,4.995 L5.94166667,4.1934375 C6.73333333,2.649375 8.28333333,1.6875 10,1.6875 Z" opacity=".3"/>
    <path d="M16.125,5.09625 C15.5583333,2.1853125 13.0333333,0 10,0 C7.59166667,0 5.5,1.38375 4.45833333,3.40875 C1.95,3.67875 0,5.8303125 0,8.4375 C0,11.2334415 2.23857625,13.5 5,13.5 L15.8333333,13.5 C16.938402,13.5 17.99821,13.0555258 18.7796116,12.2643567 C19.5610132,11.4731876 20,10.4001321 20,9.28125 C20,7.05375 18.2916667,5.248125 16.125,5.09625 L16.125,5.09625 Z M15.8333333,11.8125 L5,11.8125 C3.15905083,11.8125 1.66666667,10.301461 1.66666667,8.4375 C1.66666667,6.7078125 2.94166667,5.265 4.63333333,5.0878125 L5.525,4.995 L5.94166667,4.1934375 C6.73333333,2.649375 8.28333333,1.6875 10,1.6875 C12.1833333,1.6875 14.0666667,3.256875 14.4916667,5.4253125 L14.7416667,6.6909375 L16.0166667,6.78375 C17.3166667,6.868125 18.3333333,7.9734375 18.3333333,9.28125 C18.3333333,10.6792208 17.2140452,11.8125 15.8333333,11.8125 L15.8333333,11.8125 Z M6.66666667,7.59375 L8.79166667,7.59375 L8.79166667,10.125 L11.2083333,10.125 L11.2083333,7.59375 L13.3333333,7.59375 L10,4.21875 L6.66666667,7.59375 Z"/>
  </g>
</svg>
