<?xml version="1.0" encoding="UTF-8"?>
<svg width="24px" height="24px" viewBox="0 0 24 24" version="1.1" xmlns="http://www.w3.org/2000/svg" xmlns:xlink="http://www.w3.org/1999/xlink">
    <title>Icons/Light/24px/invitation</title>
    <g id="Icons/Light/24px/invitation" stroke="none" stroke-width="1" fill="none" fill-rule="evenodd">
        <g id="noun_invitation_2814891-02" transform="translate(2.000000, 4.000000)" fill="#454E5D">
            <path d="M18.564398,5.6013142 L18.6004081,0 L1.39959189,0 L1.39959189,5.6013142 L0,5.6013142 L0,17 L20,17 L20,5.6013142 L18.564398,5.6013142 Z M3.01122625,1.45659553 L17.0121821,1.45659553 L17.0121821,6.92812123 L10.6037691,12.1715167 C10.2612337,12.448194 9.7579717,12.448194 9.41543632,12.1715167 L3.01842826,7.02159045 L3.01122625,1.45659553 Z M18.0157178,15.083948 L2.01472157,15.083948 L2.01472157,8.08394797 L8.31832913,13.1304596 C9.28987111,13.868696 10.7077282,13.868696 11.6792702,13.1304596 L18.0253205,8.08394797 L18.0157178,15.083948 Z" id="Shape"></path>
            <path d="M18.0157178,8.08394797 L18.0157178,15.083948 L2.01472157,15.083948 L2.01472157,8.08394797 L8.31832913,13.1304596 C9.28987111,13.868696 10.7077282,13.868696 11.6792702,13.1304596 L18.0157178,8.08394797 Z" id="Path" opacity="0.3"></path>
        </g>
    </g>
</svg>