<?xml version="1.0" encoding="UTF-8"?>
<svg width="24px" height="24px" viewBox="0 0 24 24" version="1.1" xmlns="http://www.w3.org/2000/svg" xmlns:xlink="http://www.w3.org/1999/xlink">
    <title>Invitation</title>
    <g id="icons/24px/invitation" stroke="none" stroke-width="1" fill="none" fill-rule="evenodd">
        <g id="noun_invitation_2814891-02" transform="translate(0.000000, 1.000000)">
            <path d="M22.2142857,7.24285714 L22.2571429,0.222857143 L1.78571429,0.222857143 L1.78571429,7.24285714 L0.12,7.24285714 L0.12,21.5285714 L23.9228571,21.5285714 L23.9228571,7.24285714 L22.2142857,7.24285714 Z M3.60285714,1.90857143 L20.5714286,1.90857143 L20.5714286,8.90571429 L12.74,15.4771429 C12.332334,15.8238963 11.7333803,15.8238963 11.3257143,15.4771429 L3.61142857,9.02285714 L3.60285714,1.90857143 Z M21.9514286,19.5685714 L2.09142857,19.5685714 L2.09142857,10.3542857 L3.60285714,11.6228571 L10.02,16.9971429 C11.1762737,17.968903 12.8637263,17.968903 14.02,16.9971429 L20.5714286,11.52 L21.9628571,10.3542857 L21.9514286,19.5685714 Z" id="Shape" fill="#666B81"></path>
            <path d="M20.5714286,1.90857143 L20.5714286,8.90571429 L12.74,15.4771429 C12.332334,15.8238963 11.7333803,15.8238963 11.3257143,15.4771429 L3.61142857,9.02285714 L3.61142857,1.90857143 L20.5714286,1.90857143 Z" id="Path" fill="#FFFFFF" opacity="0.3"></path>
            <path d="M21.9514286,10.3542857 L21.9514286,19.5685714 L2.09142857,19.5685714 L2.09142857,10.3542857 L3.60285714,11.6228571 L10.02,16.9971429 C11.1762737,17.968903 12.8637263,17.968903 14.02,16.9971429 L20.5714286,11.52 L21.9514286,10.3542857 Z" id="Path" fill="#606F87" opacity="0.3"></path>
        </g>
    </g>
</svg>