<?xml version="1.0" encoding="UTF-8"?>
<svg width="143px" height="48px" viewBox="0 0 143 48" version="1.1" xmlns="http://www.w3.org/2000/svg" xmlns:xlink="http://www.w3.org/1999/xlink">
    <g id="icons/48px/logo_media_financiers" stroke="none" stroke-width="1" fill="none" fill-rule="evenodd">
        <g id="Combined-Shape-2" transform="translate(2.000000, 2.000000)" fill="#B7BCD9">
            <path d="M39.8883467,-3.55271368e-15 C42.1651337,0.00100166185 44.0092009,1.84606279 44.0092009,4.12284017 C44.0092009,6.11614724 42.5918434,7.77890591 40.7107145,8.16053908 L40.7107145,8.16053908 L40.7047045,44 L1.77635684e-14,43.9929884 L0.0100166608,3.28945751 L35.8486274,3.2974708 C36.2312638,1.41534819 37.8940295,-3.55271368e-15 39.8883467,-3.55271368e-15 Z M38.9788339,8.13549753 L31.5584915,24.5567419 C32.5210926,25.3119949 33.1501389,26.4719193 33.1501389,27.7901063 C33.1501389,30.065882 31.3040683,31.9109432 29.0272813,31.9109432 C27.855332,31.9109432 26.8045843,31.4161222 26.0543364,30.631821 L26.0543364,30.631821 L4.11684759,42.3452546 L39.0559621,42.3512646 L39.0619721,8.15953741 C39.0339255,8.15352744 39.0068805,8.14250916 38.9788339,8.13549753 L38.9788339,8.13549753 Z M1.65274903,28.4562114 L1.64974403,41.7933389 L25.1788803,29.2294944 C25.110767,29.0471919 25.0616853,28.8558745 25.017612,28.6645571 L25.017612,28.6645571 L1.65274903,28.4562114 Z M82.8942788,29.5602431 C84.1894331,29.5602431 85.1800808,29.8697566 85.8662221,30.4897853 C86.5513617,31.1108157 86.8949332,32.0463678 86.8949332,33.2974435 L86.8949332,38.4479887 L84.9527026,38.4479887 L84.9527026,37.3782139 C84.7002828,37.762852 84.3406846,38.0563389 83.8759116,38.2596763 C83.4081335,38.4610103 82.8461989,38.5641815 82.1881042,38.5641815 C81.5300096,38.5641815 80.9520483,38.449992 80.4612319,38.2256198 C79.9654072,38.0022492 79.5847741,37.6877274 79.3163276,37.2870626 C79.0468794,36.8873995 78.9136578,36.4356501 78.9136578,35.9308125 C78.9136578,35.1415029 79.2061443,34.5064493 79.795124,34.027655 C80.380097,33.5528673 81.3036331,33.3134701 82.566734,33.3134701 L84.837511,33.3134701 L84.837511,33.1822524 C84.837511,32.5662303 84.6542061,32.0944476 84.2865947,31.7669042 C83.9189832,31.4353541 83.3730752,31.2720832 82.6468673,31.2720832 C82.1560509,31.2720832 81.6702429,31.3492112 81.1914465,31.5034671 C80.7156551,31.6557197 80.3099803,31.871077 79.9824355,32.1445307 L79.1760943,30.6460446 C79.6358591,30.2974663 80.1917837,30.0280192 80.8398617,29.8407084 C81.483933,29.6543993 82.1720776,29.5602431 82.8942788,29.5602431 Z M119.018965,29.560143 C119.876392,29.560143 120.641664,29.7484554 121.315786,30.1280852 C121.990909,30.5067134 122.516783,31.0385959 122.895413,31.7267375 C123.275045,32.4108726 123.463358,33.2031871 123.463358,34.1036811 C123.463358,34.2459171 123.452339,34.4472511 123.430303,34.7106882 L116.534833,34.7106882 C116.655033,35.3587634 116.97156,35.8716143 117.48241,36.2502424 C117.990254,36.6288706 118.624309,36.820188 119.381568,36.820188 C120.346173,36.820188 121.144501,36.4996562 121.767537,35.8625993 L122.872375,37.1317049 C122.476717,37.6044893 121.976885,37.9590776 121.372881,38.2004781 C120.770879,38.4428802 120.087743,38.5640813 119.333489,38.5640813 C118.366881,38.5640813 117.517468,38.3697589 116.781243,37.9861224 C116.047022,37.6044893 115.478076,37.0675985 115.077409,36.3814601 C114.677745,35.6963234 114.478413,34.9200355 114.478413,34.0525964 C114.478413,33.1981788 114.671735,32.4279008 115.061383,31.7417625 C115.452032,31.0576274 115.99193,30.519735 116.682078,30.1360985 C117.37423,29.7544654 118.154528,29.560143 119.018965,29.560143 Z M135.42906,29.5605436 C136.034067,29.5605436 136.635066,29.6296583 137.240073,29.766886 C137.841072,29.9051153 138.335895,30.0864161 138.719533,30.3188016 L137.930221,31.8813941 C137.182978,31.4416646 136.345585,31.2233023 135.412032,31.2233023 C134.809029,31.2233023 134.352269,31.3124502 134.036745,31.4947527 C133.726228,31.6750518 133.569968,31.914449 133.569968,32.2099392 C133.569968,32.5404876 133.737246,32.7738748 134.072805,32.9111025 C134.406359,33.0473285 134.924221,33.1765429 135.62739,33.2967423 C136.329558,33.4049218 136.904515,33.5311312 137.355264,33.6733672 C137.804011,33.8186081 138.190654,34.0580053 138.516195,34.399572 C138.83773,34.740137 139,35.2209347 139,35.8469734 C139,36.6693378 138.64541,37.3274296 137.930221,37.8222506 C137.218036,38.3160698 136.24642,38.5634803 135.018377,38.5634803 C134.303188,38.5634803 133.608031,38.4703258 132.9279,38.2840167 C132.247769,38.0967059 131.702863,37.862317 131.297188,37.5748401 L132.086501,36.0102443 C132.482159,36.274683 132.956949,36.4870353 133.51087,36.6452979 C134.066795,36.8035605 134.612703,36.8846951 135.149596,36.8846951 C136.376637,36.8846951 136.992661,36.5611583 136.992661,35.9150864 C136.992661,35.6055729 136.836401,35.3932206 136.52288,35.2720195 C136.21036,35.1518201 135.708525,35.0356273 135.018377,34.9254445 C134.292169,34.8152617 133.704191,34.6890523 133.247432,34.547818 C132.793677,34.4045803 132.399021,34.1551665 132.063462,33.7975732 C131.729908,33.442985 131.560626,32.9461607 131.560626,32.3091037 C131.560626,31.4757211 131.909206,30.809616 132.605364,30.3097867 C133.303525,29.8099574 134.244089,29.5605436 135.42906,29.5605436 Z M104.914205,29.5606438 C105.782649,29.5606438 106.541912,29.7359346 107.196,30.0865163 C107.848085,30.4391012 108.339903,30.9439388 108.667448,31.6020306 L107.08782,32.5235595 C106.8354,32.1188882 106.520877,31.8123796 106.142247,31.6110456 C105.763618,31.4067066 105.34993,31.3035354 104.898178,31.3035354 C104.1299,31.3035354 103.492841,31.5539509 102.990004,32.0537801 C102.485165,32.5536094 102.233746,33.2197145 102.233746,34.0520955 C102.233746,34.8874815 102.483161,35.5545883 102.982993,36.0534159 C103.479819,36.5532452 104.118882,36.8006556 104.898178,36.8006556 C105.34993,36.8006556 105.763618,36.7014911 106.142247,36.4981538 C106.520877,36.2958181 106.8354,35.9893095 107.08782,35.5846381 L108.667448,36.5051654 C108.326881,37.1642589 107.832058,37.6721014 107.178972,38.0286931 C106.526887,38.3852847 105.771631,38.5635805 104.914205,38.5635805 C104.00369,38.5635805 103.187332,38.3702597 102.46413,37.9856216 C101.737922,37.6039884 101.174985,37.0670977 100.769311,36.3809593 C100.362634,35.6968243 100.158294,34.9195347 100.158294,34.0520955 C100.158294,33.1876613 100.362634,32.4143784 100.769311,31.73425 C101.174985,31.0511166 101.735918,30.5202358 102.456116,30.1355977 C103.173309,29.7539645 103.992672,29.5606438 104.914205,29.5606438 Z M112.501325,29.6607098 L112.501325,38.4482892 L110.445906,38.4482892 L110.445906,29.6607098 L112.501325,29.6607098 Z M73.2496368,29.5603433 C74.3584812,29.5603433 75.2459573,29.8848817 75.9170736,30.529952 C76.5861865,31.1770255 76.9197413,32.1396226 76.9197413,33.4107314 L76.9197413,38.4480889 L74.8643225,38.4480889 L74.8643225,33.6741685 C74.8643225,32.9078972 74.6820193,32.327935 74.3184145,31.9382885 C73.9588164,31.5486421 73.4429584,31.3553213 72.7738454,31.3553213 C72.0155842,31.3553213 71.4175895,31.5837002 70.9788598,32.037453 C70.5391284,32.4912059 70.3207652,33.1472944 70.3207652,34.0047169 L70.3207652,38.4480889 L68.2633431,38.4480889 L68.2633431,29.6605095 L70.2216002,29.6605095 L70.2216002,30.7943907 C70.5631684,30.387716 70.9898781,30.0822091 71.5067378,29.8728618 C72.0215942,29.6655178 72.6015589,29.5603433 73.2496368,29.5603433 Z M94.5145069,29.5603433 C95.6233512,29.5603433 96.5108274,29.8848817 97.1819436,30.529952 C97.8510566,31.1770255 98.1846114,32.1396226 98.1846114,33.4107314 L98.1846114,38.4480889 L96.1291926,38.4480889 L96.1291926,33.6741685 C96.1291926,32.9078972 95.9468894,32.327935 95.5832846,31.9382885 C95.2236864,31.5486421 94.7078284,31.3553213 94.0387155,31.3553213 C93.2804543,31.3553213 92.6824596,31.5837002 92.2437299,32.037453 C91.8039984,32.4912059 91.5856352,33.1472944 91.5856352,34.0047169 L91.5856352,38.4480889 L89.5272114,38.4480889 L89.5272114,29.6605095 L91.4864703,29.6605095 L91.4864703,30.7943907 C91.8270368,30.387716 92.2547482,30.0822091 92.7706062,29.8728618 C93.2864642,29.6655178 93.8664289,29.5603433 94.5145069,29.5603433 Z M65.566257,29.6607098 L65.566257,38.4482892 L63.5078332,38.4482892 L63.5078332,29.6607098 L65.566257,29.6607098 Z M130.523501,29.5605436 L130.523501,31.5187925 C130.348209,31.4867394 130.186941,31.4707128 130.044705,31.4707128 C129.244373,31.4707128 128.618332,31.7020967 128.169586,32.1688711 C127.717834,32.6366472 127.495464,33.3077606 127.495464,34.1842147 L127.495464,38.4482892 L125.438042,38.4482892 L125.438042,29.6607098 L127.396299,29.6607098 L127.396299,30.9438386 C127.990287,30.0223097 129.03202,29.5605436 130.523501,29.5605436 Z M61.7971878,26.9272748 L61.7971878,28.7222528 L55.5257565,28.7222528 L55.5257565,32.226066 L61.0900116,32.226066 L61.0900116,34.0370706 L55.5257565,34.0370706 L55.5257565,38.4483894 L53.3871994,38.4483894 L53.3871994,26.9272748 L61.7971878,26.9272748 Z M84.837511,34.6787352 L82.7149806,34.6787352 C81.5300096,34.6787352 80.9360216,35.06738 80.9360216,35.8476746 C80.9360216,36.2212944 81.0842682,36.5167847 81.3827647,36.7361486 C81.6772545,36.9565142 82.0889393,37.0646937 82.6158157,37.0646937 C83.1316737,37.0646937 83.5914384,36.9485009 83.9911032,36.7121087 C84.390768,36.4767182 84.6732378,36.1381565 84.837511,35.6994286 L84.837511,34.6787352 Z M119.018965,31.2078767 C118.360871,31.2078767 117.804946,31.4001958 117.351191,31.7908439 C116.894432,32.1804904 116.617972,32.6983495 116.517805,33.3464248 L121.504099,33.3464248 C121.418957,32.7093678 121.149509,32.193512 120.698759,31.7988572 C120.250013,31.4032008 119.688078,31.2078767 119.018965,31.2078767 Z M64.5445576,25.7422087 C64.918179,25.7422087 65.2306988,25.8563981 65.4831187,26.0777654 C65.7355385,26.304141 65.8617485,26.5866096 65.8617485,26.9271746 C65.8617485,27.2897762 65.7375419,27.5942814 65.4901303,27.8406902 C65.2427188,28.0881007 64.9291973,28.2113051 64.5445576,28.2113051 C64.1719378,28.2113051 63.859418,28.093109 63.6079998,27.8577185 C63.3555799,27.6203246 63.22937,27.3278394 63.22937,26.9762561 C63.22937,26.6266761 63.3555799,26.3311858 63.6079998,26.0977986 C63.859418,25.8614064 64.1719378,25.7422087 64.5445576,25.7422087 Z M111.48263,25.7422087 C111.854248,25.7422087 112.16777,25.8563981 112.421191,26.0777654 C112.673611,26.304141 112.799821,26.5866096 112.799821,26.9271746 C112.799821,27.2897762 112.676616,27.5942814 112.429205,27.8406902 C112.181793,28.0881007 111.864265,28.2113051 111.48263,28.2113051 C111.109009,28.2113051 110.795487,28.093109 110.543067,27.8577185 C110.290647,27.6203246 110.164438,27.3278394 110.164438,26.9762561 C110.164438,26.6266761 110.290647,26.3311858 110.543067,26.0977986 C110.795487,25.8614064 111.109009,25.7422087 111.48263,25.7422087 Z M1.65775736,4.93819291 L1.65274903,26.8054727 L24.9835554,27.01482 C25.3461585,25.1096592 27.0169375,23.6672661 29.028283,23.6672661 C29.3948928,23.6672661 29.7434726,23.7293692 30.0820357,23.8195187 L30.0820357,23.8195187 L37.4773364,7.45236415 C36.6559702,6.85737701 36.0579756,5.97591459 35.8486274,4.94520454 L35.8486274,4.94520454 L1.65775736,4.93819291 Z M72.7232613,12.6072165 C73.5796858,12.6072165 74.3459603,12.7965306 75.0200816,13.1751588 C75.6942029,13.553787 76.2210792,14.0856694 76.599709,14.7738111 C76.9783388,15.4579461 77.1676537,16.2512623 77.1676537,17.1517563 C77.1676537,17.2929906 77.1566354,17.4943247 77.1345987,17.7577617 L70.2381277,17.7577617 C70.3593293,18.405837 70.6758558,18.9186878 71.1867055,19.297316 C71.6945502,19.6759442 72.3276032,19.8672616 73.0858644,19.8672616 C74.0504688,19.8672616 74.847795,19.5477315 75.4708313,18.9106745 L76.575669,20.1787784 C76.1810126,20.6515628 75.6811812,21.0061511 75.0771766,21.2475516 C74.4751753,21.4899538 73.792039,21.6111549 73.0367828,21.6111549 C72.070175,21.6111549 71.2207622,21.4168325 70.4855393,21.033196 C69.751318,20.6515628 69.1823717,20.1146721 68.7817053,19.4295354 C68.3810388,18.743397 68.1827089,17.9681107 68.1827089,17.1006716 C68.1827089,16.2452524 68.3760305,15.4749744 68.7656786,14.7898377 C69.1553267,14.104701 69.6952247,13.5668086 70.3853726,13.1831721 C71.0785256,12.8015389 71.8578218,12.6072165 72.7232613,12.6072165 Z M98.5629407,12.6072165 C99.8580949,12.6072165 100.846739,12.91673 101.531879,13.5377604 C102.220024,14.1577891 102.56059,15.0933412 102.56059,16.3454185 L102.56059,21.4949621 L100.618359,21.4949621 L100.618359,20.4261889 C100.36594,20.8108271 100.009346,21.1033123 99.5415684,21.3076513 C99.0767954,21.5089854 98.5118557,21.6111549 97.8537611,21.6111549 C97.1956665,21.6111549 96.6207101,21.4979671 96.1268888,21.2725932 C95.631064,21.0492226 95.2504309,20.7357024 94.9819844,20.334036 C94.7125362,19.9343729 94.5793147,19.4836251 94.5793147,18.9777859 C94.5793147,18.1884763 94.8748062,17.5544244 95.4607808,17.07563 C96.0457538,16.6008423 96.9722949,16.3604435 98.2323909,16.3604435 L100.506173,16.3604435 L100.506173,16.2302274 C100.506173,15.6142054 100.319863,15.141421 99.9522515,14.8138776 C99.5866434,14.4823275 99.038732,14.3190566 98.3155291,14.3190566 C97.8217078,14.3190566 97.3358997,14.3971862 96.8601083,14.5504405 C96.3813119,14.7036948 95.9786422,14.9180504 95.6480924,15.1925057 L94.8417512,13.693018 C95.3035192,13.3444396 95.8574406,13.0749926 96.5055185,12.8876818 C97.1525948,12.7013727 97.8377344,12.6072165 98.5629407,12.6072165 Z M87.7494545,9.28470417 L87.7494545,21.4949621 L85.774169,21.4949621 L85.774169,20.3590776 C85.4356058,20.7787739 85.0139044,21.089289 84.517078,21.2966331 C84.0172467,21.5059804 83.4663303,21.6111549 82.8623257,21.6111549 C82.0159178,21.6111549 81.2586583,21.4228424 80.5835353,21.0522276 C79.9074107,20.6786077 79.3775294,20.1497302 78.9938913,19.4615885 C78.6092515,18.7764518 78.4179333,17.9891456 78.4179333,17.1006716 C78.4179333,16.2131992 78.6092515,15.4288979 78.9938913,14.7467662 C79.3775294,14.0666378 79.9074107,13.5397637 80.5835353,13.1671455 C81.2586583,12.7965306 82.0159178,12.6072165 82.8623257,12.6072165 C83.4422903,12.6072165 83.974175,12.7073827 84.4589814,12.9027068 C84.9417845,13.1030391 85.3524676,13.3985294 85.6940357,13.7931841 L85.6940357,9.28470417 L87.7494545,9.28470417 Z M55.1467261,9.97535001 L59.7223367,17.6100166 L64.2138074,9.97535001 L65.9767397,9.97535001 L65.9937681,21.4954629 L63.9704026,21.4954629 L63.9503692,13.8597947 L60.1650731,20.1792793 L59.211487,20.1792793 L55.4271926,13.9569559 L55.4271926,21.4954629 L53.3878004,21.4954629 L53.3878004,9.97535001 L55.1467261,9.97535001 Z M92.5070679,12.707583 L92.5070679,21.4951624 L90.4486441,21.4951624 L90.4486441,12.707583 L92.5070679,12.707583 Z M100.506173,17.7257086 L98.3806374,17.7257086 C97.1956665,17.7257086 96.6046835,18.115355 96.6046835,18.8946479 C96.6046835,19.2682678 96.7529301,19.5637581 97.0484215,19.783122 C97.3429114,20.0044893 97.7576011,20.1116671 98.2834758,20.1116671 C98.8003355,20.1116671 99.2570953,19.9954743 99.65676,19.7600838 C100.056425,19.5236916 100.338895,19.1851299 100.506173,18.746402 L100.506173,17.7257086 Z M83.1097372,14.3521115 C82.6159158,14.3521115 82.1711761,14.4642976 81.7775213,14.6906732 C81.3818632,14.9160471 81.0683417,15.2345755 80.8389602,15.6522685 C80.608577,16.0709632 80.4933854,16.5517609 80.4933854,17.1006716 C80.4933854,17.6515856 80.608577,18.1313816 80.8389602,18.5480729 C81.0683417,18.9667676 81.3818632,19.2862977 81.7775213,19.5126733 C82.1711761,19.7390489 82.6159158,19.84823 83.1097372,19.84823 C83.6035586,19.84823 84.046295,19.7390489 84.4419531,19.5126733 C84.8376112,19.2862977 85.1511327,18.9667676 85.3805142,18.5480729 C85.6108974,18.1313816 85.726089,17.6515856 85.726089,17.1006716 C85.726089,16.5517609 85.6108974,16.0709632 85.3805142,15.6522685 C85.1511327,15.2345755 84.8376112,14.9160471 84.4419531,14.6906732 C84.046295,14.4642976 83.6035586,14.3521115 83.1097372,14.3521115 Z M72.7232613,14.2549503 C72.0651667,14.2549503 71.5082403,14.448271 71.0544856,14.8379175 C70.5977259,15.2275639 70.321266,15.7454231 70.2221011,16.3934983 L75.2073932,16.3934983 C75.1222515,15.7564414 74.853805,15.2405855 74.4020536,14.8459307 C73.9543089,14.4502743 73.3923742,14.2549503 72.7232613,14.2549503 Z M91.4873718,8.79108521 C91.8599916,8.79108521 92.1715097,8.90327134 92.4239296,9.12664193 C92.6763494,9.35201584 92.8025594,9.63348282 92.8025594,9.97504951 C92.8025594,10.3386528 92.6793544,10.6411546 92.4319429,10.8885651 C92.1855331,11.1349739 91.8700082,11.2601817 91.4873718,11.2601817 C91.1137504,11.2601817 90.8012305,11.1409839 90.5488107,10.9045917 C90.2963908,10.6681995 90.1701809,10.3757143 90.1701809,10.0231293 C90.1701809,9.6735493 90.2963908,9.37906071 90.5488107,9.14467184 C90.8012305,8.90827965 91.1137504,8.79108521 91.4873718,8.79108521 Z" id="Combined-Shape"></path>
        </g>
    </g>
</svg>
