<svg xmlns="http://www.w3.org/2000/svg" width="24" height="24" viewBox="0 0 24 24">
  <path fill="#B7BCD9" fill-rule="evenodd" d="M12.864494,11.3207547 L12.051458,11.3207547 L11.7632933,11.0428816 C12.7718696,9.86963979 13.3790738,8.3464837 13.3790738,6.68953688 C13.3790738,2.9948542 10.3842196,-1.08357767e-13 6.68953688,-1.08357767e-13 C2.9948542,-1.08357767e-13 -1.08357767e-13,2.9948542 -1.08357767e-13,6.68953688 C-1.08357767e-13,10.3842196 2.9948542,13.3790738 6.68953688,13.3790738 C8.3464837,13.3790738 9.86963979,12.7718696 11.0428816,11.7632933 L11.3207547,12.051458 L11.3207547,12.864494 L16.4665523,18 L18,16.4665523 L12.864494,11.3207547 Z M6.68953688,11.3207547 C4.12692967,11.3207547 2.05831904,9.25214408 2.05831904,6.68953688 C2.05831904,4.12692967 4.12692967,2.05831904 6.68953688,2.05831904 C9.25214408,2.05831904 11.3207547,4.12692967 11.3207547,6.68953688 C11.3207547,9.25214408 9.25214408,11.3207547 6.68953688,11.3207547 Z" transform="translate(3 3)"/>
</svg>
