<svg width="19" height="20" viewBox="0 0 19 20" fill="none" xmlns="http://www.w3.org/2000/svg">
<path fill-rule="evenodd" clip-rule="evenodd" d="M6.25974 0.550537L9.00738 2.47565L4.1835 9.29548C2.79709 11.2555 3.26212 13.9684 5.22217 15.3548C7.18222 16.7412 9.89506 16.2761 11.2815 14.3161L16.1278 7.46454L18.7625 9.31052L14.1026 15.8985C11.6682 19.3401 6.90473 20.1567 3.46308 17.7223C0.0214297 15.2879 -0.795118 10.5244 1.63927 7.08279L6.25974 0.550537ZM16.544 8.26859C16.5056 8.24149 16.4526 8.25058 16.4255 8.2889L15.4924 9.60806C15.4653 9.64638 15.4744 9.69943 15.5127 9.72653L16.8702 10.6867C16.9085 10.7138 16.9615 10.7047 16.9886 10.6664L17.9217 9.34723C17.9488 9.3089 17.9397 9.25586 17.9014 9.22875L16.544 8.26859ZM6.41825 1.30056C6.44535 1.26224 6.4984 1.25314 6.53672 1.28025L7.98041 2.30142C8.01874 2.32853 8.02783 2.38157 8.00072 2.4199L7.10303 3.68902C7.07592 3.72735 7.02288 3.73644 6.98456 3.70933L5.54086 2.68816C5.50254 2.66105 5.49345 2.60801 5.52056 2.56968L6.41825 1.30056ZM7.24136 10.4517L7.74437 10.6897C7.74437 10.6897 9.5384 9.38448 13.1292 6.7816C13.3492 6.59228 13.2828 6.44223 13.0816 6.34705L11.316 5.51184L13.4485 2.15044L12.9455 1.91249L12.7268 2.07171C10.4764 3.71034 8.78181 4.9442 7.63891 5.78266C7.63838 5.78299 7.63745 5.78355 7.63614 5.78433C7.59498 5.80894 7.18422 6.05453 7.61327 6.25749L9.37382 7.09033L7.24136 10.4517Z" fill="white"/>
</svg>
