<svg xmlns="http://www.w3.org/2000/svg" width="24" height="24" viewBox="0 0 24 24">
  <g fill="#B7BCD9" fill-rule="evenodd" transform="translate(5 2)">
    <path d="M7,0 C10.87,0 14,3.13 14,7 C14,12.25 7,20 7,20 C7,20 0,12.25 0,7 C0,3.13 3.13,0 7,0" opacity=".3"/>
    <path d="M7,4.5 C8.38,4.5 9.5,5.62 9.5,7 C9.5,8.38 8.38,9.5 7,9.5 C5.62,9.5 4.5,8.38 4.5,7 C4.5,5.62 5.62,4.5 7,4.5 M7,0 C10.87,0 14,3.13 14,7 C14,12.25 7,20 7,20 C7,20 0,12.25 0,7 C0,3.13 3.13,0 7,0 M7,2 C4.24,2 2,4.24 2,7 C2,8 2,10 7,16.71 C12,10 12,8 12,7 C12,4.24 9.76,2 7,2"/>
  </g>
</svg>
