<svg xmlns="http://www.w3.org/2000/svg" width="24" height="24" viewBox="0 0 24 24">
  <g fill="#B7BCD9" fill-rule="evenodd" transform="translate(2 3)">
    <path d="M13.5514019,13.9911635 C12.2429907,13.9911635 11.2149533,12.9651448 11.2149533,11.6593029 C11.2149533,10.353461 12.2429907,9.32744232 13.5514019,9.32744232 C14.8598131,9.32744232 15.8878505,10.353461 15.8878505,11.6593029 C15.8878505,12.9651448 14.8598131,13.9911635 13.5514019,13.9911635 Z" opacity=".3"/>
    <path d="M8.41121495,14.9239077 L1.86915888,14.9239077 C0.841121495,14.9239077 0,14.0844379 0,13.0584192 L0,1.86548846 C0,0.839469809 0.841121495,0 1.86915888,0 L2.80373832,0 L4.6728972,3.73097693 L7.47663551,3.73097693 L5.60747664,0 L7.47663551,0 L9.34579439,3.73097693 L12.1495327,3.73097693 L10.2803738,0 L12.1495327,0 L14.0186916,3.73097693 L16.8224299,3.73097693 L14.953271,0 L18.6915888,0 L18.6915888,8.39469809 C18.2242991,7.6485027 17.5700935,6.99558174 16.8224299,6.52920962 L16.8224299,5.59646539 L3.55140187,5.59646539 L1.86915888,2.33186058 L1.86915888,13.0584192 L7.6635514,13.0584192 C7.85046729,13.7113402 8.03738318,14.3642612 8.41121495,14.9239077 M17.1028037,13.8978891 C17.4766355,13.2449681 17.7570093,12.4987727 17.7570093,11.6593029 C17.7570093,9.32744232 15.8878505,7.46195385 13.5514019,7.46195385 C11.2149533,7.46195385 9.34579439,9.32744232 9.34579439,11.6593029 C9.34579439,13.9911635 11.2149533,15.8566519 13.5514019,15.8566519 C14.3925234,15.8566519 15.1401869,15.6701031 15.7943925,15.203731 L18.6915888,18.0952381 L20,16.7893962 L17.1028037,13.8978891 M13.5514019,13.9911635 C12.2429907,13.9911635 11.2149533,12.9651448 11.2149533,11.6593029 C11.2149533,10.353461 12.2429907,9.32744232 13.5514019,9.32744232 C14.8598131,9.32744232 15.8878505,10.353461 15.8878505,11.6593029 C15.8878505,12.9651448 14.8598131,13.9911635 13.5514019,13.9911635 Z"/>
  </g>
</svg>
