<svg xmlns="http://www.w3.org/2000/svg" width="24" height="24" viewBox="0 0 24 24">
  <g fill="#606F87" fill-rule="evenodd" transform="translate(3 5)">
    <path d="M6.3,0 C2.82060608,0 0,2.91014913 0,6.5 C0,10.0898509 2.82060608,13 6.3,13 C7.236,13 8.154,12.7771429 9,12.3685714 C9.846,12.7771429 10.764,13 11.7,13 C15.1793939,13 18,10.0898509 18,6.5 C18,2.91014913 15.1793939,0 11.7,0 C10.764,0 9.846,0.222857143 9,0.631428571 C8.154,0.222857143 7.236,0 6.3,0" opacity=".3"/>
    <path d="M6.3,0 C2.82060608,0 0,2.91014913 0,6.5 C0,10.0898509 2.82060608,13 6.3,13 C7.236,13 8.154,12.7771429 9,12.3685714 C9.846,12.7771429 10.764,13 11.7,13 C15.1793939,13 18,10.0898509 18,6.5 C18,2.91014913 15.1793939,0 11.7,0 C10.764,0 9.846,0.222857143 9,0.631428571 C8.154,0.222857143 7.236,0 6.3,0 M6.3,1.85714286 C6.606,1.85714286 6.903,1.885 7.2,1.95 C6.048,3.16642857 5.4,4.80071429 5.4,6.5 C5.4,8.19928571 6.048,9.83357143 7.2,11.0407143 C6.903,11.1057143 6.606,11.1428571 6.3,11.1428571 C3.81471863,11.1428571 1.8,9.0641792 1.8,6.5 C1.8,3.9358208 3.81471863,1.85714286 6.3,1.85714286 M11.7,1.85714286 C14.1852814,1.85714286 16.2,3.9358208 16.2,6.5 C16.2,9.0641792 14.1852814,11.1428571 11.7,11.1428571 C11.394,11.1428571 11.097,11.115 10.8,11.05 C11.952,9.83357143 12.6,8.19928571 12.6,6.5 C12.6,4.80071429 11.952,3.16642857 10.8,1.95928571 C11.097,1.89428571 11.394,1.85714286 11.7,1.85714286 Z"/>
  </g>
</svg>
