<svg xmlns="http://www.w3.org/2000/svg" width="24" height="24" viewBox="0 0 24 24">
  <path fill="#B7BCD9" fill-rule="evenodd" d="M15.4609222,12.5511285 C15.3420865,12.5284245 15.2312622,12.5181855 15.120883,12.5181855 L15.1199929,12.5181855 C14.2000178,12.5181855 13.3984333,13.1329742 13.1487449,14.0041847 L3.17945523,13.9151494 L3.18123553,4.63989672 L17.9778351,4.64301295 C18.0891045,5.01250946 18.304522,5.34416596 18.6009436,5.60058763 L15.4609222,12.5511285 Z M13.7616165,16.1089792 C14.137707,16.4437519 14.6143849,16.6271647 15.120438,16.6271647 L15.1213281,16.6271647 C15.6696635,16.6271647 16.1850632,16.4134799 16.5727257,16.0257312 C16.9608332,15.6379825 17.1744704,15.1220229 17.1749154,14.5726751 C17.1749154,14.002404 16.9372441,13.4659663 16.5166459,13.0764368 L19.35624,6.79009927 L19.3540146,20.8216178 L4.94062667,20.8198371 L13.7616165,16.1089792 Z M3.17811999,20.4258559 L3.17945523,15.0935316 L12.9974186,15.1812314 L3.17811999,20.4258559 Z M21.3987004,2.60143347 C21.0105928,2.21368473 20.4951932,2 19.9464127,2 L19.9455225,2 C19.034449,2 18.2346448,2.60588523 17.9778351,3.4650759 L2.00445077,3.46151449 L2,21.9973289 L20.5312444,22 L20.53436,6.02306014 C21.3938045,5.76663847 22,4.96576593 22,4.05448961 C22,3.50603214 21.7863628,2.98918221 21.3987004,2.60143347 L21.3987004,2.60143347 Z"/>
</svg>
