<svg xmlns="http://www.w3.org/2000/svg" width="24" height="24" viewBox="0 0 24 24">
  <g fill="#B7BCD9" fill-rule="evenodd" transform="translate(2 2)">
    <path d="M19.3987004,0.601433468 C19.0105928,0.213684726 18.4951932,0 17.9464127,0 L17.9455225,0 C17.034449,0 16.2346448,0.605885233 15.9778351,1.4650759 L0.00445077443,1.46151449 L-5.32907052e-15,19.9973289 L18.5312444,20 L18.53436,4.02306014 C19.3938045,3.76663847 20,2.96576593 20,2.05448961 C20,1.50603214 19.7863628,0.989182211 19.3987004,0.601433468 L19.3987004,0.601433468 Z" opacity=".3"/>
    <path d="M13.4609222,10.5511285 C13.3420865,10.5284245 13.2312622,10.5181855 13.120883,10.5181855 L13.1199929,10.5181855 C12.2000178,10.5181855 11.3984333,11.1329742 11.1487449,12.0041847 L1.17945523,11.9151494 L1.18123553,2.63989672 L15.9778351,2.64301295 C16.0891045,3.01250946 16.304522,3.34416596 16.6009436,3.60058763 L13.4609222,10.5511285 Z M11.7616165,14.1089792 C12.137707,14.4437519 12.6143849,14.6271647 13.120438,14.6271647 L13.1213281,14.6271647 C13.6696635,14.6271647 14.1850632,14.4134799 14.5727257,14.0257312 C14.9608332,13.6379825 15.1744704,13.1220229 15.1749154,12.5726751 C15.1749154,12.002404 14.9372441,11.4659663 14.5166459,11.0764368 L17.35624,4.79009927 L17.3540146,18.8216178 L2.94062667,18.8198371 L11.7616165,14.1089792 Z M1.17811999,18.4258559 L1.17945523,13.0935316 L10.9974186,13.1812314 L1.17811999,18.4258559 Z M19.3987004,0.601433468 C19.0105928,0.213684726 18.4951932,0 17.9464127,0 L17.9455225,0 C17.034449,0 16.2346448,0.605885233 15.9778351,1.4650759 L0.00445077443,1.46151449 L0,19.9973289 L18.5312444,20 L18.53436,4.02306014 C19.3938045,3.76663847 20,2.96576593 20,2.05448961 C20,1.50603214 19.7863628,0.989182211 19.3987004,0.601433468 L19.3987004,0.601433468 Z"/>
  </g>
</svg>
