<svg width="24" height="24" viewBox="0 0 24 24" fill="none" xmlns="http://www.w3.org/2000/svg">
<path fill-rule="evenodd" clip-rule="evenodd" d="M20.9415 16.5191L15.353 13.6938L21.8832 10.3608C21.9718 10.8951 22.0293 11.4413 22.0293 11.9993C22.0293 13.6259 21.6308 15.1596 20.9415 16.5191ZM11.9993 22.0293C9.21387 22.0293 6.69122 20.8854 4.87267 19.0461L14.3832 14.1898L20.5075 17.2866C18.7347 20.1281 15.5891 22.0293 11.9993 22.0293ZM6.23806 17.359L4.25861 18.3701C3.77593 17.7841 3.36705 17.1376 3.02607 16.4512L6.23806 17.359ZM3.26963 7.07943C3.52499 7.18276 3.80102 7.24181 4.09181 7.24181C5.30812 7.24181 6.29267 6.25725 6.29267 5.04242C6.29267 4.65273 6.18344 4.29404 6.00631 3.97668C7.68168 2.722 9.75117 1.97067 11.9993 1.97067C16.6549 1.97067 20.568 5.16346 21.6928 9.46924L7.39089 16.7715L2.58029 15.4105C2.19355 14.3433 1.97066 13.1993 1.97066 11.9993C1.97066 10.2117 2.44596 8.53487 3.26963 7.07943ZM11.9993 1.09091C9.5327 1.09091 7.26247 1.92195 5.43358 3.30801C5.06161 3.01869 4.59959 2.84009 4.09181 2.84009C2.87698 2.84009 1.89095 3.82612 1.89095 5.04242C1.89095 5.6491 2.13746 6.19821 2.53601 6.59528C1.62083 8.19094 1.09091 10.0331 1.09091 11.9993C1.09091 18.0158 5.98417 22.9091 11.9993 22.9091C18.0158 22.9091 22.9091 18.0158 22.9091 11.9993C22.9091 5.98417 18.0158 1.09091 11.9993 1.09091Z" fill="#3C64F7"/>
</svg>
