<svg width="48" height="48" viewBox="0 0 48 48" fill="none" xmlns="http://www.w3.org/2000/svg">
<path fill-rule="evenodd" clip-rule="evenodd" d="M35.5996 14.111L45.5766 23.9712L35.7186 33.946L35.5996 23.094V14.111ZM33.9549 23.103L34.0918 35.5919L30.1238 39.607L30.003 20.5333L28.4193 20.5433L28.5501 41.1994L24.6174 45.1786L24.5555 33.7927L22.9717 33.8013L23.0304 44.5898L2.32588 24.1276L10.2216 16.1384C10.7738 16.4476 11.4116 16.624 12.091 16.624C14.1934 16.624 15.8978 14.9344 15.8978 12.8501C15.8978 12.149 15.7049 11.4926 15.369 10.9301L23.8725 2.32588L33.9549 12.2903V12.4855V23.103ZM14.2389 9.73381L22.7027 1.16978L23.8588 0L25.0286 1.15609L46.8303 22.7027L48.0001 23.8588L47.9025 23.9576L47.9902 24.0442L46.8341 25.214L35.7458 36.4335L34.1191 38.0795L34.1172 37.906L25.2974 46.8303L24.1413 48.0001L22.9715 46.844L1.16978 25.2974L0 24.1413L1.15609 22.9715L8.99223 15.0426C8.54655 14.4246 8.28428 13.6677 8.28428 12.8501C8.28428 10.7658 9.98862 9.07615 12.091 9.07615C12.8879 9.07615 13.6275 9.31888 14.2389 9.73381Z" fill="#3C64F7"/>
</svg>
