<svg xmlns="http://www.w3.org/2000/svg" width="24" height="24" viewBox="0 0 24 24">
  <g fill="#B7BCD9" fill-rule="evenodd" transform="translate(2 2)">
    <path d="M10,0 C4.48,0 0,4.48 0,10 C0,15.52 4.48,20 10,20 C15.52,20 20,15.52 20,10 C20,4.48 15.52,0 10,0 Z" opacity=".3"/>
    <path d="M10,0 C4.48,0 0,4.48 0,10 C0,15.52 4.48,20 10,20 C15.52,20 20,15.52 20,10 C20,4.48 15.52,0 10,0 Z M10,18 C5.59,18 2,14.41 2,10 C2,5.59 5.59,2 10,2 C14.41,2 18,5.59 18,10 C18,14.41 14.41,18 10,18 Z M10.31,9.14 C8.54,8.69 7.97,8.2 7.97,7.47 C7.97,6.63 8.76,6.04 10.07,6.04 C11.45,6.04 11.97,6.7 12.01,7.68 L13.72,7.68 C13.67,6.34 12.85,5.11 11.23,4.71 L11.23,3 L8.9,3 L8.9,4.69 C7.39,5.01 6.18,5.99 6.18,7.5 C6.18,9.29 7.67,10.19 9.84,10.71 C11.79,11.17 12.18,11.86 12.18,12.58 C12.18,13.11 11.79,13.97 10.08,13.97 C8.48,13.97 7.85,13.25 7.76,12.33 L6.04,12.33 C6.14,14.03 7.4,14.99 8.9,15.3 L8.9,17 L11.24,17 L11.24,15.33 C12.76,15.04 13.96,14.17 13.97,12.56 C13.96,10.36 12.07,9.6 10.31,9.14 L10.31,9.14 Z"/>
  </g>
</svg>
