<svg xmlns="http://www.w3.org/2000/svg" width="24" height="24" viewBox="0 0 24 24">
  <g fill="#B7BCD9" fill-rule="evenodd" transform="translate(4 2)">
    <path d="M7.63157895,8.34210526 L13.2280702,13.0526316 L12.4561404,13.2105263 L11.8947368,13.3157895 C11.3421053,13.4298246 11.0263158,14.0438596 11.2719298,14.5438596 L11.5087719,15.0526316 L12.7017544,17.6315789 L11.4561404,18.2105263 L10.2631579,15.6403509 L10.0350877,15.1315789 C9.79824561,14.6140351 9.14035088,14.4561404 8.70175439,14.8157895 L8.25438596,15.1666667 L7.63157895,15.6666667 L7.63157895,8.34210526" opacity=".3"/>
    <path d="M7.63157895,8.34210526 L13.2280702,13.0526316 L12.4561404,13.2105263 L11.8947368,13.3157895 C11.3421053,13.4298246 11.0263158,14.0438596 11.2719298,14.5438596 L11.5087719,15.0526316 L12.7017544,17.6315789 L11.4561404,18.2105263 L10.2631579,15.6403509 L10.0350877,15.1315789 C9.79824561,14.6140351 9.14035088,14.4561404 8.70175439,14.8157895 L8.25438596,15.1666667 L7.63157895,15.6666667 L7.63157895,8.34210526 M6.98245614,6.31578947 C6.61426631,6.31578947 6.31578947,6.61426631 6.31578947,6.98245614 L6.31578947,17.0263158 C6.31578947,17.3947368 6.61403509,17.6929825 6.98245614,17.6929825 C7.14912281,17.6929825 7.28947368,17.6403509 7.40350877,17.5526316 L9.07894737,16.1929825 L10.5350877,19.3684211 C10.6491228,19.6052632 10.8859649,19.745614 11.1403509,19.745614 C11.2368421,19.745614 11.3333333,19.745614 11.4298246,19.6754386 L13.8508772,18.5526316 C14.1842105,18.3947368 14.3421053,17.9912281 14.1666667,17.6666667 L12.7017544,14.4824561 L14.8157895,14.0877193 C14.9561404,14.0438596 15.0877193,13.9824561 15.1929825,13.8596491 C15.4298246,13.5789474 15.3947368,13.1666667 15.0877193,12.9122807 L7.42105263,6.46491228 L7.4122807,6.47368421 C7.29824561,6.37719298 7.14912281,6.31578947 6.98245614,6.31578947 M11.4035088,8.77192982 L11.4035088,7.01754386 L15.7894737,7.01754386 L15.7894737,8.77192982 L11.4035088,8.77192982 M10.377193,4.1754386 L12.8596491,1.69298246 L14.0964912,2.92982456 L11.6140351,5.4122807 L10.377193,4.1754386 M7.01754386,1.77635684e-15 L8.77192982,1.77635684e-15 L8.77192982,4.38596491 L7.01754386,4.38596491 L7.01754386,1.77635684e-15 M1.69298246,12.8596491 L4.1754386,10.377193 L5.4122807,11.6140351 L2.92982456,14.0964912 L1.69298246,12.8596491 M1.69298246,2.92982456 L2.92982456,1.69298246 L5.4122807,4.1754386 L4.1754386,5.4122807 L1.69298246,2.92982456 M4.38596491,8.77192982 L-2.84217094e-13,8.77192982 L-2.84217094e-13,7.01754386 L4.38596491,7.01754386 L4.38596491,8.77192982"/>
  </g>
</svg>
