<svg width="21" height="20" viewBox="0 0 21 20" fill="none" xmlns="http://www.w3.org/2000/svg">
<path d="M19.8399 0.180054L15.9099 0.960054L18.6499 4.50005L20.6199 4.10005L19.8399 0.180054ZM12.9699 1.54005L10.9999 1.93005L13.7499 5.46005L15.7099 5.07005L12.9699 1.54005ZM8.06993 2.50005L6.09993 2.91005L8.84993 6.44005L10.8099 6.05005L8.06993 2.50005ZM3.15993 3.50005L2.17993 3.69005C1.66032 3.79387 1.20314 4.09965 0.908774 4.54026C0.614413 4.98086 0.506933 5.52027 0.609933 6.04005L0.999933 8.00005L5.89993 7.03005L3.15993 3.50005ZM0.999933 8.00005V18.0001C0.999933 19.1101 1.89993 20.0001 2.99993 20.0001H18.9999C20.1099 20.0001 20.9999 19.1101 20.9999 18.0001V8.00005H0.999933Z" fill="#32305B"/>
</svg>
