<svg width="18" height="19" viewBox="0 0 18 19" xmlns="http://www.w3.org/2000/svg">
    <g fill="none" fill-rule="evenodd">
        <path d="M15 1.914c.825 0 1.5.675 1.5 1.5v9c0 .825-.675 1.5-1.5 1.5H4.5l-3 3 .008-13.5c0-.825.667-1.5 1.492-1.5zm0 1.5H3v9.877l.877-.877H15v-9z" fill="#3C64F7"/>
        <path d="M8.25 11.771h1.5v-.75h.75c.412 0 .75-.337.75-.75v-2.25a.752.752 0 0 0-.75-.75H8.25v-.75h3v-1.5h-1.5v-.75h-1.5v.75H7.5a.752.752 0 0 0-.75.75v2.25c0 .413.338.75.75.75h2.25v.75h-3v1.5h1.5v.75z" fill="#3C64F7"/>
    </g>
</svg>
