<svg xmlns="http://www.w3.org/2000/svg" width="24" height="24" viewBox="0 0 24 24">
  <path fill="#B7BCD9" fill-rule="evenodd" d="M4.2865439,15 L4.2865439,11.3571429 L7.09281779,15 L8.16225741,15 L8.16225741,9 L6.87571351,9 L6.87571351,12.6428571 L4.07748052,9 L3,9 L3,15 L4.2865439,15 Z M14.279595,15 L14.279595,13.8685714 L11.079317,13.8685714 L14.1589815,9.9 L14.1589815,9 L9.42289175,9 L9.42289175,10.1314286 L12.4462699,10.1314286 L9.35856455,14.1 L9.35856455,15 L14.279595,15 Z M17.8962128,15 C19.7375788,15 21,13.8171429 21,12 C21,10.1828571 19.7375788,9 17.8962128,9 L15.3392068,9 L15.3392068,15 L17.8962128,15 Z M17.8318856,13.86 L16.6418325,13.86 L16.6418325,10.14 L17.8318856,10.14 C18.9495707,10.14 19.6812925,10.8514286 19.6812925,12 C19.6812925,13.1485714 18.9495707,13.86 17.8318856,13.86 Z"/>
</svg>
