<?xml version="1.0" encoding="UTF-8"?>
<svg width="14px" height="14px" viewBox="0 0 14 14" version="1.1" xmlns="http://www.w3.org/2000/svg" xmlns:xlink="http://www.w3.org/1999/xlink">
    <g id="Icons" stroke="none" stroke-width="1" fill="none" fill-rule="evenodd">
        <g id="Icons/18px/pause" transform="translate(-2.000000, -2.000000)" fill="#606F87">
            <g id="Group" transform="translate(2.000000, 2.000000)">
                <path d="M7,1.4 C3.913,1.4 1.4,3.913 1.4,7 C1.4,10.087 3.913,12.6 7,12.6 C10.087,12.6 12.6,10.087 12.6,7 C12.6,3.913 10.087,1.4 7,1.4 Z" id="Shape" opacity="0.3"></path>
                <path d="M4,4 L6,4 L6,10 L4,10 L4,4 Z M8,4 L10,4 L10,10 L8,10 L8,4 Z M7,0 C3.129,0 0,3.129 0,7 C0,10.871 3.129,14 7,14 C10.871,14 14,10.871 14,7 C14,3.129 10.871,0 7,0 Z M7,12.6 C3.913,12.6 1.4,10.087 1.4,7 C1.4,3.913 3.913,1.4 7,1.4 C10.087,1.4 12.6,3.913 12.6,7 C12.6,10.087 10.087,12.6 7,12.6 Z" id="Shape"></path>
            </g>
        </g>
    </g>
</svg>
