<svg xmlns="http://www.w3.org/2000/svg" width="24" height="24" viewBox="0 0 24 24">
  <path fill="#B7BCD9" fill-rule="evenodd" d="M2.62336616,2.53771873 L4.41475691,2.57194913 L4.45967426,5.25260701 L7.14033214,5.29752436 L7.17456253,7.08891511 L4.49366359,7.03138233 L4.55119637,9.71228127 L2.75980563,9.67805087 L2.71488827,6.99739299 L0.0342303965,6.95247564 L1.1235457e-13,5.16108489 L2.68089894,5.21861767 L2.62336616,2.53771873 M12.6781904,0 C14.6864985,0 16.314554,1.56700338 16.314554,3.5 C16.314554,5.43299662 14.6864985,7 12.6781904,7 C10.6698822,7 9.04182672,5.43299662 9.04182672,3.5 C9.04182672,1.56700338 10.6698822,0 12.6781904,0 M12.6781904,1.6625 C11.6238286,1.6625 10.7690994,2.48517677 10.7690994,3.5 C10.7690994,4.51482323 11.6238286,5.3375 12.6781904,5.3375 C13.7327358,5.3375 14.5872813,4.515 14.5872813,3.5 C14.5872813,2.485 13.7327358,1.6625 12.6781904,1.6625 M12.6781904,7.875 C15.1054631,7.875 19.9509176,9.03875 19.9509176,11.375 L19.9509176,14 L5.40546308,14 L5.40546308,11.375 C5.40546308,9.03875 10.2509176,7.875 12.6781904,7.875 M12.6781904,9.5375 C9.95091763,9.5375 7.13273581,10.815 7.13273581,11.375 L7.13273581,12.3375 L18.2236449,12.3375 L18.2236449,11.375 C18.2236449,10.815 15.3781904,9.5375 12.6781904,9.5375 Z" transform="translate(2.05 5)"/>
</svg>
