<svg xmlns="http://www.w3.org/2000/svg" width="18" height="18" viewBox="0 0 18 18">
    <g fill="none" fill-rule="evenodd">
        <g fill="#454E5D">
            <g>
                <path d="M0 3.429L2.869 3.429 2.869 0 6.131 0 6.131 3.429 9 3.429 4.5 8z" transform="translate(8.000000, 8.000000)"/>
            </g>
            <g>
                <path d="M5.888 10.211h-4.58C.588 10.211 0 9.637 0 8.935V1.276C0 .574.589 0 1.308 0h.655L3.27 2.553h1.963L3.925 0h1.309l1.308 2.553h1.963L7.196 0h1.309l1.308 2.553h1.963L10.467 0h2.617v5.744c-.327-.51-.785-.958-1.308-1.277V3.83h-9.29L1.308 1.595v7.34h4.056c.131.446.262.893.524 1.276" transform="translate(2.000000, 3.000000)"/>
            </g>
        </g>
    </g>
</svg>
