<svg xmlns="http://www.w3.org/2000/svg" width="24" height="24" viewBox="0 0 24 24">
  <path fill="#B7BCD9" fill-rule="evenodd" d="M12,19.2 C8.0235498,19.2 4.8,15.9764502 4.8,12 C4.8,8.0235498 8.0235498,4.8 12,4.8 C13.9095587,4.8 15.7409069,5.55856925 17.0911688,6.90883118 C18.4414307,8.2590931 19.2,10.0904413 19.2,12 C19.2,15.9764502 15.9764502,19.2 12,19.2 L12,19.2 Z M12,3 C7.02943725,3 3,7.02943725 3,12 C3,14.3869484 3.94821156,16.6761336 5.63603897,18.363961 C7.32386638,20.0517884 9.61305159,21 12,21 C14.3869484,21 16.6761336,20.0517884 18.363961,18.363961 C20.0517884,16.6761336 21,14.3869484 21,12 C21,9.61305159 20.0517884,7.32386638 18.363961,5.63603897 C16.6761336,3.94821156 14.3869484,3 12,3 L12,3 Z M12,7.5 C9.51471863,7.5 7.5,9.51471863 7.5,12 C7.5,14.4852814 9.51471863,16.5 12,16.5 C14.4852814,16.5 16.5,14.4852814 16.5,12 C16.5,9.51471863 14.4852814,7.5 12,7.5 L12,7.5 Z"/>
</svg>
