<svg xmlns="http://www.w3.org/2000/svg" width="24" height="24" viewBox="0 0 24 24">
  <g fill="#B7BCD9" fill-rule="evenodd" transform="translate(2 1)">
    <polygon points="10 14.36 2 9.34 2 17 18 17 17.99 9.37" opacity=".3"/>
    <path d="M19.99,7 C19.99,6.28 19.62,5.65 19.05,5.3 L10,0 L0.95,5.3 C0.38,5.65 0,6.28 0,7 L0,17 C0,18.1 0.9,19 2,19 L18,19 C19.1,19 20,18.1 20,17 L19.99,7 Z M10,2.32 L17.99,7 L17.99,7.01 L10,12 L2,7 L10,2.32 Z M2,17 L2,9.34 L10,14.36 L17.99,9.37 L18,17 L2,17 Z"/>
  </g>
</svg>
