<svg xmlns="http://www.w3.org/2000/svg" width="18" height="18" viewBox="0 0 18 18">
    <g fill="none" fill-rule="evenodd">
        <g>
            <g>
                <g>
                    <g>
                        <g>
                            <path fill="#1A49F5" d="M7.5 0C3.36 0 0 3.36 0 7.5 0 11.64 3.36 15 7.5 15c4.14 0 7.5-3.36 7.5-7.5C15 3.36 11.64 0 7.5 0zm-6 7.5c0-3.315 2.685-6 6-6 1.387 0 2.662.472 3.675 1.268l-8.408 8.407C1.974 10.162 1.5 8.887 1.5 7.5zm6 6c-1.388 0-2.662-.473-3.675-1.268l8.407-8.407C13.028 4.838 13.5 6.112 13.5 7.5c0 3.315-2.685 6-6 6z" transform="translate(-474.000000, -286.000000) translate(279.000000, 144.000000) translate(167.000000, 124.000000) translate(28.000000, 18.000000) translate(1.500000, 1.500000)"/>
                        </g>
                    </g>
                </g>
            </g>
        </g>
    </g>
</svg>
