<svg xmlns="http://www.w3.org/2000/svg" width="24" height="24" viewBox="0 0 24 24">
    <g fill="none" fill-rule="evenodd">
        <g>
            <g fill="#454E5D" fill-rule="nonzero">
                <path d="M2 4l8 5 8-5v3h2V2c0-1.1-.9-2-2-2H2C.9 0 .01.9.01 2L0 14c0 1.1.9 2 2 2h10v-2H2V4zm20 4v3.56h-3.39l1.37-1.41c-1.365-1.35-3.575-1.4-4.94-.05-1.366 1.355-1.366 3.54 0 4.9 1.365 1.35 3.575 1.35 4.94 0 .68-.675 1.02-1.46 1.02-2.45h1c0 .99-.44 2.275-1.32 3.145-1.755 1.74-4.605 1.74-6.36 0-1.75-1.735-1.766-4.555-.01-6.29 1.755-1.735 4.57-1.735 6.325 0L22 8zm-4-6l-8 5-8-5h16z" transform="translate(1 3)"/>
            </g>
        </g>
    </g>
</svg>
