<?xml version="1.0" encoding="UTF-8"?>
<svg width="18px" height="18px" viewBox="0 0 18 18" version="1.1" xmlns="http://www.w3.org/2000/svg" xmlns:xlink="http://www.w3.org/1999/xlink">
    <title>Icons/Light/18px/restore</title>
    <g id="Icons/Light/18px/restore" stroke="none" stroke-width="1" fill="none" fill-rule="evenodd">
        <path d="M13.2278674,4.76213258 C12.1405941,3.67485929 10.6484053,3 8.99125078,3 C5.67694184,3 3,5.68444028 3,8.99874922 C3,12.3130582 5.67694184,14.9974984 8.99125078,14.9974984 C11.7881676,14.9974984 14.1201814,13.0853971 14.7875422,10.4984365 L13.2278674,10.4984365 C12.6129956,12.2455722 10.9483427,13.4978111 8.99125078,13.4978111 C6.50926829,13.4978111 4.49218887,11.4807317 4.49218887,8.99874922 C4.49218887,6.51676673 6.50926829,4.4996873 8.99125078,4.4996873 C10.2359912,4.4996873 11.3457598,5.01707942 12.155591,5.83440901 L9.74109443,8.24890557 L14.99,8.24890557 L14.99,3 L13.2278674,4.76213258 Z" id="Path" fill="#454E5D" transform="translate(8.995000, 8.998749) scale(-1, 1) translate(-8.995000, -8.998749) "></path>
    </g>
</svg>