<svg xmlns="http://www.w3.org/2000/svg" width="24" height="24" viewBox="0 0 24 24">
  <path fill="#B7BCD9" fill-rule="evenodd" d="M18.1315111,16.5954323 C19.356885,14.5399674 18.7813306,11.8091354 16.822589,10.5171289 C14.8731305,9.22512235 12.2831356,9.85154976 11.0577617,11.8972268 C9.83238783,13.9624796 10.4265085,16.7030995 12.3666839,17.9755302 C13.7313048,18.8760196 15.457968,18.8760196 16.822589,17.9755302 L19.7096441,21 L21,19.639478 L18.1315111,16.5954323 M16.274884,15.9885808 C15.3651367,16.9477977 13.8984012,16.9380098 12.9886539,15.9885808 C12.0881898,15.0293638 12.0881898,13.4828711 12.9979371,12.5236542 C13.8984012,11.5742251 15.3651367,11.5742251 16.274884,12.5236542 C17.166065,13.4926591 17.1567818,15.0391517 16.2470346,15.9885808 L16.274884,15.9885808 M17.853017,3 L4.85662713,3 C3.83124028,3 3,3.87644095 3,4.95758564 L3,16.7030995 C3,17.7842442 3.83124028,18.6606852 4.85662713,18.6606852 L10.2501289,18.6606852 C9.73027334,18.0929853 9.31253223,17.4274062 9.03403816,16.7030995 L4.85662713,16.7030995 L4.85662713,12.7879282 L8.73697782,12.7879282 C8.88550799,12.0929853 9.13615266,11.4274062 9.49819495,10.8303426 L4.85662713,10.8303426 L4.85662713,6.91517129 L10.4265085,6.91517129 L10.4265085,9.66557912 C10.9649304,9.11745514 11.5961836,8.67699837 12.2831356,8.38336052 L12.2831356,6.91517129 L17.853017,6.91517129 L17.853017,8.87275693 C18.2243424,9.11745514 18.5678185,9.41109299 18.8741619,9.73409462 C19.1897886,10.0668842 19.4682826,10.4290375 19.7096441,10.8303426 L19.7096441,4.95758564 C19.7096441,3.87644095 18.8784039,3 17.853017,3 Z"/>
</svg>
