<svg xmlns="http://www.w3.org/2000/svg" width="24" height="24" viewBox="0 0 24 24">
  <g fill="#B7BCD9" fill-rule="evenodd" transform="translate(2 6)">
    <path d="M10.8333333 5.14285714C12.2140452 5.14285714 13.3333333 3.99158936 13.3333333 2.57142857 13.3333333 1.15126779 12.2140452-1.50990331e-14 10.8333333-1.50990331e-14 9.45262146-1.50990331e-14 8.33333333 1.15126779 8.33333333 2.57142857 8.33333333 3.99158936 9.45262146 5.14285714 10.8333333 5.14285714M10.8333333 6.85714286C5.83333333 6.85714286 5.83333333 10.2857143 5.83333333 10.2857143L5.83333333 12 15.8333333 12 15.8333333 10.2857143C15.8333333 10.2857143 15.8333333 6.85714286 10.8333333 6.85714286" opacity=".3"/>
    <path d="M10.8333333,6.85714286 C15.6372549,6.85714286 15.825644,10.0220794 15.8330318,10.2703097 L15.8333333,12 L5.83333333,12 L5.83363488,10.2703097 C5.84102268,10.0220794 6.02941176,6.85714286 10.8333333,6.85714286 Z M16,6.90857143 C19.8222222,7.30990476 19.9920988,10.0278688 19.9996488,10.2686728 L20,12 L17.5,12 L17.5,10.2857143 C17.4606649,8.99861721 16.9201801,7.78175438 16,6.90857143 Z M10.8333333,8.57142857 C7.76666667,8.57142857 7.5,10.0371429 7.5,10.2857143 L7.5,10.2857143 L14.1666667,10.2857143 C14.1166667,9.90857143 13.75,8.57142857 10.8333333,8.57142857 Z M3.33333333,1.71428571 L4.25833333,3.97714286 L6.66666667,4.19142857 L4.83333333,5.80285714 L5.375,8.21142857 L3.33333333,6.93428571 L1.25,8.21142857 L1.81666667,5.80285714 L1.42108547e-14,4.19142857 L2.39166667,3.97714286 L3.33333333,1.71428571 Z M10.8333333,8.8817842e-16 C12.2140452,8.8817842e-16 13.3333333,1.15126779 13.3333333,2.57142857 C13.3333333,3.99158936 12.2140452,5.14285714 10.8333333,5.14285714 C9.45262146,5.14285714 8.33333333,3.99158936 8.33333333,2.57142857 C8.33333333,1.15126779 9.45262146,8.8817842e-16 10.8333333,8.8817842e-16 Z M15,8.8817842e-16 C16.3807119,8.8817842e-16 17.5,1.15126779 17.5,2.57142857 C17.5,3.99158936 16.3807119,5.14285714 15,5.14285714 C14.7482203,5.14270216 14.4979999,5.10221706 14.2583333,5.02285714 C15.2569243,3.54995385 15.2569243,1.59290329 14.2583333,0.12 C14.4979999,0.040640082 14.7482203,0.000154982794 15,8.8817842e-16 Z M10.8333333,1.71428571 C10.373096,1.71428571 10,2.09804164 10,2.57142857 C10,3.0448155 10.373096,3.42857143 10.8333333,3.42857143 C11.2935706,3.42857143 11.6666667,3.0448155 11.6666667,2.57142857 C11.6666667,2.09804164 11.2935706,1.71428571 10.8333333,1.71428571 Z"/>
  </g>
</svg>
