<svg width="20" height="20" viewBox="0 0 20 20" fill="none" xmlns="http://www.w3.org/2000/svg">
<path d="M13.0312 9.37915C13.8079 9.37915 14.4375 8.73556 14.4375 7.94165C14.4375 7.14774 13.8079 6.50415 13.0312 6.50415C12.2546 6.50415 11.625 7.14774 11.625 7.94165C11.625 8.73556 12.2546 9.37915 13.0312 9.37915Z" fill="white"/>
<path d="M6.46875 9.37915C7.2454 9.37915 7.875 8.73556 7.875 7.94165C7.875 7.14774 7.2454 6.50415 6.46875 6.50415C5.6921 6.50415 5.0625 7.14774 5.0625 7.94165C5.0625 8.73556 5.6921 9.37915 6.46875 9.37915Z" fill="white"/>
<path d="M9.75 14.1708C8.3625 14.1708 7.17188 13.3946 6.51562 12.2542H4.95C5.7 14.2187 7.56563 15.6083 9.75 15.6083C11.9344 15.6083 13.8 14.2187 14.55 12.2542H12.9844C12.3281 13.3946 11.1375 14.1708 9.75 14.1708ZM9.74062 0.75415C4.56562 0.75415 0.375 5.04748 0.375 10.3375C0.375 15.6275 4.56562 19.9208 9.74062 19.9208C14.925 19.9208 19.125 15.6275 19.125 10.3375C19.125 5.04748 14.925 0.75415 9.74062 0.75415ZM9.75 18.0042C5.60625 18.0042 2.25 14.5733 2.25 10.3375C2.25 6.10165 5.60625 2.67082 9.75 2.67082C13.8938 2.67082 17.25 6.10165 17.25 10.3375C17.25 14.5733 13.8938 18.0042 9.75 18.0042Z" fill="white"/>
</svg>
