<svg width="25" height="25" viewBox="0 0 25 25" fill="none" xmlns="http://www.w3.org/2000/svg">
<path d="M18.5 16.62C17.74 16.62 17.06 16.92 16.54 17.39L9.41 13.24C9.46 13.01 9.5 12.78 9.5 12.54C9.5 12.3 9.46 12.07 9.41 11.84L16.46 7.72998C17 8.22998 17.71 8.53998 18.5 8.53998C20.16 8.53998 21.5 7.19998 21.5 5.53998C21.5 3.87998 20.16 2.53998 18.5 2.53998C16.84 2.53998 15.5 3.87998 15.5 5.53998C15.5 5.77998 15.54 6.00998 15.59 6.23998L8.54 10.35C8 9.84998 7.29 9.53998 6.5 9.53998C4.84 9.53998 3.5 10.88 3.5 12.54C3.5 14.2 4.84 15.54 6.5 15.54C7.29 15.54 8 15.23 8.54 14.73L15.66 18.89C15.61 19.1 15.58 19.32 15.58 19.54C15.58 21.15 16.89 22.46 18.5 22.46C20.11 22.46 21.42 21.15 21.42 19.54C21.42 17.93 20.11 16.62 18.5 16.62ZM18.5 4.53998C19.05 4.53998 19.5 4.98998 19.5 5.53998C19.5 6.08998 19.05 6.53998 18.5 6.53998C17.95 6.53998 17.5 6.08998 17.5 5.53998C17.5 4.98998 17.95 4.53998 18.5 4.53998ZM6.5 13.54C5.95 13.54 5.5 13.09 5.5 12.54C5.5 11.99 5.95 11.54 6.5 11.54C7.05 11.54 7.5 11.99 7.5 12.54C7.5 13.09 7.05 13.54 6.5 13.54ZM18.5 20.56C17.95 20.56 17.5 20.11 17.5 19.56C17.5 19.01 17.95 18.56 18.5 18.56C19.05 18.56 19.5 19.01 19.5 19.56C19.5 20.11 19.05 20.56 18.5 20.56Z" fill="#454E5D"/>
</svg>
