<svg xmlns="http://www.w3.org/2000/svg" width="24" height="24" viewBox="0 0 24 24">
  <path fill="#B7BCD9" fill-rule="evenodd" d="M17.2941176,19.2626886 L20.1764706,21 L19.4117647,17.723594 L22,15.5315501 L18.6,15.2400549 L17.2941176,12.1618656 L15.9647059,15.2400549 L12.5882353,15.5315501 L15.1529412,17.723594 L14.3529412,21 L17.2941176,19.2626886 L17.2941176,19.2626886 Z M2,13.3278464 L11.4117647,13.3278464 L11.4117647,15.659808 L2,15.659808 L2,13.3278464 L2,13.3278464 Z M2,4 L16.1176471,4 L16.1176471,6.33196159 L2,6.33196159 L2,4 L2,4 Z M2,8.66392318 L16.1176471,8.66392318 L16.1176471,10.9958848 L2,10.9958848 L2,8.66392318 Z"/>
</svg>
