<svg xmlns="http://www.w3.org/2000/svg" width="24" height="24" viewBox="0 0 24 24">
  <path fill="#B7BCD9" fill-rule="evenodd" d="M15.5200057,11.3641341 L13.9619665,11.3641341 C13.6869623,10.4372299 12.8295403,9.78311401 11.8543955,9.78311401 C10.8787742,9.78311401 10.0213521,10.4372299 9.74634797,11.3641341 L8.18878536,11.3641341 C7.97717036,10.6480645 7.42239592,10.0890404 6.71129328,9.87580444 L6.71129328,3.2707713 L20.738889,3.2707713 L20.738889,11.3641341 L19.7356242,11.3641341 C19.4606201,10.4372299 18.6036747,9.78311401 17.6280533,9.78311401 C16.6524319,9.78311401 15.7954865,10.4372299 15.5200057,11.3641341 L15.5200057,11.3641341 Z M8.18878536,12.6349054 L9.74634797,12.6349054 C10.0213521,13.5627701 10.8782975,14.216886 11.8543955,14.216886 C12.8300169,14.216886 13.6869623,13.5627701 13.9619665,12.6349054 L15.5200057,12.6349054 C15.7611706,13.4499088 16.4513023,14.0526366 17.2887067,14.1827874 L17.2887067,20.7292287 L3.26158759,20.7292287 L3.26158759,12.6349054 L3.97269023,12.6349054 C4.2476944,13.5627701 5.1046398,14.216886 6.08073779,14.216886 C7.05635917,14.216886 7.91378119,13.5627701 8.18878536,12.6349054 L8.18878536,12.6349054 Z M5.4501823,2 L5.4501823,9.87580444 C4.73907967,10.0890404 4.18382861,10.6480645 3.97221362,11.3641341 L2,11.3641341 L2,22 L18.5502943,22 L18.5502943,14.0065316 C19.127946,13.7380655 19.5564187,13.2424359 19.7361009,12.6349054 L22,12.6349054 L22,2 L5.4501823,2 Z"/>
</svg>
