<svg xmlns="http://www.w3.org/2000/svg" width="24" height="24" viewBox="0 0 24 24">
  <g fill="#B7BCD9" fill-rule="evenodd" transform="translate(2 2)">
    <path d="M3.4501823,0 L3.4501823,7.87580444 C2.73907967,8.08904044 2.18382861,8.64806455 1.97221362,9.36413409 L0,9.36413409 L0,20 L16.5502943,20 L16.5502943,12.0065316 C17.127946,11.7380655 17.5564187,11.2424359 17.7361009,10.6349054 L20,10.6349054 L20,0 L3.4501823,0 Z" opacity=".3"/>
    <path d="M13.5200057,9.36413409 L11.9619665,9.36413409 C11.6869623,8.43722985 10.8295403,7.78311401 9.85439554,7.78311401 C8.87877416,7.78311401 8.02135214,8.43722985 7.74634797,9.36413409 L6.18878536,9.36413409 C5.97717036,8.64806455 5.42239592,8.08904044 4.71129328,7.87580444 L4.71129328,1.2707713 L18.738889,1.2707713 L18.738889,9.36413409 L17.7356242,9.36413409 C17.4606201,8.43722985 16.6036747,7.78311401 15.6280533,7.78311401 C14.6524319,7.78311401 13.7954865,8.43722985 13.5200057,9.36413409 L13.5200057,9.36413409 Z M6.18878536,10.6349054 L7.74634797,10.6349054 C8.02135214,11.5627701 8.87829755,12.216886 9.85439554,12.216886 C10.8300169,12.216886 11.6869623,11.5627701 11.9619665,10.6349054 L13.5200057,10.6349054 C13.7611706,11.4499088 14.4513023,12.0526366 15.2887067,12.1827874 L15.2887067,18.7292287 L1.26158759,18.7292287 L1.26158759,10.6349054 L1.97269023,10.6349054 C2.2476944,11.5627701 3.1046398,12.216886 4.08073779,12.216886 C5.05635917,12.216886 5.91378119,11.5627701 6.18878536,10.6349054 L6.18878536,10.6349054 Z M3.4501823,0 L3.4501823,7.87580444 C2.73907967,8.08904044 2.18382861,8.64806455 1.97221362,9.36413409 L0,9.36413409 L0,20 L16.5502943,20 L16.5502943,12.0065316 C17.127946,11.7380655 17.5564187,11.2424359 17.7361009,10.6349054 L20,10.6349054 L20,0 L3.4501823,0 Z"/>
  </g>
</svg>
