<svg width="25" height="24" viewBox="0 0 25 24" fill="none" xmlns="http://www.w3.org/2000/svg">
<path d="M9.37492 12C11.3853 12 13.0208 10.43 13.0208 8.5C13.0208 6.57 11.3853 5 9.37492 5C7.3645 5 5.72909 6.57 5.72909 8.5C5.72909 10.43 7.3645 12 9.37492 12ZM9.37492 7C10.2395 7 10.9374 7.67 10.9374 8.5C10.9374 9.33 10.2395 10 9.37492 10C8.51033 10 7.81242 9.33 7.81242 8.5C7.81242 7.67 8.51033 7 9.37492 7ZM9.427 17H4.96867C5.99992 16.5 7.78117 16 9.37492 16C9.4895 16 9.6145 16.01 9.72908 16.01C10.0833 15.28 10.6978 14.68 11.4374 14.2C10.677 14.07 9.95825 14 9.37492 14C6.93742 14 2.08325 15.17 2.08325 17.5V19H9.37492V17.5C9.37492 17.33 9.39575 17.16 9.427 17ZM17.1874 14.5C15.2708 14.5 11.4583 15.51 11.4583 17.5V19H22.9166V17.5C22.9166 15.51 19.1041 14.5 17.1874 14.5ZM18.4478 12.68C19.2395 12.25 19.7916 11.44 19.7916 10.5C19.7916 9.12 18.6249 8 17.1874 8C15.7499 8 14.5833 9.12 14.5833 10.5C14.5833 11.44 15.1353 12.25 15.927 12.68C16.302 12.88 16.7291 13 17.1874 13C17.6458 13 18.0728 12.88 18.4478 12.68Z" fill="#666B81"/>
</svg>
