<?xml version="1.0" encoding="UTF-8"?>
<svg width="24px" height="24px" viewBox="0 0 24 24" version="1.1" xmlns="http://www.w3.org/2000/svg" xmlns:xlink="http://www.w3.org/1999/xlink">
    <title>See Available Territories</title>
    <g id="Icons/Light/24px/territories-avails" stroke="none" stroke-width="1" fill="none" fill-rule="evenodd">
        <path d="M20.5887857,10.7940927 C18.7126178,10.7940927 17.1775714,12.3291391 17.1775714,14.205307 C17.1775714,16.0814748 18.7126178,17.6165213 20.5887857,17.6165213 C22.4649536,17.6165213 24,16.0814748 24,14.205307 C24,12.3291391 22.4649536,10.7940927 20.5887857,10.7940927 M22.9436014,11.746992 L20.1104743,14.6264749 L18.8512404,13.3721028 L18.1657115,14.0576317 L20.1104743,16.0023946 L23.5614932,12.5471929 C23.4410723,12.3483867 23.3462356,12.2041407 23.2769829,12.114455 C23.2077302,12.0247693 23.096603,11.9022816 22.9436014,11.746992 Z" id="Shape" fill="#454E5D"></path>
        <path d="M22.8604863,10.7295774 C22.8604863,8.17670776 22.8604863,6.85029777 22.8604863,1.74455855 C22.8604863,1.40673224 22.5950513,1.14129728 22.257225,1.14129728 L22.0641814,1.17749296 L15.6213511,3.67499459 L8.38221598,1.14129728 L1.57742895,3.43369008 C1.32405922,3.51814666 1.14308084,3.73532071 1.14308084,4.01282089 L1.14308084,22.2554415 C1.14308084,22.5932678 1.4085158,22.8587027 1.7463421,22.8587027 L1.93938571,22.822507 L8.38221598,20.3250054 L15.6213511,22.8587027 L22.4261382,20.5663099 C22.6795079,20.4818533 22.8604863,20.2646793 22.8604863,19.9871791 L22.8604863,10.7295774 Z M3.03287885,4.44193864 L7.13169396,3.07218017 L7.13169396,18.9764357 L3.03287885,20.6445453 L3.03287885,4.44193864 Z M22.8372729,19.0447717 L16.7106076,20.9757839 L16.7106076,5.09067703 L21.0417393,3.27626342 L21.0417393,9.80268301 L22.8372729,9.80268301 L22.8372729,19.0447717 Z" id="Shape" fill="#454E5D" fill-rule="nonzero"></path>
        <polygon id="Path" fill="#C7C9CE" fill-rule="nonzero" points="9.1135866 3.07218017 14.6116913 4.95259518 14.6116913 20.9757839 9.1135866 18.8176274"></polygon>        <!-- <rect id="background" x="0" y="0" width="24" height="24"></rect> -->
    </g>
</svg>
