<svg xmlns="http://www.w3.org/2000/svg" width="24" height="24" viewBox="0 0 24 24">
  <g fill="#B7BCD9" fill-rule="evenodd" transform="translate(2 3)">
    <polygon points="7.273 16.2 15.482 16.2 18.182 9.9 18.182 8.1 10.191 8.1 11.218 3.312 7.273 7.227" opacity=".3"/>
    <path d="M3.63636364,7.2 L3.63636364,18 L-5.32907052e-15,18 L-5.32907052e-15,7.2 L3.63636364,7.2 L3.63636364,7.2 Z M7.27272727,18 C6.26857318,18 5.45454545,17.1941125 5.45454545,16.2 L5.45454545,7.2 C5.45454545,6.705 5.65454545,6.255 5.99090909,5.931 L11.9727273,-5.32907052e-15 L12.9363636,0.954 C13.1818182,1.197 13.3363636,1.53 13.3363636,1.899 L13.3090909,2.187 L12.4454545,6.3 L18.1818182,6.3 C19.1909091,6.3 20,7.11 20,8.1 L20,9.9 C20,10.134 19.9545455,10.35 19.8727273,10.557 L17.1272727,16.902 C16.8545455,17.55 16.2090909,18 15.4545455,18 L7.27272727,18 L7.27272727,18 Z M7.27272727,16.2 L15.4818182,16.2 L18.1818182,9.9 L18.1818182,8.1 L10.1909091,8.1 L11.2181818,3.312 L7.27272727,7.227 L7.27272727,16.2 Z"/>
  </g>
</svg>
