<svg width="18" height="21" viewBox="0 0 18 21" fill="none" xmlns="http://www.w3.org/2000/svg">
<path d="M11.5625 0.279785H5.9375V2.19645H11.5625V0.279785ZM7.8125 12.7381H9.6875V6.98812H7.8125V12.7381ZM15.3406 6.39395L16.6719 5.03312C16.2688 4.54437 15.8281 4.08437 15.35 3.68187L14.0188 5.0427C12.5656 3.85437 10.7375 3.1452 8.75 3.1452C4.09063 3.1452 0.3125 7.00729 0.3125 11.7702C0.3125 16.5331 4.08125 20.3952 8.75 20.3952C13.4187 20.3952 17.1875 16.5331 17.1875 11.7702C17.1875 9.74812 16.4938 7.87937 15.3406 6.39395ZM8.75 18.4881C5.12188 18.4881 2.1875 15.4885 2.1875 11.7798C2.1875 8.07104 5.12188 5.07145 8.75 5.07145C12.3781 5.07145 15.3125 8.07104 15.3125 11.7798C15.3125 15.4885 12.3781 18.4881 8.75 18.4881Z" fill="white"/>
</svg>
