<svg width="20" height="20" viewBox="0 0 20 20" fill="none" xmlns="http://www.w3.org/2000/svg">
<path d="M19.2682 0L15.3382 0.78L18.0782 4.32L20.0482 3.92L19.2682 0ZM12.3982 1.36L10.4282 1.75L13.1782 5.28L15.1382 4.89L12.3982 1.36ZM7.49816 2.32L5.52816 2.73L8.27816 6.26L10.2382 5.87L7.49816 2.32ZM2.58816 3.32L1.60816 3.51C1.08854 3.61382 0.631358 3.9196 0.336997 4.3602C0.0426359 4.80081 -0.0648442 5.34022 0.038156 5.86L0.428156 7.82L5.32816 6.85L2.58816 3.32ZM0.428156 7.82V17.82C0.428156 18.93 1.32816 19.82 2.42816 19.82H18.4282C19.5382 19.82 20.4282 18.93 20.4282 17.82V7.82H0.428156Z" fill="#32305B"/>
</svg>
