<?xml version="1.0" encoding="UTF-8"?>
<svg width="24px" height="24px" viewBox="0 0 24 24" version="1.1" xmlns="http://www.w3.org/2000/svg" xmlns:xlink="http://www.w3.org/1999/xlink">
    <g id="Icons/Light/24px/video" stroke="none" stroke-width="1" fill="none" fill-rule="evenodd">
        <path d="M20,18 L4,18 L4,6 L20,6 L20,18 Z M3.5,4 L20.5,4 C21.3284271,4 22,4.67157288 22,5.5 L22,18.5 C22,19.3284271 21.3284271,20 20.5,20 L3.5,20 C2.67157288,20 2,19.3284271 2,18.5 L2,5.5 C2,4.67157288 2.67157288,4 3.5,4 Z" id="Combined-Shape" fill="#454E5D"></path>
        <polygon id="Path" fill="#454E5D" opacity="0.29738072" points="20 18 4 18 4 6 20 6"></polygon>
        <polygon id="Path" fill="#454E5D" points="10.5 9 10.5 15 14.5 12"></polygon>
    </g>
</svg>
