<svg width="168" height="49" viewBox="0 0 168 49" fill="none" xmlns="http://www.w3.org/2000/svg">
<path fill-rule="evenodd" clip-rule="evenodd" d="M43.6712 33.942L31.3765 27.7264L45.743 20.3937C45.9379 21.5693 46.0645 22.7709 46.0645 23.9984C46.0645 27.577 45.1877 30.9511 43.6712 33.942ZM23.9984 46.0645C17.8705 46.0645 12.3207 43.5478 8.31987 39.5015L29.2429 28.8175L42.7165 35.6306C38.8163 41.8819 31.8961 46.0645 23.9984 46.0645ZM11.3237 35.7897L6.96895 38.0142C5.90704 36.725 5.00751 35.3026 4.25736 33.7926L11.3237 35.7897ZM4.79318 13.1748C5.35498 13.4021 5.96225 13.532 6.60199 13.532C9.27786 13.532 11.4439 11.3659 11.4439 8.69332C11.4439 7.83601 11.2036 7.04688 10.8139 6.34869C14.4997 3.58839 19.0526 1.93546 23.9984 1.93546C34.2407 1.93546 42.8496 8.95961 45.3241 18.4323L13.86 34.4973L3.27664 31.5031C2.42582 29.1553 1.93546 26.6385 1.93546 23.9984C1.93546 20.0658 2.98112 16.3767 4.79318 13.1748ZM23.9984 0C18.572 0 13.5774 1.82829 9.55389 4.87761C8.73554 4.24112 7.7191 3.84818 6.60199 3.84818C3.92937 3.84818 1.7601 6.01745 1.7601 8.69332C1.7601 10.028 2.30242 11.236 3.17922 12.1096C1.16582 15.6201 0 19.6728 0 23.9984C0 37.2348 10.7652 48 23.9984 48C37.2348 48 48 37.2348 48 23.9984C48 10.7652 37.2348 0 23.9984 0Z" fill="#9EB1FF"/>
<path d="M65.2084 15.7867H56.8486L55.2006 19.9793H52L59.5238 1.86335H62.581L70.1287 19.9793H66.8803L65.2084 15.7867ZM64.1813 13.147L61.0285 5.22774L57.8996 13.147H64.1813Z" fill="#879DEF"/>
<path d="M74.8107 8.17805C75.6706 6.72878 77.1833 6.00414 79.3488 6.00414V9.08385C79.0941 9.03209 78.8632 9.00621 78.6562 9.00621C77.4938 9.00621 76.5862 9.37716 75.9333 10.119C75.2804 10.8437 74.954 11.8961 74.954 13.2764V19.9793H71.9684V6.15942H74.8107V8.17805Z" fill="#879DEF"/>
<path d="M87.6168 20.1605C86.2951 20.1605 85.1089 19.8585 84.0579 19.2547C83.007 18.6508 82.1869 17.814 81.5978 16.7443C81.0086 15.6573 80.714 14.4324 80.714 13.0694C80.714 11.7063 81.0086 10.49 81.5978 9.42029C82.1869 8.35059 82.999 7.5138 84.034 6.90994C85.085 6.30607 86.2792 6.00414 87.6168 6.00414C88.8747 6.00414 89.9734 6.28019 90.9129 6.8323C91.8683 7.3844 92.5848 8.17805 93.0625 9.21325L90.7696 10.6625C90.4034 10.0242 89.9416 9.54969 89.3843 9.23913C88.8429 8.91132 88.2457 8.74741 87.5929 8.74741C86.4783 8.74741 85.5547 9.14424 84.8222 9.93789C84.0898 10.7143 83.7235 11.7581 83.7235 13.0694C83.7235 14.3806 84.0818 15.4331 84.7983 16.2267C85.5308 17.0031 86.4623 17.3913 87.5929 17.3913C88.2457 17.3913 88.8429 17.236 89.3843 16.9255C89.9416 16.5977 90.4034 16.1146 90.7696 15.4762L93.0625 16.9255C92.5689 17.9607 91.8444 18.7629 90.889 19.3323C89.9495 19.8844 88.8588 20.1605 87.6168 20.1605Z" fill="#879DEF"/>
<path d="M102.764 6.00414C104.372 6.00414 105.662 6.51311 106.633 7.53105C107.605 8.549 108.09 10.0587 108.09 12.06V19.9793H105.105V12.4741C105.105 11.2664 104.842 10.3606 104.316 9.75673C103.791 9.13561 103.043 8.82505 102.071 8.82505C100.973 8.82505 100.105 9.18737 99.4678 9.91201C98.8309 10.6194 98.5124 11.646 98.5124 12.9917V19.9793H95.5268V0.776397H98.5124V7.76397C99.006 7.19462 99.6111 6.76328 100.328 6.46998C101.06 6.15942 101.872 6.00414 102.764 6.00414Z" fill="#879DEF"/>
<path d="M111.878 6.15942H114.863V19.9793H111.878V6.15942ZM113.382 3.88199C112.841 3.88199 112.387 3.70083 112.021 3.33851C111.655 2.95894 111.472 2.4931 111.472 1.94099C111.472 1.38889 111.655 0.931676 112.021 0.569357C112.387 0.189786 112.841 0 113.382 0C113.924 0 114.378 0.181159 114.744 0.543477C115.11 0.888543 115.293 1.3285 115.293 1.86335C115.293 2.43271 115.11 2.9158 114.744 3.31263C114.394 3.6922 113.94 3.88199 113.382 3.88199Z" fill="#879DEF"/>
<path d="M125.852 6.00414C127.094 6.00414 128.201 6.29745 129.172 6.88406C130.159 7.47067 130.931 8.29883 131.489 9.36853C132.046 10.4382 132.325 11.6718 132.325 13.0694C132.325 14.4669 132.046 15.7091 131.489 16.7961C130.931 17.8658 130.159 18.6939 129.172 19.2805C128.201 19.8671 127.094 20.1605 125.852 20.1605C124.132 20.1605 122.771 19.5393 121.768 18.2971V25H118.782V6.15942H121.624V7.97101C122.118 7.31539 122.723 6.82367 123.44 6.49586C124.172 6.16805 124.976 6.00414 125.852 6.00414ZM125.518 17.3913C126.616 17.3913 127.516 16.9945 128.217 16.2008C128.933 15.4072 129.291 14.3634 129.291 13.0694C129.291 11.7754 128.933 10.7315 128.217 9.93789C127.516 9.14424 126.616 8.74741 125.518 8.74741C124.801 8.74741 124.156 8.92857 123.583 9.29089C123.01 9.63596 122.556 10.1363 122.221 10.7919C121.887 11.4475 121.72 12.2067 121.72 13.0694C121.72 13.932 121.887 14.6912 122.221 15.3468C122.556 16.0024 123.01 16.5114 123.583 16.8737C124.156 17.2188 124.801 17.3913 125.518 17.3913Z" fill="#879DEF"/>
<path d="M147.147 13.147C147.147 13.3713 147.131 13.6905 147.099 14.1046H137.091C137.266 15.1225 137.72 15.9334 138.452 16.5373C139.201 17.1239 140.124 17.4172 141.223 17.4172C142.624 17.4172 143.779 16.9168 144.686 15.9161L146.287 17.9089C145.713 18.6508 144.989 19.2115 144.113 19.5911C143.237 19.9707 142.25 20.1605 141.151 20.1605C139.75 20.1605 138.516 19.8585 137.449 19.2547C136.382 18.6508 135.554 17.814 134.965 16.7443C134.392 15.6573 134.105 14.4324 134.105 13.0694C134.105 11.7236 134.384 10.5159 134.941 9.44617C135.515 8.35921 136.303 7.5138 137.306 6.90994C138.309 6.30607 139.44 6.00414 140.698 6.00414C141.94 6.00414 143.046 6.30607 144.018 6.90994C145.005 7.49655 145.769 8.33333 146.311 9.42029C146.868 10.49 147.147 11.7322 147.147 13.147ZM140.698 8.59213C139.742 8.59213 138.93 8.90269 138.261 9.52381C137.608 10.1277 137.21 10.9386 137.067 11.9565H144.304C144.177 10.9558 143.787 10.1449 143.134 9.52381C142.481 8.90269 141.669 8.59213 140.698 8.59213Z" fill="#879DEF"/>
<path d="M150.014 0.776397H153V19.9793H150.014V0.776397Z" fill="#879DEF"/>
<path fill-rule="evenodd" clip-rule="evenodd" d="M153.582 25H52.0581V49H153.582V25ZM63.8108 45.6521C62.1528 45.6521 60.6512 45.2975 59.3061 44.5885C57.9765 43.864 56.9285 42.8697 56.1621 41.6057C55.4113 40.3416 55.0359 38.9157 55.0359 37.328C55.0359 35.7403 55.4191 34.3144 56.1855 33.0503C56.952 31.7863 58 30.7998 59.3295 30.0907C60.6747 29.3662 62.1763 29.0039 63.8343 29.0039C65.1795 29.0039 66.4073 29.2351 67.5179 29.6976C68.6285 30.16 69.567 30.8306 70.3334 31.7092L68.3626 33.5359C67.1738 32.2719 65.7113 31.6399 63.9751 31.6399C62.8489 31.6399 61.84 31.8865 60.9484 32.3798C60.0568 32.8577 59.3608 33.5282 58.8603 34.3914C58.3597 35.2547 58.1095 36.2335 58.1095 37.328C58.1095 38.4225 58.3597 39.4013 58.8603 40.2646C59.3608 41.1278 60.0568 41.8061 60.9484 42.2993C61.84 42.7772 62.8489 43.0161 63.9751 43.0161C65.7113 43.0161 67.1738 42.3764 68.3626 41.097L70.3334 42.9468C69.567 43.8254 68.6206 44.496 67.4944 44.9584C66.3839 45.4209 65.156 45.6521 63.8108 45.6521ZM78.1471 45.5827C76.8801 45.5827 75.7383 45.313 74.7216 44.7734C73.7049 44.2339 72.9072 43.4863 72.3284 42.5306C71.7653 41.5594 71.4838 40.4649 71.4838 39.2472C71.4838 38.0294 71.7653 36.9426 72.3284 35.9869C72.9072 35.0312 73.7049 34.2835 74.7216 33.744C75.7383 33.2045 76.8801 32.9347 78.1471 32.9347C79.4297 32.9347 80.5794 33.2045 81.5961 33.744C82.6128 34.2835 83.4027 35.0312 83.9658 35.9869C84.5445 36.9426 84.8339 38.0294 84.8339 39.2472C84.8339 40.4649 84.5445 41.5594 83.9658 42.5306C83.4027 43.4863 82.6128 44.2339 81.5961 44.7734C80.5794 45.313 79.4297 45.5827 78.1471 45.5827ZM78.1471 43.1086C79.2264 43.1086 80.118 42.7541 80.8218 42.045C81.5257 41.3359 81.8776 40.4033 81.8776 39.2472C81.8776 38.091 81.5257 37.1584 80.8218 36.4493C80.118 35.7403 79.2264 35.3857 78.1471 35.3857C77.0678 35.3857 76.1763 35.7403 75.4724 36.4493C74.7842 37.1584 74.4401 38.091 74.4401 39.2472C74.4401 40.4033 74.7842 41.3359 75.4724 42.045C76.1763 42.7541 77.0678 43.1086 78.1471 43.1086ZM98.5484 34.299C97.5943 33.3895 96.3273 32.9347 94.7475 32.9347C93.8247 32.9347 92.9957 33.0812 92.2605 33.3741C91.5253 33.6669 90.9153 34.0986 90.4304 34.6689V33.0735H87.6384V45.4209H90.5712V39.1778C90.5712 37.9754 90.884 37.0582 91.5097 36.4262C92.1354 35.7788 92.9878 35.4551 94.0671 35.4551C95.0212 35.4551 95.7564 35.7325 96.2726 36.2875C96.7887 36.827 97.0468 37.6363 97.0468 38.7153V45.4209H99.9796V38.3454C99.9796 36.5572 99.5026 35.2084 98.5484 34.299ZM111.232 44.7503C110.887 45.0278 110.465 45.2359 109.965 45.3746C109.48 45.5134 108.963 45.5827 108.416 45.5827C107.04 45.5827 105.976 45.2282 105.225 44.5191C104.474 43.81 104.099 42.7772 104.099 41.4207V35.4782H102.034V33.166H104.099V30.345H107.032V33.166H110.387V35.4782H107.032V41.3513C107.032 41.9525 107.18 42.4149 107.478 42.7387C107.775 43.047 108.205 43.2011 108.768 43.2011C109.425 43.2011 109.972 43.0315 110.41 42.6924L111.232 44.7503ZM124.963 40.1721C124.994 39.8021 125.01 39.5169 125.01 39.3165C125.01 38.0525 124.736 36.9426 124.189 35.9869C123.657 35.0157 122.906 34.2681 121.936 33.744C120.982 33.2045 119.895 32.9347 118.675 32.9347C117.439 32.9347 116.329 33.2045 115.343 33.744C114.358 34.2835 113.584 35.0389 113.021 36.01C112.473 36.9657 112.199 38.0448 112.199 39.2472C112.199 40.4649 112.481 41.5594 113.044 42.5306C113.623 43.4863 114.436 44.2339 115.484 44.7734C116.532 45.313 117.744 45.5827 119.121 45.5827C120.2 45.5827 121.17 45.4132 122.03 45.074C122.89 44.7349 123.602 44.2339 124.165 43.5711L122.593 41.7906C121.702 42.6847 120.568 43.1317 119.191 43.1317C118.112 43.1317 117.205 42.8697 116.47 42.3456C115.75 41.8061 115.304 41.0815 115.132 40.1721H124.963ZM116.282 36.0794C116.939 35.5244 117.736 35.247 118.675 35.247C119.629 35.247 120.427 35.5244 121.068 36.0794C121.709 36.6343 122.093 37.3588 122.218 38.2529H115.109C115.249 37.3434 115.641 36.6189 116.282 36.0794ZM134.936 32.9347C136.516 32.9347 137.783 33.3895 138.737 34.299C139.691 35.2084 140.168 36.5572 140.168 38.3454V45.4209H137.235V38.7153C137.235 37.6363 136.977 36.827 136.461 36.2875C135.945 35.7325 135.21 35.4551 134.256 35.4551C133.176 35.4551 132.324 35.7788 131.698 36.4262C131.073 37.0582 130.76 37.9754 130.76 39.1778V45.4209H127.827V33.0735H130.619V34.6689C131.104 34.0986 131.714 33.6669 132.449 33.3741C133.184 33.0812 134.013 32.9347 134.936 32.9347ZM150.153 45.3746C150.654 45.2359 151.076 45.0278 151.42 44.7503L150.599 42.6924C150.161 43.0315 149.613 43.2011 148.957 43.2011C148.393 43.2011 147.963 43.047 147.666 42.7387C147.369 42.4149 147.22 41.9525 147.22 41.3513V35.4782H150.575V33.166H147.22V30.345H144.288V33.166H142.223V35.4782H144.288V41.4207C144.288 42.7772 144.663 43.81 145.414 44.5191C146.165 45.2282 147.228 45.5827 148.605 45.5827C149.152 45.5827 149.668 45.5134 150.153 45.3746Z" fill="#879DEF"/>
</svg>
