<?xml version="1.0" encoding="UTF-8"?>
<svg width="400px" height="134px" viewBox="0 0 400 134" version="1.1" xmlns="http://www.w3.org/2000/svg" xmlns:xlink="http://www.w3.org/1999/xlink">
    <defs>
        <filter color-interpolation-filters="auto" id="filter-1">
            <feColorMatrix in="SourceGraphic" type="matrix" values="0 0 0 0 0.619608 0 0 0 0 0.694118 0 0 0 0 1.000000 0 0 0 1.000000 0"></feColorMatrix>
        </filter>
    </defs>
    <g id="draft" stroke="none" stroke-width="1" fill="none" fill-rule="evenodd">
        <g id="logo/dark/archipel_content" filter="url(#filter-1)">
            <g id="group" fill="#9CA3C4">
                <path d="M66.5908349,0 C103.31445,0 133.18167,29.8735064 133.18167,66.5937755 C133.18167,103.296027 103.31445,133.169533 66.5908349,133.169533 C29.876229,133.169533 0,103.296027 0,66.5937755 C0,54.5849142 3.24349892,43.3418092 8.82051513,33.6031903 C6.39690066,31.1797967 4.89227754,27.8284865 4.89227754,24.1168205 C4.89227754,16.6934884 10.91077,10.6845533 18.3257689,10.6845533 C21.4251123,10.6845533 24.2451545,11.7836388 26.5156037,13.540374 C37.6786458,5.08101858 51.535594,0 66.5908349,0 Z M81.1325217,79.9539715 L23.0829007,109.584238 C34.1918845,120.818334 49.5894947,127.80023 66.5908349,127.80023 C88.502472,127.80023 107.702184,116.18776 118.522857,98.845631 L118.522857,98.845631 L81.1325217,79.9539715 Z M194.91987,76.8134696 C198.010204,76.8134696 200.830246,77.3449946 203.379996,78.4260624 C205.929747,79.5071302 208.08307,81.0746784 209.848975,83.1106894 L209.848975,83.1106894 L205.317086,87.3718983 C202.587141,84.4259886 199.226516,82.9575382 195.23521,82.9575382 C192.649421,82.9575382 190.333923,83.5160899 188.288716,84.651211 C186.2345,85.7863322 184.63978,87.3538805 183.486536,89.3628648 C182.342302,91.380858 181.76568,93.6601092 181.76568,96.2096274 C181.76568,98.7591456 182.342302,101.038397 183.486536,103.05639 C184.63978,105.074383 186.2345,106.632923 188.288716,107.768044 C190.333923,108.903165 192.649421,109.470726 195.23521,109.470726 C199.226516,109.470726 202.587141,107.975248 205.317086,104.993303 L205.317086,104.993303 L209.848975,109.308565 C208.08307,111.353585 205.920737,112.921134 203.352967,113.993192 C200.785197,115.07426 197.956145,115.614794 194.856802,115.614794 C191.0547,115.614794 187.612988,114.776967 184.540673,113.101312 C181.468359,111.443674 179.062764,109.128387 177.314878,106.182478 C175.576003,103.236568 174.70206,99.9122846 174.70206,96.2096274 C174.70206,92.5069703 175.585012,89.1916957 177.341908,86.245786 C179.107813,83.2998763 181.522417,80.9845895 184.594732,79.3089344 C187.667046,77.6512971 191.108759,76.8134696 194.91987,76.8134696 Z M227.795434,85.9746182 C230.741613,85.9746182 233.38146,86.6052411 235.714978,87.8574779 C238.057505,89.1097148 239.877468,90.857441 241.192887,93.0916478 C242.499296,95.3168456 243.157006,97.848346 243.157006,100.67714 C243.157006,103.523952 242.499296,106.064461 241.192887,108.307677 C239.877468,110.550892 238.057505,112.307628 235.714978,113.559864 C233.38146,114.82111 230.741613,115.451733 227.795434,115.451733 C224.885295,115.451733 222.263467,114.82111 219.92094,113.559864 C217.587422,112.307628 215.767459,110.550892 214.45204,108.307677 C213.145631,106.064461 212.487921,103.523952 212.487921,100.67714 C212.487921,97.848346 213.145631,95.3168456 214.45204,93.0916478 C215.767459,90.857441 217.587422,89.1097148 219.92094,87.8574779 C222.263467,86.6052411 224.885295,85.9746182 227.795434,85.9746182 Z M386.523262,79.9368546 L386.523262,86.5043414 L394.235582,86.5043414 L394.235582,91.9006714 L386.523262,91.9006714 L386.523262,105.585188 C386.523262,106.990576 386.865631,108.062635 387.55037,108.792356 C388.235109,109.531085 389.217168,109.90045 390.514568,109.90045 C392.019191,109.90045 393.280551,109.504058 394.28964,108.711275 L394.28964,108.711275 L396.172671,113.504009 C395.388826,114.161659 394.424786,114.63913 393.289561,114.963451 C392.163346,115.29678 390.965054,115.449931 389.703693,115.449931 C386.541281,115.449931 384.099647,114.621113 382.378791,112.972484 C380.648925,111.314847 379.793002,108.91848 379.793002,105.747348 L379.793002,105.747348 L379.793002,91.9006714 L375.04488,91.9006714 L375.04488,86.5043414 L379.793002,86.5043414 L379.793002,79.9368546 L386.523262,79.9368546 Z M294.195263,79.9368546 L294.195263,86.5043414 L301.907583,86.5043414 L301.907583,91.9006714 L294.195263,91.9006714 L294.195263,105.585188 C294.195263,106.990576 294.537632,108.062635 295.222371,108.792356 C295.90711,109.531085 296.889169,109.90045 298.186569,109.90045 C299.691192,109.90045 300.952553,109.504058 301.961641,108.711275 L301.961641,108.711275 L303.844672,113.504009 C303.060827,114.161659 302.096787,114.63913 300.961562,114.963451 C299.835347,115.29678 298.637055,115.449931 297.375694,115.449931 C294.213283,115.449931 291.771649,114.621113 290.050792,112.972484 C288.320926,111.314847 287.465003,108.91848 287.465003,105.747348 L287.465003,105.747348 L287.465003,91.9006714 L282.716881,91.9006714 L282.716881,86.5043414 L287.465003,86.5043414 L287.465003,79.9368546 L294.195263,79.9368546 Z M320.929803,85.9710146 C323.731826,85.9710146 326.245537,86.5836197 328.452919,87.8268476 C330.6603,89.0700756 332.390166,90.808793 333.624497,93.0610175 C334.867839,95.3042332 335.4805,97.8987958 335.4805,100.844706 C335.4805,101.313168 335.45347,101.970818 335.381393,102.835672 L335.381393,102.835672 L312.794027,102.835672 C313.190454,104.952763 314.226572,106.637427 315.89337,107.880655 C317.560168,109.114874 319.641413,109.745497 322.119086,109.745497 C325.281497,109.745497 327.885306,108.691456 329.930513,106.6104 L329.930513,106.6104 L333.54341,110.763502 C332.25502,112.313033 330.615251,113.475181 328.642123,114.267964 C326.659984,115.060747 324.434584,115.44813 321.956911,115.44813 C318.7945,115.44813 316.010496,114.817507 313.604901,113.56527 C311.199306,112.313033 309.334294,110.556298 308.027885,108.313082 C306.712466,106.060858 306.054757,103.520348 306.054757,100.682545 C306.054757,97.880778 306.694447,95.3582865 307.973827,93.1150709 C309.244197,90.8718552 311.019112,89.1151201 313.280551,87.8538743 C315.541991,86.6016375 318.091741,85.9710146 320.929803,85.9710146 Z M265.953397,85.9710146 C269.584314,85.9710146 272.494453,87.0340646 274.683815,89.1511557 C276.873177,91.2682468 277.972363,94.4123522 277.972363,98.5744632 L277.972363,98.5744632 L277.972363,115.069756 L271.233093,115.069756 L271.233093,99.4393174 C271.233093,96.9348437 270.647461,95.0339662 269.458178,93.7547027 C268.268895,92.484448 266.584078,91.8448162 264.394716,91.8448162 C261.908033,91.8448162 259.952924,92.5925548 258.511369,94.079023 C257.078824,95.5654912 256.358046,97.7186179 256.358046,100.520385 L256.358046,100.520385 L256.358046,115.069756 L249.627786,115.069756 L249.627786,86.295335 L256.033696,86.295335 L256.033696,90.007001 C257.150902,88.682693 258.547408,87.6736964 260.241235,86.9890201 C261.926053,86.3133527 263.836113,85.9710146 265.953397,85.9710146 Z M358.285901,85.9710146 C361.916818,85.9710146 364.826957,87.0340646 367.016319,89.1511557 C369.205681,91.2682468 370.304866,94.4123522 370.304866,98.5744632 L370.304866,98.5744632 L370.304866,115.069756 L363.565596,115.069756 L363.565596,99.4393174 C363.565596,96.9348437 362.979965,95.0339662 361.790682,93.7547027 C360.601399,92.484448 358.916581,91.8448162 356.727219,91.8448162 C354.240537,91.8448162 352.285428,92.5925548 350.843873,94.079023 C349.411327,95.5654912 348.69055,97.7186179 348.69055,100.520385 L348.69055,100.520385 L348.69055,115.069756 L341.96029,115.069756 L341.96029,86.295335 L348.3662,86.295335 L348.3662,90.007001 C349.483405,88.682693 350.879912,87.6736964 352.573739,86.9890201 C354.258556,86.3133527 356.168617,85.9710146 358.285901,85.9710146 Z M227.795434,91.6772507 C225.308752,91.6772507 223.272555,92.5060694 221.677835,94.1637066 C220.074105,95.812335 219.28125,97.9924884 219.28125,100.67714 C219.28125,103.379809 220.074105,105.550954 221.677835,107.208591 C223.272555,108.866228 225.308752,109.677029 227.795434,109.677029 C230.273107,109.677029 232.318313,108.866228 233.940063,107.208591 C235.552803,105.550954 236.363677,103.379809 236.363677,100.67714 C236.363677,97.9924884 235.552803,95.812335 233.940063,94.1637066 C232.318313,92.5060694 230.273107,91.6772507 227.795434,91.6772507 Z M11.8207516,93.7556036 C13.9019968,97.9447412 16.397689,101.890639 19.3438672,105.458162 L19.3438672,105.458162 L31.416891,99.2960759 Z M320.929803,91.3673446 C318.77648,91.3673446 316.947507,91.9979675 315.460903,93.2772311 C313.96529,94.5474857 313.064318,96.2501675 312.739968,98.3672585 L312.739968,98.3672585 L329.065579,98.3672585 C328.786278,96.2862031 327.903326,94.5925302 326.434741,93.3042578 C324.957148,92.0069764 323.119165,91.3673446 320.929803,91.3673446 Z M66.5908349,5.37831222 C52.8690325,5.37831222 40.2283964,9.96384141 30.0113748,17.6214049 C31.0925411,19.558318 31.7592603,21.7474803 31.7592603,24.1168205 C31.7592603,31.5311437 25.7407679,37.5490877 18.3257689,37.5490877 C16.5508542,37.5490877 14.857027,37.1887318 13.3073553,36.5581089 C8.27993198,45.4408825 5.37880238,55.6749909 5.37880238,66.5937755 C5.37880238,73.8999919 6.73926999,80.8908969 9.09981643,87.4043303 L9.09981643,87.4043303 L38.4624914,95.7015256 L125.757661,51.1435151 C118.883245,24.8555501 95.0074893,5.37831222 66.5908349,5.37831222 Z M126.919915,56.5758807 L87.060917,76.9269817 L121.171714,94.161004 C125.379253,85.8638087 127.811877,76.5125724 127.811877,66.5937755 C127.811877,63.1794031 127.460498,59.8461107 126.919915,56.5758807 L126.919915,56.5758807 Z M338.713187,30.4554812 C341.524219,30.4554812 344.028921,31.0770952 346.236302,32.2842876 C348.452693,33.5094977 350.182559,35.2301973 351.44392,37.464404 C352.696271,39.6986108 353.326951,42.2661468 353.326951,45.167012 C353.326951,48.0768861 352.696271,50.653431 351.44392,52.8966467 C350.182559,55.1488712 348.452693,56.8875886 346.236302,58.1037898 C344.028921,59.3199911 341.524219,59.9416051 338.713187,59.9416051 C334.839008,59.9416051 331.766693,58.6443237 329.505254,56.0587699 L329.505254,56.0587699 L329.505254,70.0135532 L322.765984,70.0135532 L322.765984,30.7798016 L329.180904,30.7798016 L329.180904,34.5545299 C330.289099,33.1851774 331.667586,32.1671719 333.298346,31.4734867 C334.938114,30.7978194 336.740058,30.4554812 338.713187,30.4554812 Z M372.240154,30.4527786 C375.042177,30.4527786 377.546879,31.0743926 379.75426,32.3176205 C381.970651,33.5518396 383.691507,35.2995658 384.934848,37.5517904 C386.16918,39.795006 386.790851,42.3895687 386.790851,45.3354784 C386.790851,45.8039411 386.754812,46.4615907 386.682734,47.3264449 L386.682734,47.3264449 L364.104378,47.3264449 C364.500805,49.443536 365.527913,51.119191 367.203721,52.362419 C368.870519,53.605647 370.942754,54.2272609 373.429437,54.2272609 C376.582839,54.2272609 379.195657,53.1822287 381.240864,51.0921644 L381.240864,51.0921644 L384.853761,55.2452664 C383.556361,56.7947969 381.925602,57.9569448 379.943464,58.7497278 C377.970335,59.5425109 375.744935,59.9389024 373.267262,59.9389024 C370.104851,59.9389024 367.320847,59.3082795 364.906243,58.0470338 C362.500648,56.7947969 360.644645,55.0380618 359.329226,52.7948461 C358.022817,50.5516305 357.365108,48.0111212 357.365108,45.1643093 C357.365108,42.3715509 357.995788,39.8400505 359.275168,37.5968349 C360.554548,35.3536192 362.320453,33.5968841 364.581893,32.3356383 C366.852342,31.0924104 369.402093,30.4527786 372.240154,30.4527786 Z M252.423502,30.4581839 C255.261563,30.4581839 257.757256,31.0257445 259.892559,32.1788835 C262.027863,33.3320224 263.640602,34.9896597 264.721769,37.1427864 L264.721769,37.1427864 L259.54118,40.1607673 C258.712286,38.8364592 257.685178,37.8274626 256.441837,37.1698131 C255.198495,36.5031546 253.847037,36.1698254 252.369444,36.1698254 C249.855732,36.1698254 247.774487,36.9806262 246.125708,38.6202457 C244.46792,40.2598652 243.639026,42.4400185 243.639026,45.1697147 C243.639026,47.8994108 244.45891,50.0885731 246.098679,51.7191837 C247.729438,53.3588031 249.819693,54.169604 252.369444,54.169604 C253.847037,54.169604 255.198495,53.8452836 256.441837,53.1696163 C257.685178,52.5119667 258.712286,51.511979 259.54118,50.1786621 L259.54118,50.1786621 L264.721769,53.196643 C263.595554,55.3587785 261.973804,57.0164158 259.838501,58.1875726 C257.703197,59.3587293 255.225525,59.9352988 252.423502,59.9352988 C249.441285,59.9352988 246.765398,59.304676 244.395842,58.0434302 C242.026286,56.8002023 240.170284,55.0344582 238.845855,52.7912426 C237.512417,50.5480269 236.854707,48.0075176 236.854707,45.1697147 C236.854707,42.3319117 237.512417,39.8004114 238.845855,37.5752135 C240.170284,35.3410067 242.017276,33.6022894 244.368813,32.3410436 C246.72035,31.0888068 249.405246,30.4581839 252.423502,30.4581839 Z M233.776086,30.4536795 L233.776086,36.868015 C233.199464,36.7689171 232.6769,36.7148637 232.208395,36.7148637 C229.586567,36.7148637 227.54136,37.4716112 226.063766,39.0031239 C224.595182,40.5346366 223.856385,42.7328077 223.856385,45.5976373 L223.856385,45.5976373 L223.856385,59.5614295 L217.117115,59.5614295 L217.117115,30.7779998 L223.532035,30.7779998 L223.532035,34.9851553 C225.478135,31.9671744 228.892818,30.4536795 233.776086,30.4536795 L233.776086,30.4536795 Z M195.941572,21.8384701 L212.969941,59.5587269 L205.64504,59.5587269 L201.869967,50.8291045 L183.003615,50.8291045 L179.282601,59.5587269 L172.065816,59.5587269 L189.040127,21.8384701 L195.941572,21.8384701 Z M277.001115,19.5763358 L277.001115,34.1257064 C278.11832,32.9365318 279.496807,32.035642 281.127566,31.3960102 C282.767335,30.7743962 284.587299,30.4590848 286.596466,30.4590848 C290.227383,30.4590848 293.137522,31.5221348 295.335894,33.630217 C297.525255,35.7563169 298.615431,38.9004224 298.615431,43.0625334 L298.615431,43.0625334 L298.615431,59.557826 L291.885171,59.557826 L291.885171,43.9273876 C291.885171,41.4229139 291.29053,39.5220364 290.101247,38.2427729 C288.920974,36.9635093 287.227146,36.3328864 285.037785,36.3328864 C282.560112,36.3328864 280.595993,37.080625 279.163448,38.5670932 C277.721892,40.0535614 277.001115,42.1976792 277.001115,45.0084554 L277.001115,45.0084554 L277.001115,59.557826 L270.270855,59.557826 L270.270855,19.5763358 L277.001115,19.5763358 Z M313.930152,30.7825043 L313.930152,59.5569251 L307.190882,59.5569251 L307.190882,30.7825043 L313.930152,30.7825043 Z M400,19.5754349 L400,59.5569251 L393.26073,59.5569251 L393.26073,19.5754349 L400,19.5754349 Z M337.96538,36.1671227 C336.343631,36.1671227 334.893066,36.5364875 333.595666,37.2752172 C332.307276,38.0139468 331.280168,39.058979 330.523352,40.4283316 C329.766536,41.7976841 329.397137,43.3742413 329.397137,45.167012 C329.397137,46.9687916 329.766536,48.5453488 330.523352,49.9056925 C331.280168,51.2840539 332.307276,52.3290861 333.595666,53.0678157 C334.893066,53.8065454 336.343631,54.1669013 337.96538,54.1669013 C340.443053,54.1669013 342.479249,53.3470916 344.08298,51.6984632 C345.6777,50.0408259 346.479565,47.8696815 346.479565,45.167012 C346.479565,42.4733514 345.6777,40.302207 344.08298,38.6445697 C342.479249,36.9959413 340.443053,36.1671227 337.96538,36.1671227 Z M192.436791,28.838384 L185.373171,45.3336766 L199.554469,45.3336766 L192.436791,28.838384 Z M372.240154,35.8491086 C370.086831,35.8491086 368.257858,36.4797315 366.771254,37.758995 C365.275641,39.0382586 364.365659,40.7319314 364.050319,42.8490225 L364.050319,42.8490225 L380.375931,42.8490225 C380.096629,40.767967 379.213677,39.0742942 377.736083,37.7860217 C376.267499,36.4887404 374.429516,35.8491086 372.240154,35.8491086 Z M310.583942,17.9592386 C311.800255,17.9592386 312.827363,18.3286034 313.656257,19.0583241 C314.485151,19.7970538 314.899598,20.7159614 314.899598,21.8330648 C314.899598,23.0222393 314.494161,24.0132181 313.683286,24.824019 C312.872411,25.6348198 311.836293,26.0402202 310.583942,26.0402202 C309.358621,26.0402202 308.331513,25.6528376 307.511628,24.8780724 C306.682734,24.1033071 306.268287,23.1483639 306.268287,21.995225 C306.268287,20.8510949 306.682734,19.8781339 307.511628,19.1123775 C308.331513,18.3466212 309.358621,17.9592386 310.583942,17.9592386 Z" id="Combined-Shape"></path>
            </g>
        </g>
    </g>
</svg>
