<svg width="1116" height="350" fill="none" xmlns="http://www.w3.org/2000/svg"><path fill-rule="evenodd" clip-rule="evenodd" d="m259.654 102.893 72.77 71.897-71.902 72.733-.868-79.129v-65.501Zm-11.996 65.566.999 91.066-28.942 29.276-.881-139.079-11.551.073.954 150.617-28.684 29.015-.452-83.022-11.551.063.428 78.666L16.964 175.93l57.59-58.254a27.838 27.838 0 0 0 13.635 3.541c15.334 0 27.765-12.321 27.765-27.519a27.2 27.2 0 0 0-3.857-14L174.12 16.96l73.538 72.657v78.842ZM103.855 70.976 165.587 8.53 174.02 0l8.532 8.43 159.016 157.11 8.532 8.43-.712.72.64.633-8.433 8.529-80.874 81.809-11.865 12.002-.014-1.265-64.33 65.073L176.08 350l-8.532-8.429L8.532 184.46 0 176.03l8.432-8.53 57.155-57.815a27.226 27.226 0 0 1-5.164-15.987c0-15.197 12.431-27.518 27.766-27.518 5.812 0 11.207 1.77 15.666 4.796Z" fill="#9EB1FF"/><path d="M475.613 115.112h-60.974l-12.02 30.57h-23.345l54.877-132.095h22.299l55.05 132.095h-23.692l-12.195-30.57Zm-7.491-19.248-22.996-57.745-22.822 57.745h45.818ZM545.65 59.632c6.271-10.568 17.305-15.852 33.1-15.852v22.456c-1.859-.377-3.543-.566-5.052-.566-8.479 0-15.099 2.705-19.86 8.115-4.762 5.284-7.143 12.958-7.143 23.022v48.875h-21.776V44.912h20.731v14.72ZM639.054 147.003c-9.64 0-18.292-2.201-25.958-6.604-7.665-4.404-13.646-10.505-17.943-18.305-4.298-7.926-6.446-16.858-6.446-26.797 0-9.938 2.148-18.807 6.446-26.607 4.297-7.8 10.22-13.902 17.769-18.305 7.665-4.403 16.376-6.605 26.132-6.605 9.175 0 17.189 2.013 24.041 6.039 6.968 4.026 12.195 9.813 15.679 17.36L662.05 77.749c-2.672-4.655-6.04-8.115-10.105-10.38-3.948-2.39-8.304-3.585-13.065-3.585-8.13 0-14.866 2.894-20.209 8.68-5.342 5.662-8.014 13.273-8.014 22.834 0 9.562 2.614 17.236 7.84 23.023 5.342 5.661 12.137 8.492 20.383 8.492 4.761 0 9.117-1.133 13.065-3.397 4.065-2.39 7.433-5.913 10.105-10.568l16.724 10.568c-3.601 7.548-8.885 13.398-15.853 17.55-6.853 4.025-14.808 6.038-23.867 6.038ZM749.533 43.78c11.73 0 21.138 3.711 28.222 11.134 7.085 7.422 10.627 18.43 10.627 33.024v57.744h-21.776V90.957c0-8.806-1.916-15.411-5.749-19.814-3.833-4.53-9.291-6.794-16.376-6.794-8.014 0-14.343 2.642-18.989 7.926-4.645 5.158-6.968 12.643-6.968 22.456v50.951h-21.777V5.662h21.777v50.95c3.6-4.151 8.013-7.296 13.24-9.435 5.342-2.265 11.265-3.397 17.769-3.397ZM816.007 44.912h21.776v100.77h-21.776V44.912Zm10.975-16.606c-3.949 0-7.259-1.32-9.93-3.963-2.671-2.767-4.007-6.164-4.007-10.19s1.336-7.36 4.007-10.001C819.723 1.384 823.033 0 826.982 0s7.259 1.321 9.93 3.963c2.671 2.516 4.007 5.724 4.007 9.624 0 4.151-1.336 7.674-4.007 10.568-2.555 2.767-5.865 4.151-9.93 4.151ZM917.931 43.78c9.059 0 17.131 2.139 24.215 6.416 7.201 4.278 12.834 10.316 16.899 18.116 4.065 7.8 6.097 16.795 6.097 26.985 0 10.191-2.032 19.249-6.097 27.174-4.065 7.8-9.698 13.839-16.899 18.116-7.084 4.278-15.156 6.416-24.215 6.416-12.543 0-22.473-4.529-29.79-13.587v48.876h-21.776V44.912h20.731v13.21c3.6-4.78 8.013-8.366 13.24-10.756 5.342-2.39 11.207-3.586 17.595-3.586Zm-2.439 83.032c8.014 0 14.576-2.894 19.686-8.681 5.226-5.787 7.839-13.398 7.839-22.834 0-9.435-2.613-17.046-7.839-22.833-5.11-5.787-11.672-8.68-19.686-8.68-5.226 0-9.93 1.32-14.111 3.962-4.181 2.516-7.491 6.165-9.93 10.945s-3.659 10.316-3.659 16.606c0 6.291 1.22 11.826 3.659 16.607 2.439 4.78 5.749 8.492 9.93 11.133 4.181 2.517 8.885 3.775 14.111 3.775ZM1073.25 95.864c0 1.635-.12 3.962-.35 6.982h-72.995c1.275 7.422 4.585 13.335 9.935 17.738 5.45 4.278 12.19 6.416 20.2 6.416 10.22 0 18.64-3.648 25.26-10.945l11.68 14.531c-4.18 5.409-9.47 9.498-15.86 12.266-6.38 2.767-13.59 4.151-21.6 4.151-10.22 0-19.22-2.201-27-6.604-7.783-4.404-13.822-10.505-18.12-18.305-4.181-7.926-6.271-16.858-6.271-26.797 0-9.812 2.032-18.619 6.097-26.419 4.181-7.925 9.93-14.09 17.244-18.493 7.32-4.403 15.57-6.605 24.74-6.605 9.06 0 17.13 2.202 24.22 6.605 7.2 4.277 12.77 10.379 16.72 18.305 4.07 7.8 6.1 16.858 6.1 27.174Zm-47.04-33.213c-6.97 0-12.89 2.264-17.77 6.793-4.76 4.404-7.66 10.316-8.709 17.739h52.789c-.93-7.297-3.78-13.21-8.54-17.739s-10.68-6.793-17.77-6.793ZM1094.17 5.661h21.77v140.021h-21.77V5.662Z" fill="#9EB1FF"/><path fill-rule="evenodd" clip-rule="evenodd" d="M1115.94 175H379.275v175h736.665V175ZM802.43 300.75l17.527-16.278 34.864 42.358h28.646l-45.984-57.34 42.027-41.433h-28.269l-48.811 44.392v-82.866h-23.557V326.83h23.557v-26.08Zm-272.989-59.745.188 85.825h23.18l-.188-129.478h-20.165l-51.449 85.826-52.392-85.826H408.45V326.83h23.369v-84.716l43.346 69.919h10.93l43.346-71.028Zm129.108-3.515c-7.789-7.029-19.097-10.543-33.922-10.543-8.292 0-16.145 1.048-23.557 3.144-7.413 2.097-13.758 5.118-19.035 9.064l9.235 16.832c3.769-3.083 8.355-5.487 13.757-7.214 5.528-1.726 11.119-2.589 16.773-2.589 8.292 0 14.511 1.849 18.657 5.549 4.272 3.699 6.408 9.002 6.408 15.907v1.48h-26.007c-14.449 0-25.065 2.713-31.85 8.139-6.659 5.302-9.988 12.392-9.988 21.271 0 5.672 1.508 10.79 4.523 15.352 3.141 4.44 7.538 7.954 13.192 10.544 5.654 2.466 12.25 3.699 19.788 3.699s13.946-1.11 19.223-3.329c5.402-2.343 9.548-5.673 12.438-9.989v12.023h22.238v-57.895c0-14.058-3.957-24.539-11.873-31.445Zm-21.484 69.918c-4.523 2.59-9.737 3.885-15.642 3.885-6.031 0-10.742-1.233-14.134-3.7-3.393-2.466-5.089-5.795-5.089-9.988 0-8.755 6.785-13.133 20.354-13.133h24.311v11.468c-1.885 4.933-5.151 8.756-9.8 11.468Zm86.017-64.924c6.784-10.358 18.72-15.537 35.807-15.537v22.011c-2.01-.37-3.832-.555-5.466-.555-9.171 0-16.333 2.652-21.484 7.954-5.151 5.179-7.727 12.701-7.727 22.566v47.907h-23.557v-98.773h22.427v14.427Zm265.975 35.514c0 1.603-.126 3.885-.377 6.844h-78.964c1.382 7.276 4.963 13.071 10.742 17.387 5.905 4.193 13.192 6.289 21.861 6.289 11.056 0 20.165-3.576 27.327-10.728l12.626 14.243c-4.523 5.302-10.239 9.31-17.149 12.023-6.911 2.713-14.7 4.069-23.369 4.069-11.056 0-20.793-2.158-29.211-6.474-8.418-4.316-14.951-10.297-19.6-17.942-4.523-7.769-6.784-16.524-6.784-26.265 0-9.619 2.198-18.251 6.596-25.896 4.523-7.769 10.742-13.811 18.657-18.127 7.915-4.316 16.836-6.474 26.761-6.474 9.8 0 18.532 2.158 26.196 6.474 7.789 4.193 13.82 10.173 18.092 17.942 4.397 7.645 6.596 16.524 6.596 26.635Zm-50.884-32.554c-7.538 0-13.946 2.22-19.223 6.659-5.151 4.316-8.292 10.111-9.423 17.387h57.103c-1.005-7.152-4.083-12.948-9.234-17.387s-11.559-6.659-19.223-6.659ZM1062 326.46c4.02-1.11 7.42-2.774 10.18-4.994l-6.6-16.462c-3.51 2.713-7.91 4.069-13.19 4.069-4.52 0-7.98-1.233-10.36-3.699-2.39-2.59-3.58-6.289-3.58-11.098v-46.982h26.95v-18.497h-26.95v-22.566h-23.56v22.566h-16.585v18.497h16.585v47.537c0 10.851 3.01 19.113 9.04 24.785 6.04 5.673 14.58 8.509 25.64 8.509 4.39 0 8.54-.555 12.43-1.665Z" fill="#9EB1FF"/></svg>