<?xml version="1.0" encoding="UTF-8"?>
<svg width="250px" height="250px" viewBox="0 0 250 250" version="1.1" xmlns="http://www.w3.org/2000/svg" xmlns:xlink="http://www.w3.org/1999/xlink">
    <defs>
        <filter x="-126.8%" y="-126.8%" width="353.6%" height="353.6%" filterUnits="objectBoundingBox" id="filter-1">
            <feGaussianBlur stdDeviation="7" in="SourceGraphic"></feGaussianBlur>
        </filter>
        <filter x="-126.8%" y="-126.8%" width="353.6%" height="353.6%" filterUnits="objectBoundingBox" id="filter-2">
            <feGaussianBlur stdDeviation="7" in="SourceGraphic"></feGaussianBlur>
        </filter>
    </defs>
    <g id="Illustrations/250px/profil_user" stroke="none" stroke-width="1" fill="none" fill-rule="evenodd">
        <g id="Group-2" transform="translate(37.000000, 38.000000)">
            <path d="M2.7826087,147.276009 C2.7826087,142.709045 6.49767092,138.993983 11.064635,138.993983 C15.6315991,138.993983 19.3466613,142.709045 19.3466613,147.276009 C19.3466613,151.842973 15.6315991,155.558036 11.064635,155.558036 C6.49767092,155.558036 2.7826087,151.842974 2.7826087,147.276009 Z" id="Path" fill="#FF6E61" fill-rule="nonzero" filter="url(#filter-1)"></path>
            <path d="M152.248447,125.01514 C152.248447,120.448175 155.963509,116.733113 160.530474,116.733113 C165.097438,116.733113 168.8125,120.448176 168.8125,125.01514 C168.8125,129.582104 165.097438,133.297166 160.530474,133.297166 C155.963509,133.297166 152.248447,129.582104 152.248447,125.01514 Z" id="Path" fill="#FF6E61" fill-rule="nonzero" filter="url(#filter-2)"></path>
            <path d="M2.7826087,147.276009 C2.7826087,142.709045 6.49767092,138.993983 11.064635,138.993983 C15.6315991,138.993983 19.3466613,142.709045 19.3466613,147.276009 C19.3466613,151.842973 15.6315991,155.558036 11.064635,155.558036 C6.49767092,155.558036 2.7826087,151.842974 2.7826087,147.276009 Z" id="Path" fill="#FF6E61" fill-rule="nonzero"></path>
            <path d="M152.248447,125.01514 C152.248447,120.448175 155.963509,116.733113 160.530474,116.733113 C165.097438,116.733113 168.8125,120.448176 168.8125,125.01514 C168.8125,129.582104 165.097438,133.297166 160.530474,133.297166 C155.963509,133.297166 152.248447,129.582104 152.248447,125.01514 Z" id="Path" fill="#FF6E61" fill-rule="nonzero"></path>
            <path d="M1.74617347,37.6361713 C1.74617347,33.2177344 4.95755792,26.9356416 13.0724902,27.8348603 C13.0724902,7.75069258 37.4440489,11.0539321 37.4440489,26.5052044 C42.0391877,27.466702 43.3921964,31.4463075 43.0725707,34.8979085 C47.0162655,34.8979085 51.8786295,34.8979085 57.6596627,34.8979085" id="Path-2" stroke="#414D86" stroke-width="2" stroke-linecap="round" stroke-linejoin="round"></path>
            <path d="M127.171603,26.0309851 C127.171603,21.1558909 130.422473,15.313002 138.991018,16.1871994 C138.991018,-3.89696832 163.362577,-0.59372884 163.362577,14.8575435 C174.150337,16.1871994 175.190562,24.6812178 175.190562,26.0309851" id="Path-2" stroke="#414D86" stroke-width="2" stroke-linecap="round" stroke-linejoin="round"></path>
            <polyline id="Path-3" stroke="#414D86" stroke-width="2" stroke-linecap="round" stroke-linejoin="round" points="57.6596627 71.8650966 57.6596627 23.3187178 103.90099 23.3187178 103.90099 71.8650966"></polyline>
            <line x1="81.0445967" y1="23.3187178" x2="81.0445967" y2="1.90926508" id="Path-4" stroke="#414D86" stroke-width="2" stroke-linecap="round" stroke-linejoin="round"></line>
            <line x1="2.0142206" y1="172.776602" x2="173.3787" y2="172.776602" id="Path-12" stroke="#414D86" stroke-width="2" stroke-linecap="round" stroke-linejoin="round"></line>
            <circle id="Oval" stroke="#414D86" stroke-width="2" cx="12.0248447" cy="145.391304" r="10.931677"></circle>
            <line x1="12.0248447" y1="156.322981" x2="12.0248447" y2="172.776602" id="Path-13" stroke="#414D86" stroke-width="2" stroke-linecap="round" stroke-linejoin="round"></line>
            <circle id="Oval" stroke="#414D86" stroke-width="2" cx="162.881988" cy="146.484472" r="10.931677"></circle>
            <circle id="Oval-Copy" stroke="#414D86" stroke-width="2" cx="162.881988" cy="124.621118" r="10.931677"></circle>
            <line x1="162.881988" y1="157.416149" x2="162.881988" y2="172.776602" id="Path-5" stroke="#414D86" stroke-width="2" stroke-linecap="round" stroke-linejoin="round"></line>
            <polygon id="Path-6" stroke="#414D86" stroke-width="2" fill="#6F7CBD" stroke-linecap="round" stroke-linejoin="round" points="36.8325354 172.776602 36.8325354 72.5519454 79.3445295 72.5519454 79.3445295 172.776602"></polygon>
            <line x1="64.4968944" y1="86.3602484" x2="64.4968944" y2="94.0124224" id="Path-7" stroke="#121424" stroke-width="2" stroke-linecap="round" stroke-linejoin="round"></line>
            <line x1="51.378882" y1="86.3602484" x2="51.378882" y2="94.0124224" id="Path-7-Copy" stroke="#121424" stroke-width="2" stroke-linecap="round" stroke-linejoin="round"></line>
            <line x1="64.4968944" y1="102.757764" x2="64.4968944" y2="110.409938" id="Path-7-Copy-2" stroke="#121424" stroke-width="2" stroke-linecap="round" stroke-linejoin="round"></line>
            <line x1="51.378882" y1="102.757764" x2="51.378882" y2="110.409938" id="Path-7-Copy-3" stroke="#121424" stroke-width="2" stroke-linecap="round" stroke-linejoin="round"></line>
            <line x1="64.4968944" y1="119.15528" x2="64.4968944" y2="126.807453" id="Path-7-Copy-4" stroke="#121424" stroke-width="2" stroke-linecap="round" stroke-linejoin="round"></line>
            <line x1="51.378882" y1="119.15528" x2="51.378882" y2="126.807453" id="Path-7-Copy-5" stroke="#121424" stroke-width="2" stroke-linecap="round" stroke-linejoin="round"></line>
            <line x1="64.4968944" y1="135.552795" x2="64.4968944" y2="143.204969" id="Path-7-Copy-6" stroke="#121424" stroke-width="2" stroke-linecap="round" stroke-linejoin="round"></line>
            <line x1="51.378882" y1="135.552795" x2="51.378882" y2="143.204969" id="Path-7-Copy-7" stroke="#121424" stroke-width="2" stroke-linecap="round" stroke-linejoin="round"></line>
            <line x1="64.4968944" y1="151.950311" x2="64.4968944" y2="159.602484" id="Path-7-Copy-8" stroke="#121424" stroke-width="2" stroke-linecap="round" stroke-linejoin="round"></line>
            <line x1="51.378882" y1="151.950311" x2="51.378882" y2="159.602484" id="Path-7-Copy-9" stroke="#121424" stroke-width="2" stroke-linecap="round" stroke-linejoin="round"></line>
            <polygon id="Path-8" stroke="#414D86" stroke-width="2" fill="#6F7CBD" stroke-linecap="round" stroke-linejoin="round" points="79.3445295 172.776602 79.3445295 56.2898447 138.141623 31.4100896 138.141623 172.776602 121.482679 172.776602 121.482679 148.577135 96.0563957 148.577135 96.0563957 172.776602"></polygon>
            <polyline id="Path-9" stroke="#414D86" stroke-width="2" stroke-linecap="round" stroke-linejoin="round" points="96.0563957 172.776602 96.0563957 148.577135 121.482679 148.577135 121.482679 172.776602"></polyline>
            <line x1="92.0002323" y1="74.8819876" x2="124.961054" y2="74.8819876" id="Path-10" stroke="#121424" stroke-width="2" stroke-linecap="round" stroke-linejoin="round"></line>
            <line x1="92.0002323" y1="93.4658385" x2="124.961054" y2="93.4658385" id="Path-10-Copy" stroke="#121424" stroke-width="2" stroke-linecap="round" stroke-linejoin="round"></line>
            <line x1="92.0002323" y1="112.049689" x2="124.961054" y2="112.049689" id="Path-10-Copy-2" stroke="#121424" stroke-width="2" stroke-linecap="round" stroke-linejoin="round"></line>
            <line x1="92.0002323" y1="130.63354" x2="124.961054" y2="130.63354" id="Path-10-Copy-3" stroke="#121424" stroke-width="2" stroke-linecap="round" stroke-linejoin="round"></line>
        </g>
    </g>
</svg>
