<svg width="351" height="350" viewBox="0 0 351 350" fill="none" xmlns="http://www.w3.org/2000/svg">
<path fill-rule="evenodd" clip-rule="evenodd" d="M317.505 0C335.613 0.00796777 350.28 14.6846 350.28 32.7953C350.28 48.6512 339.007 61.8777 324.045 64.9134L323.998 350L0.246094 349.944L0.325763 26.1661L285.374 26.2299C288.417 11.2585 301.642 0 317.505 0ZM310.271 64.7142L251.252 195.338C258.908 201.345 263.911 210.572 263.911 221.058C263.911 239.16 249.228 253.837 231.119 253.837C221.798 253.837 213.441 249.901 207.473 243.662L32.9901 336.837L310.884 336.885L310.932 64.9054C310.709 64.8576 310.494 64.77 310.271 64.7142ZM13.3915 226.356L13.3676 332.447L200.51 232.507C199.969 231.057 199.578 229.535 199.228 228.014L13.3915 226.356ZM13.4313 39.2811L13.3915 213.225L198.957 214.891C201.841 199.736 215.13 188.262 231.127 188.262C234.043 188.262 236.816 188.756 239.508 189.473L298.328 59.2802C291.795 54.5473 287.039 47.5357 285.374 39.3369L13.4313 39.2811Z" fill="#9EB1FF"/>
</svg>
